M48
; DRILL file {KiCad (7.0.0)} date Sun Sep 24 17:47:43 2023
; FORMAT={-:-/ absolute / metric / decimal}
; #@! TF.CreationDate,2023-09-24T17:47:43-07:00
; #@! TF.GenerationSoftware,Kicad,Pcbnew,(7.0.0)
; #@! TF.FileFunction,Plated,1,2,PTH
FMAT,2
METRIC
; #@! TA.AperFunction,Plated,PTH,ViaDrill
T1C0.381
; #@! TA.AperFunction,Plated,PTH,ComponentDrill
T2C0.800
; #@! TA.AperFunction,Plated,PTH,ComponentDrill
T3C0.900
; #@! TA.AperFunction,Plated,PTH,ComponentDrill
T4C1.000
%
G90
G05
T1
X66.802Y-87.63
X66.802Y-132.842
X67.564Y-89.154
X67.564Y-130.81
X68.326Y-87.63
X68.326Y-128.27
X69.088Y-89.154
X69.088Y-125.73
X69.85Y-87.63
X69.85Y-123.19
X70.612Y-89.154
X70.612Y-120.65
X71.374Y-118.11
X71.404Y-87.66
X72.136Y-89.154
X72.136Y-115.316
X72.898Y-101.6
X72.898Y-108.712
X76.2Y-111.506
X76.2Y-114.3
X77.724Y-111.505
X78.486Y-121.92
X78.486Y-112.522
X79.248Y-119.38
X79.248Y-113.538
X79.502Y-124.46
X80.01Y-114.554
X80.01Y-116.84
X81.28Y-110.49
X85.344Y-130.81
X87.376Y-130.81
X90.424Y-107.95
X92.202Y-87.884
X92.202Y-89.408
X92.202Y-116.84
X92.202Y-118.618
X93.98Y-131.064
X93.98Y-132.588
X104.14Y-115.316
X106.934Y-106.934
X107.696Y-106.172
X107.95Y-77.724
X108.458Y-105.41
X109.22Y-104.648
X110.49Y-77.724
X111.76Y-95.25
X114.3Y-93.98
X116.84Y-92.71
X118.364Y-129.54
X119.38Y-91.44
X119.634Y-116.586
X119.634Y-119.888
X120.142Y-129.54
X120.396Y-115.57
X121.92Y-90.17
X122.428Y-117.602
X124.46Y-88.9
X127.0Y-87.63
X127.0Y-129.54
X128.524Y-129.54
X129.286Y-106.934
X130.048Y-106.172
X130.81Y-105.41
X131.064Y-123.698
X131.572Y-104.648
X133.096Y-115.57
X133.35Y-121.158
X133.35Y-129.54
X133.604Y-116.586
X138.43Y-103.124
X138.43Y-108.458
X139.7Y-113.792
X140.97Y-103.124
X140.97Y-108.458
X143.51Y-103.124
X143.51Y-108.458
X144.78Y-114.554
X144.78Y-115.57
X146.05Y-103.124
X146.05Y-108.458
X147.32Y-115.316
X147.32Y-122.936
X148.59Y-103.124
X148.59Y-108.458
X149.86Y-116.078
X151.13Y-103.124
X151.13Y-108.458
X152.415Y-76.962
X152.654Y-113.792
X152.654Y-115.316
X153.67Y-103.124
X153.67Y-108.458
X153.924Y-114.554
X153.924Y-116.078
X156.21Y-103.124
X156.21Y-108.458
X162.052Y-115.316
X163.576Y-114.554
X163.576Y-116.078
X163.83Y-77.724
X166.37Y-77.724
X167.64Y-114.554
X167.64Y-140.716
X170.18Y-115.316
X170.18Y-138.176
X172.72Y-116.078
X172.72Y-135.636
X189.992Y-106.934
X192.278Y-106.172
X194.564Y-105.41
X196.85Y-104.648
X210.312Y-73.66
X220.98Y-104.14
X220.98Y-106.68
X220.98Y-109.22
X220.98Y-111.76
X220.98Y-114.3
X220.98Y-116.84
X220.98Y-119.38
X220.98Y-121.92
X220.98Y-124.46
X220.98Y-127.0
X226.06Y-97.79
X228.6Y-95.25
X231.14Y-92.71
X233.68Y-90.17
X236.22Y-87.63
T2
X55.88Y-76.2
X55.88Y-81.2
X56.896Y-137.2
X56.896Y-139.7
X60.96Y-76.2
X60.96Y-83.82
X63.5Y-76.2
X63.5Y-83.82
X64.77Y-71.12
X66.04Y-76.2
X66.04Y-83.82
X67.31Y-71.12
X68.58Y-76.2
X68.58Y-83.82
X69.85Y-71.12
X71.12Y-76.2
X71.12Y-83.82
X72.39Y-71.12
X73.66Y-76.2
X73.66Y-83.82
X74.93Y-71.12
X76.2Y-76.2
X76.2Y-83.82
X76.2Y-91.44
X76.2Y-93.98
X76.2Y-96.52
X76.2Y-99.06
X76.2Y-101.6
X76.2Y-104.14
X76.2Y-106.68
X76.2Y-109.22
X76.2Y-116.84
X76.2Y-119.38
X76.2Y-121.92
X76.2Y-124.46
X76.2Y-127.0
X76.2Y-129.54
X76.2Y-132.08
X76.2Y-134.62
X77.47Y-71.12
X78.74Y-76.2
X78.74Y-83.82
X80.01Y-71.12
X81.28Y-76.2
X81.28Y-83.82
X82.55Y-71.12
X83.82Y-76.2
X83.82Y-83.82
X83.82Y-91.44
X83.82Y-93.98
X83.82Y-96.52
X83.82Y-99.06
X83.82Y-101.6
X83.82Y-104.14
X83.82Y-106.68
X83.82Y-109.22
X83.82Y-116.84
X83.82Y-119.38
X83.82Y-121.92
X83.82Y-124.46
X83.82Y-127.0
X83.82Y-129.54
X83.82Y-132.08
X83.82Y-134.62
X85.09Y-71.12
X88.9Y-91.44
X88.9Y-96.44
X88.9Y-116.84
X88.9Y-121.84
X95.25Y-83.566
X97.75Y-83.566
X99.06Y-119.38
X99.06Y-127.0
X101.6Y-119.38
X101.6Y-127.0
X104.14Y-76.2
X104.14Y-81.2
X104.14Y-119.38
X104.14Y-127.0
X106.68Y-119.38
X106.68Y-127.0
X109.22Y-76.2
X109.22Y-83.82
X109.22Y-119.38
X109.22Y-127.0
X111.76Y-76.2
X111.76Y-83.82
X111.76Y-119.38
X111.76Y-127.0
X113.03Y-71.12
X114.3Y-76.2
X114.3Y-83.82
X114.3Y-119.38
X114.3Y-127.0
X115.57Y-71.12
X116.84Y-76.2
X116.84Y-83.82
X116.84Y-119.38
X116.84Y-127.0
X118.11Y-71.12
X119.38Y-76.2
X119.38Y-83.82
X120.65Y-71.12
X121.92Y-76.2
X121.92Y-83.82
X123.19Y-71.12
X124.46Y-76.2
X124.46Y-83.82
X124.46Y-122.0
X124.46Y-127.0
X125.73Y-71.12
X127.0Y-76.2
X127.0Y-83.82
X128.27Y-71.12
X129.54Y-76.2
X129.54Y-83.82
X130.81Y-71.12
X132.08Y-76.2
X132.08Y-83.82
X132.08Y-119.38
X132.08Y-127.0
X133.35Y-71.12
X134.62Y-119.38
X134.62Y-127.0
X137.16Y-119.38
X137.16Y-127.0
X139.7Y-119.38
X139.7Y-127.0
X142.24Y-119.38
X142.24Y-127.0
X143.256Y-73.66
X143.256Y-83.82
X144.78Y-119.38
X144.78Y-127.0
X147.32Y-119.38
X147.32Y-127.0
X149.86Y-119.38
X149.86Y-127.0
X157.48Y-122.0
X157.48Y-127.0
X160.02Y-76.2
X160.02Y-81.2
X165.1Y-76.2
X165.1Y-83.82
X167.64Y-76.2
X167.64Y-83.82
X168.91Y-71.12
X170.18Y-76.2
X170.18Y-83.82
X171.45Y-71.12
X172.72Y-76.2
X172.72Y-83.82
X173.99Y-71.12
X175.26Y-76.2
X175.26Y-83.82
X176.53Y-71.12
X177.8Y-76.2
X177.8Y-83.82
X179.07Y-71.12
X180.34Y-76.2
X180.34Y-83.82
X181.61Y-71.12
X182.88Y-76.2
X182.88Y-83.82
X184.15Y-71.12
X185.42Y-76.2
X185.42Y-83.82
X186.69Y-71.12
X187.96Y-76.2
X187.96Y-83.82
X189.23Y-71.12
X194.564Y-84.416
X194.564Y-86.916
X208.28Y-76.2
X208.28Y-81.2
X213.36Y-76.2
X213.36Y-83.82
X215.9Y-76.2
X215.9Y-83.82
X218.44Y-76.2
X218.44Y-83.82
X219.71Y-71.12
X220.98Y-76.2
X220.98Y-83.82
X222.25Y-71.12
X223.52Y-76.2
X223.52Y-83.82
X224.79Y-71.12
X226.06Y-76.2
X226.06Y-83.82
X227.33Y-71.12
X228.6Y-76.2
X228.6Y-83.82
X229.87Y-71.12
X231.14Y-76.2
X231.14Y-83.82
X232.41Y-71.12
X233.68Y-76.2
X233.68Y-83.82
X234.95Y-71.12
X236.22Y-76.2
X236.22Y-83.82
X237.49Y-71.12
X240.03Y-71.12
T3
X53.34Y-63.5
X55.88Y-63.5
X59.436Y-63.505
X61.976Y-63.505
X65.532Y-63.505
X68.072Y-63.505
X71.628Y-63.5
X74.168Y-63.5
X77.724Y-63.5
X80.264Y-63.5
X83.82Y-63.5
X86.36Y-63.5
X89.916Y-63.5
X92.456Y-63.5
X96.012Y-63.5
X98.552Y-63.5
X102.108Y-63.5
X104.648Y-63.5
X108.204Y-63.5
X110.744Y-63.5
X114.3Y-63.5
X116.84Y-63.5
X120.396Y-63.5
X122.936Y-63.5
X126.492Y-63.5
X129.032Y-63.5
X132.588Y-63.5
X135.128Y-63.5
X138.684Y-63.5
X141.224Y-63.5
X144.78Y-63.5
X147.32Y-63.5
X157.48Y-63.5
X160.02Y-63.5
X163.576Y-63.5
X166.116Y-63.5
X169.672Y-63.5
X172.212Y-63.5
X175.768Y-63.5
X178.308Y-63.5
X181.864Y-63.5
X184.404Y-63.5
X187.96Y-63.5
X190.5Y-63.5
X194.056Y-63.5
X196.596Y-63.5
X200.152Y-63.5
X202.692Y-63.5
X206.248Y-63.5
X208.788Y-63.5
X212.344Y-63.5
X214.884Y-63.5
X218.44Y-63.5
X220.98Y-63.5
X224.536Y-63.5
X227.076Y-63.5
X230.632Y-63.5
X233.172Y-63.5
X236.728Y-63.5
X239.268Y-63.5
X242.824Y-63.5
X245.364Y-63.5
X248.92Y-63.5
X251.46Y-63.5
T4
X60.96Y-91.44
X60.96Y-93.98
X60.96Y-96.52
X60.96Y-99.06
X60.96Y-101.6
X60.96Y-104.14
X60.96Y-106.68
X60.96Y-109.22
X60.96Y-111.76
X60.96Y-114.3
X60.96Y-116.84
X60.96Y-119.38
X60.96Y-121.92
X60.96Y-124.46
X60.96Y-127.0
X60.96Y-129.54
X60.96Y-144.78
X63.5Y-91.44
X63.5Y-93.98
X63.5Y-96.52
X63.5Y-99.06
X63.5Y-101.6
X63.5Y-104.14
X63.5Y-106.68
X63.5Y-109.22
X63.5Y-111.76
X63.5Y-114.3
X63.5Y-116.84
X63.5Y-119.38
X63.5Y-121.92
X63.5Y-124.46
X63.5Y-127.0
X63.5Y-129.54
X63.5Y-144.78
X66.04Y-144.78
X68.58Y-144.78
X71.12Y-144.78
X73.66Y-144.78
X76.2Y-144.78
X78.74Y-144.78
X81.28Y-144.78
X83.82Y-144.78
X86.36Y-144.78
X88.9Y-144.78
X91.44Y-144.78
X93.98Y-144.78
X101.6Y-144.78
X104.14Y-144.78
X106.68Y-144.78
X109.22Y-144.78
X111.76Y-144.78
X114.3Y-144.78
X116.84Y-144.78
X119.38Y-144.78
X121.92Y-144.78
X124.46Y-144.78
X127.0Y-144.78
X129.54Y-144.78
X132.08Y-144.78
X134.62Y-144.78
X137.16Y-144.78
X139.7Y-144.78
X149.875Y-83.058
X152.415Y-83.058
X154.955Y-83.058
X165.1Y-144.78
X167.64Y-144.78
X170.18Y-144.78
X172.72Y-144.78
X175.26Y-144.78
X177.8Y-144.78
X180.34Y-144.78
X182.88Y-144.78
X185.42Y-144.78
X187.96Y-144.78
X190.5Y-144.78
X193.04Y-144.78
X195.58Y-144.78
X198.12Y-144.78
X200.66Y-144.78
X203.2Y-144.78
X205.74Y-144.78
X208.28Y-144.78
X210.82Y-144.78
X213.36Y-144.78
X215.9Y-144.78
X218.44Y-144.78
X220.98Y-144.78
X223.52Y-144.78
X226.06Y-144.78
X228.6Y-144.78
X231.14Y-144.78
X233.68Y-144.78
X236.22Y-144.78
X238.76Y-144.78
X241.3Y-81.28
X241.3Y-83.82
X241.3Y-86.36
X241.3Y-88.9
X241.3Y-91.44
X241.3Y-93.98
X241.3Y-96.52
X241.3Y-99.06
X241.3Y-101.6
X241.3Y-104.14
X241.3Y-106.68
X241.3Y-109.22
X241.3Y-111.76
X241.3Y-114.3
X241.3Y-116.84
X241.3Y-119.38
X241.3Y-121.92
X241.3Y-144.78
X243.84Y-81.28
X243.84Y-83.82
X243.84Y-86.36
X243.84Y-88.9
X243.84Y-91.44
X243.84Y-93.98
X243.84Y-96.52
X243.84Y-99.06
X243.84Y-101.6
X243.84Y-104.14
X243.84Y-106.68
X243.84Y-109.22
X243.84Y-111.76
X243.84Y-114.3
X243.84Y-116.84
X243.84Y-119.38
X243.84Y-121.92
X243.84Y-144.78
T0
M30
