%TF.GenerationSoftware,KiCad,Pcbnew,(7.0.0)*%
%TF.CreationDate,2023-09-24T17:47:44-07:00*%
%TF.ProjectId,peripheral_connect,70657269-7068-4657-9261-6c5f636f6e6e,rev?*%
%TF.SameCoordinates,Original*%
%TF.FileFunction,Drillmap*%
%TF.FilePolarity,Positive*%
%FSLAX45Y45*%
G04 Gerber Fmt 4.5, Leading zero omitted, Abs format (unit mm)*
G04 Created by KiCad (PCBNEW (7.0.0)) date 2023-09-24 17:47:44*
%MOMM*%
%LPD*%
G01*
G04 APERTURE LIST*
%ADD10C,0.100000*%
%ADD11C,0.200000*%
%ADD12C,0.038100*%
%ADD13C,0.080000*%
%ADD14C,0.090000*%
G04 APERTURE END LIST*
D10*
X25400000Y-5270500D02*
X25400000Y-14668500D01*
X25209500Y-14859000D02*
G75*
G03*
X25400000Y-14668500I0J190500D01*
G01*
X5080000Y-14668500D02*
G75*
G03*
X5270500Y-14859000I190500J0D01*
G01*
X5080000Y-14668500D02*
X5080000Y-5270500D01*
X5270500Y-5080000D02*
G75*
G03*
X5080000Y-5270500I0J-190500D01*
G01*
X25209500Y-14859000D02*
X5270500Y-14859000D01*
X25400000Y-5270500D02*
G75*
G03*
X25209500Y-5080000I-190500J0D01*
G01*
X5270500Y-5080000D02*
X25209500Y-5080000D01*
D11*
D12*
X6661150Y-8743950D02*
X6699250Y-8782050D01*
X6699250Y-8743950D02*
X6661150Y-8782050D01*
X6661150Y-13265150D02*
X6699250Y-13303250D01*
X6699250Y-13265150D02*
X6661150Y-13303250D01*
X6737350Y-8896350D02*
X6775450Y-8934450D01*
X6775450Y-8896350D02*
X6737350Y-8934450D01*
X6737350Y-13061950D02*
X6775450Y-13100050D01*
X6775450Y-13061950D02*
X6737350Y-13100050D01*
X6813550Y-8743950D02*
X6851650Y-8782050D01*
X6851650Y-8743950D02*
X6813550Y-8782050D01*
X6813550Y-12807950D02*
X6851650Y-12846050D01*
X6851650Y-12807950D02*
X6813550Y-12846050D01*
X6889750Y-8896350D02*
X6927850Y-8934450D01*
X6927850Y-8896350D02*
X6889750Y-8934450D01*
X6889750Y-12553950D02*
X6927850Y-12592050D01*
X6927850Y-12553950D02*
X6889750Y-12592050D01*
X6965950Y-8743950D02*
X7004050Y-8782050D01*
X7004050Y-8743950D02*
X6965950Y-8782050D01*
X6965950Y-12299950D02*
X7004050Y-12338050D01*
X7004050Y-12299950D02*
X6965950Y-12338050D01*
X7042150Y-8896350D02*
X7080250Y-8934450D01*
X7080250Y-8896350D02*
X7042150Y-8934450D01*
X7042150Y-12045950D02*
X7080250Y-12084050D01*
X7080250Y-12045950D02*
X7042150Y-12084050D01*
X7118350Y-11791950D02*
X7156450Y-11830050D01*
X7156450Y-11791950D02*
X7118350Y-11830050D01*
X7121396Y-8746996D02*
X7159496Y-8785096D01*
X7159496Y-8746996D02*
X7121396Y-8785096D01*
X7194550Y-8896350D02*
X7232650Y-8934450D01*
X7232650Y-8896350D02*
X7194550Y-8934450D01*
X7194550Y-11512550D02*
X7232650Y-11550650D01*
X7232650Y-11512550D02*
X7194550Y-11550650D01*
X7270750Y-10140950D02*
X7308850Y-10179050D01*
X7308850Y-10140950D02*
X7270750Y-10179050D01*
X7270750Y-10852150D02*
X7308850Y-10890250D01*
X7308850Y-10852150D02*
X7270750Y-10890250D01*
X7600950Y-11131550D02*
X7639050Y-11169650D01*
X7639050Y-11131550D02*
X7600950Y-11169650D01*
X7600950Y-11410950D02*
X7639050Y-11449050D01*
X7639050Y-11410950D02*
X7600950Y-11449050D01*
X7753350Y-11131500D02*
X7791450Y-11169600D01*
X7791450Y-11131500D02*
X7753350Y-11169600D01*
X7829500Y-12172950D02*
X7867600Y-12211050D01*
X7867600Y-12172950D02*
X7829500Y-12211050D01*
X7829550Y-11233150D02*
X7867650Y-11271250D01*
X7867650Y-11233150D02*
X7829550Y-11271250D01*
X7905700Y-11918950D02*
X7943800Y-11957050D01*
X7943800Y-11918950D02*
X7905700Y-11957050D01*
X7905750Y-11334750D02*
X7943850Y-11372850D01*
X7943850Y-11334750D02*
X7905750Y-11372850D01*
X7931150Y-12426950D02*
X7969250Y-12465050D01*
X7969250Y-12426950D02*
X7931150Y-12465050D01*
X7981950Y-11436350D02*
X8020050Y-11474450D01*
X8020050Y-11436350D02*
X7981950Y-11474450D01*
X7981950Y-11664950D02*
X8020050Y-11703050D01*
X8020050Y-11664950D02*
X7981950Y-11703050D01*
X8108950Y-11029950D02*
X8147050Y-11068050D01*
X8147050Y-11029950D02*
X8108950Y-11068050D01*
X8515350Y-13061950D02*
X8553450Y-13100050D01*
X8553450Y-13061950D02*
X8515350Y-13100050D01*
X8718550Y-13061950D02*
X8756650Y-13100050D01*
X8756650Y-13061950D02*
X8718550Y-13100050D01*
X9023350Y-10775950D02*
X9061450Y-10814050D01*
X9061450Y-10775950D02*
X9023350Y-10814050D01*
X9201150Y-8769350D02*
X9239250Y-8807450D01*
X9239250Y-8769350D02*
X9201150Y-8807450D01*
X9201150Y-8921750D02*
X9239250Y-8959850D01*
X9239250Y-8921750D02*
X9201150Y-8959850D01*
X9201150Y-11664950D02*
X9239250Y-11703050D01*
X9239250Y-11664950D02*
X9201150Y-11703050D01*
X9201150Y-11842750D02*
X9239250Y-11880850D01*
X9239250Y-11842750D02*
X9201150Y-11880850D01*
X9378950Y-13087350D02*
X9417050Y-13125450D01*
X9417050Y-13087350D02*
X9378950Y-13125450D01*
X9378950Y-13239750D02*
X9417050Y-13277850D01*
X9417050Y-13239750D02*
X9378950Y-13277850D01*
X10394950Y-11512550D02*
X10433050Y-11550650D01*
X10433050Y-11512550D02*
X10394950Y-11550650D01*
X10674350Y-10674350D02*
X10712450Y-10712450D01*
X10712450Y-10674350D02*
X10674350Y-10712450D01*
X10750550Y-10598150D02*
X10788650Y-10636250D01*
X10788650Y-10598150D02*
X10750550Y-10636250D01*
X10775950Y-7753350D02*
X10814050Y-7791450D01*
X10814050Y-7753350D02*
X10775950Y-7791450D01*
X10826750Y-10521950D02*
X10864850Y-10560050D01*
X10864850Y-10521950D02*
X10826750Y-10560050D01*
X10902950Y-10445750D02*
X10941050Y-10483850D01*
X10941050Y-10445750D02*
X10902950Y-10483850D01*
X11029950Y-7753350D02*
X11068050Y-7791450D01*
X11068050Y-7753350D02*
X11029950Y-7791450D01*
X11156950Y-9505950D02*
X11195050Y-9544050D01*
X11195050Y-9505950D02*
X11156950Y-9544050D01*
X11410950Y-9378950D02*
X11449050Y-9417050D01*
X11449050Y-9378950D02*
X11410950Y-9417050D01*
X11664950Y-9251950D02*
X11703050Y-9290050D01*
X11703050Y-9251950D02*
X11664950Y-9290050D01*
X11817350Y-12934950D02*
X11855450Y-12973050D01*
X11855450Y-12934950D02*
X11817350Y-12973050D01*
X11918950Y-9124950D02*
X11957050Y-9163050D01*
X11957050Y-9124950D02*
X11918950Y-9163050D01*
X11944350Y-11639550D02*
X11982450Y-11677650D01*
X11982450Y-11639550D02*
X11944350Y-11677650D01*
X11944350Y-11969750D02*
X11982450Y-12007850D01*
X11982450Y-11969750D02*
X11944350Y-12007850D01*
X11995150Y-12934950D02*
X12033250Y-12973050D01*
X12033250Y-12934950D02*
X11995150Y-12973050D01*
X12020550Y-11537950D02*
X12058650Y-11576050D01*
X12058650Y-11537950D02*
X12020550Y-11576050D01*
X12172950Y-8997950D02*
X12211050Y-9036050D01*
X12211050Y-8997950D02*
X12172950Y-9036050D01*
X12223750Y-11741150D02*
X12261850Y-11779250D01*
X12261850Y-11741150D02*
X12223750Y-11779250D01*
X12426950Y-8870950D02*
X12465050Y-8909050D01*
X12465050Y-8870950D02*
X12426950Y-8909050D01*
X12680950Y-8743950D02*
X12719050Y-8782050D01*
X12719050Y-8743950D02*
X12680950Y-8782050D01*
X12680950Y-12934950D02*
X12719050Y-12973050D01*
X12719050Y-12934950D02*
X12680950Y-12973050D01*
X12833350Y-12934950D02*
X12871450Y-12973050D01*
X12871450Y-12934950D02*
X12833350Y-12973050D01*
X12909550Y-10674350D02*
X12947650Y-10712450D01*
X12947650Y-10674350D02*
X12909550Y-10712450D01*
X12985750Y-10598150D02*
X13023850Y-10636250D01*
X13023850Y-10598150D02*
X12985750Y-10636250D01*
X13061950Y-10521950D02*
X13100050Y-10560050D01*
X13100050Y-10521950D02*
X13061950Y-10560050D01*
X13087350Y-12350750D02*
X13125450Y-12388850D01*
X13125450Y-12350750D02*
X13087350Y-12388850D01*
X13138150Y-10445750D02*
X13176250Y-10483850D01*
X13176250Y-10445750D02*
X13138150Y-10483850D01*
X13290550Y-11537950D02*
X13328650Y-11576050D01*
X13328650Y-11537950D02*
X13290550Y-11576050D01*
X13315950Y-12096750D02*
X13354050Y-12134850D01*
X13354050Y-12096750D02*
X13315950Y-12134850D01*
X13315950Y-12934950D02*
X13354050Y-12973050D01*
X13354050Y-12934950D02*
X13315950Y-12973050D01*
X13341350Y-11639550D02*
X13379450Y-11677650D01*
X13379450Y-11639550D02*
X13341350Y-11677650D01*
X13823950Y-10293350D02*
X13862050Y-10331450D01*
X13862050Y-10293350D02*
X13823950Y-10331450D01*
X13823950Y-10826750D02*
X13862050Y-10864850D01*
X13862050Y-10826750D02*
X13823950Y-10864850D01*
X13950950Y-11360150D02*
X13989050Y-11398250D01*
X13989050Y-11360150D02*
X13950950Y-11398250D01*
X14077950Y-10293350D02*
X14116050Y-10331450D01*
X14116050Y-10293350D02*
X14077950Y-10331450D01*
X14077950Y-10826750D02*
X14116050Y-10864850D01*
X14116050Y-10826750D02*
X14077950Y-10864850D01*
X14331950Y-10293350D02*
X14370050Y-10331450D01*
X14370050Y-10293350D02*
X14331950Y-10331450D01*
X14331950Y-10826750D02*
X14370050Y-10864850D01*
X14370050Y-10826750D02*
X14331950Y-10864850D01*
X14458950Y-11436350D02*
X14497050Y-11474450D01*
X14497050Y-11436350D02*
X14458950Y-11474450D01*
X14458950Y-11537950D02*
X14497050Y-11576050D01*
X14497050Y-11537950D02*
X14458950Y-11576050D01*
X14585950Y-10293350D02*
X14624050Y-10331450D01*
X14624050Y-10293350D02*
X14585950Y-10331450D01*
X14585950Y-10826750D02*
X14624050Y-10864850D01*
X14624050Y-10826750D02*
X14585950Y-10864850D01*
X14712950Y-11512550D02*
X14751050Y-11550650D01*
X14751050Y-11512550D02*
X14712950Y-11550650D01*
X14712950Y-12274550D02*
X14751050Y-12312650D01*
X14751050Y-12274550D02*
X14712950Y-12312650D01*
X14839950Y-10293350D02*
X14878050Y-10331450D01*
X14878050Y-10293350D02*
X14839950Y-10331450D01*
X14839950Y-10826750D02*
X14878050Y-10864850D01*
X14878050Y-10826750D02*
X14839950Y-10864850D01*
X14966950Y-11588750D02*
X15005050Y-11626850D01*
X15005050Y-11588750D02*
X14966950Y-11626850D01*
X15093950Y-10293350D02*
X15132050Y-10331450D01*
X15132050Y-10293350D02*
X15093950Y-10331450D01*
X15093950Y-10826750D02*
X15132050Y-10864850D01*
X15132050Y-10826750D02*
X15093950Y-10864850D01*
X15222450Y-7677150D02*
X15260550Y-7715250D01*
X15260550Y-7677150D02*
X15222450Y-7715250D01*
X15246350Y-11360150D02*
X15284450Y-11398250D01*
X15284450Y-11360150D02*
X15246350Y-11398250D01*
X15246350Y-11512550D02*
X15284450Y-11550650D01*
X15284450Y-11512550D02*
X15246350Y-11550650D01*
X15347950Y-10293350D02*
X15386050Y-10331450D01*
X15386050Y-10293350D02*
X15347950Y-10331450D01*
X15347950Y-10826750D02*
X15386050Y-10864850D01*
X15386050Y-10826750D02*
X15347950Y-10864850D01*
X15373350Y-11436350D02*
X15411450Y-11474450D01*
X15411450Y-11436350D02*
X15373350Y-11474450D01*
X15373350Y-11588750D02*
X15411450Y-11626850D01*
X15411450Y-11588750D02*
X15373350Y-11626850D01*
X15601950Y-10293350D02*
X15640050Y-10331450D01*
X15640050Y-10293350D02*
X15601950Y-10331450D01*
X15601950Y-10826750D02*
X15640050Y-10864850D01*
X15640050Y-10826750D02*
X15601950Y-10864850D01*
X16186150Y-11512550D02*
X16224250Y-11550650D01*
X16224250Y-11512550D02*
X16186150Y-11550650D01*
X16338550Y-11436350D02*
X16376650Y-11474450D01*
X16376650Y-11436350D02*
X16338550Y-11474450D01*
X16338550Y-11588750D02*
X16376650Y-11626850D01*
X16376650Y-11588750D02*
X16338550Y-11626850D01*
X16363950Y-7753350D02*
X16402050Y-7791450D01*
X16402050Y-7753350D02*
X16363950Y-7791450D01*
X16617950Y-7753350D02*
X16656050Y-7791450D01*
X16656050Y-7753350D02*
X16617950Y-7791450D01*
X16744950Y-11436350D02*
X16783050Y-11474450D01*
X16783050Y-11436350D02*
X16744950Y-11474450D01*
X16744950Y-14052550D02*
X16783050Y-14090650D01*
X16783050Y-14052550D02*
X16744950Y-14090650D01*
X16998950Y-11512550D02*
X17037050Y-11550650D01*
X17037050Y-11512550D02*
X16998950Y-11550650D01*
X16998950Y-13798550D02*
X17037050Y-13836650D01*
X17037050Y-13798550D02*
X16998950Y-13836650D01*
X17252950Y-11588750D02*
X17291050Y-11626850D01*
X17291050Y-11588750D02*
X17252950Y-11626850D01*
X17252950Y-13544550D02*
X17291050Y-13582650D01*
X17291050Y-13544550D02*
X17252950Y-13582650D01*
X18980150Y-10674350D02*
X19018250Y-10712450D01*
X19018250Y-10674350D02*
X18980150Y-10712450D01*
X19208750Y-10598150D02*
X19246850Y-10636250D01*
X19246850Y-10598150D02*
X19208750Y-10636250D01*
X19437350Y-10521950D02*
X19475450Y-10560050D01*
X19475450Y-10521950D02*
X19437350Y-10560050D01*
X19665950Y-10445750D02*
X19704050Y-10483850D01*
X19704050Y-10445750D02*
X19665950Y-10483850D01*
X21012150Y-7346950D02*
X21050250Y-7385050D01*
X21050250Y-7346950D02*
X21012150Y-7385050D01*
X22078950Y-10394950D02*
X22117050Y-10433050D01*
X22117050Y-10394950D02*
X22078950Y-10433050D01*
X22078950Y-10648950D02*
X22117050Y-10687050D01*
X22117050Y-10648950D02*
X22078950Y-10687050D01*
X22078950Y-10902950D02*
X22117050Y-10941050D01*
X22117050Y-10902950D02*
X22078950Y-10941050D01*
X22078950Y-11156950D02*
X22117050Y-11195050D01*
X22117050Y-11156950D02*
X22078950Y-11195050D01*
X22078950Y-11410950D02*
X22117050Y-11449050D01*
X22117050Y-11410950D02*
X22078950Y-11449050D01*
X22078950Y-11664950D02*
X22117050Y-11703050D01*
X22117050Y-11664950D02*
X22078950Y-11703050D01*
X22078950Y-11918950D02*
X22117050Y-11957050D01*
X22117050Y-11918950D02*
X22078950Y-11957050D01*
X22078950Y-12172950D02*
X22117050Y-12211050D01*
X22117050Y-12172950D02*
X22078950Y-12211050D01*
X22078950Y-12426950D02*
X22117050Y-12465050D01*
X22117050Y-12426950D02*
X22078950Y-12465050D01*
X22078950Y-12680950D02*
X22117050Y-12719050D01*
X22117050Y-12680950D02*
X22078950Y-12719050D01*
X22586950Y-9759950D02*
X22625050Y-9798050D01*
X22625050Y-9759950D02*
X22586950Y-9798050D01*
X22840950Y-9505950D02*
X22879050Y-9544050D01*
X22879050Y-9505950D02*
X22840950Y-9544050D01*
X23094950Y-9251950D02*
X23133050Y-9290050D01*
X23133050Y-9251950D02*
X23094950Y-9290050D01*
X23348950Y-8997950D02*
X23387050Y-9036050D01*
X23387050Y-8997950D02*
X23348950Y-9036050D01*
X23602950Y-8743950D02*
X23641050Y-8782050D01*
X23641050Y-8743950D02*
X23602950Y-8782050D01*
D13*
X5628000Y-7620000D02*
G75*
G03*
X5628000Y-7620000I-40000J0D01*
G01*
X5628000Y-8120000D02*
G75*
G03*
X5628000Y-8120000I-40000J0D01*
G01*
X5729600Y-13720000D02*
G75*
G03*
X5729600Y-13720000I-40000J0D01*
G01*
X5729600Y-13970000D02*
G75*
G03*
X5729600Y-13970000I-40000J0D01*
G01*
X6136000Y-7620000D02*
G75*
G03*
X6136000Y-7620000I-40000J0D01*
G01*
X6136000Y-8382000D02*
G75*
G03*
X6136000Y-8382000I-40000J0D01*
G01*
X6390000Y-7620000D02*
G75*
G03*
X6390000Y-7620000I-40000J0D01*
G01*
X6390000Y-8382000D02*
G75*
G03*
X6390000Y-8382000I-40000J0D01*
G01*
X6517000Y-7112000D02*
G75*
G03*
X6517000Y-7112000I-40000J0D01*
G01*
X6644000Y-7620000D02*
G75*
G03*
X6644000Y-7620000I-40000J0D01*
G01*
X6644000Y-8382000D02*
G75*
G03*
X6644000Y-8382000I-40000J0D01*
G01*
X6771000Y-7112000D02*
G75*
G03*
X6771000Y-7112000I-40000J0D01*
G01*
X6898000Y-7620000D02*
G75*
G03*
X6898000Y-7620000I-40000J0D01*
G01*
X6898000Y-8382000D02*
G75*
G03*
X6898000Y-8382000I-40000J0D01*
G01*
X7025000Y-7112000D02*
G75*
G03*
X7025000Y-7112000I-40000J0D01*
G01*
X7152000Y-7620000D02*
G75*
G03*
X7152000Y-7620000I-40000J0D01*
G01*
X7152000Y-8382000D02*
G75*
G03*
X7152000Y-8382000I-40000J0D01*
G01*
X7279000Y-7112000D02*
G75*
G03*
X7279000Y-7112000I-40000J0D01*
G01*
X7406000Y-7620000D02*
G75*
G03*
X7406000Y-7620000I-40000J0D01*
G01*
X7406000Y-8382000D02*
G75*
G03*
X7406000Y-8382000I-40000J0D01*
G01*
X7533000Y-7112000D02*
G75*
G03*
X7533000Y-7112000I-40000J0D01*
G01*
X7660000Y-7620000D02*
G75*
G03*
X7660000Y-7620000I-40000J0D01*
G01*
X7660000Y-8382000D02*
G75*
G03*
X7660000Y-8382000I-40000J0D01*
G01*
X7660000Y-9144000D02*
G75*
G03*
X7660000Y-9144000I-40000J0D01*
G01*
X7660000Y-9398000D02*
G75*
G03*
X7660000Y-9398000I-40000J0D01*
G01*
X7660000Y-9652000D02*
G75*
G03*
X7660000Y-9652000I-40000J0D01*
G01*
X7660000Y-9906000D02*
G75*
G03*
X7660000Y-9906000I-40000J0D01*
G01*
X7660000Y-10160000D02*
G75*
G03*
X7660000Y-10160000I-40000J0D01*
G01*
X7660000Y-10414000D02*
G75*
G03*
X7660000Y-10414000I-40000J0D01*
G01*
X7660000Y-10668000D02*
G75*
G03*
X7660000Y-10668000I-40000J0D01*
G01*
X7660000Y-10922000D02*
G75*
G03*
X7660000Y-10922000I-40000J0D01*
G01*
X7660000Y-11684000D02*
G75*
G03*
X7660000Y-11684000I-40000J0D01*
G01*
X7660000Y-11938000D02*
G75*
G03*
X7660000Y-11938000I-40000J0D01*
G01*
X7660000Y-12192000D02*
G75*
G03*
X7660000Y-12192000I-40000J0D01*
G01*
X7660000Y-12446000D02*
G75*
G03*
X7660000Y-12446000I-40000J0D01*
G01*
X7660000Y-12700000D02*
G75*
G03*
X7660000Y-12700000I-40000J0D01*
G01*
X7660000Y-12954000D02*
G75*
G03*
X7660000Y-12954000I-40000J0D01*
G01*
X7660000Y-13208000D02*
G75*
G03*
X7660000Y-13208000I-40000J0D01*
G01*
X7660000Y-13462000D02*
G75*
G03*
X7660000Y-13462000I-40000J0D01*
G01*
X7787000Y-7112000D02*
G75*
G03*
X7787000Y-7112000I-40000J0D01*
G01*
X7914000Y-7620000D02*
G75*
G03*
X7914000Y-7620000I-40000J0D01*
G01*
X7914000Y-8382000D02*
G75*
G03*
X7914000Y-8382000I-40000J0D01*
G01*
X8041000Y-7112000D02*
G75*
G03*
X8041000Y-7112000I-40000J0D01*
G01*
X8168000Y-7620000D02*
G75*
G03*
X8168000Y-7620000I-40000J0D01*
G01*
X8168000Y-8382000D02*
G75*
G03*
X8168000Y-8382000I-40000J0D01*
G01*
X8295000Y-7112000D02*
G75*
G03*
X8295000Y-7112000I-40000J0D01*
G01*
X8422000Y-7620000D02*
G75*
G03*
X8422000Y-7620000I-40000J0D01*
G01*
X8422000Y-8382000D02*
G75*
G03*
X8422000Y-8382000I-40000J0D01*
G01*
X8422000Y-9144000D02*
G75*
G03*
X8422000Y-9144000I-40000J0D01*
G01*
X8422000Y-9398000D02*
G75*
G03*
X8422000Y-9398000I-40000J0D01*
G01*
X8422000Y-9652000D02*
G75*
G03*
X8422000Y-9652000I-40000J0D01*
G01*
X8422000Y-9906000D02*
G75*
G03*
X8422000Y-9906000I-40000J0D01*
G01*
X8422000Y-10160000D02*
G75*
G03*
X8422000Y-10160000I-40000J0D01*
G01*
X8422000Y-10414000D02*
G75*
G03*
X8422000Y-10414000I-40000J0D01*
G01*
X8422000Y-10668000D02*
G75*
G03*
X8422000Y-10668000I-40000J0D01*
G01*
X8422000Y-10922000D02*
G75*
G03*
X8422000Y-10922000I-40000J0D01*
G01*
X8422000Y-11684000D02*
G75*
G03*
X8422000Y-11684000I-40000J0D01*
G01*
X8422000Y-11938000D02*
G75*
G03*
X8422000Y-11938000I-40000J0D01*
G01*
X8422000Y-12192000D02*
G75*
G03*
X8422000Y-12192000I-40000J0D01*
G01*
X8422000Y-12446000D02*
G75*
G03*
X8422000Y-12446000I-40000J0D01*
G01*
X8422000Y-12700000D02*
G75*
G03*
X8422000Y-12700000I-40000J0D01*
G01*
X8422000Y-12954000D02*
G75*
G03*
X8422000Y-12954000I-40000J0D01*
G01*
X8422000Y-13208000D02*
G75*
G03*
X8422000Y-13208000I-40000J0D01*
G01*
X8422000Y-13462000D02*
G75*
G03*
X8422000Y-13462000I-40000J0D01*
G01*
X8549000Y-7112000D02*
G75*
G03*
X8549000Y-7112000I-40000J0D01*
G01*
X8930000Y-9144000D02*
G75*
G03*
X8930000Y-9144000I-40000J0D01*
G01*
X8930000Y-9644000D02*
G75*
G03*
X8930000Y-9644000I-40000J0D01*
G01*
X8930000Y-11684000D02*
G75*
G03*
X8930000Y-11684000I-40000J0D01*
G01*
X8930000Y-12184000D02*
G75*
G03*
X8930000Y-12184000I-40000J0D01*
G01*
X9565000Y-8356600D02*
G75*
G03*
X9565000Y-8356600I-40000J0D01*
G01*
X9815000Y-8356600D02*
G75*
G03*
X9815000Y-8356600I-40000J0D01*
G01*
X9946000Y-11938000D02*
G75*
G03*
X9946000Y-11938000I-40000J0D01*
G01*
X9946000Y-12700000D02*
G75*
G03*
X9946000Y-12700000I-40000J0D01*
G01*
X10200000Y-11938000D02*
G75*
G03*
X10200000Y-11938000I-40000J0D01*
G01*
X10200000Y-12700000D02*
G75*
G03*
X10200000Y-12700000I-40000J0D01*
G01*
X10454000Y-7620000D02*
G75*
G03*
X10454000Y-7620000I-40000J0D01*
G01*
X10454000Y-8120000D02*
G75*
G03*
X10454000Y-8120000I-40000J0D01*
G01*
X10454000Y-11938000D02*
G75*
G03*
X10454000Y-11938000I-40000J0D01*
G01*
X10454000Y-12700000D02*
G75*
G03*
X10454000Y-12700000I-40000J0D01*
G01*
X10708000Y-11938000D02*
G75*
G03*
X10708000Y-11938000I-40000J0D01*
G01*
X10708000Y-12700000D02*
G75*
G03*
X10708000Y-12700000I-40000J0D01*
G01*
X10962000Y-7620000D02*
G75*
G03*
X10962000Y-7620000I-40000J0D01*
G01*
X10962000Y-8382000D02*
G75*
G03*
X10962000Y-8382000I-40000J0D01*
G01*
X10962000Y-11938000D02*
G75*
G03*
X10962000Y-11938000I-40000J0D01*
G01*
X10962000Y-12700000D02*
G75*
G03*
X10962000Y-12700000I-40000J0D01*
G01*
X11216000Y-7620000D02*
G75*
G03*
X11216000Y-7620000I-40000J0D01*
G01*
X11216000Y-8382000D02*
G75*
G03*
X11216000Y-8382000I-40000J0D01*
G01*
X11216000Y-11938000D02*
G75*
G03*
X11216000Y-11938000I-40000J0D01*
G01*
X11216000Y-12700000D02*
G75*
G03*
X11216000Y-12700000I-40000J0D01*
G01*
X11343000Y-7112000D02*
G75*
G03*
X11343000Y-7112000I-40000J0D01*
G01*
X11470000Y-7620000D02*
G75*
G03*
X11470000Y-7620000I-40000J0D01*
G01*
X11470000Y-8382000D02*
G75*
G03*
X11470000Y-8382000I-40000J0D01*
G01*
X11470000Y-11938000D02*
G75*
G03*
X11470000Y-11938000I-40000J0D01*
G01*
X11470000Y-12700000D02*
G75*
G03*
X11470000Y-12700000I-40000J0D01*
G01*
X11597000Y-7112000D02*
G75*
G03*
X11597000Y-7112000I-40000J0D01*
G01*
X11724000Y-7620000D02*
G75*
G03*
X11724000Y-7620000I-40000J0D01*
G01*
X11724000Y-8382000D02*
G75*
G03*
X11724000Y-8382000I-40000J0D01*
G01*
X11724000Y-11938000D02*
G75*
G03*
X11724000Y-11938000I-40000J0D01*
G01*
X11724000Y-12700000D02*
G75*
G03*
X11724000Y-12700000I-40000J0D01*
G01*
X11851000Y-7112000D02*
G75*
G03*
X11851000Y-7112000I-40000J0D01*
G01*
X11978000Y-7620000D02*
G75*
G03*
X11978000Y-7620000I-40000J0D01*
G01*
X11978000Y-8382000D02*
G75*
G03*
X11978000Y-8382000I-40000J0D01*
G01*
X12105000Y-7112000D02*
G75*
G03*
X12105000Y-7112000I-40000J0D01*
G01*
X12232000Y-7620000D02*
G75*
G03*
X12232000Y-7620000I-40000J0D01*
G01*
X12232000Y-8382000D02*
G75*
G03*
X12232000Y-8382000I-40000J0D01*
G01*
X12359000Y-7112000D02*
G75*
G03*
X12359000Y-7112000I-40000J0D01*
G01*
X12486000Y-7620000D02*
G75*
G03*
X12486000Y-7620000I-40000J0D01*
G01*
X12486000Y-8382000D02*
G75*
G03*
X12486000Y-8382000I-40000J0D01*
G01*
X12486000Y-12200000D02*
G75*
G03*
X12486000Y-12200000I-40000J0D01*
G01*
X12486000Y-12700000D02*
G75*
G03*
X12486000Y-12700000I-40000J0D01*
G01*
X12613000Y-7112000D02*
G75*
G03*
X12613000Y-7112000I-40000J0D01*
G01*
X12740000Y-7620000D02*
G75*
G03*
X12740000Y-7620000I-40000J0D01*
G01*
X12740000Y-8382000D02*
G75*
G03*
X12740000Y-8382000I-40000J0D01*
G01*
X12867000Y-7112000D02*
G75*
G03*
X12867000Y-7112000I-40000J0D01*
G01*
X12994000Y-7620000D02*
G75*
G03*
X12994000Y-7620000I-40000J0D01*
G01*
X12994000Y-8382000D02*
G75*
G03*
X12994000Y-8382000I-40000J0D01*
G01*
X13121000Y-7112000D02*
G75*
G03*
X13121000Y-7112000I-40000J0D01*
G01*
X13248000Y-7620000D02*
G75*
G03*
X13248000Y-7620000I-40000J0D01*
G01*
X13248000Y-8382000D02*
G75*
G03*
X13248000Y-8382000I-40000J0D01*
G01*
X13248000Y-11938000D02*
G75*
G03*
X13248000Y-11938000I-40000J0D01*
G01*
X13248000Y-12700000D02*
G75*
G03*
X13248000Y-12700000I-40000J0D01*
G01*
X13375000Y-7112000D02*
G75*
G03*
X13375000Y-7112000I-40000J0D01*
G01*
X13502000Y-11938000D02*
G75*
G03*
X13502000Y-11938000I-40000J0D01*
G01*
X13502000Y-12700000D02*
G75*
G03*
X13502000Y-12700000I-40000J0D01*
G01*
X13756000Y-11938000D02*
G75*
G03*
X13756000Y-11938000I-40000J0D01*
G01*
X13756000Y-12700000D02*
G75*
G03*
X13756000Y-12700000I-40000J0D01*
G01*
X14010000Y-11938000D02*
G75*
G03*
X14010000Y-11938000I-40000J0D01*
G01*
X14010000Y-12700000D02*
G75*
G03*
X14010000Y-12700000I-40000J0D01*
G01*
X14264000Y-11938000D02*
G75*
G03*
X14264000Y-11938000I-40000J0D01*
G01*
X14264000Y-12700000D02*
G75*
G03*
X14264000Y-12700000I-40000J0D01*
G01*
X14365600Y-7366000D02*
G75*
G03*
X14365600Y-7366000I-40000J0D01*
G01*
X14365600Y-8382000D02*
G75*
G03*
X14365600Y-8382000I-40000J0D01*
G01*
X14518000Y-11938000D02*
G75*
G03*
X14518000Y-11938000I-40000J0D01*
G01*
X14518000Y-12700000D02*
G75*
G03*
X14518000Y-12700000I-40000J0D01*
G01*
X14772000Y-11938000D02*
G75*
G03*
X14772000Y-11938000I-40000J0D01*
G01*
X14772000Y-12700000D02*
G75*
G03*
X14772000Y-12700000I-40000J0D01*
G01*
X15026000Y-11938000D02*
G75*
G03*
X15026000Y-11938000I-40000J0D01*
G01*
X15026000Y-12700000D02*
G75*
G03*
X15026000Y-12700000I-40000J0D01*
G01*
X15788000Y-12200000D02*
G75*
G03*
X15788000Y-12200000I-40000J0D01*
G01*
X15788000Y-12700000D02*
G75*
G03*
X15788000Y-12700000I-40000J0D01*
G01*
X16042000Y-7620000D02*
G75*
G03*
X16042000Y-7620000I-40000J0D01*
G01*
X16042000Y-8120000D02*
G75*
G03*
X16042000Y-8120000I-40000J0D01*
G01*
X16550000Y-7620000D02*
G75*
G03*
X16550000Y-7620000I-40000J0D01*
G01*
X16550000Y-8382000D02*
G75*
G03*
X16550000Y-8382000I-40000J0D01*
G01*
X16804000Y-7620000D02*
G75*
G03*
X16804000Y-7620000I-40000J0D01*
G01*
X16804000Y-8382000D02*
G75*
G03*
X16804000Y-8382000I-40000J0D01*
G01*
X16931000Y-7112000D02*
G75*
G03*
X16931000Y-7112000I-40000J0D01*
G01*
X17058000Y-7620000D02*
G75*
G03*
X17058000Y-7620000I-40000J0D01*
G01*
X17058000Y-8382000D02*
G75*
G03*
X17058000Y-8382000I-40000J0D01*
G01*
X17185000Y-7112000D02*
G75*
G03*
X17185000Y-7112000I-40000J0D01*
G01*
X17312000Y-7620000D02*
G75*
G03*
X17312000Y-7620000I-40000J0D01*
G01*
X17312000Y-8382000D02*
G75*
G03*
X17312000Y-8382000I-40000J0D01*
G01*
X17439000Y-7112000D02*
G75*
G03*
X17439000Y-7112000I-40000J0D01*
G01*
X17566000Y-7620000D02*
G75*
G03*
X17566000Y-7620000I-40000J0D01*
G01*
X17566000Y-8382000D02*
G75*
G03*
X17566000Y-8382000I-40000J0D01*
G01*
X17693000Y-7112000D02*
G75*
G03*
X17693000Y-7112000I-40000J0D01*
G01*
X17820000Y-7620000D02*
G75*
G03*
X17820000Y-7620000I-40000J0D01*
G01*
X17820000Y-8382000D02*
G75*
G03*
X17820000Y-8382000I-40000J0D01*
G01*
X17947000Y-7112000D02*
G75*
G03*
X17947000Y-7112000I-40000J0D01*
G01*
X18074000Y-7620000D02*
G75*
G03*
X18074000Y-7620000I-40000J0D01*
G01*
X18074000Y-8382000D02*
G75*
G03*
X18074000Y-8382000I-40000J0D01*
G01*
X18201000Y-7112000D02*
G75*
G03*
X18201000Y-7112000I-40000J0D01*
G01*
X18328000Y-7620000D02*
G75*
G03*
X18328000Y-7620000I-40000J0D01*
G01*
X18328000Y-8382000D02*
G75*
G03*
X18328000Y-8382000I-40000J0D01*
G01*
X18455000Y-7112000D02*
G75*
G03*
X18455000Y-7112000I-40000J0D01*
G01*
X18582000Y-7620000D02*
G75*
G03*
X18582000Y-7620000I-40000J0D01*
G01*
X18582000Y-8382000D02*
G75*
G03*
X18582000Y-8382000I-40000J0D01*
G01*
X18709000Y-7112000D02*
G75*
G03*
X18709000Y-7112000I-40000J0D01*
G01*
X18836000Y-7620000D02*
G75*
G03*
X18836000Y-7620000I-40000J0D01*
G01*
X18836000Y-8382000D02*
G75*
G03*
X18836000Y-8382000I-40000J0D01*
G01*
X18963000Y-7112000D02*
G75*
G03*
X18963000Y-7112000I-40000J0D01*
G01*
X19496400Y-8441562D02*
G75*
G03*
X19496400Y-8441562I-40000J0D01*
G01*
X19496400Y-8691562D02*
G75*
G03*
X19496400Y-8691562I-40000J0D01*
G01*
X20868000Y-7620000D02*
G75*
G03*
X20868000Y-7620000I-40000J0D01*
G01*
X20868000Y-8120000D02*
G75*
G03*
X20868000Y-8120000I-40000J0D01*
G01*
X21376000Y-7620000D02*
G75*
G03*
X21376000Y-7620000I-40000J0D01*
G01*
X21376000Y-8382000D02*
G75*
G03*
X21376000Y-8382000I-40000J0D01*
G01*
X21630000Y-7620000D02*
G75*
G03*
X21630000Y-7620000I-40000J0D01*
G01*
X21630000Y-8382000D02*
G75*
G03*
X21630000Y-8382000I-40000J0D01*
G01*
X21884000Y-7620000D02*
G75*
G03*
X21884000Y-7620000I-40000J0D01*
G01*
X21884000Y-8382000D02*
G75*
G03*
X21884000Y-8382000I-40000J0D01*
G01*
X22011000Y-7112000D02*
G75*
G03*
X22011000Y-7112000I-40000J0D01*
G01*
X22138000Y-7620000D02*
G75*
G03*
X22138000Y-7620000I-40000J0D01*
G01*
X22138000Y-8382000D02*
G75*
G03*
X22138000Y-8382000I-40000J0D01*
G01*
X22265000Y-7112000D02*
G75*
G03*
X22265000Y-7112000I-40000J0D01*
G01*
X22392000Y-7620000D02*
G75*
G03*
X22392000Y-7620000I-40000J0D01*
G01*
X22392000Y-8382000D02*
G75*
G03*
X22392000Y-8382000I-40000J0D01*
G01*
X22519000Y-7112000D02*
G75*
G03*
X22519000Y-7112000I-40000J0D01*
G01*
X22646000Y-7620000D02*
G75*
G03*
X22646000Y-7620000I-40000J0D01*
G01*
X22646000Y-8382000D02*
G75*
G03*
X22646000Y-8382000I-40000J0D01*
G01*
X22773000Y-7112000D02*
G75*
G03*
X22773000Y-7112000I-40000J0D01*
G01*
X22900000Y-7620000D02*
G75*
G03*
X22900000Y-7620000I-40000J0D01*
G01*
X22900000Y-8382000D02*
G75*
G03*
X22900000Y-8382000I-40000J0D01*
G01*
X23027000Y-7112000D02*
G75*
G03*
X23027000Y-7112000I-40000J0D01*
G01*
X23154000Y-7620000D02*
G75*
G03*
X23154000Y-7620000I-40000J0D01*
G01*
X23154000Y-8382000D02*
G75*
G03*
X23154000Y-8382000I-40000J0D01*
G01*
X23281000Y-7112000D02*
G75*
G03*
X23281000Y-7112000I-40000J0D01*
G01*
X23408000Y-7620000D02*
G75*
G03*
X23408000Y-7620000I-40000J0D01*
G01*
X23408000Y-8382000D02*
G75*
G03*
X23408000Y-8382000I-40000J0D01*
G01*
X23535000Y-7112000D02*
G75*
G03*
X23535000Y-7112000I-40000J0D01*
G01*
X23662000Y-7620000D02*
G75*
G03*
X23662000Y-7620000I-40000J0D01*
G01*
X23662000Y-8382000D02*
G75*
G03*
X23662000Y-8382000I-40000J0D01*
G01*
X23789000Y-7112000D02*
G75*
G03*
X23789000Y-7112000I-40000J0D01*
G01*
X24043000Y-7112000D02*
G75*
G03*
X24043000Y-7112000I-40000J0D01*
G01*
D14*
X5334000Y-6305000D02*
X5334000Y-6395000D01*
X5289000Y-6350000D02*
X5379000Y-6350000D01*
X5588000Y-6305000D02*
X5588000Y-6395000D01*
X5543000Y-6350000D02*
X5633000Y-6350000D01*
X5943600Y-6305450D02*
X5943600Y-6395450D01*
X5898600Y-6350450D02*
X5988600Y-6350450D01*
X6197600Y-6305450D02*
X6197600Y-6395450D01*
X6152600Y-6350450D02*
X6242600Y-6350450D01*
X6553200Y-6305450D02*
X6553200Y-6395450D01*
X6508200Y-6350450D02*
X6598200Y-6350450D01*
X6807200Y-6305450D02*
X6807200Y-6395450D01*
X6762200Y-6350450D02*
X6852200Y-6350450D01*
X7162800Y-6305000D02*
X7162800Y-6395000D01*
X7117800Y-6350000D02*
X7207800Y-6350000D01*
X7416800Y-6305000D02*
X7416800Y-6395000D01*
X7371800Y-6350000D02*
X7461800Y-6350000D01*
X7772400Y-6305000D02*
X7772400Y-6395000D01*
X7727400Y-6350000D02*
X7817400Y-6350000D01*
X8026400Y-6305000D02*
X8026400Y-6395000D01*
X7981400Y-6350000D02*
X8071400Y-6350000D01*
X8382000Y-6305000D02*
X8382000Y-6395000D01*
X8337000Y-6350000D02*
X8427000Y-6350000D01*
X8636000Y-6305000D02*
X8636000Y-6395000D01*
X8591000Y-6350000D02*
X8681000Y-6350000D01*
X8991600Y-6305000D02*
X8991600Y-6395000D01*
X8946600Y-6350000D02*
X9036600Y-6350000D01*
X9245600Y-6305000D02*
X9245600Y-6395000D01*
X9200600Y-6350000D02*
X9290600Y-6350000D01*
X9601200Y-6305000D02*
X9601200Y-6395000D01*
X9556200Y-6350000D02*
X9646200Y-6350000D01*
X9855200Y-6305000D02*
X9855200Y-6395000D01*
X9810200Y-6350000D02*
X9900200Y-6350000D01*
X10210800Y-6305000D02*
X10210800Y-6395000D01*
X10165800Y-6350000D02*
X10255800Y-6350000D01*
X10464800Y-6305000D02*
X10464800Y-6395000D01*
X10419800Y-6350000D02*
X10509800Y-6350000D01*
X10820400Y-6305000D02*
X10820400Y-6395000D01*
X10775400Y-6350000D02*
X10865400Y-6350000D01*
X11074400Y-6305000D02*
X11074400Y-6395000D01*
X11029400Y-6350000D02*
X11119400Y-6350000D01*
X11430000Y-6305000D02*
X11430000Y-6395000D01*
X11385000Y-6350000D02*
X11475000Y-6350000D01*
X11684000Y-6305000D02*
X11684000Y-6395000D01*
X11639000Y-6350000D02*
X11729000Y-6350000D01*
X12039600Y-6305000D02*
X12039600Y-6395000D01*
X11994600Y-6350000D02*
X12084600Y-6350000D01*
X12293600Y-6305000D02*
X12293600Y-6395000D01*
X12248600Y-6350000D02*
X12338600Y-6350000D01*
X12649200Y-6305000D02*
X12649200Y-6395000D01*
X12604200Y-6350000D02*
X12694200Y-6350000D01*
X12903200Y-6305000D02*
X12903200Y-6395000D01*
X12858200Y-6350000D02*
X12948200Y-6350000D01*
X13258800Y-6305000D02*
X13258800Y-6395000D01*
X13213800Y-6350000D02*
X13303800Y-6350000D01*
X13512800Y-6305000D02*
X13512800Y-6395000D01*
X13467800Y-6350000D02*
X13557800Y-6350000D01*
X13868400Y-6305000D02*
X13868400Y-6395000D01*
X13823400Y-6350000D02*
X13913400Y-6350000D01*
X14122400Y-6305000D02*
X14122400Y-6395000D01*
X14077400Y-6350000D02*
X14167400Y-6350000D01*
X14478000Y-6305000D02*
X14478000Y-6395000D01*
X14433000Y-6350000D02*
X14523000Y-6350000D01*
X14732000Y-6305000D02*
X14732000Y-6395000D01*
X14687000Y-6350000D02*
X14777000Y-6350000D01*
X15748000Y-6305000D02*
X15748000Y-6395000D01*
X15703000Y-6350000D02*
X15793000Y-6350000D01*
X16002000Y-6305000D02*
X16002000Y-6395000D01*
X15957000Y-6350000D02*
X16047000Y-6350000D01*
X16357600Y-6305000D02*
X16357600Y-6395000D01*
X16312600Y-6350000D02*
X16402600Y-6350000D01*
X16611600Y-6305000D02*
X16611600Y-6395000D01*
X16566600Y-6350000D02*
X16656600Y-6350000D01*
X16967200Y-6305000D02*
X16967200Y-6395000D01*
X16922200Y-6350000D02*
X17012200Y-6350000D01*
X17221200Y-6305000D02*
X17221200Y-6395000D01*
X17176200Y-6350000D02*
X17266200Y-6350000D01*
X17576800Y-6305000D02*
X17576800Y-6395000D01*
X17531800Y-6350000D02*
X17621800Y-6350000D01*
X17830800Y-6305000D02*
X17830800Y-6395000D01*
X17785800Y-6350000D02*
X17875800Y-6350000D01*
X18186400Y-6305000D02*
X18186400Y-6395000D01*
X18141400Y-6350000D02*
X18231400Y-6350000D01*
X18440400Y-6305000D02*
X18440400Y-6395000D01*
X18395400Y-6350000D02*
X18485400Y-6350000D01*
X18796000Y-6305000D02*
X18796000Y-6395000D01*
X18751000Y-6350000D02*
X18841000Y-6350000D01*
X19050000Y-6305000D02*
X19050000Y-6395000D01*
X19005000Y-6350000D02*
X19095000Y-6350000D01*
X19405600Y-6305000D02*
X19405600Y-6395000D01*
X19360600Y-6350000D02*
X19450600Y-6350000D01*
X19659600Y-6305000D02*
X19659600Y-6395000D01*
X19614600Y-6350000D02*
X19704600Y-6350000D01*
X20015200Y-6305000D02*
X20015200Y-6395000D01*
X19970200Y-6350000D02*
X20060200Y-6350000D01*
X20269200Y-6305000D02*
X20269200Y-6395000D01*
X20224200Y-6350000D02*
X20314200Y-6350000D01*
X20624800Y-6305000D02*
X20624800Y-6395000D01*
X20579800Y-6350000D02*
X20669800Y-6350000D01*
X20878800Y-6305000D02*
X20878800Y-6395000D01*
X20833800Y-6350000D02*
X20923800Y-6350000D01*
X21234400Y-6305000D02*
X21234400Y-6395000D01*
X21189400Y-6350000D02*
X21279400Y-6350000D01*
X21488400Y-6305000D02*
X21488400Y-6395000D01*
X21443400Y-6350000D02*
X21533400Y-6350000D01*
X21844000Y-6305000D02*
X21844000Y-6395000D01*
X21799000Y-6350000D02*
X21889000Y-6350000D01*
X22098000Y-6305000D02*
X22098000Y-6395000D01*
X22053000Y-6350000D02*
X22143000Y-6350000D01*
X22453600Y-6305000D02*
X22453600Y-6395000D01*
X22408600Y-6350000D02*
X22498600Y-6350000D01*
X22707600Y-6305000D02*
X22707600Y-6395000D01*
X22662600Y-6350000D02*
X22752600Y-6350000D01*
X23063200Y-6305000D02*
X23063200Y-6395000D01*
X23018200Y-6350000D02*
X23108200Y-6350000D01*
X23317200Y-6305000D02*
X23317200Y-6395000D01*
X23272200Y-6350000D02*
X23362200Y-6350000D01*
X23672800Y-6305000D02*
X23672800Y-6395000D01*
X23627800Y-6350000D02*
X23717800Y-6350000D01*
X23926800Y-6305000D02*
X23926800Y-6395000D01*
X23881800Y-6350000D02*
X23971800Y-6350000D01*
X24282400Y-6305000D02*
X24282400Y-6395000D01*
X24237400Y-6350000D02*
X24327400Y-6350000D01*
X24536400Y-6305000D02*
X24536400Y-6395000D01*
X24491400Y-6350000D02*
X24581400Y-6350000D01*
X24892000Y-6305000D02*
X24892000Y-6395000D01*
X24847000Y-6350000D02*
X24937000Y-6350000D01*
X25146000Y-6305000D02*
X25146000Y-6395000D01*
X25101000Y-6350000D02*
X25191000Y-6350000D01*
D10*
X6131356Y-9179356D02*
X6131356Y-9108644D01*
X6060644Y-9108644D01*
X6060644Y-9179356D01*
X6131356Y-9179356D01*
X6131356Y-9433356D02*
X6131356Y-9362644D01*
X6060644Y-9362644D01*
X6060644Y-9433356D01*
X6131356Y-9433356D01*
X6131356Y-9687356D02*
X6131356Y-9616644D01*
X6060644Y-9616644D01*
X6060644Y-9687356D01*
X6131356Y-9687356D01*
X6131356Y-9941356D02*
X6131356Y-9870644D01*
X6060644Y-9870644D01*
X6060644Y-9941356D01*
X6131356Y-9941356D01*
X6131356Y-10195356D02*
X6131356Y-10124644D01*
X6060644Y-10124644D01*
X6060644Y-10195356D01*
X6131356Y-10195356D01*
X6131356Y-10449356D02*
X6131356Y-10378644D01*
X6060644Y-10378644D01*
X6060644Y-10449356D01*
X6131356Y-10449356D01*
X6131356Y-10703356D02*
X6131356Y-10632644D01*
X6060644Y-10632644D01*
X6060644Y-10703356D01*
X6131356Y-10703356D01*
X6131356Y-10957356D02*
X6131356Y-10886644D01*
X6060644Y-10886644D01*
X6060644Y-10957356D01*
X6131356Y-10957356D01*
X6131356Y-11211356D02*
X6131356Y-11140644D01*
X6060644Y-11140644D01*
X6060644Y-11211356D01*
X6131356Y-11211356D01*
X6131356Y-11465356D02*
X6131356Y-11394644D01*
X6060644Y-11394644D01*
X6060644Y-11465356D01*
X6131356Y-11465356D01*
X6131356Y-11719356D02*
X6131356Y-11648644D01*
X6060644Y-11648644D01*
X6060644Y-11719356D01*
X6131356Y-11719356D01*
X6131356Y-11973356D02*
X6131356Y-11902644D01*
X6060644Y-11902644D01*
X6060644Y-11973356D01*
X6131356Y-11973356D01*
X6131356Y-12227356D02*
X6131356Y-12156644D01*
X6060644Y-12156644D01*
X6060644Y-12227356D01*
X6131356Y-12227356D01*
X6131356Y-12481356D02*
X6131356Y-12410644D01*
X6060644Y-12410644D01*
X6060644Y-12481356D01*
X6131356Y-12481356D01*
X6131356Y-12735356D02*
X6131356Y-12664644D01*
X6060644Y-12664644D01*
X6060644Y-12735356D01*
X6131356Y-12735356D01*
X6131356Y-12989356D02*
X6131356Y-12918644D01*
X6060644Y-12918644D01*
X6060644Y-12989356D01*
X6131356Y-12989356D01*
X6131356Y-14513356D02*
X6131356Y-14442644D01*
X6060644Y-14442644D01*
X6060644Y-14513356D01*
X6131356Y-14513356D01*
X6385356Y-9179356D02*
X6385356Y-9108644D01*
X6314644Y-9108644D01*
X6314644Y-9179356D01*
X6385356Y-9179356D01*
X6385356Y-9433356D02*
X6385356Y-9362644D01*
X6314644Y-9362644D01*
X6314644Y-9433356D01*
X6385356Y-9433356D01*
X6385356Y-9687356D02*
X6385356Y-9616644D01*
X6314644Y-9616644D01*
X6314644Y-9687356D01*
X6385356Y-9687356D01*
X6385356Y-9941356D02*
X6385356Y-9870644D01*
X6314644Y-9870644D01*
X6314644Y-9941356D01*
X6385356Y-9941356D01*
X6385356Y-10195356D02*
X6385356Y-10124644D01*
X6314644Y-10124644D01*
X6314644Y-10195356D01*
X6385356Y-10195356D01*
X6385356Y-10449356D02*
X6385356Y-10378644D01*
X6314644Y-10378644D01*
X6314644Y-10449356D01*
X6385356Y-10449356D01*
X6385356Y-10703356D02*
X6385356Y-10632644D01*
X6314644Y-10632644D01*
X6314644Y-10703356D01*
X6385356Y-10703356D01*
X6385356Y-10957356D02*
X6385356Y-10886644D01*
X6314644Y-10886644D01*
X6314644Y-10957356D01*
X6385356Y-10957356D01*
X6385356Y-11211356D02*
X6385356Y-11140644D01*
X6314644Y-11140644D01*
X6314644Y-11211356D01*
X6385356Y-11211356D01*
X6385356Y-11465356D02*
X6385356Y-11394644D01*
X6314644Y-11394644D01*
X6314644Y-11465356D01*
X6385356Y-11465356D01*
X6385356Y-11719356D02*
X6385356Y-11648644D01*
X6314644Y-11648644D01*
X6314644Y-11719356D01*
X6385356Y-11719356D01*
X6385356Y-11973356D02*
X6385356Y-11902644D01*
X6314644Y-11902644D01*
X6314644Y-11973356D01*
X6385356Y-11973356D01*
X6385356Y-12227356D02*
X6385356Y-12156644D01*
X6314644Y-12156644D01*
X6314644Y-12227356D01*
X6385356Y-12227356D01*
X6385356Y-12481356D02*
X6385356Y-12410644D01*
X6314644Y-12410644D01*
X6314644Y-12481356D01*
X6385356Y-12481356D01*
X6385356Y-12735356D02*
X6385356Y-12664644D01*
X6314644Y-12664644D01*
X6314644Y-12735356D01*
X6385356Y-12735356D01*
X6385356Y-12989356D02*
X6385356Y-12918644D01*
X6314644Y-12918644D01*
X6314644Y-12989356D01*
X6385356Y-12989356D01*
X6385356Y-14513356D02*
X6385356Y-14442644D01*
X6314644Y-14442644D01*
X6314644Y-14513356D01*
X6385356Y-14513356D01*
X6639356Y-14513356D02*
X6639356Y-14442644D01*
X6568644Y-14442644D01*
X6568644Y-14513356D01*
X6639356Y-14513356D01*
X6893356Y-14513356D02*
X6893356Y-14442644D01*
X6822644Y-14442644D01*
X6822644Y-14513356D01*
X6893356Y-14513356D01*
X7147356Y-14513356D02*
X7147356Y-14442644D01*
X7076644Y-14442644D01*
X7076644Y-14513356D01*
X7147356Y-14513356D01*
X7401356Y-14513356D02*
X7401356Y-14442644D01*
X7330644Y-14442644D01*
X7330644Y-14513356D01*
X7401356Y-14513356D01*
X7655356Y-14513356D02*
X7655356Y-14442644D01*
X7584644Y-14442644D01*
X7584644Y-14513356D01*
X7655356Y-14513356D01*
X7909356Y-14513356D02*
X7909356Y-14442644D01*
X7838644Y-14442644D01*
X7838644Y-14513356D01*
X7909356Y-14513356D01*
X8163356Y-14513356D02*
X8163356Y-14442644D01*
X8092644Y-14442644D01*
X8092644Y-14513356D01*
X8163356Y-14513356D01*
X8417356Y-14513356D02*
X8417356Y-14442644D01*
X8346644Y-14442644D01*
X8346644Y-14513356D01*
X8417356Y-14513356D01*
X8671356Y-14513356D02*
X8671356Y-14442644D01*
X8600644Y-14442644D01*
X8600644Y-14513356D01*
X8671356Y-14513356D01*
X8925356Y-14513356D02*
X8925356Y-14442644D01*
X8854644Y-14442644D01*
X8854644Y-14513356D01*
X8925356Y-14513356D01*
X9179356Y-14513356D02*
X9179356Y-14442644D01*
X9108644Y-14442644D01*
X9108644Y-14513356D01*
X9179356Y-14513356D01*
X9433356Y-14513356D02*
X9433356Y-14442644D01*
X9362644Y-14442644D01*
X9362644Y-14513356D01*
X9433356Y-14513356D01*
X10195356Y-14513356D02*
X10195356Y-14442644D01*
X10124644Y-14442644D01*
X10124644Y-14513356D01*
X10195356Y-14513356D01*
X10449356Y-14513356D02*
X10449356Y-14442644D01*
X10378644Y-14442644D01*
X10378644Y-14513356D01*
X10449356Y-14513356D01*
X10703356Y-14513356D02*
X10703356Y-14442644D01*
X10632644Y-14442644D01*
X10632644Y-14513356D01*
X10703356Y-14513356D01*
X10957356Y-14513356D02*
X10957356Y-14442644D01*
X10886644Y-14442644D01*
X10886644Y-14513356D01*
X10957356Y-14513356D01*
X11211356Y-14513356D02*
X11211356Y-14442644D01*
X11140644Y-14442644D01*
X11140644Y-14513356D01*
X11211356Y-14513356D01*
X11465356Y-14513356D02*
X11465356Y-14442644D01*
X11394644Y-14442644D01*
X11394644Y-14513356D01*
X11465356Y-14513356D01*
X11719356Y-14513356D02*
X11719356Y-14442644D01*
X11648644Y-14442644D01*
X11648644Y-14513356D01*
X11719356Y-14513356D01*
X11973356Y-14513356D02*
X11973356Y-14442644D01*
X11902644Y-14442644D01*
X11902644Y-14513356D01*
X11973356Y-14513356D01*
X12227356Y-14513356D02*
X12227356Y-14442644D01*
X12156644Y-14442644D01*
X12156644Y-14513356D01*
X12227356Y-14513356D01*
X12481356Y-14513356D02*
X12481356Y-14442644D01*
X12410644Y-14442644D01*
X12410644Y-14513356D01*
X12481356Y-14513356D01*
X12735356Y-14513356D02*
X12735356Y-14442644D01*
X12664644Y-14442644D01*
X12664644Y-14513356D01*
X12735356Y-14513356D01*
X12989356Y-14513356D02*
X12989356Y-14442644D01*
X12918644Y-14442644D01*
X12918644Y-14513356D01*
X12989356Y-14513356D01*
X13243356Y-14513356D02*
X13243356Y-14442644D01*
X13172644Y-14442644D01*
X13172644Y-14513356D01*
X13243356Y-14513356D01*
X13497356Y-14513356D02*
X13497356Y-14442644D01*
X13426644Y-14442644D01*
X13426644Y-14513356D01*
X13497356Y-14513356D01*
X13751356Y-14513356D02*
X13751356Y-14442644D01*
X13680644Y-14442644D01*
X13680644Y-14513356D01*
X13751356Y-14513356D01*
X14005356Y-14513356D02*
X14005356Y-14442644D01*
X13934644Y-14442644D01*
X13934644Y-14513356D01*
X14005356Y-14513356D01*
X15022856Y-8341156D02*
X15022856Y-8270444D01*
X14952144Y-8270444D01*
X14952144Y-8341156D01*
X15022856Y-8341156D01*
X15276856Y-8341156D02*
X15276856Y-8270444D01*
X15206144Y-8270444D01*
X15206144Y-8341156D01*
X15276856Y-8341156D01*
X15530856Y-8341156D02*
X15530856Y-8270444D01*
X15460144Y-8270444D01*
X15460144Y-8341156D01*
X15530856Y-8341156D01*
X16545356Y-14513356D02*
X16545356Y-14442644D01*
X16474644Y-14442644D01*
X16474644Y-14513356D01*
X16545356Y-14513356D01*
X16799356Y-14513356D02*
X16799356Y-14442644D01*
X16728644Y-14442644D01*
X16728644Y-14513356D01*
X16799356Y-14513356D01*
X17053356Y-14513356D02*
X17053356Y-14442644D01*
X16982644Y-14442644D01*
X16982644Y-14513356D01*
X17053356Y-14513356D01*
X17307356Y-14513356D02*
X17307356Y-14442644D01*
X17236644Y-14442644D01*
X17236644Y-14513356D01*
X17307356Y-14513356D01*
X17561356Y-14513356D02*
X17561356Y-14442644D01*
X17490644Y-14442644D01*
X17490644Y-14513356D01*
X17561356Y-14513356D01*
X17815356Y-14513356D02*
X17815356Y-14442644D01*
X17744644Y-14442644D01*
X17744644Y-14513356D01*
X17815356Y-14513356D01*
X18069356Y-14513356D02*
X18069356Y-14442644D01*
X17998644Y-14442644D01*
X17998644Y-14513356D01*
X18069356Y-14513356D01*
X18323356Y-14513356D02*
X18323356Y-14442644D01*
X18252644Y-14442644D01*
X18252644Y-14513356D01*
X18323356Y-14513356D01*
X18577356Y-14513356D02*
X18577356Y-14442644D01*
X18506644Y-14442644D01*
X18506644Y-14513356D01*
X18577356Y-14513356D01*
X18831356Y-14513356D02*
X18831356Y-14442644D01*
X18760644Y-14442644D01*
X18760644Y-14513356D01*
X18831356Y-14513356D01*
X19085356Y-14513356D02*
X19085356Y-14442644D01*
X19014644Y-14442644D01*
X19014644Y-14513356D01*
X19085356Y-14513356D01*
X19339356Y-14513356D02*
X19339356Y-14442644D01*
X19268644Y-14442644D01*
X19268644Y-14513356D01*
X19339356Y-14513356D01*
X19593356Y-14513356D02*
X19593356Y-14442644D01*
X19522644Y-14442644D01*
X19522644Y-14513356D01*
X19593356Y-14513356D01*
X19847356Y-14513356D02*
X19847356Y-14442644D01*
X19776644Y-14442644D01*
X19776644Y-14513356D01*
X19847356Y-14513356D01*
X20101356Y-14513356D02*
X20101356Y-14442644D01*
X20030644Y-14442644D01*
X20030644Y-14513356D01*
X20101356Y-14513356D01*
X20355356Y-14513356D02*
X20355356Y-14442644D01*
X20284644Y-14442644D01*
X20284644Y-14513356D01*
X20355356Y-14513356D01*
X20609356Y-14513356D02*
X20609356Y-14442644D01*
X20538644Y-14442644D01*
X20538644Y-14513356D01*
X20609356Y-14513356D01*
X20863356Y-14513356D02*
X20863356Y-14442644D01*
X20792644Y-14442644D01*
X20792644Y-14513356D01*
X20863356Y-14513356D01*
X21117356Y-14513356D02*
X21117356Y-14442644D01*
X21046644Y-14442644D01*
X21046644Y-14513356D01*
X21117356Y-14513356D01*
X21371356Y-14513356D02*
X21371356Y-14442644D01*
X21300644Y-14442644D01*
X21300644Y-14513356D01*
X21371356Y-14513356D01*
X21625356Y-14513356D02*
X21625356Y-14442644D01*
X21554644Y-14442644D01*
X21554644Y-14513356D01*
X21625356Y-14513356D01*
X21879356Y-14513356D02*
X21879356Y-14442644D01*
X21808644Y-14442644D01*
X21808644Y-14513356D01*
X21879356Y-14513356D01*
X22133356Y-14513356D02*
X22133356Y-14442644D01*
X22062644Y-14442644D01*
X22062644Y-14513356D01*
X22133356Y-14513356D01*
X22387356Y-14513356D02*
X22387356Y-14442644D01*
X22316644Y-14442644D01*
X22316644Y-14513356D01*
X22387356Y-14513356D01*
X22641356Y-14513356D02*
X22641356Y-14442644D01*
X22570644Y-14442644D01*
X22570644Y-14513356D01*
X22641356Y-14513356D01*
X22895356Y-14513356D02*
X22895356Y-14442644D01*
X22824644Y-14442644D01*
X22824644Y-14513356D01*
X22895356Y-14513356D01*
X23149356Y-14513356D02*
X23149356Y-14442644D01*
X23078644Y-14442644D01*
X23078644Y-14513356D01*
X23149356Y-14513356D01*
X23403356Y-14513356D02*
X23403356Y-14442644D01*
X23332644Y-14442644D01*
X23332644Y-14513356D01*
X23403356Y-14513356D01*
X23657356Y-14513356D02*
X23657356Y-14442644D01*
X23586644Y-14442644D01*
X23586644Y-14513356D01*
X23657356Y-14513356D01*
X23911356Y-14513356D02*
X23911356Y-14442644D01*
X23840644Y-14442644D01*
X23840644Y-14513356D01*
X23911356Y-14513356D01*
X24165356Y-8163356D02*
X24165356Y-8092644D01*
X24094644Y-8092644D01*
X24094644Y-8163356D01*
X24165356Y-8163356D01*
X24165356Y-8417356D02*
X24165356Y-8346644D01*
X24094644Y-8346644D01*
X24094644Y-8417356D01*
X24165356Y-8417356D01*
X24165356Y-8671356D02*
X24165356Y-8600644D01*
X24094644Y-8600644D01*
X24094644Y-8671356D01*
X24165356Y-8671356D01*
X24165356Y-8925356D02*
X24165356Y-8854644D01*
X24094644Y-8854644D01*
X24094644Y-8925356D01*
X24165356Y-8925356D01*
X24165356Y-9179356D02*
X24165356Y-9108644D01*
X24094644Y-9108644D01*
X24094644Y-9179356D01*
X24165356Y-9179356D01*
X24165356Y-9433356D02*
X24165356Y-9362644D01*
X24094644Y-9362644D01*
X24094644Y-9433356D01*
X24165356Y-9433356D01*
X24165356Y-9687356D02*
X24165356Y-9616644D01*
X24094644Y-9616644D01*
X24094644Y-9687356D01*
X24165356Y-9687356D01*
X24165356Y-9941356D02*
X24165356Y-9870644D01*
X24094644Y-9870644D01*
X24094644Y-9941356D01*
X24165356Y-9941356D01*
X24165356Y-10195356D02*
X24165356Y-10124644D01*
X24094644Y-10124644D01*
X24094644Y-10195356D01*
X24165356Y-10195356D01*
X24165356Y-10449356D02*
X24165356Y-10378644D01*
X24094644Y-10378644D01*
X24094644Y-10449356D01*
X24165356Y-10449356D01*
X24165356Y-10703356D02*
X24165356Y-10632644D01*
X24094644Y-10632644D01*
X24094644Y-10703356D01*
X24165356Y-10703356D01*
X24165356Y-10957356D02*
X24165356Y-10886644D01*
X24094644Y-10886644D01*
X24094644Y-10957356D01*
X24165356Y-10957356D01*
X24165356Y-11211356D02*
X24165356Y-11140644D01*
X24094644Y-11140644D01*
X24094644Y-11211356D01*
X24165356Y-11211356D01*
X24165356Y-11465356D02*
X24165356Y-11394644D01*
X24094644Y-11394644D01*
X24094644Y-11465356D01*
X24165356Y-11465356D01*
X24165356Y-11719356D02*
X24165356Y-11648644D01*
X24094644Y-11648644D01*
X24094644Y-11719356D01*
X24165356Y-11719356D01*
X24165356Y-11973356D02*
X24165356Y-11902644D01*
X24094644Y-11902644D01*
X24094644Y-11973356D01*
X24165356Y-11973356D01*
X24165356Y-12227356D02*
X24165356Y-12156644D01*
X24094644Y-12156644D01*
X24094644Y-12227356D01*
X24165356Y-12227356D01*
X24165356Y-14513356D02*
X24165356Y-14442644D01*
X24094644Y-14442644D01*
X24094644Y-14513356D01*
X24165356Y-14513356D01*
X24419356Y-8163356D02*
X24419356Y-8092644D01*
X24348644Y-8092644D01*
X24348644Y-8163356D01*
X24419356Y-8163356D01*
X24419356Y-8417356D02*
X24419356Y-8346644D01*
X24348644Y-8346644D01*
X24348644Y-8417356D01*
X24419356Y-8417356D01*
X24419356Y-8671356D02*
X24419356Y-8600644D01*
X24348644Y-8600644D01*
X24348644Y-8671356D01*
X24419356Y-8671356D01*
X24419356Y-8925356D02*
X24419356Y-8854644D01*
X24348644Y-8854644D01*
X24348644Y-8925356D01*
X24419356Y-8925356D01*
X24419356Y-9179356D02*
X24419356Y-9108644D01*
X24348644Y-9108644D01*
X24348644Y-9179356D01*
X24419356Y-9179356D01*
X24419356Y-9433356D02*
X24419356Y-9362644D01*
X24348644Y-9362644D01*
X24348644Y-9433356D01*
X24419356Y-9433356D01*
X24419356Y-9687356D02*
X24419356Y-9616644D01*
X24348644Y-9616644D01*
X24348644Y-9687356D01*
X24419356Y-9687356D01*
X24419356Y-9941356D02*
X24419356Y-9870644D01*
X24348644Y-9870644D01*
X24348644Y-9941356D01*
X24419356Y-9941356D01*
X24419356Y-10195356D02*
X24419356Y-10124644D01*
X24348644Y-10124644D01*
X24348644Y-10195356D01*
X24419356Y-10195356D01*
X24419356Y-10449356D02*
X24419356Y-10378644D01*
X24348644Y-10378644D01*
X24348644Y-10449356D01*
X24419356Y-10449356D01*
X24419356Y-10703356D02*
X24419356Y-10632644D01*
X24348644Y-10632644D01*
X24348644Y-10703356D01*
X24419356Y-10703356D01*
X24419356Y-10957356D02*
X24419356Y-10886644D01*
X24348644Y-10886644D01*
X24348644Y-10957356D01*
X24419356Y-10957356D01*
X24419356Y-11211356D02*
X24419356Y-11140644D01*
X24348644Y-11140644D01*
X24348644Y-11211356D01*
X24419356Y-11211356D01*
X24419356Y-11465356D02*
X24419356Y-11394644D01*
X24348644Y-11394644D01*
X24348644Y-11465356D01*
X24419356Y-11465356D01*
X24419356Y-11719356D02*
X24419356Y-11648644D01*
X24348644Y-11648644D01*
X24348644Y-11719356D01*
X24419356Y-11719356D01*
X24419356Y-11973356D02*
X24419356Y-11902644D01*
X24348644Y-11902644D01*
X24348644Y-11973356D01*
X24419356Y-11973356D01*
X24419356Y-12227356D02*
X24419356Y-12156644D01*
X24348644Y-12156644D01*
X24348644Y-12227356D01*
X24419356Y-12227356D01*
X24419356Y-14513356D02*
X24419356Y-14442644D01*
X24348644Y-14442644D01*
X24348644Y-14513356D01*
X24419356Y-14513356D01*
D11*
X5322619Y-15157476D02*
X5322619Y-14957476D01*
X5322619Y-14957476D02*
X5370238Y-14957476D01*
X5370238Y-14957476D02*
X5398810Y-14967000D01*
X5398810Y-14967000D02*
X5417857Y-14986048D01*
X5417857Y-14986048D02*
X5427381Y-15005095D01*
X5427381Y-15005095D02*
X5436905Y-15043190D01*
X5436905Y-15043190D02*
X5436905Y-15071762D01*
X5436905Y-15071762D02*
X5427381Y-15109857D01*
X5427381Y-15109857D02*
X5417857Y-15128905D01*
X5417857Y-15128905D02*
X5398810Y-15147952D01*
X5398810Y-15147952D02*
X5370238Y-15157476D01*
X5370238Y-15157476D02*
X5322619Y-15157476D01*
X5522619Y-15157476D02*
X5522619Y-15024143D01*
X5522619Y-15062238D02*
X5532143Y-15043190D01*
X5532143Y-15043190D02*
X5541667Y-15033667D01*
X5541667Y-15033667D02*
X5560714Y-15024143D01*
X5560714Y-15024143D02*
X5579762Y-15024143D01*
X5646428Y-15157476D02*
X5646428Y-15024143D01*
X5646428Y-14957476D02*
X5636905Y-14967000D01*
X5636905Y-14967000D02*
X5646428Y-14976524D01*
X5646428Y-14976524D02*
X5655952Y-14967000D01*
X5655952Y-14967000D02*
X5646428Y-14957476D01*
X5646428Y-14957476D02*
X5646428Y-14976524D01*
X5770238Y-15157476D02*
X5751190Y-15147952D01*
X5751190Y-15147952D02*
X5741667Y-15128905D01*
X5741667Y-15128905D02*
X5741667Y-14957476D01*
X5875000Y-15157476D02*
X5855952Y-15147952D01*
X5855952Y-15147952D02*
X5846428Y-15128905D01*
X5846428Y-15128905D02*
X5846428Y-14957476D01*
X6071190Y-15157476D02*
X6071190Y-14957476D01*
X6071190Y-14957476D02*
X6137857Y-15100333D01*
X6137857Y-15100333D02*
X6204524Y-14957476D01*
X6204524Y-14957476D02*
X6204524Y-15157476D01*
X6385476Y-15157476D02*
X6385476Y-15052714D01*
X6385476Y-15052714D02*
X6375952Y-15033667D01*
X6375952Y-15033667D02*
X6356905Y-15024143D01*
X6356905Y-15024143D02*
X6318809Y-15024143D01*
X6318809Y-15024143D02*
X6299762Y-15033667D01*
X6385476Y-15147952D02*
X6366428Y-15157476D01*
X6366428Y-15157476D02*
X6318809Y-15157476D01*
X6318809Y-15157476D02*
X6299762Y-15147952D01*
X6299762Y-15147952D02*
X6290238Y-15128905D01*
X6290238Y-15128905D02*
X6290238Y-15109857D01*
X6290238Y-15109857D02*
X6299762Y-15090809D01*
X6299762Y-15090809D02*
X6318809Y-15081286D01*
X6318809Y-15081286D02*
X6366428Y-15081286D01*
X6366428Y-15081286D02*
X6385476Y-15071762D01*
X6480714Y-15024143D02*
X6480714Y-15224143D01*
X6480714Y-15033667D02*
X6499762Y-15024143D01*
X6499762Y-15024143D02*
X6537857Y-15024143D01*
X6537857Y-15024143D02*
X6556905Y-15033667D01*
X6556905Y-15033667D02*
X6566428Y-15043190D01*
X6566428Y-15043190D02*
X6575952Y-15062238D01*
X6575952Y-15062238D02*
X6575952Y-15119381D01*
X6575952Y-15119381D02*
X6566428Y-15138428D01*
X6566428Y-15138428D02*
X6556905Y-15147952D01*
X6556905Y-15147952D02*
X6537857Y-15157476D01*
X6537857Y-15157476D02*
X6499762Y-15157476D01*
X6499762Y-15157476D02*
X6480714Y-15147952D01*
X6661667Y-15138428D02*
X6671190Y-15147952D01*
X6671190Y-15147952D02*
X6661667Y-15157476D01*
X6661667Y-15157476D02*
X6652143Y-15147952D01*
X6652143Y-15147952D02*
X6661667Y-15138428D01*
X6661667Y-15138428D02*
X6661667Y-15157476D01*
X6661667Y-15033667D02*
X6671190Y-15043190D01*
X6671190Y-15043190D02*
X6661667Y-15052714D01*
X6661667Y-15052714D02*
X6652143Y-15043190D01*
X6652143Y-15043190D02*
X6661667Y-15033667D01*
X6661667Y-15033667D02*
X6661667Y-15052714D01*
D12*
X5036900Y-15484950D02*
X5075000Y-15523050D01*
X5075000Y-15484950D02*
X5036900Y-15523050D01*
D11*
X5360714Y-15377476D02*
X5379762Y-15377476D01*
X5379762Y-15377476D02*
X5398810Y-15387000D01*
X5398810Y-15387000D02*
X5408333Y-15396524D01*
X5408333Y-15396524D02*
X5417857Y-15415571D01*
X5417857Y-15415571D02*
X5427381Y-15453667D01*
X5427381Y-15453667D02*
X5427381Y-15501286D01*
X5427381Y-15501286D02*
X5417857Y-15539381D01*
X5417857Y-15539381D02*
X5408333Y-15558428D01*
X5408333Y-15558428D02*
X5398810Y-15567952D01*
X5398810Y-15567952D02*
X5379762Y-15577476D01*
X5379762Y-15577476D02*
X5360714Y-15577476D01*
X5360714Y-15577476D02*
X5341667Y-15567952D01*
X5341667Y-15567952D02*
X5332143Y-15558428D01*
X5332143Y-15558428D02*
X5322619Y-15539381D01*
X5322619Y-15539381D02*
X5313095Y-15501286D01*
X5313095Y-15501286D02*
X5313095Y-15453667D01*
X5313095Y-15453667D02*
X5322619Y-15415571D01*
X5322619Y-15415571D02*
X5332143Y-15396524D01*
X5332143Y-15396524D02*
X5341667Y-15387000D01*
X5341667Y-15387000D02*
X5360714Y-15377476D01*
X5513095Y-15558428D02*
X5522619Y-15567952D01*
X5522619Y-15567952D02*
X5513095Y-15577476D01*
X5513095Y-15577476D02*
X5503571Y-15567952D01*
X5503571Y-15567952D02*
X5513095Y-15558428D01*
X5513095Y-15558428D02*
X5513095Y-15577476D01*
X5589286Y-15377476D02*
X5713095Y-15377476D01*
X5713095Y-15377476D02*
X5646428Y-15453667D01*
X5646428Y-15453667D02*
X5675000Y-15453667D01*
X5675000Y-15453667D02*
X5694048Y-15463190D01*
X5694048Y-15463190D02*
X5703571Y-15472714D01*
X5703571Y-15472714D02*
X5713095Y-15491762D01*
X5713095Y-15491762D02*
X5713095Y-15539381D01*
X5713095Y-15539381D02*
X5703571Y-15558428D01*
X5703571Y-15558428D02*
X5694048Y-15567952D01*
X5694048Y-15567952D02*
X5675000Y-15577476D01*
X5675000Y-15577476D02*
X5617857Y-15577476D01*
X5617857Y-15577476D02*
X5598809Y-15567952D01*
X5598809Y-15567952D02*
X5589286Y-15558428D01*
X5827381Y-15463190D02*
X5808333Y-15453667D01*
X5808333Y-15453667D02*
X5798809Y-15444143D01*
X5798809Y-15444143D02*
X5789286Y-15425095D01*
X5789286Y-15425095D02*
X5789286Y-15415571D01*
X5789286Y-15415571D02*
X5798809Y-15396524D01*
X5798809Y-15396524D02*
X5808333Y-15387000D01*
X5808333Y-15387000D02*
X5827381Y-15377476D01*
X5827381Y-15377476D02*
X5865476Y-15377476D01*
X5865476Y-15377476D02*
X5884524Y-15387000D01*
X5884524Y-15387000D02*
X5894048Y-15396524D01*
X5894048Y-15396524D02*
X5903571Y-15415571D01*
X5903571Y-15415571D02*
X5903571Y-15425095D01*
X5903571Y-15425095D02*
X5894048Y-15444143D01*
X5894048Y-15444143D02*
X5884524Y-15453667D01*
X5884524Y-15453667D02*
X5865476Y-15463190D01*
X5865476Y-15463190D02*
X5827381Y-15463190D01*
X5827381Y-15463190D02*
X5808333Y-15472714D01*
X5808333Y-15472714D02*
X5798809Y-15482238D01*
X5798809Y-15482238D02*
X5789286Y-15501286D01*
X5789286Y-15501286D02*
X5789286Y-15539381D01*
X5789286Y-15539381D02*
X5798809Y-15558428D01*
X5798809Y-15558428D02*
X5808333Y-15567952D01*
X5808333Y-15567952D02*
X5827381Y-15577476D01*
X5827381Y-15577476D02*
X5865476Y-15577476D01*
X5865476Y-15577476D02*
X5884524Y-15567952D01*
X5884524Y-15567952D02*
X5894048Y-15558428D01*
X5894048Y-15558428D02*
X5903571Y-15539381D01*
X5903571Y-15539381D02*
X5903571Y-15501286D01*
X5903571Y-15501286D02*
X5894048Y-15482238D01*
X5894048Y-15482238D02*
X5884524Y-15472714D01*
X5884524Y-15472714D02*
X5865476Y-15463190D01*
X6094048Y-15577476D02*
X5979762Y-15577476D01*
X6036905Y-15577476D02*
X6036905Y-15377476D01*
X6036905Y-15377476D02*
X6017857Y-15406048D01*
X6017857Y-15406048D02*
X5998809Y-15425095D01*
X5998809Y-15425095D02*
X5979762Y-15434619D01*
X6179762Y-15577476D02*
X6179762Y-15444143D01*
X6179762Y-15463190D02*
X6189286Y-15453667D01*
X6189286Y-15453667D02*
X6208333Y-15444143D01*
X6208333Y-15444143D02*
X6236905Y-15444143D01*
X6236905Y-15444143D02*
X6255952Y-15453667D01*
X6255952Y-15453667D02*
X6265476Y-15472714D01*
X6265476Y-15472714D02*
X6265476Y-15577476D01*
X6265476Y-15472714D02*
X6275000Y-15453667D01*
X6275000Y-15453667D02*
X6294048Y-15444143D01*
X6294048Y-15444143D02*
X6322619Y-15444143D01*
X6322619Y-15444143D02*
X6341667Y-15453667D01*
X6341667Y-15453667D02*
X6351190Y-15472714D01*
X6351190Y-15472714D02*
X6351190Y-15577476D01*
X6446429Y-15577476D02*
X6446429Y-15444143D01*
X6446429Y-15463190D02*
X6455952Y-15453667D01*
X6455952Y-15453667D02*
X6475000Y-15444143D01*
X6475000Y-15444143D02*
X6503571Y-15444143D01*
X6503571Y-15444143D02*
X6522619Y-15453667D01*
X6522619Y-15453667D02*
X6532143Y-15472714D01*
X6532143Y-15472714D02*
X6532143Y-15577476D01*
X6532143Y-15472714D02*
X6541667Y-15453667D01*
X6541667Y-15453667D02*
X6560714Y-15444143D01*
X6560714Y-15444143D02*
X6589286Y-15444143D01*
X6589286Y-15444143D02*
X6608333Y-15453667D01*
X6608333Y-15453667D02*
X6617857Y-15472714D01*
X6617857Y-15472714D02*
X6617857Y-15577476D01*
X6975952Y-15367952D02*
X6804524Y-15625095D01*
X7200714Y-15377476D02*
X7219762Y-15377476D01*
X7219762Y-15377476D02*
X7238810Y-15387000D01*
X7238810Y-15387000D02*
X7248333Y-15396524D01*
X7248333Y-15396524D02*
X7257857Y-15415571D01*
X7257857Y-15415571D02*
X7267381Y-15453667D01*
X7267381Y-15453667D02*
X7267381Y-15501286D01*
X7267381Y-15501286D02*
X7257857Y-15539381D01*
X7257857Y-15539381D02*
X7248333Y-15558428D01*
X7248333Y-15558428D02*
X7238810Y-15567952D01*
X7238810Y-15567952D02*
X7219762Y-15577476D01*
X7219762Y-15577476D02*
X7200714Y-15577476D01*
X7200714Y-15577476D02*
X7181667Y-15567952D01*
X7181667Y-15567952D02*
X7172143Y-15558428D01*
X7172143Y-15558428D02*
X7162619Y-15539381D01*
X7162619Y-15539381D02*
X7153095Y-15501286D01*
X7153095Y-15501286D02*
X7153095Y-15453667D01*
X7153095Y-15453667D02*
X7162619Y-15415571D01*
X7162619Y-15415571D02*
X7172143Y-15396524D01*
X7172143Y-15396524D02*
X7181667Y-15387000D01*
X7181667Y-15387000D02*
X7200714Y-15377476D01*
X7353095Y-15558428D02*
X7362619Y-15567952D01*
X7362619Y-15567952D02*
X7353095Y-15577476D01*
X7353095Y-15577476D02*
X7343571Y-15567952D01*
X7343571Y-15567952D02*
X7353095Y-15558428D01*
X7353095Y-15558428D02*
X7353095Y-15577476D01*
X7486429Y-15377476D02*
X7505476Y-15377476D01*
X7505476Y-15377476D02*
X7524524Y-15387000D01*
X7524524Y-15387000D02*
X7534048Y-15396524D01*
X7534048Y-15396524D02*
X7543571Y-15415571D01*
X7543571Y-15415571D02*
X7553095Y-15453667D01*
X7553095Y-15453667D02*
X7553095Y-15501286D01*
X7553095Y-15501286D02*
X7543571Y-15539381D01*
X7543571Y-15539381D02*
X7534048Y-15558428D01*
X7534048Y-15558428D02*
X7524524Y-15567952D01*
X7524524Y-15567952D02*
X7505476Y-15577476D01*
X7505476Y-15577476D02*
X7486429Y-15577476D01*
X7486429Y-15577476D02*
X7467381Y-15567952D01*
X7467381Y-15567952D02*
X7457857Y-15558428D01*
X7457857Y-15558428D02*
X7448333Y-15539381D01*
X7448333Y-15539381D02*
X7438810Y-15501286D01*
X7438810Y-15501286D02*
X7438810Y-15453667D01*
X7438810Y-15453667D02*
X7448333Y-15415571D01*
X7448333Y-15415571D02*
X7457857Y-15396524D01*
X7457857Y-15396524D02*
X7467381Y-15387000D01*
X7467381Y-15387000D02*
X7486429Y-15377476D01*
X7743571Y-15577476D02*
X7629286Y-15577476D01*
X7686429Y-15577476D02*
X7686429Y-15377476D01*
X7686429Y-15377476D02*
X7667381Y-15406048D01*
X7667381Y-15406048D02*
X7648333Y-15425095D01*
X7648333Y-15425095D02*
X7629286Y-15434619D01*
X7924524Y-15377476D02*
X7829286Y-15377476D01*
X7829286Y-15377476D02*
X7819762Y-15472714D01*
X7819762Y-15472714D02*
X7829286Y-15463190D01*
X7829286Y-15463190D02*
X7848333Y-15453667D01*
X7848333Y-15453667D02*
X7895952Y-15453667D01*
X7895952Y-15453667D02*
X7915000Y-15463190D01*
X7915000Y-15463190D02*
X7924524Y-15472714D01*
X7924524Y-15472714D02*
X7934048Y-15491762D01*
X7934048Y-15491762D02*
X7934048Y-15539381D01*
X7934048Y-15539381D02*
X7924524Y-15558428D01*
X7924524Y-15558428D02*
X7915000Y-15567952D01*
X7915000Y-15567952D02*
X7895952Y-15577476D01*
X7895952Y-15577476D02*
X7848333Y-15577476D01*
X7848333Y-15577476D02*
X7829286Y-15567952D01*
X7829286Y-15567952D02*
X7819762Y-15558428D01*
X8057857Y-15377476D02*
X8076905Y-15377476D01*
X8076905Y-15377476D02*
X8095952Y-15387000D01*
X8095952Y-15387000D02*
X8105476Y-15396524D01*
X8105476Y-15396524D02*
X8115000Y-15415571D01*
X8115000Y-15415571D02*
X8124524Y-15453667D01*
X8124524Y-15453667D02*
X8124524Y-15501286D01*
X8124524Y-15501286D02*
X8115000Y-15539381D01*
X8115000Y-15539381D02*
X8105476Y-15558428D01*
X8105476Y-15558428D02*
X8095952Y-15567952D01*
X8095952Y-15567952D02*
X8076905Y-15577476D01*
X8076905Y-15577476D02*
X8057857Y-15577476D01*
X8057857Y-15577476D02*
X8038810Y-15567952D01*
X8038810Y-15567952D02*
X8029286Y-15558428D01*
X8029286Y-15558428D02*
X8019762Y-15539381D01*
X8019762Y-15539381D02*
X8010238Y-15501286D01*
X8010238Y-15501286D02*
X8010238Y-15453667D01*
X8010238Y-15453667D02*
X8019762Y-15415571D01*
X8019762Y-15415571D02*
X8029286Y-15396524D01*
X8029286Y-15396524D02*
X8038810Y-15387000D01*
X8038810Y-15387000D02*
X8057857Y-15377476D01*
X8200714Y-15377476D02*
X8200714Y-15415571D01*
X8276905Y-15377476D02*
X8276905Y-15415571D01*
X8539762Y-15653667D02*
X8530238Y-15644143D01*
X8530238Y-15644143D02*
X8511191Y-15615571D01*
X8511191Y-15615571D02*
X8501667Y-15596524D01*
X8501667Y-15596524D02*
X8492143Y-15567952D01*
X8492143Y-15567952D02*
X8482619Y-15520333D01*
X8482619Y-15520333D02*
X8482619Y-15482238D01*
X8482619Y-15482238D02*
X8492143Y-15434619D01*
X8492143Y-15434619D02*
X8501667Y-15406048D01*
X8501667Y-15406048D02*
X8511191Y-15387000D01*
X8511191Y-15387000D02*
X8530238Y-15358428D01*
X8530238Y-15358428D02*
X8539762Y-15348905D01*
X8720714Y-15577476D02*
X8606429Y-15577476D01*
X8663572Y-15577476D02*
X8663572Y-15377476D01*
X8663572Y-15377476D02*
X8644524Y-15406048D01*
X8644524Y-15406048D02*
X8625476Y-15425095D01*
X8625476Y-15425095D02*
X8606429Y-15434619D01*
X8796905Y-15396524D02*
X8806429Y-15387000D01*
X8806429Y-15387000D02*
X8825476Y-15377476D01*
X8825476Y-15377476D02*
X8873095Y-15377476D01*
X8873095Y-15377476D02*
X8892143Y-15387000D01*
X8892143Y-15387000D02*
X8901667Y-15396524D01*
X8901667Y-15396524D02*
X8911191Y-15415571D01*
X8911191Y-15415571D02*
X8911191Y-15434619D01*
X8911191Y-15434619D02*
X8901667Y-15463190D01*
X8901667Y-15463190D02*
X8787381Y-15577476D01*
X8787381Y-15577476D02*
X8911191Y-15577476D01*
X8977857Y-15377476D02*
X9111191Y-15377476D01*
X9111191Y-15377476D02*
X9025476Y-15577476D01*
X9307381Y-15577476D02*
X9307381Y-15377476D01*
X9393095Y-15577476D02*
X9393095Y-15472714D01*
X9393095Y-15472714D02*
X9383572Y-15453667D01*
X9383572Y-15453667D02*
X9364524Y-15444143D01*
X9364524Y-15444143D02*
X9335953Y-15444143D01*
X9335953Y-15444143D02*
X9316905Y-15453667D01*
X9316905Y-15453667D02*
X9307381Y-15463190D01*
X9516905Y-15577476D02*
X9497857Y-15567952D01*
X9497857Y-15567952D02*
X9488334Y-15558428D01*
X9488334Y-15558428D02*
X9478810Y-15539381D01*
X9478810Y-15539381D02*
X9478810Y-15482238D01*
X9478810Y-15482238D02*
X9488334Y-15463190D01*
X9488334Y-15463190D02*
X9497857Y-15453667D01*
X9497857Y-15453667D02*
X9516905Y-15444143D01*
X9516905Y-15444143D02*
X9545476Y-15444143D01*
X9545476Y-15444143D02*
X9564524Y-15453667D01*
X9564524Y-15453667D02*
X9574048Y-15463190D01*
X9574048Y-15463190D02*
X9583572Y-15482238D01*
X9583572Y-15482238D02*
X9583572Y-15539381D01*
X9583572Y-15539381D02*
X9574048Y-15558428D01*
X9574048Y-15558428D02*
X9564524Y-15567952D01*
X9564524Y-15567952D02*
X9545476Y-15577476D01*
X9545476Y-15577476D02*
X9516905Y-15577476D01*
X9697857Y-15577476D02*
X9678810Y-15567952D01*
X9678810Y-15567952D02*
X9669286Y-15548905D01*
X9669286Y-15548905D02*
X9669286Y-15377476D01*
X9850238Y-15567952D02*
X9831191Y-15577476D01*
X9831191Y-15577476D02*
X9793095Y-15577476D01*
X9793095Y-15577476D02*
X9774048Y-15567952D01*
X9774048Y-15567952D02*
X9764524Y-15548905D01*
X9764524Y-15548905D02*
X9764524Y-15472714D01*
X9764524Y-15472714D02*
X9774048Y-15453667D01*
X9774048Y-15453667D02*
X9793095Y-15444143D01*
X9793095Y-15444143D02*
X9831191Y-15444143D01*
X9831191Y-15444143D02*
X9850238Y-15453667D01*
X9850238Y-15453667D02*
X9859762Y-15472714D01*
X9859762Y-15472714D02*
X9859762Y-15491762D01*
X9859762Y-15491762D02*
X9764524Y-15510809D01*
X9935953Y-15567952D02*
X9955000Y-15577476D01*
X9955000Y-15577476D02*
X9993095Y-15577476D01*
X9993095Y-15577476D02*
X10012143Y-15567952D01*
X10012143Y-15567952D02*
X10021667Y-15548905D01*
X10021667Y-15548905D02*
X10021667Y-15539381D01*
X10021667Y-15539381D02*
X10012143Y-15520333D01*
X10012143Y-15520333D02*
X9993095Y-15510809D01*
X9993095Y-15510809D02*
X9964524Y-15510809D01*
X9964524Y-15510809D02*
X9945476Y-15501286D01*
X9945476Y-15501286D02*
X9935953Y-15482238D01*
X9935953Y-15482238D02*
X9935953Y-15472714D01*
X9935953Y-15472714D02*
X9945476Y-15453667D01*
X9945476Y-15453667D02*
X9964524Y-15444143D01*
X9964524Y-15444143D02*
X9993095Y-15444143D01*
X9993095Y-15444143D02*
X10012143Y-15453667D01*
X10088334Y-15653667D02*
X10097857Y-15644143D01*
X10097857Y-15644143D02*
X10116905Y-15615571D01*
X10116905Y-15615571D02*
X10126429Y-15596524D01*
X10126429Y-15596524D02*
X10135953Y-15567952D01*
X10135953Y-15567952D02*
X10145476Y-15520333D01*
X10145476Y-15520333D02*
X10145476Y-15482238D01*
X10145476Y-15482238D02*
X10135953Y-15434619D01*
X10135953Y-15434619D02*
X10126429Y-15406048D01*
X10126429Y-15406048D02*
X10116905Y-15387000D01*
X10116905Y-15387000D02*
X10097857Y-15358428D01*
X10097857Y-15358428D02*
X10088334Y-15348905D01*
D13*
X5075000Y-15768000D02*
G75*
G03*
X5075000Y-15768000I-40000J0D01*
G01*
D11*
X5360714Y-15641476D02*
X5379762Y-15641476D01*
X5379762Y-15641476D02*
X5398810Y-15651000D01*
X5398810Y-15651000D02*
X5408333Y-15660524D01*
X5408333Y-15660524D02*
X5417857Y-15679571D01*
X5417857Y-15679571D02*
X5427381Y-15717667D01*
X5427381Y-15717667D02*
X5427381Y-15765286D01*
X5427381Y-15765286D02*
X5417857Y-15803381D01*
X5417857Y-15803381D02*
X5408333Y-15822428D01*
X5408333Y-15822428D02*
X5398810Y-15831952D01*
X5398810Y-15831952D02*
X5379762Y-15841476D01*
X5379762Y-15841476D02*
X5360714Y-15841476D01*
X5360714Y-15841476D02*
X5341667Y-15831952D01*
X5341667Y-15831952D02*
X5332143Y-15822428D01*
X5332143Y-15822428D02*
X5322619Y-15803381D01*
X5322619Y-15803381D02*
X5313095Y-15765286D01*
X5313095Y-15765286D02*
X5313095Y-15717667D01*
X5313095Y-15717667D02*
X5322619Y-15679571D01*
X5322619Y-15679571D02*
X5332143Y-15660524D01*
X5332143Y-15660524D02*
X5341667Y-15651000D01*
X5341667Y-15651000D02*
X5360714Y-15641476D01*
X5513095Y-15822428D02*
X5522619Y-15831952D01*
X5522619Y-15831952D02*
X5513095Y-15841476D01*
X5513095Y-15841476D02*
X5503571Y-15831952D01*
X5503571Y-15831952D02*
X5513095Y-15822428D01*
X5513095Y-15822428D02*
X5513095Y-15841476D01*
X5636905Y-15727190D02*
X5617857Y-15717667D01*
X5617857Y-15717667D02*
X5608333Y-15708143D01*
X5608333Y-15708143D02*
X5598809Y-15689095D01*
X5598809Y-15689095D02*
X5598809Y-15679571D01*
X5598809Y-15679571D02*
X5608333Y-15660524D01*
X5608333Y-15660524D02*
X5617857Y-15651000D01*
X5617857Y-15651000D02*
X5636905Y-15641476D01*
X5636905Y-15641476D02*
X5675000Y-15641476D01*
X5675000Y-15641476D02*
X5694048Y-15651000D01*
X5694048Y-15651000D02*
X5703571Y-15660524D01*
X5703571Y-15660524D02*
X5713095Y-15679571D01*
X5713095Y-15679571D02*
X5713095Y-15689095D01*
X5713095Y-15689095D02*
X5703571Y-15708143D01*
X5703571Y-15708143D02*
X5694048Y-15717667D01*
X5694048Y-15717667D02*
X5675000Y-15727190D01*
X5675000Y-15727190D02*
X5636905Y-15727190D01*
X5636905Y-15727190D02*
X5617857Y-15736714D01*
X5617857Y-15736714D02*
X5608333Y-15746238D01*
X5608333Y-15746238D02*
X5598809Y-15765286D01*
X5598809Y-15765286D02*
X5598809Y-15803381D01*
X5598809Y-15803381D02*
X5608333Y-15822428D01*
X5608333Y-15822428D02*
X5617857Y-15831952D01*
X5617857Y-15831952D02*
X5636905Y-15841476D01*
X5636905Y-15841476D02*
X5675000Y-15841476D01*
X5675000Y-15841476D02*
X5694048Y-15831952D01*
X5694048Y-15831952D02*
X5703571Y-15822428D01*
X5703571Y-15822428D02*
X5713095Y-15803381D01*
X5713095Y-15803381D02*
X5713095Y-15765286D01*
X5713095Y-15765286D02*
X5703571Y-15746238D01*
X5703571Y-15746238D02*
X5694048Y-15736714D01*
X5694048Y-15736714D02*
X5675000Y-15727190D01*
X5836905Y-15641476D02*
X5855952Y-15641476D01*
X5855952Y-15641476D02*
X5875000Y-15651000D01*
X5875000Y-15651000D02*
X5884524Y-15660524D01*
X5884524Y-15660524D02*
X5894048Y-15679571D01*
X5894048Y-15679571D02*
X5903571Y-15717667D01*
X5903571Y-15717667D02*
X5903571Y-15765286D01*
X5903571Y-15765286D02*
X5894048Y-15803381D01*
X5894048Y-15803381D02*
X5884524Y-15822428D01*
X5884524Y-15822428D02*
X5875000Y-15831952D01*
X5875000Y-15831952D02*
X5855952Y-15841476D01*
X5855952Y-15841476D02*
X5836905Y-15841476D01*
X5836905Y-15841476D02*
X5817857Y-15831952D01*
X5817857Y-15831952D02*
X5808333Y-15822428D01*
X5808333Y-15822428D02*
X5798809Y-15803381D01*
X5798809Y-15803381D02*
X5789286Y-15765286D01*
X5789286Y-15765286D02*
X5789286Y-15717667D01*
X5789286Y-15717667D02*
X5798809Y-15679571D01*
X5798809Y-15679571D02*
X5808333Y-15660524D01*
X5808333Y-15660524D02*
X5817857Y-15651000D01*
X5817857Y-15651000D02*
X5836905Y-15641476D01*
X6027381Y-15641476D02*
X6046429Y-15641476D01*
X6046429Y-15641476D02*
X6065476Y-15651000D01*
X6065476Y-15651000D02*
X6075000Y-15660524D01*
X6075000Y-15660524D02*
X6084524Y-15679571D01*
X6084524Y-15679571D02*
X6094048Y-15717667D01*
X6094048Y-15717667D02*
X6094048Y-15765286D01*
X6094048Y-15765286D02*
X6084524Y-15803381D01*
X6084524Y-15803381D02*
X6075000Y-15822428D01*
X6075000Y-15822428D02*
X6065476Y-15831952D01*
X6065476Y-15831952D02*
X6046429Y-15841476D01*
X6046429Y-15841476D02*
X6027381Y-15841476D01*
X6027381Y-15841476D02*
X6008333Y-15831952D01*
X6008333Y-15831952D02*
X5998809Y-15822428D01*
X5998809Y-15822428D02*
X5989286Y-15803381D01*
X5989286Y-15803381D02*
X5979762Y-15765286D01*
X5979762Y-15765286D02*
X5979762Y-15717667D01*
X5979762Y-15717667D02*
X5989286Y-15679571D01*
X5989286Y-15679571D02*
X5998809Y-15660524D01*
X5998809Y-15660524D02*
X6008333Y-15651000D01*
X6008333Y-15651000D02*
X6027381Y-15641476D01*
X6179762Y-15841476D02*
X6179762Y-15708143D01*
X6179762Y-15727190D02*
X6189286Y-15717667D01*
X6189286Y-15717667D02*
X6208333Y-15708143D01*
X6208333Y-15708143D02*
X6236905Y-15708143D01*
X6236905Y-15708143D02*
X6255952Y-15717667D01*
X6255952Y-15717667D02*
X6265476Y-15736714D01*
X6265476Y-15736714D02*
X6265476Y-15841476D01*
X6265476Y-15736714D02*
X6275000Y-15717667D01*
X6275000Y-15717667D02*
X6294048Y-15708143D01*
X6294048Y-15708143D02*
X6322619Y-15708143D01*
X6322619Y-15708143D02*
X6341667Y-15717667D01*
X6341667Y-15717667D02*
X6351190Y-15736714D01*
X6351190Y-15736714D02*
X6351190Y-15841476D01*
X6446429Y-15841476D02*
X6446429Y-15708143D01*
X6446429Y-15727190D02*
X6455952Y-15717667D01*
X6455952Y-15717667D02*
X6475000Y-15708143D01*
X6475000Y-15708143D02*
X6503571Y-15708143D01*
X6503571Y-15708143D02*
X6522619Y-15717667D01*
X6522619Y-15717667D02*
X6532143Y-15736714D01*
X6532143Y-15736714D02*
X6532143Y-15841476D01*
X6532143Y-15736714D02*
X6541667Y-15717667D01*
X6541667Y-15717667D02*
X6560714Y-15708143D01*
X6560714Y-15708143D02*
X6589286Y-15708143D01*
X6589286Y-15708143D02*
X6608333Y-15717667D01*
X6608333Y-15717667D02*
X6617857Y-15736714D01*
X6617857Y-15736714D02*
X6617857Y-15841476D01*
X6975952Y-15631952D02*
X6804524Y-15889095D01*
X7200714Y-15641476D02*
X7219762Y-15641476D01*
X7219762Y-15641476D02*
X7238810Y-15651000D01*
X7238810Y-15651000D02*
X7248333Y-15660524D01*
X7248333Y-15660524D02*
X7257857Y-15679571D01*
X7257857Y-15679571D02*
X7267381Y-15717667D01*
X7267381Y-15717667D02*
X7267381Y-15765286D01*
X7267381Y-15765286D02*
X7257857Y-15803381D01*
X7257857Y-15803381D02*
X7248333Y-15822428D01*
X7248333Y-15822428D02*
X7238810Y-15831952D01*
X7238810Y-15831952D02*
X7219762Y-15841476D01*
X7219762Y-15841476D02*
X7200714Y-15841476D01*
X7200714Y-15841476D02*
X7181667Y-15831952D01*
X7181667Y-15831952D02*
X7172143Y-15822428D01*
X7172143Y-15822428D02*
X7162619Y-15803381D01*
X7162619Y-15803381D02*
X7153095Y-15765286D01*
X7153095Y-15765286D02*
X7153095Y-15717667D01*
X7153095Y-15717667D02*
X7162619Y-15679571D01*
X7162619Y-15679571D02*
X7172143Y-15660524D01*
X7172143Y-15660524D02*
X7181667Y-15651000D01*
X7181667Y-15651000D02*
X7200714Y-15641476D01*
X7353095Y-15822428D02*
X7362619Y-15831952D01*
X7362619Y-15831952D02*
X7353095Y-15841476D01*
X7353095Y-15841476D02*
X7343571Y-15831952D01*
X7343571Y-15831952D02*
X7353095Y-15822428D01*
X7353095Y-15822428D02*
X7353095Y-15841476D01*
X7486429Y-15641476D02*
X7505476Y-15641476D01*
X7505476Y-15641476D02*
X7524524Y-15651000D01*
X7524524Y-15651000D02*
X7534048Y-15660524D01*
X7534048Y-15660524D02*
X7543571Y-15679571D01*
X7543571Y-15679571D02*
X7553095Y-15717667D01*
X7553095Y-15717667D02*
X7553095Y-15765286D01*
X7553095Y-15765286D02*
X7543571Y-15803381D01*
X7543571Y-15803381D02*
X7534048Y-15822428D01*
X7534048Y-15822428D02*
X7524524Y-15831952D01*
X7524524Y-15831952D02*
X7505476Y-15841476D01*
X7505476Y-15841476D02*
X7486429Y-15841476D01*
X7486429Y-15841476D02*
X7467381Y-15831952D01*
X7467381Y-15831952D02*
X7457857Y-15822428D01*
X7457857Y-15822428D02*
X7448333Y-15803381D01*
X7448333Y-15803381D02*
X7438810Y-15765286D01*
X7438810Y-15765286D02*
X7438810Y-15717667D01*
X7438810Y-15717667D02*
X7448333Y-15679571D01*
X7448333Y-15679571D02*
X7457857Y-15660524D01*
X7457857Y-15660524D02*
X7467381Y-15651000D01*
X7467381Y-15651000D02*
X7486429Y-15641476D01*
X7619762Y-15641476D02*
X7743571Y-15641476D01*
X7743571Y-15641476D02*
X7676905Y-15717667D01*
X7676905Y-15717667D02*
X7705476Y-15717667D01*
X7705476Y-15717667D02*
X7724524Y-15727190D01*
X7724524Y-15727190D02*
X7734048Y-15736714D01*
X7734048Y-15736714D02*
X7743571Y-15755762D01*
X7743571Y-15755762D02*
X7743571Y-15803381D01*
X7743571Y-15803381D02*
X7734048Y-15822428D01*
X7734048Y-15822428D02*
X7724524Y-15831952D01*
X7724524Y-15831952D02*
X7705476Y-15841476D01*
X7705476Y-15841476D02*
X7648333Y-15841476D01*
X7648333Y-15841476D02*
X7629286Y-15831952D01*
X7629286Y-15831952D02*
X7619762Y-15822428D01*
X7934048Y-15841476D02*
X7819762Y-15841476D01*
X7876905Y-15841476D02*
X7876905Y-15641476D01*
X7876905Y-15641476D02*
X7857857Y-15670048D01*
X7857857Y-15670048D02*
X7838810Y-15689095D01*
X7838810Y-15689095D02*
X7819762Y-15698619D01*
X8115000Y-15641476D02*
X8019762Y-15641476D01*
X8019762Y-15641476D02*
X8010238Y-15736714D01*
X8010238Y-15736714D02*
X8019762Y-15727190D01*
X8019762Y-15727190D02*
X8038810Y-15717667D01*
X8038810Y-15717667D02*
X8086429Y-15717667D01*
X8086429Y-15717667D02*
X8105476Y-15727190D01*
X8105476Y-15727190D02*
X8115000Y-15736714D01*
X8115000Y-15736714D02*
X8124524Y-15755762D01*
X8124524Y-15755762D02*
X8124524Y-15803381D01*
X8124524Y-15803381D02*
X8115000Y-15822428D01*
X8115000Y-15822428D02*
X8105476Y-15831952D01*
X8105476Y-15831952D02*
X8086429Y-15841476D01*
X8086429Y-15841476D02*
X8038810Y-15841476D01*
X8038810Y-15841476D02*
X8019762Y-15831952D01*
X8019762Y-15831952D02*
X8010238Y-15822428D01*
X8200714Y-15641476D02*
X8200714Y-15679571D01*
X8276905Y-15641476D02*
X8276905Y-15679571D01*
X8539762Y-15917667D02*
X8530238Y-15908143D01*
X8530238Y-15908143D02*
X8511191Y-15879571D01*
X8511191Y-15879571D02*
X8501667Y-15860524D01*
X8501667Y-15860524D02*
X8492143Y-15831952D01*
X8492143Y-15831952D02*
X8482619Y-15784333D01*
X8482619Y-15784333D02*
X8482619Y-15746238D01*
X8482619Y-15746238D02*
X8492143Y-15698619D01*
X8492143Y-15698619D02*
X8501667Y-15670048D01*
X8501667Y-15670048D02*
X8511191Y-15651000D01*
X8511191Y-15651000D02*
X8530238Y-15622428D01*
X8530238Y-15622428D02*
X8539762Y-15612905D01*
X8606429Y-15660524D02*
X8615953Y-15651000D01*
X8615953Y-15651000D02*
X8635000Y-15641476D01*
X8635000Y-15641476D02*
X8682619Y-15641476D01*
X8682619Y-15641476D02*
X8701667Y-15651000D01*
X8701667Y-15651000D02*
X8711191Y-15660524D01*
X8711191Y-15660524D02*
X8720714Y-15679571D01*
X8720714Y-15679571D02*
X8720714Y-15698619D01*
X8720714Y-15698619D02*
X8711191Y-15727190D01*
X8711191Y-15727190D02*
X8596905Y-15841476D01*
X8596905Y-15841476D02*
X8720714Y-15841476D01*
X8844524Y-15641476D02*
X8863572Y-15641476D01*
X8863572Y-15641476D02*
X8882619Y-15651000D01*
X8882619Y-15651000D02*
X8892143Y-15660524D01*
X8892143Y-15660524D02*
X8901667Y-15679571D01*
X8901667Y-15679571D02*
X8911191Y-15717667D01*
X8911191Y-15717667D02*
X8911191Y-15765286D01*
X8911191Y-15765286D02*
X8901667Y-15803381D01*
X8901667Y-15803381D02*
X8892143Y-15822428D01*
X8892143Y-15822428D02*
X8882619Y-15831952D01*
X8882619Y-15831952D02*
X8863572Y-15841476D01*
X8863572Y-15841476D02*
X8844524Y-15841476D01*
X8844524Y-15841476D02*
X8825476Y-15831952D01*
X8825476Y-15831952D02*
X8815953Y-15822428D01*
X8815953Y-15822428D02*
X8806429Y-15803381D01*
X8806429Y-15803381D02*
X8796905Y-15765286D01*
X8796905Y-15765286D02*
X8796905Y-15717667D01*
X8796905Y-15717667D02*
X8806429Y-15679571D01*
X8806429Y-15679571D02*
X8815953Y-15660524D01*
X8815953Y-15660524D02*
X8825476Y-15651000D01*
X8825476Y-15651000D02*
X8844524Y-15641476D01*
X9082619Y-15708143D02*
X9082619Y-15841476D01*
X9035000Y-15631952D02*
X8987381Y-15774809D01*
X8987381Y-15774809D02*
X9111191Y-15774809D01*
X9307381Y-15841476D02*
X9307381Y-15641476D01*
X9393095Y-15841476D02*
X9393095Y-15736714D01*
X9393095Y-15736714D02*
X9383572Y-15717667D01*
X9383572Y-15717667D02*
X9364524Y-15708143D01*
X9364524Y-15708143D02*
X9335953Y-15708143D01*
X9335953Y-15708143D02*
X9316905Y-15717667D01*
X9316905Y-15717667D02*
X9307381Y-15727190D01*
X9516905Y-15841476D02*
X9497857Y-15831952D01*
X9497857Y-15831952D02*
X9488334Y-15822428D01*
X9488334Y-15822428D02*
X9478810Y-15803381D01*
X9478810Y-15803381D02*
X9478810Y-15746238D01*
X9478810Y-15746238D02*
X9488334Y-15727190D01*
X9488334Y-15727190D02*
X9497857Y-15717667D01*
X9497857Y-15717667D02*
X9516905Y-15708143D01*
X9516905Y-15708143D02*
X9545476Y-15708143D01*
X9545476Y-15708143D02*
X9564524Y-15717667D01*
X9564524Y-15717667D02*
X9574048Y-15727190D01*
X9574048Y-15727190D02*
X9583572Y-15746238D01*
X9583572Y-15746238D02*
X9583572Y-15803381D01*
X9583572Y-15803381D02*
X9574048Y-15822428D01*
X9574048Y-15822428D02*
X9564524Y-15831952D01*
X9564524Y-15831952D02*
X9545476Y-15841476D01*
X9545476Y-15841476D02*
X9516905Y-15841476D01*
X9697857Y-15841476D02*
X9678810Y-15831952D01*
X9678810Y-15831952D02*
X9669286Y-15812905D01*
X9669286Y-15812905D02*
X9669286Y-15641476D01*
X9850238Y-15831952D02*
X9831191Y-15841476D01*
X9831191Y-15841476D02*
X9793095Y-15841476D01*
X9793095Y-15841476D02*
X9774048Y-15831952D01*
X9774048Y-15831952D02*
X9764524Y-15812905D01*
X9764524Y-15812905D02*
X9764524Y-15736714D01*
X9764524Y-15736714D02*
X9774048Y-15717667D01*
X9774048Y-15717667D02*
X9793095Y-15708143D01*
X9793095Y-15708143D02*
X9831191Y-15708143D01*
X9831191Y-15708143D02*
X9850238Y-15717667D01*
X9850238Y-15717667D02*
X9859762Y-15736714D01*
X9859762Y-15736714D02*
X9859762Y-15755762D01*
X9859762Y-15755762D02*
X9764524Y-15774809D01*
X9935953Y-15831952D02*
X9955000Y-15841476D01*
X9955000Y-15841476D02*
X9993095Y-15841476D01*
X9993095Y-15841476D02*
X10012143Y-15831952D01*
X10012143Y-15831952D02*
X10021667Y-15812905D01*
X10021667Y-15812905D02*
X10021667Y-15803381D01*
X10021667Y-15803381D02*
X10012143Y-15784333D01*
X10012143Y-15784333D02*
X9993095Y-15774809D01*
X9993095Y-15774809D02*
X9964524Y-15774809D01*
X9964524Y-15774809D02*
X9945476Y-15765286D01*
X9945476Y-15765286D02*
X9935953Y-15746238D01*
X9935953Y-15746238D02*
X9935953Y-15736714D01*
X9935953Y-15736714D02*
X9945476Y-15717667D01*
X9945476Y-15717667D02*
X9964524Y-15708143D01*
X9964524Y-15708143D02*
X9993095Y-15708143D01*
X9993095Y-15708143D02*
X10012143Y-15717667D01*
X10088334Y-15917667D02*
X10097857Y-15908143D01*
X10097857Y-15908143D02*
X10116905Y-15879571D01*
X10116905Y-15879571D02*
X10126429Y-15860524D01*
X10126429Y-15860524D02*
X10135953Y-15831952D01*
X10135953Y-15831952D02*
X10145476Y-15784333D01*
X10145476Y-15784333D02*
X10145476Y-15746238D01*
X10145476Y-15746238D02*
X10135953Y-15698619D01*
X10135953Y-15698619D02*
X10126429Y-15670048D01*
X10126429Y-15670048D02*
X10116905Y-15651000D01*
X10116905Y-15651000D02*
X10097857Y-15622428D01*
X10097857Y-15622428D02*
X10088334Y-15612905D01*
D14*
X5030000Y-15987000D02*
X5030000Y-16077000D01*
X4985000Y-16032000D02*
X5075000Y-16032000D01*
D11*
X5360714Y-15905476D02*
X5379762Y-15905476D01*
X5379762Y-15905476D02*
X5398810Y-15915000D01*
X5398810Y-15915000D02*
X5408333Y-15924524D01*
X5408333Y-15924524D02*
X5417857Y-15943571D01*
X5417857Y-15943571D02*
X5427381Y-15981667D01*
X5427381Y-15981667D02*
X5427381Y-16029286D01*
X5427381Y-16029286D02*
X5417857Y-16067381D01*
X5417857Y-16067381D02*
X5408333Y-16086428D01*
X5408333Y-16086428D02*
X5398810Y-16095952D01*
X5398810Y-16095952D02*
X5379762Y-16105476D01*
X5379762Y-16105476D02*
X5360714Y-16105476D01*
X5360714Y-16105476D02*
X5341667Y-16095952D01*
X5341667Y-16095952D02*
X5332143Y-16086428D01*
X5332143Y-16086428D02*
X5322619Y-16067381D01*
X5322619Y-16067381D02*
X5313095Y-16029286D01*
X5313095Y-16029286D02*
X5313095Y-15981667D01*
X5313095Y-15981667D02*
X5322619Y-15943571D01*
X5322619Y-15943571D02*
X5332143Y-15924524D01*
X5332143Y-15924524D02*
X5341667Y-15915000D01*
X5341667Y-15915000D02*
X5360714Y-15905476D01*
X5513095Y-16086428D02*
X5522619Y-16095952D01*
X5522619Y-16095952D02*
X5513095Y-16105476D01*
X5513095Y-16105476D02*
X5503571Y-16095952D01*
X5503571Y-16095952D02*
X5513095Y-16086428D01*
X5513095Y-16086428D02*
X5513095Y-16105476D01*
X5617857Y-16105476D02*
X5655952Y-16105476D01*
X5655952Y-16105476D02*
X5675000Y-16095952D01*
X5675000Y-16095952D02*
X5684524Y-16086428D01*
X5684524Y-16086428D02*
X5703571Y-16057857D01*
X5703571Y-16057857D02*
X5713095Y-16019762D01*
X5713095Y-16019762D02*
X5713095Y-15943571D01*
X5713095Y-15943571D02*
X5703571Y-15924524D01*
X5703571Y-15924524D02*
X5694048Y-15915000D01*
X5694048Y-15915000D02*
X5675000Y-15905476D01*
X5675000Y-15905476D02*
X5636905Y-15905476D01*
X5636905Y-15905476D02*
X5617857Y-15915000D01*
X5617857Y-15915000D02*
X5608333Y-15924524D01*
X5608333Y-15924524D02*
X5598809Y-15943571D01*
X5598809Y-15943571D02*
X5598809Y-15991190D01*
X5598809Y-15991190D02*
X5608333Y-16010238D01*
X5608333Y-16010238D02*
X5617857Y-16019762D01*
X5617857Y-16019762D02*
X5636905Y-16029286D01*
X5636905Y-16029286D02*
X5675000Y-16029286D01*
X5675000Y-16029286D02*
X5694048Y-16019762D01*
X5694048Y-16019762D02*
X5703571Y-16010238D01*
X5703571Y-16010238D02*
X5713095Y-15991190D01*
X5836905Y-15905476D02*
X5855952Y-15905476D01*
X5855952Y-15905476D02*
X5875000Y-15915000D01*
X5875000Y-15915000D02*
X5884524Y-15924524D01*
X5884524Y-15924524D02*
X5894048Y-15943571D01*
X5894048Y-15943571D02*
X5903571Y-15981667D01*
X5903571Y-15981667D02*
X5903571Y-16029286D01*
X5903571Y-16029286D02*
X5894048Y-16067381D01*
X5894048Y-16067381D02*
X5884524Y-16086428D01*
X5884524Y-16086428D02*
X5875000Y-16095952D01*
X5875000Y-16095952D02*
X5855952Y-16105476D01*
X5855952Y-16105476D02*
X5836905Y-16105476D01*
X5836905Y-16105476D02*
X5817857Y-16095952D01*
X5817857Y-16095952D02*
X5808333Y-16086428D01*
X5808333Y-16086428D02*
X5798809Y-16067381D01*
X5798809Y-16067381D02*
X5789286Y-16029286D01*
X5789286Y-16029286D02*
X5789286Y-15981667D01*
X5789286Y-15981667D02*
X5798809Y-15943571D01*
X5798809Y-15943571D02*
X5808333Y-15924524D01*
X5808333Y-15924524D02*
X5817857Y-15915000D01*
X5817857Y-15915000D02*
X5836905Y-15905476D01*
X6027381Y-15905476D02*
X6046429Y-15905476D01*
X6046429Y-15905476D02*
X6065476Y-15915000D01*
X6065476Y-15915000D02*
X6075000Y-15924524D01*
X6075000Y-15924524D02*
X6084524Y-15943571D01*
X6084524Y-15943571D02*
X6094048Y-15981667D01*
X6094048Y-15981667D02*
X6094048Y-16029286D01*
X6094048Y-16029286D02*
X6084524Y-16067381D01*
X6084524Y-16067381D02*
X6075000Y-16086428D01*
X6075000Y-16086428D02*
X6065476Y-16095952D01*
X6065476Y-16095952D02*
X6046429Y-16105476D01*
X6046429Y-16105476D02*
X6027381Y-16105476D01*
X6027381Y-16105476D02*
X6008333Y-16095952D01*
X6008333Y-16095952D02*
X5998809Y-16086428D01*
X5998809Y-16086428D02*
X5989286Y-16067381D01*
X5989286Y-16067381D02*
X5979762Y-16029286D01*
X5979762Y-16029286D02*
X5979762Y-15981667D01*
X5979762Y-15981667D02*
X5989286Y-15943571D01*
X5989286Y-15943571D02*
X5998809Y-15924524D01*
X5998809Y-15924524D02*
X6008333Y-15915000D01*
X6008333Y-15915000D02*
X6027381Y-15905476D01*
X6179762Y-16105476D02*
X6179762Y-15972143D01*
X6179762Y-15991190D02*
X6189286Y-15981667D01*
X6189286Y-15981667D02*
X6208333Y-15972143D01*
X6208333Y-15972143D02*
X6236905Y-15972143D01*
X6236905Y-15972143D02*
X6255952Y-15981667D01*
X6255952Y-15981667D02*
X6265476Y-16000714D01*
X6265476Y-16000714D02*
X6265476Y-16105476D01*
X6265476Y-16000714D02*
X6275000Y-15981667D01*
X6275000Y-15981667D02*
X6294048Y-15972143D01*
X6294048Y-15972143D02*
X6322619Y-15972143D01*
X6322619Y-15972143D02*
X6341667Y-15981667D01*
X6341667Y-15981667D02*
X6351190Y-16000714D01*
X6351190Y-16000714D02*
X6351190Y-16105476D01*
X6446429Y-16105476D02*
X6446429Y-15972143D01*
X6446429Y-15991190D02*
X6455952Y-15981667D01*
X6455952Y-15981667D02*
X6475000Y-15972143D01*
X6475000Y-15972143D02*
X6503571Y-15972143D01*
X6503571Y-15972143D02*
X6522619Y-15981667D01*
X6522619Y-15981667D02*
X6532143Y-16000714D01*
X6532143Y-16000714D02*
X6532143Y-16105476D01*
X6532143Y-16000714D02*
X6541667Y-15981667D01*
X6541667Y-15981667D02*
X6560714Y-15972143D01*
X6560714Y-15972143D02*
X6589286Y-15972143D01*
X6589286Y-15972143D02*
X6608333Y-15981667D01*
X6608333Y-15981667D02*
X6617857Y-16000714D01*
X6617857Y-16000714D02*
X6617857Y-16105476D01*
X6975952Y-15895952D02*
X6804524Y-16153095D01*
X7200714Y-15905476D02*
X7219762Y-15905476D01*
X7219762Y-15905476D02*
X7238810Y-15915000D01*
X7238810Y-15915000D02*
X7248333Y-15924524D01*
X7248333Y-15924524D02*
X7257857Y-15943571D01*
X7257857Y-15943571D02*
X7267381Y-15981667D01*
X7267381Y-15981667D02*
X7267381Y-16029286D01*
X7267381Y-16029286D02*
X7257857Y-16067381D01*
X7257857Y-16067381D02*
X7248333Y-16086428D01*
X7248333Y-16086428D02*
X7238810Y-16095952D01*
X7238810Y-16095952D02*
X7219762Y-16105476D01*
X7219762Y-16105476D02*
X7200714Y-16105476D01*
X7200714Y-16105476D02*
X7181667Y-16095952D01*
X7181667Y-16095952D02*
X7172143Y-16086428D01*
X7172143Y-16086428D02*
X7162619Y-16067381D01*
X7162619Y-16067381D02*
X7153095Y-16029286D01*
X7153095Y-16029286D02*
X7153095Y-15981667D01*
X7153095Y-15981667D02*
X7162619Y-15943571D01*
X7162619Y-15943571D02*
X7172143Y-15924524D01*
X7172143Y-15924524D02*
X7181667Y-15915000D01*
X7181667Y-15915000D02*
X7200714Y-15905476D01*
X7353095Y-16086428D02*
X7362619Y-16095952D01*
X7362619Y-16095952D02*
X7353095Y-16105476D01*
X7353095Y-16105476D02*
X7343571Y-16095952D01*
X7343571Y-16095952D02*
X7353095Y-16086428D01*
X7353095Y-16086428D02*
X7353095Y-16105476D01*
X7486429Y-15905476D02*
X7505476Y-15905476D01*
X7505476Y-15905476D02*
X7524524Y-15915000D01*
X7524524Y-15915000D02*
X7534048Y-15924524D01*
X7534048Y-15924524D02*
X7543571Y-15943571D01*
X7543571Y-15943571D02*
X7553095Y-15981667D01*
X7553095Y-15981667D02*
X7553095Y-16029286D01*
X7553095Y-16029286D02*
X7543571Y-16067381D01*
X7543571Y-16067381D02*
X7534048Y-16086428D01*
X7534048Y-16086428D02*
X7524524Y-16095952D01*
X7524524Y-16095952D02*
X7505476Y-16105476D01*
X7505476Y-16105476D02*
X7486429Y-16105476D01*
X7486429Y-16105476D02*
X7467381Y-16095952D01*
X7467381Y-16095952D02*
X7457857Y-16086428D01*
X7457857Y-16086428D02*
X7448333Y-16067381D01*
X7448333Y-16067381D02*
X7438810Y-16029286D01*
X7438810Y-16029286D02*
X7438810Y-15981667D01*
X7438810Y-15981667D02*
X7448333Y-15943571D01*
X7448333Y-15943571D02*
X7457857Y-15924524D01*
X7457857Y-15924524D02*
X7467381Y-15915000D01*
X7467381Y-15915000D02*
X7486429Y-15905476D01*
X7619762Y-15905476D02*
X7743571Y-15905476D01*
X7743571Y-15905476D02*
X7676905Y-15981667D01*
X7676905Y-15981667D02*
X7705476Y-15981667D01*
X7705476Y-15981667D02*
X7724524Y-15991190D01*
X7724524Y-15991190D02*
X7734048Y-16000714D01*
X7734048Y-16000714D02*
X7743571Y-16019762D01*
X7743571Y-16019762D02*
X7743571Y-16067381D01*
X7743571Y-16067381D02*
X7734048Y-16086428D01*
X7734048Y-16086428D02*
X7724524Y-16095952D01*
X7724524Y-16095952D02*
X7705476Y-16105476D01*
X7705476Y-16105476D02*
X7648333Y-16105476D01*
X7648333Y-16105476D02*
X7629286Y-16095952D01*
X7629286Y-16095952D02*
X7619762Y-16086428D01*
X7924524Y-15905476D02*
X7829286Y-15905476D01*
X7829286Y-15905476D02*
X7819762Y-16000714D01*
X7819762Y-16000714D02*
X7829286Y-15991190D01*
X7829286Y-15991190D02*
X7848333Y-15981667D01*
X7848333Y-15981667D02*
X7895952Y-15981667D01*
X7895952Y-15981667D02*
X7915000Y-15991190D01*
X7915000Y-15991190D02*
X7924524Y-16000714D01*
X7924524Y-16000714D02*
X7934048Y-16019762D01*
X7934048Y-16019762D02*
X7934048Y-16067381D01*
X7934048Y-16067381D02*
X7924524Y-16086428D01*
X7924524Y-16086428D02*
X7915000Y-16095952D01*
X7915000Y-16095952D02*
X7895952Y-16105476D01*
X7895952Y-16105476D02*
X7848333Y-16105476D01*
X7848333Y-16105476D02*
X7829286Y-16095952D01*
X7829286Y-16095952D02*
X7819762Y-16086428D01*
X8105476Y-15972143D02*
X8105476Y-16105476D01*
X8057857Y-15895952D02*
X8010238Y-16038809D01*
X8010238Y-16038809D02*
X8134048Y-16038809D01*
X8200714Y-15905476D02*
X8200714Y-15943571D01*
X8276905Y-15905476D02*
X8276905Y-15943571D01*
X8539762Y-16181667D02*
X8530238Y-16172143D01*
X8530238Y-16172143D02*
X8511191Y-16143571D01*
X8511191Y-16143571D02*
X8501667Y-16124524D01*
X8501667Y-16124524D02*
X8492143Y-16095952D01*
X8492143Y-16095952D02*
X8482619Y-16048333D01*
X8482619Y-16048333D02*
X8482619Y-16010238D01*
X8482619Y-16010238D02*
X8492143Y-15962619D01*
X8492143Y-15962619D02*
X8501667Y-15934048D01*
X8501667Y-15934048D02*
X8511191Y-15915000D01*
X8511191Y-15915000D02*
X8530238Y-15886428D01*
X8530238Y-15886428D02*
X8539762Y-15876905D01*
X8701667Y-15905476D02*
X8663572Y-15905476D01*
X8663572Y-15905476D02*
X8644524Y-15915000D01*
X8644524Y-15915000D02*
X8635000Y-15924524D01*
X8635000Y-15924524D02*
X8615953Y-15953095D01*
X8615953Y-15953095D02*
X8606429Y-15991190D01*
X8606429Y-15991190D02*
X8606429Y-16067381D01*
X8606429Y-16067381D02*
X8615953Y-16086428D01*
X8615953Y-16086428D02*
X8625476Y-16095952D01*
X8625476Y-16095952D02*
X8644524Y-16105476D01*
X8644524Y-16105476D02*
X8682619Y-16105476D01*
X8682619Y-16105476D02*
X8701667Y-16095952D01*
X8701667Y-16095952D02*
X8711191Y-16086428D01*
X8711191Y-16086428D02*
X8720714Y-16067381D01*
X8720714Y-16067381D02*
X8720714Y-16019762D01*
X8720714Y-16019762D02*
X8711191Y-16000714D01*
X8711191Y-16000714D02*
X8701667Y-15991190D01*
X8701667Y-15991190D02*
X8682619Y-15981667D01*
X8682619Y-15981667D02*
X8644524Y-15981667D01*
X8644524Y-15981667D02*
X8625476Y-15991190D01*
X8625476Y-15991190D02*
X8615953Y-16000714D01*
X8615953Y-16000714D02*
X8606429Y-16019762D01*
X8892143Y-15972143D02*
X8892143Y-16105476D01*
X8844524Y-15895952D02*
X8796905Y-16038809D01*
X8796905Y-16038809D02*
X8920714Y-16038809D01*
X9116905Y-16105476D02*
X9116905Y-15905476D01*
X9202619Y-16105476D02*
X9202619Y-16000714D01*
X9202619Y-16000714D02*
X9193095Y-15981667D01*
X9193095Y-15981667D02*
X9174048Y-15972143D01*
X9174048Y-15972143D02*
X9145476Y-15972143D01*
X9145476Y-15972143D02*
X9126429Y-15981667D01*
X9126429Y-15981667D02*
X9116905Y-15991190D01*
X9326429Y-16105476D02*
X9307381Y-16095952D01*
X9307381Y-16095952D02*
X9297857Y-16086428D01*
X9297857Y-16086428D02*
X9288334Y-16067381D01*
X9288334Y-16067381D02*
X9288334Y-16010238D01*
X9288334Y-16010238D02*
X9297857Y-15991190D01*
X9297857Y-15991190D02*
X9307381Y-15981667D01*
X9307381Y-15981667D02*
X9326429Y-15972143D01*
X9326429Y-15972143D02*
X9355000Y-15972143D01*
X9355000Y-15972143D02*
X9374048Y-15981667D01*
X9374048Y-15981667D02*
X9383572Y-15991190D01*
X9383572Y-15991190D02*
X9393095Y-16010238D01*
X9393095Y-16010238D02*
X9393095Y-16067381D01*
X9393095Y-16067381D02*
X9383572Y-16086428D01*
X9383572Y-16086428D02*
X9374048Y-16095952D01*
X9374048Y-16095952D02*
X9355000Y-16105476D01*
X9355000Y-16105476D02*
X9326429Y-16105476D01*
X9507381Y-16105476D02*
X9488334Y-16095952D01*
X9488334Y-16095952D02*
X9478810Y-16076905D01*
X9478810Y-16076905D02*
X9478810Y-15905476D01*
X9659762Y-16095952D02*
X9640715Y-16105476D01*
X9640715Y-16105476D02*
X9602619Y-16105476D01*
X9602619Y-16105476D02*
X9583572Y-16095952D01*
X9583572Y-16095952D02*
X9574048Y-16076905D01*
X9574048Y-16076905D02*
X9574048Y-16000714D01*
X9574048Y-16000714D02*
X9583572Y-15981667D01*
X9583572Y-15981667D02*
X9602619Y-15972143D01*
X9602619Y-15972143D02*
X9640715Y-15972143D01*
X9640715Y-15972143D02*
X9659762Y-15981667D01*
X9659762Y-15981667D02*
X9669286Y-16000714D01*
X9669286Y-16000714D02*
X9669286Y-16019762D01*
X9669286Y-16019762D02*
X9574048Y-16038809D01*
X9745476Y-16095952D02*
X9764524Y-16105476D01*
X9764524Y-16105476D02*
X9802619Y-16105476D01*
X9802619Y-16105476D02*
X9821667Y-16095952D01*
X9821667Y-16095952D02*
X9831191Y-16076905D01*
X9831191Y-16076905D02*
X9831191Y-16067381D01*
X9831191Y-16067381D02*
X9821667Y-16048333D01*
X9821667Y-16048333D02*
X9802619Y-16038809D01*
X9802619Y-16038809D02*
X9774048Y-16038809D01*
X9774048Y-16038809D02*
X9755000Y-16029286D01*
X9755000Y-16029286D02*
X9745476Y-16010238D01*
X9745476Y-16010238D02*
X9745476Y-16000714D01*
X9745476Y-16000714D02*
X9755000Y-15981667D01*
X9755000Y-15981667D02*
X9774048Y-15972143D01*
X9774048Y-15972143D02*
X9802619Y-15972143D01*
X9802619Y-15972143D02*
X9821667Y-15981667D01*
X9897857Y-16181667D02*
X9907381Y-16172143D01*
X9907381Y-16172143D02*
X9926429Y-16143571D01*
X9926429Y-16143571D02*
X9935953Y-16124524D01*
X9935953Y-16124524D02*
X9945476Y-16095952D01*
X9945476Y-16095952D02*
X9955000Y-16048333D01*
X9955000Y-16048333D02*
X9955000Y-16010238D01*
X9955000Y-16010238D02*
X9945476Y-15962619D01*
X9945476Y-15962619D02*
X9935953Y-15934048D01*
X9935953Y-15934048D02*
X9926429Y-15915000D01*
X9926429Y-15915000D02*
X9907381Y-15886428D01*
X9907381Y-15886428D02*
X9897857Y-15876905D01*
D10*
X5060356Y-16331356D02*
X5060356Y-16260644D01*
X4989644Y-16260644D01*
X4989644Y-16331356D01*
X5060356Y-16331356D01*
D11*
X5427381Y-16369476D02*
X5313095Y-16369476D01*
X5370238Y-16369476D02*
X5370238Y-16169476D01*
X5370238Y-16169476D02*
X5351190Y-16198048D01*
X5351190Y-16198048D02*
X5332143Y-16217095D01*
X5332143Y-16217095D02*
X5313095Y-16226619D01*
X5513095Y-16350428D02*
X5522619Y-16359952D01*
X5522619Y-16359952D02*
X5513095Y-16369476D01*
X5513095Y-16369476D02*
X5503571Y-16359952D01*
X5503571Y-16359952D02*
X5513095Y-16350428D01*
X5513095Y-16350428D02*
X5513095Y-16369476D01*
X5646428Y-16169476D02*
X5665476Y-16169476D01*
X5665476Y-16169476D02*
X5684524Y-16179000D01*
X5684524Y-16179000D02*
X5694048Y-16188524D01*
X5694048Y-16188524D02*
X5703571Y-16207571D01*
X5703571Y-16207571D02*
X5713095Y-16245667D01*
X5713095Y-16245667D02*
X5713095Y-16293286D01*
X5713095Y-16293286D02*
X5703571Y-16331381D01*
X5703571Y-16331381D02*
X5694048Y-16350428D01*
X5694048Y-16350428D02*
X5684524Y-16359952D01*
X5684524Y-16359952D02*
X5665476Y-16369476D01*
X5665476Y-16369476D02*
X5646428Y-16369476D01*
X5646428Y-16369476D02*
X5627381Y-16359952D01*
X5627381Y-16359952D02*
X5617857Y-16350428D01*
X5617857Y-16350428D02*
X5608333Y-16331381D01*
X5608333Y-16331381D02*
X5598809Y-16293286D01*
X5598809Y-16293286D02*
X5598809Y-16245667D01*
X5598809Y-16245667D02*
X5608333Y-16207571D01*
X5608333Y-16207571D02*
X5617857Y-16188524D01*
X5617857Y-16188524D02*
X5627381Y-16179000D01*
X5627381Y-16179000D02*
X5646428Y-16169476D01*
X5836905Y-16169476D02*
X5855952Y-16169476D01*
X5855952Y-16169476D02*
X5875000Y-16179000D01*
X5875000Y-16179000D02*
X5884524Y-16188524D01*
X5884524Y-16188524D02*
X5894048Y-16207571D01*
X5894048Y-16207571D02*
X5903571Y-16245667D01*
X5903571Y-16245667D02*
X5903571Y-16293286D01*
X5903571Y-16293286D02*
X5894048Y-16331381D01*
X5894048Y-16331381D02*
X5884524Y-16350428D01*
X5884524Y-16350428D02*
X5875000Y-16359952D01*
X5875000Y-16359952D02*
X5855952Y-16369476D01*
X5855952Y-16369476D02*
X5836905Y-16369476D01*
X5836905Y-16369476D02*
X5817857Y-16359952D01*
X5817857Y-16359952D02*
X5808333Y-16350428D01*
X5808333Y-16350428D02*
X5798809Y-16331381D01*
X5798809Y-16331381D02*
X5789286Y-16293286D01*
X5789286Y-16293286D02*
X5789286Y-16245667D01*
X5789286Y-16245667D02*
X5798809Y-16207571D01*
X5798809Y-16207571D02*
X5808333Y-16188524D01*
X5808333Y-16188524D02*
X5817857Y-16179000D01*
X5817857Y-16179000D02*
X5836905Y-16169476D01*
X6027381Y-16169476D02*
X6046429Y-16169476D01*
X6046429Y-16169476D02*
X6065476Y-16179000D01*
X6065476Y-16179000D02*
X6075000Y-16188524D01*
X6075000Y-16188524D02*
X6084524Y-16207571D01*
X6084524Y-16207571D02*
X6094048Y-16245667D01*
X6094048Y-16245667D02*
X6094048Y-16293286D01*
X6094048Y-16293286D02*
X6084524Y-16331381D01*
X6084524Y-16331381D02*
X6075000Y-16350428D01*
X6075000Y-16350428D02*
X6065476Y-16359952D01*
X6065476Y-16359952D02*
X6046429Y-16369476D01*
X6046429Y-16369476D02*
X6027381Y-16369476D01*
X6027381Y-16369476D02*
X6008333Y-16359952D01*
X6008333Y-16359952D02*
X5998809Y-16350428D01*
X5998809Y-16350428D02*
X5989286Y-16331381D01*
X5989286Y-16331381D02*
X5979762Y-16293286D01*
X5979762Y-16293286D02*
X5979762Y-16245667D01*
X5979762Y-16245667D02*
X5989286Y-16207571D01*
X5989286Y-16207571D02*
X5998809Y-16188524D01*
X5998809Y-16188524D02*
X6008333Y-16179000D01*
X6008333Y-16179000D02*
X6027381Y-16169476D01*
X6179762Y-16369476D02*
X6179762Y-16236143D01*
X6179762Y-16255190D02*
X6189286Y-16245667D01*
X6189286Y-16245667D02*
X6208333Y-16236143D01*
X6208333Y-16236143D02*
X6236905Y-16236143D01*
X6236905Y-16236143D02*
X6255952Y-16245667D01*
X6255952Y-16245667D02*
X6265476Y-16264714D01*
X6265476Y-16264714D02*
X6265476Y-16369476D01*
X6265476Y-16264714D02*
X6275000Y-16245667D01*
X6275000Y-16245667D02*
X6294048Y-16236143D01*
X6294048Y-16236143D02*
X6322619Y-16236143D01*
X6322619Y-16236143D02*
X6341667Y-16245667D01*
X6341667Y-16245667D02*
X6351190Y-16264714D01*
X6351190Y-16264714D02*
X6351190Y-16369476D01*
X6446429Y-16369476D02*
X6446429Y-16236143D01*
X6446429Y-16255190D02*
X6455952Y-16245667D01*
X6455952Y-16245667D02*
X6475000Y-16236143D01*
X6475000Y-16236143D02*
X6503571Y-16236143D01*
X6503571Y-16236143D02*
X6522619Y-16245667D01*
X6522619Y-16245667D02*
X6532143Y-16264714D01*
X6532143Y-16264714D02*
X6532143Y-16369476D01*
X6532143Y-16264714D02*
X6541667Y-16245667D01*
X6541667Y-16245667D02*
X6560714Y-16236143D01*
X6560714Y-16236143D02*
X6589286Y-16236143D01*
X6589286Y-16236143D02*
X6608333Y-16245667D01*
X6608333Y-16245667D02*
X6617857Y-16264714D01*
X6617857Y-16264714D02*
X6617857Y-16369476D01*
X6975952Y-16159952D02*
X6804524Y-16417095D01*
X7200714Y-16169476D02*
X7219762Y-16169476D01*
X7219762Y-16169476D02*
X7238810Y-16179000D01*
X7238810Y-16179000D02*
X7248333Y-16188524D01*
X7248333Y-16188524D02*
X7257857Y-16207571D01*
X7257857Y-16207571D02*
X7267381Y-16245667D01*
X7267381Y-16245667D02*
X7267381Y-16293286D01*
X7267381Y-16293286D02*
X7257857Y-16331381D01*
X7257857Y-16331381D02*
X7248333Y-16350428D01*
X7248333Y-16350428D02*
X7238810Y-16359952D01*
X7238810Y-16359952D02*
X7219762Y-16369476D01*
X7219762Y-16369476D02*
X7200714Y-16369476D01*
X7200714Y-16369476D02*
X7181667Y-16359952D01*
X7181667Y-16359952D02*
X7172143Y-16350428D01*
X7172143Y-16350428D02*
X7162619Y-16331381D01*
X7162619Y-16331381D02*
X7153095Y-16293286D01*
X7153095Y-16293286D02*
X7153095Y-16245667D01*
X7153095Y-16245667D02*
X7162619Y-16207571D01*
X7162619Y-16207571D02*
X7172143Y-16188524D01*
X7172143Y-16188524D02*
X7181667Y-16179000D01*
X7181667Y-16179000D02*
X7200714Y-16169476D01*
X7353095Y-16350428D02*
X7362619Y-16359952D01*
X7362619Y-16359952D02*
X7353095Y-16369476D01*
X7353095Y-16369476D02*
X7343571Y-16359952D01*
X7343571Y-16359952D02*
X7353095Y-16350428D01*
X7353095Y-16350428D02*
X7353095Y-16369476D01*
X7486429Y-16169476D02*
X7505476Y-16169476D01*
X7505476Y-16169476D02*
X7524524Y-16179000D01*
X7524524Y-16179000D02*
X7534048Y-16188524D01*
X7534048Y-16188524D02*
X7543571Y-16207571D01*
X7543571Y-16207571D02*
X7553095Y-16245667D01*
X7553095Y-16245667D02*
X7553095Y-16293286D01*
X7553095Y-16293286D02*
X7543571Y-16331381D01*
X7543571Y-16331381D02*
X7534048Y-16350428D01*
X7534048Y-16350428D02*
X7524524Y-16359952D01*
X7524524Y-16359952D02*
X7505476Y-16369476D01*
X7505476Y-16369476D02*
X7486429Y-16369476D01*
X7486429Y-16369476D02*
X7467381Y-16359952D01*
X7467381Y-16359952D02*
X7457857Y-16350428D01*
X7457857Y-16350428D02*
X7448333Y-16331381D01*
X7448333Y-16331381D02*
X7438810Y-16293286D01*
X7438810Y-16293286D02*
X7438810Y-16245667D01*
X7438810Y-16245667D02*
X7448333Y-16207571D01*
X7448333Y-16207571D02*
X7457857Y-16188524D01*
X7457857Y-16188524D02*
X7467381Y-16179000D01*
X7467381Y-16179000D02*
X7486429Y-16169476D01*
X7619762Y-16169476D02*
X7743571Y-16169476D01*
X7743571Y-16169476D02*
X7676905Y-16245667D01*
X7676905Y-16245667D02*
X7705476Y-16245667D01*
X7705476Y-16245667D02*
X7724524Y-16255190D01*
X7724524Y-16255190D02*
X7734048Y-16264714D01*
X7734048Y-16264714D02*
X7743571Y-16283762D01*
X7743571Y-16283762D02*
X7743571Y-16331381D01*
X7743571Y-16331381D02*
X7734048Y-16350428D01*
X7734048Y-16350428D02*
X7724524Y-16359952D01*
X7724524Y-16359952D02*
X7705476Y-16369476D01*
X7705476Y-16369476D02*
X7648333Y-16369476D01*
X7648333Y-16369476D02*
X7629286Y-16359952D01*
X7629286Y-16359952D02*
X7619762Y-16350428D01*
X7838810Y-16369476D02*
X7876905Y-16369476D01*
X7876905Y-16369476D02*
X7895952Y-16359952D01*
X7895952Y-16359952D02*
X7905476Y-16350428D01*
X7905476Y-16350428D02*
X7924524Y-16321857D01*
X7924524Y-16321857D02*
X7934048Y-16283762D01*
X7934048Y-16283762D02*
X7934048Y-16207571D01*
X7934048Y-16207571D02*
X7924524Y-16188524D01*
X7924524Y-16188524D02*
X7915000Y-16179000D01*
X7915000Y-16179000D02*
X7895952Y-16169476D01*
X7895952Y-16169476D02*
X7857857Y-16169476D01*
X7857857Y-16169476D02*
X7838810Y-16179000D01*
X7838810Y-16179000D02*
X7829286Y-16188524D01*
X7829286Y-16188524D02*
X7819762Y-16207571D01*
X7819762Y-16207571D02*
X7819762Y-16255190D01*
X7819762Y-16255190D02*
X7829286Y-16274238D01*
X7829286Y-16274238D02*
X7838810Y-16283762D01*
X7838810Y-16283762D02*
X7857857Y-16293286D01*
X7857857Y-16293286D02*
X7895952Y-16293286D01*
X7895952Y-16293286D02*
X7915000Y-16283762D01*
X7915000Y-16283762D02*
X7924524Y-16274238D01*
X7924524Y-16274238D02*
X7934048Y-16255190D01*
X8105476Y-16236143D02*
X8105476Y-16369476D01*
X8057857Y-16159952D02*
X8010238Y-16302809D01*
X8010238Y-16302809D02*
X8134048Y-16302809D01*
X8200714Y-16169476D02*
X8200714Y-16207571D01*
X8276905Y-16169476D02*
X8276905Y-16207571D01*
X8539762Y-16445667D02*
X8530238Y-16436143D01*
X8530238Y-16436143D02*
X8511191Y-16407571D01*
X8511191Y-16407571D02*
X8501667Y-16388524D01*
X8501667Y-16388524D02*
X8492143Y-16359952D01*
X8492143Y-16359952D02*
X8482619Y-16312333D01*
X8482619Y-16312333D02*
X8482619Y-16274238D01*
X8482619Y-16274238D02*
X8492143Y-16226619D01*
X8492143Y-16226619D02*
X8501667Y-16198048D01*
X8501667Y-16198048D02*
X8511191Y-16179000D01*
X8511191Y-16179000D02*
X8530238Y-16150428D01*
X8530238Y-16150428D02*
X8539762Y-16140905D01*
X8720714Y-16369476D02*
X8606429Y-16369476D01*
X8663572Y-16369476D02*
X8663572Y-16169476D01*
X8663572Y-16169476D02*
X8644524Y-16198048D01*
X8644524Y-16198048D02*
X8625476Y-16217095D01*
X8625476Y-16217095D02*
X8606429Y-16226619D01*
X8787381Y-16169476D02*
X8911191Y-16169476D01*
X8911191Y-16169476D02*
X8844524Y-16245667D01*
X8844524Y-16245667D02*
X8873095Y-16245667D01*
X8873095Y-16245667D02*
X8892143Y-16255190D01*
X8892143Y-16255190D02*
X8901667Y-16264714D01*
X8901667Y-16264714D02*
X8911191Y-16283762D01*
X8911191Y-16283762D02*
X8911191Y-16331381D01*
X8911191Y-16331381D02*
X8901667Y-16350428D01*
X8901667Y-16350428D02*
X8892143Y-16359952D01*
X8892143Y-16359952D02*
X8873095Y-16369476D01*
X8873095Y-16369476D02*
X8815953Y-16369476D01*
X8815953Y-16369476D02*
X8796905Y-16359952D01*
X8796905Y-16359952D02*
X8787381Y-16350428D01*
X9101667Y-16369476D02*
X8987381Y-16369476D01*
X9044524Y-16369476D02*
X9044524Y-16169476D01*
X9044524Y-16169476D02*
X9025476Y-16198048D01*
X9025476Y-16198048D02*
X9006429Y-16217095D01*
X9006429Y-16217095D02*
X8987381Y-16226619D01*
X9307381Y-16369476D02*
X9307381Y-16169476D01*
X9393095Y-16369476D02*
X9393095Y-16264714D01*
X9393095Y-16264714D02*
X9383572Y-16245667D01*
X9383572Y-16245667D02*
X9364524Y-16236143D01*
X9364524Y-16236143D02*
X9335953Y-16236143D01*
X9335953Y-16236143D02*
X9316905Y-16245667D01*
X9316905Y-16245667D02*
X9307381Y-16255190D01*
X9516905Y-16369476D02*
X9497857Y-16359952D01*
X9497857Y-16359952D02*
X9488334Y-16350428D01*
X9488334Y-16350428D02*
X9478810Y-16331381D01*
X9478810Y-16331381D02*
X9478810Y-16274238D01*
X9478810Y-16274238D02*
X9488334Y-16255190D01*
X9488334Y-16255190D02*
X9497857Y-16245667D01*
X9497857Y-16245667D02*
X9516905Y-16236143D01*
X9516905Y-16236143D02*
X9545476Y-16236143D01*
X9545476Y-16236143D02*
X9564524Y-16245667D01*
X9564524Y-16245667D02*
X9574048Y-16255190D01*
X9574048Y-16255190D02*
X9583572Y-16274238D01*
X9583572Y-16274238D02*
X9583572Y-16331381D01*
X9583572Y-16331381D02*
X9574048Y-16350428D01*
X9574048Y-16350428D02*
X9564524Y-16359952D01*
X9564524Y-16359952D02*
X9545476Y-16369476D01*
X9545476Y-16369476D02*
X9516905Y-16369476D01*
X9697857Y-16369476D02*
X9678810Y-16359952D01*
X9678810Y-16359952D02*
X9669286Y-16340905D01*
X9669286Y-16340905D02*
X9669286Y-16169476D01*
X9850238Y-16359952D02*
X9831191Y-16369476D01*
X9831191Y-16369476D02*
X9793095Y-16369476D01*
X9793095Y-16369476D02*
X9774048Y-16359952D01*
X9774048Y-16359952D02*
X9764524Y-16340905D01*
X9764524Y-16340905D02*
X9764524Y-16264714D01*
X9764524Y-16264714D02*
X9774048Y-16245667D01*
X9774048Y-16245667D02*
X9793095Y-16236143D01*
X9793095Y-16236143D02*
X9831191Y-16236143D01*
X9831191Y-16236143D02*
X9850238Y-16245667D01*
X9850238Y-16245667D02*
X9859762Y-16264714D01*
X9859762Y-16264714D02*
X9859762Y-16283762D01*
X9859762Y-16283762D02*
X9764524Y-16302809D01*
X9935953Y-16359952D02*
X9955000Y-16369476D01*
X9955000Y-16369476D02*
X9993095Y-16369476D01*
X9993095Y-16369476D02*
X10012143Y-16359952D01*
X10012143Y-16359952D02*
X10021667Y-16340905D01*
X10021667Y-16340905D02*
X10021667Y-16331381D01*
X10021667Y-16331381D02*
X10012143Y-16312333D01*
X10012143Y-16312333D02*
X9993095Y-16302809D01*
X9993095Y-16302809D02*
X9964524Y-16302809D01*
X9964524Y-16302809D02*
X9945476Y-16293286D01*
X9945476Y-16293286D02*
X9935953Y-16274238D01*
X9935953Y-16274238D02*
X9935953Y-16264714D01*
X9935953Y-16264714D02*
X9945476Y-16245667D01*
X9945476Y-16245667D02*
X9964524Y-16236143D01*
X9964524Y-16236143D02*
X9993095Y-16236143D01*
X9993095Y-16236143D02*
X10012143Y-16245667D01*
X10088334Y-16445667D02*
X10097857Y-16436143D01*
X10097857Y-16436143D02*
X10116905Y-16407571D01*
X10116905Y-16407571D02*
X10126429Y-16388524D01*
X10126429Y-16388524D02*
X10135953Y-16359952D01*
X10135953Y-16359952D02*
X10145476Y-16312333D01*
X10145476Y-16312333D02*
X10145476Y-16274238D01*
X10145476Y-16274238D02*
X10135953Y-16226619D01*
X10135953Y-16226619D02*
X10126429Y-16198048D01*
X10126429Y-16198048D02*
X10116905Y-16179000D01*
X10116905Y-16179000D02*
X10097857Y-16150428D01*
X10097857Y-16150428D02*
X10088334Y-16140905D01*
M02*
