G04 #@! TF.GenerationSoftware,KiCad,Pcbnew,(5.1.5)-3*
G04 #@! TF.CreationDate,2020-11-29T18:51:24-08:00*
G04 #@! TF.ProjectId,alu_res_flags,616c755f-7265-4735-9f66-6c6167732e6b,rev?*
G04 #@! TF.SameCoordinates,Original*
G04 #@! TF.FileFunction,Copper,L1,Top*
G04 #@! TF.FilePolarity,Positive*
%FSLAX46Y46*%
G04 Gerber Fmt 4.6, Leading zero omitted, Abs format (unit mm)*
G04 Created by KiCad (PCBNEW (5.1.5)-3) date 2020-11-29 18:51:24*
%MOMM*%
%LPD*%
G04 APERTURE LIST*
%ADD10C,1.600000*%
%ADD11R,1.600000X1.600000*%
%ADD12O,1.700000X1.700000*%
%ADD13R,1.700000X1.700000*%
%ADD14O,1.600000X1.600000*%
%ADD15C,1.800000*%
%ADD16R,1.800000X1.800000*%
%ADD17C,0.762000*%
%ADD18C,0.762000*%
%ADD19C,0.254000*%
G04 APERTURE END LIST*
D10*
X228600000Y-121960000D03*
D11*
X228600000Y-124460000D03*
D10*
X215900000Y-99020000D03*
D11*
X215900000Y-96520000D03*
D12*
X172720000Y-149860000D03*
X175260000Y-149860000D03*
X177800000Y-149860000D03*
X180340000Y-149860000D03*
X182880000Y-149860000D03*
X185420000Y-149860000D03*
X187960000Y-149860000D03*
X190500000Y-149860000D03*
X193040000Y-149860000D03*
X195580000Y-149860000D03*
X198120000Y-149860000D03*
X200660000Y-149860000D03*
X203200000Y-149860000D03*
X205740000Y-149860000D03*
X208280000Y-149860000D03*
X210820000Y-149860000D03*
X213360000Y-149860000D03*
X215900000Y-149860000D03*
X218440000Y-149860000D03*
X220980000Y-149860000D03*
X223520000Y-149860000D03*
X226060000Y-149860000D03*
X228600000Y-149860000D03*
X231140000Y-149860000D03*
X233680000Y-149860000D03*
X236220000Y-149860000D03*
X238760000Y-149860000D03*
X241300000Y-149860000D03*
X243840000Y-149860000D03*
X246380000Y-149860000D03*
X248920000Y-149860000D03*
D13*
X251460000Y-149860000D03*
X147320000Y-149860000D03*
D12*
X144780000Y-149860000D03*
X142240000Y-149860000D03*
X139700000Y-149860000D03*
X137160000Y-149860000D03*
X134620000Y-149860000D03*
X132080000Y-149860000D03*
X129540000Y-149860000D03*
X127000000Y-149860000D03*
X124460000Y-149860000D03*
X121920000Y-149860000D03*
X119380000Y-149860000D03*
X116840000Y-149860000D03*
X114300000Y-149860000D03*
X111760000Y-149860000D03*
X109220000Y-149860000D03*
D13*
X96520000Y-149860000D03*
D12*
X93980000Y-149860000D03*
X91440000Y-149860000D03*
X88900000Y-149860000D03*
X86360000Y-149860000D03*
X83820000Y-149860000D03*
X81280000Y-149860000D03*
X78740000Y-149860000D03*
X76200000Y-149860000D03*
X73660000Y-149860000D03*
D10*
X68032000Y-134112000D03*
D11*
X65532000Y-134112000D03*
D12*
X105410000Y-66040000D03*
X107950000Y-66040000D03*
X110490000Y-66040000D03*
X113030000Y-66040000D03*
X115570000Y-66040000D03*
X118110000Y-66040000D03*
X120650000Y-66040000D03*
X123190000Y-66040000D03*
X125730000Y-66040000D03*
X128270000Y-66040000D03*
X130810000Y-66040000D03*
X133350000Y-66040000D03*
X135890000Y-66040000D03*
X138430000Y-66040000D03*
X140970000Y-66040000D03*
X143510000Y-66040000D03*
X146050000Y-66040000D03*
D13*
X148590000Y-66040000D03*
D14*
X208280000Y-129540000D03*
X223520000Y-137160000D03*
X210820000Y-129540000D03*
X220980000Y-137160000D03*
X213360000Y-129540000D03*
X218440000Y-137160000D03*
X215900000Y-129540000D03*
X215900000Y-137160000D03*
X218440000Y-129540000D03*
X213360000Y-137160000D03*
X220980000Y-129540000D03*
X210820000Y-137160000D03*
X223520000Y-129540000D03*
D11*
X208280000Y-137160000D03*
D14*
X58420000Y-81280000D03*
X81280000Y-88900000D03*
X60960000Y-81280000D03*
X78740000Y-88900000D03*
X63500000Y-81280000D03*
X76200000Y-88900000D03*
X66040000Y-81280000D03*
X73660000Y-88900000D03*
X68580000Y-81280000D03*
X71120000Y-88900000D03*
X71120000Y-81280000D03*
X68580000Y-88900000D03*
X73660000Y-81280000D03*
X66040000Y-88900000D03*
X76200000Y-81280000D03*
X63500000Y-88900000D03*
X78740000Y-81280000D03*
X60960000Y-88900000D03*
X81280000Y-81280000D03*
D11*
X58420000Y-88900000D03*
D14*
X68580000Y-104140000D03*
X86360000Y-111760000D03*
X71120000Y-104140000D03*
X83820000Y-111760000D03*
X73660000Y-104140000D03*
X81280000Y-111760000D03*
X76200000Y-104140000D03*
X78740000Y-111760000D03*
X78740000Y-104140000D03*
X76200000Y-111760000D03*
X81280000Y-104140000D03*
X73660000Y-111760000D03*
X83820000Y-104140000D03*
X71120000Y-111760000D03*
X86360000Y-104140000D03*
D11*
X68580000Y-111760000D03*
D14*
X220980000Y-81280000D03*
X243840000Y-88900000D03*
X223520000Y-81280000D03*
X241300000Y-88900000D03*
X226060000Y-81280000D03*
X238760000Y-88900000D03*
X228600000Y-81280000D03*
X236220000Y-88900000D03*
X231140000Y-81280000D03*
X233680000Y-88900000D03*
X233680000Y-81280000D03*
X231140000Y-88900000D03*
X236220000Y-81280000D03*
X228600000Y-88900000D03*
X238760000Y-81280000D03*
X226060000Y-88900000D03*
X241300000Y-81280000D03*
X223520000Y-88900000D03*
X243840000Y-81280000D03*
D11*
X220980000Y-88900000D03*
D14*
X177800000Y-81280000D03*
X200660000Y-88900000D03*
X180340000Y-81280000D03*
X198120000Y-88900000D03*
X182880000Y-81280000D03*
X195580000Y-88900000D03*
X185420000Y-81280000D03*
X193040000Y-88900000D03*
X187960000Y-81280000D03*
X190500000Y-88900000D03*
X190500000Y-81280000D03*
X187960000Y-88900000D03*
X193040000Y-81280000D03*
X185420000Y-88900000D03*
X195580000Y-81280000D03*
X182880000Y-88900000D03*
X198120000Y-81280000D03*
X180340000Y-88900000D03*
X200660000Y-81280000D03*
D11*
X177800000Y-88900000D03*
D14*
X157480000Y-129540000D03*
X172720000Y-137160000D03*
X160020000Y-129540000D03*
X170180000Y-137160000D03*
X162560000Y-129540000D03*
X167640000Y-137160000D03*
X165100000Y-129540000D03*
X165100000Y-137160000D03*
X167640000Y-129540000D03*
X162560000Y-137160000D03*
X170180000Y-129540000D03*
X160020000Y-137160000D03*
X172720000Y-129540000D03*
D11*
X157480000Y-137160000D03*
D14*
X182880000Y-129540000D03*
X198120000Y-137160000D03*
X185420000Y-129540000D03*
X195580000Y-137160000D03*
X187960000Y-129540000D03*
X193040000Y-137160000D03*
X190500000Y-129540000D03*
X190500000Y-137160000D03*
X193040000Y-129540000D03*
X187960000Y-137160000D03*
X195580000Y-129540000D03*
X185420000Y-137160000D03*
X198120000Y-129540000D03*
D11*
X182880000Y-137160000D03*
D14*
X124460000Y-129540000D03*
X147320000Y-137160000D03*
X127000000Y-129540000D03*
X144780000Y-137160000D03*
X129540000Y-129540000D03*
X142240000Y-137160000D03*
X132080000Y-129540000D03*
X139700000Y-137160000D03*
X134620000Y-129540000D03*
X137160000Y-137160000D03*
X137160000Y-129540000D03*
X134620000Y-137160000D03*
X139700000Y-129540000D03*
X132080000Y-137160000D03*
X142240000Y-129540000D03*
X129540000Y-137160000D03*
X144780000Y-129540000D03*
X127000000Y-137160000D03*
X147320000Y-129540000D03*
D11*
X124460000Y-137160000D03*
D14*
X86360000Y-129540000D03*
X109220000Y-137160000D03*
X88900000Y-129540000D03*
X106680000Y-137160000D03*
X91440000Y-129540000D03*
X104140000Y-137160000D03*
X93980000Y-129540000D03*
X101600000Y-137160000D03*
X96520000Y-129540000D03*
X99060000Y-137160000D03*
X99060000Y-129540000D03*
X96520000Y-137160000D03*
X101600000Y-129540000D03*
X93980000Y-137160000D03*
X104140000Y-129540000D03*
X91440000Y-137160000D03*
X106680000Y-129540000D03*
X88900000Y-137160000D03*
X109220000Y-129540000D03*
D11*
X86360000Y-137160000D03*
D14*
X93980000Y-81280000D03*
X116840000Y-88900000D03*
X96520000Y-81280000D03*
X114300000Y-88900000D03*
X99060000Y-81280000D03*
X111760000Y-88900000D03*
X101600000Y-81280000D03*
X109220000Y-88900000D03*
X104140000Y-81280000D03*
X106680000Y-88900000D03*
X106680000Y-81280000D03*
X104140000Y-88900000D03*
X109220000Y-81280000D03*
X101600000Y-88900000D03*
X111760000Y-81280000D03*
X99060000Y-88900000D03*
X114300000Y-81280000D03*
X96520000Y-88900000D03*
X116840000Y-81280000D03*
D11*
X93980000Y-88900000D03*
D14*
X139700000Y-81280000D03*
X162560000Y-88900000D03*
X142240000Y-81280000D03*
X160020000Y-88900000D03*
X144780000Y-81280000D03*
X157480000Y-88900000D03*
X147320000Y-81280000D03*
X154940000Y-88900000D03*
X149860000Y-81280000D03*
X152400000Y-88900000D03*
X152400000Y-81280000D03*
X149860000Y-88900000D03*
X154940000Y-81280000D03*
X147320000Y-88900000D03*
X157480000Y-81280000D03*
X144780000Y-88900000D03*
X160020000Y-81280000D03*
X142240000Y-88900000D03*
X162560000Y-81280000D03*
D11*
X139700000Y-88900000D03*
D14*
X233680000Y-129540000D03*
X248920000Y-137160000D03*
X236220000Y-129540000D03*
X246380000Y-137160000D03*
X238760000Y-129540000D03*
X243840000Y-137160000D03*
X241300000Y-129540000D03*
X241300000Y-137160000D03*
X243840000Y-129540000D03*
X238760000Y-137160000D03*
X246380000Y-129540000D03*
X236220000Y-137160000D03*
X248920000Y-129540000D03*
D11*
X233680000Y-137160000D03*
D14*
X81280000Y-76200000D03*
X78740000Y-76200000D03*
X76200000Y-76200000D03*
X73660000Y-76200000D03*
X71120000Y-76200000D03*
X68580000Y-76200000D03*
X66040000Y-76200000D03*
X63500000Y-76200000D03*
D11*
X60960000Y-76200000D03*
D14*
X241300000Y-76200000D03*
X238760000Y-76200000D03*
X236220000Y-76200000D03*
X233680000Y-76200000D03*
X231140000Y-76200000D03*
X228600000Y-76200000D03*
X226060000Y-76200000D03*
X223520000Y-76200000D03*
D11*
X220980000Y-76200000D03*
D14*
X198120000Y-76200000D03*
X195580000Y-76200000D03*
X193040000Y-76200000D03*
X190500000Y-76200000D03*
X187960000Y-76200000D03*
X185420000Y-76200000D03*
X182880000Y-76200000D03*
X180340000Y-76200000D03*
D11*
X177800000Y-76200000D03*
D12*
X60960000Y-129540000D03*
X60960000Y-127000000D03*
X60960000Y-124460000D03*
D13*
X60960000Y-121920000D03*
D15*
X72390000Y-68580000D03*
D16*
X74930000Y-68580000D03*
D15*
X66040000Y-68580000D03*
D16*
X68580000Y-68580000D03*
D15*
X59690000Y-68580000D03*
D16*
X62230000Y-68580000D03*
D15*
X53340000Y-68580000D03*
D16*
X55880000Y-68580000D03*
D15*
X97790000Y-68580000D03*
D16*
X100330000Y-68580000D03*
D15*
X91440000Y-68580000D03*
D16*
X93980000Y-68580000D03*
D15*
X85090000Y-68580000D03*
D16*
X87630000Y-68580000D03*
D15*
X78740000Y-68580000D03*
D16*
X81280000Y-68580000D03*
D15*
X153670000Y-68580000D03*
D16*
X156210000Y-68580000D03*
D15*
X160020000Y-68580000D03*
D16*
X162560000Y-68580000D03*
D15*
X166370000Y-68580000D03*
D16*
X168910000Y-68580000D03*
D15*
X172720000Y-68580000D03*
D16*
X175260000Y-68580000D03*
D15*
X179070000Y-68580000D03*
D16*
X181610000Y-68580000D03*
D15*
X185420000Y-68580000D03*
D16*
X187960000Y-68580000D03*
D15*
X191770000Y-68580000D03*
D16*
X194310000Y-68580000D03*
D15*
X198120000Y-68580000D03*
D16*
X200660000Y-68580000D03*
D15*
X204470000Y-68580000D03*
D16*
X207010000Y-68580000D03*
D15*
X210820000Y-68580000D03*
D16*
X213360000Y-68580000D03*
D15*
X217170000Y-68580000D03*
D16*
X219710000Y-68580000D03*
D15*
X223520000Y-68580000D03*
D16*
X226060000Y-68580000D03*
D15*
X229870000Y-68580000D03*
D16*
X232410000Y-68580000D03*
D15*
X236220000Y-68580000D03*
D16*
X238760000Y-68580000D03*
D15*
X242570000Y-68580000D03*
D16*
X245110000Y-68580000D03*
D15*
X248920000Y-68580000D03*
D16*
X251460000Y-68580000D03*
D10*
X203280000Y-124460000D03*
X208280000Y-124460000D03*
X162480000Y-124460000D03*
X157480000Y-124460000D03*
X187880000Y-124460000D03*
X182880000Y-124460000D03*
X238680000Y-124460000D03*
X233680000Y-124460000D03*
X63420000Y-93980000D03*
X58420000Y-93980000D03*
X60960000Y-109140000D03*
X60960000Y-104140000D03*
X210820000Y-86280000D03*
X210820000Y-81280000D03*
X170180000Y-86280000D03*
X170180000Y-81280000D03*
X116840000Y-134540000D03*
X116840000Y-129540000D03*
X78740000Y-137080000D03*
X78740000Y-132080000D03*
X98980000Y-76200000D03*
X93980000Y-76200000D03*
X144700000Y-76200000D03*
X139700000Y-76200000D03*
D17*
X146050000Y-93218000D03*
X103632000Y-93218000D03*
X120904012Y-93218000D03*
X205486000Y-141732000D03*
X205486000Y-135636000D03*
X178308000Y-132080000D03*
X178308000Y-135636000D03*
X146558000Y-141732000D03*
X125222000Y-141732000D03*
X108966000Y-141732000D03*
X95504000Y-141732000D03*
X85598000Y-93218000D03*
X86614000Y-78740000D03*
X91440000Y-78740000D03*
X152400000Y-93218000D03*
X177799990Y-93218000D03*
X78232000Y-134620000D03*
X205486000Y-134366000D03*
X205486000Y-140461980D03*
X178308000Y-136906000D03*
X178308000Y-130810000D03*
X147828000Y-141732000D03*
X123952000Y-141732000D03*
X110236000Y-141732000D03*
X96774000Y-141732000D03*
X79502000Y-134620000D03*
X86868000Y-93218000D03*
X87884000Y-78740000D03*
X92710000Y-78740000D03*
X104902000Y-93218000D03*
X119634000Y-93218000D03*
X134620000Y-93218000D03*
X136144012Y-93218000D03*
X147574000Y-93217996D03*
X153670000Y-93218000D03*
X176530000Y-93218000D03*
X199136000Y-93218000D03*
X200406000Y-93218000D03*
X73660000Y-101092000D03*
X73659990Y-98806000D03*
X76200000Y-99568000D03*
X76200000Y-101092000D03*
X63500000Y-99568000D03*
X63500000Y-98044000D03*
X123190000Y-85852000D03*
X121666000Y-85852000D03*
X185420000Y-118618000D03*
X185420000Y-121665996D03*
X120904000Y-86614000D03*
X123952000Y-86614000D03*
X121666000Y-87376000D03*
X124714000Y-87376000D03*
X121666000Y-79248000D03*
X125476000Y-79248000D03*
X120904000Y-78486000D03*
X126238000Y-78486000D03*
X121666000Y-77724000D03*
X127000000Y-77724000D03*
X193040000Y-114808000D03*
X193040000Y-117094028D03*
X120904000Y-76962000D03*
X127762000Y-76962000D03*
X190500000Y-114046000D03*
X190500000Y-117856000D03*
X161290000Y-113284000D03*
X161290000Y-121665994D03*
X136144000Y-87376000D03*
X128524000Y-87376000D03*
X160020000Y-112522000D03*
X160019990Y-121666000D03*
X136143990Y-86360000D03*
X129286000Y-86360000D03*
X163830000Y-111760000D03*
X163830000Y-121666000D03*
X136143996Y-85344000D03*
X130048000Y-85344018D03*
X166370000Y-110998000D03*
X166370000Y-121666000D03*
X136144000Y-84328000D03*
X130810000Y-84328000D03*
X150368000Y-78232000D03*
X131572000Y-78232000D03*
X135382000Y-78232000D03*
X168910000Y-110236000D03*
X168910000Y-121666000D03*
X146812000Y-78232000D03*
X145795958Y-78994000D03*
X149606000Y-78994000D03*
X132334000Y-78994000D03*
X134620000Y-78994000D03*
X170180000Y-109474000D03*
X170180000Y-121666000D03*
X148844000Y-73914000D03*
X167640000Y-108712000D03*
X167640004Y-121666000D03*
X146050000Y-72390006D03*
X161543992Y-107950000D03*
X165099988Y-121666000D03*
X149606000Y-77470000D03*
X134620000Y-77470000D03*
X121666000Y-76200000D03*
X116840000Y-76200000D03*
X146812000Y-76708000D03*
X90424000Y-104902000D03*
X90424014Y-106426000D03*
X83820000Y-139954000D03*
X83820000Y-143002000D03*
X243840000Y-131572000D03*
X246380000Y-131572000D03*
X80010000Y-101092000D03*
X80010000Y-97282000D03*
X77470000Y-101092000D03*
X77470000Y-97282000D03*
X74930000Y-101092000D03*
X74930000Y-97282000D03*
X72390000Y-101092000D03*
X72390000Y-97282000D03*
X197104000Y-120904000D03*
X187198000Y-120904000D03*
X96012000Y-120904000D03*
X81280000Y-101092000D03*
X81280000Y-98044000D03*
X104902000Y-120904000D03*
X228853998Y-134619998D03*
X233426000Y-135127988D03*
X107696000Y-140716002D03*
X229108000Y-139700000D03*
X177038000Y-139700000D03*
X179578000Y-139700000D03*
X156971994Y-139700000D03*
X119380000Y-140716000D03*
X90931992Y-140716000D03*
X83820000Y-106426000D03*
X153162000Y-106426000D03*
X121666000Y-92202000D03*
X105664000Y-92202000D03*
X96520000Y-92202000D03*
X145034000Y-92202000D03*
X138684000Y-92202000D03*
X196342000Y-120142000D03*
X186436000Y-120142000D03*
X127000000Y-121666000D03*
X127000000Y-120142000D03*
X96774000Y-120142000D03*
X103886016Y-120142000D03*
X141224000Y-107188000D03*
X164846000Y-92202000D03*
X164846000Y-105664000D03*
X141224000Y-121666000D03*
X138176000Y-107188000D03*
X138176000Y-121666000D03*
X165608000Y-91440000D03*
X165608000Y-104902000D03*
X140462000Y-122428000D03*
X140462000Y-106426000D03*
X150114000Y-101854000D03*
X137414000Y-106426000D03*
X137414000Y-122428000D03*
X151638000Y-101854000D03*
X139700000Y-107188000D03*
X166370000Y-92202000D03*
X166370000Y-104140000D03*
X139700000Y-121666000D03*
X149352000Y-101092000D03*
X136652000Y-107188000D03*
X136652000Y-121666000D03*
X152400000Y-101092000D03*
X167132000Y-91440000D03*
X167132000Y-103378000D03*
X138938000Y-122428000D03*
X138938000Y-106426000D03*
X148590000Y-100330000D03*
X135890000Y-106426000D03*
X135890000Y-122428000D03*
X151638000Y-100330000D03*
X147828000Y-99568000D03*
X134620000Y-99568000D03*
X121666000Y-99568000D03*
X102870000Y-99568000D03*
X96012000Y-99568000D03*
X152400000Y-99568000D03*
X147828000Y-96520000D03*
X134620000Y-96520000D03*
X121666000Y-96520000D03*
X152400000Y-96520000D03*
X147066000Y-98806000D03*
X135382000Y-98806000D03*
X120904000Y-98806000D03*
X96774000Y-98806000D03*
X102108000Y-98806000D03*
X151638000Y-98806000D03*
X147066000Y-95758000D03*
X135382000Y-95758000D03*
X120904000Y-95758000D03*
X99060000Y-95758000D03*
X100584000Y-95758000D03*
X151638000Y-95758000D03*
X147828000Y-98044000D03*
X134620000Y-98044000D03*
X121666000Y-98044000D03*
X110490000Y-84328000D03*
X110490000Y-98044000D03*
X152400000Y-98044000D03*
X147828000Y-94996000D03*
X134620000Y-94996000D03*
X121666000Y-94996000D03*
X98298000Y-94996000D03*
X101346000Y-94996000D03*
X152400000Y-94996000D03*
X147066000Y-97282000D03*
X135382000Y-97282000D03*
X120904000Y-97282000D03*
X113030000Y-84328000D03*
X113030000Y-97282000D03*
X151638000Y-97282000D03*
X147066000Y-94234000D03*
X135382000Y-94234000D03*
X120904000Y-94234000D03*
X97536000Y-94234000D03*
X100584000Y-94234000D03*
X151638000Y-94234000D03*
X195072000Y-132334000D03*
X187960000Y-132334000D03*
X213868000Y-133858000D03*
X202692000Y-133858000D03*
X195834000Y-134620006D03*
X185928000Y-134620000D03*
X169672000Y-131572000D03*
X162560000Y-131572012D03*
X209042000Y-133096000D03*
X201930000Y-133096000D03*
X195072000Y-133858000D03*
X185166000Y-133858000D03*
X201168000Y-132334000D03*
X185928000Y-133096000D03*
X195834000Y-133096000D03*
X209803998Y-132334000D03*
X120904000Y-85090000D03*
X122428000Y-85090000D03*
X103632000Y-100330000D03*
X96774000Y-100330000D03*
X91186000Y-100330000D03*
X89662000Y-100330000D03*
X66040000Y-100330000D03*
X66040000Y-98044000D03*
D18*
X103632000Y-93218000D02*
X103632000Y-93218000D01*
X178308000Y-135636000D02*
X178308000Y-135636000D01*
X230378000Y-141732000D02*
X230378000Y-136652000D01*
X230378000Y-136652000D02*
X230378000Y-130048000D01*
X230378000Y-130048000D02*
X230632000Y-129794000D01*
X230632000Y-129794000D02*
X230886000Y-129540000D01*
X230886000Y-129540000D02*
X233680000Y-129540000D01*
X205486000Y-141732000D02*
X230378000Y-141732000D01*
X205486000Y-130810000D02*
X205486000Y-135636000D01*
X208280000Y-129540000D02*
X206756000Y-129540000D01*
X206756000Y-129540000D02*
X205486000Y-130810000D01*
X178308000Y-132080000D02*
X178308000Y-132080000D01*
X178308000Y-141732000D02*
X205486000Y-141732000D01*
X157480000Y-129540000D02*
X153670000Y-129540000D01*
X153670000Y-129540000D02*
X152400000Y-130810000D01*
X152400000Y-130810000D02*
X152400000Y-141732000D01*
X152400000Y-141732000D02*
X178308000Y-141732000D01*
X124460000Y-129540000D02*
X122174000Y-129540000D01*
X120650000Y-131064000D02*
X120650000Y-141732000D01*
X137160000Y-93218000D02*
X137160000Y-90932000D01*
X146050000Y-93218000D02*
X137160000Y-93218000D01*
X137160000Y-90932000D02*
X134874000Y-88646000D01*
X134874000Y-88646000D02*
X134874000Y-81534000D01*
X134874000Y-81534000D02*
X135128000Y-81280000D01*
X135128000Y-81280000D02*
X139700000Y-81280000D01*
X96520000Y-149860000D02*
X93980000Y-149860000D01*
X93980000Y-149860000D02*
X93980000Y-143256000D01*
X93980000Y-143256000D02*
X95504000Y-141732000D01*
X93980000Y-143256000D02*
X92456000Y-141732000D01*
X92456000Y-141732000D02*
X85598000Y-141732000D01*
X58420000Y-141732000D02*
X55118000Y-138430000D01*
X55118000Y-85110974D02*
X55392974Y-84836000D01*
X55118000Y-85344000D02*
X55118000Y-85110974D01*
X85344000Y-84836000D02*
X85598000Y-85090000D01*
X85598000Y-85090000D02*
X85598000Y-93218000D01*
X68580000Y-105918000D02*
X68580000Y-104140000D01*
X68072000Y-106426000D02*
X68580000Y-105918000D01*
X55118000Y-105664000D02*
X55880000Y-106426000D01*
X55118000Y-106426000D02*
X55880000Y-106426000D01*
X55118000Y-105664000D02*
X55118000Y-85344000D01*
X55118000Y-106426000D02*
X55118000Y-105664000D01*
X55880000Y-106426000D02*
X55118000Y-107188000D01*
X55118000Y-138430000D02*
X55118000Y-107188000D01*
X55118000Y-107188000D02*
X55118000Y-106426000D01*
X57658000Y-84836000D02*
X57912000Y-84836000D01*
X57658000Y-84836000D02*
X58420000Y-84836000D01*
X55392974Y-84836000D02*
X57658000Y-84836000D01*
X58420000Y-81280000D02*
X58420000Y-84328000D01*
X57912000Y-84836000D02*
X58420000Y-84328000D01*
X58420000Y-84328000D02*
X58420000Y-84836000D01*
X58420000Y-84328000D02*
X58928000Y-84836000D01*
X58420000Y-84836000D02*
X58928000Y-84836000D01*
X58928000Y-84836000D02*
X85344000Y-84836000D01*
X86106000Y-78740000D02*
X86614000Y-78740000D01*
X85598000Y-85090000D02*
X85598000Y-79248000D01*
X85598000Y-79248000D02*
X86106000Y-78740000D01*
X87630000Y-78740000D02*
X87630000Y-78740000D01*
X174752000Y-81280000D02*
X174752000Y-93218000D01*
X174752000Y-81280000D02*
X177800000Y-81280000D01*
D19*
X174752000Y-81280000D02*
X170180000Y-81280000D01*
X177800000Y-93217990D02*
X177799990Y-93218000D01*
X177800000Y-88900000D02*
X177800000Y-93217990D01*
D18*
X218694000Y-81788000D02*
X218694000Y-81534000D01*
X218948000Y-81280000D02*
X220726000Y-81280000D01*
X218694000Y-81534000D02*
X218948000Y-81280000D01*
X220726000Y-81280000D02*
X220980000Y-81280000D01*
D19*
X220980000Y-88900000D02*
X218694000Y-88900000D01*
D18*
X218694000Y-88900000D02*
X218694000Y-81788000D01*
D19*
X218440000Y-81280000D02*
X218694000Y-81534000D01*
X210820000Y-81280000D02*
X218440000Y-81280000D01*
X94234000Y-78486000D02*
X93980000Y-78740000D01*
X93980000Y-76200000D02*
X94234000Y-76454000D01*
X94234000Y-76454000D02*
X94234000Y-78486000D01*
X58420000Y-88900000D02*
X58420000Y-84836000D01*
X58420000Y-93980000D02*
X58420000Y-88900000D01*
X60960000Y-105271370D02*
X60960000Y-106426000D01*
X60960000Y-104140000D02*
X60960000Y-105271370D01*
D18*
X55880000Y-106426000D02*
X60960000Y-106426000D01*
X60960000Y-106426000D02*
X68072000Y-106426000D01*
D19*
X208280000Y-129540000D02*
X208280000Y-128408630D01*
X208280000Y-128408630D02*
X208280000Y-124460000D01*
X208280000Y-129540000D02*
X209079999Y-130339999D01*
X209079999Y-130339999D02*
X210058000Y-131318000D01*
X210058000Y-131318000D02*
X211582000Y-131318000D01*
X211582000Y-131318000D02*
X213360000Y-129540000D01*
X213360000Y-129540000D02*
X215900000Y-129540000D01*
X233680000Y-124460000D02*
X233680000Y-129540000D01*
X182880000Y-124460000D02*
X182880000Y-129540000D01*
X157480000Y-124460000D02*
X157480000Y-129540000D01*
X120650000Y-129540000D02*
X121412000Y-130302000D01*
X116840000Y-129540000D02*
X120650000Y-129540000D01*
D18*
X122174000Y-129540000D02*
X121412000Y-130302000D01*
X121412000Y-130302000D02*
X120650000Y-131064000D01*
X85598000Y-141732000D02*
X76200000Y-141732000D01*
X76054001Y-135273999D02*
X76054001Y-141586001D01*
X76054001Y-141586001D02*
X76200000Y-141732000D01*
X76708000Y-134620000D02*
X76054001Y-135273999D01*
D19*
X78740000Y-132080000D02*
X77470000Y-132080000D01*
X77470000Y-132080000D02*
X77216000Y-132334000D01*
X77216000Y-132334000D02*
X77216000Y-134620000D01*
D18*
X77216000Y-134620000D02*
X76708000Y-134620000D01*
X76200000Y-141732000D02*
X65532000Y-141732000D01*
X65532000Y-141732000D02*
X58420000Y-141732000D01*
X65532000Y-134112000D02*
X65532000Y-141732000D01*
X205486000Y-141732000D02*
X205486000Y-140461980D01*
X178308000Y-135636000D02*
X178308000Y-136906000D01*
X178308000Y-141732000D02*
X178308000Y-136906000D01*
X178308000Y-132080000D02*
X178308000Y-130810000D01*
X178308000Y-130302000D02*
X178308000Y-130810000D01*
X182880000Y-129540000D02*
X179070000Y-129540000D01*
X179070000Y-129540000D02*
X178308000Y-130302000D01*
X146558000Y-141732000D02*
X147828000Y-141732000D01*
X152400000Y-141732000D02*
X147828000Y-141732000D01*
X120650000Y-141732000D02*
X123952000Y-141732000D01*
X125222000Y-141732000D02*
X123952000Y-141732000D01*
X108966000Y-141732000D02*
X110236000Y-141732000D01*
X120650000Y-141732000D02*
X110236000Y-141732000D01*
X95504000Y-141732000D02*
X96774000Y-141732000D01*
X77216000Y-134620000D02*
X79502000Y-134620000D01*
X87630000Y-78740000D02*
X87884000Y-78740000D01*
X86614000Y-78740000D02*
X87630000Y-78740000D01*
X91440000Y-78740000D02*
X92710000Y-78740000D01*
X93980000Y-81280000D02*
X93980000Y-78994000D01*
X93726000Y-78740000D02*
X92710000Y-78740000D01*
X93980000Y-78994000D02*
X93726000Y-78740000D01*
X103632000Y-93218000D02*
X104902000Y-93218000D01*
X104902000Y-93218000D02*
X119634000Y-93218000D01*
X120904012Y-93218000D02*
X119634000Y-93218000D01*
X137160000Y-93218000D02*
X136144012Y-93218000D01*
X134620000Y-93218000D02*
X136144012Y-93218000D01*
X146050000Y-93218000D02*
X147573996Y-93218000D01*
X147573996Y-93218000D02*
X147574000Y-93217996D01*
X152400000Y-93218000D02*
X153670000Y-93218000D01*
X153670000Y-93218000D02*
X176530000Y-93218000D01*
X177799990Y-93218000D02*
X176530000Y-93218000D01*
X199136000Y-93218000D02*
X200406000Y-93218000D01*
X200971685Y-93218000D02*
X200406000Y-93218000D01*
X218694000Y-88900000D02*
X218694000Y-92710000D01*
X218694000Y-92710000D02*
X218186000Y-93218000D01*
X218186000Y-93218000D02*
X215900000Y-93218000D01*
X215900000Y-96520000D02*
X215900000Y-93218000D01*
X215900000Y-93218000D02*
X200971685Y-93218000D01*
X228600000Y-124460000D02*
X228600000Y-127762000D01*
X230378000Y-129540000D02*
X230632000Y-129794000D01*
X228600000Y-127762000D02*
X230378000Y-129540000D01*
D19*
X246634000Y-71120000D02*
X249174000Y-68580000D01*
X244094000Y-71120000D02*
X246634000Y-71120000D01*
X243840000Y-81280000D02*
X240030000Y-77470000D01*
X240030000Y-75184000D02*
X244094000Y-71120000D01*
X240030000Y-77470000D02*
X240030000Y-75184000D01*
X242099999Y-75400001D02*
X245147999Y-75400001D01*
X241300000Y-76200000D02*
X242099999Y-75400001D01*
X245793999Y-75400001D02*
X251460000Y-69734000D01*
X245147999Y-75400001D02*
X245793999Y-75400001D01*
X251460000Y-69734000D02*
X251460000Y-68580000D01*
X237490000Y-77470000D02*
X241300000Y-81280000D01*
X242570000Y-68580000D02*
X237490000Y-73660000D01*
X237490000Y-73660000D02*
X237490000Y-77470000D01*
X245110000Y-68834000D02*
X245110000Y-68580000D01*
X238760000Y-76200000D02*
X238760000Y-75184000D01*
X238760000Y-75184000D02*
X245110000Y-68834000D01*
X238760000Y-81280000D02*
X238760000Y-81026000D01*
X238506000Y-81026000D02*
X238760000Y-81280000D01*
X236220000Y-69852792D02*
X234950000Y-71122792D01*
X236220000Y-68580000D02*
X236220000Y-69852792D01*
X234950000Y-77216000D02*
X238506000Y-80772000D01*
X234950000Y-71122792D02*
X234950000Y-77216000D01*
X238506000Y-80772000D02*
X238506000Y-81026000D01*
X236220000Y-71120000D02*
X236220000Y-76200000D01*
X238760000Y-68580000D02*
X236220000Y-71120000D01*
X236220000Y-81280000D02*
X235966000Y-81280000D01*
X232664000Y-77724000D02*
X236220000Y-81280000D01*
X229870000Y-68580000D02*
X232410000Y-71120000D01*
X232410000Y-77470000D02*
X232664000Y-77724000D01*
X232410000Y-71120000D02*
X232410000Y-77470000D01*
X232410000Y-69734000D02*
X233680000Y-71004000D01*
X232410000Y-68580000D02*
X232410000Y-69734000D01*
X233680000Y-71004000D02*
X233680000Y-76454000D01*
X229870000Y-77470000D02*
X232880001Y-80480001D01*
X223520000Y-68580000D02*
X229870000Y-74930000D01*
X232880001Y-80480001D02*
X233680000Y-81280000D01*
X229870000Y-74930000D02*
X229870000Y-77470000D01*
X231140000Y-72506000D02*
X231140000Y-75068630D01*
X226060000Y-68580000D02*
X227214000Y-68580000D01*
X227214000Y-68580000D02*
X231140000Y-72506000D01*
X231140000Y-75068630D02*
X231140000Y-76200000D01*
X230340001Y-80480001D02*
X231140000Y-81280000D01*
X221742000Y-73152000D02*
X225298000Y-73152000D01*
X217170000Y-68580000D02*
X221742000Y-73152000D01*
X225298000Y-73152000D02*
X227330000Y-75184000D01*
X227330000Y-77470000D02*
X230340001Y-80480001D01*
X227330000Y-75184000D02*
X227330000Y-77470000D01*
X228600000Y-75184000D02*
X228600000Y-76200000D01*
X223774000Y-70358000D02*
X228600000Y-75184000D01*
X219710000Y-68580000D02*
X221488000Y-70358000D01*
X221488000Y-70358000D02*
X223774000Y-70358000D01*
X210820000Y-68580000D02*
X216916000Y-74676000D01*
X224282000Y-74676000D02*
X224790000Y-75184000D01*
X227800001Y-80480001D02*
X228600000Y-81280000D01*
X224790000Y-75184000D02*
X224790000Y-77470000D01*
X216916000Y-74676000D02*
X224282000Y-74676000D01*
X224790000Y-77470000D02*
X227800001Y-80480001D01*
X225552000Y-75692000D02*
X226060000Y-76200000D01*
X213360000Y-69734000D02*
X217540000Y-73914000D01*
X225552000Y-74930000D02*
X225552000Y-75692000D01*
X213360000Y-68580000D02*
X213360000Y-69734000D01*
X217540000Y-73914000D02*
X224536000Y-73914000D01*
X224536000Y-73914000D02*
X225552000Y-74930000D01*
X225260001Y-80480001D02*
X226060000Y-81280000D01*
X224282000Y-79502000D02*
X225260001Y-80480001D01*
X204470000Y-68580000D02*
X215392000Y-79502000D01*
X215392000Y-79502000D02*
X224282000Y-79502000D01*
X220980000Y-78740000D02*
X222720001Y-76999999D01*
X215646000Y-78740000D02*
X220980000Y-78740000D01*
X222720001Y-76999999D02*
X223520000Y-76200000D01*
X207010000Y-68580000D02*
X207010000Y-70104000D01*
X207010000Y-70104000D02*
X215646000Y-78740000D01*
X197104000Y-77724000D02*
X200660000Y-81280000D01*
X196850000Y-77470000D02*
X197104000Y-77724000D01*
X198120000Y-68580000D02*
X196850000Y-69850000D01*
X196850000Y-69850000D02*
X196850000Y-77470000D01*
X198120000Y-76200000D02*
X200660000Y-73660000D01*
X200660000Y-73660000D02*
X200660000Y-68580000D01*
X194310000Y-77470000D02*
X198120000Y-81280000D01*
X191770000Y-68580000D02*
X194310000Y-71120000D01*
X194310000Y-71120000D02*
X194310000Y-77470000D01*
X195580000Y-71004000D02*
X195580000Y-75946000D01*
X195580000Y-75946000D02*
X195834000Y-76200000D01*
X194310000Y-68580000D02*
X194310000Y-69734000D01*
X194310000Y-69734000D02*
X195580000Y-71004000D01*
X191770000Y-77470000D02*
X194780001Y-80480001D01*
X185420000Y-68580000D02*
X191770000Y-74930000D01*
X194780001Y-80480001D02*
X195580000Y-81280000D01*
X191770000Y-74930000D02*
X191770000Y-77470000D01*
X193040000Y-74814000D02*
X193040000Y-75068630D01*
X187960000Y-68580000D02*
X187960000Y-69734000D01*
X187960000Y-69734000D02*
X193040000Y-74814000D01*
X193040000Y-75068630D02*
X193040000Y-76200000D01*
X189230000Y-77724000D02*
X192786000Y-81280000D01*
X183896000Y-70104000D02*
X189230000Y-75438000D01*
X179070000Y-68580000D02*
X180594000Y-70104000D01*
X189230000Y-75438000D02*
X189230000Y-77724000D01*
X180594000Y-70104000D02*
X183896000Y-70104000D01*
X190246000Y-75438000D02*
X190246000Y-75946000D01*
X181610000Y-68580000D02*
X183388000Y-68580000D01*
X183388000Y-68580000D02*
X190246000Y-75438000D01*
X190246000Y-81280000D02*
X190500000Y-81280000D01*
X172720000Y-68580000D02*
X175768000Y-71628000D01*
X175768000Y-71628000D02*
X182880000Y-71628000D01*
X186690000Y-75438000D02*
X186690000Y-77724000D01*
X182880000Y-71628000D02*
X186690000Y-75438000D01*
X186690000Y-77724000D02*
X190246000Y-81280000D01*
X183134000Y-70866000D02*
X187960000Y-75692000D01*
X187960000Y-75692000D02*
X187960000Y-76200000D01*
X175260000Y-68580000D02*
X177546000Y-70866000D01*
X177546000Y-70866000D02*
X183134000Y-70866000D01*
X184150000Y-75184000D02*
X184150000Y-77724000D01*
X166370000Y-68580000D02*
X170942000Y-73152000D01*
X184150000Y-77724000D02*
X187706000Y-81280000D01*
X182118000Y-73152000D02*
X184150000Y-75184000D01*
X170942000Y-73152000D02*
X182118000Y-73152000D01*
X185166000Y-75184000D02*
X185166000Y-75946000D01*
X182372000Y-72390000D02*
X185166000Y-75184000D01*
X168910000Y-68580000D02*
X172720000Y-72390000D01*
X172720000Y-72390000D02*
X182372000Y-72390000D01*
X181610000Y-77470000D02*
X185420000Y-81280000D01*
X181610000Y-75184000D02*
X181610000Y-77470000D01*
X181089389Y-74663389D02*
X181610000Y-75184000D01*
X160020000Y-68580000D02*
X166103389Y-74663389D01*
X166103389Y-74663389D02*
X181089389Y-74663389D01*
X182880000Y-75184000D02*
X182880000Y-76200000D01*
X181610000Y-73914000D02*
X182880000Y-75184000D01*
X162560000Y-68580000D02*
X167894000Y-73914000D01*
X167894000Y-73914000D02*
X181610000Y-73914000D01*
X182080001Y-80480001D02*
X182880000Y-81280000D01*
X181102000Y-79502000D02*
X182080001Y-80480001D01*
X153670000Y-68580000D02*
X164592000Y-79502000D01*
X164592000Y-79502000D02*
X181102000Y-79502000D01*
X180340000Y-76200000D02*
X178054000Y-78486000D01*
X165862000Y-78486000D02*
X156210000Y-68834000D01*
X178054000Y-78486000D02*
X165862000Y-78486000D01*
X72390000Y-74930000D02*
X77840001Y-69479999D01*
X72390000Y-78878630D02*
X72390000Y-74930000D01*
X77840001Y-69479999D02*
X78740000Y-68580000D01*
X73660000Y-81280000D02*
X73660000Y-80148630D01*
X73660000Y-80148630D02*
X72390000Y-78878630D01*
X80772000Y-68580000D02*
X81280000Y-68580000D01*
X73951999Y-75400001D02*
X80772000Y-68580000D01*
X73914000Y-75400001D02*
X73951999Y-75400001D01*
X73660000Y-76200000D02*
X73914000Y-75946000D01*
X73914000Y-75946000D02*
X73914000Y-75400001D01*
X76200000Y-80148630D02*
X74930000Y-78878630D01*
X83058000Y-70612000D02*
X84190001Y-69479999D01*
X76200000Y-81280000D02*
X76200000Y-80148630D01*
X74930000Y-78878630D02*
X74930000Y-75438000D01*
X84190001Y-69479999D02*
X85090000Y-68580000D01*
X74930000Y-75438000D02*
X79756000Y-70612000D01*
X79756000Y-70612000D02*
X83058000Y-70612000D01*
X87630000Y-69734000D02*
X87630000Y-68580000D01*
X85990000Y-71374000D02*
X87630000Y-69734000D01*
X80518000Y-71374000D02*
X85990000Y-71374000D01*
X76200000Y-76200000D02*
X76200000Y-75692000D01*
X76200000Y-75692000D02*
X80518000Y-71374000D01*
X90540001Y-69479999D02*
X91440000Y-68580000D01*
X87630000Y-72390000D02*
X90540001Y-69479999D01*
X78740000Y-80010000D02*
X77470000Y-78740000D01*
X77470000Y-75438000D02*
X80518000Y-72390000D01*
X78740000Y-81280000D02*
X78740000Y-80010000D01*
X77470000Y-78740000D02*
X77470000Y-75438000D01*
X80518000Y-72390000D02*
X87630000Y-72390000D01*
X93726000Y-68580000D02*
X93980000Y-68580000D01*
X89154000Y-73152000D02*
X93726000Y-68580000D01*
X81280000Y-73152000D02*
X89154000Y-73152000D01*
X78740000Y-76200000D02*
X78740000Y-75692000D01*
X78740000Y-75692000D02*
X81280000Y-73152000D01*
X95504000Y-70866000D02*
X96890001Y-69479999D01*
X92456000Y-70866000D02*
X95504000Y-70866000D01*
X96890001Y-69479999D02*
X97790000Y-68580000D01*
X81280000Y-81280000D02*
X80010000Y-80010000D01*
X80010000Y-75692000D02*
X81026000Y-74676000D01*
X81026000Y-74676000D02*
X88646000Y-74676000D01*
X80010000Y-80010000D02*
X80010000Y-75692000D01*
X88646000Y-74676000D02*
X92456000Y-70866000D01*
X100330000Y-71374000D02*
X100330000Y-68580000D01*
X92710000Y-71628000D02*
X100076000Y-71628000D01*
X81280000Y-76200000D02*
X88138000Y-76200000D01*
X100076000Y-71628000D02*
X100330000Y-71374000D01*
X88138000Y-76200000D02*
X92710000Y-71628000D01*
X53340000Y-68580000D02*
X53340000Y-71120000D01*
X53340000Y-71120000D02*
X63500000Y-81280000D01*
X63500000Y-76200000D02*
X62700001Y-75400001D01*
X62700001Y-75400001D02*
X55880000Y-68580000D01*
X65240001Y-80480001D02*
X66040000Y-81280000D01*
X64770000Y-80010000D02*
X65240001Y-80480001D01*
X59690000Y-68580000D02*
X64770000Y-73660000D01*
X64770000Y-73660000D02*
X64770000Y-80010000D01*
X66040000Y-75068630D02*
X66040000Y-76200000D01*
X62230000Y-68580000D02*
X66040000Y-72390000D01*
X66040000Y-72390000D02*
X66040000Y-75068630D01*
X67310000Y-80010000D02*
X67780001Y-80480001D01*
X67780001Y-80480001D02*
X68580000Y-81280000D01*
X66040000Y-68580000D02*
X67310000Y-69850000D01*
X67310000Y-69850000D02*
X67310000Y-80010000D01*
X68580000Y-68580000D02*
X68580000Y-76200000D01*
X70320001Y-80480001D02*
X71120000Y-81280000D01*
X69850000Y-80010000D02*
X70320001Y-80480001D01*
X72390000Y-68580000D02*
X69850000Y-71120000D01*
X69850000Y-71120000D02*
X69850000Y-80010000D01*
X74930000Y-70104000D02*
X74930000Y-68580000D01*
X71120000Y-76200000D02*
X71120000Y-73914000D01*
X71120000Y-73914000D02*
X74930000Y-70104000D01*
X73660000Y-101092000D02*
X73660000Y-103886000D01*
X73660000Y-103886000D02*
X73660000Y-104140000D01*
X60960000Y-98552000D02*
X60960000Y-88900000D01*
X73659990Y-98806000D02*
X61214000Y-98806000D01*
X61214000Y-98806000D02*
X60960000Y-98552000D01*
X88900000Y-98552000D02*
X88646000Y-98806000D01*
X105410000Y-72136000D02*
X105156000Y-72390000D01*
X105410000Y-66040000D02*
X105410000Y-72136000D01*
X105156000Y-72390000D02*
X92964000Y-72390000D01*
X92964000Y-72390000D02*
X88900000Y-76454000D01*
X88646000Y-98806000D02*
X73659990Y-98806000D01*
X88900000Y-76454000D02*
X88900000Y-98552000D01*
X76200000Y-99568000D02*
X76200000Y-99568000D01*
X76200000Y-101092000D02*
X76200000Y-104140000D01*
X76200000Y-99568000D02*
X70866000Y-99568000D01*
X70866000Y-99568000D02*
X66802000Y-99568000D01*
X66802000Y-99568000D02*
X63500000Y-99568000D01*
X65024000Y-90424000D02*
X64299999Y-89699999D01*
X63500000Y-98044000D02*
X65024000Y-96520000D01*
X64299999Y-89699999D02*
X63500000Y-88900000D01*
X65024000Y-96520000D02*
X65024000Y-90424000D01*
X89662000Y-99314000D02*
X89408000Y-99568000D01*
X107950000Y-72898000D02*
X107696000Y-73152000D01*
X89408000Y-99568000D02*
X76200000Y-99568000D01*
X107950000Y-66040000D02*
X107950000Y-72898000D01*
X89662000Y-76708000D02*
X89662000Y-99314000D01*
X107696000Y-73152000D02*
X93218000Y-73152000D01*
X93218000Y-73152000D02*
X89662000Y-76708000D01*
X172212000Y-118618000D02*
X171958000Y-118618000D01*
X123444000Y-118618000D02*
X123190000Y-118364000D01*
X123190000Y-86417685D02*
X123190000Y-85852000D01*
X172212000Y-118618000D02*
X123444000Y-118618000D01*
X123190000Y-118364000D02*
X123190000Y-86417685D01*
X185420000Y-118618000D02*
X172212000Y-118618000D01*
X185420000Y-129540000D02*
X185420000Y-121665996D01*
X121100315Y-85852000D02*
X121666000Y-85852000D01*
X101600000Y-88900000D02*
X104648000Y-85852000D01*
X104648000Y-85852000D02*
X121100315Y-85852000D01*
X123190000Y-85286315D02*
X123190000Y-85852000D01*
X122936000Y-70866000D02*
X123190000Y-71120000D01*
X113030000Y-66040000D02*
X113030000Y-70612000D01*
X113284000Y-70866000D02*
X122936000Y-70866000D01*
X113030000Y-70612000D02*
X113284000Y-70866000D01*
X123190000Y-71120000D02*
X123190000Y-85286315D01*
X123952000Y-87179685D02*
X123952000Y-86614000D01*
X189230000Y-135890000D02*
X189230000Y-118110000D01*
X187960000Y-137160000D02*
X189230000Y-135890000D01*
X123952000Y-117602000D02*
X123952000Y-87179685D01*
X189230000Y-118110000D02*
X188976000Y-117856000D01*
X188976000Y-117856000D02*
X124206000Y-117856000D01*
X124206000Y-117856000D02*
X123952000Y-117602000D01*
X120338315Y-86614000D02*
X120904000Y-86614000D01*
X109220000Y-88900000D02*
X111506000Y-86614000D01*
X111506000Y-86614000D02*
X120338315Y-86614000D01*
X123952000Y-86048315D02*
X123952000Y-86614000D01*
X115570000Y-69850000D02*
X115824000Y-70104000D01*
X115570000Y-66040000D02*
X115570000Y-69850000D01*
X115824000Y-70104000D02*
X123698000Y-70104000D01*
X123698000Y-70104000D02*
X123952000Y-70358000D01*
X123952000Y-70358000D02*
X123952000Y-86048315D01*
X124968000Y-117094000D02*
X124714000Y-116840000D01*
X124714000Y-116840000D02*
X124714000Y-87376000D01*
X188214000Y-117094000D02*
X187960000Y-117094000D01*
X187960000Y-117094000D02*
X124968000Y-117094000D01*
X191770000Y-117348000D02*
X191516000Y-117094000D01*
X191516000Y-117094000D02*
X187960000Y-117094000D01*
X190500000Y-137160000D02*
X191770000Y-135890000D01*
X191770000Y-135890000D02*
X191770000Y-117348000D01*
X113538000Y-87376000D02*
X121666000Y-87376000D01*
X111760000Y-88900000D02*
X113284000Y-87376000D01*
X113284000Y-87376000D02*
X113538000Y-87376000D01*
X118364000Y-69342000D02*
X118110000Y-69088000D01*
X124460000Y-69342000D02*
X118364000Y-69342000D01*
X124714000Y-87376000D02*
X124714000Y-69596000D01*
X118110000Y-69088000D02*
X118110000Y-66040000D01*
X124714000Y-69596000D02*
X124460000Y-69342000D01*
X125730000Y-116332000D02*
X171958000Y-116332000D01*
X125476000Y-79756000D02*
X125476000Y-116078000D01*
X125476000Y-116078000D02*
X125730000Y-116332000D01*
X121666000Y-79248000D02*
X121666000Y-79248000D01*
X125476000Y-79756000D02*
X125476000Y-79248000D01*
X171958000Y-116332000D02*
X187706000Y-116332000D01*
X187706000Y-116332000D02*
X188214000Y-116332000D01*
X194056000Y-116332000D02*
X187706000Y-116332000D01*
X194310000Y-116586000D02*
X194056000Y-116332000D01*
X193040000Y-137160000D02*
X194310000Y-135890000D01*
X194310000Y-135890000D02*
X194310000Y-116586000D01*
X113792000Y-79248000D02*
X121666000Y-79248000D01*
X111760000Y-81280000D02*
X113792000Y-79248000D01*
X120904000Y-68580000D02*
X120650000Y-68326000D01*
X120650000Y-68326000D02*
X120650000Y-66040000D01*
X125222000Y-68580000D02*
X120904000Y-68580000D01*
X125476000Y-79248000D02*
X125476000Y-68834000D01*
X125476000Y-68834000D02*
X125222000Y-68580000D01*
X195580000Y-120142000D02*
X195580000Y-129540000D01*
X126492000Y-115570000D02*
X195326000Y-115570000D01*
X195326000Y-115570000D02*
X195580000Y-115824000D01*
X126238000Y-78486000D02*
X126238000Y-115316000D01*
X126238000Y-115316000D02*
X126492000Y-115570000D01*
X195580000Y-115824000D02*
X195580000Y-120142000D01*
X112014000Y-78486000D02*
X120904000Y-78486000D01*
X109220000Y-81280000D02*
X112014000Y-78486000D01*
X123444000Y-67818000D02*
X123190000Y-67564000D01*
X123190000Y-67564000D02*
X123190000Y-66040000D01*
X125984000Y-67818000D02*
X123444000Y-67818000D01*
X126238000Y-78486000D02*
X126238000Y-68072000D01*
X126238000Y-68072000D02*
X125984000Y-67818000D01*
X127000000Y-79756000D02*
X127000000Y-77724000D01*
X127000000Y-114554000D02*
X127000000Y-79756000D01*
X193040000Y-114808000D02*
X127254000Y-114808000D01*
X127254000Y-114808000D02*
X127000000Y-114554000D01*
X193040000Y-129540000D02*
X193040000Y-117094028D01*
X111506000Y-77724000D02*
X121666000Y-77724000D01*
X101600000Y-81280000D02*
X105156000Y-77724000D01*
X105156000Y-77724000D02*
X111506000Y-77724000D01*
X127000000Y-67310000D02*
X125730000Y-66040000D01*
X127000000Y-77724000D02*
X127000000Y-67310000D01*
X127762000Y-79756000D02*
X127762000Y-76962000D01*
X127762000Y-113792000D02*
X127762000Y-79756000D01*
X190500000Y-114046000D02*
X128016000Y-114046000D01*
X128016000Y-114046000D02*
X127762000Y-113792000D01*
X190500000Y-129540000D02*
X190500000Y-117856000D01*
X111252000Y-76962000D02*
X120904000Y-76962000D01*
X103124000Y-76962000D02*
X111252000Y-76962000D01*
X99060000Y-81280000D02*
X99060000Y-81026000D01*
X99060000Y-81026000D02*
X103124000Y-76962000D01*
X127762000Y-66548000D02*
X128270000Y-66040000D01*
X127762000Y-76962000D02*
X127762000Y-66548000D01*
X161290000Y-135890000D02*
X161290000Y-121665994D01*
X160020000Y-137160000D02*
X161290000Y-135890000D01*
X144780000Y-88900000D02*
X143256000Y-87376000D01*
X143256000Y-87376000D02*
X136144000Y-87376000D01*
X128524000Y-87941685D02*
X128524000Y-87376000D01*
X128778000Y-113284000D02*
X128524000Y-113030000D01*
X161290000Y-113284000D02*
X128778000Y-113284000D01*
X128524000Y-113030000D02*
X128524000Y-87941685D01*
X130810000Y-67564000D02*
X130556000Y-67818000D01*
X128524000Y-86810315D02*
X128524000Y-87376000D01*
X130810000Y-66040000D02*
X130810000Y-67564000D01*
X130556000Y-67818000D02*
X128778000Y-67818000D01*
X128778000Y-67818000D02*
X128524000Y-68072000D01*
X128524000Y-68072000D02*
X128524000Y-86810315D01*
X160020000Y-129540000D02*
X160020000Y-121666010D01*
X160020000Y-121666010D02*
X160019990Y-121666000D01*
X144780000Y-86360000D02*
X136709675Y-86360000D01*
X147320000Y-88900000D02*
X144780000Y-86360000D01*
X136709675Y-86360000D02*
X136143990Y-86360000D01*
X133350000Y-68072000D02*
X133350000Y-66040000D01*
X129540000Y-112522000D02*
X129286000Y-112268000D01*
X129286000Y-68834000D02*
X129540000Y-68580000D01*
X132842000Y-68580000D02*
X133350000Y-68072000D01*
X129540000Y-68580000D02*
X132842000Y-68580000D01*
X160020000Y-112522000D02*
X129540000Y-112522000D01*
X129286000Y-112268000D02*
X129286000Y-68834000D01*
X162560000Y-137160000D02*
X163830000Y-135890000D01*
X163830000Y-135890000D02*
X163830000Y-121666000D01*
X136709681Y-85344000D02*
X136143996Y-85344000D01*
X146812000Y-85344000D02*
X136709681Y-85344000D01*
X153162000Y-87122000D02*
X148590000Y-87122000D01*
X148590000Y-87122000D02*
X146812000Y-85344000D01*
X154940000Y-88900000D02*
X153162000Y-87122000D01*
X130048000Y-85909703D02*
X130048000Y-85344018D01*
X130048000Y-111506000D02*
X130048000Y-85909703D01*
X130302000Y-111760000D02*
X130048000Y-111506000D01*
X163830000Y-111760000D02*
X130302000Y-111760000D01*
X135890000Y-69088000D02*
X135636000Y-69342000D01*
X135890000Y-66040000D02*
X135890000Y-69088000D01*
X130302000Y-69342000D02*
X130048000Y-69596000D01*
X135636000Y-69342000D02*
X130302000Y-69342000D01*
X130048000Y-84778333D02*
X130048000Y-85344018D01*
X130048000Y-69596000D02*
X130048000Y-84778333D01*
X166370000Y-135890000D02*
X166370000Y-121666000D01*
X165100000Y-137160000D02*
X166370000Y-135890000D01*
X136709685Y-84328000D02*
X136144000Y-84328000D01*
X154940000Y-86360000D02*
X148844000Y-86360000D01*
X157480000Y-88900000D02*
X154940000Y-86360000D01*
X146812000Y-84328000D02*
X136709685Y-84328000D01*
X148844000Y-86360000D02*
X146812000Y-84328000D01*
X130810000Y-84893685D02*
X130810000Y-84328000D01*
X130810000Y-110744000D02*
X130810000Y-84893685D01*
X166370000Y-110998000D02*
X131064000Y-110998000D01*
X131064000Y-110998000D02*
X130810000Y-110744000D01*
X138430000Y-69850000D02*
X138176000Y-70104000D01*
X138430000Y-66040000D02*
X138430000Y-69850000D01*
X130810000Y-83762315D02*
X130810000Y-84328000D01*
X131064000Y-70104000D02*
X130810000Y-70358000D01*
X130810000Y-70358000D02*
X130810000Y-83762315D01*
X138176000Y-70104000D02*
X131064000Y-70104000D01*
X154432000Y-78232000D02*
X150368000Y-78232000D01*
X157480000Y-81280000D02*
X154432000Y-78232000D01*
X131826000Y-110236000D02*
X131572000Y-109982000D01*
X131572000Y-83566000D02*
X131572000Y-78232000D01*
X131572000Y-109982000D02*
X131572000Y-83566000D01*
X168910000Y-110236000D02*
X131826000Y-110236000D01*
X168910000Y-135890000D02*
X168910000Y-121666000D01*
X167640000Y-137160000D02*
X168910000Y-135890000D01*
X135382000Y-78232000D02*
X146812000Y-78232000D01*
X140716000Y-70866000D02*
X140970000Y-70612000D01*
X131826000Y-70866000D02*
X140716000Y-70866000D01*
X140970000Y-70612000D02*
X140970000Y-66040000D01*
X131572000Y-78232000D02*
X131572000Y-71120000D01*
X131572000Y-71120000D02*
X131826000Y-70866000D01*
X132334000Y-82804000D02*
X132334000Y-79756000D01*
X132588000Y-109474000D02*
X132334000Y-109220000D01*
X132334000Y-79756000D02*
X132334000Y-78994000D01*
X132334000Y-109220000D02*
X132334000Y-82804000D01*
X145288000Y-78994000D02*
X145795958Y-78994000D01*
X134620000Y-78994000D02*
X145288000Y-78994000D01*
X154178000Y-78994000D02*
X150171685Y-78994000D01*
X150171685Y-78994000D02*
X149606000Y-78994000D01*
X154940000Y-81280000D02*
X154940000Y-79756000D01*
X154940000Y-79756000D02*
X154178000Y-78994000D01*
X170180000Y-109474000D02*
X132588000Y-109474000D01*
X170180000Y-129540000D02*
X170180000Y-121666000D01*
X143510000Y-71120000D02*
X143510000Y-66040000D01*
X143002000Y-71628000D02*
X143510000Y-71120000D01*
X132588000Y-71628000D02*
X143002000Y-71628000D01*
X132334000Y-78994000D02*
X132334000Y-71882000D01*
X132334000Y-71882000D02*
X132588000Y-71628000D01*
X148844000Y-79756000D02*
X148844000Y-73914000D01*
X147320000Y-81280000D02*
X148844000Y-79756000D01*
X167640000Y-129540000D02*
X167640000Y-121666004D01*
X167640000Y-121666004D02*
X167640004Y-121666000D01*
X133350000Y-108712000D02*
X167640000Y-108712000D01*
X133096000Y-108458000D02*
X133350000Y-108712000D01*
X146050000Y-72390006D02*
X146049994Y-72390000D01*
X146049994Y-72390000D02*
X133350000Y-72390000D01*
X133350000Y-72390000D02*
X133096000Y-72644000D01*
X146050000Y-66040000D02*
X146050000Y-72390006D01*
X133096000Y-72644000D02*
X133096000Y-108458000D01*
X144780000Y-81280000D02*
X145288000Y-81280000D01*
X145288000Y-81280000D02*
X147574000Y-78994000D01*
X147574000Y-73406000D02*
X147320000Y-73152000D01*
X147320000Y-73152000D02*
X146558000Y-73152000D01*
X147574000Y-78994000D02*
X147574000Y-73406000D01*
X147574000Y-73406000D02*
X147828000Y-73152000D01*
X146558000Y-73152000D02*
X147828000Y-73152000D01*
X146558000Y-73152000D02*
X134112000Y-73152000D01*
X133858000Y-107696000D02*
X134112000Y-107950000D01*
X160978307Y-107950000D02*
X161543992Y-107950000D01*
X134112000Y-73152000D02*
X133858000Y-73406000D01*
X134112000Y-107950000D02*
X160978307Y-107950000D01*
X133858000Y-73406000D02*
X133858000Y-107696000D01*
X165100000Y-121666012D02*
X165099988Y-121666000D01*
X165100000Y-129540000D02*
X165100000Y-121666012D01*
X148590000Y-72898000D02*
X148590000Y-66040000D01*
X147828000Y-73152000D02*
X148336000Y-73152000D01*
X148336000Y-73152000D02*
X148590000Y-72898000D01*
X162560000Y-81280000D02*
X161760001Y-80480001D01*
X161760001Y-80480001D02*
X160528000Y-79248000D01*
X160528000Y-79248000D02*
X156464000Y-79248000D01*
X156464000Y-79248000D02*
X154686000Y-77470000D01*
X154686000Y-77470000D02*
X149606000Y-77470000D01*
X121666000Y-76200000D02*
X116840000Y-76200000D01*
X146812000Y-74168000D02*
X146812000Y-76708000D01*
X146558000Y-73914000D02*
X146812000Y-74168000D01*
X134874000Y-73914000D02*
X146558000Y-73914000D01*
X134620000Y-77470000D02*
X134620000Y-74168000D01*
X134620000Y-74168000D02*
X134874000Y-73914000D01*
X83820000Y-139954000D02*
X83820000Y-111760000D01*
X83820000Y-149860000D02*
X83820000Y-143002000D01*
X90424000Y-104336315D02*
X90424000Y-104902000D01*
X116840000Y-74168000D02*
X116586000Y-73914000D01*
X90424000Y-76962000D02*
X90424000Y-104336315D01*
X116840000Y-76200000D02*
X116840000Y-74168000D01*
X116586000Y-73914000D02*
X93472000Y-73914000D01*
X93472000Y-73914000D02*
X90424000Y-76962000D01*
X90424014Y-109981986D02*
X90424014Y-106426000D01*
X90170000Y-110236000D02*
X90424014Y-109981986D01*
X84074000Y-110236000D02*
X90170000Y-110236000D01*
X83820000Y-111760000D02*
X83820000Y-110490000D01*
X83820000Y-110490000D02*
X84074000Y-110236000D01*
X107950000Y-148590000D02*
X109220000Y-149860000D01*
X107442000Y-148082000D02*
X107950000Y-148590000D01*
X106680000Y-148082000D02*
X107442000Y-148082000D01*
X91948000Y-140208000D02*
X96520000Y-140208000D01*
X88900000Y-137160000D02*
X91948000Y-140208000D01*
X100076000Y-141478000D02*
X106680000Y-148082000D01*
X96520000Y-140208000D02*
X97790000Y-141478000D01*
X97790000Y-141478000D02*
X100076000Y-141478000D01*
X93726000Y-139446000D02*
X91440000Y-137160000D01*
X96774000Y-139446000D02*
X93726000Y-139446000D01*
X109220000Y-147320000D02*
X106934000Y-147320000D01*
X111760000Y-149860000D02*
X109220000Y-147320000D01*
X106934000Y-147320000D02*
X100330000Y-140716000D01*
X100330000Y-140716000D02*
X98044000Y-140716000D01*
X98044000Y-140716000D02*
X96774000Y-139446000D01*
X94779999Y-137959999D02*
X93980000Y-137160000D01*
X95504000Y-138684000D02*
X94779999Y-137959999D01*
X97028000Y-138684000D02*
X95504000Y-138684000D01*
X110998000Y-146558000D02*
X107188000Y-146558000D01*
X114300000Y-149860000D02*
X110998000Y-146558000D01*
X107188000Y-146558000D02*
X100584000Y-139954000D01*
X98298000Y-139954000D02*
X97028000Y-138684000D01*
X100584000Y-139954000D02*
X98298000Y-139954000D01*
X97319999Y-137959999D02*
X96520000Y-137160000D01*
X112776000Y-145796000D02*
X107442000Y-145796000D01*
X116840000Y-149860000D02*
X112776000Y-145796000D01*
X98552000Y-139192000D02*
X97319999Y-137959999D01*
X107442000Y-145796000D02*
X100838000Y-139192000D01*
X100838000Y-139192000D02*
X98552000Y-139192000D01*
X100330000Y-138430000D02*
X99060000Y-137160000D01*
X107696000Y-145034000D02*
X101092000Y-138430000D01*
X101092000Y-138430000D02*
X100330000Y-138430000D01*
X119380000Y-149860000D02*
X114554000Y-145034000D01*
X114554000Y-145034000D02*
X107696000Y-145034000D01*
X107950000Y-144272000D02*
X101600000Y-137922000D01*
X121920000Y-149860000D02*
X116332000Y-144272000D01*
X101600000Y-137922000D02*
X101600000Y-137160000D01*
X116332000Y-144272000D02*
X107950000Y-144272000D01*
X123610001Y-149010001D02*
X124460000Y-149860000D01*
X118110000Y-143510000D02*
X123610001Y-149010001D01*
X108204000Y-143510000D02*
X118110000Y-143510000D01*
X104140000Y-137160000D02*
X104140000Y-139446000D01*
X104140000Y-139446000D02*
X108204000Y-143510000D01*
X108458000Y-142748000D02*
X119888000Y-142748000D01*
X126150001Y-149010001D02*
X127000000Y-149860000D01*
X119888000Y-142748000D02*
X126150001Y-149010001D01*
X106680000Y-137160000D02*
X106680000Y-140970000D01*
X106680000Y-140970000D02*
X108458000Y-142748000D01*
X127000000Y-138291370D02*
X127000000Y-137160000D01*
X129540000Y-149860000D02*
X127000000Y-147320000D01*
X127000000Y-147320000D02*
X127000000Y-138291370D01*
X129540000Y-145796000D02*
X129540000Y-137160000D01*
X132080000Y-149860000D02*
X129540000Y-147320000D01*
X129540000Y-147320000D02*
X129540000Y-145796000D01*
X132080000Y-138291370D02*
X132080000Y-137160000D01*
X134620000Y-149860000D02*
X132080000Y-147320000D01*
X132080000Y-147320000D02*
X132080000Y-138291370D01*
X137160000Y-149860000D02*
X134620000Y-147320000D01*
X134620000Y-147320000D02*
X134620000Y-137160000D01*
X137160000Y-145796000D02*
X137160000Y-137160000D01*
X139700000Y-149860000D02*
X137160000Y-147320000D01*
X137160000Y-147320000D02*
X137160000Y-145796000D01*
X142240000Y-149860000D02*
X139700000Y-147320000D01*
X139700000Y-147320000D02*
X139700000Y-137160000D01*
X142240000Y-137160000D02*
X142240000Y-147320000D01*
X142240000Y-147320000D02*
X144780000Y-149860000D01*
X144780000Y-137160000D02*
X144780000Y-147320000D01*
X144780000Y-147320000D02*
X147320000Y-149860000D01*
X231140000Y-149860000D02*
X231140000Y-144526000D01*
X231140000Y-144526000D02*
X233680000Y-141986000D01*
X233680000Y-141986000D02*
X233680000Y-137160000D01*
X238760000Y-140970000D02*
X238760000Y-137160000D01*
X232410000Y-147320000D02*
X238760000Y-140970000D01*
X228600000Y-151384000D02*
X228854000Y-151638000D01*
X228600000Y-149860000D02*
X228600000Y-151384000D01*
X232156000Y-151638000D02*
X232410000Y-151384000D01*
X228854000Y-151638000D02*
X232156000Y-151638000D01*
X232410000Y-151384000D02*
X232410000Y-147320000D01*
X246380000Y-131572000D02*
X246380000Y-129540000D01*
X231648000Y-135830026D02*
X235906026Y-131572000D01*
X231648000Y-142494000D02*
X231648000Y-135830026D01*
X226060000Y-149860000D02*
X226060000Y-148082000D01*
X235906026Y-131572000D02*
X243840000Y-131572000D01*
X226060000Y-148082000D02*
X231648000Y-142494000D01*
X81280000Y-111760000D02*
X80010000Y-110490000D01*
X80010000Y-110490000D02*
X80010000Y-101092000D01*
X81026000Y-129540000D02*
X60960000Y-129540000D01*
X81280000Y-111760000D02*
X81280000Y-129286000D01*
X81280000Y-129286000D02*
X81026000Y-129540000D01*
X78740000Y-97028000D02*
X78740000Y-88900000D01*
X80010000Y-97282000D02*
X78994000Y-97282000D01*
X78994000Y-97282000D02*
X78740000Y-97028000D01*
X78740000Y-111760000D02*
X77470000Y-110490000D01*
X77470000Y-110490000D02*
X77470000Y-101092000D01*
X78740000Y-126746000D02*
X78740000Y-111760000D01*
X60960000Y-127000000D02*
X78486000Y-127000000D01*
X78486000Y-127000000D02*
X78740000Y-126746000D01*
X76200000Y-97028000D02*
X76200000Y-88900000D01*
X77470000Y-97282000D02*
X76454000Y-97282000D01*
X76454000Y-97282000D02*
X76200000Y-97028000D01*
X76200000Y-111760000D02*
X74930000Y-110490000D01*
X74930000Y-110490000D02*
X74930000Y-101092000D01*
X75946000Y-124460000D02*
X60960000Y-124460000D01*
X76200000Y-124206000D02*
X75946000Y-124460000D01*
X73660000Y-97028000D02*
X73660000Y-88900000D01*
X74930000Y-97282000D02*
X73914000Y-97282000D01*
X73914000Y-97282000D02*
X73660000Y-97028000D01*
X76200000Y-111760000D02*
X76200000Y-124206000D01*
X73660000Y-111760000D02*
X72390000Y-110490000D01*
X72390000Y-110490000D02*
X72390000Y-101092000D01*
X60960000Y-121920000D02*
X73406000Y-121920000D01*
X73406000Y-121920000D02*
X73660000Y-121666000D01*
X71120000Y-97028000D02*
X71120000Y-88900000D01*
X72390000Y-97282000D02*
X71374000Y-97282000D01*
X71374000Y-97282000D02*
X71120000Y-97028000D01*
X73660000Y-121666000D02*
X73660000Y-111760000D01*
X82296000Y-105156000D02*
X81280000Y-104140000D01*
X95758000Y-105664000D02*
X82804000Y-105664000D01*
X82804000Y-105664000D02*
X82296000Y-105156000D01*
X96012000Y-120904000D02*
X96012000Y-105918000D01*
X96012000Y-105918000D02*
X95758000Y-105664000D01*
X81280000Y-104140000D02*
X81280000Y-101092000D01*
X81280000Y-98044000D02*
X68834000Y-98044000D01*
X68834000Y-98044000D02*
X68580000Y-97790000D01*
X68580000Y-97790000D02*
X68580000Y-89154000D01*
X68580000Y-89154000D02*
X68580000Y-88900000D01*
X187198000Y-120904000D02*
X104902000Y-120904000D01*
X197866000Y-120142000D02*
X197104000Y-120904000D01*
X244856000Y-120142000D02*
X197866000Y-120142000D01*
X245110000Y-120396000D02*
X244856000Y-120142000D01*
X246380000Y-137160000D02*
X245110000Y-135890000D01*
X245110000Y-135890000D02*
X245110000Y-120396000D01*
X228599998Y-134619998D02*
X228853998Y-134619998D01*
X223520000Y-129540000D02*
X228599998Y-134619998D01*
X242062000Y-134366000D02*
X234753673Y-134366000D01*
X233991685Y-135127988D02*
X233426000Y-135127988D01*
X243840000Y-137160000D02*
X243840000Y-136144000D01*
X234753673Y-134366000D02*
X233991685Y-135127988D01*
X243840000Y-136144000D02*
X242062000Y-134366000D01*
X179578000Y-139700000D02*
X229108000Y-139700000D01*
X177038000Y-139700000D02*
X156971994Y-139700000D01*
X107696000Y-140716002D02*
X119379998Y-140716002D01*
X119379998Y-140716002D02*
X119380000Y-140716000D01*
X83820000Y-104140000D02*
X86360000Y-104140000D01*
X82550000Y-107696000D02*
X83820000Y-106426000D01*
X82550000Y-116840000D02*
X82550000Y-107696000D01*
X82550000Y-117094000D02*
X82550000Y-116840000D01*
X90366307Y-140716000D02*
X90931992Y-140716000D01*
X82804000Y-140716000D02*
X90366307Y-140716000D01*
X82550000Y-116840000D02*
X82550000Y-140462000D01*
X82550000Y-140462000D02*
X82804000Y-140716000D01*
X153162000Y-106426000D02*
X153162000Y-106426000D01*
X139700000Y-89954000D02*
X139700000Y-88900000D01*
X121666000Y-92202000D02*
X105664000Y-92202000D01*
X139700000Y-91948000D02*
X139700000Y-89954000D01*
X145034000Y-92202000D02*
X139954000Y-92202000D01*
X139954000Y-92202000D02*
X139700000Y-91948000D01*
X139700000Y-91948000D02*
X139446000Y-92202000D01*
X139446000Y-92202000D02*
X139954000Y-92202000D01*
X139446000Y-92202000D02*
X138684000Y-92202000D01*
X94234000Y-92202000D02*
X96520000Y-92202000D01*
X93980000Y-88900000D02*
X93980000Y-91948000D01*
X93980000Y-91948000D02*
X94234000Y-92202000D01*
X236220000Y-137160000D02*
X236728000Y-137160000D01*
X250698000Y-106426000D02*
X153162000Y-106426000D01*
X243840000Y-139192000D02*
X250698000Y-139192000D01*
X242570000Y-137922000D02*
X243840000Y-139192000D01*
X250952000Y-138938000D02*
X250952000Y-106680000D01*
X250698000Y-139192000D02*
X250952000Y-138938000D01*
X250952000Y-106680000D02*
X250698000Y-106426000D01*
X242570000Y-137922000D02*
X242570000Y-135890000D01*
X242570000Y-135890000D02*
X242062000Y-135382000D01*
X242062000Y-135382000D02*
X236728000Y-135382000D01*
X236728000Y-135382000D02*
X236474000Y-135382000D01*
X236474000Y-135382000D02*
X236220000Y-135636000D01*
X236220000Y-135636000D02*
X236220000Y-137160000D01*
X186436000Y-120142000D02*
X142748000Y-120142000D01*
X127000000Y-129540000D02*
X127000000Y-121666000D01*
X142748000Y-120142000D02*
X127000000Y-120142000D01*
X88900000Y-129540000D02*
X88900000Y-125730000D01*
X88900000Y-125730000D02*
X89154000Y-125476000D01*
X89154000Y-125476000D02*
X96520000Y-125476000D01*
X96520000Y-125476000D02*
X96774000Y-125222000D01*
X96774000Y-125222000D02*
X96774000Y-120142000D01*
X127000000Y-120142000D02*
X103886016Y-120142000D01*
X248666000Y-119380000D02*
X197104000Y-119380000D01*
X248920000Y-129540000D02*
X248920000Y-119634000D01*
X197104000Y-119380000D02*
X196342000Y-120142000D01*
X248920000Y-119634000D02*
X248666000Y-119380000D01*
X141224000Y-105918000D02*
X141224000Y-107188000D01*
X141478000Y-105664000D02*
X141224000Y-105918000D01*
X153670000Y-105664000D02*
X141478000Y-105664000D01*
X154178000Y-105664000D02*
X153670000Y-105664000D01*
X152654000Y-85090000D02*
X164592000Y-85090000D01*
X150368000Y-82804000D02*
X152654000Y-85090000D01*
X142240000Y-81280000D02*
X143764000Y-82804000D01*
X143764000Y-82804000D02*
X150368000Y-82804000D01*
X164592000Y-85090000D02*
X164846000Y-85344000D01*
X164846000Y-85344000D02*
X164846000Y-92202000D01*
X164846000Y-105664000D02*
X154178000Y-105664000D01*
X141478000Y-126492000D02*
X141224000Y-126238000D01*
X147066000Y-126492000D02*
X141478000Y-126492000D01*
X147320000Y-129540000D02*
X147320000Y-126746000D01*
X141224000Y-126238000D02*
X141224000Y-121666000D01*
X147320000Y-126746000D02*
X147066000Y-126492000D01*
X241046000Y-105664000D02*
X164846000Y-105664000D01*
X241300000Y-88900000D02*
X241300000Y-105410000D01*
X241300000Y-105410000D02*
X241046000Y-105664000D01*
X150876000Y-101854000D02*
X150876000Y-92964000D01*
X150876000Y-101854000D02*
X150876000Y-102616000D01*
X150876000Y-102616000D02*
X155448000Y-102616000D01*
X171958000Y-102616000D02*
X172212000Y-102616000D01*
X155448000Y-102616000D02*
X172212000Y-102616000D01*
X150876000Y-102616000D02*
X138430000Y-102616000D01*
X138430000Y-102616000D02*
X138176000Y-102870000D01*
X138176000Y-102870000D02*
X138176000Y-107188000D01*
X138176000Y-122174000D02*
X138176000Y-121920000D01*
X150876000Y-92964000D02*
X153416000Y-90424000D01*
X153416000Y-90424000D02*
X158496000Y-90424000D01*
X158496000Y-90424000D02*
X160020000Y-88900000D01*
X138176000Y-127000000D02*
X138176000Y-122174000D01*
X137160000Y-129540000D02*
X138176000Y-128524000D01*
X138176000Y-128524000D02*
X138176000Y-127000000D01*
X138176000Y-122174000D02*
X138176000Y-121666000D01*
X230886000Y-102616000D02*
X231140000Y-102362000D01*
X172212000Y-102616000D02*
X230886000Y-102616000D01*
X231140000Y-88900000D02*
X231140000Y-102362000D01*
X164846000Y-84328000D02*
X165608000Y-85090000D01*
X165608000Y-85090000D02*
X165608000Y-91440000D01*
X149860000Y-81280000D02*
X152908000Y-84328000D01*
X152908000Y-84328000D02*
X164846000Y-84328000D01*
X140462000Y-127000000D02*
X140462000Y-122428000D01*
X144526000Y-127254000D02*
X140716000Y-127254000D01*
X140716000Y-127254000D02*
X140462000Y-127000000D01*
X144780000Y-129540000D02*
X144780000Y-127508000D01*
X144780000Y-127508000D02*
X144526000Y-127254000D01*
X238506000Y-104902000D02*
X238760000Y-104648000D01*
X165608000Y-104902000D02*
X238506000Y-104902000D01*
X238760000Y-88900000D02*
X238760000Y-104648000D01*
X140462000Y-105156000D02*
X140716000Y-104902000D01*
X140716000Y-104902000D02*
X153162000Y-104902000D01*
X154686000Y-104902000D02*
X153162000Y-104902000D01*
X165608000Y-104902000D02*
X154686000Y-104902000D01*
X140462000Y-106426000D02*
X140462000Y-105156000D01*
X172212000Y-101854000D02*
X171958000Y-101854000D01*
X137414000Y-106426000D02*
X137414000Y-102108000D01*
X137414000Y-102108000D02*
X137668000Y-101854000D01*
X137668000Y-101854000D02*
X150114000Y-101854000D01*
X150114000Y-92964000D02*
X150114000Y-101854000D01*
X150114000Y-92710000D02*
X150114000Y-92964000D01*
X152400000Y-88900000D02*
X152400000Y-90424000D01*
X152400000Y-90424000D02*
X150114000Y-92710000D01*
X137160000Y-128016000D02*
X137414000Y-127762000D01*
X134874000Y-128016000D02*
X137160000Y-128016000D01*
X137414000Y-127762000D02*
X137414000Y-122428000D01*
X134620000Y-129540000D02*
X134620000Y-128270000D01*
X134620000Y-128270000D02*
X134874000Y-128016000D01*
X172212000Y-101854000D02*
X151638000Y-101854000D01*
X228600000Y-88900000D02*
X228600000Y-101600000D01*
X228346000Y-101854000D02*
X172212000Y-101854000D01*
X228600000Y-101600000D02*
X228346000Y-101854000D01*
X152400000Y-104140000D02*
X155448000Y-104140000D01*
X152400000Y-104140000D02*
X139954000Y-104140000D01*
X139954000Y-104140000D02*
X139700000Y-104394000D01*
X139700000Y-104394000D02*
X139700000Y-107188000D01*
X155448000Y-104140000D02*
X166370000Y-104140000D01*
X165100000Y-83566000D02*
X166370000Y-84836000D01*
X166370000Y-84836000D02*
X166370000Y-92202000D01*
X152400000Y-81280000D02*
X154686000Y-83566000D01*
X154686000Y-83566000D02*
X165100000Y-83566000D01*
X139700000Y-127762000D02*
X139700000Y-121666000D01*
X139954000Y-128016000D02*
X139700000Y-127762000D01*
X141478000Y-128016000D02*
X139954000Y-128016000D01*
X142240000Y-129540000D02*
X142240000Y-128778000D01*
X142240000Y-128778000D02*
X141478000Y-128016000D01*
X235966000Y-104140000D02*
X236220000Y-103886000D01*
X166370000Y-104140000D02*
X235966000Y-104140000D01*
X236220000Y-88900000D02*
X236220000Y-103886000D01*
X171958000Y-101092000D02*
X172212000Y-101092000D01*
X149352000Y-101092000D02*
X136906000Y-101092000D01*
X136906000Y-101092000D02*
X136652000Y-101346000D01*
X136652000Y-101346000D02*
X136652000Y-107188000D01*
X149352000Y-100076000D02*
X149352000Y-101092000D01*
X149352000Y-89662000D02*
X149352000Y-100076000D01*
X149860000Y-88900000D02*
X149860000Y-89154000D01*
X149860000Y-89154000D02*
X149352000Y-89662000D01*
X136652000Y-127000000D02*
X136652000Y-121666000D01*
X136398000Y-127254000D02*
X136652000Y-127000000D01*
X132334000Y-127254000D02*
X136398000Y-127254000D01*
X132080000Y-129540000D02*
X132080000Y-127508000D01*
X132080000Y-127508000D02*
X132334000Y-127254000D01*
X172212000Y-101092000D02*
X152400000Y-101092000D01*
X225806000Y-101092000D02*
X226060000Y-100838000D01*
X172212000Y-101092000D02*
X225806000Y-101092000D01*
X226060000Y-88900000D02*
X226060000Y-100838000D01*
X171958000Y-103378000D02*
X167132000Y-103378000D01*
X167132000Y-84582000D02*
X167132000Y-91440000D01*
X165354000Y-82804000D02*
X167132000Y-84582000D01*
X160020000Y-81280000D02*
X161544000Y-82804000D01*
X161544000Y-82804000D02*
X165354000Y-82804000D01*
X187960000Y-103378000D02*
X171958000Y-103378000D01*
X188214000Y-103378000D02*
X187960000Y-103378000D01*
X138938000Y-128778000D02*
X138938000Y-122428000D01*
X139700000Y-129540000D02*
X138938000Y-128778000D01*
X233426000Y-103378000D02*
X187960000Y-103378000D01*
X233680000Y-88900000D02*
X233680000Y-103124000D01*
X233680000Y-103124000D02*
X233426000Y-103378000D01*
X138938000Y-103632000D02*
X139192000Y-103378000D01*
X138938000Y-106426000D02*
X138938000Y-103632000D01*
X139192000Y-103378000D02*
X151638000Y-103378000D01*
X154686000Y-103378000D02*
X151638000Y-103378000D01*
X167132000Y-103378000D02*
X154686000Y-103378000D01*
X135890000Y-106426000D02*
X135890000Y-100584000D01*
X136144000Y-100330000D02*
X148590000Y-100330000D01*
X135890000Y-100584000D02*
X136144000Y-100330000D01*
X148590000Y-92456000D02*
X148590000Y-99314000D01*
X148590000Y-99314000D02*
X148590000Y-100330000D01*
X146812000Y-90678000D02*
X148590000Y-92456000D01*
X142240000Y-88900000D02*
X144018000Y-90678000D01*
X144018000Y-90678000D02*
X146812000Y-90678000D01*
X135636000Y-126492000D02*
X135890000Y-126238000D01*
X129540000Y-129540000D02*
X129540000Y-126746000D01*
X135890000Y-126238000D02*
X135890000Y-122428000D01*
X129794000Y-126492000D02*
X135636000Y-126492000D01*
X129540000Y-126746000D02*
X129794000Y-126492000D01*
X152203685Y-100330000D02*
X151638000Y-100330000D01*
X223520000Y-100076000D02*
X223266000Y-100330000D01*
X223266000Y-100330000D02*
X152203685Y-100330000D01*
X223520000Y-88900000D02*
X223520000Y-100076000D01*
X147828000Y-99568000D02*
X134620000Y-99568000D01*
X121666000Y-99568000D02*
X107950000Y-99568000D01*
X103124000Y-99568000D02*
X102870000Y-99314000D01*
X102870000Y-99822000D02*
X103124000Y-99568000D01*
X103124000Y-99568000D02*
X107950000Y-99568000D01*
X102870000Y-99314000D02*
X102870000Y-99568000D01*
X102870000Y-99568000D02*
X102870000Y-99822000D01*
X91186000Y-83312000D02*
X91186000Y-99314000D01*
X91440000Y-99568000D02*
X95446315Y-99568000D01*
X91440000Y-83058000D02*
X91186000Y-83312000D01*
X91186000Y-99314000D02*
X91440000Y-99568000D01*
X95446315Y-99568000D02*
X96012000Y-99568000D01*
X96520000Y-81280000D02*
X94742000Y-83058000D01*
X94742000Y-83058000D02*
X91440000Y-83058000D01*
X109220000Y-126492000D02*
X108966000Y-126238000D01*
X102870000Y-125984000D02*
X102870000Y-100584000D01*
X109220000Y-129540000D02*
X109220000Y-126492000D01*
X102870000Y-100584000D02*
X102870000Y-99822000D01*
X108966000Y-126238000D02*
X103124000Y-126238000D01*
X103124000Y-126238000D02*
X102870000Y-125984000D01*
X152965685Y-99568000D02*
X152400000Y-99568000D01*
X198120000Y-99314000D02*
X197866000Y-99568000D01*
X197866000Y-99568000D02*
X152965685Y-99568000D01*
X198120000Y-88900000D02*
X198120000Y-99314000D01*
X147828000Y-96520000D02*
X134620000Y-96520000D01*
X121666000Y-96520000D02*
X109220000Y-96520000D01*
X104394000Y-96520000D02*
X109220000Y-96520000D01*
X100076000Y-96520000D02*
X99822000Y-96520000D01*
X99822000Y-96774000D02*
X100076000Y-96520000D01*
X104394000Y-96520000D02*
X100076000Y-96520000D01*
X99822000Y-96774000D02*
X99822000Y-96520000D01*
X100076000Y-96520000D02*
X99822000Y-96266000D01*
X99822000Y-96520000D02*
X99822000Y-96266000D01*
X112776000Y-90424000D02*
X114300000Y-88900000D01*
X99822000Y-92202000D02*
X100076000Y-91948000D01*
X100076000Y-91948000D02*
X104648000Y-91948000D01*
X99822000Y-96266000D02*
X99822000Y-92202000D01*
X106172000Y-90424000D02*
X112776000Y-90424000D01*
X104648000Y-91948000D02*
X106172000Y-90424000D01*
X99822000Y-99822000D02*
X99822000Y-96774000D01*
X99060000Y-129540000D02*
X99822000Y-128778000D01*
X99822000Y-128778000D02*
X99822000Y-99822000D01*
X152965685Y-96520000D02*
X152400000Y-96520000D01*
X187960000Y-96266000D02*
X187706000Y-96520000D01*
X187706000Y-96520000D02*
X152965685Y-96520000D01*
X187960000Y-88900000D02*
X187960000Y-96266000D01*
X147066000Y-98806000D02*
X135382000Y-98806000D01*
X120904000Y-98806000D02*
X108458000Y-98806000D01*
X103632000Y-98806000D02*
X102108000Y-98806000D01*
X103632000Y-98806000D02*
X108458000Y-98806000D01*
X96774000Y-98806000D02*
X97028000Y-98806000D01*
X106680000Y-127254000D02*
X106680000Y-129540000D01*
X102362000Y-127000000D02*
X106426000Y-127000000D01*
X102108000Y-98806000D02*
X102108000Y-126746000D01*
X106426000Y-127000000D02*
X106680000Y-127254000D01*
X102108000Y-126746000D02*
X102362000Y-127000000D01*
X101600000Y-83820000D02*
X92202000Y-83820000D01*
X104140000Y-81280000D02*
X101600000Y-83820000D01*
X92202000Y-83820000D02*
X91948000Y-84074000D01*
X92202000Y-98806000D02*
X96774000Y-98806000D01*
X91948000Y-84074000D02*
X91948000Y-98552000D01*
X91948000Y-98552000D02*
X92202000Y-98806000D01*
X152203685Y-98806000D02*
X151638000Y-98806000D01*
X195326000Y-98806000D02*
X152203685Y-98806000D01*
X195580000Y-88900000D02*
X195580000Y-98552000D01*
X195580000Y-98552000D02*
X195326000Y-98806000D01*
X147066000Y-95758000D02*
X135382000Y-95758000D01*
X120904000Y-95758000D02*
X100584000Y-95758000D01*
X104394000Y-91186000D02*
X104902000Y-90678000D01*
X104902000Y-90678000D02*
X106680000Y-88900000D01*
X99822000Y-91186000D02*
X104394000Y-91186000D01*
X99060000Y-95758000D02*
X99060000Y-91948000D01*
X99060000Y-91948000D02*
X99822000Y-91186000D01*
X96520000Y-128016000D02*
X96520000Y-129540000D01*
X96774000Y-127762000D02*
X96520000Y-128016000D01*
X98806000Y-127762000D02*
X96774000Y-127762000D01*
X99060000Y-95758000D02*
X99060000Y-127508000D01*
X99060000Y-127508000D02*
X98806000Y-127762000D01*
X152203685Y-95758000D02*
X151638000Y-95758000D01*
X185420000Y-95504000D02*
X185166000Y-95758000D01*
X185166000Y-95758000D02*
X152203685Y-95758000D01*
X185420000Y-88900000D02*
X185420000Y-95504000D01*
X147828000Y-98044000D02*
X134620000Y-98044000D01*
X109728000Y-98044000D02*
X109220000Y-98044000D01*
X121666000Y-98044000D02*
X110490000Y-98044000D01*
X110490000Y-98044000D02*
X109728000Y-98044000D01*
X104394000Y-98044000D02*
X109728000Y-98044000D01*
X101600000Y-98044000D02*
X104394000Y-98044000D01*
X104140000Y-128016000D02*
X103886000Y-127762000D01*
X104140000Y-129540000D02*
X104140000Y-128016000D01*
X103886000Y-127762000D02*
X101346000Y-127762000D01*
X101346000Y-98298000D02*
X101600000Y-98044000D01*
X101346000Y-127762000D02*
X101346000Y-98298000D01*
X109728000Y-84328000D02*
X110490000Y-84328000D01*
X106680000Y-81280000D02*
X109728000Y-84328000D01*
X152965685Y-98044000D02*
X152400000Y-98044000D01*
X192786000Y-98044000D02*
X152965685Y-98044000D01*
X193040000Y-97790000D02*
X192786000Y-98044000D01*
X193040000Y-88900000D02*
X193040000Y-97790000D01*
X147828000Y-94996000D02*
X134620000Y-94996000D01*
X121666000Y-94996000D02*
X101346000Y-94996000D01*
X103124000Y-89916000D02*
X104140000Y-88900000D01*
X102616000Y-90424000D02*
X103124000Y-89916000D01*
X99568000Y-90424000D02*
X102616000Y-90424000D01*
X98298000Y-94996000D02*
X98298000Y-91694000D01*
X98298000Y-91694000D02*
X99568000Y-90424000D01*
X98298000Y-99822000D02*
X98298000Y-94996000D01*
X93980000Y-127254000D02*
X94234000Y-127000000D01*
X93980000Y-129540000D02*
X93980000Y-127254000D01*
X98044000Y-127000000D02*
X98298000Y-126746000D01*
X94234000Y-127000000D02*
X98044000Y-127000000D01*
X98298000Y-126746000D02*
X98298000Y-99822000D01*
X152965685Y-94996000D02*
X152400000Y-94996000D01*
X182880000Y-94742000D02*
X182626000Y-94996000D01*
X182626000Y-94996000D02*
X152965685Y-94996000D01*
X182880000Y-94742000D02*
X182880000Y-89154000D01*
X182880000Y-89154000D02*
X182880000Y-88900000D01*
X147066000Y-97282000D02*
X135382000Y-97282000D01*
X120904000Y-97282000D02*
X113030000Y-97282000D01*
X100584000Y-128524000D02*
X101600000Y-129540000D01*
X100584000Y-97536000D02*
X100584000Y-128524000D01*
X113030000Y-97282000D02*
X100838000Y-97282000D01*
X100838000Y-97282000D02*
X100584000Y-97536000D01*
X113030000Y-82550000D02*
X113030000Y-84328000D01*
X114300000Y-81280000D02*
X113030000Y-82550000D01*
X190246000Y-97282000D02*
X152203685Y-97282000D01*
X190500000Y-88900000D02*
X190500000Y-97028000D01*
X152203685Y-97282000D02*
X151638000Y-97282000D01*
X190500000Y-97028000D02*
X190246000Y-97282000D01*
X147066000Y-94234000D02*
X135382000Y-94234000D01*
X97536000Y-89916000D02*
X96520000Y-88900000D01*
X97536000Y-94234000D02*
X97536000Y-89916000D01*
X120904000Y-94234000D02*
X100584000Y-94234000D01*
X91440000Y-126492000D02*
X91440000Y-129540000D01*
X97282000Y-126238000D02*
X91694000Y-126238000D01*
X97536000Y-94234000D02*
X97536000Y-125984000D01*
X91694000Y-126238000D02*
X91440000Y-126492000D01*
X97536000Y-125984000D02*
X97282000Y-126238000D01*
X180340000Y-93980000D02*
X180086000Y-94234000D01*
X152203685Y-94234000D02*
X151638000Y-94234000D01*
X180086000Y-94234000D02*
X152203685Y-94234000D01*
X180340000Y-93980000D02*
X180340000Y-88900000D01*
X210020001Y-137959999D02*
X210820000Y-137160000D01*
X209042000Y-138938000D02*
X210020001Y-137959999D01*
X195580000Y-137160000D02*
X197358000Y-138938000D01*
X197358000Y-138938000D02*
X209042000Y-138938000D01*
X187960000Y-129540000D02*
X187960000Y-132334000D01*
X195471999Y-131934001D02*
X195072000Y-132334000D01*
X195979999Y-131426001D02*
X195471999Y-131934001D01*
X208280000Y-137160000D02*
X204470000Y-137160000D01*
X203454000Y-136144000D02*
X203454000Y-133388000D01*
X203454000Y-133388000D02*
X201492001Y-131426001D01*
X204470000Y-137160000D02*
X203454000Y-136144000D01*
X201492001Y-131426001D02*
X195979999Y-131426001D01*
X212090000Y-135890000D02*
X213360000Y-137160000D01*
X206756000Y-135890000D02*
X212090000Y-135890000D01*
X206248000Y-136398000D02*
X206756000Y-135890000D01*
X198120000Y-129540000D02*
X199390000Y-130810000D01*
X199390000Y-130810000D02*
X201930000Y-130810000D01*
X201930000Y-130810000D02*
X204216000Y-133096000D01*
X204216000Y-133096000D02*
X204216000Y-135890000D01*
X204724000Y-136398000D02*
X206248000Y-136398000D01*
X204216000Y-135890000D02*
X204724000Y-136398000D01*
X218440000Y-137160000D02*
X215138000Y-133858000D01*
X215138000Y-133858000D02*
X213868000Y-133858000D01*
X201929994Y-134620006D02*
X196399685Y-134620006D01*
X196399685Y-134620006D02*
X195834000Y-134620006D01*
X202692000Y-133858000D02*
X201929994Y-134620006D01*
X170180000Y-137160000D02*
X172720000Y-134620000D01*
X172720000Y-134620000D02*
X185928000Y-134620000D01*
X170071999Y-131971999D02*
X169672000Y-131572000D01*
X162560000Y-129540000D02*
X162560000Y-131572012D01*
X215900000Y-137160000D02*
X211836000Y-133096000D01*
X211836000Y-133096000D02*
X209042000Y-133096000D01*
X201168000Y-133858000D02*
X195637685Y-133858000D01*
X195637685Y-133858000D02*
X195072000Y-133858000D01*
X201930000Y-133096000D02*
X201168000Y-133858000D01*
X171958000Y-133858000D02*
X185166000Y-133858000D01*
X169672000Y-131572000D02*
X171958000Y-133858000D01*
X185362315Y-133096000D02*
X185928000Y-133096000D01*
X172720000Y-129540000D02*
X176276000Y-133096000D01*
X176276000Y-133096000D02*
X185362315Y-133096000D01*
X201168000Y-132334000D02*
X200406000Y-133096000D01*
X200406000Y-133096000D02*
X196399685Y-133096000D01*
X196399685Y-133096000D02*
X195834000Y-133096000D01*
X216154000Y-132334000D02*
X209803998Y-132334000D01*
X220980000Y-137160000D02*
X216154000Y-132334000D01*
X171958000Y-119380000D02*
X172466000Y-119380000D01*
X172466000Y-119380000D02*
X122682000Y-119380000D01*
X122682000Y-119380000D02*
X122428000Y-119126000D01*
X122428000Y-96012000D02*
X122428000Y-85090000D01*
X187198000Y-119380000D02*
X172466000Y-119380000D01*
X187960000Y-120142000D02*
X187198000Y-119380000D01*
X187960000Y-121666000D02*
X187960000Y-120142000D01*
X186690000Y-126746000D02*
X186182000Y-126238000D01*
X185420000Y-137160000D02*
X186690000Y-135890000D01*
X186182000Y-126238000D02*
X186182000Y-123444000D01*
X186690000Y-135890000D02*
X186690000Y-126746000D01*
X186182000Y-123444000D02*
X187960000Y-121666000D01*
X102870000Y-85090000D02*
X120904000Y-85090000D01*
X99060000Y-88900000D02*
X102870000Y-85090000D01*
X122428000Y-100330000D02*
X103632000Y-100330000D01*
X122428000Y-100330000D02*
X122428000Y-96012000D01*
X122428000Y-119126000D02*
X122428000Y-100330000D01*
X96774000Y-100330000D02*
X91186000Y-100330000D01*
X78740000Y-100584000D02*
X78740000Y-104140000D01*
X89662000Y-100330000D02*
X78994000Y-100330000D01*
X78994000Y-100330000D02*
X78740000Y-100584000D01*
X78486000Y-100330000D02*
X78740000Y-100584000D01*
X78994000Y-100330000D02*
X78486000Y-100330000D01*
X78486000Y-100330000D02*
X66040000Y-100330000D01*
X66040000Y-100330000D02*
X66040000Y-100076000D01*
X66040000Y-100330000D02*
X66040000Y-100330000D01*
X66040000Y-98044000D02*
X66040000Y-88900000D01*
X110744000Y-71628000D02*
X110490000Y-71374000D01*
X110490000Y-71374000D02*
X110490000Y-66040000D01*
X122428000Y-85090000D02*
X122428000Y-71882000D01*
X122174000Y-71628000D02*
X110744000Y-71628000D01*
X122428000Y-71882000D02*
X122174000Y-71628000D01*
M02*
