M48
; DRILL file {KiCad (5.1.5)-3} date 2020-11-29 6:53:20 PM
; FORMAT={-:-/ absolute / inch / decimal}
; #@! TF.CreationDate,2020-11-29T18:53:20-08:00
; #@! TF.GenerationSoftware,Kicad,Pcbnew,(5.1.5)-3
; #@! TF.FileFunction,Plated,1,2,PTH
FMAT,2
INCH
T1C0.0157
T2C0.0315
T3C0.0354
T4C0.0394
%
G90
G05
T1
X2.88Y-3.3
X2.88Y-5.3
X2.88Y-5.35
X2.9Y-3.47
X2.9Y-3.91
X2.9Y-3.97
X2.9Y-3.42
X2.91Y-3.33
X2.91Y-3.6
X2.94Y-4.6
X2.94Y-4.65
X2.95Y-4.988
X2.97Y-3.81
X2.98Y-4.9
X2.98Y-5.02
X3.0Y-3.99
X3.01Y-4.68
X3.03Y-4.12
X3.07Y-4.68
X3.08Y-3.33
X3.09Y-3.81
X3.1Y-3.99
X3.1Y-5.02
X3.1Y-5.74
X3.1Y-5.89
X3.11Y-3.3
X3.12Y-4.12
X3.14Y-4.99
X3.3Y-5.71
X3.3Y-5.89
X3.32Y-5.02
X3.35Y-5.71
X3.35Y-5.89
X3.39Y-3.12
X3.4Y-3.64
X3.4Y-4.99
X3.4Y-4.32
X3.5Y-3.99
X3.55Y-5.16
X3.59Y-3.06
X3.6Y-5.68
X3.6Y-5.92
X3.61Y-5.52
X3.63Y-4.52
X3.65Y-5.68
X3.65Y-5.92
X3.69Y-5.52
X3.7Y-3.64
X3.7Y-4.32
X3.71Y-4.04
X3.72Y-5.49
X3.73Y-4.52
X3.8Y-3.33
X3.8886Y-4.118
X3.89Y-3.27
X3.89Y-3.33
X3.89Y-3.58
X3.89Y-3.79
X3.89Y-4.01
X3.89Y-4.26
X3.89Y-4.39
X3.91Y-4.16
X3.92Y-3.24
X3.92Y-3.3
X3.92Y-3.61
X3.92Y-3.82
X3.92Y-3.98
X3.92Y-4.29
X3.92Y-4.42
X3.98Y-4.56
X3.98Y-4.6
X4.01Y-4.92
X4.01Y-4.97
X4.01Y-5.16
X4.04Y-5.28
X4.07Y-5.25
X4.1Y-5.28
X4.15Y-5.48
X4.15Y-5.53
X4.19Y-3.27
X4.19Y-3.55
X4.19Y-3.61
X4.19Y-4.0
X4.19Y-4.23
X4.19Y-4.29
X4.22Y-3.24
X4.22Y-3.3
X4.22Y-4.04
X4.23Y-5.69
X4.25Y-3.33
X4.27Y-5.73
X4.31Y-3.8
X4.31Y-3.85
X4.45Y-6.05
X4.45Y-4.37
X4.45Y-4.43
X4.45Y-4.49
X4.45Y-4.55
X4.45Y-4.61
X4.45Y-4.67
X4.46Y-5.17
X4.48Y-4.34
X4.48Y-4.4
X4.48Y-4.46
X4.48Y-4.52
X4.48Y-4.58
X4.48Y-4.64
X4.5Y-5.13
X4.5Y-5.5
X4.5Y-5.62
X4.5Y-6.05
X4.52Y-4.31
X4.52Y-4.7
X4.55Y-5.09
X4.55Y-5.17
X4.5698Y-4.3
X4.6Y-4.7
X4.65Y-5.09
X4.65Y-5.17
X4.65Y-5.5
X4.65Y-5.59
X4.69Y-3.65
X4.74Y-3.65
X4.79Y-4.31
X4.8Y-4.7
X4.85Y-5.09
X4.85Y-5.32
X4.85Y-5.5
X4.85Y-5.56
X5.0Y-4.31
X5.0Y-4.7
X5.05Y-5.07
X5.05Y-5.32
X5.1Y-5.14
X5.1Y-5.32
X5.1Y-5.53
X5.1Y-6.04
X5.2Y-5.56
X5.2Y-6.04
X5.25Y-3.89
X5.25Y-3.95
X5.25Y-4.7
X5.25Y-5.06
X5.3Y-4.22
X5.3Y-4.27
X5.3Y-4.7
X5.3Y-5.32
X5.3Y-5.59
X5.3Y-6.04
X5.35Y-3.98
X5.35Y-3.89
X5.35Y-4.13
X5.35Y-4.27
X5.35Y-4.7
X5.35Y-5.06
X5.4Y-5.32
X5.4Y-5.62
X5.4Y-6.04
X5.45Y-3.89
X5.45Y-4.01
X5.45Y-4.27
X5.45Y-4.7
X5.45Y-5.05
X5.5Y-3.95
X5.5Y-4.07
X5.5Y-4.31
X5.5Y-4.7
X5.5Y-5.32
X5.5Y-5.65
X5.5Y-6.04
X5.51Y-5.11
X5.51Y-5.03
X5.55Y-3.89
X5.55Y-4.04
X5.6Y-3.92
X5.6Y-4.1
X5.6Y-4.31
X5.6Y-4.7
X5.6Y-5.68
X5.6Y-6.04
X5.65Y-3.89
X5.65Y-4.07
X5.7Y-5.71
X5.7Y-6.04
X5.75Y-3.89
X5.75Y-4.1
X5.8Y-5.74
X5.8Y-6.04
X5.85Y-3.89
X5.85Y-4.13
X5.9Y-5.77
X5.9Y-6.04
X5.95Y-3.89
X5.95Y-4.16
X6.0Y-5.07
X6.0Y-5.8
X6.0Y-6.04
X6.05Y-3.89
X6.05Y-4.19
X6.1Y-5.83
X6.1Y-6.04
X6.15Y-3.89
X6.15Y-4.22
X6.2Y-5.62
X6.2Y-5.74
X6.2Y-5.86
X6.2Y-6.04
X6.24Y-4.43
X6.25Y-3.89
X6.25Y-4.25
X6.25Y-4.7
X6.25Y-5.03
X6.25Y-5.32
X6.29Y-4.43
X6.3Y-4.7
X6.3Y-5.89
X6.3Y-6.04
X6.35Y-5.71
X6.35Y-3.89
X6.35Y-4.28
X6.35Y-5.03
X6.35Y-5.32
X6.35Y-5.62
X6.4Y-5.17
X6.4Y-5.32
X6.4Y-5.92
X6.4Y-6.04
X6.45Y-4.31
X6.45Y-3.89
X6.49Y-4.43
X6.5Y-4.7
X6.5Y-5.2
X6.5Y-5.32
X6.5Y-5.95
X6.5Y-6.04
X6.55Y-3.89
X6.55Y-4.34
X6.55Y-5.03
X6.55Y-5.32
X6.55Y-5.62
X6.55Y-5.68
X6.6Y-5.23
X6.6Y-5.32
X6.6Y-5.98
X6.6Y-6.04
X6.65Y-3.89
X6.65Y-4.37
X6.7Y-3.65
X6.7Y-4.43
X6.7Y-4.7
X6.7Y-5.03
X6.7Y-5.14
X6.7Y-5.26
X6.7Y-5.32
X6.75Y-5.32
X6.75Y-5.0
X6.75Y-3.65
X6.8Y-5.14
X6.8Y-5.32
X6.95Y-4.13
X6.95Y-4.7
X6.95Y-4.99
X7.0Y-5.32
X7.05Y-4.1
X7.05Y-4.7
X7.1Y-5.03
X7.1Y-5.32
X7.15Y-4.07
X7.15Y-4.7
X7.2Y-5.03
X7.2Y-5.32
X7.25Y-5.03
X7.25Y-5.11
X7.3Y-4.04
X7.3Y-4.7
X7.61Y-5.07
X7.66Y-5.07
X7.89Y-5.86
X7.9Y-5.74
X7.94Y-4.55
X7.95Y-4.7
X7.95Y-5.32
X7.95Y-5.03
X7.99Y-4.5502
X8.0Y-4.7
X8.04Y-5.83
X8.05Y-5.03
X8.05Y-5.32
X8.05Y-5.74
X8.1Y-5.17
X8.1Y-5.32
X8.19Y-4.55
X8.2Y-4.7
X8.2Y-5.2
X8.2Y-5.32
X8.24Y-5.8
X8.25Y-5.03
X8.25Y-5.32
X8.25Y-5.74
X8.3Y-5.23
X8.3Y-5.32
X8.4Y-4.55
X8.4Y-4.7
X8.4Y-5.03
X8.4Y-5.14
X8.4Y-5.26
X8.4Y-5.32
X8.45Y-5.0
X8.45Y-5.32
X8.5Y-5.14
X8.5Y-5.32
X8.65Y-4.25
X8.65Y-4.7
X8.65Y-5.0
X8.7Y-5.32
X8.75Y-4.22
X8.75Y-4.7
X8.8Y-5.03
X8.8Y-5.32
X8.85Y-4.19
X8.85Y-4.7
X8.9Y-5.03
X8.9Y-5.32
X8.96Y-5.03
X8.96Y-5.11
X9.0Y-4.16
X9.0Y-4.7
X9.0Y-5.88
X9.22Y-4.07
X9.22Y-4.12
X9.22Y-4.41
X9.27Y-4.41
X9.5Y-4.5
X9.5Y-4.55
X9.5Y-4.71
X9.5Y-4.76
X9.6Y-5.62
X9.6Y-5.88
X9.6Y-5.49
X9.65Y-5.08
X9.65Y-5.32
X9.68Y-5.53
X9.71Y-4.37
X9.71Y-4.52
X9.71Y-5.56
X9.74Y-4.34
X9.74Y-4.49
X9.74Y-5.65
X9.75Y-5.08
X9.75Y-5.32
X9.77Y-4.31
X9.77Y-4.52
X9.77Y-5.68
X9.8Y-4.28
X9.8Y-4.49
X9.8Y-5.17
X9.8Y-5.32
X9.85Y-4.88
X9.9Y-5.2
X9.9Y-5.32
X9.92Y-4.56
X9.93Y-5.03
X9.93Y-5.08
X9.95Y-5.32
X9.95Y-5.56
X9.97Y-5.17
X10.0Y-5.23
X10.0Y-5.32
X10.1Y-5.26
X10.1Y-5.32
X10.13Y-5.68
X10.15Y-5.08
X10.15Y-5.32
X10.15Y-5.53
X10.27Y-5.32
X10.33Y-5.65
X10.34Y-5.11
X10.37Y-5.14
X10.43Y-5.14
X10.59Y-5.32
X10.6Y-5.11
X10.65Y-4.69
X10.65Y-4.87
T2
X9.3Y-3.5
X9.3Y-3.8
X9.4Y-3.5
X9.4Y-3.8
X9.5Y-3.5
X9.5Y-3.8
X9.6Y-3.5
X9.6Y-3.8
X9.7Y-3.5
X9.7Y-3.8
X9.8Y-3.5
X9.8Y-3.8
X9.9Y-3.5
X9.9Y-3.8
X10.0Y-3.5
X10.0Y-3.8
X10.1Y-3.5
X10.1Y-3.8
X10.2Y-3.5
X10.2Y-3.8
X7.3Y-3.5
X7.3Y-3.8
X7.4Y-3.5
X7.4Y-3.8
X7.5Y-3.5
X7.5Y-3.8
X7.6Y-3.5
X7.6Y-3.8
X7.7Y-3.5
X7.7Y-3.8
X7.8Y-3.5
X7.8Y-3.8
X7.9Y-3.5
X7.9Y-3.8
X8.0Y-3.5
X8.0Y-3.8
X8.1Y-3.5
X8.1Y-3.8
X8.2Y-3.5
X8.2Y-3.8
X9.6Y-4.8
X9.6Y-5.4
X9.7Y-4.8
X9.7Y-5.4
X9.8Y-4.8
X9.8Y-5.4
X9.9Y-4.8
X9.9Y-5.4
X10.0Y-4.8
X10.0Y-5.4
X10.1Y-4.8
X10.1Y-5.4
X10.2Y-4.8
X10.2Y-5.4
X10.3Y-4.8
X10.3Y-5.4
X10.4Y-4.8
X10.4Y-5.4
X10.5Y-4.8
X10.5Y-5.4
X10.6Y-4.8
X10.6Y-5.4
X10.7Y-4.8
X10.7Y-5.4
X9.4Y-3.3
X9.5Y-3.3
X9.6Y-3.3
X9.7Y-3.3
X9.8Y-3.3
X9.9Y-3.3
X10.0Y-3.3
X10.1Y-3.3
X10.2Y-3.3
X3.1Y-3.9
X3.1Y-4.2
X3.2Y-3.9
X3.2Y-4.2
X3.3Y-3.9
X3.3Y-4.2
X3.4Y-3.9
X3.4Y-4.2
X3.5Y-3.9
X3.5Y-4.2
X3.6Y-3.9
X3.6Y-4.2
X3.7Y-3.9
X3.7Y-4.2
X3.8Y-3.9
X3.8Y-4.2
X4.4Y-3.2
X4.8Y-3.2
X9.2031Y-4.8
X9.4Y-4.8
X3.1Y-4.4
X3.2969Y-4.4
X7.4Y-3.3
X7.5Y-3.3
X7.6Y-3.3
X7.7Y-3.3
X7.8Y-3.3
X7.9Y-3.3
X8.0Y-3.3
X8.1Y-3.3
X8.2Y-3.3
X3.1Y-4.6
X3.1Y-4.9
X3.2Y-4.6
X3.2Y-4.9
X3.3Y-4.6
X3.3Y-4.9
X3.4Y-4.6
X3.4Y-4.9
X3.5Y-4.6
X3.5Y-4.9
X3.6Y-4.6
X3.6Y-4.9
X3.7Y-4.6
X3.7Y-4.9
X3.8Y-4.6
X3.8Y-4.9
X8.9031Y-3.5
X9.1Y-3.5
X10.1Y-4.0
X10.2969Y-4.0
X3.1Y-3.2
X3.1Y-3.5
X3.2Y-3.2
X3.2Y-3.5
X3.3Y-3.2
X3.3Y-3.5
X3.4Y-3.2
X3.4Y-3.5
X3.5Y-3.2
X3.5Y-3.5
X3.6Y-3.2
X3.6Y-3.5
X3.7Y-3.2
X3.7Y-3.5
X3.8Y-3.2
X3.8Y-3.5
X5.8031Y-5.4
X6.0Y-5.4
X7.5Y-4.8
X7.6969Y-4.8
X7.9Y-4.8
X7.9Y-5.4
X8.0Y-4.8
X8.0Y-5.4
X8.1Y-4.8
X8.1Y-5.4
X8.2Y-4.8
X8.2Y-5.4
X8.3Y-4.8
X8.3Y-5.4
X8.4Y-4.8
X8.4Y-5.4
X8.5Y-4.8
X8.5Y-5.4
X8.6Y-4.8
X8.6Y-5.4
X8.7Y-4.8
X8.7Y-5.4
X8.8Y-4.8
X8.8Y-5.4
X8.9Y-4.8
X8.9Y-5.4
X9.0Y-4.8
X9.0Y-5.4
X8.6Y-3.8
X8.6984Y-3.8
X7.5616Y-5.45
X7.66Y-5.45
X10.1Y-4.2
X10.1Y-4.5
X10.2Y-4.2
X10.2Y-4.5
X10.3Y-4.2
X10.3Y-4.5
X10.4Y-4.2
X10.4Y-4.5
X10.5Y-4.2
X10.5Y-4.5
X10.6Y-4.2
X10.6Y-4.5
X10.7Y-4.2
X10.7Y-4.5
X5.8031Y-4.8
X6.0Y-4.8
X6.2Y-4.8
X6.2Y-5.4
X6.3Y-4.8
X6.3Y-5.4
X6.4Y-4.8
X6.4Y-5.4
X6.5Y-4.8
X6.5Y-5.4
X6.6Y-4.8
X6.6Y-5.4
X6.7Y-4.8
X6.7Y-5.4
X6.8Y-4.8
X6.8Y-5.4
X6.9Y-4.8
X6.9Y-5.4
X7.0Y-4.8
X7.0Y-5.4
X7.1Y-4.8
X7.1Y-5.4
X7.2Y-4.8
X7.2Y-5.4
X7.3Y-4.8
X7.3Y-5.4
X3.1Y-3.7
X3.2969Y-3.7
X3.2Y-5.1
X3.3969Y-5.1
X6.9031Y-3.5
X7.1Y-3.5
X4.5Y-4.8
X4.5Y-5.4
X4.6Y-4.8
X4.6Y-5.4
X4.7Y-4.8
X4.7Y-5.4
X4.8Y-4.8
X4.8Y-5.4
X4.9Y-4.8
X4.9Y-5.4
X5.0Y-4.8
X5.0Y-5.4
X5.1Y-4.8
X5.1Y-5.4
X5.2Y-4.8
X5.2Y-5.4
X5.3Y-4.8
X5.3Y-5.4
X5.4Y-4.8
X5.4Y-5.4
X5.5Y-4.8
X5.5Y-5.4
X5.6Y-4.8
X5.6Y-5.4
X3.1Y-5.3
X3.1Y-5.6
X3.2Y-5.3
X3.2Y-5.6
X3.3Y-5.3
X3.3Y-5.6
X3.4Y-5.3
X3.4Y-5.6
X3.5Y-5.3
X3.5Y-5.6
X3.6Y-5.3
X3.6Y-5.6
X3.7Y-5.3
X3.7Y-5.6
X3.8Y-5.3
X3.8Y-5.6
X2.98Y-6.05
X2.98Y-6.1484
X3.49Y-3.06
X3.6869Y-3.06
T3
X10.35Y-3.0
X10.45Y-3.0
X6.85Y-3.0
X6.95Y-3.0
X8.1Y-3.0
X8.2Y-3.0
X10.1Y-3.0
X10.2Y-3.0
X7.6Y-3.0
X7.7Y-3.0
X7.1Y-3.0
X7.2Y-3.0
X9.1Y-3.0
X9.2Y-3.0
X9.6Y-3.0
X9.7Y-3.0
X7.35Y-3.0
X7.45Y-3.0
X8.85Y-3.0
X8.95Y-3.0
X9.35Y-3.0
X9.45Y-3.0
X10.6Y-3.0
X10.7Y-3.0
X7.85Y-3.0
X7.95Y-3.0
X8.35Y-3.0
X8.45Y-3.0
X8.6Y-3.0
X8.7Y-3.0
X9.85Y-3.0
X9.95Y-3.0
T4
X3.7Y-6.2
X3.8Y-6.2
X3.9Y-6.2
X4.0Y-6.2
X4.1Y-6.2
X4.2Y-6.2
X4.3Y-6.2
X4.4Y-6.2
X4.5Y-6.2
X4.6Y-6.2
X2.9Y-2.9
X3.0Y-2.9
X3.1Y-2.9
X3.2Y-2.9
X3.3Y-2.9
X3.4Y-2.9
X3.5Y-2.9
X3.6Y-2.9
X3.7Y-2.9
X3.8Y-2.9
X3.9Y-2.9
X4.0Y-2.9
X4.1Y-2.9
X4.2Y-2.9
X4.3Y-2.9
X4.4Y-2.9
X4.95Y-2.9
X5.05Y-2.9
X5.15Y-2.9
X5.25Y-2.9
X5.35Y-2.9
X5.45Y-2.9
X5.55Y-2.9
X5.65Y-2.9
X5.75Y-2.9
X5.85Y-2.9
X5.95Y-2.9
X6.05Y-2.9
X6.15Y-2.9
X6.25Y-2.9
X6.35Y-2.9
X6.45Y-2.9
X6.55Y-2.9
X6.65Y-2.9
X5.1Y-6.2
X5.2Y-6.2
X5.3Y-6.2
X5.4Y-6.2
X5.5Y-6.2
X5.6Y-6.2
X5.7Y-6.2
X5.8Y-6.2
X5.9Y-6.2
X6.0Y-6.2
X6.1Y-6.2
X6.2Y-6.2
X6.3Y-6.2
X6.4Y-6.2
X6.5Y-6.2
X6.6Y-6.2
X7.6Y-6.2
X7.7Y-6.2
X7.8Y-6.2
X7.9Y-6.2
X8.0Y-6.2
X8.1Y-6.2
X8.2Y-6.2
X8.3Y-6.2
X8.4Y-6.2
X8.5Y-6.2
X8.6Y-6.2
X8.7Y-6.2
X8.8Y-6.2
X8.9Y-6.2
X9.0Y-6.2
X9.1Y-6.2
X9.2Y-6.2
X9.3Y-6.2
X9.4Y-6.2
X9.5Y-6.2
X9.6Y-6.2
X9.7Y-6.2
X9.8Y-6.2
X9.9Y-6.2
X10.0Y-6.2
X10.1Y-6.2
X10.2Y-6.2
X10.3Y-6.2
X10.4Y-6.2
X10.5Y-6.2
X10.6Y-6.2
X10.7Y-6.2
T0
M30
