G04 #@! TF.GenerationSoftware,KiCad,Pcbnew,(5.1.5)-3*
G04 #@! TF.CreationDate,2020-11-29T18:53:02-08:00*
G04 #@! TF.ProjectId,alu,616c752e-6b69-4636-9164-5f7063625858,rev?*
G04 #@! TF.SameCoordinates,Original*
G04 #@! TF.FileFunction,Legend,Top*
G04 #@! TF.FilePolarity,Positive*
%FSLAX46Y46*%
G04 Gerber Fmt 4.6, Leading zero omitted, Abs format (unit mm)*
G04 Created by KiCad (PCBNEW (5.1.5)-3) date 2020-11-29 18:53:02*
%MOMM*%
%LPD*%
G04 APERTURE LIST*
%ADD10C,0.300000*%
%ADD11C,0.381000*%
%ADD12C,0.254000*%
%ADD13C,0.120000*%
%ADD14C,0.150000*%
%ADD15C,0.177800*%
%ADD16C,0.250000*%
%ADD17C,0.228600*%
G04 APERTURE END LIST*
D10*
X240975428Y-91888571D02*
X240975428Y-92960000D01*
X240904000Y-93174285D01*
X240761142Y-93317142D01*
X240546857Y-93388571D01*
X240404000Y-93388571D01*
X242404000Y-93388571D02*
X241689714Y-93388571D01*
X241689714Y-91888571D01*
X243761142Y-93245714D02*
X243689714Y-93317142D01*
X243475428Y-93388571D01*
X243332571Y-93388571D01*
X243118285Y-93317142D01*
X242975428Y-93174285D01*
X242904000Y-93031428D01*
X242832571Y-92745714D01*
X242832571Y-92531428D01*
X242904000Y-92245714D01*
X242975428Y-92102857D01*
X243118285Y-91960000D01*
X243332571Y-91888571D01*
X243475428Y-91888571D01*
X243689714Y-91960000D01*
X243761142Y-92031428D01*
X244832571Y-91888571D02*
X244832571Y-92960000D01*
X244761142Y-93174285D01*
X244618285Y-93317142D01*
X244404000Y-93388571D01*
X244261142Y-93388571D01*
X246261142Y-93388571D02*
X245546857Y-93388571D01*
X245546857Y-91888571D01*
X247618285Y-93245714D02*
X247546857Y-93317142D01*
X247332571Y-93388571D01*
X247189714Y-93388571D01*
X246975428Y-93317142D01*
X246832571Y-93174285D01*
X246761142Y-93031428D01*
X246689714Y-92745714D01*
X246689714Y-92531428D01*
X246761142Y-92245714D01*
X246832571Y-92102857D01*
X246975428Y-91960000D01*
X247189714Y-91888571D01*
X247332571Y-91888571D01*
X247546857Y-91960000D01*
X247618285Y-92031428D01*
X248689714Y-91888571D02*
X248689714Y-92960000D01*
X248618285Y-93174285D01*
X248475428Y-93317142D01*
X248261142Y-93388571D01*
X248118285Y-93388571D01*
X250118285Y-93388571D02*
X249404000Y-93388571D01*
X249404000Y-91888571D01*
X251475428Y-93245714D02*
X251404000Y-93317142D01*
X251189714Y-93388571D01*
X251046857Y-93388571D01*
X250832571Y-93317142D01*
X250689714Y-93174285D01*
X250618285Y-93031428D01*
X250546857Y-92745714D01*
X250546857Y-92531428D01*
X250618285Y-92245714D01*
X250689714Y-92102857D01*
X250832571Y-91960000D01*
X251046857Y-91888571D01*
X251189714Y-91888571D01*
X251404000Y-91960000D01*
X251475428Y-92031428D01*
X252546857Y-91888571D02*
X252546857Y-92960000D01*
X252475428Y-93174285D01*
X252332571Y-93317142D01*
X252118285Y-93388571D01*
X251975428Y-93388571D01*
X253975428Y-93388571D02*
X253261142Y-93388571D01*
X253261142Y-91888571D01*
X255332571Y-93245714D02*
X255261142Y-93317142D01*
X255046857Y-93388571D01*
X254904000Y-93388571D01*
X254689714Y-93317142D01*
X254546857Y-93174285D01*
X254475428Y-93031428D01*
X254404000Y-92745714D01*
X254404000Y-92531428D01*
X254475428Y-92245714D01*
X254546857Y-92102857D01*
X254689714Y-91960000D01*
X254904000Y-91888571D01*
X255046857Y-91888571D01*
X255261142Y-91960000D01*
X255332571Y-92031428D01*
D11*
X123825000Y-93345000D02*
X125639285Y-93345000D01*
X123462142Y-94433571D02*
X124732142Y-90623571D01*
X126002142Y-94433571D01*
X129086428Y-94433571D02*
X127272142Y-94433571D01*
X127272142Y-90623571D01*
X130356428Y-90623571D02*
X130356428Y-93707857D01*
X130537857Y-94070714D01*
X130719285Y-94252142D01*
X131082142Y-94433571D01*
X131807857Y-94433571D01*
X132170714Y-94252142D01*
X132352142Y-94070714D01*
X132533571Y-93707857D01*
X132533571Y-90623571D01*
D10*
X130556000Y-81534000D02*
X130556000Y-78994000D01*
X129286000Y-85344000D02*
X129286000Y-80264000D01*
X125730000Y-76708000D02*
X125730000Y-75438000D01*
X129286000Y-80264000D02*
X125730000Y-76708000D01*
X131572000Y-85344000D02*
X129286000Y-85344000D01*
X128270000Y-76708000D02*
X128270000Y-75438000D01*
X130556000Y-78994000D02*
X128270000Y-76708000D01*
X131826000Y-81534000D02*
X130556000Y-81534000D01*
D12*
X133991047Y-82695142D02*
X133870095Y-82816095D01*
X133507238Y-82937047D01*
X133265333Y-82937047D01*
X132902476Y-82816095D01*
X132660571Y-82574190D01*
X132539619Y-82332285D01*
X132418666Y-81848476D01*
X132418666Y-81485619D01*
X132539619Y-81001809D01*
X132660571Y-80759904D01*
X132902476Y-80518000D01*
X133265333Y-80397047D01*
X133507238Y-80397047D01*
X133870095Y-80518000D01*
X133991047Y-80638952D01*
X134958666Y-82211333D02*
X136168190Y-82211333D01*
X134716761Y-82937047D02*
X135563428Y-80397047D01*
X136410095Y-82937047D01*
X138708190Y-82937047D02*
X137861523Y-81727523D01*
X137256761Y-82937047D02*
X137256761Y-80397047D01*
X138224380Y-80397047D01*
X138466285Y-80518000D01*
X138587238Y-80638952D01*
X138708190Y-80880857D01*
X138708190Y-81243714D01*
X138587238Y-81485619D01*
X138466285Y-81606571D01*
X138224380Y-81727523D01*
X137256761Y-81727523D01*
X141248190Y-82937047D02*
X140401523Y-81727523D01*
X139796761Y-82937047D02*
X139796761Y-80397047D01*
X140764380Y-80397047D01*
X141006285Y-80518000D01*
X141127238Y-80638952D01*
X141248190Y-80880857D01*
X141248190Y-81243714D01*
X141127238Y-81485619D01*
X141006285Y-81606571D01*
X140764380Y-81727523D01*
X139796761Y-81727523D01*
X142820571Y-81727523D02*
X142820571Y-82937047D01*
X141973904Y-80397047D02*
X142820571Y-81727523D01*
X143667238Y-80397047D01*
X147295809Y-81606571D02*
X147658666Y-81727523D01*
X147779619Y-81848476D01*
X147900571Y-82090380D01*
X147900571Y-82453238D01*
X147779619Y-82695142D01*
X147658666Y-82816095D01*
X147416761Y-82937047D01*
X146449142Y-82937047D01*
X146449142Y-80397047D01*
X147295809Y-80397047D01*
X147537714Y-80518000D01*
X147658666Y-80638952D01*
X147779619Y-80880857D01*
X147779619Y-81122761D01*
X147658666Y-81364666D01*
X147537714Y-81485619D01*
X147295809Y-81606571D01*
X146449142Y-81606571D01*
X149472952Y-80397047D02*
X149956761Y-80397047D01*
X150198666Y-80518000D01*
X150440571Y-80759904D01*
X150561523Y-81243714D01*
X150561523Y-82090380D01*
X150440571Y-82574190D01*
X150198666Y-82816095D01*
X149956761Y-82937047D01*
X149472952Y-82937047D01*
X149231047Y-82816095D01*
X148989142Y-82574190D01*
X148868190Y-82090380D01*
X148868190Y-81243714D01*
X148989142Y-80759904D01*
X149231047Y-80518000D01*
X149472952Y-80397047D01*
X153101523Y-82937047D02*
X152254857Y-81727523D01*
X151650095Y-82937047D02*
X151650095Y-80397047D01*
X152617714Y-80397047D01*
X152859619Y-80518000D01*
X152980571Y-80638952D01*
X153101523Y-80880857D01*
X153101523Y-81243714D01*
X152980571Y-81485619D01*
X152859619Y-81606571D01*
X152617714Y-81727523D01*
X151650095Y-81727523D01*
X155641523Y-82937047D02*
X154794857Y-81727523D01*
X154190095Y-82937047D02*
X154190095Y-80397047D01*
X155157714Y-80397047D01*
X155399619Y-80518000D01*
X155520571Y-80638952D01*
X155641523Y-80880857D01*
X155641523Y-81243714D01*
X155520571Y-81485619D01*
X155399619Y-81606571D01*
X155157714Y-81727523D01*
X154190095Y-81727523D01*
X157213904Y-80397047D02*
X157697714Y-80397047D01*
X157939619Y-80518000D01*
X158181523Y-80759904D01*
X158302476Y-81243714D01*
X158302476Y-82090380D01*
X158181523Y-82574190D01*
X157939619Y-82816095D01*
X157697714Y-82937047D01*
X157213904Y-82937047D01*
X156972000Y-82816095D01*
X156730095Y-82574190D01*
X156609142Y-82090380D01*
X156609142Y-81243714D01*
X156730095Y-80759904D01*
X156972000Y-80518000D01*
X157213904Y-80397047D01*
X159149142Y-80397047D02*
X159753904Y-82937047D01*
X160237714Y-81122761D01*
X160721523Y-82937047D01*
X161326285Y-80397047D01*
X132394476Y-86021333D02*
X133604000Y-86021333D01*
X132152571Y-86747047D02*
X132999238Y-84207047D01*
X133845904Y-86747047D01*
X136627809Y-85416571D02*
X137474476Y-85416571D01*
X137837333Y-86747047D02*
X136627809Y-86747047D01*
X136627809Y-84207047D01*
X137837333Y-84207047D01*
X140619238Y-86988952D02*
X140377333Y-86868000D01*
X140135428Y-86626095D01*
X139772571Y-86263238D01*
X139530666Y-86142285D01*
X139288761Y-86142285D01*
X139409714Y-86747047D02*
X139167809Y-86626095D01*
X138925904Y-86384190D01*
X138804952Y-85900380D01*
X138804952Y-85053714D01*
X138925904Y-84569904D01*
X139167809Y-84328000D01*
X139409714Y-84207047D01*
X139893523Y-84207047D01*
X140135428Y-84328000D01*
X140377333Y-84569904D01*
X140498285Y-85053714D01*
X140498285Y-85900380D01*
X140377333Y-86384190D01*
X140135428Y-86626095D01*
X139893523Y-86747047D01*
X139409714Y-86747047D01*
X144368761Y-85416571D02*
X144731619Y-85537523D01*
X144852571Y-85658476D01*
X144973523Y-85900380D01*
X144973523Y-86263238D01*
X144852571Y-86505142D01*
X144731619Y-86626095D01*
X144489714Y-86747047D01*
X143522095Y-86747047D01*
X143522095Y-84207047D01*
X144368761Y-84207047D01*
X144610666Y-84328000D01*
X144731619Y-84448952D01*
X144852571Y-84690857D01*
X144852571Y-84932761D01*
X144731619Y-85174666D01*
X144610666Y-85295619D01*
X144368761Y-85416571D01*
X143522095Y-85416571D01*
X156391428Y-78873047D02*
X155544761Y-77663523D01*
X154940000Y-78873047D02*
X154940000Y-76333047D01*
X155907619Y-76333047D01*
X156149523Y-76454000D01*
X156270476Y-76574952D01*
X156391428Y-76816857D01*
X156391428Y-77179714D01*
X156270476Y-77421619D01*
X156149523Y-77542571D01*
X155907619Y-77663523D01*
X154940000Y-77663523D01*
X157480000Y-77542571D02*
X158326666Y-77542571D01*
X158689523Y-78873047D02*
X157480000Y-78873047D01*
X157480000Y-76333047D01*
X158689523Y-76333047D01*
X159657142Y-78752095D02*
X160020000Y-78873047D01*
X160624761Y-78873047D01*
X160866666Y-78752095D01*
X160987619Y-78631142D01*
X161108571Y-78389238D01*
X161108571Y-78147333D01*
X160987619Y-77905428D01*
X160866666Y-77784476D01*
X160624761Y-77663523D01*
X160140952Y-77542571D01*
X159899047Y-77421619D01*
X159778095Y-77300666D01*
X159657142Y-77058761D01*
X159657142Y-76816857D01*
X159778095Y-76574952D01*
X159899047Y-76454000D01*
X160140952Y-76333047D01*
X160745714Y-76333047D01*
X161108571Y-76454000D01*
X164616190Y-76333047D02*
X165100000Y-76333047D01*
X165341904Y-76454000D01*
X165583809Y-76695904D01*
X165704761Y-77179714D01*
X165704761Y-78026380D01*
X165583809Y-78510190D01*
X165341904Y-78752095D01*
X165100000Y-78873047D01*
X164616190Y-78873047D01*
X164374285Y-78752095D01*
X164132380Y-78510190D01*
X164011428Y-78026380D01*
X164011428Y-77179714D01*
X164132380Y-76695904D01*
X164374285Y-76454000D01*
X164616190Y-76333047D01*
X166793333Y-76333047D02*
X166793333Y-78389238D01*
X166914285Y-78631142D01*
X167035238Y-78752095D01*
X167277142Y-78873047D01*
X167760952Y-78873047D01*
X168002857Y-78752095D01*
X168123809Y-78631142D01*
X168244761Y-78389238D01*
X168244761Y-76333047D01*
X169091428Y-76333047D02*
X170542857Y-76333047D01*
X169817142Y-78873047D02*
X169817142Y-76333047D01*
X99362380Y-77893333D02*
X100571904Y-77893333D01*
X99120476Y-78619047D02*
X99967142Y-76079047D01*
X100813809Y-78619047D01*
X103111904Y-78377142D02*
X102990952Y-78498095D01*
X102628095Y-78619047D01*
X102386190Y-78619047D01*
X102023333Y-78498095D01*
X101781428Y-78256190D01*
X101660476Y-78014285D01*
X101539523Y-77530476D01*
X101539523Y-77167619D01*
X101660476Y-76683809D01*
X101781428Y-76441904D01*
X102023333Y-76200000D01*
X102386190Y-76079047D01*
X102628095Y-76079047D01*
X102990952Y-76200000D01*
X103111904Y-76320952D01*
X105651904Y-78377142D02*
X105530952Y-78498095D01*
X105168095Y-78619047D01*
X104926190Y-78619047D01*
X104563333Y-78498095D01*
X104321428Y-78256190D01*
X104200476Y-78014285D01*
X104079523Y-77530476D01*
X104079523Y-77167619D01*
X104200476Y-76683809D01*
X104321428Y-76441904D01*
X104563333Y-76200000D01*
X104926190Y-76079047D01*
X105168095Y-76079047D01*
X105530952Y-76200000D01*
X105651904Y-76320952D01*
X108675714Y-78619047D02*
X108675714Y-76079047D01*
X109885238Y-78619047D02*
X109885238Y-76079047D01*
X111336666Y-78619047D01*
X111336666Y-76079047D01*
D13*
X196499241Y-140584000D02*
X196499241Y-139954000D01*
X196814241Y-140269000D02*
X196184241Y-140269000D01*
X190073000Y-138832000D02*
X190073000Y-138028000D01*
X190113000Y-139063000D02*
X190113000Y-137797000D01*
X190153000Y-139232000D02*
X190153000Y-137628000D01*
X190193000Y-139370000D02*
X190193000Y-137490000D01*
X190233000Y-139489000D02*
X190233000Y-137371000D01*
X190273000Y-139595000D02*
X190273000Y-137265000D01*
X190313000Y-139692000D02*
X190313000Y-137168000D01*
X190353000Y-139780000D02*
X190353000Y-137080000D01*
X190393000Y-139862000D02*
X190393000Y-136998000D01*
X190433000Y-139939000D02*
X190433000Y-136921000D01*
X190473000Y-140011000D02*
X190473000Y-136849000D01*
X190513000Y-140080000D02*
X190513000Y-136780000D01*
X190553000Y-140144000D02*
X190553000Y-136716000D01*
X190593000Y-140206000D02*
X190593000Y-136654000D01*
X190633000Y-140264000D02*
X190633000Y-136596000D01*
X190673000Y-140320000D02*
X190673000Y-136540000D01*
X190713000Y-140374000D02*
X190713000Y-136486000D01*
X190753000Y-140425000D02*
X190753000Y-136435000D01*
X190793000Y-140474000D02*
X190793000Y-136386000D01*
X190833000Y-140522000D02*
X190833000Y-136338000D01*
X190873000Y-140567000D02*
X190873000Y-136293000D01*
X190913000Y-140612000D02*
X190913000Y-136248000D01*
X190953000Y-140654000D02*
X190953000Y-136206000D01*
X190993000Y-140695000D02*
X190993000Y-136165000D01*
X191033000Y-137390000D02*
X191033000Y-136125000D01*
X191033000Y-140735000D02*
X191033000Y-139470000D01*
X191073000Y-137390000D02*
X191073000Y-136087000D01*
X191073000Y-140773000D02*
X191073000Y-139470000D01*
X191113000Y-137390000D02*
X191113000Y-136050000D01*
X191113000Y-140810000D02*
X191113000Y-139470000D01*
X191153000Y-137390000D02*
X191153000Y-136014000D01*
X191153000Y-140846000D02*
X191153000Y-139470000D01*
X191193000Y-137390000D02*
X191193000Y-135980000D01*
X191193000Y-140880000D02*
X191193000Y-139470000D01*
X191233000Y-137390000D02*
X191233000Y-135946000D01*
X191233000Y-140914000D02*
X191233000Y-139470000D01*
X191273000Y-137390000D02*
X191273000Y-135914000D01*
X191273000Y-140946000D02*
X191273000Y-139470000D01*
X191313000Y-137390000D02*
X191313000Y-135882000D01*
X191313000Y-140978000D02*
X191313000Y-139470000D01*
X191353000Y-137390000D02*
X191353000Y-135852000D01*
X191353000Y-141008000D02*
X191353000Y-139470000D01*
X191393000Y-137390000D02*
X191393000Y-135823000D01*
X191393000Y-141037000D02*
X191393000Y-139470000D01*
X191433000Y-137390000D02*
X191433000Y-135794000D01*
X191433000Y-141066000D02*
X191433000Y-139470000D01*
X191473000Y-137390000D02*
X191473000Y-135766000D01*
X191473000Y-141094000D02*
X191473000Y-139470000D01*
X191513000Y-137390000D02*
X191513000Y-135740000D01*
X191513000Y-141120000D02*
X191513000Y-139470000D01*
X191553000Y-137390000D02*
X191553000Y-135714000D01*
X191553000Y-141146000D02*
X191553000Y-139470000D01*
X191593000Y-137390000D02*
X191593000Y-135688000D01*
X191593000Y-141172000D02*
X191593000Y-139470000D01*
X191633000Y-137390000D02*
X191633000Y-135664000D01*
X191633000Y-141196000D02*
X191633000Y-139470000D01*
X191673000Y-137390000D02*
X191673000Y-135640000D01*
X191673000Y-141220000D02*
X191673000Y-139470000D01*
X191713000Y-137390000D02*
X191713000Y-135618000D01*
X191713000Y-141242000D02*
X191713000Y-139470000D01*
X191753000Y-137390000D02*
X191753000Y-135596000D01*
X191753000Y-141264000D02*
X191753000Y-139470000D01*
X191793000Y-137390000D02*
X191793000Y-135574000D01*
X191793000Y-141286000D02*
X191793000Y-139470000D01*
X191833000Y-137390000D02*
X191833000Y-135554000D01*
X191833000Y-141306000D02*
X191833000Y-139470000D01*
X191873000Y-137390000D02*
X191873000Y-135534000D01*
X191873000Y-141326000D02*
X191873000Y-139470000D01*
X191913000Y-137390000D02*
X191913000Y-135514000D01*
X191913000Y-141346000D02*
X191913000Y-139470000D01*
X191953000Y-137390000D02*
X191953000Y-135496000D01*
X191953000Y-141364000D02*
X191953000Y-139470000D01*
X191993000Y-137390000D02*
X191993000Y-135478000D01*
X191993000Y-141382000D02*
X191993000Y-139470000D01*
X192033000Y-137390000D02*
X192033000Y-135460000D01*
X192033000Y-141400000D02*
X192033000Y-139470000D01*
X192073000Y-137390000D02*
X192073000Y-135444000D01*
X192073000Y-141416000D02*
X192073000Y-139470000D01*
X192113000Y-137390000D02*
X192113000Y-135428000D01*
X192113000Y-141432000D02*
X192113000Y-139470000D01*
X192153000Y-137390000D02*
X192153000Y-135412000D01*
X192153000Y-141448000D02*
X192153000Y-139470000D01*
X192193000Y-137390000D02*
X192193000Y-135397000D01*
X192193000Y-141463000D02*
X192193000Y-139470000D01*
X192233000Y-137390000D02*
X192233000Y-135383000D01*
X192233000Y-141477000D02*
X192233000Y-139470000D01*
X192273000Y-137390000D02*
X192273000Y-135369000D01*
X192273000Y-141491000D02*
X192273000Y-139470000D01*
X192313000Y-137390000D02*
X192313000Y-135356000D01*
X192313000Y-141504000D02*
X192313000Y-139470000D01*
X192353000Y-137390000D02*
X192353000Y-135344000D01*
X192353000Y-141516000D02*
X192353000Y-139470000D01*
X192393000Y-137390000D02*
X192393000Y-135332000D01*
X192393000Y-141528000D02*
X192393000Y-139470000D01*
X192433000Y-137390000D02*
X192433000Y-135320000D01*
X192433000Y-141540000D02*
X192433000Y-139470000D01*
X192473000Y-137390000D02*
X192473000Y-135309000D01*
X192473000Y-141551000D02*
X192473000Y-139470000D01*
X192513000Y-137390000D02*
X192513000Y-135299000D01*
X192513000Y-141561000D02*
X192513000Y-139470000D01*
X192553000Y-137390000D02*
X192553000Y-135289000D01*
X192553000Y-141571000D02*
X192553000Y-139470000D01*
X192593000Y-137390000D02*
X192593000Y-135280000D01*
X192593000Y-141580000D02*
X192593000Y-139470000D01*
X192634000Y-137390000D02*
X192634000Y-135271000D01*
X192634000Y-141589000D02*
X192634000Y-139470000D01*
X192674000Y-137390000D02*
X192674000Y-135263000D01*
X192674000Y-141597000D02*
X192674000Y-139470000D01*
X192714000Y-137390000D02*
X192714000Y-135255000D01*
X192714000Y-141605000D02*
X192714000Y-139470000D01*
X192754000Y-137390000D02*
X192754000Y-135248000D01*
X192754000Y-141612000D02*
X192754000Y-139470000D01*
X192794000Y-137390000D02*
X192794000Y-135241000D01*
X192794000Y-141619000D02*
X192794000Y-139470000D01*
X192834000Y-137390000D02*
X192834000Y-135235000D01*
X192834000Y-141625000D02*
X192834000Y-139470000D01*
X192874000Y-137390000D02*
X192874000Y-135229000D01*
X192874000Y-141631000D02*
X192874000Y-139470000D01*
X192914000Y-137390000D02*
X192914000Y-135224000D01*
X192914000Y-141636000D02*
X192914000Y-139470000D01*
X192954000Y-137390000D02*
X192954000Y-135219000D01*
X192954000Y-141641000D02*
X192954000Y-139470000D01*
X192994000Y-137390000D02*
X192994000Y-135215000D01*
X192994000Y-141645000D02*
X192994000Y-139470000D01*
X193034000Y-137390000D02*
X193034000Y-135212000D01*
X193034000Y-141648000D02*
X193034000Y-139470000D01*
X193074000Y-137390000D02*
X193074000Y-135208000D01*
X193074000Y-141652000D02*
X193074000Y-139470000D01*
X193114000Y-141654000D02*
X193114000Y-135206000D01*
X193154000Y-141657000D02*
X193154000Y-135203000D01*
X193194000Y-141658000D02*
X193194000Y-135202000D01*
X193234000Y-141660000D02*
X193234000Y-135200000D01*
X193274000Y-141660000D02*
X193274000Y-135200000D01*
X193314000Y-141660000D02*
X193314000Y-135200000D01*
X196584000Y-138430000D02*
G75*
G03X196584000Y-138430000I-3270000J0D01*
G01*
X216504759Y-94366000D02*
X216504759Y-94996000D01*
X216189759Y-94681000D02*
X216819759Y-94681000D01*
X222931000Y-96118000D02*
X222931000Y-96922000D01*
X222891000Y-95887000D02*
X222891000Y-97153000D01*
X222851000Y-95718000D02*
X222851000Y-97322000D01*
X222811000Y-95580000D02*
X222811000Y-97460000D01*
X222771000Y-95461000D02*
X222771000Y-97579000D01*
X222731000Y-95355000D02*
X222731000Y-97685000D01*
X222691000Y-95258000D02*
X222691000Y-97782000D01*
X222651000Y-95170000D02*
X222651000Y-97870000D01*
X222611000Y-95088000D02*
X222611000Y-97952000D01*
X222571000Y-95011000D02*
X222571000Y-98029000D01*
X222531000Y-94939000D02*
X222531000Y-98101000D01*
X222491000Y-94870000D02*
X222491000Y-98170000D01*
X222451000Y-94806000D02*
X222451000Y-98234000D01*
X222411000Y-94744000D02*
X222411000Y-98296000D01*
X222371000Y-94686000D02*
X222371000Y-98354000D01*
X222331000Y-94630000D02*
X222331000Y-98410000D01*
X222291000Y-94576000D02*
X222291000Y-98464000D01*
X222251000Y-94525000D02*
X222251000Y-98515000D01*
X222211000Y-94476000D02*
X222211000Y-98564000D01*
X222171000Y-94428000D02*
X222171000Y-98612000D01*
X222131000Y-94383000D02*
X222131000Y-98657000D01*
X222091000Y-94338000D02*
X222091000Y-98702000D01*
X222051000Y-94296000D02*
X222051000Y-98744000D01*
X222011000Y-94255000D02*
X222011000Y-98785000D01*
X221971000Y-97560000D02*
X221971000Y-98825000D01*
X221971000Y-94215000D02*
X221971000Y-95480000D01*
X221931000Y-97560000D02*
X221931000Y-98863000D01*
X221931000Y-94177000D02*
X221931000Y-95480000D01*
X221891000Y-97560000D02*
X221891000Y-98900000D01*
X221891000Y-94140000D02*
X221891000Y-95480000D01*
X221851000Y-97560000D02*
X221851000Y-98936000D01*
X221851000Y-94104000D02*
X221851000Y-95480000D01*
X221811000Y-97560000D02*
X221811000Y-98970000D01*
X221811000Y-94070000D02*
X221811000Y-95480000D01*
X221771000Y-97560000D02*
X221771000Y-99004000D01*
X221771000Y-94036000D02*
X221771000Y-95480000D01*
X221731000Y-97560000D02*
X221731000Y-99036000D01*
X221731000Y-94004000D02*
X221731000Y-95480000D01*
X221691000Y-97560000D02*
X221691000Y-99068000D01*
X221691000Y-93972000D02*
X221691000Y-95480000D01*
X221651000Y-97560000D02*
X221651000Y-99098000D01*
X221651000Y-93942000D02*
X221651000Y-95480000D01*
X221611000Y-97560000D02*
X221611000Y-99127000D01*
X221611000Y-93913000D02*
X221611000Y-95480000D01*
X221571000Y-97560000D02*
X221571000Y-99156000D01*
X221571000Y-93884000D02*
X221571000Y-95480000D01*
X221531000Y-97560000D02*
X221531000Y-99184000D01*
X221531000Y-93856000D02*
X221531000Y-95480000D01*
X221491000Y-97560000D02*
X221491000Y-99210000D01*
X221491000Y-93830000D02*
X221491000Y-95480000D01*
X221451000Y-97560000D02*
X221451000Y-99236000D01*
X221451000Y-93804000D02*
X221451000Y-95480000D01*
X221411000Y-97560000D02*
X221411000Y-99262000D01*
X221411000Y-93778000D02*
X221411000Y-95480000D01*
X221371000Y-97560000D02*
X221371000Y-99286000D01*
X221371000Y-93754000D02*
X221371000Y-95480000D01*
X221331000Y-97560000D02*
X221331000Y-99310000D01*
X221331000Y-93730000D02*
X221331000Y-95480000D01*
X221291000Y-97560000D02*
X221291000Y-99332000D01*
X221291000Y-93708000D02*
X221291000Y-95480000D01*
X221251000Y-97560000D02*
X221251000Y-99354000D01*
X221251000Y-93686000D02*
X221251000Y-95480000D01*
X221211000Y-97560000D02*
X221211000Y-99376000D01*
X221211000Y-93664000D02*
X221211000Y-95480000D01*
X221171000Y-97560000D02*
X221171000Y-99396000D01*
X221171000Y-93644000D02*
X221171000Y-95480000D01*
X221131000Y-97560000D02*
X221131000Y-99416000D01*
X221131000Y-93624000D02*
X221131000Y-95480000D01*
X221091000Y-97560000D02*
X221091000Y-99436000D01*
X221091000Y-93604000D02*
X221091000Y-95480000D01*
X221051000Y-97560000D02*
X221051000Y-99454000D01*
X221051000Y-93586000D02*
X221051000Y-95480000D01*
X221011000Y-97560000D02*
X221011000Y-99472000D01*
X221011000Y-93568000D02*
X221011000Y-95480000D01*
X220971000Y-97560000D02*
X220971000Y-99490000D01*
X220971000Y-93550000D02*
X220971000Y-95480000D01*
X220931000Y-97560000D02*
X220931000Y-99506000D01*
X220931000Y-93534000D02*
X220931000Y-95480000D01*
X220891000Y-97560000D02*
X220891000Y-99522000D01*
X220891000Y-93518000D02*
X220891000Y-95480000D01*
X220851000Y-97560000D02*
X220851000Y-99538000D01*
X220851000Y-93502000D02*
X220851000Y-95480000D01*
X220811000Y-97560000D02*
X220811000Y-99553000D01*
X220811000Y-93487000D02*
X220811000Y-95480000D01*
X220771000Y-97560000D02*
X220771000Y-99567000D01*
X220771000Y-93473000D02*
X220771000Y-95480000D01*
X220731000Y-97560000D02*
X220731000Y-99581000D01*
X220731000Y-93459000D02*
X220731000Y-95480000D01*
X220691000Y-97560000D02*
X220691000Y-99594000D01*
X220691000Y-93446000D02*
X220691000Y-95480000D01*
X220651000Y-97560000D02*
X220651000Y-99606000D01*
X220651000Y-93434000D02*
X220651000Y-95480000D01*
X220611000Y-97560000D02*
X220611000Y-99618000D01*
X220611000Y-93422000D02*
X220611000Y-95480000D01*
X220571000Y-97560000D02*
X220571000Y-99630000D01*
X220571000Y-93410000D02*
X220571000Y-95480000D01*
X220531000Y-97560000D02*
X220531000Y-99641000D01*
X220531000Y-93399000D02*
X220531000Y-95480000D01*
X220491000Y-97560000D02*
X220491000Y-99651000D01*
X220491000Y-93389000D02*
X220491000Y-95480000D01*
X220451000Y-97560000D02*
X220451000Y-99661000D01*
X220451000Y-93379000D02*
X220451000Y-95480000D01*
X220411000Y-97560000D02*
X220411000Y-99670000D01*
X220411000Y-93370000D02*
X220411000Y-95480000D01*
X220370000Y-97560000D02*
X220370000Y-99679000D01*
X220370000Y-93361000D02*
X220370000Y-95480000D01*
X220330000Y-97560000D02*
X220330000Y-99687000D01*
X220330000Y-93353000D02*
X220330000Y-95480000D01*
X220290000Y-97560000D02*
X220290000Y-99695000D01*
X220290000Y-93345000D02*
X220290000Y-95480000D01*
X220250000Y-97560000D02*
X220250000Y-99702000D01*
X220250000Y-93338000D02*
X220250000Y-95480000D01*
X220210000Y-97560000D02*
X220210000Y-99709000D01*
X220210000Y-93331000D02*
X220210000Y-95480000D01*
X220170000Y-97560000D02*
X220170000Y-99715000D01*
X220170000Y-93325000D02*
X220170000Y-95480000D01*
X220130000Y-97560000D02*
X220130000Y-99721000D01*
X220130000Y-93319000D02*
X220130000Y-95480000D01*
X220090000Y-97560000D02*
X220090000Y-99726000D01*
X220090000Y-93314000D02*
X220090000Y-95480000D01*
X220050000Y-97560000D02*
X220050000Y-99731000D01*
X220050000Y-93309000D02*
X220050000Y-95480000D01*
X220010000Y-97560000D02*
X220010000Y-99735000D01*
X220010000Y-93305000D02*
X220010000Y-95480000D01*
X219970000Y-97560000D02*
X219970000Y-99738000D01*
X219970000Y-93302000D02*
X219970000Y-95480000D01*
X219930000Y-97560000D02*
X219930000Y-99742000D01*
X219930000Y-93298000D02*
X219930000Y-95480000D01*
X219890000Y-93296000D02*
X219890000Y-99744000D01*
X219850000Y-93293000D02*
X219850000Y-99747000D01*
X219810000Y-93292000D02*
X219810000Y-99748000D01*
X219770000Y-93290000D02*
X219770000Y-99750000D01*
X219730000Y-93290000D02*
X219730000Y-99750000D01*
X219690000Y-93290000D02*
X219690000Y-99750000D01*
X222960000Y-96520000D02*
G75*
G03X222960000Y-96520000I-3270000J0D01*
G01*
X118170000Y-158920000D02*
X92650000Y-158920000D01*
X92650000Y-158920000D02*
X92650000Y-161580000D01*
X92650000Y-161580000D02*
X118170000Y-161580000D01*
X118170000Y-161580000D02*
X118170000Y-158920000D01*
X117220000Y-161580000D02*
X117220000Y-167580000D01*
X117220000Y-167580000D02*
X116460000Y-167580000D01*
X116460000Y-167580000D02*
X116460000Y-161580000D01*
X117160000Y-161580000D02*
X117160000Y-167580000D01*
X117040000Y-161580000D02*
X117040000Y-167580000D01*
X116920000Y-161580000D02*
X116920000Y-167580000D01*
X116800000Y-161580000D02*
X116800000Y-167580000D01*
X116680000Y-161580000D02*
X116680000Y-167580000D01*
X116560000Y-161580000D02*
X116560000Y-167580000D01*
X117220000Y-158590000D02*
X117220000Y-158920000D01*
X116460000Y-158590000D02*
X116460000Y-158920000D01*
X115570000Y-158920000D02*
X115570000Y-161580000D01*
X114680000Y-161580000D02*
X114680000Y-167580000D01*
X114680000Y-167580000D02*
X113920000Y-167580000D01*
X113920000Y-167580000D02*
X113920000Y-161580000D01*
X114680000Y-158522929D02*
X114680000Y-158920000D01*
X113920000Y-158522929D02*
X113920000Y-158920000D01*
X113030000Y-158920000D02*
X113030000Y-161580000D01*
X112140000Y-161580000D02*
X112140000Y-167580000D01*
X112140000Y-167580000D02*
X111380000Y-167580000D01*
X111380000Y-167580000D02*
X111380000Y-161580000D01*
X112140000Y-158522929D02*
X112140000Y-158920000D01*
X111380000Y-158522929D02*
X111380000Y-158920000D01*
X110490000Y-158920000D02*
X110490000Y-161580000D01*
X109600000Y-161580000D02*
X109600000Y-167580000D01*
X109600000Y-167580000D02*
X108840000Y-167580000D01*
X108840000Y-167580000D02*
X108840000Y-161580000D01*
X109600000Y-158522929D02*
X109600000Y-158920000D01*
X108840000Y-158522929D02*
X108840000Y-158920000D01*
X107950000Y-158920000D02*
X107950000Y-161580000D01*
X107060000Y-161580000D02*
X107060000Y-167580000D01*
X107060000Y-167580000D02*
X106300000Y-167580000D01*
X106300000Y-167580000D02*
X106300000Y-161580000D01*
X107060000Y-158522929D02*
X107060000Y-158920000D01*
X106300000Y-158522929D02*
X106300000Y-158920000D01*
X105410000Y-158920000D02*
X105410000Y-161580000D01*
X104520000Y-161580000D02*
X104520000Y-167580000D01*
X104520000Y-167580000D02*
X103760000Y-167580000D01*
X103760000Y-167580000D02*
X103760000Y-161580000D01*
X104520000Y-158522929D02*
X104520000Y-158920000D01*
X103760000Y-158522929D02*
X103760000Y-158920000D01*
X102870000Y-158920000D02*
X102870000Y-161580000D01*
X101980000Y-161580000D02*
X101980000Y-167580000D01*
X101980000Y-167580000D02*
X101220000Y-167580000D01*
X101220000Y-167580000D02*
X101220000Y-161580000D01*
X101980000Y-158522929D02*
X101980000Y-158920000D01*
X101220000Y-158522929D02*
X101220000Y-158920000D01*
X100330000Y-158920000D02*
X100330000Y-161580000D01*
X99440000Y-161580000D02*
X99440000Y-167580000D01*
X99440000Y-167580000D02*
X98680000Y-167580000D01*
X98680000Y-167580000D02*
X98680000Y-161580000D01*
X99440000Y-158522929D02*
X99440000Y-158920000D01*
X98680000Y-158522929D02*
X98680000Y-158920000D01*
X97790000Y-158920000D02*
X97790000Y-161580000D01*
X96900000Y-161580000D02*
X96900000Y-167580000D01*
X96900000Y-167580000D02*
X96140000Y-167580000D01*
X96140000Y-167580000D02*
X96140000Y-161580000D01*
X96900000Y-158522929D02*
X96900000Y-158920000D01*
X96140000Y-158522929D02*
X96140000Y-158920000D01*
X95250000Y-158920000D02*
X95250000Y-161580000D01*
X94360000Y-161580000D02*
X94360000Y-167580000D01*
X94360000Y-167580000D02*
X93600000Y-167580000D01*
X93600000Y-167580000D02*
X93600000Y-161580000D01*
X94360000Y-158522929D02*
X94360000Y-158920000D01*
X93600000Y-158522929D02*
X93600000Y-158920000D01*
X116840000Y-156210000D02*
X118110000Y-156210000D01*
X118110000Y-156210000D02*
X118110000Y-157480000D01*
X168970000Y-158920000D02*
X128210000Y-158920000D01*
X128210000Y-158920000D02*
X128210000Y-161580000D01*
X128210000Y-161580000D02*
X168970000Y-161580000D01*
X168970000Y-161580000D02*
X168970000Y-158920000D01*
X168020000Y-161580000D02*
X168020000Y-167580000D01*
X168020000Y-167580000D02*
X167260000Y-167580000D01*
X167260000Y-167580000D02*
X167260000Y-161580000D01*
X167960000Y-161580000D02*
X167960000Y-167580000D01*
X167840000Y-161580000D02*
X167840000Y-167580000D01*
X167720000Y-161580000D02*
X167720000Y-167580000D01*
X167600000Y-161580000D02*
X167600000Y-167580000D01*
X167480000Y-161580000D02*
X167480000Y-167580000D01*
X167360000Y-161580000D02*
X167360000Y-167580000D01*
X168020000Y-158590000D02*
X168020000Y-158920000D01*
X167260000Y-158590000D02*
X167260000Y-158920000D01*
X166370000Y-158920000D02*
X166370000Y-161580000D01*
X165480000Y-161580000D02*
X165480000Y-167580000D01*
X165480000Y-167580000D02*
X164720000Y-167580000D01*
X164720000Y-167580000D02*
X164720000Y-161580000D01*
X165480000Y-158522929D02*
X165480000Y-158920000D01*
X164720000Y-158522929D02*
X164720000Y-158920000D01*
X163830000Y-158920000D02*
X163830000Y-161580000D01*
X162940000Y-161580000D02*
X162940000Y-167580000D01*
X162940000Y-167580000D02*
X162180000Y-167580000D01*
X162180000Y-167580000D02*
X162180000Y-161580000D01*
X162940000Y-158522929D02*
X162940000Y-158920000D01*
X162180000Y-158522929D02*
X162180000Y-158920000D01*
X161290000Y-158920000D02*
X161290000Y-161580000D01*
X160400000Y-161580000D02*
X160400000Y-167580000D01*
X160400000Y-167580000D02*
X159640000Y-167580000D01*
X159640000Y-167580000D02*
X159640000Y-161580000D01*
X160400000Y-158522929D02*
X160400000Y-158920000D01*
X159640000Y-158522929D02*
X159640000Y-158920000D01*
X158750000Y-158920000D02*
X158750000Y-161580000D01*
X157860000Y-161580000D02*
X157860000Y-167580000D01*
X157860000Y-167580000D02*
X157100000Y-167580000D01*
X157100000Y-167580000D02*
X157100000Y-161580000D01*
X157860000Y-158522929D02*
X157860000Y-158920000D01*
X157100000Y-158522929D02*
X157100000Y-158920000D01*
X156210000Y-158920000D02*
X156210000Y-161580000D01*
X155320000Y-161580000D02*
X155320000Y-167580000D01*
X155320000Y-167580000D02*
X154560000Y-167580000D01*
X154560000Y-167580000D02*
X154560000Y-161580000D01*
X155320000Y-158522929D02*
X155320000Y-158920000D01*
X154560000Y-158522929D02*
X154560000Y-158920000D01*
X153670000Y-158920000D02*
X153670000Y-161580000D01*
X152780000Y-161580000D02*
X152780000Y-167580000D01*
X152780000Y-167580000D02*
X152020000Y-167580000D01*
X152020000Y-167580000D02*
X152020000Y-161580000D01*
X152780000Y-158522929D02*
X152780000Y-158920000D01*
X152020000Y-158522929D02*
X152020000Y-158920000D01*
X151130000Y-158920000D02*
X151130000Y-161580000D01*
X150240000Y-161580000D02*
X150240000Y-167580000D01*
X150240000Y-167580000D02*
X149480000Y-167580000D01*
X149480000Y-167580000D02*
X149480000Y-161580000D01*
X150240000Y-158522929D02*
X150240000Y-158920000D01*
X149480000Y-158522929D02*
X149480000Y-158920000D01*
X148590000Y-158920000D02*
X148590000Y-161580000D01*
X147700000Y-161580000D02*
X147700000Y-167580000D01*
X147700000Y-167580000D02*
X146940000Y-167580000D01*
X146940000Y-167580000D02*
X146940000Y-161580000D01*
X147700000Y-158522929D02*
X147700000Y-158920000D01*
X146940000Y-158522929D02*
X146940000Y-158920000D01*
X146050000Y-158920000D02*
X146050000Y-161580000D01*
X145160000Y-161580000D02*
X145160000Y-167580000D01*
X145160000Y-167580000D02*
X144400000Y-167580000D01*
X144400000Y-167580000D02*
X144400000Y-161580000D01*
X145160000Y-158522929D02*
X145160000Y-158920000D01*
X144400000Y-158522929D02*
X144400000Y-158920000D01*
X143510000Y-158920000D02*
X143510000Y-161580000D01*
X142620000Y-161580000D02*
X142620000Y-167580000D01*
X142620000Y-167580000D02*
X141860000Y-167580000D01*
X141860000Y-167580000D02*
X141860000Y-161580000D01*
X142620000Y-158522929D02*
X142620000Y-158920000D01*
X141860000Y-158522929D02*
X141860000Y-158920000D01*
X140970000Y-158920000D02*
X140970000Y-161580000D01*
X140080000Y-161580000D02*
X140080000Y-167580000D01*
X140080000Y-167580000D02*
X139320000Y-167580000D01*
X139320000Y-167580000D02*
X139320000Y-161580000D01*
X140080000Y-158522929D02*
X140080000Y-158920000D01*
X139320000Y-158522929D02*
X139320000Y-158920000D01*
X138430000Y-158920000D02*
X138430000Y-161580000D01*
X137540000Y-161580000D02*
X137540000Y-167580000D01*
X137540000Y-167580000D02*
X136780000Y-167580000D01*
X136780000Y-167580000D02*
X136780000Y-161580000D01*
X137540000Y-158522929D02*
X137540000Y-158920000D01*
X136780000Y-158522929D02*
X136780000Y-158920000D01*
X135890000Y-158920000D02*
X135890000Y-161580000D01*
X135000000Y-161580000D02*
X135000000Y-167580000D01*
X135000000Y-167580000D02*
X134240000Y-167580000D01*
X134240000Y-167580000D02*
X134240000Y-161580000D01*
X135000000Y-158522929D02*
X135000000Y-158920000D01*
X134240000Y-158522929D02*
X134240000Y-158920000D01*
X133350000Y-158920000D02*
X133350000Y-161580000D01*
X132460000Y-161580000D02*
X132460000Y-167580000D01*
X132460000Y-167580000D02*
X131700000Y-167580000D01*
X131700000Y-167580000D02*
X131700000Y-161580000D01*
X132460000Y-158522929D02*
X132460000Y-158920000D01*
X131700000Y-158522929D02*
X131700000Y-158920000D01*
X130810000Y-158920000D02*
X130810000Y-161580000D01*
X129920000Y-161580000D02*
X129920000Y-167580000D01*
X129920000Y-167580000D02*
X129160000Y-167580000D01*
X129160000Y-167580000D02*
X129160000Y-161580000D01*
X129920000Y-158522929D02*
X129920000Y-158920000D01*
X129160000Y-158522929D02*
X129160000Y-158920000D01*
X167640000Y-156210000D02*
X168910000Y-156210000D01*
X168910000Y-156210000D02*
X168910000Y-157480000D01*
X273050000Y-156210000D02*
X273050000Y-157480000D01*
X271780000Y-156210000D02*
X273050000Y-156210000D01*
X192660000Y-158522929D02*
X192660000Y-158920000D01*
X193420000Y-158522929D02*
X193420000Y-158920000D01*
X192660000Y-167580000D02*
X192660000Y-161580000D01*
X193420000Y-167580000D02*
X192660000Y-167580000D01*
X193420000Y-161580000D02*
X193420000Y-167580000D01*
X194310000Y-158920000D02*
X194310000Y-161580000D01*
X195200000Y-158522929D02*
X195200000Y-158920000D01*
X195960000Y-158522929D02*
X195960000Y-158920000D01*
X195200000Y-167580000D02*
X195200000Y-161580000D01*
X195960000Y-167580000D02*
X195200000Y-167580000D01*
X195960000Y-161580000D02*
X195960000Y-167580000D01*
X196850000Y-158920000D02*
X196850000Y-161580000D01*
X197740000Y-158522929D02*
X197740000Y-158920000D01*
X198500000Y-158522929D02*
X198500000Y-158920000D01*
X197740000Y-167580000D02*
X197740000Y-161580000D01*
X198500000Y-167580000D02*
X197740000Y-167580000D01*
X198500000Y-161580000D02*
X198500000Y-167580000D01*
X199390000Y-158920000D02*
X199390000Y-161580000D01*
X200280000Y-158522929D02*
X200280000Y-158920000D01*
X201040000Y-158522929D02*
X201040000Y-158920000D01*
X200280000Y-167580000D02*
X200280000Y-161580000D01*
X201040000Y-167580000D02*
X200280000Y-167580000D01*
X201040000Y-161580000D02*
X201040000Y-167580000D01*
X201930000Y-158920000D02*
X201930000Y-161580000D01*
X202820000Y-158522929D02*
X202820000Y-158920000D01*
X203580000Y-158522929D02*
X203580000Y-158920000D01*
X202820000Y-167580000D02*
X202820000Y-161580000D01*
X203580000Y-167580000D02*
X202820000Y-167580000D01*
X203580000Y-161580000D02*
X203580000Y-167580000D01*
X204470000Y-158920000D02*
X204470000Y-161580000D01*
X205360000Y-158522929D02*
X205360000Y-158920000D01*
X206120000Y-158522929D02*
X206120000Y-158920000D01*
X205360000Y-167580000D02*
X205360000Y-161580000D01*
X206120000Y-167580000D02*
X205360000Y-167580000D01*
X206120000Y-161580000D02*
X206120000Y-167580000D01*
X207010000Y-158920000D02*
X207010000Y-161580000D01*
X207900000Y-158522929D02*
X207900000Y-158920000D01*
X208660000Y-158522929D02*
X208660000Y-158920000D01*
X207900000Y-167580000D02*
X207900000Y-161580000D01*
X208660000Y-167580000D02*
X207900000Y-167580000D01*
X208660000Y-161580000D02*
X208660000Y-167580000D01*
X209550000Y-158920000D02*
X209550000Y-161580000D01*
X210440000Y-158522929D02*
X210440000Y-158920000D01*
X211200000Y-158522929D02*
X211200000Y-158920000D01*
X210440000Y-167580000D02*
X210440000Y-161580000D01*
X211200000Y-167580000D02*
X210440000Y-167580000D01*
X211200000Y-161580000D02*
X211200000Y-167580000D01*
X212090000Y-158920000D02*
X212090000Y-161580000D01*
X212980000Y-158522929D02*
X212980000Y-158920000D01*
X213740000Y-158522929D02*
X213740000Y-158920000D01*
X212980000Y-167580000D02*
X212980000Y-161580000D01*
X213740000Y-167580000D02*
X212980000Y-167580000D01*
X213740000Y-161580000D02*
X213740000Y-167580000D01*
X214630000Y-158920000D02*
X214630000Y-161580000D01*
X215520000Y-158522929D02*
X215520000Y-158920000D01*
X216280000Y-158522929D02*
X216280000Y-158920000D01*
X215520000Y-167580000D02*
X215520000Y-161580000D01*
X216280000Y-167580000D02*
X215520000Y-167580000D01*
X216280000Y-161580000D02*
X216280000Y-167580000D01*
X217170000Y-158920000D02*
X217170000Y-161580000D01*
X218060000Y-158522929D02*
X218060000Y-158920000D01*
X218820000Y-158522929D02*
X218820000Y-158920000D01*
X218060000Y-167580000D02*
X218060000Y-161580000D01*
X218820000Y-167580000D02*
X218060000Y-167580000D01*
X218820000Y-161580000D02*
X218820000Y-167580000D01*
X219710000Y-158920000D02*
X219710000Y-161580000D01*
X220600000Y-158522929D02*
X220600000Y-158920000D01*
X221360000Y-158522929D02*
X221360000Y-158920000D01*
X220600000Y-167580000D02*
X220600000Y-161580000D01*
X221360000Y-167580000D02*
X220600000Y-167580000D01*
X221360000Y-161580000D02*
X221360000Y-167580000D01*
X222250000Y-158920000D02*
X222250000Y-161580000D01*
X223140000Y-158522929D02*
X223140000Y-158920000D01*
X223900000Y-158522929D02*
X223900000Y-158920000D01*
X223140000Y-167580000D02*
X223140000Y-161580000D01*
X223900000Y-167580000D02*
X223140000Y-167580000D01*
X223900000Y-161580000D02*
X223900000Y-167580000D01*
X224790000Y-158920000D02*
X224790000Y-161580000D01*
X225680000Y-158522929D02*
X225680000Y-158920000D01*
X226440000Y-158522929D02*
X226440000Y-158920000D01*
X225680000Y-167580000D02*
X225680000Y-161580000D01*
X226440000Y-167580000D02*
X225680000Y-167580000D01*
X226440000Y-161580000D02*
X226440000Y-167580000D01*
X227330000Y-158920000D02*
X227330000Y-161580000D01*
X228220000Y-158522929D02*
X228220000Y-158920000D01*
X228980000Y-158522929D02*
X228980000Y-158920000D01*
X228220000Y-167580000D02*
X228220000Y-161580000D01*
X228980000Y-167580000D02*
X228220000Y-167580000D01*
X228980000Y-161580000D02*
X228980000Y-167580000D01*
X229870000Y-158920000D02*
X229870000Y-161580000D01*
X230760000Y-158522929D02*
X230760000Y-158920000D01*
X231520000Y-158522929D02*
X231520000Y-158920000D01*
X230760000Y-167580000D02*
X230760000Y-161580000D01*
X231520000Y-167580000D02*
X230760000Y-167580000D01*
X231520000Y-161580000D02*
X231520000Y-167580000D01*
X232410000Y-158920000D02*
X232410000Y-161580000D01*
X233300000Y-158522929D02*
X233300000Y-158920000D01*
X234060000Y-158522929D02*
X234060000Y-158920000D01*
X233300000Y-167580000D02*
X233300000Y-161580000D01*
X234060000Y-167580000D02*
X233300000Y-167580000D01*
X234060000Y-161580000D02*
X234060000Y-167580000D01*
X234950000Y-158920000D02*
X234950000Y-161580000D01*
X235840000Y-158522929D02*
X235840000Y-158920000D01*
X236600000Y-158522929D02*
X236600000Y-158920000D01*
X235840000Y-167580000D02*
X235840000Y-161580000D01*
X236600000Y-167580000D02*
X235840000Y-167580000D01*
X236600000Y-161580000D02*
X236600000Y-167580000D01*
X237490000Y-158920000D02*
X237490000Y-161580000D01*
X238380000Y-158522929D02*
X238380000Y-158920000D01*
X239140000Y-158522929D02*
X239140000Y-158920000D01*
X238380000Y-167580000D02*
X238380000Y-161580000D01*
X239140000Y-167580000D02*
X238380000Y-167580000D01*
X239140000Y-161580000D02*
X239140000Y-167580000D01*
X240030000Y-158920000D02*
X240030000Y-161580000D01*
X240920000Y-158522929D02*
X240920000Y-158920000D01*
X241680000Y-158522929D02*
X241680000Y-158920000D01*
X240920000Y-167580000D02*
X240920000Y-161580000D01*
X241680000Y-167580000D02*
X240920000Y-167580000D01*
X241680000Y-161580000D02*
X241680000Y-167580000D01*
X242570000Y-158920000D02*
X242570000Y-161580000D01*
X243460000Y-158522929D02*
X243460000Y-158920000D01*
X244220000Y-158522929D02*
X244220000Y-158920000D01*
X243460000Y-167580000D02*
X243460000Y-161580000D01*
X244220000Y-167580000D02*
X243460000Y-167580000D01*
X244220000Y-161580000D02*
X244220000Y-167580000D01*
X245110000Y-158920000D02*
X245110000Y-161580000D01*
X246000000Y-158522929D02*
X246000000Y-158920000D01*
X246760000Y-158522929D02*
X246760000Y-158920000D01*
X246000000Y-167580000D02*
X246000000Y-161580000D01*
X246760000Y-167580000D02*
X246000000Y-167580000D01*
X246760000Y-161580000D02*
X246760000Y-167580000D01*
X247650000Y-158920000D02*
X247650000Y-161580000D01*
X248540000Y-158522929D02*
X248540000Y-158920000D01*
X249300000Y-158522929D02*
X249300000Y-158920000D01*
X248540000Y-167580000D02*
X248540000Y-161580000D01*
X249300000Y-167580000D02*
X248540000Y-167580000D01*
X249300000Y-161580000D02*
X249300000Y-167580000D01*
X250190000Y-158920000D02*
X250190000Y-161580000D01*
X251080000Y-158522929D02*
X251080000Y-158920000D01*
X251840000Y-158522929D02*
X251840000Y-158920000D01*
X251080000Y-167580000D02*
X251080000Y-161580000D01*
X251840000Y-167580000D02*
X251080000Y-167580000D01*
X251840000Y-161580000D02*
X251840000Y-167580000D01*
X252730000Y-158920000D02*
X252730000Y-161580000D01*
X253620000Y-158522929D02*
X253620000Y-158920000D01*
X254380000Y-158522929D02*
X254380000Y-158920000D01*
X253620000Y-167580000D02*
X253620000Y-161580000D01*
X254380000Y-167580000D02*
X253620000Y-167580000D01*
X254380000Y-161580000D02*
X254380000Y-167580000D01*
X255270000Y-158920000D02*
X255270000Y-161580000D01*
X256160000Y-158522929D02*
X256160000Y-158920000D01*
X256920000Y-158522929D02*
X256920000Y-158920000D01*
X256160000Y-167580000D02*
X256160000Y-161580000D01*
X256920000Y-167580000D02*
X256160000Y-167580000D01*
X256920000Y-161580000D02*
X256920000Y-167580000D01*
X257810000Y-158920000D02*
X257810000Y-161580000D01*
X258700000Y-158522929D02*
X258700000Y-158920000D01*
X259460000Y-158522929D02*
X259460000Y-158920000D01*
X258700000Y-167580000D02*
X258700000Y-161580000D01*
X259460000Y-167580000D02*
X258700000Y-167580000D01*
X259460000Y-161580000D02*
X259460000Y-167580000D01*
X260350000Y-158920000D02*
X260350000Y-161580000D01*
X261240000Y-158522929D02*
X261240000Y-158920000D01*
X262000000Y-158522929D02*
X262000000Y-158920000D01*
X261240000Y-167580000D02*
X261240000Y-161580000D01*
X262000000Y-167580000D02*
X261240000Y-167580000D01*
X262000000Y-161580000D02*
X262000000Y-167580000D01*
X262890000Y-158920000D02*
X262890000Y-161580000D01*
X263780000Y-158522929D02*
X263780000Y-158920000D01*
X264540000Y-158522929D02*
X264540000Y-158920000D01*
X263780000Y-167580000D02*
X263780000Y-161580000D01*
X264540000Y-167580000D02*
X263780000Y-167580000D01*
X264540000Y-161580000D02*
X264540000Y-167580000D01*
X265430000Y-158920000D02*
X265430000Y-161580000D01*
X266320000Y-158522929D02*
X266320000Y-158920000D01*
X267080000Y-158522929D02*
X267080000Y-158920000D01*
X266320000Y-167580000D02*
X266320000Y-161580000D01*
X267080000Y-167580000D02*
X266320000Y-167580000D01*
X267080000Y-161580000D02*
X267080000Y-167580000D01*
X267970000Y-158920000D02*
X267970000Y-161580000D01*
X268860000Y-158522929D02*
X268860000Y-158920000D01*
X269620000Y-158522929D02*
X269620000Y-158920000D01*
X268860000Y-167580000D02*
X268860000Y-161580000D01*
X269620000Y-167580000D02*
X268860000Y-167580000D01*
X269620000Y-161580000D02*
X269620000Y-167580000D01*
X270510000Y-158920000D02*
X270510000Y-161580000D01*
X271400000Y-158590000D02*
X271400000Y-158920000D01*
X272160000Y-158590000D02*
X272160000Y-158920000D01*
X271500000Y-161580000D02*
X271500000Y-167580000D01*
X271620000Y-161580000D02*
X271620000Y-167580000D01*
X271740000Y-161580000D02*
X271740000Y-167580000D01*
X271860000Y-161580000D02*
X271860000Y-167580000D01*
X271980000Y-161580000D02*
X271980000Y-167580000D01*
X272100000Y-161580000D02*
X272100000Y-167580000D01*
X271400000Y-167580000D02*
X271400000Y-161580000D01*
X272160000Y-167580000D02*
X271400000Y-167580000D01*
X272160000Y-161580000D02*
X272160000Y-167580000D01*
X273110000Y-161580000D02*
X273110000Y-158920000D01*
X191710000Y-161580000D02*
X273110000Y-161580000D01*
X191710000Y-158920000D02*
X191710000Y-161580000D01*
X273110000Y-158920000D02*
X191710000Y-158920000D01*
X77846000Y-151734759D02*
X77216000Y-151734759D01*
X77531000Y-151419759D02*
X77531000Y-152049759D01*
X76094000Y-158161000D02*
X75290000Y-158161000D01*
X76325000Y-158121000D02*
X75059000Y-158121000D01*
X76494000Y-158081000D02*
X74890000Y-158081000D01*
X76632000Y-158041000D02*
X74752000Y-158041000D01*
X76751000Y-158001000D02*
X74633000Y-158001000D01*
X76857000Y-157961000D02*
X74527000Y-157961000D01*
X76954000Y-157921000D02*
X74430000Y-157921000D01*
X77042000Y-157881000D02*
X74342000Y-157881000D01*
X77124000Y-157841000D02*
X74260000Y-157841000D01*
X77201000Y-157801000D02*
X74183000Y-157801000D01*
X77273000Y-157761000D02*
X74111000Y-157761000D01*
X77342000Y-157721000D02*
X74042000Y-157721000D01*
X77406000Y-157681000D02*
X73978000Y-157681000D01*
X77468000Y-157641000D02*
X73916000Y-157641000D01*
X77526000Y-157601000D02*
X73858000Y-157601000D01*
X77582000Y-157561000D02*
X73802000Y-157561000D01*
X77636000Y-157521000D02*
X73748000Y-157521000D01*
X77687000Y-157481000D02*
X73697000Y-157481000D01*
X77736000Y-157441000D02*
X73648000Y-157441000D01*
X77784000Y-157401000D02*
X73600000Y-157401000D01*
X77829000Y-157361000D02*
X73555000Y-157361000D01*
X77874000Y-157321000D02*
X73510000Y-157321000D01*
X77916000Y-157281000D02*
X73468000Y-157281000D01*
X77957000Y-157241000D02*
X73427000Y-157241000D01*
X74652000Y-157201000D02*
X73387000Y-157201000D01*
X77997000Y-157201000D02*
X76732000Y-157201000D01*
X74652000Y-157161000D02*
X73349000Y-157161000D01*
X78035000Y-157161000D02*
X76732000Y-157161000D01*
X74652000Y-157121000D02*
X73312000Y-157121000D01*
X78072000Y-157121000D02*
X76732000Y-157121000D01*
X74652000Y-157081000D02*
X73276000Y-157081000D01*
X78108000Y-157081000D02*
X76732000Y-157081000D01*
X74652000Y-157041000D02*
X73242000Y-157041000D01*
X78142000Y-157041000D02*
X76732000Y-157041000D01*
X74652000Y-157001000D02*
X73208000Y-157001000D01*
X78176000Y-157001000D02*
X76732000Y-157001000D01*
X74652000Y-156961000D02*
X73176000Y-156961000D01*
X78208000Y-156961000D02*
X76732000Y-156961000D01*
X74652000Y-156921000D02*
X73144000Y-156921000D01*
X78240000Y-156921000D02*
X76732000Y-156921000D01*
X74652000Y-156881000D02*
X73114000Y-156881000D01*
X78270000Y-156881000D02*
X76732000Y-156881000D01*
X74652000Y-156841000D02*
X73085000Y-156841000D01*
X78299000Y-156841000D02*
X76732000Y-156841000D01*
X74652000Y-156801000D02*
X73056000Y-156801000D01*
X78328000Y-156801000D02*
X76732000Y-156801000D01*
X74652000Y-156761000D02*
X73028000Y-156761000D01*
X78356000Y-156761000D02*
X76732000Y-156761000D01*
X74652000Y-156721000D02*
X73002000Y-156721000D01*
X78382000Y-156721000D02*
X76732000Y-156721000D01*
X74652000Y-156681000D02*
X72976000Y-156681000D01*
X78408000Y-156681000D02*
X76732000Y-156681000D01*
X74652000Y-156641000D02*
X72950000Y-156641000D01*
X78434000Y-156641000D02*
X76732000Y-156641000D01*
X74652000Y-156601000D02*
X72926000Y-156601000D01*
X78458000Y-156601000D02*
X76732000Y-156601000D01*
X74652000Y-156561000D02*
X72902000Y-156561000D01*
X78482000Y-156561000D02*
X76732000Y-156561000D01*
X74652000Y-156521000D02*
X72880000Y-156521000D01*
X78504000Y-156521000D02*
X76732000Y-156521000D01*
X74652000Y-156481000D02*
X72858000Y-156481000D01*
X78526000Y-156481000D02*
X76732000Y-156481000D01*
X74652000Y-156441000D02*
X72836000Y-156441000D01*
X78548000Y-156441000D02*
X76732000Y-156441000D01*
X74652000Y-156401000D02*
X72816000Y-156401000D01*
X78568000Y-156401000D02*
X76732000Y-156401000D01*
X74652000Y-156361000D02*
X72796000Y-156361000D01*
X78588000Y-156361000D02*
X76732000Y-156361000D01*
X74652000Y-156321000D02*
X72776000Y-156321000D01*
X78608000Y-156321000D02*
X76732000Y-156321000D01*
X74652000Y-156281000D02*
X72758000Y-156281000D01*
X78626000Y-156281000D02*
X76732000Y-156281000D01*
X74652000Y-156241000D02*
X72740000Y-156241000D01*
X78644000Y-156241000D02*
X76732000Y-156241000D01*
X74652000Y-156201000D02*
X72722000Y-156201000D01*
X78662000Y-156201000D02*
X76732000Y-156201000D01*
X74652000Y-156161000D02*
X72706000Y-156161000D01*
X78678000Y-156161000D02*
X76732000Y-156161000D01*
X74652000Y-156121000D02*
X72690000Y-156121000D01*
X78694000Y-156121000D02*
X76732000Y-156121000D01*
X74652000Y-156081000D02*
X72674000Y-156081000D01*
X78710000Y-156081000D02*
X76732000Y-156081000D01*
X74652000Y-156041000D02*
X72659000Y-156041000D01*
X78725000Y-156041000D02*
X76732000Y-156041000D01*
X74652000Y-156001000D02*
X72645000Y-156001000D01*
X78739000Y-156001000D02*
X76732000Y-156001000D01*
X74652000Y-155961000D02*
X72631000Y-155961000D01*
X78753000Y-155961000D02*
X76732000Y-155961000D01*
X74652000Y-155921000D02*
X72618000Y-155921000D01*
X78766000Y-155921000D02*
X76732000Y-155921000D01*
X74652000Y-155881000D02*
X72606000Y-155881000D01*
X78778000Y-155881000D02*
X76732000Y-155881000D01*
X74652000Y-155841000D02*
X72594000Y-155841000D01*
X78790000Y-155841000D02*
X76732000Y-155841000D01*
X74652000Y-155801000D02*
X72582000Y-155801000D01*
X78802000Y-155801000D02*
X76732000Y-155801000D01*
X74652000Y-155761000D02*
X72571000Y-155761000D01*
X78813000Y-155761000D02*
X76732000Y-155761000D01*
X74652000Y-155721000D02*
X72561000Y-155721000D01*
X78823000Y-155721000D02*
X76732000Y-155721000D01*
X74652000Y-155681000D02*
X72551000Y-155681000D01*
X78833000Y-155681000D02*
X76732000Y-155681000D01*
X74652000Y-155641000D02*
X72542000Y-155641000D01*
X78842000Y-155641000D02*
X76732000Y-155641000D01*
X74652000Y-155600000D02*
X72533000Y-155600000D01*
X78851000Y-155600000D02*
X76732000Y-155600000D01*
X74652000Y-155560000D02*
X72525000Y-155560000D01*
X78859000Y-155560000D02*
X76732000Y-155560000D01*
X74652000Y-155520000D02*
X72517000Y-155520000D01*
X78867000Y-155520000D02*
X76732000Y-155520000D01*
X74652000Y-155480000D02*
X72510000Y-155480000D01*
X78874000Y-155480000D02*
X76732000Y-155480000D01*
X74652000Y-155440000D02*
X72503000Y-155440000D01*
X78881000Y-155440000D02*
X76732000Y-155440000D01*
X74652000Y-155400000D02*
X72497000Y-155400000D01*
X78887000Y-155400000D02*
X76732000Y-155400000D01*
X74652000Y-155360000D02*
X72491000Y-155360000D01*
X78893000Y-155360000D02*
X76732000Y-155360000D01*
X74652000Y-155320000D02*
X72486000Y-155320000D01*
X78898000Y-155320000D02*
X76732000Y-155320000D01*
X74652000Y-155280000D02*
X72481000Y-155280000D01*
X78903000Y-155280000D02*
X76732000Y-155280000D01*
X74652000Y-155240000D02*
X72477000Y-155240000D01*
X78907000Y-155240000D02*
X76732000Y-155240000D01*
X74652000Y-155200000D02*
X72474000Y-155200000D01*
X78910000Y-155200000D02*
X76732000Y-155200000D01*
X74652000Y-155160000D02*
X72470000Y-155160000D01*
X78914000Y-155160000D02*
X76732000Y-155160000D01*
X78916000Y-155120000D02*
X72468000Y-155120000D01*
X78919000Y-155080000D02*
X72465000Y-155080000D01*
X78920000Y-155040000D02*
X72464000Y-155040000D01*
X78922000Y-155000000D02*
X72462000Y-155000000D01*
X78922000Y-154960000D02*
X72462000Y-154960000D01*
X78922000Y-154920000D02*
X72462000Y-154920000D01*
X78962000Y-154920000D02*
G75*
G03X78962000Y-154920000I-3270000J0D01*
G01*
X112910000Y-120590000D02*
X112910000Y-138490000D01*
X143630000Y-120590000D02*
X112910000Y-120590000D01*
X143630000Y-138490000D02*
X143630000Y-120590000D01*
X112910000Y-138490000D02*
X143630000Y-138490000D01*
X112970000Y-123080000D02*
X112970000Y-128540000D01*
X143570000Y-123080000D02*
X112970000Y-123080000D01*
X143570000Y-136000000D02*
X143570000Y-123080000D01*
X112970000Y-136000000D02*
X143570000Y-136000000D01*
X112970000Y-130540000D02*
X112970000Y-136000000D01*
X112970000Y-128540000D02*
G75*
G02X112970000Y-130540000I0J-1000000D01*
G01*
X173990000Y-75120000D02*
X173990000Y-75120000D01*
X173990000Y-72450000D02*
X173990000Y-75120000D01*
X173990000Y-72450000D02*
X173990000Y-72450000D01*
X173990000Y-75120000D02*
X173990000Y-72450000D01*
X176530000Y-75120000D02*
X176530000Y-75120000D01*
X176530000Y-72450000D02*
X176530000Y-75120000D01*
X176530000Y-72450000D02*
X176530000Y-72450000D01*
X176530000Y-75120000D02*
X176530000Y-72450000D01*
X172700000Y-72450000D02*
X172300000Y-72450000D01*
X172700000Y-71330000D02*
X172700000Y-72450000D01*
X172300000Y-71330000D02*
X172700000Y-71330000D01*
X172300000Y-72450000D02*
X172300000Y-71330000D01*
X177820000Y-72450000D02*
X172700000Y-72450000D01*
X172700000Y-72450000D02*
X172700000Y-66802000D01*
X177820000Y-72450000D02*
X177820000Y-66802000D01*
X172700000Y-66802000D02*
G75*
G02X177820000Y-66802000I2560000J0D01*
G01*
X180340000Y-75120000D02*
X180340000Y-75120000D01*
X180340000Y-72450000D02*
X180340000Y-75120000D01*
X180340000Y-72450000D02*
X180340000Y-72450000D01*
X180340000Y-75120000D02*
X180340000Y-72450000D01*
X182880000Y-75120000D02*
X182880000Y-75120000D01*
X182880000Y-72450000D02*
X182880000Y-75120000D01*
X182880000Y-72450000D02*
X182880000Y-72450000D01*
X182880000Y-75120000D02*
X182880000Y-72450000D01*
X179050000Y-72450000D02*
X178650000Y-72450000D01*
X179050000Y-71330000D02*
X179050000Y-72450000D01*
X178650000Y-71330000D02*
X179050000Y-71330000D01*
X178650000Y-72450000D02*
X178650000Y-71330000D01*
X184170000Y-72450000D02*
X179050000Y-72450000D01*
X179050000Y-72450000D02*
X179050000Y-66802000D01*
X184170000Y-72450000D02*
X184170000Y-66802000D01*
X179050000Y-66802000D02*
G75*
G02X184170000Y-66802000I2560000J0D01*
G01*
X186690000Y-75120000D02*
X186690000Y-75120000D01*
X186690000Y-72450000D02*
X186690000Y-75120000D01*
X186690000Y-72450000D02*
X186690000Y-72450000D01*
X186690000Y-75120000D02*
X186690000Y-72450000D01*
X189230000Y-75120000D02*
X189230000Y-75120000D01*
X189230000Y-72450000D02*
X189230000Y-75120000D01*
X189230000Y-72450000D02*
X189230000Y-72450000D01*
X189230000Y-75120000D02*
X189230000Y-72450000D01*
X185400000Y-72450000D02*
X185000000Y-72450000D01*
X185400000Y-71330000D02*
X185400000Y-72450000D01*
X185000000Y-71330000D02*
X185400000Y-71330000D01*
X185000000Y-72450000D02*
X185000000Y-71330000D01*
X190520000Y-72450000D02*
X185400000Y-72450000D01*
X185400000Y-72450000D02*
X185400000Y-66802000D01*
X190520000Y-72450000D02*
X190520000Y-66802000D01*
X185400000Y-66802000D02*
G75*
G02X190520000Y-66802000I2560000J0D01*
G01*
X193040000Y-75120000D02*
X193040000Y-75120000D01*
X193040000Y-72450000D02*
X193040000Y-75120000D01*
X193040000Y-72450000D02*
X193040000Y-72450000D01*
X193040000Y-75120000D02*
X193040000Y-72450000D01*
X195580000Y-75120000D02*
X195580000Y-75120000D01*
X195580000Y-72450000D02*
X195580000Y-75120000D01*
X195580000Y-72450000D02*
X195580000Y-72450000D01*
X195580000Y-75120000D02*
X195580000Y-72450000D01*
X191750000Y-72450000D02*
X191350000Y-72450000D01*
X191750000Y-71330000D02*
X191750000Y-72450000D01*
X191350000Y-71330000D02*
X191750000Y-71330000D01*
X191350000Y-72450000D02*
X191350000Y-71330000D01*
X196870000Y-72450000D02*
X191750000Y-72450000D01*
X191750000Y-72450000D02*
X191750000Y-66802000D01*
X196870000Y-72450000D02*
X196870000Y-66802000D01*
X191750000Y-66802000D02*
G75*
G02X196870000Y-66802000I2560000J0D01*
G01*
X199390000Y-75120000D02*
X199390000Y-75120000D01*
X199390000Y-72450000D02*
X199390000Y-75120000D01*
X199390000Y-72450000D02*
X199390000Y-72450000D01*
X199390000Y-75120000D02*
X199390000Y-72450000D01*
X201930000Y-75120000D02*
X201930000Y-75120000D01*
X201930000Y-72450000D02*
X201930000Y-75120000D01*
X201930000Y-72450000D02*
X201930000Y-72450000D01*
X201930000Y-75120000D02*
X201930000Y-72450000D01*
X198100000Y-72450000D02*
X197700000Y-72450000D01*
X198100000Y-71330000D02*
X198100000Y-72450000D01*
X197700000Y-71330000D02*
X198100000Y-71330000D01*
X197700000Y-72450000D02*
X197700000Y-71330000D01*
X203220000Y-72450000D02*
X198100000Y-72450000D01*
X198100000Y-72450000D02*
X198100000Y-66802000D01*
X203220000Y-72450000D02*
X203220000Y-66802000D01*
X198100000Y-66802000D02*
G75*
G02X203220000Y-66802000I2560000J0D01*
G01*
X205740000Y-75120000D02*
X205740000Y-75120000D01*
X205740000Y-72450000D02*
X205740000Y-75120000D01*
X205740000Y-72450000D02*
X205740000Y-72450000D01*
X205740000Y-75120000D02*
X205740000Y-72450000D01*
X208280000Y-75120000D02*
X208280000Y-75120000D01*
X208280000Y-72450000D02*
X208280000Y-75120000D01*
X208280000Y-72450000D02*
X208280000Y-72450000D01*
X208280000Y-75120000D02*
X208280000Y-72450000D01*
X204450000Y-72450000D02*
X204050000Y-72450000D01*
X204450000Y-71330000D02*
X204450000Y-72450000D01*
X204050000Y-71330000D02*
X204450000Y-71330000D01*
X204050000Y-72450000D02*
X204050000Y-71330000D01*
X209570000Y-72450000D02*
X204450000Y-72450000D01*
X204450000Y-72450000D02*
X204450000Y-66802000D01*
X209570000Y-72450000D02*
X209570000Y-66802000D01*
X204450000Y-66802000D02*
G75*
G02X209570000Y-66802000I2560000J0D01*
G01*
X212090000Y-75120000D02*
X212090000Y-75120000D01*
X212090000Y-72450000D02*
X212090000Y-75120000D01*
X212090000Y-72450000D02*
X212090000Y-72450000D01*
X212090000Y-75120000D02*
X212090000Y-72450000D01*
X214630000Y-75120000D02*
X214630000Y-75120000D01*
X214630000Y-72450000D02*
X214630000Y-75120000D01*
X214630000Y-72450000D02*
X214630000Y-72450000D01*
X214630000Y-75120000D02*
X214630000Y-72450000D01*
X210800000Y-72450000D02*
X210400000Y-72450000D01*
X210800000Y-71330000D02*
X210800000Y-72450000D01*
X210400000Y-71330000D02*
X210800000Y-71330000D01*
X210400000Y-72450000D02*
X210400000Y-71330000D01*
X215920000Y-72450000D02*
X210800000Y-72450000D01*
X210800000Y-72450000D02*
X210800000Y-66802000D01*
X215920000Y-72450000D02*
X215920000Y-66802000D01*
X210800000Y-66802000D02*
G75*
G02X215920000Y-66802000I2560000J0D01*
G01*
X218440000Y-75120000D02*
X218440000Y-75120000D01*
X218440000Y-72450000D02*
X218440000Y-75120000D01*
X218440000Y-72450000D02*
X218440000Y-72450000D01*
X218440000Y-75120000D02*
X218440000Y-72450000D01*
X220980000Y-75120000D02*
X220980000Y-75120000D01*
X220980000Y-72450000D02*
X220980000Y-75120000D01*
X220980000Y-72450000D02*
X220980000Y-72450000D01*
X220980000Y-75120000D02*
X220980000Y-72450000D01*
X217150000Y-72450000D02*
X216750000Y-72450000D01*
X217150000Y-71330000D02*
X217150000Y-72450000D01*
X216750000Y-71330000D02*
X217150000Y-71330000D01*
X216750000Y-72450000D02*
X216750000Y-71330000D01*
X222270000Y-72450000D02*
X217150000Y-72450000D01*
X217150000Y-72450000D02*
X217150000Y-66802000D01*
X222270000Y-72450000D02*
X222270000Y-66802000D01*
X217150000Y-66802000D02*
G75*
G02X222270000Y-66802000I2560000J0D01*
G01*
X224790000Y-75120000D02*
X224790000Y-75120000D01*
X224790000Y-72450000D02*
X224790000Y-75120000D01*
X224790000Y-72450000D02*
X224790000Y-72450000D01*
X224790000Y-75120000D02*
X224790000Y-72450000D01*
X227330000Y-75120000D02*
X227330000Y-75120000D01*
X227330000Y-72450000D02*
X227330000Y-75120000D01*
X227330000Y-72450000D02*
X227330000Y-72450000D01*
X227330000Y-75120000D02*
X227330000Y-72450000D01*
X223500000Y-72450000D02*
X223100000Y-72450000D01*
X223500000Y-71330000D02*
X223500000Y-72450000D01*
X223100000Y-71330000D02*
X223500000Y-71330000D01*
X223100000Y-72450000D02*
X223100000Y-71330000D01*
X228620000Y-72450000D02*
X223500000Y-72450000D01*
X223500000Y-72450000D02*
X223500000Y-66802000D01*
X228620000Y-72450000D02*
X228620000Y-66802000D01*
X223500000Y-66802000D02*
G75*
G02X228620000Y-66802000I2560000J0D01*
G01*
X231140000Y-75120000D02*
X231140000Y-75120000D01*
X231140000Y-72450000D02*
X231140000Y-75120000D01*
X231140000Y-72450000D02*
X231140000Y-72450000D01*
X231140000Y-75120000D02*
X231140000Y-72450000D01*
X233680000Y-75120000D02*
X233680000Y-75120000D01*
X233680000Y-72450000D02*
X233680000Y-75120000D01*
X233680000Y-72450000D02*
X233680000Y-72450000D01*
X233680000Y-75120000D02*
X233680000Y-72450000D01*
X229850000Y-72450000D02*
X229450000Y-72450000D01*
X229850000Y-71330000D02*
X229850000Y-72450000D01*
X229450000Y-71330000D02*
X229850000Y-71330000D01*
X229450000Y-72450000D02*
X229450000Y-71330000D01*
X234970000Y-72450000D02*
X229850000Y-72450000D01*
X229850000Y-72450000D02*
X229850000Y-66802000D01*
X234970000Y-72450000D02*
X234970000Y-66802000D01*
X229850000Y-66802000D02*
G75*
G02X234970000Y-66802000I2560000J0D01*
G01*
X237490000Y-75120000D02*
X237490000Y-75120000D01*
X237490000Y-72450000D02*
X237490000Y-75120000D01*
X237490000Y-72450000D02*
X237490000Y-72450000D01*
X237490000Y-75120000D02*
X237490000Y-72450000D01*
X240030000Y-75120000D02*
X240030000Y-75120000D01*
X240030000Y-72450000D02*
X240030000Y-75120000D01*
X240030000Y-72450000D02*
X240030000Y-72450000D01*
X240030000Y-75120000D02*
X240030000Y-72450000D01*
X236200000Y-72450000D02*
X235800000Y-72450000D01*
X236200000Y-71330000D02*
X236200000Y-72450000D01*
X235800000Y-71330000D02*
X236200000Y-71330000D01*
X235800000Y-72450000D02*
X235800000Y-71330000D01*
X241320000Y-72450000D02*
X236200000Y-72450000D01*
X236200000Y-72450000D02*
X236200000Y-66802000D01*
X241320000Y-72450000D02*
X241320000Y-66802000D01*
X236200000Y-66802000D02*
G75*
G02X241320000Y-66802000I2560000J0D01*
G01*
X243840000Y-75120000D02*
X243840000Y-75120000D01*
X243840000Y-72450000D02*
X243840000Y-75120000D01*
X243840000Y-72450000D02*
X243840000Y-72450000D01*
X243840000Y-75120000D02*
X243840000Y-72450000D01*
X246380000Y-75120000D02*
X246380000Y-75120000D01*
X246380000Y-72450000D02*
X246380000Y-75120000D01*
X246380000Y-72450000D02*
X246380000Y-72450000D01*
X246380000Y-75120000D02*
X246380000Y-72450000D01*
X242550000Y-72450000D02*
X242150000Y-72450000D01*
X242550000Y-71330000D02*
X242550000Y-72450000D01*
X242150000Y-71330000D02*
X242550000Y-71330000D01*
X242150000Y-72450000D02*
X242150000Y-71330000D01*
X247670000Y-72450000D02*
X242550000Y-72450000D01*
X242550000Y-72450000D02*
X242550000Y-66802000D01*
X247670000Y-72450000D02*
X247670000Y-66802000D01*
X242550000Y-66802000D02*
G75*
G02X247670000Y-66802000I2560000J0D01*
G01*
X250190000Y-75120000D02*
X250190000Y-75120000D01*
X250190000Y-72450000D02*
X250190000Y-75120000D01*
X250190000Y-72450000D02*
X250190000Y-72450000D01*
X250190000Y-75120000D02*
X250190000Y-72450000D01*
X252730000Y-75120000D02*
X252730000Y-75120000D01*
X252730000Y-72450000D02*
X252730000Y-75120000D01*
X252730000Y-72450000D02*
X252730000Y-72450000D01*
X252730000Y-75120000D02*
X252730000Y-72450000D01*
X248900000Y-72450000D02*
X248500000Y-72450000D01*
X248900000Y-71330000D02*
X248900000Y-72450000D01*
X248500000Y-71330000D02*
X248900000Y-71330000D01*
X248500000Y-72450000D02*
X248500000Y-71330000D01*
X254020000Y-72450000D02*
X248900000Y-72450000D01*
X248900000Y-72450000D02*
X248900000Y-66802000D01*
X254020000Y-72450000D02*
X254020000Y-66802000D01*
X248900000Y-66802000D02*
G75*
G02X254020000Y-66802000I2560000J0D01*
G01*
X256540000Y-75120000D02*
X256540000Y-75120000D01*
X256540000Y-72450000D02*
X256540000Y-75120000D01*
X256540000Y-72450000D02*
X256540000Y-72450000D01*
X256540000Y-75120000D02*
X256540000Y-72450000D01*
X259080000Y-75120000D02*
X259080000Y-75120000D01*
X259080000Y-72450000D02*
X259080000Y-75120000D01*
X259080000Y-72450000D02*
X259080000Y-72450000D01*
X259080000Y-75120000D02*
X259080000Y-72450000D01*
X255250000Y-72450000D02*
X254850000Y-72450000D01*
X255250000Y-71330000D02*
X255250000Y-72450000D01*
X254850000Y-71330000D02*
X255250000Y-71330000D01*
X254850000Y-72450000D02*
X254850000Y-71330000D01*
X260370000Y-72450000D02*
X255250000Y-72450000D01*
X255250000Y-72450000D02*
X255250000Y-66802000D01*
X260370000Y-72450000D02*
X260370000Y-66802000D01*
X255250000Y-66802000D02*
G75*
G02X260370000Y-66802000I2560000J0D01*
G01*
X262890000Y-75120000D02*
X262890000Y-75120000D01*
X262890000Y-72450000D02*
X262890000Y-75120000D01*
X262890000Y-72450000D02*
X262890000Y-72450000D01*
X262890000Y-75120000D02*
X262890000Y-72450000D01*
X265430000Y-75120000D02*
X265430000Y-75120000D01*
X265430000Y-72450000D02*
X265430000Y-75120000D01*
X265430000Y-72450000D02*
X265430000Y-72450000D01*
X265430000Y-75120000D02*
X265430000Y-72450000D01*
X261600000Y-72450000D02*
X261200000Y-72450000D01*
X261600000Y-71330000D02*
X261600000Y-72450000D01*
X261200000Y-71330000D02*
X261600000Y-71330000D01*
X261200000Y-72450000D02*
X261200000Y-71330000D01*
X266720000Y-72450000D02*
X261600000Y-72450000D01*
X261600000Y-72450000D02*
X261600000Y-66802000D01*
X266720000Y-72450000D02*
X266720000Y-66802000D01*
X261600000Y-66802000D02*
G75*
G02X266720000Y-66802000I2560000J0D01*
G01*
X269240000Y-75120000D02*
X269240000Y-75120000D01*
X269240000Y-72450000D02*
X269240000Y-75120000D01*
X269240000Y-72450000D02*
X269240000Y-72450000D01*
X269240000Y-75120000D02*
X269240000Y-72450000D01*
X271780000Y-75120000D02*
X271780000Y-75120000D01*
X271780000Y-72450000D02*
X271780000Y-75120000D01*
X271780000Y-72450000D02*
X271780000Y-72450000D01*
X271780000Y-75120000D02*
X271780000Y-72450000D01*
X267950000Y-72450000D02*
X267550000Y-72450000D01*
X267950000Y-71330000D02*
X267950000Y-72450000D01*
X267550000Y-71330000D02*
X267950000Y-71330000D01*
X267550000Y-72450000D02*
X267550000Y-71330000D01*
X273070000Y-72450000D02*
X267950000Y-72450000D01*
X267950000Y-72450000D02*
X267950000Y-66802000D01*
X273070000Y-72450000D02*
X273070000Y-66802000D01*
X267950000Y-66802000D02*
G75*
G02X273070000Y-66802000I2560000J0D01*
G01*
X77350000Y-79950000D02*
X77350000Y-90230000D01*
X97910000Y-79950000D02*
X77350000Y-79950000D01*
X97910000Y-90230000D02*
X97910000Y-79950000D01*
X77350000Y-90230000D02*
X97910000Y-90230000D01*
X77410000Y-82440000D02*
X77410000Y-84090000D01*
X97850000Y-82440000D02*
X77410000Y-82440000D01*
X97850000Y-87740000D02*
X97850000Y-82440000D01*
X77410000Y-87740000D02*
X97850000Y-87740000D01*
X77410000Y-86090000D02*
X77410000Y-87740000D01*
X77410000Y-84090000D02*
G75*
G02X77410000Y-86090000I0J-1000000D01*
G01*
X77350000Y-115510000D02*
X77350000Y-125790000D01*
X97910000Y-115510000D02*
X77350000Y-115510000D01*
X97910000Y-125790000D02*
X97910000Y-115510000D01*
X77350000Y-125790000D02*
X97910000Y-125790000D01*
X77410000Y-118000000D02*
X77410000Y-119650000D01*
X97850000Y-118000000D02*
X77410000Y-118000000D01*
X97850000Y-123300000D02*
X97850000Y-118000000D01*
X77410000Y-123300000D02*
X97850000Y-123300000D01*
X77410000Y-121650000D02*
X77410000Y-123300000D01*
X77410000Y-119650000D02*
G75*
G02X77410000Y-121650000I0J-1000000D01*
G01*
X77350000Y-97730000D02*
X77350000Y-108010000D01*
X97910000Y-97730000D02*
X77350000Y-97730000D01*
X97910000Y-108010000D02*
X97910000Y-97730000D01*
X77350000Y-108010000D02*
X97910000Y-108010000D01*
X77410000Y-100220000D02*
X77410000Y-101870000D01*
X97850000Y-100220000D02*
X77410000Y-100220000D01*
X97850000Y-105520000D02*
X97850000Y-100220000D01*
X77410000Y-105520000D02*
X97850000Y-105520000D01*
X77410000Y-103870000D02*
X77410000Y-105520000D01*
X77410000Y-101870000D02*
G75*
G02X77410000Y-103870000I0J-1000000D01*
G01*
X77350000Y-133290000D02*
X77350000Y-143570000D01*
X97910000Y-133290000D02*
X77350000Y-133290000D01*
X97910000Y-143570000D02*
X97910000Y-133290000D01*
X77350000Y-143570000D02*
X97910000Y-143570000D01*
X77410000Y-135780000D02*
X77410000Y-137430000D01*
X97850000Y-135780000D02*
X77410000Y-135780000D01*
X97850000Y-141080000D02*
X97850000Y-135780000D01*
X77410000Y-141080000D02*
X97850000Y-141080000D01*
X77410000Y-139430000D02*
X77410000Y-141080000D01*
X77410000Y-137430000D02*
G75*
G02X77410000Y-139430000I0J-1000000D01*
G01*
X156090000Y-120590000D02*
X156090000Y-138490000D01*
X186810000Y-120590000D02*
X156090000Y-120590000D01*
X186810000Y-138490000D02*
X186810000Y-120590000D01*
X156090000Y-138490000D02*
X186810000Y-138490000D01*
X156150000Y-123080000D02*
X156150000Y-128540000D01*
X186750000Y-123080000D02*
X156150000Y-123080000D01*
X186750000Y-136000000D02*
X186750000Y-123080000D01*
X156150000Y-136000000D02*
X186750000Y-136000000D01*
X156150000Y-130540000D02*
X156150000Y-136000000D01*
X156150000Y-128540000D02*
G75*
G02X156150000Y-130540000I0J-1000000D01*
G01*
X199270000Y-120590000D02*
X199270000Y-138490000D01*
X229990000Y-120590000D02*
X199270000Y-120590000D01*
X229990000Y-138490000D02*
X229990000Y-120590000D01*
X199270000Y-138490000D02*
X229990000Y-138490000D01*
X199330000Y-123080000D02*
X199330000Y-128540000D01*
X229930000Y-123080000D02*
X199330000Y-123080000D01*
X229930000Y-136000000D02*
X229930000Y-123080000D01*
X199330000Y-136000000D02*
X229930000Y-136000000D01*
X199330000Y-130540000D02*
X199330000Y-136000000D01*
X199330000Y-128540000D02*
G75*
G02X199330000Y-130540000I0J-1000000D01*
G01*
X242450000Y-120590000D02*
X242450000Y-138490000D01*
X273170000Y-120590000D02*
X242450000Y-120590000D01*
X273170000Y-138490000D02*
X273170000Y-120590000D01*
X242450000Y-138490000D02*
X273170000Y-138490000D01*
X242510000Y-123080000D02*
X242510000Y-128540000D01*
X273110000Y-123080000D02*
X242510000Y-123080000D01*
X273110000Y-136000000D02*
X273110000Y-123080000D01*
X242510000Y-136000000D02*
X273110000Y-136000000D01*
X242510000Y-130540000D02*
X242510000Y-136000000D01*
X242510000Y-128540000D02*
G75*
G02X242510000Y-130540000I0J-1000000D01*
G01*
X240030000Y-82420000D02*
X240030000Y-85220000D01*
X260520000Y-82420000D02*
X237320000Y-82420000D01*
X260520000Y-85220000D02*
X260520000Y-82420000D01*
X237320000Y-85220000D02*
X260520000Y-85220000D01*
X237320000Y-82420000D02*
X237320000Y-85220000D01*
X189230000Y-82420000D02*
X189230000Y-85220000D01*
X209720000Y-82420000D02*
X186520000Y-82420000D01*
X209720000Y-85220000D02*
X209720000Y-82420000D01*
X186520000Y-85220000D02*
X209720000Y-85220000D01*
X186520000Y-82420000D02*
X186520000Y-85220000D01*
X112800000Y-81280000D02*
X113570000Y-81280000D01*
X120880000Y-81280000D02*
X120110000Y-81280000D01*
X113570000Y-82650000D02*
X120110000Y-82650000D01*
X113570000Y-79910000D02*
X113570000Y-82650000D01*
X120110000Y-79910000D02*
X113570000Y-79910000D01*
X120110000Y-82650000D02*
X120110000Y-79910000D01*
X170240000Y-73660000D02*
X170240000Y-74770000D01*
X170240000Y-74770000D02*
X168910000Y-74770000D01*
X170240000Y-63570000D02*
X124400000Y-63570000D01*
X124400000Y-63570000D02*
X124400000Y-72200000D01*
X170240000Y-72200000D02*
X124400000Y-72200000D01*
X170240000Y-63570000D02*
X170240000Y-72200000D01*
X127000000Y-63570000D02*
X127000000Y-72200000D01*
X129540000Y-63570000D02*
X129540000Y-72200000D01*
X132080000Y-63570000D02*
X132080000Y-72200000D01*
X134620000Y-63570000D02*
X134620000Y-72200000D01*
X137160000Y-63570000D02*
X137160000Y-72200000D01*
X139700000Y-63570000D02*
X139700000Y-72200000D01*
X142240000Y-63570000D02*
X142240000Y-72200000D01*
X144780000Y-63570000D02*
X144780000Y-72200000D01*
X147320000Y-63570000D02*
X147320000Y-72200000D01*
X149860000Y-63570000D02*
X149860000Y-72200000D01*
X152400000Y-63570000D02*
X152400000Y-72200000D01*
X154940000Y-63570000D02*
X154940000Y-72200000D01*
X157480000Y-63570000D02*
X157480000Y-72200000D01*
X160020000Y-63570000D02*
X160020000Y-72200000D01*
X162560000Y-63570000D02*
X162560000Y-72200000D01*
X165100000Y-63570000D02*
X165100000Y-72200000D01*
X167640000Y-63570000D02*
X167640000Y-72200000D01*
X125370000Y-72200000D02*
X125370000Y-72610000D01*
X126090000Y-72200000D02*
X126090000Y-72610000D01*
X127910000Y-72200000D02*
X127910000Y-72610000D01*
X128630000Y-72200000D02*
X128630000Y-72610000D01*
X130450000Y-72200000D02*
X130450000Y-72610000D01*
X131170000Y-72200000D02*
X131170000Y-72610000D01*
X132990000Y-72200000D02*
X132990000Y-72610000D01*
X133710000Y-72200000D02*
X133710000Y-72610000D01*
X135530000Y-72200000D02*
X135530000Y-72610000D01*
X136250000Y-72200000D02*
X136250000Y-72610000D01*
X138070000Y-72200000D02*
X138070000Y-72610000D01*
X138790000Y-72200000D02*
X138790000Y-72610000D01*
X140610000Y-72200000D02*
X140610000Y-72610000D01*
X141330000Y-72200000D02*
X141330000Y-72610000D01*
X143150000Y-72200000D02*
X143150000Y-72610000D01*
X143870000Y-72200000D02*
X143870000Y-72610000D01*
X145690000Y-72200000D02*
X145690000Y-72610000D01*
X146410000Y-72200000D02*
X146410000Y-72610000D01*
X148230000Y-72200000D02*
X148230000Y-72610000D01*
X148950000Y-72200000D02*
X148950000Y-72610000D01*
X150770000Y-72200000D02*
X150770000Y-72610000D01*
X151490000Y-72200000D02*
X151490000Y-72610000D01*
X153310000Y-72200000D02*
X153310000Y-72610000D01*
X154030000Y-72200000D02*
X154030000Y-72610000D01*
X155850000Y-72200000D02*
X155850000Y-72610000D01*
X156570000Y-72200000D02*
X156570000Y-72610000D01*
X158390000Y-72200000D02*
X158390000Y-72610000D01*
X159110000Y-72200000D02*
X159110000Y-72610000D01*
X160930000Y-72200000D02*
X160930000Y-72610000D01*
X161650000Y-72200000D02*
X161650000Y-72610000D01*
X163470000Y-72200000D02*
X163470000Y-72610000D01*
X164190000Y-72200000D02*
X164190000Y-72610000D01*
X166010000Y-72200000D02*
X166010000Y-72610000D01*
X166730000Y-72200000D02*
X166730000Y-72610000D01*
X168550000Y-72200000D02*
X168550000Y-72550000D01*
X169270000Y-72200000D02*
X169270000Y-72550000D01*
X167758100Y-63570000D02*
X167758100Y-72200000D01*
X167876195Y-63570000D02*
X167876195Y-72200000D01*
X167994290Y-63570000D02*
X167994290Y-72200000D01*
X168112385Y-63570000D02*
X168112385Y-72200000D01*
X168230480Y-63570000D02*
X168230480Y-72200000D01*
X168348575Y-63570000D02*
X168348575Y-72200000D01*
X168466670Y-63570000D02*
X168466670Y-72200000D01*
X168584765Y-63570000D02*
X168584765Y-72200000D01*
X168702860Y-63570000D02*
X168702860Y-72200000D01*
X168820955Y-63570000D02*
X168820955Y-72200000D01*
X168939050Y-63570000D02*
X168939050Y-72200000D01*
X169057145Y-63570000D02*
X169057145Y-72200000D01*
X169175240Y-63570000D02*
X169175240Y-72200000D01*
X169293335Y-63570000D02*
X169293335Y-72200000D01*
X169411430Y-63570000D02*
X169411430Y-72200000D01*
X169529525Y-63570000D02*
X169529525Y-72200000D01*
X169647620Y-63570000D02*
X169647620Y-72200000D01*
X169765715Y-63570000D02*
X169765715Y-72200000D01*
X169883810Y-63570000D02*
X169883810Y-72200000D01*
X170001905Y-63570000D02*
X170001905Y-72200000D01*
X170120000Y-63570000D02*
X170120000Y-72200000D01*
X93616000Y-78779000D02*
X93616000Y-79094000D01*
X93616000Y-76354000D02*
X93616000Y-76669000D01*
X88676000Y-78779000D02*
X88676000Y-79094000D01*
X88676000Y-76354000D02*
X88676000Y-76669000D01*
X88676000Y-79094000D02*
X93616000Y-79094000D01*
X88676000Y-76354000D02*
X93616000Y-76354000D01*
X83710000Y-112815000D02*
X83710000Y-113130000D01*
X83710000Y-110390000D02*
X83710000Y-110705000D01*
X78770000Y-112815000D02*
X78770000Y-113130000D01*
X78770000Y-110390000D02*
X78770000Y-110705000D01*
X78770000Y-113130000D02*
X83710000Y-113130000D01*
X78770000Y-110390000D02*
X83710000Y-110390000D01*
X147430000Y-136105000D02*
X147430000Y-135790000D01*
X147430000Y-138530000D02*
X147430000Y-138215000D01*
X152370000Y-136105000D02*
X152370000Y-135790000D01*
X152370000Y-138530000D02*
X152370000Y-138215000D01*
X152370000Y-135790000D02*
X147430000Y-135790000D01*
X152370000Y-138530000D02*
X147430000Y-138530000D01*
X86250000Y-130595000D02*
X86250000Y-130910000D01*
X86250000Y-128170000D02*
X86250000Y-128485000D01*
X81310000Y-130595000D02*
X81310000Y-130910000D01*
X81310000Y-128170000D02*
X81310000Y-128485000D01*
X81310000Y-130910000D02*
X86250000Y-130910000D01*
X81310000Y-128170000D02*
X86250000Y-128170000D01*
X83710000Y-95035000D02*
X83710000Y-95350000D01*
X83710000Y-92610000D02*
X83710000Y-92925000D01*
X78770000Y-95035000D02*
X78770000Y-95350000D01*
X78770000Y-92610000D02*
X78770000Y-92925000D01*
X78770000Y-95350000D02*
X83710000Y-95350000D01*
X78770000Y-92610000D02*
X83710000Y-92610000D01*
X226170000Y-87845000D02*
X226170000Y-87530000D01*
X226170000Y-90270000D02*
X226170000Y-89955000D01*
X231110000Y-87845000D02*
X231110000Y-87530000D01*
X231110000Y-90270000D02*
X231110000Y-89955000D01*
X231110000Y-87530000D02*
X226170000Y-87530000D01*
X231110000Y-90270000D02*
X226170000Y-90270000D01*
X147430000Y-120865000D02*
X147430000Y-120550000D01*
X147430000Y-123290000D02*
X147430000Y-122975000D01*
X152370000Y-120865000D02*
X152370000Y-120550000D01*
X152370000Y-123290000D02*
X152370000Y-122975000D01*
X152370000Y-120550000D02*
X147430000Y-120550000D01*
X152370000Y-123290000D02*
X147430000Y-123290000D01*
X175370000Y-87845000D02*
X175370000Y-87530000D01*
X175370000Y-90270000D02*
X175370000Y-89955000D01*
X180310000Y-87845000D02*
X180310000Y-87530000D01*
X180310000Y-90270000D02*
X180310000Y-89955000D01*
X180310000Y-87530000D02*
X175370000Y-87530000D01*
X180310000Y-90270000D02*
X175370000Y-90270000D01*
X190530000Y-120865000D02*
X190530000Y-120550000D01*
X190530000Y-123290000D02*
X190530000Y-122975000D01*
X195470000Y-120865000D02*
X195470000Y-120550000D01*
X195470000Y-123290000D02*
X195470000Y-122975000D01*
X195470000Y-120550000D02*
X190530000Y-120550000D01*
X195470000Y-123290000D02*
X190530000Y-123290000D01*
X233790000Y-120865000D02*
X233790000Y-120550000D01*
X233790000Y-123290000D02*
X233790000Y-122975000D01*
X238730000Y-120865000D02*
X238730000Y-120550000D01*
X238730000Y-123290000D02*
X238730000Y-122975000D01*
X238730000Y-120550000D02*
X233790000Y-120550000D01*
X238730000Y-123290000D02*
X233790000Y-123290000D01*
X261510000Y-102655000D02*
X261510000Y-102970000D01*
X261510000Y-100230000D02*
X261510000Y-100545000D01*
X256570000Y-102655000D02*
X256570000Y-102970000D01*
X256570000Y-100230000D02*
X256570000Y-100545000D01*
X256570000Y-102970000D02*
X261510000Y-102970000D01*
X256570000Y-100230000D02*
X261510000Y-100230000D01*
X234830000Y-87570000D02*
X234830000Y-97850000D01*
X260470000Y-87570000D02*
X234830000Y-87570000D01*
X260470000Y-97850000D02*
X260470000Y-87570000D01*
X234830000Y-97850000D02*
X260470000Y-97850000D01*
X234890000Y-90060000D02*
X234890000Y-91710000D01*
X260410000Y-90060000D02*
X234890000Y-90060000D01*
X260410000Y-95360000D02*
X260410000Y-90060000D01*
X234890000Y-95360000D02*
X260410000Y-95360000D01*
X234890000Y-93710000D02*
X234890000Y-95360000D01*
X234890000Y-91710000D02*
G75*
G02X234890000Y-93710000I0J-1000000D01*
G01*
X184030000Y-87570000D02*
X184030000Y-97850000D01*
X209670000Y-87570000D02*
X184030000Y-87570000D01*
X209670000Y-97850000D02*
X209670000Y-87570000D01*
X184030000Y-97850000D02*
X209670000Y-97850000D01*
X184090000Y-90060000D02*
X184090000Y-91710000D01*
X209610000Y-90060000D02*
X184090000Y-90060000D01*
X209610000Y-95360000D02*
X209610000Y-90060000D01*
X184090000Y-95360000D02*
X209610000Y-95360000D01*
X184090000Y-93710000D02*
X184090000Y-95360000D01*
X184090000Y-91710000D02*
G75*
G02X184090000Y-93710000I0J-1000000D01*
G01*
X255150000Y-105350000D02*
X255150000Y-115630000D01*
X273170000Y-105350000D02*
X255150000Y-105350000D01*
X273170000Y-115630000D02*
X273170000Y-105350000D01*
X255150000Y-115630000D02*
X273170000Y-115630000D01*
X255210000Y-107840000D02*
X255210000Y-109490000D01*
X273110000Y-107840000D02*
X255210000Y-107840000D01*
X273110000Y-113140000D02*
X273110000Y-107840000D01*
X255210000Y-113140000D02*
X273110000Y-113140000D01*
X255210000Y-111490000D02*
X255210000Y-113140000D01*
X255210000Y-109490000D02*
G75*
G02X255210000Y-111490000I0J-1000000D01*
G01*
X113090000Y-73660000D02*
X113090000Y-74770000D01*
X113090000Y-74770000D02*
X111760000Y-74770000D01*
X113090000Y-63570000D02*
X72330000Y-63570000D01*
X72330000Y-63570000D02*
X72330000Y-72200000D01*
X113090000Y-72200000D02*
X72330000Y-72200000D01*
X113090000Y-63570000D02*
X113090000Y-72200000D01*
X74930000Y-63570000D02*
X74930000Y-72200000D01*
X77470000Y-63570000D02*
X77470000Y-72200000D01*
X80010000Y-63570000D02*
X80010000Y-72200000D01*
X82550000Y-63570000D02*
X82550000Y-72200000D01*
X85090000Y-63570000D02*
X85090000Y-72200000D01*
X87630000Y-63570000D02*
X87630000Y-72200000D01*
X90170000Y-63570000D02*
X90170000Y-72200000D01*
X92710000Y-63570000D02*
X92710000Y-72200000D01*
X95250000Y-63570000D02*
X95250000Y-72200000D01*
X97790000Y-63570000D02*
X97790000Y-72200000D01*
X100330000Y-63570000D02*
X100330000Y-72200000D01*
X102870000Y-63570000D02*
X102870000Y-72200000D01*
X105410000Y-63570000D02*
X105410000Y-72200000D01*
X107950000Y-63570000D02*
X107950000Y-72200000D01*
X110490000Y-63570000D02*
X110490000Y-72200000D01*
X73300000Y-72200000D02*
X73300000Y-72610000D01*
X74020000Y-72200000D02*
X74020000Y-72610000D01*
X75840000Y-72200000D02*
X75840000Y-72610000D01*
X76560000Y-72200000D02*
X76560000Y-72610000D01*
X78380000Y-72200000D02*
X78380000Y-72610000D01*
X79100000Y-72200000D02*
X79100000Y-72610000D01*
X80920000Y-72200000D02*
X80920000Y-72610000D01*
X81640000Y-72200000D02*
X81640000Y-72610000D01*
X83460000Y-72200000D02*
X83460000Y-72610000D01*
X84180000Y-72200000D02*
X84180000Y-72610000D01*
X86000000Y-72200000D02*
X86000000Y-72610000D01*
X86720000Y-72200000D02*
X86720000Y-72610000D01*
X88540000Y-72200000D02*
X88540000Y-72610000D01*
X89260000Y-72200000D02*
X89260000Y-72610000D01*
X91080000Y-72200000D02*
X91080000Y-72610000D01*
X91800000Y-72200000D02*
X91800000Y-72610000D01*
X93620000Y-72200000D02*
X93620000Y-72610000D01*
X94340000Y-72200000D02*
X94340000Y-72610000D01*
X96160000Y-72200000D02*
X96160000Y-72610000D01*
X96880000Y-72200000D02*
X96880000Y-72610000D01*
X98700000Y-72200000D02*
X98700000Y-72610000D01*
X99420000Y-72200000D02*
X99420000Y-72610000D01*
X101240000Y-72200000D02*
X101240000Y-72610000D01*
X101960000Y-72200000D02*
X101960000Y-72610000D01*
X103780000Y-72200000D02*
X103780000Y-72610000D01*
X104500000Y-72200000D02*
X104500000Y-72610000D01*
X106320000Y-72200000D02*
X106320000Y-72610000D01*
X107040000Y-72200000D02*
X107040000Y-72610000D01*
X108860000Y-72200000D02*
X108860000Y-72610000D01*
X109580000Y-72200000D02*
X109580000Y-72610000D01*
X111400000Y-72200000D02*
X111400000Y-72550000D01*
X112120000Y-72200000D02*
X112120000Y-72550000D01*
X110608100Y-63570000D02*
X110608100Y-72200000D01*
X110726195Y-63570000D02*
X110726195Y-72200000D01*
X110844290Y-63570000D02*
X110844290Y-72200000D01*
X110962385Y-63570000D02*
X110962385Y-72200000D01*
X111080480Y-63570000D02*
X111080480Y-72200000D01*
X111198575Y-63570000D02*
X111198575Y-72200000D01*
X111316670Y-63570000D02*
X111316670Y-72200000D01*
X111434765Y-63570000D02*
X111434765Y-72200000D01*
X111552860Y-63570000D02*
X111552860Y-72200000D01*
X111670955Y-63570000D02*
X111670955Y-72200000D01*
X111789050Y-63570000D02*
X111789050Y-72200000D01*
X111907145Y-63570000D02*
X111907145Y-72200000D01*
X112025240Y-63570000D02*
X112025240Y-72200000D01*
X112143335Y-63570000D02*
X112143335Y-72200000D01*
X112261430Y-63570000D02*
X112261430Y-72200000D01*
X112379525Y-63570000D02*
X112379525Y-72200000D01*
X112497620Y-63570000D02*
X112497620Y-72200000D01*
X112615715Y-63570000D02*
X112615715Y-72200000D01*
X112733810Y-63570000D02*
X112733810Y-72200000D01*
X112851905Y-63570000D02*
X112851905Y-72200000D01*
X112970000Y-63570000D02*
X112970000Y-72200000D01*
D14*
X192671142Y-143187142D02*
X192623523Y-143234761D01*
X192480666Y-143282380D01*
X192385428Y-143282380D01*
X192242571Y-143234761D01*
X192147333Y-143139523D01*
X192099714Y-143044285D01*
X192052095Y-142853809D01*
X192052095Y-142710952D01*
X192099714Y-142520476D01*
X192147333Y-142425238D01*
X192242571Y-142330000D01*
X192385428Y-142282380D01*
X192480666Y-142282380D01*
X192623523Y-142330000D01*
X192671142Y-142377619D01*
X193623523Y-143282380D02*
X193052095Y-143282380D01*
X193337809Y-143282380D02*
X193337809Y-142282380D01*
X193242571Y-142425238D01*
X193147333Y-142520476D01*
X193052095Y-142568095D01*
X194480666Y-142615714D02*
X194480666Y-143282380D01*
X194242571Y-142234761D02*
X194004476Y-142949047D01*
X194623523Y-142949047D01*
X213733142Y-96877142D02*
X213685523Y-96924761D01*
X213542666Y-96972380D01*
X213447428Y-96972380D01*
X213304571Y-96924761D01*
X213209333Y-96829523D01*
X213161714Y-96734285D01*
X213114095Y-96543809D01*
X213114095Y-96400952D01*
X213161714Y-96210476D01*
X213209333Y-96115238D01*
X213304571Y-96020000D01*
X213447428Y-95972380D01*
X213542666Y-95972380D01*
X213685523Y-96020000D01*
X213733142Y-96067619D01*
X214685523Y-96972380D02*
X214114095Y-96972380D01*
X214399809Y-96972380D02*
X214399809Y-95972380D01*
X214304571Y-96115238D01*
X214209333Y-96210476D01*
X214114095Y-96258095D01*
X215018857Y-95972380D02*
X215637904Y-95972380D01*
X215304571Y-96353333D01*
X215447428Y-96353333D01*
X215542666Y-96400952D01*
X215590285Y-96448571D01*
X215637904Y-96543809D01*
X215637904Y-96781904D01*
X215590285Y-96877142D01*
X215542666Y-96924761D01*
X215447428Y-96972380D01*
X215161714Y-96972380D01*
X215066476Y-96924761D01*
X215018857Y-96877142D01*
D15*
X118823619Y-160358666D02*
X119549333Y-160358666D01*
X119694476Y-160407047D01*
X119791238Y-160503809D01*
X119839619Y-160648952D01*
X119839619Y-160745714D01*
X118823619Y-159391047D02*
X118823619Y-159874857D01*
X119307428Y-159923238D01*
X119259047Y-159874857D01*
X119210666Y-159778095D01*
X119210666Y-159536190D01*
X119259047Y-159439428D01*
X119307428Y-159391047D01*
X119404190Y-159342666D01*
X119646095Y-159342666D01*
X119742857Y-159391047D01*
X119791238Y-159439428D01*
X119839619Y-159536190D01*
X119839619Y-159778095D01*
X119791238Y-159874857D01*
X119742857Y-159923238D01*
D16*
X113478571Y-155797000D02*
X114978571Y-155297000D01*
X113478571Y-154797000D01*
X114835714Y-153439857D02*
X114907142Y-153511285D01*
X114978571Y-153725571D01*
X114978571Y-153868428D01*
X114907142Y-154082714D01*
X114764285Y-154225571D01*
X114621428Y-154297000D01*
X114335714Y-154368428D01*
X114121428Y-154368428D01*
X113835714Y-154297000D01*
X113692857Y-154225571D01*
X113550000Y-154082714D01*
X113478571Y-153868428D01*
X113478571Y-153725571D01*
X113550000Y-153511285D01*
X113621428Y-153439857D01*
X114835714Y-151939857D02*
X114907142Y-152011285D01*
X114978571Y-152225571D01*
X114978571Y-152368428D01*
X114907142Y-152582714D01*
X114764285Y-152725571D01*
X114621428Y-152797000D01*
X114335714Y-152868428D01*
X114121428Y-152868428D01*
X113835714Y-152797000D01*
X113692857Y-152725571D01*
X113550000Y-152582714D01*
X113478571Y-152368428D01*
X113478571Y-152225571D01*
X113550000Y-152011285D01*
X113621428Y-151939857D01*
X113478571Y-155797000D02*
X114978571Y-155297000D01*
X113478571Y-154797000D01*
X114835714Y-153439857D02*
X114907142Y-153511285D01*
X114978571Y-153725571D01*
X114978571Y-153868428D01*
X114907142Y-154082714D01*
X114764285Y-154225571D01*
X114621428Y-154297000D01*
X114335714Y-154368428D01*
X114121428Y-154368428D01*
X113835714Y-154297000D01*
X113692857Y-154225571D01*
X113550000Y-154082714D01*
X113478571Y-153868428D01*
X113478571Y-153725571D01*
X113550000Y-153511285D01*
X113621428Y-153439857D01*
X114835714Y-151939857D02*
X114907142Y-152011285D01*
X114978571Y-152225571D01*
X114978571Y-152368428D01*
X114907142Y-152582714D01*
X114764285Y-152725571D01*
X114621428Y-152797000D01*
X114335714Y-152868428D01*
X114121428Y-152868428D01*
X113835714Y-152797000D01*
X113692857Y-152725571D01*
X113550000Y-152582714D01*
X113478571Y-152368428D01*
X113478571Y-152225571D01*
X113550000Y-152011285D01*
X113621428Y-151939857D01*
X108470000Y-154812857D02*
X108398571Y-154955714D01*
X108398571Y-155170000D01*
X108470000Y-155384285D01*
X108612857Y-155527142D01*
X108755714Y-155598571D01*
X109041428Y-155670000D01*
X109255714Y-155670000D01*
X109541428Y-155598571D01*
X109684285Y-155527142D01*
X109827142Y-155384285D01*
X109898571Y-155170000D01*
X109898571Y-155027142D01*
X109827142Y-154812857D01*
X109755714Y-154741428D01*
X109255714Y-154741428D01*
X109255714Y-155027142D01*
X109898571Y-154098571D02*
X108398571Y-154098571D01*
X109898571Y-153241428D01*
X108398571Y-153241428D01*
X109898571Y-152527142D02*
X108398571Y-152527142D01*
X108398571Y-152170000D01*
X108470000Y-151955714D01*
X108612857Y-151812857D01*
X108755714Y-151741428D01*
X109041428Y-151670000D01*
X109255714Y-151670000D01*
X109541428Y-151741428D01*
X109684285Y-151812857D01*
X109827142Y-151955714D01*
X109898571Y-152170000D01*
X109898571Y-152527142D01*
X108470000Y-154812857D02*
X108398571Y-154955714D01*
X108398571Y-155170000D01*
X108470000Y-155384285D01*
X108612857Y-155527142D01*
X108755714Y-155598571D01*
X109041428Y-155670000D01*
X109255714Y-155670000D01*
X109541428Y-155598571D01*
X109684285Y-155527142D01*
X109827142Y-155384285D01*
X109898571Y-155170000D01*
X109898571Y-155027142D01*
X109827142Y-154812857D01*
X109755714Y-154741428D01*
X109255714Y-154741428D01*
X109255714Y-155027142D01*
X109898571Y-154098571D02*
X108398571Y-154098571D01*
X109898571Y-153241428D01*
X108398571Y-153241428D01*
X109898571Y-152527142D02*
X108398571Y-152527142D01*
X108398571Y-152170000D01*
X108470000Y-151955714D01*
X108612857Y-151812857D01*
X108755714Y-151741428D01*
X109041428Y-151670000D01*
X109255714Y-151670000D01*
X109541428Y-151741428D01*
X109684285Y-151812857D01*
X109827142Y-151955714D01*
X109898571Y-152170000D01*
X109898571Y-152527142D01*
X97198571Y-155610571D02*
X95698571Y-155610571D01*
X97198571Y-154753428D01*
X95698571Y-154753428D01*
X97055714Y-153182000D02*
X97127142Y-153253428D01*
X97198571Y-153467714D01*
X97198571Y-153610571D01*
X97127142Y-153824857D01*
X96984285Y-153967714D01*
X96841428Y-154039142D01*
X96555714Y-154110571D01*
X96341428Y-154110571D01*
X96055714Y-154039142D01*
X95912857Y-153967714D01*
X95770000Y-153824857D01*
X95698571Y-153610571D01*
X95698571Y-153467714D01*
X95770000Y-153253428D01*
X95841428Y-153182000D01*
X102278571Y-155610571D02*
X100778571Y-155610571D01*
X102278571Y-154753428D01*
X100778571Y-154753428D01*
X102135714Y-153182000D02*
X102207142Y-153253428D01*
X102278571Y-153467714D01*
X102278571Y-153610571D01*
X102207142Y-153824857D01*
X102064285Y-153967714D01*
X101921428Y-154039142D01*
X101635714Y-154110571D01*
X101421428Y-154110571D01*
X101135714Y-154039142D01*
X100992857Y-153967714D01*
X100850000Y-153824857D01*
X100778571Y-153610571D01*
X100778571Y-153467714D01*
X100850000Y-153253428D01*
X100921428Y-153182000D01*
X97198571Y-155610571D02*
X95698571Y-155610571D01*
X97198571Y-154753428D01*
X95698571Y-154753428D01*
X97055714Y-153182000D02*
X97127142Y-153253428D01*
X97198571Y-153467714D01*
X97198571Y-153610571D01*
X97127142Y-153824857D01*
X96984285Y-153967714D01*
X96841428Y-154039142D01*
X96555714Y-154110571D01*
X96341428Y-154110571D01*
X96055714Y-154039142D01*
X95912857Y-153967714D01*
X95770000Y-153824857D01*
X95698571Y-153610571D01*
X95698571Y-153467714D01*
X95770000Y-153253428D01*
X95841428Y-153182000D01*
X104818571Y-155483428D02*
X103318571Y-155483428D01*
X103318571Y-155126285D01*
X103390000Y-154912000D01*
X103532857Y-154769142D01*
X103675714Y-154697714D01*
X103961428Y-154626285D01*
X104175714Y-154626285D01*
X104461428Y-154697714D01*
X104604285Y-154769142D01*
X104747142Y-154912000D01*
X104818571Y-155126285D01*
X104818571Y-155483428D01*
X104961428Y-154340571D02*
X104961428Y-153197714D01*
X104675714Y-151983428D02*
X104747142Y-152054857D01*
X104818571Y-152269142D01*
X104818571Y-152412000D01*
X104747142Y-152626285D01*
X104604285Y-152769142D01*
X104461428Y-152840571D01*
X104175714Y-152912000D01*
X103961428Y-152912000D01*
X103675714Y-152840571D01*
X103532857Y-152769142D01*
X103390000Y-152626285D01*
X103318571Y-152412000D01*
X103318571Y-152269142D01*
X103390000Y-152054857D01*
X103461428Y-151983428D01*
X104818571Y-150626285D02*
X104818571Y-151340571D01*
X103318571Y-151340571D01*
X99849714Y-154626285D02*
X99921142Y-154697714D01*
X99992571Y-154912000D01*
X99992571Y-155054857D01*
X99921142Y-155269142D01*
X99778285Y-155412000D01*
X99635428Y-155483428D01*
X99349714Y-155554857D01*
X99135428Y-155554857D01*
X98849714Y-155483428D01*
X98706857Y-155412000D01*
X98564000Y-155269142D01*
X98492571Y-155054857D01*
X98492571Y-154912000D01*
X98564000Y-154697714D01*
X98635428Y-154626285D01*
X100135428Y-154340571D02*
X100135428Y-153197714D01*
X99849714Y-151983428D02*
X99921142Y-152054857D01*
X99992571Y-152269142D01*
X99992571Y-152412000D01*
X99921142Y-152626285D01*
X99778285Y-152769142D01*
X99635428Y-152840571D01*
X99349714Y-152912000D01*
X99135428Y-152912000D01*
X98849714Y-152840571D01*
X98706857Y-152769142D01*
X98564000Y-152626285D01*
X98492571Y-152412000D01*
X98492571Y-152269142D01*
X98564000Y-152054857D01*
X98635428Y-151983428D01*
X99992571Y-150626285D02*
X99992571Y-151340571D01*
X98492571Y-151340571D01*
X94658571Y-154618428D02*
X93944285Y-155118428D01*
X94658571Y-155475571D02*
X93158571Y-155475571D01*
X93158571Y-154904142D01*
X93230000Y-154761285D01*
X93301428Y-154689857D01*
X93444285Y-154618428D01*
X93658571Y-154618428D01*
X93801428Y-154689857D01*
X93872857Y-154761285D01*
X93944285Y-154904142D01*
X93944285Y-155475571D01*
X94587142Y-154047000D02*
X94658571Y-153832714D01*
X94658571Y-153475571D01*
X94587142Y-153332714D01*
X94515714Y-153261285D01*
X94372857Y-153189857D01*
X94230000Y-153189857D01*
X94087142Y-153261285D01*
X94015714Y-153332714D01*
X93944285Y-153475571D01*
X93872857Y-153761285D01*
X93801428Y-153904142D01*
X93730000Y-153975571D01*
X93587142Y-154047000D01*
X93444285Y-154047000D01*
X93301428Y-153975571D01*
X93230000Y-153904142D01*
X93158571Y-153761285D01*
X93158571Y-153404142D01*
X93230000Y-153189857D01*
X93158571Y-152761285D02*
X93158571Y-151904142D01*
X94658571Y-152332714D02*
X93158571Y-152332714D01*
D15*
X169623619Y-160358666D02*
X170349333Y-160358666D01*
X170494476Y-160407047D01*
X170591238Y-160503809D01*
X170639619Y-160648952D01*
X170639619Y-160745714D01*
X169962285Y-159439428D02*
X170639619Y-159439428D01*
X169575238Y-159681333D02*
X170300952Y-159923238D01*
X170300952Y-159294285D01*
D17*
X166944523Y-155732238D02*
X166944523Y-155611285D01*
X167005000Y-155490333D01*
X167065476Y-155429857D01*
X167186428Y-155369380D01*
X167428333Y-155308904D01*
X167730714Y-155308904D01*
X167972619Y-155369380D01*
X168093571Y-155429857D01*
X168154047Y-155490333D01*
X168214523Y-155611285D01*
X168214523Y-155732238D01*
X168154047Y-155853190D01*
X168093571Y-155913666D01*
X167972619Y-155974142D01*
X167730714Y-156034619D01*
X167428333Y-156034619D01*
X167186428Y-155974142D01*
X167065476Y-155913666D01*
X167005000Y-155853190D01*
X166944523Y-155732238D01*
X166944523Y-154522714D02*
X166944523Y-154401761D01*
X167005000Y-154280809D01*
X167065476Y-154220333D01*
X167186428Y-154159857D01*
X167428333Y-154099380D01*
X167730714Y-154099380D01*
X167972619Y-154159857D01*
X168093571Y-154220333D01*
X168154047Y-154280809D01*
X168214523Y-154401761D01*
X168214523Y-154522714D01*
X168154047Y-154643666D01*
X168093571Y-154704142D01*
X167972619Y-154764619D01*
X167730714Y-154825095D01*
X167428333Y-154825095D01*
X167186428Y-154764619D01*
X167065476Y-154704142D01*
X167005000Y-154643666D01*
X166944523Y-154522714D01*
X164404523Y-155732238D02*
X164404523Y-155611285D01*
X164465000Y-155490333D01*
X164525476Y-155429857D01*
X164646428Y-155369380D01*
X164888333Y-155308904D01*
X165190714Y-155308904D01*
X165432619Y-155369380D01*
X165553571Y-155429857D01*
X165614047Y-155490333D01*
X165674523Y-155611285D01*
X165674523Y-155732238D01*
X165614047Y-155853190D01*
X165553571Y-155913666D01*
X165432619Y-155974142D01*
X165190714Y-156034619D01*
X164888333Y-156034619D01*
X164646428Y-155974142D01*
X164525476Y-155913666D01*
X164465000Y-155853190D01*
X164404523Y-155732238D01*
X165674523Y-154099380D02*
X165674523Y-154825095D01*
X165674523Y-154462238D02*
X164404523Y-154462238D01*
X164585952Y-154583190D01*
X164706904Y-154704142D01*
X164767380Y-154825095D01*
X161864523Y-155732238D02*
X161864523Y-155611285D01*
X161925000Y-155490333D01*
X161985476Y-155429857D01*
X162106428Y-155369380D01*
X162348333Y-155308904D01*
X162650714Y-155308904D01*
X162892619Y-155369380D01*
X163013571Y-155429857D01*
X163074047Y-155490333D01*
X163134523Y-155611285D01*
X163134523Y-155732238D01*
X163074047Y-155853190D01*
X163013571Y-155913666D01*
X162892619Y-155974142D01*
X162650714Y-156034619D01*
X162348333Y-156034619D01*
X162106428Y-155974142D01*
X161985476Y-155913666D01*
X161925000Y-155853190D01*
X161864523Y-155732238D01*
X161985476Y-154825095D02*
X161925000Y-154764619D01*
X161864523Y-154643666D01*
X161864523Y-154341285D01*
X161925000Y-154220333D01*
X161985476Y-154159857D01*
X162106428Y-154099380D01*
X162227380Y-154099380D01*
X162408809Y-154159857D01*
X163134523Y-154885571D01*
X163134523Y-154099380D01*
X159324523Y-155732238D02*
X159324523Y-155611285D01*
X159385000Y-155490333D01*
X159445476Y-155429857D01*
X159566428Y-155369380D01*
X159808333Y-155308904D01*
X160110714Y-155308904D01*
X160352619Y-155369380D01*
X160473571Y-155429857D01*
X160534047Y-155490333D01*
X160594523Y-155611285D01*
X160594523Y-155732238D01*
X160534047Y-155853190D01*
X160473571Y-155913666D01*
X160352619Y-155974142D01*
X160110714Y-156034619D01*
X159808333Y-156034619D01*
X159566428Y-155974142D01*
X159445476Y-155913666D01*
X159385000Y-155853190D01*
X159324523Y-155732238D01*
X159324523Y-154885571D02*
X159324523Y-154099380D01*
X159808333Y-154522714D01*
X159808333Y-154341285D01*
X159868809Y-154220333D01*
X159929285Y-154159857D01*
X160050238Y-154099380D01*
X160352619Y-154099380D01*
X160473571Y-154159857D01*
X160534047Y-154220333D01*
X160594523Y-154341285D01*
X160594523Y-154704142D01*
X160534047Y-154825095D01*
X160473571Y-154885571D01*
X156784523Y-155732238D02*
X156784523Y-155611285D01*
X156845000Y-155490333D01*
X156905476Y-155429857D01*
X157026428Y-155369380D01*
X157268333Y-155308904D01*
X157570714Y-155308904D01*
X157812619Y-155369380D01*
X157933571Y-155429857D01*
X157994047Y-155490333D01*
X158054523Y-155611285D01*
X158054523Y-155732238D01*
X157994047Y-155853190D01*
X157933571Y-155913666D01*
X157812619Y-155974142D01*
X157570714Y-156034619D01*
X157268333Y-156034619D01*
X157026428Y-155974142D01*
X156905476Y-155913666D01*
X156845000Y-155853190D01*
X156784523Y-155732238D01*
X157207857Y-154220333D02*
X158054523Y-154220333D01*
X156724047Y-154522714D02*
X157631190Y-154825095D01*
X157631190Y-154038904D01*
X154244523Y-155732238D02*
X154244523Y-155611285D01*
X154305000Y-155490333D01*
X154365476Y-155429857D01*
X154486428Y-155369380D01*
X154728333Y-155308904D01*
X155030714Y-155308904D01*
X155272619Y-155369380D01*
X155393571Y-155429857D01*
X155454047Y-155490333D01*
X155514523Y-155611285D01*
X155514523Y-155732238D01*
X155454047Y-155853190D01*
X155393571Y-155913666D01*
X155272619Y-155974142D01*
X155030714Y-156034619D01*
X154728333Y-156034619D01*
X154486428Y-155974142D01*
X154365476Y-155913666D01*
X154305000Y-155853190D01*
X154244523Y-155732238D01*
X154244523Y-154159857D02*
X154244523Y-154764619D01*
X154849285Y-154825095D01*
X154788809Y-154764619D01*
X154728333Y-154643666D01*
X154728333Y-154341285D01*
X154788809Y-154220333D01*
X154849285Y-154159857D01*
X154970238Y-154099380D01*
X155272619Y-154099380D01*
X155393571Y-154159857D01*
X155454047Y-154220333D01*
X155514523Y-154341285D01*
X155514523Y-154643666D01*
X155454047Y-154764619D01*
X155393571Y-154825095D01*
X151704523Y-155732238D02*
X151704523Y-155611285D01*
X151765000Y-155490333D01*
X151825476Y-155429857D01*
X151946428Y-155369380D01*
X152188333Y-155308904D01*
X152490714Y-155308904D01*
X152732619Y-155369380D01*
X152853571Y-155429857D01*
X152914047Y-155490333D01*
X152974523Y-155611285D01*
X152974523Y-155732238D01*
X152914047Y-155853190D01*
X152853571Y-155913666D01*
X152732619Y-155974142D01*
X152490714Y-156034619D01*
X152188333Y-156034619D01*
X151946428Y-155974142D01*
X151825476Y-155913666D01*
X151765000Y-155853190D01*
X151704523Y-155732238D01*
X151704523Y-154220333D02*
X151704523Y-154462238D01*
X151765000Y-154583190D01*
X151825476Y-154643666D01*
X152006904Y-154764619D01*
X152248809Y-154825095D01*
X152732619Y-154825095D01*
X152853571Y-154764619D01*
X152914047Y-154704142D01*
X152974523Y-154583190D01*
X152974523Y-154341285D01*
X152914047Y-154220333D01*
X152853571Y-154159857D01*
X152732619Y-154099380D01*
X152430238Y-154099380D01*
X152309285Y-154159857D01*
X152248809Y-154220333D01*
X152188333Y-154341285D01*
X152188333Y-154583190D01*
X152248809Y-154704142D01*
X152309285Y-154764619D01*
X152430238Y-154825095D01*
X149164523Y-155732238D02*
X149164523Y-155611285D01*
X149225000Y-155490333D01*
X149285476Y-155429857D01*
X149406428Y-155369380D01*
X149648333Y-155308904D01*
X149950714Y-155308904D01*
X150192619Y-155369380D01*
X150313571Y-155429857D01*
X150374047Y-155490333D01*
X150434523Y-155611285D01*
X150434523Y-155732238D01*
X150374047Y-155853190D01*
X150313571Y-155913666D01*
X150192619Y-155974142D01*
X149950714Y-156034619D01*
X149648333Y-156034619D01*
X149406428Y-155974142D01*
X149285476Y-155913666D01*
X149225000Y-155853190D01*
X149164523Y-155732238D01*
X149164523Y-154885571D02*
X149164523Y-154038904D01*
X150434523Y-154583190D01*
X146624523Y-155732238D02*
X146624523Y-155611285D01*
X146685000Y-155490333D01*
X146745476Y-155429857D01*
X146866428Y-155369380D01*
X147108333Y-155308904D01*
X147410714Y-155308904D01*
X147652619Y-155369380D01*
X147773571Y-155429857D01*
X147834047Y-155490333D01*
X147894523Y-155611285D01*
X147894523Y-155732238D01*
X147834047Y-155853190D01*
X147773571Y-155913666D01*
X147652619Y-155974142D01*
X147410714Y-156034619D01*
X147108333Y-156034619D01*
X146866428Y-155974142D01*
X146745476Y-155913666D01*
X146685000Y-155853190D01*
X146624523Y-155732238D01*
X147168809Y-154583190D02*
X147108333Y-154704142D01*
X147047857Y-154764619D01*
X146926904Y-154825095D01*
X146866428Y-154825095D01*
X146745476Y-154764619D01*
X146685000Y-154704142D01*
X146624523Y-154583190D01*
X146624523Y-154341285D01*
X146685000Y-154220333D01*
X146745476Y-154159857D01*
X146866428Y-154099380D01*
X146926904Y-154099380D01*
X147047857Y-154159857D01*
X147108333Y-154220333D01*
X147168809Y-154341285D01*
X147168809Y-154583190D01*
X147229285Y-154704142D01*
X147289761Y-154764619D01*
X147410714Y-154825095D01*
X147652619Y-154825095D01*
X147773571Y-154764619D01*
X147834047Y-154704142D01*
X147894523Y-154583190D01*
X147894523Y-154341285D01*
X147834047Y-154220333D01*
X147773571Y-154159857D01*
X147652619Y-154099380D01*
X147410714Y-154099380D01*
X147289761Y-154159857D01*
X147229285Y-154220333D01*
X147168809Y-154341285D01*
X144084523Y-155732238D02*
X144084523Y-155611285D01*
X144145000Y-155490333D01*
X144205476Y-155429857D01*
X144326428Y-155369380D01*
X144568333Y-155308904D01*
X144870714Y-155308904D01*
X145112619Y-155369380D01*
X145233571Y-155429857D01*
X145294047Y-155490333D01*
X145354523Y-155611285D01*
X145354523Y-155732238D01*
X145294047Y-155853190D01*
X145233571Y-155913666D01*
X145112619Y-155974142D01*
X144870714Y-156034619D01*
X144568333Y-156034619D01*
X144326428Y-155974142D01*
X144205476Y-155913666D01*
X144145000Y-155853190D01*
X144084523Y-155732238D01*
X145354523Y-154704142D02*
X145354523Y-154462238D01*
X145294047Y-154341285D01*
X145233571Y-154280809D01*
X145052142Y-154159857D01*
X144810238Y-154099380D01*
X144326428Y-154099380D01*
X144205476Y-154159857D01*
X144145000Y-154220333D01*
X144084523Y-154341285D01*
X144084523Y-154583190D01*
X144145000Y-154704142D01*
X144205476Y-154764619D01*
X144326428Y-154825095D01*
X144628809Y-154825095D01*
X144749761Y-154764619D01*
X144810238Y-154704142D01*
X144870714Y-154583190D01*
X144870714Y-154341285D01*
X144810238Y-154220333D01*
X144749761Y-154159857D01*
X144628809Y-154099380D01*
X142814523Y-155308904D02*
X142814523Y-156034619D01*
X142814523Y-155671761D02*
X141544523Y-155671761D01*
X141725952Y-155792714D01*
X141846904Y-155913666D01*
X141907380Y-156034619D01*
X141544523Y-154522714D02*
X141544523Y-154401761D01*
X141605000Y-154280809D01*
X141665476Y-154220333D01*
X141786428Y-154159857D01*
X142028333Y-154099380D01*
X142330714Y-154099380D01*
X142572619Y-154159857D01*
X142693571Y-154220333D01*
X142754047Y-154280809D01*
X142814523Y-154401761D01*
X142814523Y-154522714D01*
X142754047Y-154643666D01*
X142693571Y-154704142D01*
X142572619Y-154764619D01*
X142330714Y-154825095D01*
X142028333Y-154825095D01*
X141786428Y-154764619D01*
X141665476Y-154704142D01*
X141605000Y-154643666D01*
X141544523Y-154522714D01*
X140274523Y-155308904D02*
X140274523Y-156034619D01*
X140274523Y-155671761D02*
X139004523Y-155671761D01*
X139185952Y-155792714D01*
X139306904Y-155913666D01*
X139367380Y-156034619D01*
X140274523Y-154099380D02*
X140274523Y-154825095D01*
X140274523Y-154462238D02*
X139004523Y-154462238D01*
X139185952Y-154583190D01*
X139306904Y-154704142D01*
X139367380Y-154825095D01*
X137734523Y-155308904D02*
X137734523Y-156034619D01*
X137734523Y-155671761D02*
X136464523Y-155671761D01*
X136645952Y-155792714D01*
X136766904Y-155913666D01*
X136827380Y-156034619D01*
X136585476Y-154825095D02*
X136525000Y-154764619D01*
X136464523Y-154643666D01*
X136464523Y-154341285D01*
X136525000Y-154220333D01*
X136585476Y-154159857D01*
X136706428Y-154099380D01*
X136827380Y-154099380D01*
X137008809Y-154159857D01*
X137734523Y-154885571D01*
X137734523Y-154099380D01*
X135194523Y-155308904D02*
X135194523Y-156034619D01*
X135194523Y-155671761D02*
X133924523Y-155671761D01*
X134105952Y-155792714D01*
X134226904Y-155913666D01*
X134287380Y-156034619D01*
X133924523Y-154885571D02*
X133924523Y-154099380D01*
X134408333Y-154522714D01*
X134408333Y-154341285D01*
X134468809Y-154220333D01*
X134529285Y-154159857D01*
X134650238Y-154099380D01*
X134952619Y-154099380D01*
X135073571Y-154159857D01*
X135134047Y-154220333D01*
X135194523Y-154341285D01*
X135194523Y-154704142D01*
X135134047Y-154825095D01*
X135073571Y-154885571D01*
X132654523Y-155308904D02*
X132654523Y-156034619D01*
X132654523Y-155671761D02*
X131384523Y-155671761D01*
X131565952Y-155792714D01*
X131686904Y-155913666D01*
X131747380Y-156034619D01*
X131807857Y-154220333D02*
X132654523Y-154220333D01*
X131324047Y-154522714D02*
X132231190Y-154825095D01*
X132231190Y-154038904D01*
X130114523Y-155308904D02*
X130114523Y-156034619D01*
X130114523Y-155671761D02*
X128844523Y-155671761D01*
X129025952Y-155792714D01*
X129146904Y-155913666D01*
X129207380Y-156034619D01*
X128844523Y-154159857D02*
X128844523Y-154764619D01*
X129449285Y-154825095D01*
X129388809Y-154764619D01*
X129328333Y-154643666D01*
X129328333Y-154341285D01*
X129388809Y-154220333D01*
X129449285Y-154159857D01*
X129570238Y-154099380D01*
X129872619Y-154099380D01*
X129993571Y-154159857D01*
X130054047Y-154220333D01*
X130114523Y-154341285D01*
X130114523Y-154643666D01*
X130054047Y-154764619D01*
X129993571Y-154825095D01*
D15*
X189943619Y-160358666D02*
X190669333Y-160358666D01*
X190814476Y-160407047D01*
X190911238Y-160503809D01*
X190959619Y-160648952D01*
X190959619Y-160745714D01*
X189943619Y-159971619D02*
X189943619Y-159342666D01*
X190330666Y-159681333D01*
X190330666Y-159536190D01*
X190379047Y-159439428D01*
X190427428Y-159391047D01*
X190524190Y-159342666D01*
X190766095Y-159342666D01*
X190862857Y-159391047D01*
X190911238Y-159439428D01*
X190959619Y-159536190D01*
X190959619Y-159826476D01*
X190911238Y-159923238D01*
X190862857Y-159971619D01*
D16*
X193575714Y-154645713D02*
X193647142Y-154717142D01*
X193718571Y-154931427D01*
X193718571Y-155074285D01*
X193647142Y-155288570D01*
X193504285Y-155431427D01*
X193361428Y-155502856D01*
X193075714Y-155574285D01*
X192861428Y-155574285D01*
X192575714Y-155502856D01*
X192432857Y-155431427D01*
X192290000Y-155288570D01*
X192218571Y-155074285D01*
X192218571Y-154931427D01*
X192290000Y-154717142D01*
X192361428Y-154645713D01*
X192218571Y-154002856D02*
X193432857Y-154002856D01*
X193575714Y-153931427D01*
X193647142Y-153859999D01*
X193718571Y-153717142D01*
X193718571Y-153431427D01*
X193647142Y-153288570D01*
X193575714Y-153217142D01*
X193432857Y-153145713D01*
X192218571Y-153145713D01*
X193861428Y-152788570D02*
X193861428Y-151645713D01*
X192218571Y-151431427D02*
X192218571Y-150502856D01*
X192790000Y-151002856D01*
X192790000Y-150788570D01*
X192861428Y-150645713D01*
X192932857Y-150574285D01*
X193075714Y-150502856D01*
X193432857Y-150502856D01*
X193575714Y-150574285D01*
X193647142Y-150645713D01*
X193718571Y-150788570D01*
X193718571Y-151217142D01*
X193647142Y-151359999D01*
X193575714Y-151431427D01*
X193718571Y-149074285D02*
X193718571Y-149931427D01*
X193718571Y-149502856D02*
X192218571Y-149502856D01*
X192432857Y-149645713D01*
X192575714Y-149788570D01*
X192647142Y-149931427D01*
X196115714Y-154645713D02*
X196187142Y-154717142D01*
X196258571Y-154931427D01*
X196258571Y-155074285D01*
X196187142Y-155288570D01*
X196044285Y-155431427D01*
X195901428Y-155502856D01*
X195615714Y-155574285D01*
X195401428Y-155574285D01*
X195115714Y-155502856D01*
X194972857Y-155431427D01*
X194830000Y-155288570D01*
X194758571Y-155074285D01*
X194758571Y-154931427D01*
X194830000Y-154717142D01*
X194901428Y-154645713D01*
X194758571Y-154002856D02*
X195972857Y-154002856D01*
X196115714Y-153931427D01*
X196187142Y-153859999D01*
X196258571Y-153717142D01*
X196258571Y-153431427D01*
X196187142Y-153288570D01*
X196115714Y-153217142D01*
X195972857Y-153145713D01*
X194758571Y-153145713D01*
X196401428Y-152788570D02*
X196401428Y-151645713D01*
X194758571Y-151431427D02*
X194758571Y-150502856D01*
X195330000Y-151002856D01*
X195330000Y-150788570D01*
X195401428Y-150645713D01*
X195472857Y-150574285D01*
X195615714Y-150502856D01*
X195972857Y-150502856D01*
X196115714Y-150574285D01*
X196187142Y-150645713D01*
X196258571Y-150788570D01*
X196258571Y-151217142D01*
X196187142Y-151359999D01*
X196115714Y-151431427D01*
X194758571Y-149574285D02*
X194758571Y-149431427D01*
X194830000Y-149288570D01*
X194901428Y-149217142D01*
X195044285Y-149145713D01*
X195330000Y-149074285D01*
X195687142Y-149074285D01*
X195972857Y-149145713D01*
X196115714Y-149217142D01*
X196187142Y-149288570D01*
X196258571Y-149431427D01*
X196258571Y-149574285D01*
X196187142Y-149717142D01*
X196115714Y-149788570D01*
X195972857Y-149859999D01*
X195687142Y-149931427D01*
X195330000Y-149931427D01*
X195044285Y-149859999D01*
X194901428Y-149788570D01*
X194830000Y-149717142D01*
X194758571Y-149574285D01*
X198655714Y-154645713D02*
X198727142Y-154717142D01*
X198798571Y-154931427D01*
X198798571Y-155074285D01*
X198727142Y-155288570D01*
X198584285Y-155431427D01*
X198441428Y-155502856D01*
X198155714Y-155574285D01*
X197941428Y-155574285D01*
X197655714Y-155502856D01*
X197512857Y-155431427D01*
X197370000Y-155288570D01*
X197298571Y-155074285D01*
X197298571Y-154931427D01*
X197370000Y-154717142D01*
X197441428Y-154645713D01*
X197298571Y-154002856D02*
X198512857Y-154002856D01*
X198655714Y-153931427D01*
X198727142Y-153859999D01*
X198798571Y-153717142D01*
X198798571Y-153431427D01*
X198727142Y-153288570D01*
X198655714Y-153217142D01*
X198512857Y-153145713D01*
X197298571Y-153145713D01*
X198941428Y-152788570D02*
X198941428Y-151645713D01*
X197441428Y-151359999D02*
X197370000Y-151288570D01*
X197298571Y-151145713D01*
X197298571Y-150788570D01*
X197370000Y-150645713D01*
X197441428Y-150574285D01*
X197584285Y-150502856D01*
X197727142Y-150502856D01*
X197941428Y-150574285D01*
X198798571Y-151431427D01*
X198798571Y-150502856D01*
X198798571Y-149788570D02*
X198798571Y-149502856D01*
X198727142Y-149359999D01*
X198655714Y-149288570D01*
X198441428Y-149145713D01*
X198155714Y-149074285D01*
X197584285Y-149074285D01*
X197441428Y-149145713D01*
X197370000Y-149217142D01*
X197298571Y-149359999D01*
X197298571Y-149645713D01*
X197370000Y-149788570D01*
X197441428Y-149859999D01*
X197584285Y-149931427D01*
X197941428Y-149931427D01*
X198084285Y-149859999D01*
X198155714Y-149788570D01*
X198227142Y-149645713D01*
X198227142Y-149359999D01*
X198155714Y-149217142D01*
X198084285Y-149145713D01*
X197941428Y-149074285D01*
X201338571Y-155502857D02*
X199838571Y-155502857D01*
X200552857Y-155502857D02*
X200552857Y-154645714D01*
X201338571Y-154645714D02*
X199838571Y-154645714D01*
X200910000Y-154002857D02*
X200910000Y-153288571D01*
X201338571Y-154145714D02*
X199838571Y-153645714D01*
X201338571Y-153145714D01*
X201338571Y-151931428D02*
X201338571Y-152645714D01*
X199838571Y-152645714D01*
X199838571Y-151645714D02*
X199838571Y-150788571D01*
X201338571Y-151217142D02*
X199838571Y-151217142D01*
X203735714Y-154645714D02*
X203807142Y-154717142D01*
X203878571Y-154931428D01*
X203878571Y-155074285D01*
X203807142Y-155288571D01*
X203664285Y-155431428D01*
X203521428Y-155502857D01*
X203235714Y-155574285D01*
X203021428Y-155574285D01*
X202735714Y-155502857D01*
X202592857Y-155431428D01*
X202450000Y-155288571D01*
X202378571Y-155074285D01*
X202378571Y-154931428D01*
X202450000Y-154717142D01*
X202521428Y-154645714D01*
X202378571Y-154002857D02*
X203592857Y-154002857D01*
X203735714Y-153931428D01*
X203807142Y-153860000D01*
X203878571Y-153717142D01*
X203878571Y-153431428D01*
X203807142Y-153288571D01*
X203735714Y-153217142D01*
X203592857Y-153145714D01*
X202378571Y-153145714D01*
X204021428Y-152788571D02*
X204021428Y-151645714D01*
X203807142Y-151360000D02*
X203878571Y-151145714D01*
X203878571Y-150788571D01*
X203807142Y-150645714D01*
X203735714Y-150574285D01*
X203592857Y-150502857D01*
X203450000Y-150502857D01*
X203307142Y-150574285D01*
X203235714Y-150645714D01*
X203164285Y-150788571D01*
X203092857Y-151074285D01*
X203021428Y-151217142D01*
X202950000Y-151288571D01*
X202807142Y-151360000D01*
X202664285Y-151360000D01*
X202521428Y-151288571D01*
X202450000Y-151217142D01*
X202378571Y-151074285D01*
X202378571Y-150717142D01*
X202450000Y-150502857D01*
X202378571Y-150074285D02*
X202378571Y-149217142D01*
X203878571Y-149645714D02*
X202378571Y-149645714D01*
X204021428Y-149074285D02*
X204021428Y-147931428D01*
X203878571Y-146717142D02*
X203164285Y-147217142D01*
X203878571Y-147574285D02*
X202378571Y-147574285D01*
X202378571Y-147002857D01*
X202450000Y-146860000D01*
X202521428Y-146788571D01*
X202664285Y-146717142D01*
X202878571Y-146717142D01*
X203021428Y-146788571D01*
X203092857Y-146860000D01*
X203164285Y-147002857D01*
X203164285Y-147574285D01*
X203807142Y-146145714D02*
X203878571Y-145931428D01*
X203878571Y-145574285D01*
X203807142Y-145431428D01*
X203735714Y-145360000D01*
X203592857Y-145288571D01*
X203450000Y-145288571D01*
X203307142Y-145360000D01*
X203235714Y-145431428D01*
X203164285Y-145574285D01*
X203092857Y-145860000D01*
X203021428Y-146002857D01*
X202950000Y-146074285D01*
X202807142Y-146145714D01*
X202664285Y-146145714D01*
X202521428Y-146074285D01*
X202450000Y-146002857D01*
X202378571Y-145860000D01*
X202378571Y-145502857D01*
X202450000Y-145288571D01*
X202378571Y-144860000D02*
X202378571Y-144002857D01*
X203878571Y-144431428D02*
X202378571Y-144431428D01*
X206418571Y-155502856D02*
X204918571Y-155502856D01*
X206418571Y-153931428D02*
X205704285Y-154431428D01*
X206418571Y-154788571D02*
X204918571Y-154788571D01*
X204918571Y-154217142D01*
X204990000Y-154074285D01*
X205061428Y-154002856D01*
X205204285Y-153931428D01*
X205418571Y-153931428D01*
X205561428Y-154002856D01*
X205632857Y-154074285D01*
X205704285Y-154217142D01*
X205704285Y-154788571D01*
X206561428Y-153645713D02*
X206561428Y-152502856D01*
X206418571Y-152145713D02*
X204918571Y-152145713D01*
X206418571Y-151431428D02*
X204918571Y-151431428D01*
X206418571Y-150574285D01*
X204918571Y-150574285D01*
X208958571Y-155502857D02*
X207458571Y-155502857D01*
X207458571Y-154931428D01*
X207530000Y-154788571D01*
X207601428Y-154717142D01*
X207744285Y-154645714D01*
X207958571Y-154645714D01*
X208101428Y-154717142D01*
X208172857Y-154788571D01*
X208244285Y-154931428D01*
X208244285Y-155502857D01*
X208815714Y-153145714D02*
X208887142Y-153217142D01*
X208958571Y-153431428D01*
X208958571Y-153574285D01*
X208887142Y-153788571D01*
X208744285Y-153931428D01*
X208601428Y-154002857D01*
X208315714Y-154074285D01*
X208101428Y-154074285D01*
X207815714Y-154002857D01*
X207672857Y-153931428D01*
X207530000Y-153788571D01*
X207458571Y-153574285D01*
X207458571Y-153431428D01*
X207530000Y-153217142D01*
X207601428Y-153145714D01*
X209101428Y-152860000D02*
X209101428Y-151717142D01*
X208815714Y-150502857D02*
X208887142Y-150574285D01*
X208958571Y-150788571D01*
X208958571Y-150931428D01*
X208887142Y-151145714D01*
X208744285Y-151288571D01*
X208601428Y-151360000D01*
X208315714Y-151431428D01*
X208101428Y-151431428D01*
X207815714Y-151360000D01*
X207672857Y-151288571D01*
X207530000Y-151145714D01*
X207458571Y-150931428D01*
X207458571Y-150788571D01*
X207530000Y-150574285D01*
X207601428Y-150502857D01*
X207458571Y-149574285D02*
X207458571Y-149288571D01*
X207530000Y-149145714D01*
X207672857Y-149002857D01*
X207958571Y-148931428D01*
X208458571Y-148931428D01*
X208744285Y-149002857D01*
X208887142Y-149145714D01*
X208958571Y-149288571D01*
X208958571Y-149574285D01*
X208887142Y-149717142D01*
X208744285Y-149860000D01*
X208458571Y-149931428D01*
X207958571Y-149931428D01*
X207672857Y-149860000D01*
X207530000Y-149717142D01*
X207458571Y-149574285D01*
X207458571Y-148288571D02*
X208672857Y-148288571D01*
X208815714Y-148217142D01*
X208887142Y-148145714D01*
X208958571Y-148002857D01*
X208958571Y-147717142D01*
X208887142Y-147574285D01*
X208815714Y-147502857D01*
X208672857Y-147431428D01*
X207458571Y-147431428D01*
X208958571Y-146717142D02*
X207458571Y-146717142D01*
X208958571Y-145860000D01*
X207458571Y-145860000D01*
X207458571Y-145360000D02*
X207458571Y-144502857D01*
X208958571Y-144931428D02*
X207458571Y-144931428D01*
X211498571Y-155502856D02*
X209998571Y-155502856D01*
X209998571Y-154931428D01*
X210070000Y-154788571D01*
X210141428Y-154717142D01*
X210284285Y-154645714D01*
X210498571Y-154645714D01*
X210641428Y-154717142D01*
X210712857Y-154788571D01*
X210784285Y-154931428D01*
X210784285Y-155502856D01*
X211355714Y-153145714D02*
X211427142Y-153217142D01*
X211498571Y-153431428D01*
X211498571Y-153574285D01*
X211427142Y-153788571D01*
X211284285Y-153931428D01*
X211141428Y-154002856D01*
X210855714Y-154074285D01*
X210641428Y-154074285D01*
X210355714Y-154002856D01*
X210212857Y-153931428D01*
X210070000Y-153788571D01*
X209998571Y-153574285D01*
X209998571Y-153431428D01*
X210070000Y-153217142D01*
X210141428Y-153145714D01*
X211641428Y-152859999D02*
X211641428Y-151717142D01*
X209998571Y-151074285D02*
X209998571Y-150788571D01*
X210070000Y-150645714D01*
X210212857Y-150502856D01*
X210498571Y-150431428D01*
X210998571Y-150431428D01*
X211284285Y-150502856D01*
X211427142Y-150645714D01*
X211498571Y-150788571D01*
X211498571Y-151074285D01*
X211427142Y-151217142D01*
X211284285Y-151359999D01*
X210998571Y-151431428D01*
X210498571Y-151431428D01*
X210212857Y-151359999D01*
X210070000Y-151217142D01*
X209998571Y-151074285D01*
X209998571Y-149788571D02*
X211212857Y-149788571D01*
X211355714Y-149717142D01*
X211427142Y-149645714D01*
X211498571Y-149502856D01*
X211498571Y-149217142D01*
X211427142Y-149074285D01*
X211355714Y-149002856D01*
X211212857Y-148931428D01*
X209998571Y-148931428D01*
X209998571Y-148431428D02*
X209998571Y-147574285D01*
X211498571Y-148002856D02*
X209998571Y-148002856D01*
X214038571Y-155502856D02*
X212538571Y-155502856D01*
X212538571Y-154931428D01*
X212610000Y-154788571D01*
X212681428Y-154717142D01*
X212824285Y-154645714D01*
X213038571Y-154645714D01*
X213181428Y-154717142D01*
X213252857Y-154788571D01*
X213324285Y-154931428D01*
X213324285Y-155502856D01*
X213895714Y-153145714D02*
X213967142Y-153217142D01*
X214038571Y-153431428D01*
X214038571Y-153574285D01*
X213967142Y-153788571D01*
X213824285Y-153931428D01*
X213681428Y-154002856D01*
X213395714Y-154074285D01*
X213181428Y-154074285D01*
X212895714Y-154002856D01*
X212752857Y-153931428D01*
X212610000Y-153788571D01*
X212538571Y-153574285D01*
X212538571Y-153431428D01*
X212610000Y-153217142D01*
X212681428Y-153145714D01*
X214181428Y-152859999D02*
X214181428Y-151717142D01*
X214038571Y-151359999D02*
X212538571Y-151359999D01*
X214038571Y-150645714D02*
X212538571Y-150645714D01*
X214038571Y-149788571D01*
X212538571Y-149788571D01*
X216507142Y-155574285D02*
X216578571Y-155359999D01*
X216578571Y-155002856D01*
X216507142Y-154859999D01*
X216435714Y-154788570D01*
X216292857Y-154717142D01*
X216150000Y-154717142D01*
X216007142Y-154788570D01*
X215935714Y-154859999D01*
X215864285Y-155002856D01*
X215792857Y-155288570D01*
X215721428Y-155431428D01*
X215650000Y-155502856D01*
X215507142Y-155574285D01*
X215364285Y-155574285D01*
X215221428Y-155502856D01*
X215150000Y-155431428D01*
X215078571Y-155288570D01*
X215078571Y-154931428D01*
X215150000Y-154717142D01*
X216578571Y-154074285D02*
X215078571Y-154074285D01*
X215078571Y-153502856D01*
X215150000Y-153359999D01*
X215221428Y-153288570D01*
X215364285Y-153217142D01*
X215578571Y-153217142D01*
X215721428Y-153288570D01*
X215792857Y-153359999D01*
X215864285Y-153502856D01*
X215864285Y-154074285D01*
X216721428Y-152931428D02*
X216721428Y-151788570D01*
X215078571Y-151145713D02*
X215078571Y-150859999D01*
X215150000Y-150717142D01*
X215292857Y-150574285D01*
X215578571Y-150502856D01*
X216078571Y-150502856D01*
X216364285Y-150574285D01*
X216507142Y-150717142D01*
X216578571Y-150859999D01*
X216578571Y-151145713D01*
X216507142Y-151288570D01*
X216364285Y-151431428D01*
X216078571Y-151502856D01*
X215578571Y-151502856D01*
X215292857Y-151431428D01*
X215150000Y-151288570D01*
X215078571Y-151145713D01*
X215078571Y-149859999D02*
X216292857Y-149859999D01*
X216435714Y-149788570D01*
X216507142Y-149717142D01*
X216578571Y-149574285D01*
X216578571Y-149288570D01*
X216507142Y-149145713D01*
X216435714Y-149074285D01*
X216292857Y-149002856D01*
X215078571Y-149002856D01*
X215078571Y-148502856D02*
X215078571Y-147645713D01*
X216578571Y-148074285D02*
X215078571Y-148074285D01*
X219047142Y-155574285D02*
X219118571Y-155359999D01*
X219118571Y-155002856D01*
X219047142Y-154859999D01*
X218975714Y-154788570D01*
X218832857Y-154717142D01*
X218690000Y-154717142D01*
X218547142Y-154788570D01*
X218475714Y-154859999D01*
X218404285Y-155002856D01*
X218332857Y-155288570D01*
X218261428Y-155431428D01*
X218190000Y-155502856D01*
X218047142Y-155574285D01*
X217904285Y-155574285D01*
X217761428Y-155502856D01*
X217690000Y-155431428D01*
X217618571Y-155288570D01*
X217618571Y-154931428D01*
X217690000Y-154717142D01*
X219118571Y-154074285D02*
X217618571Y-154074285D01*
X217618571Y-153502856D01*
X217690000Y-153359999D01*
X217761428Y-153288570D01*
X217904285Y-153217142D01*
X218118571Y-153217142D01*
X218261428Y-153288570D01*
X218332857Y-153359999D01*
X218404285Y-153502856D01*
X218404285Y-154074285D01*
X219261428Y-152931428D02*
X219261428Y-151788570D01*
X219118571Y-151431428D02*
X217618571Y-151431428D01*
X219118571Y-150717142D02*
X217618571Y-150717142D01*
X219118571Y-149859999D01*
X217618571Y-149859999D01*
X221658571Y-154645713D02*
X220944285Y-155145713D01*
X221658571Y-155502856D02*
X220158571Y-155502856D01*
X220158571Y-154931427D01*
X220230000Y-154788570D01*
X220301428Y-154717142D01*
X220444285Y-154645713D01*
X220658571Y-154645713D01*
X220801428Y-154717142D01*
X220872857Y-154788570D01*
X220944285Y-154931427D01*
X220944285Y-155502856D01*
X221801428Y-154359999D02*
X221801428Y-153217142D01*
X220872857Y-152359999D02*
X220872857Y-152859999D01*
X221658571Y-152859999D02*
X220158571Y-152859999D01*
X220158571Y-152145713D01*
X221658571Y-151574285D02*
X220158571Y-151574285D01*
X221230000Y-151074285D01*
X220158571Y-150574285D01*
X221658571Y-150574285D01*
X221801428Y-150217142D02*
X221801428Y-149074285D01*
X221658571Y-148717142D02*
X220158571Y-148717142D01*
X221230000Y-148217142D01*
X220158571Y-147717142D01*
X221658571Y-147717142D01*
X220872857Y-147002856D02*
X220872857Y-146502856D01*
X221658571Y-146288570D02*
X221658571Y-147002856D01*
X220158571Y-147002856D01*
X220158571Y-146288570D01*
X221658571Y-145645713D02*
X220158571Y-145645713D01*
X221230000Y-145145713D01*
X220158571Y-144645713D01*
X221658571Y-144645713D01*
X222698571Y-155645714D02*
X224198571Y-155288571D01*
X223127142Y-155002857D01*
X224198571Y-154717142D01*
X222698571Y-154360000D01*
X224341428Y-154145714D02*
X224341428Y-153002857D01*
X222698571Y-152860000D02*
X222698571Y-152002857D01*
X224198571Y-152431428D02*
X222698571Y-152431428D01*
X222698571Y-151217142D02*
X222698571Y-150931428D01*
X222770000Y-150788571D01*
X222912857Y-150645714D01*
X223198571Y-150574285D01*
X223698571Y-150574285D01*
X223984285Y-150645714D01*
X224127142Y-150788571D01*
X224198571Y-150931428D01*
X224198571Y-151217142D01*
X224127142Y-151360000D01*
X223984285Y-151502857D01*
X223698571Y-151574285D01*
X223198571Y-151574285D01*
X222912857Y-151502857D01*
X222770000Y-151360000D01*
X222698571Y-151217142D01*
X224341428Y-150288571D02*
X224341428Y-149145714D01*
X224198571Y-148788571D02*
X222698571Y-148788571D01*
X223770000Y-148288571D01*
X222698571Y-147788571D01*
X224198571Y-147788571D01*
X223412857Y-147074285D02*
X223412857Y-146574285D01*
X224198571Y-146360000D02*
X224198571Y-147074285D01*
X222698571Y-147074285D01*
X222698571Y-146360000D01*
X224198571Y-145717142D02*
X222698571Y-145717142D01*
X223770000Y-145217142D01*
X222698571Y-144717142D01*
X224198571Y-144717142D01*
X226738571Y-155502856D02*
X225238571Y-155502856D01*
X226310000Y-155002856D01*
X225238571Y-154502856D01*
X226738571Y-154502856D01*
X226310000Y-153859999D02*
X226310000Y-153145714D01*
X226738571Y-154002856D02*
X225238571Y-153502856D01*
X226738571Y-153002856D01*
X226738571Y-151645714D02*
X226024285Y-152145714D01*
X226738571Y-152502856D02*
X225238571Y-152502856D01*
X225238571Y-151931428D01*
X225310000Y-151788571D01*
X225381428Y-151717142D01*
X225524285Y-151645714D01*
X225738571Y-151645714D01*
X225881428Y-151717142D01*
X225952857Y-151788571D01*
X226024285Y-151931428D01*
X226024285Y-152502856D01*
X226881428Y-151359999D02*
X226881428Y-150217142D01*
X226738571Y-149859999D02*
X225238571Y-149859999D01*
X226738571Y-149145714D02*
X225238571Y-149145714D01*
X226738571Y-148288571D01*
X225238571Y-148288571D01*
X228850000Y-155574285D02*
X228850000Y-154860000D01*
X229278571Y-155717143D02*
X227778571Y-155217143D01*
X229278571Y-154717143D01*
X229278571Y-153502857D02*
X229278571Y-154217143D01*
X227778571Y-154217143D01*
X227778571Y-153002857D02*
X228992857Y-153002857D01*
X229135714Y-152931428D01*
X229207142Y-152860000D01*
X229278571Y-152717143D01*
X229278571Y-152431428D01*
X229207142Y-152288571D01*
X229135714Y-152217143D01*
X228992857Y-152145714D01*
X227778571Y-152145714D01*
X229421428Y-151788571D02*
X229421428Y-150645714D01*
X229135714Y-149431428D02*
X229207142Y-149502857D01*
X229278571Y-149717143D01*
X229278571Y-149860000D01*
X229207142Y-150074285D01*
X229064285Y-150217143D01*
X228921428Y-150288571D01*
X228635714Y-150360000D01*
X228421428Y-150360000D01*
X228135714Y-150288571D01*
X227992857Y-150217143D01*
X227850000Y-150074285D01*
X227778571Y-149860000D01*
X227778571Y-149717143D01*
X227850000Y-149502857D01*
X227921428Y-149431428D01*
X228850000Y-148860000D02*
X228850000Y-148145714D01*
X229278571Y-149002857D02*
X227778571Y-148502857D01*
X229278571Y-148002857D01*
X229278571Y-146645714D02*
X228564285Y-147145714D01*
X229278571Y-147502857D02*
X227778571Y-147502857D01*
X227778571Y-146931428D01*
X227850000Y-146788571D01*
X227921428Y-146717143D01*
X228064285Y-146645714D01*
X228278571Y-146645714D01*
X228421428Y-146717143D01*
X228492857Y-146788571D01*
X228564285Y-146931428D01*
X228564285Y-147502857D01*
X229278571Y-145145714D02*
X228564285Y-145645714D01*
X229278571Y-146002857D02*
X227778571Y-146002857D01*
X227778571Y-145431428D01*
X227850000Y-145288571D01*
X227921428Y-145217143D01*
X228064285Y-145145714D01*
X228278571Y-145145714D01*
X228421428Y-145217143D01*
X228492857Y-145288571D01*
X228564285Y-145431428D01*
X228564285Y-146002857D01*
X228564285Y-144217143D02*
X229278571Y-144217143D01*
X227778571Y-144717143D02*
X228564285Y-144217143D01*
X227778571Y-143717143D01*
X231390000Y-155574285D02*
X231390000Y-154859999D01*
X231818571Y-155717142D02*
X230318571Y-155217142D01*
X231818571Y-154717142D01*
X231818571Y-153502856D02*
X231818571Y-154217142D01*
X230318571Y-154217142D01*
X230318571Y-153002856D02*
X231532857Y-153002856D01*
X231675714Y-152931428D01*
X231747142Y-152859999D01*
X231818571Y-152717142D01*
X231818571Y-152431428D01*
X231747142Y-152288571D01*
X231675714Y-152217142D01*
X231532857Y-152145714D01*
X230318571Y-152145714D01*
X231961428Y-151788571D02*
X231961428Y-150645714D01*
X231818571Y-150288571D02*
X230318571Y-150288571D01*
X231390000Y-149788571D01*
X230318571Y-149288571D01*
X231818571Y-149288571D01*
X233930000Y-155574285D02*
X233930000Y-154859999D01*
X234358571Y-155717142D02*
X232858571Y-155217142D01*
X234358571Y-154717142D01*
X234358571Y-153502856D02*
X234358571Y-154217142D01*
X232858571Y-154217142D01*
X232858571Y-153002856D02*
X234072857Y-153002856D01*
X234215714Y-152931427D01*
X234287142Y-152859999D01*
X234358571Y-152717142D01*
X234358571Y-152431427D01*
X234287142Y-152288570D01*
X234215714Y-152217142D01*
X234072857Y-152145713D01*
X232858571Y-152145713D01*
X234501428Y-151788570D02*
X234501428Y-150645713D01*
X234287142Y-150359999D02*
X234358571Y-150145713D01*
X234358571Y-149788570D01*
X234287142Y-149645713D01*
X234215714Y-149574285D01*
X234072857Y-149502856D01*
X233930000Y-149502856D01*
X233787142Y-149574285D01*
X233715714Y-149645713D01*
X233644285Y-149788570D01*
X233572857Y-150074285D01*
X233501428Y-150217142D01*
X233430000Y-150288570D01*
X233287142Y-150359999D01*
X233144285Y-150359999D01*
X233001428Y-150288570D01*
X232930000Y-150217142D01*
X232858571Y-150074285D01*
X232858571Y-149717142D01*
X232930000Y-149502856D01*
X232858571Y-149002856D02*
X232858571Y-148074285D01*
X233430000Y-148574285D01*
X233430000Y-148359999D01*
X233501428Y-148217142D01*
X233572857Y-148145713D01*
X233715714Y-148074285D01*
X234072857Y-148074285D01*
X234215714Y-148145713D01*
X234287142Y-148217142D01*
X234358571Y-148359999D01*
X234358571Y-148788570D01*
X234287142Y-148931427D01*
X234215714Y-149002856D01*
X236470000Y-155574285D02*
X236470000Y-154859999D01*
X236898571Y-155717142D02*
X235398571Y-155217142D01*
X236898571Y-154717142D01*
X236898571Y-153502856D02*
X236898571Y-154217142D01*
X235398571Y-154217142D01*
X235398571Y-153002856D02*
X236612857Y-153002856D01*
X236755714Y-152931427D01*
X236827142Y-152859999D01*
X236898571Y-152717142D01*
X236898571Y-152431427D01*
X236827142Y-152288570D01*
X236755714Y-152217142D01*
X236612857Y-152145713D01*
X235398571Y-152145713D01*
X237041428Y-151788570D02*
X237041428Y-150645713D01*
X236827142Y-150359999D02*
X236898571Y-150145713D01*
X236898571Y-149788570D01*
X236827142Y-149645713D01*
X236755714Y-149574285D01*
X236612857Y-149502856D01*
X236470000Y-149502856D01*
X236327142Y-149574285D01*
X236255714Y-149645713D01*
X236184285Y-149788570D01*
X236112857Y-150074285D01*
X236041428Y-150217142D01*
X235970000Y-150288570D01*
X235827142Y-150359999D01*
X235684285Y-150359999D01*
X235541428Y-150288570D01*
X235470000Y-150217142D01*
X235398571Y-150074285D01*
X235398571Y-149717142D01*
X235470000Y-149502856D01*
X235541428Y-148931427D02*
X235470000Y-148859999D01*
X235398571Y-148717142D01*
X235398571Y-148359999D01*
X235470000Y-148217142D01*
X235541428Y-148145713D01*
X235684285Y-148074285D01*
X235827142Y-148074285D01*
X236041428Y-148145713D01*
X236898571Y-149002856D01*
X236898571Y-148074285D01*
X239010000Y-155574285D02*
X239010000Y-154859999D01*
X239438571Y-155717142D02*
X237938571Y-155217142D01*
X239438571Y-154717142D01*
X239438571Y-153502856D02*
X239438571Y-154217142D01*
X237938571Y-154217142D01*
X237938571Y-153002856D02*
X239152857Y-153002856D01*
X239295714Y-152931427D01*
X239367142Y-152859999D01*
X239438571Y-152717142D01*
X239438571Y-152431427D01*
X239367142Y-152288570D01*
X239295714Y-152217142D01*
X239152857Y-152145713D01*
X237938571Y-152145713D01*
X239581428Y-151788570D02*
X239581428Y-150645713D01*
X239367142Y-150359999D02*
X239438571Y-150145713D01*
X239438571Y-149788570D01*
X239367142Y-149645713D01*
X239295714Y-149574285D01*
X239152857Y-149502856D01*
X239010000Y-149502856D01*
X238867142Y-149574285D01*
X238795714Y-149645713D01*
X238724285Y-149788570D01*
X238652857Y-150074285D01*
X238581428Y-150217142D01*
X238510000Y-150288570D01*
X238367142Y-150359999D01*
X238224285Y-150359999D01*
X238081428Y-150288570D01*
X238010000Y-150217142D01*
X237938571Y-150074285D01*
X237938571Y-149717142D01*
X238010000Y-149502856D01*
X239438571Y-148074285D02*
X239438571Y-148931427D01*
X239438571Y-148502856D02*
X237938571Y-148502856D01*
X238152857Y-148645713D01*
X238295714Y-148788570D01*
X238367142Y-148931427D01*
X241550000Y-155574285D02*
X241550000Y-154859999D01*
X241978571Y-155717142D02*
X240478571Y-155217142D01*
X241978571Y-154717142D01*
X241978571Y-153502856D02*
X241978571Y-154217142D01*
X240478571Y-154217142D01*
X240478571Y-153002856D02*
X241692857Y-153002856D01*
X241835714Y-152931427D01*
X241907142Y-152859999D01*
X241978571Y-152717142D01*
X241978571Y-152431427D01*
X241907142Y-152288570D01*
X241835714Y-152217142D01*
X241692857Y-152145713D01*
X240478571Y-152145713D01*
X242121428Y-151788570D02*
X242121428Y-150645713D01*
X241907142Y-150359999D02*
X241978571Y-150145713D01*
X241978571Y-149788570D01*
X241907142Y-149645713D01*
X241835714Y-149574285D01*
X241692857Y-149502856D01*
X241550000Y-149502856D01*
X241407142Y-149574285D01*
X241335714Y-149645713D01*
X241264285Y-149788570D01*
X241192857Y-150074285D01*
X241121428Y-150217142D01*
X241050000Y-150288570D01*
X240907142Y-150359999D01*
X240764285Y-150359999D01*
X240621428Y-150288570D01*
X240550000Y-150217142D01*
X240478571Y-150074285D01*
X240478571Y-149717142D01*
X240550000Y-149502856D01*
X240478571Y-148574285D02*
X240478571Y-148431427D01*
X240550000Y-148288570D01*
X240621428Y-148217142D01*
X240764285Y-148145713D01*
X241050000Y-148074285D01*
X241407142Y-148074285D01*
X241692857Y-148145713D01*
X241835714Y-148217142D01*
X241907142Y-148288570D01*
X241978571Y-148431427D01*
X241978571Y-148574285D01*
X241907142Y-148717142D01*
X241835714Y-148788570D01*
X241692857Y-148859999D01*
X241407142Y-148931427D01*
X241050000Y-148931427D01*
X240764285Y-148859999D01*
X240621428Y-148788570D01*
X240550000Y-148717142D01*
X240478571Y-148574285D01*
X244090000Y-155574285D02*
X244090000Y-154859999D01*
X244518571Y-155717142D02*
X243018571Y-155217142D01*
X244518571Y-154717142D01*
X244518571Y-153502856D02*
X244518571Y-154217142D01*
X243018571Y-154217142D01*
X243018571Y-153002856D02*
X244232857Y-153002856D01*
X244375714Y-152931428D01*
X244447142Y-152859999D01*
X244518571Y-152717142D01*
X244518571Y-152431428D01*
X244447142Y-152288571D01*
X244375714Y-152217142D01*
X244232857Y-152145713D01*
X243018571Y-152145713D01*
X244661428Y-151788571D02*
X244661428Y-150645713D01*
X244090000Y-150359999D02*
X244090000Y-149645713D01*
X244518571Y-150502856D02*
X243018571Y-150002856D01*
X244518571Y-149502856D01*
X244661428Y-149359999D02*
X244661428Y-148217142D01*
X243732857Y-147359999D02*
X243804285Y-147145713D01*
X243875714Y-147074285D01*
X244018571Y-147002856D01*
X244232857Y-147002856D01*
X244375714Y-147074285D01*
X244447142Y-147145713D01*
X244518571Y-147288571D01*
X244518571Y-147859999D01*
X243018571Y-147859999D01*
X243018571Y-147359999D01*
X243090000Y-147217142D01*
X243161428Y-147145713D01*
X243304285Y-147074285D01*
X243447142Y-147074285D01*
X243590000Y-147145713D01*
X243661428Y-147217142D01*
X243732857Y-147359999D01*
X243732857Y-147859999D01*
X243018571Y-146359999D02*
X244232857Y-146359999D01*
X244375714Y-146288571D01*
X244447142Y-146217142D01*
X244518571Y-146074285D01*
X244518571Y-145788571D01*
X244447142Y-145645713D01*
X244375714Y-145574285D01*
X244232857Y-145502856D01*
X243018571Y-145502856D01*
X244447142Y-144859999D02*
X244518571Y-144645713D01*
X244518571Y-144288571D01*
X244447142Y-144145713D01*
X244375714Y-144074285D01*
X244232857Y-144002856D01*
X244090000Y-144002856D01*
X243947142Y-144074285D01*
X243875714Y-144145713D01*
X243804285Y-144288571D01*
X243732857Y-144574285D01*
X243661428Y-144717142D01*
X243590000Y-144788571D01*
X243447142Y-144859999D01*
X243304285Y-144859999D01*
X243161428Y-144788571D01*
X243090000Y-144717142D01*
X243018571Y-144574285D01*
X243018571Y-144217142D01*
X243090000Y-144002856D01*
X246630000Y-155574285D02*
X246630000Y-154860000D01*
X247058571Y-155717142D02*
X245558571Y-155217142D01*
X247058571Y-154717142D01*
X247058571Y-153502857D02*
X247058571Y-154217142D01*
X245558571Y-154217142D01*
X245558571Y-153002857D02*
X246772857Y-153002857D01*
X246915714Y-152931428D01*
X246987142Y-152860000D01*
X247058571Y-152717142D01*
X247058571Y-152431428D01*
X246987142Y-152288571D01*
X246915714Y-152217142D01*
X246772857Y-152145714D01*
X245558571Y-152145714D01*
X247201428Y-151788571D02*
X247201428Y-150645714D01*
X245558571Y-150002857D02*
X245558571Y-149717142D01*
X245630000Y-149574285D01*
X245772857Y-149431428D01*
X246058571Y-149360000D01*
X246558571Y-149360000D01*
X246844285Y-149431428D01*
X246987142Y-149574285D01*
X247058571Y-149717142D01*
X247058571Y-150002857D01*
X246987142Y-150145714D01*
X246844285Y-150288571D01*
X246558571Y-150360000D01*
X246058571Y-150360000D01*
X245772857Y-150288571D01*
X245630000Y-150145714D01*
X245558571Y-150002857D01*
X245558571Y-148717142D02*
X246772857Y-148717142D01*
X246915714Y-148645714D01*
X246987142Y-148574285D01*
X247058571Y-148431428D01*
X247058571Y-148145714D01*
X246987142Y-148002857D01*
X246915714Y-147931428D01*
X246772857Y-147860000D01*
X245558571Y-147860000D01*
X245558571Y-147360000D02*
X245558571Y-146502857D01*
X247058571Y-146931428D02*
X245558571Y-146931428D01*
X249170000Y-155574285D02*
X249170000Y-154859999D01*
X249598571Y-155717142D02*
X248098571Y-155217142D01*
X249598571Y-154717142D01*
X249598571Y-153502856D02*
X249598571Y-154217142D01*
X248098571Y-154217142D01*
X248098571Y-153002856D02*
X249312857Y-153002856D01*
X249455714Y-152931428D01*
X249527142Y-152859999D01*
X249598571Y-152717142D01*
X249598571Y-152431428D01*
X249527142Y-152288571D01*
X249455714Y-152217142D01*
X249312857Y-152145714D01*
X248098571Y-152145714D01*
X249741428Y-151788571D02*
X249741428Y-150645714D01*
X249527142Y-150359999D02*
X249598571Y-150145714D01*
X249598571Y-149788571D01*
X249527142Y-149645714D01*
X249455714Y-149574285D01*
X249312857Y-149502856D01*
X249170000Y-149502856D01*
X249027142Y-149574285D01*
X248955714Y-149645714D01*
X248884285Y-149788571D01*
X248812857Y-150074285D01*
X248741428Y-150217142D01*
X248670000Y-150288571D01*
X248527142Y-150359999D01*
X248384285Y-150359999D01*
X248241428Y-150288571D01*
X248170000Y-150217142D01*
X248098571Y-150074285D01*
X248098571Y-149717142D01*
X248170000Y-149502856D01*
X248098571Y-149074285D02*
X248098571Y-148217142D01*
X249598571Y-148645714D02*
X248098571Y-148645714D01*
X249741428Y-148074285D02*
X249741428Y-146931428D01*
X248812857Y-146074285D02*
X248812857Y-146574285D01*
X249598571Y-146574285D02*
X248098571Y-146574285D01*
X248098571Y-145859999D01*
X249598571Y-144574285D02*
X249598571Y-145288571D01*
X248098571Y-145288571D01*
X251710000Y-155574285D02*
X251710000Y-154859999D01*
X252138571Y-155717142D02*
X250638571Y-155217142D01*
X252138571Y-154717142D01*
X252138571Y-153502856D02*
X252138571Y-154217142D01*
X250638571Y-154217142D01*
X250638571Y-153002856D02*
X251852857Y-153002856D01*
X251995714Y-152931428D01*
X252067142Y-152859999D01*
X252138571Y-152717142D01*
X252138571Y-152431428D01*
X252067142Y-152288570D01*
X251995714Y-152217142D01*
X251852857Y-152145713D01*
X250638571Y-152145713D01*
X252281428Y-151788570D02*
X252281428Y-150645713D01*
X252067142Y-150359999D02*
X252138571Y-150145713D01*
X252138571Y-149788570D01*
X252067142Y-149645713D01*
X251995714Y-149574285D01*
X251852857Y-149502856D01*
X251710000Y-149502856D01*
X251567142Y-149574285D01*
X251495714Y-149645713D01*
X251424285Y-149788570D01*
X251352857Y-150074285D01*
X251281428Y-150217142D01*
X251210000Y-150288570D01*
X251067142Y-150359999D01*
X250924285Y-150359999D01*
X250781428Y-150288570D01*
X250710000Y-150217142D01*
X250638571Y-150074285D01*
X250638571Y-149717142D01*
X250710000Y-149502856D01*
X250638571Y-149074285D02*
X250638571Y-148217142D01*
X252138571Y-148645713D02*
X250638571Y-148645713D01*
X252281428Y-148074285D02*
X252281428Y-146931428D01*
X252138571Y-145717142D02*
X251424285Y-146217142D01*
X252138571Y-146574285D02*
X250638571Y-146574285D01*
X250638571Y-146002856D01*
X250710000Y-145859999D01*
X250781428Y-145788570D01*
X250924285Y-145717142D01*
X251138571Y-145717142D01*
X251281428Y-145788570D01*
X251352857Y-145859999D01*
X251424285Y-146002856D01*
X251424285Y-146574285D01*
X252067142Y-145145713D02*
X252138571Y-144931428D01*
X252138571Y-144574285D01*
X252067142Y-144431428D01*
X251995714Y-144359999D01*
X251852857Y-144288570D01*
X251710000Y-144288570D01*
X251567142Y-144359999D01*
X251495714Y-144431428D01*
X251424285Y-144574285D01*
X251352857Y-144859999D01*
X251281428Y-145002856D01*
X251210000Y-145074285D01*
X251067142Y-145145713D01*
X250924285Y-145145713D01*
X250781428Y-145074285D01*
X250710000Y-145002856D01*
X250638571Y-144859999D01*
X250638571Y-144502856D01*
X250710000Y-144288570D01*
X254535714Y-154645714D02*
X254607142Y-154717142D01*
X254678571Y-154931428D01*
X254678571Y-155074285D01*
X254607142Y-155288571D01*
X254464285Y-155431428D01*
X254321428Y-155502856D01*
X254035714Y-155574285D01*
X253821428Y-155574285D01*
X253535714Y-155502856D01*
X253392857Y-155431428D01*
X253250000Y-155288571D01*
X253178571Y-155074285D01*
X253178571Y-154931428D01*
X253250000Y-154717142D01*
X253321428Y-154645714D01*
X254821428Y-154359999D02*
X254821428Y-153217142D01*
X253178571Y-152574285D02*
X253178571Y-152288571D01*
X253250000Y-152145714D01*
X253392857Y-152002856D01*
X253678571Y-151931428D01*
X254178571Y-151931428D01*
X254464285Y-152002856D01*
X254607142Y-152145714D01*
X254678571Y-152288571D01*
X254678571Y-152574285D01*
X254607142Y-152717142D01*
X254464285Y-152859999D01*
X254178571Y-152931428D01*
X253678571Y-152931428D01*
X253392857Y-152859999D01*
X253250000Y-152717142D01*
X253178571Y-152574285D01*
X253178571Y-151288571D02*
X254392857Y-151288571D01*
X254535714Y-151217142D01*
X254607142Y-151145714D01*
X254678571Y-151002856D01*
X254678571Y-150717142D01*
X254607142Y-150574285D01*
X254535714Y-150502856D01*
X254392857Y-150431428D01*
X253178571Y-150431428D01*
X253178571Y-149931428D02*
X253178571Y-149074285D01*
X254678571Y-149502856D02*
X253178571Y-149502856D01*
X257075714Y-154645714D02*
X257147142Y-154717142D01*
X257218571Y-154931428D01*
X257218571Y-155074285D01*
X257147142Y-155288571D01*
X257004285Y-155431428D01*
X256861428Y-155502856D01*
X256575714Y-155574285D01*
X256361428Y-155574285D01*
X256075714Y-155502856D01*
X255932857Y-155431428D01*
X255790000Y-155288571D01*
X255718571Y-155074285D01*
X255718571Y-154931428D01*
X255790000Y-154717142D01*
X255861428Y-154645714D01*
X257361428Y-154359999D02*
X257361428Y-153217142D01*
X257218571Y-152859999D02*
X255718571Y-152859999D01*
X257218571Y-152145714D02*
X255718571Y-152145714D01*
X257218571Y-151288571D01*
X255718571Y-151288571D01*
X258972857Y-155002856D02*
X259044285Y-154788571D01*
X259115714Y-154717142D01*
X259258571Y-154645714D01*
X259472857Y-154645714D01*
X259615714Y-154717142D01*
X259687142Y-154788571D01*
X259758571Y-154931428D01*
X259758571Y-155502856D01*
X258258571Y-155502856D01*
X258258571Y-155002856D01*
X258330000Y-154859999D01*
X258401428Y-154788571D01*
X258544285Y-154717142D01*
X258687142Y-154717142D01*
X258830000Y-154788571D01*
X258901428Y-154859999D01*
X258972857Y-155002856D01*
X258972857Y-155502856D01*
X259901428Y-154359999D02*
X259901428Y-153217142D01*
X258258571Y-152574285D02*
X258258571Y-152288571D01*
X258330000Y-152145714D01*
X258472857Y-152002856D01*
X258758571Y-151931428D01*
X259258571Y-151931428D01*
X259544285Y-152002856D01*
X259687142Y-152145714D01*
X259758571Y-152288571D01*
X259758571Y-152574285D01*
X259687142Y-152717142D01*
X259544285Y-152859999D01*
X259258571Y-152931428D01*
X258758571Y-152931428D01*
X258472857Y-152859999D01*
X258330000Y-152717142D01*
X258258571Y-152574285D01*
X258258571Y-151288571D02*
X259472857Y-151288571D01*
X259615714Y-151217142D01*
X259687142Y-151145714D01*
X259758571Y-151002856D01*
X259758571Y-150717142D01*
X259687142Y-150574285D01*
X259615714Y-150502856D01*
X259472857Y-150431428D01*
X258258571Y-150431428D01*
X258258571Y-149931428D02*
X258258571Y-149074285D01*
X259758571Y-149502856D02*
X258258571Y-149502856D01*
X261512857Y-155002856D02*
X261584285Y-154788571D01*
X261655714Y-154717142D01*
X261798571Y-154645714D01*
X262012857Y-154645714D01*
X262155714Y-154717142D01*
X262227142Y-154788571D01*
X262298571Y-154931428D01*
X262298571Y-155502856D01*
X260798571Y-155502856D01*
X260798571Y-155002856D01*
X260870000Y-154859999D01*
X260941428Y-154788571D01*
X261084285Y-154717142D01*
X261227142Y-154717142D01*
X261370000Y-154788571D01*
X261441428Y-154859999D01*
X261512857Y-155002856D01*
X261512857Y-155502856D01*
X262441428Y-154359999D02*
X262441428Y-153217142D01*
X262298571Y-152859999D02*
X260798571Y-152859999D01*
X262298571Y-152145714D02*
X260798571Y-152145714D01*
X262298571Y-151288571D01*
X260798571Y-151288571D01*
X264410000Y-155574285D02*
X264410000Y-154859999D01*
X264838571Y-155717142D02*
X263338571Y-155217142D01*
X264838571Y-154717142D01*
X264981428Y-154574285D02*
X264981428Y-153431428D01*
X263338571Y-152788571D02*
X263338571Y-152502857D01*
X263410000Y-152359999D01*
X263552857Y-152217142D01*
X263838571Y-152145714D01*
X264338571Y-152145714D01*
X264624285Y-152217142D01*
X264767142Y-152359999D01*
X264838571Y-152502857D01*
X264838571Y-152788571D01*
X264767142Y-152931428D01*
X264624285Y-153074285D01*
X264338571Y-153145714D01*
X263838571Y-153145714D01*
X263552857Y-153074285D01*
X263410000Y-152931428D01*
X263338571Y-152788571D01*
X263338571Y-151502857D02*
X264552857Y-151502857D01*
X264695714Y-151431428D01*
X264767142Y-151359999D01*
X264838571Y-151217142D01*
X264838571Y-150931428D01*
X264767142Y-150788571D01*
X264695714Y-150717142D01*
X264552857Y-150645714D01*
X263338571Y-150645714D01*
X263338571Y-150145714D02*
X263338571Y-149288571D01*
X264838571Y-149717142D02*
X263338571Y-149717142D01*
X266950000Y-155574285D02*
X266950000Y-154859999D01*
X267378571Y-155717142D02*
X265878571Y-155217142D01*
X267378571Y-154717142D01*
X267521428Y-154574285D02*
X267521428Y-153431428D01*
X267378571Y-153074285D02*
X265878571Y-153074285D01*
X267378571Y-152359999D02*
X265878571Y-152359999D01*
X267378571Y-151502857D01*
X265878571Y-151502857D01*
X269490000Y-155574285D02*
X269490000Y-154859999D01*
X269918571Y-155717142D02*
X268418571Y-155217142D01*
X269918571Y-154717142D01*
X269775714Y-153359999D02*
X269847142Y-153431428D01*
X269918571Y-153645714D01*
X269918571Y-153788571D01*
X269847142Y-154002857D01*
X269704285Y-154145714D01*
X269561428Y-154217142D01*
X269275714Y-154288571D01*
X269061428Y-154288571D01*
X268775714Y-154217142D01*
X268632857Y-154145714D01*
X268490000Y-154002857D01*
X268418571Y-153788571D01*
X268418571Y-153645714D01*
X268490000Y-153431428D01*
X268561428Y-153359999D01*
X269775714Y-151859999D02*
X269847142Y-151931428D01*
X269918571Y-152145714D01*
X269918571Y-152288571D01*
X269847142Y-152502857D01*
X269704285Y-152645714D01*
X269561428Y-152717142D01*
X269275714Y-152788571D01*
X269061428Y-152788571D01*
X268775714Y-152717142D01*
X268632857Y-152645714D01*
X268490000Y-152502857D01*
X268418571Y-152288571D01*
X268418571Y-152145714D01*
X268490000Y-151931428D01*
X268561428Y-151859999D01*
X270061428Y-151574285D02*
X270061428Y-150431428D01*
X268418571Y-149788571D02*
X268418571Y-149502857D01*
X268490000Y-149359999D01*
X268632857Y-149217142D01*
X268918571Y-149145714D01*
X269418571Y-149145714D01*
X269704285Y-149217142D01*
X269847142Y-149359999D01*
X269918571Y-149502857D01*
X269918571Y-149788571D01*
X269847142Y-149931428D01*
X269704285Y-150074285D01*
X269418571Y-150145714D01*
X268918571Y-150145714D01*
X268632857Y-150074285D01*
X268490000Y-149931428D01*
X268418571Y-149788571D01*
X268418571Y-148502857D02*
X269632857Y-148502857D01*
X269775714Y-148431428D01*
X269847142Y-148359999D01*
X269918571Y-148217142D01*
X269918571Y-147931428D01*
X269847142Y-147788571D01*
X269775714Y-147717142D01*
X269632857Y-147645714D01*
X268418571Y-147645714D01*
X268418571Y-147145714D02*
X268418571Y-146288571D01*
X269918571Y-146717142D02*
X268418571Y-146717142D01*
X272030000Y-155574285D02*
X272030000Y-154859999D01*
X272458571Y-155717142D02*
X270958571Y-155217142D01*
X272458571Y-154717142D01*
X272315714Y-153359999D02*
X272387142Y-153431428D01*
X272458571Y-153645714D01*
X272458571Y-153788571D01*
X272387142Y-154002857D01*
X272244285Y-154145714D01*
X272101428Y-154217142D01*
X271815714Y-154288571D01*
X271601428Y-154288571D01*
X271315714Y-154217142D01*
X271172857Y-154145714D01*
X271030000Y-154002857D01*
X270958571Y-153788571D01*
X270958571Y-153645714D01*
X271030000Y-153431428D01*
X271101428Y-153359999D01*
X272315714Y-151859999D02*
X272387142Y-151931428D01*
X272458571Y-152145714D01*
X272458571Y-152288571D01*
X272387142Y-152502857D01*
X272244285Y-152645714D01*
X272101428Y-152717142D01*
X271815714Y-152788571D01*
X271601428Y-152788571D01*
X271315714Y-152717142D01*
X271172857Y-152645714D01*
X271030000Y-152502857D01*
X270958571Y-152288571D01*
X270958571Y-152145714D01*
X271030000Y-151931428D01*
X271101428Y-151859999D01*
X272601428Y-151574285D02*
X272601428Y-150431428D01*
X272458571Y-150074285D02*
X270958571Y-150074285D01*
X272458571Y-149359999D02*
X270958571Y-149359999D01*
X272458571Y-148502857D01*
X270958571Y-148502857D01*
D15*
X80454857Y-155573142D02*
X80503238Y-155621523D01*
X80551619Y-155766666D01*
X80551619Y-155863428D01*
X80503238Y-156008571D01*
X80406476Y-156105333D01*
X80309714Y-156153714D01*
X80116190Y-156202095D01*
X79971047Y-156202095D01*
X79777523Y-156153714D01*
X79680761Y-156105333D01*
X79584000Y-156008571D01*
X79535619Y-155863428D01*
X79535619Y-155766666D01*
X79584000Y-155621523D01*
X79632380Y-155573142D01*
X80551619Y-154605523D02*
X80551619Y-155186095D01*
X80551619Y-154895809D02*
X79535619Y-154895809D01*
X79680761Y-154992571D01*
X79777523Y-155089333D01*
X79825904Y-155186095D01*
X79632380Y-154218476D02*
X79584000Y-154170095D01*
X79535619Y-154073333D01*
X79535619Y-153831428D01*
X79584000Y-153734666D01*
X79632380Y-153686285D01*
X79729142Y-153637904D01*
X79825904Y-153637904D01*
X79971047Y-153686285D01*
X80551619Y-154266857D01*
X80551619Y-153637904D01*
X111413619Y-130314095D02*
X112236095Y-130314095D01*
X112332857Y-130265714D01*
X112381238Y-130217333D01*
X112429619Y-130120571D01*
X112429619Y-129927047D01*
X112381238Y-129830285D01*
X112332857Y-129781904D01*
X112236095Y-129733523D01*
X111413619Y-129733523D01*
X111413619Y-129346476D02*
X111413619Y-128669142D01*
X112429619Y-129104571D01*
X144013619Y-132708952D02*
X144013619Y-132031619D01*
X145029619Y-132467047D01*
X144352285Y-131209142D02*
X145029619Y-131209142D01*
X143965238Y-131451047D02*
X144690952Y-131692952D01*
X144690952Y-131064000D01*
X145029619Y-130193142D02*
X145029619Y-130676952D01*
X144013619Y-130676952D01*
X144981238Y-129902857D02*
X145029619Y-129757714D01*
X145029619Y-129515809D01*
X144981238Y-129419047D01*
X144932857Y-129370666D01*
X144836095Y-129322285D01*
X144739333Y-129322285D01*
X144642571Y-129370666D01*
X144594190Y-129419047D01*
X144545809Y-129515809D01*
X144497428Y-129709333D01*
X144449047Y-129806095D01*
X144400666Y-129854476D01*
X144303904Y-129902857D01*
X144207142Y-129902857D01*
X144110380Y-129854476D01*
X144062000Y-129806095D01*
X144013619Y-129709333D01*
X144013619Y-129467428D01*
X144062000Y-129322285D01*
X145029619Y-128354666D02*
X145029619Y-128935238D01*
X145029619Y-128644952D02*
X144013619Y-128644952D01*
X144158761Y-128741714D01*
X144255523Y-128838476D01*
X144303904Y-128935238D01*
X144449047Y-127774095D02*
X144400666Y-127870857D01*
X144352285Y-127919238D01*
X144255523Y-127967619D01*
X144207142Y-127967619D01*
X144110380Y-127919238D01*
X144062000Y-127870857D01*
X144013619Y-127774095D01*
X144013619Y-127580571D01*
X144062000Y-127483809D01*
X144110380Y-127435428D01*
X144207142Y-127387047D01*
X144255523Y-127387047D01*
X144352285Y-127435428D01*
X144400666Y-127483809D01*
X144449047Y-127580571D01*
X144449047Y-127774095D01*
X144497428Y-127870857D01*
X144545809Y-127919238D01*
X144642571Y-127967619D01*
X144836095Y-127967619D01*
X144932857Y-127919238D01*
X144981238Y-127870857D01*
X145029619Y-127774095D01*
X145029619Y-127580571D01*
X144981238Y-127483809D01*
X144932857Y-127435428D01*
X144836095Y-127387047D01*
X144642571Y-127387047D01*
X144545809Y-127435428D01*
X144497428Y-127483809D01*
X144449047Y-127580571D01*
X145029619Y-126419428D02*
X145029619Y-127000000D01*
X145029619Y-126709714D02*
X144013619Y-126709714D01*
X144158761Y-126806476D01*
X144255523Y-126903238D01*
X144303904Y-127000000D01*
X174026285Y-78619619D02*
X174026285Y-77603619D01*
X174268190Y-77603619D01*
X174413333Y-77652000D01*
X174510095Y-77748761D01*
X174558476Y-77845523D01*
X174606857Y-78039047D01*
X174606857Y-78184190D01*
X174558476Y-78377714D01*
X174510095Y-78474476D01*
X174413333Y-78571238D01*
X174268190Y-78619619D01*
X174026285Y-78619619D01*
X175574476Y-78619619D02*
X174993904Y-78619619D01*
X175284190Y-78619619D02*
X175284190Y-77603619D01*
X175187428Y-77748761D01*
X175090666Y-77845523D01*
X174993904Y-77893904D01*
X176445333Y-77603619D02*
X176251809Y-77603619D01*
X176155047Y-77652000D01*
X176106666Y-77700380D01*
X176009904Y-77845523D01*
X175961523Y-78039047D01*
X175961523Y-78426095D01*
X176009904Y-78522857D01*
X176058285Y-78571238D01*
X176155047Y-78619619D01*
X176348571Y-78619619D01*
X176445333Y-78571238D01*
X176493714Y-78522857D01*
X176542095Y-78426095D01*
X176542095Y-78184190D01*
X176493714Y-78087428D01*
X176445333Y-78039047D01*
X176348571Y-77990666D01*
X176155047Y-77990666D01*
X176058285Y-78039047D01*
X176009904Y-78087428D01*
X175961523Y-78184190D01*
X180376285Y-78619619D02*
X180376285Y-77603619D01*
X180618190Y-77603619D01*
X180763333Y-77652000D01*
X180860095Y-77748761D01*
X180908476Y-77845523D01*
X180956857Y-78039047D01*
X180956857Y-78184190D01*
X180908476Y-78377714D01*
X180860095Y-78474476D01*
X180763333Y-78571238D01*
X180618190Y-78619619D01*
X180376285Y-78619619D01*
X181924476Y-78619619D02*
X181343904Y-78619619D01*
X181634190Y-78619619D02*
X181634190Y-77603619D01*
X181537428Y-77748761D01*
X181440666Y-77845523D01*
X181343904Y-77893904D01*
X182843714Y-77603619D02*
X182359904Y-77603619D01*
X182311523Y-78087428D01*
X182359904Y-78039047D01*
X182456666Y-77990666D01*
X182698571Y-77990666D01*
X182795333Y-78039047D01*
X182843714Y-78087428D01*
X182892095Y-78184190D01*
X182892095Y-78426095D01*
X182843714Y-78522857D01*
X182795333Y-78571238D01*
X182698571Y-78619619D01*
X182456666Y-78619619D01*
X182359904Y-78571238D01*
X182311523Y-78522857D01*
X186726285Y-78619619D02*
X186726285Y-77603619D01*
X186968190Y-77603619D01*
X187113333Y-77652000D01*
X187210095Y-77748761D01*
X187258476Y-77845523D01*
X187306857Y-78039047D01*
X187306857Y-78184190D01*
X187258476Y-78377714D01*
X187210095Y-78474476D01*
X187113333Y-78571238D01*
X186968190Y-78619619D01*
X186726285Y-78619619D01*
X188274476Y-78619619D02*
X187693904Y-78619619D01*
X187984190Y-78619619D02*
X187984190Y-77603619D01*
X187887428Y-77748761D01*
X187790666Y-77845523D01*
X187693904Y-77893904D01*
X189145333Y-77942285D02*
X189145333Y-78619619D01*
X188903428Y-77555238D02*
X188661523Y-78280952D01*
X189290476Y-78280952D01*
X193076285Y-78619619D02*
X193076285Y-77603619D01*
X193318190Y-77603619D01*
X193463333Y-77652000D01*
X193560095Y-77748761D01*
X193608476Y-77845523D01*
X193656857Y-78039047D01*
X193656857Y-78184190D01*
X193608476Y-78377714D01*
X193560095Y-78474476D01*
X193463333Y-78571238D01*
X193318190Y-78619619D01*
X193076285Y-78619619D01*
X194624476Y-78619619D02*
X194043904Y-78619619D01*
X194334190Y-78619619D02*
X194334190Y-77603619D01*
X194237428Y-77748761D01*
X194140666Y-77845523D01*
X194043904Y-77893904D01*
X194963142Y-77603619D02*
X195592095Y-77603619D01*
X195253428Y-77990666D01*
X195398571Y-77990666D01*
X195495333Y-78039047D01*
X195543714Y-78087428D01*
X195592095Y-78184190D01*
X195592095Y-78426095D01*
X195543714Y-78522857D01*
X195495333Y-78571238D01*
X195398571Y-78619619D01*
X195108285Y-78619619D01*
X195011523Y-78571238D01*
X194963142Y-78522857D01*
X199426285Y-78619619D02*
X199426285Y-77603619D01*
X199668190Y-77603619D01*
X199813333Y-77652000D01*
X199910095Y-77748761D01*
X199958476Y-77845523D01*
X200006857Y-78039047D01*
X200006857Y-78184190D01*
X199958476Y-78377714D01*
X199910095Y-78474476D01*
X199813333Y-78571238D01*
X199668190Y-78619619D01*
X199426285Y-78619619D01*
X200974476Y-78619619D02*
X200393904Y-78619619D01*
X200684190Y-78619619D02*
X200684190Y-77603619D01*
X200587428Y-77748761D01*
X200490666Y-77845523D01*
X200393904Y-77893904D01*
X201361523Y-77700380D02*
X201409904Y-77652000D01*
X201506666Y-77603619D01*
X201748571Y-77603619D01*
X201845333Y-77652000D01*
X201893714Y-77700380D01*
X201942095Y-77797142D01*
X201942095Y-77893904D01*
X201893714Y-78039047D01*
X201313142Y-78619619D01*
X201942095Y-78619619D01*
X205776285Y-78619619D02*
X205776285Y-77603619D01*
X206018190Y-77603619D01*
X206163333Y-77652000D01*
X206260095Y-77748761D01*
X206308476Y-77845523D01*
X206356857Y-78039047D01*
X206356857Y-78184190D01*
X206308476Y-78377714D01*
X206260095Y-78474476D01*
X206163333Y-78571238D01*
X206018190Y-78619619D01*
X205776285Y-78619619D01*
X207324476Y-78619619D02*
X206743904Y-78619619D01*
X207034190Y-78619619D02*
X207034190Y-77603619D01*
X206937428Y-77748761D01*
X206840666Y-77845523D01*
X206743904Y-77893904D01*
X208292095Y-78619619D02*
X207711523Y-78619619D01*
X208001809Y-78619619D02*
X208001809Y-77603619D01*
X207905047Y-77748761D01*
X207808285Y-77845523D01*
X207711523Y-77893904D01*
X212126285Y-78619619D02*
X212126285Y-77603619D01*
X212368190Y-77603619D01*
X212513333Y-77652000D01*
X212610095Y-77748761D01*
X212658476Y-77845523D01*
X212706857Y-78039047D01*
X212706857Y-78184190D01*
X212658476Y-78377714D01*
X212610095Y-78474476D01*
X212513333Y-78571238D01*
X212368190Y-78619619D01*
X212126285Y-78619619D01*
X213674476Y-78619619D02*
X213093904Y-78619619D01*
X213384190Y-78619619D02*
X213384190Y-77603619D01*
X213287428Y-77748761D01*
X213190666Y-77845523D01*
X213093904Y-77893904D01*
X214303428Y-77603619D02*
X214400190Y-77603619D01*
X214496952Y-77652000D01*
X214545333Y-77700380D01*
X214593714Y-77797142D01*
X214642095Y-77990666D01*
X214642095Y-78232571D01*
X214593714Y-78426095D01*
X214545333Y-78522857D01*
X214496952Y-78571238D01*
X214400190Y-78619619D01*
X214303428Y-78619619D01*
X214206666Y-78571238D01*
X214158285Y-78522857D01*
X214109904Y-78426095D01*
X214061523Y-78232571D01*
X214061523Y-77990666D01*
X214109904Y-77797142D01*
X214158285Y-77700380D01*
X214206666Y-77652000D01*
X214303428Y-77603619D01*
X218960095Y-78619619D02*
X218960095Y-77603619D01*
X219202000Y-77603619D01*
X219347142Y-77652000D01*
X219443904Y-77748761D01*
X219492285Y-77845523D01*
X219540666Y-78039047D01*
X219540666Y-78184190D01*
X219492285Y-78377714D01*
X219443904Y-78474476D01*
X219347142Y-78571238D01*
X219202000Y-78619619D01*
X218960095Y-78619619D01*
X220024476Y-78619619D02*
X220218000Y-78619619D01*
X220314761Y-78571238D01*
X220363142Y-78522857D01*
X220459904Y-78377714D01*
X220508285Y-78184190D01*
X220508285Y-77797142D01*
X220459904Y-77700380D01*
X220411523Y-77652000D01*
X220314761Y-77603619D01*
X220121238Y-77603619D01*
X220024476Y-77652000D01*
X219976095Y-77700380D01*
X219927714Y-77797142D01*
X219927714Y-78039047D01*
X219976095Y-78135809D01*
X220024476Y-78184190D01*
X220121238Y-78232571D01*
X220314761Y-78232571D01*
X220411523Y-78184190D01*
X220459904Y-78135809D01*
X220508285Y-78039047D01*
X225310095Y-78619619D02*
X225310095Y-77603619D01*
X225552000Y-77603619D01*
X225697142Y-77652000D01*
X225793904Y-77748761D01*
X225842285Y-77845523D01*
X225890666Y-78039047D01*
X225890666Y-78184190D01*
X225842285Y-78377714D01*
X225793904Y-78474476D01*
X225697142Y-78571238D01*
X225552000Y-78619619D01*
X225310095Y-78619619D01*
X226471238Y-78039047D02*
X226374476Y-77990666D01*
X226326095Y-77942285D01*
X226277714Y-77845523D01*
X226277714Y-77797142D01*
X226326095Y-77700380D01*
X226374476Y-77652000D01*
X226471238Y-77603619D01*
X226664761Y-77603619D01*
X226761523Y-77652000D01*
X226809904Y-77700380D01*
X226858285Y-77797142D01*
X226858285Y-77845523D01*
X226809904Y-77942285D01*
X226761523Y-77990666D01*
X226664761Y-78039047D01*
X226471238Y-78039047D01*
X226374476Y-78087428D01*
X226326095Y-78135809D01*
X226277714Y-78232571D01*
X226277714Y-78426095D01*
X226326095Y-78522857D01*
X226374476Y-78571238D01*
X226471238Y-78619619D01*
X226664761Y-78619619D01*
X226761523Y-78571238D01*
X226809904Y-78522857D01*
X226858285Y-78426095D01*
X226858285Y-78232571D01*
X226809904Y-78135809D01*
X226761523Y-78087428D01*
X226664761Y-78039047D01*
X231660095Y-78619619D02*
X231660095Y-77603619D01*
X231902000Y-77603619D01*
X232047142Y-77652000D01*
X232143904Y-77748761D01*
X232192285Y-77845523D01*
X232240666Y-78039047D01*
X232240666Y-78184190D01*
X232192285Y-78377714D01*
X232143904Y-78474476D01*
X232047142Y-78571238D01*
X231902000Y-78619619D01*
X231660095Y-78619619D01*
X232579333Y-77603619D02*
X233256666Y-77603619D01*
X232821238Y-78619619D01*
X238010095Y-78619619D02*
X238010095Y-77603619D01*
X238252000Y-77603619D01*
X238397142Y-77652000D01*
X238493904Y-77748761D01*
X238542285Y-77845523D01*
X238590666Y-78039047D01*
X238590666Y-78184190D01*
X238542285Y-78377714D01*
X238493904Y-78474476D01*
X238397142Y-78571238D01*
X238252000Y-78619619D01*
X238010095Y-78619619D01*
X239461523Y-77603619D02*
X239268000Y-77603619D01*
X239171238Y-77652000D01*
X239122857Y-77700380D01*
X239026095Y-77845523D01*
X238977714Y-78039047D01*
X238977714Y-78426095D01*
X239026095Y-78522857D01*
X239074476Y-78571238D01*
X239171238Y-78619619D01*
X239364761Y-78619619D01*
X239461523Y-78571238D01*
X239509904Y-78522857D01*
X239558285Y-78426095D01*
X239558285Y-78184190D01*
X239509904Y-78087428D01*
X239461523Y-78039047D01*
X239364761Y-77990666D01*
X239171238Y-77990666D01*
X239074476Y-78039047D01*
X239026095Y-78087428D01*
X238977714Y-78184190D01*
X244360095Y-78619619D02*
X244360095Y-77603619D01*
X244602000Y-77603619D01*
X244747142Y-77652000D01*
X244843904Y-77748761D01*
X244892285Y-77845523D01*
X244940666Y-78039047D01*
X244940666Y-78184190D01*
X244892285Y-78377714D01*
X244843904Y-78474476D01*
X244747142Y-78571238D01*
X244602000Y-78619619D01*
X244360095Y-78619619D01*
X245859904Y-77603619D02*
X245376095Y-77603619D01*
X245327714Y-78087428D01*
X245376095Y-78039047D01*
X245472857Y-77990666D01*
X245714761Y-77990666D01*
X245811523Y-78039047D01*
X245859904Y-78087428D01*
X245908285Y-78184190D01*
X245908285Y-78426095D01*
X245859904Y-78522857D01*
X245811523Y-78571238D01*
X245714761Y-78619619D01*
X245472857Y-78619619D01*
X245376095Y-78571238D01*
X245327714Y-78522857D01*
X250710095Y-78619619D02*
X250710095Y-77603619D01*
X250952000Y-77603619D01*
X251097142Y-77652000D01*
X251193904Y-77748761D01*
X251242285Y-77845523D01*
X251290666Y-78039047D01*
X251290666Y-78184190D01*
X251242285Y-78377714D01*
X251193904Y-78474476D01*
X251097142Y-78571238D01*
X250952000Y-78619619D01*
X250710095Y-78619619D01*
X252161523Y-77942285D02*
X252161523Y-78619619D01*
X251919619Y-77555238D02*
X251677714Y-78280952D01*
X252306666Y-78280952D01*
X257060095Y-78619619D02*
X257060095Y-77603619D01*
X257302000Y-77603619D01*
X257447142Y-77652000D01*
X257543904Y-77748761D01*
X257592285Y-77845523D01*
X257640666Y-78039047D01*
X257640666Y-78184190D01*
X257592285Y-78377714D01*
X257543904Y-78474476D01*
X257447142Y-78571238D01*
X257302000Y-78619619D01*
X257060095Y-78619619D01*
X257979333Y-77603619D02*
X258608285Y-77603619D01*
X258269619Y-77990666D01*
X258414761Y-77990666D01*
X258511523Y-78039047D01*
X258559904Y-78087428D01*
X258608285Y-78184190D01*
X258608285Y-78426095D01*
X258559904Y-78522857D01*
X258511523Y-78571238D01*
X258414761Y-78619619D01*
X258124476Y-78619619D01*
X258027714Y-78571238D01*
X257979333Y-78522857D01*
X263410095Y-78619619D02*
X263410095Y-77603619D01*
X263652000Y-77603619D01*
X263797142Y-77652000D01*
X263893904Y-77748761D01*
X263942285Y-77845523D01*
X263990666Y-78039047D01*
X263990666Y-78184190D01*
X263942285Y-78377714D01*
X263893904Y-78474476D01*
X263797142Y-78571238D01*
X263652000Y-78619619D01*
X263410095Y-78619619D01*
X264377714Y-77700380D02*
X264426095Y-77652000D01*
X264522857Y-77603619D01*
X264764761Y-77603619D01*
X264861523Y-77652000D01*
X264909904Y-77700380D01*
X264958285Y-77797142D01*
X264958285Y-77893904D01*
X264909904Y-78039047D01*
X264329333Y-78619619D01*
X264958285Y-78619619D01*
X269760095Y-78619619D02*
X269760095Y-77603619D01*
X270002000Y-77603619D01*
X270147142Y-77652000D01*
X270243904Y-77748761D01*
X270292285Y-77845523D01*
X270340666Y-78039047D01*
X270340666Y-78184190D01*
X270292285Y-78377714D01*
X270243904Y-78474476D01*
X270147142Y-78571238D01*
X270002000Y-78619619D01*
X269760095Y-78619619D01*
X271308285Y-78619619D02*
X270727714Y-78619619D01*
X271018000Y-78619619D02*
X271018000Y-77603619D01*
X270921238Y-77748761D01*
X270824476Y-77845523D01*
X270727714Y-77893904D01*
X75853619Y-86347904D02*
X76676095Y-86347904D01*
X76772857Y-86299523D01*
X76821238Y-86251142D01*
X76869619Y-86154380D01*
X76869619Y-85960857D01*
X76821238Y-85864095D01*
X76772857Y-85815714D01*
X76676095Y-85767333D01*
X75853619Y-85767333D01*
X76869619Y-84751333D02*
X76869619Y-85331904D01*
X76869619Y-85041619D02*
X75853619Y-85041619D01*
X75998761Y-85138380D01*
X76095523Y-85235142D01*
X76143904Y-85331904D01*
X76869619Y-83783714D02*
X76869619Y-84364285D01*
X76869619Y-84074000D02*
X75853619Y-84074000D01*
X75998761Y-84170761D01*
X76095523Y-84267523D01*
X76143904Y-84364285D01*
X98293619Y-88791142D02*
X98293619Y-88113809D01*
X99309619Y-88549238D01*
X98632285Y-87291333D02*
X99309619Y-87291333D01*
X98245238Y-87533238D02*
X98970952Y-87775142D01*
X98970952Y-87146190D01*
X99309619Y-86759142D02*
X98293619Y-86759142D01*
X98777428Y-86759142D02*
X98777428Y-86178571D01*
X99309619Y-86178571D02*
X98293619Y-86178571D01*
X99212857Y-85114190D02*
X99261238Y-85162571D01*
X99309619Y-85307714D01*
X99309619Y-85404476D01*
X99261238Y-85549619D01*
X99164476Y-85646380D01*
X99067714Y-85694761D01*
X98874190Y-85743142D01*
X98729047Y-85743142D01*
X98535523Y-85694761D01*
X98438761Y-85646380D01*
X98342000Y-85549619D01*
X98293619Y-85404476D01*
X98293619Y-85307714D01*
X98342000Y-85162571D01*
X98390380Y-85114190D01*
X98293619Y-84823904D02*
X98293619Y-84243333D01*
X99309619Y-84533619D02*
X98293619Y-84533619D01*
X99309619Y-83372476D02*
X99309619Y-83953047D01*
X99309619Y-83662761D02*
X98293619Y-83662761D01*
X98438761Y-83759523D01*
X98535523Y-83856285D01*
X98583904Y-83953047D01*
X98293619Y-82453238D02*
X98293619Y-82937047D01*
X98777428Y-82985428D01*
X98729047Y-82937047D01*
X98680666Y-82840285D01*
X98680666Y-82598380D01*
X98729047Y-82501619D01*
X98777428Y-82453238D01*
X98874190Y-82404857D01*
X99116095Y-82404857D01*
X99212857Y-82453238D01*
X99261238Y-82501619D01*
X99309619Y-82598380D01*
X99309619Y-82840285D01*
X99261238Y-82937047D01*
X99212857Y-82985428D01*
X98293619Y-82066190D02*
X98293619Y-81388857D01*
X99309619Y-81824285D01*
X75853619Y-121907904D02*
X76676095Y-121907904D01*
X76772857Y-121859523D01*
X76821238Y-121811142D01*
X76869619Y-121714380D01*
X76869619Y-121520857D01*
X76821238Y-121424095D01*
X76772857Y-121375714D01*
X76676095Y-121327333D01*
X75853619Y-121327333D01*
X76869619Y-120311333D02*
X76869619Y-120891904D01*
X76869619Y-120601619D02*
X75853619Y-120601619D01*
X75998761Y-120698380D01*
X76095523Y-120795142D01*
X76143904Y-120891904D01*
X75853619Y-119682380D02*
X75853619Y-119585619D01*
X75902000Y-119488857D01*
X75950380Y-119440476D01*
X76047142Y-119392095D01*
X76240666Y-119343714D01*
X76482571Y-119343714D01*
X76676095Y-119392095D01*
X76772857Y-119440476D01*
X76821238Y-119488857D01*
X76869619Y-119585619D01*
X76869619Y-119682380D01*
X76821238Y-119779142D01*
X76772857Y-119827523D01*
X76676095Y-119875904D01*
X76482571Y-119924285D01*
X76240666Y-119924285D01*
X76047142Y-119875904D01*
X75950380Y-119827523D01*
X75902000Y-119779142D01*
X75853619Y-119682380D01*
X98293619Y-124351142D02*
X98293619Y-123673809D01*
X99309619Y-124109238D01*
X98632285Y-122851333D02*
X99309619Y-122851333D01*
X98245238Y-123093238D02*
X98970952Y-123335142D01*
X98970952Y-122706190D01*
X99309619Y-122319142D02*
X98293619Y-122319142D01*
X98777428Y-122319142D02*
X98777428Y-121738571D01*
X99309619Y-121738571D02*
X98293619Y-121738571D01*
X99212857Y-120674190D02*
X99261238Y-120722571D01*
X99309619Y-120867714D01*
X99309619Y-120964476D01*
X99261238Y-121109619D01*
X99164476Y-121206380D01*
X99067714Y-121254761D01*
X98874190Y-121303142D01*
X98729047Y-121303142D01*
X98535523Y-121254761D01*
X98438761Y-121206380D01*
X98342000Y-121109619D01*
X98293619Y-120964476D01*
X98293619Y-120867714D01*
X98342000Y-120722571D01*
X98390380Y-120674190D01*
X98293619Y-120383904D02*
X98293619Y-119803333D01*
X99309619Y-120093619D02*
X98293619Y-120093619D01*
X99309619Y-118932476D02*
X99309619Y-119513047D01*
X99309619Y-119222761D02*
X98293619Y-119222761D01*
X98438761Y-119319523D01*
X98535523Y-119416285D01*
X98583904Y-119513047D01*
X98293619Y-118013238D02*
X98293619Y-118497047D01*
X98777428Y-118545428D01*
X98729047Y-118497047D01*
X98680666Y-118400285D01*
X98680666Y-118158380D01*
X98729047Y-118061619D01*
X98777428Y-118013238D01*
X98874190Y-117964857D01*
X99116095Y-117964857D01*
X99212857Y-118013238D01*
X99261238Y-118061619D01*
X99309619Y-118158380D01*
X99309619Y-118400285D01*
X99261238Y-118497047D01*
X99212857Y-118545428D01*
X98293619Y-117626190D02*
X98293619Y-116948857D01*
X99309619Y-117384285D01*
X75853619Y-103644095D02*
X76676095Y-103644095D01*
X76772857Y-103595714D01*
X76821238Y-103547333D01*
X76869619Y-103450571D01*
X76869619Y-103257047D01*
X76821238Y-103160285D01*
X76772857Y-103111904D01*
X76676095Y-103063523D01*
X75853619Y-103063523D01*
X76869619Y-102531333D02*
X76869619Y-102337809D01*
X76821238Y-102241047D01*
X76772857Y-102192666D01*
X76627714Y-102095904D01*
X76434190Y-102047523D01*
X76047142Y-102047523D01*
X75950380Y-102095904D01*
X75902000Y-102144285D01*
X75853619Y-102241047D01*
X75853619Y-102434571D01*
X75902000Y-102531333D01*
X75950380Y-102579714D01*
X76047142Y-102628095D01*
X76289047Y-102628095D01*
X76385809Y-102579714D01*
X76434190Y-102531333D01*
X76482571Y-102434571D01*
X76482571Y-102241047D01*
X76434190Y-102144285D01*
X76385809Y-102095904D01*
X76289047Y-102047523D01*
X98293619Y-106571142D02*
X98293619Y-105893809D01*
X99309619Y-106329238D01*
X98632285Y-105071333D02*
X99309619Y-105071333D01*
X98245238Y-105313238D02*
X98970952Y-105555142D01*
X98970952Y-104926190D01*
X99309619Y-104539142D02*
X98293619Y-104539142D01*
X98777428Y-104539142D02*
X98777428Y-103958571D01*
X99309619Y-103958571D02*
X98293619Y-103958571D01*
X99212857Y-102894190D02*
X99261238Y-102942571D01*
X99309619Y-103087714D01*
X99309619Y-103184476D01*
X99261238Y-103329619D01*
X99164476Y-103426380D01*
X99067714Y-103474761D01*
X98874190Y-103523142D01*
X98729047Y-103523142D01*
X98535523Y-103474761D01*
X98438761Y-103426380D01*
X98342000Y-103329619D01*
X98293619Y-103184476D01*
X98293619Y-103087714D01*
X98342000Y-102942571D01*
X98390380Y-102894190D01*
X98293619Y-102603904D02*
X98293619Y-102023333D01*
X99309619Y-102313619D02*
X98293619Y-102313619D01*
X99309619Y-101152476D02*
X99309619Y-101733047D01*
X99309619Y-101442761D02*
X98293619Y-101442761D01*
X98438761Y-101539523D01*
X98535523Y-101636285D01*
X98583904Y-101733047D01*
X98293619Y-100233238D02*
X98293619Y-100717047D01*
X98777428Y-100765428D01*
X98729047Y-100717047D01*
X98680666Y-100620285D01*
X98680666Y-100378380D01*
X98729047Y-100281619D01*
X98777428Y-100233238D01*
X98874190Y-100184857D01*
X99116095Y-100184857D01*
X99212857Y-100233238D01*
X99261238Y-100281619D01*
X99309619Y-100378380D01*
X99309619Y-100620285D01*
X99261238Y-100717047D01*
X99212857Y-100765428D01*
X98293619Y-99846190D02*
X98293619Y-99168857D01*
X99309619Y-99604285D01*
X75853619Y-139204095D02*
X76676095Y-139204095D01*
X76772857Y-139155714D01*
X76821238Y-139107333D01*
X76869619Y-139010571D01*
X76869619Y-138817047D01*
X76821238Y-138720285D01*
X76772857Y-138671904D01*
X76676095Y-138623523D01*
X75853619Y-138623523D01*
X76289047Y-137994571D02*
X76240666Y-138091333D01*
X76192285Y-138139714D01*
X76095523Y-138188095D01*
X76047142Y-138188095D01*
X75950380Y-138139714D01*
X75902000Y-138091333D01*
X75853619Y-137994571D01*
X75853619Y-137801047D01*
X75902000Y-137704285D01*
X75950380Y-137655904D01*
X76047142Y-137607523D01*
X76095523Y-137607523D01*
X76192285Y-137655904D01*
X76240666Y-137704285D01*
X76289047Y-137801047D01*
X76289047Y-137994571D01*
X76337428Y-138091333D01*
X76385809Y-138139714D01*
X76482571Y-138188095D01*
X76676095Y-138188095D01*
X76772857Y-138139714D01*
X76821238Y-138091333D01*
X76869619Y-137994571D01*
X76869619Y-137801047D01*
X76821238Y-137704285D01*
X76772857Y-137655904D01*
X76676095Y-137607523D01*
X76482571Y-137607523D01*
X76385809Y-137655904D01*
X76337428Y-137704285D01*
X76289047Y-137801047D01*
X98293619Y-142131142D02*
X98293619Y-141453809D01*
X99309619Y-141889238D01*
X98632285Y-140631333D02*
X99309619Y-140631333D01*
X98245238Y-140873238D02*
X98970952Y-141115142D01*
X98970952Y-140486190D01*
X99309619Y-140099142D02*
X98293619Y-140099142D01*
X98777428Y-140099142D02*
X98777428Y-139518571D01*
X99309619Y-139518571D02*
X98293619Y-139518571D01*
X99212857Y-138454190D02*
X99261238Y-138502571D01*
X99309619Y-138647714D01*
X99309619Y-138744476D01*
X99261238Y-138889619D01*
X99164476Y-138986380D01*
X99067714Y-139034761D01*
X98874190Y-139083142D01*
X98729047Y-139083142D01*
X98535523Y-139034761D01*
X98438761Y-138986380D01*
X98342000Y-138889619D01*
X98293619Y-138744476D01*
X98293619Y-138647714D01*
X98342000Y-138502571D01*
X98390380Y-138454190D01*
X98293619Y-138163904D02*
X98293619Y-137583333D01*
X99309619Y-137873619D02*
X98293619Y-137873619D01*
X99309619Y-136712476D02*
X99309619Y-137293047D01*
X99309619Y-137002761D02*
X98293619Y-137002761D01*
X98438761Y-137099523D01*
X98535523Y-137196285D01*
X98583904Y-137293047D01*
X98293619Y-135793238D02*
X98293619Y-136277047D01*
X98777428Y-136325428D01*
X98729047Y-136277047D01*
X98680666Y-136180285D01*
X98680666Y-135938380D01*
X98729047Y-135841619D01*
X98777428Y-135793238D01*
X98874190Y-135744857D01*
X99116095Y-135744857D01*
X99212857Y-135793238D01*
X99261238Y-135841619D01*
X99309619Y-135938380D01*
X99309619Y-136180285D01*
X99261238Y-136277047D01*
X99212857Y-136325428D01*
X98293619Y-135406190D02*
X98293619Y-134728857D01*
X99309619Y-135164285D01*
X154593619Y-130314095D02*
X155416095Y-130314095D01*
X155512857Y-130265714D01*
X155561238Y-130217333D01*
X155609619Y-130120571D01*
X155609619Y-129927047D01*
X155561238Y-129830285D01*
X155512857Y-129781904D01*
X155416095Y-129733523D01*
X154593619Y-129733523D01*
X154593619Y-128765904D02*
X154593619Y-129249714D01*
X155077428Y-129298095D01*
X155029047Y-129249714D01*
X154980666Y-129152952D01*
X154980666Y-128911047D01*
X155029047Y-128814285D01*
X155077428Y-128765904D01*
X155174190Y-128717523D01*
X155416095Y-128717523D01*
X155512857Y-128765904D01*
X155561238Y-128814285D01*
X155609619Y-128911047D01*
X155609619Y-129152952D01*
X155561238Y-129249714D01*
X155512857Y-129298095D01*
X187193619Y-132708952D02*
X187193619Y-132031619D01*
X188209619Y-132467047D01*
X187532285Y-131209142D02*
X188209619Y-131209142D01*
X187145238Y-131451047D02*
X187870952Y-131692952D01*
X187870952Y-131064000D01*
X188209619Y-130193142D02*
X188209619Y-130676952D01*
X187193619Y-130676952D01*
X188161238Y-129902857D02*
X188209619Y-129757714D01*
X188209619Y-129515809D01*
X188161238Y-129419047D01*
X188112857Y-129370666D01*
X188016095Y-129322285D01*
X187919333Y-129322285D01*
X187822571Y-129370666D01*
X187774190Y-129419047D01*
X187725809Y-129515809D01*
X187677428Y-129709333D01*
X187629047Y-129806095D01*
X187580666Y-129854476D01*
X187483904Y-129902857D01*
X187387142Y-129902857D01*
X187290380Y-129854476D01*
X187242000Y-129806095D01*
X187193619Y-129709333D01*
X187193619Y-129467428D01*
X187242000Y-129322285D01*
X188209619Y-128354666D02*
X188209619Y-128935238D01*
X188209619Y-128644952D02*
X187193619Y-128644952D01*
X187338761Y-128741714D01*
X187435523Y-128838476D01*
X187483904Y-128935238D01*
X187629047Y-127774095D02*
X187580666Y-127870857D01*
X187532285Y-127919238D01*
X187435523Y-127967619D01*
X187387142Y-127967619D01*
X187290380Y-127919238D01*
X187242000Y-127870857D01*
X187193619Y-127774095D01*
X187193619Y-127580571D01*
X187242000Y-127483809D01*
X187290380Y-127435428D01*
X187387142Y-127387047D01*
X187435523Y-127387047D01*
X187532285Y-127435428D01*
X187580666Y-127483809D01*
X187629047Y-127580571D01*
X187629047Y-127774095D01*
X187677428Y-127870857D01*
X187725809Y-127919238D01*
X187822571Y-127967619D01*
X188016095Y-127967619D01*
X188112857Y-127919238D01*
X188161238Y-127870857D01*
X188209619Y-127774095D01*
X188209619Y-127580571D01*
X188161238Y-127483809D01*
X188112857Y-127435428D01*
X188016095Y-127387047D01*
X187822571Y-127387047D01*
X187725809Y-127435428D01*
X187677428Y-127483809D01*
X187629047Y-127580571D01*
X188209619Y-126419428D02*
X188209619Y-127000000D01*
X188209619Y-126709714D02*
X187193619Y-126709714D01*
X187338761Y-126806476D01*
X187435523Y-126903238D01*
X187483904Y-127000000D01*
X197773619Y-130314095D02*
X198596095Y-130314095D01*
X198692857Y-130265714D01*
X198741238Y-130217333D01*
X198789619Y-130120571D01*
X198789619Y-129927047D01*
X198741238Y-129830285D01*
X198692857Y-129781904D01*
X198596095Y-129733523D01*
X197773619Y-129733523D01*
X197773619Y-129346476D02*
X197773619Y-128717523D01*
X198160666Y-129056190D01*
X198160666Y-128911047D01*
X198209047Y-128814285D01*
X198257428Y-128765904D01*
X198354190Y-128717523D01*
X198596095Y-128717523D01*
X198692857Y-128765904D01*
X198741238Y-128814285D01*
X198789619Y-128911047D01*
X198789619Y-129201333D01*
X198741238Y-129298095D01*
X198692857Y-129346476D01*
X230373619Y-132708952D02*
X230373619Y-132031619D01*
X231389619Y-132467047D01*
X230712285Y-131209142D02*
X231389619Y-131209142D01*
X230325238Y-131451047D02*
X231050952Y-131692952D01*
X231050952Y-131064000D01*
X231389619Y-130193142D02*
X231389619Y-130676952D01*
X230373619Y-130676952D01*
X231341238Y-129902857D02*
X231389619Y-129757714D01*
X231389619Y-129515809D01*
X231341238Y-129419047D01*
X231292857Y-129370666D01*
X231196095Y-129322285D01*
X231099333Y-129322285D01*
X231002571Y-129370666D01*
X230954190Y-129419047D01*
X230905809Y-129515809D01*
X230857428Y-129709333D01*
X230809047Y-129806095D01*
X230760666Y-129854476D01*
X230663904Y-129902857D01*
X230567142Y-129902857D01*
X230470380Y-129854476D01*
X230422000Y-129806095D01*
X230373619Y-129709333D01*
X230373619Y-129467428D01*
X230422000Y-129322285D01*
X231389619Y-128354666D02*
X231389619Y-128935238D01*
X231389619Y-128644952D02*
X230373619Y-128644952D01*
X230518761Y-128741714D01*
X230615523Y-128838476D01*
X230663904Y-128935238D01*
X230809047Y-127774095D02*
X230760666Y-127870857D01*
X230712285Y-127919238D01*
X230615523Y-127967619D01*
X230567142Y-127967619D01*
X230470380Y-127919238D01*
X230422000Y-127870857D01*
X230373619Y-127774095D01*
X230373619Y-127580571D01*
X230422000Y-127483809D01*
X230470380Y-127435428D01*
X230567142Y-127387047D01*
X230615523Y-127387047D01*
X230712285Y-127435428D01*
X230760666Y-127483809D01*
X230809047Y-127580571D01*
X230809047Y-127774095D01*
X230857428Y-127870857D01*
X230905809Y-127919238D01*
X231002571Y-127967619D01*
X231196095Y-127967619D01*
X231292857Y-127919238D01*
X231341238Y-127870857D01*
X231389619Y-127774095D01*
X231389619Y-127580571D01*
X231341238Y-127483809D01*
X231292857Y-127435428D01*
X231196095Y-127387047D01*
X231002571Y-127387047D01*
X230905809Y-127435428D01*
X230857428Y-127483809D01*
X230809047Y-127580571D01*
X231389619Y-126419428D02*
X231389619Y-127000000D01*
X231389619Y-126709714D02*
X230373619Y-126709714D01*
X230518761Y-126806476D01*
X230615523Y-126903238D01*
X230663904Y-127000000D01*
X240953619Y-130314095D02*
X241776095Y-130314095D01*
X241872857Y-130265714D01*
X241921238Y-130217333D01*
X241969619Y-130120571D01*
X241969619Y-129927047D01*
X241921238Y-129830285D01*
X241872857Y-129781904D01*
X241776095Y-129733523D01*
X240953619Y-129733523D01*
X241050380Y-129298095D02*
X241002000Y-129249714D01*
X240953619Y-129152952D01*
X240953619Y-128911047D01*
X241002000Y-128814285D01*
X241050380Y-128765904D01*
X241147142Y-128717523D01*
X241243904Y-128717523D01*
X241389047Y-128765904D01*
X241969619Y-129346476D01*
X241969619Y-128717523D01*
X240743619Y-138042952D02*
X240743619Y-137365619D01*
X241759619Y-137801047D01*
X241082285Y-136543142D02*
X241759619Y-136543142D01*
X240695238Y-136785047D02*
X241420952Y-137026952D01*
X241420952Y-136398000D01*
X241759619Y-135527142D02*
X241759619Y-136010952D01*
X240743619Y-136010952D01*
X241711238Y-135236857D02*
X241759619Y-135091714D01*
X241759619Y-134849809D01*
X241711238Y-134753047D01*
X241662857Y-134704666D01*
X241566095Y-134656285D01*
X241469333Y-134656285D01*
X241372571Y-134704666D01*
X241324190Y-134753047D01*
X241275809Y-134849809D01*
X241227428Y-135043333D01*
X241179047Y-135140095D01*
X241130666Y-135188476D01*
X241033904Y-135236857D01*
X240937142Y-135236857D01*
X240840380Y-135188476D01*
X240792000Y-135140095D01*
X240743619Y-135043333D01*
X240743619Y-134801428D01*
X240792000Y-134656285D01*
X241759619Y-133688666D02*
X241759619Y-134269238D01*
X241759619Y-133978952D02*
X240743619Y-133978952D01*
X240888761Y-134075714D01*
X240985523Y-134172476D01*
X241033904Y-134269238D01*
X241179047Y-133108095D02*
X241130666Y-133204857D01*
X241082285Y-133253238D01*
X240985523Y-133301619D01*
X240937142Y-133301619D01*
X240840380Y-133253238D01*
X240792000Y-133204857D01*
X240743619Y-133108095D01*
X240743619Y-132914571D01*
X240792000Y-132817809D01*
X240840380Y-132769428D01*
X240937142Y-132721047D01*
X240985523Y-132721047D01*
X241082285Y-132769428D01*
X241130666Y-132817809D01*
X241179047Y-132914571D01*
X241179047Y-133108095D01*
X241227428Y-133204857D01*
X241275809Y-133253238D01*
X241372571Y-133301619D01*
X241566095Y-133301619D01*
X241662857Y-133253238D01*
X241711238Y-133204857D01*
X241759619Y-133108095D01*
X241759619Y-132914571D01*
X241711238Y-132817809D01*
X241662857Y-132769428D01*
X241566095Y-132721047D01*
X241372571Y-132721047D01*
X241275809Y-132769428D01*
X241227428Y-132817809D01*
X241179047Y-132914571D01*
X241759619Y-131753428D02*
X241759619Y-132334000D01*
X241759619Y-132043714D02*
X240743619Y-132043714D01*
X240888761Y-132140476D01*
X240985523Y-132237238D01*
X241033904Y-132334000D01*
X249488476Y-81879619D02*
X249149809Y-81395809D01*
X248907904Y-81879619D02*
X248907904Y-80863619D01*
X249294952Y-80863619D01*
X249391714Y-80912000D01*
X249440095Y-80960380D01*
X249488476Y-81057142D01*
X249488476Y-81202285D01*
X249440095Y-81299047D01*
X249391714Y-81347428D01*
X249294952Y-81395809D01*
X248907904Y-81395809D01*
X249923904Y-81879619D02*
X249923904Y-80863619D01*
X250504476Y-81879619D01*
X250504476Y-80863619D01*
X250939904Y-80960380D02*
X250988285Y-80912000D01*
X251085047Y-80863619D01*
X251326952Y-80863619D01*
X251423714Y-80912000D01*
X251472095Y-80960380D01*
X251520476Y-81057142D01*
X251520476Y-81153904D01*
X251472095Y-81299047D01*
X250891523Y-81879619D01*
X251520476Y-81879619D01*
X198688476Y-81879619D02*
X198349809Y-81395809D01*
X198107904Y-81879619D02*
X198107904Y-80863619D01*
X198494952Y-80863619D01*
X198591714Y-80912000D01*
X198640095Y-80960380D01*
X198688476Y-81057142D01*
X198688476Y-81202285D01*
X198640095Y-81299047D01*
X198591714Y-81347428D01*
X198494952Y-81395809D01*
X198107904Y-81395809D01*
X199123904Y-81879619D02*
X199123904Y-80863619D01*
X199704476Y-81879619D01*
X199704476Y-80863619D01*
X200720476Y-81879619D02*
X200139904Y-81879619D01*
X200430190Y-81879619D02*
X200430190Y-80863619D01*
X200333428Y-81008761D01*
X200236666Y-81105523D01*
X200139904Y-81153904D01*
X116670666Y-84109619D02*
X116332000Y-83625809D01*
X116090095Y-84109619D02*
X116090095Y-83093619D01*
X116477142Y-83093619D01*
X116573904Y-83142000D01*
X116622285Y-83190380D01*
X116670666Y-83287142D01*
X116670666Y-83432285D01*
X116622285Y-83529047D01*
X116573904Y-83577428D01*
X116477142Y-83625809D01*
X116090095Y-83625809D01*
X117638285Y-84109619D02*
X117057714Y-84109619D01*
X117348000Y-84109619D02*
X117348000Y-83093619D01*
X117251238Y-83238761D01*
X117154476Y-83335523D01*
X117057714Y-83383904D01*
X171123619Y-69618666D02*
X171849333Y-69618666D01*
X171994476Y-69667047D01*
X172091238Y-69763809D01*
X172139619Y-69908952D01*
X172139619Y-70005714D01*
X171220380Y-69183238D02*
X171172000Y-69134857D01*
X171123619Y-69038095D01*
X171123619Y-68796190D01*
X171172000Y-68699428D01*
X171220380Y-68651047D01*
X171317142Y-68602666D01*
X171413904Y-68602666D01*
X171559047Y-68651047D01*
X172139619Y-69231619D01*
X172139619Y-68602666D01*
X95866857Y-78086857D02*
X95818476Y-78135238D01*
X95673333Y-78183619D01*
X95576571Y-78183619D01*
X95431428Y-78135238D01*
X95334666Y-78038476D01*
X95286285Y-77941714D01*
X95237904Y-77748190D01*
X95237904Y-77603047D01*
X95286285Y-77409523D01*
X95334666Y-77312761D01*
X95431428Y-77216000D01*
X95576571Y-77167619D01*
X95673333Y-77167619D01*
X95818476Y-77216000D01*
X95866857Y-77264380D01*
X96834476Y-78183619D02*
X96253904Y-78183619D01*
X96544190Y-78183619D02*
X96544190Y-77167619D01*
X96447428Y-77312761D01*
X96350666Y-77409523D01*
X96253904Y-77457904D01*
X97802095Y-78183619D02*
X97221523Y-78183619D01*
X97511809Y-78183619D02*
X97511809Y-77167619D01*
X97415047Y-77312761D01*
X97318285Y-77409523D01*
X97221523Y-77457904D01*
X75292857Y-112122857D02*
X75244476Y-112171238D01*
X75099333Y-112219619D01*
X75002571Y-112219619D01*
X74857428Y-112171238D01*
X74760666Y-112074476D01*
X74712285Y-111977714D01*
X74663904Y-111784190D01*
X74663904Y-111639047D01*
X74712285Y-111445523D01*
X74760666Y-111348761D01*
X74857428Y-111252000D01*
X75002571Y-111203619D01*
X75099333Y-111203619D01*
X75244476Y-111252000D01*
X75292857Y-111300380D01*
X76260476Y-112219619D02*
X75679904Y-112219619D01*
X75970190Y-112219619D02*
X75970190Y-111203619D01*
X75873428Y-111348761D01*
X75776666Y-111445523D01*
X75679904Y-111493904D01*
X76889428Y-111203619D02*
X76986190Y-111203619D01*
X77082952Y-111252000D01*
X77131333Y-111300380D01*
X77179714Y-111397142D01*
X77228095Y-111590666D01*
X77228095Y-111832571D01*
X77179714Y-112026095D01*
X77131333Y-112122857D01*
X77082952Y-112171238D01*
X76986190Y-112219619D01*
X76889428Y-112219619D01*
X76792666Y-112171238D01*
X76744285Y-112122857D01*
X76695904Y-112026095D01*
X76647523Y-111832571D01*
X76647523Y-111590666D01*
X76695904Y-111397142D01*
X76744285Y-111300380D01*
X76792666Y-111252000D01*
X76889428Y-111203619D01*
X149730666Y-140022857D02*
X149682285Y-140071238D01*
X149537142Y-140119619D01*
X149440380Y-140119619D01*
X149295238Y-140071238D01*
X149198476Y-139974476D01*
X149150095Y-139877714D01*
X149101714Y-139684190D01*
X149101714Y-139539047D01*
X149150095Y-139345523D01*
X149198476Y-139248761D01*
X149295238Y-139152000D01*
X149440380Y-139103619D01*
X149537142Y-139103619D01*
X149682285Y-139152000D01*
X149730666Y-139200380D01*
X150214476Y-140119619D02*
X150408000Y-140119619D01*
X150504761Y-140071238D01*
X150553142Y-140022857D01*
X150649904Y-139877714D01*
X150698285Y-139684190D01*
X150698285Y-139297142D01*
X150649904Y-139200380D01*
X150601523Y-139152000D01*
X150504761Y-139103619D01*
X150311238Y-139103619D01*
X150214476Y-139152000D01*
X150166095Y-139200380D01*
X150117714Y-139297142D01*
X150117714Y-139539047D01*
X150166095Y-139635809D01*
X150214476Y-139684190D01*
X150311238Y-139732571D01*
X150504761Y-139732571D01*
X150601523Y-139684190D01*
X150649904Y-139635809D01*
X150698285Y-139539047D01*
X88476666Y-129902857D02*
X88428285Y-129951238D01*
X88283142Y-129999619D01*
X88186380Y-129999619D01*
X88041238Y-129951238D01*
X87944476Y-129854476D01*
X87896095Y-129757714D01*
X87847714Y-129564190D01*
X87847714Y-129419047D01*
X87896095Y-129225523D01*
X87944476Y-129128761D01*
X88041238Y-129032000D01*
X88186380Y-128983619D01*
X88283142Y-128983619D01*
X88428285Y-129032000D01*
X88476666Y-129080380D01*
X89057238Y-129419047D02*
X88960476Y-129370666D01*
X88912095Y-129322285D01*
X88863714Y-129225523D01*
X88863714Y-129177142D01*
X88912095Y-129080380D01*
X88960476Y-129032000D01*
X89057238Y-128983619D01*
X89250761Y-128983619D01*
X89347523Y-129032000D01*
X89395904Y-129080380D01*
X89444285Y-129177142D01*
X89444285Y-129225523D01*
X89395904Y-129322285D01*
X89347523Y-129370666D01*
X89250761Y-129419047D01*
X89057238Y-129419047D01*
X88960476Y-129467428D01*
X88912095Y-129515809D01*
X88863714Y-129612571D01*
X88863714Y-129806095D01*
X88912095Y-129902857D01*
X88960476Y-129951238D01*
X89057238Y-129999619D01*
X89250761Y-129999619D01*
X89347523Y-129951238D01*
X89395904Y-129902857D01*
X89444285Y-129806095D01*
X89444285Y-129612571D01*
X89395904Y-129515809D01*
X89347523Y-129467428D01*
X89250761Y-129419047D01*
X81070666Y-91842857D02*
X81022285Y-91891238D01*
X80877142Y-91939619D01*
X80780380Y-91939619D01*
X80635238Y-91891238D01*
X80538476Y-91794476D01*
X80490095Y-91697714D01*
X80441714Y-91504190D01*
X80441714Y-91359047D01*
X80490095Y-91165523D01*
X80538476Y-91068761D01*
X80635238Y-90972000D01*
X80780380Y-90923619D01*
X80877142Y-90923619D01*
X81022285Y-90972000D01*
X81070666Y-91020380D01*
X81409333Y-90923619D02*
X82086666Y-90923619D01*
X81651238Y-91939619D01*
X228470666Y-91762857D02*
X228422285Y-91811238D01*
X228277142Y-91859619D01*
X228180380Y-91859619D01*
X228035238Y-91811238D01*
X227938476Y-91714476D01*
X227890095Y-91617714D01*
X227841714Y-91424190D01*
X227841714Y-91279047D01*
X227890095Y-91085523D01*
X227938476Y-90988761D01*
X228035238Y-90892000D01*
X228180380Y-90843619D01*
X228277142Y-90843619D01*
X228422285Y-90892000D01*
X228470666Y-90940380D01*
X229341523Y-90843619D02*
X229148000Y-90843619D01*
X229051238Y-90892000D01*
X229002857Y-90940380D01*
X228906095Y-91085523D01*
X228857714Y-91279047D01*
X228857714Y-91666095D01*
X228906095Y-91762857D01*
X228954476Y-91811238D01*
X229051238Y-91859619D01*
X229244761Y-91859619D01*
X229341523Y-91811238D01*
X229389904Y-91762857D01*
X229438285Y-91666095D01*
X229438285Y-91424190D01*
X229389904Y-91327428D01*
X229341523Y-91279047D01*
X229244761Y-91230666D01*
X229051238Y-91230666D01*
X228954476Y-91279047D01*
X228906095Y-91327428D01*
X228857714Y-91424190D01*
X149730666Y-124782857D02*
X149682285Y-124831238D01*
X149537142Y-124879619D01*
X149440380Y-124879619D01*
X149295238Y-124831238D01*
X149198476Y-124734476D01*
X149150095Y-124637714D01*
X149101714Y-124444190D01*
X149101714Y-124299047D01*
X149150095Y-124105523D01*
X149198476Y-124008761D01*
X149295238Y-123912000D01*
X149440380Y-123863619D01*
X149537142Y-123863619D01*
X149682285Y-123912000D01*
X149730666Y-123960380D01*
X150649904Y-123863619D02*
X150166095Y-123863619D01*
X150117714Y-124347428D01*
X150166095Y-124299047D01*
X150262857Y-124250666D01*
X150504761Y-124250666D01*
X150601523Y-124299047D01*
X150649904Y-124347428D01*
X150698285Y-124444190D01*
X150698285Y-124686095D01*
X150649904Y-124782857D01*
X150601523Y-124831238D01*
X150504761Y-124879619D01*
X150262857Y-124879619D01*
X150166095Y-124831238D01*
X150117714Y-124782857D01*
X177670666Y-86722857D02*
X177622285Y-86771238D01*
X177477142Y-86819619D01*
X177380380Y-86819619D01*
X177235238Y-86771238D01*
X177138476Y-86674476D01*
X177090095Y-86577714D01*
X177041714Y-86384190D01*
X177041714Y-86239047D01*
X177090095Y-86045523D01*
X177138476Y-85948761D01*
X177235238Y-85852000D01*
X177380380Y-85803619D01*
X177477142Y-85803619D01*
X177622285Y-85852000D01*
X177670666Y-85900380D01*
X178541523Y-86142285D02*
X178541523Y-86819619D01*
X178299619Y-85755238D02*
X178057714Y-86480952D01*
X178686666Y-86480952D01*
X192830666Y-124782857D02*
X192782285Y-124831238D01*
X192637142Y-124879619D01*
X192540380Y-124879619D01*
X192395238Y-124831238D01*
X192298476Y-124734476D01*
X192250095Y-124637714D01*
X192201714Y-124444190D01*
X192201714Y-124299047D01*
X192250095Y-124105523D01*
X192298476Y-124008761D01*
X192395238Y-123912000D01*
X192540380Y-123863619D01*
X192637142Y-123863619D01*
X192782285Y-123912000D01*
X192830666Y-123960380D01*
X193169333Y-123863619D02*
X193798285Y-123863619D01*
X193459619Y-124250666D01*
X193604761Y-124250666D01*
X193701523Y-124299047D01*
X193749904Y-124347428D01*
X193798285Y-124444190D01*
X193798285Y-124686095D01*
X193749904Y-124782857D01*
X193701523Y-124831238D01*
X193604761Y-124879619D01*
X193314476Y-124879619D01*
X193217714Y-124831238D01*
X193169333Y-124782857D01*
X236090666Y-124782857D02*
X236042285Y-124831238D01*
X235897142Y-124879619D01*
X235800380Y-124879619D01*
X235655238Y-124831238D01*
X235558476Y-124734476D01*
X235510095Y-124637714D01*
X235461714Y-124444190D01*
X235461714Y-124299047D01*
X235510095Y-124105523D01*
X235558476Y-124008761D01*
X235655238Y-123912000D01*
X235800380Y-123863619D01*
X235897142Y-123863619D01*
X236042285Y-123912000D01*
X236090666Y-123960380D01*
X236477714Y-123960380D02*
X236526095Y-123912000D01*
X236622857Y-123863619D01*
X236864761Y-123863619D01*
X236961523Y-123912000D01*
X237009904Y-123960380D01*
X237058285Y-124057142D01*
X237058285Y-124153904D01*
X237009904Y-124299047D01*
X236429333Y-124879619D01*
X237058285Y-124879619D01*
X258870666Y-99462857D02*
X258822285Y-99511238D01*
X258677142Y-99559619D01*
X258580380Y-99559619D01*
X258435238Y-99511238D01*
X258338476Y-99414476D01*
X258290095Y-99317714D01*
X258241714Y-99124190D01*
X258241714Y-98979047D01*
X258290095Y-98785523D01*
X258338476Y-98688761D01*
X258435238Y-98592000D01*
X258580380Y-98543619D01*
X258677142Y-98543619D01*
X258822285Y-98592000D01*
X258870666Y-98640380D01*
X259838285Y-99559619D02*
X259257714Y-99559619D01*
X259548000Y-99559619D02*
X259548000Y-98543619D01*
X259451238Y-98688761D01*
X259354476Y-98785523D01*
X259257714Y-98833904D01*
X233333619Y-93484095D02*
X234156095Y-93484095D01*
X234252857Y-93435714D01*
X234301238Y-93387333D01*
X234349619Y-93290571D01*
X234349619Y-93097047D01*
X234301238Y-93000285D01*
X234252857Y-92951904D01*
X234156095Y-92903523D01*
X233333619Y-92903523D01*
X233333619Y-91984285D02*
X233333619Y-92177809D01*
X233382000Y-92274571D01*
X233430380Y-92322952D01*
X233575523Y-92419714D01*
X233769047Y-92468095D01*
X234156095Y-92468095D01*
X234252857Y-92419714D01*
X234301238Y-92371333D01*
X234349619Y-92274571D01*
X234349619Y-92081047D01*
X234301238Y-91984285D01*
X234252857Y-91935904D01*
X234156095Y-91887523D01*
X233914190Y-91887523D01*
X233817428Y-91935904D01*
X233769047Y-91984285D01*
X233720666Y-92081047D01*
X233720666Y-92274571D01*
X233769047Y-92371333D01*
X233817428Y-92419714D01*
X233914190Y-92468095D01*
X260853619Y-96411142D02*
X260853619Y-95733809D01*
X261869619Y-96169238D01*
X261192285Y-94911333D02*
X261869619Y-94911333D01*
X260805238Y-95153238D02*
X261530952Y-95395142D01*
X261530952Y-94766190D01*
X261869619Y-94379142D02*
X260853619Y-94379142D01*
X261337428Y-94379142D02*
X261337428Y-93798571D01*
X261869619Y-93798571D02*
X260853619Y-93798571D01*
X261772857Y-92734190D02*
X261821238Y-92782571D01*
X261869619Y-92927714D01*
X261869619Y-93024476D01*
X261821238Y-93169619D01*
X261724476Y-93266380D01*
X261627714Y-93314761D01*
X261434190Y-93363142D01*
X261289047Y-93363142D01*
X261095523Y-93314761D01*
X260998761Y-93266380D01*
X260902000Y-93169619D01*
X260853619Y-93024476D01*
X260853619Y-92927714D01*
X260902000Y-92782571D01*
X260950380Y-92734190D01*
X260853619Y-92443904D02*
X260853619Y-91863333D01*
X261869619Y-92153619D02*
X260853619Y-92153619D01*
X260950380Y-91573047D02*
X260902000Y-91524666D01*
X260853619Y-91427904D01*
X260853619Y-91186000D01*
X260902000Y-91089238D01*
X260950380Y-91040857D01*
X261047142Y-90992476D01*
X261143904Y-90992476D01*
X261289047Y-91040857D01*
X261869619Y-91621428D01*
X261869619Y-90992476D01*
X261192285Y-90121619D02*
X261869619Y-90121619D01*
X260805238Y-90363523D02*
X261530952Y-90605428D01*
X261530952Y-89976476D01*
X260853619Y-89105619D02*
X260853619Y-89589428D01*
X261337428Y-89637809D01*
X261289047Y-89589428D01*
X261240666Y-89492666D01*
X261240666Y-89250761D01*
X261289047Y-89154000D01*
X261337428Y-89105619D01*
X261434190Y-89057238D01*
X261676095Y-89057238D01*
X261772857Y-89105619D01*
X261821238Y-89154000D01*
X261869619Y-89250761D01*
X261869619Y-89492666D01*
X261821238Y-89589428D01*
X261772857Y-89637809D01*
X182533619Y-93484095D02*
X183356095Y-93484095D01*
X183452857Y-93435714D01*
X183501238Y-93387333D01*
X183549619Y-93290571D01*
X183549619Y-93097047D01*
X183501238Y-93000285D01*
X183452857Y-92951904D01*
X183356095Y-92903523D01*
X182533619Y-92903523D01*
X182872285Y-91984285D02*
X183549619Y-91984285D01*
X182485238Y-92226190D02*
X183210952Y-92468095D01*
X183210952Y-91839142D01*
X210053619Y-96411142D02*
X210053619Y-95733809D01*
X211069619Y-96169238D01*
X210392285Y-94911333D02*
X211069619Y-94911333D01*
X210005238Y-95153238D02*
X210730952Y-95395142D01*
X210730952Y-94766190D01*
X211069619Y-94379142D02*
X210053619Y-94379142D01*
X210537428Y-94379142D02*
X210537428Y-93798571D01*
X211069619Y-93798571D02*
X210053619Y-93798571D01*
X210972857Y-92734190D02*
X211021238Y-92782571D01*
X211069619Y-92927714D01*
X211069619Y-93024476D01*
X211021238Y-93169619D01*
X210924476Y-93266380D01*
X210827714Y-93314761D01*
X210634190Y-93363142D01*
X210489047Y-93363142D01*
X210295523Y-93314761D01*
X210198761Y-93266380D01*
X210102000Y-93169619D01*
X210053619Y-93024476D01*
X210053619Y-92927714D01*
X210102000Y-92782571D01*
X210150380Y-92734190D01*
X210053619Y-92443904D02*
X210053619Y-91863333D01*
X211069619Y-92153619D02*
X210053619Y-92153619D01*
X210150380Y-91573047D02*
X210102000Y-91524666D01*
X210053619Y-91427904D01*
X210053619Y-91186000D01*
X210102000Y-91089238D01*
X210150380Y-91040857D01*
X210247142Y-90992476D01*
X210343904Y-90992476D01*
X210489047Y-91040857D01*
X211069619Y-91621428D01*
X211069619Y-90992476D01*
X210392285Y-90121619D02*
X211069619Y-90121619D01*
X210005238Y-90363523D02*
X210730952Y-90605428D01*
X210730952Y-89976476D01*
X210053619Y-89105619D02*
X210053619Y-89589428D01*
X210537428Y-89637809D01*
X210489047Y-89589428D01*
X210440666Y-89492666D01*
X210440666Y-89250761D01*
X210489047Y-89154000D01*
X210537428Y-89105619D01*
X210634190Y-89057238D01*
X210876095Y-89057238D01*
X210972857Y-89105619D01*
X211021238Y-89154000D01*
X211069619Y-89250761D01*
X211069619Y-89492666D01*
X211021238Y-89589428D01*
X210972857Y-89637809D01*
X253653619Y-111264095D02*
X254476095Y-111264095D01*
X254572857Y-111215714D01*
X254621238Y-111167333D01*
X254669619Y-111070571D01*
X254669619Y-110877047D01*
X254621238Y-110780285D01*
X254572857Y-110731904D01*
X254476095Y-110683523D01*
X253653619Y-110683523D01*
X254669619Y-109667523D02*
X254669619Y-110248095D01*
X254669619Y-109957809D02*
X253653619Y-109957809D01*
X253798761Y-110054571D01*
X253895523Y-110151333D01*
X253943904Y-110248095D01*
X251919619Y-113707333D02*
X251919619Y-113030000D01*
X252935619Y-113465428D01*
X252258285Y-112207523D02*
X252935619Y-112207523D01*
X251871238Y-112449428D02*
X252596952Y-112691333D01*
X252596952Y-112062380D01*
X252935619Y-111675333D02*
X251919619Y-111675333D01*
X252403428Y-111675333D02*
X252403428Y-111094761D01*
X252935619Y-111094761D02*
X251919619Y-111094761D01*
X252838857Y-110030380D02*
X252887238Y-110078761D01*
X252935619Y-110223904D01*
X252935619Y-110320666D01*
X252887238Y-110465809D01*
X252790476Y-110562571D01*
X252693714Y-110610952D01*
X252500190Y-110659333D01*
X252355047Y-110659333D01*
X252161523Y-110610952D01*
X252064761Y-110562571D01*
X251968000Y-110465809D01*
X251919619Y-110320666D01*
X251919619Y-110223904D01*
X251968000Y-110078761D01*
X252016380Y-110030380D01*
X251919619Y-109740095D02*
X251919619Y-109159523D01*
X252935619Y-109449809D02*
X251919619Y-109449809D01*
X251919619Y-108627333D02*
X251919619Y-108530571D01*
X251968000Y-108433809D01*
X252016380Y-108385428D01*
X252113142Y-108337047D01*
X252306666Y-108288666D01*
X252548571Y-108288666D01*
X252742095Y-108337047D01*
X252838857Y-108385428D01*
X252887238Y-108433809D01*
X252935619Y-108530571D01*
X252935619Y-108627333D01*
X252887238Y-108724095D01*
X252838857Y-108772476D01*
X252742095Y-108820857D01*
X252548571Y-108869238D01*
X252306666Y-108869238D01*
X252113142Y-108820857D01*
X252016380Y-108772476D01*
X251968000Y-108724095D01*
X251919619Y-108627333D01*
X252258285Y-107417809D02*
X252935619Y-107417809D01*
X251871238Y-107659714D02*
X252596952Y-107901619D01*
X252596952Y-107272666D01*
X113973619Y-69618666D02*
X114699333Y-69618666D01*
X114844476Y-69667047D01*
X114941238Y-69763809D01*
X114989619Y-69908952D01*
X114989619Y-70005714D01*
X114989619Y-68602666D02*
X114989619Y-69183238D01*
X114989619Y-68892952D02*
X113973619Y-68892952D01*
X114118761Y-68989714D01*
X114215523Y-69086476D01*
X114263904Y-69183238D01*
M02*
