M48
; DRILL file {KiCad (7.0.0)} date Thu Mar 28 20:27:37 2024
; FORMAT={-:-/ absolute / metric / decimal}
; #@! TF.CreationDate,2024-03-28T20:27:37-07:00
; #@! TF.GenerationSoftware,Kicad,Pcbnew,(7.0.0)
; #@! TF.FileFunction,Plated,1,2,PTH
FMAT,2
METRIC
; #@! TA.AperFunction,Plated,PTH,ViaDrill
T1C0.381
; #@! TA.AperFunction,Plated,PTH,ComponentDrill
T2C0.800
; #@! TA.AperFunction,Plated,PTH,ComponentDrill
T3C0.900
; #@! TA.AperFunction,Plated,PTH,ComponentDrill
T4C1.000
%
G90
G05
T1
X54.61Y-105.41
X55.499Y-106.299
X56.388Y-103.632
X56.896Y-118.364
X58.166Y-103.632
X60.96Y-106.934
X62.484Y-140.716
X63.5Y-75.438
X66.04Y-81.534
X66.04Y-88.9
X66.04Y-118.872
X67.31Y-91.44
X67.31Y-95.758
X68.58Y-83.82
X69.85Y-73.66
X69.85Y-89.154
X69.85Y-91.44
X69.85Y-95.758
X69.85Y-102.87
X69.85Y-104.902
X71.12Y-81.28
X71.12Y-99.568
X71.12Y-104.902
X72.136Y-73.66
X73.66Y-104.902
X74.676Y-73.66
X77.47Y-83.058
X77.47Y-90.17
X78.232Y-119.126
X78.232Y-121.666
X78.74Y-96.774
X79.502Y-119.126
X79.502Y-121.666
X80.772Y-119.126
X80.772Y-121.666
X81.28Y-83.058
X81.28Y-100.838
X81.534Y-73.66
X81.788Y-141.224
X84.328Y-96.774
X84.582Y-100.838
X84.836Y-90.17
X86.868Y-136.398
X88.9Y-134.366
X93.98Y-91.948
X93.98Y-119.38
X95.25Y-125.984
X96.52Y-69.342
X96.52Y-121.666
X97.79Y-119.38
X99.06Y-72.644
X99.06Y-121.666
X101.6Y-90.424
X101.6Y-105.918
X102.87Y-88.392
X102.87Y-103.124
X106.68Y-88.392
X106.68Y-91.694
X106.68Y-121.158
X107.95Y-103.124
X109.22Y-121.92
X110.998Y-125.984
X110.998Y-127.508
X110.998Y-129.032
X110.998Y-130.556
X111.76Y-125.222
X111.76Y-126.746
X111.76Y-128.27
X111.76Y-129.794
X112.268Y-80.264
X112.268Y-81.788
X112.268Y-83.312
X113.03Y-81.026
X113.03Y-82.55
X113.03Y-84.074
X113.792Y-114.554
X114.554Y-113.792
X115.316Y-113.03
X116.078Y-112.268
X116.84Y-111.506
X117.602Y-110.744
X118.364Y-109.982
X119.126Y-95.504
X119.126Y-97.028
X119.126Y-98.552
X119.126Y-100.076
X119.888Y-94.742
X119.888Y-96.266
X119.888Y-97.79
X119.888Y-99.314
X121.158Y-132.842
X123.698Y-132.842
X124.46Y-120.396
X124.46Y-121.92
X124.46Y-123.444
X124.46Y-124.968
X125.222Y-121.158
X125.222Y-122.682
X125.222Y-124.206
X125.222Y-125.73
X126.238Y-132.842
X126.746Y-67.818
X126.746Y-69.342
X126.746Y-74.93
X126.746Y-76.454
X128.778Y-132.842
X131.318Y-132.842
X133.858Y-132.842
X134.62Y-119.38
X136.398Y-132.842
X137.16Y-119.38
X138.938Y-132.842
X139.7Y-97.79
X139.7Y-119.38
X140.97Y-59.436
X140.97Y-66.548
X141.478Y-132.842
X142.24Y-98.552
X142.24Y-119.38
X143.002Y-146.558
X143.51Y-59.436
X143.51Y-65.024
X143.51Y-75.946
X143.51Y-82.55
X144.018Y-132.842
X144.78Y-119.38
X146.304Y-143.256
X146.558Y-132.842
X147.32Y-119.38
X149.098Y-132.842
X149.86Y-74.168
X149.86Y-119.38
X151.384Y-59.436
X151.384Y-61.468
X151.638Y-132.842
X152.4Y-119.38
X152.654Y-75.184
X152.654Y-82.55
X154.178Y-132.842
X154.94Y-119.38
X156.718Y-132.842
X157.48Y-119.38
X159.258Y-132.842
X160.02Y-119.38
X161.29Y-83.82
X162.56Y-119.38
X164.084Y-83.82
X165.1Y-119.38
X166.37Y-98.044
X167.64Y-99.06
X167.64Y-119.38
X170.18Y-119.38
X172.72Y-83.058
X172.72Y-119.38
X175.26Y-82.296
X179.07Y-87.122
X179.07Y-90.678
X182.372Y-88.138
X183.388Y-71.628
X183.388Y-77.47
X184.404Y-88.138
X184.404Y-119.634
X184.404Y-133.35
X185.42Y-92.71
X186.69Y-119.634
X186.69Y-132.588
X187.706Y-118.364
X187.707Y-133.858
X188.722Y-119.634
X188.722Y-132.588
X189.738Y-90.17
X189.738Y-118.364
X189.738Y-133.858
X190.754Y-95.25
X190.754Y-119.634
X190.754Y-132.588
X191.77Y-118.364
X191.77Y-133.858
X192.786Y-119.634
X192.786Y-132.588
X193.04Y-82.55
X193.04Y-87.63
X193.802Y-118.364
X193.802Y-133.858
X194.818Y-119.634
X194.818Y-132.588
X195.834Y-118.364
X195.834Y-133.858
X196.85Y-119.634
X196.85Y-132.588
X197.358Y-85.09
X197.866Y-118.364
X197.866Y-133.858
X198.882Y-119.634
X198.882Y-132.588
X199.898Y-118.364
X199.898Y-133.858
X200.914Y-82.55
X200.914Y-85.09
X200.914Y-87.63
X200.914Y-90.17
X200.914Y-92.71
X200.914Y-95.25
X200.914Y-119.634
X200.914Y-132.588
X204.47Y-119.38
X204.47Y-128.016
X207.01Y-119.38
X207.01Y-127.254
X208.28Y-131.064
X208.28Y-132.842
X209.55Y-119.38
X209.55Y-126.492
X210.82Y-130.302
X210.82Y-132.842
X212.09Y-119.38
X212.09Y-131.826
X213.36Y-129.54
X213.36Y-131.826
X214.63Y-119.38
X214.63Y-131.064
X215.646Y-102.87
X215.9Y-128.778
X215.9Y-131.064
X217.17Y-119.38
X217.17Y-130.302
X218.44Y-128.016
X218.44Y-130.302
X219.71Y-119.38
X219.71Y-129.54
X220.726Y-102.87
X220.98Y-127.254
X220.98Y-129.54
X222.25Y-119.38
X222.25Y-128.778
X224.79Y-119.38
X224.79Y-121.92
X227.33Y-119.38
X227.33Y-121.158
X228.6Y-124.968
X228.6Y-126.492
X231.14Y-124.206
X231.14Y-126.492
X232.41Y-119.38
X232.41Y-125.73
X233.68Y-123.444
X233.68Y-125.73
X234.95Y-119.38
X234.95Y-124.968
X236.22Y-122.682
X236.22Y-124.968
X237.49Y-119.38
X237.49Y-124.206
X238.76Y-121.92
X238.76Y-124.206
X240.03Y-119.38
X240.03Y-123.444
X241.3Y-56.388
X241.3Y-121.158
X241.3Y-123.444
X242.57Y-119.38
X242.57Y-122.682
X243.84Y-56.388
T2
X55.88Y-78.74
X55.88Y-83.74
X55.88Y-93.98
X55.88Y-98.98
X55.88Y-109.22
X55.88Y-114.22
X60.96Y-78.74
X60.96Y-86.36
X60.96Y-93.98
X60.96Y-101.6
X60.96Y-109.22
X60.96Y-116.84
X63.5Y-78.74
X63.5Y-86.36
X63.5Y-93.98
X63.5Y-101.6
X63.5Y-109.22
X63.5Y-116.84
X66.04Y-59.69
X66.04Y-64.77
X66.04Y-78.74
X66.04Y-86.36
X66.04Y-93.98
X66.04Y-101.6
X66.04Y-109.22
X66.04Y-116.84
X68.58Y-78.74
X68.58Y-86.36
X68.58Y-93.98
X68.58Y-101.6
X68.58Y-109.22
X68.58Y-116.84
X71.12Y-78.74
X71.12Y-86.36
X71.12Y-93.98
X71.12Y-101.6
X71.12Y-109.22
X71.12Y-116.84
X73.66Y-78.74
X73.66Y-86.36
X73.66Y-93.98
X73.66Y-101.6
X73.66Y-109.22
X73.66Y-116.84
X73.66Y-123.19
X73.66Y-133.35
X76.2Y-59.69
X76.2Y-64.77
X76.2Y-78.74
X76.2Y-86.36
X76.2Y-93.98
X76.2Y-101.6
X76.2Y-109.22
X76.2Y-116.84
X77.47Y-123.19
X77.47Y-133.35
X86.36Y-78.74
X86.36Y-83.74
X86.36Y-93.98
X86.36Y-98.98
X86.36Y-109.22
X86.36Y-114.22
X86.36Y-124.46
X86.36Y-129.46
X86.868Y-59.69
X86.868Y-64.77
X91.44Y-78.74
X91.44Y-86.36
X91.44Y-93.98
X91.44Y-101.6
X91.44Y-109.22
X91.44Y-116.84
X91.44Y-124.46
X91.44Y-132.08
X93.98Y-78.74
X93.98Y-86.36
X93.98Y-93.98
X93.98Y-101.6
X93.98Y-109.22
X93.98Y-116.84
X93.98Y-124.46
X93.98Y-132.08
X96.52Y-78.74
X96.52Y-86.36
X96.52Y-93.98
X96.52Y-101.6
X96.52Y-109.22
X96.52Y-116.84
X96.52Y-124.46
X96.52Y-132.08
X97.028Y-59.69
X97.028Y-64.77
X97.536Y-136.35
X97.536Y-138.85
X99.06Y-78.74
X99.06Y-86.36
X99.06Y-93.98
X99.06Y-101.6
X99.06Y-109.22
X99.06Y-116.84
X99.06Y-124.46
X99.06Y-132.08
X101.6Y-78.74
X101.6Y-86.36
X101.6Y-93.98
X101.6Y-101.6
X101.6Y-109.22
X101.6Y-116.84
X101.6Y-124.46
X101.6Y-132.08
X104.14Y-78.74
X104.14Y-86.36
X104.14Y-93.98
X104.14Y-101.6
X104.14Y-109.22
X104.14Y-116.84
X104.14Y-124.46
X104.14Y-132.08
X106.68Y-78.74
X106.68Y-86.36
X106.68Y-93.98
X106.68Y-101.6
X106.68Y-109.22
X106.68Y-116.84
X106.68Y-124.46
X106.68Y-132.08
X109.22Y-78.74
X109.22Y-86.36
X109.22Y-93.98
X109.22Y-101.6
X109.22Y-109.22
X109.22Y-116.84
X109.22Y-124.46
X109.22Y-132.08
X116.626Y-65.786
X119.126Y-65.786
X129.54Y-63.5
X129.54Y-68.5
X129.54Y-78.994
X129.54Y-83.994
X129.54Y-94.06
X129.54Y-99.06
X132.08Y-109.22
X134.62Y-63.5
X134.62Y-71.12
X134.62Y-78.994
X134.62Y-86.614
X134.62Y-93.98
X134.62Y-101.6
X134.62Y-109.22
X137.16Y-63.5
X137.16Y-71.12
X137.16Y-78.994
X137.16Y-86.614
X137.16Y-93.98
X137.16Y-101.6
X137.16Y-109.22
X139.7Y-63.5
X139.7Y-71.12
X139.7Y-78.994
X139.7Y-86.614
X139.7Y-93.98
X139.7Y-101.6
X139.7Y-109.22
X142.24Y-63.5
X142.24Y-71.12
X142.24Y-78.994
X142.24Y-86.614
X142.24Y-93.98
X142.24Y-101.6
X142.24Y-109.22
X144.78Y-63.5
X144.78Y-71.12
X144.78Y-78.994
X144.78Y-86.614
X144.78Y-93.98
X144.78Y-101.6
X144.78Y-109.22
X147.32Y-63.5
X147.32Y-71.12
X147.32Y-78.994
X147.32Y-86.614
X147.32Y-93.98
X147.32Y-101.6
X147.32Y-109.22
X149.86Y-63.5
X149.86Y-71.12
X149.86Y-78.994
X149.86Y-86.614
X149.86Y-93.98
X149.86Y-101.6
X149.86Y-109.22
X152.4Y-109.22
X154.94Y-78.994
X154.94Y-83.994
X154.94Y-93.98
X154.94Y-98.98
X160.02Y-78.994
X160.02Y-86.614
X160.02Y-93.98
X160.02Y-101.6
X160.02Y-109.22
X162.56Y-78.994
X162.56Y-86.614
X162.56Y-93.98
X162.56Y-101.6
X162.56Y-109.22
X165.1Y-78.994
X165.1Y-86.614
X165.1Y-93.98
X165.1Y-101.6
X165.1Y-109.22
X167.64Y-78.994
X167.64Y-86.614
X167.64Y-93.98
X167.64Y-101.6
X167.64Y-109.22
X170.18Y-78.994
X170.18Y-86.614
X170.18Y-93.98
X170.18Y-101.6
X170.18Y-109.22
X172.72Y-78.994
X172.72Y-86.614
X172.72Y-93.98
X172.72Y-101.6
X172.72Y-109.22
X175.26Y-78.994
X175.26Y-86.614
X175.26Y-93.98
X175.26Y-101.6
X175.26Y-109.22
X177.8Y-109.22
X180.34Y-109.22
X187.706Y-76.708
X190.206Y-76.708
X203.195Y-78.725
X203.195Y-81.265
X203.195Y-83.805
X203.195Y-86.345
X203.195Y-88.885
X203.195Y-91.425
X203.195Y-93.965
X203.195Y-96.505
X203.195Y-99.045
X203.195Y-101.585
X203.195Y-104.125
X203.195Y-106.665
X203.195Y-109.205
X203.195Y-111.745
X204.47Y-57.15
X204.47Y-60.96
X204.47Y-64.77
X213.44Y-68.58
X214.63Y-57.15
X214.63Y-60.96
X214.63Y-64.77
X218.435Y-78.725
X218.435Y-81.265
X218.435Y-83.805
X218.435Y-86.345
X218.435Y-88.885
X218.435Y-91.425
X218.435Y-93.965
X218.435Y-96.505
X218.435Y-99.045
X218.435Y-101.585
X218.435Y-104.125
X218.435Y-106.665
X218.435Y-109.205
X218.435Y-111.745
X218.44Y-68.58
X231.14Y-78.74
X231.14Y-81.28
X231.14Y-83.82
X231.14Y-86.36
X231.14Y-88.9
X231.14Y-91.44
X231.14Y-93.98
X231.14Y-96.52
X231.14Y-99.06
X231.14Y-101.6
X231.14Y-104.14
X231.14Y-106.68
X231.14Y-109.22
X231.14Y-111.76
X241.38Y-68.58
X246.38Y-68.58
X246.38Y-78.74
X246.38Y-81.28
X246.38Y-83.82
X246.38Y-86.36
X246.38Y-88.9
X246.38Y-91.44
X246.38Y-93.98
X246.38Y-96.52
X246.38Y-99.06
X246.38Y-101.6
X246.38Y-104.14
X246.38Y-106.68
X246.38Y-109.22
X246.38Y-111.76
X248.412Y-119.38
X248.412Y-129.54
T3
X236.22Y-63.5
X238.76Y-63.5
X242.57Y-63.5
X245.11Y-63.5
X248.92Y-63.5
X251.46Y-63.5
T4
X60.96Y-55.88
X60.96Y-58.42
X60.96Y-60.96
X60.96Y-63.5
X60.96Y-66.04
X60.96Y-68.58
X60.96Y-144.78
X63.5Y-144.78
X66.04Y-122.428
X66.04Y-124.968
X66.04Y-130.302
X66.04Y-132.842
X66.04Y-144.78
X68.58Y-144.78
X71.12Y-144.78
X73.66Y-144.78
X76.2Y-144.78
X78.74Y-144.78
X81.28Y-144.78
X83.82Y-144.78
X86.36Y-102.87
X86.36Y-105.41
X86.36Y-118.11
X86.36Y-120.65
X86.36Y-144.78
X88.9Y-144.78
X91.44Y-144.78
X93.98Y-144.78
X101.6Y-144.78
X104.14Y-144.78
X106.68Y-144.78
X109.22Y-144.78
X111.76Y-144.78
X114.3Y-144.78
X116.84Y-144.78
X119.38Y-144.78
X121.92Y-144.78
X124.46Y-144.78
X127.0Y-144.78
X129.54Y-144.78
X132.08Y-144.78
X134.62Y-144.78
X137.16Y-114.3
X137.16Y-116.84
X137.16Y-144.78
X139.7Y-114.3
X139.7Y-116.84
X139.7Y-144.78
X142.24Y-114.3
X142.24Y-116.84
X144.78Y-114.3
X144.78Y-116.84
X147.32Y-114.3
X147.32Y-116.84
X149.86Y-114.3
X149.86Y-116.84
X152.4Y-114.3
X152.4Y-116.84
X154.94Y-114.3
X154.94Y-116.84
X157.48Y-114.3
X157.48Y-116.84
X160.02Y-114.3
X160.02Y-116.84
X162.56Y-114.3
X162.56Y-116.84
X165.1Y-114.3
X165.1Y-116.84
X165.1Y-144.78
X167.64Y-114.3
X167.64Y-116.84
X167.64Y-144.78
X170.18Y-114.3
X170.18Y-116.84
X170.18Y-144.78
X172.72Y-114.3
X172.72Y-116.84
X172.72Y-144.78
X175.26Y-114.3
X175.26Y-116.84
X175.26Y-144.78
X177.8Y-144.78
X180.34Y-144.78
X182.88Y-144.78
X185.42Y-144.78
X187.96Y-144.78
X190.5Y-144.78
X193.04Y-144.78
X195.58Y-144.78
X198.12Y-144.78
X200.66Y-144.78
X203.2Y-144.78
X205.74Y-144.78
X208.28Y-144.78
X210.82Y-144.78
X213.36Y-144.78
X215.9Y-144.78
X218.44Y-144.78
X220.98Y-144.78
X223.52Y-144.78
X226.06Y-144.78
X228.6Y-144.78
X231.14Y-144.78
X233.68Y-144.78
X236.22Y-144.78
X238.76Y-144.78
X241.3Y-144.78
X243.84Y-144.78
T0
M30
