G04 #@! TF.GenerationSoftware,KiCad,Pcbnew,(7.0.0)*
G04 #@! TF.CreationDate,2024-03-28T20:27:28-07:00*
G04 #@! TF.ProjectId,rom_counter,726f6d5f-636f-4756-9e74-65722e6b6963,rev?*
G04 #@! TF.SameCoordinates,Original*
G04 #@! TF.FileFunction,Soldermask,Top*
G04 #@! TF.FilePolarity,Negative*
%FSLAX46Y46*%
G04 Gerber Fmt 4.6, Leading zero omitted, Abs format (unit mm)*
G04 Created by KiCad (PCBNEW (7.0.0)) date 2024-03-28 20:27:28*
%MOMM*%
%LPD*%
G01*
G04 APERTURE LIST*
%ADD10R,1.600000X1.600000*%
%ADD11O,1.600000X1.600000*%
%ADD12R,1.700000X1.700000*%
%ADD13O,1.700000X1.700000*%
%ADD14C,1.600000*%
%ADD15R,1.800000X1.800000*%
%ADD16C,1.800000*%
G04 APERTURE END LIST*
D10*
X60959999Y-116839999D03*
D11*
X63499999Y-116839999D03*
X66039999Y-116839999D03*
X68579999Y-116839999D03*
X71119999Y-116839999D03*
X73659999Y-116839999D03*
X76199999Y-116839999D03*
X76199999Y-109219999D03*
X73659999Y-109219999D03*
X71119999Y-109219999D03*
X68579999Y-109219999D03*
X66039999Y-109219999D03*
X63499999Y-109219999D03*
X60959999Y-109219999D03*
D12*
X139699999Y-144779999D03*
D13*
X137159999Y-144779999D03*
X134619999Y-144779999D03*
X132079999Y-144779999D03*
X129539999Y-144779999D03*
X126999999Y-144779999D03*
X124459999Y-144779999D03*
X121919999Y-144779999D03*
X119379999Y-144779999D03*
X116839999Y-144779999D03*
X114299999Y-144779999D03*
X111759999Y-144779999D03*
X109219999Y-144779999D03*
X106679999Y-144779999D03*
X104139999Y-144779999D03*
X101599999Y-144779999D03*
D10*
X119125999Y-65785999D03*
D14*
X116626000Y-65786000D03*
D10*
X180339999Y-109219999D03*
D11*
X177799999Y-109219999D03*
X175259999Y-109219999D03*
X172719999Y-109219999D03*
X170179999Y-109219999D03*
X167639999Y-109219999D03*
X165099999Y-109219999D03*
X162559999Y-109219999D03*
X160019999Y-109219999D03*
D14*
X248412000Y-129540000D03*
D11*
X248411999Y-119379999D03*
D12*
X137159999Y-116839999D03*
D13*
X137159999Y-114299999D03*
X139699999Y-116839999D03*
X139699999Y-114299999D03*
X142239999Y-116839999D03*
X142239999Y-114299999D03*
X144779999Y-116839999D03*
X144779999Y-114299999D03*
X147319999Y-116839999D03*
X147319999Y-114299999D03*
X149859999Y-116839999D03*
X149859999Y-114299999D03*
X152399999Y-116839999D03*
X152399999Y-114299999D03*
X154939999Y-116839999D03*
X154939999Y-114299999D03*
X157479999Y-116839999D03*
X157479999Y-114299999D03*
X160019999Y-116839999D03*
X160019999Y-114299999D03*
X162559999Y-116839999D03*
X162559999Y-114299999D03*
X165099999Y-116839999D03*
X165099999Y-114299999D03*
X167639999Y-116839999D03*
X167639999Y-114299999D03*
X170179999Y-116839999D03*
X170179999Y-114299999D03*
X172719999Y-116839999D03*
X172719999Y-114299999D03*
X175259999Y-116839999D03*
X175259999Y-114299999D03*
D10*
X231139999Y-78739999D03*
D11*
X231139999Y-81279999D03*
X231139999Y-83819999D03*
X231139999Y-86359999D03*
X231139999Y-88899999D03*
X231139999Y-91439999D03*
X231139999Y-93979999D03*
X231139999Y-96519999D03*
X231139999Y-99059999D03*
X231139999Y-101599999D03*
X231139999Y-104139999D03*
X231139999Y-106679999D03*
X231139999Y-109219999D03*
X231139999Y-111759999D03*
X246379999Y-111759999D03*
X246379999Y-109219999D03*
X246379999Y-106679999D03*
X246379999Y-104139999D03*
X246379999Y-101599999D03*
X246379999Y-99059999D03*
X246379999Y-96519999D03*
X246379999Y-93979999D03*
X246379999Y-91439999D03*
X246379999Y-88899999D03*
X246379999Y-86359999D03*
X246379999Y-83819999D03*
X246379999Y-81279999D03*
X246379999Y-78739999D03*
D12*
X86359999Y-120649999D03*
D13*
X86359999Y-118109999D03*
D14*
X86360000Y-129460000D03*
X86360000Y-124460000D03*
D12*
X66039999Y-132841999D03*
D13*
X66039999Y-130301999D03*
D12*
X86359999Y-105409999D03*
D13*
X86359999Y-102869999D03*
D10*
X160019999Y-86613999D03*
D11*
X162559999Y-86613999D03*
X165099999Y-86613999D03*
X167639999Y-86613999D03*
X170179999Y-86613999D03*
X172719999Y-86613999D03*
X175259999Y-86613999D03*
X175259999Y-78993999D03*
X172719999Y-78993999D03*
X170179999Y-78993999D03*
X167639999Y-78993999D03*
X165099999Y-78993999D03*
X162559999Y-78993999D03*
X160019999Y-78993999D03*
D10*
X134619999Y-86613999D03*
D11*
X137159999Y-86613999D03*
X139699999Y-86613999D03*
X142239999Y-86613999D03*
X144779999Y-86613999D03*
X147319999Y-86613999D03*
X149859999Y-86613999D03*
X149859999Y-78993999D03*
X147319999Y-78993999D03*
X144779999Y-78993999D03*
X142239999Y-78993999D03*
X139699999Y-78993999D03*
X137159999Y-78993999D03*
X134619999Y-78993999D03*
D14*
X154940000Y-83994000D03*
X154940000Y-78994000D03*
X55880000Y-83740000D03*
X55880000Y-78740000D03*
X213440000Y-68580000D03*
X218440000Y-68580000D03*
X73660000Y-133350000D03*
D11*
X73659999Y-123189999D03*
D15*
X245109999Y-63499999D03*
D16*
X242570000Y-63500000D03*
D10*
X91439999Y-101599999D03*
D11*
X93979999Y-101599999D03*
X96519999Y-101599999D03*
X99059999Y-101599999D03*
X101599999Y-101599999D03*
X104139999Y-101599999D03*
X106679999Y-101599999D03*
X109219999Y-101599999D03*
X109219999Y-93979999D03*
X106679999Y-93979999D03*
X104139999Y-93979999D03*
X101599999Y-93979999D03*
X99059999Y-93979999D03*
X96519999Y-93979999D03*
X93979999Y-93979999D03*
X91439999Y-93979999D03*
D10*
X160019999Y-101599999D03*
D11*
X162559999Y-101599999D03*
X165099999Y-101599999D03*
X167639999Y-101599999D03*
X170179999Y-101599999D03*
X172719999Y-101599999D03*
X175259999Y-101599999D03*
X175259999Y-93979999D03*
X172719999Y-93979999D03*
X170179999Y-93979999D03*
X167639999Y-93979999D03*
X165099999Y-93979999D03*
X162559999Y-93979999D03*
X160019999Y-93979999D03*
D14*
X86868000Y-64770000D03*
D11*
X97027999Y-64769999D03*
D10*
X60959999Y-86359999D03*
D11*
X63499999Y-86359999D03*
X66039999Y-86359999D03*
X68579999Y-86359999D03*
X71119999Y-86359999D03*
X73659999Y-86359999D03*
X76199999Y-86359999D03*
X76199999Y-78739999D03*
X73659999Y-78739999D03*
X71119999Y-78739999D03*
X68579999Y-78739999D03*
X66039999Y-78739999D03*
X63499999Y-78739999D03*
X60959999Y-78739999D03*
D10*
X60959999Y-101599999D03*
D11*
X63499999Y-101599999D03*
X66039999Y-101599999D03*
X68579999Y-101599999D03*
X71119999Y-101599999D03*
X73659999Y-101599999D03*
X76199999Y-101599999D03*
X76199999Y-93979999D03*
X73659999Y-93979999D03*
X71119999Y-93979999D03*
X68579999Y-93979999D03*
X66039999Y-93979999D03*
X63499999Y-93979999D03*
X60959999Y-93979999D03*
D10*
X91439999Y-116839999D03*
D11*
X93979999Y-116839999D03*
X96519999Y-116839999D03*
X99059999Y-116839999D03*
X101599999Y-116839999D03*
X104139999Y-116839999D03*
X106679999Y-116839999D03*
X109219999Y-116839999D03*
X109219999Y-109219999D03*
X106679999Y-109219999D03*
X104139999Y-109219999D03*
X101599999Y-109219999D03*
X99059999Y-109219999D03*
X96519999Y-109219999D03*
X93979999Y-109219999D03*
X91439999Y-109219999D03*
D14*
X129540000Y-68500000D03*
X129540000Y-63500000D03*
X55880000Y-98980000D03*
X55880000Y-93980000D03*
D10*
X97535999Y-138850379D03*
D14*
X97536000Y-136350380D03*
D15*
X251459999Y-63499999D03*
D16*
X248920000Y-63500000D03*
D14*
X214630000Y-64770000D03*
D11*
X204469999Y-64769999D03*
D10*
X91439999Y-132079999D03*
D11*
X93979999Y-132079999D03*
X96519999Y-132079999D03*
X99059999Y-132079999D03*
X101599999Y-132079999D03*
X104139999Y-132079999D03*
X106679999Y-132079999D03*
X109219999Y-132079999D03*
X109219999Y-124459999D03*
X106679999Y-124459999D03*
X104139999Y-124459999D03*
X101599999Y-124459999D03*
X99059999Y-124459999D03*
X96519999Y-124459999D03*
X93979999Y-124459999D03*
X91439999Y-124459999D03*
D14*
X154940000Y-98980000D03*
X154940000Y-93980000D03*
X86868000Y-59690000D03*
D11*
X97027999Y-59689999D03*
D12*
X60959999Y-55879999D03*
D13*
X60959999Y-58419999D03*
X60959999Y-60959999D03*
X60959999Y-63499999D03*
X60959999Y-66039999D03*
X60959999Y-68579999D03*
D10*
X134619999Y-71119999D03*
D11*
X137159999Y-71119999D03*
X139699999Y-71119999D03*
X142239999Y-71119999D03*
X144779999Y-71119999D03*
X147319999Y-71119999D03*
X149859999Y-71119999D03*
X149859999Y-63499999D03*
X147319999Y-63499999D03*
X144779999Y-63499999D03*
X142239999Y-63499999D03*
X139699999Y-63499999D03*
X137159999Y-63499999D03*
X134619999Y-63499999D03*
D14*
X77470000Y-123190000D03*
D11*
X77469999Y-133349999D03*
D14*
X86360000Y-98980000D03*
X86360000Y-93980000D03*
X76200000Y-64770000D03*
D11*
X66039999Y-64769999D03*
D14*
X66040000Y-59690000D03*
D11*
X76199999Y-59689999D03*
D12*
X66039999Y-124967999D03*
D13*
X66039999Y-122427999D03*
D14*
X129540000Y-78994000D03*
X129540000Y-83994000D03*
X55880000Y-114220000D03*
X55880000Y-109220000D03*
D10*
X187705999Y-76707999D03*
D14*
X190206000Y-76708000D03*
X129540000Y-94060000D03*
X129540000Y-99060000D03*
D15*
X238759999Y-63499999D03*
D16*
X236220000Y-63500000D03*
D14*
X214630000Y-57150000D03*
D11*
X204469999Y-57149999D03*
D14*
X214630000Y-60960000D03*
D11*
X204469999Y-60959999D03*
D10*
X134619999Y-101599999D03*
D11*
X137159999Y-101599999D03*
X139699999Y-101599999D03*
X142239999Y-101599999D03*
X144779999Y-101599999D03*
X147319999Y-101599999D03*
X149859999Y-101599999D03*
X149859999Y-93979999D03*
X147319999Y-93979999D03*
X144779999Y-93979999D03*
X142239999Y-93979999D03*
X139699999Y-93979999D03*
X137159999Y-93979999D03*
X134619999Y-93979999D03*
D10*
X91439999Y-86359999D03*
D11*
X93979999Y-86359999D03*
X96519999Y-86359999D03*
X99059999Y-86359999D03*
X101599999Y-86359999D03*
X104139999Y-86359999D03*
X106679999Y-86359999D03*
X109219999Y-86359999D03*
X109219999Y-78739999D03*
X106679999Y-78739999D03*
X104139999Y-78739999D03*
X101599999Y-78739999D03*
X99059999Y-78739999D03*
X96519999Y-78739999D03*
X93979999Y-78739999D03*
X91439999Y-78739999D03*
D12*
X243839999Y-144779999D03*
D13*
X241299999Y-144779999D03*
X238759999Y-144779999D03*
X236219999Y-144779999D03*
X233679999Y-144779999D03*
X231139999Y-144779999D03*
X228599999Y-144779999D03*
X226059999Y-144779999D03*
X223519999Y-144779999D03*
X220979999Y-144779999D03*
X218439999Y-144779999D03*
X215899999Y-144779999D03*
X213359999Y-144779999D03*
X210819999Y-144779999D03*
X208279999Y-144779999D03*
X205739999Y-144779999D03*
X203199999Y-144779999D03*
X200659999Y-144779999D03*
X198119999Y-144779999D03*
X195579999Y-144779999D03*
X193039999Y-144779999D03*
X190499999Y-144779999D03*
X187959999Y-144779999D03*
X185419999Y-144779999D03*
X182879999Y-144779999D03*
X180339999Y-144779999D03*
X177799999Y-144779999D03*
X175259999Y-144779999D03*
X172719999Y-144779999D03*
X170179999Y-144779999D03*
X167639999Y-144779999D03*
X165099999Y-144779999D03*
D10*
X132079999Y-109219999D03*
D11*
X134619999Y-109219999D03*
X137159999Y-109219999D03*
X139699999Y-109219999D03*
X142239999Y-109219999D03*
X144779999Y-109219999D03*
X147319999Y-109219999D03*
X149859999Y-109219999D03*
X152399999Y-109219999D03*
D12*
X93979999Y-144779999D03*
D13*
X91439999Y-144779999D03*
X88899999Y-144779999D03*
X86359999Y-144779999D03*
X83819999Y-144779999D03*
X81279999Y-144779999D03*
X78739999Y-144779999D03*
X76199999Y-144779999D03*
X73659999Y-144779999D03*
X71119999Y-144779999D03*
X68579999Y-144779999D03*
X66039999Y-144779999D03*
X63499999Y-144779999D03*
X60959999Y-144779999D03*
D14*
X86360000Y-83740000D03*
X86360000Y-78740000D03*
X86360000Y-114220000D03*
X86360000Y-109220000D03*
X241380000Y-68580000D03*
X246380000Y-68580000D03*
D10*
X203194999Y-78724999D03*
D11*
X203194999Y-81264999D03*
X203194999Y-83804999D03*
X203194999Y-86344999D03*
X203194999Y-88884999D03*
X203194999Y-91424999D03*
X203194999Y-93964999D03*
X203194999Y-96504999D03*
X203194999Y-99044999D03*
X203194999Y-101584999D03*
X203194999Y-104124999D03*
X203194999Y-106664999D03*
X203194999Y-109204999D03*
X203194999Y-111744999D03*
X218434999Y-111744999D03*
X218434999Y-109204999D03*
X218434999Y-106664999D03*
X218434999Y-104124999D03*
X218434999Y-101584999D03*
X218434999Y-99044999D03*
X218434999Y-96504999D03*
X218434999Y-93964999D03*
X218434999Y-91424999D03*
X218434999Y-88884999D03*
X218434999Y-86344999D03*
X218434999Y-83804999D03*
X218434999Y-81264999D03*
X218434999Y-78724999D03*
M02*
