%TF.GenerationSoftware,KiCad,Pcbnew,(7.0.0)*%
%TF.CreationDate,2024-03-28T20:27:38-07:00*%
%TF.ProjectId,rom_counter,726f6d5f-636f-4756-9e74-65722e6b6963,rev?*%
%TF.SameCoordinates,Original*%
%TF.FileFunction,Drillmap*%
%TF.FilePolarity,Positive*%
%FSLAX45Y45*%
G04 Gerber Fmt 4.5, Leading zero omitted, Abs format (unit mm)*
G04 Created by KiCad (PCBNEW (7.0.0)) date 2024-03-28 20:27:38*
%MOMM*%
%LPD*%
G01*
G04 APERTURE LIST*
%ADD10C,0.100000*%
%ADD11C,0.200000*%
%ADD12C,0.038100*%
%ADD13C,0.080000*%
%ADD14C,0.090000*%
G04 APERTURE END LIST*
D10*
X25400000Y-5270500D02*
X25400000Y-14668500D01*
X25209500Y-14859000D02*
G75*
G03*
X25400000Y-14668500I0J190500D01*
G01*
X5080000Y-14668500D02*
G75*
G03*
X5270500Y-14859000I190500J0D01*
G01*
X5080000Y-14668500D02*
X5080000Y-5270500D01*
X5270500Y-5080000D02*
G75*
G03*
X5080000Y-5270500I0J-190500D01*
G01*
X25209500Y-14859000D02*
X5270500Y-14859000D01*
X25400000Y-5270500D02*
G75*
G03*
X25209500Y-5080000I-190500J0D01*
G01*
X5270500Y-5080000D02*
X25209500Y-5080000D01*
D11*
D12*
X5441950Y-10521950D02*
X5480050Y-10560050D01*
X5480050Y-10521950D02*
X5441950Y-10560050D01*
X5530850Y-10610850D02*
X5568950Y-10648950D01*
X5568950Y-10610850D02*
X5530850Y-10648950D01*
X5619750Y-10344150D02*
X5657850Y-10382250D01*
X5657850Y-10344150D02*
X5619750Y-10382250D01*
X5670550Y-11817350D02*
X5708650Y-11855450D01*
X5708650Y-11817350D02*
X5670550Y-11855450D01*
X5797550Y-10344150D02*
X5835650Y-10382250D01*
X5835650Y-10344150D02*
X5797550Y-10382250D01*
X6076950Y-10674350D02*
X6115050Y-10712450D01*
X6115050Y-10674350D02*
X6076950Y-10712450D01*
X6229350Y-14052550D02*
X6267450Y-14090650D01*
X6267450Y-14052550D02*
X6229350Y-14090650D01*
X6330950Y-7524750D02*
X6369050Y-7562850D01*
X6369050Y-7524750D02*
X6330950Y-7562850D01*
X6584950Y-8134350D02*
X6623050Y-8172450D01*
X6623050Y-8134350D02*
X6584950Y-8172450D01*
X6584950Y-8870950D02*
X6623050Y-8909050D01*
X6623050Y-8870950D02*
X6584950Y-8909050D01*
X6584950Y-11868150D02*
X6623050Y-11906250D01*
X6623050Y-11868150D02*
X6584950Y-11906250D01*
X6711950Y-9124950D02*
X6750050Y-9163050D01*
X6750050Y-9124950D02*
X6711950Y-9163050D01*
X6711950Y-9556750D02*
X6750050Y-9594850D01*
X6750050Y-9556750D02*
X6711950Y-9594850D01*
X6838950Y-8362950D02*
X6877050Y-8401050D01*
X6877050Y-8362950D02*
X6838950Y-8401050D01*
X6965950Y-7346950D02*
X7004050Y-7385050D01*
X7004050Y-7346950D02*
X6965950Y-7385050D01*
X6965950Y-8896350D02*
X7004050Y-8934450D01*
X7004050Y-8896350D02*
X6965950Y-8934450D01*
X6965950Y-9124950D02*
X7004050Y-9163050D01*
X7004050Y-9124950D02*
X6965950Y-9163050D01*
X6965950Y-9556750D02*
X7004050Y-9594850D01*
X7004050Y-9556750D02*
X6965950Y-9594850D01*
X6965950Y-10267950D02*
X7004050Y-10306050D01*
X7004050Y-10267950D02*
X6965950Y-10306050D01*
X6965950Y-10471150D02*
X7004050Y-10509250D01*
X7004050Y-10471150D02*
X6965950Y-10509250D01*
X7092950Y-8108950D02*
X7131050Y-8147050D01*
X7131050Y-8108950D02*
X7092950Y-8147050D01*
X7092950Y-9937750D02*
X7131050Y-9975850D01*
X7131050Y-9937750D02*
X7092950Y-9975850D01*
X7092950Y-10471150D02*
X7131050Y-10509250D01*
X7131050Y-10471150D02*
X7092950Y-10509250D01*
X7194550Y-7346950D02*
X7232650Y-7385050D01*
X7232650Y-7346950D02*
X7194550Y-7385050D01*
X7346950Y-10471150D02*
X7385050Y-10509250D01*
X7385050Y-10471150D02*
X7346950Y-10509250D01*
X7448550Y-7346950D02*
X7486650Y-7385050D01*
X7486650Y-7346950D02*
X7448550Y-7385050D01*
X7727950Y-8286750D02*
X7766050Y-8324850D01*
X7766050Y-8286750D02*
X7727950Y-8324850D01*
X7727950Y-8997950D02*
X7766050Y-9036050D01*
X7766050Y-8997950D02*
X7727950Y-9036050D01*
X7804150Y-11893550D02*
X7842250Y-11931650D01*
X7842250Y-11893550D02*
X7804150Y-11931650D01*
X7804150Y-12147550D02*
X7842250Y-12185650D01*
X7842250Y-12147550D02*
X7804150Y-12185650D01*
X7854950Y-9658350D02*
X7893050Y-9696450D01*
X7893050Y-9658350D02*
X7854950Y-9696450D01*
X7931150Y-11893550D02*
X7969250Y-11931650D01*
X7969250Y-11893550D02*
X7931150Y-11931650D01*
X7931150Y-12147550D02*
X7969250Y-12185650D01*
X7969250Y-12147550D02*
X7931150Y-12185650D01*
X8058150Y-11893550D02*
X8096250Y-11931650D01*
X8096250Y-11893550D02*
X8058150Y-11931650D01*
X8058150Y-12147550D02*
X8096250Y-12185650D01*
X8096250Y-12147550D02*
X8058150Y-12185650D01*
X8108950Y-8286750D02*
X8147050Y-8324850D01*
X8147050Y-8286750D02*
X8108950Y-8324850D01*
X8108950Y-10064750D02*
X8147050Y-10102850D01*
X8147050Y-10064750D02*
X8108950Y-10102850D01*
X8134350Y-7346950D02*
X8172450Y-7385050D01*
X8172450Y-7346950D02*
X8134350Y-7385050D01*
X8159750Y-14103350D02*
X8197850Y-14141450D01*
X8197850Y-14103350D02*
X8159750Y-14141450D01*
X8413750Y-9658350D02*
X8451850Y-9696450D01*
X8451850Y-9658350D02*
X8413750Y-9696450D01*
X8439150Y-10064750D02*
X8477250Y-10102850D01*
X8477250Y-10064750D02*
X8439150Y-10102850D01*
X8464550Y-8997950D02*
X8502650Y-9036050D01*
X8502650Y-8997950D02*
X8464550Y-9036050D01*
X8667750Y-13620750D02*
X8705850Y-13658850D01*
X8705850Y-13620750D02*
X8667750Y-13658850D01*
X8870950Y-13417550D02*
X8909050Y-13455650D01*
X8909050Y-13417550D02*
X8870950Y-13455650D01*
X9378950Y-9175750D02*
X9417050Y-9213850D01*
X9417050Y-9175750D02*
X9378950Y-9213850D01*
X9378950Y-11918950D02*
X9417050Y-11957050D01*
X9417050Y-11918950D02*
X9378950Y-11957050D01*
X9505950Y-12579350D02*
X9544050Y-12617450D01*
X9544050Y-12579350D02*
X9505950Y-12617450D01*
X9632950Y-6915150D02*
X9671050Y-6953250D01*
X9671050Y-6915150D02*
X9632950Y-6953250D01*
X9632950Y-12147550D02*
X9671050Y-12185650D01*
X9671050Y-12147550D02*
X9632950Y-12185650D01*
X9759950Y-11918950D02*
X9798050Y-11957050D01*
X9798050Y-11918950D02*
X9759950Y-11957050D01*
X9886950Y-7245350D02*
X9925050Y-7283450D01*
X9925050Y-7245350D02*
X9886950Y-7283450D01*
X9886950Y-12147550D02*
X9925050Y-12185650D01*
X9925050Y-12147550D02*
X9886950Y-12185650D01*
X10140950Y-9023350D02*
X10179050Y-9061450D01*
X10179050Y-9023350D02*
X10140950Y-9061450D01*
X10140950Y-10572750D02*
X10179050Y-10610850D01*
X10179050Y-10572750D02*
X10140950Y-10610850D01*
X10267950Y-8820150D02*
X10306050Y-8858250D01*
X10306050Y-8820150D02*
X10267950Y-8858250D01*
X10267950Y-10293350D02*
X10306050Y-10331450D01*
X10306050Y-10293350D02*
X10267950Y-10331450D01*
X10648950Y-8820150D02*
X10687050Y-8858250D01*
X10687050Y-8820150D02*
X10648950Y-8858250D01*
X10648950Y-9150350D02*
X10687050Y-9188450D01*
X10687050Y-9150350D02*
X10648950Y-9188450D01*
X10648950Y-12096750D02*
X10687050Y-12134850D01*
X10687050Y-12096750D02*
X10648950Y-12134850D01*
X10775950Y-10293350D02*
X10814050Y-10331450D01*
X10814050Y-10293350D02*
X10775950Y-10331450D01*
X10902950Y-12172950D02*
X10941050Y-12211050D01*
X10941050Y-12172950D02*
X10902950Y-12211050D01*
X11080750Y-12579350D02*
X11118850Y-12617450D01*
X11118850Y-12579350D02*
X11080750Y-12617450D01*
X11080750Y-12731750D02*
X11118850Y-12769850D01*
X11118850Y-12731750D02*
X11080750Y-12769850D01*
X11080750Y-12884150D02*
X11118850Y-12922250D01*
X11118850Y-12884150D02*
X11080750Y-12922250D01*
X11080750Y-13036550D02*
X11118850Y-13074650D01*
X11118850Y-13036550D02*
X11080750Y-13074650D01*
X11156950Y-12503150D02*
X11195050Y-12541250D01*
X11195050Y-12503150D02*
X11156950Y-12541250D01*
X11156950Y-12655550D02*
X11195050Y-12693650D01*
X11195050Y-12655550D02*
X11156950Y-12693650D01*
X11156950Y-12807950D02*
X11195050Y-12846050D01*
X11195050Y-12807950D02*
X11156950Y-12846050D01*
X11156950Y-12960350D02*
X11195050Y-12998450D01*
X11195050Y-12960350D02*
X11156950Y-12998450D01*
X11207750Y-8007350D02*
X11245850Y-8045450D01*
X11245850Y-8007350D02*
X11207750Y-8045450D01*
X11207750Y-8159750D02*
X11245850Y-8197850D01*
X11245850Y-8159750D02*
X11207750Y-8197850D01*
X11207750Y-8312150D02*
X11245850Y-8350250D01*
X11245850Y-8312150D02*
X11207750Y-8350250D01*
X11283950Y-8083550D02*
X11322050Y-8121650D01*
X11322050Y-8083550D02*
X11283950Y-8121650D01*
X11283950Y-8235950D02*
X11322050Y-8274050D01*
X11322050Y-8235950D02*
X11283950Y-8274050D01*
X11283950Y-8388350D02*
X11322050Y-8426450D01*
X11322050Y-8388350D02*
X11283950Y-8426450D01*
X11360150Y-11436350D02*
X11398250Y-11474450D01*
X11398250Y-11436350D02*
X11360150Y-11474450D01*
X11436350Y-11360150D02*
X11474450Y-11398250D01*
X11474450Y-11360150D02*
X11436350Y-11398250D01*
X11512550Y-11283950D02*
X11550650Y-11322050D01*
X11550650Y-11283950D02*
X11512550Y-11322050D01*
X11588750Y-11207750D02*
X11626850Y-11245850D01*
X11626850Y-11207750D02*
X11588750Y-11245850D01*
X11664950Y-11131550D02*
X11703050Y-11169650D01*
X11703050Y-11131550D02*
X11664950Y-11169650D01*
X11741150Y-11055350D02*
X11779250Y-11093450D01*
X11779250Y-11055350D02*
X11741150Y-11093450D01*
X11817350Y-10979150D02*
X11855450Y-11017250D01*
X11855450Y-10979150D02*
X11817350Y-11017250D01*
X11893550Y-9531350D02*
X11931650Y-9569450D01*
X11931650Y-9531350D02*
X11893550Y-9569450D01*
X11893550Y-9683750D02*
X11931650Y-9721850D01*
X11931650Y-9683750D02*
X11893550Y-9721850D01*
X11893550Y-9836150D02*
X11931650Y-9874250D01*
X11931650Y-9836150D02*
X11893550Y-9874250D01*
X11893550Y-9988550D02*
X11931650Y-10026650D01*
X11931650Y-9988550D02*
X11893550Y-10026650D01*
X11969750Y-9455150D02*
X12007850Y-9493250D01*
X12007850Y-9455150D02*
X11969750Y-9493250D01*
X11969750Y-9607550D02*
X12007850Y-9645650D01*
X12007850Y-9607550D02*
X11969750Y-9645650D01*
X11969750Y-9759950D02*
X12007850Y-9798050D01*
X12007850Y-9759950D02*
X11969750Y-9798050D01*
X11969750Y-9912350D02*
X12007850Y-9950450D01*
X12007850Y-9912350D02*
X11969750Y-9950450D01*
X12096750Y-13265150D02*
X12134850Y-13303250D01*
X12134850Y-13265150D02*
X12096750Y-13303250D01*
X12350750Y-13265150D02*
X12388850Y-13303250D01*
X12388850Y-13265150D02*
X12350750Y-13303250D01*
X12426950Y-12020550D02*
X12465050Y-12058650D01*
X12465050Y-12020550D02*
X12426950Y-12058650D01*
X12426950Y-12172950D02*
X12465050Y-12211050D01*
X12465050Y-12172950D02*
X12426950Y-12211050D01*
X12426950Y-12325350D02*
X12465050Y-12363450D01*
X12465050Y-12325350D02*
X12426950Y-12363450D01*
X12426950Y-12477750D02*
X12465050Y-12515850D01*
X12465050Y-12477750D02*
X12426950Y-12515850D01*
X12503150Y-12096750D02*
X12541250Y-12134850D01*
X12541250Y-12096750D02*
X12503150Y-12134850D01*
X12503150Y-12249150D02*
X12541250Y-12287250D01*
X12541250Y-12249150D02*
X12503150Y-12287250D01*
X12503150Y-12401550D02*
X12541250Y-12439650D01*
X12541250Y-12401550D02*
X12503150Y-12439650D01*
X12503150Y-12553950D02*
X12541250Y-12592050D01*
X12541250Y-12553950D02*
X12503150Y-12592050D01*
X12604750Y-13265150D02*
X12642850Y-13303250D01*
X12642850Y-13265150D02*
X12604750Y-13303250D01*
X12655550Y-6762750D02*
X12693650Y-6800850D01*
X12693650Y-6762750D02*
X12655550Y-6800850D01*
X12655550Y-6915150D02*
X12693650Y-6953250D01*
X12693650Y-6915150D02*
X12655550Y-6953250D01*
X12655550Y-7473950D02*
X12693650Y-7512050D01*
X12693650Y-7473950D02*
X12655550Y-7512050D01*
X12655550Y-7626350D02*
X12693650Y-7664450D01*
X12693650Y-7626350D02*
X12655550Y-7664450D01*
X12858750Y-13265150D02*
X12896850Y-13303250D01*
X12896850Y-13265150D02*
X12858750Y-13303250D01*
X13112750Y-13265150D02*
X13150850Y-13303250D01*
X13150850Y-13265150D02*
X13112750Y-13303250D01*
X13366750Y-13265150D02*
X13404850Y-13303250D01*
X13404850Y-13265150D02*
X13366750Y-13303250D01*
X13442950Y-11918950D02*
X13481050Y-11957050D01*
X13481050Y-11918950D02*
X13442950Y-11957050D01*
X13620750Y-13265150D02*
X13658850Y-13303250D01*
X13658850Y-13265150D02*
X13620750Y-13303250D01*
X13696950Y-11918950D02*
X13735050Y-11957050D01*
X13735050Y-11918950D02*
X13696950Y-11957050D01*
X13874750Y-13265150D02*
X13912850Y-13303250D01*
X13912850Y-13265150D02*
X13874750Y-13303250D01*
X13950950Y-9759950D02*
X13989050Y-9798050D01*
X13989050Y-9759950D02*
X13950950Y-9798050D01*
X13950950Y-11918950D02*
X13989050Y-11957050D01*
X13989050Y-11918950D02*
X13950950Y-11957050D01*
X14077950Y-5924550D02*
X14116050Y-5962650D01*
X14116050Y-5924550D02*
X14077950Y-5962650D01*
X14077950Y-6635750D02*
X14116050Y-6673850D01*
X14116050Y-6635750D02*
X14077950Y-6673850D01*
X14128750Y-13265150D02*
X14166850Y-13303250D01*
X14166850Y-13265150D02*
X14128750Y-13303250D01*
X14204950Y-9836150D02*
X14243050Y-9874250D01*
X14243050Y-9836150D02*
X14204950Y-9874250D01*
X14204950Y-11918950D02*
X14243050Y-11957050D01*
X14243050Y-11918950D02*
X14204950Y-11957050D01*
X14281150Y-14636750D02*
X14319250Y-14674850D01*
X14319250Y-14636750D02*
X14281150Y-14674850D01*
X14331950Y-5924550D02*
X14370050Y-5962650D01*
X14370050Y-5924550D02*
X14331950Y-5962650D01*
X14331950Y-6483350D02*
X14370050Y-6521450D01*
X14370050Y-6483350D02*
X14331950Y-6521450D01*
X14331950Y-7575550D02*
X14370050Y-7613650D01*
X14370050Y-7575550D02*
X14331950Y-7613650D01*
X14331950Y-8235950D02*
X14370050Y-8274050D01*
X14370050Y-8235950D02*
X14331950Y-8274050D01*
X14382750Y-13265150D02*
X14420850Y-13303250D01*
X14420850Y-13265150D02*
X14382750Y-13303250D01*
X14458950Y-11918950D02*
X14497050Y-11957050D01*
X14497050Y-11918950D02*
X14458950Y-11957050D01*
X14611350Y-14306550D02*
X14649450Y-14344650D01*
X14649450Y-14306550D02*
X14611350Y-14344650D01*
X14636750Y-13265150D02*
X14674850Y-13303250D01*
X14674850Y-13265150D02*
X14636750Y-13303250D01*
X14712950Y-11918950D02*
X14751050Y-11957050D01*
X14751050Y-11918950D02*
X14712950Y-11957050D01*
X14890750Y-13265150D02*
X14928850Y-13303250D01*
X14928850Y-13265150D02*
X14890750Y-13303250D01*
X14966950Y-7397750D02*
X15005050Y-7435850D01*
X15005050Y-7397750D02*
X14966950Y-7435850D01*
X14966950Y-11918950D02*
X15005050Y-11957050D01*
X15005050Y-11918950D02*
X14966950Y-11957050D01*
X15119350Y-5924550D02*
X15157450Y-5962650D01*
X15157450Y-5924550D02*
X15119350Y-5962650D01*
X15119350Y-6127750D02*
X15157450Y-6165850D01*
X15157450Y-6127750D02*
X15119350Y-6165850D01*
X15144750Y-13265150D02*
X15182850Y-13303250D01*
X15182850Y-13265150D02*
X15144750Y-13303250D01*
X15220950Y-11918950D02*
X15259050Y-11957050D01*
X15259050Y-11918950D02*
X15220950Y-11957050D01*
X15246350Y-7499350D02*
X15284450Y-7537450D01*
X15284450Y-7499350D02*
X15246350Y-7537450D01*
X15246350Y-8235950D02*
X15284450Y-8274050D01*
X15284450Y-8235950D02*
X15246350Y-8274050D01*
X15398750Y-13265150D02*
X15436850Y-13303250D01*
X15436850Y-13265150D02*
X15398750Y-13303250D01*
X15474950Y-11918950D02*
X15513050Y-11957050D01*
X15513050Y-11918950D02*
X15474950Y-11957050D01*
X15652750Y-13265150D02*
X15690850Y-13303250D01*
X15690850Y-13265150D02*
X15652750Y-13303250D01*
X15728950Y-11918950D02*
X15767050Y-11957050D01*
X15767050Y-11918950D02*
X15728950Y-11957050D01*
X15906750Y-13265150D02*
X15944850Y-13303250D01*
X15944850Y-13265150D02*
X15906750Y-13303250D01*
X15982950Y-11918950D02*
X16021050Y-11957050D01*
X16021050Y-11918950D02*
X15982950Y-11957050D01*
X16109950Y-8362950D02*
X16148050Y-8401050D01*
X16148050Y-8362950D02*
X16109950Y-8401050D01*
X16236950Y-11918950D02*
X16275050Y-11957050D01*
X16275050Y-11918950D02*
X16236950Y-11957050D01*
X16389350Y-8362950D02*
X16427450Y-8401050D01*
X16427450Y-8362950D02*
X16389350Y-8401050D01*
X16490950Y-11918950D02*
X16529050Y-11957050D01*
X16529050Y-11918950D02*
X16490950Y-11957050D01*
X16617950Y-9785350D02*
X16656050Y-9823450D01*
X16656050Y-9785350D02*
X16617950Y-9823450D01*
X16744950Y-9886950D02*
X16783050Y-9925050D01*
X16783050Y-9886950D02*
X16744950Y-9925050D01*
X16744950Y-11918950D02*
X16783050Y-11957050D01*
X16783050Y-11918950D02*
X16744950Y-11957050D01*
X16998950Y-11918950D02*
X17037050Y-11957050D01*
X17037050Y-11918950D02*
X16998950Y-11957050D01*
X17252950Y-8286750D02*
X17291050Y-8324850D01*
X17291050Y-8286750D02*
X17252950Y-8324850D01*
X17252950Y-11918950D02*
X17291050Y-11957050D01*
X17291050Y-11918950D02*
X17252950Y-11957050D01*
X17506950Y-8210550D02*
X17545050Y-8248650D01*
X17545050Y-8210550D02*
X17506950Y-8248650D01*
X17887950Y-8693150D02*
X17926050Y-8731250D01*
X17926050Y-8693150D02*
X17887950Y-8731250D01*
X17887950Y-9048750D02*
X17926050Y-9086850D01*
X17926050Y-9048750D02*
X17887950Y-9086850D01*
X18218150Y-8794750D02*
X18256250Y-8832850D01*
X18256250Y-8794750D02*
X18218150Y-8832850D01*
X18319750Y-7143750D02*
X18357850Y-7181850D01*
X18357850Y-7143750D02*
X18319750Y-7181850D01*
X18319750Y-7727950D02*
X18357850Y-7766050D01*
X18357850Y-7727950D02*
X18319750Y-7766050D01*
X18421350Y-8794750D02*
X18459450Y-8832850D01*
X18459450Y-8794750D02*
X18421350Y-8832850D01*
X18421350Y-11944350D02*
X18459450Y-11982450D01*
X18459450Y-11944350D02*
X18421350Y-11982450D01*
X18421350Y-13315950D02*
X18459450Y-13354050D01*
X18459450Y-13315950D02*
X18421350Y-13354050D01*
X18522950Y-9251950D02*
X18561050Y-9290050D01*
X18561050Y-9251950D02*
X18522950Y-9290050D01*
X18649950Y-11944350D02*
X18688050Y-11982450D01*
X18688050Y-11944350D02*
X18649950Y-11982450D01*
X18649950Y-13239750D02*
X18688050Y-13277850D01*
X18688050Y-13239750D02*
X18649950Y-13277850D01*
X18751550Y-11817350D02*
X18789650Y-11855450D01*
X18789650Y-11817350D02*
X18751550Y-11855450D01*
X18751600Y-13366750D02*
X18789700Y-13404850D01*
X18789700Y-13366750D02*
X18751600Y-13404850D01*
X18853150Y-11944350D02*
X18891250Y-11982450D01*
X18891250Y-11944350D02*
X18853150Y-11982450D01*
X18853150Y-13239750D02*
X18891250Y-13277850D01*
X18891250Y-13239750D02*
X18853150Y-13277850D01*
X18954750Y-8997950D02*
X18992850Y-9036050D01*
X18992850Y-8997950D02*
X18954750Y-9036050D01*
X18954750Y-11817350D02*
X18992850Y-11855450D01*
X18992850Y-11817350D02*
X18954750Y-11855450D01*
X18954750Y-13366750D02*
X18992850Y-13404850D01*
X18992850Y-13366750D02*
X18954750Y-13404850D01*
X19056350Y-9505950D02*
X19094450Y-9544050D01*
X19094450Y-9505950D02*
X19056350Y-9544050D01*
X19056350Y-11944350D02*
X19094450Y-11982450D01*
X19094450Y-11944350D02*
X19056350Y-11982450D01*
X19056350Y-13239750D02*
X19094450Y-13277850D01*
X19094450Y-13239750D02*
X19056350Y-13277850D01*
X19157950Y-11817350D02*
X19196050Y-11855450D01*
X19196050Y-11817350D02*
X19157950Y-11855450D01*
X19157950Y-13366750D02*
X19196050Y-13404850D01*
X19196050Y-13366750D02*
X19157950Y-13404850D01*
X19259550Y-11944350D02*
X19297650Y-11982450D01*
X19297650Y-11944350D02*
X19259550Y-11982450D01*
X19259550Y-13239750D02*
X19297650Y-13277850D01*
X19297650Y-13239750D02*
X19259550Y-13277850D01*
X19284950Y-8235950D02*
X19323050Y-8274050D01*
X19323050Y-8235950D02*
X19284950Y-8274050D01*
X19284950Y-8743950D02*
X19323050Y-8782050D01*
X19323050Y-8743950D02*
X19284950Y-8782050D01*
X19361150Y-11817350D02*
X19399250Y-11855450D01*
X19399250Y-11817350D02*
X19361150Y-11855450D01*
X19361150Y-13366750D02*
X19399250Y-13404850D01*
X19399250Y-13366750D02*
X19361150Y-13404850D01*
X19462750Y-11944350D02*
X19500850Y-11982450D01*
X19500850Y-11944350D02*
X19462750Y-11982450D01*
X19462750Y-13239750D02*
X19500850Y-13277850D01*
X19500850Y-13239750D02*
X19462750Y-13277850D01*
X19564350Y-11817350D02*
X19602450Y-11855450D01*
X19602450Y-11817350D02*
X19564350Y-11855450D01*
X19564350Y-13366750D02*
X19602450Y-13404850D01*
X19602450Y-13366750D02*
X19564350Y-13404850D01*
X19665950Y-11944350D02*
X19704050Y-11982450D01*
X19704050Y-11944350D02*
X19665950Y-11982450D01*
X19665950Y-13239750D02*
X19704050Y-13277850D01*
X19704050Y-13239750D02*
X19665950Y-13277850D01*
X19716750Y-8489950D02*
X19754850Y-8528050D01*
X19754850Y-8489950D02*
X19716750Y-8528050D01*
X19767550Y-11817350D02*
X19805650Y-11855450D01*
X19805650Y-11817350D02*
X19767550Y-11855450D01*
X19767550Y-13366750D02*
X19805650Y-13404850D01*
X19805650Y-13366750D02*
X19767550Y-13404850D01*
X19869150Y-11944350D02*
X19907250Y-11982450D01*
X19907250Y-11944350D02*
X19869150Y-11982450D01*
X19869150Y-13239750D02*
X19907250Y-13277850D01*
X19907250Y-13239750D02*
X19869150Y-13277850D01*
X19970750Y-11817350D02*
X20008850Y-11855450D01*
X20008850Y-11817350D02*
X19970750Y-11855450D01*
X19970750Y-13366750D02*
X20008850Y-13404850D01*
X20008850Y-13366750D02*
X19970750Y-13404850D01*
X20072350Y-8235950D02*
X20110450Y-8274050D01*
X20110450Y-8235950D02*
X20072350Y-8274050D01*
X20072350Y-8489950D02*
X20110450Y-8528050D01*
X20110450Y-8489950D02*
X20072350Y-8528050D01*
X20072350Y-8743950D02*
X20110450Y-8782050D01*
X20110450Y-8743950D02*
X20072350Y-8782050D01*
X20072350Y-8997950D02*
X20110450Y-9036050D01*
X20110450Y-8997950D02*
X20072350Y-9036050D01*
X20072350Y-9251950D02*
X20110450Y-9290050D01*
X20110450Y-9251950D02*
X20072350Y-9290050D01*
X20072350Y-9505950D02*
X20110450Y-9544050D01*
X20110450Y-9505950D02*
X20072350Y-9544050D01*
X20072350Y-11944350D02*
X20110450Y-11982450D01*
X20110450Y-11944350D02*
X20072350Y-11982450D01*
X20072350Y-13239750D02*
X20110450Y-13277850D01*
X20110450Y-13239750D02*
X20072350Y-13277850D01*
X20427950Y-11918950D02*
X20466050Y-11957050D01*
X20466050Y-11918950D02*
X20427950Y-11957050D01*
X20427950Y-12782550D02*
X20466050Y-12820650D01*
X20466050Y-12782550D02*
X20427950Y-12820650D01*
X20681950Y-11918950D02*
X20720050Y-11957050D01*
X20720050Y-11918950D02*
X20681950Y-11957050D01*
X20681950Y-12706350D02*
X20720050Y-12744450D01*
X20720050Y-12706350D02*
X20681950Y-12744450D01*
X20808950Y-13087350D02*
X20847050Y-13125450D01*
X20847050Y-13087350D02*
X20808950Y-13125450D01*
X20808950Y-13265150D02*
X20847050Y-13303250D01*
X20847050Y-13265150D02*
X20808950Y-13303250D01*
X20935950Y-11918950D02*
X20974050Y-11957050D01*
X20974050Y-11918950D02*
X20935950Y-11957050D01*
X20935950Y-12630150D02*
X20974050Y-12668250D01*
X20974050Y-12630150D02*
X20935950Y-12668250D01*
X21062950Y-13011150D02*
X21101050Y-13049250D01*
X21101050Y-13011150D02*
X21062950Y-13049250D01*
X21062950Y-13265150D02*
X21101050Y-13303250D01*
X21101050Y-13265150D02*
X21062950Y-13303250D01*
X21189950Y-11918950D02*
X21228050Y-11957050D01*
X21228050Y-11918950D02*
X21189950Y-11957050D01*
X21189950Y-13163550D02*
X21228050Y-13201650D01*
X21228050Y-13163550D02*
X21189950Y-13201650D01*
X21316950Y-12934950D02*
X21355050Y-12973050D01*
X21355050Y-12934950D02*
X21316950Y-12973050D01*
X21316950Y-13163550D02*
X21355050Y-13201650D01*
X21355050Y-13163550D02*
X21316950Y-13201650D01*
X21443950Y-11918950D02*
X21482050Y-11957050D01*
X21482050Y-11918950D02*
X21443950Y-11957050D01*
X21443950Y-13087350D02*
X21482050Y-13125450D01*
X21482050Y-13087350D02*
X21443950Y-13125450D01*
X21545550Y-10267950D02*
X21583650Y-10306050D01*
X21583650Y-10267950D02*
X21545550Y-10306050D01*
X21570950Y-12858750D02*
X21609050Y-12896850D01*
X21609050Y-12858750D02*
X21570950Y-12896850D01*
X21570950Y-13087350D02*
X21609050Y-13125450D01*
X21609050Y-13087350D02*
X21570950Y-13125450D01*
X21697950Y-11918950D02*
X21736050Y-11957050D01*
X21736050Y-11918950D02*
X21697950Y-11957050D01*
X21697950Y-13011150D02*
X21736050Y-13049250D01*
X21736050Y-13011150D02*
X21697950Y-13049250D01*
X21824950Y-12782550D02*
X21863050Y-12820650D01*
X21863050Y-12782550D02*
X21824950Y-12820650D01*
X21824950Y-13011150D02*
X21863050Y-13049250D01*
X21863050Y-13011150D02*
X21824950Y-13049250D01*
X21951950Y-11918950D02*
X21990050Y-11957050D01*
X21990050Y-11918950D02*
X21951950Y-11957050D01*
X21951950Y-12934950D02*
X21990050Y-12973050D01*
X21990050Y-12934950D02*
X21951950Y-12973050D01*
X22053550Y-10267950D02*
X22091650Y-10306050D01*
X22091650Y-10267950D02*
X22053550Y-10306050D01*
X22078950Y-12706350D02*
X22117050Y-12744450D01*
X22117050Y-12706350D02*
X22078950Y-12744450D01*
X22078950Y-12934950D02*
X22117050Y-12973050D01*
X22117050Y-12934950D02*
X22078950Y-12973050D01*
X22205950Y-11918950D02*
X22244050Y-11957050D01*
X22244050Y-11918950D02*
X22205950Y-11957050D01*
X22205950Y-12858750D02*
X22244050Y-12896850D01*
X22244050Y-12858750D02*
X22205950Y-12896850D01*
X22459950Y-11918950D02*
X22498050Y-11957050D01*
X22498050Y-11918950D02*
X22459950Y-11957050D01*
X22459950Y-12172950D02*
X22498050Y-12211050D01*
X22498050Y-12172950D02*
X22459950Y-12211050D01*
X22713950Y-11918950D02*
X22752050Y-11957050D01*
X22752050Y-11918950D02*
X22713950Y-11957050D01*
X22713950Y-12096750D02*
X22752050Y-12134850D01*
X22752050Y-12096750D02*
X22713950Y-12134850D01*
X22840950Y-12477750D02*
X22879050Y-12515850D01*
X22879050Y-12477750D02*
X22840950Y-12515850D01*
X22840950Y-12630150D02*
X22879050Y-12668250D01*
X22879050Y-12630150D02*
X22840950Y-12668250D01*
X23094950Y-12401550D02*
X23133050Y-12439650D01*
X23133050Y-12401550D02*
X23094950Y-12439650D01*
X23094950Y-12630150D02*
X23133050Y-12668250D01*
X23133050Y-12630150D02*
X23094950Y-12668250D01*
X23221950Y-11918950D02*
X23260050Y-11957050D01*
X23260050Y-11918950D02*
X23221950Y-11957050D01*
X23221950Y-12553950D02*
X23260050Y-12592050D01*
X23260050Y-12553950D02*
X23221950Y-12592050D01*
X23348950Y-12325350D02*
X23387050Y-12363450D01*
X23387050Y-12325350D02*
X23348950Y-12363450D01*
X23348950Y-12553950D02*
X23387050Y-12592050D01*
X23387050Y-12553950D02*
X23348950Y-12592050D01*
X23475950Y-11918950D02*
X23514050Y-11957050D01*
X23514050Y-11918950D02*
X23475950Y-11957050D01*
X23475950Y-12477750D02*
X23514050Y-12515850D01*
X23514050Y-12477750D02*
X23475950Y-12515850D01*
X23602950Y-12249150D02*
X23641050Y-12287250D01*
X23641050Y-12249150D02*
X23602950Y-12287250D01*
X23602950Y-12477750D02*
X23641050Y-12515850D01*
X23641050Y-12477750D02*
X23602950Y-12515850D01*
X23729950Y-11918950D02*
X23768050Y-11957050D01*
X23768050Y-11918950D02*
X23729950Y-11957050D01*
X23729950Y-12401550D02*
X23768050Y-12439650D01*
X23768050Y-12401550D02*
X23729950Y-12439650D01*
X23856950Y-12172950D02*
X23895050Y-12211050D01*
X23895050Y-12172950D02*
X23856950Y-12211050D01*
X23856950Y-12401550D02*
X23895050Y-12439650D01*
X23895050Y-12401550D02*
X23856950Y-12439650D01*
X23983950Y-11918950D02*
X24022050Y-11957050D01*
X24022050Y-11918950D02*
X23983950Y-11957050D01*
X23983950Y-12325350D02*
X24022050Y-12363450D01*
X24022050Y-12325350D02*
X23983950Y-12363450D01*
X24110950Y-5619750D02*
X24149050Y-5657850D01*
X24149050Y-5619750D02*
X24110950Y-5657850D01*
X24110950Y-12096750D02*
X24149050Y-12134850D01*
X24149050Y-12096750D02*
X24110950Y-12134850D01*
X24110950Y-12325350D02*
X24149050Y-12363450D01*
X24149050Y-12325350D02*
X24110950Y-12363450D01*
X24237950Y-11918950D02*
X24276050Y-11957050D01*
X24276050Y-11918950D02*
X24237950Y-11957050D01*
X24237950Y-12249150D02*
X24276050Y-12287250D01*
X24276050Y-12249150D02*
X24237950Y-12287250D01*
X24364950Y-5619750D02*
X24403050Y-5657850D01*
X24403050Y-5619750D02*
X24364950Y-5657850D01*
D13*
X5628000Y-7874000D02*
G75*
G03*
X5628000Y-7874000I-40000J0D01*
G01*
X5628000Y-8374000D02*
G75*
G03*
X5628000Y-8374000I-40000J0D01*
G01*
X5628000Y-9398000D02*
G75*
G03*
X5628000Y-9398000I-40000J0D01*
G01*
X5628000Y-9898000D02*
G75*
G03*
X5628000Y-9898000I-40000J0D01*
G01*
X5628000Y-10922000D02*
G75*
G03*
X5628000Y-10922000I-40000J0D01*
G01*
X5628000Y-11422000D02*
G75*
G03*
X5628000Y-11422000I-40000J0D01*
G01*
X6136000Y-7874000D02*
G75*
G03*
X6136000Y-7874000I-40000J0D01*
G01*
X6136000Y-8636000D02*
G75*
G03*
X6136000Y-8636000I-40000J0D01*
G01*
X6136000Y-9398000D02*
G75*
G03*
X6136000Y-9398000I-40000J0D01*
G01*
X6136000Y-10160000D02*
G75*
G03*
X6136000Y-10160000I-40000J0D01*
G01*
X6136000Y-10922000D02*
G75*
G03*
X6136000Y-10922000I-40000J0D01*
G01*
X6136000Y-11684000D02*
G75*
G03*
X6136000Y-11684000I-40000J0D01*
G01*
X6390000Y-7874000D02*
G75*
G03*
X6390000Y-7874000I-40000J0D01*
G01*
X6390000Y-8636000D02*
G75*
G03*
X6390000Y-8636000I-40000J0D01*
G01*
X6390000Y-9398000D02*
G75*
G03*
X6390000Y-9398000I-40000J0D01*
G01*
X6390000Y-10160000D02*
G75*
G03*
X6390000Y-10160000I-40000J0D01*
G01*
X6390000Y-10922000D02*
G75*
G03*
X6390000Y-10922000I-40000J0D01*
G01*
X6390000Y-11684000D02*
G75*
G03*
X6390000Y-11684000I-40000J0D01*
G01*
X6644000Y-5969000D02*
G75*
G03*
X6644000Y-5969000I-40000J0D01*
G01*
X6644000Y-6477000D02*
G75*
G03*
X6644000Y-6477000I-40000J0D01*
G01*
X6644000Y-7874000D02*
G75*
G03*
X6644000Y-7874000I-40000J0D01*
G01*
X6644000Y-8636000D02*
G75*
G03*
X6644000Y-8636000I-40000J0D01*
G01*
X6644000Y-9398000D02*
G75*
G03*
X6644000Y-9398000I-40000J0D01*
G01*
X6644000Y-10160000D02*
G75*
G03*
X6644000Y-10160000I-40000J0D01*
G01*
X6644000Y-10922000D02*
G75*
G03*
X6644000Y-10922000I-40000J0D01*
G01*
X6644000Y-11684000D02*
G75*
G03*
X6644000Y-11684000I-40000J0D01*
G01*
X6898000Y-7874000D02*
G75*
G03*
X6898000Y-7874000I-40000J0D01*
G01*
X6898000Y-8636000D02*
G75*
G03*
X6898000Y-8636000I-40000J0D01*
G01*
X6898000Y-9398000D02*
G75*
G03*
X6898000Y-9398000I-40000J0D01*
G01*
X6898000Y-10160000D02*
G75*
G03*
X6898000Y-10160000I-40000J0D01*
G01*
X6898000Y-10922000D02*
G75*
G03*
X6898000Y-10922000I-40000J0D01*
G01*
X6898000Y-11684000D02*
G75*
G03*
X6898000Y-11684000I-40000J0D01*
G01*
X7152000Y-7874000D02*
G75*
G03*
X7152000Y-7874000I-40000J0D01*
G01*
X7152000Y-8636000D02*
G75*
G03*
X7152000Y-8636000I-40000J0D01*
G01*
X7152000Y-9398000D02*
G75*
G03*
X7152000Y-9398000I-40000J0D01*
G01*
X7152000Y-10160000D02*
G75*
G03*
X7152000Y-10160000I-40000J0D01*
G01*
X7152000Y-10922000D02*
G75*
G03*
X7152000Y-10922000I-40000J0D01*
G01*
X7152000Y-11684000D02*
G75*
G03*
X7152000Y-11684000I-40000J0D01*
G01*
X7406000Y-7874000D02*
G75*
G03*
X7406000Y-7874000I-40000J0D01*
G01*
X7406000Y-8636000D02*
G75*
G03*
X7406000Y-8636000I-40000J0D01*
G01*
X7406000Y-9398000D02*
G75*
G03*
X7406000Y-9398000I-40000J0D01*
G01*
X7406000Y-10160000D02*
G75*
G03*
X7406000Y-10160000I-40000J0D01*
G01*
X7406000Y-10922000D02*
G75*
G03*
X7406000Y-10922000I-40000J0D01*
G01*
X7406000Y-11684000D02*
G75*
G03*
X7406000Y-11684000I-40000J0D01*
G01*
X7406000Y-12319000D02*
G75*
G03*
X7406000Y-12319000I-40000J0D01*
G01*
X7406000Y-13335000D02*
G75*
G03*
X7406000Y-13335000I-40000J0D01*
G01*
X7660000Y-5969000D02*
G75*
G03*
X7660000Y-5969000I-40000J0D01*
G01*
X7660000Y-6477000D02*
G75*
G03*
X7660000Y-6477000I-40000J0D01*
G01*
X7660000Y-7874000D02*
G75*
G03*
X7660000Y-7874000I-40000J0D01*
G01*
X7660000Y-8636000D02*
G75*
G03*
X7660000Y-8636000I-40000J0D01*
G01*
X7660000Y-9398000D02*
G75*
G03*
X7660000Y-9398000I-40000J0D01*
G01*
X7660000Y-10160000D02*
G75*
G03*
X7660000Y-10160000I-40000J0D01*
G01*
X7660000Y-10922000D02*
G75*
G03*
X7660000Y-10922000I-40000J0D01*
G01*
X7660000Y-11684000D02*
G75*
G03*
X7660000Y-11684000I-40000J0D01*
G01*
X7787000Y-12319000D02*
G75*
G03*
X7787000Y-12319000I-40000J0D01*
G01*
X7787000Y-13335000D02*
G75*
G03*
X7787000Y-13335000I-40000J0D01*
G01*
X8676000Y-7874000D02*
G75*
G03*
X8676000Y-7874000I-40000J0D01*
G01*
X8676000Y-8374000D02*
G75*
G03*
X8676000Y-8374000I-40000J0D01*
G01*
X8676000Y-9398000D02*
G75*
G03*
X8676000Y-9398000I-40000J0D01*
G01*
X8676000Y-9898000D02*
G75*
G03*
X8676000Y-9898000I-40000J0D01*
G01*
X8676000Y-10922000D02*
G75*
G03*
X8676000Y-10922000I-40000J0D01*
G01*
X8676000Y-11422000D02*
G75*
G03*
X8676000Y-11422000I-40000J0D01*
G01*
X8676000Y-12446000D02*
G75*
G03*
X8676000Y-12446000I-40000J0D01*
G01*
X8676000Y-12946000D02*
G75*
G03*
X8676000Y-12946000I-40000J0D01*
G01*
X8726800Y-5969000D02*
G75*
G03*
X8726800Y-5969000I-40000J0D01*
G01*
X8726800Y-6477000D02*
G75*
G03*
X8726800Y-6477000I-40000J0D01*
G01*
X9184000Y-7874000D02*
G75*
G03*
X9184000Y-7874000I-40000J0D01*
G01*
X9184000Y-8636000D02*
G75*
G03*
X9184000Y-8636000I-40000J0D01*
G01*
X9184000Y-9398000D02*
G75*
G03*
X9184000Y-9398000I-40000J0D01*
G01*
X9184000Y-10160000D02*
G75*
G03*
X9184000Y-10160000I-40000J0D01*
G01*
X9184000Y-10922000D02*
G75*
G03*
X9184000Y-10922000I-40000J0D01*
G01*
X9184000Y-11684000D02*
G75*
G03*
X9184000Y-11684000I-40000J0D01*
G01*
X9184000Y-12446000D02*
G75*
G03*
X9184000Y-12446000I-40000J0D01*
G01*
X9184000Y-13208000D02*
G75*
G03*
X9184000Y-13208000I-40000J0D01*
G01*
X9438000Y-7874000D02*
G75*
G03*
X9438000Y-7874000I-40000J0D01*
G01*
X9438000Y-8636000D02*
G75*
G03*
X9438000Y-8636000I-40000J0D01*
G01*
X9438000Y-9398000D02*
G75*
G03*
X9438000Y-9398000I-40000J0D01*
G01*
X9438000Y-10160000D02*
G75*
G03*
X9438000Y-10160000I-40000J0D01*
G01*
X9438000Y-10922000D02*
G75*
G03*
X9438000Y-10922000I-40000J0D01*
G01*
X9438000Y-11684000D02*
G75*
G03*
X9438000Y-11684000I-40000J0D01*
G01*
X9438000Y-12446000D02*
G75*
G03*
X9438000Y-12446000I-40000J0D01*
G01*
X9438000Y-13208000D02*
G75*
G03*
X9438000Y-13208000I-40000J0D01*
G01*
X9692000Y-7874000D02*
G75*
G03*
X9692000Y-7874000I-40000J0D01*
G01*
X9692000Y-8636000D02*
G75*
G03*
X9692000Y-8636000I-40000J0D01*
G01*
X9692000Y-9398000D02*
G75*
G03*
X9692000Y-9398000I-40000J0D01*
G01*
X9692000Y-10160000D02*
G75*
G03*
X9692000Y-10160000I-40000J0D01*
G01*
X9692000Y-10922000D02*
G75*
G03*
X9692000Y-10922000I-40000J0D01*
G01*
X9692000Y-11684000D02*
G75*
G03*
X9692000Y-11684000I-40000J0D01*
G01*
X9692000Y-12446000D02*
G75*
G03*
X9692000Y-12446000I-40000J0D01*
G01*
X9692000Y-13208000D02*
G75*
G03*
X9692000Y-13208000I-40000J0D01*
G01*
X9742800Y-5969000D02*
G75*
G03*
X9742800Y-5969000I-40000J0D01*
G01*
X9742800Y-6477000D02*
G75*
G03*
X9742800Y-6477000I-40000J0D01*
G01*
X9793600Y-13635038D02*
G75*
G03*
X9793600Y-13635038I-40000J0D01*
G01*
X9793600Y-13885038D02*
G75*
G03*
X9793600Y-13885038I-40000J0D01*
G01*
X9946000Y-7874000D02*
G75*
G03*
X9946000Y-7874000I-40000J0D01*
G01*
X9946000Y-8636000D02*
G75*
G03*
X9946000Y-8636000I-40000J0D01*
G01*
X9946000Y-9398000D02*
G75*
G03*
X9946000Y-9398000I-40000J0D01*
G01*
X9946000Y-10160000D02*
G75*
G03*
X9946000Y-10160000I-40000J0D01*
G01*
X9946000Y-10922000D02*
G75*
G03*
X9946000Y-10922000I-40000J0D01*
G01*
X9946000Y-11684000D02*
G75*
G03*
X9946000Y-11684000I-40000J0D01*
G01*
X9946000Y-12446000D02*
G75*
G03*
X9946000Y-12446000I-40000J0D01*
G01*
X9946000Y-13208000D02*
G75*
G03*
X9946000Y-13208000I-40000J0D01*
G01*
X10200000Y-7874000D02*
G75*
G03*
X10200000Y-7874000I-40000J0D01*
G01*
X10200000Y-8636000D02*
G75*
G03*
X10200000Y-8636000I-40000J0D01*
G01*
X10200000Y-9398000D02*
G75*
G03*
X10200000Y-9398000I-40000J0D01*
G01*
X10200000Y-10160000D02*
G75*
G03*
X10200000Y-10160000I-40000J0D01*
G01*
X10200000Y-10922000D02*
G75*
G03*
X10200000Y-10922000I-40000J0D01*
G01*
X10200000Y-11684000D02*
G75*
G03*
X10200000Y-11684000I-40000J0D01*
G01*
X10200000Y-12446000D02*
G75*
G03*
X10200000Y-12446000I-40000J0D01*
G01*
X10200000Y-13208000D02*
G75*
G03*
X10200000Y-13208000I-40000J0D01*
G01*
X10454000Y-7874000D02*
G75*
G03*
X10454000Y-7874000I-40000J0D01*
G01*
X10454000Y-8636000D02*
G75*
G03*
X10454000Y-8636000I-40000J0D01*
G01*
X10454000Y-9398000D02*
G75*
G03*
X10454000Y-9398000I-40000J0D01*
G01*
X10454000Y-10160000D02*
G75*
G03*
X10454000Y-10160000I-40000J0D01*
G01*
X10454000Y-10922000D02*
G75*
G03*
X10454000Y-10922000I-40000J0D01*
G01*
X10454000Y-11684000D02*
G75*
G03*
X10454000Y-11684000I-40000J0D01*
G01*
X10454000Y-12446000D02*
G75*
G03*
X10454000Y-12446000I-40000J0D01*
G01*
X10454000Y-13208000D02*
G75*
G03*
X10454000Y-13208000I-40000J0D01*
G01*
X10708000Y-7874000D02*
G75*
G03*
X10708000Y-7874000I-40000J0D01*
G01*
X10708000Y-8636000D02*
G75*
G03*
X10708000Y-8636000I-40000J0D01*
G01*
X10708000Y-9398000D02*
G75*
G03*
X10708000Y-9398000I-40000J0D01*
G01*
X10708000Y-10160000D02*
G75*
G03*
X10708000Y-10160000I-40000J0D01*
G01*
X10708000Y-10922000D02*
G75*
G03*
X10708000Y-10922000I-40000J0D01*
G01*
X10708000Y-11684000D02*
G75*
G03*
X10708000Y-11684000I-40000J0D01*
G01*
X10708000Y-12446000D02*
G75*
G03*
X10708000Y-12446000I-40000J0D01*
G01*
X10708000Y-13208000D02*
G75*
G03*
X10708000Y-13208000I-40000J0D01*
G01*
X10962000Y-7874000D02*
G75*
G03*
X10962000Y-7874000I-40000J0D01*
G01*
X10962000Y-8636000D02*
G75*
G03*
X10962000Y-8636000I-40000J0D01*
G01*
X10962000Y-9398000D02*
G75*
G03*
X10962000Y-9398000I-40000J0D01*
G01*
X10962000Y-10160000D02*
G75*
G03*
X10962000Y-10160000I-40000J0D01*
G01*
X10962000Y-10922000D02*
G75*
G03*
X10962000Y-10922000I-40000J0D01*
G01*
X10962000Y-11684000D02*
G75*
G03*
X10962000Y-11684000I-40000J0D01*
G01*
X10962000Y-12446000D02*
G75*
G03*
X10962000Y-12446000I-40000J0D01*
G01*
X10962000Y-13208000D02*
G75*
G03*
X10962000Y-13208000I-40000J0D01*
G01*
X11702600Y-6578600D02*
G75*
G03*
X11702600Y-6578600I-40000J0D01*
G01*
X11952600Y-6578600D02*
G75*
G03*
X11952600Y-6578600I-40000J0D01*
G01*
X12994000Y-6350000D02*
G75*
G03*
X12994000Y-6350000I-40000J0D01*
G01*
X12994000Y-6850000D02*
G75*
G03*
X12994000Y-6850000I-40000J0D01*
G01*
X12994000Y-7899400D02*
G75*
G03*
X12994000Y-7899400I-40000J0D01*
G01*
X12994000Y-8399400D02*
G75*
G03*
X12994000Y-8399400I-40000J0D01*
G01*
X12994000Y-9406000D02*
G75*
G03*
X12994000Y-9406000I-40000J0D01*
G01*
X12994000Y-9906000D02*
G75*
G03*
X12994000Y-9906000I-40000J0D01*
G01*
X13248000Y-10922000D02*
G75*
G03*
X13248000Y-10922000I-40000J0D01*
G01*
X13502000Y-6350000D02*
G75*
G03*
X13502000Y-6350000I-40000J0D01*
G01*
X13502000Y-7112000D02*
G75*
G03*
X13502000Y-7112000I-40000J0D01*
G01*
X13502000Y-7899400D02*
G75*
G03*
X13502000Y-7899400I-40000J0D01*
G01*
X13502000Y-8661400D02*
G75*
G03*
X13502000Y-8661400I-40000J0D01*
G01*
X13502000Y-9398000D02*
G75*
G03*
X13502000Y-9398000I-40000J0D01*
G01*
X13502000Y-10160000D02*
G75*
G03*
X13502000Y-10160000I-40000J0D01*
G01*
X13502000Y-10922000D02*
G75*
G03*
X13502000Y-10922000I-40000J0D01*
G01*
X13756000Y-6350000D02*
G75*
G03*
X13756000Y-6350000I-40000J0D01*
G01*
X13756000Y-7112000D02*
G75*
G03*
X13756000Y-7112000I-40000J0D01*
G01*
X13756000Y-7899400D02*
G75*
G03*
X13756000Y-7899400I-40000J0D01*
G01*
X13756000Y-8661400D02*
G75*
G03*
X13756000Y-8661400I-40000J0D01*
G01*
X13756000Y-9398000D02*
G75*
G03*
X13756000Y-9398000I-40000J0D01*
G01*
X13756000Y-10160000D02*
G75*
G03*
X13756000Y-10160000I-40000J0D01*
G01*
X13756000Y-10922000D02*
G75*
G03*
X13756000Y-10922000I-40000J0D01*
G01*
X14010000Y-6350000D02*
G75*
G03*
X14010000Y-6350000I-40000J0D01*
G01*
X14010000Y-7112000D02*
G75*
G03*
X14010000Y-7112000I-40000J0D01*
G01*
X14010000Y-7899400D02*
G75*
G03*
X14010000Y-7899400I-40000J0D01*
G01*
X14010000Y-8661400D02*
G75*
G03*
X14010000Y-8661400I-40000J0D01*
G01*
X14010000Y-9398000D02*
G75*
G03*
X14010000Y-9398000I-40000J0D01*
G01*
X14010000Y-10160000D02*
G75*
G03*
X14010000Y-10160000I-40000J0D01*
G01*
X14010000Y-10922000D02*
G75*
G03*
X14010000Y-10922000I-40000J0D01*
G01*
X14264000Y-6350000D02*
G75*
G03*
X14264000Y-6350000I-40000J0D01*
G01*
X14264000Y-7112000D02*
G75*
G03*
X14264000Y-7112000I-40000J0D01*
G01*
X14264000Y-7899400D02*
G75*
G03*
X14264000Y-7899400I-40000J0D01*
G01*
X14264000Y-8661400D02*
G75*
G03*
X14264000Y-8661400I-40000J0D01*
G01*
X14264000Y-9398000D02*
G75*
G03*
X14264000Y-9398000I-40000J0D01*
G01*
X14264000Y-10160000D02*
G75*
G03*
X14264000Y-10160000I-40000J0D01*
G01*
X14264000Y-10922000D02*
G75*
G03*
X14264000Y-10922000I-40000J0D01*
G01*
X14518000Y-6350000D02*
G75*
G03*
X14518000Y-6350000I-40000J0D01*
G01*
X14518000Y-7112000D02*
G75*
G03*
X14518000Y-7112000I-40000J0D01*
G01*
X14518000Y-7899400D02*
G75*
G03*
X14518000Y-7899400I-40000J0D01*
G01*
X14518000Y-8661400D02*
G75*
G03*
X14518000Y-8661400I-40000J0D01*
G01*
X14518000Y-9398000D02*
G75*
G03*
X14518000Y-9398000I-40000J0D01*
G01*
X14518000Y-10160000D02*
G75*
G03*
X14518000Y-10160000I-40000J0D01*
G01*
X14518000Y-10922000D02*
G75*
G03*
X14518000Y-10922000I-40000J0D01*
G01*
X14772000Y-6350000D02*
G75*
G03*
X14772000Y-6350000I-40000J0D01*
G01*
X14772000Y-7112000D02*
G75*
G03*
X14772000Y-7112000I-40000J0D01*
G01*
X14772000Y-7899400D02*
G75*
G03*
X14772000Y-7899400I-40000J0D01*
G01*
X14772000Y-8661400D02*
G75*
G03*
X14772000Y-8661400I-40000J0D01*
G01*
X14772000Y-9398000D02*
G75*
G03*
X14772000Y-9398000I-40000J0D01*
G01*
X14772000Y-10160000D02*
G75*
G03*
X14772000Y-10160000I-40000J0D01*
G01*
X14772000Y-10922000D02*
G75*
G03*
X14772000Y-10922000I-40000J0D01*
G01*
X15026000Y-6350000D02*
G75*
G03*
X15026000Y-6350000I-40000J0D01*
G01*
X15026000Y-7112000D02*
G75*
G03*
X15026000Y-7112000I-40000J0D01*
G01*
X15026000Y-7899400D02*
G75*
G03*
X15026000Y-7899400I-40000J0D01*
G01*
X15026000Y-8661400D02*
G75*
G03*
X15026000Y-8661400I-40000J0D01*
G01*
X15026000Y-9398000D02*
G75*
G03*
X15026000Y-9398000I-40000J0D01*
G01*
X15026000Y-10160000D02*
G75*
G03*
X15026000Y-10160000I-40000J0D01*
G01*
X15026000Y-10922000D02*
G75*
G03*
X15026000Y-10922000I-40000J0D01*
G01*
X15280000Y-10922000D02*
G75*
G03*
X15280000Y-10922000I-40000J0D01*
G01*
X15534000Y-7899400D02*
G75*
G03*
X15534000Y-7899400I-40000J0D01*
G01*
X15534000Y-8399400D02*
G75*
G03*
X15534000Y-8399400I-40000J0D01*
G01*
X15534000Y-9398000D02*
G75*
G03*
X15534000Y-9398000I-40000J0D01*
G01*
X15534000Y-9898000D02*
G75*
G03*
X15534000Y-9898000I-40000J0D01*
G01*
X16042000Y-7899400D02*
G75*
G03*
X16042000Y-7899400I-40000J0D01*
G01*
X16042000Y-8661400D02*
G75*
G03*
X16042000Y-8661400I-40000J0D01*
G01*
X16042000Y-9398000D02*
G75*
G03*
X16042000Y-9398000I-40000J0D01*
G01*
X16042000Y-10160000D02*
G75*
G03*
X16042000Y-10160000I-40000J0D01*
G01*
X16042000Y-10922000D02*
G75*
G03*
X16042000Y-10922000I-40000J0D01*
G01*
X16296000Y-7899400D02*
G75*
G03*
X16296000Y-7899400I-40000J0D01*
G01*
X16296000Y-8661400D02*
G75*
G03*
X16296000Y-8661400I-40000J0D01*
G01*
X16296000Y-9398000D02*
G75*
G03*
X16296000Y-9398000I-40000J0D01*
G01*
X16296000Y-10160000D02*
G75*
G03*
X16296000Y-10160000I-40000J0D01*
G01*
X16296000Y-10922000D02*
G75*
G03*
X16296000Y-10922000I-40000J0D01*
G01*
X16550000Y-7899400D02*
G75*
G03*
X16550000Y-7899400I-40000J0D01*
G01*
X16550000Y-8661400D02*
G75*
G03*
X16550000Y-8661400I-40000J0D01*
G01*
X16550000Y-9398000D02*
G75*
G03*
X16550000Y-9398000I-40000J0D01*
G01*
X16550000Y-10160000D02*
G75*
G03*
X16550000Y-10160000I-40000J0D01*
G01*
X16550000Y-10922000D02*
G75*
G03*
X16550000Y-10922000I-40000J0D01*
G01*
X16804000Y-7899400D02*
G75*
G03*
X16804000Y-7899400I-40000J0D01*
G01*
X16804000Y-8661400D02*
G75*
G03*
X16804000Y-8661400I-40000J0D01*
G01*
X16804000Y-9398000D02*
G75*
G03*
X16804000Y-9398000I-40000J0D01*
G01*
X16804000Y-10160000D02*
G75*
G03*
X16804000Y-10160000I-40000J0D01*
G01*
X16804000Y-10922000D02*
G75*
G03*
X16804000Y-10922000I-40000J0D01*
G01*
X17058000Y-7899400D02*
G75*
G03*
X17058000Y-7899400I-40000J0D01*
G01*
X17058000Y-8661400D02*
G75*
G03*
X17058000Y-8661400I-40000J0D01*
G01*
X17058000Y-9398000D02*
G75*
G03*
X17058000Y-9398000I-40000J0D01*
G01*
X17058000Y-10160000D02*
G75*
G03*
X17058000Y-10160000I-40000J0D01*
G01*
X17058000Y-10922000D02*
G75*
G03*
X17058000Y-10922000I-40000J0D01*
G01*
X17312000Y-7899400D02*
G75*
G03*
X17312000Y-7899400I-40000J0D01*
G01*
X17312000Y-8661400D02*
G75*
G03*
X17312000Y-8661400I-40000J0D01*
G01*
X17312000Y-9398000D02*
G75*
G03*
X17312000Y-9398000I-40000J0D01*
G01*
X17312000Y-10160000D02*
G75*
G03*
X17312000Y-10160000I-40000J0D01*
G01*
X17312000Y-10922000D02*
G75*
G03*
X17312000Y-10922000I-40000J0D01*
G01*
X17566000Y-7899400D02*
G75*
G03*
X17566000Y-7899400I-40000J0D01*
G01*
X17566000Y-8661400D02*
G75*
G03*
X17566000Y-8661400I-40000J0D01*
G01*
X17566000Y-9398000D02*
G75*
G03*
X17566000Y-9398000I-40000J0D01*
G01*
X17566000Y-10160000D02*
G75*
G03*
X17566000Y-10160000I-40000J0D01*
G01*
X17566000Y-10922000D02*
G75*
G03*
X17566000Y-10922000I-40000J0D01*
G01*
X17820000Y-10922000D02*
G75*
G03*
X17820000Y-10922000I-40000J0D01*
G01*
X18074000Y-10922000D02*
G75*
G03*
X18074000Y-10922000I-40000J0D01*
G01*
X18810600Y-7670800D02*
G75*
G03*
X18810600Y-7670800I-40000J0D01*
G01*
X19060600Y-7670800D02*
G75*
G03*
X19060600Y-7670800I-40000J0D01*
G01*
X20359500Y-7872500D02*
G75*
G03*
X20359500Y-7872500I-40000J0D01*
G01*
X20359500Y-8126500D02*
G75*
G03*
X20359500Y-8126500I-40000J0D01*
G01*
X20359500Y-8380500D02*
G75*
G03*
X20359500Y-8380500I-40000J0D01*
G01*
X20359500Y-8634500D02*
G75*
G03*
X20359500Y-8634500I-40000J0D01*
G01*
X20359500Y-8888500D02*
G75*
G03*
X20359500Y-8888500I-40000J0D01*
G01*
X20359500Y-9142500D02*
G75*
G03*
X20359500Y-9142500I-40000J0D01*
G01*
X20359500Y-9396500D02*
G75*
G03*
X20359500Y-9396500I-40000J0D01*
G01*
X20359500Y-9650500D02*
G75*
G03*
X20359500Y-9650500I-40000J0D01*
G01*
X20359500Y-9904500D02*
G75*
G03*
X20359500Y-9904500I-40000J0D01*
G01*
X20359500Y-10158500D02*
G75*
G03*
X20359500Y-10158500I-40000J0D01*
G01*
X20359500Y-10412500D02*
G75*
G03*
X20359500Y-10412500I-40000J0D01*
G01*
X20359500Y-10666500D02*
G75*
G03*
X20359500Y-10666500I-40000J0D01*
G01*
X20359500Y-10920500D02*
G75*
G03*
X20359500Y-10920500I-40000J0D01*
G01*
X20359500Y-11174500D02*
G75*
G03*
X20359500Y-11174500I-40000J0D01*
G01*
X20487000Y-5715000D02*
G75*
G03*
X20487000Y-5715000I-40000J0D01*
G01*
X20487000Y-6096000D02*
G75*
G03*
X20487000Y-6096000I-40000J0D01*
G01*
X20487000Y-6477000D02*
G75*
G03*
X20487000Y-6477000I-40000J0D01*
G01*
X21384000Y-6858000D02*
G75*
G03*
X21384000Y-6858000I-40000J0D01*
G01*
X21503000Y-5715000D02*
G75*
G03*
X21503000Y-5715000I-40000J0D01*
G01*
X21503000Y-6096000D02*
G75*
G03*
X21503000Y-6096000I-40000J0D01*
G01*
X21503000Y-6477000D02*
G75*
G03*
X21503000Y-6477000I-40000J0D01*
G01*
X21883500Y-7872500D02*
G75*
G03*
X21883500Y-7872500I-40000J0D01*
G01*
X21883500Y-8126500D02*
G75*
G03*
X21883500Y-8126500I-40000J0D01*
G01*
X21883500Y-8380500D02*
G75*
G03*
X21883500Y-8380500I-40000J0D01*
G01*
X21883500Y-8634500D02*
G75*
G03*
X21883500Y-8634500I-40000J0D01*
G01*
X21883500Y-8888500D02*
G75*
G03*
X21883500Y-8888500I-40000J0D01*
G01*
X21883500Y-9142500D02*
G75*
G03*
X21883500Y-9142500I-40000J0D01*
G01*
X21883500Y-9396500D02*
G75*
G03*
X21883500Y-9396500I-40000J0D01*
G01*
X21883500Y-9650500D02*
G75*
G03*
X21883500Y-9650500I-40000J0D01*
G01*
X21883500Y-9904500D02*
G75*
G03*
X21883500Y-9904500I-40000J0D01*
G01*
X21883500Y-10158500D02*
G75*
G03*
X21883500Y-10158500I-40000J0D01*
G01*
X21883500Y-10412500D02*
G75*
G03*
X21883500Y-10412500I-40000J0D01*
G01*
X21883500Y-10666500D02*
G75*
G03*
X21883500Y-10666500I-40000J0D01*
G01*
X21883500Y-10920500D02*
G75*
G03*
X21883500Y-10920500I-40000J0D01*
G01*
X21883500Y-11174500D02*
G75*
G03*
X21883500Y-11174500I-40000J0D01*
G01*
X21884000Y-6858000D02*
G75*
G03*
X21884000Y-6858000I-40000J0D01*
G01*
X23154000Y-7874000D02*
G75*
G03*
X23154000Y-7874000I-40000J0D01*
G01*
X23154000Y-8128000D02*
G75*
G03*
X23154000Y-8128000I-40000J0D01*
G01*
X23154000Y-8382000D02*
G75*
G03*
X23154000Y-8382000I-40000J0D01*
G01*
X23154000Y-8636000D02*
G75*
G03*
X23154000Y-8636000I-40000J0D01*
G01*
X23154000Y-8890000D02*
G75*
G03*
X23154000Y-8890000I-40000J0D01*
G01*
X23154000Y-9144000D02*
G75*
G03*
X23154000Y-9144000I-40000J0D01*
G01*
X23154000Y-9398000D02*
G75*
G03*
X23154000Y-9398000I-40000J0D01*
G01*
X23154000Y-9652000D02*
G75*
G03*
X23154000Y-9652000I-40000J0D01*
G01*
X23154000Y-9906000D02*
G75*
G03*
X23154000Y-9906000I-40000J0D01*
G01*
X23154000Y-10160000D02*
G75*
G03*
X23154000Y-10160000I-40000J0D01*
G01*
X23154000Y-10414000D02*
G75*
G03*
X23154000Y-10414000I-40000J0D01*
G01*
X23154000Y-10668000D02*
G75*
G03*
X23154000Y-10668000I-40000J0D01*
G01*
X23154000Y-10922000D02*
G75*
G03*
X23154000Y-10922000I-40000J0D01*
G01*
X23154000Y-11176000D02*
G75*
G03*
X23154000Y-11176000I-40000J0D01*
G01*
X24178000Y-6858000D02*
G75*
G03*
X24178000Y-6858000I-40000J0D01*
G01*
X24678000Y-6858000D02*
G75*
G03*
X24678000Y-6858000I-40000J0D01*
G01*
X24678000Y-7874000D02*
G75*
G03*
X24678000Y-7874000I-40000J0D01*
G01*
X24678000Y-8128000D02*
G75*
G03*
X24678000Y-8128000I-40000J0D01*
G01*
X24678000Y-8382000D02*
G75*
G03*
X24678000Y-8382000I-40000J0D01*
G01*
X24678000Y-8636000D02*
G75*
G03*
X24678000Y-8636000I-40000J0D01*
G01*
X24678000Y-8890000D02*
G75*
G03*
X24678000Y-8890000I-40000J0D01*
G01*
X24678000Y-9144000D02*
G75*
G03*
X24678000Y-9144000I-40000J0D01*
G01*
X24678000Y-9398000D02*
G75*
G03*
X24678000Y-9398000I-40000J0D01*
G01*
X24678000Y-9652000D02*
G75*
G03*
X24678000Y-9652000I-40000J0D01*
G01*
X24678000Y-9906000D02*
G75*
G03*
X24678000Y-9906000I-40000J0D01*
G01*
X24678000Y-10160000D02*
G75*
G03*
X24678000Y-10160000I-40000J0D01*
G01*
X24678000Y-10414000D02*
G75*
G03*
X24678000Y-10414000I-40000J0D01*
G01*
X24678000Y-10668000D02*
G75*
G03*
X24678000Y-10668000I-40000J0D01*
G01*
X24678000Y-10922000D02*
G75*
G03*
X24678000Y-10922000I-40000J0D01*
G01*
X24678000Y-11176000D02*
G75*
G03*
X24678000Y-11176000I-40000J0D01*
G01*
X24881200Y-11938000D02*
G75*
G03*
X24881200Y-11938000I-40000J0D01*
G01*
X24881200Y-12954000D02*
G75*
G03*
X24881200Y-12954000I-40000J0D01*
G01*
D14*
X23622000Y-6305000D02*
X23622000Y-6395000D01*
X23577000Y-6350000D02*
X23667000Y-6350000D01*
X23876000Y-6305000D02*
X23876000Y-6395000D01*
X23831000Y-6350000D02*
X23921000Y-6350000D01*
X24257000Y-6305000D02*
X24257000Y-6395000D01*
X24212000Y-6350000D02*
X24302000Y-6350000D01*
X24511000Y-6305000D02*
X24511000Y-6395000D01*
X24466000Y-6350000D02*
X24556000Y-6350000D01*
X24892000Y-6305000D02*
X24892000Y-6395000D01*
X24847000Y-6350000D02*
X24937000Y-6350000D01*
X25146000Y-6305000D02*
X25146000Y-6395000D01*
X25101000Y-6350000D02*
X25191000Y-6350000D01*
D10*
X6131356Y-5623356D02*
X6131356Y-5552644D01*
X6060644Y-5552644D01*
X6060644Y-5623356D01*
X6131356Y-5623356D01*
X6131356Y-5877356D02*
X6131356Y-5806644D01*
X6060644Y-5806644D01*
X6060644Y-5877356D01*
X6131356Y-5877356D01*
X6131356Y-6131356D02*
X6131356Y-6060644D01*
X6060644Y-6060644D01*
X6060644Y-6131356D01*
X6131356Y-6131356D01*
X6131356Y-6385356D02*
X6131356Y-6314644D01*
X6060644Y-6314644D01*
X6060644Y-6385356D01*
X6131356Y-6385356D01*
X6131356Y-6639356D02*
X6131356Y-6568644D01*
X6060644Y-6568644D01*
X6060644Y-6639356D01*
X6131356Y-6639356D01*
X6131356Y-6893356D02*
X6131356Y-6822644D01*
X6060644Y-6822644D01*
X6060644Y-6893356D01*
X6131356Y-6893356D01*
X6131356Y-14513356D02*
X6131356Y-14442644D01*
X6060644Y-14442644D01*
X6060644Y-14513356D01*
X6131356Y-14513356D01*
X6385356Y-14513356D02*
X6385356Y-14442644D01*
X6314644Y-14442644D01*
X6314644Y-14513356D01*
X6385356Y-14513356D01*
X6639356Y-12278156D02*
X6639356Y-12207444D01*
X6568644Y-12207444D01*
X6568644Y-12278156D01*
X6639356Y-12278156D01*
X6639356Y-12532156D02*
X6639356Y-12461444D01*
X6568644Y-12461444D01*
X6568644Y-12532156D01*
X6639356Y-12532156D01*
X6639356Y-13065556D02*
X6639356Y-12994844D01*
X6568644Y-12994844D01*
X6568644Y-13065556D01*
X6639356Y-13065556D01*
X6639356Y-13319556D02*
X6639356Y-13248844D01*
X6568644Y-13248844D01*
X6568644Y-13319556D01*
X6639356Y-13319556D01*
X6639356Y-14513356D02*
X6639356Y-14442644D01*
X6568644Y-14442644D01*
X6568644Y-14513356D01*
X6639356Y-14513356D01*
X6893356Y-14513356D02*
X6893356Y-14442644D01*
X6822644Y-14442644D01*
X6822644Y-14513356D01*
X6893356Y-14513356D01*
X7147356Y-14513356D02*
X7147356Y-14442644D01*
X7076644Y-14442644D01*
X7076644Y-14513356D01*
X7147356Y-14513356D01*
X7401356Y-14513356D02*
X7401356Y-14442644D01*
X7330644Y-14442644D01*
X7330644Y-14513356D01*
X7401356Y-14513356D01*
X7655356Y-14513356D02*
X7655356Y-14442644D01*
X7584644Y-14442644D01*
X7584644Y-14513356D01*
X7655356Y-14513356D01*
X7909356Y-14513356D02*
X7909356Y-14442644D01*
X7838644Y-14442644D01*
X7838644Y-14513356D01*
X7909356Y-14513356D01*
X8163356Y-14513356D02*
X8163356Y-14442644D01*
X8092644Y-14442644D01*
X8092644Y-14513356D01*
X8163356Y-14513356D01*
X8417356Y-14513356D02*
X8417356Y-14442644D01*
X8346644Y-14442644D01*
X8346644Y-14513356D01*
X8417356Y-14513356D01*
X8671356Y-10322356D02*
X8671356Y-10251644D01*
X8600644Y-10251644D01*
X8600644Y-10322356D01*
X8671356Y-10322356D01*
X8671356Y-10576356D02*
X8671356Y-10505644D01*
X8600644Y-10505644D01*
X8600644Y-10576356D01*
X8671356Y-10576356D01*
X8671356Y-11846356D02*
X8671356Y-11775644D01*
X8600644Y-11775644D01*
X8600644Y-11846356D01*
X8671356Y-11846356D01*
X8671356Y-12100356D02*
X8671356Y-12029644D01*
X8600644Y-12029644D01*
X8600644Y-12100356D01*
X8671356Y-12100356D01*
X8671356Y-14513356D02*
X8671356Y-14442644D01*
X8600644Y-14442644D01*
X8600644Y-14513356D01*
X8671356Y-14513356D01*
X8925356Y-14513356D02*
X8925356Y-14442644D01*
X8854644Y-14442644D01*
X8854644Y-14513356D01*
X8925356Y-14513356D01*
X9179356Y-14513356D02*
X9179356Y-14442644D01*
X9108644Y-14442644D01*
X9108644Y-14513356D01*
X9179356Y-14513356D01*
X9433356Y-14513356D02*
X9433356Y-14442644D01*
X9362644Y-14442644D01*
X9362644Y-14513356D01*
X9433356Y-14513356D01*
X10195356Y-14513356D02*
X10195356Y-14442644D01*
X10124644Y-14442644D01*
X10124644Y-14513356D01*
X10195356Y-14513356D01*
X10449356Y-14513356D02*
X10449356Y-14442644D01*
X10378644Y-14442644D01*
X10378644Y-14513356D01*
X10449356Y-14513356D01*
X10703356Y-14513356D02*
X10703356Y-14442644D01*
X10632644Y-14442644D01*
X10632644Y-14513356D01*
X10703356Y-14513356D01*
X10957356Y-14513356D02*
X10957356Y-14442644D01*
X10886644Y-14442644D01*
X10886644Y-14513356D01*
X10957356Y-14513356D01*
X11211356Y-14513356D02*
X11211356Y-14442644D01*
X11140644Y-14442644D01*
X11140644Y-14513356D01*
X11211356Y-14513356D01*
X11465356Y-14513356D02*
X11465356Y-14442644D01*
X11394644Y-14442644D01*
X11394644Y-14513356D01*
X11465356Y-14513356D01*
X11719356Y-14513356D02*
X11719356Y-14442644D01*
X11648644Y-14442644D01*
X11648644Y-14513356D01*
X11719356Y-14513356D01*
X11973356Y-14513356D02*
X11973356Y-14442644D01*
X11902644Y-14442644D01*
X11902644Y-14513356D01*
X11973356Y-14513356D01*
X12227356Y-14513356D02*
X12227356Y-14442644D01*
X12156644Y-14442644D01*
X12156644Y-14513356D01*
X12227356Y-14513356D01*
X12481356Y-14513356D02*
X12481356Y-14442644D01*
X12410644Y-14442644D01*
X12410644Y-14513356D01*
X12481356Y-14513356D01*
X12735356Y-14513356D02*
X12735356Y-14442644D01*
X12664644Y-14442644D01*
X12664644Y-14513356D01*
X12735356Y-14513356D01*
X12989356Y-14513356D02*
X12989356Y-14442644D01*
X12918644Y-14442644D01*
X12918644Y-14513356D01*
X12989356Y-14513356D01*
X13243356Y-14513356D02*
X13243356Y-14442644D01*
X13172644Y-14442644D01*
X13172644Y-14513356D01*
X13243356Y-14513356D01*
X13497356Y-14513356D02*
X13497356Y-14442644D01*
X13426644Y-14442644D01*
X13426644Y-14513356D01*
X13497356Y-14513356D01*
X13751356Y-11465356D02*
X13751356Y-11394644D01*
X13680644Y-11394644D01*
X13680644Y-11465356D01*
X13751356Y-11465356D01*
X13751356Y-11719356D02*
X13751356Y-11648644D01*
X13680644Y-11648644D01*
X13680644Y-11719356D01*
X13751356Y-11719356D01*
X13751356Y-14513356D02*
X13751356Y-14442644D01*
X13680644Y-14442644D01*
X13680644Y-14513356D01*
X13751356Y-14513356D01*
X14005356Y-11465356D02*
X14005356Y-11394644D01*
X13934644Y-11394644D01*
X13934644Y-11465356D01*
X14005356Y-11465356D01*
X14005356Y-11719356D02*
X14005356Y-11648644D01*
X13934644Y-11648644D01*
X13934644Y-11719356D01*
X14005356Y-11719356D01*
X14005356Y-14513356D02*
X14005356Y-14442644D01*
X13934644Y-14442644D01*
X13934644Y-14513356D01*
X14005356Y-14513356D01*
X14259356Y-11465356D02*
X14259356Y-11394644D01*
X14188644Y-11394644D01*
X14188644Y-11465356D01*
X14259356Y-11465356D01*
X14259356Y-11719356D02*
X14259356Y-11648644D01*
X14188644Y-11648644D01*
X14188644Y-11719356D01*
X14259356Y-11719356D01*
X14513356Y-11465356D02*
X14513356Y-11394644D01*
X14442644Y-11394644D01*
X14442644Y-11465356D01*
X14513356Y-11465356D01*
X14513356Y-11719356D02*
X14513356Y-11648644D01*
X14442644Y-11648644D01*
X14442644Y-11719356D01*
X14513356Y-11719356D01*
X14767356Y-11465356D02*
X14767356Y-11394644D01*
X14696644Y-11394644D01*
X14696644Y-11465356D01*
X14767356Y-11465356D01*
X14767356Y-11719356D02*
X14767356Y-11648644D01*
X14696644Y-11648644D01*
X14696644Y-11719356D01*
X14767356Y-11719356D01*
X15021356Y-11465356D02*
X15021356Y-11394644D01*
X14950644Y-11394644D01*
X14950644Y-11465356D01*
X15021356Y-11465356D01*
X15021356Y-11719356D02*
X15021356Y-11648644D01*
X14950644Y-11648644D01*
X14950644Y-11719356D01*
X15021356Y-11719356D01*
X15275356Y-11465356D02*
X15275356Y-11394644D01*
X15204644Y-11394644D01*
X15204644Y-11465356D01*
X15275356Y-11465356D01*
X15275356Y-11719356D02*
X15275356Y-11648644D01*
X15204644Y-11648644D01*
X15204644Y-11719356D01*
X15275356Y-11719356D01*
X15529356Y-11465356D02*
X15529356Y-11394644D01*
X15458644Y-11394644D01*
X15458644Y-11465356D01*
X15529356Y-11465356D01*
X15529356Y-11719356D02*
X15529356Y-11648644D01*
X15458644Y-11648644D01*
X15458644Y-11719356D01*
X15529356Y-11719356D01*
X15783356Y-11465356D02*
X15783356Y-11394644D01*
X15712644Y-11394644D01*
X15712644Y-11465356D01*
X15783356Y-11465356D01*
X15783356Y-11719356D02*
X15783356Y-11648644D01*
X15712644Y-11648644D01*
X15712644Y-11719356D01*
X15783356Y-11719356D01*
X16037356Y-11465356D02*
X16037356Y-11394644D01*
X15966644Y-11394644D01*
X15966644Y-11465356D01*
X16037356Y-11465356D01*
X16037356Y-11719356D02*
X16037356Y-11648644D01*
X15966644Y-11648644D01*
X15966644Y-11719356D01*
X16037356Y-11719356D01*
X16291356Y-11465356D02*
X16291356Y-11394644D01*
X16220644Y-11394644D01*
X16220644Y-11465356D01*
X16291356Y-11465356D01*
X16291356Y-11719356D02*
X16291356Y-11648644D01*
X16220644Y-11648644D01*
X16220644Y-11719356D01*
X16291356Y-11719356D01*
X16545356Y-11465356D02*
X16545356Y-11394644D01*
X16474644Y-11394644D01*
X16474644Y-11465356D01*
X16545356Y-11465356D01*
X16545356Y-11719356D02*
X16545356Y-11648644D01*
X16474644Y-11648644D01*
X16474644Y-11719356D01*
X16545356Y-11719356D01*
X16545356Y-14513356D02*
X16545356Y-14442644D01*
X16474644Y-14442644D01*
X16474644Y-14513356D01*
X16545356Y-14513356D01*
X16799356Y-11465356D02*
X16799356Y-11394644D01*
X16728644Y-11394644D01*
X16728644Y-11465356D01*
X16799356Y-11465356D01*
X16799356Y-11719356D02*
X16799356Y-11648644D01*
X16728644Y-11648644D01*
X16728644Y-11719356D01*
X16799356Y-11719356D01*
X16799356Y-14513356D02*
X16799356Y-14442644D01*
X16728644Y-14442644D01*
X16728644Y-14513356D01*
X16799356Y-14513356D01*
X17053356Y-11465356D02*
X17053356Y-11394644D01*
X16982644Y-11394644D01*
X16982644Y-11465356D01*
X17053356Y-11465356D01*
X17053356Y-11719356D02*
X17053356Y-11648644D01*
X16982644Y-11648644D01*
X16982644Y-11719356D01*
X17053356Y-11719356D01*
X17053356Y-14513356D02*
X17053356Y-14442644D01*
X16982644Y-14442644D01*
X16982644Y-14513356D01*
X17053356Y-14513356D01*
X17307356Y-11465356D02*
X17307356Y-11394644D01*
X17236644Y-11394644D01*
X17236644Y-11465356D01*
X17307356Y-11465356D01*
X17307356Y-11719356D02*
X17307356Y-11648644D01*
X17236644Y-11648644D01*
X17236644Y-11719356D01*
X17307356Y-11719356D01*
X17307356Y-14513356D02*
X17307356Y-14442644D01*
X17236644Y-14442644D01*
X17236644Y-14513356D01*
X17307356Y-14513356D01*
X17561356Y-11465356D02*
X17561356Y-11394644D01*
X17490644Y-11394644D01*
X17490644Y-11465356D01*
X17561356Y-11465356D01*
X17561356Y-11719356D02*
X17561356Y-11648644D01*
X17490644Y-11648644D01*
X17490644Y-11719356D01*
X17561356Y-11719356D01*
X17561356Y-14513356D02*
X17561356Y-14442644D01*
X17490644Y-14442644D01*
X17490644Y-14513356D01*
X17561356Y-14513356D01*
X17815356Y-14513356D02*
X17815356Y-14442644D01*
X17744644Y-14442644D01*
X17744644Y-14513356D01*
X17815356Y-14513356D01*
X18069356Y-14513356D02*
X18069356Y-14442644D01*
X17998644Y-14442644D01*
X17998644Y-14513356D01*
X18069356Y-14513356D01*
X18323356Y-14513356D02*
X18323356Y-14442644D01*
X18252644Y-14442644D01*
X18252644Y-14513356D01*
X18323356Y-14513356D01*
X18577356Y-14513356D02*
X18577356Y-14442644D01*
X18506644Y-14442644D01*
X18506644Y-14513356D01*
X18577356Y-14513356D01*
X18831356Y-14513356D02*
X18831356Y-14442644D01*
X18760644Y-14442644D01*
X18760644Y-14513356D01*
X18831356Y-14513356D01*
X19085356Y-14513356D02*
X19085356Y-14442644D01*
X19014644Y-14442644D01*
X19014644Y-14513356D01*
X19085356Y-14513356D01*
X19339356Y-14513356D02*
X19339356Y-14442644D01*
X19268644Y-14442644D01*
X19268644Y-14513356D01*
X19339356Y-14513356D01*
X19593356Y-14513356D02*
X19593356Y-14442644D01*
X19522644Y-14442644D01*
X19522644Y-14513356D01*
X19593356Y-14513356D01*
X19847356Y-14513356D02*
X19847356Y-14442644D01*
X19776644Y-14442644D01*
X19776644Y-14513356D01*
X19847356Y-14513356D01*
X20101356Y-14513356D02*
X20101356Y-14442644D01*
X20030644Y-14442644D01*
X20030644Y-14513356D01*
X20101356Y-14513356D01*
X20355356Y-14513356D02*
X20355356Y-14442644D01*
X20284644Y-14442644D01*
X20284644Y-14513356D01*
X20355356Y-14513356D01*
X20609356Y-14513356D02*
X20609356Y-14442644D01*
X20538644Y-14442644D01*
X20538644Y-14513356D01*
X20609356Y-14513356D01*
X20863356Y-14513356D02*
X20863356Y-14442644D01*
X20792644Y-14442644D01*
X20792644Y-14513356D01*
X20863356Y-14513356D01*
X21117356Y-14513356D02*
X21117356Y-14442644D01*
X21046644Y-14442644D01*
X21046644Y-14513356D01*
X21117356Y-14513356D01*
X21371356Y-14513356D02*
X21371356Y-14442644D01*
X21300644Y-14442644D01*
X21300644Y-14513356D01*
X21371356Y-14513356D01*
X21625356Y-14513356D02*
X21625356Y-14442644D01*
X21554644Y-14442644D01*
X21554644Y-14513356D01*
X21625356Y-14513356D01*
X21879356Y-14513356D02*
X21879356Y-14442644D01*
X21808644Y-14442644D01*
X21808644Y-14513356D01*
X21879356Y-14513356D01*
X22133356Y-14513356D02*
X22133356Y-14442644D01*
X22062644Y-14442644D01*
X22062644Y-14513356D01*
X22133356Y-14513356D01*
X22387356Y-14513356D02*
X22387356Y-14442644D01*
X22316644Y-14442644D01*
X22316644Y-14513356D01*
X22387356Y-14513356D01*
X22641356Y-14513356D02*
X22641356Y-14442644D01*
X22570644Y-14442644D01*
X22570644Y-14513356D01*
X22641356Y-14513356D01*
X22895356Y-14513356D02*
X22895356Y-14442644D01*
X22824644Y-14442644D01*
X22824644Y-14513356D01*
X22895356Y-14513356D01*
X23149356Y-14513356D02*
X23149356Y-14442644D01*
X23078644Y-14442644D01*
X23078644Y-14513356D01*
X23149356Y-14513356D01*
X23403356Y-14513356D02*
X23403356Y-14442644D01*
X23332644Y-14442644D01*
X23332644Y-14513356D01*
X23403356Y-14513356D01*
X23657356Y-14513356D02*
X23657356Y-14442644D01*
X23586644Y-14442644D01*
X23586644Y-14513356D01*
X23657356Y-14513356D01*
X23911356Y-14513356D02*
X23911356Y-14442644D01*
X23840644Y-14442644D01*
X23840644Y-14513356D01*
X23911356Y-14513356D01*
X24165356Y-14513356D02*
X24165356Y-14442644D01*
X24094644Y-14442644D01*
X24094644Y-14513356D01*
X24165356Y-14513356D01*
X24419356Y-14513356D02*
X24419356Y-14442644D01*
X24348644Y-14442644D01*
X24348644Y-14513356D01*
X24419356Y-14513356D01*
D11*
X5322619Y-15157476D02*
X5322619Y-14957476D01*
X5322619Y-14957476D02*
X5370238Y-14957476D01*
X5370238Y-14957476D02*
X5398810Y-14967000D01*
X5398810Y-14967000D02*
X5417857Y-14986048D01*
X5417857Y-14986048D02*
X5427381Y-15005095D01*
X5427381Y-15005095D02*
X5436905Y-15043190D01*
X5436905Y-15043190D02*
X5436905Y-15071762D01*
X5436905Y-15071762D02*
X5427381Y-15109857D01*
X5427381Y-15109857D02*
X5417857Y-15128905D01*
X5417857Y-15128905D02*
X5398810Y-15147952D01*
X5398810Y-15147952D02*
X5370238Y-15157476D01*
X5370238Y-15157476D02*
X5322619Y-15157476D01*
X5522619Y-15157476D02*
X5522619Y-15024143D01*
X5522619Y-15062238D02*
X5532143Y-15043190D01*
X5532143Y-15043190D02*
X5541667Y-15033667D01*
X5541667Y-15033667D02*
X5560714Y-15024143D01*
X5560714Y-15024143D02*
X5579762Y-15024143D01*
X5646428Y-15157476D02*
X5646428Y-15024143D01*
X5646428Y-14957476D02*
X5636905Y-14967000D01*
X5636905Y-14967000D02*
X5646428Y-14976524D01*
X5646428Y-14976524D02*
X5655952Y-14967000D01*
X5655952Y-14967000D02*
X5646428Y-14957476D01*
X5646428Y-14957476D02*
X5646428Y-14976524D01*
X5770238Y-15157476D02*
X5751190Y-15147952D01*
X5751190Y-15147952D02*
X5741667Y-15128905D01*
X5741667Y-15128905D02*
X5741667Y-14957476D01*
X5875000Y-15157476D02*
X5855952Y-15147952D01*
X5855952Y-15147952D02*
X5846428Y-15128905D01*
X5846428Y-15128905D02*
X5846428Y-14957476D01*
X6071190Y-15157476D02*
X6071190Y-14957476D01*
X6071190Y-14957476D02*
X6137857Y-15100333D01*
X6137857Y-15100333D02*
X6204524Y-14957476D01*
X6204524Y-14957476D02*
X6204524Y-15157476D01*
X6385476Y-15157476D02*
X6385476Y-15052714D01*
X6385476Y-15052714D02*
X6375952Y-15033667D01*
X6375952Y-15033667D02*
X6356905Y-15024143D01*
X6356905Y-15024143D02*
X6318809Y-15024143D01*
X6318809Y-15024143D02*
X6299762Y-15033667D01*
X6385476Y-15147952D02*
X6366428Y-15157476D01*
X6366428Y-15157476D02*
X6318809Y-15157476D01*
X6318809Y-15157476D02*
X6299762Y-15147952D01*
X6299762Y-15147952D02*
X6290238Y-15128905D01*
X6290238Y-15128905D02*
X6290238Y-15109857D01*
X6290238Y-15109857D02*
X6299762Y-15090809D01*
X6299762Y-15090809D02*
X6318809Y-15081286D01*
X6318809Y-15081286D02*
X6366428Y-15081286D01*
X6366428Y-15081286D02*
X6385476Y-15071762D01*
X6480714Y-15024143D02*
X6480714Y-15224143D01*
X6480714Y-15033667D02*
X6499762Y-15024143D01*
X6499762Y-15024143D02*
X6537857Y-15024143D01*
X6537857Y-15024143D02*
X6556905Y-15033667D01*
X6556905Y-15033667D02*
X6566428Y-15043190D01*
X6566428Y-15043190D02*
X6575952Y-15062238D01*
X6575952Y-15062238D02*
X6575952Y-15119381D01*
X6575952Y-15119381D02*
X6566428Y-15138428D01*
X6566428Y-15138428D02*
X6556905Y-15147952D01*
X6556905Y-15147952D02*
X6537857Y-15157476D01*
X6537857Y-15157476D02*
X6499762Y-15157476D01*
X6499762Y-15157476D02*
X6480714Y-15147952D01*
X6661667Y-15138428D02*
X6671190Y-15147952D01*
X6671190Y-15147952D02*
X6661667Y-15157476D01*
X6661667Y-15157476D02*
X6652143Y-15147952D01*
X6652143Y-15147952D02*
X6661667Y-15138428D01*
X6661667Y-15138428D02*
X6661667Y-15157476D01*
X6661667Y-15033667D02*
X6671190Y-15043190D01*
X6671190Y-15043190D02*
X6661667Y-15052714D01*
X6661667Y-15052714D02*
X6652143Y-15043190D01*
X6652143Y-15043190D02*
X6661667Y-15033667D01*
X6661667Y-15033667D02*
X6661667Y-15052714D01*
D12*
X5036900Y-15484950D02*
X5075000Y-15523050D01*
X5075000Y-15484950D02*
X5036900Y-15523050D01*
D11*
X5360714Y-15377476D02*
X5379762Y-15377476D01*
X5379762Y-15377476D02*
X5398810Y-15387000D01*
X5398810Y-15387000D02*
X5408333Y-15396524D01*
X5408333Y-15396524D02*
X5417857Y-15415571D01*
X5417857Y-15415571D02*
X5427381Y-15453667D01*
X5427381Y-15453667D02*
X5427381Y-15501286D01*
X5427381Y-15501286D02*
X5417857Y-15539381D01*
X5417857Y-15539381D02*
X5408333Y-15558428D01*
X5408333Y-15558428D02*
X5398810Y-15567952D01*
X5398810Y-15567952D02*
X5379762Y-15577476D01*
X5379762Y-15577476D02*
X5360714Y-15577476D01*
X5360714Y-15577476D02*
X5341667Y-15567952D01*
X5341667Y-15567952D02*
X5332143Y-15558428D01*
X5332143Y-15558428D02*
X5322619Y-15539381D01*
X5322619Y-15539381D02*
X5313095Y-15501286D01*
X5313095Y-15501286D02*
X5313095Y-15453667D01*
X5313095Y-15453667D02*
X5322619Y-15415571D01*
X5322619Y-15415571D02*
X5332143Y-15396524D01*
X5332143Y-15396524D02*
X5341667Y-15387000D01*
X5341667Y-15387000D02*
X5360714Y-15377476D01*
X5513095Y-15558428D02*
X5522619Y-15567952D01*
X5522619Y-15567952D02*
X5513095Y-15577476D01*
X5513095Y-15577476D02*
X5503571Y-15567952D01*
X5503571Y-15567952D02*
X5513095Y-15558428D01*
X5513095Y-15558428D02*
X5513095Y-15577476D01*
X5589286Y-15377476D02*
X5713095Y-15377476D01*
X5713095Y-15377476D02*
X5646428Y-15453667D01*
X5646428Y-15453667D02*
X5675000Y-15453667D01*
X5675000Y-15453667D02*
X5694048Y-15463190D01*
X5694048Y-15463190D02*
X5703571Y-15472714D01*
X5703571Y-15472714D02*
X5713095Y-15491762D01*
X5713095Y-15491762D02*
X5713095Y-15539381D01*
X5713095Y-15539381D02*
X5703571Y-15558428D01*
X5703571Y-15558428D02*
X5694048Y-15567952D01*
X5694048Y-15567952D02*
X5675000Y-15577476D01*
X5675000Y-15577476D02*
X5617857Y-15577476D01*
X5617857Y-15577476D02*
X5598809Y-15567952D01*
X5598809Y-15567952D02*
X5589286Y-15558428D01*
X5827381Y-15463190D02*
X5808333Y-15453667D01*
X5808333Y-15453667D02*
X5798809Y-15444143D01*
X5798809Y-15444143D02*
X5789286Y-15425095D01*
X5789286Y-15425095D02*
X5789286Y-15415571D01*
X5789286Y-15415571D02*
X5798809Y-15396524D01*
X5798809Y-15396524D02*
X5808333Y-15387000D01*
X5808333Y-15387000D02*
X5827381Y-15377476D01*
X5827381Y-15377476D02*
X5865476Y-15377476D01*
X5865476Y-15377476D02*
X5884524Y-15387000D01*
X5884524Y-15387000D02*
X5894048Y-15396524D01*
X5894048Y-15396524D02*
X5903571Y-15415571D01*
X5903571Y-15415571D02*
X5903571Y-15425095D01*
X5903571Y-15425095D02*
X5894048Y-15444143D01*
X5894048Y-15444143D02*
X5884524Y-15453667D01*
X5884524Y-15453667D02*
X5865476Y-15463190D01*
X5865476Y-15463190D02*
X5827381Y-15463190D01*
X5827381Y-15463190D02*
X5808333Y-15472714D01*
X5808333Y-15472714D02*
X5798809Y-15482238D01*
X5798809Y-15482238D02*
X5789286Y-15501286D01*
X5789286Y-15501286D02*
X5789286Y-15539381D01*
X5789286Y-15539381D02*
X5798809Y-15558428D01*
X5798809Y-15558428D02*
X5808333Y-15567952D01*
X5808333Y-15567952D02*
X5827381Y-15577476D01*
X5827381Y-15577476D02*
X5865476Y-15577476D01*
X5865476Y-15577476D02*
X5884524Y-15567952D01*
X5884524Y-15567952D02*
X5894048Y-15558428D01*
X5894048Y-15558428D02*
X5903571Y-15539381D01*
X5903571Y-15539381D02*
X5903571Y-15501286D01*
X5903571Y-15501286D02*
X5894048Y-15482238D01*
X5894048Y-15482238D02*
X5884524Y-15472714D01*
X5884524Y-15472714D02*
X5865476Y-15463190D01*
X6094048Y-15577476D02*
X5979762Y-15577476D01*
X6036905Y-15577476D02*
X6036905Y-15377476D01*
X6036905Y-15377476D02*
X6017857Y-15406048D01*
X6017857Y-15406048D02*
X5998809Y-15425095D01*
X5998809Y-15425095D02*
X5979762Y-15434619D01*
X6179762Y-15577476D02*
X6179762Y-15444143D01*
X6179762Y-15463190D02*
X6189286Y-15453667D01*
X6189286Y-15453667D02*
X6208333Y-15444143D01*
X6208333Y-15444143D02*
X6236905Y-15444143D01*
X6236905Y-15444143D02*
X6255952Y-15453667D01*
X6255952Y-15453667D02*
X6265476Y-15472714D01*
X6265476Y-15472714D02*
X6265476Y-15577476D01*
X6265476Y-15472714D02*
X6275000Y-15453667D01*
X6275000Y-15453667D02*
X6294048Y-15444143D01*
X6294048Y-15444143D02*
X6322619Y-15444143D01*
X6322619Y-15444143D02*
X6341667Y-15453667D01*
X6341667Y-15453667D02*
X6351190Y-15472714D01*
X6351190Y-15472714D02*
X6351190Y-15577476D01*
X6446429Y-15577476D02*
X6446429Y-15444143D01*
X6446429Y-15463190D02*
X6455952Y-15453667D01*
X6455952Y-15453667D02*
X6475000Y-15444143D01*
X6475000Y-15444143D02*
X6503571Y-15444143D01*
X6503571Y-15444143D02*
X6522619Y-15453667D01*
X6522619Y-15453667D02*
X6532143Y-15472714D01*
X6532143Y-15472714D02*
X6532143Y-15577476D01*
X6532143Y-15472714D02*
X6541667Y-15453667D01*
X6541667Y-15453667D02*
X6560714Y-15444143D01*
X6560714Y-15444143D02*
X6589286Y-15444143D01*
X6589286Y-15444143D02*
X6608333Y-15453667D01*
X6608333Y-15453667D02*
X6617857Y-15472714D01*
X6617857Y-15472714D02*
X6617857Y-15577476D01*
X6975952Y-15367952D02*
X6804524Y-15625095D01*
X7200714Y-15377476D02*
X7219762Y-15377476D01*
X7219762Y-15377476D02*
X7238810Y-15387000D01*
X7238810Y-15387000D02*
X7248333Y-15396524D01*
X7248333Y-15396524D02*
X7257857Y-15415571D01*
X7257857Y-15415571D02*
X7267381Y-15453667D01*
X7267381Y-15453667D02*
X7267381Y-15501286D01*
X7267381Y-15501286D02*
X7257857Y-15539381D01*
X7257857Y-15539381D02*
X7248333Y-15558428D01*
X7248333Y-15558428D02*
X7238810Y-15567952D01*
X7238810Y-15567952D02*
X7219762Y-15577476D01*
X7219762Y-15577476D02*
X7200714Y-15577476D01*
X7200714Y-15577476D02*
X7181667Y-15567952D01*
X7181667Y-15567952D02*
X7172143Y-15558428D01*
X7172143Y-15558428D02*
X7162619Y-15539381D01*
X7162619Y-15539381D02*
X7153095Y-15501286D01*
X7153095Y-15501286D02*
X7153095Y-15453667D01*
X7153095Y-15453667D02*
X7162619Y-15415571D01*
X7162619Y-15415571D02*
X7172143Y-15396524D01*
X7172143Y-15396524D02*
X7181667Y-15387000D01*
X7181667Y-15387000D02*
X7200714Y-15377476D01*
X7353095Y-15558428D02*
X7362619Y-15567952D01*
X7362619Y-15567952D02*
X7353095Y-15577476D01*
X7353095Y-15577476D02*
X7343571Y-15567952D01*
X7343571Y-15567952D02*
X7353095Y-15558428D01*
X7353095Y-15558428D02*
X7353095Y-15577476D01*
X7486429Y-15377476D02*
X7505476Y-15377476D01*
X7505476Y-15377476D02*
X7524524Y-15387000D01*
X7524524Y-15387000D02*
X7534048Y-15396524D01*
X7534048Y-15396524D02*
X7543571Y-15415571D01*
X7543571Y-15415571D02*
X7553095Y-15453667D01*
X7553095Y-15453667D02*
X7553095Y-15501286D01*
X7553095Y-15501286D02*
X7543571Y-15539381D01*
X7543571Y-15539381D02*
X7534048Y-15558428D01*
X7534048Y-15558428D02*
X7524524Y-15567952D01*
X7524524Y-15567952D02*
X7505476Y-15577476D01*
X7505476Y-15577476D02*
X7486429Y-15577476D01*
X7486429Y-15577476D02*
X7467381Y-15567952D01*
X7467381Y-15567952D02*
X7457857Y-15558428D01*
X7457857Y-15558428D02*
X7448333Y-15539381D01*
X7448333Y-15539381D02*
X7438810Y-15501286D01*
X7438810Y-15501286D02*
X7438810Y-15453667D01*
X7438810Y-15453667D02*
X7448333Y-15415571D01*
X7448333Y-15415571D02*
X7457857Y-15396524D01*
X7457857Y-15396524D02*
X7467381Y-15387000D01*
X7467381Y-15387000D02*
X7486429Y-15377476D01*
X7743571Y-15577476D02*
X7629286Y-15577476D01*
X7686429Y-15577476D02*
X7686429Y-15377476D01*
X7686429Y-15377476D02*
X7667381Y-15406048D01*
X7667381Y-15406048D02*
X7648333Y-15425095D01*
X7648333Y-15425095D02*
X7629286Y-15434619D01*
X7924524Y-15377476D02*
X7829286Y-15377476D01*
X7829286Y-15377476D02*
X7819762Y-15472714D01*
X7819762Y-15472714D02*
X7829286Y-15463190D01*
X7829286Y-15463190D02*
X7848333Y-15453667D01*
X7848333Y-15453667D02*
X7895952Y-15453667D01*
X7895952Y-15453667D02*
X7915000Y-15463190D01*
X7915000Y-15463190D02*
X7924524Y-15472714D01*
X7924524Y-15472714D02*
X7934048Y-15491762D01*
X7934048Y-15491762D02*
X7934048Y-15539381D01*
X7934048Y-15539381D02*
X7924524Y-15558428D01*
X7924524Y-15558428D02*
X7915000Y-15567952D01*
X7915000Y-15567952D02*
X7895952Y-15577476D01*
X7895952Y-15577476D02*
X7848333Y-15577476D01*
X7848333Y-15577476D02*
X7829286Y-15567952D01*
X7829286Y-15567952D02*
X7819762Y-15558428D01*
X8057857Y-15377476D02*
X8076905Y-15377476D01*
X8076905Y-15377476D02*
X8095952Y-15387000D01*
X8095952Y-15387000D02*
X8105476Y-15396524D01*
X8105476Y-15396524D02*
X8115000Y-15415571D01*
X8115000Y-15415571D02*
X8124524Y-15453667D01*
X8124524Y-15453667D02*
X8124524Y-15501286D01*
X8124524Y-15501286D02*
X8115000Y-15539381D01*
X8115000Y-15539381D02*
X8105476Y-15558428D01*
X8105476Y-15558428D02*
X8095952Y-15567952D01*
X8095952Y-15567952D02*
X8076905Y-15577476D01*
X8076905Y-15577476D02*
X8057857Y-15577476D01*
X8057857Y-15577476D02*
X8038810Y-15567952D01*
X8038810Y-15567952D02*
X8029286Y-15558428D01*
X8029286Y-15558428D02*
X8019762Y-15539381D01*
X8019762Y-15539381D02*
X8010238Y-15501286D01*
X8010238Y-15501286D02*
X8010238Y-15453667D01*
X8010238Y-15453667D02*
X8019762Y-15415571D01*
X8019762Y-15415571D02*
X8029286Y-15396524D01*
X8029286Y-15396524D02*
X8038810Y-15387000D01*
X8038810Y-15387000D02*
X8057857Y-15377476D01*
X8200714Y-15377476D02*
X8200714Y-15415571D01*
X8276905Y-15377476D02*
X8276905Y-15415571D01*
X8539762Y-15653667D02*
X8530238Y-15644143D01*
X8530238Y-15644143D02*
X8511191Y-15615571D01*
X8511191Y-15615571D02*
X8501667Y-15596524D01*
X8501667Y-15596524D02*
X8492143Y-15567952D01*
X8492143Y-15567952D02*
X8482619Y-15520333D01*
X8482619Y-15520333D02*
X8482619Y-15482238D01*
X8482619Y-15482238D02*
X8492143Y-15434619D01*
X8492143Y-15434619D02*
X8501667Y-15406048D01*
X8501667Y-15406048D02*
X8511191Y-15387000D01*
X8511191Y-15387000D02*
X8530238Y-15358428D01*
X8530238Y-15358428D02*
X8539762Y-15348905D01*
X8606429Y-15396524D02*
X8615953Y-15387000D01*
X8615953Y-15387000D02*
X8635000Y-15377476D01*
X8635000Y-15377476D02*
X8682619Y-15377476D01*
X8682619Y-15377476D02*
X8701667Y-15387000D01*
X8701667Y-15387000D02*
X8711191Y-15396524D01*
X8711191Y-15396524D02*
X8720714Y-15415571D01*
X8720714Y-15415571D02*
X8720714Y-15434619D01*
X8720714Y-15434619D02*
X8711191Y-15463190D01*
X8711191Y-15463190D02*
X8596905Y-15577476D01*
X8596905Y-15577476D02*
X8720714Y-15577476D01*
X8892143Y-15377476D02*
X8854048Y-15377476D01*
X8854048Y-15377476D02*
X8835000Y-15387000D01*
X8835000Y-15387000D02*
X8825476Y-15396524D01*
X8825476Y-15396524D02*
X8806429Y-15425095D01*
X8806429Y-15425095D02*
X8796905Y-15463190D01*
X8796905Y-15463190D02*
X8796905Y-15539381D01*
X8796905Y-15539381D02*
X8806429Y-15558428D01*
X8806429Y-15558428D02*
X8815953Y-15567952D01*
X8815953Y-15567952D02*
X8835000Y-15577476D01*
X8835000Y-15577476D02*
X8873095Y-15577476D01*
X8873095Y-15577476D02*
X8892143Y-15567952D01*
X8892143Y-15567952D02*
X8901667Y-15558428D01*
X8901667Y-15558428D02*
X8911191Y-15539381D01*
X8911191Y-15539381D02*
X8911191Y-15491762D01*
X8911191Y-15491762D02*
X8901667Y-15472714D01*
X8901667Y-15472714D02*
X8892143Y-15463190D01*
X8892143Y-15463190D02*
X8873095Y-15453667D01*
X8873095Y-15453667D02*
X8835000Y-15453667D01*
X8835000Y-15453667D02*
X8815953Y-15463190D01*
X8815953Y-15463190D02*
X8806429Y-15472714D01*
X8806429Y-15472714D02*
X8796905Y-15491762D01*
X8977857Y-15377476D02*
X9101667Y-15377476D01*
X9101667Y-15377476D02*
X9035000Y-15453667D01*
X9035000Y-15453667D02*
X9063572Y-15453667D01*
X9063572Y-15453667D02*
X9082619Y-15463190D01*
X9082619Y-15463190D02*
X9092143Y-15472714D01*
X9092143Y-15472714D02*
X9101667Y-15491762D01*
X9101667Y-15491762D02*
X9101667Y-15539381D01*
X9101667Y-15539381D02*
X9092143Y-15558428D01*
X9092143Y-15558428D02*
X9082619Y-15567952D01*
X9082619Y-15567952D02*
X9063572Y-15577476D01*
X9063572Y-15577476D02*
X9006429Y-15577476D01*
X9006429Y-15577476D02*
X8987381Y-15567952D01*
X8987381Y-15567952D02*
X8977857Y-15558428D01*
X9307381Y-15577476D02*
X9307381Y-15377476D01*
X9393095Y-15577476D02*
X9393095Y-15472714D01*
X9393095Y-15472714D02*
X9383572Y-15453667D01*
X9383572Y-15453667D02*
X9364524Y-15444143D01*
X9364524Y-15444143D02*
X9335953Y-15444143D01*
X9335953Y-15444143D02*
X9316905Y-15453667D01*
X9316905Y-15453667D02*
X9307381Y-15463190D01*
X9516905Y-15577476D02*
X9497857Y-15567952D01*
X9497857Y-15567952D02*
X9488334Y-15558428D01*
X9488334Y-15558428D02*
X9478810Y-15539381D01*
X9478810Y-15539381D02*
X9478810Y-15482238D01*
X9478810Y-15482238D02*
X9488334Y-15463190D01*
X9488334Y-15463190D02*
X9497857Y-15453667D01*
X9497857Y-15453667D02*
X9516905Y-15444143D01*
X9516905Y-15444143D02*
X9545476Y-15444143D01*
X9545476Y-15444143D02*
X9564524Y-15453667D01*
X9564524Y-15453667D02*
X9574048Y-15463190D01*
X9574048Y-15463190D02*
X9583572Y-15482238D01*
X9583572Y-15482238D02*
X9583572Y-15539381D01*
X9583572Y-15539381D02*
X9574048Y-15558428D01*
X9574048Y-15558428D02*
X9564524Y-15567952D01*
X9564524Y-15567952D02*
X9545476Y-15577476D01*
X9545476Y-15577476D02*
X9516905Y-15577476D01*
X9697857Y-15577476D02*
X9678810Y-15567952D01*
X9678810Y-15567952D02*
X9669286Y-15548905D01*
X9669286Y-15548905D02*
X9669286Y-15377476D01*
X9850238Y-15567952D02*
X9831191Y-15577476D01*
X9831191Y-15577476D02*
X9793095Y-15577476D01*
X9793095Y-15577476D02*
X9774048Y-15567952D01*
X9774048Y-15567952D02*
X9764524Y-15548905D01*
X9764524Y-15548905D02*
X9764524Y-15472714D01*
X9764524Y-15472714D02*
X9774048Y-15453667D01*
X9774048Y-15453667D02*
X9793095Y-15444143D01*
X9793095Y-15444143D02*
X9831191Y-15444143D01*
X9831191Y-15444143D02*
X9850238Y-15453667D01*
X9850238Y-15453667D02*
X9859762Y-15472714D01*
X9859762Y-15472714D02*
X9859762Y-15491762D01*
X9859762Y-15491762D02*
X9764524Y-15510809D01*
X9935953Y-15567952D02*
X9955000Y-15577476D01*
X9955000Y-15577476D02*
X9993095Y-15577476D01*
X9993095Y-15577476D02*
X10012143Y-15567952D01*
X10012143Y-15567952D02*
X10021667Y-15548905D01*
X10021667Y-15548905D02*
X10021667Y-15539381D01*
X10021667Y-15539381D02*
X10012143Y-15520333D01*
X10012143Y-15520333D02*
X9993095Y-15510809D01*
X9993095Y-15510809D02*
X9964524Y-15510809D01*
X9964524Y-15510809D02*
X9945476Y-15501286D01*
X9945476Y-15501286D02*
X9935953Y-15482238D01*
X9935953Y-15482238D02*
X9935953Y-15472714D01*
X9935953Y-15472714D02*
X9945476Y-15453667D01*
X9945476Y-15453667D02*
X9964524Y-15444143D01*
X9964524Y-15444143D02*
X9993095Y-15444143D01*
X9993095Y-15444143D02*
X10012143Y-15453667D01*
X10088334Y-15653667D02*
X10097857Y-15644143D01*
X10097857Y-15644143D02*
X10116905Y-15615571D01*
X10116905Y-15615571D02*
X10126429Y-15596524D01*
X10126429Y-15596524D02*
X10135953Y-15567952D01*
X10135953Y-15567952D02*
X10145476Y-15520333D01*
X10145476Y-15520333D02*
X10145476Y-15482238D01*
X10145476Y-15482238D02*
X10135953Y-15434619D01*
X10135953Y-15434619D02*
X10126429Y-15406048D01*
X10126429Y-15406048D02*
X10116905Y-15387000D01*
X10116905Y-15387000D02*
X10097857Y-15358428D01*
X10097857Y-15358428D02*
X10088334Y-15348905D01*
D13*
X5075000Y-15768000D02*
G75*
G03*
X5075000Y-15768000I-40000J0D01*
G01*
D11*
X5360714Y-15641476D02*
X5379762Y-15641476D01*
X5379762Y-15641476D02*
X5398810Y-15651000D01*
X5398810Y-15651000D02*
X5408333Y-15660524D01*
X5408333Y-15660524D02*
X5417857Y-15679571D01*
X5417857Y-15679571D02*
X5427381Y-15717667D01*
X5427381Y-15717667D02*
X5427381Y-15765286D01*
X5427381Y-15765286D02*
X5417857Y-15803381D01*
X5417857Y-15803381D02*
X5408333Y-15822428D01*
X5408333Y-15822428D02*
X5398810Y-15831952D01*
X5398810Y-15831952D02*
X5379762Y-15841476D01*
X5379762Y-15841476D02*
X5360714Y-15841476D01*
X5360714Y-15841476D02*
X5341667Y-15831952D01*
X5341667Y-15831952D02*
X5332143Y-15822428D01*
X5332143Y-15822428D02*
X5322619Y-15803381D01*
X5322619Y-15803381D02*
X5313095Y-15765286D01*
X5313095Y-15765286D02*
X5313095Y-15717667D01*
X5313095Y-15717667D02*
X5322619Y-15679571D01*
X5322619Y-15679571D02*
X5332143Y-15660524D01*
X5332143Y-15660524D02*
X5341667Y-15651000D01*
X5341667Y-15651000D02*
X5360714Y-15641476D01*
X5513095Y-15822428D02*
X5522619Y-15831952D01*
X5522619Y-15831952D02*
X5513095Y-15841476D01*
X5513095Y-15841476D02*
X5503571Y-15831952D01*
X5503571Y-15831952D02*
X5513095Y-15822428D01*
X5513095Y-15822428D02*
X5513095Y-15841476D01*
X5636905Y-15727190D02*
X5617857Y-15717667D01*
X5617857Y-15717667D02*
X5608333Y-15708143D01*
X5608333Y-15708143D02*
X5598809Y-15689095D01*
X5598809Y-15689095D02*
X5598809Y-15679571D01*
X5598809Y-15679571D02*
X5608333Y-15660524D01*
X5608333Y-15660524D02*
X5617857Y-15651000D01*
X5617857Y-15651000D02*
X5636905Y-15641476D01*
X5636905Y-15641476D02*
X5675000Y-15641476D01*
X5675000Y-15641476D02*
X5694048Y-15651000D01*
X5694048Y-15651000D02*
X5703571Y-15660524D01*
X5703571Y-15660524D02*
X5713095Y-15679571D01*
X5713095Y-15679571D02*
X5713095Y-15689095D01*
X5713095Y-15689095D02*
X5703571Y-15708143D01*
X5703571Y-15708143D02*
X5694048Y-15717667D01*
X5694048Y-15717667D02*
X5675000Y-15727190D01*
X5675000Y-15727190D02*
X5636905Y-15727190D01*
X5636905Y-15727190D02*
X5617857Y-15736714D01*
X5617857Y-15736714D02*
X5608333Y-15746238D01*
X5608333Y-15746238D02*
X5598809Y-15765286D01*
X5598809Y-15765286D02*
X5598809Y-15803381D01*
X5598809Y-15803381D02*
X5608333Y-15822428D01*
X5608333Y-15822428D02*
X5617857Y-15831952D01*
X5617857Y-15831952D02*
X5636905Y-15841476D01*
X5636905Y-15841476D02*
X5675000Y-15841476D01*
X5675000Y-15841476D02*
X5694048Y-15831952D01*
X5694048Y-15831952D02*
X5703571Y-15822428D01*
X5703571Y-15822428D02*
X5713095Y-15803381D01*
X5713095Y-15803381D02*
X5713095Y-15765286D01*
X5713095Y-15765286D02*
X5703571Y-15746238D01*
X5703571Y-15746238D02*
X5694048Y-15736714D01*
X5694048Y-15736714D02*
X5675000Y-15727190D01*
X5836905Y-15641476D02*
X5855952Y-15641476D01*
X5855952Y-15641476D02*
X5875000Y-15651000D01*
X5875000Y-15651000D02*
X5884524Y-15660524D01*
X5884524Y-15660524D02*
X5894048Y-15679571D01*
X5894048Y-15679571D02*
X5903571Y-15717667D01*
X5903571Y-15717667D02*
X5903571Y-15765286D01*
X5903571Y-15765286D02*
X5894048Y-15803381D01*
X5894048Y-15803381D02*
X5884524Y-15822428D01*
X5884524Y-15822428D02*
X5875000Y-15831952D01*
X5875000Y-15831952D02*
X5855952Y-15841476D01*
X5855952Y-15841476D02*
X5836905Y-15841476D01*
X5836905Y-15841476D02*
X5817857Y-15831952D01*
X5817857Y-15831952D02*
X5808333Y-15822428D01*
X5808333Y-15822428D02*
X5798809Y-15803381D01*
X5798809Y-15803381D02*
X5789286Y-15765286D01*
X5789286Y-15765286D02*
X5789286Y-15717667D01*
X5789286Y-15717667D02*
X5798809Y-15679571D01*
X5798809Y-15679571D02*
X5808333Y-15660524D01*
X5808333Y-15660524D02*
X5817857Y-15651000D01*
X5817857Y-15651000D02*
X5836905Y-15641476D01*
X6027381Y-15641476D02*
X6046429Y-15641476D01*
X6046429Y-15641476D02*
X6065476Y-15651000D01*
X6065476Y-15651000D02*
X6075000Y-15660524D01*
X6075000Y-15660524D02*
X6084524Y-15679571D01*
X6084524Y-15679571D02*
X6094048Y-15717667D01*
X6094048Y-15717667D02*
X6094048Y-15765286D01*
X6094048Y-15765286D02*
X6084524Y-15803381D01*
X6084524Y-15803381D02*
X6075000Y-15822428D01*
X6075000Y-15822428D02*
X6065476Y-15831952D01*
X6065476Y-15831952D02*
X6046429Y-15841476D01*
X6046429Y-15841476D02*
X6027381Y-15841476D01*
X6027381Y-15841476D02*
X6008333Y-15831952D01*
X6008333Y-15831952D02*
X5998809Y-15822428D01*
X5998809Y-15822428D02*
X5989286Y-15803381D01*
X5989286Y-15803381D02*
X5979762Y-15765286D01*
X5979762Y-15765286D02*
X5979762Y-15717667D01*
X5979762Y-15717667D02*
X5989286Y-15679571D01*
X5989286Y-15679571D02*
X5998809Y-15660524D01*
X5998809Y-15660524D02*
X6008333Y-15651000D01*
X6008333Y-15651000D02*
X6027381Y-15641476D01*
X6179762Y-15841476D02*
X6179762Y-15708143D01*
X6179762Y-15727190D02*
X6189286Y-15717667D01*
X6189286Y-15717667D02*
X6208333Y-15708143D01*
X6208333Y-15708143D02*
X6236905Y-15708143D01*
X6236905Y-15708143D02*
X6255952Y-15717667D01*
X6255952Y-15717667D02*
X6265476Y-15736714D01*
X6265476Y-15736714D02*
X6265476Y-15841476D01*
X6265476Y-15736714D02*
X6275000Y-15717667D01*
X6275000Y-15717667D02*
X6294048Y-15708143D01*
X6294048Y-15708143D02*
X6322619Y-15708143D01*
X6322619Y-15708143D02*
X6341667Y-15717667D01*
X6341667Y-15717667D02*
X6351190Y-15736714D01*
X6351190Y-15736714D02*
X6351190Y-15841476D01*
X6446429Y-15841476D02*
X6446429Y-15708143D01*
X6446429Y-15727190D02*
X6455952Y-15717667D01*
X6455952Y-15717667D02*
X6475000Y-15708143D01*
X6475000Y-15708143D02*
X6503571Y-15708143D01*
X6503571Y-15708143D02*
X6522619Y-15717667D01*
X6522619Y-15717667D02*
X6532143Y-15736714D01*
X6532143Y-15736714D02*
X6532143Y-15841476D01*
X6532143Y-15736714D02*
X6541667Y-15717667D01*
X6541667Y-15717667D02*
X6560714Y-15708143D01*
X6560714Y-15708143D02*
X6589286Y-15708143D01*
X6589286Y-15708143D02*
X6608333Y-15717667D01*
X6608333Y-15717667D02*
X6617857Y-15736714D01*
X6617857Y-15736714D02*
X6617857Y-15841476D01*
X6975952Y-15631952D02*
X6804524Y-15889095D01*
X7200714Y-15641476D02*
X7219762Y-15641476D01*
X7219762Y-15641476D02*
X7238810Y-15651000D01*
X7238810Y-15651000D02*
X7248333Y-15660524D01*
X7248333Y-15660524D02*
X7257857Y-15679571D01*
X7257857Y-15679571D02*
X7267381Y-15717667D01*
X7267381Y-15717667D02*
X7267381Y-15765286D01*
X7267381Y-15765286D02*
X7257857Y-15803381D01*
X7257857Y-15803381D02*
X7248333Y-15822428D01*
X7248333Y-15822428D02*
X7238810Y-15831952D01*
X7238810Y-15831952D02*
X7219762Y-15841476D01*
X7219762Y-15841476D02*
X7200714Y-15841476D01*
X7200714Y-15841476D02*
X7181667Y-15831952D01*
X7181667Y-15831952D02*
X7172143Y-15822428D01*
X7172143Y-15822428D02*
X7162619Y-15803381D01*
X7162619Y-15803381D02*
X7153095Y-15765286D01*
X7153095Y-15765286D02*
X7153095Y-15717667D01*
X7153095Y-15717667D02*
X7162619Y-15679571D01*
X7162619Y-15679571D02*
X7172143Y-15660524D01*
X7172143Y-15660524D02*
X7181667Y-15651000D01*
X7181667Y-15651000D02*
X7200714Y-15641476D01*
X7353095Y-15822428D02*
X7362619Y-15831952D01*
X7362619Y-15831952D02*
X7353095Y-15841476D01*
X7353095Y-15841476D02*
X7343571Y-15831952D01*
X7343571Y-15831952D02*
X7353095Y-15822428D01*
X7353095Y-15822428D02*
X7353095Y-15841476D01*
X7486429Y-15641476D02*
X7505476Y-15641476D01*
X7505476Y-15641476D02*
X7524524Y-15651000D01*
X7524524Y-15651000D02*
X7534048Y-15660524D01*
X7534048Y-15660524D02*
X7543571Y-15679571D01*
X7543571Y-15679571D02*
X7553095Y-15717667D01*
X7553095Y-15717667D02*
X7553095Y-15765286D01*
X7553095Y-15765286D02*
X7543571Y-15803381D01*
X7543571Y-15803381D02*
X7534048Y-15822428D01*
X7534048Y-15822428D02*
X7524524Y-15831952D01*
X7524524Y-15831952D02*
X7505476Y-15841476D01*
X7505476Y-15841476D02*
X7486429Y-15841476D01*
X7486429Y-15841476D02*
X7467381Y-15831952D01*
X7467381Y-15831952D02*
X7457857Y-15822428D01*
X7457857Y-15822428D02*
X7448333Y-15803381D01*
X7448333Y-15803381D02*
X7438810Y-15765286D01*
X7438810Y-15765286D02*
X7438810Y-15717667D01*
X7438810Y-15717667D02*
X7448333Y-15679571D01*
X7448333Y-15679571D02*
X7457857Y-15660524D01*
X7457857Y-15660524D02*
X7467381Y-15651000D01*
X7467381Y-15651000D02*
X7486429Y-15641476D01*
X7619762Y-15641476D02*
X7743571Y-15641476D01*
X7743571Y-15641476D02*
X7676905Y-15717667D01*
X7676905Y-15717667D02*
X7705476Y-15717667D01*
X7705476Y-15717667D02*
X7724524Y-15727190D01*
X7724524Y-15727190D02*
X7734048Y-15736714D01*
X7734048Y-15736714D02*
X7743571Y-15755762D01*
X7743571Y-15755762D02*
X7743571Y-15803381D01*
X7743571Y-15803381D02*
X7734048Y-15822428D01*
X7734048Y-15822428D02*
X7724524Y-15831952D01*
X7724524Y-15831952D02*
X7705476Y-15841476D01*
X7705476Y-15841476D02*
X7648333Y-15841476D01*
X7648333Y-15841476D02*
X7629286Y-15831952D01*
X7629286Y-15831952D02*
X7619762Y-15822428D01*
X7934048Y-15841476D02*
X7819762Y-15841476D01*
X7876905Y-15841476D02*
X7876905Y-15641476D01*
X7876905Y-15641476D02*
X7857857Y-15670048D01*
X7857857Y-15670048D02*
X7838810Y-15689095D01*
X7838810Y-15689095D02*
X7819762Y-15698619D01*
X8115000Y-15641476D02*
X8019762Y-15641476D01*
X8019762Y-15641476D02*
X8010238Y-15736714D01*
X8010238Y-15736714D02*
X8019762Y-15727190D01*
X8019762Y-15727190D02*
X8038810Y-15717667D01*
X8038810Y-15717667D02*
X8086429Y-15717667D01*
X8086429Y-15717667D02*
X8105476Y-15727190D01*
X8105476Y-15727190D02*
X8115000Y-15736714D01*
X8115000Y-15736714D02*
X8124524Y-15755762D01*
X8124524Y-15755762D02*
X8124524Y-15803381D01*
X8124524Y-15803381D02*
X8115000Y-15822428D01*
X8115000Y-15822428D02*
X8105476Y-15831952D01*
X8105476Y-15831952D02*
X8086429Y-15841476D01*
X8086429Y-15841476D02*
X8038810Y-15841476D01*
X8038810Y-15841476D02*
X8019762Y-15831952D01*
X8019762Y-15831952D02*
X8010238Y-15822428D01*
X8200714Y-15641476D02*
X8200714Y-15679571D01*
X8276905Y-15641476D02*
X8276905Y-15679571D01*
X8539762Y-15917667D02*
X8530238Y-15908143D01*
X8530238Y-15908143D02*
X8511191Y-15879571D01*
X8511191Y-15879571D02*
X8501667Y-15860524D01*
X8501667Y-15860524D02*
X8492143Y-15831952D01*
X8492143Y-15831952D02*
X8482619Y-15784333D01*
X8482619Y-15784333D02*
X8482619Y-15746238D01*
X8482619Y-15746238D02*
X8492143Y-15698619D01*
X8492143Y-15698619D02*
X8501667Y-15670048D01*
X8501667Y-15670048D02*
X8511191Y-15651000D01*
X8511191Y-15651000D02*
X8530238Y-15622428D01*
X8530238Y-15622428D02*
X8539762Y-15612905D01*
X8596905Y-15641476D02*
X8720714Y-15641476D01*
X8720714Y-15641476D02*
X8654048Y-15717667D01*
X8654048Y-15717667D02*
X8682619Y-15717667D01*
X8682619Y-15717667D02*
X8701667Y-15727190D01*
X8701667Y-15727190D02*
X8711191Y-15736714D01*
X8711191Y-15736714D02*
X8720714Y-15755762D01*
X8720714Y-15755762D02*
X8720714Y-15803381D01*
X8720714Y-15803381D02*
X8711191Y-15822428D01*
X8711191Y-15822428D02*
X8701667Y-15831952D01*
X8701667Y-15831952D02*
X8682619Y-15841476D01*
X8682619Y-15841476D02*
X8625476Y-15841476D01*
X8625476Y-15841476D02*
X8606429Y-15831952D01*
X8606429Y-15831952D02*
X8596905Y-15822428D01*
X8844524Y-15641476D02*
X8863572Y-15641476D01*
X8863572Y-15641476D02*
X8882619Y-15651000D01*
X8882619Y-15651000D02*
X8892143Y-15660524D01*
X8892143Y-15660524D02*
X8901667Y-15679571D01*
X8901667Y-15679571D02*
X8911191Y-15717667D01*
X8911191Y-15717667D02*
X8911191Y-15765286D01*
X8911191Y-15765286D02*
X8901667Y-15803381D01*
X8901667Y-15803381D02*
X8892143Y-15822428D01*
X8892143Y-15822428D02*
X8882619Y-15831952D01*
X8882619Y-15831952D02*
X8863572Y-15841476D01*
X8863572Y-15841476D02*
X8844524Y-15841476D01*
X8844524Y-15841476D02*
X8825476Y-15831952D01*
X8825476Y-15831952D02*
X8815953Y-15822428D01*
X8815953Y-15822428D02*
X8806429Y-15803381D01*
X8806429Y-15803381D02*
X8796905Y-15765286D01*
X8796905Y-15765286D02*
X8796905Y-15717667D01*
X8796905Y-15717667D02*
X8806429Y-15679571D01*
X8806429Y-15679571D02*
X8815953Y-15660524D01*
X8815953Y-15660524D02*
X8825476Y-15651000D01*
X8825476Y-15651000D02*
X8844524Y-15641476D01*
X9082619Y-15708143D02*
X9082619Y-15841476D01*
X9035000Y-15631952D02*
X8987381Y-15774809D01*
X8987381Y-15774809D02*
X9111191Y-15774809D01*
X9307381Y-15841476D02*
X9307381Y-15641476D01*
X9393095Y-15841476D02*
X9393095Y-15736714D01*
X9393095Y-15736714D02*
X9383572Y-15717667D01*
X9383572Y-15717667D02*
X9364524Y-15708143D01*
X9364524Y-15708143D02*
X9335953Y-15708143D01*
X9335953Y-15708143D02*
X9316905Y-15717667D01*
X9316905Y-15717667D02*
X9307381Y-15727190D01*
X9516905Y-15841476D02*
X9497857Y-15831952D01*
X9497857Y-15831952D02*
X9488334Y-15822428D01*
X9488334Y-15822428D02*
X9478810Y-15803381D01*
X9478810Y-15803381D02*
X9478810Y-15746238D01*
X9478810Y-15746238D02*
X9488334Y-15727190D01*
X9488334Y-15727190D02*
X9497857Y-15717667D01*
X9497857Y-15717667D02*
X9516905Y-15708143D01*
X9516905Y-15708143D02*
X9545476Y-15708143D01*
X9545476Y-15708143D02*
X9564524Y-15717667D01*
X9564524Y-15717667D02*
X9574048Y-15727190D01*
X9574048Y-15727190D02*
X9583572Y-15746238D01*
X9583572Y-15746238D02*
X9583572Y-15803381D01*
X9583572Y-15803381D02*
X9574048Y-15822428D01*
X9574048Y-15822428D02*
X9564524Y-15831952D01*
X9564524Y-15831952D02*
X9545476Y-15841476D01*
X9545476Y-15841476D02*
X9516905Y-15841476D01*
X9697857Y-15841476D02*
X9678810Y-15831952D01*
X9678810Y-15831952D02*
X9669286Y-15812905D01*
X9669286Y-15812905D02*
X9669286Y-15641476D01*
X9850238Y-15831952D02*
X9831191Y-15841476D01*
X9831191Y-15841476D02*
X9793095Y-15841476D01*
X9793095Y-15841476D02*
X9774048Y-15831952D01*
X9774048Y-15831952D02*
X9764524Y-15812905D01*
X9764524Y-15812905D02*
X9764524Y-15736714D01*
X9764524Y-15736714D02*
X9774048Y-15717667D01*
X9774048Y-15717667D02*
X9793095Y-15708143D01*
X9793095Y-15708143D02*
X9831191Y-15708143D01*
X9831191Y-15708143D02*
X9850238Y-15717667D01*
X9850238Y-15717667D02*
X9859762Y-15736714D01*
X9859762Y-15736714D02*
X9859762Y-15755762D01*
X9859762Y-15755762D02*
X9764524Y-15774809D01*
X9935953Y-15831952D02*
X9955000Y-15841476D01*
X9955000Y-15841476D02*
X9993095Y-15841476D01*
X9993095Y-15841476D02*
X10012143Y-15831952D01*
X10012143Y-15831952D02*
X10021667Y-15812905D01*
X10021667Y-15812905D02*
X10021667Y-15803381D01*
X10021667Y-15803381D02*
X10012143Y-15784333D01*
X10012143Y-15784333D02*
X9993095Y-15774809D01*
X9993095Y-15774809D02*
X9964524Y-15774809D01*
X9964524Y-15774809D02*
X9945476Y-15765286D01*
X9945476Y-15765286D02*
X9935953Y-15746238D01*
X9935953Y-15746238D02*
X9935953Y-15736714D01*
X9935953Y-15736714D02*
X9945476Y-15717667D01*
X9945476Y-15717667D02*
X9964524Y-15708143D01*
X9964524Y-15708143D02*
X9993095Y-15708143D01*
X9993095Y-15708143D02*
X10012143Y-15717667D01*
X10088334Y-15917667D02*
X10097857Y-15908143D01*
X10097857Y-15908143D02*
X10116905Y-15879571D01*
X10116905Y-15879571D02*
X10126429Y-15860524D01*
X10126429Y-15860524D02*
X10135953Y-15831952D01*
X10135953Y-15831952D02*
X10145476Y-15784333D01*
X10145476Y-15784333D02*
X10145476Y-15746238D01*
X10145476Y-15746238D02*
X10135953Y-15698619D01*
X10135953Y-15698619D02*
X10126429Y-15670048D01*
X10126429Y-15670048D02*
X10116905Y-15651000D01*
X10116905Y-15651000D02*
X10097857Y-15622428D01*
X10097857Y-15622428D02*
X10088334Y-15612905D01*
D14*
X5030000Y-15987000D02*
X5030000Y-16077000D01*
X4985000Y-16032000D02*
X5075000Y-16032000D01*
D11*
X5360714Y-15905476D02*
X5379762Y-15905476D01*
X5379762Y-15905476D02*
X5398810Y-15915000D01*
X5398810Y-15915000D02*
X5408333Y-15924524D01*
X5408333Y-15924524D02*
X5417857Y-15943571D01*
X5417857Y-15943571D02*
X5427381Y-15981667D01*
X5427381Y-15981667D02*
X5427381Y-16029286D01*
X5427381Y-16029286D02*
X5417857Y-16067381D01*
X5417857Y-16067381D02*
X5408333Y-16086428D01*
X5408333Y-16086428D02*
X5398810Y-16095952D01*
X5398810Y-16095952D02*
X5379762Y-16105476D01*
X5379762Y-16105476D02*
X5360714Y-16105476D01*
X5360714Y-16105476D02*
X5341667Y-16095952D01*
X5341667Y-16095952D02*
X5332143Y-16086428D01*
X5332143Y-16086428D02*
X5322619Y-16067381D01*
X5322619Y-16067381D02*
X5313095Y-16029286D01*
X5313095Y-16029286D02*
X5313095Y-15981667D01*
X5313095Y-15981667D02*
X5322619Y-15943571D01*
X5322619Y-15943571D02*
X5332143Y-15924524D01*
X5332143Y-15924524D02*
X5341667Y-15915000D01*
X5341667Y-15915000D02*
X5360714Y-15905476D01*
X5513095Y-16086428D02*
X5522619Y-16095952D01*
X5522619Y-16095952D02*
X5513095Y-16105476D01*
X5513095Y-16105476D02*
X5503571Y-16095952D01*
X5503571Y-16095952D02*
X5513095Y-16086428D01*
X5513095Y-16086428D02*
X5513095Y-16105476D01*
X5617857Y-16105476D02*
X5655952Y-16105476D01*
X5655952Y-16105476D02*
X5675000Y-16095952D01*
X5675000Y-16095952D02*
X5684524Y-16086428D01*
X5684524Y-16086428D02*
X5703571Y-16057857D01*
X5703571Y-16057857D02*
X5713095Y-16019762D01*
X5713095Y-16019762D02*
X5713095Y-15943571D01*
X5713095Y-15943571D02*
X5703571Y-15924524D01*
X5703571Y-15924524D02*
X5694048Y-15915000D01*
X5694048Y-15915000D02*
X5675000Y-15905476D01*
X5675000Y-15905476D02*
X5636905Y-15905476D01*
X5636905Y-15905476D02*
X5617857Y-15915000D01*
X5617857Y-15915000D02*
X5608333Y-15924524D01*
X5608333Y-15924524D02*
X5598809Y-15943571D01*
X5598809Y-15943571D02*
X5598809Y-15991190D01*
X5598809Y-15991190D02*
X5608333Y-16010238D01*
X5608333Y-16010238D02*
X5617857Y-16019762D01*
X5617857Y-16019762D02*
X5636905Y-16029286D01*
X5636905Y-16029286D02*
X5675000Y-16029286D01*
X5675000Y-16029286D02*
X5694048Y-16019762D01*
X5694048Y-16019762D02*
X5703571Y-16010238D01*
X5703571Y-16010238D02*
X5713095Y-15991190D01*
X5836905Y-15905476D02*
X5855952Y-15905476D01*
X5855952Y-15905476D02*
X5875000Y-15915000D01*
X5875000Y-15915000D02*
X5884524Y-15924524D01*
X5884524Y-15924524D02*
X5894048Y-15943571D01*
X5894048Y-15943571D02*
X5903571Y-15981667D01*
X5903571Y-15981667D02*
X5903571Y-16029286D01*
X5903571Y-16029286D02*
X5894048Y-16067381D01*
X5894048Y-16067381D02*
X5884524Y-16086428D01*
X5884524Y-16086428D02*
X5875000Y-16095952D01*
X5875000Y-16095952D02*
X5855952Y-16105476D01*
X5855952Y-16105476D02*
X5836905Y-16105476D01*
X5836905Y-16105476D02*
X5817857Y-16095952D01*
X5817857Y-16095952D02*
X5808333Y-16086428D01*
X5808333Y-16086428D02*
X5798809Y-16067381D01*
X5798809Y-16067381D02*
X5789286Y-16029286D01*
X5789286Y-16029286D02*
X5789286Y-15981667D01*
X5789286Y-15981667D02*
X5798809Y-15943571D01*
X5798809Y-15943571D02*
X5808333Y-15924524D01*
X5808333Y-15924524D02*
X5817857Y-15915000D01*
X5817857Y-15915000D02*
X5836905Y-15905476D01*
X6027381Y-15905476D02*
X6046429Y-15905476D01*
X6046429Y-15905476D02*
X6065476Y-15915000D01*
X6065476Y-15915000D02*
X6075000Y-15924524D01*
X6075000Y-15924524D02*
X6084524Y-15943571D01*
X6084524Y-15943571D02*
X6094048Y-15981667D01*
X6094048Y-15981667D02*
X6094048Y-16029286D01*
X6094048Y-16029286D02*
X6084524Y-16067381D01*
X6084524Y-16067381D02*
X6075000Y-16086428D01*
X6075000Y-16086428D02*
X6065476Y-16095952D01*
X6065476Y-16095952D02*
X6046429Y-16105476D01*
X6046429Y-16105476D02*
X6027381Y-16105476D01*
X6027381Y-16105476D02*
X6008333Y-16095952D01*
X6008333Y-16095952D02*
X5998809Y-16086428D01*
X5998809Y-16086428D02*
X5989286Y-16067381D01*
X5989286Y-16067381D02*
X5979762Y-16029286D01*
X5979762Y-16029286D02*
X5979762Y-15981667D01*
X5979762Y-15981667D02*
X5989286Y-15943571D01*
X5989286Y-15943571D02*
X5998809Y-15924524D01*
X5998809Y-15924524D02*
X6008333Y-15915000D01*
X6008333Y-15915000D02*
X6027381Y-15905476D01*
X6179762Y-16105476D02*
X6179762Y-15972143D01*
X6179762Y-15991190D02*
X6189286Y-15981667D01*
X6189286Y-15981667D02*
X6208333Y-15972143D01*
X6208333Y-15972143D02*
X6236905Y-15972143D01*
X6236905Y-15972143D02*
X6255952Y-15981667D01*
X6255952Y-15981667D02*
X6265476Y-16000714D01*
X6265476Y-16000714D02*
X6265476Y-16105476D01*
X6265476Y-16000714D02*
X6275000Y-15981667D01*
X6275000Y-15981667D02*
X6294048Y-15972143D01*
X6294048Y-15972143D02*
X6322619Y-15972143D01*
X6322619Y-15972143D02*
X6341667Y-15981667D01*
X6341667Y-15981667D02*
X6351190Y-16000714D01*
X6351190Y-16000714D02*
X6351190Y-16105476D01*
X6446429Y-16105476D02*
X6446429Y-15972143D01*
X6446429Y-15991190D02*
X6455952Y-15981667D01*
X6455952Y-15981667D02*
X6475000Y-15972143D01*
X6475000Y-15972143D02*
X6503571Y-15972143D01*
X6503571Y-15972143D02*
X6522619Y-15981667D01*
X6522619Y-15981667D02*
X6532143Y-16000714D01*
X6532143Y-16000714D02*
X6532143Y-16105476D01*
X6532143Y-16000714D02*
X6541667Y-15981667D01*
X6541667Y-15981667D02*
X6560714Y-15972143D01*
X6560714Y-15972143D02*
X6589286Y-15972143D01*
X6589286Y-15972143D02*
X6608333Y-15981667D01*
X6608333Y-15981667D02*
X6617857Y-16000714D01*
X6617857Y-16000714D02*
X6617857Y-16105476D01*
X6975952Y-15895952D02*
X6804524Y-16153095D01*
X7200714Y-15905476D02*
X7219762Y-15905476D01*
X7219762Y-15905476D02*
X7238810Y-15915000D01*
X7238810Y-15915000D02*
X7248333Y-15924524D01*
X7248333Y-15924524D02*
X7257857Y-15943571D01*
X7257857Y-15943571D02*
X7267381Y-15981667D01*
X7267381Y-15981667D02*
X7267381Y-16029286D01*
X7267381Y-16029286D02*
X7257857Y-16067381D01*
X7257857Y-16067381D02*
X7248333Y-16086428D01*
X7248333Y-16086428D02*
X7238810Y-16095952D01*
X7238810Y-16095952D02*
X7219762Y-16105476D01*
X7219762Y-16105476D02*
X7200714Y-16105476D01*
X7200714Y-16105476D02*
X7181667Y-16095952D01*
X7181667Y-16095952D02*
X7172143Y-16086428D01*
X7172143Y-16086428D02*
X7162619Y-16067381D01*
X7162619Y-16067381D02*
X7153095Y-16029286D01*
X7153095Y-16029286D02*
X7153095Y-15981667D01*
X7153095Y-15981667D02*
X7162619Y-15943571D01*
X7162619Y-15943571D02*
X7172143Y-15924524D01*
X7172143Y-15924524D02*
X7181667Y-15915000D01*
X7181667Y-15915000D02*
X7200714Y-15905476D01*
X7353095Y-16086428D02*
X7362619Y-16095952D01*
X7362619Y-16095952D02*
X7353095Y-16105476D01*
X7353095Y-16105476D02*
X7343571Y-16095952D01*
X7343571Y-16095952D02*
X7353095Y-16086428D01*
X7353095Y-16086428D02*
X7353095Y-16105476D01*
X7486429Y-15905476D02*
X7505476Y-15905476D01*
X7505476Y-15905476D02*
X7524524Y-15915000D01*
X7524524Y-15915000D02*
X7534048Y-15924524D01*
X7534048Y-15924524D02*
X7543571Y-15943571D01*
X7543571Y-15943571D02*
X7553095Y-15981667D01*
X7553095Y-15981667D02*
X7553095Y-16029286D01*
X7553095Y-16029286D02*
X7543571Y-16067381D01*
X7543571Y-16067381D02*
X7534048Y-16086428D01*
X7534048Y-16086428D02*
X7524524Y-16095952D01*
X7524524Y-16095952D02*
X7505476Y-16105476D01*
X7505476Y-16105476D02*
X7486429Y-16105476D01*
X7486429Y-16105476D02*
X7467381Y-16095952D01*
X7467381Y-16095952D02*
X7457857Y-16086428D01*
X7457857Y-16086428D02*
X7448333Y-16067381D01*
X7448333Y-16067381D02*
X7438810Y-16029286D01*
X7438810Y-16029286D02*
X7438810Y-15981667D01*
X7438810Y-15981667D02*
X7448333Y-15943571D01*
X7448333Y-15943571D02*
X7457857Y-15924524D01*
X7457857Y-15924524D02*
X7467381Y-15915000D01*
X7467381Y-15915000D02*
X7486429Y-15905476D01*
X7619762Y-15905476D02*
X7743571Y-15905476D01*
X7743571Y-15905476D02*
X7676905Y-15981667D01*
X7676905Y-15981667D02*
X7705476Y-15981667D01*
X7705476Y-15981667D02*
X7724524Y-15991190D01*
X7724524Y-15991190D02*
X7734048Y-16000714D01*
X7734048Y-16000714D02*
X7743571Y-16019762D01*
X7743571Y-16019762D02*
X7743571Y-16067381D01*
X7743571Y-16067381D02*
X7734048Y-16086428D01*
X7734048Y-16086428D02*
X7724524Y-16095952D01*
X7724524Y-16095952D02*
X7705476Y-16105476D01*
X7705476Y-16105476D02*
X7648333Y-16105476D01*
X7648333Y-16105476D02*
X7629286Y-16095952D01*
X7629286Y-16095952D02*
X7619762Y-16086428D01*
X7924524Y-15905476D02*
X7829286Y-15905476D01*
X7829286Y-15905476D02*
X7819762Y-16000714D01*
X7819762Y-16000714D02*
X7829286Y-15991190D01*
X7829286Y-15991190D02*
X7848333Y-15981667D01*
X7848333Y-15981667D02*
X7895952Y-15981667D01*
X7895952Y-15981667D02*
X7915000Y-15991190D01*
X7915000Y-15991190D02*
X7924524Y-16000714D01*
X7924524Y-16000714D02*
X7934048Y-16019762D01*
X7934048Y-16019762D02*
X7934048Y-16067381D01*
X7934048Y-16067381D02*
X7924524Y-16086428D01*
X7924524Y-16086428D02*
X7915000Y-16095952D01*
X7915000Y-16095952D02*
X7895952Y-16105476D01*
X7895952Y-16105476D02*
X7848333Y-16105476D01*
X7848333Y-16105476D02*
X7829286Y-16095952D01*
X7829286Y-16095952D02*
X7819762Y-16086428D01*
X8105476Y-15972143D02*
X8105476Y-16105476D01*
X8057857Y-15895952D02*
X8010238Y-16038809D01*
X8010238Y-16038809D02*
X8134048Y-16038809D01*
X8200714Y-15905476D02*
X8200714Y-15943571D01*
X8276905Y-15905476D02*
X8276905Y-15943571D01*
X8539762Y-16181667D02*
X8530238Y-16172143D01*
X8530238Y-16172143D02*
X8511191Y-16143571D01*
X8511191Y-16143571D02*
X8501667Y-16124524D01*
X8501667Y-16124524D02*
X8492143Y-16095952D01*
X8492143Y-16095952D02*
X8482619Y-16048333D01*
X8482619Y-16048333D02*
X8482619Y-16010238D01*
X8482619Y-16010238D02*
X8492143Y-15962619D01*
X8492143Y-15962619D02*
X8501667Y-15934048D01*
X8501667Y-15934048D02*
X8511191Y-15915000D01*
X8511191Y-15915000D02*
X8530238Y-15886428D01*
X8530238Y-15886428D02*
X8539762Y-15876905D01*
X8701667Y-15905476D02*
X8663572Y-15905476D01*
X8663572Y-15905476D02*
X8644524Y-15915000D01*
X8644524Y-15915000D02*
X8635000Y-15924524D01*
X8635000Y-15924524D02*
X8615953Y-15953095D01*
X8615953Y-15953095D02*
X8606429Y-15991190D01*
X8606429Y-15991190D02*
X8606429Y-16067381D01*
X8606429Y-16067381D02*
X8615953Y-16086428D01*
X8615953Y-16086428D02*
X8625476Y-16095952D01*
X8625476Y-16095952D02*
X8644524Y-16105476D01*
X8644524Y-16105476D02*
X8682619Y-16105476D01*
X8682619Y-16105476D02*
X8701667Y-16095952D01*
X8701667Y-16095952D02*
X8711191Y-16086428D01*
X8711191Y-16086428D02*
X8720714Y-16067381D01*
X8720714Y-16067381D02*
X8720714Y-16019762D01*
X8720714Y-16019762D02*
X8711191Y-16000714D01*
X8711191Y-16000714D02*
X8701667Y-15991190D01*
X8701667Y-15991190D02*
X8682619Y-15981667D01*
X8682619Y-15981667D02*
X8644524Y-15981667D01*
X8644524Y-15981667D02*
X8625476Y-15991190D01*
X8625476Y-15991190D02*
X8615953Y-16000714D01*
X8615953Y-16000714D02*
X8606429Y-16019762D01*
X8926429Y-16105476D02*
X8926429Y-15905476D01*
X9012143Y-16105476D02*
X9012143Y-16000714D01*
X9012143Y-16000714D02*
X9002619Y-15981667D01*
X9002619Y-15981667D02*
X8983572Y-15972143D01*
X8983572Y-15972143D02*
X8955000Y-15972143D01*
X8955000Y-15972143D02*
X8935953Y-15981667D01*
X8935953Y-15981667D02*
X8926429Y-15991190D01*
X9135953Y-16105476D02*
X9116905Y-16095952D01*
X9116905Y-16095952D02*
X9107381Y-16086428D01*
X9107381Y-16086428D02*
X9097857Y-16067381D01*
X9097857Y-16067381D02*
X9097857Y-16010238D01*
X9097857Y-16010238D02*
X9107381Y-15991190D01*
X9107381Y-15991190D02*
X9116905Y-15981667D01*
X9116905Y-15981667D02*
X9135953Y-15972143D01*
X9135953Y-15972143D02*
X9164524Y-15972143D01*
X9164524Y-15972143D02*
X9183572Y-15981667D01*
X9183572Y-15981667D02*
X9193095Y-15991190D01*
X9193095Y-15991190D02*
X9202619Y-16010238D01*
X9202619Y-16010238D02*
X9202619Y-16067381D01*
X9202619Y-16067381D02*
X9193095Y-16086428D01*
X9193095Y-16086428D02*
X9183572Y-16095952D01*
X9183572Y-16095952D02*
X9164524Y-16105476D01*
X9164524Y-16105476D02*
X9135953Y-16105476D01*
X9316905Y-16105476D02*
X9297857Y-16095952D01*
X9297857Y-16095952D02*
X9288334Y-16076905D01*
X9288334Y-16076905D02*
X9288334Y-15905476D01*
X9469286Y-16095952D02*
X9450238Y-16105476D01*
X9450238Y-16105476D02*
X9412143Y-16105476D01*
X9412143Y-16105476D02*
X9393095Y-16095952D01*
X9393095Y-16095952D02*
X9383572Y-16076905D01*
X9383572Y-16076905D02*
X9383572Y-16000714D01*
X9383572Y-16000714D02*
X9393095Y-15981667D01*
X9393095Y-15981667D02*
X9412143Y-15972143D01*
X9412143Y-15972143D02*
X9450238Y-15972143D01*
X9450238Y-15972143D02*
X9469286Y-15981667D01*
X9469286Y-15981667D02*
X9478810Y-16000714D01*
X9478810Y-16000714D02*
X9478810Y-16019762D01*
X9478810Y-16019762D02*
X9383572Y-16038809D01*
X9555000Y-16095952D02*
X9574048Y-16105476D01*
X9574048Y-16105476D02*
X9612143Y-16105476D01*
X9612143Y-16105476D02*
X9631191Y-16095952D01*
X9631191Y-16095952D02*
X9640715Y-16076905D01*
X9640715Y-16076905D02*
X9640715Y-16067381D01*
X9640715Y-16067381D02*
X9631191Y-16048333D01*
X9631191Y-16048333D02*
X9612143Y-16038809D01*
X9612143Y-16038809D02*
X9583572Y-16038809D01*
X9583572Y-16038809D02*
X9564524Y-16029286D01*
X9564524Y-16029286D02*
X9555000Y-16010238D01*
X9555000Y-16010238D02*
X9555000Y-16000714D01*
X9555000Y-16000714D02*
X9564524Y-15981667D01*
X9564524Y-15981667D02*
X9583572Y-15972143D01*
X9583572Y-15972143D02*
X9612143Y-15972143D01*
X9612143Y-15972143D02*
X9631191Y-15981667D01*
X9707381Y-16181667D02*
X9716905Y-16172143D01*
X9716905Y-16172143D02*
X9735953Y-16143571D01*
X9735953Y-16143571D02*
X9745476Y-16124524D01*
X9745476Y-16124524D02*
X9755000Y-16095952D01*
X9755000Y-16095952D02*
X9764524Y-16048333D01*
X9764524Y-16048333D02*
X9764524Y-16010238D01*
X9764524Y-16010238D02*
X9755000Y-15962619D01*
X9755000Y-15962619D02*
X9745476Y-15934048D01*
X9745476Y-15934048D02*
X9735953Y-15915000D01*
X9735953Y-15915000D02*
X9716905Y-15886428D01*
X9716905Y-15886428D02*
X9707381Y-15876905D01*
D10*
X5060356Y-16331356D02*
X5060356Y-16260644D01*
X4989644Y-16260644D01*
X4989644Y-16331356D01*
X5060356Y-16331356D01*
D11*
X5427381Y-16369476D02*
X5313095Y-16369476D01*
X5370238Y-16369476D02*
X5370238Y-16169476D01*
X5370238Y-16169476D02*
X5351190Y-16198048D01*
X5351190Y-16198048D02*
X5332143Y-16217095D01*
X5332143Y-16217095D02*
X5313095Y-16226619D01*
X5513095Y-16350428D02*
X5522619Y-16359952D01*
X5522619Y-16359952D02*
X5513095Y-16369476D01*
X5513095Y-16369476D02*
X5503571Y-16359952D01*
X5503571Y-16359952D02*
X5513095Y-16350428D01*
X5513095Y-16350428D02*
X5513095Y-16369476D01*
X5646428Y-16169476D02*
X5665476Y-16169476D01*
X5665476Y-16169476D02*
X5684524Y-16179000D01*
X5684524Y-16179000D02*
X5694048Y-16188524D01*
X5694048Y-16188524D02*
X5703571Y-16207571D01*
X5703571Y-16207571D02*
X5713095Y-16245667D01*
X5713095Y-16245667D02*
X5713095Y-16293286D01*
X5713095Y-16293286D02*
X5703571Y-16331381D01*
X5703571Y-16331381D02*
X5694048Y-16350428D01*
X5694048Y-16350428D02*
X5684524Y-16359952D01*
X5684524Y-16359952D02*
X5665476Y-16369476D01*
X5665476Y-16369476D02*
X5646428Y-16369476D01*
X5646428Y-16369476D02*
X5627381Y-16359952D01*
X5627381Y-16359952D02*
X5617857Y-16350428D01*
X5617857Y-16350428D02*
X5608333Y-16331381D01*
X5608333Y-16331381D02*
X5598809Y-16293286D01*
X5598809Y-16293286D02*
X5598809Y-16245667D01*
X5598809Y-16245667D02*
X5608333Y-16207571D01*
X5608333Y-16207571D02*
X5617857Y-16188524D01*
X5617857Y-16188524D02*
X5627381Y-16179000D01*
X5627381Y-16179000D02*
X5646428Y-16169476D01*
X5836905Y-16169476D02*
X5855952Y-16169476D01*
X5855952Y-16169476D02*
X5875000Y-16179000D01*
X5875000Y-16179000D02*
X5884524Y-16188524D01*
X5884524Y-16188524D02*
X5894048Y-16207571D01*
X5894048Y-16207571D02*
X5903571Y-16245667D01*
X5903571Y-16245667D02*
X5903571Y-16293286D01*
X5903571Y-16293286D02*
X5894048Y-16331381D01*
X5894048Y-16331381D02*
X5884524Y-16350428D01*
X5884524Y-16350428D02*
X5875000Y-16359952D01*
X5875000Y-16359952D02*
X5855952Y-16369476D01*
X5855952Y-16369476D02*
X5836905Y-16369476D01*
X5836905Y-16369476D02*
X5817857Y-16359952D01*
X5817857Y-16359952D02*
X5808333Y-16350428D01*
X5808333Y-16350428D02*
X5798809Y-16331381D01*
X5798809Y-16331381D02*
X5789286Y-16293286D01*
X5789286Y-16293286D02*
X5789286Y-16245667D01*
X5789286Y-16245667D02*
X5798809Y-16207571D01*
X5798809Y-16207571D02*
X5808333Y-16188524D01*
X5808333Y-16188524D02*
X5817857Y-16179000D01*
X5817857Y-16179000D02*
X5836905Y-16169476D01*
X6027381Y-16169476D02*
X6046429Y-16169476D01*
X6046429Y-16169476D02*
X6065476Y-16179000D01*
X6065476Y-16179000D02*
X6075000Y-16188524D01*
X6075000Y-16188524D02*
X6084524Y-16207571D01*
X6084524Y-16207571D02*
X6094048Y-16245667D01*
X6094048Y-16245667D02*
X6094048Y-16293286D01*
X6094048Y-16293286D02*
X6084524Y-16331381D01*
X6084524Y-16331381D02*
X6075000Y-16350428D01*
X6075000Y-16350428D02*
X6065476Y-16359952D01*
X6065476Y-16359952D02*
X6046429Y-16369476D01*
X6046429Y-16369476D02*
X6027381Y-16369476D01*
X6027381Y-16369476D02*
X6008333Y-16359952D01*
X6008333Y-16359952D02*
X5998809Y-16350428D01*
X5998809Y-16350428D02*
X5989286Y-16331381D01*
X5989286Y-16331381D02*
X5979762Y-16293286D01*
X5979762Y-16293286D02*
X5979762Y-16245667D01*
X5979762Y-16245667D02*
X5989286Y-16207571D01*
X5989286Y-16207571D02*
X5998809Y-16188524D01*
X5998809Y-16188524D02*
X6008333Y-16179000D01*
X6008333Y-16179000D02*
X6027381Y-16169476D01*
X6179762Y-16369476D02*
X6179762Y-16236143D01*
X6179762Y-16255190D02*
X6189286Y-16245667D01*
X6189286Y-16245667D02*
X6208333Y-16236143D01*
X6208333Y-16236143D02*
X6236905Y-16236143D01*
X6236905Y-16236143D02*
X6255952Y-16245667D01*
X6255952Y-16245667D02*
X6265476Y-16264714D01*
X6265476Y-16264714D02*
X6265476Y-16369476D01*
X6265476Y-16264714D02*
X6275000Y-16245667D01*
X6275000Y-16245667D02*
X6294048Y-16236143D01*
X6294048Y-16236143D02*
X6322619Y-16236143D01*
X6322619Y-16236143D02*
X6341667Y-16245667D01*
X6341667Y-16245667D02*
X6351190Y-16264714D01*
X6351190Y-16264714D02*
X6351190Y-16369476D01*
X6446429Y-16369476D02*
X6446429Y-16236143D01*
X6446429Y-16255190D02*
X6455952Y-16245667D01*
X6455952Y-16245667D02*
X6475000Y-16236143D01*
X6475000Y-16236143D02*
X6503571Y-16236143D01*
X6503571Y-16236143D02*
X6522619Y-16245667D01*
X6522619Y-16245667D02*
X6532143Y-16264714D01*
X6532143Y-16264714D02*
X6532143Y-16369476D01*
X6532143Y-16264714D02*
X6541667Y-16245667D01*
X6541667Y-16245667D02*
X6560714Y-16236143D01*
X6560714Y-16236143D02*
X6589286Y-16236143D01*
X6589286Y-16236143D02*
X6608333Y-16245667D01*
X6608333Y-16245667D02*
X6617857Y-16264714D01*
X6617857Y-16264714D02*
X6617857Y-16369476D01*
X6975952Y-16159952D02*
X6804524Y-16417095D01*
X7200714Y-16169476D02*
X7219762Y-16169476D01*
X7219762Y-16169476D02*
X7238810Y-16179000D01*
X7238810Y-16179000D02*
X7248333Y-16188524D01*
X7248333Y-16188524D02*
X7257857Y-16207571D01*
X7257857Y-16207571D02*
X7267381Y-16245667D01*
X7267381Y-16245667D02*
X7267381Y-16293286D01*
X7267381Y-16293286D02*
X7257857Y-16331381D01*
X7257857Y-16331381D02*
X7248333Y-16350428D01*
X7248333Y-16350428D02*
X7238810Y-16359952D01*
X7238810Y-16359952D02*
X7219762Y-16369476D01*
X7219762Y-16369476D02*
X7200714Y-16369476D01*
X7200714Y-16369476D02*
X7181667Y-16359952D01*
X7181667Y-16359952D02*
X7172143Y-16350428D01*
X7172143Y-16350428D02*
X7162619Y-16331381D01*
X7162619Y-16331381D02*
X7153095Y-16293286D01*
X7153095Y-16293286D02*
X7153095Y-16245667D01*
X7153095Y-16245667D02*
X7162619Y-16207571D01*
X7162619Y-16207571D02*
X7172143Y-16188524D01*
X7172143Y-16188524D02*
X7181667Y-16179000D01*
X7181667Y-16179000D02*
X7200714Y-16169476D01*
X7353095Y-16350428D02*
X7362619Y-16359952D01*
X7362619Y-16359952D02*
X7353095Y-16369476D01*
X7353095Y-16369476D02*
X7343571Y-16359952D01*
X7343571Y-16359952D02*
X7353095Y-16350428D01*
X7353095Y-16350428D02*
X7353095Y-16369476D01*
X7486429Y-16169476D02*
X7505476Y-16169476D01*
X7505476Y-16169476D02*
X7524524Y-16179000D01*
X7524524Y-16179000D02*
X7534048Y-16188524D01*
X7534048Y-16188524D02*
X7543571Y-16207571D01*
X7543571Y-16207571D02*
X7553095Y-16245667D01*
X7553095Y-16245667D02*
X7553095Y-16293286D01*
X7553095Y-16293286D02*
X7543571Y-16331381D01*
X7543571Y-16331381D02*
X7534048Y-16350428D01*
X7534048Y-16350428D02*
X7524524Y-16359952D01*
X7524524Y-16359952D02*
X7505476Y-16369476D01*
X7505476Y-16369476D02*
X7486429Y-16369476D01*
X7486429Y-16369476D02*
X7467381Y-16359952D01*
X7467381Y-16359952D02*
X7457857Y-16350428D01*
X7457857Y-16350428D02*
X7448333Y-16331381D01*
X7448333Y-16331381D02*
X7438810Y-16293286D01*
X7438810Y-16293286D02*
X7438810Y-16245667D01*
X7438810Y-16245667D02*
X7448333Y-16207571D01*
X7448333Y-16207571D02*
X7457857Y-16188524D01*
X7457857Y-16188524D02*
X7467381Y-16179000D01*
X7467381Y-16179000D02*
X7486429Y-16169476D01*
X7619762Y-16169476D02*
X7743571Y-16169476D01*
X7743571Y-16169476D02*
X7676905Y-16245667D01*
X7676905Y-16245667D02*
X7705476Y-16245667D01*
X7705476Y-16245667D02*
X7724524Y-16255190D01*
X7724524Y-16255190D02*
X7734048Y-16264714D01*
X7734048Y-16264714D02*
X7743571Y-16283762D01*
X7743571Y-16283762D02*
X7743571Y-16331381D01*
X7743571Y-16331381D02*
X7734048Y-16350428D01*
X7734048Y-16350428D02*
X7724524Y-16359952D01*
X7724524Y-16359952D02*
X7705476Y-16369476D01*
X7705476Y-16369476D02*
X7648333Y-16369476D01*
X7648333Y-16369476D02*
X7629286Y-16359952D01*
X7629286Y-16359952D02*
X7619762Y-16350428D01*
X7838810Y-16369476D02*
X7876905Y-16369476D01*
X7876905Y-16369476D02*
X7895952Y-16359952D01*
X7895952Y-16359952D02*
X7905476Y-16350428D01*
X7905476Y-16350428D02*
X7924524Y-16321857D01*
X7924524Y-16321857D02*
X7934048Y-16283762D01*
X7934048Y-16283762D02*
X7934048Y-16207571D01*
X7934048Y-16207571D02*
X7924524Y-16188524D01*
X7924524Y-16188524D02*
X7915000Y-16179000D01*
X7915000Y-16179000D02*
X7895952Y-16169476D01*
X7895952Y-16169476D02*
X7857857Y-16169476D01*
X7857857Y-16169476D02*
X7838810Y-16179000D01*
X7838810Y-16179000D02*
X7829286Y-16188524D01*
X7829286Y-16188524D02*
X7819762Y-16207571D01*
X7819762Y-16207571D02*
X7819762Y-16255190D01*
X7819762Y-16255190D02*
X7829286Y-16274238D01*
X7829286Y-16274238D02*
X7838810Y-16283762D01*
X7838810Y-16283762D02*
X7857857Y-16293286D01*
X7857857Y-16293286D02*
X7895952Y-16293286D01*
X7895952Y-16293286D02*
X7915000Y-16283762D01*
X7915000Y-16283762D02*
X7924524Y-16274238D01*
X7924524Y-16274238D02*
X7934048Y-16255190D01*
X8105476Y-16236143D02*
X8105476Y-16369476D01*
X8057857Y-16159952D02*
X8010238Y-16302809D01*
X8010238Y-16302809D02*
X8134048Y-16302809D01*
X8200714Y-16169476D02*
X8200714Y-16207571D01*
X8276905Y-16169476D02*
X8276905Y-16207571D01*
X8539762Y-16445667D02*
X8530238Y-16436143D01*
X8530238Y-16436143D02*
X8511191Y-16407571D01*
X8511191Y-16407571D02*
X8501667Y-16388524D01*
X8501667Y-16388524D02*
X8492143Y-16359952D01*
X8492143Y-16359952D02*
X8482619Y-16312333D01*
X8482619Y-16312333D02*
X8482619Y-16274238D01*
X8482619Y-16274238D02*
X8492143Y-16226619D01*
X8492143Y-16226619D02*
X8501667Y-16198048D01*
X8501667Y-16198048D02*
X8511191Y-16179000D01*
X8511191Y-16179000D02*
X8530238Y-16150428D01*
X8530238Y-16150428D02*
X8539762Y-16140905D01*
X8720714Y-16369476D02*
X8606429Y-16369476D01*
X8663572Y-16369476D02*
X8663572Y-16169476D01*
X8663572Y-16169476D02*
X8644524Y-16198048D01*
X8644524Y-16198048D02*
X8625476Y-16217095D01*
X8625476Y-16217095D02*
X8606429Y-16226619D01*
X8844524Y-16169476D02*
X8863572Y-16169476D01*
X8863572Y-16169476D02*
X8882619Y-16179000D01*
X8882619Y-16179000D02*
X8892143Y-16188524D01*
X8892143Y-16188524D02*
X8901667Y-16207571D01*
X8901667Y-16207571D02*
X8911191Y-16245667D01*
X8911191Y-16245667D02*
X8911191Y-16293286D01*
X8911191Y-16293286D02*
X8901667Y-16331381D01*
X8901667Y-16331381D02*
X8892143Y-16350428D01*
X8892143Y-16350428D02*
X8882619Y-16359952D01*
X8882619Y-16359952D02*
X8863572Y-16369476D01*
X8863572Y-16369476D02*
X8844524Y-16369476D01*
X8844524Y-16369476D02*
X8825476Y-16359952D01*
X8825476Y-16359952D02*
X8815953Y-16350428D01*
X8815953Y-16350428D02*
X8806429Y-16331381D01*
X8806429Y-16331381D02*
X8796905Y-16293286D01*
X8796905Y-16293286D02*
X8796905Y-16245667D01*
X8796905Y-16245667D02*
X8806429Y-16207571D01*
X8806429Y-16207571D02*
X8815953Y-16188524D01*
X8815953Y-16188524D02*
X8825476Y-16179000D01*
X8825476Y-16179000D02*
X8844524Y-16169476D01*
X9025476Y-16255190D02*
X9006429Y-16245667D01*
X9006429Y-16245667D02*
X8996905Y-16236143D01*
X8996905Y-16236143D02*
X8987381Y-16217095D01*
X8987381Y-16217095D02*
X8987381Y-16207571D01*
X8987381Y-16207571D02*
X8996905Y-16188524D01*
X8996905Y-16188524D02*
X9006429Y-16179000D01*
X9006429Y-16179000D02*
X9025476Y-16169476D01*
X9025476Y-16169476D02*
X9063572Y-16169476D01*
X9063572Y-16169476D02*
X9082619Y-16179000D01*
X9082619Y-16179000D02*
X9092143Y-16188524D01*
X9092143Y-16188524D02*
X9101667Y-16207571D01*
X9101667Y-16207571D02*
X9101667Y-16217095D01*
X9101667Y-16217095D02*
X9092143Y-16236143D01*
X9092143Y-16236143D02*
X9082619Y-16245667D01*
X9082619Y-16245667D02*
X9063572Y-16255190D01*
X9063572Y-16255190D02*
X9025476Y-16255190D01*
X9025476Y-16255190D02*
X9006429Y-16264714D01*
X9006429Y-16264714D02*
X8996905Y-16274238D01*
X8996905Y-16274238D02*
X8987381Y-16293286D01*
X8987381Y-16293286D02*
X8987381Y-16331381D01*
X8987381Y-16331381D02*
X8996905Y-16350428D01*
X8996905Y-16350428D02*
X9006429Y-16359952D01*
X9006429Y-16359952D02*
X9025476Y-16369476D01*
X9025476Y-16369476D02*
X9063572Y-16369476D01*
X9063572Y-16369476D02*
X9082619Y-16359952D01*
X9082619Y-16359952D02*
X9092143Y-16350428D01*
X9092143Y-16350428D02*
X9101667Y-16331381D01*
X9101667Y-16331381D02*
X9101667Y-16293286D01*
X9101667Y-16293286D02*
X9092143Y-16274238D01*
X9092143Y-16274238D02*
X9082619Y-16264714D01*
X9082619Y-16264714D02*
X9063572Y-16255190D01*
X9307381Y-16369476D02*
X9307381Y-16169476D01*
X9393095Y-16369476D02*
X9393095Y-16264714D01*
X9393095Y-16264714D02*
X9383572Y-16245667D01*
X9383572Y-16245667D02*
X9364524Y-16236143D01*
X9364524Y-16236143D02*
X9335953Y-16236143D01*
X9335953Y-16236143D02*
X9316905Y-16245667D01*
X9316905Y-16245667D02*
X9307381Y-16255190D01*
X9516905Y-16369476D02*
X9497857Y-16359952D01*
X9497857Y-16359952D02*
X9488334Y-16350428D01*
X9488334Y-16350428D02*
X9478810Y-16331381D01*
X9478810Y-16331381D02*
X9478810Y-16274238D01*
X9478810Y-16274238D02*
X9488334Y-16255190D01*
X9488334Y-16255190D02*
X9497857Y-16245667D01*
X9497857Y-16245667D02*
X9516905Y-16236143D01*
X9516905Y-16236143D02*
X9545476Y-16236143D01*
X9545476Y-16236143D02*
X9564524Y-16245667D01*
X9564524Y-16245667D02*
X9574048Y-16255190D01*
X9574048Y-16255190D02*
X9583572Y-16274238D01*
X9583572Y-16274238D02*
X9583572Y-16331381D01*
X9583572Y-16331381D02*
X9574048Y-16350428D01*
X9574048Y-16350428D02*
X9564524Y-16359952D01*
X9564524Y-16359952D02*
X9545476Y-16369476D01*
X9545476Y-16369476D02*
X9516905Y-16369476D01*
X9697857Y-16369476D02*
X9678810Y-16359952D01*
X9678810Y-16359952D02*
X9669286Y-16340905D01*
X9669286Y-16340905D02*
X9669286Y-16169476D01*
X9850238Y-16359952D02*
X9831191Y-16369476D01*
X9831191Y-16369476D02*
X9793095Y-16369476D01*
X9793095Y-16369476D02*
X9774048Y-16359952D01*
X9774048Y-16359952D02*
X9764524Y-16340905D01*
X9764524Y-16340905D02*
X9764524Y-16264714D01*
X9764524Y-16264714D02*
X9774048Y-16245667D01*
X9774048Y-16245667D02*
X9793095Y-16236143D01*
X9793095Y-16236143D02*
X9831191Y-16236143D01*
X9831191Y-16236143D02*
X9850238Y-16245667D01*
X9850238Y-16245667D02*
X9859762Y-16264714D01*
X9859762Y-16264714D02*
X9859762Y-16283762D01*
X9859762Y-16283762D02*
X9764524Y-16302809D01*
X9935953Y-16359952D02*
X9955000Y-16369476D01*
X9955000Y-16369476D02*
X9993095Y-16369476D01*
X9993095Y-16369476D02*
X10012143Y-16359952D01*
X10012143Y-16359952D02*
X10021667Y-16340905D01*
X10021667Y-16340905D02*
X10021667Y-16331381D01*
X10021667Y-16331381D02*
X10012143Y-16312333D01*
X10012143Y-16312333D02*
X9993095Y-16302809D01*
X9993095Y-16302809D02*
X9964524Y-16302809D01*
X9964524Y-16302809D02*
X9945476Y-16293286D01*
X9945476Y-16293286D02*
X9935953Y-16274238D01*
X9935953Y-16274238D02*
X9935953Y-16264714D01*
X9935953Y-16264714D02*
X9945476Y-16245667D01*
X9945476Y-16245667D02*
X9964524Y-16236143D01*
X9964524Y-16236143D02*
X9993095Y-16236143D01*
X9993095Y-16236143D02*
X10012143Y-16245667D01*
X10088334Y-16445667D02*
X10097857Y-16436143D01*
X10097857Y-16436143D02*
X10116905Y-16407571D01*
X10116905Y-16407571D02*
X10126429Y-16388524D01*
X10126429Y-16388524D02*
X10135953Y-16359952D01*
X10135953Y-16359952D02*
X10145476Y-16312333D01*
X10145476Y-16312333D02*
X10145476Y-16274238D01*
X10145476Y-16274238D02*
X10135953Y-16226619D01*
X10135953Y-16226619D02*
X10126429Y-16198048D01*
X10126429Y-16198048D02*
X10116905Y-16179000D01*
X10116905Y-16179000D02*
X10097857Y-16150428D01*
X10097857Y-16150428D02*
X10088334Y-16140905D01*
M02*
