G04 #@! TF.GenerationSoftware,KiCad,Pcbnew,(7.0.0)*
G04 #@! TF.CreationDate,2024-03-28T20:27:28-07:00*
G04 #@! TF.ProjectId,rom_counter,726f6d5f-636f-4756-9e74-65722e6b6963,rev?*
G04 #@! TF.SameCoordinates,Original*
G04 #@! TF.FileFunction,Copper,L1,Top*
G04 #@! TF.FilePolarity,Positive*
%FSLAX46Y46*%
G04 Gerber Fmt 4.6, Leading zero omitted, Abs format (unit mm)*
G04 Created by KiCad (PCBNEW (7.0.0)) date 2024-03-28 20:27:28*
%MOMM*%
%LPD*%
G01*
G04 APERTURE LIST*
G04 #@! TA.AperFunction,ComponentPad*
%ADD10R,1.600000X1.600000*%
G04 #@! TD*
G04 #@! TA.AperFunction,ComponentPad*
%ADD11O,1.600000X1.600000*%
G04 #@! TD*
G04 #@! TA.AperFunction,ComponentPad*
%ADD12R,1.700000X1.700000*%
G04 #@! TD*
G04 #@! TA.AperFunction,ComponentPad*
%ADD13O,1.700000X1.700000*%
G04 #@! TD*
G04 #@! TA.AperFunction,ComponentPad*
%ADD14C,1.600000*%
G04 #@! TD*
G04 #@! TA.AperFunction,ComponentPad*
%ADD15R,1.800000X1.800000*%
G04 #@! TD*
G04 #@! TA.AperFunction,ComponentPad*
%ADD16C,1.800000*%
G04 #@! TD*
G04 #@! TA.AperFunction,ViaPad*
%ADD17C,0.762000*%
G04 #@! TD*
G04 #@! TA.AperFunction,Conductor*
%ADD18C,0.762000*%
G04 #@! TD*
G04 #@! TA.AperFunction,Conductor*
%ADD19C,0.254000*%
G04 #@! TD*
G04 APERTURE END LIST*
D10*
X60959999Y-116839999D03*
D11*
X63499999Y-116839999D03*
X66039999Y-116839999D03*
X68579999Y-116839999D03*
X71119999Y-116839999D03*
X73659999Y-116839999D03*
X76199999Y-116839999D03*
X76199999Y-109219999D03*
X73659999Y-109219999D03*
X71119999Y-109219999D03*
X68579999Y-109219999D03*
X66039999Y-109219999D03*
X63499999Y-109219999D03*
X60959999Y-109219999D03*
D12*
X139699999Y-144779999D03*
D13*
X137159999Y-144779999D03*
X134619999Y-144779999D03*
X132079999Y-144779999D03*
X129539999Y-144779999D03*
X126999999Y-144779999D03*
X124459999Y-144779999D03*
X121919999Y-144779999D03*
X119379999Y-144779999D03*
X116839999Y-144779999D03*
X114299999Y-144779999D03*
X111759999Y-144779999D03*
X109219999Y-144779999D03*
X106679999Y-144779999D03*
X104139999Y-144779999D03*
X101599999Y-144779999D03*
D10*
X119125999Y-65785999D03*
D14*
X116626000Y-65786000D03*
D10*
X180339999Y-109219999D03*
D11*
X177799999Y-109219999D03*
X175259999Y-109219999D03*
X172719999Y-109219999D03*
X170179999Y-109219999D03*
X167639999Y-109219999D03*
X165099999Y-109219999D03*
X162559999Y-109219999D03*
X160019999Y-109219999D03*
D14*
X248412000Y-129540000D03*
D11*
X248411999Y-119379999D03*
D12*
X137159999Y-116839999D03*
D13*
X137159999Y-114299999D03*
X139699999Y-116839999D03*
X139699999Y-114299999D03*
X142239999Y-116839999D03*
X142239999Y-114299999D03*
X144779999Y-116839999D03*
X144779999Y-114299999D03*
X147319999Y-116839999D03*
X147319999Y-114299999D03*
X149859999Y-116839999D03*
X149859999Y-114299999D03*
X152399999Y-116839999D03*
X152399999Y-114299999D03*
X154939999Y-116839999D03*
X154939999Y-114299999D03*
X157479999Y-116839999D03*
X157479999Y-114299999D03*
X160019999Y-116839999D03*
X160019999Y-114299999D03*
X162559999Y-116839999D03*
X162559999Y-114299999D03*
X165099999Y-116839999D03*
X165099999Y-114299999D03*
X167639999Y-116839999D03*
X167639999Y-114299999D03*
X170179999Y-116839999D03*
X170179999Y-114299999D03*
X172719999Y-116839999D03*
X172719999Y-114299999D03*
X175259999Y-116839999D03*
X175259999Y-114299999D03*
D10*
X231139999Y-78739999D03*
D11*
X231139999Y-81279999D03*
X231139999Y-83819999D03*
X231139999Y-86359999D03*
X231139999Y-88899999D03*
X231139999Y-91439999D03*
X231139999Y-93979999D03*
X231139999Y-96519999D03*
X231139999Y-99059999D03*
X231139999Y-101599999D03*
X231139999Y-104139999D03*
X231139999Y-106679999D03*
X231139999Y-109219999D03*
X231139999Y-111759999D03*
X246379999Y-111759999D03*
X246379999Y-109219999D03*
X246379999Y-106679999D03*
X246379999Y-104139999D03*
X246379999Y-101599999D03*
X246379999Y-99059999D03*
X246379999Y-96519999D03*
X246379999Y-93979999D03*
X246379999Y-91439999D03*
X246379999Y-88899999D03*
X246379999Y-86359999D03*
X246379999Y-83819999D03*
X246379999Y-81279999D03*
X246379999Y-78739999D03*
D12*
X86359999Y-120649999D03*
D13*
X86359999Y-118109999D03*
D14*
X86360000Y-129460000D03*
X86360000Y-124460000D03*
D12*
X66039999Y-132841999D03*
D13*
X66039999Y-130301999D03*
D12*
X86359999Y-105409999D03*
D13*
X86359999Y-102869999D03*
D10*
X160019999Y-86613999D03*
D11*
X162559999Y-86613999D03*
X165099999Y-86613999D03*
X167639999Y-86613999D03*
X170179999Y-86613999D03*
X172719999Y-86613999D03*
X175259999Y-86613999D03*
X175259999Y-78993999D03*
X172719999Y-78993999D03*
X170179999Y-78993999D03*
X167639999Y-78993999D03*
X165099999Y-78993999D03*
X162559999Y-78993999D03*
X160019999Y-78993999D03*
D10*
X134619999Y-86613999D03*
D11*
X137159999Y-86613999D03*
X139699999Y-86613999D03*
X142239999Y-86613999D03*
X144779999Y-86613999D03*
X147319999Y-86613999D03*
X149859999Y-86613999D03*
X149859999Y-78993999D03*
X147319999Y-78993999D03*
X144779999Y-78993999D03*
X142239999Y-78993999D03*
X139699999Y-78993999D03*
X137159999Y-78993999D03*
X134619999Y-78993999D03*
D14*
X154940000Y-83994000D03*
X154940000Y-78994000D03*
X55880000Y-83740000D03*
X55880000Y-78740000D03*
X213440000Y-68580000D03*
X218440000Y-68580000D03*
X73660000Y-133350000D03*
D11*
X73659999Y-123189999D03*
D15*
X245109999Y-63499999D03*
D16*
X242570000Y-63500000D03*
D10*
X91439999Y-101599999D03*
D11*
X93979999Y-101599999D03*
X96519999Y-101599999D03*
X99059999Y-101599999D03*
X101599999Y-101599999D03*
X104139999Y-101599999D03*
X106679999Y-101599999D03*
X109219999Y-101599999D03*
X109219999Y-93979999D03*
X106679999Y-93979999D03*
X104139999Y-93979999D03*
X101599999Y-93979999D03*
X99059999Y-93979999D03*
X96519999Y-93979999D03*
X93979999Y-93979999D03*
X91439999Y-93979999D03*
D10*
X160019999Y-101599999D03*
D11*
X162559999Y-101599999D03*
X165099999Y-101599999D03*
X167639999Y-101599999D03*
X170179999Y-101599999D03*
X172719999Y-101599999D03*
X175259999Y-101599999D03*
X175259999Y-93979999D03*
X172719999Y-93979999D03*
X170179999Y-93979999D03*
X167639999Y-93979999D03*
X165099999Y-93979999D03*
X162559999Y-93979999D03*
X160019999Y-93979999D03*
D14*
X86868000Y-64770000D03*
D11*
X97027999Y-64769999D03*
D10*
X60959999Y-86359999D03*
D11*
X63499999Y-86359999D03*
X66039999Y-86359999D03*
X68579999Y-86359999D03*
X71119999Y-86359999D03*
X73659999Y-86359999D03*
X76199999Y-86359999D03*
X76199999Y-78739999D03*
X73659999Y-78739999D03*
X71119999Y-78739999D03*
X68579999Y-78739999D03*
X66039999Y-78739999D03*
X63499999Y-78739999D03*
X60959999Y-78739999D03*
D10*
X60959999Y-101599999D03*
D11*
X63499999Y-101599999D03*
X66039999Y-101599999D03*
X68579999Y-101599999D03*
X71119999Y-101599999D03*
X73659999Y-101599999D03*
X76199999Y-101599999D03*
X76199999Y-93979999D03*
X73659999Y-93979999D03*
X71119999Y-93979999D03*
X68579999Y-93979999D03*
X66039999Y-93979999D03*
X63499999Y-93979999D03*
X60959999Y-93979999D03*
D10*
X91439999Y-116839999D03*
D11*
X93979999Y-116839999D03*
X96519999Y-116839999D03*
X99059999Y-116839999D03*
X101599999Y-116839999D03*
X104139999Y-116839999D03*
X106679999Y-116839999D03*
X109219999Y-116839999D03*
X109219999Y-109219999D03*
X106679999Y-109219999D03*
X104139999Y-109219999D03*
X101599999Y-109219999D03*
X99059999Y-109219999D03*
X96519999Y-109219999D03*
X93979999Y-109219999D03*
X91439999Y-109219999D03*
D14*
X129540000Y-68500000D03*
X129540000Y-63500000D03*
X55880000Y-98980000D03*
X55880000Y-93980000D03*
D10*
X97535999Y-138850379D03*
D14*
X97536000Y-136350380D03*
D15*
X251459999Y-63499999D03*
D16*
X248920000Y-63500000D03*
D14*
X214630000Y-64770000D03*
D11*
X204469999Y-64769999D03*
D10*
X91439999Y-132079999D03*
D11*
X93979999Y-132079999D03*
X96519999Y-132079999D03*
X99059999Y-132079999D03*
X101599999Y-132079999D03*
X104139999Y-132079999D03*
X106679999Y-132079999D03*
X109219999Y-132079999D03*
X109219999Y-124459999D03*
X106679999Y-124459999D03*
X104139999Y-124459999D03*
X101599999Y-124459999D03*
X99059999Y-124459999D03*
X96519999Y-124459999D03*
X93979999Y-124459999D03*
X91439999Y-124459999D03*
D14*
X154940000Y-98980000D03*
X154940000Y-93980000D03*
X86868000Y-59690000D03*
D11*
X97027999Y-59689999D03*
D12*
X60959999Y-55879999D03*
D13*
X60959999Y-58419999D03*
X60959999Y-60959999D03*
X60959999Y-63499999D03*
X60959999Y-66039999D03*
X60959999Y-68579999D03*
D10*
X134619999Y-71119999D03*
D11*
X137159999Y-71119999D03*
X139699999Y-71119999D03*
X142239999Y-71119999D03*
X144779999Y-71119999D03*
X147319999Y-71119999D03*
X149859999Y-71119999D03*
X149859999Y-63499999D03*
X147319999Y-63499999D03*
X144779999Y-63499999D03*
X142239999Y-63499999D03*
X139699999Y-63499999D03*
X137159999Y-63499999D03*
X134619999Y-63499999D03*
D14*
X77470000Y-123190000D03*
D11*
X77469999Y-133349999D03*
D14*
X86360000Y-98980000D03*
X86360000Y-93980000D03*
X76200000Y-64770000D03*
D11*
X66039999Y-64769999D03*
D14*
X66040000Y-59690000D03*
D11*
X76199999Y-59689999D03*
D12*
X66039999Y-124967999D03*
D13*
X66039999Y-122427999D03*
D14*
X129540000Y-78994000D03*
X129540000Y-83994000D03*
X55880000Y-114220000D03*
X55880000Y-109220000D03*
D10*
X187705999Y-76707999D03*
D14*
X190206000Y-76708000D03*
X129540000Y-94060000D03*
X129540000Y-99060000D03*
D15*
X238759999Y-63499999D03*
D16*
X236220000Y-63500000D03*
D14*
X214630000Y-57150000D03*
D11*
X204469999Y-57149999D03*
D14*
X214630000Y-60960000D03*
D11*
X204469999Y-60959999D03*
D10*
X134619999Y-101599999D03*
D11*
X137159999Y-101599999D03*
X139699999Y-101599999D03*
X142239999Y-101599999D03*
X144779999Y-101599999D03*
X147319999Y-101599999D03*
X149859999Y-101599999D03*
X149859999Y-93979999D03*
X147319999Y-93979999D03*
X144779999Y-93979999D03*
X142239999Y-93979999D03*
X139699999Y-93979999D03*
X137159999Y-93979999D03*
X134619999Y-93979999D03*
D10*
X91439999Y-86359999D03*
D11*
X93979999Y-86359999D03*
X96519999Y-86359999D03*
X99059999Y-86359999D03*
X101599999Y-86359999D03*
X104139999Y-86359999D03*
X106679999Y-86359999D03*
X109219999Y-86359999D03*
X109219999Y-78739999D03*
X106679999Y-78739999D03*
X104139999Y-78739999D03*
X101599999Y-78739999D03*
X99059999Y-78739999D03*
X96519999Y-78739999D03*
X93979999Y-78739999D03*
X91439999Y-78739999D03*
D12*
X243839999Y-144779999D03*
D13*
X241299999Y-144779999D03*
X238759999Y-144779999D03*
X236219999Y-144779999D03*
X233679999Y-144779999D03*
X231139999Y-144779999D03*
X228599999Y-144779999D03*
X226059999Y-144779999D03*
X223519999Y-144779999D03*
X220979999Y-144779999D03*
X218439999Y-144779999D03*
X215899999Y-144779999D03*
X213359999Y-144779999D03*
X210819999Y-144779999D03*
X208279999Y-144779999D03*
X205739999Y-144779999D03*
X203199999Y-144779999D03*
X200659999Y-144779999D03*
X198119999Y-144779999D03*
X195579999Y-144779999D03*
X193039999Y-144779999D03*
X190499999Y-144779999D03*
X187959999Y-144779999D03*
X185419999Y-144779999D03*
X182879999Y-144779999D03*
X180339999Y-144779999D03*
X177799999Y-144779999D03*
X175259999Y-144779999D03*
X172719999Y-144779999D03*
X170179999Y-144779999D03*
X167639999Y-144779999D03*
X165099999Y-144779999D03*
D10*
X132079999Y-109219999D03*
D11*
X134619999Y-109219999D03*
X137159999Y-109219999D03*
X139699999Y-109219999D03*
X142239999Y-109219999D03*
X144779999Y-109219999D03*
X147319999Y-109219999D03*
X149859999Y-109219999D03*
X152399999Y-109219999D03*
D12*
X93979999Y-144779999D03*
D13*
X91439999Y-144779999D03*
X88899999Y-144779999D03*
X86359999Y-144779999D03*
X83819999Y-144779999D03*
X81279999Y-144779999D03*
X78739999Y-144779999D03*
X76199999Y-144779999D03*
X73659999Y-144779999D03*
X71119999Y-144779999D03*
X68579999Y-144779999D03*
X66039999Y-144779999D03*
X63499999Y-144779999D03*
X60959999Y-144779999D03*
D14*
X86360000Y-83740000D03*
X86360000Y-78740000D03*
X86360000Y-114220000D03*
X86360000Y-109220000D03*
X241380000Y-68580000D03*
X246380000Y-68580000D03*
D10*
X203194999Y-78724999D03*
D11*
X203194999Y-81264999D03*
X203194999Y-83804999D03*
X203194999Y-86344999D03*
X203194999Y-88884999D03*
X203194999Y-91424999D03*
X203194999Y-93964999D03*
X203194999Y-96504999D03*
X203194999Y-99044999D03*
X203194999Y-101584999D03*
X203194999Y-104124999D03*
X203194999Y-106664999D03*
X203194999Y-109204999D03*
X203194999Y-111744999D03*
X218434999Y-111744999D03*
X218434999Y-109204999D03*
X218434999Y-106664999D03*
X218434999Y-104124999D03*
X218434999Y-101584999D03*
X218434999Y-99044999D03*
X218434999Y-96504999D03*
X218434999Y-93964999D03*
X218434999Y-91424999D03*
X218434999Y-88884999D03*
X218434999Y-86344999D03*
X218434999Y-83804999D03*
X218434999Y-81264999D03*
X218434999Y-78724999D03*
D17*
X161290000Y-83820000D03*
X126746000Y-76454000D03*
X164084000Y-83820000D03*
X126746000Y-67818000D03*
X126746000Y-69342000D03*
X126746000Y-74930000D03*
X101600000Y-90424000D03*
X101600000Y-105918000D03*
X124460000Y-120396000D03*
X111760000Y-125222000D03*
X119888000Y-94742000D03*
X241300000Y-121158000D03*
X227330000Y-121158000D03*
X227330000Y-119380000D03*
X110998000Y-125984000D03*
X241300000Y-123444000D03*
X119126000Y-95504000D03*
X125222000Y-121158000D03*
X224790000Y-121920000D03*
X238760000Y-124206000D03*
X111760000Y-126746000D03*
X224790000Y-119380000D03*
X119888000Y-96266000D03*
X124460000Y-121920000D03*
X238760000Y-121920000D03*
X236220000Y-122682000D03*
X242570000Y-122682000D03*
X119126000Y-97028000D03*
X110998000Y-127508000D03*
X125222000Y-122682000D03*
X236220000Y-124968000D03*
X242570000Y-119380000D03*
X119888000Y-97790000D03*
X240030000Y-123444000D03*
X124460000Y-123444000D03*
X233680000Y-123444000D03*
X233680000Y-125730000D03*
X240030000Y-119380000D03*
X111760000Y-128270000D03*
X119126000Y-98552000D03*
X231140000Y-126492000D03*
X237490000Y-119380000D03*
X231140000Y-124206000D03*
X237490000Y-124206000D03*
X125222000Y-124206000D03*
X110998000Y-129032000D03*
X228600000Y-124968000D03*
X124460000Y-124968000D03*
X234950000Y-124968000D03*
X111760000Y-129794000D03*
X119888000Y-99314000D03*
X228600000Y-126492000D03*
X234950000Y-119380000D03*
X110998000Y-130556000D03*
X119126000Y-100076000D03*
X125222000Y-125730000D03*
X232410000Y-119380000D03*
X232410000Y-125730000D03*
X209550000Y-126492000D03*
X118364000Y-109982000D03*
X209550000Y-119380000D03*
X207010000Y-119380000D03*
X220980000Y-129540000D03*
X117602000Y-110744000D03*
X112268000Y-80264000D03*
X207010000Y-127254000D03*
X220980000Y-127254000D03*
X204470000Y-128016000D03*
X204470000Y-119380000D03*
X116840000Y-111506000D03*
X113030000Y-81026000D03*
X218440000Y-128016000D03*
X218440000Y-130302000D03*
X222250000Y-119380000D03*
X215900000Y-131064000D03*
X215900000Y-128778000D03*
X112268000Y-81788000D03*
X116078000Y-112268000D03*
X222250000Y-128778000D03*
X213360000Y-129540000D03*
X219710000Y-129540000D03*
X113030000Y-82550000D03*
X213360000Y-131826000D03*
X219710000Y-119380000D03*
X115316000Y-113030000D03*
X112268000Y-83312000D03*
X217170000Y-119380000D03*
X217170000Y-130302000D03*
X210820000Y-130302000D03*
X210820000Y-132842000D03*
X114554000Y-113792000D03*
X113030000Y-84074000D03*
X208280000Y-131064000D03*
X214630000Y-119380000D03*
X113792000Y-114554000D03*
X208280000Y-132842000D03*
X214630000Y-131064000D03*
X212090000Y-131826000D03*
X212090000Y-119380000D03*
X200914000Y-132588000D03*
X215646000Y-102870000D03*
X220726000Y-102870000D03*
X200914000Y-119634000D03*
X199898000Y-118364000D03*
X199898000Y-133858000D03*
X198882000Y-132588000D03*
X198882000Y-119634000D03*
X197866000Y-118364000D03*
X197866000Y-133858000D03*
X196850000Y-119634000D03*
X196850000Y-132588000D03*
X195834000Y-133858000D03*
X195834000Y-118364000D03*
X194818000Y-132588000D03*
X194818000Y-119634000D03*
X193802000Y-118364000D03*
X193802000Y-133858000D03*
X197358000Y-85090000D03*
X200914000Y-85090000D03*
X192786000Y-119634000D03*
X192786000Y-132588000D03*
X191770000Y-118364000D03*
X191770000Y-133858000D03*
X193040000Y-87630000D03*
X200914000Y-87630000D03*
X190754000Y-132588000D03*
X200914000Y-95250000D03*
X190754000Y-119634000D03*
X190754000Y-95250000D03*
X200914000Y-90170000D03*
X189738000Y-118364000D03*
X189738000Y-133858000D03*
X189738000Y-90170000D03*
X188722000Y-132588000D03*
X188722000Y-119634000D03*
X200914000Y-82550000D03*
X187706000Y-118364000D03*
X187706500Y-133858000D03*
X193040000Y-82550000D03*
X186690000Y-132588000D03*
X186690000Y-119634000D03*
X151384000Y-59436000D03*
X151384000Y-61468000D03*
X149860000Y-74168000D03*
X241300000Y-56388000D03*
X183388000Y-71628000D03*
X243840000Y-56388000D03*
X183388000Y-77470000D03*
X81788000Y-141224000D03*
X80772000Y-119126000D03*
X80772000Y-121666000D03*
X172720000Y-119380000D03*
X159258000Y-132842000D03*
X156718000Y-132842000D03*
X170180000Y-119380000D03*
X146304000Y-143256000D03*
X143002000Y-146558000D03*
X154178000Y-132842000D03*
X167640000Y-119380000D03*
X165100000Y-119380000D03*
X151638000Y-132842000D03*
X149098000Y-132842000D03*
X162560000Y-119380000D03*
X146558000Y-132842000D03*
X160020000Y-119380000D03*
X157480000Y-119380000D03*
X144018000Y-132842000D03*
X141478000Y-132842000D03*
X154940000Y-119380000D03*
X138938000Y-132842000D03*
X152400000Y-119380000D03*
X149860000Y-119380000D03*
X136398000Y-132842000D03*
X133858000Y-132842000D03*
X147320000Y-119380000D03*
X131318000Y-132842000D03*
X144780000Y-119380000D03*
X128778000Y-132842000D03*
X142240000Y-119380000D03*
X139700000Y-119380000D03*
X126238000Y-132842000D03*
X137160000Y-119380000D03*
X123698000Y-132842000D03*
X121158000Y-132842000D03*
X134620000Y-119380000D03*
X95250000Y-125984000D03*
X86868000Y-136398000D03*
X88900000Y-134366000D03*
X62484000Y-140716000D03*
X142240000Y-98552000D03*
X139700000Y-97790000D03*
X167640000Y-99060000D03*
X166370000Y-98044000D03*
X56388000Y-103632000D03*
X179070000Y-87122000D03*
X54610000Y-105410000D03*
X60960000Y-106934000D03*
X172720000Y-83058000D03*
X184404000Y-119634000D03*
X184404000Y-133350000D03*
X179070000Y-90678000D03*
X67310000Y-91440000D03*
X63500000Y-75438000D03*
X66040000Y-81534000D03*
X66040000Y-88900000D03*
X67310000Y-95758000D03*
X143510000Y-59436000D03*
X143510000Y-65024000D03*
X81534000Y-73660000D03*
X74676000Y-73660000D03*
X72136000Y-73660000D03*
X69850000Y-73660000D03*
X84328000Y-96774000D03*
X106680000Y-121158000D03*
X93980000Y-91948000D03*
X78740000Y-96774000D03*
X71120000Y-99568000D03*
X106680000Y-91694000D03*
X81280000Y-100838000D03*
X81280000Y-83058000D03*
X84582000Y-100838000D03*
X77470000Y-83058000D03*
X96520000Y-121666000D03*
X96520000Y-69342000D03*
X84836000Y-90170000D03*
X77470000Y-90170000D03*
X93980000Y-119380000D03*
X99060000Y-121666000D03*
X97790000Y-119380000D03*
X99060000Y-72644000D03*
X175260000Y-82296000D03*
X109220000Y-121920000D03*
X79502000Y-121666000D03*
X79502000Y-119126000D03*
X73660000Y-104902000D03*
X68580000Y-83820000D03*
X140970000Y-59436000D03*
X55499000Y-106299000D03*
X140970000Y-66548000D03*
X56896000Y-118364000D03*
X71120000Y-81280000D03*
X58166000Y-103632000D03*
X102870000Y-103124000D03*
X107950000Y-103124000D03*
X78232000Y-119126000D03*
X78232000Y-121666000D03*
X71120000Y-104902000D03*
X184404000Y-88138000D03*
X182372000Y-88138000D03*
X200914000Y-92710000D03*
X185420000Y-92710000D03*
X143510000Y-82550000D03*
X143510000Y-75946000D03*
X102870000Y-88392000D03*
X106680000Y-88392000D03*
X69850000Y-95758000D03*
X69850000Y-91440000D03*
X69850000Y-102870000D03*
X69850000Y-89154000D03*
X69850000Y-104902000D03*
X66040000Y-118872000D03*
X152654000Y-75184000D03*
X152654000Y-82550000D03*
D18*
X160020000Y-81280000D02*
X160020000Y-78994000D01*
D19*
X134620000Y-76962000D02*
X137160000Y-76962000D01*
X55880000Y-109220000D02*
X58166000Y-109220000D01*
D18*
X91527620Y-138850380D02*
X97536000Y-138850380D01*
X126746000Y-65786000D02*
X134620000Y-65786000D01*
D19*
X170180000Y-86614000D02*
X170180000Y-83820000D01*
X250190000Y-124460000D02*
X250190000Y-77216000D01*
X101854000Y-69596000D02*
X115316000Y-69596000D01*
D18*
X83058000Y-93980000D02*
X91440000Y-93980000D01*
D19*
X147320000Y-61214000D02*
X147320000Y-63500000D01*
D18*
X83058000Y-109220000D02*
X83058000Y-105410000D01*
X53594000Y-102616000D02*
X58166000Y-107188000D01*
X134620000Y-81280000D02*
X160020000Y-81280000D01*
X184785000Y-73787000D02*
X187706000Y-76708000D01*
D19*
X250190000Y-77216000D02*
X246380000Y-73406000D01*
D18*
X246380000Y-73406000D02*
X246380000Y-78740000D01*
X86106000Y-75692000D02*
X120396000Y-75692000D01*
X59944000Y-120396000D02*
X83058000Y-120396000D01*
D19*
X115316000Y-69596000D02*
X119126000Y-65786000D01*
X134540000Y-94060000D02*
X134620000Y-93980000D01*
X154940000Y-78994000D02*
X160020000Y-78994000D01*
X137160000Y-78994000D02*
X137160000Y-76962000D01*
D18*
X55880000Y-78740000D02*
X60960000Y-78740000D01*
X53594000Y-93980000D02*
X55880000Y-93980000D01*
X83058000Y-109220000D02*
X91440000Y-109220000D01*
X134620000Y-81280000D02*
X134620000Y-80010000D01*
X123444000Y-78740000D02*
X126746000Y-78740000D01*
X91440000Y-144780000D02*
X91440000Y-138938000D01*
X160020000Y-96520000D02*
X176276000Y-96520000D01*
X134620000Y-80010000D02*
X134620000Y-78994000D01*
X53594000Y-93980000D02*
X53594000Y-102616000D01*
D19*
X218440000Y-68580000D02*
X218440000Y-70866000D01*
D18*
X83058000Y-78740000D02*
X91440000Y-78740000D01*
D19*
X246380000Y-81280000D02*
X246380000Y-78740000D01*
D18*
X58166000Y-109220000D02*
X58166000Y-118618000D01*
X177292000Y-81280000D02*
X187706000Y-70866000D01*
X120396000Y-75692000D02*
X123444000Y-78740000D01*
D19*
X97028000Y-64770000D02*
X101854000Y-69596000D01*
X134620000Y-78994000D02*
X134620000Y-76962000D01*
X160020000Y-78994000D02*
X160020000Y-76962000D01*
X129540000Y-78994000D02*
X134620000Y-78994000D01*
D18*
X180340000Y-100584000D02*
X180340000Y-109220000D01*
X126746000Y-67818000D02*
X126746000Y-65786000D01*
X126746000Y-96520000D02*
X134620000Y-96520000D01*
D19*
X134620000Y-63500000D02*
X134620000Y-61976000D01*
D18*
X83058000Y-130556000D02*
X83058000Y-124460000D01*
D19*
X248412000Y-129540000D02*
X248412000Y-126238000D01*
X137160000Y-76962000D02*
X139700000Y-76962000D01*
D18*
X126746000Y-76454000D02*
X126746000Y-103886000D01*
D19*
X129540000Y-63500000D02*
X134620000Y-63500000D01*
X170180000Y-83820000D02*
X167640000Y-83820000D01*
D18*
X87757000Y-135255000D02*
X83058000Y-130556000D01*
X126746000Y-65786000D02*
X119126000Y-65786000D01*
X246380000Y-70866000D02*
X246380000Y-73406000D01*
D19*
X129540000Y-94060000D02*
X134540000Y-94060000D01*
X167640000Y-83820000D02*
X167640000Y-86614000D01*
D18*
X160020000Y-96520000D02*
X160020000Y-93980000D01*
X58166000Y-109220000D02*
X60960000Y-109220000D01*
X127000000Y-81280000D02*
X134620000Y-81280000D01*
X187706000Y-70866000D02*
X184785000Y-73787000D01*
X160020000Y-81280000D02*
X161290000Y-81280000D01*
D19*
X246380000Y-68580000D02*
X246380000Y-70866000D01*
D18*
X83058000Y-124460000D02*
X83058000Y-120396000D01*
X187706000Y-70866000D02*
X193040000Y-70866000D01*
D19*
X144780000Y-63500000D02*
X144780000Y-61214000D01*
X165100000Y-76962000D02*
X165100000Y-78994000D01*
X162560000Y-78994000D02*
X162560000Y-76962000D01*
X154940000Y-93980000D02*
X160020000Y-93980000D01*
X162560000Y-76962000D02*
X165100000Y-76962000D01*
D18*
X91440000Y-138938000D02*
X87757000Y-135255000D01*
D19*
X248412000Y-126238000D02*
X250190000Y-124460000D01*
D18*
X161290000Y-81280000D02*
X177292000Y-81280000D01*
D19*
X135382000Y-61214000D02*
X144780000Y-61214000D01*
X139700000Y-76962000D02*
X139700000Y-78994000D01*
D18*
X218440000Y-70866000D02*
X246380000Y-70866000D01*
D19*
X144780000Y-61214000D02*
X147320000Y-61214000D01*
D18*
X83058000Y-124460000D02*
X91440000Y-124460000D01*
X218440000Y-70866000D02*
X218440000Y-78740000D01*
X126746000Y-103886000D02*
X132080000Y-109220000D01*
X53594000Y-93980000D02*
X53594000Y-81026000D01*
X83058000Y-78740000D02*
X86106000Y-75692000D01*
X83058000Y-93980000D02*
X83058000Y-78740000D01*
X83058000Y-105410000D02*
X83058000Y-93980000D01*
X134620000Y-65786000D02*
X134620000Y-63500000D01*
X134620000Y-96520000D02*
X160020000Y-96520000D01*
D19*
X167640000Y-83820000D02*
X164084000Y-83820000D01*
X134620000Y-61976000D02*
X135382000Y-61214000D01*
X161290000Y-83820000D02*
X161290000Y-81280000D01*
D18*
X91440000Y-138938000D02*
X91527620Y-138850380D01*
X91440000Y-144780000D02*
X93980000Y-144780000D01*
X53594000Y-81026000D02*
X55880000Y-78740000D01*
X126746000Y-69342000D02*
X126746000Y-67818000D01*
X176276000Y-96520000D02*
X180340000Y-100584000D01*
D19*
X160020000Y-76962000D02*
X162560000Y-76962000D01*
D18*
X58166000Y-118618000D02*
X59944000Y-120396000D01*
X134620000Y-96520000D02*
X134620000Y-93980000D01*
X193040000Y-70866000D02*
X218440000Y-70866000D01*
X83058000Y-120396000D02*
X83058000Y-109220000D01*
X126746000Y-76454000D02*
X126746000Y-74930000D01*
X58166000Y-107188000D02*
X58166000Y-109220000D01*
D19*
X97028000Y-59690000D02*
X97028000Y-64770000D01*
X101600000Y-105918000D02*
X101600000Y-109220000D01*
X101600000Y-90424000D02*
X101600000Y-93980000D01*
X243840000Y-120396000D02*
X243840000Y-144780000D01*
X124460000Y-120396000D02*
X124460000Y-94742000D01*
X229870000Y-117348000D02*
X235204000Y-112014000D01*
X235204000Y-112014000D02*
X235204000Y-108204000D01*
X229870000Y-120396000D02*
X229870000Y-117348000D01*
X109220000Y-122682000D02*
X95758000Y-122682000D01*
X235204000Y-108204000D02*
X231140000Y-104140000D01*
X95758000Y-122682000D02*
X93980000Y-124460000D01*
X111760000Y-125222000D02*
X109220000Y-122682000D01*
X124460000Y-120396000D02*
X243840000Y-120396000D01*
X124460000Y-94742000D02*
X119888000Y-94742000D01*
X227330000Y-119380000D02*
X227330000Y-117856000D01*
X207010000Y-121158000D02*
X125222000Y-121158000D01*
X233426000Y-108966000D02*
X231140000Y-106680000D01*
X227330000Y-117856000D02*
X233426000Y-111760000D01*
X91440000Y-132080000D02*
X97536000Y-125984000D01*
X123698000Y-121158000D02*
X123698000Y-95504000D01*
X97536000Y-125984000D02*
X110998000Y-125984000D01*
X123698000Y-95504000D02*
X119126000Y-95504000D01*
X125222000Y-121158000D02*
X123698000Y-121158000D01*
X227330000Y-121158000D02*
X207010000Y-121158000D01*
X241300000Y-121158000D02*
X227330000Y-121158000D01*
X241300000Y-144780000D02*
X241300000Y-123444000D01*
X233426000Y-111760000D02*
X233426000Y-108966000D01*
X238760000Y-121920000D02*
X204470000Y-121920000D01*
X122936000Y-96266000D02*
X119888000Y-96266000D01*
X229108000Y-111252000D02*
X231140000Y-109220000D01*
X224790000Y-119380000D02*
X224790000Y-118364000D01*
X124460000Y-121920000D02*
X122936000Y-121920000D01*
X224790000Y-118364000D02*
X229108000Y-114046000D01*
X93980000Y-132080000D02*
X99314000Y-126746000D01*
X238760000Y-144780000D02*
X238760000Y-124206000D01*
X204470000Y-121920000D02*
X124460000Y-121920000D01*
X99314000Y-126746000D02*
X111760000Y-126746000D01*
X122936000Y-121920000D02*
X122936000Y-96266000D01*
X229108000Y-114046000D02*
X229108000Y-111252000D01*
X96520000Y-132080000D02*
X101092000Y-127508000D01*
X101092000Y-127508000D02*
X110998000Y-127508000D01*
X236220000Y-144780000D02*
X236220000Y-124968000D01*
X242570000Y-115570000D02*
X242570000Y-119380000D01*
X122174000Y-122682000D02*
X122174000Y-97028000D01*
X236220000Y-122682000D02*
X125222000Y-122682000D01*
X242570000Y-122682000D02*
X236220000Y-122682000D01*
X122174000Y-97028000D02*
X119126000Y-97028000D01*
X125222000Y-122682000D02*
X122174000Y-122682000D01*
X246380000Y-111760000D02*
X242570000Y-115570000D01*
X240030000Y-123444000D02*
X233680000Y-123444000D01*
X240030000Y-115570000D02*
X246380000Y-109220000D01*
X99060000Y-132080000D02*
X102870000Y-128270000D01*
X121412000Y-97790000D02*
X119888000Y-97790000D01*
X233680000Y-144780000D02*
X233680000Y-125730000D01*
X124460000Y-123444000D02*
X121412000Y-123444000D01*
X233680000Y-123444000D02*
X124460000Y-123444000D01*
X102870000Y-128270000D02*
X111760000Y-128270000D01*
X121412000Y-123444000D02*
X121412000Y-97790000D01*
X240030000Y-119380000D02*
X240030000Y-115570000D01*
X231140000Y-124206000D02*
X237490000Y-124206000D01*
X231140000Y-144780000D02*
X231140000Y-126492000D01*
X120650000Y-124206000D02*
X120650000Y-98552000D01*
X101600000Y-132080000D02*
X104648000Y-129032000D01*
X239014000Y-114046000D02*
X246380000Y-106680000D01*
X125222000Y-124206000D02*
X231140000Y-124206000D01*
X237490000Y-119380000D02*
X237490000Y-116840000D01*
X104648000Y-129032000D02*
X110998000Y-129032000D01*
X237490000Y-116840000D02*
X239014000Y-115316000D01*
X120650000Y-98552000D02*
X119126000Y-98552000D01*
X239014000Y-115316000D02*
X239014000Y-114046000D01*
X125222000Y-124206000D02*
X120650000Y-124206000D01*
X237744000Y-112776000D02*
X246380000Y-104140000D01*
X234950000Y-124968000D02*
X228600000Y-124968000D01*
X106426000Y-129794000D02*
X111760000Y-129794000D01*
X214630500Y-124968000D02*
X214630000Y-124968500D01*
X234950000Y-116967000D02*
X237744000Y-114173000D01*
X214630000Y-124968500D02*
X214629500Y-124968000D01*
X237744000Y-114173000D02*
X237744000Y-112776000D01*
X228600000Y-144780000D02*
X228600000Y-126492000D01*
X228600000Y-124968000D02*
X214630500Y-124968000D01*
X119888000Y-124968000D02*
X119888000Y-99314000D01*
X214629500Y-124968000D02*
X124460000Y-124968000D01*
X104140000Y-132080000D02*
X106426000Y-129794000D01*
X124460000Y-124968000D02*
X119888000Y-124968000D01*
X234950000Y-119380000D02*
X234950000Y-116967000D01*
X232410000Y-116840000D02*
X236474000Y-112776000D01*
X232410000Y-119380000D02*
X232410000Y-116840000D01*
X236474000Y-112776000D02*
X236474000Y-111506000D01*
X106680000Y-132080000D02*
X108204000Y-130556000D01*
X226060000Y-144780000D02*
X226060000Y-125730000D01*
X125222000Y-125730000D02*
X119126000Y-125730000D01*
X232410000Y-125730000D02*
X125222000Y-125730000D01*
X108204000Y-130556000D02*
X110998000Y-130556000D01*
X119126000Y-125730000D02*
X119126000Y-100076000D01*
X236474000Y-111506000D02*
X246380000Y-101600000D01*
X223520000Y-126492000D02*
X209550000Y-126492000D01*
X203200000Y-104140000D02*
X209550000Y-110490000D01*
X95504000Y-77216000D02*
X109728000Y-77216000D01*
X112014000Y-79502000D02*
X109728000Y-77216000D01*
X223520000Y-144780000D02*
X223520000Y-126492000D01*
X118364000Y-126492000D02*
X209550000Y-126492000D01*
X118364000Y-79502000D02*
X118364000Y-126492000D01*
X209550000Y-110490000D02*
X209550000Y-119380000D01*
X112014000Y-79502000D02*
X118364000Y-79502000D01*
X93980000Y-78740000D02*
X95504000Y-77216000D01*
X207772000Y-111252000D02*
X203200000Y-106680000D01*
X112268000Y-80264000D02*
X117602000Y-80264000D01*
X207772000Y-118618000D02*
X207772000Y-111252000D01*
X117602000Y-127254000D02*
X117602000Y-110744000D01*
X220980000Y-127254000D02*
X117602000Y-127254000D01*
X220980000Y-144780000D02*
X220980000Y-129540000D01*
X207010000Y-119380000D02*
X207772000Y-118618000D01*
X117602000Y-80264000D02*
X117602000Y-110744000D01*
X205740000Y-118110000D02*
X205740000Y-111760000D01*
X113030000Y-81026000D02*
X116840000Y-81026000D01*
X218440000Y-144780000D02*
X218440000Y-130302000D01*
X116840000Y-111506000D02*
X116840000Y-128016000D01*
X205740000Y-111760000D02*
X203200000Y-109220000D01*
X204470000Y-119380000D02*
X205740000Y-118110000D01*
X116840000Y-128016000D02*
X218440000Y-128016000D01*
X116840000Y-81026000D02*
X116840000Y-111506000D01*
X218694000Y-112014000D02*
X218440000Y-111760000D01*
X215900000Y-128778000D02*
X116078000Y-128778000D01*
X116078000Y-128778000D02*
X116078000Y-112268000D01*
X116078000Y-81788000D02*
X116078000Y-112268000D01*
X218694000Y-111999000D02*
X218440000Y-111745000D01*
X222250000Y-119380000D02*
X222250000Y-116840000D01*
X215900000Y-144780000D02*
X215900000Y-131064000D01*
X112268000Y-81788000D02*
X116078000Y-81788000D01*
X218694000Y-113284000D02*
X218694000Y-112014000D01*
X222250000Y-116840000D02*
X218694000Y-113284000D01*
X215900000Y-128778000D02*
X222250000Y-128778000D01*
X216916000Y-114046000D02*
X216916000Y-110729000D01*
X113030000Y-82550000D02*
X115316000Y-82550000D01*
X115316000Y-113030000D02*
X115316000Y-129540000D01*
X219710000Y-116840000D02*
X216916000Y-114046000D01*
X115316000Y-129540000D02*
X213360000Y-129540000D01*
X219710000Y-119380000D02*
X219710000Y-116840000D01*
X213360000Y-144780000D02*
X213360000Y-131826000D01*
X115316000Y-82550000D02*
X115316000Y-113030000D01*
X213360000Y-129540000D02*
X219710000Y-129540000D01*
X216916000Y-110729000D02*
X218440000Y-109205000D01*
X215138000Y-114808000D02*
X215138000Y-109982000D01*
X215138000Y-109982000D02*
X218440000Y-106680000D01*
X114554000Y-83312000D02*
X114554000Y-113792000D01*
X210820000Y-130302000D02*
X217170000Y-130302000D01*
X114554000Y-130302000D02*
X210820000Y-130302000D01*
X210820000Y-144780000D02*
X210820000Y-132842000D01*
X114554000Y-113792000D02*
X114554000Y-130302000D01*
X217170000Y-116840000D02*
X215138000Y-114808000D01*
X217170000Y-119380000D02*
X217170000Y-116840000D01*
X112268000Y-83312000D02*
X114554000Y-83312000D01*
X214630000Y-116840000D02*
X213360000Y-115570000D01*
X208280000Y-131064000D02*
X214630000Y-131064000D01*
X113792000Y-114554000D02*
X113792000Y-131064000D01*
X113792000Y-84074000D02*
X113792000Y-114554000D01*
X213360000Y-109220000D02*
X218440000Y-104140000D01*
X214630000Y-119380000D02*
X214630000Y-116840000D01*
X113030000Y-84074000D02*
X113792000Y-84074000D01*
X208280000Y-144780000D02*
X208280000Y-132842000D01*
X113792000Y-131064000D02*
X208280000Y-131064000D01*
X213360000Y-115570000D02*
X213360000Y-109220000D01*
X113030000Y-131826000D02*
X113030000Y-129032000D01*
X212090000Y-119380000D02*
X212090000Y-116840000D01*
X108204000Y-115316000D02*
X113030000Y-115316000D01*
X113030000Y-115316000D02*
X113030000Y-84836000D01*
X205740000Y-131826000D02*
X113030000Y-131826000D01*
X106680000Y-116840000D02*
X108204000Y-115316000D01*
X205740000Y-131826000D02*
X212090000Y-131826000D01*
X211582000Y-116332000D02*
X211582000Y-108458000D01*
X113030000Y-125984000D02*
X113030000Y-115316000D01*
X108204000Y-84836000D02*
X113030000Y-84836000D01*
X106680000Y-86360000D02*
X108204000Y-84836000D01*
X212090000Y-116840000D02*
X211582000Y-116332000D01*
X211582000Y-108458000D02*
X218440000Y-101600000D01*
X113030000Y-129032000D02*
X113030000Y-125984000D01*
X205740000Y-144780000D02*
X205740000Y-131826000D01*
X200914000Y-142494000D02*
X203200000Y-144780000D01*
X220726000Y-102870000D02*
X228092000Y-102870000D01*
X200914000Y-119634000D02*
X200914000Y-103886000D01*
X205994000Y-102870000D02*
X215646000Y-102870000D01*
X204724000Y-101600000D02*
X205994000Y-102870000D01*
X203200000Y-101600000D02*
X204724000Y-101600000D01*
X229362000Y-101600000D02*
X231140000Y-101600000D01*
X228092000Y-102870000D02*
X229362000Y-101600000D01*
X200914000Y-103886000D02*
X203200000Y-101600000D01*
X200914000Y-132588000D02*
X200914000Y-142494000D01*
X199898000Y-102362000D02*
X203200000Y-99060000D01*
X229362000Y-99060000D02*
X231140000Y-99060000D01*
X199898000Y-144018000D02*
X200660000Y-144780000D01*
X203200000Y-99060000D02*
X204724000Y-99060000D01*
X205994000Y-100330000D02*
X228092000Y-100330000D01*
X199898000Y-133858000D02*
X199898000Y-144018000D01*
X204724000Y-99060000D02*
X205994000Y-100330000D01*
X199898000Y-118364000D02*
X199898000Y-102362000D01*
X228092000Y-100330000D02*
X229362000Y-99060000D01*
X198882000Y-119634000D02*
X198882000Y-100838000D01*
X205994000Y-97790000D02*
X228092000Y-97790000D01*
X198882000Y-144018000D02*
X198120000Y-144780000D01*
X228092000Y-97790000D02*
X229362000Y-96520000D01*
X204724000Y-96520000D02*
X205994000Y-97790000D01*
X198882000Y-132588000D02*
X198882000Y-144018000D01*
X203200000Y-96520000D02*
X204724000Y-96520000D01*
X229362000Y-96520000D02*
X231140000Y-96520000D01*
X198882000Y-100838000D02*
X203200000Y-96520000D01*
X197866000Y-142494000D02*
X195580000Y-144780000D01*
X229362000Y-93980000D02*
X231140000Y-93980000D01*
X200914000Y-93980000D02*
X204724000Y-93980000D01*
X205994000Y-95250000D02*
X228092000Y-95250000D01*
X197866000Y-133858000D02*
X197866000Y-142494000D01*
X204724000Y-93980000D02*
X205994000Y-95250000D01*
X197866000Y-118364000D02*
X197866000Y-97028000D01*
X228092000Y-95250000D02*
X229362000Y-93980000D01*
X197866000Y-97028000D02*
X200914000Y-93980000D01*
X204724000Y-91440000D02*
X205994000Y-92710000D01*
X205994000Y-92710000D02*
X228092000Y-92710000D01*
X229362000Y-91440000D02*
X231140000Y-91440000D01*
X196850000Y-95504000D02*
X200914000Y-91440000D01*
X200914000Y-91440000D02*
X204724000Y-91440000D01*
X196850000Y-119634000D02*
X196850000Y-95504000D01*
X196850000Y-140970000D02*
X193040000Y-144780000D01*
X228092000Y-92710000D02*
X229362000Y-91440000D01*
X196850000Y-132588000D02*
X196850000Y-140970000D01*
X195834000Y-139446000D02*
X190500000Y-144780000D01*
X229362000Y-88900000D02*
X231140000Y-88900000D01*
X195834000Y-133858000D02*
X195834000Y-139446000D01*
X205994000Y-90170000D02*
X228092000Y-90170000D01*
X228092000Y-90170000D02*
X229362000Y-88900000D01*
X195834000Y-93980000D02*
X200914000Y-88900000D01*
X195834000Y-118364000D02*
X195834000Y-93980000D01*
X200914000Y-88900000D02*
X204724000Y-88900000D01*
X204724000Y-88900000D02*
X205994000Y-90170000D01*
X194818000Y-119634000D02*
X194818000Y-92456000D01*
X204724000Y-86360000D02*
X205994000Y-87630000D01*
X228092000Y-87630000D02*
X229362000Y-86360000D01*
X194818000Y-92456000D02*
X200914000Y-86360000D01*
X194818000Y-132588000D02*
X194818000Y-137922000D01*
X194818000Y-137922000D02*
X187960000Y-144780000D01*
X200914000Y-86360000D02*
X204724000Y-86360000D01*
X205994000Y-87630000D02*
X228092000Y-87630000D01*
X229362000Y-86360000D02*
X231140000Y-86360000D01*
X205994000Y-85090000D02*
X228092000Y-85090000D01*
X193802000Y-136906000D02*
X185928000Y-144780000D01*
X228092000Y-85090000D02*
X229362000Y-83820000D01*
X229362000Y-83820000D02*
X231140000Y-83820000D01*
X193802000Y-90932000D02*
X200914000Y-83820000D01*
X185928000Y-144780000D02*
X185420000Y-144780000D01*
X204724000Y-83820000D02*
X205994000Y-85090000D01*
X193802000Y-118364000D02*
X193802000Y-90932000D01*
X200914000Y-83820000D02*
X204724000Y-83820000D01*
X193802000Y-133858000D02*
X193802000Y-136906000D01*
X204724000Y-85090000D02*
X205979000Y-86345000D01*
X243586000Y-85090000D02*
X244856000Y-86360000D01*
X205979000Y-86345000D02*
X228107000Y-86345000D01*
X228107000Y-86345000D02*
X229362000Y-85090000D01*
X192786000Y-136398000D02*
X186690000Y-142494000D01*
X229362000Y-85090000D02*
X243586000Y-85090000D01*
X192786000Y-132588000D02*
X192786000Y-136398000D01*
X185166000Y-142494000D02*
X182880000Y-144780000D01*
X192786000Y-89662000D02*
X192786000Y-119634000D01*
X200914000Y-85090000D02*
X204724000Y-85090000D01*
X197358000Y-85090000D02*
X192786000Y-89662000D01*
X186690000Y-142494000D02*
X185166000Y-142494000D01*
X244856000Y-86360000D02*
X246380000Y-86360000D01*
X228107000Y-88885000D02*
X229362000Y-87630000D01*
X191770000Y-88900000D02*
X191770000Y-118364000D01*
X229362000Y-87630000D02*
X243586000Y-87630000D01*
X191770000Y-133858000D02*
X191770000Y-135890000D01*
X186182000Y-141478000D02*
X183388000Y-141478000D01*
X243586000Y-87630000D02*
X244856000Y-88900000D01*
X191770000Y-135890000D02*
X186182000Y-141478000D01*
X205979000Y-88885000D02*
X228107000Y-88885000D01*
X193040000Y-87630000D02*
X191770000Y-88900000D01*
X180340000Y-144526000D02*
X180340000Y-144780000D01*
X244856000Y-88900000D02*
X246380000Y-88900000D01*
X200914000Y-87630000D02*
X204724000Y-87630000D01*
X183388000Y-141478000D02*
X180340000Y-144526000D01*
X204724000Y-87630000D02*
X205979000Y-88885000D01*
X177800000Y-144526000D02*
X177800000Y-144780000D01*
X244856000Y-96520000D02*
X246380000Y-96520000D01*
X190754000Y-135636000D02*
X185928000Y-140462000D01*
X204724000Y-95250000D02*
X205994000Y-96520000D01*
X206009000Y-96505000D02*
X228107000Y-96505000D01*
X190754000Y-132588000D02*
X190754000Y-135636000D01*
X200914000Y-95250000D02*
X204724000Y-95250000D01*
X228107000Y-96505000D02*
X229362000Y-95250000D01*
X243586000Y-95250000D02*
X244856000Y-96520000D01*
X181864000Y-140462000D02*
X177800000Y-144526000D01*
X205994000Y-96520000D02*
X206009000Y-96505000D01*
X229362000Y-95250000D02*
X243586000Y-95250000D01*
X190754000Y-95250000D02*
X190754000Y-119634000D01*
X185928000Y-140462000D02*
X181864000Y-140462000D01*
X243586000Y-90170000D02*
X244856000Y-91440000D01*
X189738000Y-135382000D02*
X185674000Y-139446000D01*
X189738000Y-90170000D02*
X189738000Y-118364000D01*
X185674000Y-139446000D02*
X180594000Y-139446000D01*
X189738000Y-133858000D02*
X189738000Y-135382000D01*
X200914000Y-90170000D02*
X204724000Y-90170000D01*
X244856000Y-91440000D02*
X246380000Y-91440000D01*
X180594000Y-139446000D02*
X175260000Y-144780000D01*
X205994000Y-91440000D02*
X218948000Y-91440000D01*
X228107000Y-91425000D02*
X229362000Y-90170000D01*
X204724000Y-90170000D02*
X205994000Y-91440000D01*
X218440000Y-91425000D02*
X228107000Y-91425000D01*
X229362000Y-90170000D02*
X243586000Y-90170000D01*
X188722000Y-132588000D02*
X188722000Y-134874000D01*
X205994000Y-82550000D02*
X228092000Y-82550000D01*
X179070000Y-138430000D02*
X172720000Y-144780000D01*
X188722000Y-119634000D02*
X188722000Y-89154000D01*
X229362000Y-81280000D02*
X231140000Y-81280000D01*
X185166000Y-138430000D02*
X179070000Y-138430000D01*
X196596000Y-81280000D02*
X204724000Y-81280000D01*
X188722000Y-134874000D02*
X185166000Y-138430000D01*
X188722000Y-89154000D02*
X196596000Y-81280000D01*
X204724000Y-81280000D02*
X205994000Y-82550000D01*
X228092000Y-82550000D02*
X229362000Y-81280000D01*
X200914000Y-82550000D02*
X204724000Y-82550000D01*
X218440000Y-83805000D02*
X228107000Y-83805000D01*
X205994000Y-83820000D02*
X218440000Y-83820000D01*
X243586000Y-82550000D02*
X244856000Y-83820000D01*
X193040000Y-82550000D02*
X187706000Y-87884000D01*
X187706500Y-134111500D02*
X184404000Y-137414000D01*
X228107000Y-83805000D02*
X229362000Y-82550000D01*
X184404000Y-137414000D02*
X177546000Y-137414000D01*
X229362000Y-82550000D02*
X243586000Y-82550000D01*
X177546000Y-137414000D02*
X170180000Y-144780000D01*
X187706500Y-133858000D02*
X187706500Y-134111500D01*
X187706000Y-87884000D02*
X187706000Y-118364000D01*
X204724000Y-82550000D02*
X205994000Y-83820000D01*
X244856000Y-83820000D02*
X246380000Y-83820000D01*
X183642000Y-136398000D02*
X176022000Y-136398000D01*
X229362000Y-78740000D02*
X231140000Y-78740000D01*
X203200000Y-78725000D02*
X204709000Y-78725000D01*
X186690000Y-132588000D02*
X186690000Y-133350000D01*
X186690000Y-119634000D02*
X186690000Y-86360000D01*
X205994000Y-80010000D02*
X228092000Y-80010000D01*
X176022000Y-136398000D02*
X167640000Y-144780000D01*
X186690000Y-86360000D02*
X194310000Y-78740000D01*
X186690000Y-133350000D02*
X183642000Y-136398000D01*
X194310000Y-78740000D02*
X203200000Y-78740000D01*
X204709000Y-78725000D02*
X205994000Y-80010000D01*
X228092000Y-80010000D02*
X229362000Y-78740000D01*
X245110000Y-63500000D02*
X243078000Y-65532000D01*
X230632000Y-60960000D02*
X214630000Y-60960000D01*
X235204000Y-65532000D02*
X230632000Y-60960000D01*
X243078000Y-65532000D02*
X235204000Y-65532000D01*
X240284000Y-53340000D02*
X242570000Y-55626000D01*
X151384000Y-66294000D02*
X150368000Y-67310000D01*
X146558000Y-67310000D02*
X143510000Y-70358000D01*
X143510000Y-72136000D02*
X145542000Y-74168000D01*
X151384000Y-57912000D02*
X155956000Y-53340000D01*
X151384000Y-59436000D02*
X151384000Y-57912000D01*
X143510000Y-70358000D02*
X143510000Y-72136000D01*
X155956000Y-53340000D02*
X240284000Y-53340000D01*
X242570000Y-55626000D02*
X242570000Y-63500000D01*
X150368000Y-67310000D02*
X146558000Y-67310000D01*
X145542000Y-74168000D02*
X149860000Y-74168000D01*
X151384000Y-61468000D02*
X151384000Y-66294000D01*
X248412000Y-66548000D02*
X233680000Y-66548000D01*
X231902000Y-64770000D02*
X214630000Y-64770000D01*
X233680000Y-66548000D02*
X231902000Y-64770000D01*
X251460000Y-63500000D02*
X248412000Y-66548000D01*
X150114000Y-89408000D02*
X147320000Y-86614000D01*
X183388000Y-65786000D02*
X194056000Y-55118000D01*
X194056000Y-55118000D02*
X240030000Y-55118000D01*
X240030000Y-55118000D02*
X241300000Y-56388000D01*
X183388000Y-71628000D02*
X183388000Y-65786000D01*
X247904000Y-56388000D02*
X248920000Y-57404000D01*
X183388000Y-89408000D02*
X150114000Y-89408000D01*
X243840000Y-56388000D02*
X247904000Y-56388000D01*
X248920000Y-57404000D02*
X248920000Y-63500000D01*
X183388000Y-77470000D02*
X183388000Y-89408000D01*
X81534000Y-71628000D02*
X80010000Y-73152000D01*
X80772000Y-107442000D02*
X80010000Y-106680000D01*
X134874000Y-68326000D02*
X133604000Y-68326000D01*
X80010000Y-106680000D02*
X80010000Y-103886000D01*
X137160000Y-66040000D02*
X134874000Y-68326000D01*
X68326000Y-103886000D02*
X66040000Y-101600000D01*
X80772000Y-119126000D02*
X80772000Y-107442000D01*
X80772000Y-123190000D02*
X81788000Y-124206000D01*
X63500000Y-101600000D02*
X66040000Y-101600000D01*
X80772000Y-121666000D02*
X80772000Y-123190000D01*
X137160000Y-63500000D02*
X137160000Y-66040000D01*
X133604000Y-68326000D02*
X130302000Y-71628000D01*
X80010000Y-73152000D02*
X80010000Y-103886000D01*
X130302000Y-71628000D02*
X81534000Y-71628000D01*
X81788000Y-124206000D02*
X81788000Y-141224000D01*
X80010000Y-103886000D02*
X68326000Y-103886000D01*
X159258000Y-132842000D02*
X147320000Y-144780000D01*
X147320000Y-144780000D02*
X139700000Y-144780000D01*
X172720000Y-119380000D02*
X175260000Y-116840000D01*
X146304000Y-143256000D02*
X156718000Y-132842000D01*
X143002000Y-146558000D02*
X138938000Y-146558000D01*
X138938000Y-146558000D02*
X137160000Y-144780000D01*
X170180000Y-119380000D02*
X172720000Y-116840000D01*
X170180000Y-116840000D02*
X167640000Y-119380000D01*
X154178000Y-132842000D02*
X144272000Y-142748000D01*
X144272000Y-142748000D02*
X136652000Y-142748000D01*
X136652000Y-142748000D02*
X134620000Y-144780000D01*
X151638000Y-132842000D02*
X142494000Y-141986000D01*
X142494000Y-141986000D02*
X134874000Y-141986000D01*
X134874000Y-141986000D02*
X132080000Y-144780000D01*
X167640000Y-116840000D02*
X165100000Y-119380000D01*
X133096000Y-141224000D02*
X129540000Y-144780000D01*
X149098000Y-132842000D02*
X140716000Y-141224000D01*
X165100000Y-116840000D02*
X162560000Y-119380000D01*
X140716000Y-141224000D02*
X133096000Y-141224000D01*
X138938000Y-140462000D02*
X131318000Y-140462000D01*
X146558000Y-132842000D02*
X138938000Y-140462000D01*
X162560000Y-116840000D02*
X160020000Y-119380000D01*
X131318000Y-140462000D02*
X127000000Y-144780000D01*
X160020000Y-116840000D02*
X157480000Y-119380000D01*
X137160000Y-139700000D02*
X129540000Y-139700000D01*
X144018000Y-132842000D02*
X137160000Y-139700000D01*
X129540000Y-139700000D02*
X124460000Y-144780000D01*
X157480000Y-116840000D02*
X154940000Y-119380000D01*
X135382000Y-138938000D02*
X127762000Y-138938000D01*
X141478000Y-132842000D02*
X135382000Y-138938000D01*
X127762000Y-138938000D02*
X121920000Y-144780000D01*
X152400000Y-119380000D02*
X154940000Y-116840000D01*
X138938000Y-132842000D02*
X133604000Y-138176000D01*
X125984000Y-138176000D02*
X119380000Y-144780000D01*
X133604000Y-138176000D02*
X125984000Y-138176000D01*
X136398000Y-132842000D02*
X131826000Y-137414000D01*
X152400000Y-116840000D02*
X149860000Y-119380000D01*
X124206000Y-137414000D02*
X116840000Y-144780000D01*
X131826000Y-137414000D02*
X124206000Y-137414000D01*
X122428000Y-136652000D02*
X114300000Y-144780000D01*
X133858000Y-132842000D02*
X130048000Y-136652000D01*
X149860000Y-116840000D02*
X147320000Y-119380000D01*
X130048000Y-136652000D02*
X122428000Y-136652000D01*
X128270000Y-135890000D02*
X120650000Y-135890000D01*
X147320000Y-116840000D02*
X144780000Y-119380000D01*
X131318000Y-132842000D02*
X128270000Y-135890000D01*
X120650000Y-135890000D02*
X111760000Y-144780000D01*
X128778000Y-132842000D02*
X126492000Y-135128000D01*
X126492000Y-135128000D02*
X118872000Y-135128000D01*
X144780000Y-116840000D02*
X142240000Y-119380000D01*
X118872000Y-135128000D02*
X109220000Y-144780000D01*
X124714000Y-134366000D02*
X117094000Y-134366000D01*
X142240000Y-116840000D02*
X139700000Y-119380000D01*
X117094000Y-134366000D02*
X106680000Y-144780000D01*
X126238000Y-132842000D02*
X124714000Y-134366000D01*
X139700000Y-116840000D02*
X137160000Y-119380000D01*
X122936000Y-133604000D02*
X115316000Y-133604000D01*
X123698000Y-132842000D02*
X122936000Y-133604000D01*
X115316000Y-133604000D02*
X104140000Y-144780000D01*
X121158000Y-132842000D02*
X113538000Y-132842000D01*
X137160000Y-116840000D02*
X134620000Y-119380000D01*
X113538000Y-132842000D02*
X101600000Y-144780000D01*
X95250000Y-125984000D02*
X90932000Y-125984000D01*
X90932000Y-125984000D02*
X88900000Y-128016000D01*
X78232000Y-142748000D02*
X76200000Y-144780000D01*
X86868000Y-138938000D02*
X83058000Y-142748000D01*
X88900000Y-128016000D02*
X88900000Y-134366000D01*
X83058000Y-142748000D02*
X78232000Y-142748000D01*
X86868000Y-136398000D02*
X86868000Y-138938000D01*
X62484000Y-140716000D02*
X62484000Y-133858000D01*
X62484000Y-133858000D02*
X66040000Y-130302000D01*
X134620000Y-101600000D02*
X134620000Y-109220000D01*
X137160000Y-111760000D02*
X137160000Y-114300000D01*
X134620000Y-109220000D02*
X137160000Y-111760000D01*
X137160000Y-109220000D02*
X139700000Y-111760000D01*
X139700000Y-111760000D02*
X139700000Y-114300000D01*
X137160000Y-109220000D02*
X137160000Y-101600000D01*
X139700000Y-101600000D02*
X139700000Y-109220000D01*
X142240000Y-111760000D02*
X142240000Y-114300000D01*
X139700000Y-109220000D02*
X142240000Y-111760000D01*
X142240000Y-109220000D02*
X144780000Y-111760000D01*
X144780000Y-111760000D02*
X144780000Y-114300000D01*
X142240000Y-109220000D02*
X142240000Y-101600000D01*
X144780000Y-109220000D02*
X147320000Y-111760000D01*
X147320000Y-111760000D02*
X147320000Y-114300000D01*
X144780000Y-101600000D02*
X144780000Y-109220000D01*
X147320000Y-109220000D02*
X147320000Y-101600000D01*
X149860000Y-114300000D02*
X149860000Y-111760000D01*
X149860000Y-111760000D02*
X147320000Y-109220000D01*
X149860000Y-104394000D02*
X149860000Y-109220000D01*
X152400000Y-111760000D02*
X152400000Y-114300000D01*
X149860000Y-109220000D02*
X152400000Y-111760000D01*
X148590000Y-100330000D02*
X148590000Y-103124000D01*
X146812000Y-98552000D02*
X148590000Y-100330000D01*
X142240000Y-98552000D02*
X146812000Y-98552000D01*
X148590000Y-103124000D02*
X149860000Y-104394000D01*
X139700000Y-97790000D02*
X149352000Y-97790000D01*
X152400000Y-109220000D02*
X154940000Y-111760000D01*
X149352000Y-97790000D02*
X152400000Y-100838000D01*
X152400000Y-100838000D02*
X152400000Y-109220000D01*
X154940000Y-111760000D02*
X154940000Y-114300000D01*
X157480000Y-111760000D02*
X157480000Y-114300000D01*
X160020000Y-101600000D02*
X160020000Y-109220000D01*
X160020000Y-109220000D02*
X157480000Y-111760000D01*
X160020000Y-111760000D02*
X160020000Y-114300000D01*
X162560000Y-109220000D02*
X160020000Y-111760000D01*
X162560000Y-109220000D02*
X162560000Y-101600000D01*
X165100000Y-109220000D02*
X162560000Y-111760000D01*
X165100000Y-101600000D02*
X165100000Y-109220000D01*
X162560000Y-111760000D02*
X162560000Y-114300000D01*
X165100000Y-111760000D02*
X165100000Y-114300000D01*
X167640000Y-101600000D02*
X167640000Y-109220000D01*
X167640000Y-109220000D02*
X165100000Y-111760000D01*
X170180000Y-109220000D02*
X170180000Y-101600000D01*
X167640000Y-111760000D02*
X167640000Y-114300000D01*
X170180000Y-109220000D02*
X167640000Y-111760000D01*
X172720000Y-101600000D02*
X172720000Y-109220000D01*
X170180000Y-114300000D02*
X170180000Y-111760000D01*
X170180000Y-111760000D02*
X172720000Y-109220000D01*
X167640000Y-99060000D02*
X172466000Y-99060000D01*
X175260000Y-109220000D02*
X172720000Y-111760000D01*
X175260000Y-104394000D02*
X175260000Y-109220000D01*
X172466000Y-99060000D02*
X173990000Y-100584000D01*
X173990000Y-103124000D02*
X175260000Y-104394000D01*
X173990000Y-100584000D02*
X173990000Y-103124000D01*
X172720000Y-111760000D02*
X172720000Y-114300000D01*
X166370000Y-98044000D02*
X174752000Y-98044000D01*
X175260000Y-111760000D02*
X177800000Y-109220000D01*
X175260000Y-114300000D02*
X175260000Y-111760000D01*
X177800000Y-101092000D02*
X177800000Y-109220000D01*
X174752000Y-98044000D02*
X177800000Y-101092000D01*
X232410000Y-57150000D02*
X214630000Y-57150000D01*
X238760000Y-63500000D02*
X232410000Y-57150000D01*
X197612000Y-58928000D02*
X180848000Y-75692000D01*
X231648000Y-58928000D02*
X197612000Y-58928000D01*
X148844000Y-69596000D02*
X147320000Y-71120000D01*
X157226000Y-75692000D02*
X151130000Y-69596000D01*
X151130000Y-69596000D02*
X148844000Y-69596000D01*
X236220000Y-63500000D02*
X231648000Y-58928000D01*
X180848000Y-75692000D02*
X157226000Y-75692000D01*
X137160000Y-147320000D02*
X137414000Y-147574000D01*
X66040000Y-116840000D02*
X71120000Y-116840000D01*
X52324000Y-139192000D02*
X56388000Y-143256000D01*
X57658000Y-102362000D02*
X57658000Y-84582000D01*
X56388000Y-143256000D02*
X64516000Y-143256000D01*
X60960000Y-106934000D02*
X59690000Y-106934000D01*
X57658000Y-84582000D02*
X63500000Y-78740000D01*
X59690000Y-106934000D02*
X56388000Y-103632000D01*
X68580000Y-147320000D02*
X137160000Y-147320000D01*
X52324000Y-107696000D02*
X52324000Y-139192000D01*
X137414000Y-147574000D02*
X156972000Y-147574000D01*
X56388000Y-103632000D02*
X57658000Y-102362000D01*
X175006000Y-83058000D02*
X179070000Y-87122000D01*
X66040000Y-144780000D02*
X68580000Y-147320000D01*
X54610000Y-105410000D02*
X52324000Y-107696000D01*
X66040000Y-114554000D02*
X63500000Y-112014000D01*
X63500000Y-112014000D02*
X63500000Y-109220000D01*
X184404000Y-119634000D02*
X184404000Y-96012000D01*
X181356000Y-92964000D02*
X179070000Y-90678000D01*
X156972000Y-147574000D02*
X169164000Y-135382000D01*
X172720000Y-83058000D02*
X175006000Y-83058000D01*
X64516000Y-143256000D02*
X66040000Y-144780000D01*
X170180000Y-78994000D02*
X172720000Y-78994000D01*
X182372000Y-135382000D02*
X184404000Y-133350000D01*
X169164000Y-135382000D02*
X182372000Y-135382000D01*
X184404000Y-96012000D02*
X181356000Y-92964000D01*
X66040000Y-116840000D02*
X66040000Y-114554000D01*
X143510000Y-59436000D02*
X140970000Y-56896000D01*
X66040000Y-86360000D02*
X66040000Y-81534000D01*
X142240000Y-66294000D02*
X143510000Y-65024000D01*
X67310000Y-91440000D02*
X67310000Y-90170000D01*
X67564000Y-56896000D02*
X66040000Y-58420000D01*
X60960000Y-113792000D02*
X62230000Y-112522000D01*
X62230000Y-100584000D02*
X67056000Y-95758000D01*
X66040000Y-58420000D02*
X60960000Y-58420000D01*
X63500000Y-75438000D02*
X58166000Y-70104000D01*
X58166000Y-58674000D02*
X58420000Y-58420000D01*
X60960000Y-116840000D02*
X60960000Y-113792000D01*
X58166000Y-70104000D02*
X58166000Y-58674000D01*
X66040000Y-59690000D02*
X66040000Y-58420000D01*
X67056000Y-95758000D02*
X67310000Y-95758000D01*
X67310000Y-90170000D02*
X66040000Y-88900000D01*
X58420000Y-58420000D02*
X60960000Y-58420000D01*
X140970000Y-56896000D02*
X67564000Y-56896000D01*
X62230000Y-112522000D02*
X62230000Y-100584000D01*
X142240000Y-71120000D02*
X142240000Y-66294000D01*
X60960000Y-58420000D02*
X60960000Y-55880000D01*
X64770000Y-82550000D02*
X60960000Y-86360000D01*
X69850000Y-73660000D02*
X69850000Y-68580000D01*
X69850000Y-68580000D02*
X66040000Y-68580000D01*
X73660000Y-78740000D02*
X73660000Y-76200000D01*
X64770000Y-77470000D02*
X64770000Y-82550000D01*
X73660000Y-76200000D02*
X73660000Y-73660000D01*
X74676000Y-73660000D02*
X72136000Y-73660000D01*
X141013580Y-75692000D02*
X138938000Y-75692000D01*
X144315580Y-78994000D02*
X141013580Y-75692000D01*
X144780000Y-78994000D02*
X147320000Y-78994000D01*
X136906000Y-73660000D02*
X81534000Y-73660000D01*
X68580000Y-73660000D02*
X64770000Y-77470000D01*
X66040000Y-68580000D02*
X66040000Y-64770000D01*
X138938000Y-75692000D02*
X136906000Y-73660000D01*
X60960000Y-68580000D02*
X66040000Y-68580000D01*
X69850000Y-73660000D02*
X68580000Y-73660000D01*
X144780000Y-78994000D02*
X144315580Y-78994000D01*
X60960000Y-66040000D02*
X60960000Y-68580000D01*
X106680000Y-91694000D02*
X105499000Y-90513000D01*
X105410000Y-119888000D02*
X105410000Y-113792000D01*
X106680000Y-93980000D02*
X106680000Y-91694000D01*
X106680000Y-112522000D02*
X106680000Y-109220000D01*
X106680000Y-82042000D02*
X106680000Y-78740000D01*
X93980000Y-91948000D02*
X92710000Y-93218000D01*
X105410000Y-104902000D02*
X106680000Y-106172000D01*
X105499000Y-83223000D02*
X106680000Y-82042000D01*
X106680000Y-97282000D02*
X106680000Y-93980000D01*
X105499000Y-90513000D02*
X105499000Y-83223000D01*
X92710000Y-93218000D02*
X92710000Y-95758000D01*
X106680000Y-97282000D02*
X105410000Y-98552000D01*
X91694000Y-96774000D02*
X84328000Y-96774000D01*
X71120000Y-99568000D02*
X75946000Y-99568000D01*
X106680000Y-121158000D02*
X105410000Y-119888000D01*
X75946000Y-99568000D02*
X78740000Y-96774000D01*
X105410000Y-98552000D02*
X105410000Y-104902000D01*
X92710000Y-95758000D02*
X91694000Y-96774000D01*
X106680000Y-106172000D02*
X106680000Y-109220000D01*
X105410000Y-113792000D02*
X106680000Y-112522000D01*
X95250000Y-113792000D02*
X96520000Y-112522000D01*
X77470000Y-83058000D02*
X76200000Y-81788000D01*
X76200000Y-72898000D02*
X76200000Y-78740000D01*
X86868000Y-64770000D02*
X84328000Y-64770000D01*
X95250000Y-120396000D02*
X95250000Y-113792000D01*
X96520000Y-112522000D02*
X96520000Y-109220000D01*
X81280000Y-100838000D02*
X81280000Y-83058000D01*
X88138000Y-100838000D02*
X96520000Y-109220000D01*
X96520000Y-121666000D02*
X95250000Y-120396000D01*
X76200000Y-81788000D02*
X76200000Y-78740000D01*
X84328000Y-64770000D02*
X76200000Y-72898000D01*
X84582000Y-100838000D02*
X88138000Y-100838000D01*
X96520000Y-82042000D02*
X96520000Y-78740000D01*
X84836000Y-90170000D02*
X95339000Y-90170000D01*
X96520000Y-91351000D02*
X95339000Y-90170000D01*
X95339000Y-90170000D02*
X95339000Y-83223000D01*
X77470000Y-90170000D02*
X73660000Y-86360000D01*
X96520000Y-69342000D02*
X86868000Y-59690000D01*
X96520000Y-93980000D02*
X96520000Y-91351000D01*
X95339000Y-83223000D02*
X96520000Y-82042000D01*
X99060000Y-82042000D02*
X99060000Y-78740000D01*
X138938000Y-65532000D02*
X135128000Y-69342000D01*
X93980000Y-119380000D02*
X86360000Y-119380000D01*
X99060000Y-106172000D02*
X97790000Y-104902000D01*
X97790000Y-120396000D02*
X97790000Y-119380000D01*
X97790000Y-98552000D02*
X99060000Y-97282000D01*
X97790000Y-119380000D02*
X97790000Y-113792000D01*
X140208000Y-65532000D02*
X138938000Y-65532000D01*
X142240000Y-63500000D02*
X140208000Y-65532000D01*
X97790000Y-104902000D02*
X97790000Y-98552000D01*
X99060000Y-112522000D02*
X99060000Y-109220000D01*
X97879000Y-83223000D02*
X99060000Y-82042000D01*
X133858000Y-69342000D02*
X130556000Y-72644000D01*
X130556000Y-72644000D02*
X99060000Y-72644000D01*
X99060000Y-97282000D02*
X99060000Y-93980000D01*
X99060000Y-93980000D02*
X99060000Y-91440000D01*
X86360000Y-120650000D02*
X86360000Y-119380000D01*
X97790000Y-113792000D02*
X99060000Y-112522000D01*
X97879000Y-90259000D02*
X97879000Y-83223000D01*
X135128000Y-69342000D02*
X133858000Y-69342000D01*
X99060000Y-91440000D02*
X97879000Y-90259000D01*
X86360000Y-119380000D02*
X86360000Y-118110000D01*
X99060000Y-121666000D02*
X97790000Y-120396000D01*
X99060000Y-109220000D02*
X99060000Y-106172000D01*
X165100000Y-82296000D02*
X175260000Y-82296000D01*
X162560000Y-83504369D02*
X162560000Y-86614000D01*
X165100000Y-82296000D02*
X163768369Y-82296000D01*
X163768369Y-82296000D02*
X162560000Y-83504369D01*
X104140000Y-112522000D02*
X104140000Y-109220000D01*
X102870000Y-113792000D02*
X104140000Y-112522000D01*
X102870000Y-119888000D02*
X102870000Y-113792000D01*
X109220000Y-121920000D02*
X104902000Y-121920000D01*
X104902000Y-121920000D02*
X102870000Y-119888000D01*
X76708000Y-104902000D02*
X73660000Y-104902000D01*
X67818000Y-132842000D02*
X77470000Y-123190000D01*
X79502000Y-122428000D02*
X79502000Y-121666000D01*
X79502000Y-119126000D02*
X79502000Y-107696000D01*
X78740000Y-123190000D02*
X79502000Y-122428000D01*
X66040000Y-132842000D02*
X67818000Y-132842000D01*
X79502000Y-107696000D02*
X76708000Y-104902000D01*
X77470000Y-123190000D02*
X78740000Y-123190000D01*
X135890000Y-65901370D02*
X134735370Y-67056000D01*
X134735370Y-67056000D02*
X133350000Y-67056000D01*
X77724000Y-96012000D02*
X73152000Y-96012000D01*
X133350000Y-67056000D02*
X129794000Y-70612000D01*
X136398000Y-61976000D02*
X135890000Y-62484000D01*
X78740000Y-72390000D02*
X78740000Y-94996000D01*
X138176000Y-61976000D02*
X136398000Y-61976000D01*
X78740000Y-94996000D02*
X77724000Y-96012000D01*
X80518000Y-70612000D02*
X78740000Y-72390000D01*
X71120000Y-93980000D02*
X68580000Y-93980000D01*
X135890000Y-62484000D02*
X135890000Y-65901370D01*
X139700000Y-63500000D02*
X138176000Y-61976000D01*
X129794000Y-70612000D02*
X80518000Y-70612000D01*
X73152000Y-96012000D02*
X71120000Y-93980000D01*
X58166000Y-103632000D02*
X58674000Y-103124000D01*
X57150000Y-141732000D02*
X68072000Y-141732000D01*
X53848000Y-138430000D02*
X57150000Y-141732000D01*
X140970000Y-59436000D02*
X139446000Y-57912000D01*
X68580000Y-83820000D02*
X68580000Y-86360000D01*
X53848000Y-107950000D02*
X53848000Y-119126000D01*
X58674000Y-103124000D02*
X58674000Y-92710000D01*
X140970000Y-66548000D02*
X139192000Y-66548000D01*
X53848000Y-119126000D02*
X53848000Y-138430000D01*
X68072000Y-141732000D02*
X71120000Y-144780000D01*
X58674000Y-92710000D02*
X63500000Y-87884000D01*
X80518000Y-57912000D02*
X71120000Y-67310000D01*
X56896000Y-118364000D02*
X53848000Y-118364000D01*
X55499000Y-106299000D02*
X53848000Y-107950000D01*
X71120000Y-67310000D02*
X71120000Y-78740000D01*
X65024000Y-87884000D02*
X63500000Y-87884000D01*
X71120000Y-81280000D02*
X71120000Y-78740000D01*
X139446000Y-57912000D02*
X80518000Y-57912000D01*
X67056000Y-87884000D02*
X65024000Y-87884000D01*
X139192000Y-66548000D02*
X134620000Y-71120000D01*
X63500000Y-87884000D02*
X63500000Y-86360000D01*
X68580000Y-86360000D02*
X67056000Y-87884000D01*
X109220000Y-109220000D02*
X109220000Y-104394000D01*
X109220000Y-104394000D02*
X107950000Y-103124000D01*
X102870000Y-103124000D02*
X102870000Y-98679000D01*
X102870000Y-98679000D02*
X104140000Y-97409000D01*
X104140000Y-97409000D02*
X104140000Y-93980000D01*
X69342000Y-121666000D02*
X66040000Y-124968000D01*
X78232000Y-121666000D02*
X73660000Y-121666000D01*
X73660000Y-121666000D02*
X69342000Y-121666000D01*
X73660000Y-123190000D02*
X73660000Y-121666000D01*
X76454000Y-105918000D02*
X72136000Y-105918000D01*
X78232000Y-107696000D02*
X76454000Y-105918000D01*
X78232000Y-119126000D02*
X78232000Y-107696000D01*
X72136000Y-105918000D02*
X71120000Y-104902000D01*
X205994000Y-93980000D02*
X218440000Y-93980000D01*
X229362000Y-92710000D02*
X243586000Y-92710000D01*
X248412000Y-119380000D02*
X248412000Y-96012000D01*
X182372000Y-88138000D02*
X166624000Y-88138000D01*
X185420000Y-89154000D02*
X185420000Y-92710000D01*
X218440000Y-93965000D02*
X228107000Y-93965000D01*
X243586000Y-92710000D02*
X244856000Y-93980000D01*
X184404000Y-88138000D02*
X185420000Y-89154000D01*
X166624000Y-88138000D02*
X165100000Y-86614000D01*
X244856000Y-93980000D02*
X246380000Y-93980000D01*
X228107000Y-93965000D02*
X229362000Y-92710000D01*
X204724000Y-92710000D02*
X205994000Y-93980000D01*
X200914000Y-92710000D02*
X204724000Y-92710000D01*
X248412000Y-96012000D02*
X246380000Y-93980000D01*
X147828000Y-91948000D02*
X149860000Y-93980000D01*
X134620000Y-86614000D02*
X139954000Y-91948000D01*
X139954000Y-91948000D02*
X147828000Y-91948000D01*
X173228000Y-91948000D02*
X175260000Y-93980000D01*
X137160000Y-86614000D02*
X141732000Y-91186000D01*
X141732000Y-91186000D02*
X148336000Y-91186000D01*
X148336000Y-91186000D02*
X149098000Y-91948000D01*
X149098000Y-91948000D02*
X173228000Y-91948000D01*
X144780000Y-86614000D02*
X144780000Y-83820000D01*
X143510000Y-75946000D02*
X142240000Y-74676000D01*
X139700000Y-86614000D02*
X144780000Y-86614000D01*
X144780000Y-83820000D02*
X143510000Y-82550000D01*
X140716000Y-74676000D02*
X137160000Y-71120000D01*
X142240000Y-74676000D02*
X140716000Y-74676000D01*
X102870000Y-83312000D02*
X104140000Y-82042000D01*
X102870000Y-88392000D02*
X102870000Y-83312000D01*
X109220000Y-93980000D02*
X109220000Y-90932000D01*
X104140000Y-82042000D02*
X104140000Y-78740000D01*
X109220000Y-90932000D02*
X106680000Y-88392000D01*
X60960000Y-100330000D02*
X60960000Y-101600000D01*
X66040000Y-93980000D02*
X66040000Y-95250000D01*
X66040000Y-95250000D02*
X60960000Y-100330000D01*
X73660000Y-115062000D02*
X73660000Y-116840000D01*
X69850000Y-91440000D02*
X69850000Y-89154000D01*
X69850000Y-104902000D02*
X69850000Y-111252000D01*
X68580000Y-80518000D02*
X71120000Y-83058000D01*
X69850000Y-111252000D02*
X73660000Y-115062000D01*
X69850000Y-102870000D02*
X69850000Y-95758000D01*
X68580000Y-78740000D02*
X68580000Y-80518000D01*
X71120000Y-83058000D02*
X71120000Y-86360000D01*
X76200000Y-112268000D02*
X76200000Y-109220000D01*
X73660000Y-118872000D02*
X74930000Y-117602000D01*
X74930000Y-117602000D02*
X74930000Y-113538000D01*
X74930000Y-113538000D02*
X76200000Y-112268000D01*
X66040000Y-118872000D02*
X73660000Y-118872000D01*
X65024000Y-92456000D02*
X63500000Y-93980000D01*
X73660000Y-93980000D02*
X72136000Y-92456000D01*
X72136000Y-92456000D02*
X65024000Y-92456000D01*
X145542000Y-75184000D02*
X152654000Y-75184000D01*
X139700000Y-71120000D02*
X142748000Y-74168000D01*
X155956000Y-82550000D02*
X160020000Y-86614000D01*
X144526000Y-74168000D02*
X145542000Y-75184000D01*
X142748000Y-74168000D02*
X144526000Y-74168000D01*
X152654000Y-82550000D02*
X155956000Y-82550000D01*
X76200000Y-93980000D02*
X69850000Y-87630000D01*
X69850000Y-87630000D02*
X69850000Y-83566000D01*
X69850000Y-83566000D02*
X66040000Y-79756000D01*
X66040000Y-79756000D02*
X66040000Y-78740000D01*
M02*
