G04 #@! TF.GenerationSoftware,KiCad,Pcbnew,(5.1.5)-3*
G04 #@! TF.CreationDate,2020-11-29T18:57:45-08:00*
G04 #@! TF.ProjectId,register16,72656769-7374-4657-9231-362e6b696361,rev?*
G04 #@! TF.SameCoordinates,Original*
G04 #@! TF.FileFunction,Legend,Top*
G04 #@! TF.FilePolarity,Positive*
%FSLAX46Y46*%
G04 Gerber Fmt 4.6, Leading zero omitted, Abs format (unit mm)*
G04 Created by KiCad (PCBNEW (5.1.5)-3) date 2020-11-29 18:57:45*
%MOMM*%
%LPD*%
G04 APERTURE LIST*
%ADD10C,0.200000*%
%ADD11C,0.381000*%
%ADD12C,0.254000*%
%ADD13C,0.120000*%
%ADD14C,0.150000*%
%ADD15C,0.177800*%
%ADD16C,0.250000*%
G04 APERTURE END LIST*
D10*
X235641428Y-102048571D02*
X235641428Y-103120000D01*
X235570000Y-103334285D01*
X235427142Y-103477142D01*
X235212857Y-103548571D01*
X235070000Y-103548571D01*
X237070000Y-103548571D02*
X236355714Y-103548571D01*
X236355714Y-102048571D01*
X238427142Y-103405714D02*
X238355714Y-103477142D01*
X238141428Y-103548571D01*
X237998571Y-103548571D01*
X237784285Y-103477142D01*
X237641428Y-103334285D01*
X237570000Y-103191428D01*
X237498571Y-102905714D01*
X237498571Y-102691428D01*
X237570000Y-102405714D01*
X237641428Y-102262857D01*
X237784285Y-102120000D01*
X237998571Y-102048571D01*
X238141428Y-102048571D01*
X238355714Y-102120000D01*
X238427142Y-102191428D01*
X239498571Y-102048571D02*
X239498571Y-103120000D01*
X239427142Y-103334285D01*
X239284285Y-103477142D01*
X239070000Y-103548571D01*
X238927142Y-103548571D01*
X240927142Y-103548571D02*
X240212857Y-103548571D01*
X240212857Y-102048571D01*
X242284285Y-103405714D02*
X242212857Y-103477142D01*
X241998571Y-103548571D01*
X241855714Y-103548571D01*
X241641428Y-103477142D01*
X241498571Y-103334285D01*
X241427142Y-103191428D01*
X241355714Y-102905714D01*
X241355714Y-102691428D01*
X241427142Y-102405714D01*
X241498571Y-102262857D01*
X241641428Y-102120000D01*
X241855714Y-102048571D01*
X241998571Y-102048571D01*
X242212857Y-102120000D01*
X242284285Y-102191428D01*
X243355714Y-102048571D02*
X243355714Y-103120000D01*
X243284285Y-103334285D01*
X243141428Y-103477142D01*
X242927142Y-103548571D01*
X242784285Y-103548571D01*
X244784285Y-103548571D02*
X244070000Y-103548571D01*
X244070000Y-102048571D01*
X246141428Y-103405714D02*
X246070000Y-103477142D01*
X245855714Y-103548571D01*
X245712857Y-103548571D01*
X245498571Y-103477142D01*
X245355714Y-103334285D01*
X245284285Y-103191428D01*
X245212857Y-102905714D01*
X245212857Y-102691428D01*
X245284285Y-102405714D01*
X245355714Y-102262857D01*
X245498571Y-102120000D01*
X245712857Y-102048571D01*
X245855714Y-102048571D01*
X246070000Y-102120000D01*
X246141428Y-102191428D01*
X247212857Y-102048571D02*
X247212857Y-103120000D01*
X247141428Y-103334285D01*
X246998571Y-103477142D01*
X246784285Y-103548571D01*
X246641428Y-103548571D01*
X248641428Y-103548571D02*
X247927142Y-103548571D01*
X247927142Y-102048571D01*
X249998571Y-103405714D02*
X249927142Y-103477142D01*
X249712857Y-103548571D01*
X249570000Y-103548571D01*
X249355714Y-103477142D01*
X249212857Y-103334285D01*
X249141428Y-103191428D01*
X249070000Y-102905714D01*
X249070000Y-102691428D01*
X249141428Y-102405714D01*
X249212857Y-102262857D01*
X249355714Y-102120000D01*
X249570000Y-102048571D01*
X249712857Y-102048571D01*
X249927142Y-102120000D01*
X249998571Y-102191428D01*
D11*
X135545285Y-45157571D02*
X134275285Y-43343285D01*
X133368142Y-45157571D02*
X133368142Y-41347571D01*
X134819571Y-41347571D01*
X135182428Y-41529000D01*
X135363857Y-41710428D01*
X135545285Y-42073285D01*
X135545285Y-42617571D01*
X135363857Y-42980428D01*
X135182428Y-43161857D01*
X134819571Y-43343285D01*
X133368142Y-43343285D01*
X137178142Y-43161857D02*
X138448142Y-43161857D01*
X138992428Y-45157571D02*
X137178142Y-45157571D01*
X137178142Y-41347571D01*
X138992428Y-41347571D01*
X142621000Y-41529000D02*
X142258142Y-41347571D01*
X141713857Y-41347571D01*
X141169571Y-41529000D01*
X140806714Y-41891857D01*
X140625285Y-42254714D01*
X140443857Y-42980428D01*
X140443857Y-43524714D01*
X140625285Y-44250428D01*
X140806714Y-44613285D01*
X141169571Y-44976142D01*
X141713857Y-45157571D01*
X142076714Y-45157571D01*
X142621000Y-44976142D01*
X142802428Y-44794714D01*
X142802428Y-43524714D01*
X142076714Y-43524714D01*
X144435285Y-45157571D02*
X144435285Y-41347571D01*
X146068142Y-44976142D02*
X146612428Y-45157571D01*
X147519571Y-45157571D01*
X147882428Y-44976142D01*
X148063857Y-44794714D01*
X148245285Y-44431857D01*
X148245285Y-44069000D01*
X148063857Y-43706142D01*
X147882428Y-43524714D01*
X147519571Y-43343285D01*
X146793857Y-43161857D01*
X146431000Y-42980428D01*
X146249571Y-42799000D01*
X146068142Y-42436142D01*
X146068142Y-42073285D01*
X146249571Y-41710428D01*
X146431000Y-41529000D01*
X146793857Y-41347571D01*
X147701000Y-41347571D01*
X148245285Y-41529000D01*
X149333857Y-41347571D02*
X151511000Y-41347571D01*
X150422428Y-45157571D02*
X150422428Y-41347571D01*
X152781000Y-43161857D02*
X154051000Y-43161857D01*
X154595285Y-45157571D02*
X152781000Y-45157571D01*
X152781000Y-41347571D01*
X154595285Y-41347571D01*
X158405285Y-45157571D02*
X157135285Y-43343285D01*
X156228142Y-45157571D02*
X156228142Y-41347571D01*
X157679571Y-41347571D01*
X158042428Y-41529000D01*
X158223857Y-41710428D01*
X158405285Y-42073285D01*
X158405285Y-42617571D01*
X158223857Y-42980428D01*
X158042428Y-43161857D01*
X157679571Y-43343285D01*
X156228142Y-43343285D01*
D12*
X78860952Y-54247142D02*
X78740000Y-54368095D01*
X78377142Y-54489047D01*
X78135238Y-54489047D01*
X77772380Y-54368095D01*
X77530476Y-54126190D01*
X77409523Y-53884285D01*
X77288571Y-53400476D01*
X77288571Y-53037619D01*
X77409523Y-52553809D01*
X77530476Y-52311904D01*
X77772380Y-52070000D01*
X78135238Y-51949047D01*
X78377142Y-51949047D01*
X78740000Y-52070000D01*
X78860952Y-52190952D01*
X80312380Y-54489047D02*
X80070476Y-54368095D01*
X79949523Y-54247142D01*
X79828571Y-54005238D01*
X79828571Y-53279523D01*
X79949523Y-53037619D01*
X80070476Y-52916666D01*
X80312380Y-52795714D01*
X80675238Y-52795714D01*
X80917142Y-52916666D01*
X81038095Y-53037619D01*
X81159047Y-53279523D01*
X81159047Y-54005238D01*
X81038095Y-54247142D01*
X80917142Y-54368095D01*
X80675238Y-54489047D01*
X80312380Y-54489047D01*
X82247619Y-52795714D02*
X82247619Y-54489047D01*
X82247619Y-53037619D02*
X82368571Y-52916666D01*
X82610476Y-52795714D01*
X82973333Y-52795714D01*
X83215238Y-52916666D01*
X83336190Y-53158571D01*
X83336190Y-54489047D01*
X84182857Y-52795714D02*
X85150476Y-52795714D01*
X84545714Y-51949047D02*
X84545714Y-54126190D01*
X84666666Y-54368095D01*
X84908571Y-54489047D01*
X85150476Y-54489047D01*
X86964761Y-54368095D02*
X86722857Y-54489047D01*
X86239047Y-54489047D01*
X85997142Y-54368095D01*
X85876190Y-54126190D01*
X85876190Y-53158571D01*
X85997142Y-52916666D01*
X86239047Y-52795714D01*
X86722857Y-52795714D01*
X86964761Y-52916666D01*
X87085714Y-53158571D01*
X87085714Y-53400476D01*
X85876190Y-53642380D01*
X88174285Y-52795714D02*
X88174285Y-54489047D01*
X88174285Y-53037619D02*
X88295238Y-52916666D01*
X88537142Y-52795714D01*
X88900000Y-52795714D01*
X89141904Y-52916666D01*
X89262857Y-53158571D01*
X89262857Y-54489047D01*
X90109523Y-52795714D02*
X91077142Y-52795714D01*
X90472380Y-51949047D02*
X90472380Y-54126190D01*
X90593333Y-54368095D01*
X90835238Y-54489047D01*
X91077142Y-54489047D01*
X91802857Y-54368095D02*
X92044761Y-54489047D01*
X92528571Y-54489047D01*
X92770476Y-54368095D01*
X92891428Y-54126190D01*
X92891428Y-54005238D01*
X92770476Y-53763333D01*
X92528571Y-53642380D01*
X92165714Y-53642380D01*
X91923809Y-53521428D01*
X91802857Y-53279523D01*
X91802857Y-53158571D01*
X91923809Y-52916666D01*
X92165714Y-52795714D01*
X92528571Y-52795714D01*
X92770476Y-52916666D01*
X265442095Y-107756476D02*
X265563047Y-107393619D01*
X265563047Y-106788857D01*
X265442095Y-106546952D01*
X265321142Y-106426000D01*
X265079238Y-106305047D01*
X264837333Y-106305047D01*
X264595428Y-106426000D01*
X264474476Y-106546952D01*
X264353523Y-106788857D01*
X264232571Y-107272666D01*
X264111619Y-107514571D01*
X263990666Y-107635523D01*
X263748761Y-107756476D01*
X263506857Y-107756476D01*
X263264952Y-107635523D01*
X263144000Y-107514571D01*
X263023047Y-107272666D01*
X263023047Y-106667904D01*
X263144000Y-106305047D01*
X265563047Y-105216476D02*
X263023047Y-105216476D01*
X263144000Y-102676476D02*
X263023047Y-102918380D01*
X263023047Y-103281238D01*
X263144000Y-103644095D01*
X263385904Y-103886000D01*
X263627809Y-104006952D01*
X264111619Y-104127904D01*
X264474476Y-104127904D01*
X264958285Y-104006952D01*
X265200190Y-103886000D01*
X265442095Y-103644095D01*
X265563047Y-103281238D01*
X265563047Y-103039333D01*
X265442095Y-102676476D01*
X265321142Y-102555523D01*
X264474476Y-102555523D01*
X264474476Y-103039333D01*
X270389047Y-107502476D02*
X267849047Y-107502476D01*
X269058571Y-107502476D02*
X269058571Y-106051047D01*
X270389047Y-106051047D02*
X267849047Y-106051047D01*
X270389047Y-104841523D02*
X267849047Y-104841523D01*
X260229047Y-106462285D02*
X260229047Y-107671809D01*
X257689047Y-107671809D01*
X257689047Y-105131809D02*
X257689047Y-104648000D01*
X257810000Y-104406095D01*
X258051904Y-104164190D01*
X258535714Y-104043238D01*
X259382380Y-104043238D01*
X259866190Y-104164190D01*
X260108095Y-104406095D01*
X260229047Y-104648000D01*
X260229047Y-105131809D01*
X260108095Y-105373714D01*
X259866190Y-105615619D01*
X259382380Y-105736571D01*
X258535714Y-105736571D01*
X258051904Y-105615619D01*
X257810000Y-105373714D01*
X257689047Y-105131809D01*
X231188380Y-116211047D02*
X231672190Y-116211047D01*
X231914095Y-116332000D01*
X232156000Y-116573904D01*
X232276952Y-117057714D01*
X232276952Y-117904380D01*
X232156000Y-118388190D01*
X231914095Y-118630095D01*
X231672190Y-118751047D01*
X231188380Y-118751047D01*
X230946476Y-118630095D01*
X230704571Y-118388190D01*
X230583619Y-117904380D01*
X230583619Y-117057714D01*
X230704571Y-116573904D01*
X230946476Y-116332000D01*
X231188380Y-116211047D01*
X234454095Y-117057714D02*
X234454095Y-118751047D01*
X233365523Y-117057714D02*
X233365523Y-118388190D01*
X233486476Y-118630095D01*
X233728380Y-118751047D01*
X234091238Y-118751047D01*
X234333142Y-118630095D01*
X234454095Y-118509142D01*
X235300761Y-117057714D02*
X236268380Y-117057714D01*
X235663619Y-116211047D02*
X235663619Y-118388190D01*
X235784571Y-118630095D01*
X236026476Y-118751047D01*
X236268380Y-118751047D01*
X237115047Y-117057714D02*
X237115047Y-119597714D01*
X237115047Y-117178666D02*
X237356952Y-117057714D01*
X237840761Y-117057714D01*
X238082666Y-117178666D01*
X238203619Y-117299619D01*
X238324571Y-117541523D01*
X238324571Y-118267238D01*
X238203619Y-118509142D01*
X238082666Y-118630095D01*
X237840761Y-118751047D01*
X237356952Y-118751047D01*
X237115047Y-118630095D01*
X240501714Y-117057714D02*
X240501714Y-118751047D01*
X239413142Y-117057714D02*
X239413142Y-118388190D01*
X239534095Y-118630095D01*
X239776000Y-118751047D01*
X240138857Y-118751047D01*
X240380761Y-118630095D01*
X240501714Y-118509142D01*
X241348380Y-117057714D02*
X242316000Y-117057714D01*
X241711238Y-116211047D02*
X241711238Y-118388190D01*
X241832190Y-118630095D01*
X242074095Y-118751047D01*
X242316000Y-118751047D01*
X246065523Y-118630095D02*
X245823619Y-118751047D01*
X245339809Y-118751047D01*
X245097904Y-118630095D01*
X244976952Y-118388190D01*
X244976952Y-117420571D01*
X245097904Y-117178666D01*
X245339809Y-117057714D01*
X245823619Y-117057714D01*
X246065523Y-117178666D01*
X246186476Y-117420571D01*
X246186476Y-117662476D01*
X244976952Y-117904380D01*
X247275047Y-117057714D02*
X247275047Y-118751047D01*
X247275047Y-117299619D02*
X247396000Y-117178666D01*
X247637904Y-117057714D01*
X248000761Y-117057714D01*
X248242666Y-117178666D01*
X248363619Y-117420571D01*
X248363619Y-118751047D01*
X250661714Y-118751047D02*
X250661714Y-117420571D01*
X250540761Y-117178666D01*
X250298857Y-117057714D01*
X249815047Y-117057714D01*
X249573142Y-117178666D01*
X250661714Y-118630095D02*
X250419809Y-118751047D01*
X249815047Y-118751047D01*
X249573142Y-118630095D01*
X249452190Y-118388190D01*
X249452190Y-118146285D01*
X249573142Y-117904380D01*
X249815047Y-117783428D01*
X250419809Y-117783428D01*
X250661714Y-117662476D01*
X251871238Y-118751047D02*
X251871238Y-116211047D01*
X251871238Y-117178666D02*
X252113142Y-117057714D01*
X252596952Y-117057714D01*
X252838857Y-117178666D01*
X252959809Y-117299619D01*
X253080761Y-117541523D01*
X253080761Y-118267238D01*
X252959809Y-118509142D01*
X252838857Y-118630095D01*
X252596952Y-118751047D01*
X252113142Y-118751047D01*
X251871238Y-118630095D01*
X254532190Y-118751047D02*
X254290285Y-118630095D01*
X254169333Y-118388190D01*
X254169333Y-116211047D01*
X256467428Y-118630095D02*
X256225523Y-118751047D01*
X255741714Y-118751047D01*
X255499809Y-118630095D01*
X255378857Y-118388190D01*
X255378857Y-117420571D01*
X255499809Y-117178666D01*
X255741714Y-117057714D01*
X256225523Y-117057714D01*
X256467428Y-117178666D01*
X256588380Y-117420571D01*
X256588380Y-117662476D01*
X255378857Y-117904380D01*
X233172000Y-112147047D02*
X233172000Y-109607047D01*
X234381523Y-110453714D02*
X234381523Y-112147047D01*
X234381523Y-110695619D02*
X234502476Y-110574666D01*
X234744380Y-110453714D01*
X235107238Y-110453714D01*
X235349142Y-110574666D01*
X235470095Y-110816571D01*
X235470095Y-112147047D01*
X236679619Y-110453714D02*
X236679619Y-112993714D01*
X236679619Y-110574666D02*
X236921523Y-110453714D01*
X237405333Y-110453714D01*
X237647238Y-110574666D01*
X237768190Y-110695619D01*
X237889142Y-110937523D01*
X237889142Y-111663238D01*
X237768190Y-111905142D01*
X237647238Y-112026095D01*
X237405333Y-112147047D01*
X236921523Y-112147047D01*
X236679619Y-112026095D01*
X240066285Y-110453714D02*
X240066285Y-112147047D01*
X238977714Y-110453714D02*
X238977714Y-111784190D01*
X239098666Y-112026095D01*
X239340571Y-112147047D01*
X239703428Y-112147047D01*
X239945333Y-112026095D01*
X240066285Y-111905142D01*
X240912952Y-110453714D02*
X241880571Y-110453714D01*
X241275809Y-109607047D02*
X241275809Y-111784190D01*
X241396761Y-112026095D01*
X241638666Y-112147047D01*
X241880571Y-112147047D01*
X245630095Y-112026095D02*
X245388190Y-112147047D01*
X244904380Y-112147047D01*
X244662476Y-112026095D01*
X244541523Y-111784190D01*
X244541523Y-110816571D01*
X244662476Y-110574666D01*
X244904380Y-110453714D01*
X245388190Y-110453714D01*
X245630095Y-110574666D01*
X245751047Y-110816571D01*
X245751047Y-111058476D01*
X244541523Y-111300380D01*
X246839619Y-110453714D02*
X246839619Y-112147047D01*
X246839619Y-110695619D02*
X246960571Y-110574666D01*
X247202476Y-110453714D01*
X247565333Y-110453714D01*
X247807238Y-110574666D01*
X247928190Y-110816571D01*
X247928190Y-112147047D01*
X250226285Y-112147047D02*
X250226285Y-110816571D01*
X250105333Y-110574666D01*
X249863428Y-110453714D01*
X249379619Y-110453714D01*
X249137714Y-110574666D01*
X250226285Y-112026095D02*
X249984380Y-112147047D01*
X249379619Y-112147047D01*
X249137714Y-112026095D01*
X249016761Y-111784190D01*
X249016761Y-111542285D01*
X249137714Y-111300380D01*
X249379619Y-111179428D01*
X249984380Y-111179428D01*
X250226285Y-111058476D01*
X251435809Y-112147047D02*
X251435809Y-109607047D01*
X251435809Y-110574666D02*
X251677714Y-110453714D01*
X252161523Y-110453714D01*
X252403428Y-110574666D01*
X252524380Y-110695619D01*
X252645333Y-110937523D01*
X252645333Y-111663238D01*
X252524380Y-111905142D01*
X252403428Y-112026095D01*
X252161523Y-112147047D01*
X251677714Y-112147047D01*
X251435809Y-112026095D01*
X254096761Y-112147047D02*
X253854857Y-112026095D01*
X253733904Y-111784190D01*
X253733904Y-109607047D01*
X256032000Y-112026095D02*
X255790095Y-112147047D01*
X255306285Y-112147047D01*
X255064380Y-112026095D01*
X254943428Y-111784190D01*
X254943428Y-110816571D01*
X255064380Y-110574666D01*
X255306285Y-110453714D01*
X255790095Y-110453714D01*
X256032000Y-110574666D01*
X256152952Y-110816571D01*
X256152952Y-111058476D01*
X254943428Y-111300380D01*
D13*
X264764759Y-86746000D02*
X264764759Y-87376000D01*
X264449759Y-87061000D02*
X265079759Y-87061000D01*
X271191000Y-88498000D02*
X271191000Y-89302000D01*
X271151000Y-88267000D02*
X271151000Y-89533000D01*
X271111000Y-88098000D02*
X271111000Y-89702000D01*
X271071000Y-87960000D02*
X271071000Y-89840000D01*
X271031000Y-87841000D02*
X271031000Y-89959000D01*
X270991000Y-87735000D02*
X270991000Y-90065000D01*
X270951000Y-87638000D02*
X270951000Y-90162000D01*
X270911000Y-87550000D02*
X270911000Y-90250000D01*
X270871000Y-87468000D02*
X270871000Y-90332000D01*
X270831000Y-87391000D02*
X270831000Y-90409000D01*
X270791000Y-87319000D02*
X270791000Y-90481000D01*
X270751000Y-87250000D02*
X270751000Y-90550000D01*
X270711000Y-87186000D02*
X270711000Y-90614000D01*
X270671000Y-87124000D02*
X270671000Y-90676000D01*
X270631000Y-87066000D02*
X270631000Y-90734000D01*
X270591000Y-87010000D02*
X270591000Y-90790000D01*
X270551000Y-86956000D02*
X270551000Y-90844000D01*
X270511000Y-86905000D02*
X270511000Y-90895000D01*
X270471000Y-86856000D02*
X270471000Y-90944000D01*
X270431000Y-86808000D02*
X270431000Y-90992000D01*
X270391000Y-86763000D02*
X270391000Y-91037000D01*
X270351000Y-86718000D02*
X270351000Y-91082000D01*
X270311000Y-86676000D02*
X270311000Y-91124000D01*
X270271000Y-86635000D02*
X270271000Y-91165000D01*
X270231000Y-89940000D02*
X270231000Y-91205000D01*
X270231000Y-86595000D02*
X270231000Y-87860000D01*
X270191000Y-89940000D02*
X270191000Y-91243000D01*
X270191000Y-86557000D02*
X270191000Y-87860000D01*
X270151000Y-89940000D02*
X270151000Y-91280000D01*
X270151000Y-86520000D02*
X270151000Y-87860000D01*
X270111000Y-89940000D02*
X270111000Y-91316000D01*
X270111000Y-86484000D02*
X270111000Y-87860000D01*
X270071000Y-89940000D02*
X270071000Y-91350000D01*
X270071000Y-86450000D02*
X270071000Y-87860000D01*
X270031000Y-89940000D02*
X270031000Y-91384000D01*
X270031000Y-86416000D02*
X270031000Y-87860000D01*
X269991000Y-89940000D02*
X269991000Y-91416000D01*
X269991000Y-86384000D02*
X269991000Y-87860000D01*
X269951000Y-89940000D02*
X269951000Y-91448000D01*
X269951000Y-86352000D02*
X269951000Y-87860000D01*
X269911000Y-89940000D02*
X269911000Y-91478000D01*
X269911000Y-86322000D02*
X269911000Y-87860000D01*
X269871000Y-89940000D02*
X269871000Y-91507000D01*
X269871000Y-86293000D02*
X269871000Y-87860000D01*
X269831000Y-89940000D02*
X269831000Y-91536000D01*
X269831000Y-86264000D02*
X269831000Y-87860000D01*
X269791000Y-89940000D02*
X269791000Y-91564000D01*
X269791000Y-86236000D02*
X269791000Y-87860000D01*
X269751000Y-89940000D02*
X269751000Y-91590000D01*
X269751000Y-86210000D02*
X269751000Y-87860000D01*
X269711000Y-89940000D02*
X269711000Y-91616000D01*
X269711000Y-86184000D02*
X269711000Y-87860000D01*
X269671000Y-89940000D02*
X269671000Y-91642000D01*
X269671000Y-86158000D02*
X269671000Y-87860000D01*
X269631000Y-89940000D02*
X269631000Y-91666000D01*
X269631000Y-86134000D02*
X269631000Y-87860000D01*
X269591000Y-89940000D02*
X269591000Y-91690000D01*
X269591000Y-86110000D02*
X269591000Y-87860000D01*
X269551000Y-89940000D02*
X269551000Y-91712000D01*
X269551000Y-86088000D02*
X269551000Y-87860000D01*
X269511000Y-89940000D02*
X269511000Y-91734000D01*
X269511000Y-86066000D02*
X269511000Y-87860000D01*
X269471000Y-89940000D02*
X269471000Y-91756000D01*
X269471000Y-86044000D02*
X269471000Y-87860000D01*
X269431000Y-89940000D02*
X269431000Y-91776000D01*
X269431000Y-86024000D02*
X269431000Y-87860000D01*
X269391000Y-89940000D02*
X269391000Y-91796000D01*
X269391000Y-86004000D02*
X269391000Y-87860000D01*
X269351000Y-89940000D02*
X269351000Y-91816000D01*
X269351000Y-85984000D02*
X269351000Y-87860000D01*
X269311000Y-89940000D02*
X269311000Y-91834000D01*
X269311000Y-85966000D02*
X269311000Y-87860000D01*
X269271000Y-89940000D02*
X269271000Y-91852000D01*
X269271000Y-85948000D02*
X269271000Y-87860000D01*
X269231000Y-89940000D02*
X269231000Y-91870000D01*
X269231000Y-85930000D02*
X269231000Y-87860000D01*
X269191000Y-89940000D02*
X269191000Y-91886000D01*
X269191000Y-85914000D02*
X269191000Y-87860000D01*
X269151000Y-89940000D02*
X269151000Y-91902000D01*
X269151000Y-85898000D02*
X269151000Y-87860000D01*
X269111000Y-89940000D02*
X269111000Y-91918000D01*
X269111000Y-85882000D02*
X269111000Y-87860000D01*
X269071000Y-89940000D02*
X269071000Y-91933000D01*
X269071000Y-85867000D02*
X269071000Y-87860000D01*
X269031000Y-89940000D02*
X269031000Y-91947000D01*
X269031000Y-85853000D02*
X269031000Y-87860000D01*
X268991000Y-89940000D02*
X268991000Y-91961000D01*
X268991000Y-85839000D02*
X268991000Y-87860000D01*
X268951000Y-89940000D02*
X268951000Y-91974000D01*
X268951000Y-85826000D02*
X268951000Y-87860000D01*
X268911000Y-89940000D02*
X268911000Y-91986000D01*
X268911000Y-85814000D02*
X268911000Y-87860000D01*
X268871000Y-89940000D02*
X268871000Y-91998000D01*
X268871000Y-85802000D02*
X268871000Y-87860000D01*
X268831000Y-89940000D02*
X268831000Y-92010000D01*
X268831000Y-85790000D02*
X268831000Y-87860000D01*
X268791000Y-89940000D02*
X268791000Y-92021000D01*
X268791000Y-85779000D02*
X268791000Y-87860000D01*
X268751000Y-89940000D02*
X268751000Y-92031000D01*
X268751000Y-85769000D02*
X268751000Y-87860000D01*
X268711000Y-89940000D02*
X268711000Y-92041000D01*
X268711000Y-85759000D02*
X268711000Y-87860000D01*
X268671000Y-89940000D02*
X268671000Y-92050000D01*
X268671000Y-85750000D02*
X268671000Y-87860000D01*
X268630000Y-89940000D02*
X268630000Y-92059000D01*
X268630000Y-85741000D02*
X268630000Y-87860000D01*
X268590000Y-89940000D02*
X268590000Y-92067000D01*
X268590000Y-85733000D02*
X268590000Y-87860000D01*
X268550000Y-89940000D02*
X268550000Y-92075000D01*
X268550000Y-85725000D02*
X268550000Y-87860000D01*
X268510000Y-89940000D02*
X268510000Y-92082000D01*
X268510000Y-85718000D02*
X268510000Y-87860000D01*
X268470000Y-89940000D02*
X268470000Y-92089000D01*
X268470000Y-85711000D02*
X268470000Y-87860000D01*
X268430000Y-89940000D02*
X268430000Y-92095000D01*
X268430000Y-85705000D02*
X268430000Y-87860000D01*
X268390000Y-89940000D02*
X268390000Y-92101000D01*
X268390000Y-85699000D02*
X268390000Y-87860000D01*
X268350000Y-89940000D02*
X268350000Y-92106000D01*
X268350000Y-85694000D02*
X268350000Y-87860000D01*
X268310000Y-89940000D02*
X268310000Y-92111000D01*
X268310000Y-85689000D02*
X268310000Y-87860000D01*
X268270000Y-89940000D02*
X268270000Y-92115000D01*
X268270000Y-85685000D02*
X268270000Y-87860000D01*
X268230000Y-89940000D02*
X268230000Y-92118000D01*
X268230000Y-85682000D02*
X268230000Y-87860000D01*
X268190000Y-89940000D02*
X268190000Y-92122000D01*
X268190000Y-85678000D02*
X268190000Y-87860000D01*
X268150000Y-85676000D02*
X268150000Y-92124000D01*
X268110000Y-85673000D02*
X268110000Y-92127000D01*
X268070000Y-85672000D02*
X268070000Y-92128000D01*
X268030000Y-85670000D02*
X268030000Y-92130000D01*
X267990000Y-85670000D02*
X267990000Y-92130000D01*
X267950000Y-85670000D02*
X267950000Y-92130000D01*
X271220000Y-88900000D02*
G75*
G03X271220000Y-88900000I-3270000J0D01*
G01*
X175646000Y-65435241D02*
X176276000Y-65435241D01*
X175961000Y-65750241D02*
X175961000Y-65120241D01*
X177398000Y-59009000D02*
X178202000Y-59009000D01*
X177167000Y-59049000D02*
X178433000Y-59049000D01*
X176998000Y-59089000D02*
X178602000Y-59089000D01*
X176860000Y-59129000D02*
X178740000Y-59129000D01*
X176741000Y-59169000D02*
X178859000Y-59169000D01*
X176635000Y-59209000D02*
X178965000Y-59209000D01*
X176538000Y-59249000D02*
X179062000Y-59249000D01*
X176450000Y-59289000D02*
X179150000Y-59289000D01*
X176368000Y-59329000D02*
X179232000Y-59329000D01*
X176291000Y-59369000D02*
X179309000Y-59369000D01*
X176219000Y-59409000D02*
X179381000Y-59409000D01*
X176150000Y-59449000D02*
X179450000Y-59449000D01*
X176086000Y-59489000D02*
X179514000Y-59489000D01*
X176024000Y-59529000D02*
X179576000Y-59529000D01*
X175966000Y-59569000D02*
X179634000Y-59569000D01*
X175910000Y-59609000D02*
X179690000Y-59609000D01*
X175856000Y-59649000D02*
X179744000Y-59649000D01*
X175805000Y-59689000D02*
X179795000Y-59689000D01*
X175756000Y-59729000D02*
X179844000Y-59729000D01*
X175708000Y-59769000D02*
X179892000Y-59769000D01*
X175663000Y-59809000D02*
X179937000Y-59809000D01*
X175618000Y-59849000D02*
X179982000Y-59849000D01*
X175576000Y-59889000D02*
X180024000Y-59889000D01*
X175535000Y-59929000D02*
X180065000Y-59929000D01*
X178840000Y-59969000D02*
X180105000Y-59969000D01*
X175495000Y-59969000D02*
X176760000Y-59969000D01*
X178840000Y-60009000D02*
X180143000Y-60009000D01*
X175457000Y-60009000D02*
X176760000Y-60009000D01*
X178840000Y-60049000D02*
X180180000Y-60049000D01*
X175420000Y-60049000D02*
X176760000Y-60049000D01*
X178840000Y-60089000D02*
X180216000Y-60089000D01*
X175384000Y-60089000D02*
X176760000Y-60089000D01*
X178840000Y-60129000D02*
X180250000Y-60129000D01*
X175350000Y-60129000D02*
X176760000Y-60129000D01*
X178840000Y-60169000D02*
X180284000Y-60169000D01*
X175316000Y-60169000D02*
X176760000Y-60169000D01*
X178840000Y-60209000D02*
X180316000Y-60209000D01*
X175284000Y-60209000D02*
X176760000Y-60209000D01*
X178840000Y-60249000D02*
X180348000Y-60249000D01*
X175252000Y-60249000D02*
X176760000Y-60249000D01*
X178840000Y-60289000D02*
X180378000Y-60289000D01*
X175222000Y-60289000D02*
X176760000Y-60289000D01*
X178840000Y-60329000D02*
X180407000Y-60329000D01*
X175193000Y-60329000D02*
X176760000Y-60329000D01*
X178840000Y-60369000D02*
X180436000Y-60369000D01*
X175164000Y-60369000D02*
X176760000Y-60369000D01*
X178840000Y-60409000D02*
X180464000Y-60409000D01*
X175136000Y-60409000D02*
X176760000Y-60409000D01*
X178840000Y-60449000D02*
X180490000Y-60449000D01*
X175110000Y-60449000D02*
X176760000Y-60449000D01*
X178840000Y-60489000D02*
X180516000Y-60489000D01*
X175084000Y-60489000D02*
X176760000Y-60489000D01*
X178840000Y-60529000D02*
X180542000Y-60529000D01*
X175058000Y-60529000D02*
X176760000Y-60529000D01*
X178840000Y-60569000D02*
X180566000Y-60569000D01*
X175034000Y-60569000D02*
X176760000Y-60569000D01*
X178840000Y-60609000D02*
X180590000Y-60609000D01*
X175010000Y-60609000D02*
X176760000Y-60609000D01*
X178840000Y-60649000D02*
X180612000Y-60649000D01*
X174988000Y-60649000D02*
X176760000Y-60649000D01*
X178840000Y-60689000D02*
X180634000Y-60689000D01*
X174966000Y-60689000D02*
X176760000Y-60689000D01*
X178840000Y-60729000D02*
X180656000Y-60729000D01*
X174944000Y-60729000D02*
X176760000Y-60729000D01*
X178840000Y-60769000D02*
X180676000Y-60769000D01*
X174924000Y-60769000D02*
X176760000Y-60769000D01*
X178840000Y-60809000D02*
X180696000Y-60809000D01*
X174904000Y-60809000D02*
X176760000Y-60809000D01*
X178840000Y-60849000D02*
X180716000Y-60849000D01*
X174884000Y-60849000D02*
X176760000Y-60849000D01*
X178840000Y-60889000D02*
X180734000Y-60889000D01*
X174866000Y-60889000D02*
X176760000Y-60889000D01*
X178840000Y-60929000D02*
X180752000Y-60929000D01*
X174848000Y-60929000D02*
X176760000Y-60929000D01*
X178840000Y-60969000D02*
X180770000Y-60969000D01*
X174830000Y-60969000D02*
X176760000Y-60969000D01*
X178840000Y-61009000D02*
X180786000Y-61009000D01*
X174814000Y-61009000D02*
X176760000Y-61009000D01*
X178840000Y-61049000D02*
X180802000Y-61049000D01*
X174798000Y-61049000D02*
X176760000Y-61049000D01*
X178840000Y-61089000D02*
X180818000Y-61089000D01*
X174782000Y-61089000D02*
X176760000Y-61089000D01*
X178840000Y-61129000D02*
X180833000Y-61129000D01*
X174767000Y-61129000D02*
X176760000Y-61129000D01*
X178840000Y-61169000D02*
X180847000Y-61169000D01*
X174753000Y-61169000D02*
X176760000Y-61169000D01*
X178840000Y-61209000D02*
X180861000Y-61209000D01*
X174739000Y-61209000D02*
X176760000Y-61209000D01*
X178840000Y-61249000D02*
X180874000Y-61249000D01*
X174726000Y-61249000D02*
X176760000Y-61249000D01*
X178840000Y-61289000D02*
X180886000Y-61289000D01*
X174714000Y-61289000D02*
X176760000Y-61289000D01*
X178840000Y-61329000D02*
X180898000Y-61329000D01*
X174702000Y-61329000D02*
X176760000Y-61329000D01*
X178840000Y-61369000D02*
X180910000Y-61369000D01*
X174690000Y-61369000D02*
X176760000Y-61369000D01*
X178840000Y-61409000D02*
X180921000Y-61409000D01*
X174679000Y-61409000D02*
X176760000Y-61409000D01*
X178840000Y-61449000D02*
X180931000Y-61449000D01*
X174669000Y-61449000D02*
X176760000Y-61449000D01*
X178840000Y-61489000D02*
X180941000Y-61489000D01*
X174659000Y-61489000D02*
X176760000Y-61489000D01*
X178840000Y-61529000D02*
X180950000Y-61529000D01*
X174650000Y-61529000D02*
X176760000Y-61529000D01*
X178840000Y-61570000D02*
X180959000Y-61570000D01*
X174641000Y-61570000D02*
X176760000Y-61570000D01*
X178840000Y-61610000D02*
X180967000Y-61610000D01*
X174633000Y-61610000D02*
X176760000Y-61610000D01*
X178840000Y-61650000D02*
X180975000Y-61650000D01*
X174625000Y-61650000D02*
X176760000Y-61650000D01*
X178840000Y-61690000D02*
X180982000Y-61690000D01*
X174618000Y-61690000D02*
X176760000Y-61690000D01*
X178840000Y-61730000D02*
X180989000Y-61730000D01*
X174611000Y-61730000D02*
X176760000Y-61730000D01*
X178840000Y-61770000D02*
X180995000Y-61770000D01*
X174605000Y-61770000D02*
X176760000Y-61770000D01*
X178840000Y-61810000D02*
X181001000Y-61810000D01*
X174599000Y-61810000D02*
X176760000Y-61810000D01*
X178840000Y-61850000D02*
X181006000Y-61850000D01*
X174594000Y-61850000D02*
X176760000Y-61850000D01*
X178840000Y-61890000D02*
X181011000Y-61890000D01*
X174589000Y-61890000D02*
X176760000Y-61890000D01*
X178840000Y-61930000D02*
X181015000Y-61930000D01*
X174585000Y-61930000D02*
X176760000Y-61930000D01*
X178840000Y-61970000D02*
X181018000Y-61970000D01*
X174582000Y-61970000D02*
X176760000Y-61970000D01*
X178840000Y-62010000D02*
X181022000Y-62010000D01*
X174578000Y-62010000D02*
X176760000Y-62010000D01*
X174576000Y-62050000D02*
X181024000Y-62050000D01*
X174573000Y-62090000D02*
X181027000Y-62090000D01*
X174572000Y-62130000D02*
X181028000Y-62130000D01*
X174570000Y-62170000D02*
X181030000Y-62170000D01*
X174570000Y-62210000D02*
X181030000Y-62210000D01*
X174570000Y-62250000D02*
X181030000Y-62250000D01*
X181070000Y-62250000D02*
G75*
G03X181070000Y-62250000I-3270000J0D01*
G01*
X275650000Y-133520000D02*
X194310000Y-133520000D01*
X194310000Y-136180000D02*
X275650000Y-136180000D01*
X275650000Y-136180000D02*
X275650000Y-133520000D01*
X274700000Y-136180000D02*
X274700000Y-142180000D01*
X274700000Y-142180000D02*
X273940000Y-142180000D01*
X273940000Y-142180000D02*
X273940000Y-136180000D01*
X274640000Y-136180000D02*
X274640000Y-142180000D01*
X274520000Y-136180000D02*
X274520000Y-142180000D01*
X274400000Y-136180000D02*
X274400000Y-142180000D01*
X274280000Y-136180000D02*
X274280000Y-142180000D01*
X274160000Y-136180000D02*
X274160000Y-142180000D01*
X274040000Y-136180000D02*
X274040000Y-142180000D01*
X274700000Y-133190000D02*
X274700000Y-133520000D01*
X273940000Y-133190000D02*
X273940000Y-133520000D01*
X273050000Y-133520000D02*
X273050000Y-136180000D01*
X272160000Y-136180000D02*
X272160000Y-142180000D01*
X272160000Y-142180000D02*
X271400000Y-142180000D01*
X271400000Y-142180000D02*
X271400000Y-136180000D01*
X272160000Y-133122929D02*
X272160000Y-133520000D01*
X271400000Y-133122929D02*
X271400000Y-133520000D01*
X270510000Y-133520000D02*
X270510000Y-136180000D01*
X269620000Y-136180000D02*
X269620000Y-142180000D01*
X269620000Y-142180000D02*
X268860000Y-142180000D01*
X268860000Y-142180000D02*
X268860000Y-136180000D01*
X269620000Y-133122929D02*
X269620000Y-133520000D01*
X268860000Y-133122929D02*
X268860000Y-133520000D01*
X267970000Y-133520000D02*
X267970000Y-136180000D01*
X267080000Y-136180000D02*
X267080000Y-142180000D01*
X267080000Y-142180000D02*
X266320000Y-142180000D01*
X266320000Y-142180000D02*
X266320000Y-136180000D01*
X267080000Y-133122929D02*
X267080000Y-133520000D01*
X266320000Y-133122929D02*
X266320000Y-133520000D01*
X265430000Y-133520000D02*
X265430000Y-136180000D01*
X264540000Y-136180000D02*
X264540000Y-142180000D01*
X264540000Y-142180000D02*
X263780000Y-142180000D01*
X263780000Y-142180000D02*
X263780000Y-136180000D01*
X264540000Y-133122929D02*
X264540000Y-133520000D01*
X263780000Y-133122929D02*
X263780000Y-133520000D01*
X262890000Y-133520000D02*
X262890000Y-136180000D01*
X262000000Y-136180000D02*
X262000000Y-142180000D01*
X262000000Y-142180000D02*
X261240000Y-142180000D01*
X261240000Y-142180000D02*
X261240000Y-136180000D01*
X262000000Y-133122929D02*
X262000000Y-133520000D01*
X261240000Y-133122929D02*
X261240000Y-133520000D01*
X260350000Y-133520000D02*
X260350000Y-136180000D01*
X259460000Y-136180000D02*
X259460000Y-142180000D01*
X259460000Y-142180000D02*
X258700000Y-142180000D01*
X258700000Y-142180000D02*
X258700000Y-136180000D01*
X259460000Y-133122929D02*
X259460000Y-133520000D01*
X258700000Y-133122929D02*
X258700000Y-133520000D01*
X257810000Y-133520000D02*
X257810000Y-136180000D01*
X256920000Y-136180000D02*
X256920000Y-142180000D01*
X256920000Y-142180000D02*
X256160000Y-142180000D01*
X256160000Y-142180000D02*
X256160000Y-136180000D01*
X256920000Y-133122929D02*
X256920000Y-133520000D01*
X256160000Y-133122929D02*
X256160000Y-133520000D01*
X255270000Y-133520000D02*
X255270000Y-136180000D01*
X254380000Y-136180000D02*
X254380000Y-142180000D01*
X254380000Y-142180000D02*
X253620000Y-142180000D01*
X253620000Y-142180000D02*
X253620000Y-136180000D01*
X254380000Y-133122929D02*
X254380000Y-133520000D01*
X253620000Y-133122929D02*
X253620000Y-133520000D01*
X252730000Y-133520000D02*
X252730000Y-136180000D01*
X251840000Y-136180000D02*
X251840000Y-142180000D01*
X251840000Y-142180000D02*
X251080000Y-142180000D01*
X251080000Y-142180000D02*
X251080000Y-136180000D01*
X251840000Y-133122929D02*
X251840000Y-133520000D01*
X251080000Y-133122929D02*
X251080000Y-133520000D01*
X250190000Y-133520000D02*
X250190000Y-136180000D01*
X249300000Y-136180000D02*
X249300000Y-142180000D01*
X249300000Y-142180000D02*
X248540000Y-142180000D01*
X248540000Y-142180000D02*
X248540000Y-136180000D01*
X249300000Y-133122929D02*
X249300000Y-133520000D01*
X248540000Y-133122929D02*
X248540000Y-133520000D01*
X247650000Y-133520000D02*
X247650000Y-136180000D01*
X246760000Y-136180000D02*
X246760000Y-142180000D01*
X246760000Y-142180000D02*
X246000000Y-142180000D01*
X246000000Y-142180000D02*
X246000000Y-136180000D01*
X246760000Y-133122929D02*
X246760000Y-133520000D01*
X246000000Y-133122929D02*
X246000000Y-133520000D01*
X245110000Y-133520000D02*
X245110000Y-136180000D01*
X244220000Y-136180000D02*
X244220000Y-142180000D01*
X244220000Y-142180000D02*
X243460000Y-142180000D01*
X243460000Y-142180000D02*
X243460000Y-136180000D01*
X244220000Y-133122929D02*
X244220000Y-133520000D01*
X243460000Y-133122929D02*
X243460000Y-133520000D01*
X242570000Y-133520000D02*
X242570000Y-136180000D01*
X241680000Y-136180000D02*
X241680000Y-142180000D01*
X241680000Y-142180000D02*
X240920000Y-142180000D01*
X240920000Y-142180000D02*
X240920000Y-136180000D01*
X241680000Y-133122929D02*
X241680000Y-133520000D01*
X240920000Y-133122929D02*
X240920000Y-133520000D01*
X240030000Y-133520000D02*
X240030000Y-136180000D01*
X239140000Y-136180000D02*
X239140000Y-142180000D01*
X239140000Y-142180000D02*
X238380000Y-142180000D01*
X238380000Y-142180000D02*
X238380000Y-136180000D01*
X239140000Y-133122929D02*
X239140000Y-133520000D01*
X238380000Y-133122929D02*
X238380000Y-133520000D01*
X237490000Y-133520000D02*
X237490000Y-136180000D01*
X236600000Y-136180000D02*
X236600000Y-142180000D01*
X236600000Y-142180000D02*
X235840000Y-142180000D01*
X235840000Y-142180000D02*
X235840000Y-136180000D01*
X236600000Y-133122929D02*
X236600000Y-133520000D01*
X235840000Y-133122929D02*
X235840000Y-133520000D01*
X234950000Y-133520000D02*
X234950000Y-136180000D01*
X234060000Y-136180000D02*
X234060000Y-142180000D01*
X234060000Y-142180000D02*
X233300000Y-142180000D01*
X233300000Y-142180000D02*
X233300000Y-136180000D01*
X234060000Y-133122929D02*
X234060000Y-133520000D01*
X233300000Y-133122929D02*
X233300000Y-133520000D01*
X232410000Y-133520000D02*
X232410000Y-136180000D01*
X231520000Y-136180000D02*
X231520000Y-142180000D01*
X231520000Y-142180000D02*
X230760000Y-142180000D01*
X230760000Y-142180000D02*
X230760000Y-136180000D01*
X231520000Y-133122929D02*
X231520000Y-133520000D01*
X230760000Y-133122929D02*
X230760000Y-133520000D01*
X229870000Y-133520000D02*
X229870000Y-136180000D01*
X228980000Y-136180000D02*
X228980000Y-142180000D01*
X228980000Y-142180000D02*
X228220000Y-142180000D01*
X228220000Y-142180000D02*
X228220000Y-136180000D01*
X228980000Y-133122929D02*
X228980000Y-133520000D01*
X228220000Y-133122929D02*
X228220000Y-133520000D01*
X227330000Y-133520000D02*
X227330000Y-136180000D01*
X226440000Y-136180000D02*
X226440000Y-142180000D01*
X226440000Y-142180000D02*
X225680000Y-142180000D01*
X225680000Y-142180000D02*
X225680000Y-136180000D01*
X226440000Y-133122929D02*
X226440000Y-133520000D01*
X225680000Y-133122929D02*
X225680000Y-133520000D01*
X224790000Y-133520000D02*
X224790000Y-136180000D01*
X223900000Y-136180000D02*
X223900000Y-142180000D01*
X223900000Y-142180000D02*
X223140000Y-142180000D01*
X223140000Y-142180000D02*
X223140000Y-136180000D01*
X223900000Y-133122929D02*
X223900000Y-133520000D01*
X223140000Y-133122929D02*
X223140000Y-133520000D01*
X222250000Y-133520000D02*
X222250000Y-136180000D01*
X221360000Y-136180000D02*
X221360000Y-142180000D01*
X221360000Y-142180000D02*
X220600000Y-142180000D01*
X220600000Y-142180000D02*
X220600000Y-136180000D01*
X221360000Y-133122929D02*
X221360000Y-133520000D01*
X220600000Y-133122929D02*
X220600000Y-133520000D01*
X219710000Y-133520000D02*
X219710000Y-136180000D01*
X218820000Y-136180000D02*
X218820000Y-142180000D01*
X218820000Y-142180000D02*
X218060000Y-142180000D01*
X218060000Y-142180000D02*
X218060000Y-136180000D01*
X218820000Y-133122929D02*
X218820000Y-133520000D01*
X218060000Y-133122929D02*
X218060000Y-133520000D01*
X217170000Y-133520000D02*
X217170000Y-136180000D01*
X216280000Y-136180000D02*
X216280000Y-142180000D01*
X216280000Y-142180000D02*
X215520000Y-142180000D01*
X215520000Y-142180000D02*
X215520000Y-136180000D01*
X216280000Y-133122929D02*
X216280000Y-133520000D01*
X215520000Y-133122929D02*
X215520000Y-133520000D01*
X214630000Y-133520000D02*
X214630000Y-136180000D01*
X213740000Y-136180000D02*
X213740000Y-142180000D01*
X213740000Y-142180000D02*
X212980000Y-142180000D01*
X212980000Y-142180000D02*
X212980000Y-136180000D01*
X213740000Y-133122929D02*
X213740000Y-133520000D01*
X212980000Y-133122929D02*
X212980000Y-133520000D01*
X212090000Y-133520000D02*
X212090000Y-136180000D01*
X211200000Y-136180000D02*
X211200000Y-142180000D01*
X211200000Y-142180000D02*
X210440000Y-142180000D01*
X210440000Y-142180000D02*
X210440000Y-136180000D01*
X211200000Y-133122929D02*
X211200000Y-133520000D01*
X210440000Y-133122929D02*
X210440000Y-133520000D01*
X209550000Y-133520000D02*
X209550000Y-136180000D01*
X208660000Y-136180000D02*
X208660000Y-142180000D01*
X208660000Y-142180000D02*
X207900000Y-142180000D01*
X207900000Y-142180000D02*
X207900000Y-136180000D01*
X208660000Y-133122929D02*
X208660000Y-133520000D01*
X207900000Y-133122929D02*
X207900000Y-133520000D01*
X207010000Y-133520000D02*
X207010000Y-136180000D01*
X206120000Y-136180000D02*
X206120000Y-142180000D01*
X206120000Y-142180000D02*
X205360000Y-142180000D01*
X205360000Y-142180000D02*
X205360000Y-136180000D01*
X206120000Y-133122929D02*
X206120000Y-133520000D01*
X205360000Y-133122929D02*
X205360000Y-133520000D01*
X204470000Y-133520000D02*
X204470000Y-136180000D01*
X203580000Y-136180000D02*
X203580000Y-142180000D01*
X203580000Y-142180000D02*
X202820000Y-142180000D01*
X202820000Y-142180000D02*
X202820000Y-136180000D01*
X203580000Y-133122929D02*
X203580000Y-133520000D01*
X202820000Y-133122929D02*
X202820000Y-133520000D01*
X201930000Y-133520000D02*
X201930000Y-136180000D01*
X201040000Y-136180000D02*
X201040000Y-142180000D01*
X201040000Y-142180000D02*
X200280000Y-142180000D01*
X200280000Y-142180000D02*
X200280000Y-136180000D01*
X201040000Y-133122929D02*
X201040000Y-133520000D01*
X200280000Y-133122929D02*
X200280000Y-133520000D01*
X199390000Y-133520000D02*
X199390000Y-136180000D01*
X198500000Y-136180000D02*
X198500000Y-142180000D01*
X198500000Y-142180000D02*
X197740000Y-142180000D01*
X197740000Y-142180000D02*
X197740000Y-136180000D01*
X198500000Y-133122929D02*
X198500000Y-133520000D01*
X197740000Y-133122929D02*
X197740000Y-133520000D01*
X196850000Y-133520000D02*
X196850000Y-136180000D01*
X195960000Y-136180000D02*
X195960000Y-142180000D01*
X195960000Y-142180000D02*
X195200000Y-142180000D01*
X195200000Y-142180000D02*
X195200000Y-136180000D01*
X195960000Y-133122929D02*
X195960000Y-133520000D01*
X195200000Y-133122929D02*
X195200000Y-133520000D01*
X194310000Y-133520000D02*
X194310000Y-136180000D01*
X274320000Y-130810000D02*
X275590000Y-130810000D01*
X275590000Y-130810000D02*
X275590000Y-132080000D01*
X120710000Y-133520000D02*
X95190000Y-133520000D01*
X95190000Y-133520000D02*
X95190000Y-136180000D01*
X95190000Y-136180000D02*
X120710000Y-136180000D01*
X120710000Y-136180000D02*
X120710000Y-133520000D01*
X119760000Y-136180000D02*
X119760000Y-142180000D01*
X119760000Y-142180000D02*
X119000000Y-142180000D01*
X119000000Y-142180000D02*
X119000000Y-136180000D01*
X119700000Y-136180000D02*
X119700000Y-142180000D01*
X119580000Y-136180000D02*
X119580000Y-142180000D01*
X119460000Y-136180000D02*
X119460000Y-142180000D01*
X119340000Y-136180000D02*
X119340000Y-142180000D01*
X119220000Y-136180000D02*
X119220000Y-142180000D01*
X119100000Y-136180000D02*
X119100000Y-142180000D01*
X119760000Y-133190000D02*
X119760000Y-133520000D01*
X119000000Y-133190000D02*
X119000000Y-133520000D01*
X118110000Y-133520000D02*
X118110000Y-136180000D01*
X117220000Y-136180000D02*
X117220000Y-142180000D01*
X117220000Y-142180000D02*
X116460000Y-142180000D01*
X116460000Y-142180000D02*
X116460000Y-136180000D01*
X117220000Y-133122929D02*
X117220000Y-133520000D01*
X116460000Y-133122929D02*
X116460000Y-133520000D01*
X115570000Y-133520000D02*
X115570000Y-136180000D01*
X114680000Y-136180000D02*
X114680000Y-142180000D01*
X114680000Y-142180000D02*
X113920000Y-142180000D01*
X113920000Y-142180000D02*
X113920000Y-136180000D01*
X114680000Y-133122929D02*
X114680000Y-133520000D01*
X113920000Y-133122929D02*
X113920000Y-133520000D01*
X113030000Y-133520000D02*
X113030000Y-136180000D01*
X112140000Y-136180000D02*
X112140000Y-142180000D01*
X112140000Y-142180000D02*
X111380000Y-142180000D01*
X111380000Y-142180000D02*
X111380000Y-136180000D01*
X112140000Y-133122929D02*
X112140000Y-133520000D01*
X111380000Y-133122929D02*
X111380000Y-133520000D01*
X110490000Y-133520000D02*
X110490000Y-136180000D01*
X109600000Y-136180000D02*
X109600000Y-142180000D01*
X109600000Y-142180000D02*
X108840000Y-142180000D01*
X108840000Y-142180000D02*
X108840000Y-136180000D01*
X109600000Y-133122929D02*
X109600000Y-133520000D01*
X108840000Y-133122929D02*
X108840000Y-133520000D01*
X107950000Y-133520000D02*
X107950000Y-136180000D01*
X107060000Y-136180000D02*
X107060000Y-142180000D01*
X107060000Y-142180000D02*
X106300000Y-142180000D01*
X106300000Y-142180000D02*
X106300000Y-136180000D01*
X107060000Y-133122929D02*
X107060000Y-133520000D01*
X106300000Y-133122929D02*
X106300000Y-133520000D01*
X105410000Y-133520000D02*
X105410000Y-136180000D01*
X104520000Y-136180000D02*
X104520000Y-142180000D01*
X104520000Y-142180000D02*
X103760000Y-142180000D01*
X103760000Y-142180000D02*
X103760000Y-136180000D01*
X104520000Y-133122929D02*
X104520000Y-133520000D01*
X103760000Y-133122929D02*
X103760000Y-133520000D01*
X102870000Y-133520000D02*
X102870000Y-136180000D01*
X101980000Y-136180000D02*
X101980000Y-142180000D01*
X101980000Y-142180000D02*
X101220000Y-142180000D01*
X101220000Y-142180000D02*
X101220000Y-136180000D01*
X101980000Y-133122929D02*
X101980000Y-133520000D01*
X101220000Y-133122929D02*
X101220000Y-133520000D01*
X100330000Y-133520000D02*
X100330000Y-136180000D01*
X99440000Y-136180000D02*
X99440000Y-142180000D01*
X99440000Y-142180000D02*
X98680000Y-142180000D01*
X98680000Y-142180000D02*
X98680000Y-136180000D01*
X99440000Y-133122929D02*
X99440000Y-133520000D01*
X98680000Y-133122929D02*
X98680000Y-133520000D01*
X97790000Y-133520000D02*
X97790000Y-136180000D01*
X96900000Y-136180000D02*
X96900000Y-142180000D01*
X96900000Y-142180000D02*
X96140000Y-142180000D01*
X96140000Y-142180000D02*
X96140000Y-136180000D01*
X96900000Y-133122929D02*
X96900000Y-133520000D01*
X96140000Y-133122929D02*
X96140000Y-133520000D01*
X119380000Y-130810000D02*
X120650000Y-130810000D01*
X120650000Y-130810000D02*
X120650000Y-132080000D01*
X171510000Y-133520000D02*
X130750000Y-133520000D01*
X130750000Y-133520000D02*
X130750000Y-136180000D01*
X130750000Y-136180000D02*
X171510000Y-136180000D01*
X171510000Y-136180000D02*
X171510000Y-133520000D01*
X170560000Y-136180000D02*
X170560000Y-142180000D01*
X170560000Y-142180000D02*
X169800000Y-142180000D01*
X169800000Y-142180000D02*
X169800000Y-136180000D01*
X170500000Y-136180000D02*
X170500000Y-142180000D01*
X170380000Y-136180000D02*
X170380000Y-142180000D01*
X170260000Y-136180000D02*
X170260000Y-142180000D01*
X170140000Y-136180000D02*
X170140000Y-142180000D01*
X170020000Y-136180000D02*
X170020000Y-142180000D01*
X169900000Y-136180000D02*
X169900000Y-142180000D01*
X170560000Y-133190000D02*
X170560000Y-133520000D01*
X169800000Y-133190000D02*
X169800000Y-133520000D01*
X168910000Y-133520000D02*
X168910000Y-136180000D01*
X168020000Y-136180000D02*
X168020000Y-142180000D01*
X168020000Y-142180000D02*
X167260000Y-142180000D01*
X167260000Y-142180000D02*
X167260000Y-136180000D01*
X168020000Y-133122929D02*
X168020000Y-133520000D01*
X167260000Y-133122929D02*
X167260000Y-133520000D01*
X166370000Y-133520000D02*
X166370000Y-136180000D01*
X165480000Y-136180000D02*
X165480000Y-142180000D01*
X165480000Y-142180000D02*
X164720000Y-142180000D01*
X164720000Y-142180000D02*
X164720000Y-136180000D01*
X165480000Y-133122929D02*
X165480000Y-133520000D01*
X164720000Y-133122929D02*
X164720000Y-133520000D01*
X163830000Y-133520000D02*
X163830000Y-136180000D01*
X162940000Y-136180000D02*
X162940000Y-142180000D01*
X162940000Y-142180000D02*
X162180000Y-142180000D01*
X162180000Y-142180000D02*
X162180000Y-136180000D01*
X162940000Y-133122929D02*
X162940000Y-133520000D01*
X162180000Y-133122929D02*
X162180000Y-133520000D01*
X161290000Y-133520000D02*
X161290000Y-136180000D01*
X160400000Y-136180000D02*
X160400000Y-142180000D01*
X160400000Y-142180000D02*
X159640000Y-142180000D01*
X159640000Y-142180000D02*
X159640000Y-136180000D01*
X160400000Y-133122929D02*
X160400000Y-133520000D01*
X159640000Y-133122929D02*
X159640000Y-133520000D01*
X158750000Y-133520000D02*
X158750000Y-136180000D01*
X157860000Y-136180000D02*
X157860000Y-142180000D01*
X157860000Y-142180000D02*
X157100000Y-142180000D01*
X157100000Y-142180000D02*
X157100000Y-136180000D01*
X157860000Y-133122929D02*
X157860000Y-133520000D01*
X157100000Y-133122929D02*
X157100000Y-133520000D01*
X156210000Y-133520000D02*
X156210000Y-136180000D01*
X155320000Y-136180000D02*
X155320000Y-142180000D01*
X155320000Y-142180000D02*
X154560000Y-142180000D01*
X154560000Y-142180000D02*
X154560000Y-136180000D01*
X155320000Y-133122929D02*
X155320000Y-133520000D01*
X154560000Y-133122929D02*
X154560000Y-133520000D01*
X153670000Y-133520000D02*
X153670000Y-136180000D01*
X152780000Y-136180000D02*
X152780000Y-142180000D01*
X152780000Y-142180000D02*
X152020000Y-142180000D01*
X152020000Y-142180000D02*
X152020000Y-136180000D01*
X152780000Y-133122929D02*
X152780000Y-133520000D01*
X152020000Y-133122929D02*
X152020000Y-133520000D01*
X151130000Y-133520000D02*
X151130000Y-136180000D01*
X150240000Y-136180000D02*
X150240000Y-142180000D01*
X150240000Y-142180000D02*
X149480000Y-142180000D01*
X149480000Y-142180000D02*
X149480000Y-136180000D01*
X150240000Y-133122929D02*
X150240000Y-133520000D01*
X149480000Y-133122929D02*
X149480000Y-133520000D01*
X148590000Y-133520000D02*
X148590000Y-136180000D01*
X147700000Y-136180000D02*
X147700000Y-142180000D01*
X147700000Y-142180000D02*
X146940000Y-142180000D01*
X146940000Y-142180000D02*
X146940000Y-136180000D01*
X147700000Y-133122929D02*
X147700000Y-133520000D01*
X146940000Y-133122929D02*
X146940000Y-133520000D01*
X146050000Y-133520000D02*
X146050000Y-136180000D01*
X145160000Y-136180000D02*
X145160000Y-142180000D01*
X145160000Y-142180000D02*
X144400000Y-142180000D01*
X144400000Y-142180000D02*
X144400000Y-136180000D01*
X145160000Y-133122929D02*
X145160000Y-133520000D01*
X144400000Y-133122929D02*
X144400000Y-133520000D01*
X143510000Y-133520000D02*
X143510000Y-136180000D01*
X142620000Y-136180000D02*
X142620000Y-142180000D01*
X142620000Y-142180000D02*
X141860000Y-142180000D01*
X141860000Y-142180000D02*
X141860000Y-136180000D01*
X142620000Y-133122929D02*
X142620000Y-133520000D01*
X141860000Y-133122929D02*
X141860000Y-133520000D01*
X140970000Y-133520000D02*
X140970000Y-136180000D01*
X140080000Y-136180000D02*
X140080000Y-142180000D01*
X140080000Y-142180000D02*
X139320000Y-142180000D01*
X139320000Y-142180000D02*
X139320000Y-136180000D01*
X140080000Y-133122929D02*
X140080000Y-133520000D01*
X139320000Y-133122929D02*
X139320000Y-133520000D01*
X138430000Y-133520000D02*
X138430000Y-136180000D01*
X137540000Y-136180000D02*
X137540000Y-142180000D01*
X137540000Y-142180000D02*
X136780000Y-142180000D01*
X136780000Y-142180000D02*
X136780000Y-136180000D01*
X137540000Y-133122929D02*
X137540000Y-133520000D01*
X136780000Y-133122929D02*
X136780000Y-133520000D01*
X135890000Y-133520000D02*
X135890000Y-136180000D01*
X135000000Y-136180000D02*
X135000000Y-142180000D01*
X135000000Y-142180000D02*
X134240000Y-142180000D01*
X134240000Y-142180000D02*
X134240000Y-136180000D01*
X135000000Y-133122929D02*
X135000000Y-133520000D01*
X134240000Y-133122929D02*
X134240000Y-133520000D01*
X133350000Y-133520000D02*
X133350000Y-136180000D01*
X132460000Y-136180000D02*
X132460000Y-142180000D01*
X132460000Y-142180000D02*
X131700000Y-142180000D01*
X131700000Y-142180000D02*
X131700000Y-136180000D01*
X132460000Y-133122929D02*
X132460000Y-133520000D01*
X131700000Y-133122929D02*
X131700000Y-133520000D01*
X170180000Y-130810000D02*
X171450000Y-130810000D01*
X171450000Y-130810000D02*
X171450000Y-132080000D01*
X122814000Y-125887241D02*
X123444000Y-125887241D01*
X123129000Y-126202241D02*
X123129000Y-125572241D01*
X124566000Y-119461000D02*
X125370000Y-119461000D01*
X124335000Y-119501000D02*
X125601000Y-119501000D01*
X124166000Y-119541000D02*
X125770000Y-119541000D01*
X124028000Y-119581000D02*
X125908000Y-119581000D01*
X123909000Y-119621000D02*
X126027000Y-119621000D01*
X123803000Y-119661000D02*
X126133000Y-119661000D01*
X123706000Y-119701000D02*
X126230000Y-119701000D01*
X123618000Y-119741000D02*
X126318000Y-119741000D01*
X123536000Y-119781000D02*
X126400000Y-119781000D01*
X123459000Y-119821000D02*
X126477000Y-119821000D01*
X123387000Y-119861000D02*
X126549000Y-119861000D01*
X123318000Y-119901000D02*
X126618000Y-119901000D01*
X123254000Y-119941000D02*
X126682000Y-119941000D01*
X123192000Y-119981000D02*
X126744000Y-119981000D01*
X123134000Y-120021000D02*
X126802000Y-120021000D01*
X123078000Y-120061000D02*
X126858000Y-120061000D01*
X123024000Y-120101000D02*
X126912000Y-120101000D01*
X122973000Y-120141000D02*
X126963000Y-120141000D01*
X122924000Y-120181000D02*
X127012000Y-120181000D01*
X122876000Y-120221000D02*
X127060000Y-120221000D01*
X122831000Y-120261000D02*
X127105000Y-120261000D01*
X122786000Y-120301000D02*
X127150000Y-120301000D01*
X122744000Y-120341000D02*
X127192000Y-120341000D01*
X122703000Y-120381000D02*
X127233000Y-120381000D01*
X126008000Y-120421000D02*
X127273000Y-120421000D01*
X122663000Y-120421000D02*
X123928000Y-120421000D01*
X126008000Y-120461000D02*
X127311000Y-120461000D01*
X122625000Y-120461000D02*
X123928000Y-120461000D01*
X126008000Y-120501000D02*
X127348000Y-120501000D01*
X122588000Y-120501000D02*
X123928000Y-120501000D01*
X126008000Y-120541000D02*
X127384000Y-120541000D01*
X122552000Y-120541000D02*
X123928000Y-120541000D01*
X126008000Y-120581000D02*
X127418000Y-120581000D01*
X122518000Y-120581000D02*
X123928000Y-120581000D01*
X126008000Y-120621000D02*
X127452000Y-120621000D01*
X122484000Y-120621000D02*
X123928000Y-120621000D01*
X126008000Y-120661000D02*
X127484000Y-120661000D01*
X122452000Y-120661000D02*
X123928000Y-120661000D01*
X126008000Y-120701000D02*
X127516000Y-120701000D01*
X122420000Y-120701000D02*
X123928000Y-120701000D01*
X126008000Y-120741000D02*
X127546000Y-120741000D01*
X122390000Y-120741000D02*
X123928000Y-120741000D01*
X126008000Y-120781000D02*
X127575000Y-120781000D01*
X122361000Y-120781000D02*
X123928000Y-120781000D01*
X126008000Y-120821000D02*
X127604000Y-120821000D01*
X122332000Y-120821000D02*
X123928000Y-120821000D01*
X126008000Y-120861000D02*
X127632000Y-120861000D01*
X122304000Y-120861000D02*
X123928000Y-120861000D01*
X126008000Y-120901000D02*
X127658000Y-120901000D01*
X122278000Y-120901000D02*
X123928000Y-120901000D01*
X126008000Y-120941000D02*
X127684000Y-120941000D01*
X122252000Y-120941000D02*
X123928000Y-120941000D01*
X126008000Y-120981000D02*
X127710000Y-120981000D01*
X122226000Y-120981000D02*
X123928000Y-120981000D01*
X126008000Y-121021000D02*
X127734000Y-121021000D01*
X122202000Y-121021000D02*
X123928000Y-121021000D01*
X126008000Y-121061000D02*
X127758000Y-121061000D01*
X122178000Y-121061000D02*
X123928000Y-121061000D01*
X126008000Y-121101000D02*
X127780000Y-121101000D01*
X122156000Y-121101000D02*
X123928000Y-121101000D01*
X126008000Y-121141000D02*
X127802000Y-121141000D01*
X122134000Y-121141000D02*
X123928000Y-121141000D01*
X126008000Y-121181000D02*
X127824000Y-121181000D01*
X122112000Y-121181000D02*
X123928000Y-121181000D01*
X126008000Y-121221000D02*
X127844000Y-121221000D01*
X122092000Y-121221000D02*
X123928000Y-121221000D01*
X126008000Y-121261000D02*
X127864000Y-121261000D01*
X122072000Y-121261000D02*
X123928000Y-121261000D01*
X126008000Y-121301000D02*
X127884000Y-121301000D01*
X122052000Y-121301000D02*
X123928000Y-121301000D01*
X126008000Y-121341000D02*
X127902000Y-121341000D01*
X122034000Y-121341000D02*
X123928000Y-121341000D01*
X126008000Y-121381000D02*
X127920000Y-121381000D01*
X122016000Y-121381000D02*
X123928000Y-121381000D01*
X126008000Y-121421000D02*
X127938000Y-121421000D01*
X121998000Y-121421000D02*
X123928000Y-121421000D01*
X126008000Y-121461000D02*
X127954000Y-121461000D01*
X121982000Y-121461000D02*
X123928000Y-121461000D01*
X126008000Y-121501000D02*
X127970000Y-121501000D01*
X121966000Y-121501000D02*
X123928000Y-121501000D01*
X126008000Y-121541000D02*
X127986000Y-121541000D01*
X121950000Y-121541000D02*
X123928000Y-121541000D01*
X126008000Y-121581000D02*
X128001000Y-121581000D01*
X121935000Y-121581000D02*
X123928000Y-121581000D01*
X126008000Y-121621000D02*
X128015000Y-121621000D01*
X121921000Y-121621000D02*
X123928000Y-121621000D01*
X126008000Y-121661000D02*
X128029000Y-121661000D01*
X121907000Y-121661000D02*
X123928000Y-121661000D01*
X126008000Y-121701000D02*
X128042000Y-121701000D01*
X121894000Y-121701000D02*
X123928000Y-121701000D01*
X126008000Y-121741000D02*
X128054000Y-121741000D01*
X121882000Y-121741000D02*
X123928000Y-121741000D01*
X126008000Y-121781000D02*
X128066000Y-121781000D01*
X121870000Y-121781000D02*
X123928000Y-121781000D01*
X126008000Y-121821000D02*
X128078000Y-121821000D01*
X121858000Y-121821000D02*
X123928000Y-121821000D01*
X126008000Y-121861000D02*
X128089000Y-121861000D01*
X121847000Y-121861000D02*
X123928000Y-121861000D01*
X126008000Y-121901000D02*
X128099000Y-121901000D01*
X121837000Y-121901000D02*
X123928000Y-121901000D01*
X126008000Y-121941000D02*
X128109000Y-121941000D01*
X121827000Y-121941000D02*
X123928000Y-121941000D01*
X126008000Y-121981000D02*
X128118000Y-121981000D01*
X121818000Y-121981000D02*
X123928000Y-121981000D01*
X126008000Y-122022000D02*
X128127000Y-122022000D01*
X121809000Y-122022000D02*
X123928000Y-122022000D01*
X126008000Y-122062000D02*
X128135000Y-122062000D01*
X121801000Y-122062000D02*
X123928000Y-122062000D01*
X126008000Y-122102000D02*
X128143000Y-122102000D01*
X121793000Y-122102000D02*
X123928000Y-122102000D01*
X126008000Y-122142000D02*
X128150000Y-122142000D01*
X121786000Y-122142000D02*
X123928000Y-122142000D01*
X126008000Y-122182000D02*
X128157000Y-122182000D01*
X121779000Y-122182000D02*
X123928000Y-122182000D01*
X126008000Y-122222000D02*
X128163000Y-122222000D01*
X121773000Y-122222000D02*
X123928000Y-122222000D01*
X126008000Y-122262000D02*
X128169000Y-122262000D01*
X121767000Y-122262000D02*
X123928000Y-122262000D01*
X126008000Y-122302000D02*
X128174000Y-122302000D01*
X121762000Y-122302000D02*
X123928000Y-122302000D01*
X126008000Y-122342000D02*
X128179000Y-122342000D01*
X121757000Y-122342000D02*
X123928000Y-122342000D01*
X126008000Y-122382000D02*
X128183000Y-122382000D01*
X121753000Y-122382000D02*
X123928000Y-122382000D01*
X126008000Y-122422000D02*
X128186000Y-122422000D01*
X121750000Y-122422000D02*
X123928000Y-122422000D01*
X126008000Y-122462000D02*
X128190000Y-122462000D01*
X121746000Y-122462000D02*
X123928000Y-122462000D01*
X121744000Y-122502000D02*
X128192000Y-122502000D01*
X121741000Y-122542000D02*
X128195000Y-122542000D01*
X121740000Y-122582000D02*
X128196000Y-122582000D01*
X121738000Y-122622000D02*
X128198000Y-122622000D01*
X121738000Y-122662000D02*
X128198000Y-122662000D01*
X121738000Y-122702000D02*
X128198000Y-122702000D01*
X128238000Y-122702000D02*
G75*
G03X128238000Y-122702000I-3270000J0D01*
G01*
X176530000Y-49720000D02*
X176530000Y-49720000D01*
X176530000Y-47050000D02*
X176530000Y-49720000D01*
X176530000Y-47050000D02*
X176530000Y-47050000D01*
X176530000Y-49720000D02*
X176530000Y-47050000D01*
X179070000Y-49720000D02*
X179070000Y-49720000D01*
X179070000Y-47050000D02*
X179070000Y-49720000D01*
X179070000Y-47050000D02*
X179070000Y-47050000D01*
X179070000Y-49720000D02*
X179070000Y-47050000D01*
X175240000Y-47050000D02*
X174840000Y-47050000D01*
X175240000Y-45930000D02*
X175240000Y-47050000D01*
X174840000Y-45930000D02*
X175240000Y-45930000D01*
X174840000Y-47050000D02*
X174840000Y-45930000D01*
X180360000Y-47050000D02*
X175240000Y-47050000D01*
X175240000Y-47050000D02*
X175240000Y-41402000D01*
X180360000Y-47050000D02*
X180360000Y-41402000D01*
X175240000Y-41402000D02*
G75*
G02X180360000Y-41402000I2560000J0D01*
G01*
X182880000Y-49720000D02*
X182880000Y-49720000D01*
X182880000Y-47050000D02*
X182880000Y-49720000D01*
X182880000Y-47050000D02*
X182880000Y-47050000D01*
X182880000Y-49720000D02*
X182880000Y-47050000D01*
X185420000Y-49720000D02*
X185420000Y-49720000D01*
X185420000Y-47050000D02*
X185420000Y-49720000D01*
X185420000Y-47050000D02*
X185420000Y-47050000D01*
X185420000Y-49720000D02*
X185420000Y-47050000D01*
X181590000Y-47050000D02*
X181190000Y-47050000D01*
X181590000Y-45930000D02*
X181590000Y-47050000D01*
X181190000Y-45930000D02*
X181590000Y-45930000D01*
X181190000Y-47050000D02*
X181190000Y-45930000D01*
X186710000Y-47050000D02*
X181590000Y-47050000D01*
X181590000Y-47050000D02*
X181590000Y-41402000D01*
X186710000Y-47050000D02*
X186710000Y-41402000D01*
X181590000Y-41402000D02*
G75*
G02X186710000Y-41402000I2560000J0D01*
G01*
X189230000Y-49720000D02*
X189230000Y-49720000D01*
X189230000Y-47050000D02*
X189230000Y-49720000D01*
X189230000Y-47050000D02*
X189230000Y-47050000D01*
X189230000Y-49720000D02*
X189230000Y-47050000D01*
X191770000Y-49720000D02*
X191770000Y-49720000D01*
X191770000Y-47050000D02*
X191770000Y-49720000D01*
X191770000Y-47050000D02*
X191770000Y-47050000D01*
X191770000Y-49720000D02*
X191770000Y-47050000D01*
X187940000Y-47050000D02*
X187540000Y-47050000D01*
X187940000Y-45930000D02*
X187940000Y-47050000D01*
X187540000Y-45930000D02*
X187940000Y-45930000D01*
X187540000Y-47050000D02*
X187540000Y-45930000D01*
X193060000Y-47050000D02*
X187940000Y-47050000D01*
X187940000Y-47050000D02*
X187940000Y-41402000D01*
X193060000Y-47050000D02*
X193060000Y-41402000D01*
X187940000Y-41402000D02*
G75*
G02X193060000Y-41402000I2560000J0D01*
G01*
X195580000Y-49720000D02*
X195580000Y-49720000D01*
X195580000Y-47050000D02*
X195580000Y-49720000D01*
X195580000Y-47050000D02*
X195580000Y-47050000D01*
X195580000Y-49720000D02*
X195580000Y-47050000D01*
X198120000Y-49720000D02*
X198120000Y-49720000D01*
X198120000Y-47050000D02*
X198120000Y-49720000D01*
X198120000Y-47050000D02*
X198120000Y-47050000D01*
X198120000Y-49720000D02*
X198120000Y-47050000D01*
X194290000Y-47050000D02*
X193890000Y-47050000D01*
X194290000Y-45930000D02*
X194290000Y-47050000D01*
X193890000Y-45930000D02*
X194290000Y-45930000D01*
X193890000Y-47050000D02*
X193890000Y-45930000D01*
X199410000Y-47050000D02*
X194290000Y-47050000D01*
X194290000Y-47050000D02*
X194290000Y-41402000D01*
X199410000Y-47050000D02*
X199410000Y-41402000D01*
X194290000Y-41402000D02*
G75*
G02X199410000Y-41402000I2560000J0D01*
G01*
X201930000Y-49720000D02*
X201930000Y-49720000D01*
X201930000Y-47050000D02*
X201930000Y-49720000D01*
X201930000Y-47050000D02*
X201930000Y-47050000D01*
X201930000Y-49720000D02*
X201930000Y-47050000D01*
X204470000Y-49720000D02*
X204470000Y-49720000D01*
X204470000Y-47050000D02*
X204470000Y-49720000D01*
X204470000Y-47050000D02*
X204470000Y-47050000D01*
X204470000Y-49720000D02*
X204470000Y-47050000D01*
X200640000Y-47050000D02*
X200240000Y-47050000D01*
X200640000Y-45930000D02*
X200640000Y-47050000D01*
X200240000Y-45930000D02*
X200640000Y-45930000D01*
X200240000Y-47050000D02*
X200240000Y-45930000D01*
X205760000Y-47050000D02*
X200640000Y-47050000D01*
X200640000Y-47050000D02*
X200640000Y-41402000D01*
X205760000Y-47050000D02*
X205760000Y-41402000D01*
X200640000Y-41402000D02*
G75*
G02X205760000Y-41402000I2560000J0D01*
G01*
X208280000Y-49720000D02*
X208280000Y-49720000D01*
X208280000Y-47050000D02*
X208280000Y-49720000D01*
X208280000Y-47050000D02*
X208280000Y-47050000D01*
X208280000Y-49720000D02*
X208280000Y-47050000D01*
X210820000Y-49720000D02*
X210820000Y-49720000D01*
X210820000Y-47050000D02*
X210820000Y-49720000D01*
X210820000Y-47050000D02*
X210820000Y-47050000D01*
X210820000Y-49720000D02*
X210820000Y-47050000D01*
X206990000Y-47050000D02*
X206590000Y-47050000D01*
X206990000Y-45930000D02*
X206990000Y-47050000D01*
X206590000Y-45930000D02*
X206990000Y-45930000D01*
X206590000Y-47050000D02*
X206590000Y-45930000D01*
X212110000Y-47050000D02*
X206990000Y-47050000D01*
X206990000Y-47050000D02*
X206990000Y-41402000D01*
X212110000Y-47050000D02*
X212110000Y-41402000D01*
X206990000Y-41402000D02*
G75*
G02X212110000Y-41402000I2560000J0D01*
G01*
X214630000Y-49720000D02*
X214630000Y-49720000D01*
X214630000Y-47050000D02*
X214630000Y-49720000D01*
X214630000Y-47050000D02*
X214630000Y-47050000D01*
X214630000Y-49720000D02*
X214630000Y-47050000D01*
X217170000Y-49720000D02*
X217170000Y-49720000D01*
X217170000Y-47050000D02*
X217170000Y-49720000D01*
X217170000Y-47050000D02*
X217170000Y-47050000D01*
X217170000Y-49720000D02*
X217170000Y-47050000D01*
X213340000Y-47050000D02*
X212940000Y-47050000D01*
X213340000Y-45930000D02*
X213340000Y-47050000D01*
X212940000Y-45930000D02*
X213340000Y-45930000D01*
X212940000Y-47050000D02*
X212940000Y-45930000D01*
X218460000Y-47050000D02*
X213340000Y-47050000D01*
X213340000Y-47050000D02*
X213340000Y-41402000D01*
X218460000Y-47050000D02*
X218460000Y-41402000D01*
X213340000Y-41402000D02*
G75*
G02X218460000Y-41402000I2560000J0D01*
G01*
X220980000Y-49720000D02*
X220980000Y-49720000D01*
X220980000Y-47050000D02*
X220980000Y-49720000D01*
X220980000Y-47050000D02*
X220980000Y-47050000D01*
X220980000Y-49720000D02*
X220980000Y-47050000D01*
X223520000Y-49720000D02*
X223520000Y-49720000D01*
X223520000Y-47050000D02*
X223520000Y-49720000D01*
X223520000Y-47050000D02*
X223520000Y-47050000D01*
X223520000Y-49720000D02*
X223520000Y-47050000D01*
X219690000Y-47050000D02*
X219290000Y-47050000D01*
X219690000Y-45930000D02*
X219690000Y-47050000D01*
X219290000Y-45930000D02*
X219690000Y-45930000D01*
X219290000Y-47050000D02*
X219290000Y-45930000D01*
X224810000Y-47050000D02*
X219690000Y-47050000D01*
X219690000Y-47050000D02*
X219690000Y-41402000D01*
X224810000Y-47050000D02*
X224810000Y-41402000D01*
X219690000Y-41402000D02*
G75*
G02X224810000Y-41402000I2560000J0D01*
G01*
X227330000Y-49720000D02*
X227330000Y-49720000D01*
X227330000Y-47050000D02*
X227330000Y-49720000D01*
X227330000Y-47050000D02*
X227330000Y-47050000D01*
X227330000Y-49720000D02*
X227330000Y-47050000D01*
X229870000Y-49720000D02*
X229870000Y-49720000D01*
X229870000Y-47050000D02*
X229870000Y-49720000D01*
X229870000Y-47050000D02*
X229870000Y-47050000D01*
X229870000Y-49720000D02*
X229870000Y-47050000D01*
X226040000Y-47050000D02*
X225640000Y-47050000D01*
X226040000Y-45930000D02*
X226040000Y-47050000D01*
X225640000Y-45930000D02*
X226040000Y-45930000D01*
X225640000Y-47050000D02*
X225640000Y-45930000D01*
X231160000Y-47050000D02*
X226040000Y-47050000D01*
X226040000Y-47050000D02*
X226040000Y-41402000D01*
X231160000Y-47050000D02*
X231160000Y-41402000D01*
X226040000Y-41402000D02*
G75*
G02X231160000Y-41402000I2560000J0D01*
G01*
X233680000Y-49720000D02*
X233680000Y-49720000D01*
X233680000Y-47050000D02*
X233680000Y-49720000D01*
X233680000Y-47050000D02*
X233680000Y-47050000D01*
X233680000Y-49720000D02*
X233680000Y-47050000D01*
X236220000Y-49720000D02*
X236220000Y-49720000D01*
X236220000Y-47050000D02*
X236220000Y-49720000D01*
X236220000Y-47050000D02*
X236220000Y-47050000D01*
X236220000Y-49720000D02*
X236220000Y-47050000D01*
X232390000Y-47050000D02*
X231990000Y-47050000D01*
X232390000Y-45930000D02*
X232390000Y-47050000D01*
X231990000Y-45930000D02*
X232390000Y-45930000D01*
X231990000Y-47050000D02*
X231990000Y-45930000D01*
X237510000Y-47050000D02*
X232390000Y-47050000D01*
X232390000Y-47050000D02*
X232390000Y-41402000D01*
X237510000Y-47050000D02*
X237510000Y-41402000D01*
X232390000Y-41402000D02*
G75*
G02X237510000Y-41402000I2560000J0D01*
G01*
X240030000Y-49720000D02*
X240030000Y-49720000D01*
X240030000Y-47050000D02*
X240030000Y-49720000D01*
X240030000Y-47050000D02*
X240030000Y-47050000D01*
X240030000Y-49720000D02*
X240030000Y-47050000D01*
X242570000Y-49720000D02*
X242570000Y-49720000D01*
X242570000Y-47050000D02*
X242570000Y-49720000D01*
X242570000Y-47050000D02*
X242570000Y-47050000D01*
X242570000Y-49720000D02*
X242570000Y-47050000D01*
X238740000Y-47050000D02*
X238340000Y-47050000D01*
X238740000Y-45930000D02*
X238740000Y-47050000D01*
X238340000Y-45930000D02*
X238740000Y-45930000D01*
X238340000Y-47050000D02*
X238340000Y-45930000D01*
X243860000Y-47050000D02*
X238740000Y-47050000D01*
X238740000Y-47050000D02*
X238740000Y-41402000D01*
X243860000Y-47050000D02*
X243860000Y-41402000D01*
X238740000Y-41402000D02*
G75*
G02X243860000Y-41402000I2560000J0D01*
G01*
X246380000Y-49720000D02*
X246380000Y-49720000D01*
X246380000Y-47050000D02*
X246380000Y-49720000D01*
X246380000Y-47050000D02*
X246380000Y-47050000D01*
X246380000Y-49720000D02*
X246380000Y-47050000D01*
X248920000Y-49720000D02*
X248920000Y-49720000D01*
X248920000Y-47050000D02*
X248920000Y-49720000D01*
X248920000Y-47050000D02*
X248920000Y-47050000D01*
X248920000Y-49720000D02*
X248920000Y-47050000D01*
X245090000Y-47050000D02*
X244690000Y-47050000D01*
X245090000Y-45930000D02*
X245090000Y-47050000D01*
X244690000Y-45930000D02*
X245090000Y-45930000D01*
X244690000Y-47050000D02*
X244690000Y-45930000D01*
X250210000Y-47050000D02*
X245090000Y-47050000D01*
X245090000Y-47050000D02*
X245090000Y-41402000D01*
X250210000Y-47050000D02*
X250210000Y-41402000D01*
X245090000Y-41402000D02*
G75*
G02X250210000Y-41402000I2560000J0D01*
G01*
X252730000Y-49720000D02*
X252730000Y-49720000D01*
X252730000Y-47050000D02*
X252730000Y-49720000D01*
X252730000Y-47050000D02*
X252730000Y-47050000D01*
X252730000Y-49720000D02*
X252730000Y-47050000D01*
X255270000Y-49720000D02*
X255270000Y-49720000D01*
X255270000Y-47050000D02*
X255270000Y-49720000D01*
X255270000Y-47050000D02*
X255270000Y-47050000D01*
X255270000Y-49720000D02*
X255270000Y-47050000D01*
X251440000Y-47050000D02*
X251040000Y-47050000D01*
X251440000Y-45930000D02*
X251440000Y-47050000D01*
X251040000Y-45930000D02*
X251440000Y-45930000D01*
X251040000Y-47050000D02*
X251040000Y-45930000D01*
X256560000Y-47050000D02*
X251440000Y-47050000D01*
X251440000Y-47050000D02*
X251440000Y-41402000D01*
X256560000Y-47050000D02*
X256560000Y-41402000D01*
X251440000Y-41402000D02*
G75*
G02X256560000Y-41402000I2560000J0D01*
G01*
X259080000Y-49720000D02*
X259080000Y-49720000D01*
X259080000Y-47050000D02*
X259080000Y-49720000D01*
X259080000Y-47050000D02*
X259080000Y-47050000D01*
X259080000Y-49720000D02*
X259080000Y-47050000D01*
X261620000Y-49720000D02*
X261620000Y-49720000D01*
X261620000Y-47050000D02*
X261620000Y-49720000D01*
X261620000Y-47050000D02*
X261620000Y-47050000D01*
X261620000Y-49720000D02*
X261620000Y-47050000D01*
X257790000Y-47050000D02*
X257390000Y-47050000D01*
X257790000Y-45930000D02*
X257790000Y-47050000D01*
X257390000Y-45930000D02*
X257790000Y-45930000D01*
X257390000Y-47050000D02*
X257390000Y-45930000D01*
X262910000Y-47050000D02*
X257790000Y-47050000D01*
X257790000Y-47050000D02*
X257790000Y-41402000D01*
X262910000Y-47050000D02*
X262910000Y-41402000D01*
X257790000Y-41402000D02*
G75*
G02X262910000Y-41402000I2560000J0D01*
G01*
X265430000Y-49720000D02*
X265430000Y-49720000D01*
X265430000Y-47050000D02*
X265430000Y-49720000D01*
X265430000Y-47050000D02*
X265430000Y-47050000D01*
X265430000Y-49720000D02*
X265430000Y-47050000D01*
X267970000Y-49720000D02*
X267970000Y-49720000D01*
X267970000Y-47050000D02*
X267970000Y-49720000D01*
X267970000Y-47050000D02*
X267970000Y-47050000D01*
X267970000Y-49720000D02*
X267970000Y-47050000D01*
X264140000Y-47050000D02*
X263740000Y-47050000D01*
X264140000Y-45930000D02*
X264140000Y-47050000D01*
X263740000Y-45930000D02*
X264140000Y-45930000D01*
X263740000Y-47050000D02*
X263740000Y-45930000D01*
X269260000Y-47050000D02*
X264140000Y-47050000D01*
X264140000Y-47050000D02*
X264140000Y-41402000D01*
X269260000Y-47050000D02*
X269260000Y-41402000D01*
X264140000Y-41402000D02*
G75*
G02X269260000Y-41402000I2560000J0D01*
G01*
X271780000Y-49720000D02*
X271780000Y-49720000D01*
X271780000Y-47050000D02*
X271780000Y-49720000D01*
X271780000Y-47050000D02*
X271780000Y-47050000D01*
X271780000Y-49720000D02*
X271780000Y-47050000D01*
X274320000Y-49720000D02*
X274320000Y-49720000D01*
X274320000Y-47050000D02*
X274320000Y-49720000D01*
X274320000Y-47050000D02*
X274320000Y-47050000D01*
X274320000Y-49720000D02*
X274320000Y-47050000D01*
X270490000Y-47050000D02*
X270090000Y-47050000D01*
X270490000Y-45930000D02*
X270490000Y-47050000D01*
X270090000Y-45930000D02*
X270490000Y-45930000D01*
X270090000Y-47050000D02*
X270090000Y-45930000D01*
X275610000Y-47050000D02*
X270490000Y-47050000D01*
X270490000Y-47050000D02*
X270490000Y-41402000D01*
X275610000Y-47050000D02*
X275610000Y-41402000D01*
X270490000Y-41402000D02*
G75*
G02X275610000Y-41402000I2560000J0D01*
G01*
X232290000Y-69790000D02*
X232290000Y-80070000D01*
X257930000Y-69790000D02*
X232290000Y-69790000D01*
X257930000Y-80070000D02*
X257930000Y-69790000D01*
X232290000Y-80070000D02*
X257930000Y-80070000D01*
X232350000Y-72280000D02*
X232350000Y-73930000D01*
X257870000Y-72280000D02*
X232350000Y-72280000D01*
X257870000Y-77580000D02*
X257870000Y-72280000D01*
X232350000Y-77580000D02*
X257870000Y-77580000D01*
X232350000Y-75930000D02*
X232350000Y-77580000D01*
X232350000Y-73930000D02*
G75*
G02X232350000Y-75930000I0J-1000000D01*
G01*
X194190000Y-69790000D02*
X194190000Y-80070000D01*
X219830000Y-69790000D02*
X194190000Y-69790000D01*
X219830000Y-80070000D02*
X219830000Y-69790000D01*
X194190000Y-80070000D02*
X219830000Y-80070000D01*
X194250000Y-72280000D02*
X194250000Y-73930000D01*
X219770000Y-72280000D02*
X194250000Y-72280000D01*
X219770000Y-77580000D02*
X219770000Y-72280000D01*
X194250000Y-77580000D02*
X219770000Y-77580000D01*
X194250000Y-75930000D02*
X194250000Y-77580000D01*
X194250000Y-73930000D02*
G75*
G02X194250000Y-75930000I0J-1000000D01*
G01*
X229750000Y-97730000D02*
X229750000Y-108010000D01*
X255390000Y-97730000D02*
X229750000Y-97730000D01*
X255390000Y-108010000D02*
X255390000Y-97730000D01*
X229750000Y-108010000D02*
X255390000Y-108010000D01*
X229810000Y-100220000D02*
X229810000Y-101870000D01*
X255330000Y-100220000D02*
X229810000Y-100220000D01*
X255330000Y-105520000D02*
X255330000Y-100220000D01*
X229810000Y-105520000D02*
X255330000Y-105520000D01*
X229810000Y-103870000D02*
X229810000Y-105520000D01*
X229810000Y-101870000D02*
G75*
G02X229810000Y-103870000I0J-1000000D01*
G01*
X191650000Y-97730000D02*
X191650000Y-108010000D01*
X217290000Y-97730000D02*
X191650000Y-97730000D01*
X217290000Y-108010000D02*
X217290000Y-97730000D01*
X191650000Y-108010000D02*
X217290000Y-108010000D01*
X191710000Y-100220000D02*
X191710000Y-101870000D01*
X217230000Y-100220000D02*
X191710000Y-100220000D01*
X217230000Y-105520000D02*
X217230000Y-100220000D01*
X191710000Y-105520000D02*
X217230000Y-105520000D01*
X191710000Y-103870000D02*
X191710000Y-105520000D01*
X191710000Y-101870000D02*
G75*
G02X191710000Y-103870000I0J-1000000D01*
G01*
X153550000Y-97730000D02*
X153550000Y-108010000D01*
X179190000Y-97730000D02*
X153550000Y-97730000D01*
X179190000Y-108010000D02*
X179190000Y-97730000D01*
X153550000Y-108010000D02*
X179190000Y-108010000D01*
X153610000Y-100220000D02*
X153610000Y-101870000D01*
X179130000Y-100220000D02*
X153610000Y-100220000D01*
X179130000Y-105520000D02*
X179130000Y-100220000D01*
X153610000Y-105520000D02*
X179130000Y-105520000D01*
X153610000Y-103870000D02*
X153610000Y-105520000D01*
X153610000Y-101870000D02*
G75*
G02X153610000Y-103870000I0J-1000000D01*
G01*
X115450000Y-97730000D02*
X115450000Y-108010000D01*
X141090000Y-97730000D02*
X115450000Y-97730000D01*
X141090000Y-108010000D02*
X141090000Y-97730000D01*
X115450000Y-108010000D02*
X141090000Y-108010000D01*
X115510000Y-100220000D02*
X115510000Y-101870000D01*
X141030000Y-100220000D02*
X115510000Y-100220000D01*
X141030000Y-105520000D02*
X141030000Y-100220000D01*
X115510000Y-105520000D02*
X141030000Y-105520000D01*
X115510000Y-103870000D02*
X115510000Y-105520000D01*
X115510000Y-101870000D02*
G75*
G02X115510000Y-103870000I0J-1000000D01*
G01*
X161170000Y-69790000D02*
X161170000Y-80070000D01*
X179190000Y-69790000D02*
X161170000Y-69790000D01*
X179190000Y-80070000D02*
X179190000Y-69790000D01*
X161170000Y-80070000D02*
X179190000Y-80070000D01*
X161230000Y-72280000D02*
X161230000Y-73930000D01*
X179130000Y-72280000D02*
X161230000Y-72280000D01*
X179130000Y-77580000D02*
X179130000Y-72280000D01*
X161230000Y-77580000D02*
X179130000Y-77580000D01*
X161230000Y-75930000D02*
X161230000Y-77580000D01*
X161230000Y-73930000D02*
G75*
G02X161230000Y-75930000I0J-1000000D01*
G01*
X212090000Y-62360000D02*
X212090000Y-59560000D01*
X191600000Y-62360000D02*
X214800000Y-62360000D01*
X191600000Y-59560000D02*
X191600000Y-62360000D01*
X214800000Y-59560000D02*
X191600000Y-59560000D01*
X214800000Y-62360000D02*
X214800000Y-59560000D01*
X257810000Y-62360000D02*
X257810000Y-59560000D01*
X237320000Y-62360000D02*
X260520000Y-62360000D01*
X237320000Y-59560000D02*
X237320000Y-62360000D01*
X260520000Y-59560000D02*
X237320000Y-59560000D01*
X260520000Y-62360000D02*
X260520000Y-59560000D01*
X115630000Y-48260000D02*
X115630000Y-49370000D01*
X115630000Y-49370000D02*
X114300000Y-49370000D01*
X115630000Y-38170000D02*
X74870000Y-38170000D01*
X74870000Y-38170000D02*
X74870000Y-46800000D01*
X115630000Y-46800000D02*
X74870000Y-46800000D01*
X115630000Y-38170000D02*
X115630000Y-46800000D01*
X77470000Y-38170000D02*
X77470000Y-46800000D01*
X80010000Y-38170000D02*
X80010000Y-46800000D01*
X82550000Y-38170000D02*
X82550000Y-46800000D01*
X85090000Y-38170000D02*
X85090000Y-46800000D01*
X87630000Y-38170000D02*
X87630000Y-46800000D01*
X90170000Y-38170000D02*
X90170000Y-46800000D01*
X92710000Y-38170000D02*
X92710000Y-46800000D01*
X95250000Y-38170000D02*
X95250000Y-46800000D01*
X97790000Y-38170000D02*
X97790000Y-46800000D01*
X100330000Y-38170000D02*
X100330000Y-46800000D01*
X102870000Y-38170000D02*
X102870000Y-46800000D01*
X105410000Y-38170000D02*
X105410000Y-46800000D01*
X107950000Y-38170000D02*
X107950000Y-46800000D01*
X110490000Y-38170000D02*
X110490000Y-46800000D01*
X113030000Y-38170000D02*
X113030000Y-46800000D01*
X75840000Y-46800000D02*
X75840000Y-47210000D01*
X76560000Y-46800000D02*
X76560000Y-47210000D01*
X78380000Y-46800000D02*
X78380000Y-47210000D01*
X79100000Y-46800000D02*
X79100000Y-47210000D01*
X80920000Y-46800000D02*
X80920000Y-47210000D01*
X81640000Y-46800000D02*
X81640000Y-47210000D01*
X83460000Y-46800000D02*
X83460000Y-47210000D01*
X84180000Y-46800000D02*
X84180000Y-47210000D01*
X86000000Y-46800000D02*
X86000000Y-47210000D01*
X86720000Y-46800000D02*
X86720000Y-47210000D01*
X88540000Y-46800000D02*
X88540000Y-47210000D01*
X89260000Y-46800000D02*
X89260000Y-47210000D01*
X91080000Y-46800000D02*
X91080000Y-47210000D01*
X91800000Y-46800000D02*
X91800000Y-47210000D01*
X93620000Y-46800000D02*
X93620000Y-47210000D01*
X94340000Y-46800000D02*
X94340000Y-47210000D01*
X96160000Y-46800000D02*
X96160000Y-47210000D01*
X96880000Y-46800000D02*
X96880000Y-47210000D01*
X98700000Y-46800000D02*
X98700000Y-47210000D01*
X99420000Y-46800000D02*
X99420000Y-47210000D01*
X101240000Y-46800000D02*
X101240000Y-47210000D01*
X101960000Y-46800000D02*
X101960000Y-47210000D01*
X103780000Y-46800000D02*
X103780000Y-47210000D01*
X104500000Y-46800000D02*
X104500000Y-47210000D01*
X106320000Y-46800000D02*
X106320000Y-47210000D01*
X107040000Y-46800000D02*
X107040000Y-47210000D01*
X108860000Y-46800000D02*
X108860000Y-47210000D01*
X109580000Y-46800000D02*
X109580000Y-47210000D01*
X111400000Y-46800000D02*
X111400000Y-47210000D01*
X112120000Y-46800000D02*
X112120000Y-47210000D01*
X113940000Y-46800000D02*
X113940000Y-47150000D01*
X114660000Y-46800000D02*
X114660000Y-47150000D01*
X113148100Y-38170000D02*
X113148100Y-46800000D01*
X113266195Y-38170000D02*
X113266195Y-46800000D01*
X113384290Y-38170000D02*
X113384290Y-46800000D01*
X113502385Y-38170000D02*
X113502385Y-46800000D01*
X113620480Y-38170000D02*
X113620480Y-46800000D01*
X113738575Y-38170000D02*
X113738575Y-46800000D01*
X113856670Y-38170000D02*
X113856670Y-46800000D01*
X113974765Y-38170000D02*
X113974765Y-46800000D01*
X114092860Y-38170000D02*
X114092860Y-46800000D01*
X114210955Y-38170000D02*
X114210955Y-46800000D01*
X114329050Y-38170000D02*
X114329050Y-46800000D01*
X114447145Y-38170000D02*
X114447145Y-46800000D01*
X114565240Y-38170000D02*
X114565240Y-46800000D01*
X114683335Y-38170000D02*
X114683335Y-46800000D01*
X114801430Y-38170000D02*
X114801430Y-46800000D01*
X114919525Y-38170000D02*
X114919525Y-46800000D01*
X115037620Y-38170000D02*
X115037620Y-46800000D01*
X115155715Y-38170000D02*
X115155715Y-46800000D01*
X115273810Y-38170000D02*
X115273810Y-46800000D01*
X115391905Y-38170000D02*
X115391905Y-46800000D01*
X115510000Y-38170000D02*
X115510000Y-46800000D01*
X225005000Y-75890000D02*
X224990000Y-75890000D01*
X227130000Y-75890000D02*
X227115000Y-75890000D01*
X225005000Y-71350000D02*
X224990000Y-71350000D01*
X227130000Y-71350000D02*
X227115000Y-71350000D01*
X224990000Y-71350000D02*
X224990000Y-75890000D01*
X227130000Y-71350000D02*
X227130000Y-75890000D01*
X186905000Y-75890000D02*
X186890000Y-75890000D01*
X189030000Y-75890000D02*
X189015000Y-75890000D01*
X186905000Y-71350000D02*
X186890000Y-71350000D01*
X189030000Y-71350000D02*
X189015000Y-71350000D01*
X186890000Y-71350000D02*
X186890000Y-75890000D01*
X189030000Y-71350000D02*
X189030000Y-75890000D01*
X222465000Y-103830000D02*
X222450000Y-103830000D01*
X224590000Y-103830000D02*
X224575000Y-103830000D01*
X222465000Y-99290000D02*
X222450000Y-99290000D01*
X224590000Y-99290000D02*
X224575000Y-99290000D01*
X222450000Y-99290000D02*
X222450000Y-103830000D01*
X224590000Y-99290000D02*
X224590000Y-103830000D01*
X184365000Y-103830000D02*
X184350000Y-103830000D01*
X186490000Y-103830000D02*
X186475000Y-103830000D01*
X184365000Y-99290000D02*
X184350000Y-99290000D01*
X186490000Y-99290000D02*
X186475000Y-99290000D01*
X184350000Y-99290000D02*
X184350000Y-103830000D01*
X186490000Y-99290000D02*
X186490000Y-103830000D01*
X146265000Y-103830000D02*
X146250000Y-103830000D01*
X148390000Y-103830000D02*
X148375000Y-103830000D01*
X146265000Y-99290000D02*
X146250000Y-99290000D01*
X148390000Y-99290000D02*
X148375000Y-99290000D01*
X146250000Y-99290000D02*
X146250000Y-103830000D01*
X148390000Y-99290000D02*
X148390000Y-103830000D01*
X108165000Y-103830000D02*
X108150000Y-103830000D01*
X110290000Y-103830000D02*
X110275000Y-103830000D01*
X108165000Y-99290000D02*
X108150000Y-99290000D01*
X110290000Y-99290000D02*
X110275000Y-99290000D01*
X108150000Y-99290000D02*
X108150000Y-103830000D01*
X110290000Y-99290000D02*
X110290000Y-103830000D01*
X153885000Y-75890000D02*
X153870000Y-75890000D01*
X156010000Y-75890000D02*
X155995000Y-75890000D01*
X153885000Y-71350000D02*
X153870000Y-71350000D01*
X156010000Y-71350000D02*
X155995000Y-71350000D01*
X153870000Y-71350000D02*
X153870000Y-75890000D01*
X156010000Y-71350000D02*
X156010000Y-75890000D01*
D14*
X267307142Y-84857142D02*
X267259523Y-84904761D01*
X267116666Y-84952380D01*
X267021428Y-84952380D01*
X266878571Y-84904761D01*
X266783333Y-84809523D01*
X266735714Y-84714285D01*
X266688095Y-84523809D01*
X266688095Y-84380952D01*
X266735714Y-84190476D01*
X266783333Y-84095238D01*
X266878571Y-84000000D01*
X267021428Y-83952380D01*
X267116666Y-83952380D01*
X267259523Y-84000000D01*
X267307142Y-84047619D01*
X268259523Y-84952380D02*
X267688095Y-84952380D01*
X267973809Y-84952380D02*
X267973809Y-83952380D01*
X267878571Y-84095238D01*
X267783333Y-84190476D01*
X267688095Y-84238095D01*
X268878571Y-83952380D02*
X268973809Y-83952380D01*
X269069047Y-84000000D01*
X269116666Y-84047619D01*
X269164285Y-84142857D01*
X269211904Y-84333333D01*
X269211904Y-84571428D01*
X269164285Y-84761904D01*
X269116666Y-84857142D01*
X269069047Y-84904761D01*
X268973809Y-84952380D01*
X268878571Y-84952380D01*
X268783333Y-84904761D01*
X268735714Y-84857142D01*
X268688095Y-84761904D01*
X268640476Y-84571428D01*
X268640476Y-84333333D01*
X268688095Y-84142857D01*
X268735714Y-84047619D01*
X268783333Y-84000000D01*
X268878571Y-83952380D01*
X173757142Y-62416666D02*
X173804761Y-62464285D01*
X173852380Y-62607142D01*
X173852380Y-62702380D01*
X173804761Y-62845238D01*
X173709523Y-62940476D01*
X173614285Y-62988095D01*
X173423809Y-63035714D01*
X173280952Y-63035714D01*
X173090476Y-62988095D01*
X172995238Y-62940476D01*
X172900000Y-62845238D01*
X172852380Y-62702380D01*
X172852380Y-62607142D01*
X172900000Y-62464285D01*
X172947619Y-62416666D01*
X173852380Y-61940476D02*
X173852380Y-61750000D01*
X173804761Y-61654761D01*
X173757142Y-61607142D01*
X173614285Y-61511904D01*
X173423809Y-61464285D01*
X173042857Y-61464285D01*
X172947619Y-61511904D01*
X172900000Y-61559523D01*
X172852380Y-61654761D01*
X172852380Y-61845238D01*
X172900000Y-61940476D01*
X172947619Y-61988095D01*
X173042857Y-62035714D01*
X173280952Y-62035714D01*
X173376190Y-61988095D01*
X173423809Y-61940476D01*
X173471428Y-61845238D01*
X173471428Y-61654761D01*
X173423809Y-61559523D01*
X173376190Y-61511904D01*
X173280952Y-61464285D01*
D15*
X191975619Y-130132666D02*
X192701333Y-130132666D01*
X192846476Y-130181047D01*
X192943238Y-130277809D01*
X192991619Y-130422952D01*
X192991619Y-130519714D01*
X192314285Y-129213428D02*
X192991619Y-129213428D01*
X191927238Y-129455333D02*
X192652952Y-129697238D01*
X192652952Y-129068285D01*
X259442857Y-127342380D02*
X259491238Y-127390761D01*
X259539619Y-127535904D01*
X259539619Y-127632666D01*
X259491238Y-127777809D01*
X259394476Y-127874571D01*
X259297714Y-127922952D01*
X259104190Y-127971333D01*
X258959047Y-127971333D01*
X258765523Y-127922952D01*
X258668761Y-127874571D01*
X258572000Y-127777809D01*
X258523619Y-127632666D01*
X258523619Y-127535904D01*
X258572000Y-127390761D01*
X258620380Y-127342380D01*
X259636380Y-127148856D02*
X259636380Y-126374761D01*
X259539619Y-126132856D02*
X258523619Y-126132856D01*
X259539619Y-125649047D02*
X258523619Y-125649047D01*
X259539619Y-125068475D01*
X258523619Y-125068475D01*
X264087428Y-127584285D02*
X264135809Y-127439142D01*
X264184190Y-127390761D01*
X264280952Y-127342380D01*
X264426095Y-127342380D01*
X264522857Y-127390761D01*
X264571238Y-127439142D01*
X264619619Y-127535904D01*
X264619619Y-127922952D01*
X263603619Y-127922952D01*
X263603619Y-127584285D01*
X263652000Y-127487523D01*
X263700380Y-127439142D01*
X263797142Y-127390761D01*
X263893904Y-127390761D01*
X263990666Y-127439142D01*
X264039047Y-127487523D01*
X264087428Y-127584285D01*
X264087428Y-127922952D01*
X264716380Y-127148856D02*
X264716380Y-126374761D01*
X264619619Y-126132856D02*
X263603619Y-126132856D01*
X264619619Y-125649047D02*
X263603619Y-125649047D01*
X264619619Y-125068475D01*
X263603619Y-125068475D01*
X249089333Y-127971333D02*
X249089333Y-127487524D01*
X249379619Y-128068095D02*
X248363619Y-127729428D01*
X249379619Y-127390762D01*
X249379619Y-126568285D02*
X249379619Y-127052095D01*
X248363619Y-127052095D01*
X248363619Y-126229619D02*
X249186095Y-126229619D01*
X249282857Y-126181238D01*
X249331238Y-126132857D01*
X249379619Y-126036095D01*
X249379619Y-125842571D01*
X249331238Y-125745809D01*
X249282857Y-125697428D01*
X249186095Y-125649047D01*
X248363619Y-125649047D01*
X249476380Y-125407143D02*
X249476380Y-124633047D01*
X248363619Y-124197619D02*
X248363619Y-124004095D01*
X248412000Y-123907333D01*
X248508761Y-123810571D01*
X248702285Y-123762190D01*
X249040952Y-123762190D01*
X249234476Y-123810571D01*
X249331238Y-123907333D01*
X249379619Y-124004095D01*
X249379619Y-124197619D01*
X249331238Y-124294381D01*
X249234476Y-124391143D01*
X249040952Y-124439524D01*
X248702285Y-124439524D01*
X248508761Y-124391143D01*
X248412000Y-124294381D01*
X248363619Y-124197619D01*
X248363619Y-123326762D02*
X249186095Y-123326762D01*
X249282857Y-123278381D01*
X249331238Y-123230000D01*
X249379619Y-123133238D01*
X249379619Y-122939714D01*
X249331238Y-122842952D01*
X249282857Y-122794571D01*
X249186095Y-122746190D01*
X248363619Y-122746190D01*
X248363619Y-122407524D02*
X248363619Y-121826952D01*
X249379619Y-122117238D02*
X248363619Y-122117238D01*
X233849333Y-127971333D02*
X233849333Y-127487523D01*
X234139619Y-128068095D02*
X233123619Y-127729428D01*
X234139619Y-127390761D01*
X234139619Y-126568285D02*
X234139619Y-127052095D01*
X233123619Y-127052095D01*
X233123619Y-126229619D02*
X233946095Y-126229619D01*
X234042857Y-126181238D01*
X234091238Y-126132857D01*
X234139619Y-126036095D01*
X234139619Y-125842571D01*
X234091238Y-125745809D01*
X234042857Y-125697428D01*
X233946095Y-125649047D01*
X233123619Y-125649047D01*
X234236380Y-125407142D02*
X234236380Y-124633047D01*
X234139619Y-124391142D02*
X233123619Y-124391142D01*
X233849333Y-124052476D01*
X233123619Y-123713809D01*
X234139619Y-123713809D01*
X223979619Y-127342380D02*
X223495809Y-127681047D01*
X223979619Y-127922952D02*
X222963619Y-127922952D01*
X222963619Y-127535904D01*
X223012000Y-127439142D01*
X223060380Y-127390761D01*
X223157142Y-127342380D01*
X223302285Y-127342380D01*
X223399047Y-127390761D01*
X223447428Y-127439142D01*
X223495809Y-127535904D01*
X223495809Y-127922952D01*
X224076380Y-127148857D02*
X224076380Y-126374761D01*
X223447428Y-125794190D02*
X223447428Y-126132857D01*
X223979619Y-126132857D02*
X222963619Y-126132857D01*
X222963619Y-125649047D01*
X223979619Y-125262000D02*
X222963619Y-125262000D01*
X223689333Y-124923333D01*
X222963619Y-124584666D01*
X223979619Y-124584666D01*
X224076380Y-124342761D02*
X224076380Y-123568666D01*
X223979619Y-123326761D02*
X222963619Y-123326761D01*
X223689333Y-122988095D01*
X222963619Y-122649428D01*
X223979619Y-122649428D01*
X223447428Y-122165619D02*
X223447428Y-121826952D01*
X223979619Y-121681809D02*
X223979619Y-122165619D01*
X222963619Y-122165619D01*
X222963619Y-121681809D01*
X223979619Y-121246380D02*
X222963619Y-121246380D01*
X223689333Y-120907714D01*
X222963619Y-120569047D01*
X223979619Y-120569047D01*
X256902857Y-127342381D02*
X256951238Y-127390761D01*
X256999619Y-127535904D01*
X256999619Y-127632666D01*
X256951238Y-127777809D01*
X256854476Y-127874571D01*
X256757714Y-127922952D01*
X256564190Y-127971333D01*
X256419047Y-127971333D01*
X256225523Y-127922952D01*
X256128761Y-127874571D01*
X256032000Y-127777809D01*
X255983619Y-127632666D01*
X255983619Y-127535904D01*
X256032000Y-127390761D01*
X256080380Y-127342381D01*
X257096380Y-127148857D02*
X257096380Y-126374761D01*
X255983619Y-125939333D02*
X255983619Y-125745809D01*
X256032000Y-125649047D01*
X256128761Y-125552285D01*
X256322285Y-125503904D01*
X256660952Y-125503904D01*
X256854476Y-125552285D01*
X256951238Y-125649047D01*
X256999619Y-125745809D01*
X256999619Y-125939333D01*
X256951238Y-126036095D01*
X256854476Y-126132857D01*
X256660952Y-126181238D01*
X256322285Y-126181238D01*
X256128761Y-126132857D01*
X256032000Y-126036095D01*
X255983619Y-125939333D01*
X255983619Y-125068476D02*
X256806095Y-125068476D01*
X256902857Y-125020095D01*
X256951238Y-124971714D01*
X256999619Y-124874952D01*
X256999619Y-124681428D01*
X256951238Y-124584666D01*
X256902857Y-124536285D01*
X256806095Y-124487904D01*
X255983619Y-124487904D01*
X255983619Y-124149238D02*
X255983619Y-123568666D01*
X256999619Y-123858952D02*
X255983619Y-123858952D01*
X221391238Y-127971333D02*
X221439619Y-127826190D01*
X221439619Y-127584285D01*
X221391238Y-127487524D01*
X221342857Y-127439143D01*
X221246095Y-127390762D01*
X221149333Y-127390762D01*
X221052571Y-127439143D01*
X221004190Y-127487524D01*
X220955809Y-127584285D01*
X220907428Y-127777809D01*
X220859047Y-127874571D01*
X220810666Y-127922952D01*
X220713904Y-127971333D01*
X220617142Y-127971333D01*
X220520380Y-127922952D01*
X220472000Y-127874571D01*
X220423619Y-127777809D01*
X220423619Y-127535905D01*
X220472000Y-127390762D01*
X221439619Y-126955333D02*
X220423619Y-126955333D01*
X220423619Y-126568285D01*
X220472000Y-126471524D01*
X220520380Y-126423143D01*
X220617142Y-126374762D01*
X220762285Y-126374762D01*
X220859047Y-126423143D01*
X220907428Y-126471524D01*
X220955809Y-126568285D01*
X220955809Y-126955333D01*
X221536380Y-126181238D02*
X221536380Y-125407143D01*
X221439619Y-125165238D02*
X220423619Y-125165238D01*
X221439619Y-124681428D02*
X220423619Y-124681428D01*
X221439619Y-124100857D01*
X220423619Y-124100857D01*
X261547428Y-127584285D02*
X261595809Y-127439142D01*
X261644190Y-127390761D01*
X261740952Y-127342381D01*
X261886095Y-127342381D01*
X261982857Y-127390761D01*
X262031238Y-127439142D01*
X262079619Y-127535904D01*
X262079619Y-127922952D01*
X261063619Y-127922952D01*
X261063619Y-127584285D01*
X261112000Y-127487523D01*
X261160380Y-127439142D01*
X261257142Y-127390761D01*
X261353904Y-127390761D01*
X261450666Y-127439142D01*
X261499047Y-127487523D01*
X261547428Y-127584285D01*
X261547428Y-127922952D01*
X262176380Y-127148857D02*
X262176380Y-126374761D01*
X261063619Y-125939333D02*
X261063619Y-125745809D01*
X261112000Y-125649047D01*
X261208761Y-125552285D01*
X261402285Y-125503904D01*
X261740952Y-125503904D01*
X261934476Y-125552285D01*
X262031238Y-125649047D01*
X262079619Y-125745809D01*
X262079619Y-125939333D01*
X262031238Y-126036095D01*
X261934476Y-126132857D01*
X261740952Y-126181238D01*
X261402285Y-126181238D01*
X261208761Y-126132857D01*
X261112000Y-126036095D01*
X261063619Y-125939333D01*
X261063619Y-125068476D02*
X261886095Y-125068476D01*
X261982857Y-125020095D01*
X262031238Y-124971714D01*
X262079619Y-124874952D01*
X262079619Y-124681428D01*
X262031238Y-124584666D01*
X261982857Y-124536285D01*
X261886095Y-124487904D01*
X261063619Y-124487904D01*
X261063619Y-124149238D02*
X261063619Y-123568666D01*
X262079619Y-123858952D02*
X261063619Y-123858952D01*
X216359619Y-127922952D02*
X215343619Y-127922952D01*
X215343619Y-127535904D01*
X215392000Y-127439142D01*
X215440380Y-127390761D01*
X215537142Y-127342380D01*
X215682285Y-127342380D01*
X215779047Y-127390761D01*
X215827428Y-127439142D01*
X215875809Y-127535904D01*
X215875809Y-127922952D01*
X216262857Y-126326380D02*
X216311238Y-126374761D01*
X216359619Y-126519904D01*
X216359619Y-126616666D01*
X216311238Y-126761809D01*
X216214476Y-126858571D01*
X216117714Y-126906952D01*
X215924190Y-126955333D01*
X215779047Y-126955333D01*
X215585523Y-126906952D01*
X215488761Y-126858571D01*
X215392000Y-126761809D01*
X215343619Y-126616666D01*
X215343619Y-126519904D01*
X215392000Y-126374761D01*
X215440380Y-126326380D01*
X216456380Y-126132856D02*
X216456380Y-125358761D01*
X216359619Y-125116856D02*
X215343619Y-125116856D01*
X216359619Y-124633047D02*
X215343619Y-124633047D01*
X216359619Y-124052475D01*
X215343619Y-124052475D01*
X238929333Y-127971333D02*
X238929333Y-127487523D01*
X239219619Y-128068094D02*
X238203619Y-127729428D01*
X239219619Y-127390761D01*
X239219619Y-126568285D02*
X239219619Y-127052094D01*
X238203619Y-127052094D01*
X238203619Y-126229618D02*
X239026095Y-126229618D01*
X239122857Y-126181237D01*
X239171238Y-126132856D01*
X239219619Y-126036094D01*
X239219619Y-125842571D01*
X239171238Y-125745809D01*
X239122857Y-125697428D01*
X239026095Y-125649047D01*
X238203619Y-125649047D01*
X239316380Y-125407142D02*
X239316380Y-124633047D01*
X239171238Y-124439523D02*
X239219619Y-124294380D01*
X239219619Y-124052475D01*
X239171238Y-123955713D01*
X239122857Y-123907333D01*
X239026095Y-123858952D01*
X238929333Y-123858952D01*
X238832571Y-123907333D01*
X238784190Y-123955713D01*
X238735809Y-124052475D01*
X238687428Y-124245999D01*
X238639047Y-124342761D01*
X238590666Y-124391142D01*
X238493904Y-124439523D01*
X238397142Y-124439523D01*
X238300380Y-124391142D01*
X238252000Y-124342761D01*
X238203619Y-124245999D01*
X238203619Y-124004094D01*
X238252000Y-123858952D01*
X238300380Y-123471904D02*
X238252000Y-123423523D01*
X238203619Y-123326761D01*
X238203619Y-123084856D01*
X238252000Y-122988094D01*
X238300380Y-122939713D01*
X238397142Y-122891333D01*
X238493904Y-122891333D01*
X238639047Y-122939713D01*
X239219619Y-123520285D01*
X239219619Y-122891333D01*
X269409333Y-127971333D02*
X269409333Y-127487524D01*
X269699619Y-128068095D02*
X268683619Y-127729428D01*
X269699619Y-127390762D01*
X269796380Y-127294000D02*
X269796380Y-126519905D01*
X269699619Y-126278000D02*
X268683619Y-126278000D01*
X269699619Y-125794190D02*
X268683619Y-125794190D01*
X269699619Y-125213619D01*
X268683619Y-125213619D01*
X251629333Y-127971333D02*
X251629333Y-127487523D01*
X251919619Y-128068095D02*
X250903619Y-127729428D01*
X251919619Y-127390761D01*
X251919619Y-126568285D02*
X251919619Y-127052095D01*
X250903619Y-127052095D01*
X250903619Y-126229619D02*
X251726095Y-126229619D01*
X251822857Y-126181238D01*
X251871238Y-126132857D01*
X251919619Y-126036095D01*
X251919619Y-125842571D01*
X251871238Y-125745809D01*
X251822857Y-125697428D01*
X251726095Y-125649047D01*
X250903619Y-125649047D01*
X252016380Y-125407142D02*
X252016380Y-124633047D01*
X251871238Y-124439523D02*
X251919619Y-124294381D01*
X251919619Y-124052476D01*
X251871238Y-123955714D01*
X251822857Y-123907333D01*
X251726095Y-123858952D01*
X251629333Y-123858952D01*
X251532571Y-123907333D01*
X251484190Y-123955714D01*
X251435809Y-124052476D01*
X251387428Y-124246000D01*
X251339047Y-124342761D01*
X251290666Y-124391142D01*
X251193904Y-124439523D01*
X251097142Y-124439523D01*
X251000380Y-124391142D01*
X250952000Y-124342761D01*
X250903619Y-124246000D01*
X250903619Y-124004095D01*
X250952000Y-123858952D01*
X250903619Y-123568666D02*
X250903619Y-122988095D01*
X251919619Y-123278381D02*
X250903619Y-123278381D01*
X252016380Y-122891333D02*
X252016380Y-122117238D01*
X251387428Y-121536666D02*
X251387428Y-121875333D01*
X251919619Y-121875333D02*
X250903619Y-121875333D01*
X250903619Y-121391523D01*
X251919619Y-120520666D02*
X251919619Y-121004476D01*
X250903619Y-121004476D01*
X231309333Y-127971333D02*
X231309333Y-127487523D01*
X231599619Y-128068095D02*
X230583619Y-127729428D01*
X231599619Y-127390761D01*
X231599619Y-126568285D02*
X231599619Y-127052095D01*
X230583619Y-127052095D01*
X230583619Y-126229618D02*
X231406095Y-126229618D01*
X231502857Y-126181237D01*
X231551238Y-126132856D01*
X231599619Y-126036095D01*
X231599619Y-125842571D01*
X231551238Y-125745809D01*
X231502857Y-125697428D01*
X231406095Y-125649047D01*
X230583619Y-125649047D01*
X231696380Y-125407142D02*
X231696380Y-124633047D01*
X231502857Y-123810571D02*
X231551238Y-123858952D01*
X231599619Y-124004095D01*
X231599619Y-124100856D01*
X231551238Y-124245999D01*
X231454476Y-124342761D01*
X231357714Y-124391142D01*
X231164190Y-124439523D01*
X231019047Y-124439523D01*
X230825523Y-124391142D01*
X230728761Y-124342761D01*
X230632000Y-124245999D01*
X230583619Y-124100856D01*
X230583619Y-124004095D01*
X230632000Y-123858952D01*
X230680380Y-123810571D01*
X231309333Y-123423523D02*
X231309333Y-122939714D01*
X231599619Y-123520285D02*
X230583619Y-123181618D01*
X231599619Y-122842952D01*
X231599619Y-121923714D02*
X231115809Y-122262380D01*
X231599619Y-122504285D02*
X230583619Y-122504285D01*
X230583619Y-122117237D01*
X230632000Y-122020475D01*
X230680380Y-121972095D01*
X230777142Y-121923714D01*
X230922285Y-121923714D01*
X231019047Y-121972095D01*
X231067428Y-122020475D01*
X231115809Y-122117237D01*
X231115809Y-122504285D01*
X231599619Y-120907714D02*
X231115809Y-121246380D01*
X231599619Y-121488285D02*
X230583619Y-121488285D01*
X230583619Y-121101237D01*
X230632000Y-121004475D01*
X230680380Y-120956095D01*
X230777142Y-120907714D01*
X230922285Y-120907714D01*
X231019047Y-120956095D01*
X231067428Y-121004475D01*
X231115809Y-121101237D01*
X231115809Y-121488285D01*
X231115809Y-120278761D02*
X231599619Y-120278761D01*
X230583619Y-120617428D02*
X231115809Y-120278761D01*
X230583619Y-119940095D01*
X229059619Y-127922952D02*
X228043619Y-127922952D01*
X228769333Y-127584285D01*
X228043619Y-127245618D01*
X229059619Y-127245618D01*
X228769333Y-126810190D02*
X228769333Y-126326380D01*
X229059619Y-126906952D02*
X228043619Y-126568285D01*
X229059619Y-126229618D01*
X229059619Y-125310380D02*
X228575809Y-125649047D01*
X229059619Y-125890952D02*
X228043619Y-125890952D01*
X228043619Y-125503904D01*
X228092000Y-125407142D01*
X228140380Y-125358761D01*
X228237142Y-125310380D01*
X228382285Y-125310380D01*
X228479047Y-125358761D01*
X228527428Y-125407142D01*
X228575809Y-125503904D01*
X228575809Y-125890952D01*
X229156380Y-125116856D02*
X229156380Y-124342761D01*
X229059619Y-124100856D02*
X228043619Y-124100856D01*
X229059619Y-123617047D02*
X228043619Y-123617047D01*
X229059619Y-123036475D01*
X228043619Y-123036475D01*
X211279619Y-127922952D02*
X210263619Y-127922952D01*
X210263619Y-127535905D01*
X210312000Y-127439143D01*
X210360380Y-127390762D01*
X210457142Y-127342381D01*
X210602285Y-127342381D01*
X210699047Y-127390762D01*
X210747428Y-127439143D01*
X210795809Y-127535905D01*
X210795809Y-127922952D01*
X211182857Y-126326381D02*
X211231238Y-126374762D01*
X211279619Y-126519905D01*
X211279619Y-126616667D01*
X211231238Y-126761810D01*
X211134476Y-126858571D01*
X211037714Y-126906952D01*
X210844190Y-126955333D01*
X210699047Y-126955333D01*
X210505523Y-126906952D01*
X210408761Y-126858571D01*
X210312000Y-126761810D01*
X210263619Y-126616667D01*
X210263619Y-126519905D01*
X210312000Y-126374762D01*
X210360380Y-126326381D01*
X211376380Y-126132857D02*
X211376380Y-125358762D01*
X211182857Y-124536286D02*
X211231238Y-124584667D01*
X211279619Y-124729810D01*
X211279619Y-124826571D01*
X211231238Y-124971714D01*
X211134476Y-125068476D01*
X211037714Y-125116857D01*
X210844190Y-125165238D01*
X210699047Y-125165238D01*
X210505523Y-125116857D01*
X210408761Y-125068476D01*
X210312000Y-124971714D01*
X210263619Y-124826571D01*
X210263619Y-124729810D01*
X210312000Y-124584667D01*
X210360380Y-124536286D01*
X210263619Y-123907333D02*
X210263619Y-123713810D01*
X210312000Y-123617048D01*
X210408761Y-123520286D01*
X210602285Y-123471905D01*
X210940952Y-123471905D01*
X211134476Y-123520286D01*
X211231238Y-123617048D01*
X211279619Y-123713810D01*
X211279619Y-123907333D01*
X211231238Y-124004095D01*
X211134476Y-124100857D01*
X210940952Y-124149238D01*
X210602285Y-124149238D01*
X210408761Y-124100857D01*
X210312000Y-124004095D01*
X210263619Y-123907333D01*
X210263619Y-123036476D02*
X211086095Y-123036476D01*
X211182857Y-122988095D01*
X211231238Y-122939714D01*
X211279619Y-122842952D01*
X211279619Y-122649429D01*
X211231238Y-122552667D01*
X211182857Y-122504286D01*
X211086095Y-122455905D01*
X210263619Y-122455905D01*
X211279619Y-121972095D02*
X210263619Y-121972095D01*
X211279619Y-121391524D01*
X210263619Y-121391524D01*
X210263619Y-121052857D02*
X210263619Y-120472286D01*
X211279619Y-120762571D02*
X210263619Y-120762571D01*
X208739619Y-127922952D02*
X207723619Y-127922952D01*
X208739619Y-126858571D02*
X208255809Y-127197238D01*
X208739619Y-127439143D02*
X207723619Y-127439143D01*
X207723619Y-127052095D01*
X207772000Y-126955333D01*
X207820380Y-126906952D01*
X207917142Y-126858571D01*
X208062285Y-126858571D01*
X208159047Y-126906952D01*
X208207428Y-126955333D01*
X208255809Y-127052095D01*
X208255809Y-127439143D01*
X208836380Y-126665048D02*
X208836380Y-125890952D01*
X208739619Y-125649048D02*
X207723619Y-125649048D01*
X208739619Y-125165238D02*
X207723619Y-125165238D01*
X208739619Y-124584667D01*
X207723619Y-124584667D01*
X244009333Y-127971333D02*
X244009333Y-127487523D01*
X244299619Y-128068094D02*
X243283619Y-127729428D01*
X244299619Y-127390761D01*
X244299619Y-126568285D02*
X244299619Y-127052094D01*
X243283619Y-127052094D01*
X243283619Y-126229618D02*
X244106095Y-126229618D01*
X244202857Y-126181237D01*
X244251238Y-126132856D01*
X244299619Y-126036094D01*
X244299619Y-125842571D01*
X244251238Y-125745809D01*
X244202857Y-125697428D01*
X244106095Y-125649047D01*
X243283619Y-125649047D01*
X244396380Y-125407142D02*
X244396380Y-124633047D01*
X244251238Y-124439523D02*
X244299619Y-124294380D01*
X244299619Y-124052475D01*
X244251238Y-123955713D01*
X244202857Y-123907333D01*
X244106095Y-123858952D01*
X244009333Y-123858952D01*
X243912571Y-123907333D01*
X243864190Y-123955713D01*
X243815809Y-124052475D01*
X243767428Y-124245999D01*
X243719047Y-124342761D01*
X243670666Y-124391142D01*
X243573904Y-124439523D01*
X243477142Y-124439523D01*
X243380380Y-124391142D01*
X243332000Y-124342761D01*
X243283619Y-124245999D01*
X243283619Y-124004094D01*
X243332000Y-123858952D01*
X243283619Y-123229999D02*
X243283619Y-123133237D01*
X243332000Y-123036475D01*
X243380380Y-122988094D01*
X243477142Y-122939713D01*
X243670666Y-122891333D01*
X243912571Y-122891333D01*
X244106095Y-122939713D01*
X244202857Y-122988094D01*
X244251238Y-123036475D01*
X244299619Y-123133237D01*
X244299619Y-123229999D01*
X244251238Y-123326761D01*
X244202857Y-123375142D01*
X244106095Y-123423523D01*
X243912571Y-123471904D01*
X243670666Y-123471904D01*
X243477142Y-123423523D01*
X243380380Y-123375142D01*
X243332000Y-123326761D01*
X243283619Y-123229999D01*
X241469333Y-127971333D02*
X241469333Y-127487523D01*
X241759619Y-128068094D02*
X240743619Y-127729428D01*
X241759619Y-127390761D01*
X241759619Y-126568285D02*
X241759619Y-127052094D01*
X240743619Y-127052094D01*
X240743619Y-126229618D02*
X241566095Y-126229618D01*
X241662857Y-126181237D01*
X241711238Y-126132856D01*
X241759619Y-126036094D01*
X241759619Y-125842571D01*
X241711238Y-125745809D01*
X241662857Y-125697428D01*
X241566095Y-125649047D01*
X240743619Y-125649047D01*
X241856380Y-125407142D02*
X241856380Y-124633047D01*
X241711238Y-124439523D02*
X241759619Y-124294380D01*
X241759619Y-124052475D01*
X241711238Y-123955713D01*
X241662857Y-123907333D01*
X241566095Y-123858952D01*
X241469333Y-123858952D01*
X241372571Y-123907333D01*
X241324190Y-123955713D01*
X241275809Y-124052475D01*
X241227428Y-124245999D01*
X241179047Y-124342761D01*
X241130666Y-124391142D01*
X241033904Y-124439523D01*
X240937142Y-124439523D01*
X240840380Y-124391142D01*
X240792000Y-124342761D01*
X240743619Y-124245999D01*
X240743619Y-124004094D01*
X240792000Y-123858952D01*
X241759619Y-122891333D02*
X241759619Y-123471904D01*
X241759619Y-123181618D02*
X240743619Y-123181618D01*
X240888761Y-123278380D01*
X240985523Y-123375142D01*
X241033904Y-123471904D01*
X266869333Y-127971332D02*
X266869333Y-127487523D01*
X267159619Y-128068094D02*
X266143619Y-127729428D01*
X267159619Y-127390761D01*
X267256380Y-127293999D02*
X267256380Y-126519904D01*
X266143619Y-126084475D02*
X266143619Y-125890952D01*
X266192000Y-125794190D01*
X266288761Y-125697428D01*
X266482285Y-125649047D01*
X266820952Y-125649047D01*
X267014476Y-125697428D01*
X267111238Y-125794190D01*
X267159619Y-125890952D01*
X267159619Y-126084475D01*
X267111238Y-126181237D01*
X267014476Y-126277999D01*
X266820952Y-126326380D01*
X266482285Y-126326380D01*
X266288761Y-126277999D01*
X266192000Y-126181237D01*
X266143619Y-126084475D01*
X266143619Y-125213618D02*
X266966095Y-125213618D01*
X267062857Y-125165237D01*
X267111238Y-125116856D01*
X267159619Y-125020094D01*
X267159619Y-124826571D01*
X267111238Y-124729809D01*
X267062857Y-124681428D01*
X266966095Y-124633047D01*
X266143619Y-124633047D01*
X266143619Y-124294380D02*
X266143619Y-123713809D01*
X267159619Y-124004094D02*
X266143619Y-124004094D01*
X274489333Y-127971333D02*
X274489333Y-127487524D01*
X274779619Y-128068095D02*
X273763619Y-127729428D01*
X274779619Y-127390762D01*
X274682857Y-126471524D02*
X274731238Y-126519905D01*
X274779619Y-126665047D01*
X274779619Y-126761809D01*
X274731238Y-126906952D01*
X274634476Y-127003714D01*
X274537714Y-127052095D01*
X274344190Y-127100476D01*
X274199047Y-127100476D01*
X274005523Y-127052095D01*
X273908761Y-127003714D01*
X273812000Y-126906952D01*
X273763619Y-126761809D01*
X273763619Y-126665047D01*
X273812000Y-126519905D01*
X273860380Y-126471524D01*
X274682857Y-125455524D02*
X274731238Y-125503905D01*
X274779619Y-125649047D01*
X274779619Y-125745809D01*
X274731238Y-125890952D01*
X274634476Y-125987714D01*
X274537714Y-126036095D01*
X274344190Y-126084476D01*
X274199047Y-126084476D01*
X274005523Y-126036095D01*
X273908761Y-125987714D01*
X273812000Y-125890952D01*
X273763619Y-125745809D01*
X273763619Y-125649047D01*
X273812000Y-125503905D01*
X273860380Y-125455524D01*
X274876380Y-125262000D02*
X274876380Y-124487905D01*
X274779619Y-124246000D02*
X273763619Y-124246000D01*
X274779619Y-123762190D02*
X273763619Y-123762190D01*
X274779619Y-123181619D01*
X273763619Y-123181619D01*
X254169333Y-127971333D02*
X254169333Y-127487523D01*
X254459619Y-128068095D02*
X253443619Y-127729428D01*
X254459619Y-127390761D01*
X254459619Y-126568285D02*
X254459619Y-127052095D01*
X253443619Y-127052095D01*
X253443619Y-126229618D02*
X254266095Y-126229618D01*
X254362857Y-126181238D01*
X254411238Y-126132857D01*
X254459619Y-126036095D01*
X254459619Y-125842571D01*
X254411238Y-125745809D01*
X254362857Y-125697428D01*
X254266095Y-125649047D01*
X253443619Y-125649047D01*
X254556380Y-125407142D02*
X254556380Y-124633047D01*
X254411238Y-124439523D02*
X254459619Y-124294380D01*
X254459619Y-124052476D01*
X254411238Y-123955714D01*
X254362857Y-123907333D01*
X254266095Y-123858952D01*
X254169333Y-123858952D01*
X254072571Y-123907333D01*
X254024190Y-123955714D01*
X253975809Y-124052476D01*
X253927428Y-124245999D01*
X253879047Y-124342761D01*
X253830666Y-124391142D01*
X253733904Y-124439523D01*
X253637142Y-124439523D01*
X253540380Y-124391142D01*
X253492000Y-124342761D01*
X253443619Y-124245999D01*
X253443619Y-124004095D01*
X253492000Y-123858952D01*
X253443619Y-123568666D02*
X253443619Y-122988095D01*
X254459619Y-123278380D02*
X253443619Y-123278380D01*
X254556380Y-122891333D02*
X254556380Y-122117238D01*
X254459619Y-121294761D02*
X253975809Y-121633428D01*
X254459619Y-121875333D02*
X253443619Y-121875333D01*
X253443619Y-121488285D01*
X253492000Y-121391523D01*
X253540380Y-121343142D01*
X253637142Y-121294761D01*
X253782285Y-121294761D01*
X253879047Y-121343142D01*
X253927428Y-121391523D01*
X253975809Y-121488285D01*
X253975809Y-121875333D01*
X254411238Y-120907714D02*
X254459619Y-120762571D01*
X254459619Y-120520666D01*
X254411238Y-120423904D01*
X254362857Y-120375523D01*
X254266095Y-120327142D01*
X254169333Y-120327142D01*
X254072571Y-120375523D01*
X254024190Y-120423904D01*
X253975809Y-120520666D01*
X253927428Y-120714190D01*
X253879047Y-120810952D01*
X253830666Y-120859333D01*
X253733904Y-120907714D01*
X253637142Y-120907714D01*
X253540380Y-120859333D01*
X253492000Y-120810952D01*
X253443619Y-120714190D01*
X253443619Y-120472285D01*
X253492000Y-120327142D01*
X246549333Y-127971333D02*
X246549333Y-127487523D01*
X246839619Y-128068095D02*
X245823619Y-127729428D01*
X246839619Y-127390761D01*
X246839619Y-126568285D02*
X246839619Y-127052095D01*
X245823619Y-127052095D01*
X245823619Y-126229618D02*
X246646095Y-126229618D01*
X246742857Y-126181237D01*
X246791238Y-126132856D01*
X246839619Y-126036095D01*
X246839619Y-125842571D01*
X246791238Y-125745809D01*
X246742857Y-125697428D01*
X246646095Y-125649047D01*
X245823619Y-125649047D01*
X246936380Y-125407142D02*
X246936380Y-124633047D01*
X246549333Y-124439523D02*
X246549333Y-123955714D01*
X246839619Y-124536285D02*
X245823619Y-124197618D01*
X246839619Y-123858952D01*
X246936380Y-123762190D02*
X246936380Y-122988095D01*
X246307428Y-122407523D02*
X246355809Y-122262380D01*
X246404190Y-122213999D01*
X246500952Y-122165618D01*
X246646095Y-122165618D01*
X246742857Y-122213999D01*
X246791238Y-122262380D01*
X246839619Y-122359142D01*
X246839619Y-122746190D01*
X245823619Y-122746190D01*
X245823619Y-122407523D01*
X245872000Y-122310761D01*
X245920380Y-122262380D01*
X246017142Y-122213999D01*
X246113904Y-122213999D01*
X246210666Y-122262380D01*
X246259047Y-122310761D01*
X246307428Y-122407523D01*
X246307428Y-122746190D01*
X245823619Y-121730190D02*
X246646095Y-121730190D01*
X246742857Y-121681809D01*
X246791238Y-121633428D01*
X246839619Y-121536666D01*
X246839619Y-121343142D01*
X246791238Y-121246380D01*
X246742857Y-121197999D01*
X246646095Y-121149618D01*
X245823619Y-121149618D01*
X246791238Y-120714190D02*
X246839619Y-120569047D01*
X246839619Y-120327142D01*
X246791238Y-120230380D01*
X246742857Y-120181999D01*
X246646095Y-120133618D01*
X246549333Y-120133618D01*
X246452571Y-120181999D01*
X246404190Y-120230380D01*
X246355809Y-120327142D01*
X246307428Y-120520666D01*
X246259047Y-120617428D01*
X246210666Y-120665809D01*
X246113904Y-120714190D01*
X246017142Y-120714190D01*
X245920380Y-120665809D01*
X245872000Y-120617428D01*
X245823619Y-120520666D01*
X245823619Y-120278761D01*
X245872000Y-120133618D01*
X236389333Y-127971333D02*
X236389333Y-127487523D01*
X236679619Y-128068094D02*
X235663619Y-127729428D01*
X236679619Y-127390761D01*
X236679619Y-126568285D02*
X236679619Y-127052094D01*
X235663619Y-127052094D01*
X235663619Y-126229618D02*
X236486095Y-126229618D01*
X236582857Y-126181237D01*
X236631238Y-126132856D01*
X236679619Y-126036094D01*
X236679619Y-125842571D01*
X236631238Y-125745809D01*
X236582857Y-125697428D01*
X236486095Y-125649047D01*
X235663619Y-125649047D01*
X236776380Y-125407142D02*
X236776380Y-124633047D01*
X236631238Y-124439523D02*
X236679619Y-124294380D01*
X236679619Y-124052475D01*
X236631238Y-123955713D01*
X236582857Y-123907333D01*
X236486095Y-123858952D01*
X236389333Y-123858952D01*
X236292571Y-123907333D01*
X236244190Y-123955713D01*
X236195809Y-124052475D01*
X236147428Y-124245999D01*
X236099047Y-124342761D01*
X236050666Y-124391142D01*
X235953904Y-124439523D01*
X235857142Y-124439523D01*
X235760380Y-124391142D01*
X235712000Y-124342761D01*
X235663619Y-124245999D01*
X235663619Y-124004094D01*
X235712000Y-123858952D01*
X235663619Y-123520285D02*
X235663619Y-122891333D01*
X236050666Y-123229999D01*
X236050666Y-123084856D01*
X236099047Y-122988094D01*
X236147428Y-122939713D01*
X236244190Y-122891333D01*
X236486095Y-122891333D01*
X236582857Y-122939713D01*
X236631238Y-122988094D01*
X236679619Y-123084856D01*
X236679619Y-123375142D01*
X236631238Y-123471904D01*
X236582857Y-123520285D01*
X271949333Y-127971332D02*
X271949333Y-127487523D01*
X272239619Y-128068094D02*
X271223619Y-127729428D01*
X272239619Y-127390761D01*
X272142857Y-126471523D02*
X272191238Y-126519904D01*
X272239619Y-126665047D01*
X272239619Y-126761809D01*
X272191238Y-126906952D01*
X272094476Y-127003713D01*
X271997714Y-127052094D01*
X271804190Y-127100475D01*
X271659047Y-127100475D01*
X271465523Y-127052094D01*
X271368761Y-127003713D01*
X271272000Y-126906952D01*
X271223619Y-126761809D01*
X271223619Y-126665047D01*
X271272000Y-126519904D01*
X271320380Y-126471523D01*
X272142857Y-125455523D02*
X272191238Y-125503904D01*
X272239619Y-125649047D01*
X272239619Y-125745809D01*
X272191238Y-125890952D01*
X272094476Y-125987713D01*
X271997714Y-126036094D01*
X271804190Y-126084475D01*
X271659047Y-126084475D01*
X271465523Y-126036094D01*
X271368761Y-125987713D01*
X271272000Y-125890952D01*
X271223619Y-125745809D01*
X271223619Y-125649047D01*
X271272000Y-125503904D01*
X271320380Y-125455523D01*
X272336380Y-125261999D02*
X272336380Y-124487904D01*
X271223619Y-124052475D02*
X271223619Y-123858952D01*
X271272000Y-123762190D01*
X271368761Y-123665428D01*
X271562285Y-123617047D01*
X271900952Y-123617047D01*
X272094476Y-123665428D01*
X272191238Y-123762190D01*
X272239619Y-123858952D01*
X272239619Y-124052475D01*
X272191238Y-124149237D01*
X272094476Y-124245999D01*
X271900952Y-124294380D01*
X271562285Y-124294380D01*
X271368761Y-124245999D01*
X271272000Y-124149237D01*
X271223619Y-124052475D01*
X271223619Y-123181618D02*
X272046095Y-123181618D01*
X272142857Y-123133237D01*
X272191238Y-123084856D01*
X272239619Y-122988094D01*
X272239619Y-122794571D01*
X272191238Y-122697809D01*
X272142857Y-122649428D01*
X272046095Y-122601047D01*
X271223619Y-122601047D01*
X271223619Y-122262380D02*
X271223619Y-121681809D01*
X272239619Y-121972094D02*
X271223619Y-121972094D01*
X225503619Y-128019714D02*
X226519619Y-127777810D01*
X225793904Y-127584286D01*
X226519619Y-127390762D01*
X225503619Y-127148857D01*
X226616380Y-127003714D02*
X226616380Y-126229619D01*
X225503619Y-126132857D02*
X225503619Y-125552286D01*
X226519619Y-125842571D02*
X225503619Y-125842571D01*
X225503619Y-125020095D02*
X225503619Y-124826571D01*
X225552000Y-124729810D01*
X225648761Y-124633048D01*
X225842285Y-124584667D01*
X226180952Y-124584667D01*
X226374476Y-124633048D01*
X226471238Y-124729810D01*
X226519619Y-124826571D01*
X226519619Y-125020095D01*
X226471238Y-125116857D01*
X226374476Y-125213619D01*
X226180952Y-125262000D01*
X225842285Y-125262000D01*
X225648761Y-125213619D01*
X225552000Y-125116857D01*
X225503619Y-125020095D01*
X226616380Y-124391143D02*
X226616380Y-123617048D01*
X226519619Y-123375143D02*
X225503619Y-123375143D01*
X226229333Y-123036476D01*
X225503619Y-122697810D01*
X226519619Y-122697810D01*
X225987428Y-122214000D02*
X225987428Y-121875333D01*
X226519619Y-121730191D02*
X226519619Y-122214000D01*
X225503619Y-122214000D01*
X225503619Y-121730191D01*
X226519619Y-121294762D02*
X225503619Y-121294762D01*
X226229333Y-120956095D01*
X225503619Y-120617429D01*
X226519619Y-120617429D01*
X218851238Y-127971333D02*
X218899619Y-127826191D01*
X218899619Y-127584286D01*
X218851238Y-127487524D01*
X218802857Y-127439143D01*
X218706095Y-127390762D01*
X218609333Y-127390762D01*
X218512571Y-127439143D01*
X218464190Y-127487524D01*
X218415809Y-127584286D01*
X218367428Y-127777810D01*
X218319047Y-127874572D01*
X218270666Y-127922952D01*
X218173904Y-127971333D01*
X218077142Y-127971333D01*
X217980380Y-127922952D01*
X217932000Y-127874572D01*
X217883619Y-127777810D01*
X217883619Y-127535905D01*
X217932000Y-127390762D01*
X218899619Y-126955333D02*
X217883619Y-126955333D01*
X217883619Y-126568286D01*
X217932000Y-126471524D01*
X217980380Y-126423143D01*
X218077142Y-126374762D01*
X218222285Y-126374762D01*
X218319047Y-126423143D01*
X218367428Y-126471524D01*
X218415809Y-126568286D01*
X218415809Y-126955333D01*
X218996380Y-126181238D02*
X218996380Y-125407143D01*
X217883619Y-124971714D02*
X217883619Y-124778191D01*
X217932000Y-124681429D01*
X218028761Y-124584667D01*
X218222285Y-124536286D01*
X218560952Y-124536286D01*
X218754476Y-124584667D01*
X218851238Y-124681429D01*
X218899619Y-124778191D01*
X218899619Y-124971714D01*
X218851238Y-125068476D01*
X218754476Y-125165238D01*
X218560952Y-125213619D01*
X218222285Y-125213619D01*
X218028761Y-125165238D01*
X217932000Y-125068476D01*
X217883619Y-124971714D01*
X217883619Y-124100857D02*
X218706095Y-124100857D01*
X218802857Y-124052476D01*
X218851238Y-124004095D01*
X218899619Y-123907333D01*
X218899619Y-123713810D01*
X218851238Y-123617048D01*
X218802857Y-123568667D01*
X218706095Y-123520286D01*
X217883619Y-123520286D01*
X217883619Y-123181619D02*
X217883619Y-122601048D01*
X218899619Y-122891333D02*
X217883619Y-122891333D01*
X213819619Y-127922952D02*
X212803619Y-127922952D01*
X212803619Y-127535904D01*
X212852000Y-127439142D01*
X212900380Y-127390761D01*
X212997142Y-127342381D01*
X213142285Y-127342381D01*
X213239047Y-127390761D01*
X213287428Y-127439142D01*
X213335809Y-127535904D01*
X213335809Y-127922952D01*
X213722857Y-126326381D02*
X213771238Y-126374761D01*
X213819619Y-126519904D01*
X213819619Y-126616666D01*
X213771238Y-126761809D01*
X213674476Y-126858571D01*
X213577714Y-126906952D01*
X213384190Y-126955333D01*
X213239047Y-126955333D01*
X213045523Y-126906952D01*
X212948761Y-126858571D01*
X212852000Y-126761809D01*
X212803619Y-126616666D01*
X212803619Y-126519904D01*
X212852000Y-126374761D01*
X212900380Y-126326381D01*
X213916380Y-126132857D02*
X213916380Y-125358761D01*
X212803619Y-124923333D02*
X212803619Y-124729809D01*
X212852000Y-124633047D01*
X212948761Y-124536285D01*
X213142285Y-124487904D01*
X213480952Y-124487904D01*
X213674476Y-124536285D01*
X213771238Y-124633047D01*
X213819619Y-124729809D01*
X213819619Y-124923333D01*
X213771238Y-125020095D01*
X213674476Y-125116857D01*
X213480952Y-125165238D01*
X213142285Y-125165238D01*
X212948761Y-125116857D01*
X212852000Y-125020095D01*
X212803619Y-124923333D01*
X212803619Y-124052476D02*
X213626095Y-124052476D01*
X213722857Y-124004095D01*
X213771238Y-123955714D01*
X213819619Y-123858952D01*
X213819619Y-123665428D01*
X213771238Y-123568666D01*
X213722857Y-123520285D01*
X213626095Y-123471904D01*
X212803619Y-123471904D01*
X212803619Y-123133238D02*
X212803619Y-122552666D01*
X213819619Y-122842952D02*
X212803619Y-122842952D01*
X198482857Y-127342380D02*
X198531238Y-127390761D01*
X198579619Y-127535904D01*
X198579619Y-127632666D01*
X198531238Y-127777809D01*
X198434476Y-127874571D01*
X198337714Y-127922952D01*
X198144190Y-127971333D01*
X197999047Y-127971333D01*
X197805523Y-127922952D01*
X197708761Y-127874571D01*
X197612000Y-127777809D01*
X197563619Y-127632666D01*
X197563619Y-127535904D01*
X197612000Y-127390761D01*
X197660380Y-127342380D01*
X197563619Y-126906952D02*
X198386095Y-126906952D01*
X198482857Y-126858571D01*
X198531238Y-126810190D01*
X198579619Y-126713428D01*
X198579619Y-126519904D01*
X198531238Y-126423142D01*
X198482857Y-126374761D01*
X198386095Y-126326380D01*
X197563619Y-126326380D01*
X198676380Y-126084476D02*
X198676380Y-125310380D01*
X197563619Y-125165238D02*
X197563619Y-124536285D01*
X197950666Y-124874952D01*
X197950666Y-124729809D01*
X197999047Y-124633047D01*
X198047428Y-124584666D01*
X198144190Y-124536285D01*
X198386095Y-124536285D01*
X198482857Y-124584666D01*
X198531238Y-124633047D01*
X198579619Y-124729809D01*
X198579619Y-125020095D01*
X198531238Y-125116857D01*
X198482857Y-125165238D01*
X197563619Y-123907333D02*
X197563619Y-123810571D01*
X197612000Y-123713809D01*
X197660380Y-123665428D01*
X197757142Y-123617047D01*
X197950666Y-123568666D01*
X198192571Y-123568666D01*
X198386095Y-123617047D01*
X198482857Y-123665428D01*
X198531238Y-123713809D01*
X198579619Y-123810571D01*
X198579619Y-123907333D01*
X198531238Y-124004095D01*
X198482857Y-124052476D01*
X198386095Y-124100857D01*
X198192571Y-124149238D01*
X197950666Y-124149238D01*
X197757142Y-124100857D01*
X197660380Y-124052476D01*
X197612000Y-124004095D01*
X197563619Y-123907333D01*
X195942857Y-127342380D02*
X195991238Y-127390761D01*
X196039619Y-127535904D01*
X196039619Y-127632666D01*
X195991238Y-127777809D01*
X195894476Y-127874571D01*
X195797714Y-127922952D01*
X195604190Y-127971333D01*
X195459047Y-127971333D01*
X195265523Y-127922952D01*
X195168761Y-127874571D01*
X195072000Y-127777809D01*
X195023619Y-127632666D01*
X195023619Y-127535904D01*
X195072000Y-127390761D01*
X195120380Y-127342380D01*
X195023619Y-126906952D02*
X195846095Y-126906952D01*
X195942857Y-126858571D01*
X195991238Y-126810190D01*
X196039619Y-126713428D01*
X196039619Y-126519904D01*
X195991238Y-126423142D01*
X195942857Y-126374761D01*
X195846095Y-126326380D01*
X195023619Y-126326380D01*
X196136380Y-126084476D02*
X196136380Y-125310380D01*
X195023619Y-125165238D02*
X195023619Y-124536285D01*
X195410666Y-124874952D01*
X195410666Y-124729809D01*
X195459047Y-124633047D01*
X195507428Y-124584666D01*
X195604190Y-124536285D01*
X195846095Y-124536285D01*
X195942857Y-124584666D01*
X195991238Y-124633047D01*
X196039619Y-124729809D01*
X196039619Y-125020095D01*
X195991238Y-125116857D01*
X195942857Y-125165238D01*
X196039619Y-123568666D02*
X196039619Y-124149238D01*
X196039619Y-123858952D02*
X195023619Y-123858952D01*
X195168761Y-123955714D01*
X195265523Y-124052476D01*
X195313904Y-124149238D01*
X206102857Y-127342380D02*
X206151238Y-127390761D01*
X206199619Y-127535904D01*
X206199619Y-127632666D01*
X206151238Y-127777809D01*
X206054476Y-127874571D01*
X205957714Y-127922952D01*
X205764190Y-127971333D01*
X205619047Y-127971333D01*
X205425523Y-127922952D01*
X205328761Y-127874571D01*
X205232000Y-127777809D01*
X205183619Y-127632666D01*
X205183619Y-127535904D01*
X205232000Y-127390761D01*
X205280380Y-127342380D01*
X205183619Y-126906952D02*
X206006095Y-126906952D01*
X206102857Y-126858571D01*
X206151238Y-126810190D01*
X206199619Y-126713428D01*
X206199619Y-126519904D01*
X206151238Y-126423142D01*
X206102857Y-126374761D01*
X206006095Y-126326380D01*
X205183619Y-126326380D01*
X206296380Y-126084476D02*
X206296380Y-125310380D01*
X206151238Y-125116857D02*
X206199619Y-124971714D01*
X206199619Y-124729809D01*
X206151238Y-124633047D01*
X206102857Y-124584666D01*
X206006095Y-124536285D01*
X205909333Y-124536285D01*
X205812571Y-124584666D01*
X205764190Y-124633047D01*
X205715809Y-124729809D01*
X205667428Y-124923333D01*
X205619047Y-125020095D01*
X205570666Y-125068476D01*
X205473904Y-125116857D01*
X205377142Y-125116857D01*
X205280380Y-125068476D01*
X205232000Y-125020095D01*
X205183619Y-124923333D01*
X205183619Y-124681428D01*
X205232000Y-124536285D01*
X205183619Y-124245999D02*
X205183619Y-123665428D01*
X206199619Y-123955714D02*
X205183619Y-123955714D01*
X206296380Y-123568666D02*
X206296380Y-122794571D01*
X206199619Y-121972095D02*
X205715809Y-122310761D01*
X206199619Y-122552666D02*
X205183619Y-122552666D01*
X205183619Y-122165618D01*
X205232000Y-122068857D01*
X205280380Y-122020476D01*
X205377142Y-121972095D01*
X205522285Y-121972095D01*
X205619047Y-122020476D01*
X205667428Y-122068857D01*
X205715809Y-122165618D01*
X205715809Y-122552666D01*
X206151238Y-121585047D02*
X206199619Y-121439904D01*
X206199619Y-121197999D01*
X206151238Y-121101237D01*
X206102857Y-121052857D01*
X206006095Y-121004476D01*
X205909333Y-121004476D01*
X205812571Y-121052857D01*
X205764190Y-121101237D01*
X205715809Y-121197999D01*
X205667428Y-121391523D01*
X205619047Y-121488285D01*
X205570666Y-121536666D01*
X205473904Y-121585047D01*
X205377142Y-121585047D01*
X205280380Y-121536666D01*
X205232000Y-121488285D01*
X205183619Y-121391523D01*
X205183619Y-121149618D01*
X205232000Y-121004476D01*
X205183619Y-120714190D02*
X205183619Y-120133618D01*
X206199619Y-120423904D02*
X205183619Y-120423904D01*
X203659619Y-127922952D02*
X202643619Y-127922952D01*
X203127428Y-127922952D02*
X203127428Y-127342380D01*
X203659619Y-127342380D02*
X202643619Y-127342380D01*
X203369333Y-126906952D02*
X203369333Y-126423142D01*
X203659619Y-127003713D02*
X202643619Y-126665047D01*
X203659619Y-126326380D01*
X203659619Y-125503904D02*
X203659619Y-125987713D01*
X202643619Y-125987713D01*
X202643619Y-125310380D02*
X202643619Y-124729809D01*
X203659619Y-125020094D02*
X202643619Y-125020094D01*
X201022857Y-127342380D02*
X201071238Y-127390761D01*
X201119619Y-127535904D01*
X201119619Y-127632666D01*
X201071238Y-127777809D01*
X200974476Y-127874571D01*
X200877714Y-127922952D01*
X200684190Y-127971333D01*
X200539047Y-127971333D01*
X200345523Y-127922952D01*
X200248761Y-127874571D01*
X200152000Y-127777809D01*
X200103619Y-127632666D01*
X200103619Y-127535904D01*
X200152000Y-127390761D01*
X200200380Y-127342380D01*
X200103619Y-126906952D02*
X200926095Y-126906952D01*
X201022857Y-126858571D01*
X201071238Y-126810190D01*
X201119619Y-126713428D01*
X201119619Y-126519904D01*
X201071238Y-126423142D01*
X201022857Y-126374761D01*
X200926095Y-126326380D01*
X200103619Y-126326380D01*
X201216380Y-126084476D02*
X201216380Y-125310380D01*
X200200380Y-125116857D02*
X200152000Y-125068476D01*
X200103619Y-124971714D01*
X200103619Y-124729809D01*
X200152000Y-124633047D01*
X200200380Y-124584666D01*
X200297142Y-124536285D01*
X200393904Y-124536285D01*
X200539047Y-124584666D01*
X201119619Y-125165238D01*
X201119619Y-124536285D01*
X201119619Y-124052476D02*
X201119619Y-123858952D01*
X201071238Y-123762190D01*
X201022857Y-123713809D01*
X200877714Y-123617047D01*
X200684190Y-123568666D01*
X200297142Y-123568666D01*
X200200380Y-123617047D01*
X200152000Y-123665428D01*
X200103619Y-123762190D01*
X200103619Y-123955714D01*
X200152000Y-124052476D01*
X200200380Y-124100857D01*
X200297142Y-124149238D01*
X200539047Y-124149238D01*
X200635809Y-124100857D01*
X200684190Y-124052476D01*
X200732571Y-123955714D01*
X200732571Y-123762190D01*
X200684190Y-123665428D01*
X200635809Y-123617047D01*
X200539047Y-123568666D01*
X121871619Y-132672666D02*
X122597333Y-132672666D01*
X122742476Y-132721047D01*
X122839238Y-132817809D01*
X122887619Y-132962952D01*
X122887619Y-133059714D01*
X121871619Y-131705047D02*
X121871619Y-132188857D01*
X122355428Y-132237238D01*
X122307047Y-132188857D01*
X122258666Y-132092095D01*
X122258666Y-131850190D01*
X122307047Y-131753428D01*
X122355428Y-131705047D01*
X122452190Y-131656666D01*
X122694095Y-131656666D01*
X122790857Y-131705047D01*
X122839238Y-131753428D01*
X122887619Y-131850190D01*
X122887619Y-132092095D01*
X122839238Y-132188857D01*
X122790857Y-132237238D01*
D16*
X118558571Y-130397000D02*
X120058571Y-129897000D01*
X118558571Y-129397000D01*
X119915714Y-128039857D02*
X119987142Y-128111285D01*
X120058571Y-128325571D01*
X120058571Y-128468428D01*
X119987142Y-128682714D01*
X119844285Y-128825571D01*
X119701428Y-128897000D01*
X119415714Y-128968428D01*
X119201428Y-128968428D01*
X118915714Y-128897000D01*
X118772857Y-128825571D01*
X118630000Y-128682714D01*
X118558571Y-128468428D01*
X118558571Y-128325571D01*
X118630000Y-128111285D01*
X118701428Y-128039857D01*
X119915714Y-126539857D02*
X119987142Y-126611285D01*
X120058571Y-126825571D01*
X120058571Y-126968428D01*
X119987142Y-127182714D01*
X119844285Y-127325571D01*
X119701428Y-127397000D01*
X119415714Y-127468428D01*
X119201428Y-127468428D01*
X118915714Y-127397000D01*
X118772857Y-127325571D01*
X118630000Y-127182714D01*
X118558571Y-126968428D01*
X118558571Y-126825571D01*
X118630000Y-126611285D01*
X118701428Y-126539857D01*
X116018571Y-130397000D02*
X117518571Y-129897000D01*
X116018571Y-129397000D01*
X117375714Y-128039857D02*
X117447142Y-128111285D01*
X117518571Y-128325571D01*
X117518571Y-128468428D01*
X117447142Y-128682714D01*
X117304285Y-128825571D01*
X117161428Y-128897000D01*
X116875714Y-128968428D01*
X116661428Y-128968428D01*
X116375714Y-128897000D01*
X116232857Y-128825571D01*
X116090000Y-128682714D01*
X116018571Y-128468428D01*
X116018571Y-128325571D01*
X116090000Y-128111285D01*
X116161428Y-128039857D01*
X117375714Y-126539857D02*
X117447142Y-126611285D01*
X117518571Y-126825571D01*
X117518571Y-126968428D01*
X117447142Y-127182714D01*
X117304285Y-127325571D01*
X117161428Y-127397000D01*
X116875714Y-127468428D01*
X116661428Y-127468428D01*
X116375714Y-127397000D01*
X116232857Y-127325571D01*
X116090000Y-127182714D01*
X116018571Y-126968428D01*
X116018571Y-126825571D01*
X116090000Y-126611285D01*
X116161428Y-126539857D01*
X113550000Y-129412857D02*
X113478571Y-129555714D01*
X113478571Y-129770000D01*
X113550000Y-129984285D01*
X113692857Y-130127142D01*
X113835714Y-130198571D01*
X114121428Y-130270000D01*
X114335714Y-130270000D01*
X114621428Y-130198571D01*
X114764285Y-130127142D01*
X114907142Y-129984285D01*
X114978571Y-129770000D01*
X114978571Y-129627142D01*
X114907142Y-129412857D01*
X114835714Y-129341428D01*
X114335714Y-129341428D01*
X114335714Y-129627142D01*
X114978571Y-128698571D02*
X113478571Y-128698571D01*
X114978571Y-127841428D01*
X113478571Y-127841428D01*
X114978571Y-127127142D02*
X113478571Y-127127142D01*
X113478571Y-126770000D01*
X113550000Y-126555714D01*
X113692857Y-126412857D01*
X113835714Y-126341428D01*
X114121428Y-126270000D01*
X114335714Y-126270000D01*
X114621428Y-126341428D01*
X114764285Y-126412857D01*
X114907142Y-126555714D01*
X114978571Y-126770000D01*
X114978571Y-127127142D01*
X111010000Y-129412857D02*
X110938571Y-129555714D01*
X110938571Y-129770000D01*
X111010000Y-129984285D01*
X111152857Y-130127142D01*
X111295714Y-130198571D01*
X111581428Y-130270000D01*
X111795714Y-130270000D01*
X112081428Y-130198571D01*
X112224285Y-130127142D01*
X112367142Y-129984285D01*
X112438571Y-129770000D01*
X112438571Y-129627142D01*
X112367142Y-129412857D01*
X112295714Y-129341428D01*
X111795714Y-129341428D01*
X111795714Y-129627142D01*
X112438571Y-128698571D02*
X110938571Y-128698571D01*
X112438571Y-127841428D01*
X110938571Y-127841428D01*
X112438571Y-127127142D02*
X110938571Y-127127142D01*
X110938571Y-126770000D01*
X111010000Y-126555714D01*
X111152857Y-126412857D01*
X111295714Y-126341428D01*
X111581428Y-126270000D01*
X111795714Y-126270000D01*
X112081428Y-126341428D01*
X112224285Y-126412857D01*
X112367142Y-126555714D01*
X112438571Y-126770000D01*
X112438571Y-127127142D01*
X109898571Y-130083571D02*
X108398571Y-130083571D01*
X109898571Y-129226428D01*
X108398571Y-129226428D01*
X109755714Y-127655000D02*
X109827142Y-127726428D01*
X109898571Y-127940714D01*
X109898571Y-128083571D01*
X109827142Y-128297857D01*
X109684285Y-128440714D01*
X109541428Y-128512142D01*
X109255714Y-128583571D01*
X109041428Y-128583571D01*
X108755714Y-128512142D01*
X108612857Y-128440714D01*
X108470000Y-128297857D01*
X108398571Y-128083571D01*
X108398571Y-127940714D01*
X108470000Y-127726428D01*
X108541428Y-127655000D01*
X104818571Y-130210571D02*
X103318571Y-130210571D01*
X104818571Y-129353428D01*
X103318571Y-129353428D01*
X104675714Y-127782000D02*
X104747142Y-127853428D01*
X104818571Y-128067714D01*
X104818571Y-128210571D01*
X104747142Y-128424857D01*
X104604285Y-128567714D01*
X104461428Y-128639142D01*
X104175714Y-128710571D01*
X103961428Y-128710571D01*
X103675714Y-128639142D01*
X103532857Y-128567714D01*
X103390000Y-128424857D01*
X103318571Y-128210571D01*
X103318571Y-128067714D01*
X103390000Y-127853428D01*
X103461428Y-127782000D01*
X99738571Y-130210571D02*
X98238571Y-130210571D01*
X99738571Y-129353428D01*
X98238571Y-129353428D01*
X99595714Y-127782000D02*
X99667142Y-127853428D01*
X99738571Y-128067714D01*
X99738571Y-128210571D01*
X99667142Y-128424857D01*
X99524285Y-128567714D01*
X99381428Y-128639142D01*
X99095714Y-128710571D01*
X98881428Y-128710571D01*
X98595714Y-128639142D01*
X98452857Y-128567714D01*
X98310000Y-128424857D01*
X98238571Y-128210571D01*
X98238571Y-128067714D01*
X98310000Y-127853428D01*
X98381428Y-127782000D01*
X107358571Y-130083428D02*
X105858571Y-130083428D01*
X105858571Y-129726285D01*
X105930000Y-129512000D01*
X106072857Y-129369142D01*
X106215714Y-129297714D01*
X106501428Y-129226285D01*
X106715714Y-129226285D01*
X107001428Y-129297714D01*
X107144285Y-129369142D01*
X107287142Y-129512000D01*
X107358571Y-129726285D01*
X107358571Y-130083428D01*
X107501428Y-128940571D02*
X107501428Y-127797714D01*
X107215714Y-126583428D02*
X107287142Y-126654857D01*
X107358571Y-126869142D01*
X107358571Y-127012000D01*
X107287142Y-127226285D01*
X107144285Y-127369142D01*
X107001428Y-127440571D01*
X106715714Y-127512000D01*
X106501428Y-127512000D01*
X106215714Y-127440571D01*
X106072857Y-127369142D01*
X105930000Y-127226285D01*
X105858571Y-127012000D01*
X105858571Y-126869142D01*
X105930000Y-126654857D01*
X106001428Y-126583428D01*
X107358571Y-125226285D02*
X107358571Y-125940571D01*
X105858571Y-125940571D01*
X102389714Y-129226285D02*
X102461142Y-129297714D01*
X102532571Y-129512000D01*
X102532571Y-129654857D01*
X102461142Y-129869142D01*
X102318285Y-130012000D01*
X102175428Y-130083428D01*
X101889714Y-130154857D01*
X101675428Y-130154857D01*
X101389714Y-130083428D01*
X101246857Y-130012000D01*
X101104000Y-129869142D01*
X101032571Y-129654857D01*
X101032571Y-129512000D01*
X101104000Y-129297714D01*
X101175428Y-129226285D01*
X102675428Y-128940571D02*
X102675428Y-127797714D01*
X102389714Y-126583428D02*
X102461142Y-126654857D01*
X102532571Y-126869142D01*
X102532571Y-127012000D01*
X102461142Y-127226285D01*
X102318285Y-127369142D01*
X102175428Y-127440571D01*
X101889714Y-127512000D01*
X101675428Y-127512000D01*
X101389714Y-127440571D01*
X101246857Y-127369142D01*
X101104000Y-127226285D01*
X101032571Y-127012000D01*
X101032571Y-126869142D01*
X101104000Y-126654857D01*
X101175428Y-126583428D01*
X102532571Y-125226285D02*
X102532571Y-125940571D01*
X101032571Y-125940571D01*
X97198571Y-129218428D02*
X96484285Y-129718428D01*
X97198571Y-130075571D02*
X95698571Y-130075571D01*
X95698571Y-129504142D01*
X95770000Y-129361285D01*
X95841428Y-129289857D01*
X95984285Y-129218428D01*
X96198571Y-129218428D01*
X96341428Y-129289857D01*
X96412857Y-129361285D01*
X96484285Y-129504142D01*
X96484285Y-130075571D01*
X97127142Y-128647000D02*
X97198571Y-128432714D01*
X97198571Y-128075571D01*
X97127142Y-127932714D01*
X97055714Y-127861285D01*
X96912857Y-127789857D01*
X96770000Y-127789857D01*
X96627142Y-127861285D01*
X96555714Y-127932714D01*
X96484285Y-128075571D01*
X96412857Y-128361285D01*
X96341428Y-128504142D01*
X96270000Y-128575571D01*
X96127142Y-128647000D01*
X95984285Y-128647000D01*
X95841428Y-128575571D01*
X95770000Y-128504142D01*
X95698571Y-128361285D01*
X95698571Y-128004142D01*
X95770000Y-127789857D01*
X95698571Y-127361285D02*
X95698571Y-126504142D01*
X97198571Y-126932714D02*
X95698571Y-126932714D01*
D15*
X172671619Y-132418666D02*
X173397333Y-132418666D01*
X173542476Y-132467047D01*
X173639238Y-132563809D01*
X173687619Y-132708952D01*
X173687619Y-132805714D01*
X172671619Y-131499428D02*
X172671619Y-131692952D01*
X172720000Y-131789714D01*
X172768380Y-131838095D01*
X172913523Y-131934857D01*
X173107047Y-131983238D01*
X173494095Y-131983238D01*
X173590857Y-131934857D01*
X173639238Y-131886476D01*
X173687619Y-131789714D01*
X173687619Y-131596190D01*
X173639238Y-131499428D01*
X173590857Y-131451047D01*
X173494095Y-131402666D01*
X173252190Y-131402666D01*
X173155428Y-131451047D01*
X173107047Y-131499428D01*
X173058666Y-131596190D01*
X173058666Y-131789714D01*
X173107047Y-131886476D01*
X173155428Y-131934857D01*
X173252190Y-131983238D01*
D16*
X169358571Y-129944714D02*
X169358571Y-129801857D01*
X169430000Y-129659000D01*
X169501428Y-129587571D01*
X169644285Y-129516142D01*
X169930000Y-129444714D01*
X170287142Y-129444714D01*
X170572857Y-129516142D01*
X170715714Y-129587571D01*
X170787142Y-129659000D01*
X170858571Y-129801857D01*
X170858571Y-129944714D01*
X170787142Y-130087571D01*
X170715714Y-130159000D01*
X170572857Y-130230428D01*
X170287142Y-130301857D01*
X169930000Y-130301857D01*
X169644285Y-130230428D01*
X169501428Y-130159000D01*
X169430000Y-130087571D01*
X169358571Y-129944714D01*
X169358571Y-128516142D02*
X169358571Y-128373285D01*
X169430000Y-128230428D01*
X169501428Y-128159000D01*
X169644285Y-128087571D01*
X169930000Y-128016142D01*
X170287142Y-128016142D01*
X170572857Y-128087571D01*
X170715714Y-128159000D01*
X170787142Y-128230428D01*
X170858571Y-128373285D01*
X170858571Y-128516142D01*
X170787142Y-128659000D01*
X170715714Y-128730428D01*
X170572857Y-128801857D01*
X170287142Y-128873285D01*
X169930000Y-128873285D01*
X169644285Y-128801857D01*
X169501428Y-128730428D01*
X169430000Y-128659000D01*
X169358571Y-128516142D01*
X166818571Y-129944714D02*
X166818571Y-129801857D01*
X166890000Y-129659000D01*
X166961428Y-129587571D01*
X167104285Y-129516142D01*
X167390000Y-129444714D01*
X167747142Y-129444714D01*
X168032857Y-129516142D01*
X168175714Y-129587571D01*
X168247142Y-129659000D01*
X168318571Y-129801857D01*
X168318571Y-129944714D01*
X168247142Y-130087571D01*
X168175714Y-130159000D01*
X168032857Y-130230428D01*
X167747142Y-130301857D01*
X167390000Y-130301857D01*
X167104285Y-130230428D01*
X166961428Y-130159000D01*
X166890000Y-130087571D01*
X166818571Y-129944714D01*
X168318571Y-128016142D02*
X168318571Y-128873285D01*
X168318571Y-128444714D02*
X166818571Y-128444714D01*
X167032857Y-128587571D01*
X167175714Y-128730428D01*
X167247142Y-128873285D01*
X164278571Y-129944714D02*
X164278571Y-129801857D01*
X164350000Y-129659000D01*
X164421428Y-129587571D01*
X164564285Y-129516142D01*
X164850000Y-129444714D01*
X165207142Y-129444714D01*
X165492857Y-129516142D01*
X165635714Y-129587571D01*
X165707142Y-129659000D01*
X165778571Y-129801857D01*
X165778571Y-129944714D01*
X165707142Y-130087571D01*
X165635714Y-130159000D01*
X165492857Y-130230428D01*
X165207142Y-130301857D01*
X164850000Y-130301857D01*
X164564285Y-130230428D01*
X164421428Y-130159000D01*
X164350000Y-130087571D01*
X164278571Y-129944714D01*
X164421428Y-128873285D02*
X164350000Y-128801857D01*
X164278571Y-128659000D01*
X164278571Y-128301857D01*
X164350000Y-128159000D01*
X164421428Y-128087571D01*
X164564285Y-128016142D01*
X164707142Y-128016142D01*
X164921428Y-128087571D01*
X165778571Y-128944714D01*
X165778571Y-128016142D01*
X161738571Y-129944714D02*
X161738571Y-129801857D01*
X161810000Y-129659000D01*
X161881428Y-129587571D01*
X162024285Y-129516142D01*
X162310000Y-129444714D01*
X162667142Y-129444714D01*
X162952857Y-129516142D01*
X163095714Y-129587571D01*
X163167142Y-129659000D01*
X163238571Y-129801857D01*
X163238571Y-129944714D01*
X163167142Y-130087571D01*
X163095714Y-130159000D01*
X162952857Y-130230428D01*
X162667142Y-130301857D01*
X162310000Y-130301857D01*
X162024285Y-130230428D01*
X161881428Y-130159000D01*
X161810000Y-130087571D01*
X161738571Y-129944714D01*
X161738571Y-128944714D02*
X161738571Y-128016142D01*
X162310000Y-128516142D01*
X162310000Y-128301857D01*
X162381428Y-128159000D01*
X162452857Y-128087571D01*
X162595714Y-128016142D01*
X162952857Y-128016142D01*
X163095714Y-128087571D01*
X163167142Y-128159000D01*
X163238571Y-128301857D01*
X163238571Y-128730428D01*
X163167142Y-128873285D01*
X163095714Y-128944714D01*
X159198571Y-129944714D02*
X159198571Y-129801857D01*
X159270000Y-129659000D01*
X159341428Y-129587571D01*
X159484285Y-129516142D01*
X159770000Y-129444714D01*
X160127142Y-129444714D01*
X160412857Y-129516142D01*
X160555714Y-129587571D01*
X160627142Y-129659000D01*
X160698571Y-129801857D01*
X160698571Y-129944714D01*
X160627142Y-130087571D01*
X160555714Y-130159000D01*
X160412857Y-130230428D01*
X160127142Y-130301857D01*
X159770000Y-130301857D01*
X159484285Y-130230428D01*
X159341428Y-130159000D01*
X159270000Y-130087571D01*
X159198571Y-129944714D01*
X159698571Y-128159000D02*
X160698571Y-128159000D01*
X159127142Y-128516142D02*
X160198571Y-128873285D01*
X160198571Y-127944714D01*
X156658571Y-129944714D02*
X156658571Y-129801857D01*
X156730000Y-129659000D01*
X156801428Y-129587571D01*
X156944285Y-129516142D01*
X157230000Y-129444714D01*
X157587142Y-129444714D01*
X157872857Y-129516142D01*
X158015714Y-129587571D01*
X158087142Y-129659000D01*
X158158571Y-129801857D01*
X158158571Y-129944714D01*
X158087142Y-130087571D01*
X158015714Y-130159000D01*
X157872857Y-130230428D01*
X157587142Y-130301857D01*
X157230000Y-130301857D01*
X156944285Y-130230428D01*
X156801428Y-130159000D01*
X156730000Y-130087571D01*
X156658571Y-129944714D01*
X156658571Y-128087571D02*
X156658571Y-128801857D01*
X157372857Y-128873285D01*
X157301428Y-128801857D01*
X157230000Y-128659000D01*
X157230000Y-128301857D01*
X157301428Y-128159000D01*
X157372857Y-128087571D01*
X157515714Y-128016142D01*
X157872857Y-128016142D01*
X158015714Y-128087571D01*
X158087142Y-128159000D01*
X158158571Y-128301857D01*
X158158571Y-128659000D01*
X158087142Y-128801857D01*
X158015714Y-128873285D01*
X154118571Y-129944714D02*
X154118571Y-129801857D01*
X154190000Y-129659000D01*
X154261428Y-129587571D01*
X154404285Y-129516142D01*
X154690000Y-129444714D01*
X155047142Y-129444714D01*
X155332857Y-129516142D01*
X155475714Y-129587571D01*
X155547142Y-129659000D01*
X155618571Y-129801857D01*
X155618571Y-129944714D01*
X155547142Y-130087571D01*
X155475714Y-130159000D01*
X155332857Y-130230428D01*
X155047142Y-130301857D01*
X154690000Y-130301857D01*
X154404285Y-130230428D01*
X154261428Y-130159000D01*
X154190000Y-130087571D01*
X154118571Y-129944714D01*
X154118571Y-128159000D02*
X154118571Y-128444714D01*
X154190000Y-128587571D01*
X154261428Y-128659000D01*
X154475714Y-128801857D01*
X154761428Y-128873285D01*
X155332857Y-128873285D01*
X155475714Y-128801857D01*
X155547142Y-128730428D01*
X155618571Y-128587571D01*
X155618571Y-128301857D01*
X155547142Y-128159000D01*
X155475714Y-128087571D01*
X155332857Y-128016142D01*
X154975714Y-128016142D01*
X154832857Y-128087571D01*
X154761428Y-128159000D01*
X154690000Y-128301857D01*
X154690000Y-128587571D01*
X154761428Y-128730428D01*
X154832857Y-128801857D01*
X154975714Y-128873285D01*
X151578571Y-129944714D02*
X151578571Y-129801857D01*
X151650000Y-129659000D01*
X151721428Y-129587571D01*
X151864285Y-129516142D01*
X152150000Y-129444714D01*
X152507142Y-129444714D01*
X152792857Y-129516142D01*
X152935714Y-129587571D01*
X153007142Y-129659000D01*
X153078571Y-129801857D01*
X153078571Y-129944714D01*
X153007142Y-130087571D01*
X152935714Y-130159000D01*
X152792857Y-130230428D01*
X152507142Y-130301857D01*
X152150000Y-130301857D01*
X151864285Y-130230428D01*
X151721428Y-130159000D01*
X151650000Y-130087571D01*
X151578571Y-129944714D01*
X151578571Y-128944714D02*
X151578571Y-127944714D01*
X153078571Y-128587571D01*
X149038571Y-129944714D02*
X149038571Y-129801857D01*
X149110000Y-129659000D01*
X149181428Y-129587571D01*
X149324285Y-129516142D01*
X149610000Y-129444714D01*
X149967142Y-129444714D01*
X150252857Y-129516142D01*
X150395714Y-129587571D01*
X150467142Y-129659000D01*
X150538571Y-129801857D01*
X150538571Y-129944714D01*
X150467142Y-130087571D01*
X150395714Y-130159000D01*
X150252857Y-130230428D01*
X149967142Y-130301857D01*
X149610000Y-130301857D01*
X149324285Y-130230428D01*
X149181428Y-130159000D01*
X149110000Y-130087571D01*
X149038571Y-129944714D01*
X149681428Y-128587571D02*
X149610000Y-128730428D01*
X149538571Y-128801857D01*
X149395714Y-128873285D01*
X149324285Y-128873285D01*
X149181428Y-128801857D01*
X149110000Y-128730428D01*
X149038571Y-128587571D01*
X149038571Y-128301857D01*
X149110000Y-128159000D01*
X149181428Y-128087571D01*
X149324285Y-128016142D01*
X149395714Y-128016142D01*
X149538571Y-128087571D01*
X149610000Y-128159000D01*
X149681428Y-128301857D01*
X149681428Y-128587571D01*
X149752857Y-128730428D01*
X149824285Y-128801857D01*
X149967142Y-128873285D01*
X150252857Y-128873285D01*
X150395714Y-128801857D01*
X150467142Y-128730428D01*
X150538571Y-128587571D01*
X150538571Y-128301857D01*
X150467142Y-128159000D01*
X150395714Y-128087571D01*
X150252857Y-128016142D01*
X149967142Y-128016142D01*
X149824285Y-128087571D01*
X149752857Y-128159000D01*
X149681428Y-128301857D01*
X146498571Y-129944714D02*
X146498571Y-129801857D01*
X146570000Y-129659000D01*
X146641428Y-129587571D01*
X146784285Y-129516142D01*
X147070000Y-129444714D01*
X147427142Y-129444714D01*
X147712857Y-129516142D01*
X147855714Y-129587571D01*
X147927142Y-129659000D01*
X147998571Y-129801857D01*
X147998571Y-129944714D01*
X147927142Y-130087571D01*
X147855714Y-130159000D01*
X147712857Y-130230428D01*
X147427142Y-130301857D01*
X147070000Y-130301857D01*
X146784285Y-130230428D01*
X146641428Y-130159000D01*
X146570000Y-130087571D01*
X146498571Y-129944714D01*
X147998571Y-128730428D02*
X147998571Y-128444714D01*
X147927142Y-128301857D01*
X147855714Y-128230428D01*
X147641428Y-128087571D01*
X147355714Y-128016142D01*
X146784285Y-128016142D01*
X146641428Y-128087571D01*
X146570000Y-128159000D01*
X146498571Y-128301857D01*
X146498571Y-128587571D01*
X146570000Y-128730428D01*
X146641428Y-128801857D01*
X146784285Y-128873285D01*
X147141428Y-128873285D01*
X147284285Y-128801857D01*
X147355714Y-128730428D01*
X147427142Y-128587571D01*
X147427142Y-128301857D01*
X147355714Y-128159000D01*
X147284285Y-128087571D01*
X147141428Y-128016142D01*
X145458571Y-129444714D02*
X145458571Y-130301857D01*
X145458571Y-129873285D02*
X143958571Y-129873285D01*
X144172857Y-130016142D01*
X144315714Y-130159000D01*
X144387142Y-130301857D01*
X143958571Y-128516142D02*
X143958571Y-128373285D01*
X144030000Y-128230428D01*
X144101428Y-128159000D01*
X144244285Y-128087571D01*
X144530000Y-128016142D01*
X144887142Y-128016142D01*
X145172857Y-128087571D01*
X145315714Y-128159000D01*
X145387142Y-128230428D01*
X145458571Y-128373285D01*
X145458571Y-128516142D01*
X145387142Y-128659000D01*
X145315714Y-128730428D01*
X145172857Y-128801857D01*
X144887142Y-128873285D01*
X144530000Y-128873285D01*
X144244285Y-128801857D01*
X144101428Y-128730428D01*
X144030000Y-128659000D01*
X143958571Y-128516142D01*
X142918571Y-129444714D02*
X142918571Y-130301857D01*
X142918571Y-129873285D02*
X141418571Y-129873285D01*
X141632857Y-130016142D01*
X141775714Y-130159000D01*
X141847142Y-130301857D01*
X142918571Y-128016142D02*
X142918571Y-128873285D01*
X142918571Y-128444714D02*
X141418571Y-128444714D01*
X141632857Y-128587571D01*
X141775714Y-128730428D01*
X141847142Y-128873285D01*
X140378571Y-129444714D02*
X140378571Y-130301857D01*
X140378571Y-129873285D02*
X138878571Y-129873285D01*
X139092857Y-130016142D01*
X139235714Y-130159000D01*
X139307142Y-130301857D01*
X139021428Y-128873285D02*
X138950000Y-128801857D01*
X138878571Y-128659000D01*
X138878571Y-128301857D01*
X138950000Y-128159000D01*
X139021428Y-128087571D01*
X139164285Y-128016142D01*
X139307142Y-128016142D01*
X139521428Y-128087571D01*
X140378571Y-128944714D01*
X140378571Y-128016142D01*
X137838571Y-129444714D02*
X137838571Y-130301857D01*
X137838571Y-129873285D02*
X136338571Y-129873285D01*
X136552857Y-130016142D01*
X136695714Y-130159000D01*
X136767142Y-130301857D01*
X136338571Y-128944714D02*
X136338571Y-128016142D01*
X136910000Y-128516142D01*
X136910000Y-128301857D01*
X136981428Y-128159000D01*
X137052857Y-128087571D01*
X137195714Y-128016142D01*
X137552857Y-128016142D01*
X137695714Y-128087571D01*
X137767142Y-128159000D01*
X137838571Y-128301857D01*
X137838571Y-128730428D01*
X137767142Y-128873285D01*
X137695714Y-128944714D01*
X135298571Y-129444714D02*
X135298571Y-130301857D01*
X135298571Y-129873285D02*
X133798571Y-129873285D01*
X134012857Y-130016142D01*
X134155714Y-130159000D01*
X134227142Y-130301857D01*
X134298571Y-128159000D02*
X135298571Y-128159000D01*
X133727142Y-128516142D02*
X134798571Y-128873285D01*
X134798571Y-127944714D01*
X132758571Y-129444714D02*
X132758571Y-130301857D01*
X132758571Y-129873285D02*
X131258571Y-129873285D01*
X131472857Y-130016142D01*
X131615714Y-130159000D01*
X131687142Y-130301857D01*
X131258571Y-128087571D02*
X131258571Y-128801857D01*
X131972857Y-128873285D01*
X131901428Y-128801857D01*
X131830000Y-128659000D01*
X131830000Y-128301857D01*
X131901428Y-128159000D01*
X131972857Y-128087571D01*
X132115714Y-128016142D01*
X132472857Y-128016142D01*
X132615714Y-128087571D01*
X132687142Y-128159000D01*
X132758571Y-128301857D01*
X132758571Y-128659000D01*
X132687142Y-128801857D01*
X132615714Y-128873285D01*
D15*
X120930857Y-122871333D02*
X120979238Y-122919714D01*
X121027619Y-123064857D01*
X121027619Y-123161619D01*
X120979238Y-123306761D01*
X120882476Y-123403523D01*
X120785714Y-123451904D01*
X120592190Y-123500285D01*
X120447047Y-123500285D01*
X120253523Y-123451904D01*
X120156761Y-123403523D01*
X120060000Y-123306761D01*
X120011619Y-123161619D01*
X120011619Y-123064857D01*
X120060000Y-122919714D01*
X120108380Y-122871333D01*
X120447047Y-122290761D02*
X120398666Y-122387523D01*
X120350285Y-122435904D01*
X120253523Y-122484285D01*
X120205142Y-122484285D01*
X120108380Y-122435904D01*
X120060000Y-122387523D01*
X120011619Y-122290761D01*
X120011619Y-122097238D01*
X120060000Y-122000476D01*
X120108380Y-121952095D01*
X120205142Y-121903714D01*
X120253523Y-121903714D01*
X120350285Y-121952095D01*
X120398666Y-122000476D01*
X120447047Y-122097238D01*
X120447047Y-122290761D01*
X120495428Y-122387523D01*
X120543809Y-122435904D01*
X120640571Y-122484285D01*
X120834095Y-122484285D01*
X120930857Y-122435904D01*
X120979238Y-122387523D01*
X121027619Y-122290761D01*
X121027619Y-122097238D01*
X120979238Y-122000476D01*
X120930857Y-121952095D01*
X120834095Y-121903714D01*
X120640571Y-121903714D01*
X120543809Y-121952095D01*
X120495428Y-122000476D01*
X120447047Y-122097238D01*
X176566285Y-53219619D02*
X176566285Y-52203619D01*
X176808190Y-52203619D01*
X176953333Y-52252000D01*
X177050095Y-52348761D01*
X177098476Y-52445523D01*
X177146857Y-52639047D01*
X177146857Y-52784190D01*
X177098476Y-52977714D01*
X177050095Y-53074476D01*
X176953333Y-53171238D01*
X176808190Y-53219619D01*
X176566285Y-53219619D01*
X178114476Y-53219619D02*
X177533904Y-53219619D01*
X177824190Y-53219619D02*
X177824190Y-52203619D01*
X177727428Y-52348761D01*
X177630666Y-52445523D01*
X177533904Y-52493904D01*
X178985333Y-52203619D02*
X178791809Y-52203619D01*
X178695047Y-52252000D01*
X178646666Y-52300380D01*
X178549904Y-52445523D01*
X178501523Y-52639047D01*
X178501523Y-53026095D01*
X178549904Y-53122857D01*
X178598285Y-53171238D01*
X178695047Y-53219619D01*
X178888571Y-53219619D01*
X178985333Y-53171238D01*
X179033714Y-53122857D01*
X179082095Y-53026095D01*
X179082095Y-52784190D01*
X179033714Y-52687428D01*
X178985333Y-52639047D01*
X178888571Y-52590666D01*
X178695047Y-52590666D01*
X178598285Y-52639047D01*
X178549904Y-52687428D01*
X178501523Y-52784190D01*
X182916285Y-53219619D02*
X182916285Y-52203619D01*
X183158190Y-52203619D01*
X183303333Y-52252000D01*
X183400095Y-52348761D01*
X183448476Y-52445523D01*
X183496857Y-52639047D01*
X183496857Y-52784190D01*
X183448476Y-52977714D01*
X183400095Y-53074476D01*
X183303333Y-53171238D01*
X183158190Y-53219619D01*
X182916285Y-53219619D01*
X184464476Y-53219619D02*
X183883904Y-53219619D01*
X184174190Y-53219619D02*
X184174190Y-52203619D01*
X184077428Y-52348761D01*
X183980666Y-52445523D01*
X183883904Y-52493904D01*
X185383714Y-52203619D02*
X184899904Y-52203619D01*
X184851523Y-52687428D01*
X184899904Y-52639047D01*
X184996666Y-52590666D01*
X185238571Y-52590666D01*
X185335333Y-52639047D01*
X185383714Y-52687428D01*
X185432095Y-52784190D01*
X185432095Y-53026095D01*
X185383714Y-53122857D01*
X185335333Y-53171238D01*
X185238571Y-53219619D01*
X184996666Y-53219619D01*
X184899904Y-53171238D01*
X184851523Y-53122857D01*
X189266285Y-53219619D02*
X189266285Y-52203619D01*
X189508190Y-52203619D01*
X189653333Y-52252000D01*
X189750095Y-52348761D01*
X189798476Y-52445523D01*
X189846857Y-52639047D01*
X189846857Y-52784190D01*
X189798476Y-52977714D01*
X189750095Y-53074476D01*
X189653333Y-53171238D01*
X189508190Y-53219619D01*
X189266285Y-53219619D01*
X190814476Y-53219619D02*
X190233904Y-53219619D01*
X190524190Y-53219619D02*
X190524190Y-52203619D01*
X190427428Y-52348761D01*
X190330666Y-52445523D01*
X190233904Y-52493904D01*
X191685333Y-52542285D02*
X191685333Y-53219619D01*
X191443428Y-52155238D02*
X191201523Y-52880952D01*
X191830476Y-52880952D01*
X195616285Y-53219619D02*
X195616285Y-52203619D01*
X195858190Y-52203619D01*
X196003333Y-52252000D01*
X196100095Y-52348761D01*
X196148476Y-52445523D01*
X196196857Y-52639047D01*
X196196857Y-52784190D01*
X196148476Y-52977714D01*
X196100095Y-53074476D01*
X196003333Y-53171238D01*
X195858190Y-53219619D01*
X195616285Y-53219619D01*
X197164476Y-53219619D02*
X196583904Y-53219619D01*
X196874190Y-53219619D02*
X196874190Y-52203619D01*
X196777428Y-52348761D01*
X196680666Y-52445523D01*
X196583904Y-52493904D01*
X197503142Y-52203619D02*
X198132095Y-52203619D01*
X197793428Y-52590666D01*
X197938571Y-52590666D01*
X198035333Y-52639047D01*
X198083714Y-52687428D01*
X198132095Y-52784190D01*
X198132095Y-53026095D01*
X198083714Y-53122857D01*
X198035333Y-53171238D01*
X197938571Y-53219619D01*
X197648285Y-53219619D01*
X197551523Y-53171238D01*
X197503142Y-53122857D01*
X201966285Y-53219619D02*
X201966285Y-52203619D01*
X202208190Y-52203619D01*
X202353333Y-52252000D01*
X202450095Y-52348761D01*
X202498476Y-52445523D01*
X202546857Y-52639047D01*
X202546857Y-52784190D01*
X202498476Y-52977714D01*
X202450095Y-53074476D01*
X202353333Y-53171238D01*
X202208190Y-53219619D01*
X201966285Y-53219619D01*
X203514476Y-53219619D02*
X202933904Y-53219619D01*
X203224190Y-53219619D02*
X203224190Y-52203619D01*
X203127428Y-52348761D01*
X203030666Y-52445523D01*
X202933904Y-52493904D01*
X203901523Y-52300380D02*
X203949904Y-52252000D01*
X204046666Y-52203619D01*
X204288571Y-52203619D01*
X204385333Y-52252000D01*
X204433714Y-52300380D01*
X204482095Y-52397142D01*
X204482095Y-52493904D01*
X204433714Y-52639047D01*
X203853142Y-53219619D01*
X204482095Y-53219619D01*
X208316285Y-53219619D02*
X208316285Y-52203619D01*
X208558190Y-52203619D01*
X208703333Y-52252000D01*
X208800095Y-52348761D01*
X208848476Y-52445523D01*
X208896857Y-52639047D01*
X208896857Y-52784190D01*
X208848476Y-52977714D01*
X208800095Y-53074476D01*
X208703333Y-53171238D01*
X208558190Y-53219619D01*
X208316285Y-53219619D01*
X209864476Y-53219619D02*
X209283904Y-53219619D01*
X209574190Y-53219619D02*
X209574190Y-52203619D01*
X209477428Y-52348761D01*
X209380666Y-52445523D01*
X209283904Y-52493904D01*
X210832095Y-53219619D02*
X210251523Y-53219619D01*
X210541809Y-53219619D02*
X210541809Y-52203619D01*
X210445047Y-52348761D01*
X210348285Y-52445523D01*
X210251523Y-52493904D01*
X214666285Y-53219619D02*
X214666285Y-52203619D01*
X214908190Y-52203619D01*
X215053333Y-52252000D01*
X215150095Y-52348761D01*
X215198476Y-52445523D01*
X215246857Y-52639047D01*
X215246857Y-52784190D01*
X215198476Y-52977714D01*
X215150095Y-53074476D01*
X215053333Y-53171238D01*
X214908190Y-53219619D01*
X214666285Y-53219619D01*
X216214476Y-53219619D02*
X215633904Y-53219619D01*
X215924190Y-53219619D02*
X215924190Y-52203619D01*
X215827428Y-52348761D01*
X215730666Y-52445523D01*
X215633904Y-52493904D01*
X216843428Y-52203619D02*
X216940190Y-52203619D01*
X217036952Y-52252000D01*
X217085333Y-52300380D01*
X217133714Y-52397142D01*
X217182095Y-52590666D01*
X217182095Y-52832571D01*
X217133714Y-53026095D01*
X217085333Y-53122857D01*
X217036952Y-53171238D01*
X216940190Y-53219619D01*
X216843428Y-53219619D01*
X216746666Y-53171238D01*
X216698285Y-53122857D01*
X216649904Y-53026095D01*
X216601523Y-52832571D01*
X216601523Y-52590666D01*
X216649904Y-52397142D01*
X216698285Y-52300380D01*
X216746666Y-52252000D01*
X216843428Y-52203619D01*
X221500095Y-53219619D02*
X221500095Y-52203619D01*
X221742000Y-52203619D01*
X221887142Y-52252000D01*
X221983904Y-52348761D01*
X222032285Y-52445523D01*
X222080666Y-52639047D01*
X222080666Y-52784190D01*
X222032285Y-52977714D01*
X221983904Y-53074476D01*
X221887142Y-53171238D01*
X221742000Y-53219619D01*
X221500095Y-53219619D01*
X222564476Y-53219619D02*
X222758000Y-53219619D01*
X222854761Y-53171238D01*
X222903142Y-53122857D01*
X222999904Y-52977714D01*
X223048285Y-52784190D01*
X223048285Y-52397142D01*
X222999904Y-52300380D01*
X222951523Y-52252000D01*
X222854761Y-52203619D01*
X222661238Y-52203619D01*
X222564476Y-52252000D01*
X222516095Y-52300380D01*
X222467714Y-52397142D01*
X222467714Y-52639047D01*
X222516095Y-52735809D01*
X222564476Y-52784190D01*
X222661238Y-52832571D01*
X222854761Y-52832571D01*
X222951523Y-52784190D01*
X222999904Y-52735809D01*
X223048285Y-52639047D01*
X227850095Y-53219619D02*
X227850095Y-52203619D01*
X228092000Y-52203619D01*
X228237142Y-52252000D01*
X228333904Y-52348761D01*
X228382285Y-52445523D01*
X228430666Y-52639047D01*
X228430666Y-52784190D01*
X228382285Y-52977714D01*
X228333904Y-53074476D01*
X228237142Y-53171238D01*
X228092000Y-53219619D01*
X227850095Y-53219619D01*
X229011238Y-52639047D02*
X228914476Y-52590666D01*
X228866095Y-52542285D01*
X228817714Y-52445523D01*
X228817714Y-52397142D01*
X228866095Y-52300380D01*
X228914476Y-52252000D01*
X229011238Y-52203619D01*
X229204761Y-52203619D01*
X229301523Y-52252000D01*
X229349904Y-52300380D01*
X229398285Y-52397142D01*
X229398285Y-52445523D01*
X229349904Y-52542285D01*
X229301523Y-52590666D01*
X229204761Y-52639047D01*
X229011238Y-52639047D01*
X228914476Y-52687428D01*
X228866095Y-52735809D01*
X228817714Y-52832571D01*
X228817714Y-53026095D01*
X228866095Y-53122857D01*
X228914476Y-53171238D01*
X229011238Y-53219619D01*
X229204761Y-53219619D01*
X229301523Y-53171238D01*
X229349904Y-53122857D01*
X229398285Y-53026095D01*
X229398285Y-52832571D01*
X229349904Y-52735809D01*
X229301523Y-52687428D01*
X229204761Y-52639047D01*
X234200095Y-53219619D02*
X234200095Y-52203619D01*
X234442000Y-52203619D01*
X234587142Y-52252000D01*
X234683904Y-52348761D01*
X234732285Y-52445523D01*
X234780666Y-52639047D01*
X234780666Y-52784190D01*
X234732285Y-52977714D01*
X234683904Y-53074476D01*
X234587142Y-53171238D01*
X234442000Y-53219619D01*
X234200095Y-53219619D01*
X235119333Y-52203619D02*
X235796666Y-52203619D01*
X235361238Y-53219619D01*
X240550095Y-53219619D02*
X240550095Y-52203619D01*
X240792000Y-52203619D01*
X240937142Y-52252000D01*
X241033904Y-52348761D01*
X241082285Y-52445523D01*
X241130666Y-52639047D01*
X241130666Y-52784190D01*
X241082285Y-52977714D01*
X241033904Y-53074476D01*
X240937142Y-53171238D01*
X240792000Y-53219619D01*
X240550095Y-53219619D01*
X242001523Y-52203619D02*
X241808000Y-52203619D01*
X241711238Y-52252000D01*
X241662857Y-52300380D01*
X241566095Y-52445523D01*
X241517714Y-52639047D01*
X241517714Y-53026095D01*
X241566095Y-53122857D01*
X241614476Y-53171238D01*
X241711238Y-53219619D01*
X241904761Y-53219619D01*
X242001523Y-53171238D01*
X242049904Y-53122857D01*
X242098285Y-53026095D01*
X242098285Y-52784190D01*
X242049904Y-52687428D01*
X242001523Y-52639047D01*
X241904761Y-52590666D01*
X241711238Y-52590666D01*
X241614476Y-52639047D01*
X241566095Y-52687428D01*
X241517714Y-52784190D01*
X246900095Y-53219619D02*
X246900095Y-52203619D01*
X247142000Y-52203619D01*
X247287142Y-52252000D01*
X247383904Y-52348761D01*
X247432285Y-52445523D01*
X247480666Y-52639047D01*
X247480666Y-52784190D01*
X247432285Y-52977714D01*
X247383904Y-53074476D01*
X247287142Y-53171238D01*
X247142000Y-53219619D01*
X246900095Y-53219619D01*
X248399904Y-52203619D02*
X247916095Y-52203619D01*
X247867714Y-52687428D01*
X247916095Y-52639047D01*
X248012857Y-52590666D01*
X248254761Y-52590666D01*
X248351523Y-52639047D01*
X248399904Y-52687428D01*
X248448285Y-52784190D01*
X248448285Y-53026095D01*
X248399904Y-53122857D01*
X248351523Y-53171238D01*
X248254761Y-53219619D01*
X248012857Y-53219619D01*
X247916095Y-53171238D01*
X247867714Y-53122857D01*
X253250095Y-53219619D02*
X253250095Y-52203619D01*
X253492000Y-52203619D01*
X253637142Y-52252000D01*
X253733904Y-52348761D01*
X253782285Y-52445523D01*
X253830666Y-52639047D01*
X253830666Y-52784190D01*
X253782285Y-52977714D01*
X253733904Y-53074476D01*
X253637142Y-53171238D01*
X253492000Y-53219619D01*
X253250095Y-53219619D01*
X254701523Y-52542285D02*
X254701523Y-53219619D01*
X254459619Y-52155238D02*
X254217714Y-52880952D01*
X254846666Y-52880952D01*
X259600095Y-53219619D02*
X259600095Y-52203619D01*
X259842000Y-52203619D01*
X259987142Y-52252000D01*
X260083904Y-52348761D01*
X260132285Y-52445523D01*
X260180666Y-52639047D01*
X260180666Y-52784190D01*
X260132285Y-52977714D01*
X260083904Y-53074476D01*
X259987142Y-53171238D01*
X259842000Y-53219619D01*
X259600095Y-53219619D01*
X260519333Y-52203619D02*
X261148285Y-52203619D01*
X260809619Y-52590666D01*
X260954761Y-52590666D01*
X261051523Y-52639047D01*
X261099904Y-52687428D01*
X261148285Y-52784190D01*
X261148285Y-53026095D01*
X261099904Y-53122857D01*
X261051523Y-53171238D01*
X260954761Y-53219619D01*
X260664476Y-53219619D01*
X260567714Y-53171238D01*
X260519333Y-53122857D01*
X265950095Y-53219619D02*
X265950095Y-52203619D01*
X266192000Y-52203619D01*
X266337142Y-52252000D01*
X266433904Y-52348761D01*
X266482285Y-52445523D01*
X266530666Y-52639047D01*
X266530666Y-52784190D01*
X266482285Y-52977714D01*
X266433904Y-53074476D01*
X266337142Y-53171238D01*
X266192000Y-53219619D01*
X265950095Y-53219619D01*
X266917714Y-52300380D02*
X266966095Y-52252000D01*
X267062857Y-52203619D01*
X267304761Y-52203619D01*
X267401523Y-52252000D01*
X267449904Y-52300380D01*
X267498285Y-52397142D01*
X267498285Y-52493904D01*
X267449904Y-52639047D01*
X266869333Y-53219619D01*
X267498285Y-53219619D01*
X272300095Y-53219619D02*
X272300095Y-52203619D01*
X272542000Y-52203619D01*
X272687142Y-52252000D01*
X272783904Y-52348761D01*
X272832285Y-52445523D01*
X272880666Y-52639047D01*
X272880666Y-52784190D01*
X272832285Y-52977714D01*
X272783904Y-53074476D01*
X272687142Y-53171238D01*
X272542000Y-53219619D01*
X272300095Y-53219619D01*
X273848285Y-53219619D02*
X273267714Y-53219619D01*
X273558000Y-53219619D02*
X273558000Y-52203619D01*
X273461238Y-52348761D01*
X273364476Y-52445523D01*
X273267714Y-52493904D01*
X230793619Y-75704095D02*
X231616095Y-75704095D01*
X231712857Y-75655714D01*
X231761238Y-75607333D01*
X231809619Y-75510571D01*
X231809619Y-75317047D01*
X231761238Y-75220285D01*
X231712857Y-75171904D01*
X231616095Y-75123523D01*
X230793619Y-75123523D01*
X230793619Y-74736476D02*
X230793619Y-74059142D01*
X231809619Y-74494571D01*
X258313619Y-78631142D02*
X258313619Y-77953809D01*
X259329619Y-78389238D01*
X258652285Y-77131333D02*
X259329619Y-77131333D01*
X258265238Y-77373238D02*
X258990952Y-77615142D01*
X258990952Y-76986190D01*
X259329619Y-76599142D02*
X258313619Y-76599142D01*
X258797428Y-76599142D02*
X258797428Y-76018571D01*
X259329619Y-76018571D02*
X258313619Y-76018571D01*
X259232857Y-74954190D02*
X259281238Y-75002571D01*
X259329619Y-75147714D01*
X259329619Y-75244476D01*
X259281238Y-75389619D01*
X259184476Y-75486380D01*
X259087714Y-75534761D01*
X258894190Y-75583142D01*
X258749047Y-75583142D01*
X258555523Y-75534761D01*
X258458761Y-75486380D01*
X258362000Y-75389619D01*
X258313619Y-75244476D01*
X258313619Y-75147714D01*
X258362000Y-75002571D01*
X258410380Y-74954190D01*
X258313619Y-74663904D02*
X258313619Y-74083333D01*
X259329619Y-74373619D02*
X258313619Y-74373619D01*
X258410380Y-73793047D02*
X258362000Y-73744666D01*
X258313619Y-73647904D01*
X258313619Y-73406000D01*
X258362000Y-73309238D01*
X258410380Y-73260857D01*
X258507142Y-73212476D01*
X258603904Y-73212476D01*
X258749047Y-73260857D01*
X259329619Y-73841428D01*
X259329619Y-73212476D01*
X258652285Y-72341619D02*
X259329619Y-72341619D01*
X258265238Y-72583523D02*
X258990952Y-72825428D01*
X258990952Y-72196476D01*
X258313619Y-71325619D02*
X258313619Y-71809428D01*
X258797428Y-71857809D01*
X258749047Y-71809428D01*
X258700666Y-71712666D01*
X258700666Y-71470761D01*
X258749047Y-71374000D01*
X258797428Y-71325619D01*
X258894190Y-71277238D01*
X259136095Y-71277238D01*
X259232857Y-71325619D01*
X259281238Y-71374000D01*
X259329619Y-71470761D01*
X259329619Y-71712666D01*
X259281238Y-71809428D01*
X259232857Y-71857809D01*
X192693619Y-75704095D02*
X193516095Y-75704095D01*
X193612857Y-75655714D01*
X193661238Y-75607333D01*
X193709619Y-75510571D01*
X193709619Y-75317047D01*
X193661238Y-75220285D01*
X193612857Y-75171904D01*
X193516095Y-75123523D01*
X192693619Y-75123523D01*
X192693619Y-74204285D02*
X192693619Y-74397809D01*
X192742000Y-74494571D01*
X192790380Y-74542952D01*
X192935523Y-74639714D01*
X193129047Y-74688095D01*
X193516095Y-74688095D01*
X193612857Y-74639714D01*
X193661238Y-74591333D01*
X193709619Y-74494571D01*
X193709619Y-74301047D01*
X193661238Y-74204285D01*
X193612857Y-74155904D01*
X193516095Y-74107523D01*
X193274190Y-74107523D01*
X193177428Y-74155904D01*
X193129047Y-74204285D01*
X193080666Y-74301047D01*
X193080666Y-74494571D01*
X193129047Y-74591333D01*
X193177428Y-74639714D01*
X193274190Y-74688095D01*
X220213619Y-78631142D02*
X220213619Y-77953809D01*
X221229619Y-78389238D01*
X220552285Y-77131333D02*
X221229619Y-77131333D01*
X220165238Y-77373238D02*
X220890952Y-77615142D01*
X220890952Y-76986190D01*
X221229619Y-76599142D02*
X220213619Y-76599142D01*
X220697428Y-76599142D02*
X220697428Y-76018571D01*
X221229619Y-76018571D02*
X220213619Y-76018571D01*
X221132857Y-74954190D02*
X221181238Y-75002571D01*
X221229619Y-75147714D01*
X221229619Y-75244476D01*
X221181238Y-75389619D01*
X221084476Y-75486380D01*
X220987714Y-75534761D01*
X220794190Y-75583142D01*
X220649047Y-75583142D01*
X220455523Y-75534761D01*
X220358761Y-75486380D01*
X220262000Y-75389619D01*
X220213619Y-75244476D01*
X220213619Y-75147714D01*
X220262000Y-75002571D01*
X220310380Y-74954190D01*
X220213619Y-74663904D02*
X220213619Y-74083333D01*
X221229619Y-74373619D02*
X220213619Y-74373619D01*
X220310380Y-73793047D02*
X220262000Y-73744666D01*
X220213619Y-73647904D01*
X220213619Y-73406000D01*
X220262000Y-73309238D01*
X220310380Y-73260857D01*
X220407142Y-73212476D01*
X220503904Y-73212476D01*
X220649047Y-73260857D01*
X221229619Y-73841428D01*
X221229619Y-73212476D01*
X220552285Y-72341619D02*
X221229619Y-72341619D01*
X220165238Y-72583523D02*
X220890952Y-72825428D01*
X220890952Y-72196476D01*
X220213619Y-71325619D02*
X220213619Y-71809428D01*
X220697428Y-71857809D01*
X220649047Y-71809428D01*
X220600666Y-71712666D01*
X220600666Y-71470761D01*
X220649047Y-71374000D01*
X220697428Y-71325619D01*
X220794190Y-71277238D01*
X221036095Y-71277238D01*
X221132857Y-71325619D01*
X221181238Y-71374000D01*
X221229619Y-71470761D01*
X221229619Y-71712666D01*
X221181238Y-71809428D01*
X221132857Y-71857809D01*
X228253619Y-103644095D02*
X229076095Y-103644095D01*
X229172857Y-103595714D01*
X229221238Y-103547333D01*
X229269619Y-103450571D01*
X229269619Y-103257047D01*
X229221238Y-103160285D01*
X229172857Y-103111904D01*
X229076095Y-103063523D01*
X228253619Y-103063523D01*
X228253619Y-102095904D02*
X228253619Y-102579714D01*
X228737428Y-102628095D01*
X228689047Y-102579714D01*
X228640666Y-102482952D01*
X228640666Y-102241047D01*
X228689047Y-102144285D01*
X228737428Y-102095904D01*
X228834190Y-102047523D01*
X229076095Y-102047523D01*
X229172857Y-102095904D01*
X229221238Y-102144285D01*
X229269619Y-102241047D01*
X229269619Y-102482952D01*
X229221238Y-102579714D01*
X229172857Y-102628095D01*
X255773619Y-106571142D02*
X255773619Y-105893809D01*
X256789619Y-106329238D01*
X256112285Y-105071333D02*
X256789619Y-105071333D01*
X255725238Y-105313238D02*
X256450952Y-105555142D01*
X256450952Y-104926190D01*
X256789619Y-104539142D02*
X255773619Y-104539142D01*
X256257428Y-104539142D02*
X256257428Y-103958571D01*
X256789619Y-103958571D02*
X255773619Y-103958571D01*
X256692857Y-102894190D02*
X256741238Y-102942571D01*
X256789619Y-103087714D01*
X256789619Y-103184476D01*
X256741238Y-103329619D01*
X256644476Y-103426380D01*
X256547714Y-103474761D01*
X256354190Y-103523142D01*
X256209047Y-103523142D01*
X256015523Y-103474761D01*
X255918761Y-103426380D01*
X255822000Y-103329619D01*
X255773619Y-103184476D01*
X255773619Y-103087714D01*
X255822000Y-102942571D01*
X255870380Y-102894190D01*
X255773619Y-102603904D02*
X255773619Y-102023333D01*
X256789619Y-102313619D02*
X255773619Y-102313619D01*
X255870380Y-101733047D02*
X255822000Y-101684666D01*
X255773619Y-101587904D01*
X255773619Y-101346000D01*
X255822000Y-101249238D01*
X255870380Y-101200857D01*
X255967142Y-101152476D01*
X256063904Y-101152476D01*
X256209047Y-101200857D01*
X256789619Y-101781428D01*
X256789619Y-101152476D01*
X256112285Y-100281619D02*
X256789619Y-100281619D01*
X255725238Y-100523523D02*
X256450952Y-100765428D01*
X256450952Y-100136476D01*
X255773619Y-99265619D02*
X255773619Y-99749428D01*
X256257428Y-99797809D01*
X256209047Y-99749428D01*
X256160666Y-99652666D01*
X256160666Y-99410761D01*
X256209047Y-99314000D01*
X256257428Y-99265619D01*
X256354190Y-99217238D01*
X256596095Y-99217238D01*
X256692857Y-99265619D01*
X256741238Y-99314000D01*
X256789619Y-99410761D01*
X256789619Y-99652666D01*
X256741238Y-99749428D01*
X256692857Y-99797809D01*
X190153619Y-103644095D02*
X190976095Y-103644095D01*
X191072857Y-103595714D01*
X191121238Y-103547333D01*
X191169619Y-103450571D01*
X191169619Y-103257047D01*
X191121238Y-103160285D01*
X191072857Y-103111904D01*
X190976095Y-103063523D01*
X190153619Y-103063523D01*
X190492285Y-102144285D02*
X191169619Y-102144285D01*
X190105238Y-102386190D02*
X190830952Y-102628095D01*
X190830952Y-101999142D01*
X217673619Y-106571142D02*
X217673619Y-105893809D01*
X218689619Y-106329238D01*
X218012285Y-105071333D02*
X218689619Y-105071333D01*
X217625238Y-105313238D02*
X218350952Y-105555142D01*
X218350952Y-104926190D01*
X218689619Y-104539142D02*
X217673619Y-104539142D01*
X218157428Y-104539142D02*
X218157428Y-103958571D01*
X218689619Y-103958571D02*
X217673619Y-103958571D01*
X218592857Y-102894190D02*
X218641238Y-102942571D01*
X218689619Y-103087714D01*
X218689619Y-103184476D01*
X218641238Y-103329619D01*
X218544476Y-103426380D01*
X218447714Y-103474761D01*
X218254190Y-103523142D01*
X218109047Y-103523142D01*
X217915523Y-103474761D01*
X217818761Y-103426380D01*
X217722000Y-103329619D01*
X217673619Y-103184476D01*
X217673619Y-103087714D01*
X217722000Y-102942571D01*
X217770380Y-102894190D01*
X217673619Y-102603904D02*
X217673619Y-102023333D01*
X218689619Y-102313619D02*
X217673619Y-102313619D01*
X217770380Y-101733047D02*
X217722000Y-101684666D01*
X217673619Y-101587904D01*
X217673619Y-101346000D01*
X217722000Y-101249238D01*
X217770380Y-101200857D01*
X217867142Y-101152476D01*
X217963904Y-101152476D01*
X218109047Y-101200857D01*
X218689619Y-101781428D01*
X218689619Y-101152476D01*
X218012285Y-100281619D02*
X218689619Y-100281619D01*
X217625238Y-100523523D02*
X218350952Y-100765428D01*
X218350952Y-100136476D01*
X217673619Y-99265619D02*
X217673619Y-99749428D01*
X218157428Y-99797809D01*
X218109047Y-99749428D01*
X218060666Y-99652666D01*
X218060666Y-99410761D01*
X218109047Y-99314000D01*
X218157428Y-99265619D01*
X218254190Y-99217238D01*
X218496095Y-99217238D01*
X218592857Y-99265619D01*
X218641238Y-99314000D01*
X218689619Y-99410761D01*
X218689619Y-99652666D01*
X218641238Y-99749428D01*
X218592857Y-99797809D01*
X152053619Y-103644095D02*
X152876095Y-103644095D01*
X152972857Y-103595714D01*
X153021238Y-103547333D01*
X153069619Y-103450571D01*
X153069619Y-103257047D01*
X153021238Y-103160285D01*
X152972857Y-103111904D01*
X152876095Y-103063523D01*
X152053619Y-103063523D01*
X152053619Y-102676476D02*
X152053619Y-102047523D01*
X152440666Y-102386190D01*
X152440666Y-102241047D01*
X152489047Y-102144285D01*
X152537428Y-102095904D01*
X152634190Y-102047523D01*
X152876095Y-102047523D01*
X152972857Y-102095904D01*
X153021238Y-102144285D01*
X153069619Y-102241047D01*
X153069619Y-102531333D01*
X153021238Y-102628095D01*
X152972857Y-102676476D01*
X179573619Y-106571142D02*
X179573619Y-105893809D01*
X180589619Y-106329238D01*
X179912285Y-105071333D02*
X180589619Y-105071333D01*
X179525238Y-105313238D02*
X180250952Y-105555142D01*
X180250952Y-104926190D01*
X180589619Y-104539142D02*
X179573619Y-104539142D01*
X180057428Y-104539142D02*
X180057428Y-103958571D01*
X180589619Y-103958571D02*
X179573619Y-103958571D01*
X180492857Y-102894190D02*
X180541238Y-102942571D01*
X180589619Y-103087714D01*
X180589619Y-103184476D01*
X180541238Y-103329619D01*
X180444476Y-103426380D01*
X180347714Y-103474761D01*
X180154190Y-103523142D01*
X180009047Y-103523142D01*
X179815523Y-103474761D01*
X179718761Y-103426380D01*
X179622000Y-103329619D01*
X179573619Y-103184476D01*
X179573619Y-103087714D01*
X179622000Y-102942571D01*
X179670380Y-102894190D01*
X179573619Y-102603904D02*
X179573619Y-102023333D01*
X180589619Y-102313619D02*
X179573619Y-102313619D01*
X179573619Y-101781428D02*
X179573619Y-101152476D01*
X179960666Y-101491142D01*
X179960666Y-101346000D01*
X180009047Y-101249238D01*
X180057428Y-101200857D01*
X180154190Y-101152476D01*
X180396095Y-101152476D01*
X180492857Y-101200857D01*
X180541238Y-101249238D01*
X180589619Y-101346000D01*
X180589619Y-101636285D01*
X180541238Y-101733047D01*
X180492857Y-101781428D01*
X179573619Y-100813809D02*
X179573619Y-100136476D01*
X180589619Y-100571904D01*
X179573619Y-99846190D02*
X179573619Y-99168857D01*
X180589619Y-99604285D01*
X113953619Y-103644095D02*
X114776095Y-103644095D01*
X114872857Y-103595714D01*
X114921238Y-103547333D01*
X114969619Y-103450571D01*
X114969619Y-103257047D01*
X114921238Y-103160285D01*
X114872857Y-103111904D01*
X114776095Y-103063523D01*
X113953619Y-103063523D01*
X114050380Y-102628095D02*
X114002000Y-102579714D01*
X113953619Y-102482952D01*
X113953619Y-102241047D01*
X114002000Y-102144285D01*
X114050380Y-102095904D01*
X114147142Y-102047523D01*
X114243904Y-102047523D01*
X114389047Y-102095904D01*
X114969619Y-102676476D01*
X114969619Y-102047523D01*
X141473619Y-106571142D02*
X141473619Y-105893809D01*
X142489619Y-106329238D01*
X141812285Y-105071333D02*
X142489619Y-105071333D01*
X141425238Y-105313238D02*
X142150952Y-105555142D01*
X142150952Y-104926190D01*
X142489619Y-104539142D02*
X141473619Y-104539142D01*
X141957428Y-104539142D02*
X141957428Y-103958571D01*
X142489619Y-103958571D02*
X141473619Y-103958571D01*
X142392857Y-102894190D02*
X142441238Y-102942571D01*
X142489619Y-103087714D01*
X142489619Y-103184476D01*
X142441238Y-103329619D01*
X142344476Y-103426380D01*
X142247714Y-103474761D01*
X142054190Y-103523142D01*
X141909047Y-103523142D01*
X141715523Y-103474761D01*
X141618761Y-103426380D01*
X141522000Y-103329619D01*
X141473619Y-103184476D01*
X141473619Y-103087714D01*
X141522000Y-102942571D01*
X141570380Y-102894190D01*
X141473619Y-102603904D02*
X141473619Y-102023333D01*
X142489619Y-102313619D02*
X141473619Y-102313619D01*
X141473619Y-101781428D02*
X141473619Y-101152476D01*
X141860666Y-101491142D01*
X141860666Y-101346000D01*
X141909047Y-101249238D01*
X141957428Y-101200857D01*
X142054190Y-101152476D01*
X142296095Y-101152476D01*
X142392857Y-101200857D01*
X142441238Y-101249238D01*
X142489619Y-101346000D01*
X142489619Y-101636285D01*
X142441238Y-101733047D01*
X142392857Y-101781428D01*
X141473619Y-100813809D02*
X141473619Y-100136476D01*
X142489619Y-100571904D01*
X141473619Y-99846190D02*
X141473619Y-99168857D01*
X142489619Y-99604285D01*
X159673619Y-75704095D02*
X160496095Y-75704095D01*
X160592857Y-75655714D01*
X160641238Y-75607333D01*
X160689619Y-75510571D01*
X160689619Y-75317047D01*
X160641238Y-75220285D01*
X160592857Y-75171904D01*
X160496095Y-75123523D01*
X159673619Y-75123523D01*
X160689619Y-74107523D02*
X160689619Y-74688095D01*
X160689619Y-74397809D02*
X159673619Y-74397809D01*
X159818761Y-74494571D01*
X159915523Y-74591333D01*
X159963904Y-74688095D01*
X179573619Y-78147333D02*
X179573619Y-77470000D01*
X180589619Y-77905428D01*
X179912285Y-76647523D02*
X180589619Y-76647523D01*
X179525238Y-76889428D02*
X180250952Y-77131333D01*
X180250952Y-76502380D01*
X180589619Y-76115333D02*
X179573619Y-76115333D01*
X180057428Y-76115333D02*
X180057428Y-75534761D01*
X180589619Y-75534761D02*
X179573619Y-75534761D01*
X180492857Y-74470380D02*
X180541238Y-74518761D01*
X180589619Y-74663904D01*
X180589619Y-74760666D01*
X180541238Y-74905809D01*
X180444476Y-75002571D01*
X180347714Y-75050952D01*
X180154190Y-75099333D01*
X180009047Y-75099333D01*
X179815523Y-75050952D01*
X179718761Y-75002571D01*
X179622000Y-74905809D01*
X179573619Y-74760666D01*
X179573619Y-74663904D01*
X179622000Y-74518761D01*
X179670380Y-74470380D01*
X179573619Y-74180095D02*
X179573619Y-73599523D01*
X180589619Y-73889809D02*
X179573619Y-73889809D01*
X179573619Y-73067333D02*
X179573619Y-72970571D01*
X179622000Y-72873809D01*
X179670380Y-72825428D01*
X179767142Y-72777047D01*
X179960666Y-72728666D01*
X180202571Y-72728666D01*
X180396095Y-72777047D01*
X180492857Y-72825428D01*
X180541238Y-72873809D01*
X180589619Y-72970571D01*
X180589619Y-73067333D01*
X180541238Y-73164095D01*
X180492857Y-73212476D01*
X180396095Y-73260857D01*
X180202571Y-73309238D01*
X179960666Y-73309238D01*
X179767142Y-73260857D01*
X179670380Y-73212476D01*
X179622000Y-73164095D01*
X179573619Y-73067333D01*
X179912285Y-71857809D02*
X180589619Y-71857809D01*
X179525238Y-72099714D02*
X180250952Y-72341619D01*
X180250952Y-71712666D01*
X201228476Y-63819619D02*
X200889809Y-63335809D01*
X200647904Y-63819619D02*
X200647904Y-62803619D01*
X201034952Y-62803619D01*
X201131714Y-62852000D01*
X201180095Y-62900380D01*
X201228476Y-62997142D01*
X201228476Y-63142285D01*
X201180095Y-63239047D01*
X201131714Y-63287428D01*
X201034952Y-63335809D01*
X200647904Y-63335809D01*
X201663904Y-63819619D02*
X201663904Y-62803619D01*
X202244476Y-63819619D01*
X202244476Y-62803619D01*
X202679904Y-62900380D02*
X202728285Y-62852000D01*
X202825047Y-62803619D01*
X203066952Y-62803619D01*
X203163714Y-62852000D01*
X203212095Y-62900380D01*
X203260476Y-62997142D01*
X203260476Y-63093904D01*
X203212095Y-63239047D01*
X202631523Y-63819619D01*
X203260476Y-63819619D01*
X246948476Y-63819619D02*
X246609809Y-63335809D01*
X246367904Y-63819619D02*
X246367904Y-62803619D01*
X246754952Y-62803619D01*
X246851714Y-62852000D01*
X246900095Y-62900380D01*
X246948476Y-62997142D01*
X246948476Y-63142285D01*
X246900095Y-63239047D01*
X246851714Y-63287428D01*
X246754952Y-63335809D01*
X246367904Y-63335809D01*
X247383904Y-63819619D02*
X247383904Y-62803619D01*
X247964476Y-63819619D01*
X247964476Y-62803619D01*
X248980476Y-63819619D02*
X248399904Y-63819619D01*
X248690190Y-63819619D02*
X248690190Y-62803619D01*
X248593428Y-62948761D01*
X248496666Y-63045523D01*
X248399904Y-63093904D01*
X258257523Y-116537619D02*
X258257523Y-117263333D01*
X258209142Y-117408476D01*
X258112380Y-117505238D01*
X257967238Y-117553619D01*
X257870476Y-117553619D01*
X259273523Y-117553619D02*
X258692952Y-117553619D01*
X258983238Y-117553619D02*
X258983238Y-116537619D01*
X258886476Y-116682761D01*
X258789714Y-116779523D01*
X258692952Y-116827904D01*
X259902476Y-116537619D02*
X259999238Y-116537619D01*
X260096000Y-116586000D01*
X260144380Y-116634380D01*
X260192761Y-116731142D01*
X260241142Y-116924666D01*
X260241142Y-117166571D01*
X260192761Y-117360095D01*
X260144380Y-117456857D01*
X260096000Y-117505238D01*
X259999238Y-117553619D01*
X259902476Y-117553619D01*
X259805714Y-117505238D01*
X259757333Y-117456857D01*
X259708952Y-117360095D01*
X259660571Y-117166571D01*
X259660571Y-116924666D01*
X259708952Y-116731142D01*
X259757333Y-116634380D01*
X259805714Y-116586000D01*
X259902476Y-116537619D01*
X268901333Y-116537619D02*
X268901333Y-117263333D01*
X268852952Y-117408476D01*
X268756190Y-117505238D01*
X268611047Y-117553619D01*
X268514285Y-117553619D01*
X269433523Y-117553619D02*
X269627047Y-117553619D01*
X269723809Y-117505238D01*
X269772190Y-117456857D01*
X269868952Y-117311714D01*
X269917333Y-117118190D01*
X269917333Y-116731142D01*
X269868952Y-116634380D01*
X269820571Y-116586000D01*
X269723809Y-116537619D01*
X269530285Y-116537619D01*
X269433523Y-116586000D01*
X269385142Y-116634380D01*
X269336761Y-116731142D01*
X269336761Y-116973047D01*
X269385142Y-117069809D01*
X269433523Y-117118190D01*
X269530285Y-117166571D01*
X269723809Y-117166571D01*
X269820571Y-117118190D01*
X269868952Y-117069809D01*
X269917333Y-116973047D01*
X258741333Y-108663619D02*
X258741333Y-109389333D01*
X258692952Y-109534476D01*
X258596190Y-109631238D01*
X258451047Y-109679619D01*
X258354285Y-109679619D01*
X259370285Y-109099047D02*
X259273523Y-109050666D01*
X259225142Y-109002285D01*
X259176761Y-108905523D01*
X259176761Y-108857142D01*
X259225142Y-108760380D01*
X259273523Y-108712000D01*
X259370285Y-108663619D01*
X259563809Y-108663619D01*
X259660571Y-108712000D01*
X259708952Y-108760380D01*
X259757333Y-108857142D01*
X259757333Y-108905523D01*
X259708952Y-109002285D01*
X259660571Y-109050666D01*
X259563809Y-109099047D01*
X259370285Y-109099047D01*
X259273523Y-109147428D01*
X259225142Y-109195809D01*
X259176761Y-109292571D01*
X259176761Y-109486095D01*
X259225142Y-109582857D01*
X259273523Y-109631238D01*
X259370285Y-109679619D01*
X259563809Y-109679619D01*
X259660571Y-109631238D01*
X259708952Y-109582857D01*
X259757333Y-109486095D01*
X259757333Y-109292571D01*
X259708952Y-109195809D01*
X259660571Y-109147428D01*
X259563809Y-109099047D01*
X268901333Y-108663619D02*
X268901333Y-109389333D01*
X268852952Y-109534476D01*
X268756190Y-109631238D01*
X268611047Y-109679619D01*
X268514285Y-109679619D01*
X269288380Y-108663619D02*
X269965714Y-108663619D01*
X269530285Y-109679619D01*
X116513619Y-44218666D02*
X117239333Y-44218666D01*
X117384476Y-44267047D01*
X117481238Y-44363809D01*
X117529619Y-44508952D01*
X117529619Y-44605714D01*
X116513619Y-43831619D02*
X116513619Y-43202666D01*
X116900666Y-43541333D01*
X116900666Y-43396190D01*
X116949047Y-43299428D01*
X116997428Y-43251047D01*
X117094190Y-43202666D01*
X117336095Y-43202666D01*
X117432857Y-43251047D01*
X117481238Y-43299428D01*
X117529619Y-43396190D01*
X117529619Y-43686476D01*
X117481238Y-43783238D01*
X117432857Y-43831619D01*
X263821333Y-116537619D02*
X263821333Y-117263333D01*
X263772952Y-117408476D01*
X263676190Y-117505238D01*
X263531047Y-117553619D01*
X263434285Y-117553619D01*
X264256761Y-116634380D02*
X264305142Y-116586000D01*
X264401904Y-116537619D01*
X264643809Y-116537619D01*
X264740571Y-116586000D01*
X264788952Y-116634380D01*
X264837333Y-116731142D01*
X264837333Y-116827904D01*
X264788952Y-116973047D01*
X264208380Y-117553619D01*
X264837333Y-117553619D01*
X263821333Y-108663619D02*
X263821333Y-109389333D01*
X263772952Y-109534476D01*
X263676190Y-109631238D01*
X263531047Y-109679619D01*
X263434285Y-109679619D01*
X264837333Y-109679619D02*
X264256761Y-109679619D01*
X264547047Y-109679619D02*
X264547047Y-108663619D01*
X264450285Y-108808761D01*
X264353523Y-108905523D01*
X264256761Y-108953904D01*
X228622857Y-73789333D02*
X228671238Y-73837714D01*
X228719619Y-73982857D01*
X228719619Y-74079619D01*
X228671238Y-74224761D01*
X228574476Y-74321523D01*
X228477714Y-74369904D01*
X228284190Y-74418285D01*
X228139047Y-74418285D01*
X227945523Y-74369904D01*
X227848761Y-74321523D01*
X227752000Y-74224761D01*
X227703619Y-74079619D01*
X227703619Y-73982857D01*
X227752000Y-73837714D01*
X227800380Y-73789333D01*
X227703619Y-73450666D02*
X227703619Y-72773333D01*
X228719619Y-73208761D01*
X190522857Y-73789333D02*
X190571238Y-73837714D01*
X190619619Y-73982857D01*
X190619619Y-74079619D01*
X190571238Y-74224761D01*
X190474476Y-74321523D01*
X190377714Y-74369904D01*
X190184190Y-74418285D01*
X190039047Y-74418285D01*
X189845523Y-74369904D01*
X189748761Y-74321523D01*
X189652000Y-74224761D01*
X189603619Y-74079619D01*
X189603619Y-73982857D01*
X189652000Y-73837714D01*
X189700380Y-73789333D01*
X189603619Y-72918476D02*
X189603619Y-73112000D01*
X189652000Y-73208761D01*
X189700380Y-73257142D01*
X189845523Y-73353904D01*
X190039047Y-73402285D01*
X190426095Y-73402285D01*
X190522857Y-73353904D01*
X190571238Y-73305523D01*
X190619619Y-73208761D01*
X190619619Y-73015238D01*
X190571238Y-72918476D01*
X190522857Y-72870095D01*
X190426095Y-72821714D01*
X190184190Y-72821714D01*
X190087428Y-72870095D01*
X190039047Y-72918476D01*
X189990666Y-73015238D01*
X189990666Y-73208761D01*
X190039047Y-73305523D01*
X190087428Y-73353904D01*
X190184190Y-73402285D01*
X226082857Y-101729333D02*
X226131238Y-101777714D01*
X226179619Y-101922857D01*
X226179619Y-102019619D01*
X226131238Y-102164761D01*
X226034476Y-102261523D01*
X225937714Y-102309904D01*
X225744190Y-102358285D01*
X225599047Y-102358285D01*
X225405523Y-102309904D01*
X225308761Y-102261523D01*
X225212000Y-102164761D01*
X225163619Y-102019619D01*
X225163619Y-101922857D01*
X225212000Y-101777714D01*
X225260380Y-101729333D01*
X225163619Y-100810095D02*
X225163619Y-101293904D01*
X225647428Y-101342285D01*
X225599047Y-101293904D01*
X225550666Y-101197142D01*
X225550666Y-100955238D01*
X225599047Y-100858476D01*
X225647428Y-100810095D01*
X225744190Y-100761714D01*
X225986095Y-100761714D01*
X226082857Y-100810095D01*
X226131238Y-100858476D01*
X226179619Y-100955238D01*
X226179619Y-101197142D01*
X226131238Y-101293904D01*
X226082857Y-101342285D01*
X187982857Y-101729333D02*
X188031238Y-101777714D01*
X188079619Y-101922857D01*
X188079619Y-102019619D01*
X188031238Y-102164761D01*
X187934476Y-102261523D01*
X187837714Y-102309904D01*
X187644190Y-102358285D01*
X187499047Y-102358285D01*
X187305523Y-102309904D01*
X187208761Y-102261523D01*
X187112000Y-102164761D01*
X187063619Y-102019619D01*
X187063619Y-101922857D01*
X187112000Y-101777714D01*
X187160380Y-101729333D01*
X187402285Y-100858476D02*
X188079619Y-100858476D01*
X187015238Y-101100380D02*
X187740952Y-101342285D01*
X187740952Y-100713333D01*
X149882857Y-101729333D02*
X149931238Y-101777714D01*
X149979619Y-101922857D01*
X149979619Y-102019619D01*
X149931238Y-102164761D01*
X149834476Y-102261523D01*
X149737714Y-102309904D01*
X149544190Y-102358285D01*
X149399047Y-102358285D01*
X149205523Y-102309904D01*
X149108761Y-102261523D01*
X149012000Y-102164761D01*
X148963619Y-102019619D01*
X148963619Y-101922857D01*
X149012000Y-101777714D01*
X149060380Y-101729333D01*
X148963619Y-101390666D02*
X148963619Y-100761714D01*
X149350666Y-101100380D01*
X149350666Y-100955238D01*
X149399047Y-100858476D01*
X149447428Y-100810095D01*
X149544190Y-100761714D01*
X149786095Y-100761714D01*
X149882857Y-100810095D01*
X149931238Y-100858476D01*
X149979619Y-100955238D01*
X149979619Y-101245523D01*
X149931238Y-101342285D01*
X149882857Y-101390666D01*
X111782857Y-101729333D02*
X111831238Y-101777714D01*
X111879619Y-101922857D01*
X111879619Y-102019619D01*
X111831238Y-102164761D01*
X111734476Y-102261523D01*
X111637714Y-102309904D01*
X111444190Y-102358285D01*
X111299047Y-102358285D01*
X111105523Y-102309904D01*
X111008761Y-102261523D01*
X110912000Y-102164761D01*
X110863619Y-102019619D01*
X110863619Y-101922857D01*
X110912000Y-101777714D01*
X110960380Y-101729333D01*
X110960380Y-101342285D02*
X110912000Y-101293904D01*
X110863619Y-101197142D01*
X110863619Y-100955238D01*
X110912000Y-100858476D01*
X110960380Y-100810095D01*
X111057142Y-100761714D01*
X111153904Y-100761714D01*
X111299047Y-100810095D01*
X111879619Y-101390666D01*
X111879619Y-100761714D01*
X157502857Y-73789333D02*
X157551238Y-73837714D01*
X157599619Y-73982857D01*
X157599619Y-74079619D01*
X157551238Y-74224761D01*
X157454476Y-74321523D01*
X157357714Y-74369904D01*
X157164190Y-74418285D01*
X157019047Y-74418285D01*
X156825523Y-74369904D01*
X156728761Y-74321523D01*
X156632000Y-74224761D01*
X156583619Y-74079619D01*
X156583619Y-73982857D01*
X156632000Y-73837714D01*
X156680380Y-73789333D01*
X157599619Y-72821714D02*
X157599619Y-73402285D01*
X157599619Y-73112000D02*
X156583619Y-73112000D01*
X156728761Y-73208761D01*
X156825523Y-73305523D01*
X156873904Y-73402285D01*
M02*
