M48
; DRILL file {KiCad (5.1.5)-3} date 2020-11-29 6:58:05 PM
; FORMAT={-:-/ absolute / inch / decimal}
; #@! TF.CreationDate,2020-11-29T18:58:05-08:00
; #@! TF.GenerationSoftware,Kicad,Pcbnew,(5.1.5)-3
; #@! TF.FileFunction,Plated,1,2,PTH
FMAT,2
INCH
T1C0.0157
T2C0.0315
T3C0.0354
T4C0.0394
T5C0.0394
%
G90
G05
T1
X3.1Y-3.25
X3.1Y-3.31
X3.2Y-3.25
X3.2Y-3.34
X3.3Y-3.25
X3.3Y-3.37
X3.4Y-3.25
X3.4Y-3.4
X3.5Y-3.25
X3.5Y-3.43
X3.6Y-3.25
X3.6Y-3.46
X3.7Y-3.25
X3.7Y-3.49
X3.8Y-3.25
X3.8Y-3.52
X3.9Y-3.25
X3.9Y-3.55
X4.0Y-3.25
X4.0Y-3.58
X4.1Y-3.25
X4.1Y-3.61
X4.2Y-3.25
X4.2Y-3.64
X4.3Y-3.25
X4.3Y-3.67
X4.4Y-3.25
X4.4Y-3.7
X4.43Y-3.98
X4.5Y-3.25
X4.5Y-3.73
X4.6Y-3.18
X4.6Y-3.23
X4.6Y-3.77
X4.6Y-3.82
X4.65Y-3.28
X4.65Y-3.81
X4.7Y-3.81
X4.7Y-3.49
X4.85Y-4.29
X4.85Y-4.35
X4.9Y-4.29
X4.9Y-4.35
X4.95Y-3.31
X4.95Y-3.81
X4.95Y-4.29
X4.95Y-4.38
X5.0Y-3.46
X5.0Y-3.81
X5.05Y-3.34
X5.05Y-3.81
X5.1Y-3.43
X5.1Y-3.81
X5.11Y-4.32
X5.11Y-4.6
X5.16Y-4.56
X5.16Y-4.35
X5.2Y-4.29
X5.2Y-4.38
X5.25Y-4.29
X5.25Y-4.41
X5.3Y-4.29
X5.3Y-4.41
X5.35Y-3.37
X5.35Y-3.81
X5.35Y-4.29
X5.35Y-4.44
X5.4Y-3.4
X5.4Y-3.81
X5.4Y-4.38
X5.4Y-4.56
X5.5Y-3.97
X5.5Y-4.41
X5.5Y-4.56
X5.56Y-4.14
X5.6Y-4.44
X5.6Y-4.56
X5.7Y-4.47
X5.7Y-4.56
X5.8Y-4.5
X5.8Y-4.56
X5.89Y-3.97
X5.94Y-3.25
X5.94Y-3.81
X6.15Y-3.52
X6.15Y-3.81
X6.2Y-3.73
X6.2Y-3.81
X6.3Y-4.29
X6.3Y-4.56
X6.35Y-4.29
X6.35Y-4.77
X6.4Y-3.0
X6.4Y-4.29
X6.4Y-4.59
X6.4Y-4.68
X6.4Y-4.8
X6.45Y-3.55
X6.45Y-3.81
X6.45Y-4.29
X6.45Y-4.74
X6.5Y-3.7
X6.5Y-3.81
X6.5Y-4.71
X6.5Y-4.8
X6.55Y-3.58
X6.55Y-3.81
X6.6Y-3.67
X6.6Y-3.81
X6.6Y-4.74
X6.6Y-4.8
X6.6Y-3.0
X6.7Y-4.29
X6.7Y-4.62
X6.75Y-4.29
X6.75Y-4.71
X6.8Y-4.29
X6.8Y-4.65
X6.85Y-3.61
X6.85Y-3.81
X6.85Y-4.29
X6.85Y-4.68
X6.9Y-3.64
X6.9Y-3.81
X7.7Y-3.25
X7.7Y-3.81
X7.75Y-2.69
X7.8Y-2.69
X7.8Y-3.28
X7.8Y-3.81
X7.9Y-3.31
X7.9Y-3.81
X8.0Y-3.34
X8.0Y-3.81
X8.1Y-3.37
X8.1Y-3.81
X8.2Y-3.4
X8.2Y-3.81
X8.3Y-3.43
X8.3Y-3.81
X8.4Y-3.46
X8.4Y-3.81
X8.5Y-3.49
X8.5Y-3.81
X8.63Y-2.69
X8.68Y-2.69
X9.3Y-3.52
X9.3Y-3.81
X9.4Y-3.55
X9.4Y-3.81
X9.5Y-3.58
X9.5Y-3.81
X9.6Y-3.61
X9.6Y-3.81
X9.7Y-3.64
X9.7Y-3.81
X9.8Y-3.67
X9.8Y-3.81
X9.9Y-3.7
X9.9Y-3.81
X10.0Y-3.73
X10.0Y-3.81
X10.33Y-3.7
X10.33Y-3.84
X10.36Y-3.73
X10.36Y-3.81
T2
X4.3Y-3.9
X4.3Y-4.0969
X8.9Y-2.8
X8.9Y-2.9969
X9.1Y-3.9
X9.1Y-4.2
X9.2Y-3.9
X9.2Y-4.2
X9.3Y-3.9
X9.3Y-4.2
X9.4Y-3.9
X9.4Y-4.2
X9.5Y-3.9
X9.5Y-4.2
X9.6Y-3.9
X9.6Y-4.2
X9.7Y-3.9
X9.7Y-4.2
X9.8Y-3.9
X9.8Y-4.2
X9.9Y-3.9
X9.9Y-4.2
X10.0Y-3.9
X10.0Y-4.2
X7.6Y-3.9
X7.6Y-4.2
X7.7Y-3.9
X7.7Y-4.2
X7.8Y-3.9
X7.8Y-4.2
X7.9Y-3.9
X7.9Y-4.2
X8.0Y-3.9
X8.0Y-4.2
X8.1Y-3.9
X8.1Y-4.2
X8.2Y-3.9
X8.2Y-4.2
X8.3Y-3.9
X8.3Y-4.2
X8.4Y-3.9
X8.4Y-4.2
X8.5Y-3.9
X8.5Y-4.2
X9.4Y-2.4
X9.5Y-2.4
X9.6Y-2.4
X9.7Y-2.4
X9.8Y-2.4
X9.9Y-2.4
X10.0Y-2.4
X10.1Y-2.4
X10.2Y-2.4
X9.2Y-2.8
X9.2Y-3.1
X9.3Y-2.8
X9.3Y-3.1
X9.4Y-2.8
X9.4Y-3.1
X9.5Y-2.8
X9.5Y-3.1
X9.6Y-2.8
X9.6Y-3.1
X9.7Y-2.8
X9.7Y-3.1
X9.8Y-2.8
X9.8Y-3.1
X9.9Y-2.8
X9.9Y-3.1
X10.0Y-2.8
X10.0Y-3.1
X10.1Y-2.8
X10.1Y-3.1
X4.92Y-4.7816
X4.92Y-4.88
X7.7Y-2.8
X7.7Y-3.1
X7.8Y-2.8
X7.8Y-3.1
X7.9Y-2.8
X7.9Y-3.1
X8.0Y-2.8
X8.0Y-3.1
X8.1Y-2.8
X8.1Y-3.1
X8.2Y-2.8
X8.2Y-3.1
X8.3Y-2.8
X8.3Y-3.1
X8.4Y-2.8
X8.4Y-3.1
X8.5Y-2.8
X8.5Y-3.1
X8.6Y-2.8
X8.6Y-3.1
X6.1Y-2.8
X6.1Y-2.9969
X7.6Y-2.4
X7.7Y-2.4
X7.8Y-2.4
X7.9Y-2.4
X8.0Y-2.4
X8.1Y-2.4
X8.2Y-2.4
X8.3Y-2.4
X8.4Y-2.4
X5.8Y-3.9
X5.8Y-4.0969
X6.4Y-2.8
X6.4Y-3.1
X6.5Y-2.8
X6.5Y-3.1
X6.6Y-2.8
X6.6Y-3.1
X6.7Y-2.8
X6.7Y-3.1
X6.8Y-2.8
X6.8Y-3.1
X6.9Y-2.8
X6.9Y-3.1
X7.0Y-2.8
X7.0Y-3.1
X7.0Y-2.4016
X7.0Y-2.5
X7.4Y-2.8
X7.4Y-2.9969
X8.8Y-3.9
X8.8Y-4.0969
X4.6Y-3.9
X4.6Y-4.2
X4.7Y-3.9
X4.7Y-4.2
X4.8Y-3.9
X4.8Y-4.2
X4.9Y-3.9
X4.9Y-4.2
X5.0Y-3.9
X5.0Y-4.2
X5.1Y-3.9
X5.1Y-4.2
X5.2Y-3.9
X5.2Y-4.2
X5.3Y-3.9
X5.3Y-4.2
X5.4Y-3.9
X5.4Y-4.2
X5.5Y-3.9
X5.5Y-4.2
X10.5Y-3.5
X10.5984Y-3.5
X7.3Y-3.9
X7.3Y-4.0969
X6.1Y-3.9
X6.1Y-4.2
X6.2Y-3.9
X6.2Y-4.2
X6.3Y-3.9
X6.3Y-4.2
X6.4Y-3.9
X6.4Y-4.2
X6.5Y-3.9
X6.5Y-4.2
X6.6Y-3.9
X6.6Y-4.2
X6.7Y-3.9
X6.7Y-4.2
X6.8Y-3.9
X6.8Y-4.2
X6.9Y-3.9
X6.9Y-4.2
X7.0Y-3.9
X7.0Y-4.2
T3
X10.45Y-2.0
X10.55Y-2.0
X8.2Y-2.0
X8.3Y-2.0
X8.45Y-2.0
X8.55Y-2.0
X10.2Y-2.0
X10.3Y-2.0
X7.95Y-2.0
X8.05Y-2.0
X9.95Y-2.0
X10.05Y-2.0
X7.45Y-2.0
X7.55Y-2.0
X7.7Y-2.0
X7.8Y-2.0
X9.7Y-2.0
X9.8Y-2.0
X6.95Y-2.0
X7.05Y-2.0
X7.2Y-2.0
X7.3Y-2.0
X9.45Y-2.0
X9.55Y-2.0
X8.95Y-2.0
X9.05Y-2.0
X9.2Y-2.0
X9.3Y-2.0
X10.7Y-2.0
X10.8Y-2.0
X8.7Y-2.0
X8.8Y-2.0
T4
X7.7Y-5.1
X7.7Y-5.2
X7.8Y-5.1
X7.8Y-5.2
X7.9Y-5.1
X7.9Y-5.2
X8.0Y-5.1
X8.0Y-5.2
X8.1Y-5.1
X8.1Y-5.2
X8.2Y-5.1
X8.2Y-5.2
X8.3Y-5.1
X8.3Y-5.2
X8.4Y-5.1
X8.4Y-5.2
X8.5Y-5.1
X8.5Y-5.2
X8.6Y-5.1
X8.6Y-5.2
X8.7Y-5.1
X8.7Y-5.2
X8.8Y-5.1
X8.8Y-5.2
X8.9Y-5.1
X8.9Y-5.2
X9.0Y-5.1
X9.0Y-5.2
X9.1Y-5.1
X9.1Y-5.2
X9.2Y-5.1
X9.2Y-5.2
X9.3Y-5.1
X9.3Y-5.2
X9.4Y-5.1
X9.4Y-5.2
X9.5Y-5.1
X9.5Y-5.2
X9.6Y-5.1
X9.6Y-5.2
X9.7Y-5.1
X9.7Y-5.2
X9.8Y-5.1
X9.8Y-5.2
X9.9Y-5.1
X9.9Y-5.2
X10.0Y-5.1
X10.0Y-5.2
X10.1Y-5.1
X10.1Y-5.2
X10.2Y-5.1
X10.2Y-5.2
X10.3Y-5.1
X10.3Y-5.2
X10.4Y-5.1
X10.4Y-5.2
X10.5Y-5.1
X10.5Y-5.2
X10.6Y-5.1
X10.6Y-5.2
X10.7Y-5.1
X10.7Y-5.2
X10.8Y-5.1
X10.8Y-5.2
X3.0Y-1.9
X3.1Y-1.9
X3.2Y-1.9
X3.3Y-1.9
X3.4Y-1.9
X3.5Y-1.9
X3.6Y-1.9
X3.7Y-1.9
X3.8Y-1.9
X3.9Y-1.9
X4.0Y-1.9
X4.1Y-1.9
X4.2Y-1.9
X4.3Y-1.9
X4.4Y-1.9
X4.5Y-1.9
X3.8Y-5.2
X3.9Y-5.2
X4.0Y-5.2
X4.1Y-5.2
X4.2Y-5.2
X4.3Y-5.2
X4.4Y-5.2
X4.5Y-5.2
X4.6Y-5.2
X4.7Y-5.2
X5.2Y-5.2
X5.3Y-5.2
X5.4Y-5.2
X5.5Y-5.2
X5.6Y-5.2
X5.7Y-5.2
X5.8Y-5.2
X5.9Y-5.2
X6.0Y-5.2
X6.1Y-5.2
X6.2Y-5.2
X6.3Y-5.2
X6.4Y-5.2
X6.5Y-5.2
X6.6Y-5.2
X6.7Y-5.2
T5
X10.4Y-4.7
X10.6Y-4.4
X10.4Y-4.4
X10.2Y-4.4
X10.6Y-4.7
X10.2Y-4.7
T0
M30
