%FSLAX45Y45*%
G04 Gerber Fmt 4.5, Leading zero omitted, Abs format (unit mm)*
G04 Created by KiCad (PCBNEW (5.1.5)-3) date 2022-12-08 21:39:11*
%MOMM*%
%LPD*%
G04 APERTURE LIST*
%TA.AperFunction,Profile*%
%ADD10C,0.050000*%
%TD*%
%ADD11C,0.200000*%
%ADD12C,0.300000*%
G04 APERTURE END LIST*
D10*
X25400000Y-14668500D02*
G75*
G02X25209500Y-14859000I-190500J0D01*
G01*
X5270500Y-14859000D02*
G75*
G02X5080000Y-14668500I0J190500D01*
G01*
X5080000Y-5270500D02*
G75*
G02X5270500Y-5080000I190500J0D01*
G01*
X25209500Y-5080000D02*
G75*
G02X25400000Y-5270500I0J-190500D01*
G01*
X5080000Y-14668500D02*
X5080000Y-5270500D01*
X25209500Y-14859000D02*
X5270500Y-14859000D01*
X25400000Y-5270500D02*
X25400000Y-14668500D01*
X5270500Y-5080000D02*
X25209500Y-5080000D01*
D11*
X5568000Y-9124000D02*
X5608000Y-9164000D01*
X5608000Y-9124000D02*
X5568000Y-9164000D01*
X5568001Y-8920800D02*
X5608001Y-8960800D01*
X5608001Y-8920800D02*
X5568001Y-8960800D01*
X5821998Y-9225600D02*
X5861998Y-9265600D01*
X5861998Y-9225600D02*
X5821998Y-9265600D01*
X5822000Y-8920799D02*
X5862000Y-8960799D01*
X5862000Y-8920799D02*
X5822000Y-8960799D01*
X6076000Y-8920800D02*
X6116000Y-8960800D01*
X6116000Y-8920800D02*
X6076000Y-8960800D01*
X6076000Y-9327199D02*
X6116000Y-9367199D01*
X6116000Y-9327199D02*
X6076000Y-9367199D01*
X6330000Y-9428800D02*
X6370000Y-9468800D01*
X6370000Y-9428800D02*
X6330000Y-9468800D01*
X6330001Y-8920800D02*
X6370001Y-8960800D01*
X6370001Y-8920800D02*
X6330001Y-8960800D01*
X6482400Y-10952800D02*
X6522400Y-10992800D01*
X6522400Y-10952800D02*
X6482400Y-10992800D01*
X6583999Y-9530400D02*
X6623999Y-9570400D01*
X6623999Y-9530400D02*
X6583999Y-9570400D01*
X6584000Y-8920800D02*
X6624000Y-8960800D01*
X6624000Y-8920800D02*
X6584000Y-8960800D01*
X6609400Y-10952800D02*
X6649400Y-10992800D01*
X6649400Y-10952800D02*
X6609400Y-10992800D01*
X6634800Y-10800400D02*
X6674800Y-10840400D01*
X6674800Y-10800400D02*
X6634800Y-10840400D01*
X6711000Y-9327200D02*
X6751000Y-9367200D01*
X6751000Y-9327200D02*
X6711000Y-9367200D01*
X6711000Y-9632000D02*
X6751000Y-9672000D01*
X6751000Y-9632000D02*
X6711000Y-9672000D01*
X6837999Y-8920800D02*
X6877999Y-8960800D01*
X6877999Y-8920800D02*
X6837999Y-8960800D01*
X6838000Y-9632000D02*
X6878000Y-9672000D01*
X6878000Y-9632000D02*
X6838000Y-9672000D01*
X6965000Y-9225600D02*
X7005000Y-9265600D01*
X7005000Y-9225600D02*
X6965000Y-9265600D01*
X6965000Y-9733600D02*
X7005000Y-9773600D01*
X7005000Y-9733600D02*
X6965000Y-9773600D01*
X7092000Y-9733600D02*
X7132000Y-9773600D01*
X7132000Y-9733600D02*
X7092000Y-9773600D01*
X7092001Y-8920800D02*
X7132001Y-8960800D01*
X7132001Y-8920800D02*
X7092001Y-8960800D01*
X7219000Y-9124000D02*
X7259000Y-9164000D01*
X7259000Y-9124000D02*
X7219000Y-9164000D01*
X7219000Y-9835199D02*
X7259000Y-9875199D01*
X7259000Y-9835199D02*
X7219000Y-9875199D01*
X7346000Y-9835200D02*
X7386000Y-9875200D01*
X7386000Y-9835200D02*
X7346000Y-9875200D01*
X7346000Y-13823000D02*
X7386000Y-13863000D01*
X7386000Y-13823000D02*
X7346000Y-13863000D01*
X7346000Y-14077000D02*
X7386000Y-14117000D01*
X7386000Y-14077000D02*
X7346000Y-14117000D01*
X7346000Y-8920800D02*
X7386000Y-8960800D01*
X7386000Y-8920800D02*
X7346000Y-8960800D01*
X7473000Y-9022402D02*
X7513000Y-9062402D01*
X7513000Y-9022402D02*
X7473000Y-9062402D01*
X7473000Y-9936800D02*
X7513000Y-9976800D01*
X7513000Y-9936800D02*
X7473000Y-9976800D01*
X7549200Y-10800400D02*
X7589200Y-10840400D01*
X7589200Y-10800400D02*
X7549200Y-10840400D01*
X7600000Y-8920800D02*
X7640000Y-8960800D01*
X7640000Y-8920800D02*
X7600000Y-8960800D01*
X7600000Y-9936800D02*
X7640000Y-9976800D01*
X7640000Y-9936800D02*
X7600000Y-9976800D01*
X7650798Y-10952800D02*
X7690798Y-10992800D01*
X7690798Y-10952800D02*
X7650798Y-10992800D01*
X7803200Y-10952800D02*
X7843200Y-10992800D01*
X7843200Y-10952800D02*
X7803200Y-10992800D01*
X7854000Y-8920800D02*
X7894000Y-8960800D01*
X7894000Y-8920800D02*
X7854000Y-8960800D01*
X7854000Y-10038399D02*
X7894000Y-10078399D01*
X7894000Y-10038399D02*
X7854000Y-10078399D01*
X8108000Y-8920799D02*
X8148000Y-8960799D01*
X8148000Y-8920799D02*
X8108000Y-8960799D01*
X8108000Y-10140000D02*
X8148000Y-10180000D01*
X8148000Y-10140000D02*
X8108000Y-10180000D01*
X8108000Y-10648000D02*
X8148000Y-10688000D01*
X8148000Y-10648000D02*
X8108000Y-10688000D01*
X8362000Y-8920800D02*
X8402000Y-8960800D01*
X8402000Y-8920800D02*
X8362000Y-8960800D01*
X8362000Y-10241600D02*
X8402000Y-10281600D01*
X8402000Y-10241600D02*
X8362000Y-10281600D01*
X8616000Y-8920800D02*
X8656000Y-8960800D01*
X8656000Y-8920800D02*
X8616000Y-8960800D01*
X8616000Y-10343200D02*
X8656000Y-10383200D01*
X8656000Y-10343200D02*
X8616000Y-10383200D01*
X8870000Y-8920800D02*
X8910000Y-8960800D01*
X8910000Y-8920800D02*
X8870000Y-8960800D01*
X8870000Y-10444800D02*
X8910000Y-10484800D01*
X8910000Y-10444800D02*
X8870000Y-10484800D01*
X9124000Y-8920800D02*
X9164000Y-8960800D01*
X9164000Y-8920800D02*
X9124000Y-8960800D01*
X9124000Y-10546400D02*
X9164000Y-10586400D01*
X9164000Y-10546400D02*
X9124000Y-10586400D01*
X9124000Y-11384600D02*
X9164000Y-11424600D01*
X9164000Y-11384600D02*
X9124000Y-11424600D01*
X9124000Y-11613200D02*
X9164000Y-11653200D01*
X9164000Y-11613200D02*
X9124000Y-11653200D01*
X9327200Y-10952800D02*
X9367200Y-10992800D01*
X9367200Y-10952800D02*
X9327200Y-10992800D01*
X9378000Y-8920800D02*
X9418000Y-8960800D01*
X9418000Y-8920800D02*
X9378000Y-8960800D01*
X9378000Y-10800400D02*
X9418000Y-10840400D01*
X9418000Y-10800400D02*
X9378000Y-10840400D01*
X9378000Y-11460800D02*
X9418000Y-11500800D01*
X9418000Y-11460800D02*
X9378000Y-11500800D01*
X9378000Y-11613200D02*
X9418000Y-11653200D01*
X9418000Y-11613200D02*
X9378000Y-11653200D01*
X9378000Y-12451400D02*
X9418000Y-12491400D01*
X9418000Y-12451400D02*
X9378000Y-12491400D01*
X9378000Y-12934000D02*
X9418000Y-12974000D01*
X9418000Y-12934000D02*
X9378000Y-12974000D01*
X9454197Y-10952800D02*
X9494197Y-10992800D01*
X9494197Y-10952800D02*
X9454197Y-10992800D01*
X9631999Y-10749600D02*
X9671999Y-10789600D01*
X9671999Y-10749600D02*
X9631999Y-10789600D01*
X9632000Y-9733600D02*
X9672000Y-9773600D01*
X9672000Y-9733600D02*
X9632000Y-9773600D01*
X9632000Y-12451400D02*
X9672000Y-12491400D01*
X9672000Y-12451400D02*
X9632000Y-12491400D01*
X9632000Y-13238800D02*
X9672000Y-13278800D01*
X9672000Y-13238800D02*
X9632000Y-13278800D01*
X9759000Y-12527600D02*
X9799000Y-12567600D01*
X9799000Y-12527600D02*
X9759000Y-12567600D01*
X9886000Y-9632000D02*
X9926000Y-9672000D01*
X9926000Y-9632000D02*
X9886000Y-9672000D01*
X9886000Y-12451400D02*
X9926000Y-12491400D01*
X9926000Y-12451400D02*
X9886000Y-12491400D01*
X9886000Y-13137200D02*
X9926000Y-13177200D01*
X9926000Y-13137200D02*
X9886000Y-13177200D01*
X9886000Y-13340400D02*
X9926000Y-13380400D01*
X9926000Y-13340400D02*
X9886000Y-13380400D01*
X9886002Y-10749600D02*
X9926002Y-10789600D01*
X9926002Y-10749600D02*
X9886002Y-10789600D01*
X10013000Y-12629200D02*
X10053000Y-12669200D01*
X10053000Y-12629200D02*
X10013000Y-12669200D01*
X10140000Y-9530400D02*
X10180000Y-9570400D01*
X10180000Y-9530400D02*
X10140000Y-9570400D01*
X10140000Y-12451400D02*
X10180000Y-12491400D01*
X10180000Y-12451400D02*
X10140000Y-12491400D01*
X10140000Y-13035600D02*
X10180000Y-13075600D01*
X10180000Y-13035600D02*
X10140000Y-13075600D01*
X10140000Y-13340400D02*
X10180000Y-13380400D01*
X10180000Y-13340400D02*
X10140000Y-13380400D01*
X10140001Y-10749600D02*
X10180001Y-10789600D01*
X10180001Y-10749600D02*
X10140001Y-10789600D01*
X10394000Y-9428800D02*
X10434000Y-9468800D01*
X10434000Y-9428800D02*
X10394000Y-9468800D01*
X10394000Y-12451400D02*
X10434000Y-12491400D01*
X10434000Y-12451400D02*
X10394000Y-12491400D01*
X10394000Y-12934000D02*
X10434000Y-12974000D01*
X10434000Y-12934000D02*
X10394000Y-12974000D01*
X10394000Y-13340400D02*
X10434000Y-13380400D01*
X10434000Y-13340400D02*
X10394000Y-13380400D01*
X10394000Y-10749600D02*
X10434000Y-10789600D01*
X10434000Y-10749600D02*
X10394000Y-10789600D01*
X10521000Y-12730800D02*
X10561000Y-12770800D01*
X10561000Y-12730800D02*
X10521000Y-12770800D01*
X10648000Y-12832401D02*
X10688000Y-12872401D01*
X10688000Y-12832401D02*
X10648000Y-12872401D01*
X10648000Y-13340400D02*
X10688000Y-13380400D01*
X10688000Y-13340400D02*
X10648000Y-13380400D01*
X10902000Y-12934000D02*
X10942000Y-12974000D01*
X10942000Y-12934000D02*
X10902000Y-12974000D01*
X10902000Y-13340400D02*
X10942000Y-13380400D01*
X10942000Y-13340400D02*
X10902000Y-13380400D01*
X11003600Y-10952800D02*
X11043600Y-10992800D01*
X11043600Y-10952800D02*
X11003600Y-10992800D01*
X11130600Y-10952800D02*
X11170600Y-10992800D01*
X11170600Y-10952800D02*
X11130600Y-10992800D01*
X11156000Y-13035599D02*
X11196000Y-13075599D01*
X11196000Y-13035599D02*
X11156000Y-13075599D01*
X11156000Y-13340400D02*
X11196000Y-13380400D01*
X11196000Y-13340400D02*
X11156000Y-13380400D01*
X11410000Y-13137200D02*
X11450000Y-13177200D01*
X11450000Y-13137200D02*
X11410000Y-13177200D01*
X11410000Y-13340400D02*
X11450000Y-13380400D01*
X11450000Y-13340400D02*
X11410000Y-13380400D01*
X11536999Y-8743000D02*
X11576999Y-8783000D01*
X11576999Y-8743000D02*
X11536999Y-8783000D01*
X11537000Y-8590600D02*
X11577000Y-8630600D01*
X11577000Y-8590600D02*
X11537000Y-8630600D01*
X11537000Y-10724200D02*
X11577000Y-10764200D01*
X11577000Y-10724200D02*
X11537000Y-10764200D01*
X11537000Y-10851200D02*
X11577000Y-10891200D01*
X11577000Y-10851200D02*
X11537000Y-10891200D01*
X11918000Y-11384600D02*
X11958000Y-11424600D01*
X11958000Y-11384600D02*
X11918000Y-11424600D01*
X11918000Y-11613200D02*
X11958000Y-11653200D01*
X11958000Y-11613200D02*
X11918000Y-11653200D01*
X12121200Y-10952800D02*
X12161200Y-10992800D01*
X12161200Y-10952800D02*
X12121200Y-10992800D01*
X12172000Y-11460800D02*
X12212000Y-11500800D01*
X12212000Y-11460800D02*
X12172000Y-11500800D01*
X12172000Y-11613200D02*
X12212000Y-11653200D01*
X12212000Y-11613200D02*
X12172000Y-11653200D01*
X12172000Y-13442000D02*
X12212000Y-13482000D01*
X12212000Y-13442000D02*
X12172000Y-13482000D01*
X12248200Y-10952800D02*
X12288200Y-10992800D01*
X12288200Y-10952800D02*
X12248200Y-10992800D01*
X12298992Y-13340400D02*
X12338992Y-13380400D01*
X12338992Y-13340400D02*
X12298992Y-13380400D01*
X12299000Y-12451400D02*
X12339000Y-12491400D01*
X12339000Y-12451400D02*
X12299000Y-12491400D01*
X12425999Y-10749600D02*
X12465999Y-10789600D01*
X12465999Y-10749600D02*
X12425999Y-10789600D01*
X12426000Y-10140000D02*
X12466000Y-10180000D01*
X12466000Y-10140000D02*
X12426000Y-10180000D01*
X12426000Y-12451400D02*
X12466000Y-12491400D01*
X12466000Y-12451400D02*
X12426000Y-12491400D01*
X12426000Y-13340400D02*
X12466000Y-13380400D01*
X12466000Y-13340400D02*
X12426000Y-13380400D01*
X12426000Y-13746800D02*
X12466000Y-13786800D01*
X12466000Y-13746800D02*
X12426000Y-13786800D01*
X12578400Y-13543599D02*
X12618400Y-13583599D01*
X12618400Y-13543599D02*
X12578400Y-13583599D01*
X12679999Y-10749600D02*
X12719999Y-10789600D01*
X12719999Y-10749600D02*
X12679999Y-10789600D01*
X12680000Y-10038400D02*
X12720000Y-10078400D01*
X12720000Y-10038400D02*
X12680000Y-10078400D01*
X12680000Y-12451400D02*
X12720000Y-12491400D01*
X12720000Y-12451400D02*
X12680000Y-12491400D01*
X12680000Y-13340400D02*
X12720000Y-13380400D01*
X12720000Y-13340400D02*
X12680000Y-13380400D01*
X12933999Y-10749600D02*
X12973999Y-10789600D01*
X12973999Y-10749600D02*
X12933999Y-10789600D01*
X12934000Y-9936800D02*
X12974000Y-9976800D01*
X12974000Y-9936800D02*
X12934000Y-9976800D01*
X12934000Y-12451400D02*
X12974000Y-12491400D01*
X12974000Y-12451400D02*
X12934000Y-12491400D01*
X12934000Y-13442000D02*
X12974000Y-13482000D01*
X12974000Y-13442000D02*
X12934000Y-13482000D01*
X13188000Y-9835200D02*
X13228000Y-9875200D01*
X13228000Y-9835200D02*
X13188000Y-9875200D01*
X13188000Y-12451400D02*
X13228000Y-12491400D01*
X13228000Y-12451400D02*
X13188000Y-12491400D01*
X13188000Y-13340400D02*
X13228000Y-13380400D01*
X13228000Y-13340400D02*
X13188000Y-13380400D01*
X13188000Y-10749600D02*
X13228000Y-10789600D01*
X13228000Y-10749600D02*
X13188000Y-10789600D01*
X13314998Y-10648002D02*
X13354998Y-10688002D01*
X13354998Y-10648002D02*
X13314998Y-10688002D01*
X13315000Y-8920800D02*
X13355000Y-8960800D01*
X13355000Y-8920800D02*
X13315000Y-8960800D01*
X13950000Y-8920800D02*
X13990000Y-8960800D01*
X13990000Y-8920800D02*
X13950000Y-8960800D01*
X13950000Y-10749600D02*
X13990000Y-10789600D01*
X13990000Y-10749600D02*
X13950000Y-10789600D01*
X13950000Y-11232200D02*
X13990000Y-11272200D01*
X13990000Y-11232200D02*
X13950000Y-11272200D01*
X13950000Y-11384600D02*
X13990000Y-11424600D01*
X13990000Y-11384600D02*
X13950000Y-11424600D01*
X14051600Y-10952800D02*
X14091600Y-10992800D01*
X14091600Y-10952800D02*
X14051600Y-10992800D01*
X14178600Y-10952800D02*
X14218600Y-10992800D01*
X14218600Y-10952800D02*
X14178600Y-10992800D01*
X14559600Y-11537000D02*
X14599600Y-11577000D01*
X14599600Y-11537000D02*
X14559600Y-11577000D01*
X14635800Y-11460800D02*
X14675800Y-11500800D01*
X14675800Y-11460800D02*
X14635800Y-11500800D01*
X14788200Y-11460800D02*
X14828200Y-11500800D01*
X14828200Y-11460800D02*
X14788200Y-11500800D01*
X14915202Y-10952800D02*
X14955202Y-10992800D01*
X14955202Y-10952800D02*
X14915202Y-10992800D01*
X15042200Y-10952800D02*
X15082200Y-10992800D01*
X15082200Y-10952800D02*
X15042200Y-10992800D01*
X15042200Y-11537000D02*
X15082200Y-11577000D01*
X15082200Y-11537000D02*
X15042200Y-11577000D01*
X15219999Y-10546401D02*
X15259999Y-10586401D01*
X15259999Y-10546401D02*
X15219999Y-10586401D01*
X15220000Y-12451400D02*
X15260000Y-12491400D01*
X15260000Y-12451400D02*
X15220000Y-12491400D01*
X15220000Y-14051600D02*
X15260000Y-14091600D01*
X15260000Y-14051600D02*
X15220000Y-14091600D01*
X15220002Y-10749600D02*
X15260002Y-10789600D01*
X15260002Y-10749600D02*
X15220002Y-10789600D01*
X15473997Y-10749600D02*
X15513997Y-10789600D01*
X15513997Y-10749600D02*
X15473997Y-10789600D01*
X15474000Y-10444800D02*
X15514000Y-10484800D01*
X15514000Y-10444800D02*
X15474000Y-10484800D01*
X15474000Y-12451400D02*
X15514000Y-12491400D01*
X15514000Y-12451400D02*
X15474000Y-12491400D01*
X15474000Y-13950000D02*
X15514000Y-13990000D01*
X15514000Y-13950000D02*
X15474000Y-13990000D01*
X15728000Y-12451400D02*
X15768000Y-12491400D01*
X15768000Y-12451400D02*
X15728000Y-12491400D01*
X15728000Y-13848400D02*
X15768000Y-13888400D01*
X15768000Y-13848400D02*
X15728000Y-13888400D01*
X15728001Y-10343200D02*
X15768001Y-10383200D01*
X15768001Y-10343200D02*
X15728001Y-10383200D01*
X15728001Y-10749600D02*
X15768001Y-10789600D01*
X15768001Y-10749600D02*
X15728001Y-10789600D01*
X15981999Y-10749600D02*
X16021999Y-10789600D01*
X16021999Y-10749600D02*
X15981999Y-10789600D01*
X15981999Y-13746800D02*
X16021999Y-13786800D01*
X16021999Y-13746800D02*
X15981999Y-13786800D01*
X15982000Y-10241600D02*
X16022000Y-10281600D01*
X16022000Y-10241600D02*
X15982000Y-10281600D01*
X15982000Y-12451400D02*
X16022000Y-12491400D01*
X16022000Y-12451400D02*
X15982000Y-12491400D01*
X16236000Y-12451400D02*
X16276000Y-12491400D01*
X16276000Y-12451400D02*
X16236000Y-12491400D01*
X16236000Y-14153200D02*
X16276000Y-14193200D01*
X16276000Y-14153200D02*
X16236000Y-14193200D01*
X16617000Y-8870000D02*
X16657000Y-8910000D01*
X16657000Y-8870000D02*
X16617000Y-8910000D01*
X16617000Y-10648000D02*
X16657000Y-10688000D01*
X16657000Y-10648000D02*
X16617000Y-10688000D01*
X16642399Y-10952800D02*
X16682399Y-10992800D01*
X16682399Y-10952800D02*
X16642399Y-10992800D01*
X16769400Y-10952800D02*
X16809400Y-10992800D01*
X16809400Y-10952800D02*
X16769400Y-10992800D01*
X17277401Y-8184199D02*
X17317401Y-8224199D01*
X17317401Y-8184199D02*
X17277401Y-8224199D01*
X17404400Y-10952800D02*
X17444400Y-10992800D01*
X17444400Y-10952800D02*
X17404400Y-10992800D01*
X17607597Y-10952800D02*
X17647597Y-10992800D01*
X17647597Y-10952800D02*
X17607597Y-10992800D01*
X18014000Y-10622600D02*
X18054000Y-10662600D01*
X18054000Y-10622600D02*
X18014000Y-10662600D01*
X18014001Y-9022400D02*
X18054001Y-9062400D01*
X18054001Y-9022400D02*
X18014001Y-9062400D01*
X18267999Y-10648000D02*
X18307999Y-10688000D01*
X18307999Y-10648000D02*
X18267999Y-10688000D01*
X18268000Y-9124000D02*
X18308000Y-9164000D01*
X18308000Y-9124000D02*
X18268000Y-9164000D01*
X18522000Y-9225600D02*
X18562000Y-9265600D01*
X18562000Y-9225600D02*
X18522000Y-9265600D01*
X18522000Y-10648000D02*
X18562000Y-10688000D01*
X18562000Y-10648000D02*
X18522000Y-10688000D01*
X18776000Y-9327201D02*
X18816000Y-9367201D01*
X18816000Y-9327201D02*
X18776000Y-9367201D01*
X18776001Y-10648000D02*
X18816001Y-10688000D01*
X18816001Y-10648000D02*
X18776001Y-10688000D01*
X19030000Y-9428799D02*
X19070000Y-9468799D01*
X19070000Y-9428799D02*
X19030000Y-9468799D01*
X19030000Y-10648000D02*
X19070000Y-10688000D01*
X19070000Y-10648000D02*
X19030000Y-10688000D01*
X19284000Y-10648000D02*
X19324000Y-10688000D01*
X19324000Y-10648000D02*
X19284000Y-10688000D01*
X19284000Y-9530400D02*
X19324000Y-9570400D01*
X19324000Y-9530400D02*
X19284000Y-9570400D01*
X19538000Y-9632000D02*
X19578000Y-9672000D01*
X19578000Y-9632000D02*
X19538000Y-9672000D01*
X19538000Y-10648000D02*
X19578000Y-10688000D01*
X19578000Y-10648000D02*
X19538000Y-10688000D01*
X19792000Y-9733600D02*
X19832000Y-9773600D01*
X19832000Y-9733600D02*
X19792000Y-9773600D01*
X19792000Y-10648000D02*
X19832000Y-10688000D01*
X19832000Y-10648000D02*
X19792000Y-10688000D01*
X19969800Y-10952799D02*
X20009800Y-10992799D01*
X20009800Y-10952799D02*
X19969800Y-10992799D01*
X20096800Y-10952800D02*
X20136800Y-10992800D01*
X20136800Y-10952800D02*
X20096800Y-10992800D01*
X20173000Y-11333800D02*
X20213000Y-11373800D01*
X20213000Y-11333800D02*
X20173000Y-11373800D01*
X20427000Y-11333800D02*
X20467000Y-11373800D01*
X20467000Y-11333800D02*
X20427000Y-11373800D01*
X21062000Y-8184200D02*
X21102000Y-8224200D01*
X21102000Y-8184200D02*
X21062000Y-8224200D01*
X21697001Y-9835200D02*
X21737001Y-9875200D01*
X21737001Y-9835200D02*
X21697001Y-9875200D01*
X21951000Y-9936800D02*
X21991000Y-9976800D01*
X21991000Y-9936800D02*
X21951000Y-9976800D01*
X22078000Y-10648000D02*
X22118000Y-10688000D01*
X22118000Y-10648000D02*
X22078000Y-10688000D01*
X22205000Y-10038400D02*
X22245000Y-10078400D01*
X22245000Y-10038400D02*
X22205000Y-10078400D01*
X22332000Y-10648000D02*
X22372000Y-10688000D01*
X22372000Y-10648000D02*
X22332000Y-10688000D01*
X22459000Y-10140000D02*
X22499000Y-10180000D01*
X22499000Y-10140000D02*
X22459000Y-10180000D01*
X22586000Y-10648000D02*
X22626000Y-10688000D01*
X22626000Y-10648000D02*
X22586000Y-10688000D01*
X22713000Y-10241598D02*
X22753000Y-10281598D01*
X22753000Y-10241598D02*
X22713000Y-10281598D01*
X22840000Y-10648000D02*
X22880000Y-10688000D01*
X22880000Y-10648000D02*
X22840000Y-10688000D01*
X22967000Y-10343199D02*
X23007000Y-10383199D01*
X23007000Y-10343199D02*
X22967000Y-10383199D01*
X23094000Y-10648000D02*
X23134000Y-10688000D01*
X23134000Y-10648000D02*
X23094000Y-10688000D01*
X23221000Y-10444800D02*
X23261000Y-10484800D01*
X23261000Y-10444800D02*
X23221000Y-10484800D01*
X23348000Y-10648000D02*
X23388000Y-10688000D01*
X23388000Y-10648000D02*
X23348000Y-10688000D01*
X23576600Y-7854000D02*
X23616600Y-7894000D01*
X23616600Y-7854000D02*
X23576600Y-7894000D01*
X23576600Y-8133400D02*
X23616600Y-8173400D01*
X23616600Y-8133400D02*
X23576600Y-8173400D01*
X23602000Y-10648000D02*
X23642000Y-10688000D01*
X23642000Y-10648000D02*
X23602000Y-10688000D01*
X17058000Y-8026400D02*
G75*
G03X17058000Y-8026400I-40000J0D01*
G01*
X17058000Y-8526400D02*
G75*
G03X17058000Y-8526400I-40000J0D01*
G01*
X14772000Y-11176000D02*
G75*
G03X14772000Y-11176000I-40000J0D01*
G01*
X14772000Y-11938000D02*
G75*
G03X14772000Y-11938000I-40000J0D01*
G01*
X15026000Y-11176000D02*
G75*
G03X15026000Y-11176000I-40000J0D01*
G01*
X15026000Y-11938000D02*
G75*
G03X15026000Y-11938000I-40000J0D01*
G01*
X15280000Y-11176000D02*
G75*
G03X15280000Y-11176000I-40000J0D01*
G01*
X15280000Y-11938000D02*
G75*
G03X15280000Y-11938000I-40000J0D01*
G01*
X15534000Y-11176000D02*
G75*
G03X15534000Y-11176000I-40000J0D01*
G01*
X15534000Y-11938000D02*
G75*
G03X15534000Y-11938000I-40000J0D01*
G01*
X15788000Y-11176000D02*
G75*
G03X15788000Y-11176000I-40000J0D01*
G01*
X15788000Y-11938000D02*
G75*
G03X15788000Y-11938000I-40000J0D01*
G01*
X16042000Y-11176000D02*
G75*
G03X16042000Y-11176000I-40000J0D01*
G01*
X16042000Y-11938000D02*
G75*
G03X16042000Y-11938000I-40000J0D01*
G01*
X16296000Y-11176000D02*
G75*
G03X16296000Y-11176000I-40000J0D01*
G01*
X16296000Y-11938000D02*
G75*
G03X16296000Y-11938000I-40000J0D01*
G01*
X16550000Y-11176000D02*
G75*
G03X16550000Y-11176000I-40000J0D01*
G01*
X16550000Y-11938000D02*
G75*
G03X16550000Y-11938000I-40000J0D01*
G01*
X24170000Y-7366000D02*
G75*
G03X24170000Y-7366000I-40000J0D01*
G01*
X25186000Y-7366000D02*
G75*
G03X25186000Y-7366000I-40000J0D01*
G01*
X12740000Y-7874000D02*
G75*
G03X12740000Y-7874000I-40000J0D01*
G01*
X12740000Y-8636000D02*
G75*
G03X12740000Y-8636000I-40000J0D01*
G01*
X12994000Y-7874000D02*
G75*
G03X12994000Y-7874000I-40000J0D01*
G01*
X12994000Y-8636000D02*
G75*
G03X12994000Y-8636000I-40000J0D01*
G01*
X13248000Y-7874000D02*
G75*
G03X13248000Y-7874000I-40000J0D01*
G01*
X13248000Y-8636000D02*
G75*
G03X13248000Y-8636000I-40000J0D01*
G01*
X13502000Y-7874000D02*
G75*
G03X13502000Y-7874000I-40000J0D01*
G01*
X13502000Y-8636000D02*
G75*
G03X13502000Y-8636000I-40000J0D01*
G01*
X13756000Y-7874000D02*
G75*
G03X13756000Y-7874000I-40000J0D01*
G01*
X13756000Y-8636000D02*
G75*
G03X13756000Y-8636000I-40000J0D01*
G01*
X14010000Y-7874000D02*
G75*
G03X14010000Y-7874000I-40000J0D01*
G01*
X14010000Y-8636000D02*
G75*
G03X14010000Y-8636000I-40000J0D01*
G01*
X14264000Y-7874000D02*
G75*
G03X14264000Y-7874000I-40000J0D01*
G01*
X14264000Y-8636000D02*
G75*
G03X14264000Y-8636000I-40000J0D01*
G01*
X21122000Y-11176000D02*
G75*
G03X21122000Y-11176000I-40000J0D01*
G01*
X21122000Y-11676000D02*
G75*
G03X21122000Y-11676000I-40000J0D01*
G01*
X12232000Y-7882000D02*
G75*
G03X12232000Y-7882000I-40000J0D01*
G01*
X12232000Y-8382000D02*
G75*
G03X12232000Y-8382000I-40000J0D01*
G01*
X6390000Y-11176000D02*
G75*
G03X6390000Y-11176000I-40000J0D01*
G01*
X6390000Y-11938000D02*
G75*
G03X6390000Y-11938000I-40000J0D01*
G01*
X6644000Y-11176000D02*
G75*
G03X6644000Y-11176000I-40000J0D01*
G01*
X6644000Y-11938000D02*
G75*
G03X6644000Y-11938000I-40000J0D01*
G01*
X6898000Y-11176000D02*
G75*
G03X6898000Y-11176000I-40000J0D01*
G01*
X6898000Y-11938000D02*
G75*
G03X6898000Y-11938000I-40000J0D01*
G01*
X7152000Y-11176000D02*
G75*
G03X7152000Y-11176000I-40000J0D01*
G01*
X7152000Y-11938000D02*
G75*
G03X7152000Y-11938000I-40000J0D01*
G01*
X7406000Y-11176000D02*
G75*
G03X7406000Y-11176000I-40000J0D01*
G01*
X7406000Y-11938000D02*
G75*
G03X7406000Y-11938000I-40000J0D01*
G01*
X7660000Y-11176000D02*
G75*
G03X7660000Y-11176000I-40000J0D01*
G01*
X7660000Y-11938000D02*
G75*
G03X7660000Y-11938000I-40000J0D01*
G01*
X7914000Y-11176000D02*
G75*
G03X7914000Y-11176000I-40000J0D01*
G01*
X7914000Y-11938000D02*
G75*
G03X7914000Y-11938000I-40000J0D01*
G01*
X8168000Y-11176000D02*
G75*
G03X8168000Y-11176000I-40000J0D01*
G01*
X8168000Y-11938000D02*
G75*
G03X8168000Y-11938000I-40000J0D01*
G01*
X6644000Y-13212000D02*
G75*
G03X6644000Y-13212000I-40000J0D01*
G01*
X6644000Y-13462000D02*
G75*
G03X6644000Y-13462000I-40000J0D01*
G01*
X20487000Y-7374000D02*
G75*
G03X20487000Y-7374000I-40000J0D01*
G01*
X20487000Y-7874000D02*
G75*
G03X20487000Y-7874000I-40000J0D01*
G01*
X20360000Y-11938000D02*
G75*
G03X20360000Y-11938000I-40000J0D01*
G01*
X20610000Y-11938000D02*
G75*
G03X20610000Y-11938000I-40000J0D01*
G01*
X21630000Y-11176000D02*
G75*
G03X21630000Y-11176000I-40000J0D01*
G01*
X21630000Y-11938000D02*
G75*
G03X21630000Y-11938000I-40000J0D01*
G01*
X21884000Y-11176000D02*
G75*
G03X21884000Y-11176000I-40000J0D01*
G01*
X21884000Y-11938000D02*
G75*
G03X21884000Y-11938000I-40000J0D01*
G01*
X22138000Y-11176000D02*
G75*
G03X22138000Y-11176000I-40000J0D01*
G01*
X22138000Y-11938000D02*
G75*
G03X22138000Y-11938000I-40000J0D01*
G01*
X22392000Y-11176000D02*
G75*
G03X22392000Y-11176000I-40000J0D01*
G01*
X22392000Y-11938000D02*
G75*
G03X22392000Y-11938000I-40000J0D01*
G01*
X22646000Y-11176000D02*
G75*
G03X22646000Y-11176000I-40000J0D01*
G01*
X22646000Y-11938000D02*
G75*
G03X22646000Y-11938000I-40000J0D01*
G01*
X22900000Y-11176000D02*
G75*
G03X22900000Y-11176000I-40000J0D01*
G01*
X22900000Y-11938000D02*
G75*
G03X22900000Y-11938000I-40000J0D01*
G01*
X23154000Y-11176000D02*
G75*
G03X23154000Y-11176000I-40000J0D01*
G01*
X23154000Y-11938000D02*
G75*
G03X23154000Y-11938000I-40000J0D01*
G01*
X23408000Y-11176000D02*
G75*
G03X23408000Y-11176000I-40000J0D01*
G01*
X23408000Y-11938000D02*
G75*
G03X23408000Y-11938000I-40000J0D01*
G01*
X23662000Y-11176000D02*
G75*
G03X23662000Y-11176000I-40000J0D01*
G01*
X23662000Y-11938000D02*
G75*
G03X23662000Y-11938000I-40000J0D01*
G01*
X23916000Y-11176000D02*
G75*
G03X23916000Y-11176000I-40000J0D01*
G01*
X23916000Y-11938000D02*
G75*
G03X23916000Y-11938000I-40000J0D01*
G01*
X17566000Y-7874000D02*
G75*
G03X17566000Y-7874000I-40000J0D01*
G01*
X17566000Y-8636000D02*
G75*
G03X17566000Y-8636000I-40000J0D01*
G01*
X17820000Y-7874000D02*
G75*
G03X17820000Y-7874000I-40000J0D01*
G01*
X17820000Y-8636000D02*
G75*
G03X17820000Y-8636000I-40000J0D01*
G01*
X18074000Y-7874000D02*
G75*
G03X18074000Y-7874000I-40000J0D01*
G01*
X18074000Y-8636000D02*
G75*
G03X18074000Y-8636000I-40000J0D01*
G01*
X18328000Y-7874000D02*
G75*
G03X18328000Y-7874000I-40000J0D01*
G01*
X18328000Y-8636000D02*
G75*
G03X18328000Y-8636000I-40000J0D01*
G01*
X18582000Y-7874000D02*
G75*
G03X18582000Y-7874000I-40000J0D01*
G01*
X18582000Y-8636000D02*
G75*
G03X18582000Y-8636000I-40000J0D01*
G01*
X18836000Y-7874000D02*
G75*
G03X18836000Y-7874000I-40000J0D01*
G01*
X18836000Y-8636000D02*
G75*
G03X18836000Y-8636000I-40000J0D01*
G01*
X19090000Y-7874000D02*
G75*
G03X19090000Y-7874000I-40000J0D01*
G01*
X19090000Y-8636000D02*
G75*
G03X19090000Y-8636000I-40000J0D01*
G01*
X19344000Y-7874000D02*
G75*
G03X19344000Y-7874000I-40000J0D01*
G01*
X19344000Y-8636000D02*
G75*
G03X19344000Y-8636000I-40000J0D01*
G01*
X19598000Y-7874000D02*
G75*
G03X19598000Y-7874000I-40000J0D01*
G01*
X19598000Y-8636000D02*
G75*
G03X19598000Y-8636000I-40000J0D01*
G01*
X19852000Y-7874000D02*
G75*
G03X19852000Y-7874000I-40000J0D01*
G01*
X19852000Y-8636000D02*
G75*
G03X19852000Y-8636000I-40000J0D01*
G01*
X17058000Y-11176000D02*
G75*
G03X17058000Y-11176000I-40000J0D01*
G01*
X17058000Y-11676000D02*
G75*
G03X17058000Y-11676000I-40000J0D01*
G01*
X17566000Y-7366000D02*
G75*
G03X17566000Y-7366000I-40000J0D01*
G01*
X17820000Y-7366000D02*
G75*
G03X17820000Y-7366000I-40000J0D01*
G01*
X18074000Y-7366000D02*
G75*
G03X18074000Y-7366000I-40000J0D01*
G01*
X18328000Y-7366000D02*
G75*
G03X18328000Y-7366000I-40000J0D01*
G01*
X18582000Y-7366000D02*
G75*
G03X18582000Y-7366000I-40000J0D01*
G01*
X18836000Y-7366000D02*
G75*
G03X18836000Y-7366000I-40000J0D01*
G01*
X19090000Y-7366000D02*
G75*
G03X19090000Y-7366000I-40000J0D01*
G01*
X19344000Y-7366000D02*
G75*
G03X19344000Y-7366000I-40000J0D01*
G01*
X19598000Y-7366000D02*
G75*
G03X19598000Y-7366000I-40000J0D01*
G01*
X21630000Y-7366000D02*
G75*
G03X21630000Y-7366000I-40000J0D01*
G01*
X21884000Y-7366000D02*
G75*
G03X21884000Y-7366000I-40000J0D01*
G01*
X22138000Y-7366000D02*
G75*
G03X22138000Y-7366000I-40000J0D01*
G01*
X22392000Y-7366000D02*
G75*
G03X22392000Y-7366000I-40000J0D01*
G01*
X22646000Y-7366000D02*
G75*
G03X22646000Y-7366000I-40000J0D01*
G01*
X22900000Y-7366000D02*
G75*
G03X22900000Y-7366000I-40000J0D01*
G01*
X23154000Y-7366000D02*
G75*
G03X23154000Y-7366000I-40000J0D01*
G01*
X23408000Y-7366000D02*
G75*
G03X23408000Y-7366000I-40000J0D01*
G01*
X23662000Y-7366000D02*
G75*
G03X23662000Y-7366000I-40000J0D01*
G01*
X11978000Y-11176000D02*
G75*
G03X11978000Y-11176000I-40000J0D01*
G01*
X11978000Y-11938000D02*
G75*
G03X11978000Y-11938000I-40000J0D01*
G01*
X12232000Y-11176000D02*
G75*
G03X12232000Y-11176000I-40000J0D01*
G01*
X12232000Y-11938000D02*
G75*
G03X12232000Y-11938000I-40000J0D01*
G01*
X12486000Y-11176000D02*
G75*
G03X12486000Y-11176000I-40000J0D01*
G01*
X12486000Y-11938000D02*
G75*
G03X12486000Y-11938000I-40000J0D01*
G01*
X12740000Y-11176000D02*
G75*
G03X12740000Y-11176000I-40000J0D01*
G01*
X12740000Y-11938000D02*
G75*
G03X12740000Y-11938000I-40000J0D01*
G01*
X12994000Y-11176000D02*
G75*
G03X12994000Y-11176000I-40000J0D01*
G01*
X12994000Y-11938000D02*
G75*
G03X12994000Y-11938000I-40000J0D01*
G01*
X13248000Y-11176000D02*
G75*
G03X13248000Y-11176000I-40000J0D01*
G01*
X13248000Y-11938000D02*
G75*
G03X13248000Y-11938000I-40000J0D01*
G01*
X13502000Y-11176000D02*
G75*
G03X13502000Y-11176000I-40000J0D01*
G01*
X13502000Y-11938000D02*
G75*
G03X13502000Y-11938000I-40000J0D01*
G01*
X13756000Y-11176000D02*
G75*
G03X13756000Y-11176000I-40000J0D01*
G01*
X13756000Y-11938000D02*
G75*
G03X13756000Y-11938000I-40000J0D01*
G01*
X11470000Y-11184000D02*
G75*
G03X11470000Y-11184000I-40000J0D01*
G01*
X11470000Y-11684000D02*
G75*
G03X11470000Y-11684000I-40000J0D01*
G01*
X17566000Y-11176000D02*
G75*
G03X17566000Y-11176000I-40000J0D01*
G01*
X17566000Y-11938000D02*
G75*
G03X17566000Y-11938000I-40000J0D01*
G01*
X17820000Y-11176000D02*
G75*
G03X17820000Y-11176000I-40000J0D01*
G01*
X17820000Y-11938000D02*
G75*
G03X17820000Y-11938000I-40000J0D01*
G01*
X18074000Y-11176000D02*
G75*
G03X18074000Y-11176000I-40000J0D01*
G01*
X18074000Y-11938000D02*
G75*
G03X18074000Y-11938000I-40000J0D01*
G01*
X18328000Y-11176000D02*
G75*
G03X18328000Y-11176000I-40000J0D01*
G01*
X18328000Y-11938000D02*
G75*
G03X18328000Y-11938000I-40000J0D01*
G01*
X18582000Y-11176000D02*
G75*
G03X18582000Y-11176000I-40000J0D01*
G01*
X18582000Y-11938000D02*
G75*
G03X18582000Y-11938000I-40000J0D01*
G01*
X18836000Y-11176000D02*
G75*
G03X18836000Y-11176000I-40000J0D01*
G01*
X18836000Y-11938000D02*
G75*
G03X18836000Y-11938000I-40000J0D01*
G01*
X19090000Y-11176000D02*
G75*
G03X19090000Y-11176000I-40000J0D01*
G01*
X19090000Y-11938000D02*
G75*
G03X19090000Y-11938000I-40000J0D01*
G01*
X19344000Y-11176000D02*
G75*
G03X19344000Y-11176000I-40000J0D01*
G01*
X19344000Y-11938000D02*
G75*
G03X19344000Y-11938000I-40000J0D01*
G01*
X19598000Y-11176000D02*
G75*
G03X19598000Y-11176000I-40000J0D01*
G01*
X19598000Y-11938000D02*
G75*
G03X19598000Y-11938000I-40000J0D01*
G01*
X19852000Y-11176000D02*
G75*
G03X19852000Y-11176000I-40000J0D01*
G01*
X19852000Y-11938000D02*
G75*
G03X19852000Y-11938000I-40000J0D01*
G01*
X5882000Y-11184000D02*
G75*
G03X5882000Y-11184000I-40000J0D01*
G01*
X5882000Y-11684000D02*
G75*
G03X5882000Y-11684000I-40000J0D01*
G01*
X15915000Y-7874000D02*
G75*
G03X15915000Y-7874000I-40000J0D01*
G01*
X15915000Y-8890000D02*
G75*
G03X15915000Y-8890000I-40000J0D01*
G01*
X14264000Y-11184000D02*
G75*
G03X14264000Y-11184000I-40000J0D01*
G01*
X14264000Y-11684000D02*
G75*
G03X14264000Y-11684000I-40000J0D01*
G01*
X21122000Y-7874000D02*
G75*
G03X21122000Y-7874000I-40000J0D01*
G01*
X21122000Y-8636000D02*
G75*
G03X21122000Y-8636000I-40000J0D01*
G01*
X21376000Y-7874000D02*
G75*
G03X21376000Y-7874000I-40000J0D01*
G01*
X21376000Y-8636000D02*
G75*
G03X21376000Y-8636000I-40000J0D01*
G01*
X21630000Y-7874000D02*
G75*
G03X21630000Y-7874000I-40000J0D01*
G01*
X21630000Y-8636000D02*
G75*
G03X21630000Y-8636000I-40000J0D01*
G01*
X21884000Y-7874000D02*
G75*
G03X21884000Y-7874000I-40000J0D01*
G01*
X21884000Y-8636000D02*
G75*
G03X21884000Y-8636000I-40000J0D01*
G01*
X22138000Y-7874000D02*
G75*
G03X22138000Y-7874000I-40000J0D01*
G01*
X22138000Y-8636000D02*
G75*
G03X22138000Y-8636000I-40000J0D01*
G01*
X22392000Y-7874000D02*
G75*
G03X22392000Y-7874000I-40000J0D01*
G01*
X22392000Y-8636000D02*
G75*
G03X22392000Y-8636000I-40000J0D01*
G01*
X22646000Y-7874000D02*
G75*
G03X22646000Y-7874000I-40000J0D01*
G01*
X22646000Y-8636000D02*
G75*
G03X22646000Y-8636000I-40000J0D01*
G01*
X22900000Y-7874000D02*
G75*
G03X22900000Y-7874000I-40000J0D01*
G01*
X22900000Y-8636000D02*
G75*
G03X22900000Y-8636000I-40000J0D01*
G01*
X23154000Y-7874000D02*
G75*
G03X23154000Y-7874000I-40000J0D01*
G01*
X23154000Y-8636000D02*
G75*
G03X23154000Y-8636000I-40000J0D01*
G01*
X23408000Y-7874000D02*
G75*
G03X23408000Y-7874000I-40000J0D01*
G01*
X23408000Y-8636000D02*
G75*
G03X23408000Y-8636000I-40000J0D01*
G01*
X15280000Y-7116000D02*
G75*
G03X15280000Y-7116000I-40000J0D01*
G01*
X15280000Y-7366000D02*
G75*
G03X15280000Y-7366000I-40000J0D01*
G01*
X8676000Y-11184000D02*
G75*
G03X8676000Y-11184000I-40000J0D01*
G01*
X8676000Y-11684000D02*
G75*
G03X8676000Y-11684000I-40000J0D01*
G01*
X9184000Y-11176000D02*
G75*
G03X9184000Y-11176000I-40000J0D01*
G01*
X9184000Y-11938000D02*
G75*
G03X9184000Y-11938000I-40000J0D01*
G01*
X9438000Y-11176000D02*
G75*
G03X9438000Y-11176000I-40000J0D01*
G01*
X9438000Y-11938000D02*
G75*
G03X9438000Y-11938000I-40000J0D01*
G01*
X9692000Y-11176000D02*
G75*
G03X9692000Y-11176000I-40000J0D01*
G01*
X9692000Y-11938000D02*
G75*
G03X9692000Y-11938000I-40000J0D01*
G01*
X9946000Y-11176000D02*
G75*
G03X9946000Y-11176000I-40000J0D01*
G01*
X9946000Y-11938000D02*
G75*
G03X9946000Y-11938000I-40000J0D01*
G01*
X10200000Y-11176000D02*
G75*
G03X10200000Y-11176000I-40000J0D01*
G01*
X10200000Y-11938000D02*
G75*
G03X10200000Y-11938000I-40000J0D01*
G01*
X10454000Y-11176000D02*
G75*
G03X10454000Y-11176000I-40000J0D01*
G01*
X10454000Y-11938000D02*
G75*
G03X10454000Y-11938000I-40000J0D01*
G01*
X10708000Y-11176000D02*
G75*
G03X10708000Y-11176000I-40000J0D01*
G01*
X10708000Y-11938000D02*
G75*
G03X10708000Y-11938000I-40000J0D01*
G01*
X10962000Y-11176000D02*
G75*
G03X10962000Y-11176000I-40000J0D01*
G01*
X10962000Y-11938000D02*
G75*
G03X10962000Y-11938000I-40000J0D01*
G01*
X22987000Y-6305000D02*
X22987000Y-6395000D01*
X22942000Y-6350000D02*
X23032000Y-6350000D01*
X23241000Y-6305000D02*
X23241000Y-6395000D01*
X23196000Y-6350000D02*
X23286000Y-6350000D01*
X16637000Y-6305000D02*
X16637000Y-6395000D01*
X16592000Y-6350000D02*
X16682000Y-6350000D01*
X16891000Y-6305000D02*
X16891000Y-6395000D01*
X16846000Y-6350000D02*
X16936000Y-6350000D01*
X16002000Y-6305000D02*
X16002000Y-6395000D01*
X15957000Y-6350000D02*
X16047000Y-6350000D01*
X16256000Y-6305000D02*
X16256000Y-6395000D01*
X16211000Y-6350000D02*
X16301000Y-6350000D01*
X19177000Y-6305000D02*
X19177000Y-6395000D01*
X19132000Y-6350000D02*
X19222000Y-6350000D01*
X19431000Y-6305000D02*
X19431000Y-6395000D01*
X19386000Y-6350000D02*
X19476000Y-6350000D01*
X24892000Y-6305000D02*
X24892000Y-6395000D01*
X24847000Y-6350000D02*
X24937000Y-6350000D01*
X25146000Y-6305000D02*
X25146000Y-6395000D01*
X25101000Y-6350000D02*
X25191000Y-6350000D01*
X18542000Y-6305000D02*
X18542000Y-6395000D01*
X18497000Y-6350000D02*
X18587000Y-6350000D01*
X18796000Y-6305000D02*
X18796000Y-6395000D01*
X18751000Y-6350000D02*
X18841000Y-6350000D01*
X19812000Y-6305000D02*
X19812000Y-6395000D01*
X19767000Y-6350000D02*
X19857000Y-6350000D01*
X20066000Y-6305000D02*
X20066000Y-6395000D01*
X20021000Y-6350000D02*
X20111000Y-6350000D01*
X21717000Y-6305000D02*
X21717000Y-6395000D01*
X21672000Y-6350000D02*
X21762000Y-6350000D01*
X21971000Y-6305000D02*
X21971000Y-6395000D01*
X21926000Y-6350000D02*
X22016000Y-6350000D01*
X22352000Y-6305000D02*
X22352000Y-6395000D01*
X22307000Y-6350000D02*
X22397000Y-6350000D01*
X22606000Y-6305000D02*
X22606000Y-6395000D01*
X22561000Y-6350000D02*
X22651000Y-6350000D01*
X21082000Y-6305000D02*
X21082000Y-6395000D01*
X21037000Y-6350000D02*
X21127000Y-6350000D01*
X21336000Y-6305000D02*
X21336000Y-6395000D01*
X21291000Y-6350000D02*
X21381000Y-6350000D01*
X24257000Y-6305000D02*
X24257000Y-6395000D01*
X24212000Y-6350000D02*
X24302000Y-6350000D01*
X24511000Y-6305000D02*
X24511000Y-6395000D01*
X24466000Y-6350000D02*
X24556000Y-6350000D01*
X17907000Y-6305000D02*
X17907000Y-6395000D01*
X17862000Y-6350000D02*
X17952000Y-6350000D01*
X18161000Y-6305000D02*
X18161000Y-6395000D01*
X18116000Y-6350000D02*
X18206000Y-6350000D01*
X23622000Y-6305000D02*
X23622000Y-6395000D01*
X23577000Y-6350000D02*
X23667000Y-6350000D01*
X23876000Y-6305000D02*
X23876000Y-6395000D01*
X23831000Y-6350000D02*
X23921000Y-6350000D01*
X15367000Y-6305000D02*
X15367000Y-6395000D01*
X15322000Y-6350000D02*
X15412000Y-6350000D01*
X15621000Y-6305000D02*
X15621000Y-6395000D01*
X15576000Y-6350000D02*
X15666000Y-6350000D01*
X20447000Y-6305000D02*
X20447000Y-6395000D01*
X20402000Y-6350000D02*
X20492000Y-6350000D01*
X20701000Y-6305000D02*
X20701000Y-6395000D01*
X20656000Y-6350000D02*
X20746000Y-6350000D01*
X17272000Y-6305000D02*
X17272000Y-6395000D01*
X17227000Y-6350000D02*
X17317000Y-6350000D01*
X17526000Y-6305000D02*
X17526000Y-6395000D01*
X17481000Y-6350000D02*
X17571000Y-6350000D01*
X6385356Y-14513356D02*
X6385356Y-14442644D01*
X6314644Y-14442644D01*
X6314644Y-14513356D01*
X6385356Y-14513356D01*
X6639356Y-14513356D02*
X6639356Y-14442644D01*
X6568644Y-14442644D01*
X6568644Y-14513356D01*
X6639356Y-14513356D01*
X6893356Y-14513356D02*
X6893356Y-14442644D01*
X6822644Y-14442644D01*
X6822644Y-14513356D01*
X6893356Y-14513356D01*
X7147356Y-14513356D02*
X7147356Y-14442644D01*
X7076644Y-14442644D01*
X7076644Y-14513356D01*
X7147356Y-14513356D01*
X7401356Y-14513356D02*
X7401356Y-14442644D01*
X7330644Y-14442644D01*
X7330644Y-14513356D01*
X7401356Y-14513356D01*
X7655356Y-14513356D02*
X7655356Y-14442644D01*
X7584644Y-14442644D01*
X7584644Y-14513356D01*
X7655356Y-14513356D01*
X7909356Y-14513356D02*
X7909356Y-14442644D01*
X7838644Y-14442644D01*
X7838644Y-14513356D01*
X7909356Y-14513356D01*
X8163356Y-14513356D02*
X8163356Y-14442644D01*
X8092644Y-14442644D01*
X8092644Y-14513356D01*
X8163356Y-14513356D01*
X8417356Y-14513356D02*
X8417356Y-14442644D01*
X8346644Y-14442644D01*
X8346644Y-14513356D01*
X8417356Y-14513356D01*
X8671356Y-14513356D02*
X8671356Y-14442644D01*
X8600644Y-14442644D01*
X8600644Y-14513356D01*
X8671356Y-14513356D01*
X5369356Y-6131356D02*
X5369356Y-6060644D01*
X5298644Y-6060644D01*
X5298644Y-6131356D01*
X5369356Y-6131356D01*
X5623356Y-6131356D02*
X5623356Y-6060644D01*
X5552644Y-6060644D01*
X5552644Y-6131356D01*
X5623356Y-6131356D01*
X5877356Y-6131356D02*
X5877356Y-6060644D01*
X5806644Y-6060644D01*
X5806644Y-6131356D01*
X5877356Y-6131356D01*
X6131356Y-6131356D02*
X6131356Y-6060644D01*
X6060644Y-6060644D01*
X6060644Y-6131356D01*
X6131356Y-6131356D01*
X6385356Y-6131356D02*
X6385356Y-6060644D01*
X6314644Y-6060644D01*
X6314644Y-6131356D01*
X6385356Y-6131356D01*
X6639356Y-6131356D02*
X6639356Y-6060644D01*
X6568644Y-6060644D01*
X6568644Y-6131356D01*
X6639356Y-6131356D01*
X6893356Y-6131356D02*
X6893356Y-6060644D01*
X6822644Y-6060644D01*
X6822644Y-6131356D01*
X6893356Y-6131356D01*
X7147356Y-6131356D02*
X7147356Y-6060644D01*
X7076644Y-6060644D01*
X7076644Y-6131356D01*
X7147356Y-6131356D01*
X7401356Y-6131356D02*
X7401356Y-6060644D01*
X7330644Y-6060644D01*
X7330644Y-6131356D01*
X7401356Y-6131356D01*
X7655356Y-6131356D02*
X7655356Y-6060644D01*
X7584644Y-6060644D01*
X7584644Y-6131356D01*
X7655356Y-6131356D01*
X7909356Y-6131356D02*
X7909356Y-6060644D01*
X7838644Y-6060644D01*
X7838644Y-6131356D01*
X7909356Y-6131356D01*
X8163356Y-6131356D02*
X8163356Y-6060644D01*
X8092644Y-6060644D01*
X8092644Y-6131356D01*
X8163356Y-6131356D01*
X8417356Y-6131356D02*
X8417356Y-6060644D01*
X8346644Y-6060644D01*
X8346644Y-6131356D01*
X8417356Y-6131356D01*
X8671356Y-6131356D02*
X8671356Y-6060644D01*
X8600644Y-6060644D01*
X8600644Y-6131356D01*
X8671356Y-6131356D01*
X8925356Y-6131356D02*
X8925356Y-6060644D01*
X8854644Y-6060644D01*
X8854644Y-6131356D01*
X8925356Y-6131356D01*
X9179356Y-6131356D02*
X9179356Y-6060644D01*
X9108644Y-6060644D01*
X9108644Y-6131356D01*
X9179356Y-6131356D01*
X9941356Y-14513356D02*
X9941356Y-14442644D01*
X9870644Y-14442644D01*
X9870644Y-14513356D01*
X9941356Y-14513356D01*
X10195356Y-14513356D02*
X10195356Y-14442644D01*
X10124644Y-14442644D01*
X10124644Y-14513356D01*
X10195356Y-14513356D01*
X10449356Y-14513356D02*
X10449356Y-14442644D01*
X10378644Y-14442644D01*
X10378644Y-14513356D01*
X10449356Y-14513356D01*
X10703356Y-14513356D02*
X10703356Y-14442644D01*
X10632644Y-14442644D01*
X10632644Y-14513356D01*
X10703356Y-14513356D01*
X10957356Y-14513356D02*
X10957356Y-14442644D01*
X10886644Y-14442644D01*
X10886644Y-14513356D01*
X10957356Y-14513356D01*
X11211356Y-14513356D02*
X11211356Y-14442644D01*
X11140644Y-14442644D01*
X11140644Y-14513356D01*
X11211356Y-14513356D01*
X11465356Y-14513356D02*
X11465356Y-14442644D01*
X11394644Y-14442644D01*
X11394644Y-14513356D01*
X11465356Y-14513356D01*
X11719356Y-14513356D02*
X11719356Y-14442644D01*
X11648644Y-14442644D01*
X11648644Y-14513356D01*
X11719356Y-14513356D01*
X11973356Y-14513356D02*
X11973356Y-14442644D01*
X11902644Y-14442644D01*
X11902644Y-14513356D01*
X11973356Y-14513356D01*
X12227356Y-14513356D02*
X12227356Y-14442644D01*
X12156644Y-14442644D01*
X12156644Y-14513356D01*
X12227356Y-14513356D01*
X12481356Y-14513356D02*
X12481356Y-14442644D01*
X12410644Y-14442644D01*
X12410644Y-14513356D01*
X12481356Y-14513356D01*
X12735356Y-14513356D02*
X12735356Y-14442644D01*
X12664644Y-14442644D01*
X12664644Y-14513356D01*
X12735356Y-14513356D01*
X12989356Y-14513356D02*
X12989356Y-14442644D01*
X12918644Y-14442644D01*
X12918644Y-14513356D01*
X12989356Y-14513356D01*
X13243356Y-14513356D02*
X13243356Y-14442644D01*
X13172644Y-14442644D01*
X13172644Y-14513356D01*
X13243356Y-14513356D01*
X13497356Y-14513356D02*
X13497356Y-14442644D01*
X13426644Y-14442644D01*
X13426644Y-14513356D01*
X13497356Y-14513356D01*
X13751356Y-14513356D02*
X13751356Y-14442644D01*
X13680644Y-14442644D01*
X13680644Y-14513356D01*
X13751356Y-14513356D01*
X16291356Y-14513356D02*
X16291356Y-14442644D01*
X16220644Y-14442644D01*
X16220644Y-14513356D01*
X16291356Y-14513356D01*
X16545356Y-14513356D02*
X16545356Y-14442644D01*
X16474644Y-14442644D01*
X16474644Y-14513356D01*
X16545356Y-14513356D01*
X16799356Y-14513356D02*
X16799356Y-14442644D01*
X16728644Y-14442644D01*
X16728644Y-14513356D01*
X16799356Y-14513356D01*
X17053356Y-14513356D02*
X17053356Y-14442644D01*
X16982644Y-14442644D01*
X16982644Y-14513356D01*
X17053356Y-14513356D01*
X17307356Y-14513356D02*
X17307356Y-14442644D01*
X17236644Y-14442644D01*
X17236644Y-14513356D01*
X17307356Y-14513356D01*
X17561356Y-14513356D02*
X17561356Y-14442644D01*
X17490644Y-14442644D01*
X17490644Y-14513356D01*
X17561356Y-14513356D01*
X17815356Y-14513356D02*
X17815356Y-14442644D01*
X17744644Y-14442644D01*
X17744644Y-14513356D01*
X17815356Y-14513356D01*
X18069356Y-14513356D02*
X18069356Y-14442644D01*
X17998644Y-14442644D01*
X17998644Y-14513356D01*
X18069356Y-14513356D01*
X18323356Y-14513356D02*
X18323356Y-14442644D01*
X18252644Y-14442644D01*
X18252644Y-14513356D01*
X18323356Y-14513356D01*
X18577356Y-14513356D02*
X18577356Y-14442644D01*
X18506644Y-14442644D01*
X18506644Y-14513356D01*
X18577356Y-14513356D01*
X18831356Y-14513356D02*
X18831356Y-14442644D01*
X18760644Y-14442644D01*
X18760644Y-14513356D01*
X18831356Y-14513356D01*
X19085356Y-14513356D02*
X19085356Y-14442644D01*
X19014644Y-14442644D01*
X19014644Y-14513356D01*
X19085356Y-14513356D01*
X19339356Y-14513356D02*
X19339356Y-14442644D01*
X19268644Y-14442644D01*
X19268644Y-14513356D01*
X19339356Y-14513356D01*
X19593356Y-14513356D02*
X19593356Y-14442644D01*
X19522644Y-14442644D01*
X19522644Y-14513356D01*
X19593356Y-14513356D01*
X19847356Y-14513356D02*
X19847356Y-14442644D01*
X19776644Y-14442644D01*
X19776644Y-14513356D01*
X19847356Y-14513356D01*
X20101356Y-14513356D02*
X20101356Y-14442644D01*
X20030644Y-14442644D01*
X20030644Y-14513356D01*
X20101356Y-14513356D01*
X20355356Y-14513356D02*
X20355356Y-14442644D01*
X20284644Y-14442644D01*
X20284644Y-14513356D01*
X20355356Y-14513356D01*
X20609356Y-14513356D02*
X20609356Y-14442644D01*
X20538644Y-14442644D01*
X20538644Y-14513356D01*
X20609356Y-14513356D01*
X20863356Y-14513356D02*
X20863356Y-14442644D01*
X20792644Y-14442644D01*
X20792644Y-14513356D01*
X20863356Y-14513356D01*
X21117356Y-14513356D02*
X21117356Y-14442644D01*
X21046644Y-14442644D01*
X21046644Y-14513356D01*
X21117356Y-14513356D01*
X21371356Y-14513356D02*
X21371356Y-14442644D01*
X21300644Y-14442644D01*
X21300644Y-14513356D01*
X21371356Y-14513356D01*
X21625356Y-14513356D02*
X21625356Y-14442644D01*
X21554644Y-14442644D01*
X21554644Y-14513356D01*
X21625356Y-14513356D01*
X21879356Y-14513356D02*
X21879356Y-14442644D01*
X21808644Y-14442644D01*
X21808644Y-14513356D01*
X21879356Y-14513356D01*
X22133356Y-14513356D02*
X22133356Y-14442644D01*
X22062644Y-14442644D01*
X22062644Y-14513356D01*
X22133356Y-14513356D01*
X22387356Y-14513356D02*
X22387356Y-14442644D01*
X22316644Y-14442644D01*
X22316644Y-14513356D01*
X22387356Y-14513356D01*
X22641356Y-14513356D02*
X22641356Y-14442644D01*
X22570644Y-14442644D01*
X22570644Y-14513356D01*
X22641356Y-14513356D01*
X22895356Y-14513356D02*
X22895356Y-14442644D01*
X22824644Y-14442644D01*
X22824644Y-14513356D01*
X22895356Y-14513356D01*
X23149356Y-14513356D02*
X23149356Y-14442644D01*
X23078644Y-14442644D01*
X23078644Y-14513356D01*
X23149356Y-14513356D01*
X23403356Y-14513356D02*
X23403356Y-14442644D01*
X23332644Y-14442644D01*
X23332644Y-14513356D01*
X23403356Y-14513356D01*
X23657356Y-14513356D02*
X23657356Y-14442644D01*
X23586644Y-14442644D01*
X23586644Y-14513356D01*
X23657356Y-14513356D01*
X23911356Y-14513356D02*
X23911356Y-14442644D01*
X23840644Y-14442644D01*
X23840644Y-14513356D01*
X23911356Y-14513356D01*
X24165356Y-14513356D02*
X24165356Y-14442644D01*
X24094644Y-14442644D01*
X24094644Y-14513356D01*
X24165356Y-14513356D01*
X24165356Y-7909356D02*
X24165356Y-7838644D01*
X24094644Y-7838644D01*
X24094644Y-7909356D01*
X24165356Y-7909356D01*
X24165356Y-8163356D02*
X24165356Y-8092644D01*
X24094644Y-8092644D01*
X24094644Y-8163356D01*
X24165356Y-8163356D01*
X24165356Y-8417356D02*
X24165356Y-8346644D01*
X24094644Y-8346644D01*
X24094644Y-8417356D01*
X24165356Y-8417356D01*
X9687356Y-6131356D02*
X9687356Y-6060644D01*
X9616644Y-6060644D01*
X9616644Y-6131356D01*
X9687356Y-6131356D01*
X9941356Y-6131356D02*
X9941356Y-6060644D01*
X9870644Y-6060644D01*
X9870644Y-6131356D01*
X9941356Y-6131356D01*
D12*
X5363928Y-15327214D02*
X5363928Y-15027214D01*
X5435357Y-15027214D01*
X5478214Y-15041500D01*
X5506786Y-15070071D01*
X5521071Y-15098643D01*
X5535357Y-15155786D01*
X5535357Y-15198643D01*
X5521071Y-15255786D01*
X5506786Y-15284357D01*
X5478214Y-15312929D01*
X5435357Y-15327214D01*
X5363928Y-15327214D01*
X5663928Y-15327214D02*
X5663928Y-15127214D01*
X5663928Y-15184357D02*
X5678214Y-15155786D01*
X5692500Y-15141500D01*
X5721071Y-15127214D01*
X5749643Y-15127214D01*
X5849643Y-15327214D02*
X5849643Y-15127214D01*
X5849643Y-15027214D02*
X5835357Y-15041500D01*
X5849643Y-15055786D01*
X5863928Y-15041500D01*
X5849643Y-15027214D01*
X5849643Y-15055786D01*
X6035357Y-15327214D02*
X6006786Y-15312929D01*
X5992500Y-15284357D01*
X5992500Y-15027214D01*
X6192500Y-15327214D02*
X6163928Y-15312929D01*
X6149643Y-15284357D01*
X6149643Y-15027214D01*
X6535357Y-15327214D02*
X6535357Y-15027214D01*
X6635357Y-15241500D01*
X6735357Y-15027214D01*
X6735357Y-15327214D01*
X7006786Y-15327214D02*
X7006786Y-15170071D01*
X6992500Y-15141500D01*
X6963928Y-15127214D01*
X6906786Y-15127214D01*
X6878214Y-15141500D01*
X7006786Y-15312929D02*
X6978214Y-15327214D01*
X6906786Y-15327214D01*
X6878214Y-15312929D01*
X6863928Y-15284357D01*
X6863928Y-15255786D01*
X6878214Y-15227214D01*
X6906786Y-15212929D01*
X6978214Y-15212929D01*
X7006786Y-15198643D01*
X7149643Y-15127214D02*
X7149643Y-15427214D01*
X7149643Y-15141500D02*
X7178214Y-15127214D01*
X7235357Y-15127214D01*
X7263928Y-15141500D01*
X7278214Y-15155786D01*
X7292500Y-15184357D01*
X7292500Y-15270071D01*
X7278214Y-15298643D01*
X7263928Y-15312929D01*
X7235357Y-15327214D01*
X7178214Y-15327214D01*
X7149643Y-15312929D01*
X7421071Y-15298643D02*
X7435357Y-15312929D01*
X7421071Y-15327214D01*
X7406786Y-15312929D01*
X7421071Y-15298643D01*
X7421071Y-15327214D01*
X7421071Y-15141500D02*
X7435357Y-15155786D01*
X7421071Y-15170071D01*
X7406786Y-15155786D01*
X7421071Y-15141500D01*
X7421071Y-15170071D01*
X5037500Y-15801500D02*
X5077500Y-15841500D01*
X5077500Y-15801500D02*
X5037500Y-15841500D01*
X5421071Y-15657214D02*
X5449643Y-15657214D01*
X5478214Y-15671500D01*
X5492500Y-15685786D01*
X5506786Y-15714357D01*
X5521071Y-15771500D01*
X5521071Y-15842929D01*
X5506786Y-15900071D01*
X5492500Y-15928643D01*
X5478214Y-15942929D01*
X5449643Y-15957214D01*
X5421071Y-15957214D01*
X5392500Y-15942929D01*
X5378214Y-15928643D01*
X5363928Y-15900071D01*
X5349643Y-15842929D01*
X5349643Y-15771500D01*
X5363928Y-15714357D01*
X5378214Y-15685786D01*
X5392500Y-15671500D01*
X5421071Y-15657214D01*
X5649643Y-15928643D02*
X5663928Y-15942929D01*
X5649643Y-15957214D01*
X5635357Y-15942929D01*
X5649643Y-15928643D01*
X5649643Y-15957214D01*
X5921071Y-15757214D02*
X5921071Y-15957214D01*
X5849643Y-15642929D02*
X5778214Y-15857214D01*
X5963928Y-15857214D01*
X6135357Y-15657214D02*
X6163928Y-15657214D01*
X6192500Y-15671500D01*
X6206786Y-15685786D01*
X6221071Y-15714357D01*
X6235357Y-15771500D01*
X6235357Y-15842929D01*
X6221071Y-15900071D01*
X6206786Y-15928643D01*
X6192500Y-15942929D01*
X6163928Y-15957214D01*
X6135357Y-15957214D01*
X6106786Y-15942929D01*
X6092500Y-15928643D01*
X6078214Y-15900071D01*
X6063928Y-15842929D01*
X6063928Y-15771500D01*
X6078214Y-15714357D01*
X6092500Y-15685786D01*
X6106786Y-15671500D01*
X6135357Y-15657214D01*
X6363928Y-15957214D02*
X6363928Y-15757214D01*
X6363928Y-15785786D02*
X6378214Y-15771500D01*
X6406786Y-15757214D01*
X6449643Y-15757214D01*
X6478214Y-15771500D01*
X6492500Y-15800071D01*
X6492500Y-15957214D01*
X6492500Y-15800071D02*
X6506786Y-15771500D01*
X6535357Y-15757214D01*
X6578214Y-15757214D01*
X6606786Y-15771500D01*
X6621071Y-15800071D01*
X6621071Y-15957214D01*
X6763928Y-15957214D02*
X6763928Y-15757214D01*
X6763928Y-15785786D02*
X6778214Y-15771500D01*
X6806786Y-15757214D01*
X6849643Y-15757214D01*
X6878214Y-15771500D01*
X6892500Y-15800071D01*
X6892500Y-15957214D01*
X6892500Y-15800071D02*
X6906786Y-15771500D01*
X6935357Y-15757214D01*
X6978214Y-15757214D01*
X7006786Y-15771500D01*
X7021071Y-15800071D01*
X7021071Y-15957214D01*
X7606786Y-15642929D02*
X7349643Y-16028643D01*
X7992500Y-15657214D02*
X8021071Y-15657214D01*
X8049643Y-15671500D01*
X8063928Y-15685786D01*
X8078214Y-15714357D01*
X8092500Y-15771500D01*
X8092500Y-15842929D01*
X8078214Y-15900071D01*
X8063928Y-15928643D01*
X8049643Y-15942929D01*
X8021071Y-15957214D01*
X7992500Y-15957214D01*
X7963928Y-15942929D01*
X7949643Y-15928643D01*
X7935357Y-15900071D01*
X7921071Y-15842929D01*
X7921071Y-15771500D01*
X7935357Y-15714357D01*
X7949643Y-15685786D01*
X7963928Y-15671500D01*
X7992500Y-15657214D01*
X8221071Y-15928643D02*
X8235357Y-15942929D01*
X8221071Y-15957214D01*
X8206786Y-15942929D01*
X8221071Y-15928643D01*
X8221071Y-15957214D01*
X8421071Y-15657214D02*
X8449643Y-15657214D01*
X8478214Y-15671500D01*
X8492500Y-15685786D01*
X8506786Y-15714357D01*
X8521071Y-15771500D01*
X8521071Y-15842929D01*
X8506786Y-15900071D01*
X8492500Y-15928643D01*
X8478214Y-15942929D01*
X8449643Y-15957214D01*
X8421071Y-15957214D01*
X8392500Y-15942929D01*
X8378214Y-15928643D01*
X8363928Y-15900071D01*
X8349643Y-15842929D01*
X8349643Y-15771500D01*
X8363928Y-15714357D01*
X8378214Y-15685786D01*
X8392500Y-15671500D01*
X8421071Y-15657214D01*
X8806786Y-15957214D02*
X8635357Y-15957214D01*
X8721071Y-15957214D02*
X8721071Y-15657214D01*
X8692500Y-15700071D01*
X8663928Y-15728643D01*
X8635357Y-15742929D01*
X9063928Y-15657214D02*
X9006786Y-15657214D01*
X8978214Y-15671500D01*
X8963928Y-15685786D01*
X8935357Y-15728643D01*
X8921071Y-15785786D01*
X8921071Y-15900071D01*
X8935357Y-15928643D01*
X8949643Y-15942929D01*
X8978214Y-15957214D01*
X9035357Y-15957214D01*
X9063928Y-15942929D01*
X9078214Y-15928643D01*
X9092500Y-15900071D01*
X9092500Y-15828643D01*
X9078214Y-15800071D01*
X9063928Y-15785786D01*
X9035357Y-15771500D01*
X8978214Y-15771500D01*
X8949643Y-15785786D01*
X8935357Y-15800071D01*
X8921071Y-15828643D01*
X9206786Y-15657214D02*
X9206786Y-15714357D01*
X9321071Y-15657214D02*
X9321071Y-15714357D01*
X9763928Y-16071500D02*
X9749643Y-16057214D01*
X9721071Y-16014357D01*
X9706786Y-15985786D01*
X9692500Y-15942929D01*
X9678214Y-15871500D01*
X9678214Y-15814357D01*
X9692500Y-15742929D01*
X9706786Y-15700071D01*
X9721071Y-15671500D01*
X9749643Y-15628643D01*
X9763928Y-15614357D01*
X10035357Y-15957214D02*
X9863928Y-15957214D01*
X9949643Y-15957214D02*
X9949643Y-15657214D01*
X9921071Y-15700071D01*
X9892500Y-15728643D01*
X9863928Y-15742929D01*
X10178214Y-15957214D02*
X10235357Y-15957214D01*
X10263928Y-15942929D01*
X10278214Y-15928643D01*
X10306786Y-15885786D01*
X10321071Y-15828643D01*
X10321071Y-15714357D01*
X10306786Y-15685786D01*
X10292500Y-15671500D01*
X10263928Y-15657214D01*
X10206786Y-15657214D01*
X10178214Y-15671500D01*
X10163928Y-15685786D01*
X10149643Y-15714357D01*
X10149643Y-15785786D01*
X10163928Y-15814357D01*
X10178214Y-15828643D01*
X10206786Y-15842929D01*
X10263928Y-15842929D01*
X10292500Y-15828643D01*
X10306786Y-15814357D01*
X10321071Y-15785786D01*
X10578214Y-15657214D02*
X10521071Y-15657214D01*
X10492500Y-15671500D01*
X10478214Y-15685786D01*
X10449643Y-15728643D01*
X10435357Y-15785786D01*
X10435357Y-15900071D01*
X10449643Y-15928643D01*
X10463928Y-15942929D01*
X10492500Y-15957214D01*
X10549643Y-15957214D01*
X10578214Y-15942929D01*
X10592500Y-15928643D01*
X10606786Y-15900071D01*
X10606786Y-15828643D01*
X10592500Y-15800071D01*
X10578214Y-15785786D01*
X10549643Y-15771500D01*
X10492500Y-15771500D01*
X10463928Y-15785786D01*
X10449643Y-15800071D01*
X10435357Y-15828643D01*
X10963928Y-15957214D02*
X10963928Y-15657214D01*
X11092500Y-15957214D02*
X11092500Y-15800071D01*
X11078214Y-15771500D01*
X11049643Y-15757214D01*
X11006786Y-15757214D01*
X10978214Y-15771500D01*
X10963928Y-15785786D01*
X11278214Y-15957214D02*
X11249643Y-15942929D01*
X11235357Y-15928643D01*
X11221071Y-15900071D01*
X11221071Y-15814357D01*
X11235357Y-15785786D01*
X11249643Y-15771500D01*
X11278214Y-15757214D01*
X11321071Y-15757214D01*
X11349643Y-15771500D01*
X11363928Y-15785786D01*
X11378214Y-15814357D01*
X11378214Y-15900071D01*
X11363928Y-15928643D01*
X11349643Y-15942929D01*
X11321071Y-15957214D01*
X11278214Y-15957214D01*
X11549643Y-15957214D02*
X11521071Y-15942929D01*
X11506786Y-15914357D01*
X11506786Y-15657214D01*
X11778214Y-15942929D02*
X11749643Y-15957214D01*
X11692500Y-15957214D01*
X11663928Y-15942929D01*
X11649643Y-15914357D01*
X11649643Y-15800071D01*
X11663928Y-15771500D01*
X11692500Y-15757214D01*
X11749643Y-15757214D01*
X11778214Y-15771500D01*
X11792500Y-15800071D01*
X11792500Y-15828643D01*
X11649643Y-15857214D01*
X11906786Y-15942929D02*
X11935357Y-15957214D01*
X11992500Y-15957214D01*
X12021071Y-15942929D01*
X12035357Y-15914357D01*
X12035357Y-15900071D01*
X12021071Y-15871500D01*
X11992500Y-15857214D01*
X11949643Y-15857214D01*
X11921071Y-15842929D01*
X11906786Y-15814357D01*
X11906786Y-15800071D01*
X11921071Y-15771500D01*
X11949643Y-15757214D01*
X11992500Y-15757214D01*
X12021071Y-15771500D01*
X12135357Y-16071500D02*
X12149643Y-16057214D01*
X12178214Y-16014357D01*
X12192500Y-15985786D01*
X12206786Y-15942929D01*
X12221071Y-15871500D01*
X12221071Y-15814357D01*
X12206786Y-15742929D01*
X12192500Y-15700071D01*
X12178214Y-15671500D01*
X12149643Y-15628643D01*
X12135357Y-15614357D01*
X5077500Y-16217500D02*
G75*
G03X5077500Y-16217500I-40000J0D01*
G01*
X5421071Y-16053214D02*
X5449643Y-16053214D01*
X5478214Y-16067500D01*
X5492500Y-16081786D01*
X5506786Y-16110357D01*
X5521071Y-16167500D01*
X5521071Y-16238929D01*
X5506786Y-16296071D01*
X5492500Y-16324643D01*
X5478214Y-16338929D01*
X5449643Y-16353214D01*
X5421071Y-16353214D01*
X5392500Y-16338929D01*
X5378214Y-16324643D01*
X5363928Y-16296071D01*
X5349643Y-16238929D01*
X5349643Y-16167500D01*
X5363928Y-16110357D01*
X5378214Y-16081786D01*
X5392500Y-16067500D01*
X5421071Y-16053214D01*
X5649643Y-16324643D02*
X5663928Y-16338929D01*
X5649643Y-16353214D01*
X5635357Y-16338929D01*
X5649643Y-16324643D01*
X5649643Y-16353214D01*
X5835357Y-16181786D02*
X5806786Y-16167500D01*
X5792500Y-16153214D01*
X5778214Y-16124643D01*
X5778214Y-16110357D01*
X5792500Y-16081786D01*
X5806786Y-16067500D01*
X5835357Y-16053214D01*
X5892500Y-16053214D01*
X5921071Y-16067500D01*
X5935357Y-16081786D01*
X5949643Y-16110357D01*
X5949643Y-16124643D01*
X5935357Y-16153214D01*
X5921071Y-16167500D01*
X5892500Y-16181786D01*
X5835357Y-16181786D01*
X5806786Y-16196071D01*
X5792500Y-16210357D01*
X5778214Y-16238929D01*
X5778214Y-16296071D01*
X5792500Y-16324643D01*
X5806786Y-16338929D01*
X5835357Y-16353214D01*
X5892500Y-16353214D01*
X5921071Y-16338929D01*
X5935357Y-16324643D01*
X5949643Y-16296071D01*
X5949643Y-16238929D01*
X5935357Y-16210357D01*
X5921071Y-16196071D01*
X5892500Y-16181786D01*
X6135357Y-16053214D02*
X6163928Y-16053214D01*
X6192500Y-16067500D01*
X6206786Y-16081786D01*
X6221071Y-16110357D01*
X6235357Y-16167500D01*
X6235357Y-16238929D01*
X6221071Y-16296071D01*
X6206786Y-16324643D01*
X6192500Y-16338929D01*
X6163928Y-16353214D01*
X6135357Y-16353214D01*
X6106786Y-16338929D01*
X6092500Y-16324643D01*
X6078214Y-16296071D01*
X6063928Y-16238929D01*
X6063928Y-16167500D01*
X6078214Y-16110357D01*
X6092500Y-16081786D01*
X6106786Y-16067500D01*
X6135357Y-16053214D01*
X6363928Y-16353214D02*
X6363928Y-16153214D01*
X6363928Y-16181786D02*
X6378214Y-16167500D01*
X6406786Y-16153214D01*
X6449643Y-16153214D01*
X6478214Y-16167500D01*
X6492500Y-16196071D01*
X6492500Y-16353214D01*
X6492500Y-16196071D02*
X6506786Y-16167500D01*
X6535357Y-16153214D01*
X6578214Y-16153214D01*
X6606786Y-16167500D01*
X6621071Y-16196071D01*
X6621071Y-16353214D01*
X6763928Y-16353214D02*
X6763928Y-16153214D01*
X6763928Y-16181786D02*
X6778214Y-16167500D01*
X6806786Y-16153214D01*
X6849643Y-16153214D01*
X6878214Y-16167500D01*
X6892500Y-16196071D01*
X6892500Y-16353214D01*
X6892500Y-16196071D02*
X6906786Y-16167500D01*
X6935357Y-16153214D01*
X6978214Y-16153214D01*
X7006786Y-16167500D01*
X7021071Y-16196071D01*
X7021071Y-16353214D01*
X7606786Y-16038929D02*
X7349643Y-16424643D01*
X7992500Y-16053214D02*
X8021071Y-16053214D01*
X8049643Y-16067500D01*
X8063928Y-16081786D01*
X8078214Y-16110357D01*
X8092500Y-16167500D01*
X8092500Y-16238929D01*
X8078214Y-16296071D01*
X8063928Y-16324643D01*
X8049643Y-16338929D01*
X8021071Y-16353214D01*
X7992500Y-16353214D01*
X7963928Y-16338929D01*
X7949643Y-16324643D01*
X7935357Y-16296071D01*
X7921071Y-16238929D01*
X7921071Y-16167500D01*
X7935357Y-16110357D01*
X7949643Y-16081786D01*
X7963928Y-16067500D01*
X7992500Y-16053214D01*
X8221071Y-16324643D02*
X8235357Y-16338929D01*
X8221071Y-16353214D01*
X8206786Y-16338929D01*
X8221071Y-16324643D01*
X8221071Y-16353214D01*
X8421071Y-16053214D02*
X8449643Y-16053214D01*
X8478214Y-16067500D01*
X8492500Y-16081786D01*
X8506786Y-16110357D01*
X8521071Y-16167500D01*
X8521071Y-16238929D01*
X8506786Y-16296071D01*
X8492500Y-16324643D01*
X8478214Y-16338929D01*
X8449643Y-16353214D01*
X8421071Y-16353214D01*
X8392500Y-16338929D01*
X8378214Y-16324643D01*
X8363928Y-16296071D01*
X8349643Y-16238929D01*
X8349643Y-16167500D01*
X8363928Y-16110357D01*
X8378214Y-16081786D01*
X8392500Y-16067500D01*
X8421071Y-16053214D01*
X8621071Y-16053214D02*
X8806786Y-16053214D01*
X8706786Y-16167500D01*
X8749643Y-16167500D01*
X8778214Y-16181786D01*
X8792500Y-16196071D01*
X8806786Y-16224643D01*
X8806786Y-16296071D01*
X8792500Y-16324643D01*
X8778214Y-16338929D01*
X8749643Y-16353214D01*
X8663928Y-16353214D01*
X8635357Y-16338929D01*
X8621071Y-16324643D01*
X9092500Y-16353214D02*
X8921071Y-16353214D01*
X9006786Y-16353214D02*
X9006786Y-16053214D01*
X8978214Y-16096071D01*
X8949643Y-16124643D01*
X8921071Y-16138929D01*
X9206786Y-16053214D02*
X9206786Y-16110357D01*
X9321071Y-16053214D02*
X9321071Y-16110357D01*
X9763928Y-16467500D02*
X9749643Y-16453214D01*
X9721071Y-16410357D01*
X9706786Y-16381786D01*
X9692500Y-16338929D01*
X9678214Y-16267500D01*
X9678214Y-16210357D01*
X9692500Y-16138929D01*
X9706786Y-16096071D01*
X9721071Y-16067500D01*
X9749643Y-16024643D01*
X9763928Y-16010357D01*
X9863928Y-16081786D02*
X9878214Y-16067500D01*
X9906786Y-16053214D01*
X9978214Y-16053214D01*
X10006786Y-16067500D01*
X10021071Y-16081786D01*
X10035357Y-16110357D01*
X10035357Y-16138929D01*
X10021071Y-16181786D01*
X9849643Y-16353214D01*
X10035357Y-16353214D01*
X10221071Y-16053214D02*
X10249643Y-16053214D01*
X10278214Y-16067500D01*
X10292500Y-16081786D01*
X10306786Y-16110357D01*
X10321071Y-16167500D01*
X10321071Y-16238929D01*
X10306786Y-16296071D01*
X10292500Y-16324643D01*
X10278214Y-16338929D01*
X10249643Y-16353214D01*
X10221071Y-16353214D01*
X10192500Y-16338929D01*
X10178214Y-16324643D01*
X10163928Y-16296071D01*
X10149643Y-16238929D01*
X10149643Y-16167500D01*
X10163928Y-16110357D01*
X10178214Y-16081786D01*
X10192500Y-16067500D01*
X10221071Y-16053214D01*
X10578214Y-16153214D02*
X10578214Y-16353214D01*
X10506786Y-16038929D02*
X10435357Y-16253214D01*
X10621071Y-16253214D01*
X10963928Y-16353214D02*
X10963928Y-16053214D01*
X11092500Y-16353214D02*
X11092500Y-16196071D01*
X11078214Y-16167500D01*
X11049643Y-16153214D01*
X11006786Y-16153214D01*
X10978214Y-16167500D01*
X10963928Y-16181786D01*
X11278214Y-16353214D02*
X11249643Y-16338929D01*
X11235357Y-16324643D01*
X11221071Y-16296071D01*
X11221071Y-16210357D01*
X11235357Y-16181786D01*
X11249643Y-16167500D01*
X11278214Y-16153214D01*
X11321071Y-16153214D01*
X11349643Y-16167500D01*
X11363928Y-16181786D01*
X11378214Y-16210357D01*
X11378214Y-16296071D01*
X11363928Y-16324643D01*
X11349643Y-16338929D01*
X11321071Y-16353214D01*
X11278214Y-16353214D01*
X11549643Y-16353214D02*
X11521071Y-16338929D01*
X11506786Y-16310357D01*
X11506786Y-16053214D01*
X11778214Y-16338929D02*
X11749643Y-16353214D01*
X11692500Y-16353214D01*
X11663928Y-16338929D01*
X11649643Y-16310357D01*
X11649643Y-16196071D01*
X11663928Y-16167500D01*
X11692500Y-16153214D01*
X11749643Y-16153214D01*
X11778214Y-16167500D01*
X11792500Y-16196071D01*
X11792500Y-16224643D01*
X11649643Y-16253214D01*
X11906786Y-16338929D02*
X11935357Y-16353214D01*
X11992500Y-16353214D01*
X12021071Y-16338929D01*
X12035357Y-16310357D01*
X12035357Y-16296071D01*
X12021071Y-16267500D01*
X11992500Y-16253214D01*
X11949643Y-16253214D01*
X11921071Y-16238929D01*
X11906786Y-16210357D01*
X11906786Y-16196071D01*
X11921071Y-16167500D01*
X11949643Y-16153214D01*
X11992500Y-16153214D01*
X12021071Y-16167500D01*
X12135357Y-16467500D02*
X12149643Y-16453214D01*
X12178214Y-16410357D01*
X12192500Y-16381786D01*
X12206786Y-16338929D01*
X12221071Y-16267500D01*
X12221071Y-16210357D01*
X12206786Y-16138929D01*
X12192500Y-16096071D01*
X12178214Y-16067500D01*
X12149643Y-16024643D01*
X12135357Y-16010357D01*
X5032500Y-16568500D02*
X5032500Y-16658500D01*
X4987500Y-16613500D02*
X5077500Y-16613500D01*
X5421071Y-16449214D02*
X5449643Y-16449214D01*
X5478214Y-16463500D01*
X5492500Y-16477786D01*
X5506786Y-16506357D01*
X5521071Y-16563500D01*
X5521071Y-16634929D01*
X5506786Y-16692071D01*
X5492500Y-16720643D01*
X5478214Y-16734929D01*
X5449643Y-16749214D01*
X5421071Y-16749214D01*
X5392500Y-16734929D01*
X5378214Y-16720643D01*
X5363928Y-16692071D01*
X5349643Y-16634929D01*
X5349643Y-16563500D01*
X5363928Y-16506357D01*
X5378214Y-16477786D01*
X5392500Y-16463500D01*
X5421071Y-16449214D01*
X5649643Y-16720643D02*
X5663928Y-16734929D01*
X5649643Y-16749214D01*
X5635357Y-16734929D01*
X5649643Y-16720643D01*
X5649643Y-16749214D01*
X5806786Y-16749214D02*
X5863928Y-16749214D01*
X5892500Y-16734929D01*
X5906786Y-16720643D01*
X5935357Y-16677786D01*
X5949643Y-16620643D01*
X5949643Y-16506357D01*
X5935357Y-16477786D01*
X5921071Y-16463500D01*
X5892500Y-16449214D01*
X5835357Y-16449214D01*
X5806786Y-16463500D01*
X5792500Y-16477786D01*
X5778214Y-16506357D01*
X5778214Y-16577786D01*
X5792500Y-16606357D01*
X5806786Y-16620643D01*
X5835357Y-16634929D01*
X5892500Y-16634929D01*
X5921071Y-16620643D01*
X5935357Y-16606357D01*
X5949643Y-16577786D01*
X6135357Y-16449214D02*
X6163928Y-16449214D01*
X6192500Y-16463500D01*
X6206786Y-16477786D01*
X6221071Y-16506357D01*
X6235357Y-16563500D01*
X6235357Y-16634929D01*
X6221071Y-16692071D01*
X6206786Y-16720643D01*
X6192500Y-16734929D01*
X6163928Y-16749214D01*
X6135357Y-16749214D01*
X6106786Y-16734929D01*
X6092500Y-16720643D01*
X6078214Y-16692071D01*
X6063928Y-16634929D01*
X6063928Y-16563500D01*
X6078214Y-16506357D01*
X6092500Y-16477786D01*
X6106786Y-16463500D01*
X6135357Y-16449214D01*
X6363928Y-16749214D02*
X6363928Y-16549214D01*
X6363928Y-16577786D02*
X6378214Y-16563500D01*
X6406786Y-16549214D01*
X6449643Y-16549214D01*
X6478214Y-16563500D01*
X6492500Y-16592071D01*
X6492500Y-16749214D01*
X6492500Y-16592071D02*
X6506786Y-16563500D01*
X6535357Y-16549214D01*
X6578214Y-16549214D01*
X6606786Y-16563500D01*
X6621071Y-16592071D01*
X6621071Y-16749214D01*
X6763928Y-16749214D02*
X6763928Y-16549214D01*
X6763928Y-16577786D02*
X6778214Y-16563500D01*
X6806786Y-16549214D01*
X6849643Y-16549214D01*
X6878214Y-16563500D01*
X6892500Y-16592071D01*
X6892500Y-16749214D01*
X6892500Y-16592071D02*
X6906786Y-16563500D01*
X6935357Y-16549214D01*
X6978214Y-16549214D01*
X7006786Y-16563500D01*
X7021071Y-16592071D01*
X7021071Y-16749214D01*
X7606786Y-16434929D02*
X7349643Y-16820643D01*
X7992500Y-16449214D02*
X8021071Y-16449214D01*
X8049643Y-16463500D01*
X8063928Y-16477786D01*
X8078214Y-16506357D01*
X8092500Y-16563500D01*
X8092500Y-16634929D01*
X8078214Y-16692071D01*
X8063928Y-16720643D01*
X8049643Y-16734929D01*
X8021071Y-16749214D01*
X7992500Y-16749214D01*
X7963928Y-16734929D01*
X7949643Y-16720643D01*
X7935357Y-16692071D01*
X7921071Y-16634929D01*
X7921071Y-16563500D01*
X7935357Y-16506357D01*
X7949643Y-16477786D01*
X7963928Y-16463500D01*
X7992500Y-16449214D01*
X8221071Y-16720643D02*
X8235357Y-16734929D01*
X8221071Y-16749214D01*
X8206786Y-16734929D01*
X8221071Y-16720643D01*
X8221071Y-16749214D01*
X8421071Y-16449214D02*
X8449643Y-16449214D01*
X8478214Y-16463500D01*
X8492500Y-16477786D01*
X8506786Y-16506357D01*
X8521071Y-16563500D01*
X8521071Y-16634929D01*
X8506786Y-16692071D01*
X8492500Y-16720643D01*
X8478214Y-16734929D01*
X8449643Y-16749214D01*
X8421071Y-16749214D01*
X8392500Y-16734929D01*
X8378214Y-16720643D01*
X8363928Y-16692071D01*
X8349643Y-16634929D01*
X8349643Y-16563500D01*
X8363928Y-16506357D01*
X8378214Y-16477786D01*
X8392500Y-16463500D01*
X8421071Y-16449214D01*
X8621071Y-16449214D02*
X8806786Y-16449214D01*
X8706786Y-16563500D01*
X8749643Y-16563500D01*
X8778214Y-16577786D01*
X8792500Y-16592071D01*
X8806786Y-16620643D01*
X8806786Y-16692071D01*
X8792500Y-16720643D01*
X8778214Y-16734929D01*
X8749643Y-16749214D01*
X8663928Y-16749214D01*
X8635357Y-16734929D01*
X8621071Y-16720643D01*
X9078214Y-16449214D02*
X8935357Y-16449214D01*
X8921071Y-16592071D01*
X8935357Y-16577786D01*
X8963928Y-16563500D01*
X9035357Y-16563500D01*
X9063928Y-16577786D01*
X9078214Y-16592071D01*
X9092500Y-16620643D01*
X9092500Y-16692071D01*
X9078214Y-16720643D01*
X9063928Y-16734929D01*
X9035357Y-16749214D01*
X8963928Y-16749214D01*
X8935357Y-16734929D01*
X8921071Y-16720643D01*
X9206786Y-16449214D02*
X9206786Y-16506357D01*
X9321071Y-16449214D02*
X9321071Y-16506357D01*
X9763928Y-16863500D02*
X9749643Y-16849214D01*
X9721071Y-16806357D01*
X9706786Y-16777786D01*
X9692500Y-16734929D01*
X9678214Y-16663500D01*
X9678214Y-16606357D01*
X9692500Y-16534929D01*
X9706786Y-16492071D01*
X9721071Y-16463500D01*
X9749643Y-16420643D01*
X9763928Y-16406357D01*
X9849643Y-16449214D02*
X10035357Y-16449214D01*
X9935357Y-16563500D01*
X9978214Y-16563500D01*
X10006786Y-16577786D01*
X10021071Y-16592071D01*
X10035357Y-16620643D01*
X10035357Y-16692071D01*
X10021071Y-16720643D01*
X10006786Y-16734929D01*
X9978214Y-16749214D01*
X9892500Y-16749214D01*
X9863928Y-16734929D01*
X9849643Y-16720643D01*
X10149643Y-16477786D02*
X10163928Y-16463500D01*
X10192500Y-16449214D01*
X10263928Y-16449214D01*
X10292500Y-16463500D01*
X10306786Y-16477786D01*
X10321071Y-16506357D01*
X10321071Y-16534929D01*
X10306786Y-16577786D01*
X10135357Y-16749214D01*
X10321071Y-16749214D01*
X10678214Y-16749214D02*
X10678214Y-16449214D01*
X10806786Y-16749214D02*
X10806786Y-16592071D01*
X10792500Y-16563500D01*
X10763928Y-16549214D01*
X10721071Y-16549214D01*
X10692500Y-16563500D01*
X10678214Y-16577786D01*
X10992500Y-16749214D02*
X10963928Y-16734929D01*
X10949643Y-16720643D01*
X10935357Y-16692071D01*
X10935357Y-16606357D01*
X10949643Y-16577786D01*
X10963928Y-16563500D01*
X10992500Y-16549214D01*
X11035357Y-16549214D01*
X11063928Y-16563500D01*
X11078214Y-16577786D01*
X11092500Y-16606357D01*
X11092500Y-16692071D01*
X11078214Y-16720643D01*
X11063928Y-16734929D01*
X11035357Y-16749214D01*
X10992500Y-16749214D01*
X11263928Y-16749214D02*
X11235357Y-16734929D01*
X11221071Y-16706357D01*
X11221071Y-16449214D01*
X11492500Y-16734929D02*
X11463928Y-16749214D01*
X11406786Y-16749214D01*
X11378214Y-16734929D01*
X11363928Y-16706357D01*
X11363928Y-16592071D01*
X11378214Y-16563500D01*
X11406786Y-16549214D01*
X11463928Y-16549214D01*
X11492500Y-16563500D01*
X11506786Y-16592071D01*
X11506786Y-16620643D01*
X11363928Y-16649214D01*
X11621071Y-16734929D02*
X11649643Y-16749214D01*
X11706786Y-16749214D01*
X11735357Y-16734929D01*
X11749643Y-16706357D01*
X11749643Y-16692071D01*
X11735357Y-16663500D01*
X11706786Y-16649214D01*
X11663928Y-16649214D01*
X11635357Y-16634929D01*
X11621071Y-16606357D01*
X11621071Y-16592071D01*
X11635357Y-16563500D01*
X11663928Y-16549214D01*
X11706786Y-16549214D01*
X11735357Y-16563500D01*
X11849643Y-16863500D02*
X11863928Y-16849214D01*
X11892500Y-16806357D01*
X11906786Y-16777786D01*
X11921071Y-16734929D01*
X11935357Y-16663500D01*
X11935357Y-16606357D01*
X11921071Y-16534929D01*
X11906786Y-16492071D01*
X11892500Y-16463500D01*
X11863928Y-16420643D01*
X11849643Y-16406357D01*
X5062856Y-17044856D02*
X5062856Y-16974144D01*
X4992144Y-16974144D01*
X4992144Y-17044856D01*
X5062856Y-17044856D01*
X5521071Y-17145214D02*
X5349643Y-17145214D01*
X5435357Y-17145214D02*
X5435357Y-16845214D01*
X5406786Y-16888072D01*
X5378214Y-16916643D01*
X5349643Y-16930929D01*
X5649643Y-17116643D02*
X5663928Y-17130929D01*
X5649643Y-17145214D01*
X5635357Y-17130929D01*
X5649643Y-17116643D01*
X5649643Y-17145214D01*
X5849643Y-16845214D02*
X5878214Y-16845214D01*
X5906786Y-16859500D01*
X5921071Y-16873786D01*
X5935357Y-16902357D01*
X5949643Y-16959500D01*
X5949643Y-17030929D01*
X5935357Y-17088072D01*
X5921071Y-17116643D01*
X5906786Y-17130929D01*
X5878214Y-17145214D01*
X5849643Y-17145214D01*
X5821071Y-17130929D01*
X5806786Y-17116643D01*
X5792500Y-17088072D01*
X5778214Y-17030929D01*
X5778214Y-16959500D01*
X5792500Y-16902357D01*
X5806786Y-16873786D01*
X5821071Y-16859500D01*
X5849643Y-16845214D01*
X6135357Y-16845214D02*
X6163928Y-16845214D01*
X6192500Y-16859500D01*
X6206786Y-16873786D01*
X6221071Y-16902357D01*
X6235357Y-16959500D01*
X6235357Y-17030929D01*
X6221071Y-17088072D01*
X6206786Y-17116643D01*
X6192500Y-17130929D01*
X6163928Y-17145214D01*
X6135357Y-17145214D01*
X6106786Y-17130929D01*
X6092500Y-17116643D01*
X6078214Y-17088072D01*
X6063928Y-17030929D01*
X6063928Y-16959500D01*
X6078214Y-16902357D01*
X6092500Y-16873786D01*
X6106786Y-16859500D01*
X6135357Y-16845214D01*
X6363928Y-17145214D02*
X6363928Y-16945214D01*
X6363928Y-16973786D02*
X6378214Y-16959500D01*
X6406786Y-16945214D01*
X6449643Y-16945214D01*
X6478214Y-16959500D01*
X6492500Y-16988072D01*
X6492500Y-17145214D01*
X6492500Y-16988072D02*
X6506786Y-16959500D01*
X6535357Y-16945214D01*
X6578214Y-16945214D01*
X6606786Y-16959500D01*
X6621071Y-16988072D01*
X6621071Y-17145214D01*
X6763928Y-17145214D02*
X6763928Y-16945214D01*
X6763928Y-16973786D02*
X6778214Y-16959500D01*
X6806786Y-16945214D01*
X6849643Y-16945214D01*
X6878214Y-16959500D01*
X6892500Y-16988072D01*
X6892500Y-17145214D01*
X6892500Y-16988072D02*
X6906786Y-16959500D01*
X6935357Y-16945214D01*
X6978214Y-16945214D01*
X7006786Y-16959500D01*
X7021071Y-16988072D01*
X7021071Y-17145214D01*
X7606786Y-16830929D02*
X7349643Y-17216643D01*
X7992500Y-16845214D02*
X8021071Y-16845214D01*
X8049643Y-16859500D01*
X8063928Y-16873786D01*
X8078214Y-16902357D01*
X8092500Y-16959500D01*
X8092500Y-17030929D01*
X8078214Y-17088072D01*
X8063928Y-17116643D01*
X8049643Y-17130929D01*
X8021071Y-17145214D01*
X7992500Y-17145214D01*
X7963928Y-17130929D01*
X7949643Y-17116643D01*
X7935357Y-17088072D01*
X7921071Y-17030929D01*
X7921071Y-16959500D01*
X7935357Y-16902357D01*
X7949643Y-16873786D01*
X7963928Y-16859500D01*
X7992500Y-16845214D01*
X8221071Y-17116643D02*
X8235357Y-17130929D01*
X8221071Y-17145214D01*
X8206786Y-17130929D01*
X8221071Y-17116643D01*
X8221071Y-17145214D01*
X8421071Y-16845214D02*
X8449643Y-16845214D01*
X8478214Y-16859500D01*
X8492500Y-16873786D01*
X8506786Y-16902357D01*
X8521071Y-16959500D01*
X8521071Y-17030929D01*
X8506786Y-17088072D01*
X8492500Y-17116643D01*
X8478214Y-17130929D01*
X8449643Y-17145214D01*
X8421071Y-17145214D01*
X8392500Y-17130929D01*
X8378214Y-17116643D01*
X8363928Y-17088072D01*
X8349643Y-17030929D01*
X8349643Y-16959500D01*
X8363928Y-16902357D01*
X8378214Y-16873786D01*
X8392500Y-16859500D01*
X8421071Y-16845214D01*
X8621071Y-16845214D02*
X8806786Y-16845214D01*
X8706786Y-16959500D01*
X8749643Y-16959500D01*
X8778214Y-16973786D01*
X8792500Y-16988072D01*
X8806786Y-17016643D01*
X8806786Y-17088072D01*
X8792500Y-17116643D01*
X8778214Y-17130929D01*
X8749643Y-17145214D01*
X8663928Y-17145214D01*
X8635357Y-17130929D01*
X8621071Y-17116643D01*
X8949643Y-17145214D02*
X9006786Y-17145214D01*
X9035357Y-17130929D01*
X9049643Y-17116643D01*
X9078214Y-17073786D01*
X9092500Y-17016643D01*
X9092500Y-16902357D01*
X9078214Y-16873786D01*
X9063928Y-16859500D01*
X9035357Y-16845214D01*
X8978214Y-16845214D01*
X8949643Y-16859500D01*
X8935357Y-16873786D01*
X8921071Y-16902357D01*
X8921071Y-16973786D01*
X8935357Y-17002357D01*
X8949643Y-17016643D01*
X8978214Y-17030929D01*
X9035357Y-17030929D01*
X9063928Y-17016643D01*
X9078214Y-17002357D01*
X9092500Y-16973786D01*
X9206786Y-16845214D02*
X9206786Y-16902357D01*
X9321071Y-16845214D02*
X9321071Y-16902357D01*
X9763928Y-17259500D02*
X9749643Y-17245214D01*
X9721071Y-17202357D01*
X9706786Y-17173786D01*
X9692500Y-17130929D01*
X9678214Y-17059500D01*
X9678214Y-17002357D01*
X9692500Y-16930929D01*
X9706786Y-16888072D01*
X9721071Y-16859500D01*
X9749643Y-16816643D01*
X9763928Y-16802357D01*
X9849643Y-16845214D02*
X10049643Y-16845214D01*
X9921071Y-17145214D01*
X10178214Y-17145214D02*
X10235357Y-17145214D01*
X10263928Y-17130929D01*
X10278214Y-17116643D01*
X10306786Y-17073786D01*
X10321071Y-17016643D01*
X10321071Y-16902357D01*
X10306786Y-16873786D01*
X10292500Y-16859500D01*
X10263928Y-16845214D01*
X10206786Y-16845214D01*
X10178214Y-16859500D01*
X10163928Y-16873786D01*
X10149643Y-16902357D01*
X10149643Y-16973786D01*
X10163928Y-17002357D01*
X10178214Y-17016643D01*
X10206786Y-17030929D01*
X10263928Y-17030929D01*
X10292500Y-17016643D01*
X10306786Y-17002357D01*
X10321071Y-16973786D01*
X10678214Y-17145214D02*
X10678214Y-16845214D01*
X10806786Y-17145214D02*
X10806786Y-16988072D01*
X10792500Y-16959500D01*
X10763928Y-16945214D01*
X10721071Y-16945214D01*
X10692500Y-16959500D01*
X10678214Y-16973786D01*
X10992500Y-17145214D02*
X10963928Y-17130929D01*
X10949643Y-17116643D01*
X10935357Y-17088072D01*
X10935357Y-17002357D01*
X10949643Y-16973786D01*
X10963928Y-16959500D01*
X10992500Y-16945214D01*
X11035357Y-16945214D01*
X11063928Y-16959500D01*
X11078214Y-16973786D01*
X11092500Y-17002357D01*
X11092500Y-17088072D01*
X11078214Y-17116643D01*
X11063928Y-17130929D01*
X11035357Y-17145214D01*
X10992500Y-17145214D01*
X11263928Y-17145214D02*
X11235357Y-17130929D01*
X11221071Y-17102357D01*
X11221071Y-16845214D01*
X11492500Y-17130929D02*
X11463928Y-17145214D01*
X11406786Y-17145214D01*
X11378214Y-17130929D01*
X11363928Y-17102357D01*
X11363928Y-16988072D01*
X11378214Y-16959500D01*
X11406786Y-16945214D01*
X11463928Y-16945214D01*
X11492500Y-16959500D01*
X11506786Y-16988072D01*
X11506786Y-17016643D01*
X11363928Y-17045214D01*
X11621071Y-17130929D02*
X11649643Y-17145214D01*
X11706786Y-17145214D01*
X11735357Y-17130929D01*
X11749643Y-17102357D01*
X11749643Y-17088072D01*
X11735357Y-17059500D01*
X11706786Y-17045214D01*
X11663928Y-17045214D01*
X11635357Y-17030929D01*
X11621071Y-17002357D01*
X11621071Y-16988072D01*
X11635357Y-16959500D01*
X11663928Y-16945214D01*
X11706786Y-16945214D01*
X11735357Y-16959500D01*
X11849643Y-17259500D02*
X11863928Y-17245214D01*
X11892500Y-17202357D01*
X11906786Y-17173786D01*
X11921071Y-17130929D01*
X11935357Y-17059500D01*
X11935357Y-17002357D01*
X11921071Y-16930929D01*
X11906786Y-16888072D01*
X11892500Y-16859500D01*
X11863928Y-16816643D01*
X11849643Y-16802357D01*
M02*
