G04 #@! TF.GenerationSoftware,KiCad,Pcbnew,(5.1.5)-3*
G04 #@! TF.CreationDate,2022-12-08T21:38:55-08:00*
G04 #@! TF.ProjectId,program_counter,70726f67-7261-46d5-9f63-6f756e746572,rev?*
G04 #@! TF.SameCoordinates,Original*
G04 #@! TF.FileFunction,Legend,Bot*
G04 #@! TF.FilePolarity,Positive*
%FSLAX46Y46*%
G04 Gerber Fmt 4.6, Leading zero omitted, Abs format (unit mm)*
G04 Created by KiCad (PCBNEW (5.1.5)-3) date 2022-12-08 21:38:55*
%MOMM*%
%LPD*%
G04 APERTURE LIST*
%ADD10O,1.702000X1.702000*%
%ADD11C,1.702000*%
%ADD12O,1.802000X1.802000*%
%ADD13R,1.802000X1.802000*%
%ADD14C,1.902000*%
%ADD15R,1.902000X1.902000*%
%ADD16R,1.702000X1.702000*%
G04 APERTURE END LIST*
%LPC*%
D10*
X158750000Y-78740000D03*
D11*
X158750000Y-88900000D03*
D12*
X241300000Y-83820000D03*
X241300000Y-81280000D03*
D13*
X241300000Y-78740000D03*
D10*
X241300000Y-73660000D03*
D11*
X251460000Y-73660000D03*
D12*
X96520000Y-60960000D03*
D13*
X99060000Y-60960000D03*
X86360000Y-144780000D03*
D12*
X83820000Y-144780000D03*
X81280000Y-144780000D03*
X78740000Y-144780000D03*
X76200000Y-144780000D03*
X73660000Y-144780000D03*
X71120000Y-144780000D03*
X68580000Y-144780000D03*
X66040000Y-144780000D03*
X63500000Y-144780000D03*
D13*
X137160000Y-144780000D03*
D12*
X134620000Y-144780000D03*
X132080000Y-144780000D03*
X129540000Y-144780000D03*
X127000000Y-144780000D03*
X124460000Y-144780000D03*
X121920000Y-144780000D03*
X119380000Y-144780000D03*
X116840000Y-144780000D03*
X114300000Y-144780000D03*
X111760000Y-144780000D03*
X109220000Y-144780000D03*
X106680000Y-144780000D03*
X104140000Y-144780000D03*
X101600000Y-144780000D03*
X99060000Y-144780000D03*
X162560000Y-144780000D03*
X165100000Y-144780000D03*
X167640000Y-144780000D03*
X170180000Y-144780000D03*
X172720000Y-144780000D03*
X175260000Y-144780000D03*
X177800000Y-144780000D03*
X180340000Y-144780000D03*
X182880000Y-144780000D03*
X185420000Y-144780000D03*
X187960000Y-144780000D03*
X190500000Y-144780000D03*
X193040000Y-144780000D03*
X195580000Y-144780000D03*
X198120000Y-144780000D03*
X200660000Y-144780000D03*
X203200000Y-144780000D03*
X205740000Y-144780000D03*
X208280000Y-144780000D03*
X210820000Y-144780000D03*
X213360000Y-144780000D03*
X215900000Y-144780000D03*
X218440000Y-144780000D03*
X220980000Y-144780000D03*
X223520000Y-144780000D03*
X226060000Y-144780000D03*
X228600000Y-144780000D03*
X231140000Y-144780000D03*
X233680000Y-144780000D03*
X236220000Y-144780000D03*
X238760000Y-144780000D03*
D13*
X241300000Y-144780000D03*
D14*
X153670000Y-63500000D03*
D15*
X156210000Y-63500000D03*
D14*
X160020000Y-63500000D03*
D15*
X162560000Y-63500000D03*
D14*
X166370000Y-63500000D03*
D15*
X168910000Y-63500000D03*
D14*
X172720000Y-63500000D03*
D15*
X175260000Y-63500000D03*
D14*
X179070000Y-63500000D03*
D15*
X181610000Y-63500000D03*
D14*
X185420000Y-63500000D03*
D15*
X187960000Y-63500000D03*
D14*
X191770000Y-63500000D03*
D15*
X194310000Y-63500000D03*
D14*
X198120000Y-63500000D03*
D15*
X200660000Y-63500000D03*
D14*
X204470000Y-63500000D03*
D15*
X207010000Y-63500000D03*
D14*
X210820000Y-63500000D03*
D15*
X213360000Y-63500000D03*
D14*
X217170000Y-63500000D03*
D15*
X219710000Y-63500000D03*
D14*
X223520000Y-63500000D03*
D15*
X226060000Y-63500000D03*
D14*
X229870000Y-63500000D03*
D15*
X232410000Y-63500000D03*
D14*
X236220000Y-63500000D03*
D15*
X238760000Y-63500000D03*
D14*
X242570000Y-63500000D03*
D15*
X245110000Y-63500000D03*
D14*
X248920000Y-63500000D03*
D15*
X251460000Y-63500000D03*
D10*
X63500000Y-111760000D03*
X81280000Y-119380000D03*
X66040000Y-111760000D03*
X78740000Y-119380000D03*
X68580000Y-111760000D03*
X76200000Y-119380000D03*
X71120000Y-111760000D03*
X73660000Y-119380000D03*
X73660000Y-111760000D03*
X71120000Y-119380000D03*
X76200000Y-111760000D03*
X68580000Y-119380000D03*
X78740000Y-111760000D03*
X66040000Y-119380000D03*
X81280000Y-111760000D03*
D16*
X63500000Y-119380000D03*
D10*
X175260000Y-78740000D03*
X198120000Y-86360000D03*
X177800000Y-78740000D03*
X195580000Y-86360000D03*
X180340000Y-78740000D03*
X193040000Y-86360000D03*
X182880000Y-78740000D03*
X190500000Y-86360000D03*
X185420000Y-78740000D03*
X187960000Y-86360000D03*
X187960000Y-78740000D03*
X185420000Y-86360000D03*
X190500000Y-78740000D03*
X182880000Y-86360000D03*
X193040000Y-78740000D03*
X180340000Y-86360000D03*
X195580000Y-78740000D03*
X177800000Y-86360000D03*
X198120000Y-78740000D03*
D16*
X175260000Y-86360000D03*
D10*
X91440000Y-111760000D03*
X109220000Y-119380000D03*
X93980000Y-111760000D03*
X106680000Y-119380000D03*
X96520000Y-111760000D03*
X104140000Y-119380000D03*
X99060000Y-111760000D03*
X101600000Y-119380000D03*
X101600000Y-111760000D03*
X99060000Y-119380000D03*
X104140000Y-111760000D03*
X96520000Y-119380000D03*
X106680000Y-111760000D03*
X93980000Y-119380000D03*
X109220000Y-111760000D03*
D16*
X91440000Y-119380000D03*
D10*
X215900000Y-111760000D03*
X238760000Y-119380000D03*
X218440000Y-111760000D03*
X236220000Y-119380000D03*
X220980000Y-111760000D03*
X233680000Y-119380000D03*
X223520000Y-111760000D03*
X231140000Y-119380000D03*
X226060000Y-111760000D03*
X228600000Y-119380000D03*
X228600000Y-111760000D03*
X226060000Y-119380000D03*
X231140000Y-111760000D03*
X223520000Y-119380000D03*
X233680000Y-111760000D03*
X220980000Y-119380000D03*
X236220000Y-111760000D03*
X218440000Y-119380000D03*
X238760000Y-111760000D03*
D16*
X215900000Y-119380000D03*
D10*
X119380000Y-111760000D03*
X137160000Y-119380000D03*
X121920000Y-111760000D03*
X134620000Y-119380000D03*
X124460000Y-111760000D03*
X132080000Y-119380000D03*
X127000000Y-111760000D03*
X129540000Y-119380000D03*
X129540000Y-111760000D03*
X127000000Y-119380000D03*
X132080000Y-111760000D03*
X124460000Y-119380000D03*
X134620000Y-111760000D03*
X121920000Y-119380000D03*
X137160000Y-111760000D03*
D16*
X119380000Y-119380000D03*
D10*
X175260000Y-111760000D03*
X198120000Y-119380000D03*
X177800000Y-111760000D03*
X195580000Y-119380000D03*
X180340000Y-111760000D03*
X193040000Y-119380000D03*
X182880000Y-111760000D03*
X190500000Y-119380000D03*
X185420000Y-111760000D03*
X187960000Y-119380000D03*
X187960000Y-111760000D03*
X185420000Y-119380000D03*
X190500000Y-111760000D03*
X182880000Y-119380000D03*
X193040000Y-111760000D03*
X180340000Y-119380000D03*
X195580000Y-111760000D03*
X177800000Y-119380000D03*
X198120000Y-111760000D03*
D16*
X175260000Y-119380000D03*
D10*
X147320000Y-111760000D03*
X165100000Y-119380000D03*
X149860000Y-111760000D03*
X162560000Y-119380000D03*
X152400000Y-111760000D03*
X160020000Y-119380000D03*
X154940000Y-111760000D03*
X157480000Y-119380000D03*
X157480000Y-111760000D03*
X154940000Y-119380000D03*
X160020000Y-111760000D03*
X152400000Y-119380000D03*
X162560000Y-111760000D03*
X149860000Y-119380000D03*
X165100000Y-111760000D03*
D16*
X147320000Y-119380000D03*
D10*
X210820000Y-78740000D03*
X233680000Y-86360000D03*
X213360000Y-78740000D03*
X231140000Y-86360000D03*
X215900000Y-78740000D03*
X228600000Y-86360000D03*
X218440000Y-78740000D03*
X226060000Y-86360000D03*
X220980000Y-78740000D03*
X223520000Y-86360000D03*
X223520000Y-78740000D03*
X220980000Y-86360000D03*
X226060000Y-78740000D03*
X218440000Y-86360000D03*
X228600000Y-78740000D03*
X215900000Y-86360000D03*
X231140000Y-78740000D03*
X213360000Y-86360000D03*
X233680000Y-78740000D03*
D16*
X210820000Y-86360000D03*
D10*
X127000000Y-78740000D03*
X142240000Y-86360000D03*
X129540000Y-78740000D03*
X139700000Y-86360000D03*
X132080000Y-78740000D03*
X137160000Y-86360000D03*
X134620000Y-78740000D03*
X134620000Y-86360000D03*
X137160000Y-78740000D03*
X132080000Y-86360000D03*
X139700000Y-78740000D03*
X129540000Y-86360000D03*
X142240000Y-78740000D03*
D16*
X127000000Y-86360000D03*
D10*
X195580000Y-73660000D03*
X193040000Y-73660000D03*
X190500000Y-73660000D03*
X187960000Y-73660000D03*
X185420000Y-73660000D03*
X182880000Y-73660000D03*
X180340000Y-73660000D03*
X177800000Y-73660000D03*
D16*
X175260000Y-73660000D03*
D10*
X236220000Y-73660000D03*
X233680000Y-73660000D03*
X231140000Y-73660000D03*
X228600000Y-73660000D03*
X226060000Y-73660000D03*
X223520000Y-73660000D03*
X220980000Y-73660000D03*
X218440000Y-73660000D03*
D16*
X215900000Y-73660000D03*
D12*
X53340000Y-60960000D03*
X55880000Y-60960000D03*
X58420000Y-60960000D03*
X60960000Y-60960000D03*
X63500000Y-60960000D03*
X66040000Y-60960000D03*
X68580000Y-60960000D03*
X71120000Y-60960000D03*
X73660000Y-60960000D03*
X76200000Y-60960000D03*
X78740000Y-60960000D03*
X81280000Y-60960000D03*
X83820000Y-60960000D03*
X86360000Y-60960000D03*
X88900000Y-60960000D03*
D13*
X91440000Y-60960000D03*
D11*
X152400000Y-71160000D03*
D16*
X152400000Y-73660000D03*
D11*
X205700000Y-119380000D03*
D16*
X203200000Y-119380000D03*
D11*
X66040000Y-132120000D03*
D16*
X66040000Y-134620000D03*
D11*
X121920000Y-78820000D03*
X121920000Y-83820000D03*
X58420000Y-111840000D03*
X58420000Y-116840000D03*
X86360000Y-111840000D03*
X86360000Y-116840000D03*
X170180000Y-85264000D03*
X170180000Y-80264000D03*
X114300000Y-111840000D03*
X114300000Y-116840000D03*
X210820000Y-116760000D03*
X210820000Y-111760000D03*
X142240000Y-111840000D03*
X142240000Y-116840000D03*
X170180000Y-116760000D03*
X170180000Y-111760000D03*
X204470000Y-73740000D03*
X204470000Y-78740000D03*
M02*
