M48
; DRILL file {KiCad (5.1.5)-3} date 2022-12-08 10:12:45 PM
; FORMAT={-:-/ absolute / metric / decimal}
; #@! TF.CreationDate,2022-12-08T22:12:45-08:00
; #@! TF.GenerationSoftware,Kicad,Pcbnew,(5.1.5)-3
; #@! TF.FileFunction,Plated,1,2,PTH
FMAT,2
METRIC
T1C0.400
T2C0.800
T3C0.900
T4C1.000
%
G90
G05
T1
X55.88Y-91.44
X55.88Y-89.408
X58.42Y-92.456
X58.42Y-89.408
X60.96Y-89.408
X60.96Y-93.472
X63.5Y-94.488
X63.5Y-89.408
X65.024Y-109.728
X66.04Y-95.504
X66.04Y-89.408
X66.294Y-109.728
X66.548Y-108.204
X67.31Y-93.472
X67.31Y-96.52
X68.58Y-89.408
X68.58Y-96.52
X69.85Y-92.456
X69.85Y-97.536
X71.12Y-97.536
X71.12Y-89.408
X72.39Y-91.44
X72.39Y-98.552
X73.66Y-98.552
X73.66Y-138.43
X73.66Y-140.97
X73.66Y-89.408
X74.93Y-90.424
X74.93Y-99.568
X75.692Y-108.204
X76.2Y-89.408
X76.2Y-99.568
X76.708Y-109.728
X78.232Y-109.728
X78.74Y-89.408
X78.74Y-100.584
X81.28Y-89.408
X81.28Y-101.6
X81.28Y-106.68
X83.82Y-89.408
X83.82Y-102.616
X86.36Y-89.408
X86.36Y-103.632
X88.9Y-89.408
X88.9Y-104.648
X91.44Y-89.408
X91.44Y-105.664
X91.44Y-114.046
X91.44Y-116.332
X93.472Y-109.728
X93.98Y-89.408
X93.98Y-108.204
X93.98Y-114.808
X93.98Y-116.332
X93.98Y-124.714
X93.98Y-129.54
X94.742Y-109.728
X96.52Y-107.696
X96.52Y-97.536
X96.52Y-124.714
X96.52Y-132.588
X97.79Y-125.476
X99.06Y-96.52
X99.06Y-124.714
X99.06Y-131.572
X99.06Y-133.604
X99.06Y-107.696
X100.33Y-126.492
X101.6Y-95.504
X101.6Y-124.714
X101.6Y-130.556
X101.6Y-133.604
X101.6Y-107.696
X104.14Y-94.488
X104.14Y-124.714
X104.14Y-129.54
X104.14Y-133.604
X104.14Y-107.696
X105.41Y-127.508
X106.68Y-128.524
X106.68Y-133.604
X109.22Y-129.54
X109.22Y-133.604
X110.236Y-109.728
X111.506Y-109.728
X111.76Y-130.556
X111.76Y-133.604
X114.3Y-131.572
X114.3Y-133.604
X115.57Y-87.63
X115.57Y-86.106
X115.57Y-107.442
X115.57Y-108.712
X119.38Y-114.046
X119.38Y-116.332
X121.412Y-109.728
X121.92Y-114.808
X121.92Y-116.332
X121.92Y-134.62
X122.682Y-109.728
X123.19Y-133.604
X123.19Y-124.714
X124.46Y-107.696
X124.46Y-101.6
X124.46Y-124.714
X124.46Y-133.604
X124.46Y-137.668
X125.984Y-135.636
X127.0Y-107.696
X127.0Y-100.584
X127.0Y-124.714
X127.0Y-133.604
X129.54Y-107.696
X129.54Y-99.568
X129.54Y-124.714
X129.54Y-134.62
X132.08Y-98.552
X132.08Y-124.714
X132.08Y-133.604
X132.08Y-107.696
X133.35Y-106.68
X133.35Y-89.408
X139.7Y-89.408
X139.7Y-107.696
X139.7Y-112.522
X139.7Y-114.046
X140.716Y-109.728
X141.986Y-109.728
X145.796Y-115.57
X146.558Y-114.808
X148.082Y-114.808
X149.352Y-109.728
X150.622Y-109.728
X150.622Y-115.57
X152.4Y-105.664
X152.4Y-124.714
X152.4Y-140.716
X152.4Y-107.696
X154.94Y-107.696
X154.94Y-104.648
X154.94Y-124.714
X154.94Y-139.7
X157.48Y-124.714
X157.48Y-138.684
X157.48Y-103.632
X157.48Y-107.696
X160.02Y-107.696
X160.02Y-137.668
X160.02Y-102.616
X160.02Y-124.714
X162.56Y-124.714
X162.56Y-141.732
X166.37Y-88.9
X166.37Y-106.68
X166.624Y-109.728
X167.894Y-109.728
X172.974Y-82.042
X174.244Y-109.728
X176.276Y-109.728
X180.34Y-106.426
X180.34Y-90.424
X182.88Y-106.68
X182.88Y-91.44
X185.42Y-92.456
X185.42Y-106.68
X187.96Y-93.472
X187.96Y-106.68
X190.5Y-94.488
X190.5Y-106.68
X193.04Y-106.68
X193.04Y-95.504
X195.58Y-96.52
X195.58Y-106.68
X198.12Y-97.536
X198.12Y-106.68
X199.898Y-109.728
X201.168Y-109.728
X201.93Y-113.538
X204.47Y-113.538
X210.82Y-82.042
X217.17Y-98.552
X219.71Y-99.568
X220.98Y-106.68
X222.25Y-100.584
X223.52Y-106.68
X224.79Y-101.6
X226.06Y-106.68
X227.33Y-102.616
X228.6Y-106.68
X229.87Y-103.632
X231.14Y-106.68
X232.41Y-104.648
X233.68Y-106.68
X235.966Y-78.74
X235.966Y-81.534
X236.22Y-106.68
T2
X175.26Y-111.76
X175.26Y-119.38
X177.8Y-111.76
X177.8Y-119.38
X180.34Y-111.76
X180.34Y-119.38
X182.88Y-111.76
X182.88Y-119.38
X185.42Y-111.76
X185.42Y-119.38
X187.96Y-111.76
X187.96Y-119.38
X190.5Y-111.76
X190.5Y-119.38
X193.04Y-111.76
X193.04Y-119.38
X195.58Y-111.76
X195.58Y-119.38
X198.12Y-111.76
X198.12Y-119.38
X91.44Y-111.76
X91.44Y-119.38
X93.98Y-111.76
X93.98Y-119.38
X96.52Y-111.76
X96.52Y-119.38
X99.06Y-111.76
X99.06Y-119.38
X101.6Y-111.76
X101.6Y-119.38
X104.14Y-111.76
X104.14Y-119.38
X106.68Y-111.76
X106.68Y-119.38
X109.22Y-111.76
X109.22Y-119.38
X170.18Y-80.264
X170.18Y-85.264
X114.3Y-111.84
X114.3Y-116.84
X210.82Y-111.76
X210.82Y-116.76
X170.18Y-111.76
X170.18Y-116.76
X63.5Y-111.76
X63.5Y-119.38
X66.04Y-111.76
X66.04Y-119.38
X68.58Y-111.76
X68.58Y-119.38
X71.12Y-111.76
X71.12Y-119.38
X73.66Y-111.76
X73.66Y-119.38
X76.2Y-111.76
X76.2Y-119.38
X78.74Y-111.76
X78.74Y-119.38
X81.28Y-111.76
X81.28Y-119.38
X121.92Y-78.82
X121.92Y-83.82
X241.3Y-73.66
X251.46Y-73.66
X58.42Y-111.84
X58.42Y-116.84
X175.26Y-78.74
X175.26Y-86.36
X177.8Y-78.74
X177.8Y-86.36
X180.34Y-78.74
X180.34Y-86.36
X182.88Y-78.74
X182.88Y-86.36
X185.42Y-78.74
X185.42Y-86.36
X187.96Y-78.74
X187.96Y-86.36
X190.5Y-78.74
X190.5Y-86.36
X193.04Y-78.74
X193.04Y-86.36
X195.58Y-78.74
X195.58Y-86.36
X198.12Y-78.74
X198.12Y-86.36
X152.4Y-71.16
X152.4Y-73.66
X86.36Y-111.84
X86.36Y-116.84
X66.04Y-132.12
X66.04Y-134.62
X210.82Y-78.74
X210.82Y-86.36
X213.36Y-78.74
X213.36Y-86.36
X215.9Y-78.74
X215.9Y-86.36
X218.44Y-78.74
X218.44Y-86.36
X220.98Y-78.74
X220.98Y-86.36
X223.52Y-78.74
X223.52Y-86.36
X226.06Y-78.74
X226.06Y-86.36
X228.6Y-78.74
X228.6Y-86.36
X231.14Y-78.74
X231.14Y-86.36
X233.68Y-78.74
X233.68Y-86.36
X215.9Y-111.76
X215.9Y-119.38
X218.44Y-111.76
X218.44Y-119.38
X220.98Y-111.76
X220.98Y-119.38
X223.52Y-111.76
X223.52Y-119.38
X226.06Y-111.76
X226.06Y-119.38
X228.6Y-111.76
X228.6Y-119.38
X231.14Y-111.76
X231.14Y-119.38
X233.68Y-111.76
X233.68Y-119.38
X236.22Y-111.76
X236.22Y-119.38
X238.76Y-111.76
X238.76Y-119.38
X119.38Y-111.76
X119.38Y-119.38
X121.92Y-111.76
X121.92Y-119.38
X124.46Y-111.76
X124.46Y-119.38
X127.0Y-111.76
X127.0Y-119.38
X129.54Y-111.76
X129.54Y-119.38
X132.08Y-111.76
X132.08Y-119.38
X134.62Y-111.76
X134.62Y-119.38
X137.16Y-111.76
X137.16Y-119.38
X127.0Y-78.74
X127.0Y-86.36
X129.54Y-78.74
X129.54Y-86.36
X132.08Y-78.74
X132.08Y-86.36
X134.62Y-78.74
X134.62Y-86.36
X137.16Y-78.74
X137.16Y-86.36
X139.7Y-78.74
X139.7Y-86.36
X142.24Y-78.74
X142.24Y-86.36
X215.9Y-73.66
X218.44Y-73.66
X220.98Y-73.66
X223.52Y-73.66
X226.06Y-73.66
X228.6Y-73.66
X231.14Y-73.66
X233.68Y-73.66
X236.22Y-73.66
X203.2Y-119.38
X205.7Y-119.38
X204.47Y-73.74
X204.47Y-78.74
X147.32Y-111.76
X147.32Y-119.38
X149.86Y-111.76
X149.86Y-119.38
X152.4Y-111.76
X152.4Y-119.38
X154.94Y-111.76
X154.94Y-119.38
X157.48Y-111.76
X157.48Y-119.38
X160.02Y-111.76
X160.02Y-119.38
X162.56Y-111.76
X162.56Y-119.38
X165.1Y-111.76
X165.1Y-119.38
X175.26Y-73.66
X177.8Y-73.66
X180.34Y-73.66
X182.88Y-73.66
X185.42Y-73.66
X187.96Y-73.66
X190.5Y-73.66
X193.04Y-73.66
X195.58Y-73.66
X158.75Y-78.74
X158.75Y-88.9
X142.24Y-111.84
X142.24Y-116.84
T3
X166.37Y-63.5
X168.91Y-63.5
X153.67Y-63.5
X156.21Y-63.5
X210.82Y-63.5
X213.36Y-63.5
X204.47Y-63.5
X207.01Y-63.5
X242.57Y-63.5
X245.11Y-63.5
X179.07Y-63.5
X181.61Y-63.5
X217.17Y-63.5
X219.71Y-63.5
X236.22Y-63.5
X238.76Y-63.5
X160.02Y-63.5
X162.56Y-63.5
X223.52Y-63.5
X226.06Y-63.5
X191.77Y-63.5
X194.31Y-63.5
X198.12Y-63.5
X200.66Y-63.5
X248.92Y-63.5
X251.46Y-63.5
X172.72Y-63.5
X175.26Y-63.5
X229.87Y-63.5
X232.41Y-63.5
X185.42Y-63.5
X187.96Y-63.5
T4
X53.34Y-60.96
X55.88Y-60.96
X58.42Y-60.96
X60.96Y-60.96
X63.5Y-60.96
X66.04Y-60.96
X68.58Y-60.96
X71.12Y-60.96
X73.66Y-60.96
X76.2Y-60.96
X78.74Y-60.96
X81.28Y-60.96
X83.82Y-60.96
X86.36Y-60.96
X88.9Y-60.96
X91.44Y-60.96
X63.5Y-144.78
X66.04Y-144.78
X68.58Y-144.78
X71.12Y-144.78
X73.66Y-144.78
X76.2Y-144.78
X78.74Y-144.78
X81.28Y-144.78
X83.82Y-144.78
X86.36Y-144.78
X96.52Y-60.96
X99.06Y-60.96
X241.3Y-78.74
X241.3Y-81.28
X241.3Y-83.82
X99.06Y-144.78
X101.6Y-144.78
X104.14Y-144.78
X106.68Y-144.78
X109.22Y-144.78
X111.76Y-144.78
X114.3Y-144.78
X116.84Y-144.78
X119.38Y-144.78
X121.92Y-144.78
X124.46Y-144.78
X127.0Y-144.78
X129.54Y-144.78
X132.08Y-144.78
X134.62Y-144.78
X137.16Y-144.78
X162.56Y-144.78
X165.1Y-144.78
X167.64Y-144.78
X170.18Y-144.78
X172.72Y-144.78
X175.26Y-144.78
X177.8Y-144.78
X180.34Y-144.78
X182.88Y-144.78
X185.42Y-144.78
X187.96Y-144.78
X190.5Y-144.78
X193.04Y-144.78
X195.58Y-144.78
X198.12Y-144.78
X200.66Y-144.78
X203.2Y-144.78
X205.74Y-144.78
X208.28Y-144.78
X210.82Y-144.78
X213.36Y-144.78
X215.9Y-144.78
X218.44Y-144.78
X220.98Y-144.78
X223.52Y-144.78
X226.06Y-144.78
X228.6Y-144.78
X231.14Y-144.78
X233.68Y-144.78
X236.22Y-144.78
X238.76Y-144.78
X241.3Y-144.78
T0
M30
