G04 #@! TF.GenerationSoftware,KiCad,Pcbnew,(5.1.5)-3*
G04 #@! TF.CreationDate,2022-12-08T22:02:19-08:00*
G04 #@! TF.ProjectId,cpu_status,6370755f-7374-4617-9475-732e6b696361,rev?*
G04 #@! TF.SameCoordinates,Original*
G04 #@! TF.FileFunction,Legend,Bot*
G04 #@! TF.FilePolarity,Positive*
%FSLAX46Y46*%
G04 Gerber Fmt 4.6, Leading zero omitted, Abs format (unit mm)*
G04 Created by KiCad (PCBNEW (5.1.5)-3) date 2022-12-08 22:02:19*
%MOMM*%
%LPD*%
G04 APERTURE LIST*
%ADD10O,1.702000X1.702000*%
%ADD11R,1.702000X1.702000*%
%ADD12C,1.702000*%
%ADD13R,1.602000X1.602000*%
%ADD14C,1.602000*%
%ADD15O,1.802000X1.802000*%
%ADD16R,1.802000X1.802000*%
%ADD17R,1.902000X1.902000*%
%ADD18C,1.902000*%
G04 APERTURE END LIST*
%LPC*%
D10*
X73660000Y-101600000D03*
X96520000Y-109220000D03*
X76200000Y-101600000D03*
X93980000Y-109220000D03*
X78740000Y-101600000D03*
X91440000Y-109220000D03*
X81280000Y-101600000D03*
X88900000Y-109220000D03*
X83820000Y-101600000D03*
X86360000Y-109220000D03*
X86360000Y-101600000D03*
X83820000Y-109220000D03*
X88900000Y-101600000D03*
X81280000Y-109220000D03*
X91440000Y-101600000D03*
X78740000Y-109220000D03*
X93980000Y-101600000D03*
X76200000Y-109220000D03*
X96520000Y-101600000D03*
D11*
X73660000Y-109220000D03*
D10*
X110490000Y-54610000D03*
X125730000Y-62230000D03*
X113030000Y-54610000D03*
X123190000Y-62230000D03*
X115570000Y-54610000D03*
X120650000Y-62230000D03*
X118110000Y-54610000D03*
X118110000Y-62230000D03*
X120650000Y-54610000D03*
X115570000Y-62230000D03*
X123190000Y-54610000D03*
X113030000Y-62230000D03*
X125730000Y-54610000D03*
D11*
X110490000Y-62230000D03*
D10*
X215900000Y-129540000D03*
X238760000Y-137160000D03*
X218440000Y-129540000D03*
X236220000Y-137160000D03*
X220980000Y-129540000D03*
X233680000Y-137160000D03*
X223520000Y-129540000D03*
X231140000Y-137160000D03*
X226060000Y-129540000D03*
X228600000Y-137160000D03*
X228600000Y-129540000D03*
X226060000Y-137160000D03*
X231140000Y-129540000D03*
X223520000Y-137160000D03*
X233680000Y-129540000D03*
X220980000Y-137160000D03*
X236220000Y-129540000D03*
X218440000Y-137160000D03*
X238760000Y-129540000D03*
D11*
X215900000Y-137160000D03*
D10*
X167640000Y-129540000D03*
X190500000Y-137160000D03*
X170180000Y-129540000D03*
X187960000Y-137160000D03*
X172720000Y-129540000D03*
X185420000Y-137160000D03*
X175260000Y-129540000D03*
X182880000Y-137160000D03*
X177800000Y-129540000D03*
X180340000Y-137160000D03*
X180340000Y-129540000D03*
X177800000Y-137160000D03*
X182880000Y-129540000D03*
X175260000Y-137160000D03*
X185420000Y-129540000D03*
X172720000Y-137160000D03*
X187960000Y-129540000D03*
X170180000Y-137160000D03*
X190500000Y-129540000D03*
D11*
X167640000Y-137160000D03*
D10*
X215900000Y-114300000D03*
X238760000Y-121920000D03*
X218440000Y-114300000D03*
X236220000Y-121920000D03*
X220980000Y-114300000D03*
X233680000Y-121920000D03*
X223520000Y-114300000D03*
X231140000Y-121920000D03*
X226060000Y-114300000D03*
X228600000Y-121920000D03*
X228600000Y-114300000D03*
X226060000Y-121920000D03*
X231140000Y-114300000D03*
X223520000Y-121920000D03*
X233680000Y-114300000D03*
X220980000Y-121920000D03*
X236220000Y-114300000D03*
X218440000Y-121920000D03*
X238760000Y-114300000D03*
D11*
X215900000Y-121920000D03*
D10*
X167640000Y-114300000D03*
X190500000Y-121920000D03*
X170180000Y-114300000D03*
X187960000Y-121920000D03*
X172720000Y-114300000D03*
X185420000Y-121920000D03*
X175260000Y-114300000D03*
X182880000Y-121920000D03*
X177800000Y-114300000D03*
X180340000Y-121920000D03*
X180340000Y-114300000D03*
X177800000Y-121920000D03*
X182880000Y-114300000D03*
X175260000Y-121920000D03*
X185420000Y-114300000D03*
X172720000Y-121920000D03*
X187960000Y-114300000D03*
X170180000Y-121920000D03*
X190500000Y-114300000D03*
D11*
X167640000Y-121920000D03*
D10*
X119380000Y-73660000D03*
X142240000Y-81280000D03*
X121920000Y-73660000D03*
X139700000Y-81280000D03*
X124460000Y-73660000D03*
X137160000Y-81280000D03*
X127000000Y-73660000D03*
X134620000Y-81280000D03*
X129540000Y-73660000D03*
X132080000Y-81280000D03*
X132080000Y-73660000D03*
X129540000Y-81280000D03*
X134620000Y-73660000D03*
X127000000Y-81280000D03*
X137160000Y-73660000D03*
X124460000Y-81280000D03*
X139700000Y-73660000D03*
X121920000Y-81280000D03*
X142240000Y-73660000D03*
D11*
X119380000Y-81280000D03*
D10*
X68580000Y-73660000D03*
X91440000Y-81280000D03*
X71120000Y-73660000D03*
X88900000Y-81280000D03*
X73660000Y-73660000D03*
X86360000Y-81280000D03*
X76200000Y-73660000D03*
X83820000Y-81280000D03*
X78740000Y-73660000D03*
X81280000Y-81280000D03*
X81280000Y-73660000D03*
X78740000Y-81280000D03*
X83820000Y-73660000D03*
X76200000Y-81280000D03*
X86360000Y-73660000D03*
X73660000Y-81280000D03*
X88900000Y-73660000D03*
X71120000Y-81280000D03*
X91440000Y-73660000D03*
D11*
X68580000Y-81280000D03*
D10*
X119380000Y-129540000D03*
X142240000Y-137160000D03*
X121920000Y-129540000D03*
X139700000Y-137160000D03*
X124460000Y-129540000D03*
X137160000Y-137160000D03*
X127000000Y-129540000D03*
X134620000Y-137160000D03*
X129540000Y-129540000D03*
X132080000Y-137160000D03*
X132080000Y-129540000D03*
X129540000Y-137160000D03*
X134620000Y-129540000D03*
X127000000Y-137160000D03*
X137160000Y-129540000D03*
X124460000Y-137160000D03*
X139700000Y-129540000D03*
X121920000Y-137160000D03*
X142240000Y-129540000D03*
D11*
X119380000Y-137160000D03*
D10*
X68580000Y-129540000D03*
X91440000Y-137160000D03*
X71120000Y-129540000D03*
X88900000Y-137160000D03*
X73660000Y-129540000D03*
X86360000Y-137160000D03*
X76200000Y-129540000D03*
X83820000Y-137160000D03*
X78740000Y-129540000D03*
X81280000Y-137160000D03*
X81280000Y-129540000D03*
X78740000Y-137160000D03*
X83820000Y-129540000D03*
X76200000Y-137160000D03*
X86360000Y-129540000D03*
X73660000Y-137160000D03*
X88900000Y-129540000D03*
X71120000Y-137160000D03*
X91440000Y-129540000D03*
D11*
X68580000Y-137160000D03*
D10*
X143510000Y-111506000D03*
D12*
X133350000Y-111506000D03*
D10*
X113030000Y-111760000D03*
X110490000Y-111760000D03*
X107950000Y-111760000D03*
X105410000Y-111760000D03*
D11*
X102870000Y-111760000D03*
D10*
X132080000Y-63500000D03*
X134620000Y-63500000D03*
X137160000Y-63500000D03*
X139700000Y-63500000D03*
D11*
X142240000Y-63500000D03*
X118110000Y-111760000D03*
D10*
X120650000Y-111760000D03*
X123190000Y-111760000D03*
X125730000Y-111760000D03*
X128270000Y-111760000D03*
X100330000Y-82550000D03*
X102870000Y-82550000D03*
X105410000Y-82550000D03*
X107950000Y-82550000D03*
D11*
X110490000Y-82550000D03*
D10*
X83820000Y-112522000D03*
X86360000Y-112522000D03*
X88900000Y-112522000D03*
X91440000Y-112522000D03*
D11*
X93980000Y-112522000D03*
D13*
X153162000Y-60960000D03*
D14*
X153162000Y-55880000D03*
X153162000Y-58420000D03*
D15*
X60960000Y-113030000D03*
X60960000Y-110490000D03*
X60960000Y-107950000D03*
X60960000Y-105410000D03*
X60960000Y-102870000D03*
X60960000Y-100330000D03*
D16*
X60960000Y-97790000D03*
D12*
X105410000Y-59610000D03*
X105410000Y-54610000D03*
D10*
X152400000Y-63500000D03*
D12*
X149860000Y-63500000D03*
D10*
X158750000Y-55880000D03*
D12*
X158750000Y-58420000D03*
D17*
X130810000Y-58420000D03*
D18*
X133350000Y-58420000D03*
D17*
X137160000Y-58420000D03*
D18*
X139700000Y-58420000D03*
D17*
X143510000Y-58420000D03*
D18*
X146050000Y-58420000D03*
D10*
X241300000Y-59690000D03*
D12*
X251460000Y-59690000D03*
D17*
X143510000Y-105410000D03*
D18*
X146050000Y-105410000D03*
D17*
X137160000Y-105410000D03*
D18*
X139700000Y-105410000D03*
D17*
X130810000Y-105410000D03*
D18*
X133350000Y-105410000D03*
D17*
X124460000Y-105410000D03*
D18*
X127000000Y-105410000D03*
D17*
X118110000Y-105410000D03*
D18*
X120650000Y-105410000D03*
D17*
X111760000Y-105410000D03*
D18*
X114300000Y-105410000D03*
D17*
X105410000Y-105410000D03*
D18*
X107950000Y-105410000D03*
D12*
X68660000Y-98044000D03*
X73660000Y-98044000D03*
D10*
X139700000Y-85090000D03*
X137160000Y-85090000D03*
X134620000Y-85090000D03*
X132080000Y-85090000D03*
X129540000Y-85090000D03*
X127000000Y-85090000D03*
X124460000Y-85090000D03*
X121920000Y-85090000D03*
D11*
X119380000Y-85090000D03*
D17*
X248920000Y-101600000D03*
D18*
X251460000Y-101600000D03*
D17*
X242570000Y-101600000D03*
D18*
X245110000Y-101600000D03*
D17*
X236220000Y-101600000D03*
D18*
X238760000Y-101600000D03*
D17*
X229870000Y-101600000D03*
D18*
X232410000Y-101600000D03*
D17*
X223520000Y-101600000D03*
D18*
X226060000Y-101600000D03*
D17*
X217170000Y-101600000D03*
D18*
X219710000Y-101600000D03*
D17*
X210820000Y-101600000D03*
D18*
X213360000Y-101600000D03*
D17*
X204470000Y-101600000D03*
D18*
X207010000Y-101600000D03*
D17*
X198120000Y-101600000D03*
D18*
X200660000Y-101600000D03*
D17*
X191770000Y-101600000D03*
D18*
X194310000Y-101600000D03*
D17*
X185420000Y-101600000D03*
D18*
X187960000Y-101600000D03*
D17*
X179070000Y-101600000D03*
D18*
X181610000Y-101600000D03*
D17*
X172720000Y-101600000D03*
D18*
X175260000Y-101600000D03*
D17*
X166370000Y-101600000D03*
D18*
X168910000Y-101600000D03*
D17*
X160020000Y-101600000D03*
D18*
X162560000Y-101600000D03*
D17*
X153670000Y-101600000D03*
D18*
X156210000Y-101600000D03*
D17*
X248920000Y-71120000D03*
D18*
X251460000Y-71120000D03*
D17*
X242570000Y-71120000D03*
D18*
X245110000Y-71120000D03*
D17*
X236220000Y-71120000D03*
D18*
X238760000Y-71120000D03*
D17*
X229870000Y-71120000D03*
D18*
X232410000Y-71120000D03*
D17*
X223520000Y-71120000D03*
D18*
X226060000Y-71120000D03*
D17*
X217170000Y-71120000D03*
D18*
X219710000Y-71120000D03*
D17*
X210820000Y-71120000D03*
D18*
X213360000Y-71120000D03*
D17*
X204470000Y-71120000D03*
D18*
X207010000Y-71120000D03*
D17*
X198120000Y-71120000D03*
D18*
X200660000Y-71120000D03*
D17*
X191770000Y-71120000D03*
D18*
X194310000Y-71120000D03*
D17*
X185420000Y-71120000D03*
D18*
X187960000Y-71120000D03*
D17*
X179070000Y-71120000D03*
D18*
X181610000Y-71120000D03*
D17*
X172720000Y-71120000D03*
D18*
X175260000Y-71120000D03*
D17*
X166370000Y-71120000D03*
D18*
X168910000Y-71120000D03*
D17*
X160020000Y-71120000D03*
D18*
X162560000Y-71120000D03*
D17*
X153670000Y-71120000D03*
D18*
X156210000Y-71120000D03*
D17*
X149860000Y-119380000D03*
D18*
X152400000Y-119380000D03*
D17*
X143510000Y-119380000D03*
D18*
X146050000Y-119380000D03*
D17*
X137160000Y-119380000D03*
D18*
X139700000Y-119380000D03*
D17*
X130810000Y-119380000D03*
D18*
X133350000Y-119380000D03*
D17*
X124460000Y-119380000D03*
D18*
X127000000Y-119380000D03*
D17*
X118110000Y-119380000D03*
D18*
X120650000Y-119380000D03*
D17*
X111760000Y-119380000D03*
D18*
X114300000Y-119380000D03*
D17*
X105410000Y-119380000D03*
D18*
X107950000Y-119380000D03*
D17*
X99060000Y-119380000D03*
D18*
X101600000Y-119380000D03*
D17*
X92710000Y-119380000D03*
D18*
X95250000Y-119380000D03*
D17*
X86360000Y-119380000D03*
D18*
X88900000Y-119380000D03*
D17*
X80010000Y-119380000D03*
D18*
X82550000Y-119380000D03*
D17*
X73660000Y-119380000D03*
D18*
X76200000Y-119380000D03*
D17*
X67310000Y-119380000D03*
D18*
X69850000Y-119380000D03*
D17*
X60960000Y-119380000D03*
D18*
X63500000Y-119380000D03*
D17*
X54610000Y-119380000D03*
D18*
X57150000Y-119380000D03*
D17*
X149860000Y-91440000D03*
D18*
X152400000Y-91440000D03*
D17*
X143510000Y-91440000D03*
D18*
X146050000Y-91440000D03*
D17*
X137160000Y-91440000D03*
D18*
X139700000Y-91440000D03*
D17*
X130810000Y-91440000D03*
D18*
X133350000Y-91440000D03*
D17*
X124460000Y-91440000D03*
D18*
X127000000Y-91440000D03*
D17*
X118110000Y-91440000D03*
D18*
X120650000Y-91440000D03*
D17*
X111760000Y-91440000D03*
D18*
X114300000Y-91440000D03*
D17*
X105410000Y-91440000D03*
D18*
X107950000Y-91440000D03*
D17*
X99060000Y-91440000D03*
D18*
X101600000Y-91440000D03*
D17*
X92710000Y-91440000D03*
D18*
X95250000Y-91440000D03*
D17*
X86360000Y-91440000D03*
D18*
X88900000Y-91440000D03*
D17*
X80010000Y-91440000D03*
D18*
X82550000Y-91440000D03*
D17*
X73660000Y-91440000D03*
D18*
X76200000Y-91440000D03*
D17*
X67310000Y-91440000D03*
D18*
X69850000Y-91440000D03*
D17*
X60960000Y-91440000D03*
D18*
X63500000Y-91440000D03*
D17*
X54610000Y-91440000D03*
D18*
X57150000Y-91440000D03*
D15*
X96520000Y-60960000D03*
D16*
X99060000Y-60960000D03*
D15*
X241300000Y-83820000D03*
X241300000Y-81280000D03*
D16*
X241300000Y-78740000D03*
D15*
X162560000Y-144780000D03*
X165100000Y-144780000D03*
X167640000Y-144780000D03*
X170180000Y-144780000D03*
X172720000Y-144780000D03*
X175260000Y-144780000D03*
X177800000Y-144780000D03*
X180340000Y-144780000D03*
X182880000Y-144780000D03*
X185420000Y-144780000D03*
X187960000Y-144780000D03*
X190500000Y-144780000D03*
X193040000Y-144780000D03*
X195580000Y-144780000D03*
X198120000Y-144780000D03*
X200660000Y-144780000D03*
X203200000Y-144780000D03*
X205740000Y-144780000D03*
X208280000Y-144780000D03*
X210820000Y-144780000D03*
X213360000Y-144780000D03*
X215900000Y-144780000D03*
X218440000Y-144780000D03*
X220980000Y-144780000D03*
X223520000Y-144780000D03*
X226060000Y-144780000D03*
X228600000Y-144780000D03*
X231140000Y-144780000D03*
X233680000Y-144780000D03*
X236220000Y-144780000D03*
X238760000Y-144780000D03*
D16*
X241300000Y-144780000D03*
X137160000Y-144780000D03*
D15*
X134620000Y-144780000D03*
X132080000Y-144780000D03*
X129540000Y-144780000D03*
X127000000Y-144780000D03*
X124460000Y-144780000D03*
X121920000Y-144780000D03*
X119380000Y-144780000D03*
X116840000Y-144780000D03*
X114300000Y-144780000D03*
X111760000Y-144780000D03*
X109220000Y-144780000D03*
X106680000Y-144780000D03*
X104140000Y-144780000D03*
X101600000Y-144780000D03*
X99060000Y-144780000D03*
D16*
X86360000Y-144780000D03*
D15*
X83820000Y-144780000D03*
X81280000Y-144780000D03*
X78740000Y-144780000D03*
X76200000Y-144780000D03*
X73660000Y-144780000D03*
X71120000Y-144780000D03*
X68580000Y-144780000D03*
X66040000Y-144780000D03*
X63500000Y-144780000D03*
D10*
X236220000Y-86360000D03*
X233680000Y-86360000D03*
X231140000Y-86360000D03*
X228600000Y-86360000D03*
X226060000Y-86360000D03*
X223520000Y-86360000D03*
X220980000Y-86360000D03*
X218440000Y-86360000D03*
D11*
X215900000Y-86360000D03*
D10*
X185420000Y-86360000D03*
X182880000Y-86360000D03*
X180340000Y-86360000D03*
X177800000Y-86360000D03*
X175260000Y-86360000D03*
X172720000Y-86360000D03*
X170180000Y-86360000D03*
X167640000Y-86360000D03*
D11*
X165100000Y-86360000D03*
D10*
X236220000Y-59690000D03*
X233680000Y-59690000D03*
X231140000Y-59690000D03*
X228600000Y-59690000D03*
X226060000Y-59690000D03*
X223520000Y-59690000D03*
X220980000Y-59690000D03*
X218440000Y-59690000D03*
D11*
X215900000Y-59690000D03*
D10*
X185420000Y-59690000D03*
X182880000Y-59690000D03*
X180340000Y-59690000D03*
X177800000Y-59690000D03*
X175260000Y-59690000D03*
X172720000Y-59690000D03*
X170180000Y-59690000D03*
X167640000Y-59690000D03*
D11*
X165100000Y-59690000D03*
D10*
X140970000Y-125730000D03*
X138430000Y-125730000D03*
X135890000Y-125730000D03*
X133350000Y-125730000D03*
X130810000Y-125730000D03*
X128270000Y-125730000D03*
X125730000Y-125730000D03*
X123190000Y-125730000D03*
D11*
X120650000Y-125730000D03*
D10*
X90170000Y-125730000D03*
X87630000Y-125730000D03*
X85090000Y-125730000D03*
X82550000Y-125730000D03*
X80010000Y-125730000D03*
X77470000Y-125730000D03*
X74930000Y-125730000D03*
X72390000Y-125730000D03*
D11*
X69850000Y-125730000D03*
D10*
X88900000Y-85090000D03*
X86360000Y-85090000D03*
X83820000Y-85090000D03*
X81280000Y-85090000D03*
X78740000Y-85090000D03*
X76200000Y-85090000D03*
X73660000Y-85090000D03*
X71120000Y-85090000D03*
D11*
X68580000Y-85090000D03*
D15*
X53340000Y-60960000D03*
X55880000Y-60960000D03*
X58420000Y-60960000D03*
X60960000Y-60960000D03*
X63500000Y-60960000D03*
X66040000Y-60960000D03*
X68580000Y-60960000D03*
X71120000Y-60960000D03*
X73660000Y-60960000D03*
X76200000Y-60960000D03*
X78740000Y-60960000D03*
X81280000Y-60960000D03*
X83820000Y-60960000D03*
X86360000Y-60960000D03*
X88900000Y-60960000D03*
D16*
X91440000Y-60960000D03*
D12*
X55880000Y-67350000D03*
D11*
X55880000Y-69850000D03*
D12*
X203160000Y-121920000D03*
D11*
X200660000Y-121920000D03*
D12*
X104100000Y-134620000D03*
D11*
X101600000Y-134620000D03*
D12*
X208280000Y-134540000D03*
X208280000Y-129540000D03*
X160020000Y-134540000D03*
X160020000Y-129540000D03*
X208280000Y-119300000D03*
X208280000Y-114300000D03*
X160020000Y-119300000D03*
X160020000Y-114300000D03*
X111760000Y-134540000D03*
X111760000Y-129540000D03*
X60960000Y-134540000D03*
X60960000Y-129540000D03*
X60960000Y-78660000D03*
X60960000Y-73660000D03*
X111760000Y-78660000D03*
X111760000Y-73660000D03*
M02*
