M48
; DRILL file {KiCad (5.1.5)-3} date 2022-12-08 9:34:56 PM
; FORMAT={-:-/ absolute / metric / decimal}
; #@! TF.CreationDate,2022-12-08T21:34:56-08:00
; #@! TF.GenerationSoftware,Kicad,Pcbnew,(5.1.5)-3
; #@! TF.FileFunction,Plated,1,2,PTH
FMAT,2
METRIC
T1C0.400
T2C0.800
T3C0.900
T4C1.000
%
G90
G05
T1
X58.928Y-122.936
X60.706Y-124.968
X61.214Y-81.788
X61.214Y-86.36
X61.214Y-86.36
X62.484Y-81.788
X62.484Y-86.36
X63.5Y-113.792
X65.532Y-116.586
X66.04Y-72.136
X67.31Y-71.12
X71.12Y-103.886
X92.964Y-134.366
X93.98Y-73.66
X94.996Y-136.398
X94.996Y-144.78
X96.012Y-143.764
X97.282Y-81.026
X97.282Y-85.344
X97.282Y-93.98
X98.298Y-134.112
X98.298Y-135.382
X99.06Y-63.246
X99.06Y-64.516
X99.06Y-73.406
X99.06Y-74.676
X100.33Y-77.47
X100.33Y-80.01
X102.87Y-78.232
X102.87Y-80.01
X105.664Y-77.47
X105.664Y-64.77
X106.934Y-65.024
X106.934Y-78.232
X108.204Y-64.262
X108.204Y-77.47
X117.856Y-131.318
X120.65Y-131.318
X153.416Y-127.508
X153.924Y-67.564
X157.398Y-127.336
X167.64Y-127.508
X168.91Y-132.08
X168.91Y-134.62
X171.45Y-116.84
X171.45Y-119.38
X171.45Y-132.08
X171.45Y-134.62
X173.99Y-116.84
X173.99Y-119.38
X173.99Y-132.08
X173.99Y-134.62
X176.53Y-116.84
X176.53Y-119.38
X176.53Y-132.08
X176.53Y-134.62
X179.07Y-116.84
X179.07Y-119.38
X179.07Y-132.08
X179.07Y-134.62
X181.61Y-116.84
X181.61Y-119.38
X181.61Y-132.08
X181.61Y-134.62
X184.15Y-116.84
X184.15Y-119.38
X184.15Y-132.08
X184.15Y-134.62
X186.69Y-116.84
X186.69Y-119.38
X186.69Y-132.08
X186.69Y-134.62
X189.23Y-116.84
X189.23Y-119.38
X192.532Y-116.84
X192.532Y-119.38
X198.628Y-131.826
X199.39Y-118.618
X199.898Y-131.826
X201.93Y-118.618
X206.248Y-131.826
X207.518Y-131.826
X211.836Y-114.3
X211.836Y-118.872
X219.71Y-119.38
X222.25Y-119.38
X224.79Y-119.38
X227.33Y-119.38
X229.87Y-119.38
X232.41Y-119.38
X234.95Y-119.38
X237.49Y-119.38
X239.014Y-119.38
X240.792Y-64.262
X242.062Y-119.38
X246.888Y-67.056
X246.888Y-76.708
X247.142Y-95.504
X247.142Y-107.95
T2
X73.66Y-101.6
X73.66Y-109.22
X76.2Y-101.6
X76.2Y-109.22
X78.74Y-101.6
X78.74Y-109.22
X81.28Y-101.6
X81.28Y-109.22
X83.82Y-101.6
X83.82Y-109.22
X86.36Y-101.6
X86.36Y-109.22
X88.9Y-101.6
X88.9Y-109.22
X91.44Y-101.6
X91.44Y-109.22
X93.98Y-101.6
X93.98Y-109.22
X96.52Y-101.6
X96.52Y-109.22
X110.49Y-54.61
X110.49Y-62.23
X113.03Y-54.61
X113.03Y-62.23
X115.57Y-54.61
X115.57Y-62.23
X118.11Y-54.61
X118.11Y-62.23
X120.65Y-54.61
X120.65Y-62.23
X123.19Y-54.61
X123.19Y-62.23
X125.73Y-54.61
X125.73Y-62.23
X132.08Y-63.5
X134.62Y-63.5
X137.16Y-63.5
X139.7Y-63.5
X142.24Y-63.5
X208.28Y-114.3
X208.28Y-119.3
X215.9Y-129.54
X215.9Y-137.16
X218.44Y-129.54
X218.44Y-137.16
X220.98Y-129.54
X220.98Y-137.16
X223.52Y-129.54
X223.52Y-137.16
X226.06Y-129.54
X226.06Y-137.16
X228.6Y-129.54
X228.6Y-137.16
X231.14Y-129.54
X231.14Y-137.16
X233.68Y-129.54
X233.68Y-137.16
X236.22Y-129.54
X236.22Y-137.16
X238.76Y-129.54
X238.76Y-137.16
X68.58Y-129.54
X68.58Y-137.16
X71.12Y-129.54
X71.12Y-137.16
X73.66Y-129.54
X73.66Y-137.16
X76.2Y-129.54
X76.2Y-137.16
X78.74Y-129.54
X78.74Y-137.16
X81.28Y-129.54
X81.28Y-137.16
X83.82Y-129.54
X83.82Y-137.16
X86.36Y-129.54
X86.36Y-137.16
X88.9Y-129.54
X88.9Y-137.16
X91.44Y-129.54
X91.44Y-137.16
X208.28Y-129.54
X208.28Y-134.54
X68.66Y-98.044
X73.66Y-98.044
X83.82Y-112.522
X86.36Y-112.522
X88.9Y-112.522
X91.44Y-112.522
X93.98Y-112.522
X200.66Y-121.92
X203.16Y-121.92
X105.41Y-54.61
X105.41Y-59.61
X160.02Y-129.54
X160.02Y-134.54
X102.87Y-111.76
X105.41Y-111.76
X107.95Y-111.76
X110.49Y-111.76
X113.03Y-111.76
X68.58Y-85.09
X71.12Y-85.09
X73.66Y-85.09
X76.2Y-85.09
X78.74Y-85.09
X81.28Y-85.09
X83.82Y-85.09
X86.36Y-85.09
X88.9Y-85.09
X165.1Y-59.69
X167.64Y-59.69
X170.18Y-59.69
X172.72Y-59.69
X175.26Y-59.69
X177.8Y-59.69
X180.34Y-59.69
X182.88Y-59.69
X185.42Y-59.69
X241.3Y-59.69
X251.46Y-59.69
X60.96Y-73.66
X60.96Y-78.66
X111.76Y-73.66
X111.76Y-78.66
X69.85Y-125.73
X72.39Y-125.73
X74.93Y-125.73
X77.47Y-125.73
X80.01Y-125.73
X82.55Y-125.73
X85.09Y-125.73
X87.63Y-125.73
X90.17Y-125.73
X215.9Y-59.69
X218.44Y-59.69
X220.98Y-59.69
X223.52Y-59.69
X226.06Y-59.69
X228.6Y-59.69
X231.14Y-59.69
X233.68Y-59.69
X236.22Y-59.69
X167.64Y-129.54
X167.64Y-137.16
X170.18Y-129.54
X170.18Y-137.16
X172.72Y-129.54
X172.72Y-137.16
X175.26Y-129.54
X175.26Y-137.16
X177.8Y-129.54
X177.8Y-137.16
X180.34Y-129.54
X180.34Y-137.16
X182.88Y-129.54
X182.88Y-137.16
X185.42Y-129.54
X185.42Y-137.16
X187.96Y-129.54
X187.96Y-137.16
X190.5Y-129.54
X190.5Y-137.16
X60.96Y-129.54
X60.96Y-134.54
X120.65Y-125.73
X123.19Y-125.73
X125.73Y-125.73
X128.27Y-125.73
X130.81Y-125.73
X133.35Y-125.73
X135.89Y-125.73
X138.43Y-125.73
X140.97Y-125.73
X215.9Y-86.36
X218.44Y-86.36
X220.98Y-86.36
X223.52Y-86.36
X226.06Y-86.36
X228.6Y-86.36
X231.14Y-86.36
X233.68Y-86.36
X236.22Y-86.36
X101.6Y-134.62
X104.1Y-134.62
X158.75Y-55.88
X158.75Y-58.42
X100.33Y-82.55
X102.87Y-82.55
X105.41Y-82.55
X107.95Y-82.55
X110.49Y-82.55
X111.76Y-129.54
X111.76Y-134.54
X119.38Y-73.66
X119.38Y-81.28
X121.92Y-73.66
X121.92Y-81.28
X124.46Y-73.66
X124.46Y-81.28
X127.0Y-73.66
X127.0Y-81.28
X129.54Y-73.66
X129.54Y-81.28
X132.08Y-73.66
X132.08Y-81.28
X134.62Y-73.66
X134.62Y-81.28
X137.16Y-73.66
X137.16Y-81.28
X139.7Y-73.66
X139.7Y-81.28
X142.24Y-73.66
X142.24Y-81.28
X215.9Y-114.3
X215.9Y-121.92
X218.44Y-114.3
X218.44Y-121.92
X220.98Y-114.3
X220.98Y-121.92
X223.52Y-114.3
X223.52Y-121.92
X226.06Y-114.3
X226.06Y-121.92
X228.6Y-114.3
X228.6Y-121.92
X231.14Y-114.3
X231.14Y-121.92
X233.68Y-114.3
X233.68Y-121.92
X236.22Y-114.3
X236.22Y-121.92
X238.76Y-114.3
X238.76Y-121.92
X133.35Y-111.506
X143.51Y-111.506
X118.11Y-111.76
X120.65Y-111.76
X123.19Y-111.76
X125.73Y-111.76
X128.27Y-111.76
X55.88Y-67.35
X55.88Y-69.85
X165.1Y-86.36
X167.64Y-86.36
X170.18Y-86.36
X172.72Y-86.36
X175.26Y-86.36
X177.8Y-86.36
X180.34Y-86.36
X182.88Y-86.36
X185.42Y-86.36
X119.38Y-85.09
X121.92Y-85.09
X124.46Y-85.09
X127.0Y-85.09
X129.54Y-85.09
X132.08Y-85.09
X134.62Y-85.09
X137.16Y-85.09
X139.7Y-85.09
X119.38Y-129.54
X119.38Y-137.16
X121.92Y-129.54
X121.92Y-137.16
X124.46Y-129.54
X124.46Y-137.16
X127.0Y-129.54
X127.0Y-137.16
X129.54Y-129.54
X129.54Y-137.16
X132.08Y-129.54
X132.08Y-137.16
X134.62Y-129.54
X134.62Y-137.16
X137.16Y-129.54
X137.16Y-137.16
X139.7Y-129.54
X139.7Y-137.16
X142.24Y-129.54
X142.24Y-137.16
X149.86Y-63.5
X152.4Y-63.5
X153.162Y-55.88
X153.162Y-58.42
X153.162Y-60.96
X160.02Y-114.3
X160.02Y-119.3
X167.64Y-114.3
X167.64Y-121.92
X170.18Y-114.3
X170.18Y-121.92
X172.72Y-114.3
X172.72Y-121.92
X175.26Y-114.3
X175.26Y-121.92
X177.8Y-114.3
X177.8Y-121.92
X180.34Y-114.3
X180.34Y-121.92
X182.88Y-114.3
X182.88Y-121.92
X185.42Y-114.3
X185.42Y-121.92
X187.96Y-114.3
X187.96Y-121.92
X190.5Y-114.3
X190.5Y-121.92
X68.58Y-73.66
X68.58Y-81.28
X71.12Y-73.66
X71.12Y-81.28
X73.66Y-73.66
X73.66Y-81.28
X76.2Y-73.66
X76.2Y-81.28
X78.74Y-73.66
X78.74Y-81.28
X81.28Y-73.66
X81.28Y-81.28
X83.82Y-73.66
X83.82Y-81.28
X86.36Y-73.66
X86.36Y-81.28
X88.9Y-73.66
X88.9Y-81.28
X91.44Y-73.66
X91.44Y-81.28
T3
X172.72Y-101.6
X175.26Y-101.6
X153.67Y-101.6
X156.21Y-101.6
X105.41Y-105.41
X107.95Y-105.41
X105.41Y-91.44
X107.95Y-91.44
X124.46Y-91.44
X127.0Y-91.44
X54.61Y-119.38
X57.15Y-119.38
X86.36Y-119.38
X88.9Y-119.38
X149.86Y-119.38
X152.4Y-119.38
X210.82Y-71.12
X213.36Y-71.12
X204.47Y-101.6
X207.01Y-101.6
X191.77Y-101.6
X194.31Y-101.6
X143.51Y-119.38
X146.05Y-119.38
X242.57Y-101.6
X245.11Y-101.6
X86.36Y-91.44
X88.9Y-91.44
X73.66Y-91.44
X76.2Y-91.44
X92.71Y-91.44
X95.25Y-91.44
X60.96Y-91.44
X63.5Y-91.44
X60.96Y-119.38
X63.5Y-119.38
X111.76Y-119.38
X114.3Y-119.38
X160.02Y-71.12
X162.56Y-71.12
X223.52Y-71.12
X226.06Y-71.12
X124.46Y-105.41
X127.0Y-105.41
X236.22Y-71.12
X238.76Y-71.12
X217.17Y-101.6
X219.71Y-101.6
X153.67Y-71.12
X156.21Y-71.12
X217.17Y-71.12
X219.71Y-71.12
X54.61Y-91.44
X57.15Y-91.44
X143.51Y-91.44
X146.05Y-91.44
X67.31Y-91.44
X69.85Y-91.44
X67.31Y-119.38
X69.85Y-119.38
X92.71Y-119.38
X95.25Y-119.38
X172.72Y-71.12
X175.26Y-71.12
X166.37Y-101.6
X168.91Y-101.6
X248.92Y-71.12
X251.46Y-71.12
X118.11Y-105.41
X120.65Y-105.41
X242.57Y-71.12
X245.11Y-71.12
X229.87Y-71.12
X232.41Y-71.12
X118.11Y-91.44
X120.65Y-91.44
X80.01Y-91.44
X82.55Y-91.44
X73.66Y-119.38
X76.2Y-119.38
X105.41Y-119.38
X107.95Y-119.38
X166.37Y-71.12
X168.91Y-71.12
X185.42Y-101.6
X187.96Y-101.6
X137.16Y-105.41
X139.7Y-105.41
X160.02Y-101.6
X162.56Y-101.6
X210.82Y-101.6
X213.36Y-101.6
X111.76Y-105.41
X114.3Y-105.41
X179.07Y-101.6
X181.61Y-101.6
X99.06Y-91.44
X101.6Y-91.44
X99.06Y-119.38
X101.6Y-119.38
X118.11Y-119.38
X120.65Y-119.38
X185.42Y-71.12
X187.96Y-71.12
X198.12Y-101.6
X200.66Y-101.6
X143.51Y-105.41
X146.05Y-105.41
X130.81Y-105.41
X133.35Y-105.41
X223.52Y-101.6
X226.06Y-101.6
X179.07Y-71.12
X181.61Y-71.12
X229.87Y-101.6
X232.41Y-101.6
X111.76Y-91.44
X114.3Y-91.44
X130.81Y-119.38
X133.35Y-119.38
X124.46Y-119.38
X127.0Y-119.38
X198.12Y-71.12
X200.66Y-71.12
X137.16Y-58.42
X139.7Y-58.42
X130.81Y-58.42
X133.35Y-58.42
X191.77Y-71.12
X194.31Y-71.12
X236.22Y-101.6
X238.76Y-101.6
X137.16Y-91.44
X139.7Y-91.44
X130.81Y-91.44
X133.35Y-91.44
X149.86Y-91.44
X152.4Y-91.44
X80.01Y-119.38
X82.55Y-119.38
X137.16Y-119.38
X139.7Y-119.38
X204.47Y-71.12
X207.01Y-71.12
X248.92Y-101.6
X251.46Y-101.6
X143.51Y-58.42
X146.05Y-58.42
T4
X96.52Y-60.96
X99.06Y-60.96
X99.06Y-144.78
X101.6Y-144.78
X104.14Y-144.78
X106.68Y-144.78
X109.22Y-144.78
X111.76Y-144.78
X114.3Y-144.78
X116.84Y-144.78
X119.38Y-144.78
X121.92Y-144.78
X124.46Y-144.78
X127.0Y-144.78
X129.54Y-144.78
X132.08Y-144.78
X134.62Y-144.78
X137.16Y-144.78
X63.5Y-144.78
X66.04Y-144.78
X68.58Y-144.78
X71.12Y-144.78
X73.66Y-144.78
X76.2Y-144.78
X78.74Y-144.78
X81.28Y-144.78
X83.82Y-144.78
X86.36Y-144.78
X241.3Y-78.74
X241.3Y-81.28
X241.3Y-83.82
X162.56Y-144.78
X165.1Y-144.78
X167.64Y-144.78
X170.18Y-144.78
X172.72Y-144.78
X175.26Y-144.78
X177.8Y-144.78
X180.34Y-144.78
X182.88Y-144.78
X185.42Y-144.78
X187.96Y-144.78
X190.5Y-144.78
X193.04Y-144.78
X195.58Y-144.78
X198.12Y-144.78
X200.66Y-144.78
X203.2Y-144.78
X205.74Y-144.78
X208.28Y-144.78
X210.82Y-144.78
X213.36Y-144.78
X215.9Y-144.78
X218.44Y-144.78
X220.98Y-144.78
X223.52Y-144.78
X226.06Y-144.78
X228.6Y-144.78
X231.14Y-144.78
X233.68Y-144.78
X236.22Y-144.78
X238.76Y-144.78
X241.3Y-144.78
X60.96Y-97.79
X60.96Y-100.33
X60.96Y-102.87
X60.96Y-105.41
X60.96Y-107.95
X60.96Y-110.49
X60.96Y-113.03
X53.34Y-60.96
X55.88Y-60.96
X58.42Y-60.96
X60.96Y-60.96
X63.5Y-60.96
X66.04Y-60.96
X68.58Y-60.96
X71.12Y-60.96
X73.66Y-60.96
X76.2Y-60.96
X78.74Y-60.96
X81.28Y-60.96
X83.82Y-60.96
X86.36Y-60.96
X88.9Y-60.96
X91.44Y-60.96
T0
M30
