%FSLAX45Y45*%
G04 Gerber Fmt 4.5, Leading zero omitted, Abs format (unit mm)*
G04 Created by KiCad (PCBNEW (5.1.5)-3) date 2022-12-08 21:34:59*
%MOMM*%
%LPD*%
G04 APERTURE LIST*
%TA.AperFunction,Profile*%
%ADD10C,0.050000*%
%TD*%
%ADD11C,0.200000*%
%ADD12C,0.300000*%
G04 APERTURE END LIST*
D10*
X5080000Y-5270500D02*
G75*
G02X5270500Y-5080000I190500J0D01*
G01*
X25209500Y-5080000D02*
G75*
G02X25400000Y-5270500I0J-190500D01*
G01*
X25400000Y-14668500D02*
G75*
G02X25209500Y-14859000I-190500J0D01*
G01*
X5270500Y-14859000D02*
G75*
G02X5080000Y-14668500I0J190500D01*
G01*
X5080000Y-14668500D02*
X5080000Y-5270500D01*
X25209500Y-14859000D02*
X5270500Y-14859000D01*
X25400000Y-5270500D02*
X25400000Y-14668500D01*
X5270500Y-5080000D02*
X25209500Y-5080000D01*
D11*
X5872800Y-12273600D02*
X5912800Y-12313600D01*
X5912800Y-12273600D02*
X5872800Y-12313600D01*
X6050600Y-12476800D02*
X6090600Y-12516800D01*
X6090600Y-12476800D02*
X6050600Y-12516800D01*
X6101400Y-8158800D02*
X6141400Y-8198800D01*
X6141400Y-8158800D02*
X6101400Y-8198800D01*
X6101400Y-8616000D02*
X6141400Y-8656000D01*
X6141400Y-8616000D02*
X6101400Y-8656000D01*
X6101400Y-8616000D02*
X6141400Y-8656000D01*
X6141400Y-8616000D02*
X6101400Y-8656000D01*
X6228400Y-8158800D02*
X6268400Y-8198800D01*
X6268400Y-8158800D02*
X6228400Y-8198800D01*
X6228400Y-8616000D02*
X6268400Y-8656000D01*
X6268400Y-8616000D02*
X6228400Y-8656000D01*
X6330000Y-11359200D02*
X6370000Y-11399200D01*
X6370000Y-11359200D02*
X6330000Y-11399200D01*
X6533200Y-11638600D02*
X6573200Y-11678600D01*
X6573200Y-11638600D02*
X6533200Y-11678600D01*
X6584000Y-7193600D02*
X6624000Y-7233600D01*
X6624000Y-7193600D02*
X6584000Y-7233600D01*
X6711000Y-7092000D02*
X6751000Y-7132000D01*
X6751000Y-7092000D02*
X6711000Y-7132000D01*
X7092000Y-10368600D02*
X7132000Y-10408600D01*
X7132000Y-10368600D02*
X7092000Y-10408600D01*
X9276400Y-13416600D02*
X9316400Y-13456600D01*
X9316400Y-13416600D02*
X9276400Y-13456600D01*
X9378000Y-7346000D02*
X9418000Y-7386000D01*
X9418000Y-7346000D02*
X9378000Y-7386000D01*
X9479600Y-13619800D02*
X9519600Y-13659800D01*
X9519600Y-13619800D02*
X9479600Y-13659800D01*
X9479600Y-14458000D02*
X9519600Y-14498000D01*
X9519600Y-14458000D02*
X9479600Y-14498000D01*
X9581200Y-14356400D02*
X9621200Y-14396400D01*
X9621200Y-14356400D02*
X9581200Y-14396400D01*
X9708200Y-8082600D02*
X9748200Y-8122600D01*
X9748200Y-8082600D02*
X9708200Y-8122600D01*
X9708200Y-8514400D02*
X9748200Y-8554400D01*
X9748200Y-8514400D02*
X9708200Y-8554400D01*
X9708200Y-9378000D02*
X9748200Y-9418000D01*
X9748200Y-9378000D02*
X9708200Y-9418000D01*
X9809800Y-13391200D02*
X9849800Y-13431200D01*
X9849800Y-13391200D02*
X9809800Y-13431200D01*
X9809800Y-13518200D02*
X9849800Y-13558200D01*
X9849800Y-13518200D02*
X9809800Y-13558200D01*
X9885999Y-6304600D02*
X9925999Y-6344600D01*
X9925999Y-6304600D02*
X9885999Y-6344600D01*
X9886000Y-6431600D02*
X9926000Y-6471600D01*
X9926000Y-6431600D02*
X9886000Y-6471600D01*
X9886000Y-7320600D02*
X9926000Y-7360600D01*
X9926000Y-7320600D02*
X9886000Y-7360600D01*
X9886000Y-7447600D02*
X9926000Y-7487600D01*
X9926000Y-7447600D02*
X9886000Y-7487600D01*
X10013000Y-7727000D02*
X10053000Y-7767000D01*
X10053000Y-7727000D02*
X10013000Y-7767000D01*
X10013000Y-7981000D02*
X10053000Y-8021000D01*
X10053000Y-7981000D02*
X10013000Y-8021000D01*
X10267000Y-7803200D02*
X10307000Y-7843200D01*
X10307000Y-7803200D02*
X10267000Y-7843200D01*
X10267000Y-7981000D02*
X10307000Y-8021000D01*
X10307000Y-7981000D02*
X10267000Y-8021000D01*
X10546400Y-7727000D02*
X10586400Y-7767000D01*
X10586400Y-7727000D02*
X10546400Y-7767000D01*
X10546401Y-6457000D02*
X10586401Y-6497000D01*
X10586401Y-6457000D02*
X10546401Y-6497000D01*
X10673400Y-6482400D02*
X10713400Y-6522400D01*
X10713400Y-6482400D02*
X10673400Y-6522400D01*
X10673400Y-7803200D02*
X10713400Y-7843200D01*
X10713400Y-7803200D02*
X10673400Y-7843200D01*
X10800400Y-6406200D02*
X10840400Y-6446200D01*
X10840400Y-6406200D02*
X10800400Y-6446200D01*
X10800400Y-7727000D02*
X10840400Y-7767000D01*
X10840400Y-7727000D02*
X10800400Y-7767000D01*
X11765600Y-13111800D02*
X11805600Y-13151800D01*
X11805600Y-13111800D02*
X11765600Y-13151800D01*
X12045000Y-13111800D02*
X12085000Y-13151800D01*
X12085000Y-13111800D02*
X12045000Y-13151800D01*
X15321600Y-12730800D02*
X15361600Y-12770800D01*
X15361600Y-12730800D02*
X15321600Y-12770800D01*
X15372396Y-6736400D02*
X15412396Y-6776400D01*
X15412396Y-6736400D02*
X15372396Y-6776400D01*
X15719824Y-12713576D02*
X15759824Y-12753576D01*
X15759824Y-12713576D02*
X15719824Y-12753576D01*
X16744000Y-12730800D02*
X16784000Y-12770800D01*
X16784000Y-12730800D02*
X16744000Y-12770800D01*
X16871000Y-13188000D02*
X16911000Y-13228000D01*
X16911000Y-13188000D02*
X16871000Y-13228000D01*
X16871000Y-13442000D02*
X16911000Y-13482000D01*
X16911000Y-13442000D02*
X16871000Y-13482000D01*
X17125000Y-11664000D02*
X17165000Y-11704000D01*
X17165000Y-11664000D02*
X17125000Y-11704000D01*
X17125000Y-11918000D02*
X17165000Y-11958000D01*
X17165000Y-11918000D02*
X17125000Y-11958000D01*
X17125000Y-13188000D02*
X17165000Y-13228000D01*
X17165000Y-13188000D02*
X17125000Y-13228000D01*
X17125000Y-13442000D02*
X17165000Y-13482000D01*
X17165000Y-13442000D02*
X17125000Y-13482000D01*
X17379000Y-11664000D02*
X17419000Y-11704000D01*
X17419000Y-11664000D02*
X17379000Y-11704000D01*
X17379000Y-11918000D02*
X17419000Y-11958000D01*
X17419000Y-11918000D02*
X17379000Y-11958000D01*
X17379000Y-13188000D02*
X17419000Y-13228000D01*
X17419000Y-13188000D02*
X17379000Y-13228000D01*
X17379000Y-13442000D02*
X17419000Y-13482000D01*
X17419000Y-13442000D02*
X17379000Y-13482000D01*
X17633000Y-11664000D02*
X17673000Y-11704000D01*
X17673000Y-11664000D02*
X17633000Y-11704000D01*
X17633000Y-11918000D02*
X17673000Y-11958000D01*
X17673000Y-11918000D02*
X17633000Y-11958000D01*
X17633000Y-13188000D02*
X17673000Y-13228000D01*
X17673000Y-13188000D02*
X17633000Y-13228000D01*
X17633000Y-13442000D02*
X17673000Y-13482000D01*
X17673000Y-13442000D02*
X17633000Y-13482000D01*
X17887000Y-11664000D02*
X17927000Y-11704000D01*
X17927000Y-11664000D02*
X17887000Y-11704000D01*
X17887000Y-11918000D02*
X17927000Y-11958000D01*
X17927000Y-11918000D02*
X17887000Y-11958000D01*
X17887000Y-13188000D02*
X17927000Y-13228000D01*
X17927000Y-13188000D02*
X17887000Y-13228000D01*
X17887000Y-13442000D02*
X17927000Y-13482000D01*
X17927000Y-13442000D02*
X17887000Y-13482000D01*
X18141000Y-11664000D02*
X18181000Y-11704000D01*
X18181000Y-11664000D02*
X18141000Y-11704000D01*
X18141000Y-11918000D02*
X18181000Y-11958000D01*
X18181000Y-11918000D02*
X18141000Y-11958000D01*
X18141000Y-13188000D02*
X18181000Y-13228000D01*
X18181000Y-13188000D02*
X18141000Y-13228000D01*
X18141000Y-13442000D02*
X18181000Y-13482000D01*
X18181000Y-13442000D02*
X18141000Y-13482000D01*
X18395000Y-11664000D02*
X18435000Y-11704000D01*
X18435000Y-11664000D02*
X18395000Y-11704000D01*
X18395000Y-11918000D02*
X18435000Y-11958000D01*
X18435000Y-11918000D02*
X18395000Y-11958000D01*
X18395000Y-13188000D02*
X18435000Y-13228000D01*
X18435000Y-13188000D02*
X18395000Y-13228000D01*
X18395000Y-13442000D02*
X18435000Y-13482000D01*
X18435000Y-13442000D02*
X18395000Y-13482000D01*
X18649000Y-11664000D02*
X18689000Y-11704000D01*
X18689000Y-11664000D02*
X18649000Y-11704000D01*
X18649000Y-11918000D02*
X18689000Y-11958000D01*
X18689000Y-11918000D02*
X18649000Y-11958000D01*
X18649000Y-13188000D02*
X18689000Y-13228000D01*
X18689000Y-13188000D02*
X18649000Y-13228000D01*
X18649000Y-13442000D02*
X18689000Y-13482000D01*
X18689000Y-13442000D02*
X18649000Y-13482000D01*
X18903000Y-11664000D02*
X18943000Y-11704000D01*
X18943000Y-11664000D02*
X18903000Y-11704000D01*
X18903000Y-11918000D02*
X18943000Y-11958000D01*
X18943000Y-11918000D02*
X18903000Y-11958000D01*
X19233200Y-11664000D02*
X19273200Y-11704000D01*
X19273200Y-11664000D02*
X19233200Y-11704000D01*
X19233200Y-11918000D02*
X19273200Y-11958000D01*
X19273200Y-11918000D02*
X19233200Y-11958000D01*
X19842800Y-13162600D02*
X19882800Y-13202600D01*
X19882800Y-13162600D02*
X19842800Y-13202600D01*
X19919000Y-11841800D02*
X19959000Y-11881800D01*
X19959000Y-11841800D02*
X19919000Y-11881800D01*
X19969800Y-13162600D02*
X20009800Y-13202600D01*
X20009800Y-13162600D02*
X19969800Y-13202600D01*
X20173000Y-11841800D02*
X20213000Y-11881800D01*
X20213000Y-11841800D02*
X20173000Y-11881800D01*
X20604800Y-13162600D02*
X20644800Y-13202600D01*
X20644800Y-13162600D02*
X20604800Y-13202600D01*
X20731800Y-13162600D02*
X20771800Y-13202600D01*
X20771800Y-13162600D02*
X20731800Y-13202600D01*
X21163600Y-11410000D02*
X21203600Y-11450000D01*
X21203600Y-11410000D02*
X21163600Y-11450000D01*
X21163600Y-11867200D02*
X21203600Y-11907200D01*
X21203600Y-11867200D02*
X21163600Y-11907200D01*
X21951000Y-11918000D02*
X21991000Y-11958000D01*
X21991000Y-11918000D02*
X21951000Y-11958000D01*
X22205000Y-11918000D02*
X22245000Y-11958000D01*
X22245000Y-11918000D02*
X22205000Y-11958000D01*
X22459000Y-11918000D02*
X22499000Y-11958000D01*
X22499000Y-11918000D02*
X22459000Y-11958000D01*
X22713000Y-11918000D02*
X22753000Y-11958000D01*
X22753000Y-11918000D02*
X22713000Y-11958000D01*
X22967000Y-11918000D02*
X23007000Y-11958000D01*
X23007000Y-11918000D02*
X22967000Y-11958000D01*
X23221000Y-11918000D02*
X23261000Y-11958000D01*
X23261000Y-11918000D02*
X23221000Y-11958000D01*
X23475000Y-11918000D02*
X23515000Y-11958000D01*
X23515000Y-11918000D02*
X23475000Y-11958000D01*
X23729000Y-11918000D02*
X23769000Y-11958000D01*
X23769000Y-11918000D02*
X23729000Y-11958000D01*
X23881400Y-11918000D02*
X23921400Y-11958000D01*
X23921400Y-11918000D02*
X23881400Y-11958000D01*
X24059200Y-6406200D02*
X24099200Y-6446200D01*
X24099200Y-6406200D02*
X24059200Y-6446200D01*
X24186200Y-11917999D02*
X24226200Y-11957999D01*
X24226200Y-11917999D02*
X24186200Y-11957999D01*
X24668800Y-6685600D02*
X24708800Y-6725600D01*
X24708800Y-6685600D02*
X24668800Y-6725600D01*
X24668800Y-7650800D02*
X24708800Y-7690800D01*
X24708800Y-7650800D02*
X24668800Y-7690800D01*
X24694200Y-9530400D02*
X24734200Y-9570400D01*
X24734200Y-9530400D02*
X24694200Y-9570400D01*
X24694200Y-10775000D02*
X24734200Y-10815000D01*
X24734200Y-10775000D02*
X24694200Y-10815000D01*
X7406000Y-10160000D02*
G75*
G03X7406000Y-10160000I-40000J0D01*
G01*
X7406000Y-10922000D02*
G75*
G03X7406000Y-10922000I-40000J0D01*
G01*
X7660000Y-10160000D02*
G75*
G03X7660000Y-10160000I-40000J0D01*
G01*
X7660000Y-10922000D02*
G75*
G03X7660000Y-10922000I-40000J0D01*
G01*
X7914000Y-10160000D02*
G75*
G03X7914000Y-10160000I-40000J0D01*
G01*
X7914000Y-10922000D02*
G75*
G03X7914000Y-10922000I-40000J0D01*
G01*
X8168000Y-10160000D02*
G75*
G03X8168000Y-10160000I-40000J0D01*
G01*
X8168000Y-10922000D02*
G75*
G03X8168000Y-10922000I-40000J0D01*
G01*
X8422000Y-10160000D02*
G75*
G03X8422000Y-10160000I-40000J0D01*
G01*
X8422000Y-10922000D02*
G75*
G03X8422000Y-10922000I-40000J0D01*
G01*
X8676000Y-10160000D02*
G75*
G03X8676000Y-10160000I-40000J0D01*
G01*
X8676000Y-10922000D02*
G75*
G03X8676000Y-10922000I-40000J0D01*
G01*
X8930000Y-10160000D02*
G75*
G03X8930000Y-10160000I-40000J0D01*
G01*
X8930000Y-10922000D02*
G75*
G03X8930000Y-10922000I-40000J0D01*
G01*
X9184000Y-10160000D02*
G75*
G03X9184000Y-10160000I-40000J0D01*
G01*
X9184000Y-10922000D02*
G75*
G03X9184000Y-10922000I-40000J0D01*
G01*
X9438000Y-10160000D02*
G75*
G03X9438000Y-10160000I-40000J0D01*
G01*
X9438000Y-10922000D02*
G75*
G03X9438000Y-10922000I-40000J0D01*
G01*
X9692000Y-10160000D02*
G75*
G03X9692000Y-10160000I-40000J0D01*
G01*
X9692000Y-10922000D02*
G75*
G03X9692000Y-10922000I-40000J0D01*
G01*
X11089000Y-5461000D02*
G75*
G03X11089000Y-5461000I-40000J0D01*
G01*
X11089000Y-6223000D02*
G75*
G03X11089000Y-6223000I-40000J0D01*
G01*
X11343000Y-5461000D02*
G75*
G03X11343000Y-5461000I-40000J0D01*
G01*
X11343000Y-6223000D02*
G75*
G03X11343000Y-6223000I-40000J0D01*
G01*
X11597000Y-5461000D02*
G75*
G03X11597000Y-5461000I-40000J0D01*
G01*
X11597000Y-6223000D02*
G75*
G03X11597000Y-6223000I-40000J0D01*
G01*
X11851000Y-5461000D02*
G75*
G03X11851000Y-5461000I-40000J0D01*
G01*
X11851000Y-6223000D02*
G75*
G03X11851000Y-6223000I-40000J0D01*
G01*
X12105000Y-5461000D02*
G75*
G03X12105000Y-5461000I-40000J0D01*
G01*
X12105000Y-6223000D02*
G75*
G03X12105000Y-6223000I-40000J0D01*
G01*
X12359000Y-5461000D02*
G75*
G03X12359000Y-5461000I-40000J0D01*
G01*
X12359000Y-6223000D02*
G75*
G03X12359000Y-6223000I-40000J0D01*
G01*
X12613000Y-5461000D02*
G75*
G03X12613000Y-5461000I-40000J0D01*
G01*
X12613000Y-6223000D02*
G75*
G03X12613000Y-6223000I-40000J0D01*
G01*
X13248000Y-6350000D02*
G75*
G03X13248000Y-6350000I-40000J0D01*
G01*
X13502000Y-6350000D02*
G75*
G03X13502000Y-6350000I-40000J0D01*
G01*
X13756000Y-6350000D02*
G75*
G03X13756000Y-6350000I-40000J0D01*
G01*
X14010000Y-6350000D02*
G75*
G03X14010000Y-6350000I-40000J0D01*
G01*
X14264000Y-6350000D02*
G75*
G03X14264000Y-6350000I-40000J0D01*
G01*
X20868000Y-11430000D02*
G75*
G03X20868000Y-11430000I-40000J0D01*
G01*
X20868000Y-11930000D02*
G75*
G03X20868000Y-11930000I-40000J0D01*
G01*
X21630000Y-12954000D02*
G75*
G03X21630000Y-12954000I-40000J0D01*
G01*
X21630000Y-13716000D02*
G75*
G03X21630000Y-13716000I-40000J0D01*
G01*
X21884000Y-12954000D02*
G75*
G03X21884000Y-12954000I-40000J0D01*
G01*
X21884000Y-13716000D02*
G75*
G03X21884000Y-13716000I-40000J0D01*
G01*
X22138000Y-12954000D02*
G75*
G03X22138000Y-12954000I-40000J0D01*
G01*
X22138000Y-13716000D02*
G75*
G03X22138000Y-13716000I-40000J0D01*
G01*
X22392000Y-12954000D02*
G75*
G03X22392000Y-12954000I-40000J0D01*
G01*
X22392000Y-13716000D02*
G75*
G03X22392000Y-13716000I-40000J0D01*
G01*
X22646000Y-12954000D02*
G75*
G03X22646000Y-12954000I-40000J0D01*
G01*
X22646000Y-13716000D02*
G75*
G03X22646000Y-13716000I-40000J0D01*
G01*
X22900000Y-12954000D02*
G75*
G03X22900000Y-12954000I-40000J0D01*
G01*
X22900000Y-13716000D02*
G75*
G03X22900000Y-13716000I-40000J0D01*
G01*
X23154000Y-12954000D02*
G75*
G03X23154000Y-12954000I-40000J0D01*
G01*
X23154000Y-13716000D02*
G75*
G03X23154000Y-13716000I-40000J0D01*
G01*
X23408000Y-12954000D02*
G75*
G03X23408000Y-12954000I-40000J0D01*
G01*
X23408000Y-13716000D02*
G75*
G03X23408000Y-13716000I-40000J0D01*
G01*
X23662000Y-12954000D02*
G75*
G03X23662000Y-12954000I-40000J0D01*
G01*
X23662000Y-13716000D02*
G75*
G03X23662000Y-13716000I-40000J0D01*
G01*
X23916000Y-12954000D02*
G75*
G03X23916000Y-12954000I-40000J0D01*
G01*
X23916000Y-13716000D02*
G75*
G03X23916000Y-13716000I-40000J0D01*
G01*
X6898000Y-12954000D02*
G75*
G03X6898000Y-12954000I-40000J0D01*
G01*
X6898000Y-13716000D02*
G75*
G03X6898000Y-13716000I-40000J0D01*
G01*
X7152000Y-12954000D02*
G75*
G03X7152000Y-12954000I-40000J0D01*
G01*
X7152000Y-13716000D02*
G75*
G03X7152000Y-13716000I-40000J0D01*
G01*
X7406000Y-12954000D02*
G75*
G03X7406000Y-12954000I-40000J0D01*
G01*
X7406000Y-13716000D02*
G75*
G03X7406000Y-13716000I-40000J0D01*
G01*
X7660000Y-12954000D02*
G75*
G03X7660000Y-12954000I-40000J0D01*
G01*
X7660000Y-13716000D02*
G75*
G03X7660000Y-13716000I-40000J0D01*
G01*
X7914000Y-12954000D02*
G75*
G03X7914000Y-12954000I-40000J0D01*
G01*
X7914000Y-13716000D02*
G75*
G03X7914000Y-13716000I-40000J0D01*
G01*
X8168000Y-12954000D02*
G75*
G03X8168000Y-12954000I-40000J0D01*
G01*
X8168000Y-13716000D02*
G75*
G03X8168000Y-13716000I-40000J0D01*
G01*
X8422000Y-12954000D02*
G75*
G03X8422000Y-12954000I-40000J0D01*
G01*
X8422000Y-13716000D02*
G75*
G03X8422000Y-13716000I-40000J0D01*
G01*
X8676000Y-12954000D02*
G75*
G03X8676000Y-12954000I-40000J0D01*
G01*
X8676000Y-13716000D02*
G75*
G03X8676000Y-13716000I-40000J0D01*
G01*
X8930000Y-12954000D02*
G75*
G03X8930000Y-12954000I-40000J0D01*
G01*
X8930000Y-13716000D02*
G75*
G03X8930000Y-13716000I-40000J0D01*
G01*
X9184000Y-12954000D02*
G75*
G03X9184000Y-12954000I-40000J0D01*
G01*
X9184000Y-13716000D02*
G75*
G03X9184000Y-13716000I-40000J0D01*
G01*
X20868000Y-12954000D02*
G75*
G03X20868000Y-12954000I-40000J0D01*
G01*
X20868000Y-13454000D02*
G75*
G03X20868000Y-13454000I-40000J0D01*
G01*
X6906000Y-9804400D02*
G75*
G03X6906000Y-9804400I-40000J0D01*
G01*
X7406000Y-9804400D02*
G75*
G03X7406000Y-9804400I-40000J0D01*
G01*
X8422000Y-11252200D02*
G75*
G03X8422000Y-11252200I-40000J0D01*
G01*
X8676000Y-11252200D02*
G75*
G03X8676000Y-11252200I-40000J0D01*
G01*
X8930000Y-11252200D02*
G75*
G03X8930000Y-11252200I-40000J0D01*
G01*
X9184000Y-11252200D02*
G75*
G03X9184000Y-11252200I-40000J0D01*
G01*
X9438000Y-11252200D02*
G75*
G03X9438000Y-11252200I-40000J0D01*
G01*
X20106000Y-12192000D02*
G75*
G03X20106000Y-12192000I-40000J0D01*
G01*
X20356000Y-12192000D02*
G75*
G03X20356000Y-12192000I-40000J0D01*
G01*
X10581000Y-5461000D02*
G75*
G03X10581000Y-5461000I-40000J0D01*
G01*
X10581000Y-5961000D02*
G75*
G03X10581000Y-5961000I-40000J0D01*
G01*
X16042000Y-12954000D02*
G75*
G03X16042000Y-12954000I-40000J0D01*
G01*
X16042000Y-13454000D02*
G75*
G03X16042000Y-13454000I-40000J0D01*
G01*
X10327000Y-11176000D02*
G75*
G03X10327000Y-11176000I-40000J0D01*
G01*
X10581000Y-11176000D02*
G75*
G03X10581000Y-11176000I-40000J0D01*
G01*
X10835000Y-11176000D02*
G75*
G03X10835000Y-11176000I-40000J0D01*
G01*
X11089000Y-11176000D02*
G75*
G03X11089000Y-11176000I-40000J0D01*
G01*
X11343000Y-11176000D02*
G75*
G03X11343000Y-11176000I-40000J0D01*
G01*
X6898000Y-8509000D02*
G75*
G03X6898000Y-8509000I-40000J0D01*
G01*
X7152000Y-8509000D02*
G75*
G03X7152000Y-8509000I-40000J0D01*
G01*
X7406000Y-8509000D02*
G75*
G03X7406000Y-8509000I-40000J0D01*
G01*
X7660000Y-8509000D02*
G75*
G03X7660000Y-8509000I-40000J0D01*
G01*
X7914000Y-8509000D02*
G75*
G03X7914000Y-8509000I-40000J0D01*
G01*
X8168000Y-8509000D02*
G75*
G03X8168000Y-8509000I-40000J0D01*
G01*
X8422000Y-8509000D02*
G75*
G03X8422000Y-8509000I-40000J0D01*
G01*
X8676000Y-8509000D02*
G75*
G03X8676000Y-8509000I-40000J0D01*
G01*
X8930000Y-8509000D02*
G75*
G03X8930000Y-8509000I-40000J0D01*
G01*
X16550000Y-5969000D02*
G75*
G03X16550000Y-5969000I-40000J0D01*
G01*
X16804000Y-5969000D02*
G75*
G03X16804000Y-5969000I-40000J0D01*
G01*
X17058000Y-5969000D02*
G75*
G03X17058000Y-5969000I-40000J0D01*
G01*
X17312000Y-5969000D02*
G75*
G03X17312000Y-5969000I-40000J0D01*
G01*
X17566000Y-5969000D02*
G75*
G03X17566000Y-5969000I-40000J0D01*
G01*
X17820000Y-5969000D02*
G75*
G03X17820000Y-5969000I-40000J0D01*
G01*
X18074000Y-5969000D02*
G75*
G03X18074000Y-5969000I-40000J0D01*
G01*
X18328000Y-5969000D02*
G75*
G03X18328000Y-5969000I-40000J0D01*
G01*
X18582000Y-5969000D02*
G75*
G03X18582000Y-5969000I-40000J0D01*
G01*
X24170000Y-5969000D02*
G75*
G03X24170000Y-5969000I-40000J0D01*
G01*
X25186000Y-5969000D02*
G75*
G03X25186000Y-5969000I-40000J0D01*
G01*
X6136000Y-7366000D02*
G75*
G03X6136000Y-7366000I-40000J0D01*
G01*
X6136000Y-7866000D02*
G75*
G03X6136000Y-7866000I-40000J0D01*
G01*
X11216000Y-7366000D02*
G75*
G03X11216000Y-7366000I-40000J0D01*
G01*
X11216000Y-7866000D02*
G75*
G03X11216000Y-7866000I-40000J0D01*
G01*
X7025000Y-12573000D02*
G75*
G03X7025000Y-12573000I-40000J0D01*
G01*
X7279000Y-12573000D02*
G75*
G03X7279000Y-12573000I-40000J0D01*
G01*
X7533000Y-12573000D02*
G75*
G03X7533000Y-12573000I-40000J0D01*
G01*
X7787000Y-12573000D02*
G75*
G03X7787000Y-12573000I-40000J0D01*
G01*
X8041000Y-12573000D02*
G75*
G03X8041000Y-12573000I-40000J0D01*
G01*
X8295000Y-12573000D02*
G75*
G03X8295000Y-12573000I-40000J0D01*
G01*
X8549000Y-12573000D02*
G75*
G03X8549000Y-12573000I-40000J0D01*
G01*
X8803000Y-12573000D02*
G75*
G03X8803000Y-12573000I-40000J0D01*
G01*
X9057000Y-12573000D02*
G75*
G03X9057000Y-12573000I-40000J0D01*
G01*
X21630000Y-5969000D02*
G75*
G03X21630000Y-5969000I-40000J0D01*
G01*
X21884000Y-5969000D02*
G75*
G03X21884000Y-5969000I-40000J0D01*
G01*
X22138000Y-5969000D02*
G75*
G03X22138000Y-5969000I-40000J0D01*
G01*
X22392000Y-5969000D02*
G75*
G03X22392000Y-5969000I-40000J0D01*
G01*
X22646000Y-5969000D02*
G75*
G03X22646000Y-5969000I-40000J0D01*
G01*
X22900000Y-5969000D02*
G75*
G03X22900000Y-5969000I-40000J0D01*
G01*
X23154000Y-5969000D02*
G75*
G03X23154000Y-5969000I-40000J0D01*
G01*
X23408000Y-5969000D02*
G75*
G03X23408000Y-5969000I-40000J0D01*
G01*
X23662000Y-5969000D02*
G75*
G03X23662000Y-5969000I-40000J0D01*
G01*
X16804000Y-12954000D02*
G75*
G03X16804000Y-12954000I-40000J0D01*
G01*
X16804000Y-13716000D02*
G75*
G03X16804000Y-13716000I-40000J0D01*
G01*
X17058000Y-12954000D02*
G75*
G03X17058000Y-12954000I-40000J0D01*
G01*
X17058000Y-13716000D02*
G75*
G03X17058000Y-13716000I-40000J0D01*
G01*
X17312000Y-12954000D02*
G75*
G03X17312000Y-12954000I-40000J0D01*
G01*
X17312000Y-13716000D02*
G75*
G03X17312000Y-13716000I-40000J0D01*
G01*
X17566000Y-12954000D02*
G75*
G03X17566000Y-12954000I-40000J0D01*
G01*
X17566000Y-13716000D02*
G75*
G03X17566000Y-13716000I-40000J0D01*
G01*
X17820000Y-12954000D02*
G75*
G03X17820000Y-12954000I-40000J0D01*
G01*
X17820000Y-13716000D02*
G75*
G03X17820000Y-13716000I-40000J0D01*
G01*
X18074000Y-12954000D02*
G75*
G03X18074000Y-12954000I-40000J0D01*
G01*
X18074000Y-13716000D02*
G75*
G03X18074000Y-13716000I-40000J0D01*
G01*
X18328000Y-12954000D02*
G75*
G03X18328000Y-12954000I-40000J0D01*
G01*
X18328000Y-13716000D02*
G75*
G03X18328000Y-13716000I-40000J0D01*
G01*
X18582000Y-12954000D02*
G75*
G03X18582000Y-12954000I-40000J0D01*
G01*
X18582000Y-13716000D02*
G75*
G03X18582000Y-13716000I-40000J0D01*
G01*
X18836000Y-12954000D02*
G75*
G03X18836000Y-12954000I-40000J0D01*
G01*
X18836000Y-13716000D02*
G75*
G03X18836000Y-13716000I-40000J0D01*
G01*
X19090000Y-12954000D02*
G75*
G03X19090000Y-12954000I-40000J0D01*
G01*
X19090000Y-13716000D02*
G75*
G03X19090000Y-13716000I-40000J0D01*
G01*
X6136000Y-12954000D02*
G75*
G03X6136000Y-12954000I-40000J0D01*
G01*
X6136000Y-13454000D02*
G75*
G03X6136000Y-13454000I-40000J0D01*
G01*
X12105000Y-12573000D02*
G75*
G03X12105000Y-12573000I-40000J0D01*
G01*
X12359000Y-12573000D02*
G75*
G03X12359000Y-12573000I-40000J0D01*
G01*
X12613000Y-12573000D02*
G75*
G03X12613000Y-12573000I-40000J0D01*
G01*
X12867000Y-12573000D02*
G75*
G03X12867000Y-12573000I-40000J0D01*
G01*
X13121000Y-12573000D02*
G75*
G03X13121000Y-12573000I-40000J0D01*
G01*
X13375000Y-12573000D02*
G75*
G03X13375000Y-12573000I-40000J0D01*
G01*
X13629000Y-12573000D02*
G75*
G03X13629000Y-12573000I-40000J0D01*
G01*
X13883000Y-12573000D02*
G75*
G03X13883000Y-12573000I-40000J0D01*
G01*
X14137000Y-12573000D02*
G75*
G03X14137000Y-12573000I-40000J0D01*
G01*
X21630000Y-8636000D02*
G75*
G03X21630000Y-8636000I-40000J0D01*
G01*
X21884000Y-8636000D02*
G75*
G03X21884000Y-8636000I-40000J0D01*
G01*
X22138000Y-8636000D02*
G75*
G03X22138000Y-8636000I-40000J0D01*
G01*
X22392000Y-8636000D02*
G75*
G03X22392000Y-8636000I-40000J0D01*
G01*
X22646000Y-8636000D02*
G75*
G03X22646000Y-8636000I-40000J0D01*
G01*
X22900000Y-8636000D02*
G75*
G03X22900000Y-8636000I-40000J0D01*
G01*
X23154000Y-8636000D02*
G75*
G03X23154000Y-8636000I-40000J0D01*
G01*
X23408000Y-8636000D02*
G75*
G03X23408000Y-8636000I-40000J0D01*
G01*
X23662000Y-8636000D02*
G75*
G03X23662000Y-8636000I-40000J0D01*
G01*
X10200000Y-13462000D02*
G75*
G03X10200000Y-13462000I-40000J0D01*
G01*
X10450000Y-13462000D02*
G75*
G03X10450000Y-13462000I-40000J0D01*
G01*
X15915000Y-5588000D02*
G75*
G03X15915000Y-5588000I-40000J0D01*
G01*
X15915000Y-5842000D02*
G75*
G03X15915000Y-5842000I-40000J0D01*
G01*
X10073000Y-8255000D02*
G75*
G03X10073000Y-8255000I-40000J0D01*
G01*
X10327000Y-8255000D02*
G75*
G03X10327000Y-8255000I-40000J0D01*
G01*
X10581000Y-8255000D02*
G75*
G03X10581000Y-8255000I-40000J0D01*
G01*
X10835000Y-8255000D02*
G75*
G03X10835000Y-8255000I-40000J0D01*
G01*
X11089000Y-8255000D02*
G75*
G03X11089000Y-8255000I-40000J0D01*
G01*
X11216000Y-12954000D02*
G75*
G03X11216000Y-12954000I-40000J0D01*
G01*
X11216000Y-13454000D02*
G75*
G03X11216000Y-13454000I-40000J0D01*
G01*
X11978000Y-7366000D02*
G75*
G03X11978000Y-7366000I-40000J0D01*
G01*
X11978000Y-8128000D02*
G75*
G03X11978000Y-8128000I-40000J0D01*
G01*
X12232000Y-7366000D02*
G75*
G03X12232000Y-7366000I-40000J0D01*
G01*
X12232000Y-8128000D02*
G75*
G03X12232000Y-8128000I-40000J0D01*
G01*
X12486000Y-7366000D02*
G75*
G03X12486000Y-7366000I-40000J0D01*
G01*
X12486000Y-8128000D02*
G75*
G03X12486000Y-8128000I-40000J0D01*
G01*
X12740000Y-7366000D02*
G75*
G03X12740000Y-7366000I-40000J0D01*
G01*
X12740000Y-8128000D02*
G75*
G03X12740000Y-8128000I-40000J0D01*
G01*
X12994000Y-7366000D02*
G75*
G03X12994000Y-7366000I-40000J0D01*
G01*
X12994000Y-8128000D02*
G75*
G03X12994000Y-8128000I-40000J0D01*
G01*
X13248000Y-7366000D02*
G75*
G03X13248000Y-7366000I-40000J0D01*
G01*
X13248000Y-8128000D02*
G75*
G03X13248000Y-8128000I-40000J0D01*
G01*
X13502000Y-7366000D02*
G75*
G03X13502000Y-7366000I-40000J0D01*
G01*
X13502000Y-8128000D02*
G75*
G03X13502000Y-8128000I-40000J0D01*
G01*
X13756000Y-7366000D02*
G75*
G03X13756000Y-7366000I-40000J0D01*
G01*
X13756000Y-8128000D02*
G75*
G03X13756000Y-8128000I-40000J0D01*
G01*
X14010000Y-7366000D02*
G75*
G03X14010000Y-7366000I-40000J0D01*
G01*
X14010000Y-8128000D02*
G75*
G03X14010000Y-8128000I-40000J0D01*
G01*
X14264000Y-7366000D02*
G75*
G03X14264000Y-7366000I-40000J0D01*
G01*
X14264000Y-8128000D02*
G75*
G03X14264000Y-8128000I-40000J0D01*
G01*
X21630000Y-11430000D02*
G75*
G03X21630000Y-11430000I-40000J0D01*
G01*
X21630000Y-12192000D02*
G75*
G03X21630000Y-12192000I-40000J0D01*
G01*
X21884000Y-11430000D02*
G75*
G03X21884000Y-11430000I-40000J0D01*
G01*
X21884000Y-12192000D02*
G75*
G03X21884000Y-12192000I-40000J0D01*
G01*
X22138000Y-11430000D02*
G75*
G03X22138000Y-11430000I-40000J0D01*
G01*
X22138000Y-12192000D02*
G75*
G03X22138000Y-12192000I-40000J0D01*
G01*
X22392000Y-11430000D02*
G75*
G03X22392000Y-11430000I-40000J0D01*
G01*
X22392000Y-12192000D02*
G75*
G03X22392000Y-12192000I-40000J0D01*
G01*
X22646000Y-11430000D02*
G75*
G03X22646000Y-11430000I-40000J0D01*
G01*
X22646000Y-12192000D02*
G75*
G03X22646000Y-12192000I-40000J0D01*
G01*
X22900000Y-11430000D02*
G75*
G03X22900000Y-11430000I-40000J0D01*
G01*
X22900000Y-12192000D02*
G75*
G03X22900000Y-12192000I-40000J0D01*
G01*
X23154000Y-11430000D02*
G75*
G03X23154000Y-11430000I-40000J0D01*
G01*
X23154000Y-12192000D02*
G75*
G03X23154000Y-12192000I-40000J0D01*
G01*
X23408000Y-11430000D02*
G75*
G03X23408000Y-11430000I-40000J0D01*
G01*
X23408000Y-12192000D02*
G75*
G03X23408000Y-12192000I-40000J0D01*
G01*
X23662000Y-11430000D02*
G75*
G03X23662000Y-11430000I-40000J0D01*
G01*
X23662000Y-12192000D02*
G75*
G03X23662000Y-12192000I-40000J0D01*
G01*
X23916000Y-11430000D02*
G75*
G03X23916000Y-11430000I-40000J0D01*
G01*
X23916000Y-12192000D02*
G75*
G03X23916000Y-12192000I-40000J0D01*
G01*
X13375000Y-11150600D02*
G75*
G03X13375000Y-11150600I-40000J0D01*
G01*
X14391000Y-11150600D02*
G75*
G03X14391000Y-11150600I-40000J0D01*
G01*
X11851000Y-11176000D02*
G75*
G03X11851000Y-11176000I-40000J0D01*
G01*
X12105000Y-11176000D02*
G75*
G03X12105000Y-11176000I-40000J0D01*
G01*
X12359000Y-11176000D02*
G75*
G03X12359000Y-11176000I-40000J0D01*
G01*
X12613000Y-11176000D02*
G75*
G03X12613000Y-11176000I-40000J0D01*
G01*
X12867000Y-11176000D02*
G75*
G03X12867000Y-11176000I-40000J0D01*
G01*
X5628000Y-6735000D02*
G75*
G03X5628000Y-6735000I-40000J0D01*
G01*
X5628000Y-6985000D02*
G75*
G03X5628000Y-6985000I-40000J0D01*
G01*
X16550000Y-8636000D02*
G75*
G03X16550000Y-8636000I-40000J0D01*
G01*
X16804000Y-8636000D02*
G75*
G03X16804000Y-8636000I-40000J0D01*
G01*
X17058000Y-8636000D02*
G75*
G03X17058000Y-8636000I-40000J0D01*
G01*
X17312000Y-8636000D02*
G75*
G03X17312000Y-8636000I-40000J0D01*
G01*
X17566000Y-8636000D02*
G75*
G03X17566000Y-8636000I-40000J0D01*
G01*
X17820000Y-8636000D02*
G75*
G03X17820000Y-8636000I-40000J0D01*
G01*
X18074000Y-8636000D02*
G75*
G03X18074000Y-8636000I-40000J0D01*
G01*
X18328000Y-8636000D02*
G75*
G03X18328000Y-8636000I-40000J0D01*
G01*
X18582000Y-8636000D02*
G75*
G03X18582000Y-8636000I-40000J0D01*
G01*
X11978000Y-8509000D02*
G75*
G03X11978000Y-8509000I-40000J0D01*
G01*
X12232000Y-8509000D02*
G75*
G03X12232000Y-8509000I-40000J0D01*
G01*
X12486000Y-8509000D02*
G75*
G03X12486000Y-8509000I-40000J0D01*
G01*
X12740000Y-8509000D02*
G75*
G03X12740000Y-8509000I-40000J0D01*
G01*
X12994000Y-8509000D02*
G75*
G03X12994000Y-8509000I-40000J0D01*
G01*
X13248000Y-8509000D02*
G75*
G03X13248000Y-8509000I-40000J0D01*
G01*
X13502000Y-8509000D02*
G75*
G03X13502000Y-8509000I-40000J0D01*
G01*
X13756000Y-8509000D02*
G75*
G03X13756000Y-8509000I-40000J0D01*
G01*
X14010000Y-8509000D02*
G75*
G03X14010000Y-8509000I-40000J0D01*
G01*
X11978000Y-12954000D02*
G75*
G03X11978000Y-12954000I-40000J0D01*
G01*
X11978000Y-13716000D02*
G75*
G03X11978000Y-13716000I-40000J0D01*
G01*
X12232000Y-12954000D02*
G75*
G03X12232000Y-12954000I-40000J0D01*
G01*
X12232000Y-13716000D02*
G75*
G03X12232000Y-13716000I-40000J0D01*
G01*
X12486000Y-12954000D02*
G75*
G03X12486000Y-12954000I-40000J0D01*
G01*
X12486000Y-13716000D02*
G75*
G03X12486000Y-13716000I-40000J0D01*
G01*
X12740000Y-12954000D02*
G75*
G03X12740000Y-12954000I-40000J0D01*
G01*
X12740000Y-13716000D02*
G75*
G03X12740000Y-13716000I-40000J0D01*
G01*
X12994000Y-12954000D02*
G75*
G03X12994000Y-12954000I-40000J0D01*
G01*
X12994000Y-13716000D02*
G75*
G03X12994000Y-13716000I-40000J0D01*
G01*
X13248000Y-12954000D02*
G75*
G03X13248000Y-12954000I-40000J0D01*
G01*
X13248000Y-13716000D02*
G75*
G03X13248000Y-13716000I-40000J0D01*
G01*
X13502000Y-12954000D02*
G75*
G03X13502000Y-12954000I-40000J0D01*
G01*
X13502000Y-13716000D02*
G75*
G03X13502000Y-13716000I-40000J0D01*
G01*
X13756000Y-12954000D02*
G75*
G03X13756000Y-12954000I-40000J0D01*
G01*
X13756000Y-13716000D02*
G75*
G03X13756000Y-13716000I-40000J0D01*
G01*
X14010000Y-12954000D02*
G75*
G03X14010000Y-12954000I-40000J0D01*
G01*
X14010000Y-13716000D02*
G75*
G03X14010000Y-13716000I-40000J0D01*
G01*
X14264000Y-12954000D02*
G75*
G03X14264000Y-12954000I-40000J0D01*
G01*
X14264000Y-13716000D02*
G75*
G03X14264000Y-13716000I-40000J0D01*
G01*
X15026000Y-6350000D02*
G75*
G03X15026000Y-6350000I-40000J0D01*
G01*
X15280000Y-6350000D02*
G75*
G03X15280000Y-6350000I-40000J0D01*
G01*
X15356200Y-5588000D02*
G75*
G03X15356200Y-5588000I-40000J0D01*
G01*
X15356200Y-5842000D02*
G75*
G03X15356200Y-5842000I-40000J0D01*
G01*
X15356200Y-6096000D02*
G75*
G03X15356200Y-6096000I-40000J0D01*
G01*
X16042000Y-11430000D02*
G75*
G03X16042000Y-11430000I-40000J0D01*
G01*
X16042000Y-11930000D02*
G75*
G03X16042000Y-11930000I-40000J0D01*
G01*
X16804000Y-11430000D02*
G75*
G03X16804000Y-11430000I-40000J0D01*
G01*
X16804000Y-12192000D02*
G75*
G03X16804000Y-12192000I-40000J0D01*
G01*
X17058000Y-11430000D02*
G75*
G03X17058000Y-11430000I-40000J0D01*
G01*
X17058000Y-12192000D02*
G75*
G03X17058000Y-12192000I-40000J0D01*
G01*
X17312000Y-11430000D02*
G75*
G03X17312000Y-11430000I-40000J0D01*
G01*
X17312000Y-12192000D02*
G75*
G03X17312000Y-12192000I-40000J0D01*
G01*
X17566000Y-11430000D02*
G75*
G03X17566000Y-11430000I-40000J0D01*
G01*
X17566000Y-12192000D02*
G75*
G03X17566000Y-12192000I-40000J0D01*
G01*
X17820000Y-11430000D02*
G75*
G03X17820000Y-11430000I-40000J0D01*
G01*
X17820000Y-12192000D02*
G75*
G03X17820000Y-12192000I-40000J0D01*
G01*
X18074000Y-11430000D02*
G75*
G03X18074000Y-11430000I-40000J0D01*
G01*
X18074000Y-12192000D02*
G75*
G03X18074000Y-12192000I-40000J0D01*
G01*
X18328000Y-11430000D02*
G75*
G03X18328000Y-11430000I-40000J0D01*
G01*
X18328000Y-12192000D02*
G75*
G03X18328000Y-12192000I-40000J0D01*
G01*
X18582000Y-11430000D02*
G75*
G03X18582000Y-11430000I-40000J0D01*
G01*
X18582000Y-12192000D02*
G75*
G03X18582000Y-12192000I-40000J0D01*
G01*
X18836000Y-11430000D02*
G75*
G03X18836000Y-11430000I-40000J0D01*
G01*
X18836000Y-12192000D02*
G75*
G03X18836000Y-12192000I-40000J0D01*
G01*
X19090000Y-11430000D02*
G75*
G03X19090000Y-11430000I-40000J0D01*
G01*
X19090000Y-12192000D02*
G75*
G03X19090000Y-12192000I-40000J0D01*
G01*
X6898000Y-7366000D02*
G75*
G03X6898000Y-7366000I-40000J0D01*
G01*
X6898000Y-8128000D02*
G75*
G03X6898000Y-8128000I-40000J0D01*
G01*
X7152000Y-7366000D02*
G75*
G03X7152000Y-7366000I-40000J0D01*
G01*
X7152000Y-8128000D02*
G75*
G03X7152000Y-8128000I-40000J0D01*
G01*
X7406000Y-7366000D02*
G75*
G03X7406000Y-7366000I-40000J0D01*
G01*
X7406000Y-8128000D02*
G75*
G03X7406000Y-8128000I-40000J0D01*
G01*
X7660000Y-7366000D02*
G75*
G03X7660000Y-7366000I-40000J0D01*
G01*
X7660000Y-8128000D02*
G75*
G03X7660000Y-8128000I-40000J0D01*
G01*
X7914000Y-7366000D02*
G75*
G03X7914000Y-7366000I-40000J0D01*
G01*
X7914000Y-8128000D02*
G75*
G03X7914000Y-8128000I-40000J0D01*
G01*
X8168000Y-7366000D02*
G75*
G03X8168000Y-7366000I-40000J0D01*
G01*
X8168000Y-8128000D02*
G75*
G03X8168000Y-8128000I-40000J0D01*
G01*
X8422000Y-7366000D02*
G75*
G03X8422000Y-7366000I-40000J0D01*
G01*
X8422000Y-8128000D02*
G75*
G03X8422000Y-8128000I-40000J0D01*
G01*
X8676000Y-7366000D02*
G75*
G03X8676000Y-7366000I-40000J0D01*
G01*
X8676000Y-8128000D02*
G75*
G03X8676000Y-8128000I-40000J0D01*
G01*
X8930000Y-7366000D02*
G75*
G03X8930000Y-7366000I-40000J0D01*
G01*
X8930000Y-8128000D02*
G75*
G03X8930000Y-8128000I-40000J0D01*
G01*
X9184000Y-7366000D02*
G75*
G03X9184000Y-7366000I-40000J0D01*
G01*
X9184000Y-8128000D02*
G75*
G03X9184000Y-8128000I-40000J0D01*
G01*
X17272000Y-10115000D02*
X17272000Y-10205000D01*
X17227000Y-10160000D02*
X17317000Y-10160000D01*
X17526000Y-10115000D02*
X17526000Y-10205000D01*
X17481000Y-10160000D02*
X17571000Y-10160000D01*
X15367000Y-10115000D02*
X15367000Y-10205000D01*
X15322000Y-10160000D02*
X15412000Y-10160000D01*
X15621000Y-10115000D02*
X15621000Y-10205000D01*
X15576000Y-10160000D02*
X15666000Y-10160000D01*
X10541000Y-10496000D02*
X10541000Y-10586000D01*
X10496000Y-10541000D02*
X10586000Y-10541000D01*
X10795000Y-10496000D02*
X10795000Y-10586000D01*
X10750000Y-10541000D02*
X10840000Y-10541000D01*
X10541000Y-9099000D02*
X10541000Y-9189000D01*
X10496000Y-9144000D02*
X10586000Y-9144000D01*
X10795000Y-9099000D02*
X10795000Y-9189000D01*
X10750000Y-9144000D02*
X10840000Y-9144000D01*
X12446000Y-9099000D02*
X12446000Y-9189000D01*
X12401000Y-9144000D02*
X12491000Y-9144000D01*
X12700000Y-9099000D02*
X12700000Y-9189000D01*
X12655000Y-9144000D02*
X12745000Y-9144000D01*
X5461000Y-11893000D02*
X5461000Y-11983000D01*
X5416000Y-11938000D02*
X5506000Y-11938000D01*
X5715000Y-11893000D02*
X5715000Y-11983000D01*
X5670000Y-11938000D02*
X5760000Y-11938000D01*
X8636000Y-11893000D02*
X8636000Y-11983000D01*
X8591000Y-11938000D02*
X8681000Y-11938000D01*
X8890000Y-11893000D02*
X8890000Y-11983000D01*
X8845000Y-11938000D02*
X8935000Y-11938000D01*
X14986000Y-11893000D02*
X14986000Y-11983000D01*
X14941000Y-11938000D02*
X15031000Y-11938000D01*
X15240000Y-11893000D02*
X15240000Y-11983000D01*
X15195000Y-11938000D02*
X15285000Y-11938000D01*
X21082000Y-7067000D02*
X21082000Y-7157000D01*
X21037000Y-7112000D02*
X21127000Y-7112000D01*
X21336000Y-7067000D02*
X21336000Y-7157000D01*
X21291000Y-7112000D02*
X21381000Y-7112000D01*
X20447000Y-10115000D02*
X20447000Y-10205000D01*
X20402000Y-10160000D02*
X20492000Y-10160000D01*
X20701000Y-10115000D02*
X20701000Y-10205000D01*
X20656000Y-10160000D02*
X20746000Y-10160000D01*
X19177000Y-10115000D02*
X19177000Y-10205000D01*
X19132000Y-10160000D02*
X19222000Y-10160000D01*
X19431000Y-10115000D02*
X19431000Y-10205000D01*
X19386000Y-10160000D02*
X19476000Y-10160000D01*
X14351000Y-11893000D02*
X14351000Y-11983000D01*
X14306000Y-11938000D02*
X14396000Y-11938000D01*
X14605000Y-11893000D02*
X14605000Y-11983000D01*
X14560000Y-11938000D02*
X14650000Y-11938000D01*
X24257000Y-10115000D02*
X24257000Y-10205000D01*
X24212000Y-10160000D02*
X24302000Y-10160000D01*
X24511000Y-10115000D02*
X24511000Y-10205000D01*
X24466000Y-10160000D02*
X24556000Y-10160000D01*
X8636000Y-9099000D02*
X8636000Y-9189000D01*
X8591000Y-9144000D02*
X8681000Y-9144000D01*
X8890000Y-9099000D02*
X8890000Y-9189000D01*
X8845000Y-9144000D02*
X8935000Y-9144000D01*
X7366000Y-9099000D02*
X7366000Y-9189000D01*
X7321000Y-9144000D02*
X7411000Y-9144000D01*
X7620000Y-9099000D02*
X7620000Y-9189000D01*
X7575000Y-9144000D02*
X7665000Y-9144000D01*
X9271000Y-9099000D02*
X9271000Y-9189000D01*
X9226000Y-9144000D02*
X9316000Y-9144000D01*
X9525000Y-9099000D02*
X9525000Y-9189000D01*
X9480000Y-9144000D02*
X9570000Y-9144000D01*
X6096000Y-9099000D02*
X6096000Y-9189000D01*
X6051000Y-9144000D02*
X6141000Y-9144000D01*
X6350000Y-9099000D02*
X6350000Y-9189000D01*
X6305000Y-9144000D02*
X6395000Y-9144000D01*
X6096000Y-11893000D02*
X6096000Y-11983000D01*
X6051000Y-11938000D02*
X6141000Y-11938000D01*
X6350000Y-11893000D02*
X6350000Y-11983000D01*
X6305000Y-11938000D02*
X6395000Y-11938000D01*
X11176000Y-11893000D02*
X11176000Y-11983000D01*
X11131000Y-11938000D02*
X11221000Y-11938000D01*
X11430000Y-11893000D02*
X11430000Y-11983000D01*
X11385000Y-11938000D02*
X11475000Y-11938000D01*
X16002000Y-7067000D02*
X16002000Y-7157000D01*
X15957000Y-7112000D02*
X16047000Y-7112000D01*
X16256000Y-7067000D02*
X16256000Y-7157000D01*
X16211000Y-7112000D02*
X16301000Y-7112000D01*
X22352000Y-7067000D02*
X22352000Y-7157000D01*
X22307000Y-7112000D02*
X22397000Y-7112000D01*
X22606000Y-7067000D02*
X22606000Y-7157000D01*
X22561000Y-7112000D02*
X22651000Y-7112000D01*
X12446000Y-10496000D02*
X12446000Y-10586000D01*
X12401000Y-10541000D02*
X12491000Y-10541000D01*
X12700000Y-10496000D02*
X12700000Y-10586000D01*
X12655000Y-10541000D02*
X12745000Y-10541000D01*
X23622000Y-7067000D02*
X23622000Y-7157000D01*
X23577000Y-7112000D02*
X23667000Y-7112000D01*
X23876000Y-7067000D02*
X23876000Y-7157000D01*
X23831000Y-7112000D02*
X23921000Y-7112000D01*
X21717000Y-10115000D02*
X21717000Y-10205000D01*
X21672000Y-10160000D02*
X21762000Y-10160000D01*
X21971000Y-10115000D02*
X21971000Y-10205000D01*
X21926000Y-10160000D02*
X22016000Y-10160000D01*
X15367000Y-7067000D02*
X15367000Y-7157000D01*
X15322000Y-7112000D02*
X15412000Y-7112000D01*
X15621000Y-7067000D02*
X15621000Y-7157000D01*
X15576000Y-7112000D02*
X15666000Y-7112000D01*
X21717000Y-7067000D02*
X21717000Y-7157000D01*
X21672000Y-7112000D02*
X21762000Y-7112000D01*
X21971000Y-7067000D02*
X21971000Y-7157000D01*
X21926000Y-7112000D02*
X22016000Y-7112000D01*
X5461000Y-9099000D02*
X5461000Y-9189000D01*
X5416000Y-9144000D02*
X5506000Y-9144000D01*
X5715000Y-9099000D02*
X5715000Y-9189000D01*
X5670000Y-9144000D02*
X5760000Y-9144000D01*
X14351000Y-9099000D02*
X14351000Y-9189000D01*
X14306000Y-9144000D02*
X14396000Y-9144000D01*
X14605000Y-9099000D02*
X14605000Y-9189000D01*
X14560000Y-9144000D02*
X14650000Y-9144000D01*
X6731000Y-9099000D02*
X6731000Y-9189000D01*
X6686000Y-9144000D02*
X6776000Y-9144000D01*
X6985000Y-9099000D02*
X6985000Y-9189000D01*
X6940000Y-9144000D02*
X7030000Y-9144000D01*
X6731000Y-11893000D02*
X6731000Y-11983000D01*
X6686000Y-11938000D02*
X6776000Y-11938000D01*
X6985000Y-11893000D02*
X6985000Y-11983000D01*
X6940000Y-11938000D02*
X7030000Y-11938000D01*
X9271000Y-11893000D02*
X9271000Y-11983000D01*
X9226000Y-11938000D02*
X9316000Y-11938000D01*
X9525000Y-11893000D02*
X9525000Y-11983000D01*
X9480000Y-11938000D02*
X9570000Y-11938000D01*
X17272000Y-7067000D02*
X17272000Y-7157000D01*
X17227000Y-7112000D02*
X17317000Y-7112000D01*
X17526000Y-7067000D02*
X17526000Y-7157000D01*
X17481000Y-7112000D02*
X17571000Y-7112000D01*
X16637000Y-10115000D02*
X16637000Y-10205000D01*
X16592000Y-10160000D02*
X16682000Y-10160000D01*
X16891000Y-10115000D02*
X16891000Y-10205000D01*
X16846000Y-10160000D02*
X16936000Y-10160000D01*
X24892000Y-7067000D02*
X24892000Y-7157000D01*
X24847000Y-7112000D02*
X24937000Y-7112000D01*
X25146000Y-7067000D02*
X25146000Y-7157000D01*
X25101000Y-7112000D02*
X25191000Y-7112000D01*
X11811000Y-10496000D02*
X11811000Y-10586000D01*
X11766000Y-10541000D02*
X11856000Y-10541000D01*
X12065000Y-10496000D02*
X12065000Y-10586000D01*
X12020000Y-10541000D02*
X12110000Y-10541000D01*
X24257000Y-7067000D02*
X24257000Y-7157000D01*
X24212000Y-7112000D02*
X24302000Y-7112000D01*
X24511000Y-7067000D02*
X24511000Y-7157000D01*
X24466000Y-7112000D02*
X24556000Y-7112000D01*
X22987000Y-7067000D02*
X22987000Y-7157000D01*
X22942000Y-7112000D02*
X23032000Y-7112000D01*
X23241000Y-7067000D02*
X23241000Y-7157000D01*
X23196000Y-7112000D02*
X23286000Y-7112000D01*
X11811000Y-9099000D02*
X11811000Y-9189000D01*
X11766000Y-9144000D02*
X11856000Y-9144000D01*
X12065000Y-9099000D02*
X12065000Y-9189000D01*
X12020000Y-9144000D02*
X12110000Y-9144000D01*
X8001000Y-9099000D02*
X8001000Y-9189000D01*
X7956000Y-9144000D02*
X8046000Y-9144000D01*
X8255000Y-9099000D02*
X8255000Y-9189000D01*
X8210000Y-9144000D02*
X8300000Y-9144000D01*
X7366000Y-11893000D02*
X7366000Y-11983000D01*
X7321000Y-11938000D02*
X7411000Y-11938000D01*
X7620000Y-11893000D02*
X7620000Y-11983000D01*
X7575000Y-11938000D02*
X7665000Y-11938000D01*
X10541000Y-11893000D02*
X10541000Y-11983000D01*
X10496000Y-11938000D02*
X10586000Y-11938000D01*
X10795000Y-11893000D02*
X10795000Y-11983000D01*
X10750000Y-11938000D02*
X10840000Y-11938000D01*
X16637000Y-7067000D02*
X16637000Y-7157000D01*
X16592000Y-7112000D02*
X16682000Y-7112000D01*
X16891000Y-7067000D02*
X16891000Y-7157000D01*
X16846000Y-7112000D02*
X16936000Y-7112000D01*
X18542000Y-10115000D02*
X18542000Y-10205000D01*
X18497000Y-10160000D02*
X18587000Y-10160000D01*
X18796000Y-10115000D02*
X18796000Y-10205000D01*
X18751000Y-10160000D02*
X18841000Y-10160000D01*
X13716000Y-10496000D02*
X13716000Y-10586000D01*
X13671000Y-10541000D02*
X13761000Y-10541000D01*
X13970000Y-10496000D02*
X13970000Y-10586000D01*
X13925000Y-10541000D02*
X14015000Y-10541000D01*
X16002000Y-10115000D02*
X16002000Y-10205000D01*
X15957000Y-10160000D02*
X16047000Y-10160000D01*
X16256000Y-10115000D02*
X16256000Y-10205000D01*
X16211000Y-10160000D02*
X16301000Y-10160000D01*
X21082000Y-10115000D02*
X21082000Y-10205000D01*
X21037000Y-10160000D02*
X21127000Y-10160000D01*
X21336000Y-10115000D02*
X21336000Y-10205000D01*
X21291000Y-10160000D02*
X21381000Y-10160000D01*
X11176000Y-10496000D02*
X11176000Y-10586000D01*
X11131000Y-10541000D02*
X11221000Y-10541000D01*
X11430000Y-10496000D02*
X11430000Y-10586000D01*
X11385000Y-10541000D02*
X11475000Y-10541000D01*
X17907000Y-10115000D02*
X17907000Y-10205000D01*
X17862000Y-10160000D02*
X17952000Y-10160000D01*
X18161000Y-10115000D02*
X18161000Y-10205000D01*
X18116000Y-10160000D02*
X18206000Y-10160000D01*
X9906000Y-9099000D02*
X9906000Y-9189000D01*
X9861000Y-9144000D02*
X9951000Y-9144000D01*
X10160000Y-9099000D02*
X10160000Y-9189000D01*
X10115000Y-9144000D02*
X10205000Y-9144000D01*
X9906000Y-11893000D02*
X9906000Y-11983000D01*
X9861000Y-11938000D02*
X9951000Y-11938000D01*
X10160000Y-11893000D02*
X10160000Y-11983000D01*
X10115000Y-11938000D02*
X10205000Y-11938000D01*
X11811000Y-11893000D02*
X11811000Y-11983000D01*
X11766000Y-11938000D02*
X11856000Y-11938000D01*
X12065000Y-11893000D02*
X12065000Y-11983000D01*
X12020000Y-11938000D02*
X12110000Y-11938000D01*
X18542000Y-7067000D02*
X18542000Y-7157000D01*
X18497000Y-7112000D02*
X18587000Y-7112000D01*
X18796000Y-7067000D02*
X18796000Y-7157000D01*
X18751000Y-7112000D02*
X18841000Y-7112000D01*
X19812000Y-10115000D02*
X19812000Y-10205000D01*
X19767000Y-10160000D02*
X19857000Y-10160000D01*
X20066000Y-10115000D02*
X20066000Y-10205000D01*
X20021000Y-10160000D02*
X20111000Y-10160000D01*
X14351000Y-10496000D02*
X14351000Y-10586000D01*
X14306000Y-10541000D02*
X14396000Y-10541000D01*
X14605000Y-10496000D02*
X14605000Y-10586000D01*
X14560000Y-10541000D02*
X14650000Y-10541000D01*
X13081000Y-10496000D02*
X13081000Y-10586000D01*
X13036000Y-10541000D02*
X13126000Y-10541000D01*
X13335000Y-10496000D02*
X13335000Y-10586000D01*
X13290000Y-10541000D02*
X13380000Y-10541000D01*
X22352000Y-10115000D02*
X22352000Y-10205000D01*
X22307000Y-10160000D02*
X22397000Y-10160000D01*
X22606000Y-10115000D02*
X22606000Y-10205000D01*
X22561000Y-10160000D02*
X22651000Y-10160000D01*
X17907000Y-7067000D02*
X17907000Y-7157000D01*
X17862000Y-7112000D02*
X17952000Y-7112000D01*
X18161000Y-7067000D02*
X18161000Y-7157000D01*
X18116000Y-7112000D02*
X18206000Y-7112000D01*
X22987000Y-10115000D02*
X22987000Y-10205000D01*
X22942000Y-10160000D02*
X23032000Y-10160000D01*
X23241000Y-10115000D02*
X23241000Y-10205000D01*
X23196000Y-10160000D02*
X23286000Y-10160000D01*
X11176000Y-9099000D02*
X11176000Y-9189000D01*
X11131000Y-9144000D02*
X11221000Y-9144000D01*
X11430000Y-9099000D02*
X11430000Y-9189000D01*
X11385000Y-9144000D02*
X11475000Y-9144000D01*
X13081000Y-11893000D02*
X13081000Y-11983000D01*
X13036000Y-11938000D02*
X13126000Y-11938000D01*
X13335000Y-11893000D02*
X13335000Y-11983000D01*
X13290000Y-11938000D02*
X13380000Y-11938000D01*
X12446000Y-11893000D02*
X12446000Y-11983000D01*
X12401000Y-11938000D02*
X12491000Y-11938000D01*
X12700000Y-11893000D02*
X12700000Y-11983000D01*
X12655000Y-11938000D02*
X12745000Y-11938000D01*
X19812000Y-7067000D02*
X19812000Y-7157000D01*
X19767000Y-7112000D02*
X19857000Y-7112000D01*
X20066000Y-7067000D02*
X20066000Y-7157000D01*
X20021000Y-7112000D02*
X20111000Y-7112000D01*
X13716000Y-5797000D02*
X13716000Y-5887000D01*
X13671000Y-5842000D02*
X13761000Y-5842000D01*
X13970000Y-5797000D02*
X13970000Y-5887000D01*
X13925000Y-5842000D02*
X14015000Y-5842000D01*
X13081000Y-5797000D02*
X13081000Y-5887000D01*
X13036000Y-5842000D02*
X13126000Y-5842000D01*
X13335000Y-5797000D02*
X13335000Y-5887000D01*
X13290000Y-5842000D02*
X13380000Y-5842000D01*
X19177000Y-7067000D02*
X19177000Y-7157000D01*
X19132000Y-7112000D02*
X19222000Y-7112000D01*
X19431000Y-7067000D02*
X19431000Y-7157000D01*
X19386000Y-7112000D02*
X19476000Y-7112000D01*
X23622000Y-10115000D02*
X23622000Y-10205000D01*
X23577000Y-10160000D02*
X23667000Y-10160000D01*
X23876000Y-10115000D02*
X23876000Y-10205000D01*
X23831000Y-10160000D02*
X23921000Y-10160000D01*
X13716000Y-9099000D02*
X13716000Y-9189000D01*
X13671000Y-9144000D02*
X13761000Y-9144000D01*
X13970000Y-9099000D02*
X13970000Y-9189000D01*
X13925000Y-9144000D02*
X14015000Y-9144000D01*
X13081000Y-9099000D02*
X13081000Y-9189000D01*
X13036000Y-9144000D02*
X13126000Y-9144000D01*
X13335000Y-9099000D02*
X13335000Y-9189000D01*
X13290000Y-9144000D02*
X13380000Y-9144000D01*
X14986000Y-9099000D02*
X14986000Y-9189000D01*
X14941000Y-9144000D02*
X15031000Y-9144000D01*
X15240000Y-9099000D02*
X15240000Y-9189000D01*
X15195000Y-9144000D02*
X15285000Y-9144000D01*
X8001000Y-11893000D02*
X8001000Y-11983000D01*
X7956000Y-11938000D02*
X8046000Y-11938000D01*
X8255000Y-11893000D02*
X8255000Y-11983000D01*
X8210000Y-11938000D02*
X8300000Y-11938000D01*
X13716000Y-11893000D02*
X13716000Y-11983000D01*
X13671000Y-11938000D02*
X13761000Y-11938000D01*
X13970000Y-11893000D02*
X13970000Y-11983000D01*
X13925000Y-11938000D02*
X14015000Y-11938000D01*
X20447000Y-7067000D02*
X20447000Y-7157000D01*
X20402000Y-7112000D02*
X20492000Y-7112000D01*
X20701000Y-7067000D02*
X20701000Y-7157000D01*
X20656000Y-7112000D02*
X20746000Y-7112000D01*
X24892000Y-10115000D02*
X24892000Y-10205000D01*
X24847000Y-10160000D02*
X24937000Y-10160000D01*
X25146000Y-10115000D02*
X25146000Y-10205000D01*
X25101000Y-10160000D02*
X25191000Y-10160000D01*
X14351000Y-5797000D02*
X14351000Y-5887000D01*
X14306000Y-5842000D02*
X14396000Y-5842000D01*
X14605000Y-5797000D02*
X14605000Y-5887000D01*
X14560000Y-5842000D02*
X14650000Y-5842000D01*
X9687356Y-6131356D02*
X9687356Y-6060644D01*
X9616644Y-6060644D01*
X9616644Y-6131356D01*
X9687356Y-6131356D01*
X9941356Y-6131356D02*
X9941356Y-6060644D01*
X9870644Y-6060644D01*
X9870644Y-6131356D01*
X9941356Y-6131356D01*
X9941356Y-14513356D02*
X9941356Y-14442644D01*
X9870644Y-14442644D01*
X9870644Y-14513356D01*
X9941356Y-14513356D01*
X10195356Y-14513356D02*
X10195356Y-14442644D01*
X10124644Y-14442644D01*
X10124644Y-14513356D01*
X10195356Y-14513356D01*
X10449356Y-14513356D02*
X10449356Y-14442644D01*
X10378644Y-14442644D01*
X10378644Y-14513356D01*
X10449356Y-14513356D01*
X10703356Y-14513356D02*
X10703356Y-14442644D01*
X10632644Y-14442644D01*
X10632644Y-14513356D01*
X10703356Y-14513356D01*
X10957356Y-14513356D02*
X10957356Y-14442644D01*
X10886644Y-14442644D01*
X10886644Y-14513356D01*
X10957356Y-14513356D01*
X11211356Y-14513356D02*
X11211356Y-14442644D01*
X11140644Y-14442644D01*
X11140644Y-14513356D01*
X11211356Y-14513356D01*
X11465356Y-14513356D02*
X11465356Y-14442644D01*
X11394644Y-14442644D01*
X11394644Y-14513356D01*
X11465356Y-14513356D01*
X11719356Y-14513356D02*
X11719356Y-14442644D01*
X11648644Y-14442644D01*
X11648644Y-14513356D01*
X11719356Y-14513356D01*
X11973356Y-14513356D02*
X11973356Y-14442644D01*
X11902644Y-14442644D01*
X11902644Y-14513356D01*
X11973356Y-14513356D01*
X12227356Y-14513356D02*
X12227356Y-14442644D01*
X12156644Y-14442644D01*
X12156644Y-14513356D01*
X12227356Y-14513356D01*
X12481356Y-14513356D02*
X12481356Y-14442644D01*
X12410644Y-14442644D01*
X12410644Y-14513356D01*
X12481356Y-14513356D01*
X12735356Y-14513356D02*
X12735356Y-14442644D01*
X12664644Y-14442644D01*
X12664644Y-14513356D01*
X12735356Y-14513356D01*
X12989356Y-14513356D02*
X12989356Y-14442644D01*
X12918644Y-14442644D01*
X12918644Y-14513356D01*
X12989356Y-14513356D01*
X13243356Y-14513356D02*
X13243356Y-14442644D01*
X13172644Y-14442644D01*
X13172644Y-14513356D01*
X13243356Y-14513356D01*
X13497356Y-14513356D02*
X13497356Y-14442644D01*
X13426644Y-14442644D01*
X13426644Y-14513356D01*
X13497356Y-14513356D01*
X13751356Y-14513356D02*
X13751356Y-14442644D01*
X13680644Y-14442644D01*
X13680644Y-14513356D01*
X13751356Y-14513356D01*
X6385356Y-14513356D02*
X6385356Y-14442644D01*
X6314644Y-14442644D01*
X6314644Y-14513356D01*
X6385356Y-14513356D01*
X6639356Y-14513356D02*
X6639356Y-14442644D01*
X6568644Y-14442644D01*
X6568644Y-14513356D01*
X6639356Y-14513356D01*
X6893356Y-14513356D02*
X6893356Y-14442644D01*
X6822644Y-14442644D01*
X6822644Y-14513356D01*
X6893356Y-14513356D01*
X7147356Y-14513356D02*
X7147356Y-14442644D01*
X7076644Y-14442644D01*
X7076644Y-14513356D01*
X7147356Y-14513356D01*
X7401356Y-14513356D02*
X7401356Y-14442644D01*
X7330644Y-14442644D01*
X7330644Y-14513356D01*
X7401356Y-14513356D01*
X7655356Y-14513356D02*
X7655356Y-14442644D01*
X7584644Y-14442644D01*
X7584644Y-14513356D01*
X7655356Y-14513356D01*
X7909356Y-14513356D02*
X7909356Y-14442644D01*
X7838644Y-14442644D01*
X7838644Y-14513356D01*
X7909356Y-14513356D01*
X8163356Y-14513356D02*
X8163356Y-14442644D01*
X8092644Y-14442644D01*
X8092644Y-14513356D01*
X8163356Y-14513356D01*
X8417356Y-14513356D02*
X8417356Y-14442644D01*
X8346644Y-14442644D01*
X8346644Y-14513356D01*
X8417356Y-14513356D01*
X8671356Y-14513356D02*
X8671356Y-14442644D01*
X8600644Y-14442644D01*
X8600644Y-14513356D01*
X8671356Y-14513356D01*
X24165356Y-7909356D02*
X24165356Y-7838644D01*
X24094644Y-7838644D01*
X24094644Y-7909356D01*
X24165356Y-7909356D01*
X24165356Y-8163356D02*
X24165356Y-8092644D01*
X24094644Y-8092644D01*
X24094644Y-8163356D01*
X24165356Y-8163356D01*
X24165356Y-8417356D02*
X24165356Y-8346644D01*
X24094644Y-8346644D01*
X24094644Y-8417356D01*
X24165356Y-8417356D01*
X16291356Y-14513356D02*
X16291356Y-14442644D01*
X16220644Y-14442644D01*
X16220644Y-14513356D01*
X16291356Y-14513356D01*
X16545356Y-14513356D02*
X16545356Y-14442644D01*
X16474644Y-14442644D01*
X16474644Y-14513356D01*
X16545356Y-14513356D01*
X16799356Y-14513356D02*
X16799356Y-14442644D01*
X16728644Y-14442644D01*
X16728644Y-14513356D01*
X16799356Y-14513356D01*
X17053356Y-14513356D02*
X17053356Y-14442644D01*
X16982644Y-14442644D01*
X16982644Y-14513356D01*
X17053356Y-14513356D01*
X17307356Y-14513356D02*
X17307356Y-14442644D01*
X17236644Y-14442644D01*
X17236644Y-14513356D01*
X17307356Y-14513356D01*
X17561356Y-14513356D02*
X17561356Y-14442644D01*
X17490644Y-14442644D01*
X17490644Y-14513356D01*
X17561356Y-14513356D01*
X17815356Y-14513356D02*
X17815356Y-14442644D01*
X17744644Y-14442644D01*
X17744644Y-14513356D01*
X17815356Y-14513356D01*
X18069356Y-14513356D02*
X18069356Y-14442644D01*
X17998644Y-14442644D01*
X17998644Y-14513356D01*
X18069356Y-14513356D01*
X18323356Y-14513356D02*
X18323356Y-14442644D01*
X18252644Y-14442644D01*
X18252644Y-14513356D01*
X18323356Y-14513356D01*
X18577356Y-14513356D02*
X18577356Y-14442644D01*
X18506644Y-14442644D01*
X18506644Y-14513356D01*
X18577356Y-14513356D01*
X18831356Y-14513356D02*
X18831356Y-14442644D01*
X18760644Y-14442644D01*
X18760644Y-14513356D01*
X18831356Y-14513356D01*
X19085356Y-14513356D02*
X19085356Y-14442644D01*
X19014644Y-14442644D01*
X19014644Y-14513356D01*
X19085356Y-14513356D01*
X19339356Y-14513356D02*
X19339356Y-14442644D01*
X19268644Y-14442644D01*
X19268644Y-14513356D01*
X19339356Y-14513356D01*
X19593356Y-14513356D02*
X19593356Y-14442644D01*
X19522644Y-14442644D01*
X19522644Y-14513356D01*
X19593356Y-14513356D01*
X19847356Y-14513356D02*
X19847356Y-14442644D01*
X19776644Y-14442644D01*
X19776644Y-14513356D01*
X19847356Y-14513356D01*
X20101356Y-14513356D02*
X20101356Y-14442644D01*
X20030644Y-14442644D01*
X20030644Y-14513356D01*
X20101356Y-14513356D01*
X20355356Y-14513356D02*
X20355356Y-14442644D01*
X20284644Y-14442644D01*
X20284644Y-14513356D01*
X20355356Y-14513356D01*
X20609356Y-14513356D02*
X20609356Y-14442644D01*
X20538644Y-14442644D01*
X20538644Y-14513356D01*
X20609356Y-14513356D01*
X20863356Y-14513356D02*
X20863356Y-14442644D01*
X20792644Y-14442644D01*
X20792644Y-14513356D01*
X20863356Y-14513356D01*
X21117356Y-14513356D02*
X21117356Y-14442644D01*
X21046644Y-14442644D01*
X21046644Y-14513356D01*
X21117356Y-14513356D01*
X21371356Y-14513356D02*
X21371356Y-14442644D01*
X21300644Y-14442644D01*
X21300644Y-14513356D01*
X21371356Y-14513356D01*
X21625356Y-14513356D02*
X21625356Y-14442644D01*
X21554644Y-14442644D01*
X21554644Y-14513356D01*
X21625356Y-14513356D01*
X21879356Y-14513356D02*
X21879356Y-14442644D01*
X21808644Y-14442644D01*
X21808644Y-14513356D01*
X21879356Y-14513356D01*
X22133356Y-14513356D02*
X22133356Y-14442644D01*
X22062644Y-14442644D01*
X22062644Y-14513356D01*
X22133356Y-14513356D01*
X22387356Y-14513356D02*
X22387356Y-14442644D01*
X22316644Y-14442644D01*
X22316644Y-14513356D01*
X22387356Y-14513356D01*
X22641356Y-14513356D02*
X22641356Y-14442644D01*
X22570644Y-14442644D01*
X22570644Y-14513356D01*
X22641356Y-14513356D01*
X22895356Y-14513356D02*
X22895356Y-14442644D01*
X22824644Y-14442644D01*
X22824644Y-14513356D01*
X22895356Y-14513356D01*
X23149356Y-14513356D02*
X23149356Y-14442644D01*
X23078644Y-14442644D01*
X23078644Y-14513356D01*
X23149356Y-14513356D01*
X23403356Y-14513356D02*
X23403356Y-14442644D01*
X23332644Y-14442644D01*
X23332644Y-14513356D01*
X23403356Y-14513356D01*
X23657356Y-14513356D02*
X23657356Y-14442644D01*
X23586644Y-14442644D01*
X23586644Y-14513356D01*
X23657356Y-14513356D01*
X23911356Y-14513356D02*
X23911356Y-14442644D01*
X23840644Y-14442644D01*
X23840644Y-14513356D01*
X23911356Y-14513356D01*
X24165356Y-14513356D02*
X24165356Y-14442644D01*
X24094644Y-14442644D01*
X24094644Y-14513356D01*
X24165356Y-14513356D01*
X6131356Y-9814356D02*
X6131356Y-9743644D01*
X6060644Y-9743644D01*
X6060644Y-9814356D01*
X6131356Y-9814356D01*
X6131356Y-10068356D02*
X6131356Y-9997644D01*
X6060644Y-9997644D01*
X6060644Y-10068356D01*
X6131356Y-10068356D01*
X6131356Y-10322356D02*
X6131356Y-10251644D01*
X6060644Y-10251644D01*
X6060644Y-10322356D01*
X6131356Y-10322356D01*
X6131356Y-10576356D02*
X6131356Y-10505644D01*
X6060644Y-10505644D01*
X6060644Y-10576356D01*
X6131356Y-10576356D01*
X6131356Y-10830356D02*
X6131356Y-10759644D01*
X6060644Y-10759644D01*
X6060644Y-10830356D01*
X6131356Y-10830356D01*
X6131356Y-11084356D02*
X6131356Y-11013644D01*
X6060644Y-11013644D01*
X6060644Y-11084356D01*
X6131356Y-11084356D01*
X6131356Y-11338356D02*
X6131356Y-11267644D01*
X6060644Y-11267644D01*
X6060644Y-11338356D01*
X6131356Y-11338356D01*
X5369356Y-6131356D02*
X5369356Y-6060644D01*
X5298644Y-6060644D01*
X5298644Y-6131356D01*
X5369356Y-6131356D01*
X5623356Y-6131356D02*
X5623356Y-6060644D01*
X5552644Y-6060644D01*
X5552644Y-6131356D01*
X5623356Y-6131356D01*
X5877356Y-6131356D02*
X5877356Y-6060644D01*
X5806644Y-6060644D01*
X5806644Y-6131356D01*
X5877356Y-6131356D01*
X6131356Y-6131356D02*
X6131356Y-6060644D01*
X6060644Y-6060644D01*
X6060644Y-6131356D01*
X6131356Y-6131356D01*
X6385356Y-6131356D02*
X6385356Y-6060644D01*
X6314644Y-6060644D01*
X6314644Y-6131356D01*
X6385356Y-6131356D01*
X6639356Y-6131356D02*
X6639356Y-6060644D01*
X6568644Y-6060644D01*
X6568644Y-6131356D01*
X6639356Y-6131356D01*
X6893356Y-6131356D02*
X6893356Y-6060644D01*
X6822644Y-6060644D01*
X6822644Y-6131356D01*
X6893356Y-6131356D01*
X7147356Y-6131356D02*
X7147356Y-6060644D01*
X7076644Y-6060644D01*
X7076644Y-6131356D01*
X7147356Y-6131356D01*
X7401356Y-6131356D02*
X7401356Y-6060644D01*
X7330644Y-6060644D01*
X7330644Y-6131356D01*
X7401356Y-6131356D01*
X7655356Y-6131356D02*
X7655356Y-6060644D01*
X7584644Y-6060644D01*
X7584644Y-6131356D01*
X7655356Y-6131356D01*
X7909356Y-6131356D02*
X7909356Y-6060644D01*
X7838644Y-6060644D01*
X7838644Y-6131356D01*
X7909356Y-6131356D01*
X8163356Y-6131356D02*
X8163356Y-6060644D01*
X8092644Y-6060644D01*
X8092644Y-6131356D01*
X8163356Y-6131356D01*
X8417356Y-6131356D02*
X8417356Y-6060644D01*
X8346644Y-6060644D01*
X8346644Y-6131356D01*
X8417356Y-6131356D01*
X8671356Y-6131356D02*
X8671356Y-6060644D01*
X8600644Y-6060644D01*
X8600644Y-6131356D01*
X8671356Y-6131356D01*
X8925356Y-6131356D02*
X8925356Y-6060644D01*
X8854644Y-6060644D01*
X8854644Y-6131356D01*
X8925356Y-6131356D01*
X9179356Y-6131356D02*
X9179356Y-6060644D01*
X9108644Y-6060644D01*
X9108644Y-6131356D01*
X9179356Y-6131356D01*
D12*
X5363928Y-15327214D02*
X5363928Y-15027214D01*
X5435357Y-15027214D01*
X5478214Y-15041500D01*
X5506786Y-15070071D01*
X5521071Y-15098643D01*
X5535357Y-15155786D01*
X5535357Y-15198643D01*
X5521071Y-15255786D01*
X5506786Y-15284357D01*
X5478214Y-15312929D01*
X5435357Y-15327214D01*
X5363928Y-15327214D01*
X5663928Y-15327214D02*
X5663928Y-15127214D01*
X5663928Y-15184357D02*
X5678214Y-15155786D01*
X5692500Y-15141500D01*
X5721071Y-15127214D01*
X5749643Y-15127214D01*
X5849643Y-15327214D02*
X5849643Y-15127214D01*
X5849643Y-15027214D02*
X5835357Y-15041500D01*
X5849643Y-15055786D01*
X5863928Y-15041500D01*
X5849643Y-15027214D01*
X5849643Y-15055786D01*
X6035357Y-15327214D02*
X6006786Y-15312929D01*
X5992500Y-15284357D01*
X5992500Y-15027214D01*
X6192500Y-15327214D02*
X6163928Y-15312929D01*
X6149643Y-15284357D01*
X6149643Y-15027214D01*
X6535357Y-15327214D02*
X6535357Y-15027214D01*
X6635357Y-15241500D01*
X6735357Y-15027214D01*
X6735357Y-15327214D01*
X7006786Y-15327214D02*
X7006786Y-15170071D01*
X6992500Y-15141500D01*
X6963928Y-15127214D01*
X6906786Y-15127214D01*
X6878214Y-15141500D01*
X7006786Y-15312929D02*
X6978214Y-15327214D01*
X6906786Y-15327214D01*
X6878214Y-15312929D01*
X6863928Y-15284357D01*
X6863928Y-15255786D01*
X6878214Y-15227214D01*
X6906786Y-15212929D01*
X6978214Y-15212929D01*
X7006786Y-15198643D01*
X7149643Y-15127214D02*
X7149643Y-15427214D01*
X7149643Y-15141500D02*
X7178214Y-15127214D01*
X7235357Y-15127214D01*
X7263928Y-15141500D01*
X7278214Y-15155786D01*
X7292500Y-15184357D01*
X7292500Y-15270071D01*
X7278214Y-15298643D01*
X7263928Y-15312929D01*
X7235357Y-15327214D01*
X7178214Y-15327214D01*
X7149643Y-15312929D01*
X7421071Y-15298643D02*
X7435357Y-15312929D01*
X7421071Y-15327214D01*
X7406786Y-15312929D01*
X7421071Y-15298643D01*
X7421071Y-15327214D01*
X7421071Y-15141500D02*
X7435357Y-15155786D01*
X7421071Y-15170071D01*
X7406786Y-15155786D01*
X7421071Y-15141500D01*
X7421071Y-15170071D01*
X5037500Y-15801500D02*
X5077500Y-15841500D01*
X5077500Y-15801500D02*
X5037500Y-15841500D01*
X5421071Y-15657214D02*
X5449643Y-15657214D01*
X5478214Y-15671500D01*
X5492500Y-15685786D01*
X5506786Y-15714357D01*
X5521071Y-15771500D01*
X5521071Y-15842929D01*
X5506786Y-15900071D01*
X5492500Y-15928643D01*
X5478214Y-15942929D01*
X5449643Y-15957214D01*
X5421071Y-15957214D01*
X5392500Y-15942929D01*
X5378214Y-15928643D01*
X5363928Y-15900071D01*
X5349643Y-15842929D01*
X5349643Y-15771500D01*
X5363928Y-15714357D01*
X5378214Y-15685786D01*
X5392500Y-15671500D01*
X5421071Y-15657214D01*
X5649643Y-15928643D02*
X5663928Y-15942929D01*
X5649643Y-15957214D01*
X5635357Y-15942929D01*
X5649643Y-15928643D01*
X5649643Y-15957214D01*
X5921071Y-15757214D02*
X5921071Y-15957214D01*
X5849643Y-15642929D02*
X5778214Y-15857214D01*
X5963928Y-15857214D01*
X6135357Y-15657214D02*
X6163928Y-15657214D01*
X6192500Y-15671500D01*
X6206786Y-15685786D01*
X6221071Y-15714357D01*
X6235357Y-15771500D01*
X6235357Y-15842929D01*
X6221071Y-15900071D01*
X6206786Y-15928643D01*
X6192500Y-15942929D01*
X6163928Y-15957214D01*
X6135357Y-15957214D01*
X6106786Y-15942929D01*
X6092500Y-15928643D01*
X6078214Y-15900071D01*
X6063928Y-15842929D01*
X6063928Y-15771500D01*
X6078214Y-15714357D01*
X6092500Y-15685786D01*
X6106786Y-15671500D01*
X6135357Y-15657214D01*
X6363928Y-15957214D02*
X6363928Y-15757214D01*
X6363928Y-15785786D02*
X6378214Y-15771500D01*
X6406786Y-15757214D01*
X6449643Y-15757214D01*
X6478214Y-15771500D01*
X6492500Y-15800071D01*
X6492500Y-15957214D01*
X6492500Y-15800071D02*
X6506786Y-15771500D01*
X6535357Y-15757214D01*
X6578214Y-15757214D01*
X6606786Y-15771500D01*
X6621071Y-15800071D01*
X6621071Y-15957214D01*
X6763928Y-15957214D02*
X6763928Y-15757214D01*
X6763928Y-15785786D02*
X6778214Y-15771500D01*
X6806786Y-15757214D01*
X6849643Y-15757214D01*
X6878214Y-15771500D01*
X6892500Y-15800071D01*
X6892500Y-15957214D01*
X6892500Y-15800071D02*
X6906786Y-15771500D01*
X6935357Y-15757214D01*
X6978214Y-15757214D01*
X7006786Y-15771500D01*
X7021071Y-15800071D01*
X7021071Y-15957214D01*
X7606786Y-15642929D02*
X7349643Y-16028643D01*
X7992500Y-15657214D02*
X8021071Y-15657214D01*
X8049643Y-15671500D01*
X8063928Y-15685786D01*
X8078214Y-15714357D01*
X8092500Y-15771500D01*
X8092500Y-15842929D01*
X8078214Y-15900071D01*
X8063928Y-15928643D01*
X8049643Y-15942929D01*
X8021071Y-15957214D01*
X7992500Y-15957214D01*
X7963928Y-15942929D01*
X7949643Y-15928643D01*
X7935357Y-15900071D01*
X7921071Y-15842929D01*
X7921071Y-15771500D01*
X7935357Y-15714357D01*
X7949643Y-15685786D01*
X7963928Y-15671500D01*
X7992500Y-15657214D01*
X8221071Y-15928643D02*
X8235357Y-15942929D01*
X8221071Y-15957214D01*
X8206786Y-15942929D01*
X8221071Y-15928643D01*
X8221071Y-15957214D01*
X8421071Y-15657214D02*
X8449643Y-15657214D01*
X8478214Y-15671500D01*
X8492500Y-15685786D01*
X8506786Y-15714357D01*
X8521071Y-15771500D01*
X8521071Y-15842929D01*
X8506786Y-15900071D01*
X8492500Y-15928643D01*
X8478214Y-15942929D01*
X8449643Y-15957214D01*
X8421071Y-15957214D01*
X8392500Y-15942929D01*
X8378214Y-15928643D01*
X8363928Y-15900071D01*
X8349643Y-15842929D01*
X8349643Y-15771500D01*
X8363928Y-15714357D01*
X8378214Y-15685786D01*
X8392500Y-15671500D01*
X8421071Y-15657214D01*
X8806786Y-15957214D02*
X8635357Y-15957214D01*
X8721071Y-15957214D02*
X8721071Y-15657214D01*
X8692500Y-15700071D01*
X8663928Y-15728643D01*
X8635357Y-15742929D01*
X9063928Y-15657214D02*
X9006786Y-15657214D01*
X8978214Y-15671500D01*
X8963928Y-15685786D01*
X8935357Y-15728643D01*
X8921071Y-15785786D01*
X8921071Y-15900071D01*
X8935357Y-15928643D01*
X8949643Y-15942929D01*
X8978214Y-15957214D01*
X9035357Y-15957214D01*
X9063928Y-15942929D01*
X9078214Y-15928643D01*
X9092500Y-15900071D01*
X9092500Y-15828643D01*
X9078214Y-15800071D01*
X9063928Y-15785786D01*
X9035357Y-15771500D01*
X8978214Y-15771500D01*
X8949643Y-15785786D01*
X8935357Y-15800071D01*
X8921071Y-15828643D01*
X9206786Y-15657214D02*
X9206786Y-15714357D01*
X9321071Y-15657214D02*
X9321071Y-15714357D01*
X9763928Y-16071500D02*
X9749643Y-16057214D01*
X9721071Y-16014357D01*
X9706786Y-15985786D01*
X9692500Y-15942929D01*
X9678214Y-15871500D01*
X9678214Y-15814357D01*
X9692500Y-15742929D01*
X9706786Y-15700071D01*
X9721071Y-15671500D01*
X9749643Y-15628643D01*
X9763928Y-15614357D01*
X9892500Y-15957214D02*
X9949643Y-15957214D01*
X9978214Y-15942929D01*
X9992500Y-15928643D01*
X10021071Y-15885786D01*
X10035357Y-15828643D01*
X10035357Y-15714357D01*
X10021071Y-15685786D01*
X10006786Y-15671500D01*
X9978214Y-15657214D01*
X9921071Y-15657214D01*
X9892500Y-15671500D01*
X9878214Y-15685786D01*
X9863928Y-15714357D01*
X9863928Y-15785786D01*
X9878214Y-15814357D01*
X9892500Y-15828643D01*
X9921071Y-15842929D01*
X9978214Y-15842929D01*
X10006786Y-15828643D01*
X10021071Y-15814357D01*
X10035357Y-15785786D01*
X10178214Y-15957214D02*
X10235357Y-15957214D01*
X10263928Y-15942929D01*
X10278214Y-15928643D01*
X10306786Y-15885786D01*
X10321071Y-15828643D01*
X10321071Y-15714357D01*
X10306786Y-15685786D01*
X10292500Y-15671500D01*
X10263928Y-15657214D01*
X10206786Y-15657214D01*
X10178214Y-15671500D01*
X10163928Y-15685786D01*
X10149643Y-15714357D01*
X10149643Y-15785786D01*
X10163928Y-15814357D01*
X10178214Y-15828643D01*
X10206786Y-15842929D01*
X10263928Y-15842929D01*
X10292500Y-15828643D01*
X10306786Y-15814357D01*
X10321071Y-15785786D01*
X10678214Y-15957214D02*
X10678214Y-15657214D01*
X10806786Y-15957214D02*
X10806786Y-15800071D01*
X10792500Y-15771500D01*
X10763928Y-15757214D01*
X10721071Y-15757214D01*
X10692500Y-15771500D01*
X10678214Y-15785786D01*
X10992500Y-15957214D02*
X10963928Y-15942929D01*
X10949643Y-15928643D01*
X10935357Y-15900071D01*
X10935357Y-15814357D01*
X10949643Y-15785786D01*
X10963928Y-15771500D01*
X10992500Y-15757214D01*
X11035357Y-15757214D01*
X11063928Y-15771500D01*
X11078214Y-15785786D01*
X11092500Y-15814357D01*
X11092500Y-15900071D01*
X11078214Y-15928643D01*
X11063928Y-15942929D01*
X11035357Y-15957214D01*
X10992500Y-15957214D01*
X11263928Y-15957214D02*
X11235357Y-15942929D01*
X11221071Y-15914357D01*
X11221071Y-15657214D01*
X11492500Y-15942929D02*
X11463928Y-15957214D01*
X11406786Y-15957214D01*
X11378214Y-15942929D01*
X11363928Y-15914357D01*
X11363928Y-15800071D01*
X11378214Y-15771500D01*
X11406786Y-15757214D01*
X11463928Y-15757214D01*
X11492500Y-15771500D01*
X11506786Y-15800071D01*
X11506786Y-15828643D01*
X11363928Y-15857214D01*
X11621071Y-15942929D02*
X11649643Y-15957214D01*
X11706786Y-15957214D01*
X11735357Y-15942929D01*
X11749643Y-15914357D01*
X11749643Y-15900071D01*
X11735357Y-15871500D01*
X11706786Y-15857214D01*
X11663928Y-15857214D01*
X11635357Y-15842929D01*
X11621071Y-15814357D01*
X11621071Y-15800071D01*
X11635357Y-15771500D01*
X11663928Y-15757214D01*
X11706786Y-15757214D01*
X11735357Y-15771500D01*
X11849643Y-16071500D02*
X11863928Y-16057214D01*
X11892500Y-16014357D01*
X11906786Y-15985786D01*
X11921071Y-15942929D01*
X11935357Y-15871500D01*
X11935357Y-15814357D01*
X11921071Y-15742929D01*
X11906786Y-15700071D01*
X11892500Y-15671500D01*
X11863928Y-15628643D01*
X11849643Y-15614357D01*
X5077500Y-16217500D02*
G75*
G03X5077500Y-16217500I-40000J0D01*
G01*
X5421071Y-16053214D02*
X5449643Y-16053214D01*
X5478214Y-16067500D01*
X5492500Y-16081786D01*
X5506786Y-16110357D01*
X5521071Y-16167500D01*
X5521071Y-16238929D01*
X5506786Y-16296071D01*
X5492500Y-16324643D01*
X5478214Y-16338929D01*
X5449643Y-16353214D01*
X5421071Y-16353214D01*
X5392500Y-16338929D01*
X5378214Y-16324643D01*
X5363928Y-16296071D01*
X5349643Y-16238929D01*
X5349643Y-16167500D01*
X5363928Y-16110357D01*
X5378214Y-16081786D01*
X5392500Y-16067500D01*
X5421071Y-16053214D01*
X5649643Y-16324643D02*
X5663928Y-16338929D01*
X5649643Y-16353214D01*
X5635357Y-16338929D01*
X5649643Y-16324643D01*
X5649643Y-16353214D01*
X5835357Y-16181786D02*
X5806786Y-16167500D01*
X5792500Y-16153214D01*
X5778214Y-16124643D01*
X5778214Y-16110357D01*
X5792500Y-16081786D01*
X5806786Y-16067500D01*
X5835357Y-16053214D01*
X5892500Y-16053214D01*
X5921071Y-16067500D01*
X5935357Y-16081786D01*
X5949643Y-16110357D01*
X5949643Y-16124643D01*
X5935357Y-16153214D01*
X5921071Y-16167500D01*
X5892500Y-16181786D01*
X5835357Y-16181786D01*
X5806786Y-16196071D01*
X5792500Y-16210357D01*
X5778214Y-16238929D01*
X5778214Y-16296071D01*
X5792500Y-16324643D01*
X5806786Y-16338929D01*
X5835357Y-16353214D01*
X5892500Y-16353214D01*
X5921071Y-16338929D01*
X5935357Y-16324643D01*
X5949643Y-16296071D01*
X5949643Y-16238929D01*
X5935357Y-16210357D01*
X5921071Y-16196071D01*
X5892500Y-16181786D01*
X6135357Y-16053214D02*
X6163928Y-16053214D01*
X6192500Y-16067500D01*
X6206786Y-16081786D01*
X6221071Y-16110357D01*
X6235357Y-16167500D01*
X6235357Y-16238929D01*
X6221071Y-16296071D01*
X6206786Y-16324643D01*
X6192500Y-16338929D01*
X6163928Y-16353214D01*
X6135357Y-16353214D01*
X6106786Y-16338929D01*
X6092500Y-16324643D01*
X6078214Y-16296071D01*
X6063928Y-16238929D01*
X6063928Y-16167500D01*
X6078214Y-16110357D01*
X6092500Y-16081786D01*
X6106786Y-16067500D01*
X6135357Y-16053214D01*
X6363928Y-16353214D02*
X6363928Y-16153214D01*
X6363928Y-16181786D02*
X6378214Y-16167500D01*
X6406786Y-16153214D01*
X6449643Y-16153214D01*
X6478214Y-16167500D01*
X6492500Y-16196071D01*
X6492500Y-16353214D01*
X6492500Y-16196071D02*
X6506786Y-16167500D01*
X6535357Y-16153214D01*
X6578214Y-16153214D01*
X6606786Y-16167500D01*
X6621071Y-16196071D01*
X6621071Y-16353214D01*
X6763928Y-16353214D02*
X6763928Y-16153214D01*
X6763928Y-16181786D02*
X6778214Y-16167500D01*
X6806786Y-16153214D01*
X6849643Y-16153214D01*
X6878214Y-16167500D01*
X6892500Y-16196071D01*
X6892500Y-16353214D01*
X6892500Y-16196071D02*
X6906786Y-16167500D01*
X6935357Y-16153214D01*
X6978214Y-16153214D01*
X7006786Y-16167500D01*
X7021071Y-16196071D01*
X7021071Y-16353214D01*
X7606786Y-16038929D02*
X7349643Y-16424643D01*
X7992500Y-16053214D02*
X8021071Y-16053214D01*
X8049643Y-16067500D01*
X8063928Y-16081786D01*
X8078214Y-16110357D01*
X8092500Y-16167500D01*
X8092500Y-16238929D01*
X8078214Y-16296071D01*
X8063928Y-16324643D01*
X8049643Y-16338929D01*
X8021071Y-16353214D01*
X7992500Y-16353214D01*
X7963928Y-16338929D01*
X7949643Y-16324643D01*
X7935357Y-16296071D01*
X7921071Y-16238929D01*
X7921071Y-16167500D01*
X7935357Y-16110357D01*
X7949643Y-16081786D01*
X7963928Y-16067500D01*
X7992500Y-16053214D01*
X8221071Y-16324643D02*
X8235357Y-16338929D01*
X8221071Y-16353214D01*
X8206786Y-16338929D01*
X8221071Y-16324643D01*
X8221071Y-16353214D01*
X8421071Y-16053214D02*
X8449643Y-16053214D01*
X8478214Y-16067500D01*
X8492500Y-16081786D01*
X8506786Y-16110357D01*
X8521071Y-16167500D01*
X8521071Y-16238929D01*
X8506786Y-16296071D01*
X8492500Y-16324643D01*
X8478214Y-16338929D01*
X8449643Y-16353214D01*
X8421071Y-16353214D01*
X8392500Y-16338929D01*
X8378214Y-16324643D01*
X8363928Y-16296071D01*
X8349643Y-16238929D01*
X8349643Y-16167500D01*
X8363928Y-16110357D01*
X8378214Y-16081786D01*
X8392500Y-16067500D01*
X8421071Y-16053214D01*
X8621071Y-16053214D02*
X8806786Y-16053214D01*
X8706786Y-16167500D01*
X8749643Y-16167500D01*
X8778214Y-16181786D01*
X8792500Y-16196071D01*
X8806786Y-16224643D01*
X8806786Y-16296071D01*
X8792500Y-16324643D01*
X8778214Y-16338929D01*
X8749643Y-16353214D01*
X8663928Y-16353214D01*
X8635357Y-16338929D01*
X8621071Y-16324643D01*
X9092500Y-16353214D02*
X8921071Y-16353214D01*
X9006786Y-16353214D02*
X9006786Y-16053214D01*
X8978214Y-16096071D01*
X8949643Y-16124643D01*
X8921071Y-16138929D01*
X9206786Y-16053214D02*
X9206786Y-16110357D01*
X9321071Y-16053214D02*
X9321071Y-16110357D01*
X9763928Y-16467500D02*
X9749643Y-16453214D01*
X9721071Y-16410357D01*
X9706786Y-16381786D01*
X9692500Y-16338929D01*
X9678214Y-16267500D01*
X9678214Y-16210357D01*
X9692500Y-16138929D01*
X9706786Y-16096071D01*
X9721071Y-16067500D01*
X9749643Y-16024643D01*
X9763928Y-16010357D01*
X9849643Y-16053214D02*
X10035357Y-16053214D01*
X9935357Y-16167500D01*
X9978214Y-16167500D01*
X10006786Y-16181786D01*
X10021071Y-16196071D01*
X10035357Y-16224643D01*
X10035357Y-16296071D01*
X10021071Y-16324643D01*
X10006786Y-16338929D01*
X9978214Y-16353214D01*
X9892500Y-16353214D01*
X9863928Y-16338929D01*
X9849643Y-16324643D01*
X10149643Y-16081786D02*
X10163928Y-16067500D01*
X10192500Y-16053214D01*
X10263928Y-16053214D01*
X10292500Y-16067500D01*
X10306786Y-16081786D01*
X10321071Y-16110357D01*
X10321071Y-16138929D01*
X10306786Y-16181786D01*
X10135357Y-16353214D01*
X10321071Y-16353214D01*
X10492500Y-16181786D02*
X10463928Y-16167500D01*
X10449643Y-16153214D01*
X10435357Y-16124643D01*
X10435357Y-16110357D01*
X10449643Y-16081786D01*
X10463928Y-16067500D01*
X10492500Y-16053214D01*
X10549643Y-16053214D01*
X10578214Y-16067500D01*
X10592500Y-16081786D01*
X10606786Y-16110357D01*
X10606786Y-16124643D01*
X10592500Y-16153214D01*
X10578214Y-16167500D01*
X10549643Y-16181786D01*
X10492500Y-16181786D01*
X10463928Y-16196071D01*
X10449643Y-16210357D01*
X10435357Y-16238929D01*
X10435357Y-16296071D01*
X10449643Y-16324643D01*
X10463928Y-16338929D01*
X10492500Y-16353214D01*
X10549643Y-16353214D01*
X10578214Y-16338929D01*
X10592500Y-16324643D01*
X10606786Y-16296071D01*
X10606786Y-16238929D01*
X10592500Y-16210357D01*
X10578214Y-16196071D01*
X10549643Y-16181786D01*
X10963928Y-16353214D02*
X10963928Y-16053214D01*
X11092500Y-16353214D02*
X11092500Y-16196071D01*
X11078214Y-16167500D01*
X11049643Y-16153214D01*
X11006786Y-16153214D01*
X10978214Y-16167500D01*
X10963928Y-16181786D01*
X11278214Y-16353214D02*
X11249643Y-16338929D01*
X11235357Y-16324643D01*
X11221071Y-16296071D01*
X11221071Y-16210357D01*
X11235357Y-16181786D01*
X11249643Y-16167500D01*
X11278214Y-16153214D01*
X11321071Y-16153214D01*
X11349643Y-16167500D01*
X11363928Y-16181786D01*
X11378214Y-16210357D01*
X11378214Y-16296071D01*
X11363928Y-16324643D01*
X11349643Y-16338929D01*
X11321071Y-16353214D01*
X11278214Y-16353214D01*
X11549643Y-16353214D02*
X11521071Y-16338929D01*
X11506786Y-16310357D01*
X11506786Y-16053214D01*
X11778214Y-16338929D02*
X11749643Y-16353214D01*
X11692500Y-16353214D01*
X11663928Y-16338929D01*
X11649643Y-16310357D01*
X11649643Y-16196071D01*
X11663928Y-16167500D01*
X11692500Y-16153214D01*
X11749643Y-16153214D01*
X11778214Y-16167500D01*
X11792500Y-16196071D01*
X11792500Y-16224643D01*
X11649643Y-16253214D01*
X11906786Y-16338929D02*
X11935357Y-16353214D01*
X11992500Y-16353214D01*
X12021071Y-16338929D01*
X12035357Y-16310357D01*
X12035357Y-16296071D01*
X12021071Y-16267500D01*
X11992500Y-16253214D01*
X11949643Y-16253214D01*
X11921071Y-16238929D01*
X11906786Y-16210357D01*
X11906786Y-16196071D01*
X11921071Y-16167500D01*
X11949643Y-16153214D01*
X11992500Y-16153214D01*
X12021071Y-16167500D01*
X12135357Y-16467500D02*
X12149643Y-16453214D01*
X12178214Y-16410357D01*
X12192500Y-16381786D01*
X12206786Y-16338929D01*
X12221071Y-16267500D01*
X12221071Y-16210357D01*
X12206786Y-16138929D01*
X12192500Y-16096071D01*
X12178214Y-16067500D01*
X12149643Y-16024643D01*
X12135357Y-16010357D01*
X5032500Y-16568500D02*
X5032500Y-16658500D01*
X4987500Y-16613500D02*
X5077500Y-16613500D01*
X5421071Y-16449214D02*
X5449643Y-16449214D01*
X5478214Y-16463500D01*
X5492500Y-16477786D01*
X5506786Y-16506357D01*
X5521071Y-16563500D01*
X5521071Y-16634929D01*
X5506786Y-16692071D01*
X5492500Y-16720643D01*
X5478214Y-16734929D01*
X5449643Y-16749214D01*
X5421071Y-16749214D01*
X5392500Y-16734929D01*
X5378214Y-16720643D01*
X5363928Y-16692071D01*
X5349643Y-16634929D01*
X5349643Y-16563500D01*
X5363928Y-16506357D01*
X5378214Y-16477786D01*
X5392500Y-16463500D01*
X5421071Y-16449214D01*
X5649643Y-16720643D02*
X5663928Y-16734929D01*
X5649643Y-16749214D01*
X5635357Y-16734929D01*
X5649643Y-16720643D01*
X5649643Y-16749214D01*
X5806786Y-16749214D02*
X5863928Y-16749214D01*
X5892500Y-16734929D01*
X5906786Y-16720643D01*
X5935357Y-16677786D01*
X5949643Y-16620643D01*
X5949643Y-16506357D01*
X5935357Y-16477786D01*
X5921071Y-16463500D01*
X5892500Y-16449214D01*
X5835357Y-16449214D01*
X5806786Y-16463500D01*
X5792500Y-16477786D01*
X5778214Y-16506357D01*
X5778214Y-16577786D01*
X5792500Y-16606357D01*
X5806786Y-16620643D01*
X5835357Y-16634929D01*
X5892500Y-16634929D01*
X5921071Y-16620643D01*
X5935357Y-16606357D01*
X5949643Y-16577786D01*
X6135357Y-16449214D02*
X6163928Y-16449214D01*
X6192500Y-16463500D01*
X6206786Y-16477786D01*
X6221071Y-16506357D01*
X6235357Y-16563500D01*
X6235357Y-16634929D01*
X6221071Y-16692071D01*
X6206786Y-16720643D01*
X6192500Y-16734929D01*
X6163928Y-16749214D01*
X6135357Y-16749214D01*
X6106786Y-16734929D01*
X6092500Y-16720643D01*
X6078214Y-16692071D01*
X6063928Y-16634929D01*
X6063928Y-16563500D01*
X6078214Y-16506357D01*
X6092500Y-16477786D01*
X6106786Y-16463500D01*
X6135357Y-16449214D01*
X6363928Y-16749214D02*
X6363928Y-16549214D01*
X6363928Y-16577786D02*
X6378214Y-16563500D01*
X6406786Y-16549214D01*
X6449643Y-16549214D01*
X6478214Y-16563500D01*
X6492500Y-16592071D01*
X6492500Y-16749214D01*
X6492500Y-16592071D02*
X6506786Y-16563500D01*
X6535357Y-16549214D01*
X6578214Y-16549214D01*
X6606786Y-16563500D01*
X6621071Y-16592071D01*
X6621071Y-16749214D01*
X6763928Y-16749214D02*
X6763928Y-16549214D01*
X6763928Y-16577786D02*
X6778214Y-16563500D01*
X6806786Y-16549214D01*
X6849643Y-16549214D01*
X6878214Y-16563500D01*
X6892500Y-16592071D01*
X6892500Y-16749214D01*
X6892500Y-16592071D02*
X6906786Y-16563500D01*
X6935357Y-16549214D01*
X6978214Y-16549214D01*
X7006786Y-16563500D01*
X7021071Y-16592071D01*
X7021071Y-16749214D01*
X7606786Y-16434929D02*
X7349643Y-16820643D01*
X7992500Y-16449214D02*
X8021071Y-16449214D01*
X8049643Y-16463500D01*
X8063928Y-16477786D01*
X8078214Y-16506357D01*
X8092500Y-16563500D01*
X8092500Y-16634929D01*
X8078214Y-16692071D01*
X8063928Y-16720643D01*
X8049643Y-16734929D01*
X8021071Y-16749214D01*
X7992500Y-16749214D01*
X7963928Y-16734929D01*
X7949643Y-16720643D01*
X7935357Y-16692071D01*
X7921071Y-16634929D01*
X7921071Y-16563500D01*
X7935357Y-16506357D01*
X7949643Y-16477786D01*
X7963928Y-16463500D01*
X7992500Y-16449214D01*
X8221071Y-16720643D02*
X8235357Y-16734929D01*
X8221071Y-16749214D01*
X8206786Y-16734929D01*
X8221071Y-16720643D01*
X8221071Y-16749214D01*
X8421071Y-16449214D02*
X8449643Y-16449214D01*
X8478214Y-16463500D01*
X8492500Y-16477786D01*
X8506786Y-16506357D01*
X8521071Y-16563500D01*
X8521071Y-16634929D01*
X8506786Y-16692071D01*
X8492500Y-16720643D01*
X8478214Y-16734929D01*
X8449643Y-16749214D01*
X8421071Y-16749214D01*
X8392500Y-16734929D01*
X8378214Y-16720643D01*
X8363928Y-16692071D01*
X8349643Y-16634929D01*
X8349643Y-16563500D01*
X8363928Y-16506357D01*
X8378214Y-16477786D01*
X8392500Y-16463500D01*
X8421071Y-16449214D01*
X8621071Y-16449214D02*
X8806786Y-16449214D01*
X8706786Y-16563500D01*
X8749643Y-16563500D01*
X8778214Y-16577786D01*
X8792500Y-16592071D01*
X8806786Y-16620643D01*
X8806786Y-16692071D01*
X8792500Y-16720643D01*
X8778214Y-16734929D01*
X8749643Y-16749214D01*
X8663928Y-16749214D01*
X8635357Y-16734929D01*
X8621071Y-16720643D01*
X9078214Y-16449214D02*
X8935357Y-16449214D01*
X8921071Y-16592071D01*
X8935357Y-16577786D01*
X8963928Y-16563500D01*
X9035357Y-16563500D01*
X9063928Y-16577786D01*
X9078214Y-16592071D01*
X9092500Y-16620643D01*
X9092500Y-16692071D01*
X9078214Y-16720643D01*
X9063928Y-16734929D01*
X9035357Y-16749214D01*
X8963928Y-16749214D01*
X8935357Y-16734929D01*
X8921071Y-16720643D01*
X9206786Y-16449214D02*
X9206786Y-16506357D01*
X9321071Y-16449214D02*
X9321071Y-16506357D01*
X9763928Y-16863500D02*
X9749643Y-16849214D01*
X9721071Y-16806357D01*
X9706786Y-16777786D01*
X9692500Y-16734929D01*
X9678214Y-16663500D01*
X9678214Y-16606357D01*
X9692500Y-16534929D01*
X9706786Y-16492071D01*
X9721071Y-16463500D01*
X9749643Y-16420643D01*
X9763928Y-16406357D01*
X10035357Y-16749214D02*
X9863928Y-16749214D01*
X9949643Y-16749214D02*
X9949643Y-16449214D01*
X9921071Y-16492071D01*
X9892500Y-16520643D01*
X9863928Y-16534929D01*
X10292500Y-16549214D02*
X10292500Y-16749214D01*
X10221071Y-16434929D02*
X10149643Y-16649214D01*
X10335357Y-16649214D01*
X10492500Y-16577786D02*
X10463928Y-16563500D01*
X10449643Y-16549214D01*
X10435357Y-16520643D01*
X10435357Y-16506357D01*
X10449643Y-16477786D01*
X10463928Y-16463500D01*
X10492500Y-16449214D01*
X10549643Y-16449214D01*
X10578214Y-16463500D01*
X10592500Y-16477786D01*
X10606786Y-16506357D01*
X10606786Y-16520643D01*
X10592500Y-16549214D01*
X10578214Y-16563500D01*
X10549643Y-16577786D01*
X10492500Y-16577786D01*
X10463928Y-16592071D01*
X10449643Y-16606357D01*
X10435357Y-16634929D01*
X10435357Y-16692071D01*
X10449643Y-16720643D01*
X10463928Y-16734929D01*
X10492500Y-16749214D01*
X10549643Y-16749214D01*
X10578214Y-16734929D01*
X10592500Y-16720643D01*
X10606786Y-16692071D01*
X10606786Y-16634929D01*
X10592500Y-16606357D01*
X10578214Y-16592071D01*
X10549643Y-16577786D01*
X10963928Y-16749214D02*
X10963928Y-16449214D01*
X11092500Y-16749214D02*
X11092500Y-16592071D01*
X11078214Y-16563500D01*
X11049643Y-16549214D01*
X11006786Y-16549214D01*
X10978214Y-16563500D01*
X10963928Y-16577786D01*
X11278214Y-16749214D02*
X11249643Y-16734929D01*
X11235357Y-16720643D01*
X11221071Y-16692071D01*
X11221071Y-16606357D01*
X11235357Y-16577786D01*
X11249643Y-16563500D01*
X11278214Y-16549214D01*
X11321071Y-16549214D01*
X11349643Y-16563500D01*
X11363928Y-16577786D01*
X11378214Y-16606357D01*
X11378214Y-16692071D01*
X11363928Y-16720643D01*
X11349643Y-16734929D01*
X11321071Y-16749214D01*
X11278214Y-16749214D01*
X11549643Y-16749214D02*
X11521071Y-16734929D01*
X11506786Y-16706357D01*
X11506786Y-16449214D01*
X11778214Y-16734929D02*
X11749643Y-16749214D01*
X11692500Y-16749214D01*
X11663928Y-16734929D01*
X11649643Y-16706357D01*
X11649643Y-16592071D01*
X11663928Y-16563500D01*
X11692500Y-16549214D01*
X11749643Y-16549214D01*
X11778214Y-16563500D01*
X11792500Y-16592071D01*
X11792500Y-16620643D01*
X11649643Y-16649214D01*
X11906786Y-16734929D02*
X11935357Y-16749214D01*
X11992500Y-16749214D01*
X12021071Y-16734929D01*
X12035357Y-16706357D01*
X12035357Y-16692071D01*
X12021071Y-16663500D01*
X11992500Y-16649214D01*
X11949643Y-16649214D01*
X11921071Y-16634929D01*
X11906786Y-16606357D01*
X11906786Y-16592071D01*
X11921071Y-16563500D01*
X11949643Y-16549214D01*
X11992500Y-16549214D01*
X12021071Y-16563500D01*
X12135357Y-16863500D02*
X12149643Y-16849214D01*
X12178214Y-16806357D01*
X12192500Y-16777786D01*
X12206786Y-16734929D01*
X12221071Y-16663500D01*
X12221071Y-16606357D01*
X12206786Y-16534929D01*
X12192500Y-16492071D01*
X12178214Y-16463500D01*
X12149643Y-16420643D01*
X12135357Y-16406357D01*
X5062856Y-17044856D02*
X5062856Y-16974144D01*
X4992144Y-16974144D01*
X4992144Y-17044856D01*
X5062856Y-17044856D01*
X5521071Y-17145214D02*
X5349643Y-17145214D01*
X5435357Y-17145214D02*
X5435357Y-16845214D01*
X5406786Y-16888072D01*
X5378214Y-16916643D01*
X5349643Y-16930929D01*
X5649643Y-17116643D02*
X5663928Y-17130929D01*
X5649643Y-17145214D01*
X5635357Y-17130929D01*
X5649643Y-17116643D01*
X5649643Y-17145214D01*
X5849643Y-16845214D02*
X5878214Y-16845214D01*
X5906786Y-16859500D01*
X5921071Y-16873786D01*
X5935357Y-16902357D01*
X5949643Y-16959500D01*
X5949643Y-17030929D01*
X5935357Y-17088072D01*
X5921071Y-17116643D01*
X5906786Y-17130929D01*
X5878214Y-17145214D01*
X5849643Y-17145214D01*
X5821071Y-17130929D01*
X5806786Y-17116643D01*
X5792500Y-17088072D01*
X5778214Y-17030929D01*
X5778214Y-16959500D01*
X5792500Y-16902357D01*
X5806786Y-16873786D01*
X5821071Y-16859500D01*
X5849643Y-16845214D01*
X6135357Y-16845214D02*
X6163928Y-16845214D01*
X6192500Y-16859500D01*
X6206786Y-16873786D01*
X6221071Y-16902357D01*
X6235357Y-16959500D01*
X6235357Y-17030929D01*
X6221071Y-17088072D01*
X6206786Y-17116643D01*
X6192500Y-17130929D01*
X6163928Y-17145214D01*
X6135357Y-17145214D01*
X6106786Y-17130929D01*
X6092500Y-17116643D01*
X6078214Y-17088072D01*
X6063928Y-17030929D01*
X6063928Y-16959500D01*
X6078214Y-16902357D01*
X6092500Y-16873786D01*
X6106786Y-16859500D01*
X6135357Y-16845214D01*
X6363928Y-17145214D02*
X6363928Y-16945214D01*
X6363928Y-16973786D02*
X6378214Y-16959500D01*
X6406786Y-16945214D01*
X6449643Y-16945214D01*
X6478214Y-16959500D01*
X6492500Y-16988072D01*
X6492500Y-17145214D01*
X6492500Y-16988072D02*
X6506786Y-16959500D01*
X6535357Y-16945214D01*
X6578214Y-16945214D01*
X6606786Y-16959500D01*
X6621071Y-16988072D01*
X6621071Y-17145214D01*
X6763928Y-17145214D02*
X6763928Y-16945214D01*
X6763928Y-16973786D02*
X6778214Y-16959500D01*
X6806786Y-16945214D01*
X6849643Y-16945214D01*
X6878214Y-16959500D01*
X6892500Y-16988072D01*
X6892500Y-17145214D01*
X6892500Y-16988072D02*
X6906786Y-16959500D01*
X6935357Y-16945214D01*
X6978214Y-16945214D01*
X7006786Y-16959500D01*
X7021071Y-16988072D01*
X7021071Y-17145214D01*
X7606786Y-16830929D02*
X7349643Y-17216643D01*
X7992500Y-16845214D02*
X8021071Y-16845214D01*
X8049643Y-16859500D01*
X8063928Y-16873786D01*
X8078214Y-16902357D01*
X8092500Y-16959500D01*
X8092500Y-17030929D01*
X8078214Y-17088072D01*
X8063928Y-17116643D01*
X8049643Y-17130929D01*
X8021071Y-17145214D01*
X7992500Y-17145214D01*
X7963928Y-17130929D01*
X7949643Y-17116643D01*
X7935357Y-17088072D01*
X7921071Y-17030929D01*
X7921071Y-16959500D01*
X7935357Y-16902357D01*
X7949643Y-16873786D01*
X7963928Y-16859500D01*
X7992500Y-16845214D01*
X8221071Y-17116643D02*
X8235357Y-17130929D01*
X8221071Y-17145214D01*
X8206786Y-17130929D01*
X8221071Y-17116643D01*
X8221071Y-17145214D01*
X8421071Y-16845214D02*
X8449643Y-16845214D01*
X8478214Y-16859500D01*
X8492500Y-16873786D01*
X8506786Y-16902357D01*
X8521071Y-16959500D01*
X8521071Y-17030929D01*
X8506786Y-17088072D01*
X8492500Y-17116643D01*
X8478214Y-17130929D01*
X8449643Y-17145214D01*
X8421071Y-17145214D01*
X8392500Y-17130929D01*
X8378214Y-17116643D01*
X8363928Y-17088072D01*
X8349643Y-17030929D01*
X8349643Y-16959500D01*
X8363928Y-16902357D01*
X8378214Y-16873786D01*
X8392500Y-16859500D01*
X8421071Y-16845214D01*
X8621071Y-16845214D02*
X8806786Y-16845214D01*
X8706786Y-16959500D01*
X8749643Y-16959500D01*
X8778214Y-16973786D01*
X8792500Y-16988072D01*
X8806786Y-17016643D01*
X8806786Y-17088072D01*
X8792500Y-17116643D01*
X8778214Y-17130929D01*
X8749643Y-17145214D01*
X8663928Y-17145214D01*
X8635357Y-17130929D01*
X8621071Y-17116643D01*
X8949643Y-17145214D02*
X9006786Y-17145214D01*
X9035357Y-17130929D01*
X9049643Y-17116643D01*
X9078214Y-17073786D01*
X9092500Y-17016643D01*
X9092500Y-16902357D01*
X9078214Y-16873786D01*
X9063928Y-16859500D01*
X9035357Y-16845214D01*
X8978214Y-16845214D01*
X8949643Y-16859500D01*
X8935357Y-16873786D01*
X8921071Y-16902357D01*
X8921071Y-16973786D01*
X8935357Y-17002357D01*
X8949643Y-17016643D01*
X8978214Y-17030929D01*
X9035357Y-17030929D01*
X9063928Y-17016643D01*
X9078214Y-17002357D01*
X9092500Y-16973786D01*
X9206786Y-16845214D02*
X9206786Y-16902357D01*
X9321071Y-16845214D02*
X9321071Y-16902357D01*
X9763928Y-17259500D02*
X9749643Y-17245214D01*
X9721071Y-17202357D01*
X9706786Y-17173786D01*
X9692500Y-17130929D01*
X9678214Y-17059500D01*
X9678214Y-17002357D01*
X9692500Y-16930929D01*
X9706786Y-16888072D01*
X9721071Y-16859500D01*
X9749643Y-16816643D01*
X9763928Y-16802357D01*
X9921071Y-16973786D02*
X9892500Y-16959500D01*
X9878214Y-16945214D01*
X9863928Y-16916643D01*
X9863928Y-16902357D01*
X9878214Y-16873786D01*
X9892500Y-16859500D01*
X9921071Y-16845214D01*
X9978214Y-16845214D01*
X10006786Y-16859500D01*
X10021071Y-16873786D01*
X10035357Y-16902357D01*
X10035357Y-16916643D01*
X10021071Y-16945214D01*
X10006786Y-16959500D01*
X9978214Y-16973786D01*
X9921071Y-16973786D01*
X9892500Y-16988072D01*
X9878214Y-17002357D01*
X9863928Y-17030929D01*
X9863928Y-17088072D01*
X9878214Y-17116643D01*
X9892500Y-17130929D01*
X9921071Y-17145214D01*
X9978214Y-17145214D01*
X10006786Y-17130929D01*
X10021071Y-17116643D01*
X10035357Y-17088072D01*
X10035357Y-17030929D01*
X10021071Y-17002357D01*
X10006786Y-16988072D01*
X9978214Y-16973786D01*
X10292500Y-16845214D02*
X10235357Y-16845214D01*
X10206786Y-16859500D01*
X10192500Y-16873786D01*
X10163928Y-16916643D01*
X10149643Y-16973786D01*
X10149643Y-17088072D01*
X10163928Y-17116643D01*
X10178214Y-17130929D01*
X10206786Y-17145214D01*
X10263928Y-17145214D01*
X10292500Y-17130929D01*
X10306786Y-17116643D01*
X10321071Y-17088072D01*
X10321071Y-17016643D01*
X10306786Y-16988072D01*
X10292500Y-16973786D01*
X10263928Y-16959500D01*
X10206786Y-16959500D01*
X10178214Y-16973786D01*
X10163928Y-16988072D01*
X10149643Y-17016643D01*
X10678214Y-17145214D02*
X10678214Y-16845214D01*
X10806786Y-17145214D02*
X10806786Y-16988072D01*
X10792500Y-16959500D01*
X10763928Y-16945214D01*
X10721071Y-16945214D01*
X10692500Y-16959500D01*
X10678214Y-16973786D01*
X10992500Y-17145214D02*
X10963928Y-17130929D01*
X10949643Y-17116643D01*
X10935357Y-17088072D01*
X10935357Y-17002357D01*
X10949643Y-16973786D01*
X10963928Y-16959500D01*
X10992500Y-16945214D01*
X11035357Y-16945214D01*
X11063928Y-16959500D01*
X11078214Y-16973786D01*
X11092500Y-17002357D01*
X11092500Y-17088072D01*
X11078214Y-17116643D01*
X11063928Y-17130929D01*
X11035357Y-17145214D01*
X10992500Y-17145214D01*
X11263928Y-17145214D02*
X11235357Y-17130929D01*
X11221071Y-17102357D01*
X11221071Y-16845214D01*
X11492500Y-17130929D02*
X11463928Y-17145214D01*
X11406786Y-17145214D01*
X11378214Y-17130929D01*
X11363928Y-17102357D01*
X11363928Y-16988072D01*
X11378214Y-16959500D01*
X11406786Y-16945214D01*
X11463928Y-16945214D01*
X11492500Y-16959500D01*
X11506786Y-16988072D01*
X11506786Y-17016643D01*
X11363928Y-17045214D01*
X11621071Y-17130929D02*
X11649643Y-17145214D01*
X11706786Y-17145214D01*
X11735357Y-17130929D01*
X11749643Y-17102357D01*
X11749643Y-17088072D01*
X11735357Y-17059500D01*
X11706786Y-17045214D01*
X11663928Y-17045214D01*
X11635357Y-17030929D01*
X11621071Y-17002357D01*
X11621071Y-16988072D01*
X11635357Y-16959500D01*
X11663928Y-16945214D01*
X11706786Y-16945214D01*
X11735357Y-16959500D01*
X11849643Y-17259500D02*
X11863928Y-17245214D01*
X11892500Y-17202357D01*
X11906786Y-17173786D01*
X11921071Y-17130929D01*
X11935357Y-17059500D01*
X11935357Y-17002357D01*
X11921071Y-16930929D01*
X11906786Y-16888072D01*
X11892500Y-16859500D01*
X11863928Y-16816643D01*
X11849643Y-16802357D01*
M02*
