M48
; DRILL file {KiCad (7.0.0)} date Sun Sep 24 17:49:00 2023
; FORMAT={-:-/ absolute / metric / decimal}
; #@! TF.CreationDate,2023-09-24T17:49:00-07:00
; #@! TF.GenerationSoftware,Kicad,Pcbnew,(7.0.0)
; #@! TF.FileFunction,Plated,1,2,PTH
FMAT,2
METRIC
; #@! TA.AperFunction,Plated,PTH,ViaDrill
T1C0.381
; #@! TA.AperFunction,Plated,PTH,ComponentDrill
T2C0.800
; #@! TA.AperFunction,Plated,PTH,ComponentDrill
T3C1.000
; #@! TA.AperFunction,Plated,PTH,ComponentDrill
T4C1.100
%
G90
G05
T1
X54.61Y-81.026
X56.388Y-88.9
X56.642Y-105.156
X56.642Y-116.078
X65.024Y-101.092
X72.644Y-102.108
X78.74Y-76.708
X78.74Y-104.394
X81.534Y-87.122
X81.534Y-95.504
X81.534Y-102.87
X82.55Y-75.946
X82.55Y-84.328
X82.55Y-96.012
X82.55Y-103.632
X85.344Y-47.752
X86.36Y-88.138
X86.868Y-47.752
X88.392Y-88.138
X88.9Y-79.248
X88.9Y-84.582
X88.9Y-89.662
X88.9Y-105.156
X88.9Y-112.014
X89.916Y-81.534
X91.44Y-95.25
X92.71Y-62.738
X93.472Y-130.81
X93.726Y-82.55
X93.98Y-94.488
X93.98Y-109.22
X94.234Y-70.866
X94.488Y-83.566
X94.996Y-130.81
X95.25Y-62.738
X95.25Y-65.532
X95.25Y-82.55
X96.52Y-93.726
X97.282Y-81.534
X97.282Y-83.566
X98.298Y-82.55
X99.06Y-53.34
X99.06Y-56.134
X99.06Y-92.964
X99.822Y-82.55
X101.6Y-92.202
X104.14Y-91.44
X105.41Y-80.518
X105.664Y-64.262
X106.426Y-83.566
X106.68Y-53.34
X106.68Y-56.134
X106.68Y-90.678
X107.188Y-64.262
X107.95Y-81.534
X107.95Y-83.566
X111.252Y-55.118
X111.76Y-54.102
X112.522Y-78.74
X112.522Y-83.566
X112.522Y-106.68
X113.03Y-63.754
X113.03Y-72.39
X114.3Y-61.976
X114.3Y-64.516
X114.3Y-71.628
X114.3Y-73.152
X115.57Y-48.768
X115.824Y-77.216
X116.586Y-58.166
X116.84Y-74.168
X117.856Y-57.404
X118.11Y-72.898
X118.618Y-60.452
X119.126Y-52.324
X119.38Y-81.28
X119.38Y-83.82
X119.38Y-88.138
X119.38Y-102.108
X119.38Y-108.966
X119.38Y-112.014
X119.38Y-115.824
X119.38Y-128.27
X119.888Y-60.452
X121.92Y-101.346
X121.92Y-127.508
X124.46Y-100.584
X124.46Y-126.746
X124.968Y-51.308
X125.73Y-61.722
X127.0Y-99.822
X127.0Y-125.984
X128.27Y-61.722
X129.54Y-99.06
X129.54Y-125.222
X130.81Y-54.356
X130.81Y-61.722
X131.826Y-71.12
X132.08Y-98.298
X132.08Y-124.46
X132.842Y-70.358
X134.62Y-97.536
X134.62Y-123.698
X137.16Y-59.69
X137.16Y-96.774
X137.16Y-122.936
X138.43Y-59.69
X138.684Y-54.356
X139.192Y-82.55
X139.7Y-76.454
X139.7Y-104.394
X140.716Y-82.55
X141.732Y-59.69
X141.986Y-88.138
X141.986Y-103.632
X142.748Y-50.292
X143.002Y-59.69
X143.002Y-75.692
X143.002Y-78.486
X143.002Y-88.138
X143.002Y-102.87
X144.018Y-74.93
X144.018Y-77.978
X144.018Y-88.138
X144.018Y-105.156
X145.034Y-88.138
X145.034Y-96.012
X145.288Y-77.216
X146.05Y-67.31
X147.066Y-55.118
X147.574Y-51.308
X148.59Y-48.26
X148.59Y-55.118
X148.59Y-67.31
X148.59Y-75.692
X149.352Y-116.078
X149.352Y-122.174
X149.606Y-49.276
X149.606Y-55.626
X149.606Y-66.548
X149.606Y-74.93
X149.606Y-78.232
X149.606Y-82.55
X150.622Y-59.69
X151.13Y-82.55
X151.892Y-59.69
X152.4Y-95.25
X152.4Y-121.412
X153.416Y-49.276
X154.686Y-59.69
X154.94Y-48.26
X154.94Y-94.488
X154.94Y-109.474
X154.94Y-111.506
X154.94Y-120.65
X155.956Y-59.69
X157.48Y-93.726
X157.48Y-119.888
X158.496Y-132.334
X159.766Y-133.604
X160.02Y-92.964
X160.02Y-119.126
X161.036Y-134.874
X161.29Y-59.69
X162.306Y-136.144
X162.56Y-92.202
X162.56Y-118.364
X162.814Y-59.69
X163.576Y-137.414
X164.338Y-52.324
X164.338Y-53.34
X165.1Y-91.44
X165.1Y-117.602
X165.862Y-52.324
X165.862Y-53.34
X167.64Y-90.678
X170.18Y-69.596
X170.18Y-74.168
X172.212Y-81.534
X172.212Y-83.566
X172.72Y-58.166
X172.72Y-61.214
X172.72Y-65.532
X172.72Y-73.406
X173.482Y-87.884
X174.244Y-110.744
X174.752Y-51.308
X174.752Y-81.534
X174.752Y-83.566
X180.34Y-68.834
X180.34Y-73.66
X181.61Y-82.55
X182.88Y-67.31
X182.88Y-73.66
X182.88Y-82.55
X185.42Y-67.31
X185.42Y-75.184
X185.674Y-59.69
X186.944Y-59.69
X187.96Y-67.31
X187.96Y-75.184
X190.5Y-67.31
X190.5Y-73.66
X192.532Y-59.69
X193.04Y-67.31
X193.04Y-75.184
X193.802Y-59.69
X195.58Y-67.31
X195.58Y-74.93
X195.58Y-82.55
X196.596Y-52.324
X196.85Y-82.55
X198.12Y-67.31
X198.12Y-75.692
X199.136Y-90.678
X201.93Y-93.726
X202.946Y-87.63
X203.962Y-80.264
X203.962Y-84.074
X203.962Y-91.44
X204.724Y-81.28
X204.724Y-85.09
X205.232Y-78.232
X206.502Y-89.662
X215.138Y-101.092
X215.138Y-105.156
X215.265Y-107.061
X215.392Y-102.87
X216.281Y-108.077
X217.17Y-68.58
X217.17Y-74.93
X218.186Y-59.69
X219.71Y-59.69
X219.71Y-70.104
X219.71Y-74.93
X219.964Y-52.324
X219.964Y-102.362
X220.98Y-103.378
X222.25Y-69.342
X222.25Y-74.93
X223.012Y-103.632
X223.266Y-59.69
X224.536Y-59.69
X224.663Y-97.663
X224.79Y-70.866
X224.79Y-74.93
X225.552Y-66.349
X225.552Y-68.58
X225.679Y-98.679
X226.568Y-73.406
X226.822Y-99.822
X227.076Y-66.294
X227.076Y-68.58
X228.092Y-73.406
X231.394Y-90.932
X234.188Y-101.6
X235.458Y-49.276
X235.458Y-52.07
X235.458Y-58.166
X235.458Y-60.96
X235.712Y-101.6
X236.22Y-93.726
X236.22Y-94.996
X239.014Y-73.406
X239.522Y-84.836
X240.538Y-73.406
X243.84Y-80.518
X243.84Y-81.788
X249.936Y-132.08
X251.206Y-129.54
X252.476Y-127.0
X253.746Y-121.92
X253.746Y-124.46
T2
X57.404Y-80.05
X57.404Y-85.05
X57.404Y-107.99
X57.404Y-112.99
X58.42Y-50.8
X58.42Y-68.58
X60.96Y-50.8
X60.96Y-68.58
X60.96Y-78.74
X60.96Y-86.36
X60.96Y-106.68
X60.96Y-114.3
X60.96Y-124.5
X60.96Y-127.0
X63.5Y-50.8
X63.5Y-68.58
X63.5Y-78.74
X63.5Y-86.36
X63.5Y-106.68
X63.5Y-114.3
X66.04Y-50.8
X66.04Y-68.58
X66.04Y-78.74
X66.04Y-86.36
X66.04Y-106.68
X66.04Y-114.3
X68.58Y-50.8
X68.58Y-68.58
X68.58Y-78.74
X68.58Y-86.36
X68.58Y-106.68
X68.58Y-114.3
X71.12Y-50.8
X71.12Y-68.58
X71.12Y-78.74
X71.12Y-86.36
X71.12Y-106.68
X71.12Y-114.3
X73.66Y-50.8
X73.66Y-68.58
X73.66Y-78.74
X73.66Y-86.36
X73.66Y-106.68
X73.66Y-114.3
X76.2Y-50.8
X76.2Y-68.58
X76.2Y-78.74
X76.2Y-86.36
X76.2Y-106.68
X76.2Y-114.3
X78.74Y-50.8
X78.74Y-68.58
X78.74Y-78.74
X78.74Y-86.36
X78.74Y-106.68
X78.74Y-114.3
X81.28Y-50.8
X81.28Y-68.58
X83.82Y-50.8
X83.82Y-68.58
X86.36Y-50.8
X86.36Y-68.58
X86.36Y-80.09
X86.36Y-85.09
X86.36Y-107.95
X86.36Y-112.95
X88.9Y-50.8
X88.9Y-68.58
X91.44Y-50.8
X91.44Y-68.58
X91.44Y-78.74
X91.44Y-86.36
X91.44Y-106.68
X91.44Y-114.3
X93.98Y-50.8
X93.98Y-68.58
X93.98Y-78.74
X93.98Y-86.36
X93.98Y-106.68
X93.98Y-114.3
X96.52Y-50.8
X96.52Y-68.58
X96.52Y-78.74
X96.52Y-86.36
X96.52Y-106.68
X96.52Y-114.3
X99.06Y-50.8
X99.06Y-68.58
X99.06Y-78.74
X99.06Y-86.36
X99.06Y-106.68
X99.06Y-114.3
X101.6Y-50.8
X101.6Y-68.58
X101.6Y-78.74
X101.6Y-86.36
X101.6Y-106.68
X101.6Y-114.3
X104.14Y-50.8
X104.14Y-68.58
X104.14Y-78.74
X104.14Y-86.36
X104.14Y-106.68
X104.14Y-114.3
X106.68Y-50.8
X106.68Y-68.58
X106.68Y-78.74
X106.68Y-86.36
X106.68Y-106.68
X106.68Y-114.3
X109.22Y-78.74
X109.22Y-86.36
X109.22Y-106.68
X109.22Y-114.3
X111.76Y-57.19
X111.76Y-62.19
X116.84Y-55.88
X116.84Y-63.5
X116.84Y-80.05
X116.84Y-85.05
X116.84Y-107.99
X116.84Y-112.99
X119.38Y-55.88
X119.38Y-63.5
X121.92Y-55.88
X121.92Y-63.5
X121.92Y-78.74
X121.92Y-86.36
X121.92Y-106.67
X121.92Y-114.29
X124.46Y-55.88
X124.46Y-63.5
X124.46Y-78.74
X124.46Y-86.36
X124.46Y-106.67
X124.46Y-114.29
X127.0Y-55.88
X127.0Y-63.5
X127.0Y-78.74
X127.0Y-86.36
X127.0Y-106.67
X127.0Y-114.29
X129.54Y-55.88
X129.54Y-63.5
X129.54Y-78.74
X129.54Y-86.36
X129.54Y-106.67
X129.54Y-114.29
X132.08Y-55.88
X132.08Y-63.5
X132.08Y-78.74
X132.08Y-86.36
X132.08Y-106.67
X132.08Y-114.29
X132.842Y-67.564
X134.62Y-55.88
X134.62Y-63.5
X134.62Y-78.74
X134.62Y-86.36
X134.62Y-106.67
X134.62Y-114.29
X137.16Y-55.88
X137.16Y-63.5
X137.16Y-78.74
X137.16Y-86.36
X137.16Y-106.67
X137.16Y-114.29
X139.7Y-55.88
X139.7Y-63.5
X139.7Y-78.74
X139.7Y-86.36
X139.7Y-106.67
X139.7Y-114.29
X143.002Y-54.61
X143.002Y-64.77
X143.002Y-67.564
X147.32Y-57.19
X147.32Y-62.19
X147.32Y-80.05
X147.32Y-85.05
X147.32Y-107.99
X147.32Y-112.99
X152.4Y-55.88
X152.4Y-63.5
X152.4Y-78.74
X152.4Y-86.36
X152.4Y-106.68
X152.4Y-114.3
X154.94Y-55.88
X154.94Y-63.5
X154.94Y-78.74
X154.94Y-86.36
X154.94Y-106.68
X154.94Y-114.3
X157.48Y-55.88
X157.48Y-63.5
X157.48Y-78.74
X157.48Y-86.36
X157.48Y-106.68
X157.48Y-114.3
X160.02Y-55.88
X160.02Y-63.5
X160.02Y-78.74
X160.02Y-86.36
X160.02Y-106.68
X160.02Y-114.3
X162.56Y-55.88
X162.56Y-63.5
X162.56Y-78.74
X162.56Y-86.36
X162.56Y-106.68
X162.56Y-114.3
X165.1Y-55.88
X165.1Y-63.5
X165.1Y-78.74
X165.1Y-86.36
X165.1Y-106.68
X165.1Y-114.3
X167.64Y-55.88
X167.64Y-63.5
X167.64Y-78.74
X167.64Y-86.36
X167.64Y-106.68
X167.64Y-114.3
X170.18Y-55.88
X170.18Y-63.5
X170.18Y-78.74
X170.18Y-86.36
X170.18Y-106.68
X170.18Y-114.3
X177.8Y-57.19
X177.8Y-62.19
X177.8Y-80.05
X177.8Y-85.05
X182.88Y-55.88
X182.88Y-63.5
X182.88Y-78.74
X182.88Y-86.36
X185.42Y-55.88
X185.42Y-63.5
X185.42Y-78.74
X185.42Y-86.36
X187.96Y-55.88
X187.96Y-63.5
X187.96Y-78.74
X187.96Y-86.36
X190.5Y-55.88
X190.5Y-63.5
X190.5Y-78.74
X190.5Y-86.36
X193.04Y-55.88
X193.04Y-63.5
X193.04Y-78.74
X193.04Y-86.36
X195.58Y-55.88
X195.58Y-63.5
X195.58Y-78.74
X195.58Y-86.36
X198.12Y-55.88
X198.12Y-63.5
X198.12Y-78.74
X198.12Y-86.36
X200.66Y-55.88
X200.66Y-63.5
X200.66Y-78.74
X200.66Y-86.36
X203.708Y-75.438
X206.248Y-75.438
X208.28Y-57.19
X208.28Y-62.19
X208.28Y-80.09
X208.28Y-85.09
X209.804Y-75.438
X212.344Y-75.438
X213.36Y-55.88
X213.36Y-63.5
X213.36Y-78.74
X213.36Y-86.36
X215.9Y-55.88
X215.9Y-63.5
X215.9Y-78.74
X215.9Y-86.36
X218.44Y-55.88
X218.44Y-63.5
X218.44Y-78.74
X218.44Y-86.36
X220.98Y-55.88
X220.98Y-63.5
X220.98Y-78.74
X220.98Y-86.36
X223.52Y-55.88
X223.52Y-63.5
X223.52Y-78.74
X223.52Y-86.36
X226.06Y-55.88
X226.06Y-63.5
X226.06Y-78.74
X226.06Y-86.36
X228.6Y-55.88
X228.6Y-63.5
X228.6Y-78.74
X228.6Y-86.36
X231.14Y-55.88
X231.14Y-63.5
X231.14Y-78.74
X231.14Y-86.36
X247.856Y-70.866
X250.356Y-70.866
T3
X63.5Y-73.381
X63.5Y-139.7
X66.04Y-73.381
X66.04Y-139.7
X68.58Y-73.381
X68.58Y-139.7
X71.12Y-73.381
X71.12Y-139.7
X73.66Y-73.381
X73.66Y-139.7
X76.2Y-73.381
X76.2Y-139.7
X78.74Y-73.381
X78.74Y-139.7
X81.28Y-73.381
X81.28Y-139.7
X83.82Y-73.381
X83.82Y-139.7
X86.36Y-73.381
X86.36Y-139.7
X88.9Y-73.381
X88.9Y-139.7
X91.44Y-73.381
X91.44Y-139.7
X93.98Y-139.7
X96.52Y-139.7
X104.14Y-139.7
X106.68Y-139.7
X109.22Y-139.7
X111.76Y-139.7
X114.3Y-139.7
X116.84Y-139.7
X119.38Y-139.7
X121.92Y-139.7
X124.46Y-139.7
X127.0Y-139.7
X129.54Y-139.7
X132.08Y-139.7
X134.62Y-139.7
X137.16Y-139.7
X139.7Y-139.7
X142.24Y-139.7
X167.64Y-139.7
X170.18Y-139.7
X172.72Y-139.7
X175.26Y-139.7
X177.8Y-139.7
X180.34Y-139.7
X182.88Y-139.7
X185.42Y-139.7
X187.96Y-139.7
X190.5Y-139.7
X193.04Y-139.7
X195.58Y-139.7
X198.12Y-139.7
X200.66Y-139.7
X203.2Y-139.7
X205.74Y-139.7
X208.28Y-139.7
X210.82Y-139.7
X213.36Y-139.7
X215.9Y-139.7
X218.44Y-139.7
X220.98Y-139.7
X223.52Y-139.7
X226.06Y-139.7
X228.6Y-139.7
X231.14Y-139.7
X233.68Y-139.7
X236.22Y-139.7
X238.76Y-53.34
X238.76Y-63.5
X238.76Y-96.52
X238.76Y-99.06
X238.76Y-101.6
X238.76Y-104.14
X238.76Y-139.7
X241.3Y-53.34
X241.3Y-63.5
X241.3Y-139.7
X243.84Y-53.34
X243.84Y-63.5
X243.84Y-121.92
X243.84Y-124.46
X243.84Y-127.0
X243.84Y-129.54
X243.84Y-132.08
X243.84Y-134.62
X243.84Y-139.7
X246.38Y-53.34
X246.38Y-63.5
X246.38Y-121.92
X246.38Y-124.46
X246.38Y-127.0
X246.38Y-129.54
X246.38Y-132.08
X246.38Y-134.62
X246.38Y-139.7
X248.92Y-53.34
X248.92Y-63.5
X251.46Y-53.34
X251.46Y-63.5
T4
X111.76Y-50.8
X121.92Y-50.8
T0
M30
