%TF.GenerationSoftware,KiCad,Pcbnew,(7.0.0)*%
%TF.CreationDate,2023-09-24T17:49:01-07:00*%
%TF.ProjectId,peripheral_interface,70657269-7068-4657-9261-6c5f696e7465,rev?*%
%TF.SameCoordinates,Original*%
%TF.FileFunction,Drillmap*%
%TF.FilePolarity,Positive*%
%FSLAX45Y45*%
G04 Gerber Fmt 4.5, Leading zero omitted, Abs format (unit mm)*
G04 Created by KiCad (PCBNEW (7.0.0)) date 2023-09-24 17:49:01*
%MOMM*%
%LPD*%
G01*
G04 APERTURE LIST*
%ADD10C,0.050000*%
%ADD11C,0.200000*%
G04 APERTURE END LIST*
D10*
X5511800Y-4572000D02*
G75*
G03*
X5334000Y-4749800I0J-177800D01*
G01*
X5511800Y-4572000D02*
X25476200Y-4572000D01*
X5334000Y-14173200D02*
X5334000Y-4749800D01*
X25476200Y-14351000D02*
G75*
G03*
X25654000Y-14173200I0J177800D01*
G01*
X25476200Y-14351000D02*
X5511800Y-14351000D01*
X25654000Y-4749800D02*
X25654000Y-14173200D01*
X5334000Y-14173200D02*
G75*
G03*
X5511800Y-14351000I177800J0D01*
G01*
X25654000Y-4749800D02*
G75*
G03*
X25476200Y-4572000I-177800J0D01*
G01*
D11*
X5579119Y-14646976D02*
X5579119Y-14446976D01*
X5579119Y-14446976D02*
X5626738Y-14446976D01*
X5626738Y-14446976D02*
X5655309Y-14456500D01*
X5655309Y-14456500D02*
X5674357Y-14475548D01*
X5674357Y-14475548D02*
X5683881Y-14494595D01*
X5683881Y-14494595D02*
X5693405Y-14532690D01*
X5693405Y-14532690D02*
X5693405Y-14561262D01*
X5693405Y-14561262D02*
X5683881Y-14599357D01*
X5683881Y-14599357D02*
X5674357Y-14618405D01*
X5674357Y-14618405D02*
X5655309Y-14637452D01*
X5655309Y-14637452D02*
X5626738Y-14646976D01*
X5626738Y-14646976D02*
X5579119Y-14646976D01*
X5779119Y-14646976D02*
X5779119Y-14513643D01*
X5779119Y-14551738D02*
X5788643Y-14532690D01*
X5788643Y-14532690D02*
X5798167Y-14523167D01*
X5798167Y-14523167D02*
X5817214Y-14513643D01*
X5817214Y-14513643D02*
X5836262Y-14513643D01*
X5902928Y-14646976D02*
X5902928Y-14513643D01*
X5902928Y-14446976D02*
X5893405Y-14456500D01*
X5893405Y-14456500D02*
X5902928Y-14466024D01*
X5902928Y-14466024D02*
X5912452Y-14456500D01*
X5912452Y-14456500D02*
X5902928Y-14446976D01*
X5902928Y-14446976D02*
X5902928Y-14466024D01*
X6026738Y-14646976D02*
X6007690Y-14637452D01*
X6007690Y-14637452D02*
X5998167Y-14618405D01*
X5998167Y-14618405D02*
X5998167Y-14446976D01*
X6131500Y-14646976D02*
X6112452Y-14637452D01*
X6112452Y-14637452D02*
X6102928Y-14618405D01*
X6102928Y-14618405D02*
X6102928Y-14446976D01*
X6327690Y-14646976D02*
X6327690Y-14446976D01*
X6327690Y-14446976D02*
X6394357Y-14589833D01*
X6394357Y-14589833D02*
X6461024Y-14446976D01*
X6461024Y-14446976D02*
X6461024Y-14646976D01*
X6641976Y-14646976D02*
X6641976Y-14542214D01*
X6641976Y-14542214D02*
X6632452Y-14523167D01*
X6632452Y-14523167D02*
X6613405Y-14513643D01*
X6613405Y-14513643D02*
X6575309Y-14513643D01*
X6575309Y-14513643D02*
X6556262Y-14523167D01*
X6641976Y-14637452D02*
X6622928Y-14646976D01*
X6622928Y-14646976D02*
X6575309Y-14646976D01*
X6575309Y-14646976D02*
X6556262Y-14637452D01*
X6556262Y-14637452D02*
X6546738Y-14618405D01*
X6546738Y-14618405D02*
X6546738Y-14599357D01*
X6546738Y-14599357D02*
X6556262Y-14580309D01*
X6556262Y-14580309D02*
X6575309Y-14570786D01*
X6575309Y-14570786D02*
X6622928Y-14570786D01*
X6622928Y-14570786D02*
X6641976Y-14561262D01*
X6737214Y-14513643D02*
X6737214Y-14713643D01*
X6737214Y-14523167D02*
X6756262Y-14513643D01*
X6756262Y-14513643D02*
X6794357Y-14513643D01*
X6794357Y-14513643D02*
X6813405Y-14523167D01*
X6813405Y-14523167D02*
X6822928Y-14532690D01*
X6822928Y-14532690D02*
X6832452Y-14551738D01*
X6832452Y-14551738D02*
X6832452Y-14608881D01*
X6832452Y-14608881D02*
X6822928Y-14627928D01*
X6822928Y-14627928D02*
X6813405Y-14637452D01*
X6813405Y-14637452D02*
X6794357Y-14646976D01*
X6794357Y-14646976D02*
X6756262Y-14646976D01*
X6756262Y-14646976D02*
X6737214Y-14637452D01*
X6918167Y-14627928D02*
X6927690Y-14637452D01*
X6927690Y-14637452D02*
X6918167Y-14646976D01*
X6918167Y-14646976D02*
X6908643Y-14637452D01*
X6908643Y-14637452D02*
X6918167Y-14627928D01*
X6918167Y-14627928D02*
X6918167Y-14646976D01*
X6918167Y-14523167D02*
X6927690Y-14532690D01*
X6927690Y-14532690D02*
X6918167Y-14542214D01*
X6918167Y-14542214D02*
X6908643Y-14532690D01*
X6908643Y-14532690D02*
X6918167Y-14523167D01*
X6918167Y-14523167D02*
X6918167Y-14542214D01*
M02*
