%TF.GenerationSoftware,KiCad,Pcbnew,(7.0.0)*%
%TF.CreationDate,2023-09-24T17:53:57-07:00*%
%TF.ProjectId,gamepad,67616d65-7061-4642-9e6b-696361645f70,rev?*%
%TF.SameCoordinates,Original*%
%TF.FileFunction,Copper,L1,Top*%
%TF.FilePolarity,Positive*%
%FSLAX46Y46*%
G04 Gerber Fmt 4.6, Leading zero omitted, Abs format (unit mm)*
G04 Created by KiCad (PCBNEW (7.0.0)) date 2023-09-24 17:53:57*
%MOMM*%
%LPD*%
G01*
G04 APERTURE LIST*
%TA.AperFunction,ComponentPad*%
%ADD10R,1.800000X1.800000*%
%TD*%
%TA.AperFunction,ComponentPad*%
%ADD11C,1.800000*%
%TD*%
%TA.AperFunction,ComponentPad*%
%ADD12R,1.700000X1.700000*%
%TD*%
%TA.AperFunction,ComponentPad*%
%ADD13O,1.700000X1.700000*%
%TD*%
%TA.AperFunction,ComponentPad*%
%ADD14C,1.600000*%
%TD*%
%TA.AperFunction,ComponentPad*%
%ADD15R,1.600000X1.600000*%
%TD*%
%TA.AperFunction,ComponentPad*%
%ADD16O,1.600000X1.600000*%
%TD*%
%TA.AperFunction,ComponentPad*%
%ADD17C,2.000000*%
%TD*%
%TA.AperFunction,ComponentPad*%
%ADD18C,3.300000*%
%TD*%
%TA.AperFunction,ViaPad*%
%ADD19C,0.762000*%
%TD*%
%TA.AperFunction,Conductor*%
%ADD20C,0.762000*%
%TD*%
%TA.AperFunction,Conductor*%
%ADD21C,0.254000*%
%TD*%
G04 APERTURE END LIST*
D10*
%TO.P,D9,1,K*%
%TO.N,Net-(D9-K)*%
X200659999Y-63499999D03*
D11*
%TO.P,D9,2,A*%
%TO.N,/PAD 1 LED 8*%
X198120000Y-63500000D03*
%TD*%
D12*
%TO.P,J3,1,B_00*%
%TO.N,unconnected-(J3-B_00-Pad1)*%
X139699999Y-144779999D03*
D13*
%TO.P,J3,2,B_01*%
%TO.N,unconnected-(J3-B_01-Pad2)*%
X137159999Y-144779999D03*
%TO.P,J3,3,B_02*%
%TO.N,unconnected-(J3-B_02-Pad3)*%
X134619999Y-144779999D03*
%TO.P,J3,4,B_03*%
%TO.N,unconnected-(J3-B_03-Pad4)*%
X132079999Y-144779999D03*
%TO.P,J3,5,B_04*%
%TO.N,unconnected-(J3-B_04-Pad5)*%
X129539999Y-144779999D03*
%TO.P,J3,6,B_05*%
%TO.N,unconnected-(J3-B_05-Pad6)*%
X126999999Y-144779999D03*
%TO.P,J3,7,B_06*%
%TO.N,unconnected-(J3-B_06-Pad7)*%
X124459999Y-144779999D03*
%TO.P,J3,8,B_07*%
%TO.N,unconnected-(J3-B_07-Pad8)*%
X121919999Y-144779999D03*
%TO.P,J3,9,B_08*%
%TO.N,unconnected-(J3-B_08-Pad9)*%
X119379999Y-144779999D03*
%TO.P,J3,10,B_09*%
%TO.N,unconnected-(J3-B_09-Pad10)*%
X116839999Y-144779999D03*
%TO.P,J3,11,B_10*%
%TO.N,unconnected-(J3-B_10-Pad11)*%
X114299999Y-144779999D03*
%TO.P,J3,12,B_11*%
%TO.N,unconnected-(J3-B_11-Pad12)*%
X111759999Y-144779999D03*
%TO.P,J3,13,B_12*%
%TO.N,unconnected-(J3-B_12-Pad13)*%
X109219999Y-144779999D03*
%TO.P,J3,14,B_13*%
%TO.N,unconnected-(J3-B_13-Pad14)*%
X106679999Y-144779999D03*
%TO.P,J3,15,B_14*%
%TO.N,unconnected-(J3-B_14-Pad15)*%
X104139999Y-144779999D03*
%TO.P,J3,16,B_15*%
%TO.N,unconnected-(J3-B_15-Pad16)*%
X101599999Y-144779999D03*
%TD*%
D14*
%TO.P,C3,1*%
%TO.N,VCC*%
X187960000Y-93980000D03*
%TO.P,C3,2*%
%TO.N,GND*%
X187960000Y-98980000D03*
%TD*%
D15*
%TO.P,C97,1*%
%TO.N,VCC*%
X107441999Y-70611999D03*
D14*
%TO.P,C97,2*%
%TO.N,GND*%
X107442000Y-73112000D03*
%TD*%
%TO.P,C2,1*%
%TO.N,VCC*%
X147320000Y-124460000D03*
%TO.P,C2,2*%
%TO.N,GND*%
X147320000Y-129460000D03*
%TD*%
D10*
%TO.P,D13,1,K*%
%TO.N,/~{PAD 2 OE LED}*%
X168909999Y-63499999D03*
D11*
%TO.P,D13,2,A*%
%TO.N,Net-(D13-A)*%
X166370000Y-63500000D03*
%TD*%
D15*
%TO.P,U11,1,DIR*%
%TO.N,VCC*%
X210819999Y-86359999D03*
D16*
%TO.P,U11,2,A1*%
%TO.N,/PAD 1 SHIFT 07*%
X213359999Y-86359999D03*
%TO.P,U11,3,A2*%
%TO.N,/PAD 1 SHIFT 06*%
X215899999Y-86359999D03*
%TO.P,U11,4,A3*%
%TO.N,/PAD 1 SHIFT 05*%
X218439999Y-86359999D03*
%TO.P,U11,5,A3*%
%TO.N,/PAD 1 SHIFT 04*%
X220979999Y-86359999D03*
%TO.P,U11,6,A5*%
%TO.N,/PAD 1 SHIFT 03*%
X223519999Y-86359999D03*
%TO.P,U11,7,A6*%
%TO.N,/PAD 1 SHIFT 02*%
X226059999Y-86359999D03*
%TO.P,U11,8,A7*%
%TO.N,/PAD 1 SHIFT 01*%
X228599999Y-86359999D03*
%TO.P,U11,9,A8*%
%TO.N,/PAD 1 SHIFT 00*%
X231139999Y-86359999D03*
%TO.P,U11,10,GND*%
%TO.N,GND*%
X233679999Y-86359999D03*
%TO.P,U11,11,B8*%
%TO.N,/PAD 1 LED 0*%
X233679999Y-78739999D03*
%TO.P,U11,12,B7*%
%TO.N,/PAD 1 LED 1*%
X231139999Y-78739999D03*
%TO.P,U11,13,B6*%
%TO.N,/PAD 1 LED 2*%
X228599999Y-78739999D03*
%TO.P,U11,14,B5*%
%TO.N,/PAD 1 LED 3*%
X226059999Y-78739999D03*
%TO.P,U11,15,B4*%
%TO.N,/PAD 1 LED 4*%
X223519999Y-78739999D03*
%TO.P,U11,16,B3*%
%TO.N,/PAD 1 LED 5*%
X220979999Y-78739999D03*
%TO.P,U11,17,B2*%
%TO.N,/PAD 1 LED 6*%
X218439999Y-78739999D03*
%TO.P,U11,18,B1*%
%TO.N,/PAD 1 LED 7*%
X215899999Y-78739999D03*
%TO.P,U11,19,~{OE}*%
%TO.N,/~{LED ENABLE}*%
X213359999Y-78739999D03*
%TO.P,U11,20,VCC*%
%TO.N,VCC*%
X210819999Y-78739999D03*
%TD*%
D14*
%TO.P,C7,1*%
%TO.N,VCC*%
X111760000Y-124460000D03*
%TO.P,C7,2*%
%TO.N,GND*%
X111760000Y-129460000D03*
%TD*%
D10*
%TO.P,D8,1,K*%
%TO.N,Net-(D8-K)*%
X207009999Y-63499999D03*
D11*
%TO.P,D8,2,A*%
%TO.N,/PAD 1 LED 7*%
X204470000Y-63500000D03*
%TD*%
D14*
%TO.P,C8,1*%
%TO.N,VCC*%
X111760000Y-93980000D03*
%TO.P,C8,2*%
%TO.N,GND*%
X111760000Y-98980000D03*
%TD*%
D15*
%TO.P,U1,1,~{MR}*%
%TO.N,VCC*%
X78739999Y-132079999D03*
D16*
%TO.P,U1,2,CP*%
%TO.N,/CTL_CLK*%
X81279999Y-132079999D03*
%TO.P,U1,3,P0*%
%TO.N,GND*%
X83819999Y-132079999D03*
%TO.P,U1,4,P1*%
X86359999Y-132079999D03*
%TO.P,U1,5,P2*%
X88899999Y-132079999D03*
%TO.P,U1,6,P3*%
X91439999Y-132079999D03*
%TO.P,U1,7,PE*%
%TO.N,VCC*%
X93979999Y-132079999D03*
%TO.P,U1,8,GND*%
%TO.N,GND*%
X96519999Y-132079999D03*
%TO.P,U1,9,~{SPE}*%
%TO.N,VCC*%
X96519999Y-124459999D03*
%TO.P,U1,10,TE*%
X93979999Y-124459999D03*
%TO.P,U1,11,Q3*%
%TO.N,/CLK DIV 16*%
X91439999Y-124459999D03*
%TO.P,U1,12,Q2*%
%TO.N,/CLK DIV 8*%
X88899999Y-124459999D03*
%TO.P,U1,13,Q1*%
%TO.N,/CLK DIV 4*%
X86359999Y-124459999D03*
%TO.P,U1,14,Q0*%
%TO.N,/CLK DIV 2*%
X83819999Y-124459999D03*
%TO.P,U1,15,TC*%
%TO.N,unconnected-(U1-TC-Pad15)*%
X81279999Y-124459999D03*
%TO.P,U1,16,VCC*%
%TO.N,VCC*%
X78739999Y-124459999D03*
%TD*%
D15*
%TO.P,U6,1,QB*%
%TO.N,/DATA_BUS_06*%
X226059999Y-132079999D03*
D16*
%TO.P,U6,2,QC*%
%TO.N,/DATA_BUS_05*%
X228599999Y-132079999D03*
%TO.P,U6,3,QD*%
%TO.N,/DATA_BUS_04*%
X231139999Y-132079999D03*
%TO.P,U6,4,QE*%
%TO.N,/DATA_BUS_03*%
X233679999Y-132079999D03*
%TO.P,U6,5,QF*%
%TO.N,/DATA_BUS_02*%
X236219999Y-132079999D03*
%TO.P,U6,6,QG*%
%TO.N,/DATA_BUS_01*%
X238759999Y-132079999D03*
%TO.P,U6,7,QH*%
%TO.N,/DATA_BUS_00*%
X241299999Y-132079999D03*
%TO.P,U6,8,GND*%
%TO.N,GND*%
X243839999Y-132079999D03*
%TO.P,U6,9,QH'*%
%TO.N,unconnected-(U6-QH'-Pad9)*%
X243839999Y-124459999D03*
%TO.P,U6,10,~{SRCLR}*%
%TO.N,VCC*%
X241299999Y-124459999D03*
%TO.P,U6,11,SRCLK*%
%TO.N,/~{BASE CLK}*%
X238759999Y-124459999D03*
%TO.P,U6,12,RCLK*%
%TO.N,/TC*%
X236219999Y-124459999D03*
%TO.P,U6,13,~{OE}*%
%TO.N,/PAD 2 ~{OE}*%
X233679999Y-124459999D03*
%TO.P,U6,14,SER*%
%TO.N,Net-(U5-QH')*%
X231139999Y-124459999D03*
%TO.P,U6,15,QA*%
%TO.N,/DATA_BUS_07*%
X228599999Y-124459999D03*
%TO.P,U6,16,VCC*%
%TO.N,VCC*%
X226059999Y-124459999D03*
%TD*%
D12*
%TO.P,J7,1,Pin_1*%
%TO.N,GND*%
X60959999Y-88899999D03*
D13*
%TO.P,J7,2,Pin_2*%
%TO.N,/PAD 1 DATA*%
X60959999Y-91439999D03*
%TO.P,J7,3,Pin_3*%
%TO.N,/GAMEPAD LATCH*%
X60959999Y-93979999D03*
%TO.P,J7,4,Pin_4*%
%TO.N,/BASE CLK*%
X60959999Y-96519999D03*
%TO.P,J7,5,Pin_5*%
%TO.N,VCC*%
X60959999Y-99059999D03*
%TD*%
D14*
%TO.P,R2,1*%
%TO.N,Net-(D14-A)*%
X158496000Y-68580000D03*
D16*
%TO.P,R2,2*%
%TO.N,VCC*%
X158495999Y-78739999D03*
%TD*%
D14*
%TO.P,R4,1*%
%TO.N,GND*%
X106680000Y-121920000D03*
D16*
%TO.P,R4,2*%
%TO.N,/BASE CLK*%
X106679999Y-111759999D03*
%TD*%
D15*
%TO.P,RN1,1,common*%
%TO.N,GND*%
X195579999Y-71119999D03*
D16*
%TO.P,RN1,2,R1*%
%TO.N,Net-(D9-K)*%
X193039999Y-71119999D03*
%TO.P,RN1,3,R2*%
%TO.N,Net-(D10-K)*%
X190499999Y-71119999D03*
%TO.P,RN1,4,R3*%
%TO.N,Net-(D11-K)*%
X187959999Y-71119999D03*
%TO.P,RN1,5,R4*%
%TO.N,Net-(D12-K)*%
X185419999Y-71119999D03*
%TO.P,RN1,6,R5*%
%TO.N,Net-(RN1-R5)*%
X182879999Y-71119999D03*
%TO.P,RN1,7,R6*%
%TO.N,Net-(RN1-R6)*%
X180339999Y-71119999D03*
%TO.P,RN1,8,R7*%
%TO.N,Net-(RN1-R7)*%
X177799999Y-71119999D03*
%TO.P,RN1,9,R8*%
%TO.N,Net-(RN1-R8)*%
X175259999Y-71119999D03*
%TD*%
D17*
%TO.P,TP1,1,1*%
%TO.N,/GAMEPAD LATCH*%
X76200000Y-86360000D03*
%TD*%
D10*
%TO.P,D7,1,K*%
%TO.N,Net-(D7-K)*%
X213359999Y-63499999D03*
D11*
%TO.P,D7,2,A*%
%TO.N,/PAD 1 LED 6*%
X210820000Y-63500000D03*
%TD*%
D14*
%TO.P,C5,1*%
%TO.N,VCC*%
X187960000Y-124460000D03*
%TO.P,C5,2*%
%TO.N,GND*%
X187960000Y-129460000D03*
%TD*%
D17*
%TO.P,TP6,1,1*%
%TO.N,/~{BASE CLK}*%
X164592000Y-86360000D03*
%TD*%
D14*
%TO.P,R5,1*%
%TO.N,/PAD 1 ADDRD*%
X63500000Y-71896000D03*
D16*
%TO.P,R5,2*%
%TO.N,GND*%
X73659999Y-71895999D03*
%TD*%
D14*
%TO.P,C1,1*%
%TO.N,VCC*%
X73660000Y-124460000D03*
%TO.P,C1,2*%
%TO.N,GND*%
X73660000Y-129460000D03*
%TD*%
D12*
%TO.P,J2,1,VCC*%
%TO.N,VCC*%
X93979999Y-144779999D03*
D13*
%TO.P,J2,2,VCC*%
X91439999Y-144779999D03*
%TO.P,J2,3,GND*%
%TO.N,GND*%
X88899999Y-144779999D03*
%TO.P,J2,4,GND*%
X86359999Y-144779999D03*
%TO.P,J2,5,NC*%
%TO.N,unconnected-(J2-NC-Pad5)*%
X83819999Y-144779999D03*
%TO.P,J2,6,DCLK*%
%TO.N,/DATA_CLK*%
X81279999Y-144779999D03*
%TO.P,J2,7,NC*%
%TO.N,unconnected-(J2-NC-Pad7)*%
X78739999Y-144779999D03*
%TO.P,J2,8,CCLK*%
%TO.N,/CTL_CLK*%
X76199999Y-144779999D03*
%TO.P,J2,9,NC*%
%TO.N,unconnected-(J2-NC-Pad9)*%
X73659999Y-144779999D03*
%TO.P,J2,10,MEM_ACT*%
%TO.N,/MEM_ACTIVE*%
X71119999Y-144779999D03*
%TO.P,J2,11,NC*%
%TO.N,unconnected-(J2-NC-Pad11)*%
X68579999Y-144779999D03*
%TO.P,J2,12,RFM_WTM*%
%TO.N,/RFM_WTM*%
X66039999Y-144779999D03*
%TO.P,J2,13,NC*%
%TO.N,unconnected-(J2-NC-Pad13)*%
X63499999Y-144779999D03*
%TO.P,J2,14,RST*%
%TO.N,/RESET*%
X60959999Y-144779999D03*
%TD*%
D14*
%TO.P,R3,1*%
%TO.N,/~{LED ENABLE}*%
X241300000Y-74930000D03*
D16*
%TO.P,R3,2*%
%TO.N,GND*%
X251459999Y-74929999D03*
%TD*%
D14*
%TO.P,R12,1*%
%TO.N,VCC*%
X175514000Y-123190000D03*
D16*
%TO.P,R12,2*%
%TO.N,/PAD 1 ~{OE}*%
X175513999Y-133349999D03*
%TD*%
D12*
%TO.P,J11,1,Pin_1*%
%TO.N,VCC*%
X241299999Y-79247999D03*
D13*
%TO.P,J11,2,Pin_2*%
%TO.N,/~{LED ENABLE}*%
X241299999Y-81787999D03*
%TO.P,J11,3,Pin_3*%
%TO.N,GND*%
X241299999Y-84327999D03*
%TD*%
D15*
%TO.P,C99,1*%
%TO.N,VCC*%
X60959999Y-134619999D03*
D14*
%TO.P,C99,2*%
%TO.N,GND*%
X58460000Y-134620000D03*
%TD*%
D15*
%TO.P,U13,1,DIR*%
%TO.N,GND*%
X220979999Y-116839999D03*
D16*
%TO.P,U13,2,A1*%
%TO.N,/DATA_BUS_07*%
X223519999Y-116839999D03*
%TO.P,U13,3,A2*%
%TO.N,/DATA_BUS_06*%
X226059999Y-116839999D03*
%TO.P,U13,4,A3*%
%TO.N,/DATA_BUS_05*%
X228599999Y-116839999D03*
%TO.P,U13,5,A3*%
%TO.N,/DATA_BUS_04*%
X231139999Y-116839999D03*
%TO.P,U13,6,A5*%
%TO.N,/DATA_BUS_03*%
X233679999Y-116839999D03*
%TO.P,U13,7,A6*%
%TO.N,/DATA_BUS_02*%
X236219999Y-116839999D03*
%TO.P,U13,8,A7*%
%TO.N,/DATA_BUS_01*%
X238759999Y-116839999D03*
%TO.P,U13,9,A8*%
%TO.N,/DATA_BUS_00*%
X241299999Y-116839999D03*
%TO.P,U13,10,GND*%
%TO.N,GND*%
X243839999Y-116839999D03*
%TO.P,U13,11,B8*%
%TO.N,/PAD 1 SHIFT 00*%
X243839999Y-109219999D03*
%TO.P,U13,12,B7*%
%TO.N,/PAD 1 SHIFT 01*%
X241299999Y-109219999D03*
%TO.P,U13,13,B6*%
%TO.N,/PAD 1 SHIFT 02*%
X238759999Y-109219999D03*
%TO.P,U13,14,B5*%
%TO.N,/PAD 1 SHIFT 03*%
X236219999Y-109219999D03*
%TO.P,U13,15,B4*%
%TO.N,/PAD 1 SHIFT 04*%
X233679999Y-109219999D03*
%TO.P,U13,16,B3*%
%TO.N,/PAD 1 SHIFT 05*%
X231139999Y-109219999D03*
%TO.P,U13,17,B2*%
%TO.N,/PAD 1 SHIFT 06*%
X228599999Y-109219999D03*
%TO.P,U13,18,B1*%
%TO.N,/PAD 1 SHIFT 07*%
X226059999Y-109219999D03*
%TO.P,U13,19,~{OE}*%
%TO.N,/PAD 1 ~{OE}*%
X223519999Y-109219999D03*
%TO.P,U13,20,VCC*%
%TO.N,VCC*%
X220979999Y-109219999D03*
%TD*%
D14*
%TO.P,R1,1*%
%TO.N,Net-(D13-A)*%
X162560000Y-68580000D03*
D16*
%TO.P,R1,2*%
%TO.N,VCC*%
X162559999Y-78739999D03*
%TD*%
D15*
%TO.P,RN2,1,common*%
%TO.N,GND*%
X237489999Y-71119999D03*
D16*
%TO.P,RN2,2,R1*%
%TO.N,Net-(D1-K)*%
X234949999Y-71119999D03*
%TO.P,RN2,3,R2*%
%TO.N,Net-(D2-K)*%
X232409999Y-71119999D03*
%TO.P,RN2,4,R3*%
%TO.N,Net-(D3-K)*%
X229869999Y-71119999D03*
%TO.P,RN2,5,R4*%
%TO.N,Net-(D4-K)*%
X227329999Y-71119999D03*
%TO.P,RN2,6,R5*%
%TO.N,Net-(D5-K)*%
X224789999Y-71119999D03*
%TO.P,RN2,7,R6*%
%TO.N,Net-(D6-K)*%
X222249999Y-71119999D03*
%TO.P,RN2,8,R7*%
%TO.N,Net-(D7-K)*%
X219709999Y-71119999D03*
%TO.P,RN2,9,R8*%
%TO.N,Net-(D8-K)*%
X217169999Y-71119999D03*
%TD*%
D15*
%TO.P,U9,1,~{MR}*%
%TO.N,VCC*%
X78739999Y-101599999D03*
D16*
%TO.P,U9,2,CP*%
%TO.N,/BASE CLK*%
X81279999Y-101599999D03*
%TO.P,U9,3,P0*%
%TO.N,GND*%
X83819999Y-101599999D03*
%TO.P,U9,4,P1*%
X86359999Y-101599999D03*
%TO.P,U9,5,P2*%
X88899999Y-101599999D03*
%TO.P,U9,6,P3*%
X91439999Y-101599999D03*
%TO.P,U9,7,PE*%
%TO.N,VCC*%
X93979999Y-101599999D03*
%TO.P,U9,8,GND*%
%TO.N,GND*%
X96519999Y-101599999D03*
%TO.P,U9,9,~{SPE}*%
%TO.N,VCC*%
X96519999Y-93979999D03*
%TO.P,U9,10,TE*%
X93979999Y-93979999D03*
%TO.P,U9,11,Q3*%
%TO.N,unconnected-(U9-Q3-Pad11)*%
X91439999Y-93979999D03*
%TO.P,U9,12,Q2*%
%TO.N,unconnected-(U9-Q2-Pad12)*%
X88899999Y-93979999D03*
%TO.P,U9,13,Q1*%
%TO.N,unconnected-(U9-Q1-Pad13)*%
X86359999Y-93979999D03*
%TO.P,U9,14,Q0*%
%TO.N,unconnected-(U9-Q0-Pad14)*%
X83819999Y-93979999D03*
%TO.P,U9,15,TC*%
%TO.N,/TC*%
X81279999Y-93979999D03*
%TO.P,U9,16,VCC*%
%TO.N,VCC*%
X78739999Y-93979999D03*
%TD*%
D17*
%TO.P,TP2,1,1*%
%TO.N,/PAD 1 DATA*%
X92456000Y-86360000D03*
%TD*%
D14*
%TO.P,R11,1*%
%TO.N,VCC*%
X181610000Y-123190000D03*
D16*
%TO.P,R11,2*%
%TO.N,/PAD 2 ~{OE}*%
X181609999Y-133349999D03*
%TD*%
D10*
%TO.P,D4,1,K*%
%TO.N,Net-(D4-K)*%
X232409999Y-63499999D03*
D11*
%TO.P,D4,2,A*%
%TO.N,/PAD 1 LED 3*%
X229870000Y-63500000D03*
%TD*%
D10*
%TO.P,D6,1,K*%
%TO.N,Net-(D6-K)*%
X219709999Y-63499999D03*
D11*
%TO.P,D6,2,A*%
%TO.N,/PAD 1 LED 5*%
X217170000Y-63500000D03*
%TD*%
D15*
%TO.P,U3,1,QB*%
%TO.N,/PAD 1 SHIFT 14*%
X193039999Y-101599999D03*
D16*
%TO.P,U3,2,QC*%
%TO.N,/PAD 1 SHIFT 13*%
X195579999Y-101599999D03*
%TO.P,U3,3,QD*%
%TO.N,/PAD 1 SHIFT 12*%
X198119999Y-101599999D03*
%TO.P,U3,4,QE*%
%TO.N,/PAD 1 SHIFT 11*%
X200659999Y-101599999D03*
%TO.P,U3,5,QF*%
%TO.N,/PAD 1 SHIFT 10*%
X203199999Y-101599999D03*
%TO.P,U3,6,QG*%
%TO.N,/PAD 1 SHIFT 09*%
X205739999Y-101599999D03*
%TO.P,U3,7,QH*%
%TO.N,/PAD 1 SHIFT 08*%
X208279999Y-101599999D03*
%TO.P,U3,8,GND*%
%TO.N,GND*%
X210819999Y-101599999D03*
%TO.P,U3,9,QH'*%
%TO.N,Net-(U3-QH')*%
X210819999Y-93979999D03*
%TO.P,U3,10,~{SRCLR}*%
%TO.N,VCC*%
X208279999Y-93979999D03*
%TO.P,U3,11,SRCLK*%
%TO.N,/~{BASE CLK}*%
X205739999Y-93979999D03*
%TO.P,U3,12,RCLK*%
%TO.N,/TC*%
X203199999Y-93979999D03*
%TO.P,U3,13,~{OE}*%
%TO.N,GND*%
X200659999Y-93979999D03*
%TO.P,U3,14,SER*%
%TO.N,Net-(U3-SER)*%
X198119999Y-93979999D03*
%TO.P,U3,15,QA*%
%TO.N,/PAD 1 SHIFT 15*%
X195579999Y-93979999D03*
%TO.P,U3,16,VCC*%
%TO.N,VCC*%
X193039999Y-93979999D03*
%TD*%
D12*
%TO.P,J4,1,Pin_1*%
%TO.N,/PAD 1 ADDRD*%
X60959999Y-66039999D03*
D13*
%TO.P,J4,2,Pin_2*%
X60959999Y-68579999D03*
%TD*%
D14*
%TO.P,C4,1*%
%TO.N,VCC*%
X220980000Y-93980000D03*
%TO.P,C4,2*%
%TO.N,GND*%
X220980000Y-98980000D03*
%TD*%
D15*
%TO.P,U4,1,QB*%
%TO.N,/PAD 1 SHIFT 06*%
X226059999Y-101599999D03*
D16*
%TO.P,U4,2,QC*%
%TO.N,/PAD 1 SHIFT 05*%
X228599999Y-101599999D03*
%TO.P,U4,3,QD*%
%TO.N,/PAD 1 SHIFT 04*%
X231139999Y-101599999D03*
%TO.P,U4,4,QE*%
%TO.N,/PAD 1 SHIFT 03*%
X233679999Y-101599999D03*
%TO.P,U4,5,QF*%
%TO.N,/PAD 1 SHIFT 02*%
X236219999Y-101599999D03*
%TO.P,U4,6,QG*%
%TO.N,/PAD 1 SHIFT 01*%
X238759999Y-101599999D03*
%TO.P,U4,7,QH*%
%TO.N,/PAD 1 SHIFT 00*%
X241299999Y-101599999D03*
%TO.P,U4,8,GND*%
%TO.N,GND*%
X243839999Y-101599999D03*
%TO.P,U4,9,QH'*%
%TO.N,unconnected-(U4-QH'-Pad9)*%
X243839999Y-93979999D03*
%TO.P,U4,10,~{SRCLR}*%
%TO.N,VCC*%
X241299999Y-93979999D03*
%TO.P,U4,11,SRCLK*%
%TO.N,/~{BASE CLK}*%
X238759999Y-93979999D03*
%TO.P,U4,12,RCLK*%
%TO.N,/TC*%
X236219999Y-93979999D03*
%TO.P,U4,13,~{OE}*%
%TO.N,GND*%
X233679999Y-93979999D03*
%TO.P,U4,14,SER*%
%TO.N,Net-(U3-QH')*%
X231139999Y-93979999D03*
%TO.P,U4,15,QA*%
%TO.N,/PAD 1 SHIFT 07*%
X228599999Y-93979999D03*
%TO.P,U4,16,VCC*%
%TO.N,VCC*%
X226059999Y-93979999D03*
%TD*%
D14*
%TO.P,C16,1*%
%TO.N,GND*%
X168910000Y-73740000D03*
%TO.P,C16,2*%
%TO.N,VCC*%
X168910000Y-78740000D03*
%TD*%
D15*
%TO.P,U10,1,DIR*%
%TO.N,VCC*%
X172719999Y-86359999D03*
D16*
%TO.P,U10,2,A1*%
%TO.N,Net-(RN1-R8)*%
X175259999Y-86359999D03*
%TO.P,U10,3,A2*%
%TO.N,Net-(RN1-R7)*%
X177799999Y-86359999D03*
%TO.P,U10,4,A3*%
%TO.N,/PAD 1 ~{OE}*%
X180339999Y-86359999D03*
%TO.P,U10,5,A3*%
%TO.N,/PAD 2 ~{OE}*%
X182879999Y-86359999D03*
%TO.P,U10,6,A5*%
%TO.N,/PAD 1 SHIFT 11*%
X185419999Y-86359999D03*
%TO.P,U10,7,A6*%
%TO.N,/PAD 1 SHIFT 10*%
X187959999Y-86359999D03*
%TO.P,U10,8,A7*%
%TO.N,/PAD 1 SHIFT 09*%
X190499999Y-86359999D03*
%TO.P,U10,9,A8*%
%TO.N,/PAD 1 SHIFT 08*%
X193039999Y-86359999D03*
%TO.P,U10,10,GND*%
%TO.N,GND*%
X195579999Y-86359999D03*
%TO.P,U10,11,B8*%
%TO.N,/PAD 1 LED 8*%
X195579999Y-78739999D03*
%TO.P,U10,12,B7*%
%TO.N,/PAD 1 LED 9*%
X193039999Y-78739999D03*
%TO.P,U10,13,B6*%
%TO.N,/PAD 1 LED 10*%
X190499999Y-78739999D03*
%TO.P,U10,14,B5*%
%TO.N,/PAD 1 LED 11*%
X187959999Y-78739999D03*
%TO.P,U10,15,B4*%
%TO.N,/~{PAD 2 OE LED}*%
X185419999Y-78739999D03*
%TO.P,U10,16,B3*%
%TO.N,/~{PAD 1 OE LED}*%
X182879999Y-78739999D03*
%TO.P,U10,17,B2*%
%TO.N,Net-(RN1-R5)*%
X180339999Y-78739999D03*
%TO.P,U10,18,B1*%
%TO.N,Net-(RN1-R6)*%
X177799999Y-78739999D03*
%TO.P,U10,19,~{OE}*%
%TO.N,/~{LED ENABLE}*%
X175259999Y-78739999D03*
%TO.P,U10,20,VCC*%
%TO.N,VCC*%
X172719999Y-78739999D03*
%TD*%
D12*
%TO.P,J6,1,Pin_1*%
%TO.N,/CTL_CLK*%
X81279999Y-114299999D03*
D13*
%TO.P,J6,2,Pin_2*%
%TO.N,/BASE CLK*%
X81279999Y-111759999D03*
%TO.P,J6,3,Pin_3*%
%TO.N,/CLK DIV 2*%
X83819999Y-114299999D03*
%TO.P,J6,4,Pin_4*%
%TO.N,/BASE CLK*%
X83819999Y-111759999D03*
%TO.P,J6,5,Pin_5*%
%TO.N,/CLK DIV 4*%
X86359999Y-114299999D03*
%TO.P,J6,6,Pin_6*%
%TO.N,/BASE CLK*%
X86359999Y-111759999D03*
%TO.P,J6,7,Pin_7*%
%TO.N,/CLK DIV 8*%
X88899999Y-114299999D03*
%TO.P,J6,8,Pin_8*%
%TO.N,/BASE CLK*%
X88899999Y-111759999D03*
%TO.P,J6,9,Pin_9*%
%TO.N,/CLK DIV 16*%
X91439999Y-114299999D03*
%TO.P,J6,10,Pin_10*%
%TO.N,/BASE CLK*%
X91439999Y-111759999D03*
%TD*%
D14*
%TO.P,C10,1*%
%TO.N,Net-(U2A-RCext)*%
X119380000Y-81534000D03*
%TO.P,C10,2*%
%TO.N,GND*%
X124380000Y-81534000D03*
%TD*%
D17*
%TO.P,TP4,1,1*%
%TO.N,/TC*%
X150876000Y-86360000D03*
%TD*%
D14*
%TO.P,C9,1*%
%TO.N,VCC*%
X73660000Y-93980000D03*
%TO.P,C9,2*%
%TO.N,GND*%
X73660000Y-98980000D03*
%TD*%
D12*
%TO.P,J5,1,Pin_1*%
%TO.N,/PAD 2 ADDRD*%
X60959999Y-78739999D03*
D13*
%TO.P,J5,2,Pin_2*%
X60959999Y-81279999D03*
%TD*%
D14*
%TO.P,C13,1*%
%TO.N,VCC*%
X215900000Y-109220000D03*
%TO.P,C13,2*%
%TO.N,GND*%
X215900000Y-114220000D03*
%TD*%
%TO.P,C15,1*%
%TO.N,GND*%
X205994000Y-73486000D03*
%TO.P,C15,2*%
%TO.N,VCC*%
X205994000Y-78486000D03*
%TD*%
D18*
%TO.P,J8,1,Pin_1*%
%TO.N,GND*%
X98270000Y-64516000D03*
%TO.P,J8,2,Pin_2*%
%TO.N,unconnected-(J8-Pin_2-Pad2)*%
X94220000Y-64516000D03*
%TO.P,J8,3,Pin_3*%
%TO.N,unconnected-(J8-Pin_3-Pad3)*%
X90170000Y-64516000D03*
%TO.P,J8,4,Pin_4*%
%TO.N,/PAD 1 DATA*%
X83770000Y-64516000D03*
%TO.P,J8,5,Pin_5*%
%TO.N,/GAMEPAD LATCH*%
X79786666Y-64516000D03*
%TO.P,J8,6,Pin_6*%
%TO.N,/BASE CLK*%
X75803333Y-64516000D03*
%TO.P,J8,7,Pin_7*%
%TO.N,VCC*%
X71820000Y-64516000D03*
%TD*%
D17*
%TO.P,TP3,1,1*%
%TO.N,GND*%
X136144000Y-86360000D03*
%TD*%
D10*
%TO.P,D5,1,K*%
%TO.N,Net-(D5-K)*%
X226059999Y-63499999D03*
D11*
%TO.P,D5,2,A*%
%TO.N,/PAD 1 LED 4*%
X223520000Y-63500000D03*
%TD*%
D14*
%TO.P,C12,1*%
%TO.N,VCC*%
X182880000Y-109220000D03*
%TO.P,C12,2*%
%TO.N,GND*%
X182880000Y-114220000D03*
%TD*%
D10*
%TO.P,D10,1,K*%
%TO.N,Net-(D10-K)*%
X194309999Y-63499999D03*
D11*
%TO.P,D10,2,A*%
%TO.N,/PAD 1 LED 9*%
X191770000Y-63500000D03*
%TD*%
D10*
%TO.P,D12,1,K*%
%TO.N,Net-(D12-K)*%
X181609999Y-63499999D03*
D11*
%TO.P,D12,2,A*%
%TO.N,/PAD 1 LED 11*%
X179070000Y-63500000D03*
%TD*%
D15*
%TO.P,U8,1*%
%TO.N,/PAD 2 ADDRD*%
X152399999Y-132079999D03*
D16*
%TO.P,U8,2*%
%TO.N,/MEMACTIVE_RFM*%
X154939999Y-132079999D03*
%TO.P,U8,3*%
%TO.N,/PAD 2 ~{OE}*%
X157479999Y-132079999D03*
%TO.P,U8,4*%
%TO.N,/MEMACTIVE_RFM*%
X160019999Y-132079999D03*
%TO.P,U8,5*%
%TO.N,/PAD 1 ADDRD*%
X162559999Y-132079999D03*
%TO.P,U8,6*%
%TO.N,/PAD 1 ~{OE}*%
X165099999Y-132079999D03*
%TO.P,U8,7,GND*%
%TO.N,GND*%
X167639999Y-132079999D03*
%TO.P,U8,8*%
%TO.N,unconnected-(U8-Pad8)*%
X167639999Y-124459999D03*
%TO.P,U8,9*%
%TO.N,GND*%
X165099999Y-124459999D03*
%TO.P,U8,10*%
X162559999Y-124459999D03*
%TO.P,U8,11*%
%TO.N,Net-(U14-Pad3)*%
X160019999Y-124459999D03*
%TO.P,U8,12*%
%TO.N,Net-(U14-Pad2)*%
X157479999Y-124459999D03*
%TO.P,U8,13*%
%TO.N,/MEM_ACTIVE*%
X154939999Y-124459999D03*
%TO.P,U8,14,VCC*%
%TO.N,VCC*%
X152399999Y-124459999D03*
%TD*%
D15*
%TO.P,C98,1*%
%TO.N,VCC*%
X217383999Y-132079999D03*
D14*
%TO.P,C98,2*%
%TO.N,GND*%
X214884000Y-132080000D03*
%TD*%
D15*
%TO.P,U2,1,A*%
%TO.N,GND*%
X116839999Y-101599999D03*
D16*
%TO.P,U2,2,B*%
%TO.N,/TC*%
X119379999Y-101599999D03*
%TO.P,U2,3,Clr*%
%TO.N,VCC*%
X121919999Y-101599999D03*
%TO.P,U2,4,~{Q}*%
%TO.N,unconnected-(U2A-~{Q}-Pad4)*%
X124459999Y-101599999D03*
%TO.P,U2,5,Q*%
%TO.N,unconnected-(U2B-Q-Pad5)*%
X126999999Y-101599999D03*
%TO.P,U2,6,Cext*%
%TO.N,GND*%
X129539999Y-101599999D03*
%TO.P,U2,7,RCext*%
%TO.N,Net-(U2B-RCext)*%
X132079999Y-101599999D03*
%TO.P,U2,8,GND*%
%TO.N,GND*%
X134619999Y-101599999D03*
%TO.P,U2,9,A*%
X134619999Y-93979999D03*
%TO.P,U2,10,B*%
X132079999Y-93979999D03*
%TO.P,U2,11,Clr*%
%TO.N,VCC*%
X129539999Y-93979999D03*
%TO.P,U2,12,~{Q}*%
%TO.N,unconnected-(U2B-~{Q}-Pad12)*%
X126999999Y-93979999D03*
%TO.P,U2,13,Q*%
%TO.N,/GAMEPAD LATCH*%
X124459999Y-93979999D03*
%TO.P,U2,14,Cext*%
%TO.N,GND*%
X121919999Y-93979999D03*
%TO.P,U2,15,RCext*%
%TO.N,Net-(U2A-RCext)*%
X119379999Y-93979999D03*
%TO.P,U2,16,VCC*%
%TO.N,VCC*%
X116839999Y-93979999D03*
%TD*%
D10*
%TO.P,D3,1,K*%
%TO.N,Net-(D3-K)*%
X238759999Y-63499999D03*
D11*
%TO.P,D3,2,A*%
%TO.N,/PAD 1 LED 2*%
X236220000Y-63500000D03*
%TD*%
D12*
%TO.P,J9,1,Pin_1*%
%TO.N,GND*%
X60959999Y-109219999D03*
D13*
%TO.P,J9,2,Pin_2*%
%TO.N,/PAD 2 DATA*%
X60959999Y-111759999D03*
%TO.P,J9,3,Pin_3*%
%TO.N,/GAMEPAD LATCH*%
X60959999Y-114299999D03*
%TO.P,J9,4,Pin_4*%
%TO.N,/BASE CLK*%
X60959999Y-116839999D03*
%TO.P,J9,5,Pin_5*%
%TO.N,VCC*%
X60959999Y-119379999D03*
%TD*%
D10*
%TO.P,D14,1,K*%
%TO.N,/~{PAD 1 OE LED}*%
X162559999Y-63499999D03*
D11*
%TO.P,D14,2,A*%
%TO.N,Net-(D14-A)*%
X160020000Y-63500000D03*
%TD*%
D18*
%TO.P,J10,1,Pin_1*%
%TO.N,GND*%
X146530000Y-64516000D03*
%TO.P,J10,2,Pin_2*%
%TO.N,unconnected-(J10-Pin_2-Pad2)*%
X142480000Y-64516000D03*
%TO.P,J10,3,Pin_3*%
%TO.N,unconnected-(J10-Pin_3-Pad3)*%
X138430000Y-64516000D03*
%TO.P,J10,4,Pin_4*%
%TO.N,/PAD 2 DATA*%
X132030000Y-64516000D03*
%TO.P,J10,5,Pin_5*%
%TO.N,/GAMEPAD LATCH*%
X128046666Y-64516000D03*
%TO.P,J10,6,Pin_6*%
%TO.N,/BASE CLK*%
X124063333Y-64516000D03*
%TO.P,J10,7,Pin_7*%
%TO.N,VCC*%
X120080000Y-64516000D03*
%TD*%
D14*
%TO.P,R8,1*%
%TO.N,VCC*%
X121412000Y-74168000D03*
D16*
%TO.P,R8,2*%
%TO.N,/PAD 2 DATA*%
X131571999Y-74167999D03*
%TD*%
D17*
%TO.P,TP5,1,1*%
%TO.N,/BASE CLK*%
X107442000Y-86360000D03*
%TD*%
D14*
%TO.P,R10,1*%
%TO.N,Net-(U2B-RCext)*%
X132080000Y-106680000D03*
D16*
%TO.P,R10,2*%
%TO.N,VCC*%
X121919999Y-106679999D03*
%TD*%
D14*
%TO.P,C11,1*%
%TO.N,Net-(U2B-RCext)*%
X132080000Y-110490000D03*
%TO.P,C11,2*%
%TO.N,GND*%
X137080000Y-110490000D03*
%TD*%
%TO.P,R7,1*%
%TO.N,VCC*%
X101854000Y-70612000D03*
D16*
%TO.P,R7,2*%
%TO.N,/PAD 1 DATA*%
X91693999Y-70611999D03*
%TD*%
D10*
%TO.P,D2,1,K*%
%TO.N,Net-(D2-K)*%
X245109999Y-63499999D03*
D11*
%TO.P,D2,2,A*%
%TO.N,/PAD 1 LED 1*%
X242570000Y-63500000D03*
%TD*%
D15*
%TO.P,U5,1,QB*%
%TO.N,/DATA_BUS_14*%
X193039999Y-132079999D03*
D16*
%TO.P,U5,2,QC*%
%TO.N,/DATA_BUS_13*%
X195579999Y-132079999D03*
%TO.P,U5,3,QD*%
%TO.N,/DATA_BUS_12*%
X198119999Y-132079999D03*
%TO.P,U5,4,QE*%
%TO.N,/DATA_BUS_11*%
X200659999Y-132079999D03*
%TO.P,U5,5,QF*%
%TO.N,/DATA_BUS_10*%
X203199999Y-132079999D03*
%TO.P,U5,6,QG*%
%TO.N,/DATA_BUS_09*%
X205739999Y-132079999D03*
%TO.P,U5,7,QH*%
%TO.N,/DATA_BUS_08*%
X208279999Y-132079999D03*
%TO.P,U5,8,GND*%
%TO.N,GND*%
X210819999Y-132079999D03*
%TO.P,U5,9,QH'*%
%TO.N,Net-(U5-QH')*%
X210819999Y-124459999D03*
%TO.P,U5,10,~{SRCLR}*%
%TO.N,VCC*%
X208279999Y-124459999D03*
%TO.P,U5,11,SRCLK*%
%TO.N,/~{BASE CLK}*%
X205739999Y-124459999D03*
%TO.P,U5,12,RCLK*%
%TO.N,/TC*%
X203199999Y-124459999D03*
%TO.P,U5,13,~{OE}*%
%TO.N,/PAD 2 ~{OE}*%
X200659999Y-124459999D03*
%TO.P,U5,14,SER*%
%TO.N,Net-(U5-SER)*%
X198119999Y-124459999D03*
%TO.P,U5,15,QA*%
%TO.N,/DATA_BUS_15*%
X195579999Y-124459999D03*
%TO.P,U5,16,VCC*%
%TO.N,VCC*%
X193039999Y-124459999D03*
%TD*%
D12*
%TO.P,J1,1,D_00*%
%TO.N,/DATA_BUS_00*%
X243839999Y-144779999D03*
D13*
%TO.P,J1,2,D_01*%
%TO.N,/DATA_BUS_01*%
X241299999Y-144779999D03*
%TO.P,J1,3,D_02*%
%TO.N,/DATA_BUS_02*%
X238759999Y-144779999D03*
%TO.P,J1,4,D_03*%
%TO.N,/DATA_BUS_03*%
X236219999Y-144779999D03*
%TO.P,J1,5,D_04*%
%TO.N,/DATA_BUS_04*%
X233679999Y-144779999D03*
%TO.P,J1,6,D_05*%
%TO.N,/DATA_BUS_05*%
X231139999Y-144779999D03*
%TO.P,J1,7,D_06*%
%TO.N,/DATA_BUS_06*%
X228599999Y-144779999D03*
%TO.P,J1,8,D_07*%
%TO.N,/DATA_BUS_07*%
X226059999Y-144779999D03*
%TO.P,J1,9,D_08*%
%TO.N,/DATA_BUS_08*%
X223519999Y-144779999D03*
%TO.P,J1,10,D_09*%
%TO.N,/DATA_BUS_09*%
X220979999Y-144779999D03*
%TO.P,J1,11,D_10*%
%TO.N,/DATA_BUS_10*%
X218439999Y-144779999D03*
%TO.P,J1,12,D_11*%
%TO.N,/DATA_BUS_11*%
X215899999Y-144779999D03*
%TO.P,J1,13,D_12*%
%TO.N,/DATA_BUS_12*%
X213359999Y-144779999D03*
%TO.P,J1,14,D_13*%
%TO.N,/DATA_BUS_13*%
X210819999Y-144779999D03*
%TO.P,J1,15,D_14*%
%TO.N,/DATA_BUS_14*%
X208279999Y-144779999D03*
%TO.P,J1,16,D_15*%
%TO.N,/DATA_BUS_15*%
X205739999Y-144779999D03*
%TO.P,J1,17,A_00*%
%TO.N,unconnected-(J1-A_00-Pad17)*%
X203199999Y-144779999D03*
%TO.P,J1,18,A_01*%
%TO.N,unconnected-(J1-A_01-Pad18)*%
X200659999Y-144779999D03*
%TO.P,J1,19,A_02*%
%TO.N,unconnected-(J1-A_02-Pad19)*%
X198119999Y-144779999D03*
%TO.P,J1,20,A_03*%
%TO.N,unconnected-(J1-A_03-Pad20)*%
X195579999Y-144779999D03*
%TO.P,J1,21,A_04*%
%TO.N,unconnected-(J1-A_04-Pad21)*%
X193039999Y-144779999D03*
%TO.P,J1,22,A_05*%
%TO.N,unconnected-(J1-A_05-Pad22)*%
X190499999Y-144779999D03*
%TO.P,J1,23,A_06*%
%TO.N,unconnected-(J1-A_06-Pad23)*%
X187959999Y-144779999D03*
%TO.P,J1,24,A_07*%
%TO.N,unconnected-(J1-A_07-Pad24)*%
X185419999Y-144779999D03*
%TO.P,J1,25,A_08*%
%TO.N,unconnected-(J1-A_08-Pad25)*%
X182879999Y-144779999D03*
%TO.P,J1,26,A_09*%
%TO.N,unconnected-(J1-A_09-Pad26)*%
X180339999Y-144779999D03*
%TO.P,J1,27,A_10*%
%TO.N,unconnected-(J1-A_10-Pad27)*%
X177799999Y-144779999D03*
%TO.P,J1,28,A_11*%
%TO.N,unconnected-(J1-A_11-Pad28)*%
X175259999Y-144779999D03*
%TO.P,J1,29,A_12*%
%TO.N,unconnected-(J1-A_12-Pad29)*%
X172719999Y-144779999D03*
%TO.P,J1,30,A_13*%
%TO.N,unconnected-(J1-A_13-Pad30)*%
X170179999Y-144779999D03*
%TO.P,J1,31,A_14*%
%TO.N,unconnected-(J1-A_14-Pad31)*%
X167639999Y-144779999D03*
%TO.P,J1,32,A_15*%
%TO.N,unconnected-(J1-A_15-Pad32)*%
X165099999Y-144779999D03*
%TD*%
D10*
%TO.P,D11,1,K*%
%TO.N,Net-(D11-K)*%
X187959999Y-63499999D03*
D11*
%TO.P,D11,2,A*%
%TO.N,/PAD 1 LED 10*%
X185420000Y-63500000D03*
%TD*%
D14*
%TO.P,C6,1*%
%TO.N,VCC*%
X220980000Y-124460000D03*
%TO.P,C6,2*%
%TO.N,GND*%
X220980000Y-129460000D03*
%TD*%
D15*
%TO.P,U14,1*%
%TO.N,/RFM_WTM*%
X116839999Y-132079999D03*
D16*
%TO.P,U14,2*%
%TO.N,Net-(U14-Pad2)*%
X119379999Y-132079999D03*
%TO.P,U14,3*%
%TO.N,Net-(U14-Pad3)*%
X121919999Y-132079999D03*
%TO.P,U14,4*%
%TO.N,/MEMACTIVE_RFM*%
X124459999Y-132079999D03*
%TO.P,U14,5*%
%TO.N,GND*%
X126999999Y-132079999D03*
%TO.P,U14,6*%
%TO.N,unconnected-(U14-Pad6)*%
X129539999Y-132079999D03*
%TO.P,U14,7,GND*%
%TO.N,GND*%
X132079999Y-132079999D03*
%TO.P,U14,8*%
%TO.N,Net-(U5-SER)*%
X132079999Y-124459999D03*
%TO.P,U14,9*%
%TO.N,/PAD 2 DATA*%
X129539999Y-124459999D03*
%TO.P,U14,10*%
%TO.N,Net-(U3-SER)*%
X126999999Y-124459999D03*
%TO.P,U14,11*%
%TO.N,/PAD 1 DATA*%
X124459999Y-124459999D03*
%TO.P,U14,12*%
%TO.N,/~{BASE CLK}*%
X121919999Y-124459999D03*
%TO.P,U14,13*%
%TO.N,/BASE CLK*%
X119379999Y-124459999D03*
%TO.P,U14,14,VCC*%
%TO.N,VCC*%
X116839999Y-124459999D03*
%TD*%
D14*
%TO.P,R9,1*%
%TO.N,Net-(U2A-RCext)*%
X119380000Y-87376000D03*
D16*
%TO.P,R9,2*%
%TO.N,VCC*%
X129539999Y-87375999D03*
%TD*%
D15*
%TO.P,U12,1,DIR*%
%TO.N,GND*%
X187959999Y-116839999D03*
D16*
%TO.P,U12,2,A1*%
%TO.N,/DATA_BUS_15*%
X190499999Y-116839999D03*
%TO.P,U12,3,A2*%
%TO.N,/DATA_BUS_14*%
X193039999Y-116839999D03*
%TO.P,U12,4,A3*%
%TO.N,/DATA_BUS_13*%
X195579999Y-116839999D03*
%TO.P,U12,5,A3*%
%TO.N,/DATA_BUS_12*%
X198119999Y-116839999D03*
%TO.P,U12,6,A5*%
%TO.N,/DATA_BUS_11*%
X200659999Y-116839999D03*
%TO.P,U12,7,A6*%
%TO.N,/DATA_BUS_10*%
X203199999Y-116839999D03*
%TO.P,U12,8,A7*%
%TO.N,/DATA_BUS_09*%
X205739999Y-116839999D03*
%TO.P,U12,9,A8*%
%TO.N,/DATA_BUS_08*%
X208279999Y-116839999D03*
%TO.P,U12,10,GND*%
%TO.N,GND*%
X210819999Y-116839999D03*
%TO.P,U12,11,B8*%
%TO.N,/PAD 1 SHIFT 08*%
X210819999Y-109219999D03*
%TO.P,U12,12,B7*%
%TO.N,/PAD 1 SHIFT 09*%
X208279999Y-109219999D03*
%TO.P,U12,13,B6*%
%TO.N,/PAD 1 SHIFT 10*%
X205739999Y-109219999D03*
%TO.P,U12,14,B5*%
%TO.N,/PAD 1 SHIFT 11*%
X203199999Y-109219999D03*
%TO.P,U12,15,B4*%
%TO.N,/PAD 1 SHIFT 12*%
X200659999Y-109219999D03*
%TO.P,U12,16,B3*%
%TO.N,/PAD 1 SHIFT 13*%
X198119999Y-109219999D03*
%TO.P,U12,17,B2*%
%TO.N,/PAD 1 SHIFT 14*%
X195579999Y-109219999D03*
%TO.P,U12,18,B1*%
%TO.N,/PAD 1 SHIFT 15*%
X193039999Y-109219999D03*
%TO.P,U12,19,~{OE}*%
%TO.N,/PAD 1 ~{OE}*%
X190499999Y-109219999D03*
%TO.P,U12,20,VCC*%
%TO.N,VCC*%
X187959999Y-109219999D03*
%TD*%
D14*
%TO.P,R6,1*%
%TO.N,/PAD 2 ADDRD*%
X63500000Y-75438000D03*
D16*
%TO.P,R6,2*%
%TO.N,GND*%
X73659999Y-75437999D03*
%TD*%
D10*
%TO.P,D1,1,K*%
%TO.N,Net-(D1-K)*%
X251459999Y-63499999D03*
D11*
%TO.P,D1,2,A*%
%TO.N,/PAD 1 LED 0*%
X248920000Y-63500000D03*
%TD*%
D19*
%TO.N,VCC*%
X208280000Y-96774000D03*
X219202000Y-96012000D03*
X214122000Y-126492000D03*
X187452000Y-126492000D03*
X220218000Y-126492000D03*
X188976000Y-126492000D03*
X220726000Y-96012000D03*
X212598000Y-126492000D03*
X194564000Y-96774000D03*
X114300000Y-98298000D03*
X214122000Y-96774000D03*
X212598000Y-96774000D03*
X193040000Y-96774000D03*
X221742000Y-126492000D03*
X210820000Y-82550000D03*
X242062000Y-91186000D03*
%TO.N,/DATA_BUS_07*%
X223520000Y-122174000D03*
X228600000Y-122174000D03*
%TO.N,/DATA_BUS_15*%
X190500000Y-122682000D03*
X195580000Y-122682000D03*
%TO.N,/GAMEPAD LATCH*%
X79756000Y-56642000D03*
%TO.N,/CTL_CLK*%
X82550000Y-127508000D03*
X81280000Y-135636000D03*
X82550000Y-122682000D03*
%TO.N,/MEM_ACTIVE*%
X142240000Y-130302000D03*
X75184000Y-141478000D03*
X142240000Y-133350000D03*
X142240000Y-141478000D03*
X92710000Y-141478000D03*
X77216000Y-141478000D03*
X142240000Y-125222000D03*
X95250000Y-141478000D03*
%TO.N,/~{PAD 1 OE LED}*%
X171450000Y-64770000D03*
X171450000Y-61722000D03*
%TO.N,/BASE CLK*%
X115681333Y-72898000D03*
X75692000Y-58674000D03*
X74930000Y-111760000D03*
%TO.N,/PAD 1 DATA*%
X64262000Y-91440000D03*
X105664000Y-94488000D03*
X71882000Y-91440000D03*
X124460000Y-112014000D03*
X124460000Y-117856000D03*
X105664000Y-98298000D03*
%TO.N,/PAD 2 DATA*%
X129540000Y-117856000D03*
X80010000Y-103632000D03*
X64262000Y-111760000D03*
X129540000Y-113284000D03*
X137668000Y-94488000D03*
X77470000Y-103632000D03*
X137668000Y-98806000D03*
X82550000Y-103632000D03*
X74930000Y-103632000D03*
%TO.N,/~{LED ENABLE}*%
X239014000Y-77470000D03*
X175260000Y-81788000D03*
X213360000Y-81788000D03*
X207772000Y-78740000D03*
X239014000Y-81788000D03*
X207772000Y-81788000D03*
%TO.N,Net-(U3-QH')*%
X216916000Y-97790000D03*
%TO.N,Net-(U3-SER)*%
X174244000Y-98806000D03*
X190500000Y-103378000D03*
X196850000Y-103378000D03*
X130810000Y-120650000D03*
X169926000Y-98806000D03*
%TO.N,/PAD 1 SHIFT 07*%
X218186000Y-97028000D03*
X224028000Y-88138000D03*
X215138000Y-88138000D03*
%TO.N,Net-(U5-QH')*%
X222758000Y-121412000D03*
X231140000Y-122174000D03*
%TO.N,/PAD 2 ~{OE}*%
X222758000Y-118618000D03*
X233680000Y-118618000D03*
X209550000Y-122682000D03*
X189738000Y-127508000D03*
X174244000Y-94488000D03*
X171450000Y-97282000D03*
X200660000Y-127508000D03*
%TO.N,Net-(U5-SER)*%
X174244000Y-116586000D03*
X168656000Y-116586000D03*
%TO.N,/~{BASE CLK}*%
X166878000Y-100076000D03*
X241300000Y-126238000D03*
X174244000Y-100076000D03*
X207010000Y-113792000D03*
X205740000Y-87122000D03*
X190500000Y-104648000D03*
X158496000Y-94234000D03*
X238760000Y-126238000D03*
X204470000Y-103378000D03*
X207010000Y-107696000D03*
X158496000Y-97790000D03*
%TO.N,/PAD 1 ~{OE}*%
X169926000Y-127254000D03*
X180340000Y-93472000D03*
X190500000Y-112268000D03*
X174244000Y-112522000D03*
X169926000Y-129540000D03*
X180340000Y-101600000D03*
X169926000Y-112522000D03*
%TO.N,/RFM_WTM*%
X104775000Y-136017000D03*
X98044000Y-142748000D03*
%TO.N,/MEMACTIVE_RFM*%
X151384000Y-134366000D03*
%TO.N,Net-(RN1-R5)*%
X183388000Y-75438000D03*
%TO.N,Net-(RN1-R6)*%
X180848000Y-75438000D03*
%TO.N,Net-(RN1-R7)*%
X170688000Y-89154000D03*
%TO.N,Net-(RN1-R8)*%
X170688000Y-87884000D03*
%TO.N,/TC*%
X139446000Y-94488000D03*
X139446000Y-97282000D03*
X240030000Y-91186000D03*
X204470000Y-107696000D03*
X238760000Y-95758000D03*
X81280000Y-97028000D03*
X166878000Y-83566000D03*
X174244000Y-83566000D03*
X236220000Y-122174000D03*
X204470000Y-113030000D03*
X241300000Y-122174000D03*
%TO.N,/PAD 1 ADDRD*%
X149098000Y-137160000D03*
X68326000Y-97028000D03*
X93218000Y-116332000D03*
X68326000Y-101854000D03*
X100330000Y-128016000D03*
X100330000Y-124968000D03*
X152908000Y-137160000D03*
X73914000Y-116332000D03*
%TO.N,/PAD 2 ADDRD*%
X93218000Y-117602000D03*
X99060000Y-128016000D03*
X99060000Y-124968000D03*
X73914000Y-117602000D03*
X66040000Y-97028000D03*
X66040000Y-101854000D03*
%TD*%
D20*
%TO.N,VCC*%
X185928000Y-126492000D02*
X187452000Y-126492000D01*
X214884000Y-96012000D02*
X219202000Y-96012000D01*
X116840000Y-94996000D02*
X116840000Y-74168000D01*
X217170000Y-126492000D02*
X220218000Y-126492000D01*
X93980000Y-144780000D02*
X93980000Y-134620000D01*
X209804000Y-80772000D02*
X236728000Y-80772000D01*
X210820000Y-80772000D02*
X210820000Y-78740000D01*
X181610000Y-118618000D02*
X184658000Y-118618000D01*
X219202000Y-96012000D02*
X220726000Y-96012000D01*
X172720000Y-78740000D02*
X172720000Y-80772000D01*
D21*
X129540000Y-93980000D02*
X129540000Y-96012000D01*
X78740000Y-132000000D02*
X78740000Y-134620000D01*
D20*
X60960000Y-126492000D02*
X60960000Y-134620000D01*
D21*
X121920000Y-101600000D02*
X121920000Y-106680000D01*
D20*
X172720000Y-118110000D02*
X173228000Y-118618000D01*
X172720000Y-111252000D02*
X172720000Y-118110000D01*
X93980000Y-126492000D02*
X116840000Y-126492000D01*
X172720000Y-96012000D02*
X172720000Y-111252000D01*
D21*
X93980000Y-132000000D02*
X93980000Y-126492000D01*
D20*
X172720000Y-80772000D02*
X205994000Y-80772000D01*
X73152000Y-96012000D02*
X76200000Y-96012000D01*
X129540000Y-96012000D02*
X134620000Y-96012000D01*
X71882000Y-60706000D02*
X71882000Y-64454000D01*
D21*
X101854000Y-70612000D02*
X107442000Y-70612000D01*
D20*
X76200000Y-126492000D02*
X60960000Y-126492000D01*
X116840000Y-126492000D02*
X116840000Y-124460000D01*
X214122000Y-96774000D02*
X212598000Y-96774000D01*
X78740000Y-126492000D02*
X93980000Y-126492000D01*
X71882000Y-64454000D02*
X71820000Y-64516000D01*
D21*
X93980000Y-124380000D02*
X93980000Y-126238000D01*
X96520000Y-93980000D02*
X93980000Y-93980000D01*
D20*
X76200000Y-134620000D02*
X76200000Y-126492000D01*
D21*
X90424000Y-98044000D02*
X78740000Y-98044000D01*
D20*
X93980000Y-134620000D02*
X78740000Y-134620000D01*
X76200000Y-96012000D02*
X78740000Y-96012000D01*
D21*
X182880000Y-109220000D02*
X187960000Y-109220000D01*
D20*
X205994000Y-80772000D02*
X209804000Y-80772000D01*
X116840000Y-65786000D02*
X116840000Y-61214000D01*
D21*
X242062000Y-91186000D02*
X243332000Y-89916000D01*
D20*
X116840000Y-61214000D02*
X116332000Y-60706000D01*
X217170000Y-126492000D02*
X217384000Y-126706000D01*
D21*
X205994000Y-78486000D02*
X205994000Y-80772000D01*
X111760000Y-124460000D02*
X116840000Y-124460000D01*
D20*
X70104000Y-99060000D02*
X73152000Y-96012000D01*
X175514000Y-118618000D02*
X181610000Y-118618000D01*
D21*
X187960000Y-93980000D02*
X193040000Y-93980000D01*
D20*
X238252000Y-79248000D02*
X241300000Y-79248000D01*
D21*
X215900000Y-109220000D02*
X220980000Y-109220000D01*
D20*
X220980000Y-111252000D02*
X220980000Y-109220000D01*
D21*
X117602000Y-106680000D02*
X121920000Y-106680000D01*
X121412000Y-74168000D02*
X116840000Y-74168000D01*
D20*
X116840000Y-126492000D02*
X152400000Y-126492000D01*
D21*
X168910000Y-78740000D02*
X172720000Y-78740000D01*
X175514000Y-123190000D02*
X175514000Y-118618000D01*
D20*
X187960000Y-109220000D02*
X187960000Y-111252000D01*
D21*
X208280000Y-93980000D02*
X208280000Y-96774000D01*
D20*
X76200000Y-126492000D02*
X78740000Y-126492000D01*
X185420000Y-119380000D02*
X185420000Y-125984000D01*
X187452000Y-126492000D02*
X188976000Y-126492000D01*
D21*
X114300000Y-103378000D02*
X117602000Y-106680000D01*
D20*
X184658000Y-118618000D02*
X185420000Y-119380000D01*
D21*
X210820000Y-82550000D02*
X210820000Y-80772000D01*
X162560000Y-78740000D02*
X158496000Y-78740000D01*
D20*
X212598000Y-126492000D02*
X214122000Y-126492000D01*
X116840000Y-96012000D02*
X129540000Y-96012000D01*
X217384000Y-126706000D02*
X217384000Y-132080000D01*
X236728000Y-80772000D02*
X238252000Y-79248000D01*
X107442000Y-60706000D02*
X107442000Y-70612000D01*
X78740000Y-124380000D02*
X78740000Y-126492000D01*
X116840000Y-65786000D02*
X116840000Y-64516000D01*
D21*
X93980000Y-101600000D02*
X90424000Y-98044000D01*
X147320000Y-124460000D02*
X152400000Y-124460000D01*
D20*
X134620000Y-96012000D02*
X152400000Y-96012000D01*
D21*
X96520000Y-124380000D02*
X93980000Y-124380000D01*
D20*
X76200000Y-126492000D02*
X76200000Y-96012000D01*
D21*
X129540000Y-93980000D02*
X129540000Y-87376000D01*
X78740000Y-98044000D02*
X78740000Y-101600000D01*
D20*
X116840000Y-93980000D02*
X116840000Y-94996000D01*
D21*
X111760000Y-93980000D02*
X116840000Y-93980000D01*
D20*
X78740000Y-134620000D02*
X76200000Y-134620000D01*
X152400000Y-126492000D02*
X152400000Y-124460000D01*
D21*
X243332000Y-89916000D02*
X243332000Y-79248000D01*
D20*
X190500000Y-96012000D02*
X191262000Y-96774000D01*
X185420000Y-125984000D02*
X185928000Y-126492000D01*
X172720000Y-96012000D02*
X190500000Y-96012000D01*
D21*
X78660000Y-124460000D02*
X78740000Y-124380000D01*
D20*
X93980000Y-144780000D02*
X91440000Y-144780000D01*
X152400000Y-96012000D02*
X172720000Y-96012000D01*
X173228000Y-118618000D02*
X175514000Y-118618000D01*
X191262000Y-96774000D02*
X194564000Y-96774000D01*
D21*
X243332000Y-79248000D02*
X241300000Y-79248000D01*
D20*
X172720000Y-111252000D02*
X187960000Y-111252000D01*
X172720000Y-80772000D02*
X172720000Y-96012000D01*
D21*
X78740000Y-98044000D02*
X78740000Y-96012000D01*
D20*
X116840000Y-94996000D02*
X116840000Y-96012000D01*
D21*
X193040000Y-93980000D02*
X193040000Y-96774000D01*
D20*
X214122000Y-126492000D02*
X217170000Y-126492000D01*
D21*
X73660000Y-93980000D02*
X78740000Y-93980000D01*
D20*
X116840000Y-74168000D02*
X116840000Y-65786000D01*
X93980000Y-96012000D02*
X116840000Y-96012000D01*
X78740000Y-93980000D02*
X78740000Y-96012000D01*
D21*
X73660000Y-124460000D02*
X78660000Y-124460000D01*
X114300000Y-98298000D02*
X114300000Y-103378000D01*
D20*
X60960000Y-126492000D02*
X60960000Y-119380000D01*
X187960000Y-111252000D02*
X220980000Y-111252000D01*
X78740000Y-96012000D02*
X93980000Y-96012000D01*
X220218000Y-126492000D02*
X221742000Y-126492000D01*
X116332000Y-60706000D02*
X87122000Y-60706000D01*
X116840000Y-64516000D02*
X120080000Y-64516000D01*
X60960000Y-99060000D02*
X70104000Y-99060000D01*
X214122000Y-96774000D02*
X214884000Y-96012000D01*
X87122000Y-60706000D02*
X71882000Y-60706000D01*
X209804000Y-80772000D02*
X210820000Y-80772000D01*
D21*
X93980000Y-93980000D02*
X93980000Y-96012000D01*
X181610000Y-123190000D02*
X181610000Y-118618000D01*
%TO.N,/DATA_BUS_00*%
X240030000Y-130810000D02*
X240030000Y-118110000D01*
X243840000Y-134620000D02*
X241300000Y-132080000D01*
X240030000Y-118110000D02*
X241300000Y-116840000D01*
X241300000Y-132080000D02*
X240030000Y-130810000D01*
X243840000Y-144780000D02*
X243840000Y-134620000D01*
%TO.N,/DATA_BUS_01*%
X237490000Y-118110000D02*
X238760000Y-116840000D01*
X237490000Y-130810000D02*
X237490000Y-118110000D01*
X238760000Y-132080000D02*
X237490000Y-130810000D01*
X241300000Y-144780000D02*
X241300000Y-134620000D01*
X241300000Y-134620000D02*
X238760000Y-132080000D01*
%TO.N,/DATA_BUS_02*%
X234950000Y-118110000D02*
X236220000Y-116840000D01*
X238760000Y-144780000D02*
X238760000Y-134620000D01*
X238760000Y-134620000D02*
X236220000Y-132080000D01*
X236220000Y-132080000D02*
X234950000Y-130810000D01*
X234950000Y-130810000D02*
X234950000Y-118110000D01*
%TO.N,/DATA_BUS_03*%
X232410000Y-118110000D02*
X233680000Y-116840000D01*
X236220000Y-134620000D02*
X233680000Y-132080000D01*
X232410000Y-130810000D02*
X232410000Y-118110000D01*
X233680000Y-132080000D02*
X232410000Y-130810000D01*
X236220000Y-144780000D02*
X236220000Y-134620000D01*
%TO.N,/DATA_BUS_04*%
X229870000Y-118110000D02*
X231140000Y-116840000D01*
X233680000Y-144780000D02*
X233680000Y-134620000D01*
X231140000Y-132080000D02*
X229870000Y-130810000D01*
X229870000Y-130810000D02*
X229870000Y-118110000D01*
X233680000Y-134620000D02*
X231140000Y-132080000D01*
%TO.N,/DATA_BUS_05*%
X231140000Y-144780000D02*
X231140000Y-134620000D01*
X231140000Y-134620000D02*
X228600000Y-132080000D01*
X227330000Y-118110000D02*
X228600000Y-116840000D01*
X227330000Y-130810000D02*
X227330000Y-118110000D01*
X228600000Y-132080000D02*
X227330000Y-130810000D01*
%TO.N,/DATA_BUS_06*%
X226060000Y-132080000D02*
X224955200Y-130975200D01*
X224955200Y-130975200D02*
X224955200Y-117944800D01*
X228600000Y-134620000D02*
X226060000Y-132080000D01*
X224955200Y-117944800D02*
X226060000Y-116840000D01*
X228600000Y-144780000D02*
X228600000Y-134620000D01*
%TO.N,/DATA_BUS_07*%
X223520000Y-122174000D02*
X223520000Y-142240000D01*
X228600000Y-124460000D02*
X228600000Y-122174000D01*
X223520000Y-122174000D02*
X223520000Y-116840000D01*
X223520000Y-142240000D02*
X226060000Y-144780000D01*
%TO.N,/DATA_BUS_08*%
X223520000Y-144780000D02*
X214630000Y-135890000D01*
X208280000Y-132080000D02*
X207010000Y-130810000D01*
X207010000Y-130810000D02*
X207010000Y-121412000D01*
X214630000Y-135890000D02*
X212090000Y-135890000D01*
X207010000Y-121412000D02*
X208280000Y-120142000D01*
X212090000Y-135890000D02*
X208280000Y-132080000D01*
X208280000Y-120142000D02*
X208280000Y-116840000D01*
%TO.N,/DATA_BUS_09*%
X220980000Y-144780000D02*
X220369343Y-144780000D01*
X205740000Y-120142000D02*
X205740000Y-116840000D01*
X210312000Y-136652000D02*
X205740000Y-132080000D01*
X204470000Y-130810000D02*
X204470000Y-121412000D01*
X205740000Y-132080000D02*
X204470000Y-130810000D01*
X220369343Y-144780000D02*
X212241343Y-136652000D01*
X204470000Y-121412000D02*
X205740000Y-120142000D01*
X212241343Y-136652000D02*
X210312000Y-136652000D01*
%TO.N,/DATA_BUS_10*%
X203200000Y-132080000D02*
X201930000Y-130810000D01*
X201930000Y-130810000D02*
X201930000Y-121412000D01*
X218440000Y-144780000D02*
X217829343Y-144780000D01*
X203200000Y-120142000D02*
X203200000Y-116840000D01*
X208534000Y-137414000D02*
X203200000Y-132080000D01*
X217829343Y-144780000D02*
X210463343Y-137414000D01*
X201930000Y-121412000D02*
X203200000Y-120142000D01*
X210463343Y-137414000D02*
X208534000Y-137414000D01*
%TO.N,/DATA_BUS_11*%
X215900000Y-144780000D02*
X215289343Y-144780000D01*
X215289343Y-144780000D02*
X208685343Y-138176000D01*
X200660000Y-132080000D02*
X199390000Y-130810000D01*
X200660000Y-120142000D02*
X200660000Y-116840000D01*
X208685343Y-138176000D02*
X206756000Y-138176000D01*
X199390000Y-121412000D02*
X200660000Y-120142000D01*
X199390000Y-130810000D02*
X199390000Y-121412000D01*
X206756000Y-138176000D02*
X200660000Y-132080000D01*
%TO.N,/DATA_BUS_12*%
X206907343Y-138938000D02*
X204978000Y-138938000D01*
X198120000Y-120142000D02*
X198120000Y-116840000D01*
X196850000Y-121412000D02*
X198120000Y-120142000D01*
X196850000Y-130810000D02*
X196850000Y-121412000D01*
X198120000Y-132080000D02*
X196850000Y-130810000D01*
X212749343Y-144780000D02*
X206907343Y-138938000D01*
X213360000Y-144780000D02*
X212749343Y-144780000D01*
X204978000Y-138938000D02*
X198120000Y-132080000D01*
%TO.N,/DATA_BUS_13*%
X203200000Y-139700000D02*
X195580000Y-132080000D01*
X210209343Y-144780000D02*
X205129343Y-139700000D01*
X194310000Y-121158000D02*
X195580000Y-119888000D01*
X210820000Y-144780000D02*
X210209343Y-144780000D01*
X195580000Y-119888000D02*
X195580000Y-116840000D01*
X194310000Y-130810000D02*
X194310000Y-121158000D01*
X205129343Y-139700000D02*
X203200000Y-139700000D01*
X195580000Y-132080000D02*
X194310000Y-130810000D01*
%TO.N,/DATA_BUS_14*%
X203351343Y-140462000D02*
X201422000Y-140462000D01*
X191770000Y-121158000D02*
X193040000Y-119888000D01*
X208280000Y-144780000D02*
X207669343Y-144780000D01*
X201422000Y-140462000D02*
X193040000Y-132080000D01*
X207669343Y-144780000D02*
X203351343Y-140462000D01*
X193040000Y-132080000D02*
X191770000Y-130810000D01*
X193040000Y-119888000D02*
X193040000Y-116840000D01*
X191770000Y-130810000D02*
X191770000Y-121158000D01*
%TO.N,/DATA_BUS_15*%
X190500000Y-123952000D02*
X190500000Y-132334000D01*
X202184000Y-141224000D02*
X205740000Y-144780000D01*
X190500000Y-122682000D02*
X190500000Y-116840000D01*
X190500000Y-132334000D02*
X199390000Y-141224000D01*
X195580000Y-124460000D02*
X195580000Y-122682000D01*
X199390000Y-141224000D02*
X202184000Y-141224000D01*
X190500000Y-123952000D02*
X190500000Y-122682000D01*
%TO.N,/GAMEPAD LATCH*%
X56388000Y-93980000D02*
X56388000Y-114046000D01*
X58928000Y-93980000D02*
X56388000Y-93980000D01*
X79756000Y-56642000D02*
X120172666Y-56642000D01*
X66294000Y-56642000D02*
X56388000Y-66548000D01*
X79298800Y-83261200D02*
X79298800Y-68783200D01*
X76200000Y-86360000D02*
X79298800Y-83261200D01*
X56388000Y-114046000D02*
X56642000Y-114300000D01*
X56388000Y-66548000D02*
X56388000Y-93980000D01*
X120172666Y-56642000D02*
X128046666Y-64516000D01*
X79756000Y-56642000D02*
X66294000Y-56642000D01*
X56642000Y-114300000D02*
X60960000Y-114300000D01*
X60960000Y-93980000D02*
X58928000Y-93980000D01*
X128046666Y-64516000D02*
X128046666Y-90393334D01*
X79786666Y-68295334D02*
X79786666Y-64516000D01*
X79298800Y-68783200D02*
X79786666Y-68295334D01*
X128046666Y-90393334D02*
X124460000Y-93980000D01*
%TO.N,Net-(D1-K)*%
X251460000Y-63500000D02*
X241808000Y-73152000D01*
X241808000Y-73152000D02*
X236982000Y-73152000D01*
X236982000Y-73152000D02*
X234950000Y-71120000D01*
%TO.N,/PAD 1 LED 0*%
X248920000Y-63500000D02*
X243078000Y-69342000D01*
X243078000Y-69342000D02*
X234696000Y-69342000D01*
X234696000Y-69342000D02*
X233680000Y-70358000D01*
X233680000Y-70358000D02*
X233680000Y-78740000D01*
%TO.N,Net-(D2-K)*%
X232410000Y-70612000D02*
X232410000Y-71120000D01*
X245110000Y-63500000D02*
X240030000Y-68580000D01*
X240030000Y-68580000D02*
X234442000Y-68580000D01*
X234442000Y-68580000D02*
X232410000Y-70612000D01*
%TO.N,/PAD 1 LED 1*%
X231140000Y-70358000D02*
X231140000Y-78740000D01*
X238252000Y-67818000D02*
X233680000Y-67818000D01*
X242570000Y-63500000D02*
X238252000Y-67818000D01*
X233680000Y-67818000D02*
X231140000Y-70358000D01*
%TO.N,Net-(D3-K)*%
X238760000Y-63500000D02*
X235204000Y-67056000D01*
X229870000Y-70104000D02*
X229870000Y-71120000D01*
X232918000Y-67056000D02*
X229870000Y-70104000D01*
X235204000Y-67056000D02*
X232918000Y-67056000D01*
%TO.N,/PAD 1 LED 2*%
X236220000Y-63500000D02*
X236220000Y-64262000D01*
X234188000Y-66294000D02*
X232153208Y-66294000D01*
X232153208Y-66294000D02*
X228600000Y-69847208D01*
X236220000Y-64262000D02*
X234188000Y-66294000D01*
X228600000Y-69847208D02*
X228600000Y-78740000D01*
%TO.N,Net-(D4-K)*%
X227330000Y-69596000D02*
X227330000Y-71120000D01*
X232410000Y-63500000D02*
X232410000Y-64516000D01*
X232410000Y-64516000D02*
X227330000Y-69596000D01*
%TO.N,/PAD 1 LED 3*%
X229870000Y-65024000D02*
X226060000Y-68834000D01*
X229870000Y-63500000D02*
X229870000Y-65024000D01*
X226060000Y-68834000D02*
X226060000Y-78740000D01*
%TO.N,Net-(D5-K)*%
X226060000Y-67056000D02*
X224790000Y-68326000D01*
X226060000Y-63500000D02*
X226060000Y-67056000D01*
X224790000Y-68326000D02*
X224790000Y-71120000D01*
%TO.N,/PAD 1 LED 4*%
X223520000Y-63500000D02*
X223520000Y-78740000D01*
%TO.N,Net-(D6-K)*%
X219710000Y-63500000D02*
X219710000Y-65024000D01*
X219710000Y-65024000D02*
X222250000Y-67564000D01*
X222250000Y-67564000D02*
X222250000Y-71120000D01*
%TO.N,/PAD 1 LED 5*%
X217170000Y-65278000D02*
X217170000Y-63500000D01*
X220980000Y-78740000D02*
X220980000Y-69088000D01*
X220980000Y-69088000D02*
X217170000Y-65278000D01*
%TO.N,Net-(D7-K)*%
X219710000Y-71120000D02*
X219710000Y-69850000D01*
X219710000Y-69850000D02*
X213360000Y-63500000D01*
%TO.N,/PAD 1 LED 6*%
X218440000Y-70358000D02*
X217424000Y-69342000D01*
X218440000Y-78740000D02*
X218440000Y-70358000D01*
X217424000Y-69342000D02*
X216662000Y-69342000D01*
X216662000Y-69342000D02*
X210820000Y-63500000D01*
%TO.N,Net-(D8-K)*%
X217170000Y-71120000D02*
X214630000Y-71120000D01*
X214630000Y-71120000D02*
X207010000Y-63500000D01*
%TO.N,/PAD 1 LED 7*%
X215900000Y-74930000D02*
X204470000Y-63500000D01*
X215900000Y-78740000D02*
X215900000Y-74930000D01*
%TO.N,Net-(D9-K)*%
X200660000Y-63500000D02*
X193040000Y-71120000D01*
%TO.N,/PAD 1 LED 8*%
X191770000Y-74930000D02*
X195580000Y-78740000D01*
X198120000Y-63500000D02*
X191770000Y-69850000D01*
X191770000Y-69850000D02*
X191770000Y-74930000D01*
%TO.N,Net-(D10-K)*%
X194310000Y-63500000D02*
X190500000Y-67310000D01*
X190500000Y-67310000D02*
X190500000Y-71120000D01*
%TO.N,/PAD 1 LED 9*%
X191770000Y-63500000D02*
X189230000Y-66040000D01*
X189230000Y-74930000D02*
X193040000Y-78740000D01*
X189230000Y-66040000D02*
X189230000Y-74930000D01*
%TO.N,Net-(D11-K)*%
X187960000Y-63500000D02*
X187960000Y-71120000D01*
%TO.N,/PAD 1 LED 10*%
X186690000Y-66802000D02*
X186690000Y-74930000D01*
X185420000Y-65532000D02*
X186690000Y-66802000D01*
X185420000Y-63500000D02*
X185420000Y-65532000D01*
X186690000Y-74930000D02*
X190500000Y-78740000D01*
%TO.N,Net-(D12-K)*%
X185420000Y-68072000D02*
X185420000Y-71120000D01*
X181610000Y-64262000D02*
X185420000Y-68072000D01*
X181610000Y-63500000D02*
X181610000Y-64262000D01*
%TO.N,/PAD 1 LED 11*%
X184150000Y-69088000D02*
X184150000Y-74930000D01*
X179070000Y-64008000D02*
X184150000Y-69088000D01*
X179070000Y-63500000D02*
X179070000Y-64008000D01*
X184150000Y-74930000D02*
X187960000Y-78740000D01*
%TO.N,/CTL_CLK*%
X81280000Y-132000000D02*
X81280000Y-128778000D01*
X82550000Y-122682000D02*
X81280000Y-121412000D01*
X81280000Y-121412000D02*
X81280000Y-114300000D01*
X76200000Y-140716000D02*
X81280000Y-135636000D01*
X76200000Y-144780000D02*
X76200000Y-140716000D01*
X81280000Y-128778000D02*
X82550000Y-127508000D01*
%TO.N,/MEM_ACTIVE*%
X142240000Y-133350000D02*
X142240000Y-130302000D01*
X142240000Y-124714000D02*
X142240000Y-125222000D01*
X95250000Y-141478000D02*
X142240000Y-141478000D01*
X74422000Y-141478000D02*
X75184000Y-141478000D01*
X152908000Y-122428000D02*
X144526000Y-122428000D01*
X144526000Y-122428000D02*
X142240000Y-124714000D01*
X154940000Y-124460000D02*
X152908000Y-122428000D01*
X92710000Y-141478000D02*
X77216000Y-141478000D01*
X71120000Y-144780000D02*
X74422000Y-141478000D01*
%TO.N,/~{PAD 2 OE LED}*%
X181610000Y-74930000D02*
X181610000Y-68072000D01*
X181610000Y-68072000D02*
X177038000Y-63500000D01*
X185420000Y-78740000D02*
X181610000Y-74930000D01*
X177038000Y-63500000D02*
X168910000Y-63500000D01*
%TO.N,/~{PAD 1 OE LED}*%
X176276000Y-64770000D02*
X171450000Y-64770000D01*
X164338000Y-61722000D02*
X162560000Y-63500000D01*
X171450000Y-61722000D02*
X164338000Y-61722000D01*
X182880000Y-78740000D02*
X179070000Y-74930000D01*
X179070000Y-74930000D02*
X179070000Y-67564000D01*
X179070000Y-67564000D02*
X176276000Y-64770000D01*
%TO.N,/BASE CLK*%
X74930000Y-118110000D02*
X73914000Y-119126000D01*
X58166000Y-103124000D02*
X58166000Y-99314000D01*
X62738000Y-107696000D02*
X58166000Y-103124000D01*
X118110000Y-58674000D02*
X123952000Y-64516000D01*
X69088000Y-98044000D02*
X70612000Y-96520000D01*
X74930000Y-111760000D02*
X74930000Y-118110000D01*
X62738000Y-115062000D02*
X62738000Y-107696000D01*
X91440000Y-111760000D02*
X81280000Y-111760000D01*
X70612000Y-96520000D02*
X70612000Y-69707333D01*
X81280000Y-111760000D02*
X81280000Y-101600000D01*
X58166000Y-99314000D02*
X60960000Y-96520000D01*
X60960000Y-96520000D02*
X62230000Y-96520000D01*
X75692000Y-58674000D02*
X118110000Y-58674000D01*
X73914000Y-119126000D02*
X63246000Y-119126000D01*
X115681333Y-72898000D02*
X107442000Y-81137333D01*
X112268000Y-111760000D02*
X91440000Y-111760000D01*
X116840000Y-116332000D02*
X112268000Y-111760000D01*
X63246000Y-119126000D02*
X60960000Y-116840000D01*
X107442000Y-81137333D02*
X107442000Y-86360000D01*
X119380000Y-124460000D02*
X119380000Y-118872000D01*
X123952000Y-64516000D02*
X124063333Y-64516000D01*
X70612000Y-69707333D02*
X75803333Y-64516000D01*
X62230000Y-96520000D02*
X63754000Y-98044000D01*
X60960000Y-116840000D02*
X62738000Y-115062000D01*
X63754000Y-98044000D02*
X69088000Y-98044000D01*
X119380000Y-118872000D02*
X116840000Y-116332000D01*
%TO.N,/CLK DIV 2*%
X83820000Y-124380000D02*
X83820000Y-114300000D01*
%TO.N,/CLK DIV 4*%
X86360000Y-124380000D02*
X86360000Y-114300000D01*
%TO.N,/CLK DIV 8*%
X88900000Y-124380000D02*
X88900000Y-114300000D01*
%TO.N,/CLK DIV 16*%
X91440000Y-124380000D02*
X91440000Y-114300000D01*
%TO.N,/PAD 1 DATA*%
X124460000Y-124460000D02*
X124460000Y-117856000D01*
X119380000Y-112014000D02*
X105664000Y-98298000D01*
X83261200Y-68884800D02*
X83261200Y-70612000D01*
X124460000Y-112014000D02*
X119380000Y-112014000D01*
X83261200Y-70612000D02*
X83261200Y-91389200D01*
X83770000Y-68376000D02*
X83261200Y-68884800D01*
X83770000Y-64516000D02*
X83770000Y-68376000D01*
X91694000Y-70612000D02*
X83261200Y-70612000D01*
X102616000Y-91440000D02*
X98552000Y-91440000D01*
X60960000Y-91440000D02*
X64262000Y-91440000D01*
X83312000Y-91440000D02*
X102616000Y-91440000D01*
X83261200Y-91389200D02*
X83312000Y-91440000D01*
X93472000Y-86360000D02*
X92456000Y-86360000D01*
X98552000Y-91440000D02*
X93472000Y-86360000D01*
X71882000Y-91440000D02*
X83312000Y-91440000D01*
X102616000Y-91440000D02*
X105664000Y-94488000D01*
%TO.N,/PAD 2 DATA*%
X140208000Y-110744000D02*
X140208000Y-101346000D01*
X129540000Y-113284000D02*
X137668000Y-113284000D01*
X129540000Y-113284000D02*
X117348000Y-113284000D01*
X131572000Y-66244000D02*
X132030000Y-65786000D01*
X131572000Y-86868000D02*
X131572000Y-74168000D01*
X72644000Y-103632000D02*
X74930000Y-103632000D01*
X65532000Y-100076000D02*
X69088000Y-100076000D01*
X107696000Y-103632000D02*
X82550000Y-103632000D01*
X129540000Y-124460000D02*
X129540000Y-117856000D01*
X80010000Y-103632000D02*
X77470000Y-103632000D01*
X117348000Y-113284000D02*
X107696000Y-103632000D01*
X137668000Y-92964000D02*
X131572000Y-86868000D01*
X137668000Y-94488000D02*
X137668000Y-92964000D01*
X64262000Y-111760000D02*
X64262000Y-101346000D01*
X64262000Y-101346000D02*
X65532000Y-100076000D01*
X131572000Y-74168000D02*
X131572000Y-66244000D01*
X69088000Y-100076000D02*
X72644000Y-103632000D01*
X137668000Y-113284000D02*
X140208000Y-110744000D01*
X140208000Y-101346000D02*
X137668000Y-98806000D01*
%TO.N,/~{LED ENABLE}*%
X209296000Y-77216000D02*
X207772000Y-78740000D01*
X241300000Y-74930000D02*
X239014000Y-77216000D01*
X239014000Y-81788000D02*
X213360000Y-81788000D01*
X211836000Y-77216000D02*
X209296000Y-77216000D01*
X239014000Y-77216000D02*
X239014000Y-77470000D01*
X241300000Y-81788000D02*
X239014000Y-81788000D01*
X213360000Y-78740000D02*
X211836000Y-77216000D01*
X207772000Y-81788000D02*
X175260000Y-81788000D01*
%TO.N,/PAD 1 SHIFT 13*%
X195580000Y-104140000D02*
X195580000Y-101600000D01*
X198120000Y-106680000D02*
X195580000Y-104140000D01*
X198120000Y-109220000D02*
X198120000Y-106680000D01*
%TO.N,/PAD 1 SHIFT 12*%
X200660000Y-106680000D02*
X198120000Y-104140000D01*
X200660000Y-109220000D02*
X200660000Y-106680000D01*
X198120000Y-104140000D02*
X198120000Y-101600000D01*
%TO.N,/PAD 1 SHIFT 11*%
X201930000Y-97282000D02*
X201930000Y-92710000D01*
X200660000Y-98552000D02*
X201930000Y-97282000D01*
X200660000Y-101600000D02*
X200660000Y-98552000D01*
X191262000Y-92202000D02*
X185420000Y-86360000D01*
X201930000Y-92710000D02*
X201422000Y-92202000D01*
X203200000Y-106680000D02*
X200660000Y-104140000D01*
X201422000Y-92202000D02*
X191262000Y-92202000D01*
X203200000Y-109220000D02*
X203200000Y-106680000D01*
X200660000Y-104140000D02*
X200660000Y-101600000D01*
%TO.N,/PAD 1 SHIFT 10*%
X204470000Y-97282000D02*
X204470000Y-92710000D01*
X205740000Y-109220000D02*
X205740000Y-106680000D01*
X204470000Y-92710000D02*
X202692000Y-90932000D01*
X203200000Y-101600000D02*
X203200000Y-98552000D01*
X203200000Y-98552000D02*
X204470000Y-97282000D01*
X205740000Y-106680000D02*
X203200000Y-104140000D01*
X202692000Y-90932000D02*
X192532000Y-90932000D01*
X203200000Y-104140000D02*
X203200000Y-101600000D01*
X192532000Y-90932000D02*
X187960000Y-86360000D01*
%TO.N,/PAD 1 SHIFT 09*%
X208280000Y-106680000D02*
X205740000Y-104140000D01*
X205740000Y-101600000D02*
X205740000Y-98552000D01*
X193802000Y-89662000D02*
X190500000Y-86360000D01*
X208280000Y-109220000D02*
X208280000Y-106680000D01*
X205740000Y-98552000D02*
X207010000Y-97282000D01*
X207010000Y-97282000D02*
X207010000Y-92710000D01*
X203962000Y-89662000D02*
X193802000Y-89662000D01*
X207010000Y-92710000D02*
X203962000Y-89662000D01*
X205740000Y-104140000D02*
X205740000Y-101600000D01*
%TO.N,/PAD 1 SHIFT 08*%
X208280000Y-104140000D02*
X208280000Y-101600000D01*
X208280000Y-98552000D02*
X209550000Y-97282000D01*
X205232000Y-88392000D02*
X195072000Y-88392000D01*
X209550000Y-97282000D02*
X209550000Y-92710000D01*
X209550000Y-92710000D02*
X205232000Y-88392000D01*
X210820000Y-109220000D02*
X210820000Y-106680000D01*
X195072000Y-88392000D02*
X193040000Y-86360000D01*
X210820000Y-106680000D02*
X208280000Y-104140000D01*
X208280000Y-101600000D02*
X208280000Y-98552000D01*
%TO.N,Net-(U3-QH')*%
X210820000Y-97790000D02*
X210820000Y-93980000D01*
X216916000Y-97790000D02*
X210820000Y-97790000D01*
%TO.N,Net-(U3-SER)*%
X189738000Y-103378000D02*
X190500000Y-103378000D01*
X130810000Y-120650000D02*
X133604000Y-117856000D01*
X185166000Y-98806000D02*
X189738000Y-103378000D01*
X174244000Y-98806000D02*
X185166000Y-98806000D01*
X198120000Y-93980000D02*
X198120000Y-97282000D01*
X196850000Y-98552000D02*
X196850000Y-103378000D01*
X198120000Y-97282000D02*
X196850000Y-98552000D01*
X133604000Y-117856000D02*
X150876000Y-117856000D01*
X150876000Y-117856000D02*
X169926000Y-98806000D01*
%TO.N,/PAD 1 SHIFT 15*%
X193040000Y-109220000D02*
X191516000Y-107696000D01*
X191516000Y-107696000D02*
X191516000Y-100584000D01*
X191516000Y-100584000D02*
X194310000Y-97790000D01*
X194310000Y-97790000D02*
X194818000Y-97790000D01*
X194818000Y-97790000D02*
X195580000Y-97028000D01*
X195580000Y-97028000D02*
X195580000Y-93980000D01*
%TO.N,/PAD 1 SHIFT 06*%
X223012000Y-93472000D02*
X215900000Y-86360000D01*
X228600000Y-104140000D02*
X226060000Y-101600000D01*
X226060000Y-101600000D02*
X223012000Y-98552000D01*
X228600000Y-109220000D02*
X228600000Y-104140000D01*
X223012000Y-98552000D02*
X223012000Y-93472000D01*
%TO.N,/PAD 1 SHIFT 05*%
X224028000Y-91948000D02*
X218440000Y-86360000D01*
X231140000Y-104140000D02*
X228600000Y-101600000D01*
X231140000Y-109220000D02*
X231140000Y-104140000D01*
X228600000Y-101600000D02*
X224028000Y-97028000D01*
X224028000Y-97028000D02*
X224028000Y-91948000D01*
%TO.N,/PAD 1 SHIFT 04*%
X227330000Y-92710000D02*
X220980000Y-86360000D01*
X227330000Y-97790000D02*
X227330000Y-92710000D01*
X233680000Y-109220000D02*
X233680000Y-104140000D01*
X233680000Y-104140000D02*
X231140000Y-101600000D01*
X231140000Y-101600000D02*
X227330000Y-97790000D01*
%TO.N,/PAD 1 SHIFT 03*%
X236220000Y-109220000D02*
X236220000Y-104140000D01*
X233680000Y-101600000D02*
X229870000Y-97790000D01*
X229870000Y-97790000D02*
X229870000Y-92710000D01*
X236220000Y-104140000D02*
X233680000Y-101600000D01*
X229870000Y-92710000D02*
X223520000Y-86360000D01*
%TO.N,/PAD 1 SHIFT 02*%
X236220000Y-101600000D02*
X232410000Y-97790000D01*
X238760000Y-109220000D02*
X238760000Y-104140000D01*
X238760000Y-104140000D02*
X236220000Y-101600000D01*
X232410000Y-97790000D02*
X232410000Y-92710000D01*
X232410000Y-92710000D02*
X226060000Y-86360000D01*
%TO.N,/PAD 1 SHIFT 01*%
X238760000Y-101600000D02*
X234950000Y-97790000D01*
X241300000Y-104140000D02*
X238760000Y-101600000D01*
X241300000Y-109220000D02*
X241300000Y-104140000D01*
X234950000Y-97790000D02*
X234950000Y-92710000D01*
X234950000Y-92710000D02*
X228600000Y-86360000D01*
%TO.N,/PAD 1 SHIFT 00*%
X243840000Y-104140000D02*
X241300000Y-101600000D01*
X241300000Y-101600000D02*
X237490000Y-97790000D01*
X237490000Y-97790000D02*
X237490000Y-92710000D01*
X237490000Y-92710000D02*
X231140000Y-86360000D01*
X243840000Y-109220000D02*
X243840000Y-104140000D01*
%TO.N,/PAD 1 SHIFT 07*%
X218186000Y-101346000D02*
X226060000Y-109220000D01*
X215138000Y-88138000D02*
X213360000Y-86360000D01*
X218186000Y-97028000D02*
X218186000Y-101346000D01*
X228600000Y-93980000D02*
X228600000Y-92710000D01*
X228600000Y-92710000D02*
X224028000Y-88138000D01*
%TO.N,Net-(U5-QH')*%
X221234000Y-121412000D02*
X218186000Y-124460000D01*
X218186000Y-124460000D02*
X210820000Y-124460000D01*
X222758000Y-121412000D02*
X221234000Y-121412000D01*
X231140000Y-124460000D02*
X231140000Y-122174000D01*
%TO.N,/PAD 2 ~{OE}*%
X174244000Y-94488000D02*
X182118000Y-94488000D01*
X233680000Y-118618000D02*
X233680000Y-124460000D01*
X157480000Y-132080000D02*
X161290000Y-128270000D01*
X222758000Y-118618000D02*
X218694000Y-122682000D01*
X181610000Y-133350000D02*
X181610000Y-128270000D01*
X171196000Y-97536000D02*
X171450000Y-97282000D01*
X218694000Y-122682000D02*
X209550000Y-122682000D01*
X161290000Y-128270000D02*
X177546000Y-128270000D01*
X182880000Y-93726000D02*
X182880000Y-86360000D01*
X171196000Y-128270000D02*
X171196000Y-97536000D01*
X186944000Y-127508000D02*
X189738000Y-127508000D01*
X177546000Y-128270000D02*
X181610000Y-128270000D01*
X200660000Y-127508000D02*
X200660000Y-124460000D01*
X186182000Y-128270000D02*
X186944000Y-127508000D01*
X181610000Y-128270000D02*
X186182000Y-128270000D01*
X177546000Y-128270000D02*
X171196000Y-128270000D01*
X182118000Y-94488000D02*
X182880000Y-93726000D01*
%TO.N,Net-(U5-SER)*%
X167640000Y-116586000D02*
X164084000Y-120142000D01*
X199390000Y-115570000D02*
X199390000Y-120142000D01*
X198120000Y-121412000D02*
X198120000Y-124460000D01*
X164084000Y-120142000D02*
X136398000Y-120142000D01*
X174244000Y-116586000D02*
X184912000Y-116586000D01*
X136398000Y-120142000D02*
X132080000Y-124460000D01*
X199390000Y-120142000D02*
X198120000Y-121412000D01*
X186690000Y-114808000D02*
X198628000Y-114808000D01*
X168656000Y-116586000D02*
X167640000Y-116586000D01*
X184912000Y-116586000D02*
X186690000Y-114808000D01*
X198628000Y-114808000D02*
X199390000Y-115570000D01*
%TO.N,/~{BASE CLK}*%
X207010000Y-113792000D02*
X207010000Y-120142000D01*
X205740000Y-121412000D02*
X205740000Y-124460000D01*
X207010000Y-120142000D02*
X205740000Y-121412000D01*
X241300000Y-126238000D02*
X245364000Y-126238000D01*
X250444000Y-98552000D02*
X244348000Y-92456000D01*
X207010000Y-107696000D02*
X207010000Y-106680000D01*
X235966000Y-84582000D02*
X208280000Y-84582000D01*
X250444000Y-121158000D02*
X250444000Y-98552000D01*
X124968000Y-115570000D02*
X121920000Y-118618000D01*
X208280000Y-84582000D02*
X205740000Y-87122000D01*
X204470000Y-103378000D02*
X204470000Y-98806000D01*
X238760000Y-87376000D02*
X235966000Y-84582000D01*
X149860000Y-115570000D02*
X124968000Y-115570000D01*
X158496000Y-106934000D02*
X158496000Y-97790000D01*
X245364000Y-126238000D02*
X250444000Y-121158000D01*
X165354000Y-100076000D02*
X149860000Y-115570000D01*
X188976000Y-104648000D02*
X190500000Y-104648000D01*
X207010000Y-106680000D02*
X204470000Y-104140000D01*
X238760000Y-93980000D02*
X238760000Y-87376000D01*
X240284000Y-92456000D02*
X238760000Y-93980000D01*
X174244000Y-100076000D02*
X184404000Y-100076000D01*
X238760000Y-124460000D02*
X238760000Y-126238000D01*
X165354000Y-100076000D02*
X158496000Y-106934000D01*
X121920000Y-118618000D02*
X121920000Y-124460000D01*
X184404000Y-100076000D02*
X188976000Y-104648000D01*
X204470000Y-104140000D02*
X204470000Y-103378000D01*
X164592000Y-86360000D02*
X158496000Y-92456000D01*
X244348000Y-92456000D02*
X240284000Y-92456000D01*
X158496000Y-92456000D02*
X158496000Y-94234000D01*
X204470000Y-98806000D02*
X205740000Y-97536000D01*
X205740000Y-97536000D02*
X205740000Y-93980000D01*
X166878000Y-100076000D02*
X165354000Y-100076000D01*
%TO.N,/PAD 1 ~{OE}*%
X175514000Y-133350000D02*
X173736000Y-133350000D01*
X223520000Y-109220000D02*
X223520000Y-110566200D01*
X182880000Y-101600000D02*
X180340000Y-101600000D01*
X221818200Y-112268000D02*
X190500000Y-112268000D01*
X167640000Y-129540000D02*
X165100000Y-132080000D01*
X174244000Y-112522000D02*
X190246000Y-112522000D01*
X180340000Y-93472000D02*
X180340000Y-86360000D01*
X169926000Y-127254000D02*
X169926000Y-112522000D01*
X223520000Y-110566200D02*
X221818200Y-112268000D01*
X190500000Y-109220000D02*
X182880000Y-101600000D01*
X190246000Y-112522000D02*
X190500000Y-112268000D01*
X173736000Y-133350000D02*
X169926000Y-129540000D01*
X169926000Y-129540000D02*
X167640000Y-129540000D01*
%TO.N,/RFM_WTM*%
X104775000Y-136017000D02*
X108712000Y-132080000D01*
X98044000Y-147066000D02*
X66040000Y-147066000D01*
X66040000Y-147066000D02*
X66040000Y-144780000D01*
X108712000Y-132080000D02*
X116840000Y-132080000D01*
X98044000Y-147066000D02*
X98044000Y-142748000D01*
%TO.N,Net-(U2A-RCext)*%
X119380000Y-93980000D02*
X119380000Y-81534000D01*
%TO.N,/MEMACTIVE_RFM*%
X158242000Y-133858000D02*
X160020000Y-132080000D01*
X151384000Y-134366000D02*
X126746000Y-134366000D01*
X154940000Y-132080000D02*
X156718000Y-133858000D01*
X156718000Y-133858000D02*
X158242000Y-133858000D01*
X126746000Y-134366000D02*
X124460000Y-132080000D01*
%TO.N,Net-(D13-A)*%
X162560000Y-68580000D02*
X162560000Y-67310000D01*
X162560000Y-67310000D02*
X166370000Y-63500000D01*
%TO.N,Net-(D14-A)*%
X158496000Y-65024000D02*
X160020000Y-63500000D01*
X158496000Y-68580000D02*
X158496000Y-65024000D01*
%TO.N,/PAD 1 SHIFT 14*%
X195580000Y-106680000D02*
X193040000Y-104140000D01*
X193040000Y-104140000D02*
X193040000Y-101600000D01*
X195580000Y-109220000D02*
X195580000Y-106680000D01*
%TO.N,Net-(RN1-R5)*%
X182880000Y-74930000D02*
X182880000Y-71120000D01*
X183388000Y-75438000D02*
X182880000Y-74930000D01*
%TO.N,Net-(RN1-R6)*%
X180848000Y-75438000D02*
X180340000Y-74930000D01*
X180340000Y-74930000D02*
X180340000Y-71120000D01*
%TO.N,Net-(RN1-R7)*%
X168402000Y-83566000D02*
X164846000Y-80010000D01*
X164846000Y-80010000D02*
X164846000Y-71628000D01*
X170688000Y-89154000D02*
X170434000Y-89154000D01*
X170434000Y-89154000D02*
X168402000Y-87122000D01*
X174498000Y-67818000D02*
X177800000Y-71120000D01*
X168656000Y-67818000D02*
X174498000Y-67818000D01*
X164846000Y-71628000D02*
X168656000Y-67818000D01*
X168402000Y-87122000D02*
X168402000Y-83566000D01*
%TO.N,Net-(RN1-R8)*%
X169164000Y-82550000D02*
X166116000Y-79502000D01*
X166116000Y-79502000D02*
X166116000Y-72136000D01*
X170688000Y-87884000D02*
X169164000Y-86360000D01*
X169164000Y-86360000D02*
X169164000Y-82550000D01*
X169418000Y-68834000D02*
X172974000Y-68834000D01*
X166116000Y-72136000D02*
X169418000Y-68834000D01*
X172974000Y-68834000D02*
X175260000Y-71120000D01*
%TO.N,Net-(U2B-RCext)*%
X132080000Y-101600000D02*
X132080000Y-110490000D01*
%TO.N,/TC*%
X204470000Y-120142000D02*
X204470000Y-115316000D01*
X241300000Y-122174000D02*
X244094000Y-122174000D01*
X81280000Y-97028000D02*
X81534000Y-97282000D01*
X238760000Y-95758000D02*
X242570000Y-95758000D01*
X247650000Y-100838000D02*
X247650000Y-115316000D01*
X236474000Y-83566000D02*
X174498000Y-83566000D01*
X216877800Y-115824000D02*
X219671800Y-113030000D01*
X81534000Y-97282000D02*
X119380000Y-97282000D01*
X236220000Y-124460000D02*
X236220000Y-122174000D01*
X244094000Y-122174000D02*
X247650000Y-118618000D01*
X203200000Y-124460000D02*
X203200000Y-121412000D01*
X150876000Y-86360000D02*
X155956000Y-86360000D01*
X204470000Y-107696000D02*
X204470000Y-106628671D01*
X203200000Y-121412000D02*
X204470000Y-120142000D01*
X240030000Y-91186000D02*
X240030000Y-87122000D01*
X201930000Y-104088671D02*
X201930000Y-98552000D01*
X240030000Y-87122000D02*
X236474000Y-83566000D01*
X247650000Y-113030000D02*
X247650000Y-115316000D01*
X147828000Y-94488000D02*
X155956000Y-86360000D01*
X219671800Y-113030000D02*
X247650000Y-113030000D01*
X204470000Y-113030000D02*
X212090000Y-113030000D01*
X119380000Y-97282000D02*
X139446000Y-97282000D01*
X139446000Y-94488000D02*
X147828000Y-94488000D01*
X119380000Y-101600000D02*
X119380000Y-97282000D01*
X174498000Y-83566000D02*
X174244000Y-83566000D01*
X204470000Y-115316000D02*
X204470000Y-114808000D01*
X214884000Y-115824000D02*
X216877800Y-115824000D01*
X201930000Y-98552000D02*
X203200000Y-97282000D01*
X242570000Y-95758000D02*
X247650000Y-100838000D01*
X204470000Y-106628671D02*
X201930000Y-104088671D01*
X212090000Y-113030000D02*
X214884000Y-115824000D01*
X204470000Y-114808000D02*
X204470000Y-113030000D01*
X247650000Y-118618000D02*
X247650000Y-115316000D01*
X203200000Y-97282000D02*
X203200000Y-93980000D01*
X158750000Y-83566000D02*
X166878000Y-83566000D01*
X155956000Y-86360000D02*
X158750000Y-83566000D01*
%TO.N,Net-(U14-Pad3)*%
X124714000Y-129286000D02*
X143256000Y-129286000D01*
X149860000Y-129540000D02*
X154940000Y-129540000D01*
X145034000Y-131064000D02*
X148336000Y-131064000D01*
X148336000Y-131064000D02*
X149860000Y-129540000D01*
X154940000Y-129540000D02*
X160020000Y-124460000D01*
X121920000Y-132080000D02*
X124714000Y-129286000D01*
X143256000Y-129286000D02*
X145034000Y-131064000D01*
%TO.N,Net-(U14-Pad2)*%
X123444000Y-128016000D02*
X153924000Y-128016000D01*
X153924000Y-128016000D02*
X157480000Y-124460000D01*
X119380000Y-132080000D02*
X123444000Y-128016000D01*
%TO.N,/PAD 1 ADDRD*%
X68326000Y-101854000D02*
X68326000Y-110744000D01*
X104140000Y-137160000D02*
X100330000Y-133350000D01*
X68326000Y-72136000D02*
X64770000Y-68580000D01*
X64770000Y-68580000D02*
X63500000Y-68580000D01*
X149098000Y-137160000D02*
X104140000Y-137160000D01*
X63500000Y-68580000D02*
X60960000Y-68580000D01*
X68326000Y-97028000D02*
X68326000Y-72136000D01*
X100330000Y-122936000D02*
X93726000Y-116332000D01*
X68326000Y-110744000D02*
X73914000Y-116332000D01*
X100330000Y-133350000D02*
X100330000Y-128016000D01*
X157480000Y-137160000D02*
X162560000Y-132080000D01*
X100330000Y-124968000D02*
X100330000Y-122936000D01*
X152908000Y-137160000D02*
X157480000Y-137160000D01*
X60960000Y-68580000D02*
X60960000Y-66040000D01*
X63500000Y-71896000D02*
X63500000Y-68580000D01*
X93726000Y-116332000D02*
X93218000Y-116332000D01*
%TO.N,/PAD 2 ADDRD*%
X60960000Y-78740000D02*
X60960000Y-81280000D01*
X72390000Y-117602000D02*
X73914000Y-117602000D01*
X66040000Y-111252000D02*
X72390000Y-117602000D01*
X148844000Y-139192000D02*
X152400000Y-135636000D01*
X99060000Y-124968000D02*
X99060000Y-123444000D01*
X63500000Y-81280000D02*
X60960000Y-81280000D01*
X99060000Y-128016000D02*
X99060000Y-134620000D01*
X103632000Y-139192000D02*
X148844000Y-139192000D01*
X66040000Y-101854000D02*
X66040000Y-111252000D01*
X63500000Y-74930000D02*
X63500000Y-81280000D01*
X66040000Y-83820000D02*
X63500000Y-81280000D01*
X99060000Y-123444000D02*
X93218000Y-117602000D01*
X99060000Y-134620000D02*
X103632000Y-139192000D01*
X66040000Y-97028000D02*
X66040000Y-83820000D01*
X152400000Y-135636000D02*
X152400000Y-132080000D01*
%TD*%
M02*
