M48
; DRILL file {KiCad (7.0.0)} date Sun Sep 24 17:54:08 2023
; FORMAT={-:-/ absolute / metric / decimal}
; #@! TF.CreationDate,2023-09-24T17:54:08-07:00
; #@! TF.GenerationSoftware,Kicad,Pcbnew,(7.0.0)
; #@! TF.FileFunction,Plated,1,2,PTH
FMAT,2
METRIC
; #@! TA.AperFunction,Plated,PTH,ViaDrill
T1C0.381
; #@! TA.AperFunction,Plated,PTH,ComponentDrill
T2C0.800
; #@! TA.AperFunction,Plated,PTH,ComponentDrill
T3C0.900
; #@! TA.AperFunction,Plated,PTH,ComponentDrill
T4C1.000
; #@! TA.AperFunction,Plated,PTH,ComponentDrill
T5C1.800
%
G90
G05
T1
X64.262Y-91.44
X64.262Y-111.76
X66.04Y-97.028
X66.04Y-101.854
X68.326Y-97.028
X68.326Y-101.854
X71.882Y-91.44
X73.914Y-116.332
X73.914Y-117.602
X74.93Y-103.632
X74.93Y-111.76
X75.184Y-141.478
X75.692Y-58.674
X77.216Y-141.478
X77.47Y-103.632
X79.756Y-56.642
X80.01Y-103.632
X81.28Y-97.028
X81.28Y-135.636
X82.55Y-103.632
X82.55Y-122.682
X82.55Y-127.508
X92.71Y-141.478
X93.218Y-116.332
X93.218Y-117.602
X95.25Y-141.478
X98.044Y-142.748
X99.06Y-124.968
X99.06Y-128.016
X100.33Y-124.968
X100.33Y-128.016
X104.775Y-136.017
X105.664Y-94.488
X105.664Y-98.298
X114.3Y-98.298
X115.681Y-72.898
X124.46Y-112.014
X124.46Y-117.856
X129.54Y-113.284
X129.54Y-117.856
X130.81Y-120.65
X137.668Y-94.488
X137.668Y-98.806
X139.446Y-94.488
X139.446Y-97.282
X142.24Y-125.222
X142.24Y-130.302
X142.24Y-133.35
X142.24Y-141.478
X149.098Y-137.16
X151.384Y-134.366
X152.908Y-137.16
X158.496Y-94.234
X158.496Y-97.79
X166.878Y-83.566
X166.878Y-100.076
X168.656Y-116.586
X169.926Y-98.806
X169.926Y-112.522
X169.926Y-127.254
X169.926Y-129.54
X170.688Y-87.884
X170.688Y-89.154
X171.45Y-61.722
X171.45Y-64.77
X171.45Y-97.282
X174.244Y-83.566
X174.244Y-94.488
X174.244Y-98.806
X174.244Y-100.076
X174.244Y-112.522
X174.244Y-116.586
X175.26Y-81.788
X180.34Y-93.472
X180.34Y-101.6
X180.848Y-75.438
X183.388Y-75.438
X187.452Y-126.492
X188.976Y-126.492
X189.738Y-127.508
X190.5Y-103.378
X190.5Y-104.648
X190.5Y-112.268
X190.5Y-122.682
X193.04Y-96.774
X194.564Y-96.774
X195.58Y-122.682
X196.85Y-103.378
X200.66Y-127.508
X204.47Y-103.378
X204.47Y-107.696
X204.47Y-113.03
X205.74Y-87.122
X207.01Y-107.696
X207.01Y-113.792
X207.772Y-78.74
X207.772Y-81.788
X208.28Y-96.774
X209.55Y-122.682
X210.82Y-82.55
X212.598Y-96.774
X212.598Y-126.492
X213.36Y-81.788
X214.122Y-96.774
X214.122Y-126.492
X215.138Y-88.138
X216.916Y-97.79
X218.186Y-97.028
X219.202Y-96.012
X220.218Y-126.492
X220.726Y-96.012
X221.742Y-126.492
X222.758Y-118.618
X222.758Y-121.412
X223.52Y-122.174
X224.028Y-88.138
X228.6Y-122.174
X231.14Y-122.174
X233.68Y-118.618
X236.22Y-122.174
X238.76Y-95.758
X238.76Y-126.238
X239.014Y-77.47
X239.014Y-81.788
X240.03Y-91.186
X241.3Y-122.174
X241.3Y-126.238
X242.062Y-91.186
T2
X58.46Y-134.62
X60.96Y-134.62
X63.5Y-71.896
X63.5Y-75.438
X73.66Y-71.896
X73.66Y-75.438
X73.66Y-93.98
X73.66Y-98.98
X73.66Y-124.46
X73.66Y-129.46
X78.74Y-93.98
X78.74Y-101.6
X78.74Y-124.46
X78.74Y-132.08
X81.28Y-93.98
X81.28Y-101.6
X81.28Y-124.46
X81.28Y-132.08
X83.82Y-93.98
X83.82Y-101.6
X83.82Y-124.46
X83.82Y-132.08
X86.36Y-93.98
X86.36Y-101.6
X86.36Y-124.46
X86.36Y-132.08
X88.9Y-93.98
X88.9Y-101.6
X88.9Y-124.46
X88.9Y-132.08
X91.44Y-93.98
X91.44Y-101.6
X91.44Y-124.46
X91.44Y-132.08
X91.694Y-70.612
X93.98Y-93.98
X93.98Y-101.6
X93.98Y-124.46
X93.98Y-132.08
X96.52Y-93.98
X96.52Y-101.6
X96.52Y-124.46
X96.52Y-132.08
X101.854Y-70.612
X106.68Y-111.76
X106.68Y-121.92
X107.442Y-70.612
X107.442Y-73.112
X111.76Y-93.98
X111.76Y-98.98
X111.76Y-124.46
X111.76Y-129.46
X116.84Y-93.98
X116.84Y-101.6
X116.84Y-124.46
X116.84Y-132.08
X119.38Y-81.534
X119.38Y-87.376
X119.38Y-93.98
X119.38Y-101.6
X119.38Y-124.46
X119.38Y-132.08
X121.412Y-74.168
X121.92Y-93.98
X121.92Y-101.6
X121.92Y-106.68
X121.92Y-124.46
X121.92Y-132.08
X124.38Y-81.534
X124.46Y-93.98
X124.46Y-101.6
X124.46Y-124.46
X124.46Y-132.08
X127.0Y-93.98
X127.0Y-101.6
X127.0Y-124.46
X127.0Y-132.08
X129.54Y-87.376
X129.54Y-93.98
X129.54Y-101.6
X129.54Y-124.46
X129.54Y-132.08
X131.572Y-74.168
X132.08Y-93.98
X132.08Y-101.6
X132.08Y-106.68
X132.08Y-110.49
X132.08Y-124.46
X132.08Y-132.08
X134.62Y-93.98
X134.62Y-101.6
X137.08Y-110.49
X147.32Y-124.46
X147.32Y-129.46
X152.4Y-124.46
X152.4Y-132.08
X154.94Y-124.46
X154.94Y-132.08
X157.48Y-124.46
X157.48Y-132.08
X158.496Y-68.58
X158.496Y-78.74
X160.02Y-124.46
X160.02Y-132.08
X162.56Y-68.58
X162.56Y-78.74
X162.56Y-124.46
X162.56Y-132.08
X165.1Y-124.46
X165.1Y-132.08
X167.64Y-124.46
X167.64Y-132.08
X168.91Y-73.74
X168.91Y-78.74
X172.72Y-78.74
X172.72Y-86.36
X175.26Y-71.12
X175.26Y-78.74
X175.26Y-86.36
X175.514Y-123.19
X175.514Y-133.35
X177.8Y-71.12
X177.8Y-78.74
X177.8Y-86.36
X180.34Y-71.12
X180.34Y-78.74
X180.34Y-86.36
X181.61Y-123.19
X181.61Y-133.35
X182.88Y-71.12
X182.88Y-78.74
X182.88Y-86.36
X182.88Y-109.22
X182.88Y-114.22
X185.42Y-71.12
X185.42Y-78.74
X185.42Y-86.36
X187.96Y-71.12
X187.96Y-78.74
X187.96Y-86.36
X187.96Y-93.98
X187.96Y-98.98
X187.96Y-109.22
X187.96Y-116.84
X187.96Y-124.46
X187.96Y-129.46
X190.5Y-71.12
X190.5Y-78.74
X190.5Y-86.36
X190.5Y-109.22
X190.5Y-116.84
X193.04Y-71.12
X193.04Y-78.74
X193.04Y-86.36
X193.04Y-93.98
X193.04Y-101.6
X193.04Y-109.22
X193.04Y-116.84
X193.04Y-124.46
X193.04Y-132.08
X195.58Y-71.12
X195.58Y-78.74
X195.58Y-86.36
X195.58Y-93.98
X195.58Y-101.6
X195.58Y-109.22
X195.58Y-116.84
X195.58Y-124.46
X195.58Y-132.08
X198.12Y-93.98
X198.12Y-101.6
X198.12Y-109.22
X198.12Y-116.84
X198.12Y-124.46
X198.12Y-132.08
X200.66Y-93.98
X200.66Y-101.6
X200.66Y-109.22
X200.66Y-116.84
X200.66Y-124.46
X200.66Y-132.08
X203.2Y-93.98
X203.2Y-101.6
X203.2Y-109.22
X203.2Y-116.84
X203.2Y-124.46
X203.2Y-132.08
X205.74Y-93.98
X205.74Y-101.6
X205.74Y-109.22
X205.74Y-116.84
X205.74Y-124.46
X205.74Y-132.08
X205.994Y-73.486
X205.994Y-78.486
X208.28Y-93.98
X208.28Y-101.6
X208.28Y-109.22
X208.28Y-116.84
X208.28Y-124.46
X208.28Y-132.08
X210.82Y-78.74
X210.82Y-86.36
X210.82Y-93.98
X210.82Y-101.6
X210.82Y-109.22
X210.82Y-116.84
X210.82Y-124.46
X210.82Y-132.08
X213.36Y-78.74
X213.36Y-86.36
X214.884Y-132.08
X215.9Y-78.74
X215.9Y-86.36
X215.9Y-109.22
X215.9Y-114.22
X217.17Y-71.12
X217.384Y-132.08
X218.44Y-78.74
X218.44Y-86.36
X219.71Y-71.12
X220.98Y-78.74
X220.98Y-86.36
X220.98Y-93.98
X220.98Y-98.98
X220.98Y-109.22
X220.98Y-116.84
X220.98Y-124.46
X220.98Y-129.46
X222.25Y-71.12
X223.52Y-78.74
X223.52Y-86.36
X223.52Y-109.22
X223.52Y-116.84
X224.79Y-71.12
X226.06Y-78.74
X226.06Y-86.36
X226.06Y-93.98
X226.06Y-101.6
X226.06Y-109.22
X226.06Y-116.84
X226.06Y-124.46
X226.06Y-132.08
X227.33Y-71.12
X228.6Y-78.74
X228.6Y-86.36
X228.6Y-93.98
X228.6Y-101.6
X228.6Y-109.22
X228.6Y-116.84
X228.6Y-124.46
X228.6Y-132.08
X229.87Y-71.12
X231.14Y-78.74
X231.14Y-86.36
X231.14Y-93.98
X231.14Y-101.6
X231.14Y-109.22
X231.14Y-116.84
X231.14Y-124.46
X231.14Y-132.08
X232.41Y-71.12
X233.68Y-78.74
X233.68Y-86.36
X233.68Y-93.98
X233.68Y-101.6
X233.68Y-109.22
X233.68Y-116.84
X233.68Y-124.46
X233.68Y-132.08
X234.95Y-71.12
X236.22Y-93.98
X236.22Y-101.6
X236.22Y-109.22
X236.22Y-116.84
X236.22Y-124.46
X236.22Y-132.08
X237.49Y-71.12
X238.76Y-93.98
X238.76Y-101.6
X238.76Y-109.22
X238.76Y-116.84
X238.76Y-124.46
X238.76Y-132.08
X241.3Y-74.93
X241.3Y-93.98
X241.3Y-101.6
X241.3Y-109.22
X241.3Y-116.84
X241.3Y-124.46
X241.3Y-132.08
X243.84Y-93.98
X243.84Y-101.6
X243.84Y-109.22
X243.84Y-116.84
X243.84Y-124.46
X243.84Y-132.08
X251.46Y-74.93
T3
X160.02Y-63.5
X162.56Y-63.5
X166.37Y-63.5
X168.91Y-63.5
X179.07Y-63.5
X181.61Y-63.5
X185.42Y-63.5
X187.96Y-63.5
X191.77Y-63.5
X194.31Y-63.5
X198.12Y-63.5
X200.66Y-63.5
X204.47Y-63.5
X207.01Y-63.5
X210.82Y-63.5
X213.36Y-63.5
X217.17Y-63.5
X219.71Y-63.5
X223.52Y-63.5
X226.06Y-63.5
X229.87Y-63.5
X232.41Y-63.5
X236.22Y-63.5
X238.76Y-63.5
X242.57Y-63.5
X245.11Y-63.5
X248.92Y-63.5
X251.46Y-63.5
T4
X60.96Y-66.04
X60.96Y-68.58
X60.96Y-78.74
X60.96Y-81.28
X60.96Y-88.9
X60.96Y-91.44
X60.96Y-93.98
X60.96Y-96.52
X60.96Y-99.06
X60.96Y-109.22
X60.96Y-111.76
X60.96Y-114.3
X60.96Y-116.84
X60.96Y-119.38
X60.96Y-144.78
X63.5Y-144.78
X66.04Y-144.78
X68.58Y-144.78
X71.12Y-144.78
X73.66Y-144.78
X76.2Y-86.36
X76.2Y-144.78
X78.74Y-144.78
X81.28Y-111.76
X81.28Y-114.3
X81.28Y-144.78
X83.82Y-111.76
X83.82Y-114.3
X83.82Y-144.78
X86.36Y-111.76
X86.36Y-114.3
X86.36Y-144.78
X88.9Y-111.76
X88.9Y-114.3
X88.9Y-144.78
X91.44Y-111.76
X91.44Y-114.3
X91.44Y-144.78
X92.456Y-86.36
X93.98Y-144.78
X101.6Y-144.78
X104.14Y-144.78
X106.68Y-144.78
X107.442Y-86.36
X109.22Y-144.78
X111.76Y-144.78
X114.3Y-144.78
X116.84Y-144.78
X119.38Y-144.78
X121.92Y-144.78
X124.46Y-144.78
X127.0Y-144.78
X129.54Y-144.78
X132.08Y-144.78
X134.62Y-144.78
X136.144Y-86.36
X137.16Y-144.78
X139.7Y-144.78
X150.876Y-86.36
X164.592Y-86.36
X165.1Y-144.78
X167.64Y-144.78
X170.18Y-144.78
X172.72Y-144.78
X175.26Y-144.78
X177.8Y-144.78
X180.34Y-144.78
X182.88Y-144.78
X185.42Y-144.78
X187.96Y-144.78
X190.5Y-144.78
X193.04Y-144.78
X195.58Y-144.78
X198.12Y-144.78
X200.66Y-144.78
X203.2Y-144.78
X205.74Y-144.78
X208.28Y-144.78
X210.82Y-144.78
X213.36Y-144.78
X215.9Y-144.78
X218.44Y-144.78
X220.98Y-144.78
X223.52Y-144.78
X226.06Y-144.78
X228.6Y-144.78
X231.14Y-144.78
X233.68Y-144.78
X236.22Y-144.78
X238.76Y-144.78
X241.3Y-79.248
X241.3Y-81.788
X241.3Y-84.328
X241.3Y-144.78
X243.84Y-144.78
T5
X71.82Y-64.516
X75.803Y-64.516
X79.787Y-64.516
X83.77Y-64.516
X90.17Y-64.516
X94.22Y-64.516
X98.27Y-64.516
X120.08Y-64.516
X124.063Y-64.516
X128.047Y-64.516
X132.03Y-64.516
X138.43Y-64.516
X142.48Y-64.516
X146.53Y-64.516
T0
M30
