%FSLAX45Y45*%
G04 Gerber Fmt 4.5, Leading zero omitted, Abs format (unit mm)*
G04 Created by KiCad (PCBNEW (5.1.5)-3) date 2022-12-08 22:08:23*
%MOMM*%
%LPD*%
G04 APERTURE LIST*
%TA.AperFunction,Profile*%
%ADD10C,0.050000*%
%TD*%
%ADD11C,0.200000*%
%ADD12C,0.300000*%
G04 APERTURE END LIST*
D10*
X5270500Y-14859000D02*
G75*
G02X5080000Y-14668500I0J190500D01*
G01*
X25400000Y-14668500D02*
G75*
G02X25209500Y-14859000I-190500J0D01*
G01*
X25209500Y-5080000D02*
G75*
G02X25400000Y-5270500I0J-190500D01*
G01*
X5080000Y-5270500D02*
G75*
G02X5270500Y-5080000I190500J0D01*
G01*
X5080000Y-14668500D02*
X5080000Y-5270500D01*
X5270500Y-5080000D02*
X25209500Y-5080000D01*
X25209500Y-14859000D02*
X5270500Y-14859000D01*
X25400000Y-5270500D02*
X25400000Y-14668500D01*
D11*
D12*
X5363928Y-15327214D02*
X5363928Y-15027214D01*
X5435357Y-15027214D01*
X5478214Y-15041500D01*
X5506786Y-15070071D01*
X5521071Y-15098643D01*
X5535357Y-15155786D01*
X5535357Y-15198643D01*
X5521071Y-15255786D01*
X5506786Y-15284357D01*
X5478214Y-15312929D01*
X5435357Y-15327214D01*
X5363928Y-15327214D01*
X5663928Y-15327214D02*
X5663928Y-15127214D01*
X5663928Y-15184357D02*
X5678214Y-15155786D01*
X5692500Y-15141500D01*
X5721071Y-15127214D01*
X5749643Y-15127214D01*
X5849643Y-15327214D02*
X5849643Y-15127214D01*
X5849643Y-15027214D02*
X5835357Y-15041500D01*
X5849643Y-15055786D01*
X5863928Y-15041500D01*
X5849643Y-15027214D01*
X5849643Y-15055786D01*
X6035357Y-15327214D02*
X6006786Y-15312929D01*
X5992500Y-15284357D01*
X5992500Y-15027214D01*
X6192500Y-15327214D02*
X6163928Y-15312929D01*
X6149643Y-15284357D01*
X6149643Y-15027214D01*
X6535357Y-15327214D02*
X6535357Y-15027214D01*
X6635357Y-15241500D01*
X6735357Y-15027214D01*
X6735357Y-15327214D01*
X7006786Y-15327214D02*
X7006786Y-15170071D01*
X6992500Y-15141500D01*
X6963928Y-15127214D01*
X6906786Y-15127214D01*
X6878214Y-15141500D01*
X7006786Y-15312929D02*
X6978214Y-15327214D01*
X6906786Y-15327214D01*
X6878214Y-15312929D01*
X6863928Y-15284357D01*
X6863928Y-15255786D01*
X6878214Y-15227214D01*
X6906786Y-15212929D01*
X6978214Y-15212929D01*
X7006786Y-15198643D01*
X7149643Y-15127214D02*
X7149643Y-15427214D01*
X7149643Y-15141500D02*
X7178214Y-15127214D01*
X7235357Y-15127214D01*
X7263928Y-15141500D01*
X7278214Y-15155786D01*
X7292500Y-15184357D01*
X7292500Y-15270071D01*
X7278214Y-15298643D01*
X7263928Y-15312929D01*
X7235357Y-15327214D01*
X7178214Y-15327214D01*
X7149643Y-15312929D01*
X7421071Y-15298643D02*
X7435357Y-15312929D01*
X7421071Y-15327214D01*
X7406786Y-15312929D01*
X7421071Y-15298643D01*
X7421071Y-15327214D01*
X7421071Y-15141500D02*
X7435357Y-15155786D01*
X7421071Y-15170071D01*
X7406786Y-15155786D01*
X7421071Y-15141500D01*
X7421071Y-15170071D01*
M02*
