M48
; DRILL file {KiCad (5.1.5)-3} date 2022-12-08 10:08:22 PM
; FORMAT={-:-/ absolute / metric / decimal}
; #@! TF.CreationDate,2022-12-08T22:08:22-08:00
; #@! TF.GenerationSoftware,Kicad,Pcbnew,(5.1.5)-3
; #@! TF.FileFunction,Plated,1,2,PTH
FMAT,2
METRIC
T1C0.400
T2C0.800
T3C0.900
T4C1.000
%
G90
G05
T1
X68.58Y-141.732
X72.644Y-134.62
X73.66Y-141.732
X76.962Y-118.11
X80.518Y-118.11
X81.788Y-68.58
X82.55Y-67.564
X84.836Y-142.748
X85.09Y-67.564
X85.598Y-68.58
X86.106Y-140.208
X87.63Y-118.11
X90.424Y-118.11
X91.948Y-94.234
X91.948Y-96.266
X91.948Y-100.33
X91.948Y-104.394
X92.456Y-142.748
X92.71Y-111.76
X92.71Y-140.208
X93.218Y-98.298
X93.218Y-102.362
X93.98Y-128.016
X95.504Y-140.208
X96.52Y-94.234
X96.52Y-96.266
X96.52Y-98.298
X96.52Y-100.33
X96.52Y-102.362
X96.52Y-104.394
X97.536Y-143.002
X107.696Y-68.58
X111.252Y-101.854
X111.252Y-68.58
X111.252Y-91.44
X111.252Y-93.726
X111.252Y-95.758
X111.252Y-97.79
X111.252Y-99.822
X127.0Y-128.016
X140.97Y-143.002
X143.51Y-140.208
X147.828Y-89.408
X147.828Y-102.87
X149.352Y-89.408
X149.352Y-105.156
X150.876Y-105.156
X150.876Y-76.708
X150.876Y-80.264
X150.876Y-89.408
X151.892Y-125.73
X151.892Y-129.032
X152.4Y-76.708
X152.4Y-80.264
X152.4Y-87.884
X152.4Y-89.408
X152.4Y-105.156
X153.162Y-136.398
X153.162Y-125.222
X153.924Y-76.708
X153.924Y-80.264
X153.924Y-97.79
X153.924Y-105.156
X154.686Y-125.476
X154.686Y-136.906
X155.448Y-78.232
X155.448Y-80.264
X155.448Y-89.408
X155.448Y-105.156
X156.972Y-103.886
X157.48Y-109.22
X159.258Y-110.744
X160.274Y-116.332
X160.274Y-117.91
X160.274Y-119.38
X161.29Y-123.444
X161.29Y-132.842
X164.084Y-109.22
X164.084Y-116.332
X164.084Y-117.856
X164.084Y-119.38
X164.592Y-110.744
X165.1Y-96.52
X165.1Y-101.6
X166.37Y-96.52
X166.37Y-104.14
X166.37Y-133.858
X166.37Y-135.89
X166.37Y-137.922
X167.64Y-76.2
X168.91Y-125.984
X168.91Y-129.032
X171.45Y-92.456
X179.324Y-112.522
X183.134Y-120.904
X183.134Y-129.794
X183.896Y-114.3
X184.404Y-130.556
X184.658Y-95.758
X184.658Y-105.918
X185.674Y-121.92
X185.674Y-129.032
X185.928Y-108.204
X185.928Y-112.014
X186.69Y-114.3
X186.944Y-118.364
X187.198Y-104.902
X187.198Y-125.984
X187.198Y-129.032
X187.452Y-92.456
X189.992Y-95.758
X190.5Y-140.208
X192.278Y-103.886
X193.04Y-102.87
X193.04Y-141.478
X193.548Y-92.456
X194.056Y-97.028
X194.056Y-99.568
X194.31Y-117.602
X194.31Y-120.65
X195.326Y-88.392
X195.326Y-93.472
X195.326Y-94.742
X195.834Y-112.522
X195.834Y-122.174
X196.596Y-88.392
X196.596Y-102.87
X197.104Y-99.568
X197.104Y-97.028
X197.358Y-103.886
X198.12Y-135.382
X198.12Y-136.906
X200.66Y-95.758
X200.66Y-98.806
X200.66Y-116.078
X200.66Y-118.364
X201.168Y-109.22
X201.93Y-110.236
X201.93Y-115.57
X201.93Y-117.602
X202.438Y-109.22
X203.2Y-137.668
X205.994Y-110.236
X206.756Y-109.22
X207.01Y-117.602
X207.01Y-120.904
X208.026Y-109.22
X208.28Y-89.408
X208.28Y-117.602
X208.28Y-120.904
X209.55Y-117.602
X209.55Y-120.904
X209.804Y-111.506
X210.82Y-117.602
X210.82Y-120.904
X213.36Y-111.506
X216.662Y-107.95
X216.662Y-112.014
X216.662Y-118.11
X216.662Y-121.92
X216.662Y-125.73
X216.662Y-129.032
X218.186Y-102.108
X218.186Y-118.11
X218.186Y-121.92
X218.186Y-125.73
X218.186Y-129.032
X218.186Y-110.49
X219.456Y-102.87
X219.456Y-110.49
X219.71Y-117.602
X219.71Y-121.92
X219.71Y-129.032
X219.71Y-125.73
X220.726Y-101.346
X220.726Y-110.49
X221.234Y-115.824
X221.234Y-121.92
X221.234Y-125.73
X221.234Y-129.032
X222.25Y-103.632
X222.25Y-110.49
X222.504Y-125.73
X222.504Y-129.032
X226.568Y-102.108
X226.822Y-104.394
X227.076Y-128.016
X227.076Y-125.73
X227.076Y-133.35
X229.616Y-102.108
X230.632Y-104.394
X233.68Y-116.078
X234.95Y-127.508
X237.49Y-122.936
X237.49Y-125.984
X238.76Y-128.778
X239.014Y-110.744
X241.046Y-110.744
X242.57Y-133.35
X242.57Y-138.176
X243.84Y-89.662
X243.84Y-87.376
X245.11Y-130.556
T2
X157.48Y-124.46
X157.48Y-129.46
X77.978Y-104.14
X88.138Y-104.14
X236.22Y-71.12
X236.22Y-81.28
X226.06Y-136.144
X236.22Y-136.144
X198.12Y-86.36
X198.12Y-93.98
X200.66Y-86.36
X200.66Y-93.98
X203.2Y-86.36
X203.2Y-93.98
X205.74Y-86.36
X205.74Y-93.98
X208.28Y-86.36
X208.28Y-93.98
X210.82Y-86.36
X210.82Y-93.98
X213.36Y-86.36
X213.36Y-93.98
X215.9Y-86.36
X215.9Y-93.98
X218.44Y-86.36
X218.44Y-93.98
X220.98Y-86.36
X220.98Y-93.98
X224.79Y-106.68
X224.79Y-111.68
X165.1Y-63.5
X165.1Y-71.12
X167.64Y-63.5
X167.64Y-71.12
X170.18Y-63.5
X170.18Y-71.12
X172.72Y-63.5
X172.72Y-71.12
X175.26Y-63.5
X175.26Y-71.12
X177.8Y-63.5
X177.8Y-71.12
X180.34Y-63.5
X180.34Y-71.12
X182.88Y-63.5
X182.88Y-71.12
X191.77Y-124.46
X191.77Y-129.46
X96.52Y-119.38
X99.06Y-119.38
X101.6Y-119.38
X104.14Y-119.38
X106.68Y-119.38
X109.22Y-119.38
X111.76Y-119.38
X114.3Y-119.38
X116.84Y-119.38
X180.34Y-81.28
X185.34Y-81.28
X77.978Y-107.95
X88.138Y-107.95
X198.12Y-71.12
X198.12Y-81.28
X165.1Y-81.28
X175.26Y-81.28
X124.46Y-124.46
X124.46Y-132.08
X127.0Y-124.46
X127.0Y-132.08
X129.54Y-124.46
X129.54Y-132.08
X132.08Y-124.46
X132.08Y-132.08
X134.62Y-124.46
X134.62Y-132.08
X137.16Y-124.46
X137.16Y-132.08
X139.7Y-124.46
X139.7Y-132.08
X142.24Y-124.46
X142.24Y-132.08
X144.78Y-124.46
X144.78Y-132.08
X147.32Y-124.46
X147.32Y-132.08
X54.61Y-82.55
X54.61Y-87.55
X111.76Y-66.04
X111.76Y-71.04
X165.1Y-106.68
X165.1Y-114.3
X167.64Y-106.68
X167.64Y-114.3
X170.18Y-106.68
X170.18Y-114.3
X172.72Y-106.68
X172.72Y-114.3
X175.26Y-106.68
X175.26Y-114.3
X177.8Y-106.68
X177.8Y-114.3
X180.34Y-106.68
X180.34Y-114.3
X86.36Y-78.74
X88.9Y-78.74
X91.44Y-78.74
X93.98Y-78.74
X96.52Y-78.74
X99.06Y-78.74
X101.6Y-78.74
X104.14Y-78.74
X106.68Y-78.74
X77.978Y-111.76
X88.138Y-111.76
X210.82Y-71.12
X210.82Y-81.28
X157.48Y-139.7
X157.48Y-144.7
X155.02Y-66.04
X160.02Y-66.04
X204.47Y-71.12
X204.47Y-81.28
X231.14Y-124.46
X231.14Y-132.08
X233.68Y-124.46
X233.68Y-132.08
X236.22Y-124.46
X236.22Y-132.08
X238.76Y-124.46
X238.76Y-132.08
X241.3Y-124.46
X241.3Y-132.08
X243.84Y-124.46
X243.84Y-132.08
X246.38Y-124.46
X246.38Y-132.08
X160.02Y-81.36
X160.02Y-86.36
X127.0Y-137.16
X129.54Y-137.16
X132.08Y-137.16
X134.62Y-137.16
X137.16Y-137.16
X139.7Y-137.16
X142.24Y-137.16
X144.78Y-137.16
X147.32Y-137.16
X198.12Y-124.46
X198.12Y-132.08
X200.66Y-124.46
X200.66Y-132.08
X203.2Y-124.46
X203.2Y-132.08
X205.74Y-124.46
X205.74Y-132.08
X208.28Y-124.46
X208.28Y-132.08
X210.82Y-124.46
X210.82Y-132.08
X213.36Y-124.46
X213.36Y-132.08
X59.69Y-78.74
X62.23Y-78.74
X64.77Y-78.74
X67.31Y-78.74
X69.85Y-78.74
X72.39Y-78.74
X74.93Y-78.74
X77.47Y-78.74
X80.01Y-78.74
X186.77Y-86.36
X191.77Y-86.36
X229.87Y-71.12
X229.87Y-81.28
X165.1Y-76.2
X175.26Y-76.2
X217.17Y-71.12
X217.17Y-81.28
X231.14Y-106.68
X231.14Y-114.3
X233.68Y-106.68
X233.68Y-114.3
X236.22Y-106.68
X236.22Y-114.3
X238.76Y-106.68
X238.76Y-114.3
X241.3Y-106.68
X241.3Y-114.3
X243.84Y-106.68
X243.84Y-114.3
X246.38Y-106.68
X246.38Y-114.3
X53.34Y-66.04
X53.34Y-73.66
X55.88Y-66.04
X55.88Y-73.66
X58.42Y-66.04
X58.42Y-73.66
X60.96Y-66.04
X60.96Y-73.66
X63.5Y-66.04
X63.5Y-73.66
X66.04Y-66.04
X66.04Y-73.66
X68.58Y-66.04
X68.58Y-73.66
X71.12Y-66.04
X71.12Y-73.66
X73.66Y-66.04
X73.66Y-73.66
X76.2Y-66.04
X76.2Y-73.66
X93.98Y-137.16
X96.52Y-137.16
X99.06Y-137.16
X101.6Y-137.16
X104.14Y-137.16
X106.68Y-137.16
X109.22Y-137.16
X111.76Y-137.16
X114.3Y-137.16
X86.36Y-129.54
X86.36Y-134.54
X58.42Y-111.8
X58.42Y-114.3
X77.978Y-92.71
X88.138Y-92.71
X247.904Y-89.916
X247.904Y-100.076
X191.77Y-71.12
X191.77Y-81.28
X228.092Y-94.528
X228.092Y-97.028
X224.79Y-124.46
X224.79Y-129.46
X119.38Y-124.46
X119.38Y-129.46
X157.48Y-106.68
X157.48Y-111.68
X77.978Y-96.52
X88.138Y-96.52
X223.52Y-71.12
X223.52Y-81.28
X91.44Y-124.46
X91.44Y-132.08
X93.98Y-124.46
X93.98Y-132.08
X96.52Y-124.46
X96.52Y-132.08
X99.06Y-124.46
X99.06Y-132.08
X101.6Y-124.46
X101.6Y-132.08
X104.14Y-124.46
X104.14Y-132.08
X106.68Y-124.46
X106.68Y-132.08
X109.22Y-124.46
X109.22Y-132.08
X111.76Y-124.46
X111.76Y-132.08
X114.3Y-124.46
X114.3Y-132.08
X165.1Y-86.36
X165.1Y-93.98
X167.64Y-86.36
X167.64Y-93.98
X170.18Y-86.36
X170.18Y-93.98
X172.72Y-86.36
X172.72Y-93.98
X175.26Y-86.36
X175.26Y-93.98
X177.8Y-86.36
X177.8Y-93.98
X180.34Y-86.36
X180.34Y-93.98
X182.88Y-86.36
X182.88Y-93.98
X119.38Y-58.46
X119.38Y-60.96
X83.82Y-66.04
X83.82Y-73.66
X86.36Y-66.04
X86.36Y-73.66
X88.9Y-66.04
X88.9Y-73.66
X91.44Y-66.04
X91.44Y-73.66
X93.98Y-66.04
X93.98Y-73.66
X96.52Y-66.04
X96.52Y-73.66
X99.06Y-66.04
X99.06Y-73.66
X101.6Y-66.04
X101.6Y-73.66
X104.14Y-66.04
X104.14Y-73.66
X106.68Y-66.04
X106.68Y-73.66
X165.1Y-124.46
X165.1Y-132.08
X167.64Y-124.46
X167.64Y-132.08
X170.18Y-124.46
X170.18Y-132.08
X172.72Y-124.46
X172.72Y-132.08
X175.26Y-124.46
X175.26Y-132.08
X177.8Y-124.46
X177.8Y-132.08
X180.34Y-124.46
X180.34Y-132.08
X77.978Y-100.33
X88.138Y-100.33
X82.55Y-120.65
X82.55Y-125.65
X151.13Y-134.62
X161.29Y-134.62
X71.12Y-120.65
X71.12Y-123.19
X71.12Y-125.73
X71.12Y-128.27
X71.12Y-130.81
X71.12Y-133.35
X71.12Y-135.89
X78.74Y-120.65
X78.74Y-123.19
X78.74Y-125.73
X78.74Y-128.27
X78.74Y-130.81
X78.74Y-133.35
X78.74Y-135.89
X198.12Y-106.68
X198.12Y-114.3
X200.66Y-106.68
X200.66Y-114.3
X203.2Y-106.68
X203.2Y-114.3
X205.74Y-106.68
X205.74Y-114.3
X208.28Y-106.68
X208.28Y-114.3
X210.82Y-106.68
X210.82Y-114.3
X213.36Y-106.68
X213.36Y-114.3
X191.77Y-106.68
X191.77Y-111.68
X129.54Y-119.38
X132.08Y-119.38
X134.62Y-119.38
X137.16Y-119.38
X139.7Y-119.38
X142.24Y-119.38
X144.78Y-119.38
X147.32Y-119.38
X149.86Y-119.38
X137.16Y-78.74
X137.16Y-86.36
X144.78Y-78.74
X144.78Y-86.36
T3
X204.47Y-63.5
X207.01Y-63.5
X229.87Y-63.5
X232.41Y-63.5
X198.12Y-63.5
X200.66Y-63.5
X236.22Y-63.5
X238.76Y-63.5
X191.77Y-63.5
X194.31Y-63.5
X210.82Y-63.5
X213.36Y-63.5
X217.17Y-63.5
X219.71Y-63.5
X223.52Y-63.5
X226.06Y-63.5
T4
X60.96Y-93.98
X60.96Y-96.52
X60.96Y-99.06
X60.96Y-101.6
X60.96Y-104.14
X60.96Y-106.68
X99.06Y-144.78
X101.6Y-144.78
X104.14Y-144.78
X106.68Y-144.78
X109.22Y-144.78
X111.76Y-144.78
X114.3Y-144.78
X116.84Y-144.78
X119.38Y-144.78
X121.92Y-144.78
X124.46Y-144.78
X127.0Y-144.78
X129.54Y-144.78
X132.08Y-144.78
X134.62Y-144.78
X137.16Y-144.78
X60.96Y-120.65
X60.96Y-123.19
X60.96Y-125.73
X60.96Y-128.27
X63.5Y-144.78
X66.04Y-144.78
X68.58Y-144.78
X71.12Y-144.78
X73.66Y-144.78
X76.2Y-144.78
X78.74Y-144.78
X81.28Y-144.78
X83.82Y-144.78
X86.36Y-144.78
X162.56Y-144.78
X165.1Y-144.78
X167.64Y-144.78
X170.18Y-144.78
X172.72Y-144.78
X175.26Y-144.78
X177.8Y-144.78
X180.34Y-144.78
X182.88Y-144.78
X185.42Y-144.78
X187.96Y-144.78
X190.5Y-144.78
X193.04Y-144.78
X195.58Y-144.78
X198.12Y-144.78
X200.66Y-144.78
X203.2Y-144.78
X205.74Y-144.78
X208.28Y-144.78
X210.82Y-144.78
X213.36Y-144.78
X215.9Y-144.78
X218.44Y-144.78
X220.98Y-144.78
X223.52Y-144.78
X226.06Y-144.78
X228.6Y-144.78
X231.14Y-144.78
X233.68Y-144.78
X236.22Y-144.78
X238.76Y-144.78
X241.3Y-144.78
X96.52Y-60.96
X99.06Y-60.96
X104.14Y-109.22
X104.14Y-111.76
X106.68Y-109.22
X106.68Y-111.76
X109.22Y-109.22
X109.22Y-111.76
X111.76Y-109.22
X111.76Y-111.76
X114.3Y-109.22
X114.3Y-111.76
X116.84Y-109.22
X116.84Y-111.76
X119.38Y-109.22
X119.38Y-111.76
X121.92Y-109.22
X121.92Y-111.76
X124.46Y-109.22
X124.46Y-111.76
X127.0Y-109.22
X127.0Y-111.76
X129.54Y-109.22
X129.54Y-111.76
X132.08Y-109.22
X132.08Y-111.76
X134.62Y-109.22
X134.62Y-111.76
X137.16Y-109.22
X137.16Y-111.76
X139.7Y-109.22
X139.7Y-111.76
X142.24Y-109.22
X142.24Y-111.76
X144.78Y-109.22
X144.78Y-111.76
X60.96Y-85.09
X60.96Y-87.63
X63.5Y-85.09
X63.5Y-87.63
X66.04Y-85.09
X66.04Y-87.63
X68.58Y-85.09
X68.58Y-87.63
X71.12Y-85.09
X71.12Y-87.63
X73.66Y-85.09
X73.66Y-87.63
X76.2Y-85.09
X76.2Y-87.63
X78.74Y-85.09
X78.74Y-87.63
X81.28Y-85.09
X81.28Y-87.63
X83.82Y-85.09
X83.82Y-87.63
X86.36Y-85.09
X86.36Y-87.63
X88.9Y-85.09
X88.9Y-87.63
X91.44Y-85.09
X91.44Y-87.63
X93.98Y-85.09
X93.98Y-87.63
X96.52Y-85.09
X96.52Y-87.63
X99.06Y-85.09
X99.06Y-87.63
X101.6Y-85.09
X101.6Y-87.63
X241.3Y-78.74
X241.3Y-81.28
X241.3Y-83.82
X53.34Y-60.96
X55.88Y-60.96
X58.42Y-60.96
X60.96Y-60.96
X63.5Y-60.96
X66.04Y-60.96
X68.58Y-60.96
X71.12Y-60.96
X73.66Y-60.96
X76.2Y-60.96
X78.74Y-60.96
X81.28Y-60.96
X83.82Y-60.96
X86.36Y-60.96
X88.9Y-60.96
X91.44Y-60.96
T0
M30
