%FSLAX45Y45*%
G04 Gerber Fmt 4.5, Leading zero omitted, Abs format (unit mm)*
G04 Created by KiCad (PCBNEW (5.1.5)-3) date 2022-12-08 22:08:23*
%MOMM*%
%LPD*%
G04 APERTURE LIST*
%TA.AperFunction,Profile*%
%ADD10C,0.050000*%
%TD*%
%ADD11C,0.200000*%
%ADD12C,0.300000*%
G04 APERTURE END LIST*
D10*
X5270500Y-14859000D02*
G75*
G02X5080000Y-14668500I0J190500D01*
G01*
X25400000Y-14668500D02*
G75*
G02X25209500Y-14859000I-190500J0D01*
G01*
X25209500Y-5080000D02*
G75*
G02X25400000Y-5270500I0J-190500D01*
G01*
X5080000Y-5270500D02*
G75*
G02X5270500Y-5080000I190500J0D01*
G01*
X5080000Y-14668500D02*
X5080000Y-5270500D01*
X5270500Y-5080000D02*
X25209500Y-5080000D01*
X25209500Y-14859000D02*
X5270500Y-14859000D01*
X25400000Y-5270500D02*
X25400000Y-14668500D01*
D11*
X6838000Y-14153200D02*
X6878000Y-14193200D01*
X6878000Y-14153200D02*
X6838000Y-14193200D01*
X7244400Y-13442000D02*
X7284400Y-13482000D01*
X7284400Y-13442000D02*
X7244400Y-13482000D01*
X7346000Y-14153200D02*
X7386000Y-14193200D01*
X7386000Y-14153200D02*
X7346000Y-14193200D01*
X7676200Y-11791000D02*
X7716200Y-11831000D01*
X7716200Y-11791000D02*
X7676200Y-11831000D01*
X8031800Y-11791000D02*
X8071800Y-11831000D01*
X8071800Y-11791000D02*
X8031800Y-11831000D01*
X8158800Y-6838000D02*
X8198800Y-6878000D01*
X8198800Y-6838000D02*
X8158800Y-6878000D01*
X8235002Y-6736400D02*
X8275002Y-6776400D01*
X8275002Y-6736400D02*
X8235002Y-6776400D01*
X8463600Y-14254800D02*
X8503600Y-14294800D01*
X8503600Y-14254800D02*
X8463600Y-14294800D01*
X8489000Y-6736400D02*
X8529000Y-6776400D01*
X8529000Y-6736400D02*
X8489000Y-6776400D01*
X8539800Y-6838000D02*
X8579800Y-6878000D01*
X8579800Y-6838000D02*
X8539800Y-6878000D01*
X8590600Y-14000800D02*
X8630600Y-14040800D01*
X8630600Y-14000800D02*
X8590600Y-14040800D01*
X8743000Y-11791000D02*
X8783000Y-11831000D01*
X8783000Y-11791000D02*
X8743000Y-11831000D01*
X9022400Y-11791000D02*
X9062400Y-11831000D01*
X9062400Y-11791000D02*
X9022400Y-11831000D01*
X9174800Y-9403400D02*
X9214800Y-9443400D01*
X9214800Y-9403400D02*
X9174800Y-9443400D01*
X9174800Y-9606601D02*
X9214800Y-9646601D01*
X9214800Y-9606601D02*
X9174800Y-9646601D01*
X9174800Y-10013000D02*
X9214800Y-10053000D01*
X9214800Y-10013000D02*
X9174800Y-10053000D01*
X9174800Y-10419401D02*
X9214800Y-10459401D01*
X9214800Y-10419401D02*
X9174800Y-10459401D01*
X9225600Y-14254799D02*
X9265600Y-14294799D01*
X9265600Y-14254799D02*
X9225600Y-14294799D01*
X9251000Y-11156000D02*
X9291000Y-11196000D01*
X9291000Y-11156000D02*
X9251000Y-11196000D01*
X9251000Y-14000801D02*
X9291000Y-14040801D01*
X9291000Y-14000801D02*
X9251000Y-14040801D01*
X9301800Y-9809800D02*
X9341800Y-9849800D01*
X9341800Y-9809800D02*
X9301800Y-9849800D01*
X9301800Y-10216200D02*
X9341800Y-10256200D01*
X9341800Y-10216200D02*
X9301800Y-10256200D01*
X9378000Y-12781600D02*
X9418000Y-12821600D01*
X9418000Y-12781600D02*
X9378000Y-12821600D01*
X9530400Y-14000800D02*
X9570400Y-14040800D01*
X9570400Y-14000800D02*
X9530400Y-14040800D01*
X9632000Y-9403400D02*
X9672000Y-9443400D01*
X9672000Y-9403400D02*
X9632000Y-9443400D01*
X9632000Y-9606600D02*
X9672000Y-9646600D01*
X9672000Y-9606600D02*
X9632000Y-9646600D01*
X9632000Y-9809800D02*
X9672000Y-9849800D01*
X9672000Y-9809800D02*
X9632000Y-9849800D01*
X9632000Y-10013001D02*
X9672000Y-10053001D01*
X9672000Y-10013001D02*
X9632000Y-10053001D01*
X9632000Y-10216200D02*
X9672000Y-10256200D01*
X9672000Y-10216200D02*
X9632000Y-10256200D01*
X9632000Y-10419400D02*
X9672000Y-10459400D01*
X9672000Y-10419400D02*
X9632000Y-10459400D01*
X9733600Y-14280200D02*
X9773600Y-14320200D01*
X9773600Y-14280200D02*
X9733600Y-14320200D01*
X10749600Y-6838001D02*
X10789600Y-6878001D01*
X10789600Y-6838001D02*
X10749600Y-6878001D01*
X11105200Y-10165400D02*
X11145200Y-10205400D01*
X11145200Y-10165400D02*
X11105200Y-10205400D01*
X11105200Y-6838000D02*
X11145200Y-6878000D01*
X11145200Y-6838000D02*
X11105200Y-6878000D01*
X11105200Y-9124000D02*
X11145200Y-9164000D01*
X11145200Y-9124000D02*
X11105200Y-9164000D01*
X11105200Y-9352600D02*
X11145200Y-9392600D01*
X11145200Y-9352600D02*
X11105200Y-9392600D01*
X11105200Y-9555800D02*
X11145200Y-9595800D01*
X11145200Y-9555800D02*
X11105200Y-9595800D01*
X11105200Y-9759000D02*
X11145200Y-9799000D01*
X11145200Y-9759000D02*
X11105200Y-9799000D01*
X11105200Y-9962200D02*
X11145200Y-10002200D01*
X11145200Y-9962200D02*
X11105200Y-10002200D01*
X12680000Y-12781600D02*
X12720000Y-12821600D01*
X12720000Y-12781600D02*
X12680000Y-12821600D01*
X14077000Y-14280200D02*
X14117000Y-14320200D01*
X14117000Y-14280200D02*
X14077000Y-14320200D01*
X14331000Y-14000800D02*
X14371000Y-14040800D01*
X14371000Y-14000800D02*
X14331000Y-14040800D01*
X14762800Y-8920800D02*
X14802800Y-8960800D01*
X14802800Y-8920800D02*
X14762800Y-8960800D01*
X14762800Y-10267000D02*
X14802800Y-10307000D01*
X14802800Y-10267000D02*
X14762800Y-10307000D01*
X14915200Y-8920800D02*
X14955200Y-8960800D01*
X14955200Y-8920800D02*
X14915200Y-8960800D01*
X14915200Y-10495600D02*
X14955200Y-10535600D01*
X14955200Y-10495600D02*
X14915200Y-10535600D01*
X15067599Y-10495600D02*
X15107599Y-10535600D01*
X15107599Y-10495600D02*
X15067599Y-10535600D01*
X15067600Y-7650800D02*
X15107600Y-7690800D01*
X15107600Y-7650800D02*
X15067600Y-7690800D01*
X15067600Y-8006400D02*
X15107600Y-8046400D01*
X15107600Y-8006400D02*
X15067600Y-8046400D01*
X15067600Y-8920800D02*
X15107600Y-8960800D01*
X15107600Y-8920800D02*
X15067600Y-8960800D01*
X15169200Y-12553001D02*
X15209200Y-12593001D01*
X15209200Y-12553001D02*
X15169200Y-12593001D01*
X15169200Y-12883201D02*
X15209200Y-12923201D01*
X15209200Y-12883201D02*
X15169200Y-12923201D01*
X15220000Y-7650800D02*
X15260000Y-7690800D01*
X15260000Y-7650800D02*
X15220000Y-7690800D01*
X15220000Y-8006400D02*
X15260000Y-8046400D01*
X15260000Y-8006400D02*
X15220000Y-8046400D01*
X15220000Y-8768400D02*
X15260000Y-8808400D01*
X15260000Y-8768400D02*
X15220000Y-8808400D01*
X15220000Y-8920800D02*
X15260000Y-8960800D01*
X15260000Y-8920800D02*
X15220000Y-8960800D01*
X15220000Y-10495600D02*
X15260000Y-10535600D01*
X15260000Y-10495600D02*
X15220000Y-10535600D01*
X15296200Y-13619800D02*
X15336200Y-13659800D01*
X15336200Y-13619800D02*
X15296200Y-13659800D01*
X15296201Y-12502200D02*
X15336201Y-12542200D01*
X15336201Y-12502200D02*
X15296201Y-12542200D01*
X15372400Y-7650800D02*
X15412400Y-7690800D01*
X15412400Y-7650800D02*
X15372400Y-7690800D01*
X15372400Y-8006400D02*
X15412400Y-8046400D01*
X15412400Y-8006400D02*
X15372400Y-8046400D01*
X15372400Y-9759000D02*
X15412400Y-9799000D01*
X15412400Y-9759000D02*
X15372400Y-9799000D01*
X15372400Y-10495600D02*
X15412400Y-10535600D01*
X15412400Y-10495600D02*
X15372400Y-10535600D01*
X15448600Y-12527600D02*
X15488600Y-12567600D01*
X15488600Y-12527600D02*
X15448600Y-12567600D01*
X15448600Y-13670600D02*
X15488600Y-13710600D01*
X15488600Y-13670600D02*
X15448600Y-13710600D01*
X15524800Y-7803200D02*
X15564800Y-7843200D01*
X15564800Y-7803200D02*
X15524800Y-7843200D01*
X15524800Y-8006400D02*
X15564800Y-8046400D01*
X15564800Y-8006400D02*
X15524800Y-8046400D01*
X15524800Y-8920800D02*
X15564800Y-8960800D01*
X15564800Y-8920800D02*
X15524800Y-8960800D01*
X15524801Y-10495600D02*
X15564801Y-10535600D01*
X15564801Y-10495600D02*
X15524801Y-10535600D01*
X15677200Y-10368600D02*
X15717200Y-10408600D01*
X15717200Y-10368600D02*
X15677200Y-10408600D01*
X15728000Y-10902000D02*
X15768000Y-10942000D01*
X15768000Y-10902000D02*
X15728000Y-10942000D01*
X15905801Y-11054400D02*
X15945801Y-11094400D01*
X15945801Y-11054400D02*
X15905801Y-11094400D01*
X16007400Y-11613200D02*
X16047400Y-11653200D01*
X16047400Y-11613200D02*
X16007400Y-11653200D01*
X16007400Y-11770999D02*
X16047400Y-11810999D01*
X16047400Y-11770999D02*
X16007400Y-11810999D01*
X16007400Y-11918000D02*
X16047400Y-11958000D01*
X16047400Y-11918000D02*
X16007400Y-11958000D01*
X16109000Y-12324400D02*
X16149000Y-12364400D01*
X16149000Y-12324400D02*
X16109000Y-12364400D01*
X16109000Y-13264200D02*
X16149000Y-13304200D01*
X16149000Y-13264200D02*
X16109000Y-13304200D01*
X16388400Y-10902000D02*
X16428400Y-10942000D01*
X16428400Y-10902000D02*
X16388400Y-10942000D01*
X16388400Y-11613200D02*
X16428400Y-11653200D01*
X16428400Y-11613200D02*
X16388400Y-11653200D01*
X16388400Y-11765600D02*
X16428400Y-11805600D01*
X16428400Y-11765600D02*
X16388400Y-11805600D01*
X16388400Y-11918000D02*
X16428400Y-11958000D01*
X16428400Y-11918000D02*
X16388400Y-11958000D01*
X16439200Y-11054400D02*
X16479200Y-11094400D01*
X16479200Y-11054400D02*
X16439200Y-11094400D01*
X16490000Y-9632000D02*
X16530000Y-9672000D01*
X16530000Y-9632000D02*
X16490000Y-9672000D01*
X16490000Y-10140000D02*
X16530000Y-10180000D01*
X16530000Y-10140000D02*
X16490000Y-10180000D01*
X16617000Y-9632000D02*
X16657000Y-9672000D01*
X16657000Y-9632000D02*
X16617000Y-9672000D01*
X16617000Y-10394000D02*
X16657000Y-10434000D01*
X16657000Y-10394000D02*
X16617000Y-10434000D01*
X16617000Y-13365800D02*
X16657000Y-13405800D01*
X16657000Y-13365800D02*
X16617000Y-13405800D01*
X16617000Y-13569000D02*
X16657000Y-13609000D01*
X16657000Y-13569000D02*
X16617000Y-13609000D01*
X16617000Y-13772200D02*
X16657000Y-13812200D01*
X16657000Y-13772200D02*
X16617000Y-13812200D01*
X16744000Y-7600000D02*
X16784000Y-7640000D01*
X16784000Y-7600000D02*
X16744000Y-7640000D01*
X16871000Y-12578402D02*
X16911000Y-12618402D01*
X16911000Y-12578402D02*
X16871000Y-12618402D01*
X16871000Y-12883200D02*
X16911000Y-12923200D01*
X16911000Y-12883200D02*
X16871000Y-12923200D01*
X17125000Y-9225600D02*
X17165000Y-9265600D01*
X17165000Y-9225600D02*
X17125000Y-9265600D01*
X17912400Y-11232200D02*
X17952400Y-11272200D01*
X17952400Y-11232200D02*
X17912400Y-11272200D01*
X18293400Y-12070400D02*
X18333400Y-12110400D01*
X18333400Y-12070400D02*
X18293400Y-12110400D01*
X18293400Y-12959400D02*
X18333400Y-12999400D01*
X18333400Y-12959400D02*
X18293400Y-12999400D01*
X18369600Y-11410000D02*
X18409600Y-11450000D01*
X18409600Y-11410000D02*
X18369600Y-11450000D01*
X18420400Y-13035600D02*
X18460400Y-13075600D01*
X18460400Y-13035600D02*
X18420400Y-13075600D01*
X18445798Y-9555800D02*
X18485798Y-9595800D01*
X18485798Y-9555800D02*
X18445798Y-9595800D01*
X18445800Y-10571800D02*
X18485800Y-10611800D01*
X18485800Y-10571800D02*
X18445800Y-10611800D01*
X18547400Y-12172000D02*
X18587400Y-12212000D01*
X18587400Y-12172000D02*
X18547400Y-12212000D01*
X18547400Y-12883202D02*
X18587400Y-12923202D01*
X18587400Y-12883202D02*
X18547400Y-12923202D01*
X18572799Y-10800400D02*
X18612799Y-10840400D01*
X18612799Y-10800400D02*
X18572799Y-10840400D01*
X18572800Y-11181400D02*
X18612800Y-11221400D01*
X18612800Y-11181400D02*
X18572800Y-11221400D01*
X18649000Y-11410000D02*
X18689000Y-11450000D01*
X18689000Y-11410000D02*
X18649000Y-11450000D01*
X18674400Y-11816400D02*
X18714400Y-11856400D01*
X18714400Y-11816400D02*
X18674400Y-11856400D01*
X18699800Y-10470199D02*
X18739800Y-10510199D01*
X18739800Y-10470199D02*
X18699800Y-10510199D01*
X18699800Y-12578400D02*
X18739800Y-12618400D01*
X18739800Y-12578400D02*
X18699800Y-12618400D01*
X18699800Y-12883200D02*
X18739800Y-12923200D01*
X18739800Y-12883200D02*
X18699800Y-12923200D01*
X18725199Y-9225600D02*
X18765199Y-9265600D01*
X18765199Y-9225600D02*
X18725199Y-9265600D01*
X18979200Y-9555800D02*
X19019200Y-9595800D01*
X19019200Y-9555800D02*
X18979200Y-9595800D01*
X19030000Y-14000800D02*
X19070000Y-14040800D01*
X19070000Y-14000800D02*
X19030000Y-14040800D01*
X19207800Y-10368600D02*
X19247800Y-10408600D01*
X19247800Y-10368600D02*
X19207800Y-10408600D01*
X19284000Y-10267000D02*
X19324000Y-10307000D01*
X19324000Y-10267000D02*
X19284000Y-10307000D01*
X19284000Y-14127800D02*
X19324000Y-14167800D01*
X19324000Y-14127800D02*
X19284000Y-14167800D01*
X19334800Y-9225600D02*
X19374800Y-9265600D01*
X19374800Y-9225600D02*
X19334800Y-9265600D01*
X19385600Y-9682800D02*
X19425600Y-9722800D01*
X19425600Y-9682800D02*
X19385600Y-9722800D01*
X19385600Y-9936800D02*
X19425600Y-9976800D01*
X19425600Y-9936800D02*
X19385600Y-9976800D01*
X19411000Y-11740200D02*
X19451000Y-11780200D01*
X19451000Y-11740200D02*
X19411000Y-11780200D01*
X19411000Y-12045000D02*
X19451000Y-12085000D01*
X19451000Y-12045000D02*
X19411000Y-12085000D01*
X19512600Y-8819200D02*
X19552600Y-8859200D01*
X19552600Y-8819200D02*
X19512600Y-8859200D01*
X19512600Y-9327200D02*
X19552600Y-9367200D01*
X19552600Y-9327200D02*
X19512600Y-9367200D01*
X19512600Y-9454200D02*
X19552600Y-9494200D01*
X19552600Y-9454200D02*
X19512600Y-9494200D01*
X19563399Y-11232200D02*
X19603399Y-11272200D01*
X19603399Y-11232200D02*
X19563399Y-11272200D01*
X19563400Y-12197400D02*
X19603400Y-12237400D01*
X19603400Y-12197400D02*
X19563400Y-12237400D01*
X19639600Y-8819200D02*
X19679600Y-8859200D01*
X19679600Y-8819200D02*
X19639600Y-8859200D01*
X19639600Y-10267000D02*
X19679600Y-10307000D01*
X19679600Y-10267000D02*
X19639600Y-10307000D01*
X19690400Y-9936800D02*
X19730400Y-9976800D01*
X19730400Y-9936800D02*
X19690400Y-9976800D01*
X19690401Y-9682800D02*
X19730401Y-9722800D01*
X19730401Y-9682800D02*
X19690401Y-9722800D01*
X19715800Y-10368600D02*
X19755800Y-10408600D01*
X19755800Y-10368600D02*
X19715800Y-10408600D01*
X19792000Y-13518200D02*
X19832000Y-13558200D01*
X19832000Y-13518200D02*
X19792000Y-13558200D01*
X19792000Y-13670600D02*
X19832000Y-13710600D01*
X19832000Y-13670600D02*
X19792000Y-13710600D01*
X20046000Y-9555800D02*
X20086000Y-9595800D01*
X20086000Y-9555800D02*
X20046000Y-9595800D01*
X20046000Y-9860600D02*
X20086000Y-9900600D01*
X20086000Y-9860600D02*
X20046000Y-9900600D01*
X20046000Y-11587800D02*
X20086000Y-11627800D01*
X20086000Y-11587800D02*
X20046000Y-11627800D01*
X20046000Y-11816400D02*
X20086000Y-11856400D01*
X20086000Y-11816400D02*
X20046000Y-11856400D01*
X20096800Y-10902000D02*
X20136800Y-10942000D01*
X20136800Y-10902000D02*
X20096800Y-10942000D01*
X20173000Y-11003600D02*
X20213000Y-11043600D01*
X20213000Y-11003600D02*
X20173000Y-11043600D01*
X20173000Y-11537000D02*
X20213000Y-11577000D01*
X20213000Y-11537000D02*
X20173000Y-11577000D01*
X20173000Y-11740200D02*
X20213000Y-11780200D01*
X20213000Y-11740200D02*
X20173000Y-11780200D01*
X20223800Y-10902000D02*
X20263800Y-10942000D01*
X20263800Y-10902000D02*
X20223800Y-10942000D01*
X20300000Y-13746800D02*
X20340000Y-13786800D01*
X20340000Y-13746800D02*
X20300000Y-13786800D01*
X20579400Y-11003600D02*
X20619400Y-11043600D01*
X20619400Y-11003600D02*
X20579400Y-11043600D01*
X20655600Y-10902000D02*
X20695600Y-10942000D01*
X20695600Y-10902000D02*
X20655600Y-10942000D01*
X20681000Y-11740200D02*
X20721000Y-11780200D01*
X20721000Y-11740200D02*
X20681000Y-11780200D01*
X20681000Y-12070400D02*
X20721000Y-12110400D01*
X20721000Y-12070400D02*
X20681000Y-12110400D01*
X20782600Y-10901999D02*
X20822600Y-10941999D01*
X20822600Y-10901999D02*
X20782600Y-10941999D01*
X20808000Y-8920800D02*
X20848000Y-8960800D01*
X20848000Y-8920800D02*
X20808000Y-8960800D01*
X20808000Y-11740200D02*
X20848000Y-11780200D01*
X20848000Y-11740200D02*
X20808000Y-11780200D01*
X20808000Y-12070400D02*
X20848000Y-12110400D01*
X20848000Y-12070400D02*
X20808000Y-12110400D01*
X20935000Y-11740200D02*
X20975000Y-11780200D01*
X20975000Y-11740200D02*
X20935000Y-11780200D01*
X20935000Y-12070400D02*
X20975000Y-12110400D01*
X20975000Y-12070400D02*
X20935000Y-12110400D01*
X20960400Y-11130600D02*
X21000400Y-11170600D01*
X21000400Y-11130600D02*
X20960400Y-11170600D01*
X21062000Y-11740200D02*
X21102000Y-11780200D01*
X21102000Y-11740200D02*
X21062000Y-11780200D01*
X21062000Y-12070399D02*
X21102000Y-12110399D01*
X21102000Y-12070399D02*
X21062000Y-12110399D01*
X21315999Y-11130600D02*
X21355999Y-11170600D01*
X21355999Y-11130600D02*
X21315999Y-11170600D01*
X21646200Y-10775000D02*
X21686200Y-10815000D01*
X21686200Y-10775000D02*
X21646200Y-10815000D01*
X21646200Y-11181400D02*
X21686200Y-11221400D01*
X21686200Y-11181400D02*
X21646200Y-11221400D01*
X21646200Y-11791000D02*
X21686200Y-11831000D01*
X21686200Y-11791000D02*
X21646200Y-11831000D01*
X21646200Y-12172000D02*
X21686200Y-12212000D01*
X21686200Y-12172000D02*
X21646200Y-12212000D01*
X21646200Y-12553000D02*
X21686200Y-12593000D01*
X21686200Y-12553000D02*
X21646200Y-12593000D01*
X21646200Y-12883200D02*
X21686200Y-12923200D01*
X21686200Y-12883200D02*
X21646200Y-12923200D01*
X21798600Y-10190800D02*
X21838600Y-10230800D01*
X21838600Y-10190800D02*
X21798600Y-10230800D01*
X21798600Y-11791000D02*
X21838600Y-11831000D01*
X21838600Y-11791000D02*
X21798600Y-11831000D01*
X21798600Y-12172000D02*
X21838600Y-12212000D01*
X21838600Y-12172000D02*
X21798600Y-12212000D01*
X21798600Y-12553000D02*
X21838600Y-12593000D01*
X21838600Y-12553000D02*
X21798600Y-12593000D01*
X21798600Y-12883201D02*
X21838600Y-12923201D01*
X21838600Y-12883201D02*
X21798600Y-12923201D01*
X21798601Y-11029000D02*
X21838601Y-11069000D01*
X21838601Y-11029000D02*
X21798601Y-11069000D01*
X21925600Y-10267000D02*
X21965600Y-10307000D01*
X21965600Y-10267000D02*
X21925600Y-10307000D01*
X21925600Y-11029000D02*
X21965600Y-11069000D01*
X21965600Y-11029000D02*
X21925600Y-11069000D01*
X21951000Y-11740200D02*
X21991000Y-11780200D01*
X21991000Y-11740200D02*
X21951000Y-11780200D01*
X21951000Y-12172000D02*
X21991000Y-12212000D01*
X21991000Y-12172000D02*
X21951000Y-12212000D01*
X21951000Y-12883200D02*
X21991000Y-12923200D01*
X21991000Y-12883200D02*
X21951000Y-12923200D01*
X21951000Y-12553000D02*
X21991000Y-12593000D01*
X21991000Y-12553000D02*
X21951000Y-12593000D01*
X22052600Y-10114600D02*
X22092600Y-10154600D01*
X22092600Y-10114600D02*
X22052600Y-10154600D01*
X22052600Y-11029000D02*
X22092600Y-11069000D01*
X22092600Y-11029000D02*
X22052600Y-11069000D01*
X22103400Y-11562400D02*
X22143400Y-11602400D01*
X22143400Y-11562400D02*
X22103400Y-11602400D01*
X22103400Y-12172000D02*
X22143400Y-12212000D01*
X22143400Y-12172000D02*
X22103400Y-12212000D01*
X22103400Y-12553001D02*
X22143400Y-12593001D01*
X22143400Y-12553001D02*
X22103400Y-12593001D01*
X22103400Y-12883200D02*
X22143400Y-12923200D01*
X22143400Y-12883200D02*
X22103400Y-12923200D01*
X22205000Y-10343200D02*
X22245000Y-10383200D01*
X22245000Y-10343200D02*
X22205000Y-10383200D01*
X22205000Y-11029000D02*
X22245000Y-11069000D01*
X22245000Y-11029000D02*
X22205000Y-11069000D01*
X22230400Y-12553000D02*
X22270400Y-12593000D01*
X22270400Y-12553000D02*
X22230400Y-12593000D01*
X22230400Y-12883200D02*
X22270400Y-12923200D01*
X22270400Y-12883200D02*
X22230400Y-12923200D01*
X22636800Y-10190800D02*
X22676800Y-10230800D01*
X22676800Y-10190800D02*
X22636800Y-10230800D01*
X22662200Y-10419400D02*
X22702200Y-10459400D01*
X22702200Y-10419400D02*
X22662200Y-10459400D01*
X22687599Y-12781600D02*
X22727599Y-12821600D01*
X22727599Y-12781600D02*
X22687599Y-12821600D01*
X22687600Y-12553000D02*
X22727600Y-12593000D01*
X22727600Y-12553000D02*
X22687600Y-12593000D01*
X22687600Y-13315000D02*
X22727600Y-13355000D01*
X22727600Y-13315000D02*
X22687600Y-13355000D01*
X22941600Y-10190800D02*
X22981600Y-10230800D01*
X22981600Y-10190800D02*
X22941600Y-10230800D01*
X23043200Y-10419400D02*
X23083200Y-10459400D01*
X23083200Y-10419400D02*
X23043200Y-10459400D01*
X23348000Y-11587799D02*
X23388000Y-11627799D01*
X23388000Y-11587799D02*
X23348000Y-11627799D01*
X23475000Y-12730800D02*
X23515000Y-12770800D01*
X23515000Y-12730800D02*
X23475000Y-12770800D01*
X23729000Y-12273600D02*
X23769000Y-12313600D01*
X23769000Y-12273600D02*
X23729000Y-12313600D01*
X23729000Y-12578400D02*
X23769000Y-12618400D01*
X23769000Y-12578400D02*
X23729000Y-12618400D01*
X23856000Y-12857800D02*
X23896000Y-12897800D01*
X23896000Y-12857800D02*
X23856000Y-12897800D01*
X23881400Y-11054399D02*
X23921400Y-11094399D01*
X23921400Y-11054399D02*
X23881400Y-11094399D01*
X24084600Y-11054400D02*
X24124600Y-11094400D01*
X24124600Y-11054400D02*
X24084600Y-11094400D01*
X24237000Y-13315000D02*
X24277000Y-13355000D01*
X24277000Y-13315000D02*
X24237000Y-13355000D01*
X24237000Y-13797600D02*
X24277000Y-13837600D01*
X24277000Y-13797600D02*
X24237000Y-13837600D01*
X24363999Y-8946200D02*
X24403999Y-8986200D01*
X24403999Y-8946200D02*
X24363999Y-8986200D01*
X24364000Y-8717600D02*
X24404000Y-8757600D01*
X24404000Y-8717600D02*
X24364000Y-8757600D01*
X24491000Y-13035600D02*
X24531000Y-13075600D01*
X24531000Y-13035600D02*
X24491000Y-13075600D01*
X15788000Y-12446000D02*
G75*
G03X15788000Y-12446000I-40000J0D01*
G01*
X15788000Y-12946000D02*
G75*
G03X15788000Y-12946000I-40000J0D01*
G01*
X7837800Y-10414000D02*
G75*
G03X7837800Y-10414000I-40000J0D01*
G01*
X8853800Y-10414000D02*
G75*
G03X8853800Y-10414000I-40000J0D01*
G01*
X23662000Y-7112000D02*
G75*
G03X23662000Y-7112000I-40000J0D01*
G01*
X23662000Y-8128000D02*
G75*
G03X23662000Y-8128000I-40000J0D01*
G01*
X22646000Y-13614400D02*
G75*
G03X22646000Y-13614400I-40000J0D01*
G01*
X23662000Y-13614400D02*
G75*
G03X23662000Y-13614400I-40000J0D01*
G01*
X19852000Y-8636000D02*
G75*
G03X19852000Y-8636000I-40000J0D01*
G01*
X19852000Y-9398000D02*
G75*
G03X19852000Y-9398000I-40000J0D01*
G01*
X20106000Y-8636000D02*
G75*
G03X20106000Y-8636000I-40000J0D01*
G01*
X20106000Y-9398000D02*
G75*
G03X20106000Y-9398000I-40000J0D01*
G01*
X20360000Y-8636000D02*
G75*
G03X20360000Y-8636000I-40000J0D01*
G01*
X20360000Y-9398000D02*
G75*
G03X20360000Y-9398000I-40000J0D01*
G01*
X20614000Y-8636000D02*
G75*
G03X20614000Y-8636000I-40000J0D01*
G01*
X20614000Y-9398000D02*
G75*
G03X20614000Y-9398000I-40000J0D01*
G01*
X20868000Y-8636000D02*
G75*
G03X20868000Y-8636000I-40000J0D01*
G01*
X20868000Y-9398000D02*
G75*
G03X20868000Y-9398000I-40000J0D01*
G01*
X21122000Y-8636000D02*
G75*
G03X21122000Y-8636000I-40000J0D01*
G01*
X21122000Y-9398000D02*
G75*
G03X21122000Y-9398000I-40000J0D01*
G01*
X21376000Y-8636000D02*
G75*
G03X21376000Y-8636000I-40000J0D01*
G01*
X21376000Y-9398000D02*
G75*
G03X21376000Y-9398000I-40000J0D01*
G01*
X21630000Y-8636000D02*
G75*
G03X21630000Y-8636000I-40000J0D01*
G01*
X21630000Y-9398000D02*
G75*
G03X21630000Y-9398000I-40000J0D01*
G01*
X21884000Y-8636000D02*
G75*
G03X21884000Y-8636000I-40000J0D01*
G01*
X21884000Y-9398000D02*
G75*
G03X21884000Y-9398000I-40000J0D01*
G01*
X22138000Y-8636000D02*
G75*
G03X22138000Y-8636000I-40000J0D01*
G01*
X22138000Y-9398000D02*
G75*
G03X22138000Y-9398000I-40000J0D01*
G01*
X22519000Y-10668000D02*
G75*
G03X22519000Y-10668000I-40000J0D01*
G01*
X22519000Y-11168000D02*
G75*
G03X22519000Y-11168000I-40000J0D01*
G01*
X16550000Y-6350000D02*
G75*
G03X16550000Y-6350000I-40000J0D01*
G01*
X16550000Y-7112000D02*
G75*
G03X16550000Y-7112000I-40000J0D01*
G01*
X16804000Y-6350000D02*
G75*
G03X16804000Y-6350000I-40000J0D01*
G01*
X16804000Y-7112000D02*
G75*
G03X16804000Y-7112000I-40000J0D01*
G01*
X17058000Y-6350000D02*
G75*
G03X17058000Y-6350000I-40000J0D01*
G01*
X17058000Y-7112000D02*
G75*
G03X17058000Y-7112000I-40000J0D01*
G01*
X17312000Y-6350000D02*
G75*
G03X17312000Y-6350000I-40000J0D01*
G01*
X17312000Y-7112000D02*
G75*
G03X17312000Y-7112000I-40000J0D01*
G01*
X17566000Y-6350000D02*
G75*
G03X17566000Y-6350000I-40000J0D01*
G01*
X17566000Y-7112000D02*
G75*
G03X17566000Y-7112000I-40000J0D01*
G01*
X17820000Y-6350000D02*
G75*
G03X17820000Y-6350000I-40000J0D01*
G01*
X17820000Y-7112000D02*
G75*
G03X17820000Y-7112000I-40000J0D01*
G01*
X18074000Y-6350000D02*
G75*
G03X18074000Y-6350000I-40000J0D01*
G01*
X18074000Y-7112000D02*
G75*
G03X18074000Y-7112000I-40000J0D01*
G01*
X18328000Y-6350000D02*
G75*
G03X18328000Y-6350000I-40000J0D01*
G01*
X18328000Y-7112000D02*
G75*
G03X18328000Y-7112000I-40000J0D01*
G01*
X19217000Y-12446000D02*
G75*
G03X19217000Y-12446000I-40000J0D01*
G01*
X19217000Y-12946000D02*
G75*
G03X19217000Y-12946000I-40000J0D01*
G01*
X9692000Y-11938000D02*
G75*
G03X9692000Y-11938000I-40000J0D01*
G01*
X9946000Y-11938000D02*
G75*
G03X9946000Y-11938000I-40000J0D01*
G01*
X10200000Y-11938000D02*
G75*
G03X10200000Y-11938000I-40000J0D01*
G01*
X10454000Y-11938000D02*
G75*
G03X10454000Y-11938000I-40000J0D01*
G01*
X10708000Y-11938000D02*
G75*
G03X10708000Y-11938000I-40000J0D01*
G01*
X10962000Y-11938000D02*
G75*
G03X10962000Y-11938000I-40000J0D01*
G01*
X11216000Y-11938000D02*
G75*
G03X11216000Y-11938000I-40000J0D01*
G01*
X11470000Y-11938000D02*
G75*
G03X11470000Y-11938000I-40000J0D01*
G01*
X11724000Y-11938000D02*
G75*
G03X11724000Y-11938000I-40000J0D01*
G01*
X18074000Y-8128000D02*
G75*
G03X18074000Y-8128000I-40000J0D01*
G01*
X18574000Y-8128000D02*
G75*
G03X18574000Y-8128000I-40000J0D01*
G01*
X7837800Y-10795000D02*
G75*
G03X7837800Y-10795000I-40000J0D01*
G01*
X8853800Y-10795000D02*
G75*
G03X8853800Y-10795000I-40000J0D01*
G01*
X19852000Y-7112000D02*
G75*
G03X19852000Y-7112000I-40000J0D01*
G01*
X19852000Y-8128000D02*
G75*
G03X19852000Y-8128000I-40000J0D01*
G01*
X16550000Y-8128000D02*
G75*
G03X16550000Y-8128000I-40000J0D01*
G01*
X17566000Y-8128000D02*
G75*
G03X17566000Y-8128000I-40000J0D01*
G01*
X12486000Y-12446000D02*
G75*
G03X12486000Y-12446000I-40000J0D01*
G01*
X12486000Y-13208000D02*
G75*
G03X12486000Y-13208000I-40000J0D01*
G01*
X12740000Y-12446000D02*
G75*
G03X12740000Y-12446000I-40000J0D01*
G01*
X12740000Y-13208000D02*
G75*
G03X12740000Y-13208000I-40000J0D01*
G01*
X12994000Y-12446000D02*
G75*
G03X12994000Y-12446000I-40000J0D01*
G01*
X12994000Y-13208000D02*
G75*
G03X12994000Y-13208000I-40000J0D01*
G01*
X13248000Y-12446000D02*
G75*
G03X13248000Y-12446000I-40000J0D01*
G01*
X13248000Y-13208000D02*
G75*
G03X13248000Y-13208000I-40000J0D01*
G01*
X13502000Y-12446000D02*
G75*
G03X13502000Y-12446000I-40000J0D01*
G01*
X13502000Y-13208000D02*
G75*
G03X13502000Y-13208000I-40000J0D01*
G01*
X13756000Y-12446000D02*
G75*
G03X13756000Y-12446000I-40000J0D01*
G01*
X13756000Y-13208000D02*
G75*
G03X13756000Y-13208000I-40000J0D01*
G01*
X14010000Y-12446000D02*
G75*
G03X14010000Y-12446000I-40000J0D01*
G01*
X14010000Y-13208000D02*
G75*
G03X14010000Y-13208000I-40000J0D01*
G01*
X14264000Y-12446000D02*
G75*
G03X14264000Y-12446000I-40000J0D01*
G01*
X14264000Y-13208000D02*
G75*
G03X14264000Y-13208000I-40000J0D01*
G01*
X14518000Y-12446000D02*
G75*
G03X14518000Y-12446000I-40000J0D01*
G01*
X14518000Y-13208000D02*
G75*
G03X14518000Y-13208000I-40000J0D01*
G01*
X14772000Y-12446000D02*
G75*
G03X14772000Y-12446000I-40000J0D01*
G01*
X14772000Y-13208000D02*
G75*
G03X14772000Y-13208000I-40000J0D01*
G01*
X5501000Y-8255000D02*
G75*
G03X5501000Y-8255000I-40000J0D01*
G01*
X5501000Y-8755000D02*
G75*
G03X5501000Y-8755000I-40000J0D01*
G01*
X11216000Y-6604000D02*
G75*
G03X11216000Y-6604000I-40000J0D01*
G01*
X11216000Y-7104000D02*
G75*
G03X11216000Y-7104000I-40000J0D01*
G01*
X16550000Y-10668000D02*
G75*
G03X16550000Y-10668000I-40000J0D01*
G01*
X16550000Y-11430000D02*
G75*
G03X16550000Y-11430000I-40000J0D01*
G01*
X16804000Y-10668000D02*
G75*
G03X16804000Y-10668000I-40000J0D01*
G01*
X16804000Y-11430000D02*
G75*
G03X16804000Y-11430000I-40000J0D01*
G01*
X17058000Y-10668000D02*
G75*
G03X17058000Y-10668000I-40000J0D01*
G01*
X17058000Y-11430000D02*
G75*
G03X17058000Y-11430000I-40000J0D01*
G01*
X17312000Y-10668000D02*
G75*
G03X17312000Y-10668000I-40000J0D01*
G01*
X17312000Y-11430000D02*
G75*
G03X17312000Y-11430000I-40000J0D01*
G01*
X17566000Y-10668000D02*
G75*
G03X17566000Y-10668000I-40000J0D01*
G01*
X17566000Y-11430000D02*
G75*
G03X17566000Y-11430000I-40000J0D01*
G01*
X17820000Y-10668000D02*
G75*
G03X17820000Y-10668000I-40000J0D01*
G01*
X17820000Y-11430000D02*
G75*
G03X17820000Y-11430000I-40000J0D01*
G01*
X18074000Y-10668000D02*
G75*
G03X18074000Y-10668000I-40000J0D01*
G01*
X18074000Y-11430000D02*
G75*
G03X18074000Y-11430000I-40000J0D01*
G01*
X8676000Y-7874000D02*
G75*
G03X8676000Y-7874000I-40000J0D01*
G01*
X8930000Y-7874000D02*
G75*
G03X8930000Y-7874000I-40000J0D01*
G01*
X9184000Y-7874000D02*
G75*
G03X9184000Y-7874000I-40000J0D01*
G01*
X9438000Y-7874000D02*
G75*
G03X9438000Y-7874000I-40000J0D01*
G01*
X9692000Y-7874000D02*
G75*
G03X9692000Y-7874000I-40000J0D01*
G01*
X9946000Y-7874000D02*
G75*
G03X9946000Y-7874000I-40000J0D01*
G01*
X10200000Y-7874000D02*
G75*
G03X10200000Y-7874000I-40000J0D01*
G01*
X10454000Y-7874000D02*
G75*
G03X10454000Y-7874000I-40000J0D01*
G01*
X10708000Y-7874000D02*
G75*
G03X10708000Y-7874000I-40000J0D01*
G01*
X7837800Y-11176000D02*
G75*
G03X7837800Y-11176000I-40000J0D01*
G01*
X8853800Y-11176000D02*
G75*
G03X8853800Y-11176000I-40000J0D01*
G01*
X21122000Y-7112000D02*
G75*
G03X21122000Y-7112000I-40000J0D01*
G01*
X21122000Y-8128000D02*
G75*
G03X21122000Y-8128000I-40000J0D01*
G01*
X15788000Y-13970000D02*
G75*
G03X15788000Y-13970000I-40000J0D01*
G01*
X15788000Y-14470000D02*
G75*
G03X15788000Y-14470000I-40000J0D01*
G01*
X15542000Y-6604000D02*
G75*
G03X15542000Y-6604000I-40000J0D01*
G01*
X16042000Y-6604000D02*
G75*
G03X16042000Y-6604000I-40000J0D01*
G01*
X20487000Y-7112000D02*
G75*
G03X20487000Y-7112000I-40000J0D01*
G01*
X20487000Y-8128000D02*
G75*
G03X20487000Y-8128000I-40000J0D01*
G01*
X23154000Y-12446000D02*
G75*
G03X23154000Y-12446000I-40000J0D01*
G01*
X23154000Y-13208000D02*
G75*
G03X23154000Y-13208000I-40000J0D01*
G01*
X23408000Y-12446000D02*
G75*
G03X23408000Y-12446000I-40000J0D01*
G01*
X23408000Y-13208000D02*
G75*
G03X23408000Y-13208000I-40000J0D01*
G01*
X23662000Y-12446000D02*
G75*
G03X23662000Y-12446000I-40000J0D01*
G01*
X23662000Y-13208000D02*
G75*
G03X23662000Y-13208000I-40000J0D01*
G01*
X23916000Y-12446000D02*
G75*
G03X23916000Y-12446000I-40000J0D01*
G01*
X23916000Y-13208000D02*
G75*
G03X23916000Y-13208000I-40000J0D01*
G01*
X24170000Y-12446000D02*
G75*
G03X24170000Y-12446000I-40000J0D01*
G01*
X24170000Y-13208000D02*
G75*
G03X24170000Y-13208000I-40000J0D01*
G01*
X24424000Y-12446000D02*
G75*
G03X24424000Y-12446000I-40000J0D01*
G01*
X24424000Y-13208000D02*
G75*
G03X24424000Y-13208000I-40000J0D01*
G01*
X24678000Y-12446000D02*
G75*
G03X24678000Y-12446000I-40000J0D01*
G01*
X24678000Y-13208000D02*
G75*
G03X24678000Y-13208000I-40000J0D01*
G01*
X16042000Y-8136000D02*
G75*
G03X16042000Y-8136000I-40000J0D01*
G01*
X16042000Y-8636000D02*
G75*
G03X16042000Y-8636000I-40000J0D01*
G01*
X12740000Y-13716000D02*
G75*
G03X12740000Y-13716000I-40000J0D01*
G01*
X12994000Y-13716000D02*
G75*
G03X12994000Y-13716000I-40000J0D01*
G01*
X13248000Y-13716000D02*
G75*
G03X13248000Y-13716000I-40000J0D01*
G01*
X13502000Y-13716000D02*
G75*
G03X13502000Y-13716000I-40000J0D01*
G01*
X13756000Y-13716000D02*
G75*
G03X13756000Y-13716000I-40000J0D01*
G01*
X14010000Y-13716000D02*
G75*
G03X14010000Y-13716000I-40000J0D01*
G01*
X14264000Y-13716000D02*
G75*
G03X14264000Y-13716000I-40000J0D01*
G01*
X14518000Y-13716000D02*
G75*
G03X14518000Y-13716000I-40000J0D01*
G01*
X14772000Y-13716000D02*
G75*
G03X14772000Y-13716000I-40000J0D01*
G01*
X19852000Y-12446000D02*
G75*
G03X19852000Y-12446000I-40000J0D01*
G01*
X19852000Y-13208000D02*
G75*
G03X19852000Y-13208000I-40000J0D01*
G01*
X20106000Y-12446000D02*
G75*
G03X20106000Y-12446000I-40000J0D01*
G01*
X20106000Y-13208000D02*
G75*
G03X20106000Y-13208000I-40000J0D01*
G01*
X20360000Y-12446000D02*
G75*
G03X20360000Y-12446000I-40000J0D01*
G01*
X20360000Y-13208000D02*
G75*
G03X20360000Y-13208000I-40000J0D01*
G01*
X20614000Y-12446000D02*
G75*
G03X20614000Y-12446000I-40000J0D01*
G01*
X20614000Y-13208000D02*
G75*
G03X20614000Y-13208000I-40000J0D01*
G01*
X20868000Y-12446000D02*
G75*
G03X20868000Y-12446000I-40000J0D01*
G01*
X20868000Y-13208000D02*
G75*
G03X20868000Y-13208000I-40000J0D01*
G01*
X21122000Y-12446000D02*
G75*
G03X21122000Y-12446000I-40000J0D01*
G01*
X21122000Y-13208000D02*
G75*
G03X21122000Y-13208000I-40000J0D01*
G01*
X21376000Y-12446000D02*
G75*
G03X21376000Y-12446000I-40000J0D01*
G01*
X21376000Y-13208000D02*
G75*
G03X21376000Y-13208000I-40000J0D01*
G01*
X6009000Y-7874000D02*
G75*
G03X6009000Y-7874000I-40000J0D01*
G01*
X6263000Y-7874000D02*
G75*
G03X6263000Y-7874000I-40000J0D01*
G01*
X6517000Y-7874000D02*
G75*
G03X6517000Y-7874000I-40000J0D01*
G01*
X6771000Y-7874000D02*
G75*
G03X6771000Y-7874000I-40000J0D01*
G01*
X7025000Y-7874000D02*
G75*
G03X7025000Y-7874000I-40000J0D01*
G01*
X7279000Y-7874000D02*
G75*
G03X7279000Y-7874000I-40000J0D01*
G01*
X7533000Y-7874000D02*
G75*
G03X7533000Y-7874000I-40000J0D01*
G01*
X7787000Y-7874000D02*
G75*
G03X7787000Y-7874000I-40000J0D01*
G01*
X8041000Y-7874000D02*
G75*
G03X8041000Y-7874000I-40000J0D01*
G01*
X18717000Y-8636000D02*
G75*
G03X18717000Y-8636000I-40000J0D01*
G01*
X19217000Y-8636000D02*
G75*
G03X19217000Y-8636000I-40000J0D01*
G01*
X23027000Y-7112000D02*
G75*
G03X23027000Y-7112000I-40000J0D01*
G01*
X23027000Y-8128000D02*
G75*
G03X23027000Y-8128000I-40000J0D01*
G01*
X16550000Y-7620000D02*
G75*
G03X16550000Y-7620000I-40000J0D01*
G01*
X17566000Y-7620000D02*
G75*
G03X17566000Y-7620000I-40000J0D01*
G01*
X21757000Y-7112000D02*
G75*
G03X21757000Y-7112000I-40000J0D01*
G01*
X21757000Y-8128000D02*
G75*
G03X21757000Y-8128000I-40000J0D01*
G01*
X23154000Y-10668000D02*
G75*
G03X23154000Y-10668000I-40000J0D01*
G01*
X23154000Y-11430000D02*
G75*
G03X23154000Y-11430000I-40000J0D01*
G01*
X23408000Y-10668000D02*
G75*
G03X23408000Y-10668000I-40000J0D01*
G01*
X23408000Y-11430000D02*
G75*
G03X23408000Y-11430000I-40000J0D01*
G01*
X23662000Y-10668000D02*
G75*
G03X23662000Y-10668000I-40000J0D01*
G01*
X23662000Y-11430000D02*
G75*
G03X23662000Y-11430000I-40000J0D01*
G01*
X23916000Y-10668000D02*
G75*
G03X23916000Y-10668000I-40000J0D01*
G01*
X23916000Y-11430000D02*
G75*
G03X23916000Y-11430000I-40000J0D01*
G01*
X24170000Y-10668000D02*
G75*
G03X24170000Y-10668000I-40000J0D01*
G01*
X24170000Y-11430000D02*
G75*
G03X24170000Y-11430000I-40000J0D01*
G01*
X24424000Y-10668000D02*
G75*
G03X24424000Y-10668000I-40000J0D01*
G01*
X24424000Y-11430000D02*
G75*
G03X24424000Y-11430000I-40000J0D01*
G01*
X24678000Y-10668000D02*
G75*
G03X24678000Y-10668000I-40000J0D01*
G01*
X24678000Y-11430000D02*
G75*
G03X24678000Y-11430000I-40000J0D01*
G01*
X5374000Y-6604000D02*
G75*
G03X5374000Y-6604000I-40000J0D01*
G01*
X5374000Y-7366000D02*
G75*
G03X5374000Y-7366000I-40000J0D01*
G01*
X5628000Y-6604000D02*
G75*
G03X5628000Y-6604000I-40000J0D01*
G01*
X5628000Y-7366000D02*
G75*
G03X5628000Y-7366000I-40000J0D01*
G01*
X5882000Y-6604000D02*
G75*
G03X5882000Y-6604000I-40000J0D01*
G01*
X5882000Y-7366000D02*
G75*
G03X5882000Y-7366000I-40000J0D01*
G01*
X6136000Y-6604000D02*
G75*
G03X6136000Y-6604000I-40000J0D01*
G01*
X6136000Y-7366000D02*
G75*
G03X6136000Y-7366000I-40000J0D01*
G01*
X6390000Y-6604000D02*
G75*
G03X6390000Y-6604000I-40000J0D01*
G01*
X6390000Y-7366000D02*
G75*
G03X6390000Y-7366000I-40000J0D01*
G01*
X6644000Y-6604000D02*
G75*
G03X6644000Y-6604000I-40000J0D01*
G01*
X6644000Y-7366000D02*
G75*
G03X6644000Y-7366000I-40000J0D01*
G01*
X6898000Y-6604000D02*
G75*
G03X6898000Y-6604000I-40000J0D01*
G01*
X6898000Y-7366000D02*
G75*
G03X6898000Y-7366000I-40000J0D01*
G01*
X7152000Y-6604000D02*
G75*
G03X7152000Y-6604000I-40000J0D01*
G01*
X7152000Y-7366000D02*
G75*
G03X7152000Y-7366000I-40000J0D01*
G01*
X7406000Y-6604000D02*
G75*
G03X7406000Y-6604000I-40000J0D01*
G01*
X7406000Y-7366000D02*
G75*
G03X7406000Y-7366000I-40000J0D01*
G01*
X7660000Y-6604000D02*
G75*
G03X7660000Y-6604000I-40000J0D01*
G01*
X7660000Y-7366000D02*
G75*
G03X7660000Y-7366000I-40000J0D01*
G01*
X9438000Y-13716000D02*
G75*
G03X9438000Y-13716000I-40000J0D01*
G01*
X9692000Y-13716000D02*
G75*
G03X9692000Y-13716000I-40000J0D01*
G01*
X9946000Y-13716000D02*
G75*
G03X9946000Y-13716000I-40000J0D01*
G01*
X10200000Y-13716000D02*
G75*
G03X10200000Y-13716000I-40000J0D01*
G01*
X10454000Y-13716000D02*
G75*
G03X10454000Y-13716000I-40000J0D01*
G01*
X10708000Y-13716000D02*
G75*
G03X10708000Y-13716000I-40000J0D01*
G01*
X10962000Y-13716000D02*
G75*
G03X10962000Y-13716000I-40000J0D01*
G01*
X11216000Y-13716000D02*
G75*
G03X11216000Y-13716000I-40000J0D01*
G01*
X11470000Y-13716000D02*
G75*
G03X11470000Y-13716000I-40000J0D01*
G01*
X8676000Y-12954000D02*
G75*
G03X8676000Y-12954000I-40000J0D01*
G01*
X8676000Y-13454000D02*
G75*
G03X8676000Y-13454000I-40000J0D01*
G01*
X5882000Y-11180000D02*
G75*
G03X5882000Y-11180000I-40000J0D01*
G01*
X5882000Y-11430000D02*
G75*
G03X5882000Y-11430000I-40000J0D01*
G01*
X7837800Y-9271000D02*
G75*
G03X7837800Y-9271000I-40000J0D01*
G01*
X8853800Y-9271000D02*
G75*
G03X8853800Y-9271000I-40000J0D01*
G01*
X24830400Y-8991600D02*
G75*
G03X24830400Y-8991600I-40000J0D01*
G01*
X24830400Y-10007600D02*
G75*
G03X24830400Y-10007600I-40000J0D01*
G01*
X19217000Y-7112000D02*
G75*
G03X19217000Y-7112000I-40000J0D01*
G01*
X19217000Y-8128000D02*
G75*
G03X19217000Y-8128000I-40000J0D01*
G01*
X22849200Y-9452800D02*
G75*
G03X22849200Y-9452800I-40000J0D01*
G01*
X22849200Y-9702800D02*
G75*
G03X22849200Y-9702800I-40000J0D01*
G01*
X22519000Y-12446000D02*
G75*
G03X22519000Y-12446000I-40000J0D01*
G01*
X22519000Y-12946000D02*
G75*
G03X22519000Y-12946000I-40000J0D01*
G01*
X11978000Y-12446000D02*
G75*
G03X11978000Y-12446000I-40000J0D01*
G01*
X11978000Y-12946000D02*
G75*
G03X11978000Y-12946000I-40000J0D01*
G01*
X15788000Y-10668000D02*
G75*
G03X15788000Y-10668000I-40000J0D01*
G01*
X15788000Y-11168000D02*
G75*
G03X15788000Y-11168000I-40000J0D01*
G01*
X7837800Y-9652000D02*
G75*
G03X7837800Y-9652000I-40000J0D01*
G01*
X8853800Y-9652000D02*
G75*
G03X8853800Y-9652000I-40000J0D01*
G01*
X22392000Y-7112000D02*
G75*
G03X22392000Y-7112000I-40000J0D01*
G01*
X22392000Y-8128000D02*
G75*
G03X22392000Y-8128000I-40000J0D01*
G01*
X9184000Y-12446000D02*
G75*
G03X9184000Y-12446000I-40000J0D01*
G01*
X9184000Y-13208000D02*
G75*
G03X9184000Y-13208000I-40000J0D01*
G01*
X9438000Y-12446000D02*
G75*
G03X9438000Y-12446000I-40000J0D01*
G01*
X9438000Y-13208000D02*
G75*
G03X9438000Y-13208000I-40000J0D01*
G01*
X9692000Y-12446000D02*
G75*
G03X9692000Y-12446000I-40000J0D01*
G01*
X9692000Y-13208000D02*
G75*
G03X9692000Y-13208000I-40000J0D01*
G01*
X9946000Y-12446000D02*
G75*
G03X9946000Y-12446000I-40000J0D01*
G01*
X9946000Y-13208000D02*
G75*
G03X9946000Y-13208000I-40000J0D01*
G01*
X10200000Y-12446000D02*
G75*
G03X10200000Y-12446000I-40000J0D01*
G01*
X10200000Y-13208000D02*
G75*
G03X10200000Y-13208000I-40000J0D01*
G01*
X10454000Y-12446000D02*
G75*
G03X10454000Y-12446000I-40000J0D01*
G01*
X10454000Y-13208000D02*
G75*
G03X10454000Y-13208000I-40000J0D01*
G01*
X10708000Y-12446000D02*
G75*
G03X10708000Y-12446000I-40000J0D01*
G01*
X10708000Y-13208000D02*
G75*
G03X10708000Y-13208000I-40000J0D01*
G01*
X10962000Y-12446000D02*
G75*
G03X10962000Y-12446000I-40000J0D01*
G01*
X10962000Y-13208000D02*
G75*
G03X10962000Y-13208000I-40000J0D01*
G01*
X11216000Y-12446000D02*
G75*
G03X11216000Y-12446000I-40000J0D01*
G01*
X11216000Y-13208000D02*
G75*
G03X11216000Y-13208000I-40000J0D01*
G01*
X11470000Y-12446000D02*
G75*
G03X11470000Y-12446000I-40000J0D01*
G01*
X11470000Y-13208000D02*
G75*
G03X11470000Y-13208000I-40000J0D01*
G01*
X16550000Y-8636000D02*
G75*
G03X16550000Y-8636000I-40000J0D01*
G01*
X16550000Y-9398000D02*
G75*
G03X16550000Y-9398000I-40000J0D01*
G01*
X16804000Y-8636000D02*
G75*
G03X16804000Y-8636000I-40000J0D01*
G01*
X16804000Y-9398000D02*
G75*
G03X16804000Y-9398000I-40000J0D01*
G01*
X17058000Y-8636000D02*
G75*
G03X17058000Y-8636000I-40000J0D01*
G01*
X17058000Y-9398000D02*
G75*
G03X17058000Y-9398000I-40000J0D01*
G01*
X17312000Y-8636000D02*
G75*
G03X17312000Y-8636000I-40000J0D01*
G01*
X17312000Y-9398000D02*
G75*
G03X17312000Y-9398000I-40000J0D01*
G01*
X17566000Y-8636000D02*
G75*
G03X17566000Y-8636000I-40000J0D01*
G01*
X17566000Y-9398000D02*
G75*
G03X17566000Y-9398000I-40000J0D01*
G01*
X17820000Y-8636000D02*
G75*
G03X17820000Y-8636000I-40000J0D01*
G01*
X17820000Y-9398000D02*
G75*
G03X17820000Y-9398000I-40000J0D01*
G01*
X18074000Y-8636000D02*
G75*
G03X18074000Y-8636000I-40000J0D01*
G01*
X18074000Y-9398000D02*
G75*
G03X18074000Y-9398000I-40000J0D01*
G01*
X18328000Y-8636000D02*
G75*
G03X18328000Y-8636000I-40000J0D01*
G01*
X18328000Y-9398000D02*
G75*
G03X18328000Y-9398000I-40000J0D01*
G01*
X11978000Y-5846000D02*
G75*
G03X11978000Y-5846000I-40000J0D01*
G01*
X11978000Y-6096000D02*
G75*
G03X11978000Y-6096000I-40000J0D01*
G01*
X8422000Y-6604000D02*
G75*
G03X8422000Y-6604000I-40000J0D01*
G01*
X8422000Y-7366000D02*
G75*
G03X8422000Y-7366000I-40000J0D01*
G01*
X8676000Y-6604000D02*
G75*
G03X8676000Y-6604000I-40000J0D01*
G01*
X8676000Y-7366000D02*
G75*
G03X8676000Y-7366000I-40000J0D01*
G01*
X8930000Y-6604000D02*
G75*
G03X8930000Y-6604000I-40000J0D01*
G01*
X8930000Y-7366000D02*
G75*
G03X8930000Y-7366000I-40000J0D01*
G01*
X9184000Y-6604000D02*
G75*
G03X9184000Y-6604000I-40000J0D01*
G01*
X9184000Y-7366000D02*
G75*
G03X9184000Y-7366000I-40000J0D01*
G01*
X9438000Y-6604000D02*
G75*
G03X9438000Y-6604000I-40000J0D01*
G01*
X9438000Y-7366000D02*
G75*
G03X9438000Y-7366000I-40000J0D01*
G01*
X9692000Y-6604000D02*
G75*
G03X9692000Y-6604000I-40000J0D01*
G01*
X9692000Y-7366000D02*
G75*
G03X9692000Y-7366000I-40000J0D01*
G01*
X9946000Y-6604000D02*
G75*
G03X9946000Y-6604000I-40000J0D01*
G01*
X9946000Y-7366000D02*
G75*
G03X9946000Y-7366000I-40000J0D01*
G01*
X10200000Y-6604000D02*
G75*
G03X10200000Y-6604000I-40000J0D01*
G01*
X10200000Y-7366000D02*
G75*
G03X10200000Y-7366000I-40000J0D01*
G01*
X10454000Y-6604000D02*
G75*
G03X10454000Y-6604000I-40000J0D01*
G01*
X10454000Y-7366000D02*
G75*
G03X10454000Y-7366000I-40000J0D01*
G01*
X10708000Y-6604000D02*
G75*
G03X10708000Y-6604000I-40000J0D01*
G01*
X10708000Y-7366000D02*
G75*
G03X10708000Y-7366000I-40000J0D01*
G01*
X16550000Y-12446000D02*
G75*
G03X16550000Y-12446000I-40000J0D01*
G01*
X16550000Y-13208000D02*
G75*
G03X16550000Y-13208000I-40000J0D01*
G01*
X16804000Y-12446000D02*
G75*
G03X16804000Y-12446000I-40000J0D01*
G01*
X16804000Y-13208000D02*
G75*
G03X16804000Y-13208000I-40000J0D01*
G01*
X17058000Y-12446000D02*
G75*
G03X17058000Y-12446000I-40000J0D01*
G01*
X17058000Y-13208000D02*
G75*
G03X17058000Y-13208000I-40000J0D01*
G01*
X17312000Y-12446000D02*
G75*
G03X17312000Y-12446000I-40000J0D01*
G01*
X17312000Y-13208000D02*
G75*
G03X17312000Y-13208000I-40000J0D01*
G01*
X17566000Y-12446000D02*
G75*
G03X17566000Y-12446000I-40000J0D01*
G01*
X17566000Y-13208000D02*
G75*
G03X17566000Y-13208000I-40000J0D01*
G01*
X17820000Y-12446000D02*
G75*
G03X17820000Y-12446000I-40000J0D01*
G01*
X17820000Y-13208000D02*
G75*
G03X17820000Y-13208000I-40000J0D01*
G01*
X18074000Y-12446000D02*
G75*
G03X18074000Y-12446000I-40000J0D01*
G01*
X18074000Y-13208000D02*
G75*
G03X18074000Y-13208000I-40000J0D01*
G01*
X7837800Y-10033000D02*
G75*
G03X7837800Y-10033000I-40000J0D01*
G01*
X8853800Y-10033000D02*
G75*
G03X8853800Y-10033000I-40000J0D01*
G01*
X8295000Y-12065000D02*
G75*
G03X8295000Y-12065000I-40000J0D01*
G01*
X8295000Y-12565000D02*
G75*
G03X8295000Y-12565000I-40000J0D01*
G01*
X15153000Y-13462000D02*
G75*
G03X15153000Y-13462000I-40000J0D01*
G01*
X16169000Y-13462000D02*
G75*
G03X16169000Y-13462000I-40000J0D01*
G01*
X7152000Y-12065000D02*
G75*
G03X7152000Y-12065000I-40000J0D01*
G01*
X7152000Y-12319000D02*
G75*
G03X7152000Y-12319000I-40000J0D01*
G01*
X7152000Y-12573000D02*
G75*
G03X7152000Y-12573000I-40000J0D01*
G01*
X7152000Y-12827000D02*
G75*
G03X7152000Y-12827000I-40000J0D01*
G01*
X7152000Y-13081000D02*
G75*
G03X7152000Y-13081000I-40000J0D01*
G01*
X7152000Y-13335000D02*
G75*
G03X7152000Y-13335000I-40000J0D01*
G01*
X7152000Y-13589000D02*
G75*
G03X7152000Y-13589000I-40000J0D01*
G01*
X7914000Y-12065000D02*
G75*
G03X7914000Y-12065000I-40000J0D01*
G01*
X7914000Y-12319000D02*
G75*
G03X7914000Y-12319000I-40000J0D01*
G01*
X7914000Y-12573000D02*
G75*
G03X7914000Y-12573000I-40000J0D01*
G01*
X7914000Y-12827000D02*
G75*
G03X7914000Y-12827000I-40000J0D01*
G01*
X7914000Y-13081000D02*
G75*
G03X7914000Y-13081000I-40000J0D01*
G01*
X7914000Y-13335000D02*
G75*
G03X7914000Y-13335000I-40000J0D01*
G01*
X7914000Y-13589000D02*
G75*
G03X7914000Y-13589000I-40000J0D01*
G01*
X19852000Y-10668000D02*
G75*
G03X19852000Y-10668000I-40000J0D01*
G01*
X19852000Y-11430000D02*
G75*
G03X19852000Y-11430000I-40000J0D01*
G01*
X20106000Y-10668000D02*
G75*
G03X20106000Y-10668000I-40000J0D01*
G01*
X20106000Y-11430000D02*
G75*
G03X20106000Y-11430000I-40000J0D01*
G01*
X20360000Y-10668000D02*
G75*
G03X20360000Y-10668000I-40000J0D01*
G01*
X20360000Y-11430000D02*
G75*
G03X20360000Y-11430000I-40000J0D01*
G01*
X20614000Y-10668000D02*
G75*
G03X20614000Y-10668000I-40000J0D01*
G01*
X20614000Y-11430000D02*
G75*
G03X20614000Y-11430000I-40000J0D01*
G01*
X20868000Y-10668000D02*
G75*
G03X20868000Y-10668000I-40000J0D01*
G01*
X20868000Y-11430000D02*
G75*
G03X20868000Y-11430000I-40000J0D01*
G01*
X21122000Y-10668000D02*
G75*
G03X21122000Y-10668000I-40000J0D01*
G01*
X21122000Y-11430000D02*
G75*
G03X21122000Y-11430000I-40000J0D01*
G01*
X21376000Y-10668000D02*
G75*
G03X21376000Y-10668000I-40000J0D01*
G01*
X21376000Y-11430000D02*
G75*
G03X21376000Y-11430000I-40000J0D01*
G01*
X19217000Y-10668000D02*
G75*
G03X19217000Y-10668000I-40000J0D01*
G01*
X19217000Y-11168000D02*
G75*
G03X19217000Y-11168000I-40000J0D01*
G01*
X12994000Y-11938000D02*
G75*
G03X12994000Y-11938000I-40000J0D01*
G01*
X13248000Y-11938000D02*
G75*
G03X13248000Y-11938000I-40000J0D01*
G01*
X13502000Y-11938000D02*
G75*
G03X13502000Y-11938000I-40000J0D01*
G01*
X13756000Y-11938000D02*
G75*
G03X13756000Y-11938000I-40000J0D01*
G01*
X14010000Y-11938000D02*
G75*
G03X14010000Y-11938000I-40000J0D01*
G01*
X14264000Y-11938000D02*
G75*
G03X14264000Y-11938000I-40000J0D01*
G01*
X14518000Y-11938000D02*
G75*
G03X14518000Y-11938000I-40000J0D01*
G01*
X14772000Y-11938000D02*
G75*
G03X14772000Y-11938000I-40000J0D01*
G01*
X15026000Y-11938000D02*
G75*
G03X15026000Y-11938000I-40000J0D01*
G01*
X13756000Y-7874000D02*
G75*
G03X13756000Y-7874000I-40000J0D01*
G01*
X13756000Y-8636000D02*
G75*
G03X13756000Y-8636000I-40000J0D01*
G01*
X14518000Y-7874000D02*
G75*
G03X14518000Y-7874000I-40000J0D01*
G01*
X14518000Y-8636000D02*
G75*
G03X14518000Y-8636000I-40000J0D01*
G01*
X20447000Y-6305000D02*
X20447000Y-6395000D01*
X20402000Y-6350000D02*
X20492000Y-6350000D01*
X20701000Y-6305000D02*
X20701000Y-6395000D01*
X20656000Y-6350000D02*
X20746000Y-6350000D01*
X22987000Y-6305000D02*
X22987000Y-6395000D01*
X22942000Y-6350000D02*
X23032000Y-6350000D01*
X23241000Y-6305000D02*
X23241000Y-6395000D01*
X23196000Y-6350000D02*
X23286000Y-6350000D01*
X19812000Y-6305000D02*
X19812000Y-6395000D01*
X19767000Y-6350000D02*
X19857000Y-6350000D01*
X20066000Y-6305000D02*
X20066000Y-6395000D01*
X20021000Y-6350000D02*
X20111000Y-6350000D01*
X23622000Y-6305000D02*
X23622000Y-6395000D01*
X23577000Y-6350000D02*
X23667000Y-6350000D01*
X23876000Y-6305000D02*
X23876000Y-6395000D01*
X23831000Y-6350000D02*
X23921000Y-6350000D01*
X19177000Y-6305000D02*
X19177000Y-6395000D01*
X19132000Y-6350000D02*
X19222000Y-6350000D01*
X19431000Y-6305000D02*
X19431000Y-6395000D01*
X19386000Y-6350000D02*
X19476000Y-6350000D01*
X21082000Y-6305000D02*
X21082000Y-6395000D01*
X21037000Y-6350000D02*
X21127000Y-6350000D01*
X21336000Y-6305000D02*
X21336000Y-6395000D01*
X21291000Y-6350000D02*
X21381000Y-6350000D01*
X21717000Y-6305000D02*
X21717000Y-6395000D01*
X21672000Y-6350000D02*
X21762000Y-6350000D01*
X21971000Y-6305000D02*
X21971000Y-6395000D01*
X21926000Y-6350000D02*
X22016000Y-6350000D01*
X22352000Y-6305000D02*
X22352000Y-6395000D01*
X22307000Y-6350000D02*
X22397000Y-6350000D01*
X22606000Y-6305000D02*
X22606000Y-6395000D01*
X22561000Y-6350000D02*
X22651000Y-6350000D01*
X6131356Y-9433356D02*
X6131356Y-9362644D01*
X6060644Y-9362644D01*
X6060644Y-9433356D01*
X6131356Y-9433356D01*
X6131356Y-9687356D02*
X6131356Y-9616644D01*
X6060644Y-9616644D01*
X6060644Y-9687356D01*
X6131356Y-9687356D01*
X6131356Y-9941356D02*
X6131356Y-9870644D01*
X6060644Y-9870644D01*
X6060644Y-9941356D01*
X6131356Y-9941356D01*
X6131356Y-10195356D02*
X6131356Y-10124644D01*
X6060644Y-10124644D01*
X6060644Y-10195356D01*
X6131356Y-10195356D01*
X6131356Y-10449356D02*
X6131356Y-10378644D01*
X6060644Y-10378644D01*
X6060644Y-10449356D01*
X6131356Y-10449356D01*
X6131356Y-10703356D02*
X6131356Y-10632644D01*
X6060644Y-10632644D01*
X6060644Y-10703356D01*
X6131356Y-10703356D01*
X9941356Y-14513356D02*
X9941356Y-14442644D01*
X9870644Y-14442644D01*
X9870644Y-14513356D01*
X9941356Y-14513356D01*
X10195356Y-14513356D02*
X10195356Y-14442644D01*
X10124644Y-14442644D01*
X10124644Y-14513356D01*
X10195356Y-14513356D01*
X10449356Y-14513356D02*
X10449356Y-14442644D01*
X10378644Y-14442644D01*
X10378644Y-14513356D01*
X10449356Y-14513356D01*
X10703356Y-14513356D02*
X10703356Y-14442644D01*
X10632644Y-14442644D01*
X10632644Y-14513356D01*
X10703356Y-14513356D01*
X10957356Y-14513356D02*
X10957356Y-14442644D01*
X10886644Y-14442644D01*
X10886644Y-14513356D01*
X10957356Y-14513356D01*
X11211356Y-14513356D02*
X11211356Y-14442644D01*
X11140644Y-14442644D01*
X11140644Y-14513356D01*
X11211356Y-14513356D01*
X11465356Y-14513356D02*
X11465356Y-14442644D01*
X11394644Y-14442644D01*
X11394644Y-14513356D01*
X11465356Y-14513356D01*
X11719356Y-14513356D02*
X11719356Y-14442644D01*
X11648644Y-14442644D01*
X11648644Y-14513356D01*
X11719356Y-14513356D01*
X11973356Y-14513356D02*
X11973356Y-14442644D01*
X11902644Y-14442644D01*
X11902644Y-14513356D01*
X11973356Y-14513356D01*
X12227356Y-14513356D02*
X12227356Y-14442644D01*
X12156644Y-14442644D01*
X12156644Y-14513356D01*
X12227356Y-14513356D01*
X12481356Y-14513356D02*
X12481356Y-14442644D01*
X12410644Y-14442644D01*
X12410644Y-14513356D01*
X12481356Y-14513356D01*
X12735356Y-14513356D02*
X12735356Y-14442644D01*
X12664644Y-14442644D01*
X12664644Y-14513356D01*
X12735356Y-14513356D01*
X12989356Y-14513356D02*
X12989356Y-14442644D01*
X12918644Y-14442644D01*
X12918644Y-14513356D01*
X12989356Y-14513356D01*
X13243356Y-14513356D02*
X13243356Y-14442644D01*
X13172644Y-14442644D01*
X13172644Y-14513356D01*
X13243356Y-14513356D01*
X13497356Y-14513356D02*
X13497356Y-14442644D01*
X13426644Y-14442644D01*
X13426644Y-14513356D01*
X13497356Y-14513356D01*
X13751356Y-14513356D02*
X13751356Y-14442644D01*
X13680644Y-14442644D01*
X13680644Y-14513356D01*
X13751356Y-14513356D01*
X6131356Y-12100356D02*
X6131356Y-12029644D01*
X6060644Y-12029644D01*
X6060644Y-12100356D01*
X6131356Y-12100356D01*
X6131356Y-12354356D02*
X6131356Y-12283644D01*
X6060644Y-12283644D01*
X6060644Y-12354356D01*
X6131356Y-12354356D01*
X6131356Y-12608356D02*
X6131356Y-12537644D01*
X6060644Y-12537644D01*
X6060644Y-12608356D01*
X6131356Y-12608356D01*
X6131356Y-12862356D02*
X6131356Y-12791644D01*
X6060644Y-12791644D01*
X6060644Y-12862356D01*
X6131356Y-12862356D01*
X6385356Y-14513356D02*
X6385356Y-14442644D01*
X6314644Y-14442644D01*
X6314644Y-14513356D01*
X6385356Y-14513356D01*
X6639356Y-14513356D02*
X6639356Y-14442644D01*
X6568644Y-14442644D01*
X6568644Y-14513356D01*
X6639356Y-14513356D01*
X6893356Y-14513356D02*
X6893356Y-14442644D01*
X6822644Y-14442644D01*
X6822644Y-14513356D01*
X6893356Y-14513356D01*
X7147356Y-14513356D02*
X7147356Y-14442644D01*
X7076644Y-14442644D01*
X7076644Y-14513356D01*
X7147356Y-14513356D01*
X7401356Y-14513356D02*
X7401356Y-14442644D01*
X7330644Y-14442644D01*
X7330644Y-14513356D01*
X7401356Y-14513356D01*
X7655356Y-14513356D02*
X7655356Y-14442644D01*
X7584644Y-14442644D01*
X7584644Y-14513356D01*
X7655356Y-14513356D01*
X7909356Y-14513356D02*
X7909356Y-14442644D01*
X7838644Y-14442644D01*
X7838644Y-14513356D01*
X7909356Y-14513356D01*
X8163356Y-14513356D02*
X8163356Y-14442644D01*
X8092644Y-14442644D01*
X8092644Y-14513356D01*
X8163356Y-14513356D01*
X8417356Y-14513356D02*
X8417356Y-14442644D01*
X8346644Y-14442644D01*
X8346644Y-14513356D01*
X8417356Y-14513356D01*
X8671356Y-14513356D02*
X8671356Y-14442644D01*
X8600644Y-14442644D01*
X8600644Y-14513356D01*
X8671356Y-14513356D01*
X16291356Y-14513356D02*
X16291356Y-14442644D01*
X16220644Y-14442644D01*
X16220644Y-14513356D01*
X16291356Y-14513356D01*
X16545356Y-14513356D02*
X16545356Y-14442644D01*
X16474644Y-14442644D01*
X16474644Y-14513356D01*
X16545356Y-14513356D01*
X16799356Y-14513356D02*
X16799356Y-14442644D01*
X16728644Y-14442644D01*
X16728644Y-14513356D01*
X16799356Y-14513356D01*
X17053356Y-14513356D02*
X17053356Y-14442644D01*
X16982644Y-14442644D01*
X16982644Y-14513356D01*
X17053356Y-14513356D01*
X17307356Y-14513356D02*
X17307356Y-14442644D01*
X17236644Y-14442644D01*
X17236644Y-14513356D01*
X17307356Y-14513356D01*
X17561356Y-14513356D02*
X17561356Y-14442644D01*
X17490644Y-14442644D01*
X17490644Y-14513356D01*
X17561356Y-14513356D01*
X17815356Y-14513356D02*
X17815356Y-14442644D01*
X17744644Y-14442644D01*
X17744644Y-14513356D01*
X17815356Y-14513356D01*
X18069356Y-14513356D02*
X18069356Y-14442644D01*
X17998644Y-14442644D01*
X17998644Y-14513356D01*
X18069356Y-14513356D01*
X18323356Y-14513356D02*
X18323356Y-14442644D01*
X18252644Y-14442644D01*
X18252644Y-14513356D01*
X18323356Y-14513356D01*
X18577356Y-14513356D02*
X18577356Y-14442644D01*
X18506644Y-14442644D01*
X18506644Y-14513356D01*
X18577356Y-14513356D01*
X18831356Y-14513356D02*
X18831356Y-14442644D01*
X18760644Y-14442644D01*
X18760644Y-14513356D01*
X18831356Y-14513356D01*
X19085356Y-14513356D02*
X19085356Y-14442644D01*
X19014644Y-14442644D01*
X19014644Y-14513356D01*
X19085356Y-14513356D01*
X19339356Y-14513356D02*
X19339356Y-14442644D01*
X19268644Y-14442644D01*
X19268644Y-14513356D01*
X19339356Y-14513356D01*
X19593356Y-14513356D02*
X19593356Y-14442644D01*
X19522644Y-14442644D01*
X19522644Y-14513356D01*
X19593356Y-14513356D01*
X19847356Y-14513356D02*
X19847356Y-14442644D01*
X19776644Y-14442644D01*
X19776644Y-14513356D01*
X19847356Y-14513356D01*
X20101356Y-14513356D02*
X20101356Y-14442644D01*
X20030644Y-14442644D01*
X20030644Y-14513356D01*
X20101356Y-14513356D01*
X20355356Y-14513356D02*
X20355356Y-14442644D01*
X20284644Y-14442644D01*
X20284644Y-14513356D01*
X20355356Y-14513356D01*
X20609356Y-14513356D02*
X20609356Y-14442644D01*
X20538644Y-14442644D01*
X20538644Y-14513356D01*
X20609356Y-14513356D01*
X20863356Y-14513356D02*
X20863356Y-14442644D01*
X20792644Y-14442644D01*
X20792644Y-14513356D01*
X20863356Y-14513356D01*
X21117356Y-14513356D02*
X21117356Y-14442644D01*
X21046644Y-14442644D01*
X21046644Y-14513356D01*
X21117356Y-14513356D01*
X21371356Y-14513356D02*
X21371356Y-14442644D01*
X21300644Y-14442644D01*
X21300644Y-14513356D01*
X21371356Y-14513356D01*
X21625356Y-14513356D02*
X21625356Y-14442644D01*
X21554644Y-14442644D01*
X21554644Y-14513356D01*
X21625356Y-14513356D01*
X21879356Y-14513356D02*
X21879356Y-14442644D01*
X21808644Y-14442644D01*
X21808644Y-14513356D01*
X21879356Y-14513356D01*
X22133356Y-14513356D02*
X22133356Y-14442644D01*
X22062644Y-14442644D01*
X22062644Y-14513356D01*
X22133356Y-14513356D01*
X22387356Y-14513356D02*
X22387356Y-14442644D01*
X22316644Y-14442644D01*
X22316644Y-14513356D01*
X22387356Y-14513356D01*
X22641356Y-14513356D02*
X22641356Y-14442644D01*
X22570644Y-14442644D01*
X22570644Y-14513356D01*
X22641356Y-14513356D01*
X22895356Y-14513356D02*
X22895356Y-14442644D01*
X22824644Y-14442644D01*
X22824644Y-14513356D01*
X22895356Y-14513356D01*
X23149356Y-14513356D02*
X23149356Y-14442644D01*
X23078644Y-14442644D01*
X23078644Y-14513356D01*
X23149356Y-14513356D01*
X23403356Y-14513356D02*
X23403356Y-14442644D01*
X23332644Y-14442644D01*
X23332644Y-14513356D01*
X23403356Y-14513356D01*
X23657356Y-14513356D02*
X23657356Y-14442644D01*
X23586644Y-14442644D01*
X23586644Y-14513356D01*
X23657356Y-14513356D01*
X23911356Y-14513356D02*
X23911356Y-14442644D01*
X23840644Y-14442644D01*
X23840644Y-14513356D01*
X23911356Y-14513356D01*
X24165356Y-14513356D02*
X24165356Y-14442644D01*
X24094644Y-14442644D01*
X24094644Y-14513356D01*
X24165356Y-14513356D01*
X9687356Y-6131356D02*
X9687356Y-6060644D01*
X9616644Y-6060644D01*
X9616644Y-6131356D01*
X9687356Y-6131356D01*
X9941356Y-6131356D02*
X9941356Y-6060644D01*
X9870644Y-6060644D01*
X9870644Y-6131356D01*
X9941356Y-6131356D01*
X10449356Y-10957356D02*
X10449356Y-10886644D01*
X10378644Y-10886644D01*
X10378644Y-10957356D01*
X10449356Y-10957356D01*
X10449356Y-11211356D02*
X10449356Y-11140644D01*
X10378644Y-11140644D01*
X10378644Y-11211356D01*
X10449356Y-11211356D01*
X10703356Y-10957356D02*
X10703356Y-10886644D01*
X10632644Y-10886644D01*
X10632644Y-10957356D01*
X10703356Y-10957356D01*
X10703356Y-11211356D02*
X10703356Y-11140644D01*
X10632644Y-11140644D01*
X10632644Y-11211356D01*
X10703356Y-11211356D01*
X10957356Y-10957356D02*
X10957356Y-10886644D01*
X10886644Y-10886644D01*
X10886644Y-10957356D01*
X10957356Y-10957356D01*
X10957356Y-11211356D02*
X10957356Y-11140644D01*
X10886644Y-11140644D01*
X10886644Y-11211356D01*
X10957356Y-11211356D01*
X11211356Y-10957356D02*
X11211356Y-10886644D01*
X11140644Y-10886644D01*
X11140644Y-10957356D01*
X11211356Y-10957356D01*
X11211356Y-11211356D02*
X11211356Y-11140644D01*
X11140644Y-11140644D01*
X11140644Y-11211356D01*
X11211356Y-11211356D01*
X11465356Y-10957356D02*
X11465356Y-10886644D01*
X11394644Y-10886644D01*
X11394644Y-10957356D01*
X11465356Y-10957356D01*
X11465356Y-11211356D02*
X11465356Y-11140644D01*
X11394644Y-11140644D01*
X11394644Y-11211356D01*
X11465356Y-11211356D01*
X11719356Y-10957356D02*
X11719356Y-10886644D01*
X11648644Y-10886644D01*
X11648644Y-10957356D01*
X11719356Y-10957356D01*
X11719356Y-11211356D02*
X11719356Y-11140644D01*
X11648644Y-11140644D01*
X11648644Y-11211356D01*
X11719356Y-11211356D01*
X11973356Y-10957356D02*
X11973356Y-10886644D01*
X11902644Y-10886644D01*
X11902644Y-10957356D01*
X11973356Y-10957356D01*
X11973356Y-11211356D02*
X11973356Y-11140644D01*
X11902644Y-11140644D01*
X11902644Y-11211356D01*
X11973356Y-11211356D01*
X12227356Y-10957356D02*
X12227356Y-10886644D01*
X12156644Y-10886644D01*
X12156644Y-10957356D01*
X12227356Y-10957356D01*
X12227356Y-11211356D02*
X12227356Y-11140644D01*
X12156644Y-11140644D01*
X12156644Y-11211356D01*
X12227356Y-11211356D01*
X12481356Y-10957356D02*
X12481356Y-10886644D01*
X12410644Y-10886644D01*
X12410644Y-10957356D01*
X12481356Y-10957356D01*
X12481356Y-11211356D02*
X12481356Y-11140644D01*
X12410644Y-11140644D01*
X12410644Y-11211356D01*
X12481356Y-11211356D01*
X12735356Y-10957356D02*
X12735356Y-10886644D01*
X12664644Y-10886644D01*
X12664644Y-10957356D01*
X12735356Y-10957356D01*
X12735356Y-11211356D02*
X12735356Y-11140644D01*
X12664644Y-11140644D01*
X12664644Y-11211356D01*
X12735356Y-11211356D01*
X12989356Y-10957356D02*
X12989356Y-10886644D01*
X12918644Y-10886644D01*
X12918644Y-10957356D01*
X12989356Y-10957356D01*
X12989356Y-11211356D02*
X12989356Y-11140644D01*
X12918644Y-11140644D01*
X12918644Y-11211356D01*
X12989356Y-11211356D01*
X13243356Y-10957356D02*
X13243356Y-10886644D01*
X13172644Y-10886644D01*
X13172644Y-10957356D01*
X13243356Y-10957356D01*
X13243356Y-11211356D02*
X13243356Y-11140644D01*
X13172644Y-11140644D01*
X13172644Y-11211356D01*
X13243356Y-11211356D01*
X13497356Y-10957356D02*
X13497356Y-10886644D01*
X13426644Y-10886644D01*
X13426644Y-10957356D01*
X13497356Y-10957356D01*
X13497356Y-11211356D02*
X13497356Y-11140644D01*
X13426644Y-11140644D01*
X13426644Y-11211356D01*
X13497356Y-11211356D01*
X13751356Y-10957356D02*
X13751356Y-10886644D01*
X13680644Y-10886644D01*
X13680644Y-10957356D01*
X13751356Y-10957356D01*
X13751356Y-11211356D02*
X13751356Y-11140644D01*
X13680644Y-11140644D01*
X13680644Y-11211356D01*
X13751356Y-11211356D01*
X14005356Y-10957356D02*
X14005356Y-10886644D01*
X13934644Y-10886644D01*
X13934644Y-10957356D01*
X14005356Y-10957356D01*
X14005356Y-11211356D02*
X14005356Y-11140644D01*
X13934644Y-11140644D01*
X13934644Y-11211356D01*
X14005356Y-11211356D01*
X14259356Y-10957356D02*
X14259356Y-10886644D01*
X14188644Y-10886644D01*
X14188644Y-10957356D01*
X14259356Y-10957356D01*
X14259356Y-11211356D02*
X14259356Y-11140644D01*
X14188644Y-11140644D01*
X14188644Y-11211356D01*
X14259356Y-11211356D01*
X14513356Y-10957356D02*
X14513356Y-10886644D01*
X14442644Y-10886644D01*
X14442644Y-10957356D01*
X14513356Y-10957356D01*
X14513356Y-11211356D02*
X14513356Y-11140644D01*
X14442644Y-11140644D01*
X14442644Y-11211356D01*
X14513356Y-11211356D01*
X6131356Y-8544356D02*
X6131356Y-8473644D01*
X6060644Y-8473644D01*
X6060644Y-8544356D01*
X6131356Y-8544356D01*
X6131356Y-8798356D02*
X6131356Y-8727644D01*
X6060644Y-8727644D01*
X6060644Y-8798356D01*
X6131356Y-8798356D01*
X6385356Y-8544356D02*
X6385356Y-8473644D01*
X6314644Y-8473644D01*
X6314644Y-8544356D01*
X6385356Y-8544356D01*
X6385356Y-8798356D02*
X6385356Y-8727644D01*
X6314644Y-8727644D01*
X6314644Y-8798356D01*
X6385356Y-8798356D01*
X6639356Y-8544356D02*
X6639356Y-8473644D01*
X6568644Y-8473644D01*
X6568644Y-8544356D01*
X6639356Y-8544356D01*
X6639356Y-8798356D02*
X6639356Y-8727644D01*
X6568644Y-8727644D01*
X6568644Y-8798356D01*
X6639356Y-8798356D01*
X6893356Y-8544356D02*
X6893356Y-8473644D01*
X6822644Y-8473644D01*
X6822644Y-8544356D01*
X6893356Y-8544356D01*
X6893356Y-8798356D02*
X6893356Y-8727644D01*
X6822644Y-8727644D01*
X6822644Y-8798356D01*
X6893356Y-8798356D01*
X7147356Y-8544356D02*
X7147356Y-8473644D01*
X7076644Y-8473644D01*
X7076644Y-8544356D01*
X7147356Y-8544356D01*
X7147356Y-8798356D02*
X7147356Y-8727644D01*
X7076644Y-8727644D01*
X7076644Y-8798356D01*
X7147356Y-8798356D01*
X7401356Y-8544356D02*
X7401356Y-8473644D01*
X7330644Y-8473644D01*
X7330644Y-8544356D01*
X7401356Y-8544356D01*
X7401356Y-8798356D02*
X7401356Y-8727644D01*
X7330644Y-8727644D01*
X7330644Y-8798356D01*
X7401356Y-8798356D01*
X7655356Y-8544356D02*
X7655356Y-8473644D01*
X7584644Y-8473644D01*
X7584644Y-8544356D01*
X7655356Y-8544356D01*
X7655356Y-8798356D02*
X7655356Y-8727644D01*
X7584644Y-8727644D01*
X7584644Y-8798356D01*
X7655356Y-8798356D01*
X7909356Y-8544356D02*
X7909356Y-8473644D01*
X7838644Y-8473644D01*
X7838644Y-8544356D01*
X7909356Y-8544356D01*
X7909356Y-8798356D02*
X7909356Y-8727644D01*
X7838644Y-8727644D01*
X7838644Y-8798356D01*
X7909356Y-8798356D01*
X8163356Y-8544356D02*
X8163356Y-8473644D01*
X8092644Y-8473644D01*
X8092644Y-8544356D01*
X8163356Y-8544356D01*
X8163356Y-8798356D02*
X8163356Y-8727644D01*
X8092644Y-8727644D01*
X8092644Y-8798356D01*
X8163356Y-8798356D01*
X8417356Y-8544356D02*
X8417356Y-8473644D01*
X8346644Y-8473644D01*
X8346644Y-8544356D01*
X8417356Y-8544356D01*
X8417356Y-8798356D02*
X8417356Y-8727644D01*
X8346644Y-8727644D01*
X8346644Y-8798356D01*
X8417356Y-8798356D01*
X8671356Y-8544356D02*
X8671356Y-8473644D01*
X8600644Y-8473644D01*
X8600644Y-8544356D01*
X8671356Y-8544356D01*
X8671356Y-8798356D02*
X8671356Y-8727644D01*
X8600644Y-8727644D01*
X8600644Y-8798356D01*
X8671356Y-8798356D01*
X8925356Y-8544356D02*
X8925356Y-8473644D01*
X8854644Y-8473644D01*
X8854644Y-8544356D01*
X8925356Y-8544356D01*
X8925356Y-8798356D02*
X8925356Y-8727644D01*
X8854644Y-8727644D01*
X8854644Y-8798356D01*
X8925356Y-8798356D01*
X9179356Y-8544356D02*
X9179356Y-8473644D01*
X9108644Y-8473644D01*
X9108644Y-8544356D01*
X9179356Y-8544356D01*
X9179356Y-8798356D02*
X9179356Y-8727644D01*
X9108644Y-8727644D01*
X9108644Y-8798356D01*
X9179356Y-8798356D01*
X9433356Y-8544356D02*
X9433356Y-8473644D01*
X9362644Y-8473644D01*
X9362644Y-8544356D01*
X9433356Y-8544356D01*
X9433356Y-8798356D02*
X9433356Y-8727644D01*
X9362644Y-8727644D01*
X9362644Y-8798356D01*
X9433356Y-8798356D01*
X9687356Y-8544356D02*
X9687356Y-8473644D01*
X9616644Y-8473644D01*
X9616644Y-8544356D01*
X9687356Y-8544356D01*
X9687356Y-8798356D02*
X9687356Y-8727644D01*
X9616644Y-8727644D01*
X9616644Y-8798356D01*
X9687356Y-8798356D01*
X9941356Y-8544356D02*
X9941356Y-8473644D01*
X9870644Y-8473644D01*
X9870644Y-8544356D01*
X9941356Y-8544356D01*
X9941356Y-8798356D02*
X9941356Y-8727644D01*
X9870644Y-8727644D01*
X9870644Y-8798356D01*
X9941356Y-8798356D01*
X10195356Y-8544356D02*
X10195356Y-8473644D01*
X10124644Y-8473644D01*
X10124644Y-8544356D01*
X10195356Y-8544356D01*
X10195356Y-8798356D02*
X10195356Y-8727644D01*
X10124644Y-8727644D01*
X10124644Y-8798356D01*
X10195356Y-8798356D01*
X24165356Y-7909356D02*
X24165356Y-7838644D01*
X24094644Y-7838644D01*
X24094644Y-7909356D01*
X24165356Y-7909356D01*
X24165356Y-8163356D02*
X24165356Y-8092644D01*
X24094644Y-8092644D01*
X24094644Y-8163356D01*
X24165356Y-8163356D01*
X24165356Y-8417356D02*
X24165356Y-8346644D01*
X24094644Y-8346644D01*
X24094644Y-8417356D01*
X24165356Y-8417356D01*
X5369356Y-6131356D02*
X5369356Y-6060644D01*
X5298644Y-6060644D01*
X5298644Y-6131356D01*
X5369356Y-6131356D01*
X5623356Y-6131356D02*
X5623356Y-6060644D01*
X5552644Y-6060644D01*
X5552644Y-6131356D01*
X5623356Y-6131356D01*
X5877356Y-6131356D02*
X5877356Y-6060644D01*
X5806644Y-6060644D01*
X5806644Y-6131356D01*
X5877356Y-6131356D01*
X6131356Y-6131356D02*
X6131356Y-6060644D01*
X6060644Y-6060644D01*
X6060644Y-6131356D01*
X6131356Y-6131356D01*
X6385356Y-6131356D02*
X6385356Y-6060644D01*
X6314644Y-6060644D01*
X6314644Y-6131356D01*
X6385356Y-6131356D01*
X6639356Y-6131356D02*
X6639356Y-6060644D01*
X6568644Y-6060644D01*
X6568644Y-6131356D01*
X6639356Y-6131356D01*
X6893356Y-6131356D02*
X6893356Y-6060644D01*
X6822644Y-6060644D01*
X6822644Y-6131356D01*
X6893356Y-6131356D01*
X7147356Y-6131356D02*
X7147356Y-6060644D01*
X7076644Y-6060644D01*
X7076644Y-6131356D01*
X7147356Y-6131356D01*
X7401356Y-6131356D02*
X7401356Y-6060644D01*
X7330644Y-6060644D01*
X7330644Y-6131356D01*
X7401356Y-6131356D01*
X7655356Y-6131356D02*
X7655356Y-6060644D01*
X7584644Y-6060644D01*
X7584644Y-6131356D01*
X7655356Y-6131356D01*
X7909356Y-6131356D02*
X7909356Y-6060644D01*
X7838644Y-6060644D01*
X7838644Y-6131356D01*
X7909356Y-6131356D01*
X8163356Y-6131356D02*
X8163356Y-6060644D01*
X8092644Y-6060644D01*
X8092644Y-6131356D01*
X8163356Y-6131356D01*
X8417356Y-6131356D02*
X8417356Y-6060644D01*
X8346644Y-6060644D01*
X8346644Y-6131356D01*
X8417356Y-6131356D01*
X8671356Y-6131356D02*
X8671356Y-6060644D01*
X8600644Y-6060644D01*
X8600644Y-6131356D01*
X8671356Y-6131356D01*
X8925356Y-6131356D02*
X8925356Y-6060644D01*
X8854644Y-6060644D01*
X8854644Y-6131356D01*
X8925356Y-6131356D01*
X9179356Y-6131356D02*
X9179356Y-6060644D01*
X9108644Y-6060644D01*
X9108644Y-6131356D01*
X9179356Y-6131356D01*
D12*
X5363928Y-15327214D02*
X5363928Y-15027214D01*
X5435357Y-15027214D01*
X5478214Y-15041500D01*
X5506786Y-15070071D01*
X5521071Y-15098643D01*
X5535357Y-15155786D01*
X5535357Y-15198643D01*
X5521071Y-15255786D01*
X5506786Y-15284357D01*
X5478214Y-15312929D01*
X5435357Y-15327214D01*
X5363928Y-15327214D01*
X5663928Y-15327214D02*
X5663928Y-15127214D01*
X5663928Y-15184357D02*
X5678214Y-15155786D01*
X5692500Y-15141500D01*
X5721071Y-15127214D01*
X5749643Y-15127214D01*
X5849643Y-15327214D02*
X5849643Y-15127214D01*
X5849643Y-15027214D02*
X5835357Y-15041500D01*
X5849643Y-15055786D01*
X5863928Y-15041500D01*
X5849643Y-15027214D01*
X5849643Y-15055786D01*
X6035357Y-15327214D02*
X6006786Y-15312929D01*
X5992500Y-15284357D01*
X5992500Y-15027214D01*
X6192500Y-15327214D02*
X6163928Y-15312929D01*
X6149643Y-15284357D01*
X6149643Y-15027214D01*
X6535357Y-15327214D02*
X6535357Y-15027214D01*
X6635357Y-15241500D01*
X6735357Y-15027214D01*
X6735357Y-15327214D01*
X7006786Y-15327214D02*
X7006786Y-15170071D01*
X6992500Y-15141500D01*
X6963928Y-15127214D01*
X6906786Y-15127214D01*
X6878214Y-15141500D01*
X7006786Y-15312929D02*
X6978214Y-15327214D01*
X6906786Y-15327214D01*
X6878214Y-15312929D01*
X6863928Y-15284357D01*
X6863928Y-15255786D01*
X6878214Y-15227214D01*
X6906786Y-15212929D01*
X6978214Y-15212929D01*
X7006786Y-15198643D01*
X7149643Y-15127214D02*
X7149643Y-15427214D01*
X7149643Y-15141500D02*
X7178214Y-15127214D01*
X7235357Y-15127214D01*
X7263928Y-15141500D01*
X7278214Y-15155786D01*
X7292500Y-15184357D01*
X7292500Y-15270071D01*
X7278214Y-15298643D01*
X7263928Y-15312929D01*
X7235357Y-15327214D01*
X7178214Y-15327214D01*
X7149643Y-15312929D01*
X7421071Y-15298643D02*
X7435357Y-15312929D01*
X7421071Y-15327214D01*
X7406786Y-15312929D01*
X7421071Y-15298643D01*
X7421071Y-15327214D01*
X7421071Y-15141500D02*
X7435357Y-15155786D01*
X7421071Y-15170071D01*
X7406786Y-15155786D01*
X7421071Y-15141500D01*
X7421071Y-15170071D01*
X5037500Y-15801500D02*
X5077500Y-15841500D01*
X5077500Y-15801500D02*
X5037500Y-15841500D01*
X5421071Y-15657214D02*
X5449643Y-15657214D01*
X5478214Y-15671500D01*
X5492500Y-15685786D01*
X5506786Y-15714357D01*
X5521071Y-15771500D01*
X5521071Y-15842929D01*
X5506786Y-15900071D01*
X5492500Y-15928643D01*
X5478214Y-15942929D01*
X5449643Y-15957214D01*
X5421071Y-15957214D01*
X5392500Y-15942929D01*
X5378214Y-15928643D01*
X5363928Y-15900071D01*
X5349643Y-15842929D01*
X5349643Y-15771500D01*
X5363928Y-15714357D01*
X5378214Y-15685786D01*
X5392500Y-15671500D01*
X5421071Y-15657214D01*
X5649643Y-15928643D02*
X5663928Y-15942929D01*
X5649643Y-15957214D01*
X5635357Y-15942929D01*
X5649643Y-15928643D01*
X5649643Y-15957214D01*
X5921071Y-15757214D02*
X5921071Y-15957214D01*
X5849643Y-15642929D02*
X5778214Y-15857214D01*
X5963928Y-15857214D01*
X6135357Y-15657214D02*
X6163928Y-15657214D01*
X6192500Y-15671500D01*
X6206786Y-15685786D01*
X6221071Y-15714357D01*
X6235357Y-15771500D01*
X6235357Y-15842929D01*
X6221071Y-15900071D01*
X6206786Y-15928643D01*
X6192500Y-15942929D01*
X6163928Y-15957214D01*
X6135357Y-15957214D01*
X6106786Y-15942929D01*
X6092500Y-15928643D01*
X6078214Y-15900071D01*
X6063928Y-15842929D01*
X6063928Y-15771500D01*
X6078214Y-15714357D01*
X6092500Y-15685786D01*
X6106786Y-15671500D01*
X6135357Y-15657214D01*
X6363928Y-15957214D02*
X6363928Y-15757214D01*
X6363928Y-15785786D02*
X6378214Y-15771500D01*
X6406786Y-15757214D01*
X6449643Y-15757214D01*
X6478214Y-15771500D01*
X6492500Y-15800071D01*
X6492500Y-15957214D01*
X6492500Y-15800071D02*
X6506786Y-15771500D01*
X6535357Y-15757214D01*
X6578214Y-15757214D01*
X6606786Y-15771500D01*
X6621071Y-15800071D01*
X6621071Y-15957214D01*
X6763928Y-15957214D02*
X6763928Y-15757214D01*
X6763928Y-15785786D02*
X6778214Y-15771500D01*
X6806786Y-15757214D01*
X6849643Y-15757214D01*
X6878214Y-15771500D01*
X6892500Y-15800071D01*
X6892500Y-15957214D01*
X6892500Y-15800071D02*
X6906786Y-15771500D01*
X6935357Y-15757214D01*
X6978214Y-15757214D01*
X7006786Y-15771500D01*
X7021071Y-15800071D01*
X7021071Y-15957214D01*
X7606786Y-15642929D02*
X7349643Y-16028643D01*
X7992500Y-15657214D02*
X8021071Y-15657214D01*
X8049643Y-15671500D01*
X8063928Y-15685786D01*
X8078214Y-15714357D01*
X8092500Y-15771500D01*
X8092500Y-15842929D01*
X8078214Y-15900071D01*
X8063928Y-15928643D01*
X8049643Y-15942929D01*
X8021071Y-15957214D01*
X7992500Y-15957214D01*
X7963928Y-15942929D01*
X7949643Y-15928643D01*
X7935357Y-15900071D01*
X7921071Y-15842929D01*
X7921071Y-15771500D01*
X7935357Y-15714357D01*
X7949643Y-15685786D01*
X7963928Y-15671500D01*
X7992500Y-15657214D01*
X8221071Y-15928643D02*
X8235357Y-15942929D01*
X8221071Y-15957214D01*
X8206786Y-15942929D01*
X8221071Y-15928643D01*
X8221071Y-15957214D01*
X8421071Y-15657214D02*
X8449643Y-15657214D01*
X8478214Y-15671500D01*
X8492500Y-15685786D01*
X8506786Y-15714357D01*
X8521071Y-15771500D01*
X8521071Y-15842929D01*
X8506786Y-15900071D01*
X8492500Y-15928643D01*
X8478214Y-15942929D01*
X8449643Y-15957214D01*
X8421071Y-15957214D01*
X8392500Y-15942929D01*
X8378214Y-15928643D01*
X8363928Y-15900071D01*
X8349643Y-15842929D01*
X8349643Y-15771500D01*
X8363928Y-15714357D01*
X8378214Y-15685786D01*
X8392500Y-15671500D01*
X8421071Y-15657214D01*
X8806786Y-15957214D02*
X8635357Y-15957214D01*
X8721071Y-15957214D02*
X8721071Y-15657214D01*
X8692500Y-15700071D01*
X8663928Y-15728643D01*
X8635357Y-15742929D01*
X9063928Y-15657214D02*
X9006786Y-15657214D01*
X8978214Y-15671500D01*
X8963928Y-15685786D01*
X8935357Y-15728643D01*
X8921071Y-15785786D01*
X8921071Y-15900071D01*
X8935357Y-15928643D01*
X8949643Y-15942929D01*
X8978214Y-15957214D01*
X9035357Y-15957214D01*
X9063928Y-15942929D01*
X9078214Y-15928643D01*
X9092500Y-15900071D01*
X9092500Y-15828643D01*
X9078214Y-15800071D01*
X9063928Y-15785786D01*
X9035357Y-15771500D01*
X8978214Y-15771500D01*
X8949643Y-15785786D01*
X8935357Y-15800071D01*
X8921071Y-15828643D01*
X9206786Y-15657214D02*
X9206786Y-15714357D01*
X9321071Y-15657214D02*
X9321071Y-15714357D01*
X9763928Y-16071500D02*
X9749643Y-16057214D01*
X9721071Y-16014357D01*
X9706786Y-15985786D01*
X9692500Y-15942929D01*
X9678214Y-15871500D01*
X9678214Y-15814357D01*
X9692500Y-15742929D01*
X9706786Y-15700071D01*
X9721071Y-15671500D01*
X9749643Y-15628643D01*
X9763928Y-15614357D01*
X9863928Y-15685786D02*
X9878214Y-15671500D01*
X9906786Y-15657214D01*
X9978214Y-15657214D01*
X10006786Y-15671500D01*
X10021071Y-15685786D01*
X10035357Y-15714357D01*
X10035357Y-15742929D01*
X10021071Y-15785786D01*
X9849643Y-15957214D01*
X10035357Y-15957214D01*
X10221071Y-15657214D02*
X10249643Y-15657214D01*
X10278214Y-15671500D01*
X10292500Y-15685786D01*
X10306786Y-15714357D01*
X10321071Y-15771500D01*
X10321071Y-15842929D01*
X10306786Y-15900071D01*
X10292500Y-15928643D01*
X10278214Y-15942929D01*
X10249643Y-15957214D01*
X10221071Y-15957214D01*
X10192500Y-15942929D01*
X10178214Y-15928643D01*
X10163928Y-15900071D01*
X10149643Y-15842929D01*
X10149643Y-15771500D01*
X10163928Y-15714357D01*
X10178214Y-15685786D01*
X10192500Y-15671500D01*
X10221071Y-15657214D01*
X10421071Y-15657214D02*
X10606786Y-15657214D01*
X10506786Y-15771500D01*
X10549643Y-15771500D01*
X10578214Y-15785786D01*
X10592500Y-15800071D01*
X10606786Y-15828643D01*
X10606786Y-15900071D01*
X10592500Y-15928643D01*
X10578214Y-15942929D01*
X10549643Y-15957214D01*
X10463928Y-15957214D01*
X10435357Y-15942929D01*
X10421071Y-15928643D01*
X10963928Y-15957214D02*
X10963928Y-15657214D01*
X11092500Y-15957214D02*
X11092500Y-15800071D01*
X11078214Y-15771500D01*
X11049643Y-15757214D01*
X11006786Y-15757214D01*
X10978214Y-15771500D01*
X10963928Y-15785786D01*
X11278214Y-15957214D02*
X11249643Y-15942929D01*
X11235357Y-15928643D01*
X11221071Y-15900071D01*
X11221071Y-15814357D01*
X11235357Y-15785786D01*
X11249643Y-15771500D01*
X11278214Y-15757214D01*
X11321071Y-15757214D01*
X11349643Y-15771500D01*
X11363928Y-15785786D01*
X11378214Y-15814357D01*
X11378214Y-15900071D01*
X11363928Y-15928643D01*
X11349643Y-15942929D01*
X11321071Y-15957214D01*
X11278214Y-15957214D01*
X11549643Y-15957214D02*
X11521071Y-15942929D01*
X11506786Y-15914357D01*
X11506786Y-15657214D01*
X11778214Y-15942929D02*
X11749643Y-15957214D01*
X11692500Y-15957214D01*
X11663928Y-15942929D01*
X11649643Y-15914357D01*
X11649643Y-15800071D01*
X11663928Y-15771500D01*
X11692500Y-15757214D01*
X11749643Y-15757214D01*
X11778214Y-15771500D01*
X11792500Y-15800071D01*
X11792500Y-15828643D01*
X11649643Y-15857214D01*
X11906786Y-15942929D02*
X11935357Y-15957214D01*
X11992500Y-15957214D01*
X12021071Y-15942929D01*
X12035357Y-15914357D01*
X12035357Y-15900071D01*
X12021071Y-15871500D01*
X11992500Y-15857214D01*
X11949643Y-15857214D01*
X11921071Y-15842929D01*
X11906786Y-15814357D01*
X11906786Y-15800071D01*
X11921071Y-15771500D01*
X11949643Y-15757214D01*
X11992500Y-15757214D01*
X12021071Y-15771500D01*
X12135357Y-16071500D02*
X12149643Y-16057214D01*
X12178214Y-16014357D01*
X12192500Y-15985786D01*
X12206786Y-15942929D01*
X12221071Y-15871500D01*
X12221071Y-15814357D01*
X12206786Y-15742929D01*
X12192500Y-15700071D01*
X12178214Y-15671500D01*
X12149643Y-15628643D01*
X12135357Y-15614357D01*
X5077500Y-16217500D02*
G75*
G03X5077500Y-16217500I-40000J0D01*
G01*
X5421071Y-16053214D02*
X5449643Y-16053214D01*
X5478214Y-16067500D01*
X5492500Y-16081786D01*
X5506786Y-16110357D01*
X5521071Y-16167500D01*
X5521071Y-16238929D01*
X5506786Y-16296071D01*
X5492500Y-16324643D01*
X5478214Y-16338929D01*
X5449643Y-16353214D01*
X5421071Y-16353214D01*
X5392500Y-16338929D01*
X5378214Y-16324643D01*
X5363928Y-16296071D01*
X5349643Y-16238929D01*
X5349643Y-16167500D01*
X5363928Y-16110357D01*
X5378214Y-16081786D01*
X5392500Y-16067500D01*
X5421071Y-16053214D01*
X5649643Y-16324643D02*
X5663928Y-16338929D01*
X5649643Y-16353214D01*
X5635357Y-16338929D01*
X5649643Y-16324643D01*
X5649643Y-16353214D01*
X5835357Y-16181786D02*
X5806786Y-16167500D01*
X5792500Y-16153214D01*
X5778214Y-16124643D01*
X5778214Y-16110357D01*
X5792500Y-16081786D01*
X5806786Y-16067500D01*
X5835357Y-16053214D01*
X5892500Y-16053214D01*
X5921071Y-16067500D01*
X5935357Y-16081786D01*
X5949643Y-16110357D01*
X5949643Y-16124643D01*
X5935357Y-16153214D01*
X5921071Y-16167500D01*
X5892500Y-16181786D01*
X5835357Y-16181786D01*
X5806786Y-16196071D01*
X5792500Y-16210357D01*
X5778214Y-16238929D01*
X5778214Y-16296071D01*
X5792500Y-16324643D01*
X5806786Y-16338929D01*
X5835357Y-16353214D01*
X5892500Y-16353214D01*
X5921071Y-16338929D01*
X5935357Y-16324643D01*
X5949643Y-16296071D01*
X5949643Y-16238929D01*
X5935357Y-16210357D01*
X5921071Y-16196071D01*
X5892500Y-16181786D01*
X6135357Y-16053214D02*
X6163928Y-16053214D01*
X6192500Y-16067500D01*
X6206786Y-16081786D01*
X6221071Y-16110357D01*
X6235357Y-16167500D01*
X6235357Y-16238929D01*
X6221071Y-16296071D01*
X6206786Y-16324643D01*
X6192500Y-16338929D01*
X6163928Y-16353214D01*
X6135357Y-16353214D01*
X6106786Y-16338929D01*
X6092500Y-16324643D01*
X6078214Y-16296071D01*
X6063928Y-16238929D01*
X6063928Y-16167500D01*
X6078214Y-16110357D01*
X6092500Y-16081786D01*
X6106786Y-16067500D01*
X6135357Y-16053214D01*
X6363928Y-16353214D02*
X6363928Y-16153214D01*
X6363928Y-16181786D02*
X6378214Y-16167500D01*
X6406786Y-16153214D01*
X6449643Y-16153214D01*
X6478214Y-16167500D01*
X6492500Y-16196071D01*
X6492500Y-16353214D01*
X6492500Y-16196071D02*
X6506786Y-16167500D01*
X6535357Y-16153214D01*
X6578214Y-16153214D01*
X6606786Y-16167500D01*
X6621071Y-16196071D01*
X6621071Y-16353214D01*
X6763928Y-16353214D02*
X6763928Y-16153214D01*
X6763928Y-16181786D02*
X6778214Y-16167500D01*
X6806786Y-16153214D01*
X6849643Y-16153214D01*
X6878214Y-16167500D01*
X6892500Y-16196071D01*
X6892500Y-16353214D01*
X6892500Y-16196071D02*
X6906786Y-16167500D01*
X6935357Y-16153214D01*
X6978214Y-16153214D01*
X7006786Y-16167500D01*
X7021071Y-16196071D01*
X7021071Y-16353214D01*
X7606786Y-16038929D02*
X7349643Y-16424643D01*
X7992500Y-16053214D02*
X8021071Y-16053214D01*
X8049643Y-16067500D01*
X8063928Y-16081786D01*
X8078214Y-16110357D01*
X8092500Y-16167500D01*
X8092500Y-16238929D01*
X8078214Y-16296071D01*
X8063928Y-16324643D01*
X8049643Y-16338929D01*
X8021071Y-16353214D01*
X7992500Y-16353214D01*
X7963928Y-16338929D01*
X7949643Y-16324643D01*
X7935357Y-16296071D01*
X7921071Y-16238929D01*
X7921071Y-16167500D01*
X7935357Y-16110357D01*
X7949643Y-16081786D01*
X7963928Y-16067500D01*
X7992500Y-16053214D01*
X8221071Y-16324643D02*
X8235357Y-16338929D01*
X8221071Y-16353214D01*
X8206786Y-16338929D01*
X8221071Y-16324643D01*
X8221071Y-16353214D01*
X8421071Y-16053214D02*
X8449643Y-16053214D01*
X8478214Y-16067500D01*
X8492500Y-16081786D01*
X8506786Y-16110357D01*
X8521071Y-16167500D01*
X8521071Y-16238929D01*
X8506786Y-16296071D01*
X8492500Y-16324643D01*
X8478214Y-16338929D01*
X8449643Y-16353214D01*
X8421071Y-16353214D01*
X8392500Y-16338929D01*
X8378214Y-16324643D01*
X8363928Y-16296071D01*
X8349643Y-16238929D01*
X8349643Y-16167500D01*
X8363928Y-16110357D01*
X8378214Y-16081786D01*
X8392500Y-16067500D01*
X8421071Y-16053214D01*
X8621071Y-16053214D02*
X8806786Y-16053214D01*
X8706786Y-16167500D01*
X8749643Y-16167500D01*
X8778214Y-16181786D01*
X8792500Y-16196071D01*
X8806786Y-16224643D01*
X8806786Y-16296071D01*
X8792500Y-16324643D01*
X8778214Y-16338929D01*
X8749643Y-16353214D01*
X8663928Y-16353214D01*
X8635357Y-16338929D01*
X8621071Y-16324643D01*
X9092500Y-16353214D02*
X8921071Y-16353214D01*
X9006786Y-16353214D02*
X9006786Y-16053214D01*
X8978214Y-16096071D01*
X8949643Y-16124643D01*
X8921071Y-16138929D01*
X9206786Y-16053214D02*
X9206786Y-16110357D01*
X9321071Y-16053214D02*
X9321071Y-16110357D01*
X9763928Y-16467500D02*
X9749643Y-16453214D01*
X9721071Y-16410357D01*
X9706786Y-16381786D01*
X9692500Y-16338929D01*
X9678214Y-16267500D01*
X9678214Y-16210357D01*
X9692500Y-16138929D01*
X9706786Y-16096071D01*
X9721071Y-16067500D01*
X9749643Y-16024643D01*
X9763928Y-16010357D01*
X9849643Y-16053214D02*
X10035357Y-16053214D01*
X9935357Y-16167500D01*
X9978214Y-16167500D01*
X10006786Y-16181786D01*
X10021071Y-16196071D01*
X10035357Y-16224643D01*
X10035357Y-16296071D01*
X10021071Y-16324643D01*
X10006786Y-16338929D01*
X9978214Y-16353214D01*
X9892500Y-16353214D01*
X9863928Y-16338929D01*
X9849643Y-16324643D01*
X10292500Y-16053214D02*
X10235357Y-16053214D01*
X10206786Y-16067500D01*
X10192500Y-16081786D01*
X10163928Y-16124643D01*
X10149643Y-16181786D01*
X10149643Y-16296071D01*
X10163928Y-16324643D01*
X10178214Y-16338929D01*
X10206786Y-16353214D01*
X10263928Y-16353214D01*
X10292500Y-16338929D01*
X10306786Y-16324643D01*
X10321071Y-16296071D01*
X10321071Y-16224643D01*
X10306786Y-16196071D01*
X10292500Y-16181786D01*
X10263928Y-16167500D01*
X10206786Y-16167500D01*
X10178214Y-16181786D01*
X10163928Y-16196071D01*
X10149643Y-16224643D01*
X10578214Y-16153214D02*
X10578214Y-16353214D01*
X10506786Y-16038929D02*
X10435357Y-16253214D01*
X10621071Y-16253214D01*
X10963928Y-16353214D02*
X10963928Y-16053214D01*
X11092500Y-16353214D02*
X11092500Y-16196071D01*
X11078214Y-16167500D01*
X11049643Y-16153214D01*
X11006786Y-16153214D01*
X10978214Y-16167500D01*
X10963928Y-16181786D01*
X11278214Y-16353214D02*
X11249643Y-16338929D01*
X11235357Y-16324643D01*
X11221071Y-16296071D01*
X11221071Y-16210357D01*
X11235357Y-16181786D01*
X11249643Y-16167500D01*
X11278214Y-16153214D01*
X11321071Y-16153214D01*
X11349643Y-16167500D01*
X11363928Y-16181786D01*
X11378214Y-16210357D01*
X11378214Y-16296071D01*
X11363928Y-16324643D01*
X11349643Y-16338929D01*
X11321071Y-16353214D01*
X11278214Y-16353214D01*
X11549643Y-16353214D02*
X11521071Y-16338929D01*
X11506786Y-16310357D01*
X11506786Y-16053214D01*
X11778214Y-16338929D02*
X11749643Y-16353214D01*
X11692500Y-16353214D01*
X11663928Y-16338929D01*
X11649643Y-16310357D01*
X11649643Y-16196071D01*
X11663928Y-16167500D01*
X11692500Y-16153214D01*
X11749643Y-16153214D01*
X11778214Y-16167500D01*
X11792500Y-16196071D01*
X11792500Y-16224643D01*
X11649643Y-16253214D01*
X11906786Y-16338929D02*
X11935357Y-16353214D01*
X11992500Y-16353214D01*
X12021071Y-16338929D01*
X12035357Y-16310357D01*
X12035357Y-16296071D01*
X12021071Y-16267500D01*
X11992500Y-16253214D01*
X11949643Y-16253214D01*
X11921071Y-16238929D01*
X11906786Y-16210357D01*
X11906786Y-16196071D01*
X11921071Y-16167500D01*
X11949643Y-16153214D01*
X11992500Y-16153214D01*
X12021071Y-16167500D01*
X12135357Y-16467500D02*
X12149643Y-16453214D01*
X12178214Y-16410357D01*
X12192500Y-16381786D01*
X12206786Y-16338929D01*
X12221071Y-16267500D01*
X12221071Y-16210357D01*
X12206786Y-16138929D01*
X12192500Y-16096071D01*
X12178214Y-16067500D01*
X12149643Y-16024643D01*
X12135357Y-16010357D01*
X5032500Y-16568500D02*
X5032500Y-16658500D01*
X4987500Y-16613500D02*
X5077500Y-16613500D01*
X5421071Y-16449214D02*
X5449643Y-16449214D01*
X5478214Y-16463500D01*
X5492500Y-16477786D01*
X5506786Y-16506357D01*
X5521071Y-16563500D01*
X5521071Y-16634929D01*
X5506786Y-16692071D01*
X5492500Y-16720643D01*
X5478214Y-16734929D01*
X5449643Y-16749214D01*
X5421071Y-16749214D01*
X5392500Y-16734929D01*
X5378214Y-16720643D01*
X5363928Y-16692071D01*
X5349643Y-16634929D01*
X5349643Y-16563500D01*
X5363928Y-16506357D01*
X5378214Y-16477786D01*
X5392500Y-16463500D01*
X5421071Y-16449214D01*
X5649643Y-16720643D02*
X5663928Y-16734929D01*
X5649643Y-16749214D01*
X5635357Y-16734929D01*
X5649643Y-16720643D01*
X5649643Y-16749214D01*
X5806786Y-16749214D02*
X5863928Y-16749214D01*
X5892500Y-16734929D01*
X5906786Y-16720643D01*
X5935357Y-16677786D01*
X5949643Y-16620643D01*
X5949643Y-16506357D01*
X5935357Y-16477786D01*
X5921071Y-16463500D01*
X5892500Y-16449214D01*
X5835357Y-16449214D01*
X5806786Y-16463500D01*
X5792500Y-16477786D01*
X5778214Y-16506357D01*
X5778214Y-16577786D01*
X5792500Y-16606357D01*
X5806786Y-16620643D01*
X5835357Y-16634929D01*
X5892500Y-16634929D01*
X5921071Y-16620643D01*
X5935357Y-16606357D01*
X5949643Y-16577786D01*
X6135357Y-16449214D02*
X6163928Y-16449214D01*
X6192500Y-16463500D01*
X6206786Y-16477786D01*
X6221071Y-16506357D01*
X6235357Y-16563500D01*
X6235357Y-16634929D01*
X6221071Y-16692071D01*
X6206786Y-16720643D01*
X6192500Y-16734929D01*
X6163928Y-16749214D01*
X6135357Y-16749214D01*
X6106786Y-16734929D01*
X6092500Y-16720643D01*
X6078214Y-16692071D01*
X6063928Y-16634929D01*
X6063928Y-16563500D01*
X6078214Y-16506357D01*
X6092500Y-16477786D01*
X6106786Y-16463500D01*
X6135357Y-16449214D01*
X6363928Y-16749214D02*
X6363928Y-16549214D01*
X6363928Y-16577786D02*
X6378214Y-16563500D01*
X6406786Y-16549214D01*
X6449643Y-16549214D01*
X6478214Y-16563500D01*
X6492500Y-16592071D01*
X6492500Y-16749214D01*
X6492500Y-16592071D02*
X6506786Y-16563500D01*
X6535357Y-16549214D01*
X6578214Y-16549214D01*
X6606786Y-16563500D01*
X6621071Y-16592071D01*
X6621071Y-16749214D01*
X6763928Y-16749214D02*
X6763928Y-16549214D01*
X6763928Y-16577786D02*
X6778214Y-16563500D01*
X6806786Y-16549214D01*
X6849643Y-16549214D01*
X6878214Y-16563500D01*
X6892500Y-16592071D01*
X6892500Y-16749214D01*
X6892500Y-16592071D02*
X6906786Y-16563500D01*
X6935357Y-16549214D01*
X6978214Y-16549214D01*
X7006786Y-16563500D01*
X7021071Y-16592071D01*
X7021071Y-16749214D01*
X7606786Y-16434929D02*
X7349643Y-16820643D01*
X7992500Y-16449214D02*
X8021071Y-16449214D01*
X8049643Y-16463500D01*
X8063928Y-16477786D01*
X8078214Y-16506357D01*
X8092500Y-16563500D01*
X8092500Y-16634929D01*
X8078214Y-16692071D01*
X8063928Y-16720643D01*
X8049643Y-16734929D01*
X8021071Y-16749214D01*
X7992500Y-16749214D01*
X7963928Y-16734929D01*
X7949643Y-16720643D01*
X7935357Y-16692071D01*
X7921071Y-16634929D01*
X7921071Y-16563500D01*
X7935357Y-16506357D01*
X7949643Y-16477786D01*
X7963928Y-16463500D01*
X7992500Y-16449214D01*
X8221071Y-16720643D02*
X8235357Y-16734929D01*
X8221071Y-16749214D01*
X8206786Y-16734929D01*
X8221071Y-16720643D01*
X8221071Y-16749214D01*
X8421071Y-16449214D02*
X8449643Y-16449214D01*
X8478214Y-16463500D01*
X8492500Y-16477786D01*
X8506786Y-16506357D01*
X8521071Y-16563500D01*
X8521071Y-16634929D01*
X8506786Y-16692071D01*
X8492500Y-16720643D01*
X8478214Y-16734929D01*
X8449643Y-16749214D01*
X8421071Y-16749214D01*
X8392500Y-16734929D01*
X8378214Y-16720643D01*
X8363928Y-16692071D01*
X8349643Y-16634929D01*
X8349643Y-16563500D01*
X8363928Y-16506357D01*
X8378214Y-16477786D01*
X8392500Y-16463500D01*
X8421071Y-16449214D01*
X8621071Y-16449214D02*
X8806786Y-16449214D01*
X8706786Y-16563500D01*
X8749643Y-16563500D01*
X8778214Y-16577786D01*
X8792500Y-16592071D01*
X8806786Y-16620643D01*
X8806786Y-16692071D01*
X8792500Y-16720643D01*
X8778214Y-16734929D01*
X8749643Y-16749214D01*
X8663928Y-16749214D01*
X8635357Y-16734929D01*
X8621071Y-16720643D01*
X9078214Y-16449214D02*
X8935357Y-16449214D01*
X8921071Y-16592071D01*
X8935357Y-16577786D01*
X8963928Y-16563500D01*
X9035357Y-16563500D01*
X9063928Y-16577786D01*
X9078214Y-16592071D01*
X9092500Y-16620643D01*
X9092500Y-16692071D01*
X9078214Y-16720643D01*
X9063928Y-16734929D01*
X9035357Y-16749214D01*
X8963928Y-16749214D01*
X8935357Y-16734929D01*
X8921071Y-16720643D01*
X9206786Y-16449214D02*
X9206786Y-16506357D01*
X9321071Y-16449214D02*
X9321071Y-16506357D01*
X9763928Y-16863500D02*
X9749643Y-16849214D01*
X9721071Y-16806357D01*
X9706786Y-16777786D01*
X9692500Y-16734929D01*
X9678214Y-16663500D01*
X9678214Y-16606357D01*
X9692500Y-16534929D01*
X9706786Y-16492071D01*
X9721071Y-16463500D01*
X9749643Y-16420643D01*
X9763928Y-16406357D01*
X10035357Y-16749214D02*
X9863928Y-16749214D01*
X9949643Y-16749214D02*
X9949643Y-16449214D01*
X9921071Y-16492071D01*
X9892500Y-16520643D01*
X9863928Y-16534929D01*
X10292500Y-16449214D02*
X10235357Y-16449214D01*
X10206786Y-16463500D01*
X10192500Y-16477786D01*
X10163928Y-16520643D01*
X10149643Y-16577786D01*
X10149643Y-16692071D01*
X10163928Y-16720643D01*
X10178214Y-16734929D01*
X10206786Y-16749214D01*
X10263928Y-16749214D01*
X10292500Y-16734929D01*
X10306786Y-16720643D01*
X10321071Y-16692071D01*
X10321071Y-16620643D01*
X10306786Y-16592071D01*
X10292500Y-16577786D01*
X10263928Y-16563500D01*
X10206786Y-16563500D01*
X10178214Y-16577786D01*
X10163928Y-16592071D01*
X10149643Y-16620643D01*
X10678214Y-16749214D02*
X10678214Y-16449214D01*
X10806786Y-16749214D02*
X10806786Y-16592071D01*
X10792500Y-16563500D01*
X10763928Y-16549214D01*
X10721071Y-16549214D01*
X10692500Y-16563500D01*
X10678214Y-16577786D01*
X10992500Y-16749214D02*
X10963928Y-16734929D01*
X10949643Y-16720643D01*
X10935357Y-16692071D01*
X10935357Y-16606357D01*
X10949643Y-16577786D01*
X10963928Y-16563500D01*
X10992500Y-16549214D01*
X11035357Y-16549214D01*
X11063928Y-16563500D01*
X11078214Y-16577786D01*
X11092500Y-16606357D01*
X11092500Y-16692071D01*
X11078214Y-16720643D01*
X11063928Y-16734929D01*
X11035357Y-16749214D01*
X10992500Y-16749214D01*
X11263928Y-16749214D02*
X11235357Y-16734929D01*
X11221071Y-16706357D01*
X11221071Y-16449214D01*
X11492500Y-16734929D02*
X11463928Y-16749214D01*
X11406786Y-16749214D01*
X11378214Y-16734929D01*
X11363928Y-16706357D01*
X11363928Y-16592071D01*
X11378214Y-16563500D01*
X11406786Y-16549214D01*
X11463928Y-16549214D01*
X11492500Y-16563500D01*
X11506786Y-16592071D01*
X11506786Y-16620643D01*
X11363928Y-16649214D01*
X11621071Y-16734929D02*
X11649643Y-16749214D01*
X11706786Y-16749214D01*
X11735357Y-16734929D01*
X11749643Y-16706357D01*
X11749643Y-16692071D01*
X11735357Y-16663500D01*
X11706786Y-16649214D01*
X11663928Y-16649214D01*
X11635357Y-16634929D01*
X11621071Y-16606357D01*
X11621071Y-16592071D01*
X11635357Y-16563500D01*
X11663928Y-16549214D01*
X11706786Y-16549214D01*
X11735357Y-16563500D01*
X11849643Y-16863500D02*
X11863928Y-16849214D01*
X11892500Y-16806357D01*
X11906786Y-16777786D01*
X11921071Y-16734929D01*
X11935357Y-16663500D01*
X11935357Y-16606357D01*
X11921071Y-16534929D01*
X11906786Y-16492071D01*
X11892500Y-16463500D01*
X11863928Y-16420643D01*
X11849643Y-16406357D01*
X5062856Y-17044856D02*
X5062856Y-16974144D01*
X4992144Y-16974144D01*
X4992144Y-17044856D01*
X5062856Y-17044856D01*
X5521071Y-17145214D02*
X5349643Y-17145214D01*
X5435357Y-17145214D02*
X5435357Y-16845214D01*
X5406786Y-16888072D01*
X5378214Y-16916643D01*
X5349643Y-16930929D01*
X5649643Y-17116643D02*
X5663928Y-17130929D01*
X5649643Y-17145214D01*
X5635357Y-17130929D01*
X5649643Y-17116643D01*
X5649643Y-17145214D01*
X5849643Y-16845214D02*
X5878214Y-16845214D01*
X5906786Y-16859500D01*
X5921071Y-16873786D01*
X5935357Y-16902357D01*
X5949643Y-16959500D01*
X5949643Y-17030929D01*
X5935357Y-17088072D01*
X5921071Y-17116643D01*
X5906786Y-17130929D01*
X5878214Y-17145214D01*
X5849643Y-17145214D01*
X5821071Y-17130929D01*
X5806786Y-17116643D01*
X5792500Y-17088072D01*
X5778214Y-17030929D01*
X5778214Y-16959500D01*
X5792500Y-16902357D01*
X5806786Y-16873786D01*
X5821071Y-16859500D01*
X5849643Y-16845214D01*
X6135357Y-16845214D02*
X6163928Y-16845214D01*
X6192500Y-16859500D01*
X6206786Y-16873786D01*
X6221071Y-16902357D01*
X6235357Y-16959500D01*
X6235357Y-17030929D01*
X6221071Y-17088072D01*
X6206786Y-17116643D01*
X6192500Y-17130929D01*
X6163928Y-17145214D01*
X6135357Y-17145214D01*
X6106786Y-17130929D01*
X6092500Y-17116643D01*
X6078214Y-17088072D01*
X6063928Y-17030929D01*
X6063928Y-16959500D01*
X6078214Y-16902357D01*
X6092500Y-16873786D01*
X6106786Y-16859500D01*
X6135357Y-16845214D01*
X6363928Y-17145214D02*
X6363928Y-16945214D01*
X6363928Y-16973786D02*
X6378214Y-16959500D01*
X6406786Y-16945214D01*
X6449643Y-16945214D01*
X6478214Y-16959500D01*
X6492500Y-16988072D01*
X6492500Y-17145214D01*
X6492500Y-16988072D02*
X6506786Y-16959500D01*
X6535357Y-16945214D01*
X6578214Y-16945214D01*
X6606786Y-16959500D01*
X6621071Y-16988072D01*
X6621071Y-17145214D01*
X6763928Y-17145214D02*
X6763928Y-16945214D01*
X6763928Y-16973786D02*
X6778214Y-16959500D01*
X6806786Y-16945214D01*
X6849643Y-16945214D01*
X6878214Y-16959500D01*
X6892500Y-16988072D01*
X6892500Y-17145214D01*
X6892500Y-16988072D02*
X6906786Y-16959500D01*
X6935357Y-16945214D01*
X6978214Y-16945214D01*
X7006786Y-16959500D01*
X7021071Y-16988072D01*
X7021071Y-17145214D01*
X7606786Y-16830929D02*
X7349643Y-17216643D01*
X7992500Y-16845214D02*
X8021071Y-16845214D01*
X8049643Y-16859500D01*
X8063928Y-16873786D01*
X8078214Y-16902357D01*
X8092500Y-16959500D01*
X8092500Y-17030929D01*
X8078214Y-17088072D01*
X8063928Y-17116643D01*
X8049643Y-17130929D01*
X8021071Y-17145214D01*
X7992500Y-17145214D01*
X7963928Y-17130929D01*
X7949643Y-17116643D01*
X7935357Y-17088072D01*
X7921071Y-17030929D01*
X7921071Y-16959500D01*
X7935357Y-16902357D01*
X7949643Y-16873786D01*
X7963928Y-16859500D01*
X7992500Y-16845214D01*
X8221071Y-17116643D02*
X8235357Y-17130929D01*
X8221071Y-17145214D01*
X8206786Y-17130929D01*
X8221071Y-17116643D01*
X8221071Y-17145214D01*
X8421071Y-16845214D02*
X8449643Y-16845214D01*
X8478214Y-16859500D01*
X8492500Y-16873786D01*
X8506786Y-16902357D01*
X8521071Y-16959500D01*
X8521071Y-17030929D01*
X8506786Y-17088072D01*
X8492500Y-17116643D01*
X8478214Y-17130929D01*
X8449643Y-17145214D01*
X8421071Y-17145214D01*
X8392500Y-17130929D01*
X8378214Y-17116643D01*
X8363928Y-17088072D01*
X8349643Y-17030929D01*
X8349643Y-16959500D01*
X8363928Y-16902357D01*
X8378214Y-16873786D01*
X8392500Y-16859500D01*
X8421071Y-16845214D01*
X8621071Y-16845214D02*
X8806786Y-16845214D01*
X8706786Y-16959500D01*
X8749643Y-16959500D01*
X8778214Y-16973786D01*
X8792500Y-16988072D01*
X8806786Y-17016643D01*
X8806786Y-17088072D01*
X8792500Y-17116643D01*
X8778214Y-17130929D01*
X8749643Y-17145214D01*
X8663928Y-17145214D01*
X8635357Y-17130929D01*
X8621071Y-17116643D01*
X8949643Y-17145214D02*
X9006786Y-17145214D01*
X9035357Y-17130929D01*
X9049643Y-17116643D01*
X9078214Y-17073786D01*
X9092500Y-17016643D01*
X9092500Y-16902357D01*
X9078214Y-16873786D01*
X9063928Y-16859500D01*
X9035357Y-16845214D01*
X8978214Y-16845214D01*
X8949643Y-16859500D01*
X8935357Y-16873786D01*
X8921071Y-16902357D01*
X8921071Y-16973786D01*
X8935357Y-17002357D01*
X8949643Y-17016643D01*
X8978214Y-17030929D01*
X9035357Y-17030929D01*
X9063928Y-17016643D01*
X9078214Y-17002357D01*
X9092500Y-16973786D01*
X9206786Y-16845214D02*
X9206786Y-16902357D01*
X9321071Y-16845214D02*
X9321071Y-16902357D01*
X9763928Y-17259500D02*
X9749643Y-17245214D01*
X9721071Y-17202357D01*
X9706786Y-17173786D01*
X9692500Y-17130929D01*
X9678214Y-17059500D01*
X9678214Y-17002357D01*
X9692500Y-16930929D01*
X9706786Y-16888072D01*
X9721071Y-16859500D01*
X9749643Y-16816643D01*
X9763928Y-16802357D01*
X10035357Y-17145214D02*
X9863928Y-17145214D01*
X9949643Y-17145214D02*
X9949643Y-16845214D01*
X9921071Y-16888072D01*
X9892500Y-16916643D01*
X9863928Y-16930929D01*
X10306786Y-16845214D02*
X10163928Y-16845214D01*
X10149643Y-16988072D01*
X10163928Y-16973786D01*
X10192500Y-16959500D01*
X10263928Y-16959500D01*
X10292500Y-16973786D01*
X10306786Y-16988072D01*
X10321071Y-17016643D01*
X10321071Y-17088072D01*
X10306786Y-17116643D01*
X10292500Y-17130929D01*
X10263928Y-17145214D01*
X10192500Y-17145214D01*
X10163928Y-17130929D01*
X10149643Y-17116643D01*
X10421071Y-16845214D02*
X10621071Y-16845214D01*
X10492500Y-17145214D01*
X10963928Y-17145214D02*
X10963928Y-16845214D01*
X11092500Y-17145214D02*
X11092500Y-16988072D01*
X11078214Y-16959500D01*
X11049643Y-16945214D01*
X11006786Y-16945214D01*
X10978214Y-16959500D01*
X10963928Y-16973786D01*
X11278214Y-17145214D02*
X11249643Y-17130929D01*
X11235357Y-17116643D01*
X11221071Y-17088072D01*
X11221071Y-17002357D01*
X11235357Y-16973786D01*
X11249643Y-16959500D01*
X11278214Y-16945214D01*
X11321071Y-16945214D01*
X11349643Y-16959500D01*
X11363928Y-16973786D01*
X11378214Y-17002357D01*
X11378214Y-17088072D01*
X11363928Y-17116643D01*
X11349643Y-17130929D01*
X11321071Y-17145214D01*
X11278214Y-17145214D01*
X11549643Y-17145214D02*
X11521071Y-17130929D01*
X11506786Y-17102357D01*
X11506786Y-16845214D01*
X11778214Y-17130929D02*
X11749643Y-17145214D01*
X11692500Y-17145214D01*
X11663928Y-17130929D01*
X11649643Y-17102357D01*
X11649643Y-16988072D01*
X11663928Y-16959500D01*
X11692500Y-16945214D01*
X11749643Y-16945214D01*
X11778214Y-16959500D01*
X11792500Y-16988072D01*
X11792500Y-17016643D01*
X11649643Y-17045214D01*
X11906786Y-17130929D02*
X11935357Y-17145214D01*
X11992500Y-17145214D01*
X12021071Y-17130929D01*
X12035357Y-17102357D01*
X12035357Y-17088072D01*
X12021071Y-17059500D01*
X11992500Y-17045214D01*
X11949643Y-17045214D01*
X11921071Y-17030929D01*
X11906786Y-17002357D01*
X11906786Y-16988072D01*
X11921071Y-16959500D01*
X11949643Y-16945214D01*
X11992500Y-16945214D01*
X12021071Y-16959500D01*
X12135357Y-17259500D02*
X12149643Y-17245214D01*
X12178214Y-17202357D01*
X12192500Y-17173786D01*
X12206786Y-17130929D01*
X12221071Y-17059500D01*
X12221071Y-17002357D01*
X12206786Y-16930929D01*
X12192500Y-16888072D01*
X12178214Y-16859500D01*
X12149643Y-16816643D01*
X12135357Y-16802357D01*
M02*
