M48
; DRILL file {KiCad (7.0.0)} date Sun Sep 24 17:50:36 2023
; FORMAT={-:-/ absolute / metric / decimal}
; #@! TF.CreationDate,2023-09-24T17:50:36-07:00
; #@! TF.GenerationSoftware,Kicad,Pcbnew,(7.0.0)
; #@! TF.FileFunction,Plated,1,2,PTH
FMAT,2
METRIC
; #@! TA.AperFunction,Plated,PTH,ViaDrill
T1C0.381
; #@! TA.AperFunction,Plated,PTH,ComponentDrill
T2C0.800
; #@! TA.AperFunction,Plated,PTH,ComponentDrill
T3C0.900
; #@! TA.AperFunction,Plated,PTH,ComponentDrill
T4C1.000
%
G90
G05
T1
X57.15Y-85.09
X60.198Y-85.09
X62.23Y-94.488
X62.23Y-100.584
X64.77Y-92.964
X64.77Y-100.584
X71.12Y-78.232
X73.914Y-77.47
X78.74Y-87.884
X78.74Y-101.854
X81.28Y-67.056
X81.28Y-128.524
X81.28Y-136.652
X87.376Y-70.866
X88.138Y-77.47
X89.662Y-131.064
X90.932Y-131.064
X91.44Y-136.652
X91.44Y-137.922
X92.456Y-76.2
X93.98Y-76.2
X93.98Y-84.582
X94.234Y-55.88
X94.234Y-58.674
X99.06Y-76.2
X103.124Y-70.866
X103.124Y-76.2
X104.394Y-76.2
X106.68Y-69.596
X106.68Y-71.882
X106.68Y-74.676
X106.68Y-77.978
X106.68Y-87.63
X106.68Y-94.488
X106.68Y-97.536
X106.68Y-100.584
X108.204Y-134.874
X110.744Y-133.096
X111.76Y-87.63
X111.76Y-91.694
X114.3Y-68.072
X121.92Y-100.33
X124.46Y-68.326
X125.73Y-94.742
X125.73Y-100.33
X127.0Y-66.802
X128.524Y-77.47
X129.54Y-87.122
X129.54Y-94.742
X135.382Y-83.312
X143.51Y-79.502
X144.78Y-69.596
X147.315Y-68.326
X147.32Y-100.33
X151.13Y-94.742
X151.13Y-100.33
X151.892Y-134.874
X152.4Y-78.74
X153.67Y-133.096
X155.956Y-88.646
X155.956Y-90.17
X155.956Y-93.218
X156.718Y-83.566
X156.718Y-85.598
X158.496Y-108.966
X158.496Y-110.49
X159.766Y-83.566
X161.036Y-85.598
X162.306Y-74.422
X162.306Y-80.518
X162.306Y-93.218
X162.306Y-118.364
X163.576Y-75.946
X163.576Y-80.518
X163.576Y-90.17
X163.576Y-129.54
X165.354Y-86.868
X176.276Y-97.79
X178.562Y-68.834
X178.816Y-92.71
X180.594Y-85.09
X182.372Y-74.93
X186.436Y-90.17
X191.516Y-124.206
X191.77Y-87.63
X193.04Y-124.206
X196.596Y-125.476
X200.152Y-85.09
X200.152Y-87.63
X200.152Y-90.17
X200.152Y-92.71
X200.152Y-97.79
X200.914Y-114.046
X202.184Y-115.316
X203.454Y-116.586
X204.724Y-117.856
X205.232Y-109.728
X205.994Y-119.126
X206.502Y-110.998
X207.01Y-74.93
X207.772Y-112.268
X209.042Y-113.538
X210.312Y-114.808
X233.68Y-114.3
X234.95Y-115.57
X236.22Y-116.84
X237.49Y-118.11
X238.506Y-109.474
X238.76Y-119.38
X239.776Y-110.744
X241.046Y-112.014
X242.316Y-113.284
X243.586Y-114.554
T2
X55.88Y-73.66
X55.88Y-78.66
X55.88Y-96.52
X55.88Y-101.52
X60.96Y-73.66
X60.96Y-81.28
X60.96Y-96.52
X60.96Y-104.14
X63.5Y-73.66
X63.5Y-81.28
X63.5Y-96.52
X63.5Y-104.14
X66.04Y-73.66
X66.04Y-81.28
X66.04Y-96.52
X66.04Y-104.14
X68.58Y-73.66
X68.58Y-81.28
X68.58Y-96.52
X68.58Y-104.14
X71.12Y-73.66
X71.12Y-81.28
X71.12Y-96.52
X71.12Y-104.14
X73.66Y-73.66
X73.66Y-81.28
X73.66Y-96.52
X73.66Y-104.14
X76.2Y-73.66
X76.2Y-81.28
X76.2Y-96.52
X76.2Y-104.14
X81.28Y-59.69
X81.28Y-73.66
X81.28Y-78.66
X81.28Y-96.52
X81.28Y-101.52
X86.106Y-124.158
X86.106Y-126.658
X86.36Y-73.66
X86.36Y-81.28
X86.36Y-96.52
X86.36Y-104.14
X88.9Y-73.66
X88.9Y-81.28
X88.9Y-96.52
X88.9Y-104.14
X91.44Y-59.69
X91.44Y-63.58
X91.44Y-68.58
X91.44Y-73.66
X91.44Y-81.28
X91.44Y-96.52
X91.44Y-104.14
X93.98Y-73.66
X93.98Y-81.28
X93.98Y-96.52
X93.98Y-104.14
X96.52Y-73.66
X96.52Y-81.28
X96.52Y-96.52
X96.52Y-104.14
X97.79Y-59.69
X97.79Y-63.58
X97.79Y-68.58
X99.06Y-73.66
X99.06Y-81.28
X99.06Y-96.52
X99.06Y-104.14
X101.6Y-73.66
X101.6Y-81.28
X101.6Y-96.52
X101.6Y-104.14
X104.14Y-73.66
X104.14Y-81.28
X107.95Y-59.69
X109.22Y-73.74
X109.22Y-78.74
X109.22Y-96.52
X109.22Y-101.52
X111.76Y-114.3
X114.3Y-73.66
X114.3Y-81.28
X114.3Y-96.52
X114.3Y-104.14
X114.3Y-114.3
X116.84Y-73.66
X116.84Y-81.28
X116.84Y-96.52
X116.84Y-104.14
X116.84Y-114.3
X119.38Y-73.66
X119.38Y-81.28
X119.38Y-96.52
X119.38Y-104.14
X119.38Y-114.3
X121.92Y-73.66
X121.92Y-81.28
X121.92Y-96.52
X121.92Y-104.14
X121.92Y-114.3
X124.46Y-73.66
X124.46Y-81.28
X124.46Y-96.52
X124.46Y-104.14
X124.46Y-114.3
X127.0Y-73.66
X127.0Y-81.28
X127.0Y-96.52
X127.0Y-104.14
X127.0Y-114.3
X129.54Y-73.66
X129.54Y-81.28
X129.54Y-96.52
X129.54Y-104.14
X129.54Y-114.3
X132.08Y-114.3
X134.62Y-73.66
X134.62Y-78.66
X134.62Y-96.52
X134.62Y-101.52
X137.16Y-114.3
X139.695Y-73.66
X139.695Y-81.28
X139.7Y-96.52
X139.7Y-104.14
X139.7Y-114.3
X142.235Y-73.66
X142.235Y-81.28
X142.24Y-96.52
X142.24Y-104.14
X142.24Y-114.3
X144.775Y-73.66
X144.775Y-81.28
X144.78Y-96.52
X144.78Y-104.14
X144.78Y-114.3
X147.315Y-73.66
X147.315Y-81.28
X147.32Y-96.52
X147.32Y-104.14
X147.32Y-114.3
X149.855Y-73.66
X149.855Y-81.28
X149.86Y-96.52
X149.86Y-104.14
X149.86Y-114.3
X152.395Y-73.66
X152.395Y-81.28
X152.4Y-96.52
X152.4Y-104.14
X152.4Y-114.3
X154.935Y-73.66
X154.935Y-81.28
X154.94Y-96.52
X154.94Y-104.14
X154.94Y-114.3
X157.48Y-114.3
X160.528Y-66.548
X170.688Y-66.548
X190.5Y-111.84
X190.5Y-116.84
X190.5Y-121.92
X190.5Y-129.54
X193.04Y-121.92
X193.04Y-129.54
X195.58Y-121.92
X195.58Y-129.54
X198.12Y-73.66
X198.12Y-76.2
X198.12Y-78.74
X198.12Y-81.28
X198.12Y-83.82
X198.12Y-86.36
X198.12Y-88.9
X198.12Y-91.44
X198.12Y-93.98
X198.12Y-96.52
X198.12Y-99.06
X198.12Y-101.6
X198.12Y-104.14
X198.12Y-106.68
X198.12Y-109.22
X198.12Y-111.76
X198.12Y-121.92
X198.12Y-129.54
X200.66Y-121.92
X200.66Y-129.54
X203.2Y-121.92
X203.2Y-129.54
X205.74Y-121.92
X205.74Y-129.54
X208.28Y-121.92
X208.28Y-129.54
X208.36Y-66.04
X210.82Y-121.92
X210.82Y-129.54
X213.36Y-66.04
X213.36Y-73.66
X213.36Y-76.2
X213.36Y-78.74
X213.36Y-81.28
X213.36Y-83.82
X213.36Y-86.36
X213.36Y-88.9
X213.36Y-91.44
X213.36Y-93.98
X213.36Y-96.52
X213.36Y-99.06
X213.36Y-101.6
X213.36Y-104.14
X213.36Y-106.68
X213.36Y-109.22
X213.36Y-111.76
X213.36Y-121.92
X213.36Y-129.54
X218.44Y-121.92
X218.44Y-126.92
X221.02Y-115.57
X221.274Y-58.928
X223.52Y-115.57
X223.52Y-121.92
X223.52Y-129.54
X223.774Y-58.928
X226.06Y-121.92
X226.06Y-129.54
X228.6Y-55.88
X228.6Y-121.92
X228.6Y-129.54
X231.14Y-73.66
X231.14Y-76.2
X231.14Y-78.74
X231.14Y-81.28
X231.14Y-83.82
X231.14Y-86.36
X231.14Y-88.9
X231.14Y-91.44
X231.14Y-93.98
X231.14Y-96.52
X231.14Y-99.06
X231.14Y-101.6
X231.14Y-104.14
X231.14Y-106.68
X231.14Y-109.22
X231.14Y-111.76
X231.14Y-121.92
X231.14Y-129.54
X233.68Y-121.92
X233.68Y-129.54
X233.76Y-66.04
X236.22Y-121.92
X236.22Y-129.54
X238.76Y-55.88
X238.76Y-66.04
X238.76Y-121.92
X238.76Y-129.54
X241.3Y-121.92
X241.3Y-129.54
X243.84Y-121.92
X243.84Y-129.54
X246.38Y-73.66
X246.38Y-76.2
X246.38Y-78.74
X246.38Y-81.28
X246.38Y-83.82
X246.38Y-86.36
X246.38Y-88.9
X246.38Y-91.44
X246.38Y-93.98
X246.38Y-96.52
X246.38Y-99.06
X246.38Y-101.6
X246.38Y-104.14
X246.38Y-106.68
X246.38Y-109.22
X246.38Y-111.76
X246.38Y-121.92
X246.38Y-129.54
T3
X248.92Y-63.5
X251.46Y-63.5
T4
X60.96Y-144.78
X63.5Y-144.78
X66.04Y-144.78
X68.58Y-144.78
X71.12Y-144.78
X73.66Y-144.78
X76.2Y-144.78
X78.74Y-144.78
X81.28Y-144.78
X83.82Y-144.78
X86.36Y-144.78
X88.9Y-144.78
X91.44Y-144.78
X93.98Y-144.78
X101.6Y-144.78
X104.14Y-144.78
X106.68Y-144.78
X109.22Y-144.78
X111.76Y-144.78
X114.3Y-144.78
X116.84Y-121.92
X116.84Y-124.46
X116.84Y-144.78
X119.38Y-121.92
X119.38Y-124.46
X119.38Y-144.78
X121.92Y-121.92
X121.92Y-124.46
X121.92Y-144.78
X124.46Y-121.92
X124.46Y-124.46
X124.46Y-144.78
X127.0Y-121.92
X127.0Y-124.46
X127.0Y-144.78
X129.54Y-121.92
X129.54Y-124.46
X129.54Y-144.78
X132.08Y-61.468
X132.08Y-121.92
X132.08Y-124.46
X132.08Y-144.78
X134.62Y-121.92
X134.62Y-124.46
X134.62Y-144.78
X137.16Y-121.92
X137.16Y-124.46
X137.16Y-144.78
X139.7Y-121.92
X139.7Y-124.46
X139.7Y-144.78
X142.24Y-121.92
X142.24Y-124.46
X143.51Y-61.468
X144.78Y-121.92
X144.78Y-124.46
X147.32Y-121.92
X147.32Y-124.46
X149.86Y-121.92
X149.86Y-124.46
X152.4Y-121.92
X152.4Y-124.46
X154.94Y-121.92
X154.94Y-124.46
X155.448Y-61.468
X165.1Y-144.78
X167.64Y-144.78
X168.656Y-61.468
X170.18Y-144.78
X172.72Y-144.78
X175.26Y-144.78
X177.8Y-144.78
X180.34Y-144.78
X182.372Y-61.468
X182.88Y-144.78
X185.42Y-144.78
X187.96Y-144.78
X190.5Y-144.78
X193.04Y-144.78
X195.326Y-61.468
X195.58Y-144.78
X198.12Y-144.78
X200.66Y-144.78
X203.2Y-144.78
X205.74Y-144.78
X208.28Y-144.78
X210.82Y-144.78
X213.36Y-144.78
X215.9Y-144.78
X218.44Y-144.78
X220.98Y-144.78
X223.52Y-144.78
X226.06Y-144.78
X228.6Y-144.78
X231.14Y-144.78
X233.68Y-144.78
X236.22Y-144.78
X238.76Y-144.78
X241.3Y-144.78
X243.84Y-144.78
T0
M30
