M48
; DRILL file {KiCad (5.1.5)-3} date 2022-12-08 9:26:15 PM
; FORMAT={-:-/ absolute / metric / decimal}
; #@! TF.CreationDate,2022-12-08T21:26:15-08:00
; #@! TF.GenerationSoftware,Kicad,Pcbnew,(5.1.5)-3
; #@! TF.FileFunction,Plated,1,2,PTH
FMAT,2
METRIC
T1C0.400
T2C0.800
T3C0.900
T4C1.000
%
G90
G05
T1
X53.594Y-73.914
X57.912Y-67.056
X63.5Y-98.044
X63.5Y-99.568
X66.04Y-98.044
X66.04Y-100.33
X72.39Y-97.282
X72.39Y-101.092
X73.66Y-98.806
X73.66Y-101.092
X74.93Y-97.282
X74.93Y-101.092
X76.2Y-99.568
X76.2Y-101.092
X77.47Y-97.282
X77.47Y-101.092
X78.232Y-134.62
X79.502Y-134.62
X80.01Y-97.282
X80.01Y-101.092
X81.28Y-98.044
X81.28Y-101.092
X81.28Y-143.002
X83.82Y-86.106
X83.82Y-106.426
X83.82Y-139.954
X85.09Y-86.106
X87.376Y-100.33
X89.408Y-100.33
X89.789Y-82.423
X90.424Y-104.902
X90.424Y-106.426
X90.678Y-81.534
X90.932Y-140.716
X91.186Y-141.732
X91.44Y-86.106
X91.44Y-87.376
X92.456Y-141.732
X93.726Y-93.218
X94.996Y-93.218
X96.012Y-99.568
X96.012Y-120.904
X96.52Y-92.202
X96.774Y-98.806
X96.774Y-100.33
X96.774Y-120.142
X97.536Y-94.234
X98.298Y-94.996
X99.06Y-95.758
X100.584Y-94.234
X100.584Y-95.758
X101.346Y-94.996
X102.108Y-98.806
X102.87Y-99.568
X103.632Y-93.218
X103.632Y-100.33
X103.886Y-120.142
X104.902Y-93.218
X104.902Y-120.904
X105.664Y-92.202
X110.49Y-84.328
X110.49Y-98.044
X112.522Y-140.716
X112.522Y-141.732
X113.03Y-84.328
X113.03Y-97.282
X114.046Y-141.732
X116.84Y-76.2
X119.38Y-140.716
X119.634Y-93.218
X120.904Y-76.962
X120.904Y-78.486
X120.904Y-85.09
X120.904Y-86.614
X120.904Y-94.234
X120.904Y-95.758
X120.904Y-97.282
X120.904Y-98.806
X120.904Y-93.218
X121.666Y-76.2
X121.666Y-77.724
X121.666Y-79.248
X121.666Y-85.852
X121.666Y-87.376
X121.666Y-92.202
X121.666Y-94.996
X121.666Y-96.52
X121.666Y-98.044
X121.666Y-99.568
X122.428Y-85.09
X123.19Y-85.852
X123.952Y-86.614
X123.952Y-141.732
X124.714Y-87.376
X125.222Y-141.732
X125.476Y-79.248
X126.238Y-78.486
X127.0Y-77.724
X127.0Y-120.142
X127.0Y-121.666
X127.762Y-76.962
X128.524Y-87.376
X129.286Y-86.36
X130.048Y-85.344
X130.81Y-84.328
X131.572Y-78.232
X132.334Y-78.994
X134.62Y-77.47
X134.62Y-78.994
X134.62Y-93.218
X134.62Y-94.996
X134.62Y-96.52
X134.62Y-98.044
X134.62Y-99.568
X135.382Y-78.232
X135.382Y-94.234
X135.382Y-95.758
X135.382Y-97.282
X135.382Y-98.806
X136.144Y-86.36
X136.144Y-85.344
X136.144Y-84.328
X136.144Y-87.376
X136.144Y-93.218
X136.906Y-106.426
X136.906Y-122.428
X137.922Y-107.188
X137.922Y-121.666
X138.684Y-92.202
X138.938Y-106.426
X138.938Y-122.428
X139.954Y-121.666
X139.954Y-107.188
X140.97Y-106.426
X140.97Y-122.428
X141.986Y-107.188
X141.986Y-121.666
X143.002Y-106.426
X143.002Y-122.428
X144.018Y-107.188
X144.018Y-121.666
X145.034Y-92.202
X145.796Y-78.994
X146.05Y-72.39
X146.05Y-93.218
X146.558Y-141.732
X146.812Y-75.946
X146.812Y-78.232
X147.066Y-94.234
X147.066Y-95.758
X147.066Y-97.282
X147.066Y-98.806
X147.574Y-93.218
X147.828Y-94.996
X147.828Y-96.52
X147.828Y-98.044
X147.828Y-99.568
X147.828Y-141.732
X148.59Y-100.33
X148.844Y-73.914
X149.352Y-101.092
X149.606Y-75.946
X149.606Y-78.994
X150.114Y-101.854
X150.368Y-78.232
X151.638Y-94.234
X151.638Y-95.758
X151.638Y-97.282
X151.638Y-98.806
X151.638Y-100.33
X151.638Y-101.854
X152.4Y-93.218
X152.4Y-94.996
X152.4Y-96.52
X152.4Y-98.044
X152.4Y-99.568
X152.4Y-101.092
X153.162Y-106.426
X153.67Y-93.218
X156.972Y-139.7
X160.02Y-121.666
X160.02Y-112.522
X161.29Y-113.284
X161.29Y-121.666
X161.544Y-107.95
X162.56Y-131.572
X163.83Y-111.76
X163.83Y-121.666
X164.846Y-92.202
X164.846Y-105.664
X165.1Y-121.666
X165.862Y-91.44
X165.862Y-104.902
X166.37Y-110.998
X166.37Y-121.666
X166.878Y-92.202
X166.878Y-104.14
X167.64Y-108.712
X167.64Y-121.666
X167.894Y-91.44
X167.894Y-103.378
X168.91Y-110.236
X168.91Y-121.666
X169.672Y-131.572
X170.18Y-109.474
X170.18Y-121.666
X173.736Y-76.454
X176.53Y-93.218
X177.038Y-139.7
X177.8Y-93.218
X178.308Y-130.81
X178.308Y-132.08
X178.308Y-135.636
X178.308Y-136.906
X179.578Y-139.7
X185.166Y-133.858
X185.42Y-118.618
X185.42Y-121.666
X185.928Y-133.096
X185.928Y-134.62
X186.436Y-120.142
X187.198Y-120.904
X187.96Y-132.334
X190.5Y-114.046
X190.5Y-117.856
X193.04Y-114.808
X193.04Y-117.094
X195.072Y-132.334
X195.072Y-133.858
X195.834Y-133.096
X195.834Y-134.62
X197.104Y-120.904
X197.358Y-117.856
X199.136Y-93.218
X200.406Y-93.218
X201.168Y-132.334
X201.93Y-133.096
X202.692Y-133.858
X205.486Y-134.366
X205.486Y-135.636
X205.486Y-140.462
X205.486Y-141.732
X209.042Y-133.096
X209.804Y-132.334
X212.09Y-83.82
X213.868Y-133.858
X215.9Y-83.82
X229.108Y-135.128
X229.108Y-139.7
X233.426Y-135.128
X238.506Y-85.344
X243.84Y-131.572
X246.38Y-131.572
T2
X170.18Y-81.28
X170.18Y-86.28
X157.48Y-124.46
X162.48Y-124.46
X68.58Y-104.14
X68.58Y-111.76
X71.12Y-104.14
X71.12Y-111.76
X73.66Y-104.14
X73.66Y-111.76
X76.2Y-104.14
X76.2Y-111.76
X78.74Y-104.14
X78.74Y-111.76
X81.28Y-104.14
X81.28Y-111.76
X83.82Y-104.14
X83.82Y-111.76
X86.36Y-104.14
X86.36Y-111.76
X177.8Y-81.28
X177.8Y-88.9
X180.34Y-81.28
X180.34Y-88.9
X182.88Y-81.28
X182.88Y-88.9
X185.42Y-81.28
X185.42Y-88.9
X187.96Y-81.28
X187.96Y-88.9
X190.5Y-81.28
X190.5Y-88.9
X193.04Y-81.28
X193.04Y-88.9
X195.58Y-81.28
X195.58Y-88.9
X198.12Y-81.28
X198.12Y-88.9
X200.66Y-81.28
X200.66Y-88.9
X207.01Y-95.25
X207.01Y-97.75
X78.74Y-132.08
X78.74Y-137.08
X203.28Y-124.46
X208.28Y-124.46
X58.42Y-81.28
X58.42Y-88.9
X60.96Y-81.28
X60.96Y-88.9
X63.5Y-81.28
X63.5Y-88.9
X66.04Y-81.28
X66.04Y-88.9
X68.58Y-81.28
X68.58Y-88.9
X71.12Y-81.28
X71.12Y-88.9
X73.66Y-81.28
X73.66Y-88.9
X76.2Y-81.28
X76.2Y-88.9
X78.74Y-81.28
X78.74Y-88.9
X81.28Y-81.28
X81.28Y-88.9
X177.8Y-76.2
X180.34Y-76.2
X182.88Y-76.2
X185.42Y-76.2
X187.96Y-76.2
X190.5Y-76.2
X193.04Y-76.2
X195.58Y-76.2
X198.12Y-76.2
X207.01Y-81.28
X207.01Y-86.28
X220.98Y-76.2
X223.52Y-76.2
X226.06Y-76.2
X228.6Y-76.2
X231.14Y-76.2
X233.68Y-76.2
X236.22Y-76.2
X238.76Y-76.2
X241.3Y-76.2
X228.6Y-121.96
X228.6Y-124.46
X233.68Y-129.54
X233.68Y-137.16
X236.22Y-129.54
X236.22Y-137.16
X238.76Y-129.54
X238.76Y-137.16
X241.3Y-129.54
X241.3Y-137.16
X243.84Y-129.54
X243.84Y-137.16
X246.38Y-129.54
X246.38Y-137.16
X248.92Y-129.54
X248.92Y-137.16
X139.7Y-76.2
X144.7Y-76.2
X60.96Y-104.14
X60.96Y-109.14
X124.46Y-129.54
X124.46Y-137.16
X127.0Y-129.54
X127.0Y-137.16
X129.54Y-129.54
X129.54Y-137.16
X132.08Y-129.54
X132.08Y-137.16
X134.62Y-129.54
X134.62Y-137.16
X137.16Y-129.54
X137.16Y-137.16
X139.7Y-129.54
X139.7Y-137.16
X142.24Y-129.54
X142.24Y-137.16
X144.78Y-129.54
X144.78Y-137.16
X147.32Y-129.54
X147.32Y-137.16
X208.28Y-129.54
X208.28Y-137.16
X210.82Y-129.54
X210.82Y-137.16
X213.36Y-129.54
X213.36Y-137.16
X215.9Y-129.54
X215.9Y-137.16
X218.44Y-129.54
X218.44Y-137.16
X220.98Y-129.54
X220.98Y-137.16
X223.52Y-129.54
X223.52Y-137.16
X116.84Y-129.54
X116.84Y-134.54
X93.98Y-76.2
X98.98Y-76.2
X233.68Y-124.46
X238.68Y-124.46
X71.12Y-134.66
X71.12Y-137.16
X93.98Y-81.28
X93.98Y-88.9
X96.52Y-81.28
X96.52Y-88.9
X99.06Y-81.28
X99.06Y-88.9
X101.6Y-81.28
X101.6Y-88.9
X104.14Y-81.28
X104.14Y-88.9
X106.68Y-81.28
X106.68Y-88.9
X109.22Y-81.28
X109.22Y-88.9
X111.76Y-81.28
X111.76Y-88.9
X114.3Y-81.28
X114.3Y-88.9
X116.84Y-81.28
X116.84Y-88.9
X139.7Y-81.28
X139.7Y-88.9
X142.24Y-81.28
X142.24Y-88.9
X144.78Y-81.28
X144.78Y-88.9
X147.32Y-81.28
X147.32Y-88.9
X149.86Y-81.28
X149.86Y-88.9
X152.4Y-81.28
X152.4Y-88.9
X154.94Y-81.28
X154.94Y-88.9
X157.48Y-81.28
X157.48Y-88.9
X160.02Y-81.28
X160.02Y-88.9
X162.56Y-81.28
X162.56Y-88.9
X58.42Y-93.98
X63.42Y-93.98
X60.96Y-76.2
X63.5Y-76.2
X66.04Y-76.2
X68.58Y-76.2
X71.12Y-76.2
X73.66Y-76.2
X76.2Y-76.2
X78.74Y-76.2
X81.28Y-76.2
X157.48Y-129.54
X157.48Y-137.16
X160.02Y-129.54
X160.02Y-137.16
X162.56Y-129.54
X162.56Y-137.16
X165.1Y-129.54
X165.1Y-137.16
X167.64Y-129.54
X167.64Y-137.16
X170.18Y-129.54
X170.18Y-137.16
X172.72Y-129.54
X172.72Y-137.16
X238.76Y-102.87
X248.92Y-102.87
X86.36Y-129.54
X86.36Y-137.16
X88.9Y-129.54
X88.9Y-137.16
X91.44Y-129.54
X91.44Y-137.16
X93.98Y-129.54
X93.98Y-137.16
X96.52Y-129.54
X96.52Y-137.16
X99.06Y-129.54
X99.06Y-137.16
X101.6Y-129.54
X101.6Y-137.16
X104.14Y-129.54
X104.14Y-137.16
X106.68Y-129.54
X106.68Y-137.16
X109.22Y-129.54
X109.22Y-137.16
X182.88Y-124.46
X187.88Y-124.46
X213.36Y-81.28
X213.36Y-88.9
X215.9Y-81.28
X215.9Y-88.9
X218.44Y-81.28
X218.44Y-88.9
X220.98Y-81.28
X220.98Y-88.9
X223.52Y-81.28
X223.52Y-88.9
X226.06Y-81.28
X226.06Y-88.9
X228.6Y-81.28
X228.6Y-88.9
X231.14Y-81.28
X231.14Y-88.9
X233.68Y-81.28
X233.68Y-88.9
X236.22Y-81.28
X236.22Y-88.9
X182.88Y-129.54
X182.88Y-137.16
X185.42Y-129.54
X185.42Y-137.16
X187.96Y-129.54
X187.96Y-137.16
X190.5Y-129.54
X190.5Y-137.16
X193.04Y-129.54
X193.04Y-137.16
X195.58Y-129.54
X195.58Y-137.16
X198.12Y-129.54
X198.12Y-137.16
X111.76Y-124.46
X121.92Y-124.46
T3
X236.22Y-68.58
X238.76Y-68.58
X53.34Y-68.58
X55.88Y-68.58
X72.39Y-68.58
X74.93Y-68.58
X242.57Y-68.58
X245.11Y-68.58
X248.92Y-68.58
X251.46Y-68.58
X229.87Y-68.58
X232.41Y-68.58
X210.82Y-68.58
X213.36Y-68.58
X160.02Y-68.58
X162.56Y-68.58
X217.17Y-68.58
X219.71Y-68.58
X179.07Y-68.58
X181.61Y-68.58
X223.52Y-68.58
X226.06Y-68.58
X185.42Y-68.58
X187.96Y-68.58
X204.47Y-68.58
X207.01Y-68.58
X172.72Y-68.58
X175.26Y-68.58
X198.12Y-68.58
X200.66Y-68.58
X91.44Y-68.58
X93.98Y-68.58
X85.09Y-68.58
X87.63Y-68.58
X191.77Y-68.58
X194.31Y-68.58
X97.79Y-68.58
X100.33Y-68.58
X59.69Y-68.58
X62.23Y-68.58
X66.04Y-68.58
X68.58Y-68.58
X78.74Y-68.58
X81.28Y-68.58
X166.37Y-68.58
X168.91Y-68.58
X153.67Y-68.58
X156.21Y-68.58
T4
X105.41Y-66.04
X107.95Y-66.04
X110.49Y-66.04
X113.03Y-66.04
X115.57Y-66.04
X118.11Y-66.04
X120.65Y-66.04
X123.19Y-66.04
X125.73Y-66.04
X128.27Y-66.04
X130.81Y-66.04
X133.35Y-66.04
X135.89Y-66.04
X138.43Y-66.04
X140.97Y-66.04
X143.51Y-66.04
X146.05Y-66.04
X148.59Y-66.04
X60.96Y-121.92
X60.96Y-124.46
X60.96Y-127.0
X60.96Y-129.54
X99.06Y-149.86
X101.6Y-149.86
X104.14Y-149.86
X106.68Y-149.86
X109.22Y-149.86
X111.76Y-149.86
X114.3Y-149.86
X116.84Y-149.86
X119.38Y-149.86
X121.92Y-149.86
X124.46Y-149.86
X127.0Y-149.86
X129.54Y-149.86
X132.08Y-149.86
X134.62Y-149.86
X137.16Y-149.86
X241.3Y-83.82
X241.3Y-86.36
X241.3Y-88.9
X63.5Y-149.86
X66.04Y-149.86
X68.58Y-149.86
X71.12Y-149.86
X73.66Y-149.86
X76.2Y-149.86
X78.74Y-149.86
X81.28Y-149.86
X83.82Y-149.86
X86.36Y-149.86
X162.56Y-149.86
X165.1Y-149.86
X167.64Y-149.86
X170.18Y-149.86
X172.72Y-149.86
X175.26Y-149.86
X177.8Y-149.86
X180.34Y-149.86
X182.88Y-149.86
X185.42Y-149.86
X187.96Y-149.86
X190.5Y-149.86
X193.04Y-149.86
X195.58Y-149.86
X198.12Y-149.86
X200.66Y-149.86
X203.2Y-149.86
X205.74Y-149.86
X208.28Y-149.86
X210.82Y-149.86
X213.36Y-149.86
X215.9Y-149.86
X218.44Y-149.86
X220.98Y-149.86
X223.52Y-149.86
X226.06Y-149.86
X228.6Y-149.86
X231.14Y-149.86
X233.68Y-149.86
X236.22Y-149.86
X238.76Y-149.86
X241.3Y-149.86
T0
M30
