G04 #@! TF.GenerationSoftware,KiCad,Pcbnew,(5.1.5)-3*
G04 #@! TF.CreationDate,2022-12-08T21:25:45-08:00*
G04 #@! TF.ProjectId,alu_res_flags,616c755f-7265-4735-9f66-6c6167732e6b,rev?*
G04 #@! TF.SameCoordinates,Original*
G04 #@! TF.FileFunction,Legend,Bot*
G04 #@! TF.FilePolarity,Positive*
%FSLAX46Y46*%
G04 Gerber Fmt 4.6, Leading zero omitted, Abs format (unit mm)*
G04 Created by KiCad (PCBNEW (5.1.5)-3) date 2022-12-08 21:25:45*
%MOMM*%
%LPD*%
G04 APERTURE LIST*
%ADD10O,1.702000X1.702000*%
%ADD11C,1.702000*%
%ADD12O,1.802000X1.802000*%
%ADD13R,1.802000X1.802000*%
%ADD14C,1.902000*%
%ADD15R,1.902000X1.902000*%
%ADD16R,1.702000X1.702000*%
G04 APERTURE END LIST*
%LPC*%
D10*
X121920000Y-124460000D03*
D11*
X111760000Y-124460000D03*
D12*
X241300000Y-88900000D03*
X241300000Y-86360000D03*
D13*
X241300000Y-83820000D03*
D10*
X248920000Y-102870000D03*
D11*
X238760000Y-102870000D03*
D13*
X241300000Y-149860000D03*
D12*
X238760000Y-149860000D03*
X236220000Y-149860000D03*
X233680000Y-149860000D03*
X231140000Y-149860000D03*
X228600000Y-149860000D03*
X226060000Y-149860000D03*
X223520000Y-149860000D03*
X220980000Y-149860000D03*
X218440000Y-149860000D03*
X215900000Y-149860000D03*
X213360000Y-149860000D03*
X210820000Y-149860000D03*
X208280000Y-149860000D03*
X205740000Y-149860000D03*
X203200000Y-149860000D03*
X200660000Y-149860000D03*
X198120000Y-149860000D03*
X195580000Y-149860000D03*
X193040000Y-149860000D03*
X190500000Y-149860000D03*
X187960000Y-149860000D03*
X185420000Y-149860000D03*
X182880000Y-149860000D03*
X180340000Y-149860000D03*
X177800000Y-149860000D03*
X175260000Y-149860000D03*
X172720000Y-149860000D03*
X170180000Y-149860000D03*
X167640000Y-149860000D03*
X165100000Y-149860000D03*
X162560000Y-149860000D03*
D13*
X137160000Y-149860000D03*
D12*
X134620000Y-149860000D03*
X132080000Y-149860000D03*
X129540000Y-149860000D03*
X127000000Y-149860000D03*
X124460000Y-149860000D03*
X121920000Y-149860000D03*
X119380000Y-149860000D03*
X116840000Y-149860000D03*
X114300000Y-149860000D03*
X111760000Y-149860000D03*
X109220000Y-149860000D03*
X106680000Y-149860000D03*
X104140000Y-149860000D03*
X101600000Y-149860000D03*
X99060000Y-149860000D03*
D13*
X86360000Y-149860000D03*
D12*
X83820000Y-149860000D03*
X81280000Y-149860000D03*
X78740000Y-149860000D03*
X76200000Y-149860000D03*
X73660000Y-149860000D03*
X71120000Y-149860000D03*
X68580000Y-149860000D03*
X66040000Y-149860000D03*
X63500000Y-149860000D03*
D14*
X72390000Y-68580000D03*
D15*
X74930000Y-68580000D03*
D14*
X66040000Y-68580000D03*
D15*
X68580000Y-68580000D03*
D14*
X59690000Y-68580000D03*
D15*
X62230000Y-68580000D03*
D14*
X53340000Y-68580000D03*
D15*
X55880000Y-68580000D03*
D14*
X97790000Y-68580000D03*
D15*
X100330000Y-68580000D03*
D14*
X91440000Y-68580000D03*
D15*
X93980000Y-68580000D03*
D14*
X85090000Y-68580000D03*
D15*
X87630000Y-68580000D03*
D14*
X78740000Y-68580000D03*
D15*
X81280000Y-68580000D03*
D14*
X153670000Y-68580000D03*
D15*
X156210000Y-68580000D03*
D14*
X160020000Y-68580000D03*
D15*
X162560000Y-68580000D03*
D14*
X166370000Y-68580000D03*
D15*
X168910000Y-68580000D03*
D14*
X172720000Y-68580000D03*
D15*
X175260000Y-68580000D03*
D14*
X179070000Y-68580000D03*
D15*
X181610000Y-68580000D03*
D14*
X185420000Y-68580000D03*
D15*
X187960000Y-68580000D03*
D14*
X191770000Y-68580000D03*
D15*
X194310000Y-68580000D03*
D14*
X198120000Y-68580000D03*
D15*
X200660000Y-68580000D03*
D14*
X204470000Y-68580000D03*
D15*
X207010000Y-68580000D03*
D14*
X210820000Y-68580000D03*
D15*
X213360000Y-68580000D03*
D14*
X217170000Y-68580000D03*
D15*
X219710000Y-68580000D03*
D14*
X223520000Y-68580000D03*
D15*
X226060000Y-68580000D03*
D14*
X229870000Y-68580000D03*
D15*
X232410000Y-68580000D03*
D14*
X236220000Y-68580000D03*
D15*
X238760000Y-68580000D03*
D14*
X242570000Y-68580000D03*
D15*
X245110000Y-68580000D03*
D14*
X248920000Y-68580000D03*
D15*
X251460000Y-68580000D03*
D11*
X228600000Y-121960000D03*
D16*
X228600000Y-124460000D03*
D11*
X207010000Y-97750000D03*
D16*
X207010000Y-95250000D03*
D11*
X71120000Y-134660000D03*
D16*
X71120000Y-137160000D03*
D12*
X105410000Y-66040000D03*
X107950000Y-66040000D03*
X110490000Y-66040000D03*
X113030000Y-66040000D03*
X115570000Y-66040000D03*
X118110000Y-66040000D03*
X120650000Y-66040000D03*
X123190000Y-66040000D03*
X125730000Y-66040000D03*
X128270000Y-66040000D03*
X130810000Y-66040000D03*
X133350000Y-66040000D03*
X135890000Y-66040000D03*
X138430000Y-66040000D03*
X140970000Y-66040000D03*
X143510000Y-66040000D03*
X146050000Y-66040000D03*
D13*
X148590000Y-66040000D03*
D10*
X208280000Y-129540000D03*
X223520000Y-137160000D03*
X210820000Y-129540000D03*
X220980000Y-137160000D03*
X213360000Y-129540000D03*
X218440000Y-137160000D03*
X215900000Y-129540000D03*
X215900000Y-137160000D03*
X218440000Y-129540000D03*
X213360000Y-137160000D03*
X220980000Y-129540000D03*
X210820000Y-137160000D03*
X223520000Y-129540000D03*
D16*
X208280000Y-137160000D03*
D10*
X58420000Y-81280000D03*
X81280000Y-88900000D03*
X60960000Y-81280000D03*
X78740000Y-88900000D03*
X63500000Y-81280000D03*
X76200000Y-88900000D03*
X66040000Y-81280000D03*
X73660000Y-88900000D03*
X68580000Y-81280000D03*
X71120000Y-88900000D03*
X71120000Y-81280000D03*
X68580000Y-88900000D03*
X73660000Y-81280000D03*
X66040000Y-88900000D03*
X76200000Y-81280000D03*
X63500000Y-88900000D03*
X78740000Y-81280000D03*
X60960000Y-88900000D03*
X81280000Y-81280000D03*
D16*
X58420000Y-88900000D03*
D10*
X68580000Y-104140000D03*
X86360000Y-111760000D03*
X71120000Y-104140000D03*
X83820000Y-111760000D03*
X73660000Y-104140000D03*
X81280000Y-111760000D03*
X76200000Y-104140000D03*
X78740000Y-111760000D03*
X78740000Y-104140000D03*
X76200000Y-111760000D03*
X81280000Y-104140000D03*
X73660000Y-111760000D03*
X83820000Y-104140000D03*
X71120000Y-111760000D03*
X86360000Y-104140000D03*
D16*
X68580000Y-111760000D03*
D10*
X213360000Y-81280000D03*
X236220000Y-88900000D03*
X215900000Y-81280000D03*
X233680000Y-88900000D03*
X218440000Y-81280000D03*
X231140000Y-88900000D03*
X220980000Y-81280000D03*
X228600000Y-88900000D03*
X223520000Y-81280000D03*
X226060000Y-88900000D03*
X226060000Y-81280000D03*
X223520000Y-88900000D03*
X228600000Y-81280000D03*
X220980000Y-88900000D03*
X231140000Y-81280000D03*
X218440000Y-88900000D03*
X233680000Y-81280000D03*
X215900000Y-88900000D03*
X236220000Y-81280000D03*
D16*
X213360000Y-88900000D03*
D10*
X177800000Y-81280000D03*
X200660000Y-88900000D03*
X180340000Y-81280000D03*
X198120000Y-88900000D03*
X182880000Y-81280000D03*
X195580000Y-88900000D03*
X185420000Y-81280000D03*
X193040000Y-88900000D03*
X187960000Y-81280000D03*
X190500000Y-88900000D03*
X190500000Y-81280000D03*
X187960000Y-88900000D03*
X193040000Y-81280000D03*
X185420000Y-88900000D03*
X195580000Y-81280000D03*
X182880000Y-88900000D03*
X198120000Y-81280000D03*
X180340000Y-88900000D03*
X200660000Y-81280000D03*
D16*
X177800000Y-88900000D03*
D10*
X157480000Y-129540000D03*
X172720000Y-137160000D03*
X160020000Y-129540000D03*
X170180000Y-137160000D03*
X162560000Y-129540000D03*
X167640000Y-137160000D03*
X165100000Y-129540000D03*
X165100000Y-137160000D03*
X167640000Y-129540000D03*
X162560000Y-137160000D03*
X170180000Y-129540000D03*
X160020000Y-137160000D03*
X172720000Y-129540000D03*
D16*
X157480000Y-137160000D03*
D10*
X182880000Y-129540000D03*
X198120000Y-137160000D03*
X185420000Y-129540000D03*
X195580000Y-137160000D03*
X187960000Y-129540000D03*
X193040000Y-137160000D03*
X190500000Y-129540000D03*
X190500000Y-137160000D03*
X193040000Y-129540000D03*
X187960000Y-137160000D03*
X195580000Y-129540000D03*
X185420000Y-137160000D03*
X198120000Y-129540000D03*
D16*
X182880000Y-137160000D03*
D10*
X124460000Y-129540000D03*
X147320000Y-137160000D03*
X127000000Y-129540000D03*
X144780000Y-137160000D03*
X129540000Y-129540000D03*
X142240000Y-137160000D03*
X132080000Y-129540000D03*
X139700000Y-137160000D03*
X134620000Y-129540000D03*
X137160000Y-137160000D03*
X137160000Y-129540000D03*
X134620000Y-137160000D03*
X139700000Y-129540000D03*
X132080000Y-137160000D03*
X142240000Y-129540000D03*
X129540000Y-137160000D03*
X144780000Y-129540000D03*
X127000000Y-137160000D03*
X147320000Y-129540000D03*
D16*
X124460000Y-137160000D03*
D10*
X86360000Y-129540000D03*
X109220000Y-137160000D03*
X88900000Y-129540000D03*
X106680000Y-137160000D03*
X91440000Y-129540000D03*
X104140000Y-137160000D03*
X93980000Y-129540000D03*
X101600000Y-137160000D03*
X96520000Y-129540000D03*
X99060000Y-137160000D03*
X99060000Y-129540000D03*
X96520000Y-137160000D03*
X101600000Y-129540000D03*
X93980000Y-137160000D03*
X104140000Y-129540000D03*
X91440000Y-137160000D03*
X106680000Y-129540000D03*
X88900000Y-137160000D03*
X109220000Y-129540000D03*
D16*
X86360000Y-137160000D03*
D10*
X93980000Y-81280000D03*
X116840000Y-88900000D03*
X96520000Y-81280000D03*
X114300000Y-88900000D03*
X99060000Y-81280000D03*
X111760000Y-88900000D03*
X101600000Y-81280000D03*
X109220000Y-88900000D03*
X104140000Y-81280000D03*
X106680000Y-88900000D03*
X106680000Y-81280000D03*
X104140000Y-88900000D03*
X109220000Y-81280000D03*
X101600000Y-88900000D03*
X111760000Y-81280000D03*
X99060000Y-88900000D03*
X114300000Y-81280000D03*
X96520000Y-88900000D03*
X116840000Y-81280000D03*
D16*
X93980000Y-88900000D03*
D10*
X139700000Y-81280000D03*
X162560000Y-88900000D03*
X142240000Y-81280000D03*
X160020000Y-88900000D03*
X144780000Y-81280000D03*
X157480000Y-88900000D03*
X147320000Y-81280000D03*
X154940000Y-88900000D03*
X149860000Y-81280000D03*
X152400000Y-88900000D03*
X152400000Y-81280000D03*
X149860000Y-88900000D03*
X154940000Y-81280000D03*
X147320000Y-88900000D03*
X157480000Y-81280000D03*
X144780000Y-88900000D03*
X160020000Y-81280000D03*
X142240000Y-88900000D03*
X162560000Y-81280000D03*
D16*
X139700000Y-88900000D03*
D10*
X233680000Y-129540000D03*
X248920000Y-137160000D03*
X236220000Y-129540000D03*
X246380000Y-137160000D03*
X238760000Y-129540000D03*
X243840000Y-137160000D03*
X241300000Y-129540000D03*
X241300000Y-137160000D03*
X243840000Y-129540000D03*
X238760000Y-137160000D03*
X246380000Y-129540000D03*
X236220000Y-137160000D03*
X248920000Y-129540000D03*
D16*
X233680000Y-137160000D03*
D10*
X81280000Y-76200000D03*
X78740000Y-76200000D03*
X76200000Y-76200000D03*
X73660000Y-76200000D03*
X71120000Y-76200000D03*
X68580000Y-76200000D03*
X66040000Y-76200000D03*
X63500000Y-76200000D03*
D16*
X60960000Y-76200000D03*
D10*
X241300000Y-76200000D03*
X238760000Y-76200000D03*
X236220000Y-76200000D03*
X233680000Y-76200000D03*
X231140000Y-76200000D03*
X228600000Y-76200000D03*
X226060000Y-76200000D03*
X223520000Y-76200000D03*
D16*
X220980000Y-76200000D03*
D10*
X198120000Y-76200000D03*
X195580000Y-76200000D03*
X193040000Y-76200000D03*
X190500000Y-76200000D03*
X187960000Y-76200000D03*
X185420000Y-76200000D03*
X182880000Y-76200000D03*
X180340000Y-76200000D03*
D16*
X177800000Y-76200000D03*
D12*
X60960000Y-129540000D03*
X60960000Y-127000000D03*
X60960000Y-124460000D03*
D13*
X60960000Y-121920000D03*
D11*
X203280000Y-124460000D03*
X208280000Y-124460000D03*
X162480000Y-124460000D03*
X157480000Y-124460000D03*
X187880000Y-124460000D03*
X182880000Y-124460000D03*
X238680000Y-124460000D03*
X233680000Y-124460000D03*
X63420000Y-93980000D03*
X58420000Y-93980000D03*
X60960000Y-109140000D03*
X60960000Y-104140000D03*
X207010000Y-86280000D03*
X207010000Y-81280000D03*
X170180000Y-86280000D03*
X170180000Y-81280000D03*
X116840000Y-134540000D03*
X116840000Y-129540000D03*
X78740000Y-137080000D03*
X78740000Y-132080000D03*
X98980000Y-76200000D03*
X93980000Y-76200000D03*
X144700000Y-76200000D03*
X139700000Y-76200000D03*
M02*
