%FSLAX45Y45*%
G04 Gerber Fmt 4.5, Leading zero omitted, Abs format (unit mm)*
G04 Created by KiCad (PCBNEW (5.1.5)-3) date 2022-12-08 21:26:32*
%MOMM*%
%LPD*%
G04 APERTURE LIST*
%TA.AperFunction,Profile*%
%ADD10C,0.050000*%
%TD*%
%ADD11C,0.200000*%
%ADD12C,0.300000*%
G04 APERTURE END LIST*
D10*
X5270500Y-15367000D02*
G75*
G02X5080000Y-15176500I0J190500D01*
G01*
X5080000Y-5778500D02*
G75*
G02X5270500Y-5588000I190500J0D01*
G01*
X25209500Y-5588000D02*
G75*
G02X25400000Y-5778500I0J-190500D01*
G01*
X25400000Y-15176500D02*
G75*
G02X25209500Y-15367000I-190500J0D01*
G01*
X25400000Y-5778500D02*
X25400000Y-15176500D01*
X5270500Y-5588000D02*
X25209500Y-5588000D01*
X5080000Y-15176500D02*
X5080000Y-5778500D01*
X25209500Y-15367000D02*
X5270500Y-15367000D01*
D11*
D12*
X5363928Y-15835214D02*
X5363928Y-15535214D01*
X5435357Y-15535214D01*
X5478214Y-15549500D01*
X5506786Y-15578071D01*
X5521071Y-15606643D01*
X5535357Y-15663786D01*
X5535357Y-15706643D01*
X5521071Y-15763786D01*
X5506786Y-15792357D01*
X5478214Y-15820929D01*
X5435357Y-15835214D01*
X5363928Y-15835214D01*
X5663928Y-15835214D02*
X5663928Y-15635214D01*
X5663928Y-15692357D02*
X5678214Y-15663786D01*
X5692500Y-15649500D01*
X5721071Y-15635214D01*
X5749643Y-15635214D01*
X5849643Y-15835214D02*
X5849643Y-15635214D01*
X5849643Y-15535214D02*
X5835357Y-15549500D01*
X5849643Y-15563786D01*
X5863928Y-15549500D01*
X5849643Y-15535214D01*
X5849643Y-15563786D01*
X6035357Y-15835214D02*
X6006786Y-15820929D01*
X5992500Y-15792357D01*
X5992500Y-15535214D01*
X6192500Y-15835214D02*
X6163928Y-15820929D01*
X6149643Y-15792357D01*
X6149643Y-15535214D01*
X6535357Y-15835214D02*
X6535357Y-15535214D01*
X6635357Y-15749500D01*
X6735357Y-15535214D01*
X6735357Y-15835214D01*
X7006786Y-15835214D02*
X7006786Y-15678071D01*
X6992500Y-15649500D01*
X6963928Y-15635214D01*
X6906786Y-15635214D01*
X6878214Y-15649500D01*
X7006786Y-15820929D02*
X6978214Y-15835214D01*
X6906786Y-15835214D01*
X6878214Y-15820929D01*
X6863928Y-15792357D01*
X6863928Y-15763786D01*
X6878214Y-15735214D01*
X6906786Y-15720929D01*
X6978214Y-15720929D01*
X7006786Y-15706643D01*
X7149643Y-15635214D02*
X7149643Y-15935214D01*
X7149643Y-15649500D02*
X7178214Y-15635214D01*
X7235357Y-15635214D01*
X7263928Y-15649500D01*
X7278214Y-15663786D01*
X7292500Y-15692357D01*
X7292500Y-15778071D01*
X7278214Y-15806643D01*
X7263928Y-15820929D01*
X7235357Y-15835214D01*
X7178214Y-15835214D01*
X7149643Y-15820929D01*
X7421071Y-15806643D02*
X7435357Y-15820929D01*
X7421071Y-15835214D01*
X7406786Y-15820929D01*
X7421071Y-15806643D01*
X7421071Y-15835214D01*
X7421071Y-15649500D02*
X7435357Y-15663786D01*
X7421071Y-15678071D01*
X7406786Y-15663786D01*
X7421071Y-15649500D01*
X7421071Y-15678071D01*
M02*
