%FSLAX45Y45*%
G04 Gerber Fmt 4.5, Leading zero omitted, Abs format (unit mm)*
G04 Created by KiCad (PCBNEW (5.1.5)-3) date 2022-12-08 21:26:32*
%MOMM*%
%LPD*%
G04 APERTURE LIST*
%TA.AperFunction,Profile*%
%ADD10C,0.050000*%
%TD*%
%ADD11C,0.200000*%
%ADD12C,0.300000*%
G04 APERTURE END LIST*
D10*
X5270500Y-15367000D02*
G75*
G02X5080000Y-15176500I0J190500D01*
G01*
X5080000Y-5778500D02*
G75*
G02X5270500Y-5588000I190500J0D01*
G01*
X25209500Y-5588000D02*
G75*
G02X25400000Y-5778500I0J-190500D01*
G01*
X25400000Y-15176500D02*
G75*
G02X25209500Y-15367000I-190500J0D01*
G01*
X25400000Y-5778500D02*
X25400000Y-15176500D01*
X5270500Y-5588000D02*
X25209500Y-5588000D01*
X5080000Y-15176500D02*
X5080000Y-5778500D01*
X25209500Y-15367000D02*
X5270500Y-15367000D01*
D11*
X5339400Y-7371400D02*
X5379400Y-7411400D01*
X5379400Y-7371400D02*
X5339400Y-7411400D01*
X5771200Y-6685600D02*
X5811200Y-6725600D01*
X5811200Y-6685600D02*
X5771200Y-6725600D01*
X6330000Y-9784400D02*
X6370000Y-9824400D01*
X6370000Y-9784400D02*
X6330000Y-9824400D01*
X6330000Y-9936800D02*
X6370000Y-9976800D01*
X6370000Y-9936800D02*
X6330000Y-9976800D01*
X6584000Y-9784400D02*
X6624000Y-9824400D01*
X6624000Y-9784400D02*
X6584000Y-9824400D01*
X6584000Y-10013000D02*
X6624000Y-10053000D01*
X6624000Y-10013000D02*
X6584000Y-10053000D01*
X7219000Y-9708200D02*
X7259000Y-9748200D01*
X7259000Y-9708200D02*
X7219000Y-9748200D01*
X7219000Y-10089200D02*
X7259000Y-10129200D01*
X7259000Y-10089200D02*
X7219000Y-10129200D01*
X7345999Y-9860600D02*
X7385999Y-9900600D01*
X7385999Y-9860600D02*
X7345999Y-9900600D01*
X7346000Y-10089200D02*
X7386000Y-10129200D01*
X7386000Y-10089200D02*
X7346000Y-10129200D01*
X7473000Y-9708200D02*
X7513000Y-9748200D01*
X7513000Y-9708200D02*
X7473000Y-9748200D01*
X7473000Y-10089200D02*
X7513000Y-10129200D01*
X7513000Y-10089200D02*
X7473000Y-10129200D01*
X7600000Y-9936800D02*
X7640000Y-9976800D01*
X7640000Y-9936800D02*
X7600000Y-9976800D01*
X7600000Y-10089200D02*
X7640000Y-10129200D01*
X7640000Y-10089200D02*
X7600000Y-10129200D01*
X7727000Y-9708200D02*
X7767000Y-9748200D01*
X7767000Y-9708200D02*
X7727000Y-9748200D01*
X7727000Y-10089200D02*
X7767000Y-10129200D01*
X7767000Y-10089200D02*
X7727000Y-10129200D01*
X7803200Y-13442000D02*
X7843200Y-13482000D01*
X7843200Y-13442000D02*
X7803200Y-13482000D01*
X7930200Y-13442000D02*
X7970200Y-13482000D01*
X7970200Y-13442000D02*
X7930200Y-13482000D01*
X7981000Y-9708200D02*
X8021000Y-9748200D01*
X8021000Y-9708200D02*
X7981000Y-9748200D01*
X7981000Y-10089200D02*
X8021000Y-10129200D01*
X8021000Y-10089200D02*
X7981000Y-10129200D01*
X8108000Y-9784400D02*
X8148000Y-9824400D01*
X8148000Y-9784400D02*
X8108000Y-9824400D01*
X8108000Y-10089200D02*
X8148000Y-10129200D01*
X8148000Y-10089200D02*
X8108000Y-10129200D01*
X8108000Y-14280200D02*
X8148000Y-14320200D01*
X8148000Y-14280200D02*
X8108000Y-14320200D01*
X8362000Y-8590600D02*
X8402000Y-8630600D01*
X8402000Y-8590600D02*
X8362000Y-8630600D01*
X8362000Y-10622600D02*
X8402000Y-10662600D01*
X8402000Y-10622600D02*
X8362000Y-10662600D01*
X8362000Y-13975400D02*
X8402000Y-14015400D01*
X8402000Y-13975400D02*
X8362000Y-14015400D01*
X8489000Y-8590600D02*
X8529000Y-8630600D01*
X8529000Y-8590600D02*
X8489000Y-8630600D01*
X8717600Y-10013000D02*
X8757600Y-10053000D01*
X8757600Y-10013000D02*
X8717600Y-10053000D01*
X8920800Y-10013000D02*
X8960800Y-10053000D01*
X8960800Y-10013000D02*
X8920800Y-10053000D01*
X8958900Y-8222300D02*
X8998900Y-8262300D01*
X8998900Y-8222300D02*
X8958900Y-8262300D01*
X9022400Y-10470200D02*
X9062400Y-10510200D01*
X9062400Y-10470200D02*
X9022400Y-10510200D01*
X9022401Y-10622600D02*
X9062401Y-10662600D01*
X9062401Y-10622600D02*
X9022401Y-10662600D01*
X9047800Y-8133400D02*
X9087800Y-8173400D01*
X9087800Y-8133400D02*
X9047800Y-8173400D01*
X9073200Y-14051600D02*
X9113200Y-14091600D01*
X9113200Y-14051600D02*
X9073200Y-14091600D01*
X9098600Y-14153200D02*
X9138600Y-14193200D01*
X9138600Y-14153200D02*
X9098600Y-14193200D01*
X9124000Y-8590600D02*
X9164000Y-8630600D01*
X9164000Y-8590600D02*
X9124000Y-8630600D01*
X9124000Y-8717600D02*
X9164000Y-8757600D01*
X9164000Y-8717600D02*
X9124000Y-8757600D01*
X9225600Y-14153200D02*
X9265600Y-14193200D01*
X9265600Y-14153200D02*
X9225600Y-14193200D01*
X9352600Y-9301800D02*
X9392600Y-9341800D01*
X9392600Y-9301800D02*
X9352600Y-9341800D01*
X9479600Y-9301800D02*
X9519600Y-9341800D01*
X9519600Y-9301800D02*
X9479600Y-9341800D01*
X9581200Y-9936800D02*
X9621200Y-9976800D01*
X9621200Y-9936800D02*
X9581200Y-9976800D01*
X9581200Y-12070400D02*
X9621200Y-12110400D01*
X9621200Y-12070400D02*
X9581200Y-12110400D01*
X9632000Y-9200200D02*
X9672000Y-9240200D01*
X9672000Y-9200200D02*
X9632000Y-9240200D01*
X9657400Y-9860600D02*
X9697400Y-9900600D01*
X9697400Y-9860600D02*
X9657400Y-9900600D01*
X9657400Y-10013000D02*
X9697400Y-10053000D01*
X9697400Y-10013000D02*
X9657400Y-10053000D01*
X9657400Y-11994200D02*
X9697400Y-12034200D01*
X9697400Y-11994200D02*
X9657400Y-12034200D01*
X9733600Y-9403400D02*
X9773600Y-9443400D01*
X9773600Y-9403400D02*
X9733600Y-9443400D01*
X9809800Y-9479600D02*
X9849800Y-9519600D01*
X9849800Y-9479600D02*
X9809800Y-9519600D01*
X9886000Y-9555800D02*
X9926000Y-9595800D01*
X9926000Y-9555800D02*
X9886000Y-9595800D01*
X10038400Y-9403400D02*
X10078400Y-9443400D01*
X10078400Y-9403400D02*
X10038400Y-9443400D01*
X10038400Y-9555800D02*
X10078400Y-9595800D01*
X10078400Y-9555800D02*
X10038400Y-9595800D01*
X10114600Y-9479600D02*
X10154600Y-9519600D01*
X10154600Y-9479600D02*
X10114600Y-9519600D01*
X10190800Y-9860600D02*
X10230800Y-9900600D01*
X10230800Y-9860600D02*
X10190800Y-9900600D01*
X10267000Y-9936800D02*
X10307000Y-9976800D01*
X10307000Y-9936800D02*
X10267000Y-9976800D01*
X10343200Y-9301800D02*
X10383200Y-9341800D01*
X10383200Y-9301800D02*
X10343200Y-9341800D01*
X10343200Y-10013000D02*
X10383200Y-10053000D01*
X10383200Y-10013000D02*
X10343200Y-10053000D01*
X10368602Y-11994200D02*
X10408602Y-12034200D01*
X10408602Y-11994200D02*
X10368602Y-12034200D01*
X10470200Y-9301800D02*
X10510200Y-9341800D01*
X10510200Y-9301800D02*
X10470200Y-9341800D01*
X10470200Y-12070400D02*
X10510200Y-12110400D01*
X10510200Y-12070400D02*
X10470200Y-12110400D01*
X10546400Y-9200200D02*
X10586400Y-9240200D01*
X10586400Y-9200200D02*
X10546400Y-9240200D01*
X11029000Y-8412800D02*
X11069000Y-8452800D01*
X11069000Y-8412800D02*
X11029000Y-8452800D01*
X11029000Y-9784400D02*
X11069000Y-9824400D01*
X11069000Y-9784400D02*
X11029000Y-9824400D01*
X11232200Y-14051600D02*
X11272200Y-14091600D01*
X11272200Y-14051600D02*
X11232200Y-14091600D01*
X11232200Y-14153200D02*
X11272200Y-14193200D01*
X11272200Y-14153200D02*
X11232200Y-14193200D01*
X11283000Y-8412800D02*
X11323000Y-8452800D01*
X11323000Y-8412800D02*
X11283000Y-8452800D01*
X11283000Y-9708200D02*
X11323000Y-9748200D01*
X11323000Y-9708200D02*
X11283000Y-9748200D01*
X11384600Y-14153200D02*
X11424600Y-14193200D01*
X11424600Y-14153200D02*
X11384600Y-14193200D01*
X11664000Y-7600000D02*
X11704000Y-7640000D01*
X11704000Y-7600000D02*
X11664000Y-7640000D01*
X11918000Y-14051600D02*
X11958000Y-14091600D01*
X11958000Y-14051600D02*
X11918000Y-14091600D01*
X11943400Y-9301800D02*
X11983400Y-9341800D01*
X11983400Y-9301800D02*
X11943400Y-9341800D01*
X12070400Y-7676200D02*
X12110400Y-7716200D01*
X12110400Y-7676200D02*
X12070400Y-7716200D01*
X12070400Y-7828600D02*
X12110400Y-7868600D01*
X12110400Y-7828600D02*
X12070400Y-7868600D01*
X12070400Y-8489000D02*
X12110400Y-8529000D01*
X12110400Y-8489000D02*
X12070400Y-8529000D01*
X12070400Y-8641400D02*
X12110400Y-8681400D01*
X12110400Y-8641400D02*
X12070400Y-8681400D01*
X12070400Y-9403400D02*
X12110400Y-9443400D01*
X12110400Y-9403400D02*
X12070400Y-9443400D01*
X12070400Y-9555800D02*
X12110400Y-9595800D01*
X12110400Y-9555800D02*
X12070400Y-9595800D01*
X12070400Y-9708200D02*
X12110400Y-9748200D01*
X12110400Y-9708200D02*
X12070400Y-9748200D01*
X12070400Y-9860600D02*
X12110400Y-9900600D01*
X12110400Y-9860600D02*
X12070400Y-9900600D01*
X12070401Y-9301800D02*
X12110401Y-9341800D01*
X12110401Y-9301800D02*
X12070401Y-9341800D01*
X12146600Y-7600000D02*
X12186600Y-7640000D01*
X12186600Y-7600000D02*
X12146600Y-7640000D01*
X12146600Y-7752400D02*
X12186600Y-7792400D01*
X12186600Y-7752400D02*
X12146600Y-7792400D01*
X12146600Y-7904800D02*
X12186600Y-7944800D01*
X12186600Y-7904800D02*
X12146600Y-7944800D01*
X12146600Y-8565200D02*
X12186600Y-8605200D01*
X12186600Y-8565200D02*
X12146600Y-8605200D01*
X12146600Y-8717600D02*
X12186600Y-8757600D01*
X12186600Y-8717600D02*
X12146600Y-8757600D01*
X12146600Y-9200200D02*
X12186600Y-9240200D01*
X12186600Y-9200200D02*
X12146600Y-9240200D01*
X12146600Y-9479600D02*
X12186600Y-9519600D01*
X12186600Y-9479600D02*
X12146600Y-9519600D01*
X12146600Y-9632000D02*
X12186600Y-9672000D01*
X12186600Y-9632000D02*
X12146600Y-9672000D01*
X12146600Y-9784400D02*
X12186600Y-9824400D01*
X12186600Y-9784400D02*
X12146600Y-9824400D01*
X12146600Y-9936800D02*
X12186600Y-9976800D01*
X12186600Y-9936800D02*
X12146600Y-9976800D01*
X12222800Y-8489000D02*
X12262800Y-8529000D01*
X12262800Y-8489000D02*
X12222800Y-8529000D01*
X12299000Y-8565200D02*
X12339000Y-8605200D01*
X12339000Y-8565200D02*
X12299000Y-8605200D01*
X12375200Y-8641400D02*
X12415200Y-8681400D01*
X12415200Y-8641400D02*
X12375200Y-8681400D01*
X12375200Y-14153200D02*
X12415200Y-14193200D01*
X12415200Y-14153200D02*
X12375200Y-14193200D01*
X12451400Y-8717600D02*
X12491400Y-8757600D01*
X12491400Y-8717600D02*
X12451400Y-8757600D01*
X12502200Y-14153200D02*
X12542200Y-14193200D01*
X12542200Y-14153200D02*
X12502200Y-14193200D01*
X12527600Y-7904800D02*
X12567600Y-7944800D01*
X12567600Y-7904800D02*
X12527600Y-7944800D01*
X12603800Y-7828600D02*
X12643800Y-7868600D01*
X12643800Y-7828600D02*
X12603800Y-7868600D01*
X12680000Y-7752400D02*
X12720000Y-7792400D01*
X12720000Y-7752400D02*
X12680000Y-7792400D01*
X12680000Y-11994200D02*
X12720000Y-12034200D01*
X12720000Y-11994200D02*
X12680000Y-12034200D01*
X12680000Y-12146600D02*
X12720000Y-12186600D01*
X12720000Y-12146600D02*
X12680000Y-12186600D01*
X12756200Y-7676200D02*
X12796200Y-7716200D01*
X12796200Y-7676200D02*
X12756200Y-7716200D01*
X12832400Y-8717600D02*
X12872400Y-8757600D01*
X12872400Y-8717600D02*
X12832400Y-8757600D01*
X12908600Y-8616000D02*
X12948600Y-8656000D01*
X12948600Y-8616000D02*
X12908600Y-8656000D01*
X12984800Y-8514402D02*
X13024800Y-8554402D01*
X13024800Y-8514402D02*
X12984800Y-8554402D01*
X13061000Y-8412800D02*
X13101000Y-8452800D01*
X13101000Y-8412800D02*
X13061000Y-8452800D01*
X13137200Y-7803200D02*
X13177200Y-7843200D01*
X13177200Y-7803200D02*
X13137200Y-7843200D01*
X13213400Y-7879400D02*
X13253400Y-7919400D01*
X13253400Y-7879400D02*
X13213400Y-7919400D01*
X13442000Y-7727000D02*
X13482000Y-7767000D01*
X13482000Y-7727000D02*
X13442000Y-7767000D01*
X13442000Y-7879400D02*
X13482000Y-7919400D01*
X13482000Y-7879400D02*
X13442000Y-7919400D01*
X13442000Y-9301800D02*
X13482000Y-9341800D01*
X13482000Y-9301800D02*
X13442000Y-9341800D01*
X13442000Y-9479600D02*
X13482000Y-9519600D01*
X13482000Y-9479600D02*
X13442000Y-9519600D01*
X13442000Y-9632000D02*
X13482000Y-9672000D01*
X13482000Y-9632000D02*
X13442000Y-9672000D01*
X13442000Y-9784400D02*
X13482000Y-9824400D01*
X13482000Y-9784400D02*
X13442000Y-9824400D01*
X13442000Y-9936800D02*
X13482000Y-9976800D01*
X13482000Y-9936800D02*
X13442000Y-9976800D01*
X13518200Y-7803200D02*
X13558200Y-7843200D01*
X13558200Y-7803200D02*
X13518200Y-7843200D01*
X13518200Y-9403400D02*
X13558200Y-9443400D01*
X13558200Y-9403400D02*
X13518200Y-9443400D01*
X13518200Y-9555800D02*
X13558200Y-9595800D01*
X13558200Y-9555800D02*
X13518200Y-9595800D01*
X13518200Y-9708200D02*
X13558200Y-9748200D01*
X13558200Y-9708200D02*
X13518200Y-9748200D01*
X13518200Y-9860600D02*
X13558200Y-9900600D01*
X13558200Y-9860600D02*
X13518200Y-9900600D01*
X13594399Y-8616000D02*
X13634399Y-8656000D01*
X13634399Y-8616000D02*
X13594399Y-8656000D01*
X13594400Y-8514400D02*
X13634400Y-8554400D01*
X13634400Y-8514400D02*
X13594400Y-8554400D01*
X13594400Y-8412800D02*
X13634400Y-8452800D01*
X13634400Y-8412800D02*
X13594400Y-8452800D01*
X13594400Y-8717600D02*
X13634400Y-8757600D01*
X13634400Y-8717600D02*
X13594400Y-8757600D01*
X13594401Y-9301800D02*
X13634401Y-9341800D01*
X13634401Y-9301800D02*
X13594401Y-9341800D01*
X13670600Y-10622600D02*
X13710600Y-10662600D01*
X13710600Y-10622600D02*
X13670600Y-10662600D01*
X13670600Y-12222800D02*
X13710600Y-12262800D01*
X13710600Y-12222800D02*
X13670600Y-12262800D01*
X13772200Y-10698800D02*
X13812200Y-10738800D01*
X13812200Y-10698800D02*
X13772200Y-10738800D01*
X13772200Y-12146600D02*
X13812200Y-12186600D01*
X13812200Y-12146600D02*
X13772200Y-12186600D01*
X13848400Y-9200200D02*
X13888400Y-9240200D01*
X13888400Y-9200200D02*
X13848400Y-9240200D01*
X13873799Y-10622600D02*
X13913799Y-10662600D01*
X13913799Y-10622600D02*
X13873799Y-10662600D01*
X13873801Y-12222800D02*
X13913801Y-12262800D01*
X13913801Y-12222800D02*
X13873801Y-12262800D01*
X13975400Y-12146600D02*
X14015400Y-12186600D01*
X14015400Y-12146600D02*
X13975400Y-12186600D01*
X13975401Y-10698800D02*
X14015401Y-10738800D01*
X14015401Y-10698800D02*
X13975401Y-10738800D01*
X14076999Y-10622600D02*
X14116999Y-10662600D01*
X14116999Y-10622600D02*
X14076999Y-10662600D01*
X14077000Y-12222800D02*
X14117000Y-12262800D01*
X14117000Y-12222800D02*
X14077000Y-12262800D01*
X14178600Y-10698800D02*
X14218600Y-10738800D01*
X14218600Y-10698800D02*
X14178600Y-10738800D01*
X14178600Y-12146600D02*
X14218600Y-12186600D01*
X14218600Y-12146600D02*
X14178600Y-12186600D01*
X14280199Y-10622600D02*
X14320199Y-10662600D01*
X14320199Y-10622600D02*
X14280199Y-10662600D01*
X14280200Y-12222800D02*
X14320200Y-12262800D01*
X14320200Y-12222800D02*
X14280200Y-12262800D01*
X14381800Y-10698800D02*
X14421800Y-10738800D01*
X14421800Y-10698800D02*
X14381800Y-10738800D01*
X14381800Y-12146600D02*
X14421800Y-12186600D01*
X14421800Y-12146600D02*
X14381800Y-12186600D01*
X14483400Y-9200200D02*
X14523400Y-9240200D01*
X14523400Y-9200200D02*
X14483400Y-9240200D01*
X14559596Y-7879400D02*
X14599596Y-7919400D01*
X14599596Y-7879400D02*
X14559596Y-7919400D01*
X14585000Y-7219001D02*
X14625000Y-7259001D01*
X14625000Y-7219001D02*
X14585000Y-7259001D01*
X14585000Y-9301800D02*
X14625000Y-9341800D01*
X14625000Y-9301800D02*
X14585000Y-9341800D01*
X14635800Y-14153200D02*
X14675800Y-14193200D01*
X14675800Y-14153200D02*
X14635800Y-14193200D01*
X14661200Y-7574600D02*
X14701200Y-7614600D01*
X14701200Y-7574600D02*
X14661200Y-7614600D01*
X14661200Y-7803200D02*
X14701200Y-7843200D01*
X14701200Y-7803200D02*
X14661200Y-7843200D01*
X14686600Y-9403400D02*
X14726600Y-9443400D01*
X14726600Y-9403400D02*
X14686600Y-9443400D01*
X14686600Y-9555800D02*
X14726600Y-9595800D01*
X14726600Y-9555800D02*
X14686600Y-9595800D01*
X14686600Y-9708200D02*
X14726600Y-9748200D01*
X14726600Y-9708200D02*
X14686600Y-9748200D01*
X14686600Y-9860600D02*
X14726600Y-9900600D01*
X14726600Y-9860600D02*
X14686600Y-9900600D01*
X14737400Y-9301800D02*
X14777400Y-9341800D01*
X14777400Y-9301800D02*
X14737400Y-9341800D01*
X14762800Y-9479600D02*
X14802800Y-9519600D01*
X14802800Y-9479600D02*
X14762800Y-9519600D01*
X14762800Y-9632000D02*
X14802800Y-9672000D01*
X14802800Y-9632000D02*
X14762800Y-9672000D01*
X14762800Y-9784400D02*
X14802800Y-9824400D01*
X14802800Y-9784400D02*
X14762800Y-9824400D01*
X14762800Y-9936800D02*
X14802800Y-9976800D01*
X14802800Y-9936800D02*
X14762800Y-9976800D01*
X14762800Y-14153200D02*
X14802800Y-14193200D01*
X14802800Y-14153200D02*
X14762800Y-14193200D01*
X14839000Y-10013000D02*
X14879000Y-10053000D01*
X14879000Y-10013000D02*
X14839000Y-10053000D01*
X14864400Y-7371400D02*
X14904400Y-7411400D01*
X14904400Y-7371400D02*
X14864400Y-7411400D01*
X14915200Y-10089200D02*
X14955200Y-10129200D01*
X14955200Y-10089200D02*
X14915200Y-10129200D01*
X14940600Y-7574600D02*
X14980600Y-7614600D01*
X14980600Y-7574600D02*
X14940600Y-7614600D01*
X14940600Y-7879400D02*
X14980600Y-7919400D01*
X14980600Y-7879400D02*
X14940600Y-7919400D01*
X14991400Y-10165400D02*
X15031400Y-10205400D01*
X15031400Y-10165400D02*
X14991400Y-10205400D01*
X15016800Y-7803200D02*
X15056800Y-7843200D01*
X15056800Y-7803200D02*
X15016800Y-7843200D01*
X15143800Y-9403400D02*
X15183800Y-9443400D01*
X15183800Y-9403400D02*
X15143800Y-9443400D01*
X15143800Y-9555800D02*
X15183800Y-9595800D01*
X15183800Y-9555800D02*
X15143800Y-9595800D01*
X15143800Y-9708200D02*
X15183800Y-9748200D01*
X15183800Y-9708200D02*
X15143800Y-9748200D01*
X15143800Y-9860600D02*
X15183800Y-9900600D01*
X15183800Y-9860600D02*
X15143800Y-9900600D01*
X15143800Y-10013000D02*
X15183800Y-10053000D01*
X15183800Y-10013000D02*
X15143800Y-10053000D01*
X15143800Y-10165400D02*
X15183800Y-10205400D01*
X15183800Y-10165400D02*
X15143800Y-10205400D01*
X15220000Y-9301800D02*
X15260000Y-9341800D01*
X15260000Y-9301800D02*
X15220000Y-9341800D01*
X15220000Y-9479600D02*
X15260000Y-9519600D01*
X15260000Y-9479600D02*
X15220000Y-9519600D01*
X15220000Y-9632000D02*
X15260000Y-9672000D01*
X15260000Y-9632000D02*
X15220000Y-9672000D01*
X15220000Y-9784400D02*
X15260000Y-9824400D01*
X15260000Y-9784400D02*
X15220000Y-9824400D01*
X15220000Y-9936800D02*
X15260000Y-9976800D01*
X15260000Y-9936800D02*
X15220000Y-9976800D01*
X15220000Y-10089200D02*
X15260000Y-10129200D01*
X15260000Y-10089200D02*
X15220000Y-10129200D01*
X15296200Y-10622600D02*
X15336200Y-10662600D01*
X15336200Y-10622600D02*
X15296200Y-10662600D01*
X15347000Y-9301800D02*
X15387000Y-9341800D01*
X15387000Y-9301800D02*
X15347000Y-9341800D01*
X15677199Y-13950000D02*
X15717199Y-13990000D01*
X15717199Y-13950000D02*
X15677199Y-13990000D01*
X15981999Y-12146600D02*
X16021999Y-12186600D01*
X16021999Y-12146600D02*
X15981999Y-12186600D01*
X15982000Y-11232200D02*
X16022000Y-11272200D01*
X16022000Y-11232200D02*
X15982000Y-11272200D01*
X16109000Y-11308400D02*
X16149000Y-11348400D01*
X16149000Y-11308400D02*
X16109000Y-11348400D01*
X16109000Y-12146599D02*
X16149000Y-12186599D01*
X16149000Y-12146599D02*
X16109000Y-12186599D01*
X16134399Y-10775000D02*
X16174399Y-10815000D01*
X16174399Y-10775000D02*
X16134399Y-10815000D01*
X16236000Y-13137201D02*
X16276000Y-13177201D01*
X16276000Y-13137201D02*
X16236000Y-13177201D01*
X16363000Y-11156000D02*
X16403000Y-11196000D01*
X16403000Y-11156000D02*
X16363000Y-11196000D01*
X16363000Y-12146600D02*
X16403000Y-12186600D01*
X16403000Y-12146600D02*
X16363000Y-12186600D01*
X16464600Y-9200200D02*
X16504600Y-9240200D01*
X16504600Y-9200200D02*
X16464600Y-9240200D01*
X16464600Y-10546400D02*
X16504600Y-10586400D01*
X16504600Y-10546400D02*
X16464600Y-10586400D01*
X16489999Y-12146600D02*
X16529999Y-12186600D01*
X16529999Y-12146600D02*
X16489999Y-12186600D01*
X16566200Y-9124000D02*
X16606200Y-9164000D01*
X16606200Y-9124000D02*
X16566200Y-9164000D01*
X16566200Y-10470200D02*
X16606200Y-10510200D01*
X16606200Y-10470200D02*
X16566200Y-10510200D01*
X16617000Y-11079800D02*
X16657000Y-11119800D01*
X16657000Y-11079800D02*
X16617000Y-11119800D01*
X16617000Y-12146600D02*
X16657000Y-12186600D01*
X16657000Y-12146600D02*
X16617000Y-12186600D01*
X16667800Y-9200200D02*
X16707800Y-9240200D01*
X16707800Y-9200200D02*
X16667800Y-9240200D01*
X16667800Y-10394000D02*
X16707800Y-10434000D01*
X16707800Y-10394000D02*
X16667800Y-10434000D01*
X16744000Y-10851200D02*
X16784000Y-10891200D01*
X16784000Y-10851200D02*
X16744000Y-10891200D01*
X16744000Y-12146600D02*
X16784000Y-12186600D01*
X16784000Y-12146600D02*
X16744000Y-12186600D01*
X16769400Y-9124000D02*
X16809400Y-9164000D01*
X16809400Y-9124000D02*
X16769400Y-9164000D01*
X16769400Y-10317800D02*
X16809400Y-10357800D01*
X16809400Y-10317800D02*
X16769400Y-10357800D01*
X16871000Y-11003600D02*
X16911000Y-11043600D01*
X16911000Y-11003600D02*
X16871000Y-11043600D01*
X16871000Y-12146600D02*
X16911000Y-12186600D01*
X16911000Y-12146600D02*
X16871000Y-12186600D01*
X16947200Y-13137200D02*
X16987200Y-13177200D01*
X16987200Y-13137200D02*
X16947200Y-13177200D01*
X16998000Y-10927400D02*
X17038000Y-10967400D01*
X17038000Y-10927400D02*
X16998000Y-10967400D01*
X16998000Y-12146600D02*
X17038000Y-12186600D01*
X17038000Y-12146600D02*
X16998000Y-12186600D01*
X17353600Y-7625400D02*
X17393600Y-7665400D01*
X17393600Y-7625400D02*
X17353600Y-7665400D01*
X17633000Y-9301800D02*
X17673000Y-9341800D01*
X17673000Y-9301800D02*
X17633000Y-9341800D01*
X17683800Y-13950000D02*
X17723800Y-13990000D01*
X17723800Y-13950000D02*
X17683800Y-13990000D01*
X17759999Y-9301800D02*
X17799999Y-9341800D01*
X17799999Y-9301800D02*
X17759999Y-9341800D01*
X17810800Y-13061000D02*
X17850800Y-13101000D01*
X17850800Y-13061000D02*
X17810800Y-13101000D01*
X17810800Y-13188000D02*
X17850800Y-13228000D01*
X17850800Y-13188000D02*
X17810800Y-13228000D01*
X17810800Y-13543600D02*
X17850800Y-13583600D01*
X17850800Y-13543600D02*
X17810800Y-13583600D01*
X17810800Y-13670600D02*
X17850800Y-13710600D01*
X17850800Y-13670600D02*
X17810800Y-13710600D01*
X17937800Y-13950000D02*
X17977800Y-13990000D01*
X17977800Y-13950000D02*
X17937800Y-13990000D01*
X18496600Y-13365800D02*
X18536600Y-13405800D01*
X18536600Y-13365800D02*
X18496600Y-13405800D01*
X18522000Y-11841800D02*
X18562000Y-11881800D01*
X18562000Y-11841800D02*
X18522000Y-11881800D01*
X18522000Y-12146600D02*
X18562000Y-12186600D01*
X18562000Y-12146600D02*
X18522000Y-12186600D01*
X18572800Y-13289600D02*
X18612800Y-13329600D01*
X18612800Y-13289600D02*
X18572800Y-13329600D01*
X18572800Y-13442000D02*
X18612800Y-13482000D01*
X18612800Y-13442000D02*
X18572800Y-13482000D01*
X18623600Y-11994200D02*
X18663600Y-12034200D01*
X18663600Y-11994200D02*
X18623600Y-12034200D01*
X18699800Y-12070400D02*
X18739800Y-12110400D01*
X18739800Y-12070400D02*
X18699800Y-12110400D01*
X18776000Y-13213400D02*
X18816000Y-13253400D01*
X18816000Y-13213400D02*
X18776000Y-13253400D01*
X19030000Y-11384600D02*
X19070000Y-11424600D01*
X19070000Y-11384600D02*
X19030000Y-11424600D01*
X19030000Y-11765600D02*
X19070000Y-11805600D01*
X19070000Y-11765600D02*
X19030000Y-11805600D01*
X19284000Y-11460800D02*
X19324000Y-11500800D01*
X19324000Y-11460800D02*
X19284000Y-11500800D01*
X19284000Y-11689403D02*
X19324000Y-11729403D01*
X19324000Y-11689403D02*
X19284000Y-11729403D01*
X19487200Y-13213400D02*
X19527200Y-13253400D01*
X19527200Y-13213400D02*
X19487200Y-13253400D01*
X19487200Y-13365800D02*
X19527200Y-13405800D01*
X19527200Y-13365800D02*
X19487200Y-13405800D01*
X19563400Y-13289600D02*
X19603400Y-13329600D01*
X19603400Y-13289600D02*
X19563400Y-13329600D01*
X19563400Y-13442001D02*
X19603400Y-13482001D01*
X19603400Y-13442001D02*
X19563400Y-13482001D01*
X19690400Y-12070400D02*
X19730400Y-12110400D01*
X19730400Y-12070400D02*
X19690400Y-12110400D01*
X19715800Y-11765600D02*
X19755800Y-11805600D01*
X19755800Y-11765600D02*
X19715800Y-11805600D01*
X19893600Y-9301800D02*
X19933600Y-9341800D01*
X19933600Y-9301800D02*
X19893600Y-9341800D01*
X20020600Y-9301800D02*
X20060600Y-9341800D01*
X20060600Y-9301800D02*
X20020600Y-9341800D01*
X20096800Y-13213400D02*
X20136800Y-13253400D01*
X20136800Y-13213400D02*
X20096800Y-13253400D01*
X20173000Y-13289600D02*
X20213000Y-13329600D01*
X20213000Y-13289600D02*
X20173000Y-13329600D01*
X20249200Y-13365800D02*
X20289200Y-13405800D01*
X20289200Y-13365800D02*
X20249200Y-13405800D01*
X20528600Y-13416600D02*
X20568600Y-13456600D01*
X20568600Y-13416600D02*
X20528600Y-13456600D01*
X20528600Y-13543600D02*
X20568600Y-13583600D01*
X20568600Y-13543600D02*
X20528600Y-13583600D01*
X20528600Y-14026198D02*
X20568600Y-14066198D01*
X20568600Y-14026198D02*
X20528600Y-14066198D01*
X20528600Y-14153200D02*
X20568600Y-14193200D01*
X20568600Y-14153200D02*
X20528600Y-14193200D01*
X20884200Y-13289600D02*
X20924200Y-13329600D01*
X20924200Y-13289600D02*
X20884200Y-13329600D01*
X20960400Y-13213400D02*
X21000400Y-13253400D01*
X21000400Y-13213400D02*
X20960400Y-13253400D01*
X21189000Y-8362000D02*
X21229000Y-8402000D01*
X21229000Y-8362000D02*
X21189000Y-8402000D01*
X21366800Y-13365800D02*
X21406800Y-13405800D01*
X21406800Y-13365800D02*
X21366800Y-13405800D01*
X21570000Y-8362000D02*
X21610000Y-8402000D01*
X21610000Y-8362000D02*
X21570000Y-8402000D01*
X22890800Y-13492800D02*
X22930800Y-13532800D01*
X22930800Y-13492800D02*
X22890800Y-13532800D01*
X22890800Y-13950000D02*
X22930800Y-13990000D01*
X22930800Y-13950000D02*
X22890800Y-13990000D01*
X23322600Y-13492799D02*
X23362600Y-13532799D01*
X23362600Y-13492799D02*
X23322600Y-13532799D01*
X23830600Y-8514400D02*
X23870600Y-8554400D01*
X23870600Y-8514400D02*
X23830600Y-8554400D01*
X24364000Y-13137200D02*
X24404000Y-13177200D01*
X24404000Y-13137200D02*
X24364000Y-13177200D01*
X24618000Y-13137200D02*
X24658000Y-13177200D01*
X24658000Y-13137200D02*
X24618000Y-13177200D01*
X17058000Y-8128000D02*
G75*
G03X17058000Y-8128000I-40000J0D01*
G01*
X17058000Y-8628000D02*
G75*
G03X17058000Y-8628000I-40000J0D01*
G01*
X15788000Y-12446000D02*
G75*
G03X15788000Y-12446000I-40000J0D01*
G01*
X16288000Y-12446000D02*
G75*
G03X16288000Y-12446000I-40000J0D01*
G01*
X6898000Y-10414000D02*
G75*
G03X6898000Y-10414000I-40000J0D01*
G01*
X6898000Y-11176000D02*
G75*
G03X6898000Y-11176000I-40000J0D01*
G01*
X7152000Y-10414000D02*
G75*
G03X7152000Y-10414000I-40000J0D01*
G01*
X7152000Y-11176000D02*
G75*
G03X7152000Y-11176000I-40000J0D01*
G01*
X7406000Y-10414000D02*
G75*
G03X7406000Y-10414000I-40000J0D01*
G01*
X7406000Y-11176000D02*
G75*
G03X7406000Y-11176000I-40000J0D01*
G01*
X7660000Y-10414000D02*
G75*
G03X7660000Y-10414000I-40000J0D01*
G01*
X7660000Y-11176000D02*
G75*
G03X7660000Y-11176000I-40000J0D01*
G01*
X7914000Y-10414000D02*
G75*
G03X7914000Y-10414000I-40000J0D01*
G01*
X7914000Y-11176000D02*
G75*
G03X7914000Y-11176000I-40000J0D01*
G01*
X8168000Y-10414000D02*
G75*
G03X8168000Y-10414000I-40000J0D01*
G01*
X8168000Y-11176000D02*
G75*
G03X8168000Y-11176000I-40000J0D01*
G01*
X8422000Y-10414000D02*
G75*
G03X8422000Y-10414000I-40000J0D01*
G01*
X8422000Y-11176000D02*
G75*
G03X8422000Y-11176000I-40000J0D01*
G01*
X8676000Y-10414000D02*
G75*
G03X8676000Y-10414000I-40000J0D01*
G01*
X8676000Y-11176000D02*
G75*
G03X8676000Y-11176000I-40000J0D01*
G01*
X17820000Y-8128000D02*
G75*
G03X17820000Y-8128000I-40000J0D01*
G01*
X17820000Y-8890000D02*
G75*
G03X17820000Y-8890000I-40000J0D01*
G01*
X18074000Y-8128000D02*
G75*
G03X18074000Y-8128000I-40000J0D01*
G01*
X18074000Y-8890000D02*
G75*
G03X18074000Y-8890000I-40000J0D01*
G01*
X18328000Y-8128000D02*
G75*
G03X18328000Y-8128000I-40000J0D01*
G01*
X18328000Y-8890000D02*
G75*
G03X18328000Y-8890000I-40000J0D01*
G01*
X18582000Y-8128000D02*
G75*
G03X18582000Y-8128000I-40000J0D01*
G01*
X18582000Y-8890000D02*
G75*
G03X18582000Y-8890000I-40000J0D01*
G01*
X18836000Y-8128000D02*
G75*
G03X18836000Y-8128000I-40000J0D01*
G01*
X18836000Y-8890000D02*
G75*
G03X18836000Y-8890000I-40000J0D01*
G01*
X19090000Y-8128000D02*
G75*
G03X19090000Y-8128000I-40000J0D01*
G01*
X19090000Y-8890000D02*
G75*
G03X19090000Y-8890000I-40000J0D01*
G01*
X19344000Y-8128000D02*
G75*
G03X19344000Y-8128000I-40000J0D01*
G01*
X19344000Y-8890000D02*
G75*
G03X19344000Y-8890000I-40000J0D01*
G01*
X19598000Y-8128000D02*
G75*
G03X19598000Y-8128000I-40000J0D01*
G01*
X19598000Y-8890000D02*
G75*
G03X19598000Y-8890000I-40000J0D01*
G01*
X19852000Y-8128000D02*
G75*
G03X19852000Y-8128000I-40000J0D01*
G01*
X19852000Y-8890000D02*
G75*
G03X19852000Y-8890000I-40000J0D01*
G01*
X20106000Y-8128000D02*
G75*
G03X20106000Y-8128000I-40000J0D01*
G01*
X20106000Y-8890000D02*
G75*
G03X20106000Y-8890000I-40000J0D01*
G01*
X20741000Y-9525000D02*
G75*
G03X20741000Y-9525000I-40000J0D01*
G01*
X20741000Y-9775000D02*
G75*
G03X20741000Y-9775000I-40000J0D01*
G01*
X7914000Y-13208000D02*
G75*
G03X7914000Y-13208000I-40000J0D01*
G01*
X7914000Y-13708000D02*
G75*
G03X7914000Y-13708000I-40000J0D01*
G01*
X20368000Y-12446000D02*
G75*
G03X20368000Y-12446000I-40000J0D01*
G01*
X20868000Y-12446000D02*
G75*
G03X20868000Y-12446000I-40000J0D01*
G01*
X5882000Y-8128000D02*
G75*
G03X5882000Y-8128000I-40000J0D01*
G01*
X5882000Y-8890000D02*
G75*
G03X5882000Y-8890000I-40000J0D01*
G01*
X6136000Y-8128000D02*
G75*
G03X6136000Y-8128000I-40000J0D01*
G01*
X6136000Y-8890000D02*
G75*
G03X6136000Y-8890000I-40000J0D01*
G01*
X6390000Y-8128000D02*
G75*
G03X6390000Y-8128000I-40000J0D01*
G01*
X6390000Y-8890000D02*
G75*
G03X6390000Y-8890000I-40000J0D01*
G01*
X6644000Y-8128000D02*
G75*
G03X6644000Y-8128000I-40000J0D01*
G01*
X6644000Y-8890000D02*
G75*
G03X6644000Y-8890000I-40000J0D01*
G01*
X6898000Y-8128000D02*
G75*
G03X6898000Y-8128000I-40000J0D01*
G01*
X6898000Y-8890000D02*
G75*
G03X6898000Y-8890000I-40000J0D01*
G01*
X7152000Y-8128000D02*
G75*
G03X7152000Y-8128000I-40000J0D01*
G01*
X7152000Y-8890000D02*
G75*
G03X7152000Y-8890000I-40000J0D01*
G01*
X7406000Y-8128000D02*
G75*
G03X7406000Y-8128000I-40000J0D01*
G01*
X7406000Y-8890000D02*
G75*
G03X7406000Y-8890000I-40000J0D01*
G01*
X7660000Y-8128000D02*
G75*
G03X7660000Y-8128000I-40000J0D01*
G01*
X7660000Y-8890000D02*
G75*
G03X7660000Y-8890000I-40000J0D01*
G01*
X7914000Y-8128000D02*
G75*
G03X7914000Y-8128000I-40000J0D01*
G01*
X7914000Y-8890000D02*
G75*
G03X7914000Y-8890000I-40000J0D01*
G01*
X8168000Y-8128000D02*
G75*
G03X8168000Y-8128000I-40000J0D01*
G01*
X8168000Y-8890000D02*
G75*
G03X8168000Y-8890000I-40000J0D01*
G01*
X17820000Y-7620000D02*
G75*
G03X17820000Y-7620000I-40000J0D01*
G01*
X18074000Y-7620000D02*
G75*
G03X18074000Y-7620000I-40000J0D01*
G01*
X18328000Y-7620000D02*
G75*
G03X18328000Y-7620000I-40000J0D01*
G01*
X18582000Y-7620000D02*
G75*
G03X18582000Y-7620000I-40000J0D01*
G01*
X18836000Y-7620000D02*
G75*
G03X18836000Y-7620000I-40000J0D01*
G01*
X19090000Y-7620000D02*
G75*
G03X19090000Y-7620000I-40000J0D01*
G01*
X19344000Y-7620000D02*
G75*
G03X19344000Y-7620000I-40000J0D01*
G01*
X19598000Y-7620000D02*
G75*
G03X19598000Y-7620000I-40000J0D01*
G01*
X19852000Y-7620000D02*
G75*
G03X19852000Y-7620000I-40000J0D01*
G01*
X20741000Y-8128000D02*
G75*
G03X20741000Y-8128000I-40000J0D01*
G01*
X20741000Y-8628000D02*
G75*
G03X20741000Y-8628000I-40000J0D01*
G01*
X22138000Y-7620000D02*
G75*
G03X22138000Y-7620000I-40000J0D01*
G01*
X22392000Y-7620000D02*
G75*
G03X22392000Y-7620000I-40000J0D01*
G01*
X22646000Y-7620000D02*
G75*
G03X22646000Y-7620000I-40000J0D01*
G01*
X22900000Y-7620000D02*
G75*
G03X22900000Y-7620000I-40000J0D01*
G01*
X23154000Y-7620000D02*
G75*
G03X23154000Y-7620000I-40000J0D01*
G01*
X23408000Y-7620000D02*
G75*
G03X23408000Y-7620000I-40000J0D01*
G01*
X23662000Y-7620000D02*
G75*
G03X23662000Y-7620000I-40000J0D01*
G01*
X23916000Y-7620000D02*
G75*
G03X23916000Y-7620000I-40000J0D01*
G01*
X24170000Y-7620000D02*
G75*
G03X24170000Y-7620000I-40000J0D01*
G01*
X22900000Y-12196000D02*
G75*
G03X22900000Y-12196000I-40000J0D01*
G01*
X22900000Y-12446000D02*
G75*
G03X22900000Y-12446000I-40000J0D01*
G01*
X23408000Y-12954000D02*
G75*
G03X23408000Y-12954000I-40000J0D01*
G01*
X23408000Y-13716000D02*
G75*
G03X23408000Y-13716000I-40000J0D01*
G01*
X23662000Y-12954000D02*
G75*
G03X23662000Y-12954000I-40000J0D01*
G01*
X23662000Y-13716000D02*
G75*
G03X23662000Y-13716000I-40000J0D01*
G01*
X23916000Y-12954000D02*
G75*
G03X23916000Y-12954000I-40000J0D01*
G01*
X23916000Y-13716000D02*
G75*
G03X23916000Y-13716000I-40000J0D01*
G01*
X24170000Y-12954000D02*
G75*
G03X24170000Y-12954000I-40000J0D01*
G01*
X24170000Y-13716000D02*
G75*
G03X24170000Y-13716000I-40000J0D01*
G01*
X24424000Y-12954000D02*
G75*
G03X24424000Y-12954000I-40000J0D01*
G01*
X24424000Y-13716000D02*
G75*
G03X24424000Y-13716000I-40000J0D01*
G01*
X24678000Y-12954000D02*
G75*
G03X24678000Y-12954000I-40000J0D01*
G01*
X24678000Y-13716000D02*
G75*
G03X24678000Y-13716000I-40000J0D01*
G01*
X24932000Y-12954000D02*
G75*
G03X24932000Y-12954000I-40000J0D01*
G01*
X24932000Y-13716000D02*
G75*
G03X24932000Y-13716000I-40000J0D01*
G01*
X14010000Y-7620000D02*
G75*
G03X14010000Y-7620000I-40000J0D01*
G01*
X14510000Y-7620000D02*
G75*
G03X14510000Y-7620000I-40000J0D01*
G01*
X6136000Y-10414000D02*
G75*
G03X6136000Y-10414000I-40000J0D01*
G01*
X6136000Y-10914000D02*
G75*
G03X6136000Y-10914000I-40000J0D01*
G01*
X12486000Y-12954000D02*
G75*
G03X12486000Y-12954000I-40000J0D01*
G01*
X12486000Y-13716000D02*
G75*
G03X12486000Y-13716000I-40000J0D01*
G01*
X12740000Y-12954000D02*
G75*
G03X12740000Y-12954000I-40000J0D01*
G01*
X12740000Y-13716000D02*
G75*
G03X12740000Y-13716000I-40000J0D01*
G01*
X12994000Y-12954000D02*
G75*
G03X12994000Y-12954000I-40000J0D01*
G01*
X12994000Y-13716000D02*
G75*
G03X12994000Y-13716000I-40000J0D01*
G01*
X13248000Y-12954000D02*
G75*
G03X13248000Y-12954000I-40000J0D01*
G01*
X13248000Y-13716000D02*
G75*
G03X13248000Y-13716000I-40000J0D01*
G01*
X13502000Y-12954000D02*
G75*
G03X13502000Y-12954000I-40000J0D01*
G01*
X13502000Y-13716000D02*
G75*
G03X13502000Y-13716000I-40000J0D01*
G01*
X13756000Y-12954000D02*
G75*
G03X13756000Y-12954000I-40000J0D01*
G01*
X13756000Y-13716000D02*
G75*
G03X13756000Y-13716000I-40000J0D01*
G01*
X14010000Y-12954000D02*
G75*
G03X14010000Y-12954000I-40000J0D01*
G01*
X14010000Y-13716000D02*
G75*
G03X14010000Y-13716000I-40000J0D01*
G01*
X14264000Y-12954000D02*
G75*
G03X14264000Y-12954000I-40000J0D01*
G01*
X14264000Y-13716000D02*
G75*
G03X14264000Y-13716000I-40000J0D01*
G01*
X14518000Y-12954000D02*
G75*
G03X14518000Y-12954000I-40000J0D01*
G01*
X14518000Y-13716000D02*
G75*
G03X14518000Y-13716000I-40000J0D01*
G01*
X14772000Y-12954000D02*
G75*
G03X14772000Y-12954000I-40000J0D01*
G01*
X14772000Y-13716000D02*
G75*
G03X14772000Y-13716000I-40000J0D01*
G01*
X20868000Y-12954000D02*
G75*
G03X20868000Y-12954000I-40000J0D01*
G01*
X20868000Y-13716000D02*
G75*
G03X20868000Y-13716000I-40000J0D01*
G01*
X21122000Y-12954000D02*
G75*
G03X21122000Y-12954000I-40000J0D01*
G01*
X21122000Y-13716000D02*
G75*
G03X21122000Y-13716000I-40000J0D01*
G01*
X21376000Y-12954000D02*
G75*
G03X21376000Y-12954000I-40000J0D01*
G01*
X21376000Y-13716000D02*
G75*
G03X21376000Y-13716000I-40000J0D01*
G01*
X21630000Y-12954000D02*
G75*
G03X21630000Y-12954000I-40000J0D01*
G01*
X21630000Y-13716000D02*
G75*
G03X21630000Y-13716000I-40000J0D01*
G01*
X21884000Y-12954000D02*
G75*
G03X21884000Y-12954000I-40000J0D01*
G01*
X21884000Y-13716000D02*
G75*
G03X21884000Y-13716000I-40000J0D01*
G01*
X22138000Y-12954000D02*
G75*
G03X22138000Y-12954000I-40000J0D01*
G01*
X22138000Y-13716000D02*
G75*
G03X22138000Y-13716000I-40000J0D01*
G01*
X22392000Y-12954000D02*
G75*
G03X22392000Y-12954000I-40000J0D01*
G01*
X22392000Y-13716000D02*
G75*
G03X22392000Y-13716000I-40000J0D01*
G01*
X11724000Y-12954000D02*
G75*
G03X11724000Y-12954000I-40000J0D01*
G01*
X11724000Y-13454000D02*
G75*
G03X11724000Y-13454000I-40000J0D01*
G01*
X9438000Y-7620000D02*
G75*
G03X9438000Y-7620000I-40000J0D01*
G01*
X9938000Y-7620000D02*
G75*
G03X9938000Y-7620000I-40000J0D01*
G01*
X23408000Y-12446000D02*
G75*
G03X23408000Y-12446000I-40000J0D01*
G01*
X23908000Y-12446000D02*
G75*
G03X23908000Y-12446000I-40000J0D01*
G01*
X7152000Y-13466000D02*
G75*
G03X7152000Y-13466000I-40000J0D01*
G01*
X7152000Y-13716000D02*
G75*
G03X7152000Y-13716000I-40000J0D01*
G01*
X9438000Y-8128000D02*
G75*
G03X9438000Y-8128000I-40000J0D01*
G01*
X9438000Y-8890000D02*
G75*
G03X9438000Y-8890000I-40000J0D01*
G01*
X9692000Y-8128000D02*
G75*
G03X9692000Y-8128000I-40000J0D01*
G01*
X9692000Y-8890000D02*
G75*
G03X9692000Y-8890000I-40000J0D01*
G01*
X9946000Y-8128000D02*
G75*
G03X9946000Y-8128000I-40000J0D01*
G01*
X9946000Y-8890000D02*
G75*
G03X9946000Y-8890000I-40000J0D01*
G01*
X10200000Y-8128000D02*
G75*
G03X10200000Y-8128000I-40000J0D01*
G01*
X10200000Y-8890000D02*
G75*
G03X10200000Y-8890000I-40000J0D01*
G01*
X10454000Y-8128000D02*
G75*
G03X10454000Y-8128000I-40000J0D01*
G01*
X10454000Y-8890000D02*
G75*
G03X10454000Y-8890000I-40000J0D01*
G01*
X10708000Y-8128000D02*
G75*
G03X10708000Y-8128000I-40000J0D01*
G01*
X10708000Y-8890000D02*
G75*
G03X10708000Y-8890000I-40000J0D01*
G01*
X10962000Y-8128000D02*
G75*
G03X10962000Y-8128000I-40000J0D01*
G01*
X10962000Y-8890000D02*
G75*
G03X10962000Y-8890000I-40000J0D01*
G01*
X11216000Y-8128000D02*
G75*
G03X11216000Y-8128000I-40000J0D01*
G01*
X11216000Y-8890000D02*
G75*
G03X11216000Y-8890000I-40000J0D01*
G01*
X11470000Y-8128000D02*
G75*
G03X11470000Y-8128000I-40000J0D01*
G01*
X11470000Y-8890000D02*
G75*
G03X11470000Y-8890000I-40000J0D01*
G01*
X11724000Y-8128000D02*
G75*
G03X11724000Y-8128000I-40000J0D01*
G01*
X11724000Y-8890000D02*
G75*
G03X11724000Y-8890000I-40000J0D01*
G01*
X14010000Y-8128000D02*
G75*
G03X14010000Y-8128000I-40000J0D01*
G01*
X14010000Y-8890000D02*
G75*
G03X14010000Y-8890000I-40000J0D01*
G01*
X14264000Y-8128000D02*
G75*
G03X14264000Y-8128000I-40000J0D01*
G01*
X14264000Y-8890000D02*
G75*
G03X14264000Y-8890000I-40000J0D01*
G01*
X14518000Y-8128000D02*
G75*
G03X14518000Y-8128000I-40000J0D01*
G01*
X14518000Y-8890000D02*
G75*
G03X14518000Y-8890000I-40000J0D01*
G01*
X14772000Y-8128000D02*
G75*
G03X14772000Y-8128000I-40000J0D01*
G01*
X14772000Y-8890000D02*
G75*
G03X14772000Y-8890000I-40000J0D01*
G01*
X15026000Y-8128000D02*
G75*
G03X15026000Y-8128000I-40000J0D01*
G01*
X15026000Y-8890000D02*
G75*
G03X15026000Y-8890000I-40000J0D01*
G01*
X15280000Y-8128000D02*
G75*
G03X15280000Y-8128000I-40000J0D01*
G01*
X15280000Y-8890000D02*
G75*
G03X15280000Y-8890000I-40000J0D01*
G01*
X15534000Y-8128000D02*
G75*
G03X15534000Y-8128000I-40000J0D01*
G01*
X15534000Y-8890000D02*
G75*
G03X15534000Y-8890000I-40000J0D01*
G01*
X15788000Y-8128000D02*
G75*
G03X15788000Y-8128000I-40000J0D01*
G01*
X15788000Y-8890000D02*
G75*
G03X15788000Y-8890000I-40000J0D01*
G01*
X16042000Y-8128000D02*
G75*
G03X16042000Y-8128000I-40000J0D01*
G01*
X16042000Y-8890000D02*
G75*
G03X16042000Y-8890000I-40000J0D01*
G01*
X16296000Y-8128000D02*
G75*
G03X16296000Y-8128000I-40000J0D01*
G01*
X16296000Y-8890000D02*
G75*
G03X16296000Y-8890000I-40000J0D01*
G01*
X5882000Y-9398000D02*
G75*
G03X5882000Y-9398000I-40000J0D01*
G01*
X6382000Y-9398000D02*
G75*
G03X6382000Y-9398000I-40000J0D01*
G01*
X6136000Y-7620000D02*
G75*
G03X6136000Y-7620000I-40000J0D01*
G01*
X6390000Y-7620000D02*
G75*
G03X6390000Y-7620000I-40000J0D01*
G01*
X6644000Y-7620000D02*
G75*
G03X6644000Y-7620000I-40000J0D01*
G01*
X6898000Y-7620000D02*
G75*
G03X6898000Y-7620000I-40000J0D01*
G01*
X7152000Y-7620000D02*
G75*
G03X7152000Y-7620000I-40000J0D01*
G01*
X7406000Y-7620000D02*
G75*
G03X7406000Y-7620000I-40000J0D01*
G01*
X7660000Y-7620000D02*
G75*
G03X7660000Y-7620000I-40000J0D01*
G01*
X7914000Y-7620000D02*
G75*
G03X7914000Y-7620000I-40000J0D01*
G01*
X8168000Y-7620000D02*
G75*
G03X8168000Y-7620000I-40000J0D01*
G01*
X15788000Y-12954000D02*
G75*
G03X15788000Y-12954000I-40000J0D01*
G01*
X15788000Y-13716000D02*
G75*
G03X15788000Y-13716000I-40000J0D01*
G01*
X16042000Y-12954000D02*
G75*
G03X16042000Y-12954000I-40000J0D01*
G01*
X16042000Y-13716000D02*
G75*
G03X16042000Y-13716000I-40000J0D01*
G01*
X16296000Y-12954000D02*
G75*
G03X16296000Y-12954000I-40000J0D01*
G01*
X16296000Y-13716000D02*
G75*
G03X16296000Y-13716000I-40000J0D01*
G01*
X16550000Y-12954000D02*
G75*
G03X16550000Y-12954000I-40000J0D01*
G01*
X16550000Y-13716000D02*
G75*
G03X16550000Y-13716000I-40000J0D01*
G01*
X16804000Y-12954000D02*
G75*
G03X16804000Y-12954000I-40000J0D01*
G01*
X16804000Y-13716000D02*
G75*
G03X16804000Y-13716000I-40000J0D01*
G01*
X17058000Y-12954000D02*
G75*
G03X17058000Y-12954000I-40000J0D01*
G01*
X17058000Y-13716000D02*
G75*
G03X17058000Y-13716000I-40000J0D01*
G01*
X17312000Y-12954000D02*
G75*
G03X17312000Y-12954000I-40000J0D01*
G01*
X17312000Y-13716000D02*
G75*
G03X17312000Y-13716000I-40000J0D01*
G01*
X23916000Y-10287000D02*
G75*
G03X23916000Y-10287000I-40000J0D01*
G01*
X24932000Y-10287000D02*
G75*
G03X24932000Y-10287000I-40000J0D01*
G01*
X8676000Y-12954000D02*
G75*
G03X8676000Y-12954000I-40000J0D01*
G01*
X8676000Y-13716000D02*
G75*
G03X8676000Y-13716000I-40000J0D01*
G01*
X8930000Y-12954000D02*
G75*
G03X8930000Y-12954000I-40000J0D01*
G01*
X8930000Y-13716000D02*
G75*
G03X8930000Y-13716000I-40000J0D01*
G01*
X9184000Y-12954000D02*
G75*
G03X9184000Y-12954000I-40000J0D01*
G01*
X9184000Y-13716000D02*
G75*
G03X9184000Y-13716000I-40000J0D01*
G01*
X9438000Y-12954000D02*
G75*
G03X9438000Y-12954000I-40000J0D01*
G01*
X9438000Y-13716000D02*
G75*
G03X9438000Y-13716000I-40000J0D01*
G01*
X9692000Y-12954000D02*
G75*
G03X9692000Y-12954000I-40000J0D01*
G01*
X9692000Y-13716000D02*
G75*
G03X9692000Y-13716000I-40000J0D01*
G01*
X9946000Y-12954000D02*
G75*
G03X9946000Y-12954000I-40000J0D01*
G01*
X9946000Y-13716000D02*
G75*
G03X9946000Y-13716000I-40000J0D01*
G01*
X10200000Y-12954000D02*
G75*
G03X10200000Y-12954000I-40000J0D01*
G01*
X10200000Y-13716000D02*
G75*
G03X10200000Y-13716000I-40000J0D01*
G01*
X10454000Y-12954000D02*
G75*
G03X10454000Y-12954000I-40000J0D01*
G01*
X10454000Y-13716000D02*
G75*
G03X10454000Y-13716000I-40000J0D01*
G01*
X10708000Y-12954000D02*
G75*
G03X10708000Y-12954000I-40000J0D01*
G01*
X10708000Y-13716000D02*
G75*
G03X10708000Y-13716000I-40000J0D01*
G01*
X10962000Y-12954000D02*
G75*
G03X10962000Y-12954000I-40000J0D01*
G01*
X10962000Y-13716000D02*
G75*
G03X10962000Y-13716000I-40000J0D01*
G01*
X18328000Y-12446000D02*
G75*
G03X18328000Y-12446000I-40000J0D01*
G01*
X18828000Y-12446000D02*
G75*
G03X18828000Y-12446000I-40000J0D01*
G01*
X21376000Y-8128000D02*
G75*
G03X21376000Y-8128000I-40000J0D01*
G01*
X21376000Y-8890000D02*
G75*
G03X21376000Y-8890000I-40000J0D01*
G01*
X21630000Y-8128000D02*
G75*
G03X21630000Y-8128000I-40000J0D01*
G01*
X21630000Y-8890000D02*
G75*
G03X21630000Y-8890000I-40000J0D01*
G01*
X21884000Y-8128000D02*
G75*
G03X21884000Y-8128000I-40000J0D01*
G01*
X21884000Y-8890000D02*
G75*
G03X21884000Y-8890000I-40000J0D01*
G01*
X22138000Y-8128000D02*
G75*
G03X22138000Y-8128000I-40000J0D01*
G01*
X22138000Y-8890000D02*
G75*
G03X22138000Y-8890000I-40000J0D01*
G01*
X22392000Y-8128000D02*
G75*
G03X22392000Y-8128000I-40000J0D01*
G01*
X22392000Y-8890000D02*
G75*
G03X22392000Y-8890000I-40000J0D01*
G01*
X22646000Y-8128000D02*
G75*
G03X22646000Y-8128000I-40000J0D01*
G01*
X22646000Y-8890000D02*
G75*
G03X22646000Y-8890000I-40000J0D01*
G01*
X22900000Y-8128000D02*
G75*
G03X22900000Y-8128000I-40000J0D01*
G01*
X22900000Y-8890000D02*
G75*
G03X22900000Y-8890000I-40000J0D01*
G01*
X23154000Y-8128000D02*
G75*
G03X23154000Y-8128000I-40000J0D01*
G01*
X23154000Y-8890000D02*
G75*
G03X23154000Y-8890000I-40000J0D01*
G01*
X23408000Y-8128000D02*
G75*
G03X23408000Y-8128000I-40000J0D01*
G01*
X23408000Y-8890000D02*
G75*
G03X23408000Y-8890000I-40000J0D01*
G01*
X23662000Y-8128000D02*
G75*
G03X23662000Y-8128000I-40000J0D01*
G01*
X23662000Y-8890000D02*
G75*
G03X23662000Y-8890000I-40000J0D01*
G01*
X18328000Y-12954000D02*
G75*
G03X18328000Y-12954000I-40000J0D01*
G01*
X18328000Y-13716000D02*
G75*
G03X18328000Y-13716000I-40000J0D01*
G01*
X18582000Y-12954000D02*
G75*
G03X18582000Y-12954000I-40000J0D01*
G01*
X18582000Y-13716000D02*
G75*
G03X18582000Y-13716000I-40000J0D01*
G01*
X18836000Y-12954000D02*
G75*
G03X18836000Y-12954000I-40000J0D01*
G01*
X18836000Y-13716000D02*
G75*
G03X18836000Y-13716000I-40000J0D01*
G01*
X19090000Y-12954000D02*
G75*
G03X19090000Y-12954000I-40000J0D01*
G01*
X19090000Y-13716000D02*
G75*
G03X19090000Y-13716000I-40000J0D01*
G01*
X19344000Y-12954000D02*
G75*
G03X19344000Y-12954000I-40000J0D01*
G01*
X19344000Y-13716000D02*
G75*
G03X19344000Y-13716000I-40000J0D01*
G01*
X19598000Y-12954000D02*
G75*
G03X19598000Y-12954000I-40000J0D01*
G01*
X19598000Y-13716000D02*
G75*
G03X19598000Y-13716000I-40000J0D01*
G01*
X19852000Y-12954000D02*
G75*
G03X19852000Y-12954000I-40000J0D01*
G01*
X19852000Y-13716000D02*
G75*
G03X19852000Y-13716000I-40000J0D01*
G01*
X11216000Y-12446000D02*
G75*
G03X11216000Y-12446000I-40000J0D01*
G01*
X12232000Y-12446000D02*
G75*
G03X12232000Y-12446000I-40000J0D01*
G01*
X23622000Y-6813000D02*
X23622000Y-6903000D01*
X23577000Y-6858000D02*
X23667000Y-6858000D01*
X23876000Y-6813000D02*
X23876000Y-6903000D01*
X23831000Y-6858000D02*
X23921000Y-6858000D01*
X5334000Y-6813000D02*
X5334000Y-6903000D01*
X5289000Y-6858000D02*
X5379000Y-6858000D01*
X5588000Y-6813000D02*
X5588000Y-6903000D01*
X5543000Y-6858000D02*
X5633000Y-6858000D01*
X7239000Y-6813000D02*
X7239000Y-6903000D01*
X7194000Y-6858000D02*
X7284000Y-6858000D01*
X7493000Y-6813000D02*
X7493000Y-6903000D01*
X7448000Y-6858000D02*
X7538000Y-6858000D01*
X24257000Y-6813000D02*
X24257000Y-6903000D01*
X24212000Y-6858000D02*
X24302000Y-6858000D01*
X24511000Y-6813000D02*
X24511000Y-6903000D01*
X24466000Y-6858000D02*
X24556000Y-6858000D01*
X24892000Y-6813000D02*
X24892000Y-6903000D01*
X24847000Y-6858000D02*
X24937000Y-6858000D01*
X25146000Y-6813000D02*
X25146000Y-6903000D01*
X25101000Y-6858000D02*
X25191000Y-6858000D01*
X22987000Y-6813000D02*
X22987000Y-6903000D01*
X22942000Y-6858000D02*
X23032000Y-6858000D01*
X23241000Y-6813000D02*
X23241000Y-6903000D01*
X23196000Y-6858000D02*
X23286000Y-6858000D01*
X21082000Y-6813000D02*
X21082000Y-6903000D01*
X21037000Y-6858000D02*
X21127000Y-6858000D01*
X21336000Y-6813000D02*
X21336000Y-6903000D01*
X21291000Y-6858000D02*
X21381000Y-6858000D01*
X16002000Y-6813000D02*
X16002000Y-6903000D01*
X15957000Y-6858000D02*
X16047000Y-6858000D01*
X16256000Y-6813000D02*
X16256000Y-6903000D01*
X16211000Y-6858000D02*
X16301000Y-6858000D01*
X21717000Y-6813000D02*
X21717000Y-6903000D01*
X21672000Y-6858000D02*
X21762000Y-6858000D01*
X21971000Y-6813000D02*
X21971000Y-6903000D01*
X21926000Y-6858000D02*
X22016000Y-6858000D01*
X17907000Y-6813000D02*
X17907000Y-6903000D01*
X17862000Y-6858000D02*
X17952000Y-6858000D01*
X18161000Y-6813000D02*
X18161000Y-6903000D01*
X18116000Y-6858000D02*
X18206000Y-6858000D01*
X22352000Y-6813000D02*
X22352000Y-6903000D01*
X22307000Y-6858000D02*
X22397000Y-6858000D01*
X22606000Y-6813000D02*
X22606000Y-6903000D01*
X22561000Y-6858000D02*
X22651000Y-6858000D01*
X18542000Y-6813000D02*
X18542000Y-6903000D01*
X18497000Y-6858000D02*
X18587000Y-6858000D01*
X18796000Y-6813000D02*
X18796000Y-6903000D01*
X18751000Y-6858000D02*
X18841000Y-6858000D01*
X20447000Y-6813000D02*
X20447000Y-6903000D01*
X20402000Y-6858000D02*
X20492000Y-6858000D01*
X20701000Y-6813000D02*
X20701000Y-6903000D01*
X20656000Y-6858000D02*
X20746000Y-6858000D01*
X17272000Y-6813000D02*
X17272000Y-6903000D01*
X17227000Y-6858000D02*
X17317000Y-6858000D01*
X17526000Y-6813000D02*
X17526000Y-6903000D01*
X17481000Y-6858000D02*
X17571000Y-6858000D01*
X19812000Y-6813000D02*
X19812000Y-6903000D01*
X19767000Y-6858000D02*
X19857000Y-6858000D01*
X20066000Y-6813000D02*
X20066000Y-6903000D01*
X20021000Y-6858000D02*
X20111000Y-6858000D01*
X9144000Y-6813000D02*
X9144000Y-6903000D01*
X9099000Y-6858000D02*
X9189000Y-6858000D01*
X9398000Y-6813000D02*
X9398000Y-6903000D01*
X9353000Y-6858000D02*
X9443000Y-6858000D01*
X8509000Y-6813000D02*
X8509000Y-6903000D01*
X8464000Y-6858000D02*
X8554000Y-6858000D01*
X8763000Y-6813000D02*
X8763000Y-6903000D01*
X8718000Y-6858000D02*
X8808000Y-6858000D01*
X19177000Y-6813000D02*
X19177000Y-6903000D01*
X19132000Y-6858000D02*
X19222000Y-6858000D01*
X19431000Y-6813000D02*
X19431000Y-6903000D01*
X19386000Y-6858000D02*
X19476000Y-6858000D01*
X9779000Y-6813000D02*
X9779000Y-6903000D01*
X9734000Y-6858000D02*
X9824000Y-6858000D01*
X10033000Y-6813000D02*
X10033000Y-6903000D01*
X9988000Y-6858000D02*
X10078000Y-6858000D01*
X5969000Y-6813000D02*
X5969000Y-6903000D01*
X5924000Y-6858000D02*
X6014000Y-6858000D01*
X6223000Y-6813000D02*
X6223000Y-6903000D01*
X6178000Y-6858000D02*
X6268000Y-6858000D01*
X6604000Y-6813000D02*
X6604000Y-6903000D01*
X6559000Y-6858000D02*
X6649000Y-6858000D01*
X6858000Y-6813000D02*
X6858000Y-6903000D01*
X6813000Y-6858000D02*
X6903000Y-6858000D01*
X7874000Y-6813000D02*
X7874000Y-6903000D01*
X7829000Y-6858000D02*
X7919000Y-6858000D01*
X8128000Y-6813000D02*
X8128000Y-6903000D01*
X8083000Y-6858000D02*
X8173000Y-6858000D01*
X16637000Y-6813000D02*
X16637000Y-6903000D01*
X16592000Y-6858000D02*
X16682000Y-6858000D01*
X16891000Y-6813000D02*
X16891000Y-6903000D01*
X16846000Y-6858000D02*
X16936000Y-6858000D01*
X15367000Y-6813000D02*
X15367000Y-6903000D01*
X15322000Y-6858000D02*
X15412000Y-6858000D01*
X15621000Y-6813000D02*
X15621000Y-6903000D01*
X15576000Y-6858000D02*
X15666000Y-6858000D01*
X10576356Y-6639356D02*
X10576356Y-6568644D01*
X10505644Y-6568644D01*
X10505644Y-6639356D01*
X10576356Y-6639356D01*
X10830356Y-6639356D02*
X10830356Y-6568644D01*
X10759644Y-6568644D01*
X10759644Y-6639356D01*
X10830356Y-6639356D01*
X11084356Y-6639356D02*
X11084356Y-6568644D01*
X11013644Y-6568644D01*
X11013644Y-6639356D01*
X11084356Y-6639356D01*
X11338356Y-6639356D02*
X11338356Y-6568644D01*
X11267644Y-6568644D01*
X11267644Y-6639356D01*
X11338356Y-6639356D01*
X11592356Y-6639356D02*
X11592356Y-6568644D01*
X11521644Y-6568644D01*
X11521644Y-6639356D01*
X11592356Y-6639356D01*
X11846356Y-6639356D02*
X11846356Y-6568644D01*
X11775644Y-6568644D01*
X11775644Y-6639356D01*
X11846356Y-6639356D01*
X12100356Y-6639356D02*
X12100356Y-6568644D01*
X12029644Y-6568644D01*
X12029644Y-6639356D01*
X12100356Y-6639356D01*
X12354356Y-6639356D02*
X12354356Y-6568644D01*
X12283644Y-6568644D01*
X12283644Y-6639356D01*
X12354356Y-6639356D01*
X12608356Y-6639356D02*
X12608356Y-6568644D01*
X12537644Y-6568644D01*
X12537644Y-6639356D01*
X12608356Y-6639356D01*
X12862356Y-6639356D02*
X12862356Y-6568644D01*
X12791644Y-6568644D01*
X12791644Y-6639356D01*
X12862356Y-6639356D01*
X13116356Y-6639356D02*
X13116356Y-6568644D01*
X13045644Y-6568644D01*
X13045644Y-6639356D01*
X13116356Y-6639356D01*
X13370356Y-6639356D02*
X13370356Y-6568644D01*
X13299644Y-6568644D01*
X13299644Y-6639356D01*
X13370356Y-6639356D01*
X13624356Y-6639356D02*
X13624356Y-6568644D01*
X13553644Y-6568644D01*
X13553644Y-6639356D01*
X13624356Y-6639356D01*
X13878356Y-6639356D02*
X13878356Y-6568644D01*
X13807644Y-6568644D01*
X13807644Y-6639356D01*
X13878356Y-6639356D01*
X14132356Y-6639356D02*
X14132356Y-6568644D01*
X14061644Y-6568644D01*
X14061644Y-6639356D01*
X14132356Y-6639356D01*
X14386356Y-6639356D02*
X14386356Y-6568644D01*
X14315644Y-6568644D01*
X14315644Y-6639356D01*
X14386356Y-6639356D01*
X14640356Y-6639356D02*
X14640356Y-6568644D01*
X14569644Y-6568644D01*
X14569644Y-6639356D01*
X14640356Y-6639356D01*
X14894356Y-6639356D02*
X14894356Y-6568644D01*
X14823644Y-6568644D01*
X14823644Y-6639356D01*
X14894356Y-6639356D01*
X6131356Y-12227356D02*
X6131356Y-12156644D01*
X6060644Y-12156644D01*
X6060644Y-12227356D01*
X6131356Y-12227356D01*
X6131356Y-12481356D02*
X6131356Y-12410644D01*
X6060644Y-12410644D01*
X6060644Y-12481356D01*
X6131356Y-12481356D01*
X6131356Y-12735356D02*
X6131356Y-12664644D01*
X6060644Y-12664644D01*
X6060644Y-12735356D01*
X6131356Y-12735356D01*
X6131356Y-12989356D02*
X6131356Y-12918644D01*
X6060644Y-12918644D01*
X6060644Y-12989356D01*
X6131356Y-12989356D01*
X9941356Y-15021356D02*
X9941356Y-14950644D01*
X9870644Y-14950644D01*
X9870644Y-15021356D01*
X9941356Y-15021356D01*
X10195356Y-15021356D02*
X10195356Y-14950644D01*
X10124644Y-14950644D01*
X10124644Y-15021356D01*
X10195356Y-15021356D01*
X10449356Y-15021356D02*
X10449356Y-14950644D01*
X10378644Y-14950644D01*
X10378644Y-15021356D01*
X10449356Y-15021356D01*
X10703356Y-15021356D02*
X10703356Y-14950644D01*
X10632644Y-14950644D01*
X10632644Y-15021356D01*
X10703356Y-15021356D01*
X10957356Y-15021356D02*
X10957356Y-14950644D01*
X10886644Y-14950644D01*
X10886644Y-15021356D01*
X10957356Y-15021356D01*
X11211356Y-15021356D02*
X11211356Y-14950644D01*
X11140644Y-14950644D01*
X11140644Y-15021356D01*
X11211356Y-15021356D01*
X11465356Y-15021356D02*
X11465356Y-14950644D01*
X11394644Y-14950644D01*
X11394644Y-15021356D01*
X11465356Y-15021356D01*
X11719356Y-15021356D02*
X11719356Y-14950644D01*
X11648644Y-14950644D01*
X11648644Y-15021356D01*
X11719356Y-15021356D01*
X11973356Y-15021356D02*
X11973356Y-14950644D01*
X11902644Y-14950644D01*
X11902644Y-15021356D01*
X11973356Y-15021356D01*
X12227356Y-15021356D02*
X12227356Y-14950644D01*
X12156644Y-14950644D01*
X12156644Y-15021356D01*
X12227356Y-15021356D01*
X12481356Y-15021356D02*
X12481356Y-14950644D01*
X12410644Y-14950644D01*
X12410644Y-15021356D01*
X12481356Y-15021356D01*
X12735356Y-15021356D02*
X12735356Y-14950644D01*
X12664644Y-14950644D01*
X12664644Y-15021356D01*
X12735356Y-15021356D01*
X12989356Y-15021356D02*
X12989356Y-14950644D01*
X12918644Y-14950644D01*
X12918644Y-15021356D01*
X12989356Y-15021356D01*
X13243356Y-15021356D02*
X13243356Y-14950644D01*
X13172644Y-14950644D01*
X13172644Y-15021356D01*
X13243356Y-15021356D01*
X13497356Y-15021356D02*
X13497356Y-14950644D01*
X13426644Y-14950644D01*
X13426644Y-15021356D01*
X13497356Y-15021356D01*
X13751356Y-15021356D02*
X13751356Y-14950644D01*
X13680644Y-14950644D01*
X13680644Y-15021356D01*
X13751356Y-15021356D01*
X24165356Y-8417356D02*
X24165356Y-8346644D01*
X24094644Y-8346644D01*
X24094644Y-8417356D01*
X24165356Y-8417356D01*
X24165356Y-8671356D02*
X24165356Y-8600644D01*
X24094644Y-8600644D01*
X24094644Y-8671356D01*
X24165356Y-8671356D01*
X24165356Y-8925356D02*
X24165356Y-8854644D01*
X24094644Y-8854644D01*
X24094644Y-8925356D01*
X24165356Y-8925356D01*
X6385356Y-15021356D02*
X6385356Y-14950644D01*
X6314644Y-14950644D01*
X6314644Y-15021356D01*
X6385356Y-15021356D01*
X6639356Y-15021356D02*
X6639356Y-14950644D01*
X6568644Y-14950644D01*
X6568644Y-15021356D01*
X6639356Y-15021356D01*
X6893356Y-15021356D02*
X6893356Y-14950644D01*
X6822644Y-14950644D01*
X6822644Y-15021356D01*
X6893356Y-15021356D01*
X7147356Y-15021356D02*
X7147356Y-14950644D01*
X7076644Y-14950644D01*
X7076644Y-15021356D01*
X7147356Y-15021356D01*
X7401356Y-15021356D02*
X7401356Y-14950644D01*
X7330644Y-14950644D01*
X7330644Y-15021356D01*
X7401356Y-15021356D01*
X7655356Y-15021356D02*
X7655356Y-14950644D01*
X7584644Y-14950644D01*
X7584644Y-15021356D01*
X7655356Y-15021356D01*
X7909356Y-15021356D02*
X7909356Y-14950644D01*
X7838644Y-14950644D01*
X7838644Y-15021356D01*
X7909356Y-15021356D01*
X8163356Y-15021356D02*
X8163356Y-14950644D01*
X8092644Y-14950644D01*
X8092644Y-15021356D01*
X8163356Y-15021356D01*
X8417356Y-15021356D02*
X8417356Y-14950644D01*
X8346644Y-14950644D01*
X8346644Y-15021356D01*
X8417356Y-15021356D01*
X8671356Y-15021356D02*
X8671356Y-14950644D01*
X8600644Y-14950644D01*
X8600644Y-15021356D01*
X8671356Y-15021356D01*
X16291356Y-15021356D02*
X16291356Y-14950644D01*
X16220644Y-14950644D01*
X16220644Y-15021356D01*
X16291356Y-15021356D01*
X16545356Y-15021356D02*
X16545356Y-14950644D01*
X16474644Y-14950644D01*
X16474644Y-15021356D01*
X16545356Y-15021356D01*
X16799356Y-15021356D02*
X16799356Y-14950644D01*
X16728644Y-14950644D01*
X16728644Y-15021356D01*
X16799356Y-15021356D01*
X17053356Y-15021356D02*
X17053356Y-14950644D01*
X16982644Y-14950644D01*
X16982644Y-15021356D01*
X17053356Y-15021356D01*
X17307356Y-15021356D02*
X17307356Y-14950644D01*
X17236644Y-14950644D01*
X17236644Y-15021356D01*
X17307356Y-15021356D01*
X17561356Y-15021356D02*
X17561356Y-14950644D01*
X17490644Y-14950644D01*
X17490644Y-15021356D01*
X17561356Y-15021356D01*
X17815356Y-15021356D02*
X17815356Y-14950644D01*
X17744644Y-14950644D01*
X17744644Y-15021356D01*
X17815356Y-15021356D01*
X18069356Y-15021356D02*
X18069356Y-14950644D01*
X17998644Y-14950644D01*
X17998644Y-15021356D01*
X18069356Y-15021356D01*
X18323356Y-15021356D02*
X18323356Y-14950644D01*
X18252644Y-14950644D01*
X18252644Y-15021356D01*
X18323356Y-15021356D01*
X18577356Y-15021356D02*
X18577356Y-14950644D01*
X18506644Y-14950644D01*
X18506644Y-15021356D01*
X18577356Y-15021356D01*
X18831356Y-15021356D02*
X18831356Y-14950644D01*
X18760644Y-14950644D01*
X18760644Y-15021356D01*
X18831356Y-15021356D01*
X19085356Y-15021356D02*
X19085356Y-14950644D01*
X19014644Y-14950644D01*
X19014644Y-15021356D01*
X19085356Y-15021356D01*
X19339356Y-15021356D02*
X19339356Y-14950644D01*
X19268644Y-14950644D01*
X19268644Y-15021356D01*
X19339356Y-15021356D01*
X19593356Y-15021356D02*
X19593356Y-14950644D01*
X19522644Y-14950644D01*
X19522644Y-15021356D01*
X19593356Y-15021356D01*
X19847356Y-15021356D02*
X19847356Y-14950644D01*
X19776644Y-14950644D01*
X19776644Y-15021356D01*
X19847356Y-15021356D01*
X20101356Y-15021356D02*
X20101356Y-14950644D01*
X20030644Y-14950644D01*
X20030644Y-15021356D01*
X20101356Y-15021356D01*
X20355356Y-15021356D02*
X20355356Y-14950644D01*
X20284644Y-14950644D01*
X20284644Y-15021356D01*
X20355356Y-15021356D01*
X20609356Y-15021356D02*
X20609356Y-14950644D01*
X20538644Y-14950644D01*
X20538644Y-15021356D01*
X20609356Y-15021356D01*
X20863356Y-15021356D02*
X20863356Y-14950644D01*
X20792644Y-14950644D01*
X20792644Y-15021356D01*
X20863356Y-15021356D01*
X21117356Y-15021356D02*
X21117356Y-14950644D01*
X21046644Y-14950644D01*
X21046644Y-15021356D01*
X21117356Y-15021356D01*
X21371356Y-15021356D02*
X21371356Y-14950644D01*
X21300644Y-14950644D01*
X21300644Y-15021356D01*
X21371356Y-15021356D01*
X21625356Y-15021356D02*
X21625356Y-14950644D01*
X21554644Y-14950644D01*
X21554644Y-15021356D01*
X21625356Y-15021356D01*
X21879356Y-15021356D02*
X21879356Y-14950644D01*
X21808644Y-14950644D01*
X21808644Y-15021356D01*
X21879356Y-15021356D01*
X22133356Y-15021356D02*
X22133356Y-14950644D01*
X22062644Y-14950644D01*
X22062644Y-15021356D01*
X22133356Y-15021356D01*
X22387356Y-15021356D02*
X22387356Y-14950644D01*
X22316644Y-14950644D01*
X22316644Y-15021356D01*
X22387356Y-15021356D01*
X22641356Y-15021356D02*
X22641356Y-14950644D01*
X22570644Y-14950644D01*
X22570644Y-15021356D01*
X22641356Y-15021356D01*
X22895356Y-15021356D02*
X22895356Y-14950644D01*
X22824644Y-14950644D01*
X22824644Y-15021356D01*
X22895356Y-15021356D01*
X23149356Y-15021356D02*
X23149356Y-14950644D01*
X23078644Y-14950644D01*
X23078644Y-15021356D01*
X23149356Y-15021356D01*
X23403356Y-15021356D02*
X23403356Y-14950644D01*
X23332644Y-14950644D01*
X23332644Y-15021356D01*
X23403356Y-15021356D01*
X23657356Y-15021356D02*
X23657356Y-14950644D01*
X23586644Y-14950644D01*
X23586644Y-15021356D01*
X23657356Y-15021356D01*
X23911356Y-15021356D02*
X23911356Y-14950644D01*
X23840644Y-14950644D01*
X23840644Y-15021356D01*
X23911356Y-15021356D01*
X24165356Y-15021356D02*
X24165356Y-14950644D01*
X24094644Y-14950644D01*
X24094644Y-15021356D01*
X24165356Y-15021356D01*
D12*
X5363928Y-15835214D02*
X5363928Y-15535214D01*
X5435357Y-15535214D01*
X5478214Y-15549500D01*
X5506786Y-15578071D01*
X5521071Y-15606643D01*
X5535357Y-15663786D01*
X5535357Y-15706643D01*
X5521071Y-15763786D01*
X5506786Y-15792357D01*
X5478214Y-15820929D01*
X5435357Y-15835214D01*
X5363928Y-15835214D01*
X5663928Y-15835214D02*
X5663928Y-15635214D01*
X5663928Y-15692357D02*
X5678214Y-15663786D01*
X5692500Y-15649500D01*
X5721071Y-15635214D01*
X5749643Y-15635214D01*
X5849643Y-15835214D02*
X5849643Y-15635214D01*
X5849643Y-15535214D02*
X5835357Y-15549500D01*
X5849643Y-15563786D01*
X5863928Y-15549500D01*
X5849643Y-15535214D01*
X5849643Y-15563786D01*
X6035357Y-15835214D02*
X6006786Y-15820929D01*
X5992500Y-15792357D01*
X5992500Y-15535214D01*
X6192500Y-15835214D02*
X6163928Y-15820929D01*
X6149643Y-15792357D01*
X6149643Y-15535214D01*
X6535357Y-15835214D02*
X6535357Y-15535214D01*
X6635357Y-15749500D01*
X6735357Y-15535214D01*
X6735357Y-15835214D01*
X7006786Y-15835214D02*
X7006786Y-15678071D01*
X6992500Y-15649500D01*
X6963928Y-15635214D01*
X6906786Y-15635214D01*
X6878214Y-15649500D01*
X7006786Y-15820929D02*
X6978214Y-15835214D01*
X6906786Y-15835214D01*
X6878214Y-15820929D01*
X6863928Y-15792357D01*
X6863928Y-15763786D01*
X6878214Y-15735214D01*
X6906786Y-15720929D01*
X6978214Y-15720929D01*
X7006786Y-15706643D01*
X7149643Y-15635214D02*
X7149643Y-15935214D01*
X7149643Y-15649500D02*
X7178214Y-15635214D01*
X7235357Y-15635214D01*
X7263928Y-15649500D01*
X7278214Y-15663786D01*
X7292500Y-15692357D01*
X7292500Y-15778071D01*
X7278214Y-15806643D01*
X7263928Y-15820929D01*
X7235357Y-15835214D01*
X7178214Y-15835214D01*
X7149643Y-15820929D01*
X7421071Y-15806643D02*
X7435357Y-15820929D01*
X7421071Y-15835214D01*
X7406786Y-15820929D01*
X7421071Y-15806643D01*
X7421071Y-15835214D01*
X7421071Y-15649500D02*
X7435357Y-15663786D01*
X7421071Y-15678071D01*
X7406786Y-15663786D01*
X7421071Y-15649500D01*
X7421071Y-15678071D01*
X5037500Y-16309500D02*
X5077500Y-16349500D01*
X5077500Y-16309500D02*
X5037500Y-16349500D01*
X5421071Y-16165214D02*
X5449643Y-16165214D01*
X5478214Y-16179500D01*
X5492500Y-16193786D01*
X5506786Y-16222357D01*
X5521071Y-16279500D01*
X5521071Y-16350929D01*
X5506786Y-16408071D01*
X5492500Y-16436643D01*
X5478214Y-16450929D01*
X5449643Y-16465214D01*
X5421071Y-16465214D01*
X5392500Y-16450929D01*
X5378214Y-16436643D01*
X5363928Y-16408071D01*
X5349643Y-16350929D01*
X5349643Y-16279500D01*
X5363928Y-16222357D01*
X5378214Y-16193786D01*
X5392500Y-16179500D01*
X5421071Y-16165214D01*
X5649643Y-16436643D02*
X5663928Y-16450929D01*
X5649643Y-16465214D01*
X5635357Y-16450929D01*
X5649643Y-16436643D01*
X5649643Y-16465214D01*
X5921071Y-16265214D02*
X5921071Y-16465214D01*
X5849643Y-16150929D02*
X5778214Y-16365214D01*
X5963928Y-16365214D01*
X6135357Y-16165214D02*
X6163928Y-16165214D01*
X6192500Y-16179500D01*
X6206786Y-16193786D01*
X6221071Y-16222357D01*
X6235357Y-16279500D01*
X6235357Y-16350929D01*
X6221071Y-16408071D01*
X6206786Y-16436643D01*
X6192500Y-16450929D01*
X6163928Y-16465214D01*
X6135357Y-16465214D01*
X6106786Y-16450929D01*
X6092500Y-16436643D01*
X6078214Y-16408071D01*
X6063928Y-16350929D01*
X6063928Y-16279500D01*
X6078214Y-16222357D01*
X6092500Y-16193786D01*
X6106786Y-16179500D01*
X6135357Y-16165214D01*
X6363928Y-16465214D02*
X6363928Y-16265214D01*
X6363928Y-16293786D02*
X6378214Y-16279500D01*
X6406786Y-16265214D01*
X6449643Y-16265214D01*
X6478214Y-16279500D01*
X6492500Y-16308071D01*
X6492500Y-16465214D01*
X6492500Y-16308071D02*
X6506786Y-16279500D01*
X6535357Y-16265214D01*
X6578214Y-16265214D01*
X6606786Y-16279500D01*
X6621071Y-16308071D01*
X6621071Y-16465214D01*
X6763928Y-16465214D02*
X6763928Y-16265214D01*
X6763928Y-16293786D02*
X6778214Y-16279500D01*
X6806786Y-16265214D01*
X6849643Y-16265214D01*
X6878214Y-16279500D01*
X6892500Y-16308071D01*
X6892500Y-16465214D01*
X6892500Y-16308071D02*
X6906786Y-16279500D01*
X6935357Y-16265214D01*
X6978214Y-16265214D01*
X7006786Y-16279500D01*
X7021071Y-16308071D01*
X7021071Y-16465214D01*
X7606786Y-16150929D02*
X7349643Y-16536643D01*
X7992500Y-16165214D02*
X8021071Y-16165214D01*
X8049643Y-16179500D01*
X8063928Y-16193786D01*
X8078214Y-16222357D01*
X8092500Y-16279500D01*
X8092500Y-16350929D01*
X8078214Y-16408071D01*
X8063928Y-16436643D01*
X8049643Y-16450929D01*
X8021071Y-16465214D01*
X7992500Y-16465214D01*
X7963928Y-16450929D01*
X7949643Y-16436643D01*
X7935357Y-16408071D01*
X7921071Y-16350929D01*
X7921071Y-16279500D01*
X7935357Y-16222357D01*
X7949643Y-16193786D01*
X7963928Y-16179500D01*
X7992500Y-16165214D01*
X8221071Y-16436643D02*
X8235357Y-16450929D01*
X8221071Y-16465214D01*
X8206786Y-16450929D01*
X8221071Y-16436643D01*
X8221071Y-16465214D01*
X8421071Y-16165214D02*
X8449643Y-16165214D01*
X8478214Y-16179500D01*
X8492500Y-16193786D01*
X8506786Y-16222357D01*
X8521071Y-16279500D01*
X8521071Y-16350929D01*
X8506786Y-16408071D01*
X8492500Y-16436643D01*
X8478214Y-16450929D01*
X8449643Y-16465214D01*
X8421071Y-16465214D01*
X8392500Y-16450929D01*
X8378214Y-16436643D01*
X8363928Y-16408071D01*
X8349643Y-16350929D01*
X8349643Y-16279500D01*
X8363928Y-16222357D01*
X8378214Y-16193786D01*
X8392500Y-16179500D01*
X8421071Y-16165214D01*
X8806786Y-16465214D02*
X8635357Y-16465214D01*
X8721071Y-16465214D02*
X8721071Y-16165214D01*
X8692500Y-16208071D01*
X8663928Y-16236643D01*
X8635357Y-16250929D01*
X9063928Y-16165214D02*
X9006786Y-16165214D01*
X8978214Y-16179500D01*
X8963928Y-16193786D01*
X8935357Y-16236643D01*
X8921071Y-16293786D01*
X8921071Y-16408071D01*
X8935357Y-16436643D01*
X8949643Y-16450929D01*
X8978214Y-16465214D01*
X9035357Y-16465214D01*
X9063928Y-16450929D01*
X9078214Y-16436643D01*
X9092500Y-16408071D01*
X9092500Y-16336643D01*
X9078214Y-16308071D01*
X9063928Y-16293786D01*
X9035357Y-16279500D01*
X8978214Y-16279500D01*
X8949643Y-16293786D01*
X8935357Y-16308071D01*
X8921071Y-16336643D01*
X9206786Y-16165214D02*
X9206786Y-16222357D01*
X9321071Y-16165214D02*
X9321071Y-16222357D01*
X9763928Y-16579500D02*
X9749643Y-16565214D01*
X9721071Y-16522357D01*
X9706786Y-16493786D01*
X9692500Y-16450929D01*
X9678214Y-16379500D01*
X9678214Y-16322357D01*
X9692500Y-16250929D01*
X9706786Y-16208071D01*
X9721071Y-16179500D01*
X9749643Y-16136643D01*
X9763928Y-16122357D01*
X9863928Y-16193786D02*
X9878214Y-16179500D01*
X9906786Y-16165214D01*
X9978214Y-16165214D01*
X10006786Y-16179500D01*
X10021071Y-16193786D01*
X10035357Y-16222357D01*
X10035357Y-16250929D01*
X10021071Y-16293786D01*
X9849643Y-16465214D01*
X10035357Y-16465214D01*
X10306786Y-16165214D02*
X10163928Y-16165214D01*
X10149643Y-16308071D01*
X10163928Y-16293786D01*
X10192500Y-16279500D01*
X10263928Y-16279500D01*
X10292500Y-16293786D01*
X10306786Y-16308071D01*
X10321071Y-16336643D01*
X10321071Y-16408071D01*
X10306786Y-16436643D01*
X10292500Y-16450929D01*
X10263928Y-16465214D01*
X10192500Y-16465214D01*
X10163928Y-16450929D01*
X10149643Y-16436643D01*
X10421071Y-16165214D02*
X10606786Y-16165214D01*
X10506786Y-16279500D01*
X10549643Y-16279500D01*
X10578214Y-16293786D01*
X10592500Y-16308071D01*
X10606786Y-16336643D01*
X10606786Y-16408071D01*
X10592500Y-16436643D01*
X10578214Y-16450929D01*
X10549643Y-16465214D01*
X10463928Y-16465214D01*
X10435357Y-16450929D01*
X10421071Y-16436643D01*
X10963928Y-16465214D02*
X10963928Y-16165214D01*
X11092500Y-16465214D02*
X11092500Y-16308071D01*
X11078214Y-16279500D01*
X11049643Y-16265214D01*
X11006786Y-16265214D01*
X10978214Y-16279500D01*
X10963928Y-16293786D01*
X11278214Y-16465214D02*
X11249643Y-16450929D01*
X11235357Y-16436643D01*
X11221071Y-16408071D01*
X11221071Y-16322357D01*
X11235357Y-16293786D01*
X11249643Y-16279500D01*
X11278214Y-16265214D01*
X11321071Y-16265214D01*
X11349643Y-16279500D01*
X11363928Y-16293786D01*
X11378214Y-16322357D01*
X11378214Y-16408071D01*
X11363928Y-16436643D01*
X11349643Y-16450929D01*
X11321071Y-16465214D01*
X11278214Y-16465214D01*
X11549643Y-16465214D02*
X11521071Y-16450929D01*
X11506786Y-16422357D01*
X11506786Y-16165214D01*
X11778214Y-16450929D02*
X11749643Y-16465214D01*
X11692500Y-16465214D01*
X11663928Y-16450929D01*
X11649643Y-16422357D01*
X11649643Y-16308071D01*
X11663928Y-16279500D01*
X11692500Y-16265214D01*
X11749643Y-16265214D01*
X11778214Y-16279500D01*
X11792500Y-16308071D01*
X11792500Y-16336643D01*
X11649643Y-16365214D01*
X11906786Y-16450929D02*
X11935357Y-16465214D01*
X11992500Y-16465214D01*
X12021071Y-16450929D01*
X12035357Y-16422357D01*
X12035357Y-16408071D01*
X12021071Y-16379500D01*
X11992500Y-16365214D01*
X11949643Y-16365214D01*
X11921071Y-16350929D01*
X11906786Y-16322357D01*
X11906786Y-16308071D01*
X11921071Y-16279500D01*
X11949643Y-16265214D01*
X11992500Y-16265214D01*
X12021071Y-16279500D01*
X12135357Y-16579500D02*
X12149643Y-16565214D01*
X12178214Y-16522357D01*
X12192500Y-16493786D01*
X12206786Y-16450929D01*
X12221071Y-16379500D01*
X12221071Y-16322357D01*
X12206786Y-16250929D01*
X12192500Y-16208071D01*
X12178214Y-16179500D01*
X12149643Y-16136643D01*
X12135357Y-16122357D01*
X5077500Y-16725500D02*
G75*
G03X5077500Y-16725500I-40000J0D01*
G01*
X5421071Y-16561214D02*
X5449643Y-16561214D01*
X5478214Y-16575500D01*
X5492500Y-16589786D01*
X5506786Y-16618357D01*
X5521071Y-16675500D01*
X5521071Y-16746929D01*
X5506786Y-16804072D01*
X5492500Y-16832643D01*
X5478214Y-16846929D01*
X5449643Y-16861214D01*
X5421071Y-16861214D01*
X5392500Y-16846929D01*
X5378214Y-16832643D01*
X5363928Y-16804072D01*
X5349643Y-16746929D01*
X5349643Y-16675500D01*
X5363928Y-16618357D01*
X5378214Y-16589786D01*
X5392500Y-16575500D01*
X5421071Y-16561214D01*
X5649643Y-16832643D02*
X5663928Y-16846929D01*
X5649643Y-16861214D01*
X5635357Y-16846929D01*
X5649643Y-16832643D01*
X5649643Y-16861214D01*
X5835357Y-16689786D02*
X5806786Y-16675500D01*
X5792500Y-16661214D01*
X5778214Y-16632643D01*
X5778214Y-16618357D01*
X5792500Y-16589786D01*
X5806786Y-16575500D01*
X5835357Y-16561214D01*
X5892500Y-16561214D01*
X5921071Y-16575500D01*
X5935357Y-16589786D01*
X5949643Y-16618357D01*
X5949643Y-16632643D01*
X5935357Y-16661214D01*
X5921071Y-16675500D01*
X5892500Y-16689786D01*
X5835357Y-16689786D01*
X5806786Y-16704071D01*
X5792500Y-16718357D01*
X5778214Y-16746929D01*
X5778214Y-16804072D01*
X5792500Y-16832643D01*
X5806786Y-16846929D01*
X5835357Y-16861214D01*
X5892500Y-16861214D01*
X5921071Y-16846929D01*
X5935357Y-16832643D01*
X5949643Y-16804072D01*
X5949643Y-16746929D01*
X5935357Y-16718357D01*
X5921071Y-16704071D01*
X5892500Y-16689786D01*
X6135357Y-16561214D02*
X6163928Y-16561214D01*
X6192500Y-16575500D01*
X6206786Y-16589786D01*
X6221071Y-16618357D01*
X6235357Y-16675500D01*
X6235357Y-16746929D01*
X6221071Y-16804072D01*
X6206786Y-16832643D01*
X6192500Y-16846929D01*
X6163928Y-16861214D01*
X6135357Y-16861214D01*
X6106786Y-16846929D01*
X6092500Y-16832643D01*
X6078214Y-16804072D01*
X6063928Y-16746929D01*
X6063928Y-16675500D01*
X6078214Y-16618357D01*
X6092500Y-16589786D01*
X6106786Y-16575500D01*
X6135357Y-16561214D01*
X6363928Y-16861214D02*
X6363928Y-16661214D01*
X6363928Y-16689786D02*
X6378214Y-16675500D01*
X6406786Y-16661214D01*
X6449643Y-16661214D01*
X6478214Y-16675500D01*
X6492500Y-16704071D01*
X6492500Y-16861214D01*
X6492500Y-16704071D02*
X6506786Y-16675500D01*
X6535357Y-16661214D01*
X6578214Y-16661214D01*
X6606786Y-16675500D01*
X6621071Y-16704071D01*
X6621071Y-16861214D01*
X6763928Y-16861214D02*
X6763928Y-16661214D01*
X6763928Y-16689786D02*
X6778214Y-16675500D01*
X6806786Y-16661214D01*
X6849643Y-16661214D01*
X6878214Y-16675500D01*
X6892500Y-16704071D01*
X6892500Y-16861214D01*
X6892500Y-16704071D02*
X6906786Y-16675500D01*
X6935357Y-16661214D01*
X6978214Y-16661214D01*
X7006786Y-16675500D01*
X7021071Y-16704071D01*
X7021071Y-16861214D01*
X7606786Y-16546929D02*
X7349643Y-16932643D01*
X7992500Y-16561214D02*
X8021071Y-16561214D01*
X8049643Y-16575500D01*
X8063928Y-16589786D01*
X8078214Y-16618357D01*
X8092500Y-16675500D01*
X8092500Y-16746929D01*
X8078214Y-16804072D01*
X8063928Y-16832643D01*
X8049643Y-16846929D01*
X8021071Y-16861214D01*
X7992500Y-16861214D01*
X7963928Y-16846929D01*
X7949643Y-16832643D01*
X7935357Y-16804072D01*
X7921071Y-16746929D01*
X7921071Y-16675500D01*
X7935357Y-16618357D01*
X7949643Y-16589786D01*
X7963928Y-16575500D01*
X7992500Y-16561214D01*
X8221071Y-16832643D02*
X8235357Y-16846929D01*
X8221071Y-16861214D01*
X8206786Y-16846929D01*
X8221071Y-16832643D01*
X8221071Y-16861214D01*
X8421071Y-16561214D02*
X8449643Y-16561214D01*
X8478214Y-16575500D01*
X8492500Y-16589786D01*
X8506786Y-16618357D01*
X8521071Y-16675500D01*
X8521071Y-16746929D01*
X8506786Y-16804072D01*
X8492500Y-16832643D01*
X8478214Y-16846929D01*
X8449643Y-16861214D01*
X8421071Y-16861214D01*
X8392500Y-16846929D01*
X8378214Y-16832643D01*
X8363928Y-16804072D01*
X8349643Y-16746929D01*
X8349643Y-16675500D01*
X8363928Y-16618357D01*
X8378214Y-16589786D01*
X8392500Y-16575500D01*
X8421071Y-16561214D01*
X8621071Y-16561214D02*
X8806786Y-16561214D01*
X8706786Y-16675500D01*
X8749643Y-16675500D01*
X8778214Y-16689786D01*
X8792500Y-16704071D01*
X8806786Y-16732643D01*
X8806786Y-16804072D01*
X8792500Y-16832643D01*
X8778214Y-16846929D01*
X8749643Y-16861214D01*
X8663928Y-16861214D01*
X8635357Y-16846929D01*
X8621071Y-16832643D01*
X9092500Y-16861214D02*
X8921071Y-16861214D01*
X9006786Y-16861214D02*
X9006786Y-16561214D01*
X8978214Y-16604071D01*
X8949643Y-16632643D01*
X8921071Y-16646929D01*
X9206786Y-16561214D02*
X9206786Y-16618357D01*
X9321071Y-16561214D02*
X9321071Y-16618357D01*
X9763928Y-16975500D02*
X9749643Y-16961214D01*
X9721071Y-16918357D01*
X9706786Y-16889786D01*
X9692500Y-16846929D01*
X9678214Y-16775500D01*
X9678214Y-16718357D01*
X9692500Y-16646929D01*
X9706786Y-16604071D01*
X9721071Y-16575500D01*
X9749643Y-16532643D01*
X9763928Y-16518357D01*
X9863928Y-16589786D02*
X9878214Y-16575500D01*
X9906786Y-16561214D01*
X9978214Y-16561214D01*
X10006786Y-16575500D01*
X10021071Y-16589786D01*
X10035357Y-16618357D01*
X10035357Y-16646929D01*
X10021071Y-16689786D01*
X9849643Y-16861214D01*
X10035357Y-16861214D01*
X10135357Y-16561214D02*
X10335357Y-16561214D01*
X10206786Y-16861214D01*
X10421071Y-16561214D02*
X10606786Y-16561214D01*
X10506786Y-16675500D01*
X10549643Y-16675500D01*
X10578214Y-16689786D01*
X10592500Y-16704071D01*
X10606786Y-16732643D01*
X10606786Y-16804072D01*
X10592500Y-16832643D01*
X10578214Y-16846929D01*
X10549643Y-16861214D01*
X10463928Y-16861214D01*
X10435357Y-16846929D01*
X10421071Y-16832643D01*
X10963928Y-16861214D02*
X10963928Y-16561214D01*
X11092500Y-16861214D02*
X11092500Y-16704071D01*
X11078214Y-16675500D01*
X11049643Y-16661214D01*
X11006786Y-16661214D01*
X10978214Y-16675500D01*
X10963928Y-16689786D01*
X11278214Y-16861214D02*
X11249643Y-16846929D01*
X11235357Y-16832643D01*
X11221071Y-16804072D01*
X11221071Y-16718357D01*
X11235357Y-16689786D01*
X11249643Y-16675500D01*
X11278214Y-16661214D01*
X11321071Y-16661214D01*
X11349643Y-16675500D01*
X11363928Y-16689786D01*
X11378214Y-16718357D01*
X11378214Y-16804072D01*
X11363928Y-16832643D01*
X11349643Y-16846929D01*
X11321071Y-16861214D01*
X11278214Y-16861214D01*
X11549643Y-16861214D02*
X11521071Y-16846929D01*
X11506786Y-16818357D01*
X11506786Y-16561214D01*
X11778214Y-16846929D02*
X11749643Y-16861214D01*
X11692500Y-16861214D01*
X11663928Y-16846929D01*
X11649643Y-16818357D01*
X11649643Y-16704071D01*
X11663928Y-16675500D01*
X11692500Y-16661214D01*
X11749643Y-16661214D01*
X11778214Y-16675500D01*
X11792500Y-16704071D01*
X11792500Y-16732643D01*
X11649643Y-16761214D01*
X11906786Y-16846929D02*
X11935357Y-16861214D01*
X11992500Y-16861214D01*
X12021071Y-16846929D01*
X12035357Y-16818357D01*
X12035357Y-16804072D01*
X12021071Y-16775500D01*
X11992500Y-16761214D01*
X11949643Y-16761214D01*
X11921071Y-16746929D01*
X11906786Y-16718357D01*
X11906786Y-16704071D01*
X11921071Y-16675500D01*
X11949643Y-16661214D01*
X11992500Y-16661214D01*
X12021071Y-16675500D01*
X12135357Y-16975500D02*
X12149643Y-16961214D01*
X12178214Y-16918357D01*
X12192500Y-16889786D01*
X12206786Y-16846929D01*
X12221071Y-16775500D01*
X12221071Y-16718357D01*
X12206786Y-16646929D01*
X12192500Y-16604071D01*
X12178214Y-16575500D01*
X12149643Y-16532643D01*
X12135357Y-16518357D01*
X5032500Y-17076500D02*
X5032500Y-17166500D01*
X4987500Y-17121500D02*
X5077500Y-17121500D01*
X5421071Y-16957214D02*
X5449643Y-16957214D01*
X5478214Y-16971500D01*
X5492500Y-16985786D01*
X5506786Y-17014357D01*
X5521071Y-17071500D01*
X5521071Y-17142929D01*
X5506786Y-17200072D01*
X5492500Y-17228643D01*
X5478214Y-17242929D01*
X5449643Y-17257214D01*
X5421071Y-17257214D01*
X5392500Y-17242929D01*
X5378214Y-17228643D01*
X5363928Y-17200072D01*
X5349643Y-17142929D01*
X5349643Y-17071500D01*
X5363928Y-17014357D01*
X5378214Y-16985786D01*
X5392500Y-16971500D01*
X5421071Y-16957214D01*
X5649643Y-17228643D02*
X5663928Y-17242929D01*
X5649643Y-17257214D01*
X5635357Y-17242929D01*
X5649643Y-17228643D01*
X5649643Y-17257214D01*
X5806786Y-17257214D02*
X5863928Y-17257214D01*
X5892500Y-17242929D01*
X5906786Y-17228643D01*
X5935357Y-17185786D01*
X5949643Y-17128643D01*
X5949643Y-17014357D01*
X5935357Y-16985786D01*
X5921071Y-16971500D01*
X5892500Y-16957214D01*
X5835357Y-16957214D01*
X5806786Y-16971500D01*
X5792500Y-16985786D01*
X5778214Y-17014357D01*
X5778214Y-17085786D01*
X5792500Y-17114357D01*
X5806786Y-17128643D01*
X5835357Y-17142929D01*
X5892500Y-17142929D01*
X5921071Y-17128643D01*
X5935357Y-17114357D01*
X5949643Y-17085786D01*
X6135357Y-16957214D02*
X6163928Y-16957214D01*
X6192500Y-16971500D01*
X6206786Y-16985786D01*
X6221071Y-17014357D01*
X6235357Y-17071500D01*
X6235357Y-17142929D01*
X6221071Y-17200072D01*
X6206786Y-17228643D01*
X6192500Y-17242929D01*
X6163928Y-17257214D01*
X6135357Y-17257214D01*
X6106786Y-17242929D01*
X6092500Y-17228643D01*
X6078214Y-17200072D01*
X6063928Y-17142929D01*
X6063928Y-17071500D01*
X6078214Y-17014357D01*
X6092500Y-16985786D01*
X6106786Y-16971500D01*
X6135357Y-16957214D01*
X6363928Y-17257214D02*
X6363928Y-17057214D01*
X6363928Y-17085786D02*
X6378214Y-17071500D01*
X6406786Y-17057214D01*
X6449643Y-17057214D01*
X6478214Y-17071500D01*
X6492500Y-17100072D01*
X6492500Y-17257214D01*
X6492500Y-17100072D02*
X6506786Y-17071500D01*
X6535357Y-17057214D01*
X6578214Y-17057214D01*
X6606786Y-17071500D01*
X6621071Y-17100072D01*
X6621071Y-17257214D01*
X6763928Y-17257214D02*
X6763928Y-17057214D01*
X6763928Y-17085786D02*
X6778214Y-17071500D01*
X6806786Y-17057214D01*
X6849643Y-17057214D01*
X6878214Y-17071500D01*
X6892500Y-17100072D01*
X6892500Y-17257214D01*
X6892500Y-17100072D02*
X6906786Y-17071500D01*
X6935357Y-17057214D01*
X6978214Y-17057214D01*
X7006786Y-17071500D01*
X7021071Y-17100072D01*
X7021071Y-17257214D01*
X7606786Y-16942929D02*
X7349643Y-17328643D01*
X7992500Y-16957214D02*
X8021071Y-16957214D01*
X8049643Y-16971500D01*
X8063928Y-16985786D01*
X8078214Y-17014357D01*
X8092500Y-17071500D01*
X8092500Y-17142929D01*
X8078214Y-17200072D01*
X8063928Y-17228643D01*
X8049643Y-17242929D01*
X8021071Y-17257214D01*
X7992500Y-17257214D01*
X7963928Y-17242929D01*
X7949643Y-17228643D01*
X7935357Y-17200072D01*
X7921071Y-17142929D01*
X7921071Y-17071500D01*
X7935357Y-17014357D01*
X7949643Y-16985786D01*
X7963928Y-16971500D01*
X7992500Y-16957214D01*
X8221071Y-17228643D02*
X8235357Y-17242929D01*
X8221071Y-17257214D01*
X8206786Y-17242929D01*
X8221071Y-17228643D01*
X8221071Y-17257214D01*
X8421071Y-16957214D02*
X8449643Y-16957214D01*
X8478214Y-16971500D01*
X8492500Y-16985786D01*
X8506786Y-17014357D01*
X8521071Y-17071500D01*
X8521071Y-17142929D01*
X8506786Y-17200072D01*
X8492500Y-17228643D01*
X8478214Y-17242929D01*
X8449643Y-17257214D01*
X8421071Y-17257214D01*
X8392500Y-17242929D01*
X8378214Y-17228643D01*
X8363928Y-17200072D01*
X8349643Y-17142929D01*
X8349643Y-17071500D01*
X8363928Y-17014357D01*
X8378214Y-16985786D01*
X8392500Y-16971500D01*
X8421071Y-16957214D01*
X8621071Y-16957214D02*
X8806786Y-16957214D01*
X8706786Y-17071500D01*
X8749643Y-17071500D01*
X8778214Y-17085786D01*
X8792500Y-17100072D01*
X8806786Y-17128643D01*
X8806786Y-17200072D01*
X8792500Y-17228643D01*
X8778214Y-17242929D01*
X8749643Y-17257214D01*
X8663928Y-17257214D01*
X8635357Y-17242929D01*
X8621071Y-17228643D01*
X9078214Y-16957214D02*
X8935357Y-16957214D01*
X8921071Y-17100072D01*
X8935357Y-17085786D01*
X8963928Y-17071500D01*
X9035357Y-17071500D01*
X9063928Y-17085786D01*
X9078214Y-17100072D01*
X9092500Y-17128643D01*
X9092500Y-17200072D01*
X9078214Y-17228643D01*
X9063928Y-17242929D01*
X9035357Y-17257214D01*
X8963928Y-17257214D01*
X8935357Y-17242929D01*
X8921071Y-17228643D01*
X9206786Y-16957214D02*
X9206786Y-17014357D01*
X9321071Y-16957214D02*
X9321071Y-17014357D01*
X9763928Y-17371500D02*
X9749643Y-17357214D01*
X9721071Y-17314357D01*
X9706786Y-17285786D01*
X9692500Y-17242929D01*
X9678214Y-17171500D01*
X9678214Y-17114357D01*
X9692500Y-17042929D01*
X9706786Y-17000072D01*
X9721071Y-16971500D01*
X9749643Y-16928643D01*
X9763928Y-16914357D01*
X10006786Y-17057214D02*
X10006786Y-17257214D01*
X9935357Y-16942929D02*
X9863928Y-17157214D01*
X10049643Y-17157214D01*
X10206786Y-17085786D02*
X10178214Y-17071500D01*
X10163928Y-17057214D01*
X10149643Y-17028643D01*
X10149643Y-17014357D01*
X10163928Y-16985786D01*
X10178214Y-16971500D01*
X10206786Y-16957214D01*
X10263928Y-16957214D01*
X10292500Y-16971500D01*
X10306786Y-16985786D01*
X10321071Y-17014357D01*
X10321071Y-17028643D01*
X10306786Y-17057214D01*
X10292500Y-17071500D01*
X10263928Y-17085786D01*
X10206786Y-17085786D01*
X10178214Y-17100072D01*
X10163928Y-17114357D01*
X10149643Y-17142929D01*
X10149643Y-17200072D01*
X10163928Y-17228643D01*
X10178214Y-17242929D01*
X10206786Y-17257214D01*
X10263928Y-17257214D01*
X10292500Y-17242929D01*
X10306786Y-17228643D01*
X10321071Y-17200072D01*
X10321071Y-17142929D01*
X10306786Y-17114357D01*
X10292500Y-17100072D01*
X10263928Y-17085786D01*
X10678214Y-17257214D02*
X10678214Y-16957214D01*
X10806786Y-17257214D02*
X10806786Y-17100072D01*
X10792500Y-17071500D01*
X10763928Y-17057214D01*
X10721071Y-17057214D01*
X10692500Y-17071500D01*
X10678214Y-17085786D01*
X10992500Y-17257214D02*
X10963928Y-17242929D01*
X10949643Y-17228643D01*
X10935357Y-17200072D01*
X10935357Y-17114357D01*
X10949643Y-17085786D01*
X10963928Y-17071500D01*
X10992500Y-17057214D01*
X11035357Y-17057214D01*
X11063928Y-17071500D01*
X11078214Y-17085786D01*
X11092500Y-17114357D01*
X11092500Y-17200072D01*
X11078214Y-17228643D01*
X11063928Y-17242929D01*
X11035357Y-17257214D01*
X10992500Y-17257214D01*
X11263928Y-17257214D02*
X11235357Y-17242929D01*
X11221071Y-17214357D01*
X11221071Y-16957214D01*
X11492500Y-17242929D02*
X11463928Y-17257214D01*
X11406786Y-17257214D01*
X11378214Y-17242929D01*
X11363928Y-17214357D01*
X11363928Y-17100072D01*
X11378214Y-17071500D01*
X11406786Y-17057214D01*
X11463928Y-17057214D01*
X11492500Y-17071500D01*
X11506786Y-17100072D01*
X11506786Y-17128643D01*
X11363928Y-17157214D01*
X11621071Y-17242929D02*
X11649643Y-17257214D01*
X11706786Y-17257214D01*
X11735357Y-17242929D01*
X11749643Y-17214357D01*
X11749643Y-17200072D01*
X11735357Y-17171500D01*
X11706786Y-17157214D01*
X11663928Y-17157214D01*
X11635357Y-17142929D01*
X11621071Y-17114357D01*
X11621071Y-17100072D01*
X11635357Y-17071500D01*
X11663928Y-17057214D01*
X11706786Y-17057214D01*
X11735357Y-17071500D01*
X11849643Y-17371500D02*
X11863928Y-17357214D01*
X11892500Y-17314357D01*
X11906786Y-17285786D01*
X11921071Y-17242929D01*
X11935357Y-17171500D01*
X11935357Y-17114357D01*
X11921071Y-17042929D01*
X11906786Y-17000072D01*
X11892500Y-16971500D01*
X11863928Y-16928643D01*
X11849643Y-16914357D01*
X5062856Y-17552856D02*
X5062856Y-17482144D01*
X4992144Y-17482144D01*
X4992144Y-17552856D01*
X5062856Y-17552856D01*
X5521071Y-17653214D02*
X5349643Y-17653214D01*
X5435357Y-17653214D02*
X5435357Y-17353214D01*
X5406786Y-17396072D01*
X5378214Y-17424643D01*
X5349643Y-17438929D01*
X5649643Y-17624643D02*
X5663928Y-17638929D01*
X5649643Y-17653214D01*
X5635357Y-17638929D01*
X5649643Y-17624643D01*
X5649643Y-17653214D01*
X5849643Y-17353214D02*
X5878214Y-17353214D01*
X5906786Y-17367500D01*
X5921071Y-17381786D01*
X5935357Y-17410357D01*
X5949643Y-17467500D01*
X5949643Y-17538929D01*
X5935357Y-17596072D01*
X5921071Y-17624643D01*
X5906786Y-17638929D01*
X5878214Y-17653214D01*
X5849643Y-17653214D01*
X5821071Y-17638929D01*
X5806786Y-17624643D01*
X5792500Y-17596072D01*
X5778214Y-17538929D01*
X5778214Y-17467500D01*
X5792500Y-17410357D01*
X5806786Y-17381786D01*
X5821071Y-17367500D01*
X5849643Y-17353214D01*
X6135357Y-17353214D02*
X6163928Y-17353214D01*
X6192500Y-17367500D01*
X6206786Y-17381786D01*
X6221071Y-17410357D01*
X6235357Y-17467500D01*
X6235357Y-17538929D01*
X6221071Y-17596072D01*
X6206786Y-17624643D01*
X6192500Y-17638929D01*
X6163928Y-17653214D01*
X6135357Y-17653214D01*
X6106786Y-17638929D01*
X6092500Y-17624643D01*
X6078214Y-17596072D01*
X6063928Y-17538929D01*
X6063928Y-17467500D01*
X6078214Y-17410357D01*
X6092500Y-17381786D01*
X6106786Y-17367500D01*
X6135357Y-17353214D01*
X6363928Y-17653214D02*
X6363928Y-17453214D01*
X6363928Y-17481786D02*
X6378214Y-17467500D01*
X6406786Y-17453214D01*
X6449643Y-17453214D01*
X6478214Y-17467500D01*
X6492500Y-17496072D01*
X6492500Y-17653214D01*
X6492500Y-17496072D02*
X6506786Y-17467500D01*
X6535357Y-17453214D01*
X6578214Y-17453214D01*
X6606786Y-17467500D01*
X6621071Y-17496072D01*
X6621071Y-17653214D01*
X6763928Y-17653214D02*
X6763928Y-17453214D01*
X6763928Y-17481786D02*
X6778214Y-17467500D01*
X6806786Y-17453214D01*
X6849643Y-17453214D01*
X6878214Y-17467500D01*
X6892500Y-17496072D01*
X6892500Y-17653214D01*
X6892500Y-17496072D02*
X6906786Y-17467500D01*
X6935357Y-17453214D01*
X6978214Y-17453214D01*
X7006786Y-17467500D01*
X7021071Y-17496072D01*
X7021071Y-17653214D01*
X7606786Y-17338929D02*
X7349643Y-17724643D01*
X7992500Y-17353214D02*
X8021071Y-17353214D01*
X8049643Y-17367500D01*
X8063928Y-17381786D01*
X8078214Y-17410357D01*
X8092500Y-17467500D01*
X8092500Y-17538929D01*
X8078214Y-17596072D01*
X8063928Y-17624643D01*
X8049643Y-17638929D01*
X8021071Y-17653214D01*
X7992500Y-17653214D01*
X7963928Y-17638929D01*
X7949643Y-17624643D01*
X7935357Y-17596072D01*
X7921071Y-17538929D01*
X7921071Y-17467500D01*
X7935357Y-17410357D01*
X7949643Y-17381786D01*
X7963928Y-17367500D01*
X7992500Y-17353214D01*
X8221071Y-17624643D02*
X8235357Y-17638929D01*
X8221071Y-17653214D01*
X8206786Y-17638929D01*
X8221071Y-17624643D01*
X8221071Y-17653214D01*
X8421071Y-17353214D02*
X8449643Y-17353214D01*
X8478214Y-17367500D01*
X8492500Y-17381786D01*
X8506786Y-17410357D01*
X8521071Y-17467500D01*
X8521071Y-17538929D01*
X8506786Y-17596072D01*
X8492500Y-17624643D01*
X8478214Y-17638929D01*
X8449643Y-17653214D01*
X8421071Y-17653214D01*
X8392500Y-17638929D01*
X8378214Y-17624643D01*
X8363928Y-17596072D01*
X8349643Y-17538929D01*
X8349643Y-17467500D01*
X8363928Y-17410357D01*
X8378214Y-17381786D01*
X8392500Y-17367500D01*
X8421071Y-17353214D01*
X8621071Y-17353214D02*
X8806786Y-17353214D01*
X8706786Y-17467500D01*
X8749643Y-17467500D01*
X8778214Y-17481786D01*
X8792500Y-17496072D01*
X8806786Y-17524643D01*
X8806786Y-17596072D01*
X8792500Y-17624643D01*
X8778214Y-17638929D01*
X8749643Y-17653214D01*
X8663928Y-17653214D01*
X8635357Y-17638929D01*
X8621071Y-17624643D01*
X8949643Y-17653214D02*
X9006786Y-17653214D01*
X9035357Y-17638929D01*
X9049643Y-17624643D01*
X9078214Y-17581786D01*
X9092500Y-17524643D01*
X9092500Y-17410357D01*
X9078214Y-17381786D01*
X9063928Y-17367500D01*
X9035357Y-17353214D01*
X8978214Y-17353214D01*
X8949643Y-17367500D01*
X8935357Y-17381786D01*
X8921071Y-17410357D01*
X8921071Y-17481786D01*
X8935357Y-17510357D01*
X8949643Y-17524643D01*
X8978214Y-17538929D01*
X9035357Y-17538929D01*
X9063928Y-17524643D01*
X9078214Y-17510357D01*
X9092500Y-17481786D01*
X9206786Y-17353214D02*
X9206786Y-17410357D01*
X9321071Y-17353214D02*
X9321071Y-17410357D01*
X9763928Y-17767500D02*
X9749643Y-17753214D01*
X9721071Y-17710357D01*
X9706786Y-17681786D01*
X9692500Y-17638929D01*
X9678214Y-17567500D01*
X9678214Y-17510357D01*
X9692500Y-17438929D01*
X9706786Y-17396072D01*
X9721071Y-17367500D01*
X9749643Y-17324643D01*
X9763928Y-17310357D01*
X9921071Y-17481786D02*
X9892500Y-17467500D01*
X9878214Y-17453214D01*
X9863928Y-17424643D01*
X9863928Y-17410357D01*
X9878214Y-17381786D01*
X9892500Y-17367500D01*
X9921071Y-17353214D01*
X9978214Y-17353214D01*
X10006786Y-17367500D01*
X10021071Y-17381786D01*
X10035357Y-17410357D01*
X10035357Y-17424643D01*
X10021071Y-17453214D01*
X10006786Y-17467500D01*
X9978214Y-17481786D01*
X9921071Y-17481786D01*
X9892500Y-17496072D01*
X9878214Y-17510357D01*
X9863928Y-17538929D01*
X9863928Y-17596072D01*
X9878214Y-17624643D01*
X9892500Y-17638929D01*
X9921071Y-17653214D01*
X9978214Y-17653214D01*
X10006786Y-17638929D01*
X10021071Y-17624643D01*
X10035357Y-17596072D01*
X10035357Y-17538929D01*
X10021071Y-17510357D01*
X10006786Y-17496072D01*
X9978214Y-17481786D01*
X10135357Y-17353214D02*
X10321071Y-17353214D01*
X10221071Y-17467500D01*
X10263928Y-17467500D01*
X10292500Y-17481786D01*
X10306786Y-17496072D01*
X10321071Y-17524643D01*
X10321071Y-17596072D01*
X10306786Y-17624643D01*
X10292500Y-17638929D01*
X10263928Y-17653214D01*
X10178214Y-17653214D01*
X10149643Y-17638929D01*
X10135357Y-17624643D01*
X10678214Y-17653214D02*
X10678214Y-17353214D01*
X10806786Y-17653214D02*
X10806786Y-17496072D01*
X10792500Y-17467500D01*
X10763928Y-17453214D01*
X10721071Y-17453214D01*
X10692500Y-17467500D01*
X10678214Y-17481786D01*
X10992500Y-17653214D02*
X10963928Y-17638929D01*
X10949643Y-17624643D01*
X10935357Y-17596072D01*
X10935357Y-17510357D01*
X10949643Y-17481786D01*
X10963928Y-17467500D01*
X10992500Y-17453214D01*
X11035357Y-17453214D01*
X11063928Y-17467500D01*
X11078214Y-17481786D01*
X11092500Y-17510357D01*
X11092500Y-17596072D01*
X11078214Y-17624643D01*
X11063928Y-17638929D01*
X11035357Y-17653214D01*
X10992500Y-17653214D01*
X11263928Y-17653214D02*
X11235357Y-17638929D01*
X11221071Y-17610357D01*
X11221071Y-17353214D01*
X11492500Y-17638929D02*
X11463928Y-17653214D01*
X11406786Y-17653214D01*
X11378214Y-17638929D01*
X11363928Y-17610357D01*
X11363928Y-17496072D01*
X11378214Y-17467500D01*
X11406786Y-17453214D01*
X11463928Y-17453214D01*
X11492500Y-17467500D01*
X11506786Y-17496072D01*
X11506786Y-17524643D01*
X11363928Y-17553214D01*
X11621071Y-17638929D02*
X11649643Y-17653214D01*
X11706786Y-17653214D01*
X11735357Y-17638929D01*
X11749643Y-17610357D01*
X11749643Y-17596072D01*
X11735357Y-17567500D01*
X11706786Y-17553214D01*
X11663928Y-17553214D01*
X11635357Y-17538929D01*
X11621071Y-17510357D01*
X11621071Y-17496072D01*
X11635357Y-17467500D01*
X11663928Y-17453214D01*
X11706786Y-17453214D01*
X11735357Y-17467500D01*
X11849643Y-17767500D02*
X11863928Y-17753214D01*
X11892500Y-17710357D01*
X11906786Y-17681786D01*
X11921071Y-17638929D01*
X11935357Y-17567500D01*
X11935357Y-17510357D01*
X11921071Y-17438929D01*
X11906786Y-17396072D01*
X11892500Y-17367500D01*
X11863928Y-17324643D01*
X11849643Y-17310357D01*
M02*
