%TF.GenerationSoftware,KiCad,Pcbnew,(7.0.0)*%
%TF.CreationDate,2024-11-17T17:27:43-08:00*%
%TF.ProjectId,status_word,73746174-7573-45f7-976f-72642e6b6963,rev?*%
%TF.SameCoordinates,Original*%
%TF.FileFunction,Drillmap*%
%TF.FilePolarity,Positive*%
%FSLAX45Y45*%
G04 Gerber Fmt 4.5, Leading zero omitted, Abs format (unit mm)*
G04 Created by KiCad (PCBNEW (7.0.0)) date 2024-11-17 17:27:43*
%MOMM*%
%LPD*%
G01*
G04 APERTURE LIST*
%ADD10C,0.100000*%
%ADD11C,0.200000*%
%ADD12C,0.038100*%
%ADD13C,0.080000*%
%ADD14C,0.090000*%
G04 APERTURE END LIST*
D10*
X25400000Y-5270500D02*
X25400000Y-14668500D01*
X25209500Y-14859000D02*
G75*
G03*
X25400000Y-14668500I0J190500D01*
G01*
X5080000Y-14668500D02*
G75*
G03*
X5270500Y-14859000I190500J0D01*
G01*
X5080000Y-14668500D02*
X5080000Y-5270500D01*
X5270500Y-5080000D02*
G75*
G03*
X5080000Y-5270500I0J-190500D01*
G01*
X25209500Y-14859000D02*
X5270500Y-14859000D01*
X25400000Y-5270500D02*
G75*
G03*
X25209500Y-5080000I-190500J0D01*
G01*
X5270500Y-5080000D02*
X25209500Y-5080000D01*
D11*
D12*
X7308850Y-11830050D02*
X7346950Y-11868150D01*
X7346950Y-11830050D02*
X7308850Y-11868150D01*
X7499350Y-11639550D02*
X7537450Y-11677650D01*
X7537450Y-11639550D02*
X7499350Y-11677650D01*
X8261350Y-12782550D02*
X8299450Y-12820650D01*
X8299450Y-12782550D02*
X8261350Y-12820650D01*
X8439150Y-12604750D02*
X8477250Y-12642850D01*
X8477250Y-12604750D02*
X8439150Y-12642850D01*
X8540750Y-13036550D02*
X8578850Y-13074650D01*
X8578850Y-13036550D02*
X8540750Y-13074650D01*
X8718550Y-12858750D02*
X8756650Y-12896850D01*
X8756650Y-12858750D02*
X8718550Y-12896850D01*
X8870950Y-9632950D02*
X8909050Y-9671050D01*
X8909050Y-9632950D02*
X8870950Y-9671050D01*
X9048750Y-9556750D02*
X9086850Y-9594850D01*
X9086850Y-9556750D02*
X9048750Y-9594850D01*
X9226550Y-9480550D02*
X9264650Y-9518650D01*
X9264650Y-9480550D02*
X9226550Y-9518650D01*
X9404350Y-9404350D02*
X9442450Y-9442450D01*
X9442450Y-9404350D02*
X9404350Y-9442450D01*
X10166350Y-11385550D02*
X10204450Y-11423650D01*
X10204450Y-11385550D02*
X10166350Y-11423650D01*
X10496550Y-11233150D02*
X10534650Y-11271250D01*
X10534650Y-11233150D02*
X10496550Y-11271250D01*
X10648950Y-11537950D02*
X10687050Y-11576050D01*
X10687050Y-11537950D02*
X10648950Y-11576050D01*
X10648950Y-11664950D02*
X10687050Y-11703050D01*
X10687050Y-11664950D02*
X10648950Y-11703050D01*
X10775950Y-11385550D02*
X10814050Y-11423650D01*
X10814050Y-11385550D02*
X10775950Y-11423650D01*
X10979150Y-11309350D02*
X11017250Y-11347450D01*
X11017250Y-11309350D02*
X10979150Y-11347450D01*
X11156950Y-7448550D02*
X11195050Y-7486650D01*
X11195050Y-7448550D02*
X11156950Y-7486650D01*
X11182350Y-7321550D02*
X11220450Y-7359650D01*
X11220450Y-7321550D02*
X11182350Y-7359650D01*
X11258550Y-7550150D02*
X11296650Y-7588250D01*
X11296650Y-7550150D02*
X11258550Y-7588250D01*
X11283950Y-7423150D02*
X11322050Y-7461250D01*
X11322050Y-7423150D02*
X11283950Y-7461250D01*
X12172950Y-12528550D02*
X12211050Y-12566650D01*
X12211050Y-12528550D02*
X12172950Y-12566650D01*
X12363450Y-9188450D02*
X12401550Y-9226550D01*
X12401550Y-9188450D02*
X12363450Y-9226550D01*
X12376150Y-8667750D02*
X12414250Y-8705850D01*
X12414250Y-8667750D02*
X12376150Y-8705850D01*
X12426950Y-12528550D02*
X12465050Y-12566650D01*
X12465050Y-12528550D02*
X12426950Y-12566650D01*
X12426950Y-13138150D02*
X12465050Y-13176250D01*
X12465050Y-13138150D02*
X12426950Y-13176250D01*
X12426950Y-13290550D02*
X12465050Y-13328650D01*
X12465050Y-13290550D02*
X12426950Y-13328650D01*
X12452350Y-9277350D02*
X12490450Y-9315450D01*
X12490450Y-9277350D02*
X12452350Y-9315450D01*
X12503150Y-8667750D02*
X12541250Y-8705850D01*
X12541250Y-8667750D02*
X12503150Y-8705850D01*
X12604750Y-9328150D02*
X12642850Y-9366250D01*
X12642850Y-9328150D02*
X12604750Y-9366250D01*
X12655550Y-8108950D02*
X12693650Y-8147050D01*
X12693650Y-8108950D02*
X12655550Y-8147050D01*
X12680950Y-12528550D02*
X12719050Y-12566650D01*
X12719050Y-12528550D02*
X12680950Y-12566650D01*
X12680950Y-13138150D02*
X12719050Y-13176250D01*
X12719050Y-13138150D02*
X12680950Y-13176250D01*
X12680950Y-13366750D02*
X12719050Y-13404850D01*
X12719050Y-13366750D02*
X12680950Y-13404850D01*
X12706350Y-9226550D02*
X12744450Y-9264650D01*
X12744450Y-9226550D02*
X12706350Y-9264650D01*
X12782550Y-9328150D02*
X12820650Y-9366250D01*
X12820650Y-9328150D02*
X12782550Y-9366250D01*
X12858750Y-8108950D02*
X12896850Y-8147050D01*
X12896850Y-8108950D02*
X12858750Y-8147050D01*
X12858750Y-8667750D02*
X12896850Y-8705850D01*
X12896850Y-8667750D02*
X12858750Y-8705850D01*
X12858750Y-8794750D02*
X12896850Y-8832850D01*
X12896850Y-8794750D02*
X12858750Y-8832850D01*
X12934950Y-12528550D02*
X12973050Y-12566650D01*
X12973050Y-12528550D02*
X12934950Y-12566650D01*
X12934950Y-13138150D02*
X12973050Y-13176250D01*
X12973050Y-13138150D02*
X12934950Y-13176250D01*
X12934950Y-13442950D02*
X12973050Y-13481050D01*
X12973050Y-13442950D02*
X12934950Y-13481050D01*
X12960350Y-9328150D02*
X12998450Y-9366250D01*
X12998450Y-9328150D02*
X12960350Y-9366250D01*
X13188950Y-12528550D02*
X13227050Y-12566650D01*
X13227050Y-12528550D02*
X13188950Y-12566650D01*
X13188950Y-13138150D02*
X13227050Y-13176250D01*
X13227050Y-13138150D02*
X13188950Y-13176250D01*
X13188950Y-13519150D02*
X13227050Y-13557250D01*
X13227050Y-13519150D02*
X13188950Y-13557250D01*
X13442950Y-12528550D02*
X13481050Y-12566650D01*
X13481050Y-12528550D02*
X13442950Y-12566650D01*
X13442950Y-13138150D02*
X13481050Y-13176250D01*
X13481050Y-13138150D02*
X13442950Y-13176250D01*
X13442950Y-13595350D02*
X13481050Y-13633450D01*
X13481050Y-13595350D02*
X13442950Y-13633450D01*
X13696950Y-7931150D02*
X13735050Y-7969250D01*
X13735050Y-7931150D02*
X13696950Y-7969250D01*
X13696950Y-12528550D02*
X13735050Y-12566650D01*
X13735050Y-12528550D02*
X13696950Y-12566650D01*
X13696950Y-13138150D02*
X13735050Y-13176250D01*
X13735050Y-13138150D02*
X13696950Y-13176250D01*
X13696950Y-13671550D02*
X13735050Y-13709650D01*
X13735050Y-13671550D02*
X13696950Y-13709650D01*
X13950950Y-12528550D02*
X13989050Y-12566650D01*
X13989050Y-12528550D02*
X13950950Y-12566650D01*
X13950950Y-13138150D02*
X13989050Y-13176250D01*
X13989050Y-13138150D02*
X13950950Y-13176250D01*
X13950950Y-13747750D02*
X13989050Y-13785850D01*
X13989050Y-13747750D02*
X13950950Y-13785850D01*
X14204950Y-8439150D02*
X14243050Y-8477250D01*
X14243050Y-8439150D02*
X14204950Y-8477250D01*
X14585950Y-9328150D02*
X14624050Y-9366250D01*
X14624050Y-9328150D02*
X14585950Y-9366250D01*
X14585950Y-10623550D02*
X14624050Y-10661650D01*
X14624050Y-10623550D02*
X14585950Y-10661650D01*
X14865350Y-11690350D02*
X14903450Y-11728450D01*
X14903450Y-11690350D02*
X14865350Y-11728450D01*
X14966950Y-9328150D02*
X15005050Y-9366250D01*
X15005050Y-9328150D02*
X14966950Y-9366250D01*
X14966950Y-10623550D02*
X15005050Y-10661650D01*
X15005050Y-10623550D02*
X14966950Y-10661650D01*
X15068550Y-11690350D02*
X15106650Y-11728450D01*
X15106650Y-11690350D02*
X15068550Y-11728450D01*
X15220950Y-8413750D02*
X15259050Y-8451850D01*
X15259050Y-8413750D02*
X15220950Y-8451850D01*
X15424150Y-8108950D02*
X15462250Y-8147050D01*
X15462250Y-8108950D02*
X15424150Y-8147050D01*
X15424150Y-8413750D02*
X15462250Y-8451850D01*
X15462250Y-8413750D02*
X15424150Y-8451850D01*
X15474950Y-11639550D02*
X15513050Y-11677650D01*
X15513050Y-11639550D02*
X15474950Y-11677650D01*
X15474950Y-12604750D02*
X15513050Y-12642850D01*
X15513050Y-12604750D02*
X15474950Y-12642850D01*
X15601950Y-9404350D02*
X15640050Y-9442450D01*
X15640050Y-9404350D02*
X15601950Y-9442450D01*
X15601950Y-10623550D02*
X15640050Y-10661650D01*
X15640050Y-10623550D02*
X15601950Y-10661650D01*
X15728950Y-12680950D02*
X15767050Y-12719050D01*
X15767050Y-12680950D02*
X15728950Y-12719050D01*
X15855950Y-9937750D02*
X15894050Y-9975850D01*
X15894050Y-9937750D02*
X15855950Y-9975850D01*
X15855950Y-10623550D02*
X15894050Y-10661650D01*
X15894050Y-10623550D02*
X15855950Y-10661650D01*
X15982950Y-12680950D02*
X16021050Y-12719050D01*
X16021050Y-12680950D02*
X15982950Y-12719050D01*
X16109950Y-9480550D02*
X16148050Y-9518650D01*
X16148050Y-9480550D02*
X16109950Y-9518650D01*
X16109950Y-10623550D02*
X16148050Y-10661650D01*
X16148050Y-10623550D02*
X16109950Y-10661650D01*
X16236950Y-12757150D02*
X16275050Y-12795250D01*
X16275050Y-12757150D02*
X16236950Y-12795250D01*
X16363950Y-9861550D02*
X16402050Y-9899650D01*
X16402050Y-9861550D02*
X16363950Y-9899650D01*
X16363950Y-10623550D02*
X16402050Y-10661650D01*
X16402050Y-10623550D02*
X16363950Y-10661650D01*
X16490950Y-9328150D02*
X16529050Y-9366250D01*
X16529050Y-9328150D02*
X16490950Y-9366250D01*
X16490950Y-10547350D02*
X16529050Y-10585450D01*
X16529050Y-10547350D02*
X16490950Y-10585450D01*
X16490950Y-12757150D02*
X16529050Y-12795250D01*
X16529050Y-12757150D02*
X16490950Y-12795250D01*
X16617950Y-9556750D02*
X16656050Y-9594850D01*
X16656050Y-9556750D02*
X16617950Y-9594850D01*
X16617950Y-10623550D02*
X16656050Y-10661650D01*
X16656050Y-10623550D02*
X16617950Y-10661650D01*
X16744950Y-9328150D02*
X16783050Y-9366250D01*
X16783050Y-9328150D02*
X16744950Y-9366250D01*
X16744950Y-10471150D02*
X16783050Y-10509250D01*
X16783050Y-10471150D02*
X16744950Y-10509250D01*
X16744950Y-12833350D02*
X16783050Y-12871450D01*
X16783050Y-12833350D02*
X16744950Y-12871450D01*
X16871950Y-9785350D02*
X16910050Y-9823450D01*
X16910050Y-9785350D02*
X16871950Y-9823450D01*
X16871950Y-10623550D02*
X16910050Y-10661650D01*
X16910050Y-10623550D02*
X16871950Y-10661650D01*
X16998950Y-9328150D02*
X17037050Y-9366250D01*
X17037050Y-9328150D02*
X16998950Y-9366250D01*
X16998950Y-10394950D02*
X17037050Y-10433050D01*
X17037050Y-10394950D02*
X16998950Y-10433050D01*
X16998950Y-12833350D02*
X17037050Y-12871450D01*
X17037050Y-12833350D02*
X16998950Y-12871450D01*
X17125950Y-9632950D02*
X17164050Y-9671050D01*
X17164050Y-9632950D02*
X17125950Y-9671050D01*
X17125950Y-10623550D02*
X17164050Y-10661650D01*
X17164050Y-10623550D02*
X17125950Y-10661650D01*
X17252950Y-9328150D02*
X17291050Y-9366250D01*
X17291050Y-9328150D02*
X17252950Y-9366250D01*
X17252950Y-10318750D02*
X17291050Y-10356850D01*
X17291050Y-10318750D02*
X17252950Y-10356850D01*
X17252950Y-12909550D02*
X17291050Y-12947650D01*
X17291050Y-12909550D02*
X17252950Y-12947650D01*
X17379950Y-9709150D02*
X17418050Y-9747250D01*
X17418050Y-9709150D02*
X17379950Y-9747250D01*
X17379950Y-10623550D02*
X17418050Y-10661650D01*
X17418050Y-10623550D02*
X17379950Y-10661650D01*
X17506950Y-9328150D02*
X17545050Y-9366250D01*
X17545050Y-9328150D02*
X17506950Y-9366250D01*
X17506950Y-10242550D02*
X17545050Y-10280650D01*
X17545050Y-10242550D02*
X17506950Y-10280650D01*
X17760950Y-9328150D02*
X17799050Y-9366250D01*
X17799050Y-9328150D02*
X17760950Y-9366250D01*
X17760950Y-10166350D02*
X17799050Y-10204450D01*
X17799050Y-10166350D02*
X17760950Y-10204450D01*
X18014950Y-9328150D02*
X18053050Y-9366250D01*
X18053050Y-9328150D02*
X18014950Y-9366250D01*
X18014950Y-10090150D02*
X18053050Y-10128250D01*
X18053050Y-10090150D02*
X18014950Y-10128250D01*
X18167350Y-12172950D02*
X18205450Y-12211050D01*
X18205450Y-12172950D02*
X18167350Y-12211050D01*
X18268950Y-9328150D02*
X18307050Y-9366250D01*
X18307050Y-9328150D02*
X18268950Y-9366250D01*
X18268950Y-10013950D02*
X18307050Y-10052050D01*
X18307050Y-10013950D02*
X18268950Y-10052050D01*
X18522950Y-12528550D02*
X18561050Y-12566650D01*
X18561050Y-12528550D02*
X18522950Y-12566650D01*
X18649950Y-10013950D02*
X18688050Y-10052050D01*
X18688050Y-10013950D02*
X18649950Y-10052050D01*
X18649950Y-10623550D02*
X18688050Y-10661650D01*
X18688050Y-10623550D02*
X18649950Y-10661650D01*
X19030950Y-13214350D02*
X19069050Y-13252450D01*
X19069050Y-13214350D02*
X19030950Y-13252450D01*
X19157950Y-12325350D02*
X19196050Y-12363450D01*
X19196050Y-12325350D02*
X19157950Y-12363450D01*
X19157950Y-13747750D02*
X19196050Y-13785850D01*
X19196050Y-13747750D02*
X19157950Y-13785850D01*
X19284950Y-13290550D02*
X19323050Y-13328650D01*
X19323050Y-13290550D02*
X19284950Y-13328650D01*
X19411950Y-10090150D02*
X19450050Y-10128250D01*
X19450050Y-10090150D02*
X19411950Y-10128250D01*
X19411950Y-10547350D02*
X19450050Y-10585450D01*
X19450050Y-10547350D02*
X19411950Y-10585450D01*
X19411950Y-12325350D02*
X19450050Y-12363450D01*
X19450050Y-12325350D02*
X19411950Y-12363450D01*
X19411950Y-13671550D02*
X19450050Y-13709650D01*
X19450050Y-13671550D02*
X19411950Y-13709650D01*
X19665950Y-10166350D02*
X19704050Y-10204450D01*
X19704050Y-10166350D02*
X19665950Y-10204450D01*
X19665950Y-10471150D02*
X19704050Y-10509250D01*
X19704050Y-10471150D02*
X19665950Y-10509250D01*
X20046950Y-13366750D02*
X20085050Y-13404850D01*
X20085050Y-13366750D02*
X20046950Y-13404850D01*
X20173950Y-12325350D02*
X20212050Y-12363450D01*
X20212050Y-12325350D02*
X20173950Y-12363450D01*
X20173950Y-13595350D02*
X20212050Y-13633450D01*
X20212050Y-13595350D02*
X20173950Y-13633450D01*
X20300950Y-13442950D02*
X20339050Y-13481050D01*
X20339050Y-13442950D02*
X20300950Y-13481050D01*
X20427950Y-10242550D02*
X20466050Y-10280650D01*
X20466050Y-10242550D02*
X20427950Y-10280650D01*
X20427950Y-10394950D02*
X20466050Y-10433050D01*
X20466050Y-10394950D02*
X20427950Y-10433050D01*
X20427950Y-12325350D02*
X20466050Y-12363450D01*
X20466050Y-12325350D02*
X20427950Y-12363450D01*
X20427950Y-13569950D02*
X20466050Y-13608050D01*
X20466050Y-13569950D02*
X20427950Y-13608050D01*
X21418550Y-11563350D02*
X21456650Y-11601450D01*
X21456650Y-11563350D02*
X21418550Y-11601450D01*
X21570950Y-9328150D02*
X21609050Y-9366250D01*
X21609050Y-9328150D02*
X21570950Y-9366250D01*
X21570950Y-9937750D02*
X21609050Y-9975850D01*
X21609050Y-9937750D02*
X21570950Y-9975850D01*
X21824950Y-9328150D02*
X21863050Y-9366250D01*
X21863050Y-9328150D02*
X21824950Y-9366250D01*
X21824950Y-9861550D02*
X21863050Y-9899650D01*
X21863050Y-9861550D02*
X21824950Y-9899650D01*
X21951950Y-9404350D02*
X21990050Y-9442450D01*
X21990050Y-9404350D02*
X21951950Y-9442450D01*
X21951950Y-10013950D02*
X21990050Y-10052050D01*
X21990050Y-10013950D02*
X21951950Y-10052050D01*
X22078950Y-9328150D02*
X22117050Y-9366250D01*
X22117050Y-9328150D02*
X22078950Y-9366250D01*
X22078950Y-9785350D02*
X22117050Y-9823450D01*
X22117050Y-9785350D02*
X22078950Y-9823450D01*
X22332950Y-9328150D02*
X22371050Y-9366250D01*
X22371050Y-9328150D02*
X22332950Y-9366250D01*
X22332950Y-9709150D02*
X22371050Y-9747250D01*
X22371050Y-9709150D02*
X22332950Y-9747250D01*
X22459950Y-12528550D02*
X22498050Y-12566650D01*
X22498050Y-12528550D02*
X22459950Y-12566650D01*
X22459950Y-13138150D02*
X22498050Y-13176250D01*
X22498050Y-13138150D02*
X22459950Y-13176250D01*
X22586950Y-9328150D02*
X22625050Y-9366250D01*
X22625050Y-9328150D02*
X22586950Y-9366250D01*
X22586950Y-9632950D02*
X22625050Y-9671050D01*
X22625050Y-9632950D02*
X22586950Y-9671050D01*
X22586950Y-12528550D02*
X22625050Y-12566650D01*
X22625050Y-12528550D02*
X22586950Y-12566650D01*
X22586950Y-12680950D02*
X22625050Y-12719050D01*
X22625050Y-12680950D02*
X22586950Y-12719050D01*
X22713950Y-9480550D02*
X22752050Y-9518650D01*
X22752050Y-9480550D02*
X22713950Y-9518650D01*
X22713950Y-9937750D02*
X22752050Y-9975850D01*
X22752050Y-9937750D02*
X22713950Y-9975850D01*
X22713950Y-12528550D02*
X22752050Y-12566650D01*
X22752050Y-12528550D02*
X22713950Y-12566650D01*
X22713950Y-13061950D02*
X22752050Y-13100050D01*
X22752050Y-13061950D02*
X22713950Y-13100050D01*
X22840950Y-9328150D02*
X22879050Y-9366250D01*
X22879050Y-9328150D02*
X22840950Y-9366250D01*
X22840950Y-9556750D02*
X22879050Y-9594850D01*
X22879050Y-9556750D02*
X22840950Y-9594850D01*
X22967950Y-9556750D02*
X23006050Y-9594850D01*
X23006050Y-9556750D02*
X22967950Y-9594850D01*
X22967950Y-9861550D02*
X23006050Y-9899650D01*
X23006050Y-9861550D02*
X22967950Y-9899650D01*
X23094950Y-9328150D02*
X23133050Y-9366250D01*
X23133050Y-9328150D02*
X23094950Y-9366250D01*
X23094950Y-9480550D02*
X23133050Y-9518650D01*
X23133050Y-9480550D02*
X23094950Y-9518650D01*
X23348950Y-12528550D02*
X23387050Y-12566650D01*
X23387050Y-12528550D02*
X23348950Y-12566650D01*
X23348950Y-12757150D02*
X23387050Y-12795250D01*
X23387050Y-12757150D02*
X23348950Y-12795250D01*
X23348950Y-12909550D02*
X23387050Y-12947650D01*
X23387050Y-12909550D02*
X23348950Y-12947650D01*
X23348950Y-13061950D02*
X23387050Y-13100050D01*
X23387050Y-13061950D02*
X23348950Y-13100050D01*
X23475950Y-12528550D02*
X23514050Y-12566650D01*
X23514050Y-12528550D02*
X23475950Y-12566650D01*
X23475950Y-12985750D02*
X23514050Y-13023850D01*
X23514050Y-12985750D02*
X23475950Y-13023850D01*
X23602950Y-12528550D02*
X23641050Y-12566650D01*
X23641050Y-12528550D02*
X23602950Y-12566650D01*
X23602950Y-12833350D02*
X23641050Y-12871450D01*
X23641050Y-12833350D02*
X23602950Y-12871450D01*
X23602950Y-12985750D02*
X23641050Y-13023850D01*
X23641050Y-12985750D02*
X23602950Y-13023850D01*
X23729950Y-9632950D02*
X23768050Y-9671050D01*
X23768050Y-9632950D02*
X23729950Y-9671050D01*
X23729950Y-9785350D02*
X23768050Y-9823450D01*
X23768050Y-9785350D02*
X23729950Y-9823450D01*
X23729950Y-12528550D02*
X23768050Y-12566650D01*
X23768050Y-12528550D02*
X23729950Y-12566650D01*
X23729950Y-12909550D02*
X23768050Y-12947650D01*
X23768050Y-12909550D02*
X23729950Y-12947650D01*
D13*
X5374000Y-11684000D02*
G75*
G03*
X5374000Y-11684000I-40000J0D01*
G01*
X5628000Y-13462000D02*
G75*
G03*
X5628000Y-13462000I-40000J0D01*
G01*
X5628000Y-14478000D02*
G75*
G03*
X5628000Y-14478000I-40000J0D01*
G01*
X6390000Y-11684000D02*
G75*
G03*
X6390000Y-11684000I-40000J0D01*
G01*
X6644000Y-7874000D02*
G75*
G03*
X6644000Y-7874000I-40000J0D01*
G01*
X6644000Y-8128000D02*
G75*
G03*
X6644000Y-8128000I-40000J0D01*
G01*
X6644000Y-8382000D02*
G75*
G03*
X6644000Y-8382000I-40000J0D01*
G01*
X6644000Y-8636000D02*
G75*
G03*
X6644000Y-8636000I-40000J0D01*
G01*
X6644000Y-8890000D02*
G75*
G03*
X6644000Y-8890000I-40000J0D01*
G01*
X6644000Y-9144000D02*
G75*
G03*
X6644000Y-9144000I-40000J0D01*
G01*
X6644000Y-9398000D02*
G75*
G03*
X6644000Y-9398000I-40000J0D01*
G01*
X6644000Y-9652000D02*
G75*
G03*
X6644000Y-9652000I-40000J0D01*
G01*
X6644000Y-9906000D02*
G75*
G03*
X6644000Y-9906000I-40000J0D01*
G01*
X10708000Y-13212000D02*
G75*
G03*
X10708000Y-13212000I-40000J0D01*
G01*
X10708000Y-13462000D02*
G75*
G03*
X10708000Y-13462000I-40000J0D01*
G01*
X11470000Y-11430000D02*
G75*
G03*
X11470000Y-11430000I-40000J0D01*
G01*
X11470000Y-11930000D02*
G75*
G03*
X11470000Y-11930000I-40000J0D01*
G01*
X11978000Y-11430000D02*
G75*
G03*
X11978000Y-11430000I-40000J0D01*
G01*
X11978000Y-12192000D02*
G75*
G03*
X11978000Y-12192000I-40000J0D01*
G01*
X12232000Y-11430000D02*
G75*
G03*
X12232000Y-11430000I-40000J0D01*
G01*
X12232000Y-12192000D02*
G75*
G03*
X12232000Y-12192000I-40000J0D01*
G01*
X12486000Y-11430000D02*
G75*
G03*
X12486000Y-11430000I-40000J0D01*
G01*
X12486000Y-12192000D02*
G75*
G03*
X12486000Y-12192000I-40000J0D01*
G01*
X12740000Y-11430000D02*
G75*
G03*
X12740000Y-11430000I-40000J0D01*
G01*
X12740000Y-12192000D02*
G75*
G03*
X12740000Y-12192000I-40000J0D01*
G01*
X12994000Y-11430000D02*
G75*
G03*
X12994000Y-11430000I-40000J0D01*
G01*
X12994000Y-12192000D02*
G75*
G03*
X12994000Y-12192000I-40000J0D01*
G01*
X13248000Y-8128000D02*
G75*
G03*
X13248000Y-8128000I-40000J0D01*
G01*
X13248000Y-8628000D02*
G75*
G03*
X13248000Y-8628000I-40000J0D01*
G01*
X13248000Y-11430000D02*
G75*
G03*
X13248000Y-11430000I-40000J0D01*
G01*
X13248000Y-12192000D02*
G75*
G03*
X13248000Y-12192000I-40000J0D01*
G01*
X13502000Y-11430000D02*
G75*
G03*
X13502000Y-11430000I-40000J0D01*
G01*
X13502000Y-12192000D02*
G75*
G03*
X13502000Y-12192000I-40000J0D01*
G01*
X13756000Y-8128000D02*
G75*
G03*
X13756000Y-8128000I-40000J0D01*
G01*
X13756000Y-8890000D02*
G75*
G03*
X13756000Y-8890000I-40000J0D01*
G01*
X13756000Y-11430000D02*
G75*
G03*
X13756000Y-11430000I-40000J0D01*
G01*
X13756000Y-12192000D02*
G75*
G03*
X13756000Y-12192000I-40000J0D01*
G01*
X14010000Y-8128000D02*
G75*
G03*
X14010000Y-8128000I-40000J0D01*
G01*
X14010000Y-8890000D02*
G75*
G03*
X14010000Y-8890000I-40000J0D01*
G01*
X14010000Y-11430000D02*
G75*
G03*
X14010000Y-11430000I-40000J0D01*
G01*
X14010000Y-12192000D02*
G75*
G03*
X14010000Y-12192000I-40000J0D01*
G01*
X14264000Y-7620000D02*
G75*
G03*
X14264000Y-7620000I-40000J0D01*
G01*
X14264000Y-8128000D02*
G75*
G03*
X14264000Y-8128000I-40000J0D01*
G01*
X14264000Y-8890000D02*
G75*
G03*
X14264000Y-8890000I-40000J0D01*
G01*
X14264000Y-11430000D02*
G75*
G03*
X14264000Y-11430000I-40000J0D01*
G01*
X14264000Y-12192000D02*
G75*
G03*
X14264000Y-12192000I-40000J0D01*
G01*
X14518000Y-8128000D02*
G75*
G03*
X14518000Y-8128000I-40000J0D01*
G01*
X14518000Y-8890000D02*
G75*
G03*
X14518000Y-8890000I-40000J0D01*
G01*
X14772000Y-8128000D02*
G75*
G03*
X14772000Y-8128000I-40000J0D01*
G01*
X14772000Y-8890000D02*
G75*
G03*
X14772000Y-8890000I-40000J0D01*
G01*
X14772000Y-11430000D02*
G75*
G03*
X14772000Y-11430000I-40000J0D01*
G01*
X14772000Y-11930000D02*
G75*
G03*
X14772000Y-11930000I-40000J0D01*
G01*
X15026000Y-8128000D02*
G75*
G03*
X15026000Y-8128000I-40000J0D01*
G01*
X15026000Y-8890000D02*
G75*
G03*
X15026000Y-8890000I-40000J0D01*
G01*
X15280000Y-7620000D02*
G75*
G03*
X15280000Y-7620000I-40000J0D01*
G01*
X15280000Y-8128000D02*
G75*
G03*
X15280000Y-8128000I-40000J0D01*
G01*
X15280000Y-8890000D02*
G75*
G03*
X15280000Y-8890000I-40000J0D01*
G01*
X15280000Y-11430000D02*
G75*
G03*
X15280000Y-11430000I-40000J0D01*
G01*
X15280000Y-12192000D02*
G75*
G03*
X15280000Y-12192000I-40000J0D01*
G01*
X15534000Y-11430000D02*
G75*
G03*
X15534000Y-11430000I-40000J0D01*
G01*
X15534000Y-12192000D02*
G75*
G03*
X15534000Y-12192000I-40000J0D01*
G01*
X15788000Y-8128000D02*
G75*
G03*
X15788000Y-8128000I-40000J0D01*
G01*
X15788000Y-8628000D02*
G75*
G03*
X15788000Y-8628000I-40000J0D01*
G01*
X15788000Y-11430000D02*
G75*
G03*
X15788000Y-11430000I-40000J0D01*
G01*
X15788000Y-12192000D02*
G75*
G03*
X15788000Y-12192000I-40000J0D01*
G01*
X16042000Y-11430000D02*
G75*
G03*
X16042000Y-11430000I-40000J0D01*
G01*
X16042000Y-12192000D02*
G75*
G03*
X16042000Y-12192000I-40000J0D01*
G01*
X16296000Y-8128000D02*
G75*
G03*
X16296000Y-8128000I-40000J0D01*
G01*
X16296000Y-8890000D02*
G75*
G03*
X16296000Y-8890000I-40000J0D01*
G01*
X16296000Y-11430000D02*
G75*
G03*
X16296000Y-11430000I-40000J0D01*
G01*
X16296000Y-12192000D02*
G75*
G03*
X16296000Y-12192000I-40000J0D01*
G01*
X16550000Y-8128000D02*
G75*
G03*
X16550000Y-8128000I-40000J0D01*
G01*
X16550000Y-8890000D02*
G75*
G03*
X16550000Y-8890000I-40000J0D01*
G01*
X16550000Y-11430000D02*
G75*
G03*
X16550000Y-11430000I-40000J0D01*
G01*
X16550000Y-12192000D02*
G75*
G03*
X16550000Y-12192000I-40000J0D01*
G01*
X16804000Y-8128000D02*
G75*
G03*
X16804000Y-8128000I-40000J0D01*
G01*
X16804000Y-8890000D02*
G75*
G03*
X16804000Y-8890000I-40000J0D01*
G01*
X16804000Y-11430000D02*
G75*
G03*
X16804000Y-11430000I-40000J0D01*
G01*
X16804000Y-12192000D02*
G75*
G03*
X16804000Y-12192000I-40000J0D01*
G01*
X17058000Y-7239000D02*
G75*
G03*
X17058000Y-7239000I-40000J0D01*
G01*
X17058000Y-8128000D02*
G75*
G03*
X17058000Y-8128000I-40000J0D01*
G01*
X17058000Y-8890000D02*
G75*
G03*
X17058000Y-8890000I-40000J0D01*
G01*
X17058000Y-11430000D02*
G75*
G03*
X17058000Y-11430000I-40000J0D01*
G01*
X17058000Y-12192000D02*
G75*
G03*
X17058000Y-12192000I-40000J0D01*
G01*
X17312000Y-7239000D02*
G75*
G03*
X17312000Y-7239000I-40000J0D01*
G01*
X17312000Y-8128000D02*
G75*
G03*
X17312000Y-8128000I-40000J0D01*
G01*
X17312000Y-8890000D02*
G75*
G03*
X17312000Y-8890000I-40000J0D01*
G01*
X17312000Y-11430000D02*
G75*
G03*
X17312000Y-11430000I-40000J0D01*
G01*
X17312000Y-12192000D02*
G75*
G03*
X17312000Y-12192000I-40000J0D01*
G01*
X17566000Y-7239000D02*
G75*
G03*
X17566000Y-7239000I-40000J0D01*
G01*
X17566000Y-8128000D02*
G75*
G03*
X17566000Y-8128000I-40000J0D01*
G01*
X17566000Y-8890000D02*
G75*
G03*
X17566000Y-8890000I-40000J0D01*
G01*
X17566000Y-11430000D02*
G75*
G03*
X17566000Y-11430000I-40000J0D01*
G01*
X17566000Y-12192000D02*
G75*
G03*
X17566000Y-12192000I-40000J0D01*
G01*
X17820000Y-7239000D02*
G75*
G03*
X17820000Y-7239000I-40000J0D01*
G01*
X17820000Y-8128000D02*
G75*
G03*
X17820000Y-8128000I-40000J0D01*
G01*
X17820000Y-8890000D02*
G75*
G03*
X17820000Y-8890000I-40000J0D01*
G01*
X18074000Y-7239000D02*
G75*
G03*
X18074000Y-7239000I-40000J0D01*
G01*
X18074000Y-8128000D02*
G75*
G03*
X18074000Y-8128000I-40000J0D01*
G01*
X18074000Y-8890000D02*
G75*
G03*
X18074000Y-8890000I-40000J0D01*
G01*
X18074000Y-11430000D02*
G75*
G03*
X18074000Y-11430000I-40000J0D01*
G01*
X18074000Y-11930000D02*
G75*
G03*
X18074000Y-11930000I-40000J0D01*
G01*
X18328000Y-7239000D02*
G75*
G03*
X18328000Y-7239000I-40000J0D01*
G01*
X18328000Y-8128000D02*
G75*
G03*
X18328000Y-8128000I-40000J0D01*
G01*
X18328000Y-8890000D02*
G75*
G03*
X18328000Y-8890000I-40000J0D01*
G01*
X18582000Y-7239000D02*
G75*
G03*
X18582000Y-7239000I-40000J0D01*
G01*
X18582000Y-8128000D02*
G75*
G03*
X18582000Y-8128000I-40000J0D01*
G01*
X18582000Y-8890000D02*
G75*
G03*
X18582000Y-8890000I-40000J0D01*
G01*
X18582000Y-11430000D02*
G75*
G03*
X18582000Y-11430000I-40000J0D01*
G01*
X18582000Y-12192000D02*
G75*
G03*
X18582000Y-12192000I-40000J0D01*
G01*
X18836000Y-7239000D02*
G75*
G03*
X18836000Y-7239000I-40000J0D01*
G01*
X18836000Y-11430000D02*
G75*
G03*
X18836000Y-11430000I-40000J0D01*
G01*
X18836000Y-12192000D02*
G75*
G03*
X18836000Y-12192000I-40000J0D01*
G01*
X19090000Y-7239000D02*
G75*
G03*
X19090000Y-7239000I-40000J0D01*
G01*
X19090000Y-11430000D02*
G75*
G03*
X19090000Y-11430000I-40000J0D01*
G01*
X19090000Y-12192000D02*
G75*
G03*
X19090000Y-12192000I-40000J0D01*
G01*
X19344000Y-11430000D02*
G75*
G03*
X19344000Y-11430000I-40000J0D01*
G01*
X19344000Y-12192000D02*
G75*
G03*
X19344000Y-12192000I-40000J0D01*
G01*
X19598000Y-11430000D02*
G75*
G03*
X19598000Y-11430000I-40000J0D01*
G01*
X19598000Y-12192000D02*
G75*
G03*
X19598000Y-12192000I-40000J0D01*
G01*
X19852000Y-11430000D02*
G75*
G03*
X19852000Y-11430000I-40000J0D01*
G01*
X19852000Y-12192000D02*
G75*
G03*
X19852000Y-12192000I-40000J0D01*
G01*
X20106000Y-11430000D02*
G75*
G03*
X20106000Y-11430000I-40000J0D01*
G01*
X20106000Y-12192000D02*
G75*
G03*
X20106000Y-12192000I-40000J0D01*
G01*
X20360000Y-11430000D02*
G75*
G03*
X20360000Y-11430000I-40000J0D01*
G01*
X20360000Y-12192000D02*
G75*
G03*
X20360000Y-12192000I-40000J0D01*
G01*
X20614000Y-11430000D02*
G75*
G03*
X20614000Y-11430000I-40000J0D01*
G01*
X20614000Y-12192000D02*
G75*
G03*
X20614000Y-12192000I-40000J0D01*
G01*
X20868000Y-8128000D02*
G75*
G03*
X20868000Y-8128000I-40000J0D01*
G01*
X20868000Y-8628000D02*
G75*
G03*
X20868000Y-8628000I-40000J0D01*
G01*
X20868000Y-11430000D02*
G75*
G03*
X20868000Y-11430000I-40000J0D01*
G01*
X20868000Y-12192000D02*
G75*
G03*
X20868000Y-12192000I-40000J0D01*
G01*
X21376000Y-8128000D02*
G75*
G03*
X21376000Y-8128000I-40000J0D01*
G01*
X21376000Y-8890000D02*
G75*
G03*
X21376000Y-8890000I-40000J0D01*
G01*
X21376000Y-11430000D02*
G75*
G03*
X21376000Y-11430000I-40000J0D01*
G01*
X21376000Y-11930000D02*
G75*
G03*
X21376000Y-11930000I-40000J0D01*
G01*
X21630000Y-8128000D02*
G75*
G03*
X21630000Y-8128000I-40000J0D01*
G01*
X21630000Y-8890000D02*
G75*
G03*
X21630000Y-8890000I-40000J0D01*
G01*
X21630000Y-10414000D02*
G75*
G03*
X21630000Y-10414000I-40000J0D01*
G01*
X21630000Y-10664000D02*
G75*
G03*
X21630000Y-10664000I-40000J0D01*
G01*
X21884000Y-8128000D02*
G75*
G03*
X21884000Y-8128000I-40000J0D01*
G01*
X21884000Y-8890000D02*
G75*
G03*
X21884000Y-8890000I-40000J0D01*
G01*
X21884000Y-11430000D02*
G75*
G03*
X21884000Y-11430000I-40000J0D01*
G01*
X21884000Y-12192000D02*
G75*
G03*
X21884000Y-12192000I-40000J0D01*
G01*
X22138000Y-7239000D02*
G75*
G03*
X22138000Y-7239000I-40000J0D01*
G01*
X22138000Y-8128000D02*
G75*
G03*
X22138000Y-8128000I-40000J0D01*
G01*
X22138000Y-8890000D02*
G75*
G03*
X22138000Y-8890000I-40000J0D01*
G01*
X22138000Y-11430000D02*
G75*
G03*
X22138000Y-11430000I-40000J0D01*
G01*
X22138000Y-12192000D02*
G75*
G03*
X22138000Y-12192000I-40000J0D01*
G01*
X22392000Y-7239000D02*
G75*
G03*
X22392000Y-7239000I-40000J0D01*
G01*
X22392000Y-8128000D02*
G75*
G03*
X22392000Y-8128000I-40000J0D01*
G01*
X22392000Y-8890000D02*
G75*
G03*
X22392000Y-8890000I-40000J0D01*
G01*
X22392000Y-11430000D02*
G75*
G03*
X22392000Y-11430000I-40000J0D01*
G01*
X22392000Y-12192000D02*
G75*
G03*
X22392000Y-12192000I-40000J0D01*
G01*
X22646000Y-7239000D02*
G75*
G03*
X22646000Y-7239000I-40000J0D01*
G01*
X22646000Y-8128000D02*
G75*
G03*
X22646000Y-8128000I-40000J0D01*
G01*
X22646000Y-8890000D02*
G75*
G03*
X22646000Y-8890000I-40000J0D01*
G01*
X22646000Y-11430000D02*
G75*
G03*
X22646000Y-11430000I-40000J0D01*
G01*
X22646000Y-12192000D02*
G75*
G03*
X22646000Y-12192000I-40000J0D01*
G01*
X22900000Y-7239000D02*
G75*
G03*
X22900000Y-7239000I-40000J0D01*
G01*
X22900000Y-8128000D02*
G75*
G03*
X22900000Y-8128000I-40000J0D01*
G01*
X22900000Y-8890000D02*
G75*
G03*
X22900000Y-8890000I-40000J0D01*
G01*
X22900000Y-11430000D02*
G75*
G03*
X22900000Y-11430000I-40000J0D01*
G01*
X22900000Y-12192000D02*
G75*
G03*
X22900000Y-12192000I-40000J0D01*
G01*
X23154000Y-7239000D02*
G75*
G03*
X23154000Y-7239000I-40000J0D01*
G01*
X23154000Y-8128000D02*
G75*
G03*
X23154000Y-8128000I-40000J0D01*
G01*
X23154000Y-8890000D02*
G75*
G03*
X23154000Y-8890000I-40000J0D01*
G01*
X23154000Y-11430000D02*
G75*
G03*
X23154000Y-11430000I-40000J0D01*
G01*
X23154000Y-12192000D02*
G75*
G03*
X23154000Y-12192000I-40000J0D01*
G01*
X23408000Y-7239000D02*
G75*
G03*
X23408000Y-7239000I-40000J0D01*
G01*
X23408000Y-8128000D02*
G75*
G03*
X23408000Y-8128000I-40000J0D01*
G01*
X23408000Y-8890000D02*
G75*
G03*
X23408000Y-8890000I-40000J0D01*
G01*
X23408000Y-11430000D02*
G75*
G03*
X23408000Y-11430000I-40000J0D01*
G01*
X23408000Y-12192000D02*
G75*
G03*
X23408000Y-12192000I-40000J0D01*
G01*
X23662000Y-7239000D02*
G75*
G03*
X23662000Y-7239000I-40000J0D01*
G01*
X23662000Y-8128000D02*
G75*
G03*
X23662000Y-8128000I-40000J0D01*
G01*
X23662000Y-8890000D02*
G75*
G03*
X23662000Y-8890000I-40000J0D01*
G01*
X23662000Y-11430000D02*
G75*
G03*
X23662000Y-11430000I-40000J0D01*
G01*
X23662000Y-12192000D02*
G75*
G03*
X23662000Y-12192000I-40000J0D01*
G01*
X23916000Y-7239000D02*
G75*
G03*
X23916000Y-7239000I-40000J0D01*
G01*
X23916000Y-11430000D02*
G75*
G03*
X23916000Y-11430000I-40000J0D01*
G01*
X23916000Y-12192000D02*
G75*
G03*
X23916000Y-12192000I-40000J0D01*
G01*
X24170000Y-7239000D02*
G75*
G03*
X24170000Y-7239000I-40000J0D01*
G01*
X24170000Y-11430000D02*
G75*
G03*
X24170000Y-11430000I-40000J0D01*
G01*
X24170000Y-12192000D02*
G75*
G03*
X24170000Y-12192000I-40000J0D01*
G01*
X24424000Y-8382000D02*
G75*
G03*
X24424000Y-8382000I-40000J0D01*
G01*
X24674000Y-8382000D02*
G75*
G03*
X24674000Y-8382000I-40000J0D01*
G01*
D14*
X15367000Y-6305000D02*
X15367000Y-6395000D01*
X15322000Y-6350000D02*
X15412000Y-6350000D01*
X15621000Y-6305000D02*
X15621000Y-6395000D01*
X15576000Y-6350000D02*
X15666000Y-6350000D01*
X16002000Y-6305000D02*
X16002000Y-6395000D01*
X15957000Y-6350000D02*
X16047000Y-6350000D01*
X16256000Y-6305000D02*
X16256000Y-6395000D01*
X16211000Y-6350000D02*
X16301000Y-6350000D01*
X16637000Y-6305000D02*
X16637000Y-6395000D01*
X16592000Y-6350000D02*
X16682000Y-6350000D01*
X16891000Y-6305000D02*
X16891000Y-6395000D01*
X16846000Y-6350000D02*
X16936000Y-6350000D01*
X17272000Y-6305000D02*
X17272000Y-6395000D01*
X17227000Y-6350000D02*
X17317000Y-6350000D01*
X17526000Y-6305000D02*
X17526000Y-6395000D01*
X17481000Y-6350000D02*
X17571000Y-6350000D01*
X17907000Y-6305000D02*
X17907000Y-6395000D01*
X17862000Y-6350000D02*
X17952000Y-6350000D01*
X18161000Y-6305000D02*
X18161000Y-6395000D01*
X18116000Y-6350000D02*
X18206000Y-6350000D01*
X18542000Y-6305000D02*
X18542000Y-6395000D01*
X18497000Y-6350000D02*
X18587000Y-6350000D01*
X18796000Y-6305000D02*
X18796000Y-6395000D01*
X18751000Y-6350000D02*
X18841000Y-6350000D01*
X19177000Y-6305000D02*
X19177000Y-6395000D01*
X19132000Y-6350000D02*
X19222000Y-6350000D01*
X19431000Y-6305000D02*
X19431000Y-6395000D01*
X19386000Y-6350000D02*
X19476000Y-6350000D01*
X19812000Y-6305000D02*
X19812000Y-6395000D01*
X19767000Y-6350000D02*
X19857000Y-6350000D01*
X20066000Y-6305000D02*
X20066000Y-6395000D01*
X20021000Y-6350000D02*
X20111000Y-6350000D01*
X20447000Y-6305000D02*
X20447000Y-6395000D01*
X20402000Y-6350000D02*
X20492000Y-6350000D01*
X20701000Y-6305000D02*
X20701000Y-6395000D01*
X20656000Y-6350000D02*
X20746000Y-6350000D01*
X21082000Y-6305000D02*
X21082000Y-6395000D01*
X21037000Y-6350000D02*
X21127000Y-6350000D01*
X21336000Y-6305000D02*
X21336000Y-6395000D01*
X21291000Y-6350000D02*
X21381000Y-6350000D01*
X21717000Y-6305000D02*
X21717000Y-6395000D01*
X21672000Y-6350000D02*
X21762000Y-6350000D01*
X21971000Y-6305000D02*
X21971000Y-6395000D01*
X21926000Y-6350000D02*
X22016000Y-6350000D01*
X22352000Y-6305000D02*
X22352000Y-6395000D01*
X22307000Y-6350000D02*
X22397000Y-6350000D01*
X22606000Y-6305000D02*
X22606000Y-6395000D01*
X22561000Y-6350000D02*
X22651000Y-6350000D01*
X22987000Y-6305000D02*
X22987000Y-6395000D01*
X22942000Y-6350000D02*
X23032000Y-6350000D01*
X23241000Y-6305000D02*
X23241000Y-6395000D01*
X23196000Y-6350000D02*
X23286000Y-6350000D01*
X23622000Y-6305000D02*
X23622000Y-6395000D01*
X23577000Y-6350000D02*
X23667000Y-6350000D01*
X23876000Y-6305000D02*
X23876000Y-6395000D01*
X23831000Y-6350000D02*
X23921000Y-6350000D01*
X24257000Y-6305000D02*
X24257000Y-6395000D01*
X24212000Y-6350000D02*
X24302000Y-6350000D01*
X24511000Y-6305000D02*
X24511000Y-6395000D01*
X24466000Y-6350000D02*
X24556000Y-6350000D01*
X24892000Y-6305000D02*
X24892000Y-6395000D01*
X24847000Y-6350000D02*
X24937000Y-6350000D01*
X25146000Y-6305000D02*
X25146000Y-6395000D01*
X25101000Y-6350000D02*
X25191000Y-6350000D01*
D10*
X5369356Y-6131356D02*
X5369356Y-6060644D01*
X5298644Y-6060644D01*
X5298644Y-6131356D01*
X5369356Y-6131356D01*
X5623356Y-6131356D02*
X5623356Y-6060644D01*
X5552644Y-6060644D01*
X5552644Y-6131356D01*
X5623356Y-6131356D01*
X5877356Y-6131356D02*
X5877356Y-6060644D01*
X5806644Y-6060644D01*
X5806644Y-6131356D01*
X5877356Y-6131356D01*
X6131356Y-6131356D02*
X6131356Y-6060644D01*
X6060644Y-6060644D01*
X6060644Y-6131356D01*
X6131356Y-6131356D01*
X6131356Y-7909356D02*
X6131356Y-7838644D01*
X6060644Y-7838644D01*
X6060644Y-7909356D01*
X6131356Y-7909356D01*
X6131356Y-8163356D02*
X6131356Y-8092644D01*
X6060644Y-8092644D01*
X6060644Y-8163356D01*
X6131356Y-8163356D01*
X6131356Y-8417356D02*
X6131356Y-8346644D01*
X6060644Y-8346644D01*
X6060644Y-8417356D01*
X6131356Y-8417356D01*
X6131356Y-8671356D02*
X6131356Y-8600644D01*
X6060644Y-8600644D01*
X6060644Y-8671356D01*
X6131356Y-8671356D01*
X6131356Y-8925356D02*
X6131356Y-8854644D01*
X6060644Y-8854644D01*
X6060644Y-8925356D01*
X6131356Y-8925356D01*
X6131356Y-9179356D02*
X6131356Y-9108644D01*
X6060644Y-9108644D01*
X6060644Y-9179356D01*
X6131356Y-9179356D01*
X6131356Y-9433356D02*
X6131356Y-9362644D01*
X6060644Y-9362644D01*
X6060644Y-9433356D01*
X6131356Y-9433356D01*
X6131356Y-9687356D02*
X6131356Y-9616644D01*
X6060644Y-9616644D01*
X6060644Y-9687356D01*
X6131356Y-9687356D01*
X6131356Y-12227356D02*
X6131356Y-12156644D01*
X6060644Y-12156644D01*
X6060644Y-12227356D01*
X6131356Y-12227356D01*
X6131356Y-12481356D02*
X6131356Y-12410644D01*
X6060644Y-12410644D01*
X6060644Y-12481356D01*
X6131356Y-12481356D01*
X6131356Y-12735356D02*
X6131356Y-12664644D01*
X6060644Y-12664644D01*
X6060644Y-12735356D01*
X6131356Y-12735356D01*
X6131356Y-12989356D02*
X6131356Y-12918644D01*
X6060644Y-12918644D01*
X6060644Y-12989356D01*
X6131356Y-12989356D01*
X6131356Y-14513356D02*
X6131356Y-14442644D01*
X6060644Y-14442644D01*
X6060644Y-14513356D01*
X6131356Y-14513356D01*
X6385356Y-6131356D02*
X6385356Y-6060644D01*
X6314644Y-6060644D01*
X6314644Y-6131356D01*
X6385356Y-6131356D01*
X6385356Y-10703356D02*
X6385356Y-10632644D01*
X6314644Y-10632644D01*
X6314644Y-10703356D01*
X6385356Y-10703356D01*
X6385356Y-10957356D02*
X6385356Y-10886644D01*
X6314644Y-10886644D01*
X6314644Y-10957356D01*
X6385356Y-10957356D01*
X6385356Y-11211356D02*
X6385356Y-11140644D01*
X6314644Y-11140644D01*
X6314644Y-11211356D01*
X6385356Y-11211356D01*
X6385356Y-14513356D02*
X6385356Y-14442644D01*
X6314644Y-14442644D01*
X6314644Y-14513356D01*
X6385356Y-14513356D01*
X6639356Y-6131356D02*
X6639356Y-6060644D01*
X6568644Y-6060644D01*
X6568644Y-6131356D01*
X6639356Y-6131356D01*
X6639356Y-14513356D02*
X6639356Y-14442644D01*
X6568644Y-14442644D01*
X6568644Y-14513356D01*
X6639356Y-14513356D01*
X6893356Y-6131356D02*
X6893356Y-6060644D01*
X6822644Y-6060644D01*
X6822644Y-6131356D01*
X6893356Y-6131356D01*
X6893356Y-14513356D02*
X6893356Y-14442644D01*
X6822644Y-14442644D01*
X6822644Y-14513356D01*
X6893356Y-14513356D01*
X7147356Y-6131356D02*
X7147356Y-6060644D01*
X7076644Y-6060644D01*
X7076644Y-6131356D01*
X7147356Y-6131356D01*
X7147356Y-14513356D02*
X7147356Y-14442644D01*
X7076644Y-14442644D01*
X7076644Y-14513356D01*
X7147356Y-14513356D01*
X7401356Y-6131356D02*
X7401356Y-6060644D01*
X7330644Y-6060644D01*
X7330644Y-6131356D01*
X7401356Y-6131356D01*
X7401356Y-14513356D02*
X7401356Y-14442644D01*
X7330644Y-14442644D01*
X7330644Y-14513356D01*
X7401356Y-14513356D01*
X7655356Y-6131356D02*
X7655356Y-6060644D01*
X7584644Y-6060644D01*
X7584644Y-6131356D01*
X7655356Y-6131356D01*
X7655356Y-14513356D02*
X7655356Y-14442644D01*
X7584644Y-14442644D01*
X7584644Y-14513356D01*
X7655356Y-14513356D01*
X7909356Y-6131356D02*
X7909356Y-6060644D01*
X7838644Y-6060644D01*
X7838644Y-6131356D01*
X7909356Y-6131356D01*
X7909356Y-14513356D02*
X7909356Y-14442644D01*
X7838644Y-14442644D01*
X7838644Y-14513356D01*
X7909356Y-14513356D01*
X8163356Y-6131356D02*
X8163356Y-6060644D01*
X8092644Y-6060644D01*
X8092644Y-6131356D01*
X8163356Y-6131356D01*
X8163356Y-14513356D02*
X8163356Y-14442644D01*
X8092644Y-14442644D01*
X8092644Y-14513356D01*
X8163356Y-14513356D01*
X8417356Y-6131356D02*
X8417356Y-6060644D01*
X8346644Y-6060644D01*
X8346644Y-6131356D01*
X8417356Y-6131356D01*
X8417356Y-14513356D02*
X8417356Y-14442644D01*
X8346644Y-14442644D01*
X8346644Y-14513356D01*
X8417356Y-14513356D01*
X8671356Y-6131356D02*
X8671356Y-6060644D01*
X8600644Y-6060644D01*
X8600644Y-6131356D01*
X8671356Y-6131356D01*
X8671356Y-14513356D02*
X8671356Y-14442644D01*
X8600644Y-14442644D01*
X8600644Y-14513356D01*
X8671356Y-14513356D01*
X8925356Y-6131356D02*
X8925356Y-6060644D01*
X8854644Y-6060644D01*
X8854644Y-6131356D01*
X8925356Y-6131356D01*
X8925356Y-14513356D02*
X8925356Y-14442644D01*
X8854644Y-14442644D01*
X8854644Y-14513356D01*
X8925356Y-14513356D01*
X9179356Y-6131356D02*
X9179356Y-6060644D01*
X9108644Y-6060644D01*
X9108644Y-6131356D01*
X9179356Y-6131356D01*
X9179356Y-14513356D02*
X9179356Y-14442644D01*
X9108644Y-14442644D01*
X9108644Y-14513356D01*
X9179356Y-14513356D01*
X9433356Y-14513356D02*
X9433356Y-14442644D01*
X9362644Y-14442644D01*
X9362644Y-14513356D01*
X9433356Y-14513356D01*
X9687356Y-6131356D02*
X9687356Y-6060644D01*
X9616644Y-6060644D01*
X9616644Y-6131356D01*
X9687356Y-6131356D01*
X9941356Y-6131356D02*
X9941356Y-6060644D01*
X9870644Y-6060644D01*
X9870644Y-6131356D01*
X9941356Y-6131356D01*
X10195356Y-14513356D02*
X10195356Y-14442644D01*
X10124644Y-14442644D01*
X10124644Y-14513356D01*
X10195356Y-14513356D01*
X10449356Y-14513356D02*
X10449356Y-14442644D01*
X10378644Y-14442644D01*
X10378644Y-14513356D01*
X10449356Y-14513356D01*
X10703356Y-6385356D02*
X10703356Y-6314644D01*
X10632644Y-6314644D01*
X10632644Y-6385356D01*
X10703356Y-6385356D01*
X10703356Y-6639356D02*
X10703356Y-6568644D01*
X10632644Y-6568644D01*
X10632644Y-6639356D01*
X10703356Y-6639356D01*
X10703356Y-14513356D02*
X10703356Y-14442644D01*
X10632644Y-14442644D01*
X10632644Y-14513356D01*
X10703356Y-14513356D01*
X10957356Y-14513356D02*
X10957356Y-14442644D01*
X10886644Y-14442644D01*
X10886644Y-14513356D01*
X10957356Y-14513356D01*
X11211356Y-5369356D02*
X11211356Y-5298644D01*
X11140644Y-5298644D01*
X11140644Y-5369356D01*
X11211356Y-5369356D01*
X11211356Y-5623356D02*
X11211356Y-5552644D01*
X11140644Y-5552644D01*
X11140644Y-5623356D01*
X11211356Y-5623356D01*
X11211356Y-14513356D02*
X11211356Y-14442644D01*
X11140644Y-14442644D01*
X11140644Y-14513356D01*
X11211356Y-14513356D01*
X11465356Y-14513356D02*
X11465356Y-14442644D01*
X11394644Y-14442644D01*
X11394644Y-14513356D01*
X11465356Y-14513356D01*
X11719356Y-6385356D02*
X11719356Y-6314644D01*
X11648644Y-6314644D01*
X11648644Y-6385356D01*
X11719356Y-6385356D01*
X11719356Y-6639356D02*
X11719356Y-6568644D01*
X11648644Y-6568644D01*
X11648644Y-6639356D01*
X11719356Y-6639356D01*
X11719356Y-14513356D02*
X11719356Y-14442644D01*
X11648644Y-14442644D01*
X11648644Y-14513356D01*
X11719356Y-14513356D01*
X11973356Y-14513356D02*
X11973356Y-14442644D01*
X11902644Y-14442644D01*
X11902644Y-14513356D01*
X11973356Y-14513356D01*
X12227356Y-5369356D02*
X12227356Y-5298644D01*
X12156644Y-5298644D01*
X12156644Y-5369356D01*
X12227356Y-5369356D01*
X12227356Y-5623356D02*
X12227356Y-5552644D01*
X12156644Y-5552644D01*
X12156644Y-5623356D01*
X12227356Y-5623356D01*
X12227356Y-14513356D02*
X12227356Y-14442644D01*
X12156644Y-14442644D01*
X12156644Y-14513356D01*
X12227356Y-14513356D01*
X12481356Y-14513356D02*
X12481356Y-14442644D01*
X12410644Y-14442644D01*
X12410644Y-14513356D01*
X12481356Y-14513356D01*
X12735356Y-6385356D02*
X12735356Y-6314644D01*
X12664644Y-6314644D01*
X12664644Y-6385356D01*
X12735356Y-6385356D01*
X12735356Y-6639356D02*
X12735356Y-6568644D01*
X12664644Y-6568644D01*
X12664644Y-6639356D01*
X12735356Y-6639356D01*
X12735356Y-14513356D02*
X12735356Y-14442644D01*
X12664644Y-14442644D01*
X12664644Y-14513356D01*
X12735356Y-14513356D01*
X12989356Y-14513356D02*
X12989356Y-14442644D01*
X12918644Y-14442644D01*
X12918644Y-14513356D01*
X12989356Y-14513356D01*
X13243356Y-5369356D02*
X13243356Y-5298644D01*
X13172644Y-5298644D01*
X13172644Y-5369356D01*
X13243356Y-5369356D01*
X13243356Y-5623356D02*
X13243356Y-5552644D01*
X13172644Y-5552644D01*
X13172644Y-5623356D01*
X13243356Y-5623356D01*
X13243356Y-14513356D02*
X13243356Y-14442644D01*
X13172644Y-14442644D01*
X13172644Y-14513356D01*
X13243356Y-14513356D01*
X13497356Y-14513356D02*
X13497356Y-14442644D01*
X13426644Y-14442644D01*
X13426644Y-14513356D01*
X13497356Y-14513356D01*
X13751356Y-6385356D02*
X13751356Y-6314644D01*
X13680644Y-6314644D01*
X13680644Y-6385356D01*
X13751356Y-6385356D01*
X13751356Y-6639356D02*
X13751356Y-6568644D01*
X13680644Y-6568644D01*
X13680644Y-6639356D01*
X13751356Y-6639356D01*
X13751356Y-14513356D02*
X13751356Y-14442644D01*
X13680644Y-14442644D01*
X13680644Y-14513356D01*
X13751356Y-14513356D01*
X14005356Y-14513356D02*
X14005356Y-14442644D01*
X13934644Y-14442644D01*
X13934644Y-14513356D01*
X14005356Y-14513356D01*
X14259356Y-5369356D02*
X14259356Y-5298644D01*
X14188644Y-5298644D01*
X14188644Y-5369356D01*
X14259356Y-5369356D01*
X14259356Y-5623356D02*
X14259356Y-5552644D01*
X14188644Y-5552644D01*
X14188644Y-5623356D01*
X14259356Y-5623356D01*
X14767356Y-6385356D02*
X14767356Y-6314644D01*
X14696644Y-6314644D01*
X14696644Y-6385356D01*
X14767356Y-6385356D01*
X14767356Y-6639356D02*
X14767356Y-6568644D01*
X14696644Y-6568644D01*
X14696644Y-6639356D01*
X14767356Y-6639356D01*
X16545356Y-14513356D02*
X16545356Y-14442644D01*
X16474644Y-14442644D01*
X16474644Y-14513356D01*
X16545356Y-14513356D01*
X16799356Y-14513356D02*
X16799356Y-14442644D01*
X16728644Y-14442644D01*
X16728644Y-14513356D01*
X16799356Y-14513356D01*
X17053356Y-14513356D02*
X17053356Y-14442644D01*
X16982644Y-14442644D01*
X16982644Y-14513356D01*
X17053356Y-14513356D01*
X17307356Y-14513356D02*
X17307356Y-14442644D01*
X17236644Y-14442644D01*
X17236644Y-14513356D01*
X17307356Y-14513356D01*
X17561356Y-14513356D02*
X17561356Y-14442644D01*
X17490644Y-14442644D01*
X17490644Y-14513356D01*
X17561356Y-14513356D01*
X17815356Y-14513356D02*
X17815356Y-14442644D01*
X17744644Y-14442644D01*
X17744644Y-14513356D01*
X17815356Y-14513356D01*
X18069356Y-14513356D02*
X18069356Y-14442644D01*
X17998644Y-14442644D01*
X17998644Y-14513356D01*
X18069356Y-14513356D01*
X18323356Y-14513356D02*
X18323356Y-14442644D01*
X18252644Y-14442644D01*
X18252644Y-14513356D01*
X18323356Y-14513356D01*
X18577356Y-14513356D02*
X18577356Y-14442644D01*
X18506644Y-14442644D01*
X18506644Y-14513356D01*
X18577356Y-14513356D01*
X18831356Y-14513356D02*
X18831356Y-14442644D01*
X18760644Y-14442644D01*
X18760644Y-14513356D01*
X18831356Y-14513356D01*
X19085356Y-14513356D02*
X19085356Y-14442644D01*
X19014644Y-14442644D01*
X19014644Y-14513356D01*
X19085356Y-14513356D01*
X19339356Y-14513356D02*
X19339356Y-14442644D01*
X19268644Y-14442644D01*
X19268644Y-14513356D01*
X19339356Y-14513356D01*
X19593356Y-14513356D02*
X19593356Y-14442644D01*
X19522644Y-14442644D01*
X19522644Y-14513356D01*
X19593356Y-14513356D01*
X19847356Y-14513356D02*
X19847356Y-14442644D01*
X19776644Y-14442644D01*
X19776644Y-14513356D01*
X19847356Y-14513356D01*
X20101356Y-14513356D02*
X20101356Y-14442644D01*
X20030644Y-14442644D01*
X20030644Y-14513356D01*
X20101356Y-14513356D01*
X20355356Y-14513356D02*
X20355356Y-14442644D01*
X20284644Y-14442644D01*
X20284644Y-14513356D01*
X20355356Y-14513356D01*
X20609356Y-14513356D02*
X20609356Y-14442644D01*
X20538644Y-14442644D01*
X20538644Y-14513356D01*
X20609356Y-14513356D01*
X20863356Y-14513356D02*
X20863356Y-14442644D01*
X20792644Y-14442644D01*
X20792644Y-14513356D01*
X20863356Y-14513356D01*
X21117356Y-14513356D02*
X21117356Y-14442644D01*
X21046644Y-14442644D01*
X21046644Y-14513356D01*
X21117356Y-14513356D01*
X21371356Y-14513356D02*
X21371356Y-14442644D01*
X21300644Y-14442644D01*
X21300644Y-14513356D01*
X21371356Y-14513356D01*
X21625356Y-14513356D02*
X21625356Y-14442644D01*
X21554644Y-14442644D01*
X21554644Y-14513356D01*
X21625356Y-14513356D01*
X21879356Y-14513356D02*
X21879356Y-14442644D01*
X21808644Y-14442644D01*
X21808644Y-14513356D01*
X21879356Y-14513356D01*
X22133356Y-14513356D02*
X22133356Y-14442644D01*
X22062644Y-14442644D01*
X22062644Y-14513356D01*
X22133356Y-14513356D01*
X22387356Y-14513356D02*
X22387356Y-14442644D01*
X22316644Y-14442644D01*
X22316644Y-14513356D01*
X22387356Y-14513356D01*
X22641356Y-14513356D02*
X22641356Y-14442644D01*
X22570644Y-14442644D01*
X22570644Y-14513356D01*
X22641356Y-14513356D01*
X22895356Y-14513356D02*
X22895356Y-14442644D01*
X22824644Y-14442644D01*
X22824644Y-14513356D01*
X22895356Y-14513356D01*
X23149356Y-14513356D02*
X23149356Y-14442644D01*
X23078644Y-14442644D01*
X23078644Y-14513356D01*
X23149356Y-14513356D01*
X23403356Y-14513356D02*
X23403356Y-14442644D01*
X23332644Y-14442644D01*
X23332644Y-14513356D01*
X23403356Y-14513356D01*
X23657356Y-14513356D02*
X23657356Y-14442644D01*
X23586644Y-14442644D01*
X23586644Y-14513356D01*
X23657356Y-14513356D01*
X23911356Y-14513356D02*
X23911356Y-14442644D01*
X23840644Y-14442644D01*
X23840644Y-14513356D01*
X23911356Y-14513356D01*
X24165356Y-14513356D02*
X24165356Y-14442644D01*
X24094644Y-14442644D01*
X24094644Y-14513356D01*
X24165356Y-14513356D01*
X24419356Y-14513356D02*
X24419356Y-14442644D01*
X24348644Y-14442644D01*
X24348644Y-14513356D01*
X24419356Y-14513356D01*
D11*
X5322619Y-15157476D02*
X5322619Y-14957476D01*
X5322619Y-14957476D02*
X5370238Y-14957476D01*
X5370238Y-14957476D02*
X5398810Y-14967000D01*
X5398810Y-14967000D02*
X5417857Y-14986048D01*
X5417857Y-14986048D02*
X5427381Y-15005095D01*
X5427381Y-15005095D02*
X5436905Y-15043190D01*
X5436905Y-15043190D02*
X5436905Y-15071762D01*
X5436905Y-15071762D02*
X5427381Y-15109857D01*
X5427381Y-15109857D02*
X5417857Y-15128905D01*
X5417857Y-15128905D02*
X5398810Y-15147952D01*
X5398810Y-15147952D02*
X5370238Y-15157476D01*
X5370238Y-15157476D02*
X5322619Y-15157476D01*
X5522619Y-15157476D02*
X5522619Y-15024143D01*
X5522619Y-15062238D02*
X5532143Y-15043190D01*
X5532143Y-15043190D02*
X5541667Y-15033667D01*
X5541667Y-15033667D02*
X5560714Y-15024143D01*
X5560714Y-15024143D02*
X5579762Y-15024143D01*
X5646428Y-15157476D02*
X5646428Y-15024143D01*
X5646428Y-14957476D02*
X5636905Y-14967000D01*
X5636905Y-14967000D02*
X5646428Y-14976524D01*
X5646428Y-14976524D02*
X5655952Y-14967000D01*
X5655952Y-14967000D02*
X5646428Y-14957476D01*
X5646428Y-14957476D02*
X5646428Y-14976524D01*
X5770238Y-15157476D02*
X5751190Y-15147952D01*
X5751190Y-15147952D02*
X5741667Y-15128905D01*
X5741667Y-15128905D02*
X5741667Y-14957476D01*
X5875000Y-15157476D02*
X5855952Y-15147952D01*
X5855952Y-15147952D02*
X5846428Y-15128905D01*
X5846428Y-15128905D02*
X5846428Y-14957476D01*
X6071190Y-15157476D02*
X6071190Y-14957476D01*
X6071190Y-14957476D02*
X6137857Y-15100333D01*
X6137857Y-15100333D02*
X6204524Y-14957476D01*
X6204524Y-14957476D02*
X6204524Y-15157476D01*
X6385476Y-15157476D02*
X6385476Y-15052714D01*
X6385476Y-15052714D02*
X6375952Y-15033667D01*
X6375952Y-15033667D02*
X6356905Y-15024143D01*
X6356905Y-15024143D02*
X6318809Y-15024143D01*
X6318809Y-15024143D02*
X6299762Y-15033667D01*
X6385476Y-15147952D02*
X6366428Y-15157476D01*
X6366428Y-15157476D02*
X6318809Y-15157476D01*
X6318809Y-15157476D02*
X6299762Y-15147952D01*
X6299762Y-15147952D02*
X6290238Y-15128905D01*
X6290238Y-15128905D02*
X6290238Y-15109857D01*
X6290238Y-15109857D02*
X6299762Y-15090809D01*
X6299762Y-15090809D02*
X6318809Y-15081286D01*
X6318809Y-15081286D02*
X6366428Y-15081286D01*
X6366428Y-15081286D02*
X6385476Y-15071762D01*
X6480714Y-15024143D02*
X6480714Y-15224143D01*
X6480714Y-15033667D02*
X6499762Y-15024143D01*
X6499762Y-15024143D02*
X6537857Y-15024143D01*
X6537857Y-15024143D02*
X6556905Y-15033667D01*
X6556905Y-15033667D02*
X6566428Y-15043190D01*
X6566428Y-15043190D02*
X6575952Y-15062238D01*
X6575952Y-15062238D02*
X6575952Y-15119381D01*
X6575952Y-15119381D02*
X6566428Y-15138428D01*
X6566428Y-15138428D02*
X6556905Y-15147952D01*
X6556905Y-15147952D02*
X6537857Y-15157476D01*
X6537857Y-15157476D02*
X6499762Y-15157476D01*
X6499762Y-15157476D02*
X6480714Y-15147952D01*
X6661667Y-15138428D02*
X6671190Y-15147952D01*
X6671190Y-15147952D02*
X6661667Y-15157476D01*
X6661667Y-15157476D02*
X6652143Y-15147952D01*
X6652143Y-15147952D02*
X6661667Y-15138428D01*
X6661667Y-15138428D02*
X6661667Y-15157476D01*
X6661667Y-15033667D02*
X6671190Y-15043190D01*
X6671190Y-15043190D02*
X6661667Y-15052714D01*
X6661667Y-15052714D02*
X6652143Y-15043190D01*
X6652143Y-15043190D02*
X6661667Y-15033667D01*
X6661667Y-15033667D02*
X6661667Y-15052714D01*
D12*
X5036900Y-15484950D02*
X5075000Y-15523050D01*
X5075000Y-15484950D02*
X5036900Y-15523050D01*
D11*
X5360714Y-15377476D02*
X5379762Y-15377476D01*
X5379762Y-15377476D02*
X5398810Y-15387000D01*
X5398810Y-15387000D02*
X5408333Y-15396524D01*
X5408333Y-15396524D02*
X5417857Y-15415571D01*
X5417857Y-15415571D02*
X5427381Y-15453667D01*
X5427381Y-15453667D02*
X5427381Y-15501286D01*
X5427381Y-15501286D02*
X5417857Y-15539381D01*
X5417857Y-15539381D02*
X5408333Y-15558428D01*
X5408333Y-15558428D02*
X5398810Y-15567952D01*
X5398810Y-15567952D02*
X5379762Y-15577476D01*
X5379762Y-15577476D02*
X5360714Y-15577476D01*
X5360714Y-15577476D02*
X5341667Y-15567952D01*
X5341667Y-15567952D02*
X5332143Y-15558428D01*
X5332143Y-15558428D02*
X5322619Y-15539381D01*
X5322619Y-15539381D02*
X5313095Y-15501286D01*
X5313095Y-15501286D02*
X5313095Y-15453667D01*
X5313095Y-15453667D02*
X5322619Y-15415571D01*
X5322619Y-15415571D02*
X5332143Y-15396524D01*
X5332143Y-15396524D02*
X5341667Y-15387000D01*
X5341667Y-15387000D02*
X5360714Y-15377476D01*
X5513095Y-15558428D02*
X5522619Y-15567952D01*
X5522619Y-15567952D02*
X5513095Y-15577476D01*
X5513095Y-15577476D02*
X5503571Y-15567952D01*
X5503571Y-15567952D02*
X5513095Y-15558428D01*
X5513095Y-15558428D02*
X5513095Y-15577476D01*
X5589286Y-15377476D02*
X5713095Y-15377476D01*
X5713095Y-15377476D02*
X5646428Y-15453667D01*
X5646428Y-15453667D02*
X5675000Y-15453667D01*
X5675000Y-15453667D02*
X5694048Y-15463190D01*
X5694048Y-15463190D02*
X5703571Y-15472714D01*
X5703571Y-15472714D02*
X5713095Y-15491762D01*
X5713095Y-15491762D02*
X5713095Y-15539381D01*
X5713095Y-15539381D02*
X5703571Y-15558428D01*
X5703571Y-15558428D02*
X5694048Y-15567952D01*
X5694048Y-15567952D02*
X5675000Y-15577476D01*
X5675000Y-15577476D02*
X5617857Y-15577476D01*
X5617857Y-15577476D02*
X5598809Y-15567952D01*
X5598809Y-15567952D02*
X5589286Y-15558428D01*
X5827381Y-15463190D02*
X5808333Y-15453667D01*
X5808333Y-15453667D02*
X5798809Y-15444143D01*
X5798809Y-15444143D02*
X5789286Y-15425095D01*
X5789286Y-15425095D02*
X5789286Y-15415571D01*
X5789286Y-15415571D02*
X5798809Y-15396524D01*
X5798809Y-15396524D02*
X5808333Y-15387000D01*
X5808333Y-15387000D02*
X5827381Y-15377476D01*
X5827381Y-15377476D02*
X5865476Y-15377476D01*
X5865476Y-15377476D02*
X5884524Y-15387000D01*
X5884524Y-15387000D02*
X5894048Y-15396524D01*
X5894048Y-15396524D02*
X5903571Y-15415571D01*
X5903571Y-15415571D02*
X5903571Y-15425095D01*
X5903571Y-15425095D02*
X5894048Y-15444143D01*
X5894048Y-15444143D02*
X5884524Y-15453667D01*
X5884524Y-15453667D02*
X5865476Y-15463190D01*
X5865476Y-15463190D02*
X5827381Y-15463190D01*
X5827381Y-15463190D02*
X5808333Y-15472714D01*
X5808333Y-15472714D02*
X5798809Y-15482238D01*
X5798809Y-15482238D02*
X5789286Y-15501286D01*
X5789286Y-15501286D02*
X5789286Y-15539381D01*
X5789286Y-15539381D02*
X5798809Y-15558428D01*
X5798809Y-15558428D02*
X5808333Y-15567952D01*
X5808333Y-15567952D02*
X5827381Y-15577476D01*
X5827381Y-15577476D02*
X5865476Y-15577476D01*
X5865476Y-15577476D02*
X5884524Y-15567952D01*
X5884524Y-15567952D02*
X5894048Y-15558428D01*
X5894048Y-15558428D02*
X5903571Y-15539381D01*
X5903571Y-15539381D02*
X5903571Y-15501286D01*
X5903571Y-15501286D02*
X5894048Y-15482238D01*
X5894048Y-15482238D02*
X5884524Y-15472714D01*
X5884524Y-15472714D02*
X5865476Y-15463190D01*
X6094048Y-15577476D02*
X5979762Y-15577476D01*
X6036905Y-15577476D02*
X6036905Y-15377476D01*
X6036905Y-15377476D02*
X6017857Y-15406048D01*
X6017857Y-15406048D02*
X5998809Y-15425095D01*
X5998809Y-15425095D02*
X5979762Y-15434619D01*
X6179762Y-15577476D02*
X6179762Y-15444143D01*
X6179762Y-15463190D02*
X6189286Y-15453667D01*
X6189286Y-15453667D02*
X6208333Y-15444143D01*
X6208333Y-15444143D02*
X6236905Y-15444143D01*
X6236905Y-15444143D02*
X6255952Y-15453667D01*
X6255952Y-15453667D02*
X6265476Y-15472714D01*
X6265476Y-15472714D02*
X6265476Y-15577476D01*
X6265476Y-15472714D02*
X6275000Y-15453667D01*
X6275000Y-15453667D02*
X6294048Y-15444143D01*
X6294048Y-15444143D02*
X6322619Y-15444143D01*
X6322619Y-15444143D02*
X6341667Y-15453667D01*
X6341667Y-15453667D02*
X6351190Y-15472714D01*
X6351190Y-15472714D02*
X6351190Y-15577476D01*
X6446429Y-15577476D02*
X6446429Y-15444143D01*
X6446429Y-15463190D02*
X6455952Y-15453667D01*
X6455952Y-15453667D02*
X6475000Y-15444143D01*
X6475000Y-15444143D02*
X6503571Y-15444143D01*
X6503571Y-15444143D02*
X6522619Y-15453667D01*
X6522619Y-15453667D02*
X6532143Y-15472714D01*
X6532143Y-15472714D02*
X6532143Y-15577476D01*
X6532143Y-15472714D02*
X6541667Y-15453667D01*
X6541667Y-15453667D02*
X6560714Y-15444143D01*
X6560714Y-15444143D02*
X6589286Y-15444143D01*
X6589286Y-15444143D02*
X6608333Y-15453667D01*
X6608333Y-15453667D02*
X6617857Y-15472714D01*
X6617857Y-15472714D02*
X6617857Y-15577476D01*
X6975952Y-15367952D02*
X6804524Y-15625095D01*
X7200714Y-15377476D02*
X7219762Y-15377476D01*
X7219762Y-15377476D02*
X7238810Y-15387000D01*
X7238810Y-15387000D02*
X7248333Y-15396524D01*
X7248333Y-15396524D02*
X7257857Y-15415571D01*
X7257857Y-15415571D02*
X7267381Y-15453667D01*
X7267381Y-15453667D02*
X7267381Y-15501286D01*
X7267381Y-15501286D02*
X7257857Y-15539381D01*
X7257857Y-15539381D02*
X7248333Y-15558428D01*
X7248333Y-15558428D02*
X7238810Y-15567952D01*
X7238810Y-15567952D02*
X7219762Y-15577476D01*
X7219762Y-15577476D02*
X7200714Y-15577476D01*
X7200714Y-15577476D02*
X7181667Y-15567952D01*
X7181667Y-15567952D02*
X7172143Y-15558428D01*
X7172143Y-15558428D02*
X7162619Y-15539381D01*
X7162619Y-15539381D02*
X7153095Y-15501286D01*
X7153095Y-15501286D02*
X7153095Y-15453667D01*
X7153095Y-15453667D02*
X7162619Y-15415571D01*
X7162619Y-15415571D02*
X7172143Y-15396524D01*
X7172143Y-15396524D02*
X7181667Y-15387000D01*
X7181667Y-15387000D02*
X7200714Y-15377476D01*
X7353095Y-15558428D02*
X7362619Y-15567952D01*
X7362619Y-15567952D02*
X7353095Y-15577476D01*
X7353095Y-15577476D02*
X7343571Y-15567952D01*
X7343571Y-15567952D02*
X7353095Y-15558428D01*
X7353095Y-15558428D02*
X7353095Y-15577476D01*
X7486429Y-15377476D02*
X7505476Y-15377476D01*
X7505476Y-15377476D02*
X7524524Y-15387000D01*
X7524524Y-15387000D02*
X7534048Y-15396524D01*
X7534048Y-15396524D02*
X7543571Y-15415571D01*
X7543571Y-15415571D02*
X7553095Y-15453667D01*
X7553095Y-15453667D02*
X7553095Y-15501286D01*
X7553095Y-15501286D02*
X7543571Y-15539381D01*
X7543571Y-15539381D02*
X7534048Y-15558428D01*
X7534048Y-15558428D02*
X7524524Y-15567952D01*
X7524524Y-15567952D02*
X7505476Y-15577476D01*
X7505476Y-15577476D02*
X7486429Y-15577476D01*
X7486429Y-15577476D02*
X7467381Y-15567952D01*
X7467381Y-15567952D02*
X7457857Y-15558428D01*
X7457857Y-15558428D02*
X7448333Y-15539381D01*
X7448333Y-15539381D02*
X7438810Y-15501286D01*
X7438810Y-15501286D02*
X7438810Y-15453667D01*
X7438810Y-15453667D02*
X7448333Y-15415571D01*
X7448333Y-15415571D02*
X7457857Y-15396524D01*
X7457857Y-15396524D02*
X7467381Y-15387000D01*
X7467381Y-15387000D02*
X7486429Y-15377476D01*
X7743571Y-15577476D02*
X7629286Y-15577476D01*
X7686429Y-15577476D02*
X7686429Y-15377476D01*
X7686429Y-15377476D02*
X7667381Y-15406048D01*
X7667381Y-15406048D02*
X7648333Y-15425095D01*
X7648333Y-15425095D02*
X7629286Y-15434619D01*
X7924524Y-15377476D02*
X7829286Y-15377476D01*
X7829286Y-15377476D02*
X7819762Y-15472714D01*
X7819762Y-15472714D02*
X7829286Y-15463190D01*
X7829286Y-15463190D02*
X7848333Y-15453667D01*
X7848333Y-15453667D02*
X7895952Y-15453667D01*
X7895952Y-15453667D02*
X7915000Y-15463190D01*
X7915000Y-15463190D02*
X7924524Y-15472714D01*
X7924524Y-15472714D02*
X7934048Y-15491762D01*
X7934048Y-15491762D02*
X7934048Y-15539381D01*
X7934048Y-15539381D02*
X7924524Y-15558428D01*
X7924524Y-15558428D02*
X7915000Y-15567952D01*
X7915000Y-15567952D02*
X7895952Y-15577476D01*
X7895952Y-15577476D02*
X7848333Y-15577476D01*
X7848333Y-15577476D02*
X7829286Y-15567952D01*
X7829286Y-15567952D02*
X7819762Y-15558428D01*
X8057857Y-15377476D02*
X8076905Y-15377476D01*
X8076905Y-15377476D02*
X8095952Y-15387000D01*
X8095952Y-15387000D02*
X8105476Y-15396524D01*
X8105476Y-15396524D02*
X8115000Y-15415571D01*
X8115000Y-15415571D02*
X8124524Y-15453667D01*
X8124524Y-15453667D02*
X8124524Y-15501286D01*
X8124524Y-15501286D02*
X8115000Y-15539381D01*
X8115000Y-15539381D02*
X8105476Y-15558428D01*
X8105476Y-15558428D02*
X8095952Y-15567952D01*
X8095952Y-15567952D02*
X8076905Y-15577476D01*
X8076905Y-15577476D02*
X8057857Y-15577476D01*
X8057857Y-15577476D02*
X8038810Y-15567952D01*
X8038810Y-15567952D02*
X8029286Y-15558428D01*
X8029286Y-15558428D02*
X8019762Y-15539381D01*
X8019762Y-15539381D02*
X8010238Y-15501286D01*
X8010238Y-15501286D02*
X8010238Y-15453667D01*
X8010238Y-15453667D02*
X8019762Y-15415571D01*
X8019762Y-15415571D02*
X8029286Y-15396524D01*
X8029286Y-15396524D02*
X8038810Y-15387000D01*
X8038810Y-15387000D02*
X8057857Y-15377476D01*
X8200714Y-15377476D02*
X8200714Y-15415571D01*
X8276905Y-15377476D02*
X8276905Y-15415571D01*
X8539762Y-15653667D02*
X8530238Y-15644143D01*
X8530238Y-15644143D02*
X8511191Y-15615571D01*
X8511191Y-15615571D02*
X8501667Y-15596524D01*
X8501667Y-15596524D02*
X8492143Y-15567952D01*
X8492143Y-15567952D02*
X8482619Y-15520333D01*
X8482619Y-15520333D02*
X8482619Y-15482238D01*
X8482619Y-15482238D02*
X8492143Y-15434619D01*
X8492143Y-15434619D02*
X8501667Y-15406048D01*
X8501667Y-15406048D02*
X8511191Y-15387000D01*
X8511191Y-15387000D02*
X8530238Y-15358428D01*
X8530238Y-15358428D02*
X8539762Y-15348905D01*
X8720714Y-15577476D02*
X8606429Y-15577476D01*
X8663572Y-15577476D02*
X8663572Y-15377476D01*
X8663572Y-15377476D02*
X8644524Y-15406048D01*
X8644524Y-15406048D02*
X8625476Y-15425095D01*
X8625476Y-15425095D02*
X8606429Y-15434619D01*
X8892143Y-15377476D02*
X8854048Y-15377476D01*
X8854048Y-15377476D02*
X8835000Y-15387000D01*
X8835000Y-15387000D02*
X8825476Y-15396524D01*
X8825476Y-15396524D02*
X8806429Y-15425095D01*
X8806429Y-15425095D02*
X8796905Y-15463190D01*
X8796905Y-15463190D02*
X8796905Y-15539381D01*
X8796905Y-15539381D02*
X8806429Y-15558428D01*
X8806429Y-15558428D02*
X8815953Y-15567952D01*
X8815953Y-15567952D02*
X8835000Y-15577476D01*
X8835000Y-15577476D02*
X8873095Y-15577476D01*
X8873095Y-15577476D02*
X8892143Y-15567952D01*
X8892143Y-15567952D02*
X8901667Y-15558428D01*
X8901667Y-15558428D02*
X8911191Y-15539381D01*
X8911191Y-15539381D02*
X8911191Y-15491762D01*
X8911191Y-15491762D02*
X8901667Y-15472714D01*
X8901667Y-15472714D02*
X8892143Y-15463190D01*
X8892143Y-15463190D02*
X8873095Y-15453667D01*
X8873095Y-15453667D02*
X8835000Y-15453667D01*
X8835000Y-15453667D02*
X8815953Y-15463190D01*
X8815953Y-15463190D02*
X8806429Y-15472714D01*
X8806429Y-15472714D02*
X8796905Y-15491762D01*
X9025476Y-15463190D02*
X9006429Y-15453667D01*
X9006429Y-15453667D02*
X8996905Y-15444143D01*
X8996905Y-15444143D02*
X8987381Y-15425095D01*
X8987381Y-15425095D02*
X8987381Y-15415571D01*
X8987381Y-15415571D02*
X8996905Y-15396524D01*
X8996905Y-15396524D02*
X9006429Y-15387000D01*
X9006429Y-15387000D02*
X9025476Y-15377476D01*
X9025476Y-15377476D02*
X9063572Y-15377476D01*
X9063572Y-15377476D02*
X9082619Y-15387000D01*
X9082619Y-15387000D02*
X9092143Y-15396524D01*
X9092143Y-15396524D02*
X9101667Y-15415571D01*
X9101667Y-15415571D02*
X9101667Y-15425095D01*
X9101667Y-15425095D02*
X9092143Y-15444143D01*
X9092143Y-15444143D02*
X9082619Y-15453667D01*
X9082619Y-15453667D02*
X9063572Y-15463190D01*
X9063572Y-15463190D02*
X9025476Y-15463190D01*
X9025476Y-15463190D02*
X9006429Y-15472714D01*
X9006429Y-15472714D02*
X8996905Y-15482238D01*
X8996905Y-15482238D02*
X8987381Y-15501286D01*
X8987381Y-15501286D02*
X8987381Y-15539381D01*
X8987381Y-15539381D02*
X8996905Y-15558428D01*
X8996905Y-15558428D02*
X9006429Y-15567952D01*
X9006429Y-15567952D02*
X9025476Y-15577476D01*
X9025476Y-15577476D02*
X9063572Y-15577476D01*
X9063572Y-15577476D02*
X9082619Y-15567952D01*
X9082619Y-15567952D02*
X9092143Y-15558428D01*
X9092143Y-15558428D02*
X9101667Y-15539381D01*
X9101667Y-15539381D02*
X9101667Y-15501286D01*
X9101667Y-15501286D02*
X9092143Y-15482238D01*
X9092143Y-15482238D02*
X9082619Y-15472714D01*
X9082619Y-15472714D02*
X9063572Y-15463190D01*
X9307381Y-15577476D02*
X9307381Y-15377476D01*
X9393095Y-15577476D02*
X9393095Y-15472714D01*
X9393095Y-15472714D02*
X9383572Y-15453667D01*
X9383572Y-15453667D02*
X9364524Y-15444143D01*
X9364524Y-15444143D02*
X9335953Y-15444143D01*
X9335953Y-15444143D02*
X9316905Y-15453667D01*
X9316905Y-15453667D02*
X9307381Y-15463190D01*
X9516905Y-15577476D02*
X9497857Y-15567952D01*
X9497857Y-15567952D02*
X9488334Y-15558428D01*
X9488334Y-15558428D02*
X9478810Y-15539381D01*
X9478810Y-15539381D02*
X9478810Y-15482238D01*
X9478810Y-15482238D02*
X9488334Y-15463190D01*
X9488334Y-15463190D02*
X9497857Y-15453667D01*
X9497857Y-15453667D02*
X9516905Y-15444143D01*
X9516905Y-15444143D02*
X9545476Y-15444143D01*
X9545476Y-15444143D02*
X9564524Y-15453667D01*
X9564524Y-15453667D02*
X9574048Y-15463190D01*
X9574048Y-15463190D02*
X9583572Y-15482238D01*
X9583572Y-15482238D02*
X9583572Y-15539381D01*
X9583572Y-15539381D02*
X9574048Y-15558428D01*
X9574048Y-15558428D02*
X9564524Y-15567952D01*
X9564524Y-15567952D02*
X9545476Y-15577476D01*
X9545476Y-15577476D02*
X9516905Y-15577476D01*
X9697857Y-15577476D02*
X9678810Y-15567952D01*
X9678810Y-15567952D02*
X9669286Y-15548905D01*
X9669286Y-15548905D02*
X9669286Y-15377476D01*
X9850238Y-15567952D02*
X9831191Y-15577476D01*
X9831191Y-15577476D02*
X9793095Y-15577476D01*
X9793095Y-15577476D02*
X9774048Y-15567952D01*
X9774048Y-15567952D02*
X9764524Y-15548905D01*
X9764524Y-15548905D02*
X9764524Y-15472714D01*
X9764524Y-15472714D02*
X9774048Y-15453667D01*
X9774048Y-15453667D02*
X9793095Y-15444143D01*
X9793095Y-15444143D02*
X9831191Y-15444143D01*
X9831191Y-15444143D02*
X9850238Y-15453667D01*
X9850238Y-15453667D02*
X9859762Y-15472714D01*
X9859762Y-15472714D02*
X9859762Y-15491762D01*
X9859762Y-15491762D02*
X9764524Y-15510809D01*
X9935953Y-15567952D02*
X9955000Y-15577476D01*
X9955000Y-15577476D02*
X9993095Y-15577476D01*
X9993095Y-15577476D02*
X10012143Y-15567952D01*
X10012143Y-15567952D02*
X10021667Y-15548905D01*
X10021667Y-15548905D02*
X10021667Y-15539381D01*
X10021667Y-15539381D02*
X10012143Y-15520333D01*
X10012143Y-15520333D02*
X9993095Y-15510809D01*
X9993095Y-15510809D02*
X9964524Y-15510809D01*
X9964524Y-15510809D02*
X9945476Y-15501286D01*
X9945476Y-15501286D02*
X9935953Y-15482238D01*
X9935953Y-15482238D02*
X9935953Y-15472714D01*
X9935953Y-15472714D02*
X9945476Y-15453667D01*
X9945476Y-15453667D02*
X9964524Y-15444143D01*
X9964524Y-15444143D02*
X9993095Y-15444143D01*
X9993095Y-15444143D02*
X10012143Y-15453667D01*
X10088334Y-15653667D02*
X10097857Y-15644143D01*
X10097857Y-15644143D02*
X10116905Y-15615571D01*
X10116905Y-15615571D02*
X10126429Y-15596524D01*
X10126429Y-15596524D02*
X10135953Y-15567952D01*
X10135953Y-15567952D02*
X10145476Y-15520333D01*
X10145476Y-15520333D02*
X10145476Y-15482238D01*
X10145476Y-15482238D02*
X10135953Y-15434619D01*
X10135953Y-15434619D02*
X10126429Y-15406048D01*
X10126429Y-15406048D02*
X10116905Y-15387000D01*
X10116905Y-15387000D02*
X10097857Y-15358428D01*
X10097857Y-15358428D02*
X10088334Y-15348905D01*
D13*
X5075000Y-15768000D02*
G75*
G03*
X5075000Y-15768000I-40000J0D01*
G01*
D11*
X5360714Y-15641476D02*
X5379762Y-15641476D01*
X5379762Y-15641476D02*
X5398810Y-15651000D01*
X5398810Y-15651000D02*
X5408333Y-15660524D01*
X5408333Y-15660524D02*
X5417857Y-15679571D01*
X5417857Y-15679571D02*
X5427381Y-15717667D01*
X5427381Y-15717667D02*
X5427381Y-15765286D01*
X5427381Y-15765286D02*
X5417857Y-15803381D01*
X5417857Y-15803381D02*
X5408333Y-15822428D01*
X5408333Y-15822428D02*
X5398810Y-15831952D01*
X5398810Y-15831952D02*
X5379762Y-15841476D01*
X5379762Y-15841476D02*
X5360714Y-15841476D01*
X5360714Y-15841476D02*
X5341667Y-15831952D01*
X5341667Y-15831952D02*
X5332143Y-15822428D01*
X5332143Y-15822428D02*
X5322619Y-15803381D01*
X5322619Y-15803381D02*
X5313095Y-15765286D01*
X5313095Y-15765286D02*
X5313095Y-15717667D01*
X5313095Y-15717667D02*
X5322619Y-15679571D01*
X5322619Y-15679571D02*
X5332143Y-15660524D01*
X5332143Y-15660524D02*
X5341667Y-15651000D01*
X5341667Y-15651000D02*
X5360714Y-15641476D01*
X5513095Y-15822428D02*
X5522619Y-15831952D01*
X5522619Y-15831952D02*
X5513095Y-15841476D01*
X5513095Y-15841476D02*
X5503571Y-15831952D01*
X5503571Y-15831952D02*
X5513095Y-15822428D01*
X5513095Y-15822428D02*
X5513095Y-15841476D01*
X5636905Y-15727190D02*
X5617857Y-15717667D01*
X5617857Y-15717667D02*
X5608333Y-15708143D01*
X5608333Y-15708143D02*
X5598809Y-15689095D01*
X5598809Y-15689095D02*
X5598809Y-15679571D01*
X5598809Y-15679571D02*
X5608333Y-15660524D01*
X5608333Y-15660524D02*
X5617857Y-15651000D01*
X5617857Y-15651000D02*
X5636905Y-15641476D01*
X5636905Y-15641476D02*
X5675000Y-15641476D01*
X5675000Y-15641476D02*
X5694048Y-15651000D01*
X5694048Y-15651000D02*
X5703571Y-15660524D01*
X5703571Y-15660524D02*
X5713095Y-15679571D01*
X5713095Y-15679571D02*
X5713095Y-15689095D01*
X5713095Y-15689095D02*
X5703571Y-15708143D01*
X5703571Y-15708143D02*
X5694048Y-15717667D01*
X5694048Y-15717667D02*
X5675000Y-15727190D01*
X5675000Y-15727190D02*
X5636905Y-15727190D01*
X5636905Y-15727190D02*
X5617857Y-15736714D01*
X5617857Y-15736714D02*
X5608333Y-15746238D01*
X5608333Y-15746238D02*
X5598809Y-15765286D01*
X5598809Y-15765286D02*
X5598809Y-15803381D01*
X5598809Y-15803381D02*
X5608333Y-15822428D01*
X5608333Y-15822428D02*
X5617857Y-15831952D01*
X5617857Y-15831952D02*
X5636905Y-15841476D01*
X5636905Y-15841476D02*
X5675000Y-15841476D01*
X5675000Y-15841476D02*
X5694048Y-15831952D01*
X5694048Y-15831952D02*
X5703571Y-15822428D01*
X5703571Y-15822428D02*
X5713095Y-15803381D01*
X5713095Y-15803381D02*
X5713095Y-15765286D01*
X5713095Y-15765286D02*
X5703571Y-15746238D01*
X5703571Y-15746238D02*
X5694048Y-15736714D01*
X5694048Y-15736714D02*
X5675000Y-15727190D01*
X5836905Y-15641476D02*
X5855952Y-15641476D01*
X5855952Y-15641476D02*
X5875000Y-15651000D01*
X5875000Y-15651000D02*
X5884524Y-15660524D01*
X5884524Y-15660524D02*
X5894048Y-15679571D01*
X5894048Y-15679571D02*
X5903571Y-15717667D01*
X5903571Y-15717667D02*
X5903571Y-15765286D01*
X5903571Y-15765286D02*
X5894048Y-15803381D01*
X5894048Y-15803381D02*
X5884524Y-15822428D01*
X5884524Y-15822428D02*
X5875000Y-15831952D01*
X5875000Y-15831952D02*
X5855952Y-15841476D01*
X5855952Y-15841476D02*
X5836905Y-15841476D01*
X5836905Y-15841476D02*
X5817857Y-15831952D01*
X5817857Y-15831952D02*
X5808333Y-15822428D01*
X5808333Y-15822428D02*
X5798809Y-15803381D01*
X5798809Y-15803381D02*
X5789286Y-15765286D01*
X5789286Y-15765286D02*
X5789286Y-15717667D01*
X5789286Y-15717667D02*
X5798809Y-15679571D01*
X5798809Y-15679571D02*
X5808333Y-15660524D01*
X5808333Y-15660524D02*
X5817857Y-15651000D01*
X5817857Y-15651000D02*
X5836905Y-15641476D01*
X6027381Y-15641476D02*
X6046429Y-15641476D01*
X6046429Y-15641476D02*
X6065476Y-15651000D01*
X6065476Y-15651000D02*
X6075000Y-15660524D01*
X6075000Y-15660524D02*
X6084524Y-15679571D01*
X6084524Y-15679571D02*
X6094048Y-15717667D01*
X6094048Y-15717667D02*
X6094048Y-15765286D01*
X6094048Y-15765286D02*
X6084524Y-15803381D01*
X6084524Y-15803381D02*
X6075000Y-15822428D01*
X6075000Y-15822428D02*
X6065476Y-15831952D01*
X6065476Y-15831952D02*
X6046429Y-15841476D01*
X6046429Y-15841476D02*
X6027381Y-15841476D01*
X6027381Y-15841476D02*
X6008333Y-15831952D01*
X6008333Y-15831952D02*
X5998809Y-15822428D01*
X5998809Y-15822428D02*
X5989286Y-15803381D01*
X5989286Y-15803381D02*
X5979762Y-15765286D01*
X5979762Y-15765286D02*
X5979762Y-15717667D01*
X5979762Y-15717667D02*
X5989286Y-15679571D01*
X5989286Y-15679571D02*
X5998809Y-15660524D01*
X5998809Y-15660524D02*
X6008333Y-15651000D01*
X6008333Y-15651000D02*
X6027381Y-15641476D01*
X6179762Y-15841476D02*
X6179762Y-15708143D01*
X6179762Y-15727190D02*
X6189286Y-15717667D01*
X6189286Y-15717667D02*
X6208333Y-15708143D01*
X6208333Y-15708143D02*
X6236905Y-15708143D01*
X6236905Y-15708143D02*
X6255952Y-15717667D01*
X6255952Y-15717667D02*
X6265476Y-15736714D01*
X6265476Y-15736714D02*
X6265476Y-15841476D01*
X6265476Y-15736714D02*
X6275000Y-15717667D01*
X6275000Y-15717667D02*
X6294048Y-15708143D01*
X6294048Y-15708143D02*
X6322619Y-15708143D01*
X6322619Y-15708143D02*
X6341667Y-15717667D01*
X6341667Y-15717667D02*
X6351190Y-15736714D01*
X6351190Y-15736714D02*
X6351190Y-15841476D01*
X6446429Y-15841476D02*
X6446429Y-15708143D01*
X6446429Y-15727190D02*
X6455952Y-15717667D01*
X6455952Y-15717667D02*
X6475000Y-15708143D01*
X6475000Y-15708143D02*
X6503571Y-15708143D01*
X6503571Y-15708143D02*
X6522619Y-15717667D01*
X6522619Y-15717667D02*
X6532143Y-15736714D01*
X6532143Y-15736714D02*
X6532143Y-15841476D01*
X6532143Y-15736714D02*
X6541667Y-15717667D01*
X6541667Y-15717667D02*
X6560714Y-15708143D01*
X6560714Y-15708143D02*
X6589286Y-15708143D01*
X6589286Y-15708143D02*
X6608333Y-15717667D01*
X6608333Y-15717667D02*
X6617857Y-15736714D01*
X6617857Y-15736714D02*
X6617857Y-15841476D01*
X6975952Y-15631952D02*
X6804524Y-15889095D01*
X7200714Y-15641476D02*
X7219762Y-15641476D01*
X7219762Y-15641476D02*
X7238810Y-15651000D01*
X7238810Y-15651000D02*
X7248333Y-15660524D01*
X7248333Y-15660524D02*
X7257857Y-15679571D01*
X7257857Y-15679571D02*
X7267381Y-15717667D01*
X7267381Y-15717667D02*
X7267381Y-15765286D01*
X7267381Y-15765286D02*
X7257857Y-15803381D01*
X7257857Y-15803381D02*
X7248333Y-15822428D01*
X7248333Y-15822428D02*
X7238810Y-15831952D01*
X7238810Y-15831952D02*
X7219762Y-15841476D01*
X7219762Y-15841476D02*
X7200714Y-15841476D01*
X7200714Y-15841476D02*
X7181667Y-15831952D01*
X7181667Y-15831952D02*
X7172143Y-15822428D01*
X7172143Y-15822428D02*
X7162619Y-15803381D01*
X7162619Y-15803381D02*
X7153095Y-15765286D01*
X7153095Y-15765286D02*
X7153095Y-15717667D01*
X7153095Y-15717667D02*
X7162619Y-15679571D01*
X7162619Y-15679571D02*
X7172143Y-15660524D01*
X7172143Y-15660524D02*
X7181667Y-15651000D01*
X7181667Y-15651000D02*
X7200714Y-15641476D01*
X7353095Y-15822428D02*
X7362619Y-15831952D01*
X7362619Y-15831952D02*
X7353095Y-15841476D01*
X7353095Y-15841476D02*
X7343571Y-15831952D01*
X7343571Y-15831952D02*
X7353095Y-15822428D01*
X7353095Y-15822428D02*
X7353095Y-15841476D01*
X7486429Y-15641476D02*
X7505476Y-15641476D01*
X7505476Y-15641476D02*
X7524524Y-15651000D01*
X7524524Y-15651000D02*
X7534048Y-15660524D01*
X7534048Y-15660524D02*
X7543571Y-15679571D01*
X7543571Y-15679571D02*
X7553095Y-15717667D01*
X7553095Y-15717667D02*
X7553095Y-15765286D01*
X7553095Y-15765286D02*
X7543571Y-15803381D01*
X7543571Y-15803381D02*
X7534048Y-15822428D01*
X7534048Y-15822428D02*
X7524524Y-15831952D01*
X7524524Y-15831952D02*
X7505476Y-15841476D01*
X7505476Y-15841476D02*
X7486429Y-15841476D01*
X7486429Y-15841476D02*
X7467381Y-15831952D01*
X7467381Y-15831952D02*
X7457857Y-15822428D01*
X7457857Y-15822428D02*
X7448333Y-15803381D01*
X7448333Y-15803381D02*
X7438810Y-15765286D01*
X7438810Y-15765286D02*
X7438810Y-15717667D01*
X7438810Y-15717667D02*
X7448333Y-15679571D01*
X7448333Y-15679571D02*
X7457857Y-15660524D01*
X7457857Y-15660524D02*
X7467381Y-15651000D01*
X7467381Y-15651000D02*
X7486429Y-15641476D01*
X7619762Y-15641476D02*
X7743571Y-15641476D01*
X7743571Y-15641476D02*
X7676905Y-15717667D01*
X7676905Y-15717667D02*
X7705476Y-15717667D01*
X7705476Y-15717667D02*
X7724524Y-15727190D01*
X7724524Y-15727190D02*
X7734048Y-15736714D01*
X7734048Y-15736714D02*
X7743571Y-15755762D01*
X7743571Y-15755762D02*
X7743571Y-15803381D01*
X7743571Y-15803381D02*
X7734048Y-15822428D01*
X7734048Y-15822428D02*
X7724524Y-15831952D01*
X7724524Y-15831952D02*
X7705476Y-15841476D01*
X7705476Y-15841476D02*
X7648333Y-15841476D01*
X7648333Y-15841476D02*
X7629286Y-15831952D01*
X7629286Y-15831952D02*
X7619762Y-15822428D01*
X7934048Y-15841476D02*
X7819762Y-15841476D01*
X7876905Y-15841476D02*
X7876905Y-15641476D01*
X7876905Y-15641476D02*
X7857857Y-15670048D01*
X7857857Y-15670048D02*
X7838810Y-15689095D01*
X7838810Y-15689095D02*
X7819762Y-15698619D01*
X8115000Y-15641476D02*
X8019762Y-15641476D01*
X8019762Y-15641476D02*
X8010238Y-15736714D01*
X8010238Y-15736714D02*
X8019762Y-15727190D01*
X8019762Y-15727190D02*
X8038810Y-15717667D01*
X8038810Y-15717667D02*
X8086429Y-15717667D01*
X8086429Y-15717667D02*
X8105476Y-15727190D01*
X8105476Y-15727190D02*
X8115000Y-15736714D01*
X8115000Y-15736714D02*
X8124524Y-15755762D01*
X8124524Y-15755762D02*
X8124524Y-15803381D01*
X8124524Y-15803381D02*
X8115000Y-15822428D01*
X8115000Y-15822428D02*
X8105476Y-15831952D01*
X8105476Y-15831952D02*
X8086429Y-15841476D01*
X8086429Y-15841476D02*
X8038810Y-15841476D01*
X8038810Y-15841476D02*
X8019762Y-15831952D01*
X8019762Y-15831952D02*
X8010238Y-15822428D01*
X8200714Y-15641476D02*
X8200714Y-15679571D01*
X8276905Y-15641476D02*
X8276905Y-15679571D01*
X8539762Y-15917667D02*
X8530238Y-15908143D01*
X8530238Y-15908143D02*
X8511191Y-15879571D01*
X8511191Y-15879571D02*
X8501667Y-15860524D01*
X8501667Y-15860524D02*
X8492143Y-15831952D01*
X8492143Y-15831952D02*
X8482619Y-15784333D01*
X8482619Y-15784333D02*
X8482619Y-15746238D01*
X8482619Y-15746238D02*
X8492143Y-15698619D01*
X8492143Y-15698619D02*
X8501667Y-15670048D01*
X8501667Y-15670048D02*
X8511191Y-15651000D01*
X8511191Y-15651000D02*
X8530238Y-15622428D01*
X8530238Y-15622428D02*
X8539762Y-15612905D01*
X8720714Y-15841476D02*
X8606429Y-15841476D01*
X8663572Y-15841476D02*
X8663572Y-15641476D01*
X8663572Y-15641476D02*
X8644524Y-15670048D01*
X8644524Y-15670048D02*
X8625476Y-15689095D01*
X8625476Y-15689095D02*
X8606429Y-15698619D01*
X8835000Y-15727190D02*
X8815953Y-15717667D01*
X8815953Y-15717667D02*
X8806429Y-15708143D01*
X8806429Y-15708143D02*
X8796905Y-15689095D01*
X8796905Y-15689095D02*
X8796905Y-15679571D01*
X8796905Y-15679571D02*
X8806429Y-15660524D01*
X8806429Y-15660524D02*
X8815953Y-15651000D01*
X8815953Y-15651000D02*
X8835000Y-15641476D01*
X8835000Y-15641476D02*
X8873095Y-15641476D01*
X8873095Y-15641476D02*
X8892143Y-15651000D01*
X8892143Y-15651000D02*
X8901667Y-15660524D01*
X8901667Y-15660524D02*
X8911191Y-15679571D01*
X8911191Y-15679571D02*
X8911191Y-15689095D01*
X8911191Y-15689095D02*
X8901667Y-15708143D01*
X8901667Y-15708143D02*
X8892143Y-15717667D01*
X8892143Y-15717667D02*
X8873095Y-15727190D01*
X8873095Y-15727190D02*
X8835000Y-15727190D01*
X8835000Y-15727190D02*
X8815953Y-15736714D01*
X8815953Y-15736714D02*
X8806429Y-15746238D01*
X8806429Y-15746238D02*
X8796905Y-15765286D01*
X8796905Y-15765286D02*
X8796905Y-15803381D01*
X8796905Y-15803381D02*
X8806429Y-15822428D01*
X8806429Y-15822428D02*
X8815953Y-15831952D01*
X8815953Y-15831952D02*
X8835000Y-15841476D01*
X8835000Y-15841476D02*
X8873095Y-15841476D01*
X8873095Y-15841476D02*
X8892143Y-15831952D01*
X8892143Y-15831952D02*
X8901667Y-15822428D01*
X8901667Y-15822428D02*
X8911191Y-15803381D01*
X8911191Y-15803381D02*
X8911191Y-15765286D01*
X8911191Y-15765286D02*
X8901667Y-15746238D01*
X8901667Y-15746238D02*
X8892143Y-15736714D01*
X8892143Y-15736714D02*
X8873095Y-15727190D01*
X8977857Y-15641476D02*
X9111191Y-15641476D01*
X9111191Y-15641476D02*
X9025476Y-15841476D01*
X9307381Y-15841476D02*
X9307381Y-15641476D01*
X9393095Y-15841476D02*
X9393095Y-15736714D01*
X9393095Y-15736714D02*
X9383572Y-15717667D01*
X9383572Y-15717667D02*
X9364524Y-15708143D01*
X9364524Y-15708143D02*
X9335953Y-15708143D01*
X9335953Y-15708143D02*
X9316905Y-15717667D01*
X9316905Y-15717667D02*
X9307381Y-15727190D01*
X9516905Y-15841476D02*
X9497857Y-15831952D01*
X9497857Y-15831952D02*
X9488334Y-15822428D01*
X9488334Y-15822428D02*
X9478810Y-15803381D01*
X9478810Y-15803381D02*
X9478810Y-15746238D01*
X9478810Y-15746238D02*
X9488334Y-15727190D01*
X9488334Y-15727190D02*
X9497857Y-15717667D01*
X9497857Y-15717667D02*
X9516905Y-15708143D01*
X9516905Y-15708143D02*
X9545476Y-15708143D01*
X9545476Y-15708143D02*
X9564524Y-15717667D01*
X9564524Y-15717667D02*
X9574048Y-15727190D01*
X9574048Y-15727190D02*
X9583572Y-15746238D01*
X9583572Y-15746238D02*
X9583572Y-15803381D01*
X9583572Y-15803381D02*
X9574048Y-15822428D01*
X9574048Y-15822428D02*
X9564524Y-15831952D01*
X9564524Y-15831952D02*
X9545476Y-15841476D01*
X9545476Y-15841476D02*
X9516905Y-15841476D01*
X9697857Y-15841476D02*
X9678810Y-15831952D01*
X9678810Y-15831952D02*
X9669286Y-15812905D01*
X9669286Y-15812905D02*
X9669286Y-15641476D01*
X9850238Y-15831952D02*
X9831191Y-15841476D01*
X9831191Y-15841476D02*
X9793095Y-15841476D01*
X9793095Y-15841476D02*
X9774048Y-15831952D01*
X9774048Y-15831952D02*
X9764524Y-15812905D01*
X9764524Y-15812905D02*
X9764524Y-15736714D01*
X9764524Y-15736714D02*
X9774048Y-15717667D01*
X9774048Y-15717667D02*
X9793095Y-15708143D01*
X9793095Y-15708143D02*
X9831191Y-15708143D01*
X9831191Y-15708143D02*
X9850238Y-15717667D01*
X9850238Y-15717667D02*
X9859762Y-15736714D01*
X9859762Y-15736714D02*
X9859762Y-15755762D01*
X9859762Y-15755762D02*
X9764524Y-15774809D01*
X9935953Y-15831952D02*
X9955000Y-15841476D01*
X9955000Y-15841476D02*
X9993095Y-15841476D01*
X9993095Y-15841476D02*
X10012143Y-15831952D01*
X10012143Y-15831952D02*
X10021667Y-15812905D01*
X10021667Y-15812905D02*
X10021667Y-15803381D01*
X10021667Y-15803381D02*
X10012143Y-15784333D01*
X10012143Y-15784333D02*
X9993095Y-15774809D01*
X9993095Y-15774809D02*
X9964524Y-15774809D01*
X9964524Y-15774809D02*
X9945476Y-15765286D01*
X9945476Y-15765286D02*
X9935953Y-15746238D01*
X9935953Y-15746238D02*
X9935953Y-15736714D01*
X9935953Y-15736714D02*
X9945476Y-15717667D01*
X9945476Y-15717667D02*
X9964524Y-15708143D01*
X9964524Y-15708143D02*
X9993095Y-15708143D01*
X9993095Y-15708143D02*
X10012143Y-15717667D01*
X10088334Y-15917667D02*
X10097857Y-15908143D01*
X10097857Y-15908143D02*
X10116905Y-15879571D01*
X10116905Y-15879571D02*
X10126429Y-15860524D01*
X10126429Y-15860524D02*
X10135953Y-15831952D01*
X10135953Y-15831952D02*
X10145476Y-15784333D01*
X10145476Y-15784333D02*
X10145476Y-15746238D01*
X10145476Y-15746238D02*
X10135953Y-15698619D01*
X10135953Y-15698619D02*
X10126429Y-15670048D01*
X10126429Y-15670048D02*
X10116905Y-15651000D01*
X10116905Y-15651000D02*
X10097857Y-15622428D01*
X10097857Y-15622428D02*
X10088334Y-15612905D01*
D14*
X5030000Y-15987000D02*
X5030000Y-16077000D01*
X4985000Y-16032000D02*
X5075000Y-16032000D01*
D11*
X5360714Y-15905476D02*
X5379762Y-15905476D01*
X5379762Y-15905476D02*
X5398810Y-15915000D01*
X5398810Y-15915000D02*
X5408333Y-15924524D01*
X5408333Y-15924524D02*
X5417857Y-15943571D01*
X5417857Y-15943571D02*
X5427381Y-15981667D01*
X5427381Y-15981667D02*
X5427381Y-16029286D01*
X5427381Y-16029286D02*
X5417857Y-16067381D01*
X5417857Y-16067381D02*
X5408333Y-16086428D01*
X5408333Y-16086428D02*
X5398810Y-16095952D01*
X5398810Y-16095952D02*
X5379762Y-16105476D01*
X5379762Y-16105476D02*
X5360714Y-16105476D01*
X5360714Y-16105476D02*
X5341667Y-16095952D01*
X5341667Y-16095952D02*
X5332143Y-16086428D01*
X5332143Y-16086428D02*
X5322619Y-16067381D01*
X5322619Y-16067381D02*
X5313095Y-16029286D01*
X5313095Y-16029286D02*
X5313095Y-15981667D01*
X5313095Y-15981667D02*
X5322619Y-15943571D01*
X5322619Y-15943571D02*
X5332143Y-15924524D01*
X5332143Y-15924524D02*
X5341667Y-15915000D01*
X5341667Y-15915000D02*
X5360714Y-15905476D01*
X5513095Y-16086428D02*
X5522619Y-16095952D01*
X5522619Y-16095952D02*
X5513095Y-16105476D01*
X5513095Y-16105476D02*
X5503571Y-16095952D01*
X5503571Y-16095952D02*
X5513095Y-16086428D01*
X5513095Y-16086428D02*
X5513095Y-16105476D01*
X5617857Y-16105476D02*
X5655952Y-16105476D01*
X5655952Y-16105476D02*
X5675000Y-16095952D01*
X5675000Y-16095952D02*
X5684524Y-16086428D01*
X5684524Y-16086428D02*
X5703571Y-16057857D01*
X5703571Y-16057857D02*
X5713095Y-16019762D01*
X5713095Y-16019762D02*
X5713095Y-15943571D01*
X5713095Y-15943571D02*
X5703571Y-15924524D01*
X5703571Y-15924524D02*
X5694048Y-15915000D01*
X5694048Y-15915000D02*
X5675000Y-15905476D01*
X5675000Y-15905476D02*
X5636905Y-15905476D01*
X5636905Y-15905476D02*
X5617857Y-15915000D01*
X5617857Y-15915000D02*
X5608333Y-15924524D01*
X5608333Y-15924524D02*
X5598809Y-15943571D01*
X5598809Y-15943571D02*
X5598809Y-15991190D01*
X5598809Y-15991190D02*
X5608333Y-16010238D01*
X5608333Y-16010238D02*
X5617857Y-16019762D01*
X5617857Y-16019762D02*
X5636905Y-16029286D01*
X5636905Y-16029286D02*
X5675000Y-16029286D01*
X5675000Y-16029286D02*
X5694048Y-16019762D01*
X5694048Y-16019762D02*
X5703571Y-16010238D01*
X5703571Y-16010238D02*
X5713095Y-15991190D01*
X5836905Y-15905476D02*
X5855952Y-15905476D01*
X5855952Y-15905476D02*
X5875000Y-15915000D01*
X5875000Y-15915000D02*
X5884524Y-15924524D01*
X5884524Y-15924524D02*
X5894048Y-15943571D01*
X5894048Y-15943571D02*
X5903571Y-15981667D01*
X5903571Y-15981667D02*
X5903571Y-16029286D01*
X5903571Y-16029286D02*
X5894048Y-16067381D01*
X5894048Y-16067381D02*
X5884524Y-16086428D01*
X5884524Y-16086428D02*
X5875000Y-16095952D01*
X5875000Y-16095952D02*
X5855952Y-16105476D01*
X5855952Y-16105476D02*
X5836905Y-16105476D01*
X5836905Y-16105476D02*
X5817857Y-16095952D01*
X5817857Y-16095952D02*
X5808333Y-16086428D01*
X5808333Y-16086428D02*
X5798809Y-16067381D01*
X5798809Y-16067381D02*
X5789286Y-16029286D01*
X5789286Y-16029286D02*
X5789286Y-15981667D01*
X5789286Y-15981667D02*
X5798809Y-15943571D01*
X5798809Y-15943571D02*
X5808333Y-15924524D01*
X5808333Y-15924524D02*
X5817857Y-15915000D01*
X5817857Y-15915000D02*
X5836905Y-15905476D01*
X6027381Y-15905476D02*
X6046429Y-15905476D01*
X6046429Y-15905476D02*
X6065476Y-15915000D01*
X6065476Y-15915000D02*
X6075000Y-15924524D01*
X6075000Y-15924524D02*
X6084524Y-15943571D01*
X6084524Y-15943571D02*
X6094048Y-15981667D01*
X6094048Y-15981667D02*
X6094048Y-16029286D01*
X6094048Y-16029286D02*
X6084524Y-16067381D01*
X6084524Y-16067381D02*
X6075000Y-16086428D01*
X6075000Y-16086428D02*
X6065476Y-16095952D01*
X6065476Y-16095952D02*
X6046429Y-16105476D01*
X6046429Y-16105476D02*
X6027381Y-16105476D01*
X6027381Y-16105476D02*
X6008333Y-16095952D01*
X6008333Y-16095952D02*
X5998809Y-16086428D01*
X5998809Y-16086428D02*
X5989286Y-16067381D01*
X5989286Y-16067381D02*
X5979762Y-16029286D01*
X5979762Y-16029286D02*
X5979762Y-15981667D01*
X5979762Y-15981667D02*
X5989286Y-15943571D01*
X5989286Y-15943571D02*
X5998809Y-15924524D01*
X5998809Y-15924524D02*
X6008333Y-15915000D01*
X6008333Y-15915000D02*
X6027381Y-15905476D01*
X6179762Y-16105476D02*
X6179762Y-15972143D01*
X6179762Y-15991190D02*
X6189286Y-15981667D01*
X6189286Y-15981667D02*
X6208333Y-15972143D01*
X6208333Y-15972143D02*
X6236905Y-15972143D01*
X6236905Y-15972143D02*
X6255952Y-15981667D01*
X6255952Y-15981667D02*
X6265476Y-16000714D01*
X6265476Y-16000714D02*
X6265476Y-16105476D01*
X6265476Y-16000714D02*
X6275000Y-15981667D01*
X6275000Y-15981667D02*
X6294048Y-15972143D01*
X6294048Y-15972143D02*
X6322619Y-15972143D01*
X6322619Y-15972143D02*
X6341667Y-15981667D01*
X6341667Y-15981667D02*
X6351190Y-16000714D01*
X6351190Y-16000714D02*
X6351190Y-16105476D01*
X6446429Y-16105476D02*
X6446429Y-15972143D01*
X6446429Y-15991190D02*
X6455952Y-15981667D01*
X6455952Y-15981667D02*
X6475000Y-15972143D01*
X6475000Y-15972143D02*
X6503571Y-15972143D01*
X6503571Y-15972143D02*
X6522619Y-15981667D01*
X6522619Y-15981667D02*
X6532143Y-16000714D01*
X6532143Y-16000714D02*
X6532143Y-16105476D01*
X6532143Y-16000714D02*
X6541667Y-15981667D01*
X6541667Y-15981667D02*
X6560714Y-15972143D01*
X6560714Y-15972143D02*
X6589286Y-15972143D01*
X6589286Y-15972143D02*
X6608333Y-15981667D01*
X6608333Y-15981667D02*
X6617857Y-16000714D01*
X6617857Y-16000714D02*
X6617857Y-16105476D01*
X6975952Y-15895952D02*
X6804524Y-16153095D01*
X7200714Y-15905476D02*
X7219762Y-15905476D01*
X7219762Y-15905476D02*
X7238810Y-15915000D01*
X7238810Y-15915000D02*
X7248333Y-15924524D01*
X7248333Y-15924524D02*
X7257857Y-15943571D01*
X7257857Y-15943571D02*
X7267381Y-15981667D01*
X7267381Y-15981667D02*
X7267381Y-16029286D01*
X7267381Y-16029286D02*
X7257857Y-16067381D01*
X7257857Y-16067381D02*
X7248333Y-16086428D01*
X7248333Y-16086428D02*
X7238810Y-16095952D01*
X7238810Y-16095952D02*
X7219762Y-16105476D01*
X7219762Y-16105476D02*
X7200714Y-16105476D01*
X7200714Y-16105476D02*
X7181667Y-16095952D01*
X7181667Y-16095952D02*
X7172143Y-16086428D01*
X7172143Y-16086428D02*
X7162619Y-16067381D01*
X7162619Y-16067381D02*
X7153095Y-16029286D01*
X7153095Y-16029286D02*
X7153095Y-15981667D01*
X7153095Y-15981667D02*
X7162619Y-15943571D01*
X7162619Y-15943571D02*
X7172143Y-15924524D01*
X7172143Y-15924524D02*
X7181667Y-15915000D01*
X7181667Y-15915000D02*
X7200714Y-15905476D01*
X7353095Y-16086428D02*
X7362619Y-16095952D01*
X7362619Y-16095952D02*
X7353095Y-16105476D01*
X7353095Y-16105476D02*
X7343571Y-16095952D01*
X7343571Y-16095952D02*
X7353095Y-16086428D01*
X7353095Y-16086428D02*
X7353095Y-16105476D01*
X7486429Y-15905476D02*
X7505476Y-15905476D01*
X7505476Y-15905476D02*
X7524524Y-15915000D01*
X7524524Y-15915000D02*
X7534048Y-15924524D01*
X7534048Y-15924524D02*
X7543571Y-15943571D01*
X7543571Y-15943571D02*
X7553095Y-15981667D01*
X7553095Y-15981667D02*
X7553095Y-16029286D01*
X7553095Y-16029286D02*
X7543571Y-16067381D01*
X7543571Y-16067381D02*
X7534048Y-16086428D01*
X7534048Y-16086428D02*
X7524524Y-16095952D01*
X7524524Y-16095952D02*
X7505476Y-16105476D01*
X7505476Y-16105476D02*
X7486429Y-16105476D01*
X7486429Y-16105476D02*
X7467381Y-16095952D01*
X7467381Y-16095952D02*
X7457857Y-16086428D01*
X7457857Y-16086428D02*
X7448333Y-16067381D01*
X7448333Y-16067381D02*
X7438810Y-16029286D01*
X7438810Y-16029286D02*
X7438810Y-15981667D01*
X7438810Y-15981667D02*
X7448333Y-15943571D01*
X7448333Y-15943571D02*
X7457857Y-15924524D01*
X7457857Y-15924524D02*
X7467381Y-15915000D01*
X7467381Y-15915000D02*
X7486429Y-15905476D01*
X7619762Y-15905476D02*
X7743571Y-15905476D01*
X7743571Y-15905476D02*
X7676905Y-15981667D01*
X7676905Y-15981667D02*
X7705476Y-15981667D01*
X7705476Y-15981667D02*
X7724524Y-15991190D01*
X7724524Y-15991190D02*
X7734048Y-16000714D01*
X7734048Y-16000714D02*
X7743571Y-16019762D01*
X7743571Y-16019762D02*
X7743571Y-16067381D01*
X7743571Y-16067381D02*
X7734048Y-16086428D01*
X7734048Y-16086428D02*
X7724524Y-16095952D01*
X7724524Y-16095952D02*
X7705476Y-16105476D01*
X7705476Y-16105476D02*
X7648333Y-16105476D01*
X7648333Y-16105476D02*
X7629286Y-16095952D01*
X7629286Y-16095952D02*
X7619762Y-16086428D01*
X7924524Y-15905476D02*
X7829286Y-15905476D01*
X7829286Y-15905476D02*
X7819762Y-16000714D01*
X7819762Y-16000714D02*
X7829286Y-15991190D01*
X7829286Y-15991190D02*
X7848333Y-15981667D01*
X7848333Y-15981667D02*
X7895952Y-15981667D01*
X7895952Y-15981667D02*
X7915000Y-15991190D01*
X7915000Y-15991190D02*
X7924524Y-16000714D01*
X7924524Y-16000714D02*
X7934048Y-16019762D01*
X7934048Y-16019762D02*
X7934048Y-16067381D01*
X7934048Y-16067381D02*
X7924524Y-16086428D01*
X7924524Y-16086428D02*
X7915000Y-16095952D01*
X7915000Y-16095952D02*
X7895952Y-16105476D01*
X7895952Y-16105476D02*
X7848333Y-16105476D01*
X7848333Y-16105476D02*
X7829286Y-16095952D01*
X7829286Y-16095952D02*
X7819762Y-16086428D01*
X8105476Y-15972143D02*
X8105476Y-16105476D01*
X8057857Y-15895952D02*
X8010238Y-16038809D01*
X8010238Y-16038809D02*
X8134048Y-16038809D01*
X8200714Y-15905476D02*
X8200714Y-15943571D01*
X8276905Y-15905476D02*
X8276905Y-15943571D01*
X8539762Y-16181667D02*
X8530238Y-16172143D01*
X8530238Y-16172143D02*
X8511191Y-16143571D01*
X8511191Y-16143571D02*
X8501667Y-16124524D01*
X8501667Y-16124524D02*
X8492143Y-16095952D01*
X8492143Y-16095952D02*
X8482619Y-16048333D01*
X8482619Y-16048333D02*
X8482619Y-16010238D01*
X8482619Y-16010238D02*
X8492143Y-15962619D01*
X8492143Y-15962619D02*
X8501667Y-15934048D01*
X8501667Y-15934048D02*
X8511191Y-15915000D01*
X8511191Y-15915000D02*
X8530238Y-15886428D01*
X8530238Y-15886428D02*
X8539762Y-15876905D01*
X8596905Y-15905476D02*
X8720714Y-15905476D01*
X8720714Y-15905476D02*
X8654048Y-15981667D01*
X8654048Y-15981667D02*
X8682619Y-15981667D01*
X8682619Y-15981667D02*
X8701667Y-15991190D01*
X8701667Y-15991190D02*
X8711191Y-16000714D01*
X8711191Y-16000714D02*
X8720714Y-16019762D01*
X8720714Y-16019762D02*
X8720714Y-16067381D01*
X8720714Y-16067381D02*
X8711191Y-16086428D01*
X8711191Y-16086428D02*
X8701667Y-16095952D01*
X8701667Y-16095952D02*
X8682619Y-16105476D01*
X8682619Y-16105476D02*
X8625476Y-16105476D01*
X8625476Y-16105476D02*
X8606429Y-16095952D01*
X8606429Y-16095952D02*
X8596905Y-16086428D01*
X8796905Y-15924524D02*
X8806429Y-15915000D01*
X8806429Y-15915000D02*
X8825476Y-15905476D01*
X8825476Y-15905476D02*
X8873095Y-15905476D01*
X8873095Y-15905476D02*
X8892143Y-15915000D01*
X8892143Y-15915000D02*
X8901667Y-15924524D01*
X8901667Y-15924524D02*
X8911191Y-15943571D01*
X8911191Y-15943571D02*
X8911191Y-15962619D01*
X8911191Y-15962619D02*
X8901667Y-15991190D01*
X8901667Y-15991190D02*
X8787381Y-16105476D01*
X8787381Y-16105476D02*
X8911191Y-16105476D01*
X9116905Y-16105476D02*
X9116905Y-15905476D01*
X9202619Y-16105476D02*
X9202619Y-16000714D01*
X9202619Y-16000714D02*
X9193095Y-15981667D01*
X9193095Y-15981667D02*
X9174048Y-15972143D01*
X9174048Y-15972143D02*
X9145476Y-15972143D01*
X9145476Y-15972143D02*
X9126429Y-15981667D01*
X9126429Y-15981667D02*
X9116905Y-15991190D01*
X9326429Y-16105476D02*
X9307381Y-16095952D01*
X9307381Y-16095952D02*
X9297857Y-16086428D01*
X9297857Y-16086428D02*
X9288334Y-16067381D01*
X9288334Y-16067381D02*
X9288334Y-16010238D01*
X9288334Y-16010238D02*
X9297857Y-15991190D01*
X9297857Y-15991190D02*
X9307381Y-15981667D01*
X9307381Y-15981667D02*
X9326429Y-15972143D01*
X9326429Y-15972143D02*
X9355000Y-15972143D01*
X9355000Y-15972143D02*
X9374048Y-15981667D01*
X9374048Y-15981667D02*
X9383572Y-15991190D01*
X9383572Y-15991190D02*
X9393095Y-16010238D01*
X9393095Y-16010238D02*
X9393095Y-16067381D01*
X9393095Y-16067381D02*
X9383572Y-16086428D01*
X9383572Y-16086428D02*
X9374048Y-16095952D01*
X9374048Y-16095952D02*
X9355000Y-16105476D01*
X9355000Y-16105476D02*
X9326429Y-16105476D01*
X9507381Y-16105476D02*
X9488334Y-16095952D01*
X9488334Y-16095952D02*
X9478810Y-16076905D01*
X9478810Y-16076905D02*
X9478810Y-15905476D01*
X9659762Y-16095952D02*
X9640715Y-16105476D01*
X9640715Y-16105476D02*
X9602619Y-16105476D01*
X9602619Y-16105476D02*
X9583572Y-16095952D01*
X9583572Y-16095952D02*
X9574048Y-16076905D01*
X9574048Y-16076905D02*
X9574048Y-16000714D01*
X9574048Y-16000714D02*
X9583572Y-15981667D01*
X9583572Y-15981667D02*
X9602619Y-15972143D01*
X9602619Y-15972143D02*
X9640715Y-15972143D01*
X9640715Y-15972143D02*
X9659762Y-15981667D01*
X9659762Y-15981667D02*
X9669286Y-16000714D01*
X9669286Y-16000714D02*
X9669286Y-16019762D01*
X9669286Y-16019762D02*
X9574048Y-16038809D01*
X9745476Y-16095952D02*
X9764524Y-16105476D01*
X9764524Y-16105476D02*
X9802619Y-16105476D01*
X9802619Y-16105476D02*
X9821667Y-16095952D01*
X9821667Y-16095952D02*
X9831191Y-16076905D01*
X9831191Y-16076905D02*
X9831191Y-16067381D01*
X9831191Y-16067381D02*
X9821667Y-16048333D01*
X9821667Y-16048333D02*
X9802619Y-16038809D01*
X9802619Y-16038809D02*
X9774048Y-16038809D01*
X9774048Y-16038809D02*
X9755000Y-16029286D01*
X9755000Y-16029286D02*
X9745476Y-16010238D01*
X9745476Y-16010238D02*
X9745476Y-16000714D01*
X9745476Y-16000714D02*
X9755000Y-15981667D01*
X9755000Y-15981667D02*
X9774048Y-15972143D01*
X9774048Y-15972143D02*
X9802619Y-15972143D01*
X9802619Y-15972143D02*
X9821667Y-15981667D01*
X9897857Y-16181667D02*
X9907381Y-16172143D01*
X9907381Y-16172143D02*
X9926429Y-16143571D01*
X9926429Y-16143571D02*
X9935953Y-16124524D01*
X9935953Y-16124524D02*
X9945476Y-16095952D01*
X9945476Y-16095952D02*
X9955000Y-16048333D01*
X9955000Y-16048333D02*
X9955000Y-16010238D01*
X9955000Y-16010238D02*
X9945476Y-15962619D01*
X9945476Y-15962619D02*
X9935953Y-15934048D01*
X9935953Y-15934048D02*
X9926429Y-15915000D01*
X9926429Y-15915000D02*
X9907381Y-15886428D01*
X9907381Y-15886428D02*
X9897857Y-15876905D01*
D10*
X5060356Y-16331356D02*
X5060356Y-16260644D01*
X4989644Y-16260644D01*
X4989644Y-16331356D01*
X5060356Y-16331356D01*
D11*
X5427381Y-16369476D02*
X5313095Y-16369476D01*
X5370238Y-16369476D02*
X5370238Y-16169476D01*
X5370238Y-16169476D02*
X5351190Y-16198048D01*
X5351190Y-16198048D02*
X5332143Y-16217095D01*
X5332143Y-16217095D02*
X5313095Y-16226619D01*
X5513095Y-16350428D02*
X5522619Y-16359952D01*
X5522619Y-16359952D02*
X5513095Y-16369476D01*
X5513095Y-16369476D02*
X5503571Y-16359952D01*
X5503571Y-16359952D02*
X5513095Y-16350428D01*
X5513095Y-16350428D02*
X5513095Y-16369476D01*
X5646428Y-16169476D02*
X5665476Y-16169476D01*
X5665476Y-16169476D02*
X5684524Y-16179000D01*
X5684524Y-16179000D02*
X5694048Y-16188524D01*
X5694048Y-16188524D02*
X5703571Y-16207571D01*
X5703571Y-16207571D02*
X5713095Y-16245667D01*
X5713095Y-16245667D02*
X5713095Y-16293286D01*
X5713095Y-16293286D02*
X5703571Y-16331381D01*
X5703571Y-16331381D02*
X5694048Y-16350428D01*
X5694048Y-16350428D02*
X5684524Y-16359952D01*
X5684524Y-16359952D02*
X5665476Y-16369476D01*
X5665476Y-16369476D02*
X5646428Y-16369476D01*
X5646428Y-16369476D02*
X5627381Y-16359952D01*
X5627381Y-16359952D02*
X5617857Y-16350428D01*
X5617857Y-16350428D02*
X5608333Y-16331381D01*
X5608333Y-16331381D02*
X5598809Y-16293286D01*
X5598809Y-16293286D02*
X5598809Y-16245667D01*
X5598809Y-16245667D02*
X5608333Y-16207571D01*
X5608333Y-16207571D02*
X5617857Y-16188524D01*
X5617857Y-16188524D02*
X5627381Y-16179000D01*
X5627381Y-16179000D02*
X5646428Y-16169476D01*
X5836905Y-16169476D02*
X5855952Y-16169476D01*
X5855952Y-16169476D02*
X5875000Y-16179000D01*
X5875000Y-16179000D02*
X5884524Y-16188524D01*
X5884524Y-16188524D02*
X5894048Y-16207571D01*
X5894048Y-16207571D02*
X5903571Y-16245667D01*
X5903571Y-16245667D02*
X5903571Y-16293286D01*
X5903571Y-16293286D02*
X5894048Y-16331381D01*
X5894048Y-16331381D02*
X5884524Y-16350428D01*
X5884524Y-16350428D02*
X5875000Y-16359952D01*
X5875000Y-16359952D02*
X5855952Y-16369476D01*
X5855952Y-16369476D02*
X5836905Y-16369476D01*
X5836905Y-16369476D02*
X5817857Y-16359952D01*
X5817857Y-16359952D02*
X5808333Y-16350428D01*
X5808333Y-16350428D02*
X5798809Y-16331381D01*
X5798809Y-16331381D02*
X5789286Y-16293286D01*
X5789286Y-16293286D02*
X5789286Y-16245667D01*
X5789286Y-16245667D02*
X5798809Y-16207571D01*
X5798809Y-16207571D02*
X5808333Y-16188524D01*
X5808333Y-16188524D02*
X5817857Y-16179000D01*
X5817857Y-16179000D02*
X5836905Y-16169476D01*
X6027381Y-16169476D02*
X6046429Y-16169476D01*
X6046429Y-16169476D02*
X6065476Y-16179000D01*
X6065476Y-16179000D02*
X6075000Y-16188524D01*
X6075000Y-16188524D02*
X6084524Y-16207571D01*
X6084524Y-16207571D02*
X6094048Y-16245667D01*
X6094048Y-16245667D02*
X6094048Y-16293286D01*
X6094048Y-16293286D02*
X6084524Y-16331381D01*
X6084524Y-16331381D02*
X6075000Y-16350428D01*
X6075000Y-16350428D02*
X6065476Y-16359952D01*
X6065476Y-16359952D02*
X6046429Y-16369476D01*
X6046429Y-16369476D02*
X6027381Y-16369476D01*
X6027381Y-16369476D02*
X6008333Y-16359952D01*
X6008333Y-16359952D02*
X5998809Y-16350428D01*
X5998809Y-16350428D02*
X5989286Y-16331381D01*
X5989286Y-16331381D02*
X5979762Y-16293286D01*
X5979762Y-16293286D02*
X5979762Y-16245667D01*
X5979762Y-16245667D02*
X5989286Y-16207571D01*
X5989286Y-16207571D02*
X5998809Y-16188524D01*
X5998809Y-16188524D02*
X6008333Y-16179000D01*
X6008333Y-16179000D02*
X6027381Y-16169476D01*
X6179762Y-16369476D02*
X6179762Y-16236143D01*
X6179762Y-16255190D02*
X6189286Y-16245667D01*
X6189286Y-16245667D02*
X6208333Y-16236143D01*
X6208333Y-16236143D02*
X6236905Y-16236143D01*
X6236905Y-16236143D02*
X6255952Y-16245667D01*
X6255952Y-16245667D02*
X6265476Y-16264714D01*
X6265476Y-16264714D02*
X6265476Y-16369476D01*
X6265476Y-16264714D02*
X6275000Y-16245667D01*
X6275000Y-16245667D02*
X6294048Y-16236143D01*
X6294048Y-16236143D02*
X6322619Y-16236143D01*
X6322619Y-16236143D02*
X6341667Y-16245667D01*
X6341667Y-16245667D02*
X6351190Y-16264714D01*
X6351190Y-16264714D02*
X6351190Y-16369476D01*
X6446429Y-16369476D02*
X6446429Y-16236143D01*
X6446429Y-16255190D02*
X6455952Y-16245667D01*
X6455952Y-16245667D02*
X6475000Y-16236143D01*
X6475000Y-16236143D02*
X6503571Y-16236143D01*
X6503571Y-16236143D02*
X6522619Y-16245667D01*
X6522619Y-16245667D02*
X6532143Y-16264714D01*
X6532143Y-16264714D02*
X6532143Y-16369476D01*
X6532143Y-16264714D02*
X6541667Y-16245667D01*
X6541667Y-16245667D02*
X6560714Y-16236143D01*
X6560714Y-16236143D02*
X6589286Y-16236143D01*
X6589286Y-16236143D02*
X6608333Y-16245667D01*
X6608333Y-16245667D02*
X6617857Y-16264714D01*
X6617857Y-16264714D02*
X6617857Y-16369476D01*
X6975952Y-16159952D02*
X6804524Y-16417095D01*
X7200714Y-16169476D02*
X7219762Y-16169476D01*
X7219762Y-16169476D02*
X7238810Y-16179000D01*
X7238810Y-16179000D02*
X7248333Y-16188524D01*
X7248333Y-16188524D02*
X7257857Y-16207571D01*
X7257857Y-16207571D02*
X7267381Y-16245667D01*
X7267381Y-16245667D02*
X7267381Y-16293286D01*
X7267381Y-16293286D02*
X7257857Y-16331381D01*
X7257857Y-16331381D02*
X7248333Y-16350428D01*
X7248333Y-16350428D02*
X7238810Y-16359952D01*
X7238810Y-16359952D02*
X7219762Y-16369476D01*
X7219762Y-16369476D02*
X7200714Y-16369476D01*
X7200714Y-16369476D02*
X7181667Y-16359952D01*
X7181667Y-16359952D02*
X7172143Y-16350428D01*
X7172143Y-16350428D02*
X7162619Y-16331381D01*
X7162619Y-16331381D02*
X7153095Y-16293286D01*
X7153095Y-16293286D02*
X7153095Y-16245667D01*
X7153095Y-16245667D02*
X7162619Y-16207571D01*
X7162619Y-16207571D02*
X7172143Y-16188524D01*
X7172143Y-16188524D02*
X7181667Y-16179000D01*
X7181667Y-16179000D02*
X7200714Y-16169476D01*
X7353095Y-16350428D02*
X7362619Y-16359952D01*
X7362619Y-16359952D02*
X7353095Y-16369476D01*
X7353095Y-16369476D02*
X7343571Y-16359952D01*
X7343571Y-16359952D02*
X7353095Y-16350428D01*
X7353095Y-16350428D02*
X7353095Y-16369476D01*
X7486429Y-16169476D02*
X7505476Y-16169476D01*
X7505476Y-16169476D02*
X7524524Y-16179000D01*
X7524524Y-16179000D02*
X7534048Y-16188524D01*
X7534048Y-16188524D02*
X7543571Y-16207571D01*
X7543571Y-16207571D02*
X7553095Y-16245667D01*
X7553095Y-16245667D02*
X7553095Y-16293286D01*
X7553095Y-16293286D02*
X7543571Y-16331381D01*
X7543571Y-16331381D02*
X7534048Y-16350428D01*
X7534048Y-16350428D02*
X7524524Y-16359952D01*
X7524524Y-16359952D02*
X7505476Y-16369476D01*
X7505476Y-16369476D02*
X7486429Y-16369476D01*
X7486429Y-16369476D02*
X7467381Y-16359952D01*
X7467381Y-16359952D02*
X7457857Y-16350428D01*
X7457857Y-16350428D02*
X7448333Y-16331381D01*
X7448333Y-16331381D02*
X7438810Y-16293286D01*
X7438810Y-16293286D02*
X7438810Y-16245667D01*
X7438810Y-16245667D02*
X7448333Y-16207571D01*
X7448333Y-16207571D02*
X7457857Y-16188524D01*
X7457857Y-16188524D02*
X7467381Y-16179000D01*
X7467381Y-16179000D02*
X7486429Y-16169476D01*
X7619762Y-16169476D02*
X7743571Y-16169476D01*
X7743571Y-16169476D02*
X7676905Y-16245667D01*
X7676905Y-16245667D02*
X7705476Y-16245667D01*
X7705476Y-16245667D02*
X7724524Y-16255190D01*
X7724524Y-16255190D02*
X7734048Y-16264714D01*
X7734048Y-16264714D02*
X7743571Y-16283762D01*
X7743571Y-16283762D02*
X7743571Y-16331381D01*
X7743571Y-16331381D02*
X7734048Y-16350428D01*
X7734048Y-16350428D02*
X7724524Y-16359952D01*
X7724524Y-16359952D02*
X7705476Y-16369476D01*
X7705476Y-16369476D02*
X7648333Y-16369476D01*
X7648333Y-16369476D02*
X7629286Y-16359952D01*
X7629286Y-16359952D02*
X7619762Y-16350428D01*
X7838810Y-16369476D02*
X7876905Y-16369476D01*
X7876905Y-16369476D02*
X7895952Y-16359952D01*
X7895952Y-16359952D02*
X7905476Y-16350428D01*
X7905476Y-16350428D02*
X7924524Y-16321857D01*
X7924524Y-16321857D02*
X7934048Y-16283762D01*
X7934048Y-16283762D02*
X7934048Y-16207571D01*
X7934048Y-16207571D02*
X7924524Y-16188524D01*
X7924524Y-16188524D02*
X7915000Y-16179000D01*
X7915000Y-16179000D02*
X7895952Y-16169476D01*
X7895952Y-16169476D02*
X7857857Y-16169476D01*
X7857857Y-16169476D02*
X7838810Y-16179000D01*
X7838810Y-16179000D02*
X7829286Y-16188524D01*
X7829286Y-16188524D02*
X7819762Y-16207571D01*
X7819762Y-16207571D02*
X7819762Y-16255190D01*
X7819762Y-16255190D02*
X7829286Y-16274238D01*
X7829286Y-16274238D02*
X7838810Y-16283762D01*
X7838810Y-16283762D02*
X7857857Y-16293286D01*
X7857857Y-16293286D02*
X7895952Y-16293286D01*
X7895952Y-16293286D02*
X7915000Y-16283762D01*
X7915000Y-16283762D02*
X7924524Y-16274238D01*
X7924524Y-16274238D02*
X7934048Y-16255190D01*
X8105476Y-16236143D02*
X8105476Y-16369476D01*
X8057857Y-16159952D02*
X8010238Y-16302809D01*
X8010238Y-16302809D02*
X8134048Y-16302809D01*
X8200714Y-16169476D02*
X8200714Y-16207571D01*
X8276905Y-16169476D02*
X8276905Y-16207571D01*
X8539762Y-16445667D02*
X8530238Y-16436143D01*
X8530238Y-16436143D02*
X8511191Y-16407571D01*
X8511191Y-16407571D02*
X8501667Y-16388524D01*
X8501667Y-16388524D02*
X8492143Y-16359952D01*
X8492143Y-16359952D02*
X8482619Y-16312333D01*
X8482619Y-16312333D02*
X8482619Y-16274238D01*
X8482619Y-16274238D02*
X8492143Y-16226619D01*
X8492143Y-16226619D02*
X8501667Y-16198048D01*
X8501667Y-16198048D02*
X8511191Y-16179000D01*
X8511191Y-16179000D02*
X8530238Y-16150428D01*
X8530238Y-16150428D02*
X8539762Y-16140905D01*
X8720714Y-16369476D02*
X8606429Y-16369476D01*
X8663572Y-16369476D02*
X8663572Y-16169476D01*
X8663572Y-16169476D02*
X8644524Y-16198048D01*
X8644524Y-16198048D02*
X8625476Y-16217095D01*
X8625476Y-16217095D02*
X8606429Y-16226619D01*
X8911191Y-16369476D02*
X8796905Y-16369476D01*
X8854048Y-16369476D02*
X8854048Y-16169476D01*
X8854048Y-16169476D02*
X8835000Y-16198048D01*
X8835000Y-16198048D02*
X8815953Y-16217095D01*
X8815953Y-16217095D02*
X8796905Y-16226619D01*
X8977857Y-16169476D02*
X9101667Y-16169476D01*
X9101667Y-16169476D02*
X9035000Y-16245667D01*
X9035000Y-16245667D02*
X9063572Y-16245667D01*
X9063572Y-16245667D02*
X9082619Y-16255190D01*
X9082619Y-16255190D02*
X9092143Y-16264714D01*
X9092143Y-16264714D02*
X9101667Y-16283762D01*
X9101667Y-16283762D02*
X9101667Y-16331381D01*
X9101667Y-16331381D02*
X9092143Y-16350428D01*
X9092143Y-16350428D02*
X9082619Y-16359952D01*
X9082619Y-16359952D02*
X9063572Y-16369476D01*
X9063572Y-16369476D02*
X9006429Y-16369476D01*
X9006429Y-16369476D02*
X8987381Y-16359952D01*
X8987381Y-16359952D02*
X8977857Y-16350428D01*
X9307381Y-16369476D02*
X9307381Y-16169476D01*
X9393095Y-16369476D02*
X9393095Y-16264714D01*
X9393095Y-16264714D02*
X9383572Y-16245667D01*
X9383572Y-16245667D02*
X9364524Y-16236143D01*
X9364524Y-16236143D02*
X9335953Y-16236143D01*
X9335953Y-16236143D02*
X9316905Y-16245667D01*
X9316905Y-16245667D02*
X9307381Y-16255190D01*
X9516905Y-16369476D02*
X9497857Y-16359952D01*
X9497857Y-16359952D02*
X9488334Y-16350428D01*
X9488334Y-16350428D02*
X9478810Y-16331381D01*
X9478810Y-16331381D02*
X9478810Y-16274238D01*
X9478810Y-16274238D02*
X9488334Y-16255190D01*
X9488334Y-16255190D02*
X9497857Y-16245667D01*
X9497857Y-16245667D02*
X9516905Y-16236143D01*
X9516905Y-16236143D02*
X9545476Y-16236143D01*
X9545476Y-16236143D02*
X9564524Y-16245667D01*
X9564524Y-16245667D02*
X9574048Y-16255190D01*
X9574048Y-16255190D02*
X9583572Y-16274238D01*
X9583572Y-16274238D02*
X9583572Y-16331381D01*
X9583572Y-16331381D02*
X9574048Y-16350428D01*
X9574048Y-16350428D02*
X9564524Y-16359952D01*
X9564524Y-16359952D02*
X9545476Y-16369476D01*
X9545476Y-16369476D02*
X9516905Y-16369476D01*
X9697857Y-16369476D02*
X9678810Y-16359952D01*
X9678810Y-16359952D02*
X9669286Y-16340905D01*
X9669286Y-16340905D02*
X9669286Y-16169476D01*
X9850238Y-16359952D02*
X9831191Y-16369476D01*
X9831191Y-16369476D02*
X9793095Y-16369476D01*
X9793095Y-16369476D02*
X9774048Y-16359952D01*
X9774048Y-16359952D02*
X9764524Y-16340905D01*
X9764524Y-16340905D02*
X9764524Y-16264714D01*
X9764524Y-16264714D02*
X9774048Y-16245667D01*
X9774048Y-16245667D02*
X9793095Y-16236143D01*
X9793095Y-16236143D02*
X9831191Y-16236143D01*
X9831191Y-16236143D02*
X9850238Y-16245667D01*
X9850238Y-16245667D02*
X9859762Y-16264714D01*
X9859762Y-16264714D02*
X9859762Y-16283762D01*
X9859762Y-16283762D02*
X9764524Y-16302809D01*
X9935953Y-16359952D02*
X9955000Y-16369476D01*
X9955000Y-16369476D02*
X9993095Y-16369476D01*
X9993095Y-16369476D02*
X10012143Y-16359952D01*
X10012143Y-16359952D02*
X10021667Y-16340905D01*
X10021667Y-16340905D02*
X10021667Y-16331381D01*
X10021667Y-16331381D02*
X10012143Y-16312333D01*
X10012143Y-16312333D02*
X9993095Y-16302809D01*
X9993095Y-16302809D02*
X9964524Y-16302809D01*
X9964524Y-16302809D02*
X9945476Y-16293286D01*
X9945476Y-16293286D02*
X9935953Y-16274238D01*
X9935953Y-16274238D02*
X9935953Y-16264714D01*
X9935953Y-16264714D02*
X9945476Y-16245667D01*
X9945476Y-16245667D02*
X9964524Y-16236143D01*
X9964524Y-16236143D02*
X9993095Y-16236143D01*
X9993095Y-16236143D02*
X10012143Y-16245667D01*
X10088334Y-16445667D02*
X10097857Y-16436143D01*
X10097857Y-16436143D02*
X10116905Y-16407571D01*
X10116905Y-16407571D02*
X10126429Y-16388524D01*
X10126429Y-16388524D02*
X10135953Y-16359952D01*
X10135953Y-16359952D02*
X10145476Y-16312333D01*
X10145476Y-16312333D02*
X10145476Y-16274238D01*
X10145476Y-16274238D02*
X10135953Y-16226619D01*
X10135953Y-16226619D02*
X10126429Y-16198048D01*
X10126429Y-16198048D02*
X10116905Y-16179000D01*
X10116905Y-16179000D02*
X10097857Y-16150428D01*
X10097857Y-16150428D02*
X10088334Y-16140905D01*
M02*
