M48
; DRILL file {KiCad (7.0.0)} date Sun Nov 17 17:27:41 2024
; FORMAT={-:-/ absolute / metric / decimal}
; #@! TF.CreationDate,2024-11-17T17:27:41-08:00
; #@! TF.GenerationSoftware,Kicad,Pcbnew,(7.0.0)
; #@! TF.FileFunction,Plated,1,2,PTH
FMAT,2
METRIC
; #@! TA.AperFunction,Plated,PTH,ViaDrill
T1C0.381
; #@! TA.AperFunction,Plated,PTH,ComponentDrill
T2C0.800
; #@! TA.AperFunction,Plated,PTH,ComponentDrill
T3C0.900
; #@! TA.AperFunction,Plated,PTH,ComponentDrill
T4C1.000
%
G90
G05
T1
X73.279Y-118.491
X75.184Y-116.586
X82.804Y-128.016
X84.582Y-126.238
X85.598Y-130.556
X87.376Y-128.778
X88.9Y-96.52
X90.678Y-95.758
X92.456Y-94.996
X94.234Y-94.234
X101.854Y-114.046
X105.156Y-112.522
X106.68Y-115.57
X106.68Y-116.84
X107.95Y-114.046
X109.982Y-113.284
X111.76Y-74.676
X112.014Y-73.406
X112.776Y-75.692
X113.03Y-74.422
X121.92Y-125.476
X123.825Y-92.075
X123.952Y-86.868
X124.46Y-125.476
X124.46Y-131.572
X124.46Y-133.096
X124.714Y-92.964
X125.222Y-86.868
X126.238Y-93.472
X126.746Y-81.28
X127.0Y-125.476
X127.0Y-131.572
X127.0Y-133.858
X127.254Y-92.456
X128.016Y-93.472
X128.778Y-81.28
X128.778Y-86.868
X128.778Y-88.138
X129.54Y-125.476
X129.54Y-131.572
X129.54Y-134.62
X129.794Y-93.472
X132.08Y-125.476
X132.08Y-131.572
X132.08Y-135.382
X134.62Y-125.476
X134.62Y-131.572
X134.62Y-136.144
X137.16Y-79.502
X137.16Y-125.476
X137.16Y-131.572
X137.16Y-136.906
X139.7Y-125.476
X139.7Y-131.572
X139.7Y-137.668
X142.24Y-84.582
X146.05Y-93.472
X146.05Y-106.426
X148.844Y-117.094
X149.86Y-93.472
X149.86Y-106.426
X150.876Y-117.094
X152.4Y-84.328
X154.432Y-81.28
X154.432Y-84.328
X154.94Y-116.586
X154.94Y-126.238
X156.21Y-94.234
X156.21Y-106.426
X157.48Y-127.0
X158.75Y-99.568
X158.75Y-106.426
X160.02Y-127.0
X161.29Y-94.996
X161.29Y-106.426
X162.56Y-127.762
X163.83Y-98.806
X163.83Y-106.426
X165.1Y-93.472
X165.1Y-105.664
X165.1Y-127.762
X166.37Y-95.758
X166.37Y-106.426
X167.64Y-93.472
X167.64Y-104.902
X167.64Y-128.524
X168.91Y-98.044
X168.91Y-106.426
X170.18Y-93.472
X170.18Y-104.14
X170.18Y-128.524
X171.45Y-96.52
X171.45Y-106.426
X172.72Y-93.472
X172.72Y-103.378
X172.72Y-129.286
X173.99Y-97.282
X173.99Y-106.426
X175.26Y-93.472
X175.26Y-102.616
X177.8Y-93.472
X177.8Y-101.854
X180.34Y-93.472
X180.34Y-101.092
X181.864Y-121.92
X182.88Y-93.472
X182.88Y-100.33
X185.42Y-125.476
X186.69Y-100.33
X186.69Y-106.426
X190.5Y-132.334
X191.77Y-123.444
X191.77Y-137.668
X193.04Y-133.096
X194.31Y-101.092
X194.31Y-105.664
X194.31Y-123.444
X194.31Y-136.906
X196.85Y-101.854
X196.85Y-104.902
X200.66Y-133.858
X201.93Y-123.444
X201.93Y-136.144
X203.2Y-134.62
X204.47Y-102.616
X204.47Y-104.14
X204.47Y-123.444
X204.47Y-135.89
X214.376Y-115.824
X215.9Y-93.472
X215.9Y-99.568
X218.44Y-93.472
X218.44Y-98.806
X219.71Y-94.234
X219.71Y-100.33
X220.98Y-93.472
X220.98Y-98.044
X223.52Y-93.472
X223.52Y-97.282
X224.79Y-125.476
X224.79Y-131.572
X226.06Y-93.472
X226.06Y-96.52
X226.06Y-125.476
X226.06Y-127.0
X227.33Y-94.996
X227.33Y-99.568
X227.33Y-125.476
X227.33Y-130.81
X228.6Y-93.472
X228.6Y-95.758
X229.87Y-95.758
X229.87Y-98.806
X231.14Y-93.472
X231.14Y-94.996
X233.68Y-125.476
X233.68Y-127.762
X233.68Y-129.286
X233.68Y-130.81
X234.95Y-125.476
X234.95Y-130.048
X236.22Y-125.476
X236.22Y-128.524
X236.22Y-130.048
X237.49Y-96.52
X237.49Y-98.044
X237.49Y-125.476
X237.49Y-129.286
T2
X53.34Y-116.84
X55.88Y-134.62
X55.88Y-144.78
X63.5Y-116.84
X66.04Y-78.74
X66.04Y-81.28
X66.04Y-83.82
X66.04Y-86.36
X66.04Y-88.9
X66.04Y-91.44
X66.04Y-93.98
X66.04Y-96.52
X66.04Y-99.06
X106.68Y-132.12
X106.68Y-134.62
X114.3Y-114.3
X114.3Y-119.3
X119.38Y-114.3
X119.38Y-121.92
X121.92Y-114.3
X121.92Y-121.92
X124.46Y-114.3
X124.46Y-121.92
X127.0Y-114.3
X127.0Y-121.92
X129.54Y-114.3
X129.54Y-121.92
X132.08Y-81.28
X132.08Y-86.28
X132.08Y-114.3
X132.08Y-121.92
X134.62Y-114.3
X134.62Y-121.92
X137.16Y-81.28
X137.16Y-88.9
X137.16Y-114.3
X137.16Y-121.92
X139.7Y-81.28
X139.7Y-88.9
X139.7Y-114.3
X139.7Y-121.92
X142.24Y-76.2
X142.24Y-81.28
X142.24Y-88.9
X142.24Y-114.3
X142.24Y-121.92
X144.78Y-81.28
X144.78Y-88.9
X147.32Y-81.28
X147.32Y-88.9
X147.32Y-114.3
X147.32Y-119.3
X149.86Y-81.28
X149.86Y-88.9
X152.4Y-76.2
X152.4Y-81.28
X152.4Y-88.9
X152.4Y-114.3
X152.4Y-121.92
X154.94Y-114.3
X154.94Y-121.92
X157.48Y-81.28
X157.48Y-86.28
X157.48Y-114.3
X157.48Y-121.92
X160.02Y-114.3
X160.02Y-121.92
X162.56Y-81.28
X162.56Y-88.9
X162.56Y-114.3
X162.56Y-121.92
X165.1Y-81.28
X165.1Y-88.9
X165.1Y-114.3
X165.1Y-121.92
X167.64Y-81.28
X167.64Y-88.9
X167.64Y-114.3
X167.64Y-121.92
X170.18Y-72.39
X170.18Y-81.28
X170.18Y-88.9
X170.18Y-114.3
X170.18Y-121.92
X172.72Y-72.39
X172.72Y-81.28
X172.72Y-88.9
X172.72Y-114.3
X172.72Y-121.92
X175.26Y-72.39
X175.26Y-81.28
X175.26Y-88.9
X175.26Y-114.3
X175.26Y-121.92
X177.8Y-72.39
X177.8Y-81.28
X177.8Y-88.9
X180.34Y-72.39
X180.34Y-81.28
X180.34Y-88.9
X180.34Y-114.3
X180.34Y-119.3
X182.88Y-72.39
X182.88Y-81.28
X182.88Y-88.9
X185.42Y-72.39
X185.42Y-81.28
X185.42Y-88.9
X185.42Y-114.3
X185.42Y-121.92
X187.96Y-72.39
X187.96Y-114.3
X187.96Y-121.92
X190.5Y-72.39
X190.5Y-114.3
X190.5Y-121.92
X193.04Y-114.3
X193.04Y-121.92
X195.58Y-114.3
X195.58Y-121.92
X198.12Y-114.3
X198.12Y-121.92
X200.66Y-114.3
X200.66Y-121.92
X203.2Y-114.3
X203.2Y-121.92
X205.74Y-114.3
X205.74Y-121.92
X208.28Y-81.28
X208.28Y-86.28
X208.28Y-114.3
X208.28Y-121.92
X213.36Y-81.28
X213.36Y-88.9
X213.36Y-114.3
X213.36Y-119.3
X215.9Y-81.28
X215.9Y-88.9
X215.9Y-104.14
X215.9Y-106.64
X218.44Y-81.28
X218.44Y-88.9
X218.44Y-114.3
X218.44Y-121.92
X220.98Y-72.39
X220.98Y-81.28
X220.98Y-88.9
X220.98Y-114.3
X220.98Y-121.92
X223.52Y-72.39
X223.52Y-81.28
X223.52Y-88.9
X223.52Y-114.3
X223.52Y-121.92
X226.06Y-72.39
X226.06Y-81.28
X226.06Y-88.9
X226.06Y-114.3
X226.06Y-121.92
X228.6Y-72.39
X228.6Y-81.28
X228.6Y-88.9
X228.6Y-114.3
X228.6Y-121.92
X231.14Y-72.39
X231.14Y-81.28
X231.14Y-88.9
X231.14Y-114.3
X231.14Y-121.92
X233.68Y-72.39
X233.68Y-81.28
X233.68Y-88.9
X233.68Y-114.3
X233.68Y-121.92
X236.22Y-72.39
X236.22Y-81.28
X236.22Y-88.9
X236.22Y-114.3
X236.22Y-121.92
X238.76Y-72.39
X238.76Y-114.3
X238.76Y-121.92
X241.3Y-72.39
X241.3Y-114.3
X241.3Y-121.92
X243.84Y-83.82
X246.34Y-83.82
T3
X153.67Y-63.5
X156.21Y-63.5
X160.02Y-63.5
X162.56Y-63.5
X166.37Y-63.5
X168.91Y-63.5
X172.72Y-63.5
X175.26Y-63.5
X179.07Y-63.5
X181.61Y-63.5
X185.42Y-63.5
X187.96Y-63.5
X191.77Y-63.5
X194.31Y-63.5
X198.12Y-63.5
X200.66Y-63.5
X204.47Y-63.5
X207.01Y-63.5
X210.82Y-63.5
X213.36Y-63.5
X217.17Y-63.5
X219.71Y-63.5
X223.52Y-63.5
X226.06Y-63.5
X229.87Y-63.5
X232.41Y-63.5
X236.22Y-63.5
X238.76Y-63.5
X242.57Y-63.5
X245.11Y-63.5
X248.92Y-63.5
X251.46Y-63.5
T4
X53.34Y-60.96
X55.88Y-60.96
X58.42Y-60.96
X60.96Y-60.96
X60.96Y-78.74
X60.96Y-81.28
X60.96Y-83.82
X60.96Y-86.36
X60.96Y-88.9
X60.96Y-91.44
X60.96Y-93.98
X60.96Y-96.52
X60.96Y-121.92
X60.96Y-124.46
X60.96Y-127.0
X60.96Y-129.54
X60.96Y-144.78
X63.5Y-60.96
X63.5Y-106.68
X63.5Y-109.22
X63.5Y-111.76
X63.5Y-144.78
X66.04Y-60.96
X66.04Y-144.78
X68.58Y-60.96
X68.58Y-144.78
X71.12Y-60.96
X71.12Y-144.78
X73.66Y-60.96
X73.66Y-144.78
X76.2Y-60.96
X76.2Y-144.78
X78.74Y-60.96
X78.74Y-144.78
X81.28Y-60.96
X81.28Y-144.78
X83.82Y-60.96
X83.82Y-144.78
X86.36Y-60.96
X86.36Y-144.78
X88.9Y-60.96
X88.9Y-144.78
X91.44Y-60.96
X91.44Y-144.78
X93.98Y-144.78
X96.52Y-60.96
X99.06Y-60.96
X101.6Y-144.78
X104.14Y-144.78
X106.68Y-63.5
X106.68Y-66.04
X106.68Y-144.78
X109.22Y-144.78
X111.76Y-53.34
X111.76Y-55.88
X111.76Y-144.78
X114.3Y-144.78
X116.84Y-63.5
X116.84Y-66.04
X116.84Y-144.78
X119.38Y-144.78
X121.92Y-53.34
X121.92Y-55.88
X121.92Y-144.78
X124.46Y-144.78
X127.0Y-63.5
X127.0Y-66.04
X127.0Y-144.78
X129.54Y-144.78
X132.08Y-53.34
X132.08Y-55.88
X132.08Y-144.78
X134.62Y-144.78
X137.16Y-63.5
X137.16Y-66.04
X137.16Y-144.78
X139.7Y-144.78
X142.24Y-53.34
X142.24Y-55.88
X147.32Y-63.5
X147.32Y-66.04
X165.1Y-144.78
X167.64Y-144.78
X170.18Y-144.78
X172.72Y-144.78
X175.26Y-144.78
X177.8Y-144.78
X180.34Y-144.78
X182.88Y-144.78
X185.42Y-144.78
X187.96Y-144.78
X190.5Y-144.78
X193.04Y-144.78
X195.58Y-144.78
X198.12Y-144.78
X200.66Y-144.78
X203.2Y-144.78
X205.74Y-144.78
X208.28Y-144.78
X210.82Y-144.78
X213.36Y-144.78
X215.9Y-144.78
X218.44Y-144.78
X220.98Y-144.78
X223.52Y-144.78
X226.06Y-144.78
X228.6Y-144.78
X231.14Y-144.78
X233.68Y-144.78
X236.22Y-144.78
X238.76Y-144.78
X241.3Y-144.78
X243.84Y-144.78
T0
M30
