M48
; DRILL file {KiCad (5.1.5)-3} date 2022-12-08 9:56:27 PM
; FORMAT={-:-/ absolute / metric / decimal}
; #@! TF.CreationDate,2022-12-08T21:56:27-08:00
; #@! TF.GenerationSoftware,Kicad,Pcbnew,(5.1.5)-3
; #@! TF.FileFunction,Plated,1,2,PTH
FMAT,2
METRIC
T1C0.400
T2C0.800
T3C0.900
T4C1.000
%
G90
G05
T1
X63.5Y-139.192
X66.167Y-108.585
X67.056Y-109.728
X68.072Y-110.744
X68.58Y-139.7
X69.723Y-105.029
X69.85Y-83.058
X70.739Y-106.045
X71.755Y-107.061
X72.644Y-78.232
X73.914Y-78.232
X78.74Y-96.012
X80.01Y-87.122
X80.01Y-98.044
X81.28Y-97.028
X82.55Y-87.376
X82.55Y-98.044
X86.36Y-139.7
X88.9Y-98.044
X89.408Y-78.232
X90.17Y-86.868
X90.17Y-99.06
X90.932Y-78.232
X91.186Y-113.538
X91.186Y-115.57
X97.79Y-78.232
X99.314Y-78.232
X101.6Y-135.89
X102.87Y-120.65
X105.156Y-120.65
X106.68Y-137.668
X115.57Y-105.156
X115.57Y-106.68
X116.332Y-78.232
X116.84Y-93.98
X116.84Y-103.632
X117.602Y-78.232
X119.38Y-93.98
X119.38Y-103.124
X119.38Y-105.156
X121.92Y-93.98
X121.92Y-103.124
X129.032Y-114.554
X130.302Y-114.554
X130.81Y-119.126
X134.366Y-84.328
X136.906Y-78.232
X138.176Y-78.232
X138.43Y-119.126
X138.938Y-114.554
X140.208Y-114.554
X140.97Y-84.328
X147.066Y-119.634
X147.066Y-124.46
X148.082Y-101.6
X148.082Y-102.616
X149.86Y-89.916
X149.86Y-98.298
X149.86Y-111.76
X149.86Y-120.396
X149.86Y-123.444
X150.876Y-90.678
X150.876Y-97.536
X150.876Y-114.3
X150.876Y-123.952
X150.876Y-119.634
X151.892Y-120.396
X151.892Y-89.916
X151.892Y-98.298
X151.892Y-116.84
X151.892Y-123.444
X152.908Y-90.678
X152.908Y-97.536
X152.908Y-119.38
X152.908Y-124.206
X153.924Y-109.22
X154.94Y-96.012
X154.94Y-97.536
X154.94Y-110.49
X155.448Y-119.38
X155.956Y-113.03
X155.956Y-95.25
X155.956Y-98.298
X156.718Y-83.312
X156.972Y-94.488
X156.972Y-97.536
X157.68Y-119.38
X157.734Y-116.84
X157.988Y-93.726
X157.988Y-98.298
X159.004Y-92.964
X159.004Y-97.536
X159.004Y-106.68
X159.004Y-109.22
X159.004Y-110.49
X159.004Y-111.76
X159.004Y-113.03
X159.004Y-114.3
X160.02Y-92.202
X160.02Y-98.298
X161.036Y-91.44
X161.036Y-97.536
X161.036Y-106.68
X162.306Y-101.6
X163.576Y-101.6
X167.894Y-135.128
X170.942Y-132.842
X170.942Y-134.366
X171.704Y-132.08
X171.704Y-133.604
X171.704Y-135.128
X174.752Y-132.08
X174.752Y-133.604
X174.752Y-135.128
X175.514Y-132.842
X175.514Y-134.366
X178.054Y-129.286
X189.23Y-83.312
X193.802Y-132.842
X193.802Y-134.366
X194.564Y-132.08
X194.564Y-133.604
X194.564Y-135.128
X197.612Y-132.08
X197.612Y-133.604
X197.612Y-135.128
X198.374Y-132.842
X198.374Y-134.366
X199.39Y-83.312
X200.914Y-129.286
X206.248Y-79.502
X207.01Y-88.9
X207.01Y-90.17
X207.01Y-98.298
X207.01Y-99.568
X211.582Y-79.502
X216.662Y-132.842
X216.662Y-134.366
X217.424Y-132.08
X217.424Y-133.604
X217.424Y-135.128
X220.472Y-132.08
X220.472Y-133.604
X220.472Y-135.128
X221.234Y-132.842
X221.234Y-134.366
X223.774Y-129.286
X237.49Y-82.042
X237.49Y-84.582
X239.522Y-132.842
X239.522Y-134.366
X240.284Y-132.08
X240.284Y-133.604
X240.284Y-135.128
X243.332Y-132.08
X243.332Y-133.604
X243.332Y-135.128
X244.094Y-132.842
X244.094Y-134.366
T2
X116.84Y-81.28
X116.84Y-88.9
X119.38Y-81.28
X119.38Y-88.9
X121.92Y-81.28
X121.92Y-88.9
X124.46Y-81.28
X124.46Y-88.9
X127.0Y-81.28
X127.0Y-88.9
X129.54Y-81.28
X129.54Y-88.9
X132.08Y-81.28
X132.08Y-88.9
X134.62Y-81.28
X134.62Y-88.9
X122.0Y-111.76
X127.0Y-111.76
X167.64Y-73.66
X170.18Y-73.66
X172.72Y-73.66
X175.26Y-73.66
X177.8Y-73.66
X165.1Y-104.14
X165.1Y-106.68
X165.1Y-109.22
X165.1Y-111.76
X165.1Y-114.3
X165.1Y-116.84
X165.1Y-119.38
X165.1Y-121.92
X165.1Y-124.46
X165.1Y-127.0
X165.1Y-129.54
X165.1Y-132.08
X165.1Y-134.62
X165.1Y-137.16
X180.34Y-104.14
X180.34Y-106.68
X180.34Y-109.22
X180.34Y-111.76
X180.34Y-114.3
X180.34Y-116.84
X180.34Y-119.38
X180.34Y-121.92
X180.34Y-124.46
X180.34Y-127.0
X180.34Y-129.54
X180.34Y-132.08
X180.34Y-134.62
X180.34Y-137.16
X68.58Y-81.28
X68.58Y-88.9
X71.12Y-81.28
X71.12Y-88.9
X73.66Y-81.28
X73.66Y-88.9
X76.2Y-81.28
X76.2Y-88.9
X78.74Y-81.28
X78.74Y-88.9
X81.28Y-81.28
X81.28Y-88.9
X83.82Y-81.28
X83.82Y-88.9
X86.36Y-81.28
X86.36Y-88.9
X88.9Y-81.28
X88.9Y-88.9
X91.44Y-81.28
X91.44Y-88.9
X204.47Y-70.906
X204.47Y-73.406
X114.3Y-109.514
X114.3Y-112.014
X147.4Y-81.28
X152.4Y-81.28
X109.22Y-81.28
X109.22Y-86.28
X218.44Y-73.66
X220.98Y-73.66
X223.52Y-73.66
X226.06Y-73.66
X228.6Y-73.66
X231.14Y-73.66
X233.68Y-73.66
X236.22Y-73.66
X238.76Y-73.66
X187.96Y-104.14
X187.96Y-106.68
X187.96Y-109.22
X187.96Y-111.76
X187.96Y-114.3
X187.96Y-116.84
X187.96Y-119.38
X187.96Y-121.92
X187.96Y-124.46
X187.96Y-127.0
X187.96Y-129.54
X187.96Y-132.08
X187.96Y-134.62
X187.96Y-137.16
X203.2Y-104.14
X203.2Y-106.68
X203.2Y-109.22
X203.2Y-111.76
X203.2Y-114.3
X203.2Y-116.84
X203.2Y-119.38
X203.2Y-121.92
X203.2Y-124.46
X203.2Y-127.0
X203.2Y-129.54
X203.2Y-132.08
X203.2Y-134.62
X203.2Y-137.16
X203.2Y-81.28
X203.2Y-86.28
X175.34Y-99.06
X180.34Y-99.06
X221.06Y-99.06
X226.06Y-99.06
X116.84Y-73.66
X119.38Y-73.66
X121.92Y-73.66
X124.46Y-73.66
X127.0Y-73.66
X129.54Y-73.66
X132.08Y-73.66
X134.62Y-73.66
X137.16Y-73.66
X238.76Y-91.44
X248.92Y-91.44
X210.82Y-81.28
X210.82Y-88.9
X213.36Y-81.28
X213.36Y-88.9
X215.9Y-81.28
X215.9Y-88.9
X218.44Y-81.28
X218.44Y-88.9
X220.98Y-81.28
X220.98Y-88.9
X223.52Y-81.28
X223.52Y-88.9
X226.06Y-81.28
X226.06Y-88.9
X228.6Y-81.28
X228.6Y-88.9
X231.14Y-81.28
X231.14Y-88.9
X233.68Y-81.28
X233.68Y-88.9
X60.96Y-81.28
X60.96Y-86.28
X243.92Y-99.06
X248.92Y-99.06
X210.82Y-104.14
X210.82Y-106.68
X210.82Y-109.22
X210.82Y-111.76
X210.82Y-114.3
X210.82Y-116.84
X210.82Y-119.38
X210.82Y-121.92
X210.82Y-124.46
X210.82Y-127.0
X210.82Y-129.54
X210.82Y-132.08
X210.82Y-134.62
X210.82Y-137.16
X226.06Y-104.14
X226.06Y-106.68
X226.06Y-109.22
X226.06Y-111.76
X226.06Y-114.3
X226.06Y-116.84
X226.06Y-119.38
X226.06Y-121.92
X226.06Y-124.46
X226.06Y-127.0
X226.06Y-129.54
X226.06Y-132.08
X226.06Y-134.62
X226.06Y-137.16
X101.6Y-116.84
X101.6Y-124.46
X104.14Y-116.84
X104.14Y-124.46
X106.68Y-116.84
X106.68Y-124.46
X109.22Y-116.84
X109.22Y-124.46
X111.76Y-116.84
X111.76Y-124.46
X114.3Y-116.84
X114.3Y-124.46
X116.84Y-116.84
X116.84Y-124.46
X160.02Y-81.28
X160.02Y-88.9
X162.56Y-81.28
X162.56Y-88.9
X165.1Y-81.28
X165.1Y-88.9
X167.64Y-81.28
X167.64Y-88.9
X170.18Y-81.28
X170.18Y-88.9
X172.72Y-81.28
X172.72Y-88.9
X175.26Y-81.28
X175.26Y-88.9
X177.8Y-81.28
X177.8Y-88.9
X180.34Y-81.28
X180.34Y-88.9
X182.88Y-81.28
X182.88Y-88.9
X198.2Y-99.06
X203.2Y-99.06
X71.12Y-116.84
X71.12Y-124.46
X73.66Y-116.84
X73.66Y-124.46
X76.2Y-116.84
X76.2Y-124.46
X78.74Y-116.84
X78.74Y-124.46
X81.28Y-116.84
X81.28Y-124.46
X83.82Y-116.84
X83.82Y-124.46
X86.36Y-116.84
X86.36Y-124.46
X88.9Y-116.84
X88.9Y-124.46
X95.504Y-118.364
X95.504Y-123.364
X233.68Y-104.14
X233.68Y-106.68
X233.68Y-109.22
X233.68Y-111.76
X233.68Y-114.3
X233.68Y-116.84
X233.68Y-119.38
X233.68Y-121.92
X233.68Y-124.46
X233.68Y-127.0
X233.68Y-129.54
X233.68Y-132.08
X233.68Y-134.62
X233.68Y-137.16
X248.92Y-104.14
X248.92Y-106.68
X248.92Y-109.22
X248.92Y-111.76
X248.92Y-114.3
X248.92Y-116.84
X248.92Y-119.38
X248.92Y-121.92
X248.92Y-124.46
X248.92Y-127.0
X248.92Y-129.54
X248.92Y-132.08
X248.92Y-134.62
X248.92Y-137.16
X127.0Y-116.84
X127.0Y-124.46
X129.54Y-116.84
X129.54Y-124.46
X132.08Y-116.84
X132.08Y-124.46
X134.62Y-116.84
X134.62Y-124.46
X137.16Y-116.84
X137.16Y-124.46
X139.7Y-116.84
X139.7Y-124.46
X142.24Y-116.84
X142.24Y-124.46
X144.78Y-116.84
X144.78Y-124.46
X71.12Y-111.76
X76.12Y-111.76
X101.6Y-83.82
X104.1Y-83.82
X180.34Y-77.47
X182.88Y-77.47
X185.42Y-77.47
X187.96Y-77.47
X190.5Y-77.47
X193.04Y-77.47
X195.58Y-77.47
X198.12Y-77.47
X200.66Y-77.47
T3
X172.72Y-63.5
X175.26Y-63.5
X248.92Y-63.5
X251.46Y-63.5
X185.42Y-63.5
X187.96Y-63.5
X210.82Y-63.5
X213.36Y-63.5
X242.57Y-63.5
X245.11Y-63.5
X115.57Y-63.5
X118.11Y-63.5
X109.22Y-63.5
X111.76Y-63.5
X229.87Y-63.5
X232.41Y-63.5
X140.97Y-63.5
X143.51Y-63.5
X147.32Y-63.5
X149.86Y-63.5
X134.62Y-63.5
X137.16Y-63.5
X179.07Y-63.5
X181.61Y-63.5
X236.22Y-63.5
X238.76Y-63.5
X121.92Y-63.5
X124.46Y-63.5
X217.17Y-63.5
X219.71Y-63.5
X128.27Y-63.5
X130.81Y-63.5
X223.52Y-63.5
X226.06Y-63.5
X204.47Y-63.5
X207.01Y-63.5
X153.67Y-63.5
X156.21Y-63.5
X191.77Y-63.5
X194.31Y-63.5
T4
X60.96Y-109.22
X60.96Y-111.76
X60.96Y-114.3
X60.96Y-116.84
X60.96Y-119.38
X60.96Y-121.92
X60.96Y-124.46
X53.34Y-60.96
X55.88Y-60.96
X58.42Y-60.96
X60.96Y-60.96
X63.5Y-60.96
X66.04Y-60.96
X68.58Y-60.96
X71.12Y-60.96
X73.66Y-60.96
X76.2Y-60.96
X78.74Y-60.96
X81.28Y-60.96
X83.82Y-60.96
X86.36Y-60.96
X88.9Y-60.96
X91.44Y-60.96
X99.06Y-144.78
X101.6Y-144.78
X104.14Y-144.78
X106.68Y-144.78
X109.22Y-144.78
X111.76Y-144.78
X114.3Y-144.78
X116.84Y-144.78
X119.38Y-144.78
X121.92Y-144.78
X124.46Y-144.78
X127.0Y-144.78
X129.54Y-144.78
X132.08Y-144.78
X134.62Y-144.78
X137.16Y-144.78
X63.5Y-144.78
X66.04Y-144.78
X68.58Y-144.78
X71.12Y-144.78
X73.66Y-144.78
X76.2Y-144.78
X78.74Y-144.78
X81.28Y-144.78
X83.82Y-144.78
X86.36Y-144.78
X162.56Y-144.78
X165.1Y-144.78
X167.64Y-144.78
X170.18Y-144.78
X172.72Y-144.78
X175.26Y-144.78
X177.8Y-144.78
X180.34Y-144.78
X182.88Y-144.78
X185.42Y-144.78
X187.96Y-144.78
X190.5Y-144.78
X193.04Y-144.78
X195.58Y-144.78
X198.12Y-144.78
X200.66Y-144.78
X203.2Y-144.78
X205.74Y-144.78
X208.28Y-144.78
X210.82Y-144.78
X213.36Y-144.78
X215.9Y-144.78
X218.44Y-144.78
X220.98Y-144.78
X223.52Y-144.78
X226.06Y-144.78
X228.6Y-144.78
X231.14Y-144.78
X233.68Y-144.78
X236.22Y-144.78
X238.76Y-144.78
X241.3Y-144.78
X96.52Y-60.96
X99.06Y-60.96
X241.3Y-78.74
X241.3Y-81.28
X241.3Y-83.82
T0
M30
