G04 #@! TF.GenerationSoftware,KiCad,Pcbnew,(5.1.5)-3*
G04 #@! TF.CreationDate,2022-12-08T21:56:05-08:00*
G04 #@! TF.ProjectId,control_unit_16,636f6e74-726f-46c5-9f75-6e69745f3136,rev?*
G04 #@! TF.SameCoordinates,Original*
G04 #@! TF.FileFunction,Legend,Bot*
G04 #@! TF.FilePolarity,Positive*
%FSLAX46Y46*%
G04 Gerber Fmt 4.6, Leading zero omitted, Abs format (unit mm)*
G04 Created by KiCad (PCBNEW (5.1.5)-3) date 2022-12-08 21:56:05*
%MOMM*%
%LPD*%
G04 APERTURE LIST*
%ADD10O,1.702000X1.702000*%
%ADD11R,1.702000X1.702000*%
%ADD12O,1.802000X1.802000*%
%ADD13R,1.802000X1.802000*%
%ADD14C,1.702000*%
%ADD15C,1.902000*%
%ADD16R,1.902000X1.902000*%
G04 APERTURE END LIST*
%LPC*%
D10*
X116840000Y-81280000D03*
X134620000Y-88900000D03*
X119380000Y-81280000D03*
X132080000Y-88900000D03*
X121920000Y-81280000D03*
X129540000Y-88900000D03*
X124460000Y-81280000D03*
X127000000Y-88900000D03*
X127000000Y-81280000D03*
X124460000Y-88900000D03*
X129540000Y-81280000D03*
X121920000Y-88900000D03*
X132080000Y-81280000D03*
X119380000Y-88900000D03*
X134620000Y-81280000D03*
D11*
X116840000Y-88900000D03*
D10*
X210820000Y-81280000D03*
X233680000Y-88900000D03*
X213360000Y-81280000D03*
X231140000Y-88900000D03*
X215900000Y-81280000D03*
X228600000Y-88900000D03*
X218440000Y-81280000D03*
X226060000Y-88900000D03*
X220980000Y-81280000D03*
X223520000Y-88900000D03*
X223520000Y-81280000D03*
X220980000Y-88900000D03*
X226060000Y-81280000D03*
X218440000Y-88900000D03*
X228600000Y-81280000D03*
X215900000Y-88900000D03*
X231140000Y-81280000D03*
X213360000Y-88900000D03*
X233680000Y-81280000D03*
D11*
X210820000Y-88900000D03*
D10*
X160020000Y-81280000D03*
X182880000Y-88900000D03*
X162560000Y-81280000D03*
X180340000Y-88900000D03*
X165100000Y-81280000D03*
X177800000Y-88900000D03*
X167640000Y-81280000D03*
X175260000Y-88900000D03*
X170180000Y-81280000D03*
X172720000Y-88900000D03*
X172720000Y-81280000D03*
X170180000Y-88900000D03*
X175260000Y-81280000D03*
X167640000Y-88900000D03*
X177800000Y-81280000D03*
X165100000Y-88900000D03*
X180340000Y-81280000D03*
X162560000Y-88900000D03*
X182880000Y-81280000D03*
D11*
X160020000Y-88900000D03*
D10*
X127000000Y-116840000D03*
X144780000Y-124460000D03*
X129540000Y-116840000D03*
X142240000Y-124460000D03*
X132080000Y-116840000D03*
X139700000Y-124460000D03*
X134620000Y-116840000D03*
X137160000Y-124460000D03*
X137160000Y-116840000D03*
X134620000Y-124460000D03*
X139700000Y-116840000D03*
X132080000Y-124460000D03*
X142240000Y-116840000D03*
X129540000Y-124460000D03*
X144780000Y-116840000D03*
D11*
X127000000Y-124460000D03*
D10*
X68580000Y-81280000D03*
X91440000Y-88900000D03*
X71120000Y-81280000D03*
X88900000Y-88900000D03*
X73660000Y-81280000D03*
X86360000Y-88900000D03*
X76200000Y-81280000D03*
X83820000Y-88900000D03*
X78740000Y-81280000D03*
X81280000Y-88900000D03*
X81280000Y-81280000D03*
X78740000Y-88900000D03*
X83820000Y-81280000D03*
X76200000Y-88900000D03*
X86360000Y-81280000D03*
X73660000Y-88900000D03*
X88900000Y-81280000D03*
X71120000Y-88900000D03*
X91440000Y-81280000D03*
D11*
X68580000Y-88900000D03*
D10*
X71120000Y-116840000D03*
X88900000Y-124460000D03*
X73660000Y-116840000D03*
X86360000Y-124460000D03*
X76200000Y-116840000D03*
X83820000Y-124460000D03*
X78740000Y-116840000D03*
X81280000Y-124460000D03*
X81280000Y-116840000D03*
X78740000Y-124460000D03*
X83820000Y-116840000D03*
X76200000Y-124460000D03*
X86360000Y-116840000D03*
X73660000Y-124460000D03*
X88900000Y-116840000D03*
D11*
X71120000Y-124460000D03*
D10*
X101600000Y-116840000D03*
X116840000Y-124460000D03*
X104140000Y-116840000D03*
X114300000Y-124460000D03*
X106680000Y-116840000D03*
X111760000Y-124460000D03*
X109220000Y-116840000D03*
X109220000Y-124460000D03*
X111760000Y-116840000D03*
X106680000Y-124460000D03*
X114300000Y-116840000D03*
X104140000Y-124460000D03*
X116840000Y-116840000D03*
D11*
X101600000Y-124460000D03*
D12*
X60960000Y-124460000D03*
X60960000Y-121920000D03*
X60960000Y-119380000D03*
X60960000Y-116840000D03*
X60960000Y-114300000D03*
X60960000Y-111760000D03*
D13*
X60960000Y-109220000D03*
D12*
X241300000Y-83820000D03*
X241300000Y-81280000D03*
D13*
X241300000Y-78740000D03*
D12*
X53340000Y-60960000D03*
X55880000Y-60960000D03*
X58420000Y-60960000D03*
X60960000Y-60960000D03*
X63500000Y-60960000D03*
X66040000Y-60960000D03*
X68580000Y-60960000D03*
X71120000Y-60960000D03*
X73660000Y-60960000D03*
X76200000Y-60960000D03*
X78740000Y-60960000D03*
X81280000Y-60960000D03*
X83820000Y-60960000D03*
X86360000Y-60960000D03*
X88900000Y-60960000D03*
D13*
X91440000Y-60960000D03*
D10*
X248920000Y-91440000D03*
D14*
X238760000Y-91440000D03*
D12*
X96520000Y-60960000D03*
D13*
X99060000Y-60960000D03*
X86360000Y-144780000D03*
D12*
X83820000Y-144780000D03*
X81280000Y-144780000D03*
X78740000Y-144780000D03*
X76200000Y-144780000D03*
X73660000Y-144780000D03*
X71120000Y-144780000D03*
X68580000Y-144780000D03*
X66040000Y-144780000D03*
X63500000Y-144780000D03*
D13*
X137160000Y-144780000D03*
D12*
X134620000Y-144780000D03*
X132080000Y-144780000D03*
X129540000Y-144780000D03*
X127000000Y-144780000D03*
X124460000Y-144780000D03*
X121920000Y-144780000D03*
X119380000Y-144780000D03*
X116840000Y-144780000D03*
X114300000Y-144780000D03*
X111760000Y-144780000D03*
X109220000Y-144780000D03*
X106680000Y-144780000D03*
X104140000Y-144780000D03*
X101600000Y-144780000D03*
X99060000Y-144780000D03*
D13*
X241300000Y-144780000D03*
D12*
X238760000Y-144780000D03*
X236220000Y-144780000D03*
X233680000Y-144780000D03*
X231140000Y-144780000D03*
X228600000Y-144780000D03*
X226060000Y-144780000D03*
X223520000Y-144780000D03*
X220980000Y-144780000D03*
X218440000Y-144780000D03*
X215900000Y-144780000D03*
X213360000Y-144780000D03*
X210820000Y-144780000D03*
X208280000Y-144780000D03*
X205740000Y-144780000D03*
X203200000Y-144780000D03*
X200660000Y-144780000D03*
X198120000Y-144780000D03*
X195580000Y-144780000D03*
X193040000Y-144780000D03*
X190500000Y-144780000D03*
X187960000Y-144780000D03*
X185420000Y-144780000D03*
X182880000Y-144780000D03*
X180340000Y-144780000D03*
X177800000Y-144780000D03*
X175260000Y-144780000D03*
X172720000Y-144780000D03*
X170180000Y-144780000D03*
X167640000Y-144780000D03*
X165100000Y-144780000D03*
X162560000Y-144780000D03*
D15*
X153670000Y-63500000D03*
D16*
X156210000Y-63500000D03*
D15*
X147320000Y-63500000D03*
D16*
X149860000Y-63500000D03*
D15*
X140970000Y-63500000D03*
D16*
X143510000Y-63500000D03*
D15*
X134620000Y-63500000D03*
D16*
X137160000Y-63500000D03*
D15*
X128270000Y-63500000D03*
D16*
X130810000Y-63500000D03*
D15*
X121920000Y-63500000D03*
D16*
X124460000Y-63500000D03*
D15*
X115570000Y-63500000D03*
D16*
X118110000Y-63500000D03*
D15*
X109220000Y-63500000D03*
D16*
X111760000Y-63500000D03*
D15*
X248920000Y-63500000D03*
D16*
X251460000Y-63500000D03*
D15*
X242570000Y-63500000D03*
D16*
X245110000Y-63500000D03*
D15*
X236220000Y-63500000D03*
D16*
X238760000Y-63500000D03*
D15*
X229870000Y-63500000D03*
D16*
X232410000Y-63500000D03*
D15*
X223520000Y-63500000D03*
D16*
X226060000Y-63500000D03*
D15*
X217170000Y-63500000D03*
D16*
X219710000Y-63500000D03*
D15*
X210820000Y-63500000D03*
D16*
X213360000Y-63500000D03*
D15*
X204470000Y-63500000D03*
D16*
X207010000Y-63500000D03*
D15*
X191770000Y-63500000D03*
D16*
X194310000Y-63500000D03*
D15*
X185420000Y-63500000D03*
D16*
X187960000Y-63500000D03*
D15*
X179070000Y-63500000D03*
D16*
X181610000Y-63500000D03*
D15*
X172720000Y-63500000D03*
D16*
X175260000Y-63500000D03*
D10*
X248920000Y-104140000D03*
X233680000Y-137160000D03*
X248920000Y-106680000D03*
X233680000Y-134620000D03*
X248920000Y-109220000D03*
X233680000Y-132080000D03*
X248920000Y-111760000D03*
X233680000Y-129540000D03*
X248920000Y-114300000D03*
X233680000Y-127000000D03*
X248920000Y-116840000D03*
X233680000Y-124460000D03*
X248920000Y-119380000D03*
X233680000Y-121920000D03*
X248920000Y-121920000D03*
X233680000Y-119380000D03*
X248920000Y-124460000D03*
X233680000Y-116840000D03*
X248920000Y-127000000D03*
X233680000Y-114300000D03*
X248920000Y-129540000D03*
X233680000Y-111760000D03*
X248920000Y-132080000D03*
X233680000Y-109220000D03*
X248920000Y-134620000D03*
X233680000Y-106680000D03*
X248920000Y-137160000D03*
D11*
X233680000Y-104140000D03*
D10*
X226060000Y-104140000D03*
X210820000Y-137160000D03*
X226060000Y-106680000D03*
X210820000Y-134620000D03*
X226060000Y-109220000D03*
X210820000Y-132080000D03*
X226060000Y-111760000D03*
X210820000Y-129540000D03*
X226060000Y-114300000D03*
X210820000Y-127000000D03*
X226060000Y-116840000D03*
X210820000Y-124460000D03*
X226060000Y-119380000D03*
X210820000Y-121920000D03*
X226060000Y-121920000D03*
X210820000Y-119380000D03*
X226060000Y-124460000D03*
X210820000Y-116840000D03*
X226060000Y-127000000D03*
X210820000Y-114300000D03*
X226060000Y-129540000D03*
X210820000Y-111760000D03*
X226060000Y-132080000D03*
X210820000Y-109220000D03*
X226060000Y-134620000D03*
X210820000Y-106680000D03*
X226060000Y-137160000D03*
D11*
X210820000Y-104140000D03*
D10*
X203200000Y-104140000D03*
X187960000Y-137160000D03*
X203200000Y-106680000D03*
X187960000Y-134620000D03*
X203200000Y-109220000D03*
X187960000Y-132080000D03*
X203200000Y-111760000D03*
X187960000Y-129540000D03*
X203200000Y-114300000D03*
X187960000Y-127000000D03*
X203200000Y-116840000D03*
X187960000Y-124460000D03*
X203200000Y-119380000D03*
X187960000Y-121920000D03*
X203200000Y-121920000D03*
X187960000Y-119380000D03*
X203200000Y-124460000D03*
X187960000Y-116840000D03*
X203200000Y-127000000D03*
X187960000Y-114300000D03*
X203200000Y-129540000D03*
X187960000Y-111760000D03*
X203200000Y-132080000D03*
X187960000Y-109220000D03*
X203200000Y-134620000D03*
X187960000Y-106680000D03*
X203200000Y-137160000D03*
D11*
X187960000Y-104140000D03*
D10*
X180340000Y-104140000D03*
X165100000Y-137160000D03*
X180340000Y-106680000D03*
X165100000Y-134620000D03*
X180340000Y-109220000D03*
X165100000Y-132080000D03*
X180340000Y-111760000D03*
X165100000Y-129540000D03*
X180340000Y-114300000D03*
X165100000Y-127000000D03*
X180340000Y-116840000D03*
X165100000Y-124460000D03*
X180340000Y-119380000D03*
X165100000Y-121920000D03*
X180340000Y-121920000D03*
X165100000Y-119380000D03*
X180340000Y-124460000D03*
X165100000Y-116840000D03*
X180340000Y-127000000D03*
X165100000Y-114300000D03*
X180340000Y-129540000D03*
X165100000Y-111760000D03*
X180340000Y-132080000D03*
X165100000Y-109220000D03*
X180340000Y-134620000D03*
X165100000Y-106680000D03*
X180340000Y-137160000D03*
D11*
X165100000Y-104140000D03*
D10*
X180340000Y-77470000D03*
X182880000Y-77470000D03*
X185420000Y-77470000D03*
X187960000Y-77470000D03*
X190500000Y-77470000D03*
X193040000Y-77470000D03*
X195580000Y-77470000D03*
X198120000Y-77470000D03*
D11*
X200660000Y-77470000D03*
D10*
X137160000Y-73660000D03*
X134620000Y-73660000D03*
X132080000Y-73660000D03*
X129540000Y-73660000D03*
X127000000Y-73660000D03*
X124460000Y-73660000D03*
X121920000Y-73660000D03*
X119380000Y-73660000D03*
D11*
X116840000Y-73660000D03*
D10*
X238760000Y-73660000D03*
X236220000Y-73660000D03*
X233680000Y-73660000D03*
X231140000Y-73660000D03*
X228600000Y-73660000D03*
X226060000Y-73660000D03*
X223520000Y-73660000D03*
X220980000Y-73660000D03*
D11*
X218440000Y-73660000D03*
D10*
X177800000Y-73660000D03*
X175260000Y-73660000D03*
X172720000Y-73660000D03*
X170180000Y-73660000D03*
D11*
X167640000Y-73660000D03*
D14*
X204470000Y-70906000D03*
D11*
X204470000Y-73406000D03*
D14*
X114300000Y-109514000D03*
D11*
X114300000Y-112014000D03*
D14*
X104100000Y-83820000D03*
D11*
X101600000Y-83820000D03*
D14*
X95504000Y-123364000D03*
X95504000Y-118364000D03*
X243920000Y-99060000D03*
X248920000Y-99060000D03*
X221060000Y-99060000D03*
X226060000Y-99060000D03*
X109220000Y-86280000D03*
X109220000Y-81280000D03*
X203200000Y-86280000D03*
X203200000Y-81280000D03*
X147400000Y-81280000D03*
X152400000Y-81280000D03*
X198200000Y-99060000D03*
X203200000Y-99060000D03*
X122000000Y-111760000D03*
X127000000Y-111760000D03*
X76120000Y-111760000D03*
X71120000Y-111760000D03*
X60960000Y-86280000D03*
X60960000Y-81280000D03*
X175340000Y-99060000D03*
X180340000Y-99060000D03*
M02*
