<?xml version='1.0' encoding='utf-8'?>
<svg xmlns="http://www.w3.org/2000/svg" gorn="0" viewBox="0 0 30.0 33.0" width="0.3in" xmlns:xml="http://www.w3.org/XML/1998/namespace" version="1.2" height="0.33in" id="svg2" xml:space="preserve" baseProfile="tiny" >
    <desc>
        <referenceFile>dip_icon.svg</referenceFile>
    </desc>
    <g gorn="0.0" id="icon" >
        <rect gorn="0.0.0" width="30.0" fill="#303030" height="27.0" id="middle" y="3" x="0" />
        <rect gorn="0.0.1" width="30.0" fill="#3D3D3D" height="2.46" id="top" y="3.0" x="0" />
        <rect gorn="0.0.2" width="30.0" fill="#000000" height="2.46" id="bottom" y="27.54" x="0" />
        <polygon points="30.0,3 29.25,5.46 29.25,27.54 30.0,30.0" gorn="0.0.3" fill="#141414" id="right" />
        <polygon points="0,3 0.75,5.46 0.75,27.54 0,30.0" gorn="0.0.4" fill="#1F1F1F" id="left" />
        <polygon points="5,11.5 0.75,11.46 0.56,13.58 0.56,16.5 5,16.5" gorn="0.0.5" fill="#1C1C1C" id="left-upper-rect" />
        <polygon points="0.75,21.55 5,21.55 5,16.5 0.56,16.5 0.56,19.42" gorn="0.0.6" fill="#383838" id="left-lower-rect" />
        <path gorn="0.0.7" fill="#262626" id="slot" d="M0.56,13.58v5.83c1.47-0.17,2.62-1.4,2.62-2.92C3.18,14.97,2.04,13.75,0.56,13.58z" />
        <path gorn="0.0.8" fill="#303030" id="cover" d="M0.75,5.46V11.45c2.38,0.45,4.19,2.53,4.19,5.04c0,2.51-1.8,4.6-4.19,5.05V21.55h5.0V5.46H0.75z" />
        <circle fill="#212121" r="2.06" cy="23.47" cx="6.5" />
        <text gorn="0.0.10" fill="#dddddd" id="label" stroke="none" font-family="OCRA" y="16.5" text-anchor="start" font-size="8" x="6.5" >IC</text>
        <rect gorn="0.0.11" width="3" fill="#8C8C8C" height="4.34" id="connector0pin" y="28.66" x="3.5" />
        <rect gorn="0.0.12" width="3" fill="#8C8C8C" height="3" id="connector0terminal" y="30.0" x="3.5" />
        <polygon points="3.5,28.66 3.5,30.66 6.5,30.66 8.5,29.74 8.5,28.66 &#x9;" fill="#8C8C8C" />
        <rect gorn="0.0.14" width="3" fill="#8C8C8C" height="4.34" id="connector5pin" x="3.5" />
        <rect gorn="0.0.15" width="3" fill="#8C8C8C" height="3" id="connector5terminal" x="3.5" />
        <polygon points="8.5,4.34 8.5,3.26 6.5,2.34 3.5,2.34 3.5,4.34" fill="#8C8C8C" />
        <rect gorn="0.0.17" width="3" fill="#8C8C8C" height="4.34" id="connector2pin" y="28.66" x="23.5" />
        <rect gorn="0.0.18" width="3" fill="#8C8C8C" height="3" id="connector2terminal" y="30.0" x="23.5" />
        <polygon points="21.5,28.66 21.5,29.74 23.5,30.66 26.5,30.66 26.5,28.66" fill="#8C8C8C" />
        <rect gorn="0.0.20" width="3" fill="#8C8C8C" height="4.34" id="connector3pin" y="0" x="23.5" />
        <rect gorn="0.0.21" width="3" fill="#8C8C8C" height="3" id="connector3terminal" y="0" x="23.5" />
        <polygon points="26.5,4.34 26.5,2.34 23.5,2.34 21.5,3.26 21.5,4.34 &#x9;" fill="#8C8C8C" />
        <rect gorn="0.0.23" width="3" fill="#8C8C8C" height="4.34" id="connector1pin" y="28.66" x="13.5" />
        <rect gorn="0.0.24" width="3" fill="#8C8C8C" height="3" id="connector1terminal" y="30.0" x="13.5" />
        <polygon points="11.5,28.66 11.5,29.74 13.5,30.66 16.5,30.66 18.5,29.74 18.5,28.66" fill="#8C8C8C" />
        <rect gorn="0.0.26" width="3" fill="#8C8C8C" height="4.34" id="connector4pin" y="0" x="13.5" />
        <rect gorn="0.0.27" width="3" fill="#8C8C8C" height="3" id="connector4terminal" x="13.5" />
        <polygon points="18.5,4.34 18.5,3.26 16.5,2.34 13.5,2.34 11.5,3.26 11.5,4.34" fill="#8C8C8C" />
    </g>
</svg>
