<?xml version='1.0' encoding='utf-8'?>
<svg xmlns="http://www.w3.org/2000/svg" viewBox="0 0 30.0 33.0" width="0.3in" height="0.33in" xmlns:xml="http://www.w3.org/XML/1998/namespace"  id="svg2" gorn="0" xml:space="preserve" version="1.2" baseProfile="tiny">
    <desc>
        <referenceFile>dip_icon.svg</referenceFile>
    </desc>
    <g  id="icon" gorn="0.0">
        <rect width="30.0" height="27.0" y="3"  id="middle" gorn="0.0.0" fill="#303030" x="0"/>
        <rect width="30.0" height="2.46" y="3.0"  id="top" gorn="0.0.1" fill="#3D3D3D" x="0"/>
        <rect width="30.0" height="2.46" y="27.54"  id="bottom" gorn="0.0.2" fill="#000000" x="0"/>
        <polygon points="30.0,3 29.25,5.46 29.25,27.54 30.0,30.0"  id="right" gorn="0.0.3" fill="#141414"/>
        <polygon points="0,3 0.75,5.46 0.75,27.54 0,30.0"  id="left" gorn="0.0.4" fill="#1F1F1F"/>
        <polygon points="5,11.5 0.75,11.46 0.56,13.58 0.56,16.5 5,16.5"  id="left-upper-rect" gorn="0.0.5" fill="#1C1C1C"/>
        <polygon points="0.75,21.55 5,21.55 5,16.5 0.56,16.5 0.56,19.42"  id="left-lower-rect" gorn="0.0.6" fill="#383838"/>
        <path d="M0.56,13.58v5.83c1.47-0.17,2.62-1.4,2.62-2.92C3.18,14.97,2.04,13.75,0.56,13.58z"  id="slot" gorn="0.0.7" fill="#262626"/>
        <path d="M0.75,5.46V11.45c2.38,0.45,4.19,2.53,4.19,5.04c0,2.51-1.8,4.6-4.19,5.05V21.55h5.0V5.46H0.75z"  id="cover" gorn="0.0.8" fill="#303030"/>
        <circle cx="6.5"  cy="23.47" fill="#212121" r="2.06"/>
        <text y="16.5" stroke="none"  id="label" gorn="0.0.10" fill="#dddddd" font-size="8" x="6.5" text-anchor="start" font-family="OCRA">IC</text>
        <rect width="3" height="4.34" y="28.66"  id="connector0pin" gorn="0.0.11" fill="#8C8C8C" x="3.5"/>
        <rect width="3" height="3" y="30.0"  id="connector0terminal" gorn="0.0.12" fill="#8C8C8C" x="3.5"/>
        <polygon points="3.5,28.66 3.5,30.66 6.5,30.66 8.5,29.74 8.5,28.66 &#x9;"  fill="#8C8C8C"/>
        <rect width="3" height="4.34"  id="connector5pin" gorn="0.0.14" fill="#8C8C8C" x="3.5"/>
        <rect width="3" height="3"  id="connector5terminal" gorn="0.0.15" fill="#8C8C8C" x="3.5"/>
        <polygon points="8.5,4.34 8.5,3.26 6.5,2.34 3.5,2.34 3.5,4.34"  fill="#8C8C8C"/>
        <rect width="3" height="4.34" y="28.66"  id="connector2pin" gorn="0.0.17" fill="#8C8C8C" x="23.5"/>
        <rect width="3" height="3" y="30.0"  id="connector2terminal" gorn="0.0.18" fill="#8C8C8C" x="23.5"/>
        <polygon points="21.5,28.66 21.5,29.74 23.5,30.66 26.5,30.66 26.5,28.66"  fill="#8C8C8C"/>
        <rect width="3" height="4.34" y="0"  id="connector3pin" gorn="0.0.20" fill="#8C8C8C" x="23.5"/>
        <rect width="3" height="3" y="0"  id="connector3terminal" gorn="0.0.21" fill="#8C8C8C" x="23.5"/>
        <polygon points="26.5,4.34 26.5,2.34 23.5,2.34 21.5,3.26 21.5,4.34 &#x9;"  fill="#8C8C8C"/>
        <rect width="3" height="4.34" y="28.66"  id="connector1pin" gorn="0.0.23" fill="#8C8C8C" x="13.5"/>
        <rect width="3" height="3" y="30.0"  id="connector1terminal" gorn="0.0.24" fill="#8C8C8C" x="13.5"/>
        <polygon points="11.5,28.66 11.5,29.74 13.5,30.66 16.5,30.66 18.5,29.74 18.5,28.66"  fill="#8C8C8C"/>
        <rect width="3" height="4.34" y="0"  id="connector4pin" gorn="0.0.26" fill="#8C8C8C" x="13.5"/>
        <rect width="3" height="3"  id="connector4terminal" gorn="0.0.27" fill="#8C8C8C" x="13.5"/>
        <polygon points="18.5,4.34 18.5,3.26 16.5,2.34 13.5,2.34 11.5,3.26 11.5,4.34"  fill="#8C8C8C"/>
    </g>
</svg>
