<?xml version='1.0' encoding='utf-8'?>
<svg xmlns="http://www.w3.org/2000/svg" height="0.33in" baseProfile="tiny" gorn="0" xmlns:xml="http://www.w3.org/XML/1998/namespace" width="0.3in" version="1.2" xml:space="preserve"  id="svg2" viewBox="0 0 30.0 33.0">
    <desc>
        <referenceFile>dip_icon.svg</referenceFile>
    </desc>
    <g gorn="0.0"  id="icon">
        <rect height="27.0" y="3" gorn="0.0.0" width="30.0"  x="0" id="middle" fill="#303030"/>
        <rect height="2.46" y="3.0" gorn="0.0.1" width="30.0"  x="0" id="top" fill="#3D3D3D"/>
        <rect height="2.46" y="27.54" gorn="0.0.2" width="30.0"  x="0" id="bottom" fill="#000000"/>
        <polygon gorn="0.0.3" points="30.0,3 29.25,5.46 29.25,27.54 30.0,30.0"  id="right" fill="#141414"/>
        <polygon gorn="0.0.4" points="0,3 0.75,5.46 0.75,27.54 0,30.0"  id="left" fill="#1F1F1F"/>
        <polygon gorn="0.0.5" points="5,11.5 0.75,11.46 0.56,13.58 0.56,16.5 5,16.5"  id="left-upper-rect" fill="#1C1C1C"/>
        <polygon gorn="0.0.6" points="0.75,21.55 5,21.55 5,16.5 0.56,16.5 0.56,19.42"  id="left-lower-rect" fill="#383838"/>
        <path d="M0.56,13.58v5.83c1.47-0.17,2.62-1.4,2.62-2.92C3.18,14.97,2.04,13.75,0.56,13.58z" gorn="0.0.7"  id="slot" fill="#262626"/>
        <path d="M0.75,5.46V11.45c2.38,0.45,4.19,2.53,4.19,5.04c0,2.51-1.8,4.6-4.19,5.05V21.55h5.0V5.46H0.75z" gorn="0.0.8"  id="cover" fill="#303030"/>
        <circle cx="6.5" r="2.06"  fill="#212121" cy="23.47"/>
        <text y="16.5" font-family="OCRA" gorn="0.0.10" stroke="none" font-size="8"  x="6.5" text-anchor="start" id="label" fill="#dddddd">IC</text>
        <rect height="4.34" y="28.66" gorn="0.0.11" width="3"  x="3.5" id="connector0pin" fill="#8C8C8C"/>
        <rect height="3" y="30.0" gorn="0.0.12" width="3"  x="3.5" id="connector0terminal" fill="#8C8C8C"/>
        <polygon points="3.5,28.66 3.5,30.66 6.5,30.66 8.5,29.74 8.5,28.66 &#x9;"  fill="#8C8C8C"/>
        <rect height="4.34" gorn="0.0.14" width="3"  x="3.5" id="connector5pin" fill="#8C8C8C"/>
        <rect height="3" gorn="0.0.15" width="3"  x="3.5" id="connector5terminal" fill="#8C8C8C"/>
        <polygon points="8.5,4.34 8.5,3.26 6.5,2.34 3.5,2.34 3.5,4.34"  fill="#8C8C8C"/>
        <rect height="4.34" y="28.66" gorn="0.0.17" width="3"  x="23.5" id="connector2pin" fill="#8C8C8C"/>
        <rect height="3" y="30.0" gorn="0.0.18" width="3"  x="23.5" id="connector2terminal" fill="#8C8C8C"/>
        <polygon points="21.5,28.66 21.5,29.74 23.5,30.66 26.5,30.66 26.5,28.66"  fill="#8C8C8C"/>
        <rect height="4.34" y="0" gorn="0.0.20" width="3"  x="23.5" id="connector3pin" fill="#8C8C8C"/>
        <rect height="3" y="0" gorn="0.0.21" width="3"  x="23.5" id="connector3terminal" fill="#8C8C8C"/>
        <polygon points="26.5,4.34 26.5,2.34 23.5,2.34 21.5,3.26 21.5,4.34 &#x9;"  fill="#8C8C8C"/>
        <rect height="4.34" y="28.66" gorn="0.0.23" width="3"  x="13.5" id="connector1pin" fill="#8C8C8C"/>
        <rect height="3" y="30.0" gorn="0.0.24" width="3"  x="13.5" id="connector1terminal" fill="#8C8C8C"/>
        <polygon points="11.5,28.66 11.5,29.74 13.5,30.66 16.5,30.66 18.5,29.74 18.5,28.66"  fill="#8C8C8C"/>
        <rect height="4.34" y="0" gorn="0.0.26" width="3"  x="13.5" id="connector4pin" fill="#8C8C8C"/>
        <rect height="3" gorn="0.0.27" width="3"  x="13.5" id="connector4terminal" fill="#8C8C8C"/>
        <polygon points="18.5,4.34 18.5,3.26 16.5,2.34 13.5,2.34 11.5,3.26 11.5,4.34"  fill="#8C8C8C"/>
    </g>
</svg>
