<?xml version='1.0' encoding='utf-8'?>
<svg xmlns="http://www.w3.org/2000/svg" version="1.2"  baseProfile="tiny" gorn="0" xml:space="preserve" viewBox="0 0 30.0 33.0" height="0.33in" id="svg2" xmlns:xml="http://www.w3.org/XML/1998/namespace" width="0.3in">
    <desc>
        <referenceFile>dip_icon.svg</referenceFile>
    </desc>
    <g  gorn="0.0" id="icon">
        <rect  gorn="0.0.0" fill="#303030" x="0" y="3" height="27.0" id="middle" width="30.0"/>
        <rect  gorn="0.0.1" fill="#3D3D3D" x="0" y="3.0" height="2.46" id="top" width="30.0"/>
        <rect  gorn="0.0.2" fill="#000000" x="0" y="27.54" height="2.46" id="bottom" width="30.0"/>
        <polygon  gorn="0.0.3" fill="#141414" id="right" points="30.0,3 29.25,5.46 29.25,27.54 30.0,30.0"/>
        <polygon  gorn="0.0.4" fill="#1F1F1F" id="left" points="0,3 0.75,5.46 0.75,27.54 0,30.0"/>
        <polygon  gorn="0.0.5" fill="#1C1C1C" id="left-upper-rect" points="5,11.5 0.75,11.46 0.56,13.58 0.56,16.5 5,16.5"/>
        <polygon  gorn="0.0.6" fill="#383838" id="left-lower-rect" points="0.75,21.55 5,21.55 5,16.5 0.56,16.5 0.56,19.42"/>
        <path  gorn="0.0.7" fill="#262626" d="M0.56,13.58v5.83c1.47-0.17,2.62-1.4,2.62-2.92C3.18,14.97,2.04,13.75,0.56,13.58z" id="slot"/>
        <path  gorn="0.0.8" fill="#303030" d="M0.75,5.46V11.45c2.38,0.45,4.19,2.53,4.19,5.04c0,2.51-1.8,4.6-4.19,5.05V21.55h5.0V5.46H0.75z" id="cover"/>
        <circle  fill="#212121" r="2.06" cy="23.47" cx="6.5"/>
        <text font-family="OCRA"  gorn="0.0.10" fill="#dddddd" stroke="none" x="6.5" y="16.5" id="label" font-size="8" text-anchor="start">IC</text>
        <rect  gorn="0.0.11" fill="#8C8C8C" x="3.5" y="28.66" height="4.34" id="connector0pin" width="3"/>
        <rect  gorn="0.0.12" fill="#8C8C8C" x="3.5" y="30.0" height="3" id="connector0terminal" width="3"/>
        <polygon  fill="#8C8C8C" points="3.5,28.66 3.5,30.66 6.5,30.66 8.5,29.74 8.5,28.66 &#x9;"/>
        <rect  gorn="0.0.14" fill="#8C8C8C" x="3.5" height="4.34" id="connector5pin" width="3"/>
        <rect  gorn="0.0.15" fill="#8C8C8C" x="3.5" height="3" id="connector5terminal" width="3"/>
        <polygon  fill="#8C8C8C" points="8.5,4.34 8.5,3.26 6.5,2.34 3.5,2.34 3.5,4.34"/>
        <rect  gorn="0.0.17" fill="#8C8C8C" x="23.5" y="28.66" height="4.34" id="connector2pin" width="3"/>
        <rect  gorn="0.0.18" fill="#8C8C8C" x="23.5" y="30.0" height="3" id="connector2terminal" width="3"/>
        <polygon  fill="#8C8C8C" points="21.5,28.66 21.5,29.74 23.5,30.66 26.5,30.66 26.5,28.66"/>
        <rect  gorn="0.0.20" fill="#8C8C8C" x="23.5" y="0" height="4.34" id="connector3pin" width="3"/>
        <rect  gorn="0.0.21" fill="#8C8C8C" x="23.5" y="0" height="3" id="connector3terminal" width="3"/>
        <polygon  fill="#8C8C8C" points="26.5,4.34 26.5,2.34 23.5,2.34 21.5,3.26 21.5,4.34 &#x9;"/>
        <rect  gorn="0.0.23" fill="#8C8C8C" x="13.5" y="28.66" height="4.34" id="connector1pin" width="3"/>
        <rect  gorn="0.0.24" fill="#8C8C8C" x="13.5" y="30.0" height="3" id="connector1terminal" width="3"/>
        <polygon  fill="#8C8C8C" points="11.5,28.66 11.5,29.74 13.5,30.66 16.5,30.66 18.5,29.74 18.5,28.66"/>
        <rect  gorn="0.0.26" fill="#8C8C8C" x="13.5" y="0" height="4.34" id="connector4pin" width="3"/>
        <rect  gorn="0.0.27" fill="#8C8C8C" x="13.5" height="3" id="connector4terminal" width="3"/>
        <polygon  fill="#8C8C8C" points="18.5,4.34 18.5,3.26 16.5,2.34 13.5,2.34 11.5,3.26 11.5,4.34"/>
    </g>
</svg>
