G04 #@! TF.GenerationSoftware,KiCad,Pcbnew,(7.0.0)*
G04 #@! TF.CreationDate,2023-09-24T17:50:25-07:00*
G04 #@! TF.ProjectId,ram,72616d2e-6b69-4636-9164-5f7063625858,rev?*
G04 #@! TF.SameCoordinates,Original*
G04 #@! TF.FileFunction,Soldermask,Top*
G04 #@! TF.FilePolarity,Negative*
%FSLAX46Y46*%
G04 Gerber Fmt 4.6, Leading zero omitted, Abs format (unit mm)*
G04 Created by KiCad (PCBNEW (7.0.0)) date 2023-09-24 17:50:25*
%MOMM*%
%LPD*%
G01*
G04 APERTURE LIST*
%ADD10R,1.600000X1.600000*%
%ADD11O,1.600000X1.600000*%
%ADD12C,1.600000*%
%ADD13R,1.700000X1.700000*%
%ADD14O,1.700000X1.700000*%
%ADD15C,2.000000*%
%ADD16R,1.800000X1.800000*%
%ADD17C,1.800000*%
G04 APERTURE END LIST*
D10*
X114299999Y-104139999D03*
D11*
X116839999Y-104139999D03*
X119379999Y-104139999D03*
X121919999Y-104139999D03*
X124459999Y-104139999D03*
X126999999Y-104139999D03*
X129539999Y-104139999D03*
X129539999Y-96519999D03*
X126999999Y-96519999D03*
X124459999Y-96519999D03*
X121919999Y-96519999D03*
X119379999Y-96519999D03*
X116839999Y-96519999D03*
X114299999Y-96519999D03*
D12*
X134620000Y-73660000D03*
X134620000Y-78660000D03*
X208360000Y-66040000D03*
X213360000Y-66040000D03*
X55880000Y-96520000D03*
X55880000Y-101520000D03*
D13*
X139699999Y-144779999D03*
D14*
X137159999Y-144779999D03*
X134619999Y-144779999D03*
X132079999Y-144779999D03*
X129539999Y-144779999D03*
X126999999Y-144779999D03*
X124459999Y-144779999D03*
X121919999Y-144779999D03*
X119379999Y-144779999D03*
X116839999Y-144779999D03*
X114299999Y-144779999D03*
X111759999Y-144779999D03*
X109219999Y-144779999D03*
X106679999Y-144779999D03*
X104139999Y-144779999D03*
X101599999Y-144779999D03*
D10*
X221019999Y-115569999D03*
D12*
X223520000Y-115570000D03*
X170688000Y-66548000D03*
D11*
X160527999Y-66547999D03*
D13*
X93979999Y-144779999D03*
D14*
X91439999Y-144779999D03*
X88899999Y-144779999D03*
X86359999Y-144779999D03*
X83819999Y-144779999D03*
X81279999Y-144779999D03*
X78739999Y-144779999D03*
X76199999Y-144779999D03*
X73659999Y-144779999D03*
X71119999Y-144779999D03*
X68579999Y-144779999D03*
X66039999Y-144779999D03*
X63499999Y-144779999D03*
X60959999Y-144779999D03*
D15*
X143510000Y-61468000D03*
D12*
X109220000Y-96520000D03*
X109220000Y-101520000D03*
D10*
X139699999Y-104139999D03*
D11*
X142239999Y-104139999D03*
X144779999Y-104139999D03*
X147319999Y-104139999D03*
X149859999Y-104139999D03*
X152399999Y-104139999D03*
X154939999Y-104139999D03*
X154939999Y-96519999D03*
X152399999Y-96519999D03*
X149859999Y-96519999D03*
X147319999Y-96519999D03*
X144779999Y-96519999D03*
X142239999Y-96519999D03*
X139699999Y-96519999D03*
D12*
X218440000Y-121920000D03*
X218440000Y-126920000D03*
D10*
X223519999Y-129539999D03*
D11*
X226059999Y-129539999D03*
X228599999Y-129539999D03*
X231139999Y-129539999D03*
X233679999Y-129539999D03*
X236219999Y-129539999D03*
X238759999Y-129539999D03*
X241299999Y-129539999D03*
X243839999Y-129539999D03*
X246379999Y-129539999D03*
X246379999Y-121919999D03*
X243839999Y-121919999D03*
X241299999Y-121919999D03*
X238759999Y-121919999D03*
X236219999Y-121919999D03*
X233679999Y-121919999D03*
X231139999Y-121919999D03*
X228599999Y-121919999D03*
X226059999Y-121919999D03*
X223519999Y-121919999D03*
D15*
X182372000Y-61468000D03*
D12*
X190500000Y-116840000D03*
X190500000Y-111840000D03*
D15*
X155448000Y-61468000D03*
D10*
X198119999Y-73659999D03*
D11*
X198119999Y-76199999D03*
X198119999Y-78739999D03*
X198119999Y-81279999D03*
X198119999Y-83819999D03*
X198119999Y-86359999D03*
X198119999Y-88899999D03*
X198119999Y-91439999D03*
X198119999Y-93979999D03*
X198119999Y-96519999D03*
X198119999Y-99059999D03*
X198119999Y-101599999D03*
X198119999Y-104139999D03*
X198119999Y-106679999D03*
X198119999Y-109219999D03*
X198119999Y-111759999D03*
X213359999Y-111759999D03*
X213359999Y-109219999D03*
X213359999Y-106679999D03*
X213359999Y-104139999D03*
X213359999Y-101599999D03*
X213359999Y-99059999D03*
X213359999Y-96519999D03*
X213359999Y-93979999D03*
X213359999Y-91439999D03*
X213359999Y-88899999D03*
X213359999Y-86359999D03*
X213359999Y-83819999D03*
X213359999Y-81279999D03*
X213359999Y-78739999D03*
X213359999Y-76199999D03*
X213359999Y-73659999D03*
D12*
X97790000Y-68580000D03*
X97790000Y-63580000D03*
D15*
X168656000Y-61468000D03*
D12*
X81280000Y-59690000D03*
D11*
X91439999Y-59689999D03*
D15*
X195326000Y-61468000D03*
D12*
X81280000Y-96520000D03*
X81280000Y-101520000D03*
X238760000Y-55880000D03*
D11*
X228599999Y-55879999D03*
D10*
X86359999Y-81279999D03*
D11*
X88899999Y-81279999D03*
X91439999Y-81279999D03*
X93979999Y-81279999D03*
X96519999Y-81279999D03*
X99059999Y-81279999D03*
X101599999Y-81279999D03*
X104139999Y-81279999D03*
X104139999Y-73659999D03*
X101599999Y-73659999D03*
X99059999Y-73659999D03*
X96519999Y-73659999D03*
X93979999Y-73659999D03*
X91439999Y-73659999D03*
X88899999Y-73659999D03*
X86359999Y-73659999D03*
D12*
X109220000Y-73740000D03*
X109220000Y-78740000D03*
D10*
X86105999Y-126658378D03*
D12*
X86106000Y-124158379D03*
D10*
X190499999Y-129539999D03*
D11*
X193039999Y-129539999D03*
X195579999Y-129539999D03*
X198119999Y-129539999D03*
X200659999Y-129539999D03*
X203199999Y-129539999D03*
X205739999Y-129539999D03*
X208279999Y-129539999D03*
X210819999Y-129539999D03*
X213359999Y-129539999D03*
X213359999Y-121919999D03*
X210819999Y-121919999D03*
X208279999Y-121919999D03*
X205739999Y-121919999D03*
X203199999Y-121919999D03*
X200659999Y-121919999D03*
X198119999Y-121919999D03*
X195579999Y-121919999D03*
X193039999Y-121919999D03*
X190499999Y-121919999D03*
D12*
X134620000Y-96520000D03*
X134620000Y-101520000D03*
D10*
X86359999Y-104139999D03*
D11*
X88899999Y-104139999D03*
X91439999Y-104139999D03*
X93979999Y-104139999D03*
X96519999Y-104139999D03*
X99059999Y-104139999D03*
X101599999Y-104139999D03*
X101599999Y-96519999D03*
X99059999Y-96519999D03*
X96519999Y-96519999D03*
X93979999Y-96519999D03*
X91439999Y-96519999D03*
X88899999Y-96519999D03*
X86359999Y-96519999D03*
D10*
X60959999Y-104139999D03*
D11*
X63499999Y-104139999D03*
X66039999Y-104139999D03*
X68579999Y-104139999D03*
X71119999Y-104139999D03*
X73659999Y-104139999D03*
X76199999Y-104139999D03*
X76199999Y-96519999D03*
X73659999Y-96519999D03*
X71119999Y-96519999D03*
X68579999Y-96519999D03*
X66039999Y-96519999D03*
X63499999Y-96519999D03*
X60959999Y-96519999D03*
D12*
X81280000Y-78660000D03*
X81280000Y-73660000D03*
D10*
X231139999Y-73659999D03*
D11*
X231139999Y-76199999D03*
X231139999Y-78739999D03*
X231139999Y-81279999D03*
X231139999Y-83819999D03*
X231139999Y-86359999D03*
X231139999Y-88899999D03*
X231139999Y-91439999D03*
X231139999Y-93979999D03*
X231139999Y-96519999D03*
X231139999Y-99059999D03*
X231139999Y-101599999D03*
X231139999Y-104139999D03*
X231139999Y-106679999D03*
X231139999Y-109219999D03*
X231139999Y-111759999D03*
X246379999Y-111759999D03*
X246379999Y-109219999D03*
X246379999Y-106679999D03*
X246379999Y-104139999D03*
X246379999Y-101599999D03*
X246379999Y-99059999D03*
X246379999Y-96519999D03*
X246379999Y-93979999D03*
X246379999Y-91439999D03*
X246379999Y-88899999D03*
X246379999Y-86359999D03*
X246379999Y-83819999D03*
X246379999Y-81279999D03*
X246379999Y-78739999D03*
X246379999Y-76199999D03*
X246379999Y-73659999D03*
D12*
X233760000Y-66040000D03*
X238760000Y-66040000D03*
D10*
X139694999Y-81279999D03*
D11*
X142234999Y-81279999D03*
X144774999Y-81279999D03*
X147314999Y-81279999D03*
X149854999Y-81279999D03*
X152394999Y-81279999D03*
X154934999Y-81279999D03*
X154934999Y-73659999D03*
X152394999Y-73659999D03*
X149854999Y-73659999D03*
X147314999Y-73659999D03*
X144774999Y-73659999D03*
X142234999Y-73659999D03*
X139694999Y-73659999D03*
D10*
X114299999Y-81279999D03*
D11*
X116839999Y-81279999D03*
X119379999Y-81279999D03*
X121919999Y-81279999D03*
X124459999Y-81279999D03*
X126999999Y-81279999D03*
X129539999Y-81279999D03*
X129539999Y-73659999D03*
X126999999Y-73659999D03*
X124459999Y-73659999D03*
X121919999Y-73659999D03*
X119379999Y-73659999D03*
X116839999Y-73659999D03*
X114299999Y-73659999D03*
D10*
X157479999Y-114299999D03*
D11*
X154939999Y-114299999D03*
X152399999Y-114299999D03*
X149859999Y-114299999D03*
X147319999Y-114299999D03*
X144779999Y-114299999D03*
X142239999Y-114299999D03*
X139699999Y-114299999D03*
X137159999Y-114299999D03*
D12*
X55880000Y-78660000D03*
X55880000Y-73660000D03*
D10*
X223773999Y-58927999D03*
D12*
X221274000Y-58928000D03*
X91440000Y-68580000D03*
X91440000Y-63580000D03*
D16*
X251459999Y-63499999D03*
D17*
X248920000Y-63500000D03*
D13*
X243839999Y-144779999D03*
D14*
X241299999Y-144779999D03*
X238759999Y-144779999D03*
X236219999Y-144779999D03*
X233679999Y-144779999D03*
X231139999Y-144779999D03*
X228599999Y-144779999D03*
X226059999Y-144779999D03*
X223519999Y-144779999D03*
X220979999Y-144779999D03*
X218439999Y-144779999D03*
X215899999Y-144779999D03*
X213359999Y-144779999D03*
X210819999Y-144779999D03*
X208279999Y-144779999D03*
X205739999Y-144779999D03*
X203199999Y-144779999D03*
X200659999Y-144779999D03*
X198119999Y-144779999D03*
X195579999Y-144779999D03*
X193039999Y-144779999D03*
X190499999Y-144779999D03*
X187959999Y-144779999D03*
X185419999Y-144779999D03*
X182879999Y-144779999D03*
X180339999Y-144779999D03*
X177799999Y-144779999D03*
X175259999Y-144779999D03*
X172719999Y-144779999D03*
X170179999Y-144779999D03*
X167639999Y-144779999D03*
X165099999Y-144779999D03*
D10*
X111759999Y-114299999D03*
D11*
X114299999Y-114299999D03*
X116839999Y-114299999D03*
X119379999Y-114299999D03*
X121919999Y-114299999D03*
X124459999Y-114299999D03*
X126999999Y-114299999D03*
X129539999Y-114299999D03*
X132079999Y-114299999D03*
D15*
X132080000Y-61468000D03*
D10*
X60959999Y-81279999D03*
D11*
X63499999Y-81279999D03*
X66039999Y-81279999D03*
X68579999Y-81279999D03*
X71119999Y-81279999D03*
X73659999Y-81279999D03*
X76199999Y-81279999D03*
X76199999Y-73659999D03*
X73659999Y-73659999D03*
X71119999Y-73659999D03*
X68579999Y-73659999D03*
X66039999Y-73659999D03*
X63499999Y-73659999D03*
X60959999Y-73659999D03*
D13*
X116839999Y-124459999D03*
D14*
X116839999Y-121919999D03*
X119379999Y-124459999D03*
X119379999Y-121919999D03*
X121919999Y-124459999D03*
X121919999Y-121919999D03*
X124459999Y-124459999D03*
X124459999Y-121919999D03*
X126999999Y-124459999D03*
X126999999Y-121919999D03*
X129539999Y-124459999D03*
X129539999Y-121919999D03*
X132079999Y-124459999D03*
X132079999Y-121919999D03*
X134619999Y-124459999D03*
X134619999Y-121919999D03*
X137159999Y-124459999D03*
X137159999Y-121919999D03*
X139699999Y-124459999D03*
X139699999Y-121919999D03*
X142239999Y-124459999D03*
X142239999Y-121919999D03*
X144779999Y-124459999D03*
X144779999Y-121919999D03*
X147319999Y-124459999D03*
X147319999Y-121919999D03*
X149859999Y-124459999D03*
X149859999Y-121919999D03*
X152399999Y-124459999D03*
X152399999Y-121919999D03*
X154939999Y-124459999D03*
X154939999Y-121919999D03*
D12*
X107950000Y-59690000D03*
D11*
X97789999Y-59689999D03*
M02*
