G04 #@! TF.GenerationSoftware,KiCad,Pcbnew,(5.1.5)-3*
G04 #@! TF.CreationDate,2022-12-08T22:20:29-08:00*
G04 #@! TF.ProjectId,register16,72656769-7374-4657-9231-362e6b696361,rev?*
G04 #@! TF.SameCoordinates,Original*
G04 #@! TF.FileFunction,Legend,Bot*
G04 #@! TF.FilePolarity,Positive*
%FSLAX46Y46*%
G04 Gerber Fmt 4.6, Leading zero omitted, Abs format (unit mm)*
G04 Created by KiCad (PCBNEW (5.1.5)-3) date 2022-12-08 22:20:29*
%MOMM*%
%LPD*%
G04 APERTURE LIST*
%ADD10O,1.702000X1.702000*%
%ADD11C,1.702000*%
%ADD12O,1.802000X1.802000*%
%ADD13R,1.802000X1.802000*%
%ADD14C,0.100000*%
%ADD15C,1.902000*%
%ADD16R,1.902000X1.902000*%
%ADD17R,1.702000X1.702000*%
%ADD18C,2.601360*%
G04 APERTURE END LIST*
%LPC*%
D10*
X205740000Y-119380000D03*
D11*
X195580000Y-119380000D03*
D12*
X241300000Y-78740000D03*
X241300000Y-76200000D03*
D13*
X241300000Y-73660000D03*
D10*
X246380000Y-91440000D03*
D11*
X236220000Y-91440000D03*
D12*
X96520000Y-55880000D03*
D13*
X99060000Y-55880000D03*
X137160000Y-139700000D03*
D12*
X134620000Y-139700000D03*
X132080000Y-139700000D03*
X129540000Y-139700000D03*
X127000000Y-139700000D03*
X124460000Y-139700000D03*
X121920000Y-139700000D03*
X119380000Y-139700000D03*
X116840000Y-139700000D03*
X114300000Y-139700000D03*
X111760000Y-139700000D03*
X109220000Y-139700000D03*
X106680000Y-139700000D03*
X104140000Y-139700000D03*
X101600000Y-139700000D03*
X99060000Y-139700000D03*
D13*
X86360000Y-139700000D03*
D12*
X83820000Y-139700000D03*
X81280000Y-139700000D03*
X78740000Y-139700000D03*
X76200000Y-139700000D03*
X73660000Y-139700000D03*
X71120000Y-139700000D03*
X68580000Y-139700000D03*
X66040000Y-139700000D03*
X63500000Y-139700000D03*
D13*
X241300000Y-137160000D03*
D14*
G36*
X242200020Y-140559950D02*
G01*
X242197118Y-140569517D01*
X242192405Y-140578334D01*
X242186062Y-140586062D01*
X242178334Y-140592405D01*
X242169517Y-140597118D01*
X242159950Y-140600020D01*
X242150000Y-140601000D01*
X240450000Y-140601000D01*
X240440050Y-140600020D01*
X240430483Y-140597118D01*
X240421666Y-140592405D01*
X240413938Y-140586062D01*
X240407595Y-140578334D01*
X240402882Y-140569517D01*
X240399980Y-140559950D01*
X240399000Y-140550000D01*
X240399000Y-138850000D01*
X240399980Y-138840050D01*
X240402882Y-138830483D01*
X240407595Y-138821666D01*
X240413938Y-138813938D01*
X240421666Y-138807595D01*
X240430483Y-138802882D01*
X240440050Y-138799980D01*
X240450000Y-138799000D01*
X240691000Y-138799000D01*
X240691000Y-137922000D01*
X240691246Y-137917000D01*
X240692207Y-137907245D01*
X240694157Y-137897441D01*
X240697002Y-137888062D01*
X240700828Y-137878824D01*
X240705449Y-137870179D01*
X240711005Y-137861865D01*
X240717223Y-137854289D01*
X240724289Y-137847223D01*
X240731865Y-137841005D01*
X240740179Y-137835449D01*
X240748824Y-137830828D01*
X240758062Y-137827002D01*
X240767441Y-137824157D01*
X240777245Y-137822207D01*
X240787000Y-137821246D01*
X240792000Y-137821000D01*
X241808000Y-137821000D01*
X241813000Y-137821246D01*
X241822755Y-137822207D01*
X241832559Y-137824157D01*
X241841938Y-137827002D01*
X241851176Y-137830828D01*
X241859821Y-137835449D01*
X241868135Y-137841005D01*
X241875711Y-137847223D01*
X241882777Y-137854289D01*
X241888995Y-137861865D01*
X241894551Y-137870179D01*
X241899172Y-137878824D01*
X241902998Y-137888062D01*
X241905843Y-137897441D01*
X241907793Y-137907245D01*
X241908754Y-137917000D01*
X241909000Y-137922000D01*
X241909000Y-138799000D01*
X242150000Y-138799000D01*
X242159950Y-138799980D01*
X242169517Y-138802882D01*
X242178334Y-138807595D01*
X242186062Y-138813938D01*
X242192405Y-138821666D01*
X242197118Y-138830483D01*
X242200020Y-138840050D01*
X242201000Y-138850000D01*
X242201000Y-140550000D01*
X242200020Y-140559950D01*
G37*
D12*
X233680000Y-137160000D03*
X238760000Y-137160000D03*
X236220000Y-137160000D03*
X231140000Y-137160000D03*
X226060000Y-137160000D03*
X223520000Y-137160000D03*
X220980000Y-137160000D03*
X218440000Y-137160000D03*
X203200000Y-137160000D03*
X213360000Y-137160000D03*
X210820000Y-137160000D03*
X200660000Y-137160000D03*
X193040000Y-137160000D03*
X198120000Y-137160000D03*
X190500000Y-137160000D03*
X187960000Y-137160000D03*
X185420000Y-137160000D03*
X228600000Y-137160000D03*
X208280000Y-137160000D03*
X195580000Y-137160000D03*
X182880000Y-137160000D03*
X215900000Y-137160000D03*
X205740000Y-137160000D03*
X175260000Y-137160000D03*
X172720000Y-137160000D03*
X167640000Y-137160000D03*
X165100000Y-137160000D03*
X162560000Y-137160000D03*
X177800000Y-137160000D03*
X170180000Y-137160000D03*
X180340000Y-137160000D03*
D14*
G36*
X239659730Y-139746707D02*
G01*
X239651554Y-139829720D01*
X239650820Y-139834670D01*
X239634547Y-139916482D01*
X239633331Y-139921338D01*
X239609116Y-140001161D01*
X239607430Y-140005872D01*
X239575509Y-140082938D01*
X239573369Y-140087464D01*
X239534047Y-140161029D01*
X239531474Y-140165321D01*
X239485131Y-140234678D01*
X239482150Y-140238698D01*
X239429232Y-140303179D01*
X239425870Y-140306887D01*
X239366887Y-140365870D01*
X239363179Y-140369232D01*
X239298698Y-140422150D01*
X239294678Y-140425131D01*
X239225321Y-140471474D01*
X239221029Y-140474047D01*
X239147464Y-140513369D01*
X239142938Y-140515509D01*
X239065872Y-140547430D01*
X239061161Y-140549116D01*
X238981338Y-140573331D01*
X238976482Y-140574547D01*
X238894670Y-140590820D01*
X238889720Y-140591554D01*
X238806707Y-140599730D01*
X238801708Y-140599976D01*
X238718292Y-140599976D01*
X238713293Y-140599730D01*
X238630280Y-140591554D01*
X238625330Y-140590820D01*
X238543518Y-140574547D01*
X238538662Y-140573331D01*
X238458839Y-140549116D01*
X238454128Y-140547430D01*
X238377062Y-140515509D01*
X238372536Y-140513369D01*
X238298971Y-140474047D01*
X238294679Y-140471474D01*
X238225322Y-140425131D01*
X238221302Y-140422150D01*
X238156821Y-140369232D01*
X238153113Y-140365870D01*
X238094130Y-140306887D01*
X238090768Y-140303179D01*
X238037850Y-140238698D01*
X238034869Y-140234678D01*
X237988526Y-140165321D01*
X237985953Y-140161029D01*
X237946631Y-140087464D01*
X237944491Y-140082938D01*
X237912570Y-140005872D01*
X237910884Y-140001161D01*
X237886669Y-139921338D01*
X237885453Y-139916482D01*
X237869180Y-139834670D01*
X237868446Y-139829720D01*
X237860270Y-139746707D01*
X237860024Y-139741708D01*
X237860024Y-139658292D01*
X237860270Y-139653293D01*
X237868446Y-139570280D01*
X237869180Y-139565330D01*
X237885453Y-139483518D01*
X237886669Y-139478662D01*
X237910884Y-139398839D01*
X237912570Y-139394128D01*
X237944491Y-139317062D01*
X237946631Y-139312536D01*
X237985953Y-139238971D01*
X237988526Y-139234679D01*
X238034869Y-139165322D01*
X238037850Y-139161302D01*
X238090768Y-139096821D01*
X238094130Y-139093113D01*
X238151000Y-139036243D01*
X238151000Y-137668000D01*
X238151246Y-137663000D01*
X238152207Y-137653245D01*
X238154157Y-137643441D01*
X238157002Y-137634062D01*
X238160828Y-137624824D01*
X238165449Y-137616179D01*
X238171005Y-137607865D01*
X238177223Y-137600289D01*
X238184289Y-137593223D01*
X238191865Y-137587005D01*
X238200179Y-137581449D01*
X238208824Y-137576828D01*
X238218062Y-137573002D01*
X238227441Y-137570157D01*
X238237245Y-137568207D01*
X238247000Y-137567246D01*
X238252000Y-137567000D01*
X239268000Y-137567000D01*
X239273000Y-137567246D01*
X239282755Y-137568207D01*
X239292559Y-137570157D01*
X239301938Y-137573002D01*
X239311176Y-137576828D01*
X239319821Y-137581449D01*
X239328135Y-137587005D01*
X239335711Y-137593223D01*
X239342777Y-137600289D01*
X239348995Y-137607865D01*
X239354551Y-137616179D01*
X239359172Y-137624824D01*
X239362998Y-137634062D01*
X239365843Y-137643441D01*
X239367793Y-137653245D01*
X239368754Y-137663000D01*
X239369000Y-137668000D01*
X239369000Y-139036243D01*
X239425870Y-139093113D01*
X239429232Y-139096821D01*
X239482150Y-139161302D01*
X239485131Y-139165322D01*
X239531474Y-139234679D01*
X239534047Y-139238971D01*
X239573369Y-139312536D01*
X239575509Y-139317062D01*
X239607430Y-139394128D01*
X239609116Y-139398839D01*
X239633331Y-139478662D01*
X239634547Y-139483518D01*
X239650820Y-139565330D01*
X239651554Y-139570280D01*
X239659730Y-139653293D01*
X239659976Y-139658292D01*
X239659976Y-139741708D01*
X239659730Y-139746707D01*
G37*
G36*
X163459730Y-139746707D02*
G01*
X163451554Y-139829720D01*
X163450820Y-139834670D01*
X163434547Y-139916482D01*
X163433331Y-139921338D01*
X163409116Y-140001161D01*
X163407430Y-140005872D01*
X163375509Y-140082938D01*
X163373369Y-140087464D01*
X163334047Y-140161029D01*
X163331474Y-140165321D01*
X163285131Y-140234678D01*
X163282150Y-140238698D01*
X163229232Y-140303179D01*
X163225870Y-140306887D01*
X163166887Y-140365870D01*
X163163179Y-140369232D01*
X163098698Y-140422150D01*
X163094678Y-140425131D01*
X163025321Y-140471474D01*
X163021029Y-140474047D01*
X162947464Y-140513369D01*
X162942938Y-140515509D01*
X162865872Y-140547430D01*
X162861161Y-140549116D01*
X162781338Y-140573331D01*
X162776482Y-140574547D01*
X162694670Y-140590820D01*
X162689720Y-140591554D01*
X162606707Y-140599730D01*
X162601708Y-140599976D01*
X162518292Y-140599976D01*
X162513293Y-140599730D01*
X162430280Y-140591554D01*
X162425330Y-140590820D01*
X162343518Y-140574547D01*
X162338662Y-140573331D01*
X162258839Y-140549116D01*
X162254128Y-140547430D01*
X162177062Y-140515509D01*
X162172536Y-140513369D01*
X162098971Y-140474047D01*
X162094679Y-140471474D01*
X162025322Y-140425131D01*
X162021302Y-140422150D01*
X161956821Y-140369232D01*
X161953113Y-140365870D01*
X161894130Y-140306887D01*
X161890768Y-140303179D01*
X161837850Y-140238698D01*
X161834869Y-140234678D01*
X161788526Y-140165321D01*
X161785953Y-140161029D01*
X161746631Y-140087464D01*
X161744491Y-140082938D01*
X161712570Y-140005872D01*
X161710884Y-140001161D01*
X161686669Y-139921338D01*
X161685453Y-139916482D01*
X161669180Y-139834670D01*
X161668446Y-139829720D01*
X161660270Y-139746707D01*
X161660024Y-139741708D01*
X161660024Y-139658292D01*
X161660270Y-139653293D01*
X161668446Y-139570280D01*
X161669180Y-139565330D01*
X161685453Y-139483518D01*
X161686669Y-139478662D01*
X161710884Y-139398839D01*
X161712570Y-139394128D01*
X161744491Y-139317062D01*
X161746631Y-139312536D01*
X161785953Y-139238971D01*
X161788526Y-139234679D01*
X161834869Y-139165322D01*
X161837850Y-139161302D01*
X161890768Y-139096821D01*
X161894130Y-139093113D01*
X161951000Y-139036243D01*
X161951000Y-137668000D01*
X161951246Y-137663000D01*
X161952207Y-137653245D01*
X161954157Y-137643441D01*
X161957002Y-137634062D01*
X161960828Y-137624824D01*
X161965449Y-137616179D01*
X161971005Y-137607865D01*
X161977223Y-137600289D01*
X161984289Y-137593223D01*
X161991865Y-137587005D01*
X162000179Y-137581449D01*
X162008824Y-137576828D01*
X162018062Y-137573002D01*
X162027441Y-137570157D01*
X162037245Y-137568207D01*
X162047000Y-137567246D01*
X162052000Y-137567000D01*
X163068000Y-137567000D01*
X163073000Y-137567246D01*
X163082755Y-137568207D01*
X163092559Y-137570157D01*
X163101938Y-137573002D01*
X163111176Y-137576828D01*
X163119821Y-137581449D01*
X163128135Y-137587005D01*
X163135711Y-137593223D01*
X163142777Y-137600289D01*
X163148995Y-137607865D01*
X163154551Y-137616179D01*
X163159172Y-137624824D01*
X163162998Y-137634062D01*
X163165843Y-137643441D01*
X163167793Y-137653245D01*
X163168754Y-137663000D01*
X163169000Y-137668000D01*
X163169000Y-139036243D01*
X163225870Y-139093113D01*
X163229232Y-139096821D01*
X163282150Y-139161302D01*
X163285131Y-139165322D01*
X163331474Y-139234679D01*
X163334047Y-139238971D01*
X163373369Y-139312536D01*
X163375509Y-139317062D01*
X163407430Y-139394128D01*
X163409116Y-139398839D01*
X163433331Y-139478662D01*
X163434547Y-139483518D01*
X163450820Y-139565330D01*
X163451554Y-139570280D01*
X163459730Y-139653293D01*
X163459976Y-139658292D01*
X163459976Y-139741708D01*
X163459730Y-139746707D01*
G37*
G36*
X165999730Y-139746707D02*
G01*
X165991554Y-139829720D01*
X165990820Y-139834670D01*
X165974547Y-139916482D01*
X165973331Y-139921338D01*
X165949116Y-140001161D01*
X165947430Y-140005872D01*
X165915509Y-140082938D01*
X165913369Y-140087464D01*
X165874047Y-140161029D01*
X165871474Y-140165321D01*
X165825131Y-140234678D01*
X165822150Y-140238698D01*
X165769232Y-140303179D01*
X165765870Y-140306887D01*
X165706887Y-140365870D01*
X165703179Y-140369232D01*
X165638698Y-140422150D01*
X165634678Y-140425131D01*
X165565321Y-140471474D01*
X165561029Y-140474047D01*
X165487464Y-140513369D01*
X165482938Y-140515509D01*
X165405872Y-140547430D01*
X165401161Y-140549116D01*
X165321338Y-140573331D01*
X165316482Y-140574547D01*
X165234670Y-140590820D01*
X165229720Y-140591554D01*
X165146707Y-140599730D01*
X165141708Y-140599976D01*
X165058292Y-140599976D01*
X165053293Y-140599730D01*
X164970280Y-140591554D01*
X164965330Y-140590820D01*
X164883518Y-140574547D01*
X164878662Y-140573331D01*
X164798839Y-140549116D01*
X164794128Y-140547430D01*
X164717062Y-140515509D01*
X164712536Y-140513369D01*
X164638971Y-140474047D01*
X164634679Y-140471474D01*
X164565322Y-140425131D01*
X164561302Y-140422150D01*
X164496821Y-140369232D01*
X164493113Y-140365870D01*
X164434130Y-140306887D01*
X164430768Y-140303179D01*
X164377850Y-140238698D01*
X164374869Y-140234678D01*
X164328526Y-140165321D01*
X164325953Y-140161029D01*
X164286631Y-140087464D01*
X164284491Y-140082938D01*
X164252570Y-140005872D01*
X164250884Y-140001161D01*
X164226669Y-139921338D01*
X164225453Y-139916482D01*
X164209180Y-139834670D01*
X164208446Y-139829720D01*
X164200270Y-139746707D01*
X164200024Y-139741708D01*
X164200024Y-139658292D01*
X164200270Y-139653293D01*
X164208446Y-139570280D01*
X164209180Y-139565330D01*
X164225453Y-139483518D01*
X164226669Y-139478662D01*
X164250884Y-139398839D01*
X164252570Y-139394128D01*
X164284491Y-139317062D01*
X164286631Y-139312536D01*
X164325953Y-139238971D01*
X164328526Y-139234679D01*
X164374869Y-139165322D01*
X164377850Y-139161302D01*
X164430768Y-139096821D01*
X164434130Y-139093113D01*
X164491000Y-139036243D01*
X164491000Y-137668000D01*
X164491246Y-137663000D01*
X164492207Y-137653245D01*
X164494157Y-137643441D01*
X164497002Y-137634062D01*
X164500828Y-137624824D01*
X164505449Y-137616179D01*
X164511005Y-137607865D01*
X164517223Y-137600289D01*
X164524289Y-137593223D01*
X164531865Y-137587005D01*
X164540179Y-137581449D01*
X164548824Y-137576828D01*
X164558062Y-137573002D01*
X164567441Y-137570157D01*
X164577245Y-137568207D01*
X164587000Y-137567246D01*
X164592000Y-137567000D01*
X165608000Y-137567000D01*
X165613000Y-137567246D01*
X165622755Y-137568207D01*
X165632559Y-137570157D01*
X165641938Y-137573002D01*
X165651176Y-137576828D01*
X165659821Y-137581449D01*
X165668135Y-137587005D01*
X165675711Y-137593223D01*
X165682777Y-137600289D01*
X165688995Y-137607865D01*
X165694551Y-137616179D01*
X165699172Y-137624824D01*
X165702998Y-137634062D01*
X165705843Y-137643441D01*
X165707793Y-137653245D01*
X165708754Y-137663000D01*
X165709000Y-137668000D01*
X165709000Y-139036243D01*
X165765870Y-139093113D01*
X165769232Y-139096821D01*
X165822150Y-139161302D01*
X165825131Y-139165322D01*
X165871474Y-139234679D01*
X165874047Y-139238971D01*
X165913369Y-139312536D01*
X165915509Y-139317062D01*
X165947430Y-139394128D01*
X165949116Y-139398839D01*
X165973331Y-139478662D01*
X165974547Y-139483518D01*
X165990820Y-139565330D01*
X165991554Y-139570280D01*
X165999730Y-139653293D01*
X165999976Y-139658292D01*
X165999976Y-139741708D01*
X165999730Y-139746707D01*
G37*
G36*
X168539730Y-139746707D02*
G01*
X168531554Y-139829720D01*
X168530820Y-139834670D01*
X168514547Y-139916482D01*
X168513331Y-139921338D01*
X168489116Y-140001161D01*
X168487430Y-140005872D01*
X168455509Y-140082938D01*
X168453369Y-140087464D01*
X168414047Y-140161029D01*
X168411474Y-140165321D01*
X168365131Y-140234678D01*
X168362150Y-140238698D01*
X168309232Y-140303179D01*
X168305870Y-140306887D01*
X168246887Y-140365870D01*
X168243179Y-140369232D01*
X168178698Y-140422150D01*
X168174678Y-140425131D01*
X168105321Y-140471474D01*
X168101029Y-140474047D01*
X168027464Y-140513369D01*
X168022938Y-140515509D01*
X167945872Y-140547430D01*
X167941161Y-140549116D01*
X167861338Y-140573331D01*
X167856482Y-140574547D01*
X167774670Y-140590820D01*
X167769720Y-140591554D01*
X167686707Y-140599730D01*
X167681708Y-140599976D01*
X167598292Y-140599976D01*
X167593293Y-140599730D01*
X167510280Y-140591554D01*
X167505330Y-140590820D01*
X167423518Y-140574547D01*
X167418662Y-140573331D01*
X167338839Y-140549116D01*
X167334128Y-140547430D01*
X167257062Y-140515509D01*
X167252536Y-140513369D01*
X167178971Y-140474047D01*
X167174679Y-140471474D01*
X167105322Y-140425131D01*
X167101302Y-140422150D01*
X167036821Y-140369232D01*
X167033113Y-140365870D01*
X166974130Y-140306887D01*
X166970768Y-140303179D01*
X166917850Y-140238698D01*
X166914869Y-140234678D01*
X166868526Y-140165321D01*
X166865953Y-140161029D01*
X166826631Y-140087464D01*
X166824491Y-140082938D01*
X166792570Y-140005872D01*
X166790884Y-140001161D01*
X166766669Y-139921338D01*
X166765453Y-139916482D01*
X166749180Y-139834670D01*
X166748446Y-139829720D01*
X166740270Y-139746707D01*
X166740024Y-139741708D01*
X166740024Y-139658292D01*
X166740270Y-139653293D01*
X166748446Y-139570280D01*
X166749180Y-139565330D01*
X166765453Y-139483518D01*
X166766669Y-139478662D01*
X166790884Y-139398839D01*
X166792570Y-139394128D01*
X166824491Y-139317062D01*
X166826631Y-139312536D01*
X166865953Y-139238971D01*
X166868526Y-139234679D01*
X166914869Y-139165322D01*
X166917850Y-139161302D01*
X166970768Y-139096821D01*
X166974130Y-139093113D01*
X167031000Y-139036243D01*
X167031000Y-137668000D01*
X167031246Y-137663000D01*
X167032207Y-137653245D01*
X167034157Y-137643441D01*
X167037002Y-137634062D01*
X167040828Y-137624824D01*
X167045449Y-137616179D01*
X167051005Y-137607865D01*
X167057223Y-137600289D01*
X167064289Y-137593223D01*
X167071865Y-137587005D01*
X167080179Y-137581449D01*
X167088824Y-137576828D01*
X167098062Y-137573002D01*
X167107441Y-137570157D01*
X167117245Y-137568207D01*
X167127000Y-137567246D01*
X167132000Y-137567000D01*
X168148000Y-137567000D01*
X168153000Y-137567246D01*
X168162755Y-137568207D01*
X168172559Y-137570157D01*
X168181938Y-137573002D01*
X168191176Y-137576828D01*
X168199821Y-137581449D01*
X168208135Y-137587005D01*
X168215711Y-137593223D01*
X168222777Y-137600289D01*
X168228995Y-137607865D01*
X168234551Y-137616179D01*
X168239172Y-137624824D01*
X168242998Y-137634062D01*
X168245843Y-137643441D01*
X168247793Y-137653245D01*
X168248754Y-137663000D01*
X168249000Y-137668000D01*
X168249000Y-139036243D01*
X168305870Y-139093113D01*
X168309232Y-139096821D01*
X168362150Y-139161302D01*
X168365131Y-139165322D01*
X168411474Y-139234679D01*
X168414047Y-139238971D01*
X168453369Y-139312536D01*
X168455509Y-139317062D01*
X168487430Y-139394128D01*
X168489116Y-139398839D01*
X168513331Y-139478662D01*
X168514547Y-139483518D01*
X168530820Y-139565330D01*
X168531554Y-139570280D01*
X168539730Y-139653293D01*
X168539976Y-139658292D01*
X168539976Y-139741708D01*
X168539730Y-139746707D01*
G37*
G36*
X171079730Y-139746707D02*
G01*
X171071554Y-139829720D01*
X171070820Y-139834670D01*
X171054547Y-139916482D01*
X171053331Y-139921338D01*
X171029116Y-140001161D01*
X171027430Y-140005872D01*
X170995509Y-140082938D01*
X170993369Y-140087464D01*
X170954047Y-140161029D01*
X170951474Y-140165321D01*
X170905131Y-140234678D01*
X170902150Y-140238698D01*
X170849232Y-140303179D01*
X170845870Y-140306887D01*
X170786887Y-140365870D01*
X170783179Y-140369232D01*
X170718698Y-140422150D01*
X170714678Y-140425131D01*
X170645321Y-140471474D01*
X170641029Y-140474047D01*
X170567464Y-140513369D01*
X170562938Y-140515509D01*
X170485872Y-140547430D01*
X170481161Y-140549116D01*
X170401338Y-140573331D01*
X170396482Y-140574547D01*
X170314670Y-140590820D01*
X170309720Y-140591554D01*
X170226707Y-140599730D01*
X170221708Y-140599976D01*
X170138292Y-140599976D01*
X170133293Y-140599730D01*
X170050280Y-140591554D01*
X170045330Y-140590820D01*
X169963518Y-140574547D01*
X169958662Y-140573331D01*
X169878839Y-140549116D01*
X169874128Y-140547430D01*
X169797062Y-140515509D01*
X169792536Y-140513369D01*
X169718971Y-140474047D01*
X169714679Y-140471474D01*
X169645322Y-140425131D01*
X169641302Y-140422150D01*
X169576821Y-140369232D01*
X169573113Y-140365870D01*
X169514130Y-140306887D01*
X169510768Y-140303179D01*
X169457850Y-140238698D01*
X169454869Y-140234678D01*
X169408526Y-140165321D01*
X169405953Y-140161029D01*
X169366631Y-140087464D01*
X169364491Y-140082938D01*
X169332570Y-140005872D01*
X169330884Y-140001161D01*
X169306669Y-139921338D01*
X169305453Y-139916482D01*
X169289180Y-139834670D01*
X169288446Y-139829720D01*
X169280270Y-139746707D01*
X169280024Y-139741708D01*
X169280024Y-139658292D01*
X169280270Y-139653293D01*
X169288446Y-139570280D01*
X169289180Y-139565330D01*
X169305453Y-139483518D01*
X169306669Y-139478662D01*
X169330884Y-139398839D01*
X169332570Y-139394128D01*
X169364491Y-139317062D01*
X169366631Y-139312536D01*
X169405953Y-139238971D01*
X169408526Y-139234679D01*
X169454869Y-139165322D01*
X169457850Y-139161302D01*
X169510768Y-139096821D01*
X169514130Y-139093113D01*
X169571000Y-139036243D01*
X169571000Y-137668000D01*
X169571246Y-137663000D01*
X169572207Y-137653245D01*
X169574157Y-137643441D01*
X169577002Y-137634062D01*
X169580828Y-137624824D01*
X169585449Y-137616179D01*
X169591005Y-137607865D01*
X169597223Y-137600289D01*
X169604289Y-137593223D01*
X169611865Y-137587005D01*
X169620179Y-137581449D01*
X169628824Y-137576828D01*
X169638062Y-137573002D01*
X169647441Y-137570157D01*
X169657245Y-137568207D01*
X169667000Y-137567246D01*
X169672000Y-137567000D01*
X170688000Y-137567000D01*
X170693000Y-137567246D01*
X170702755Y-137568207D01*
X170712559Y-137570157D01*
X170721938Y-137573002D01*
X170731176Y-137576828D01*
X170739821Y-137581449D01*
X170748135Y-137587005D01*
X170755711Y-137593223D01*
X170762777Y-137600289D01*
X170768995Y-137607865D01*
X170774551Y-137616179D01*
X170779172Y-137624824D01*
X170782998Y-137634062D01*
X170785843Y-137643441D01*
X170787793Y-137653245D01*
X170788754Y-137663000D01*
X170789000Y-137668000D01*
X170789000Y-139036243D01*
X170845870Y-139093113D01*
X170849232Y-139096821D01*
X170902150Y-139161302D01*
X170905131Y-139165322D01*
X170951474Y-139234679D01*
X170954047Y-139238971D01*
X170993369Y-139312536D01*
X170995509Y-139317062D01*
X171027430Y-139394128D01*
X171029116Y-139398839D01*
X171053331Y-139478662D01*
X171054547Y-139483518D01*
X171070820Y-139565330D01*
X171071554Y-139570280D01*
X171079730Y-139653293D01*
X171079976Y-139658292D01*
X171079976Y-139741708D01*
X171079730Y-139746707D01*
G37*
G36*
X173619730Y-139746707D02*
G01*
X173611554Y-139829720D01*
X173610820Y-139834670D01*
X173594547Y-139916482D01*
X173593331Y-139921338D01*
X173569116Y-140001161D01*
X173567430Y-140005872D01*
X173535509Y-140082938D01*
X173533369Y-140087464D01*
X173494047Y-140161029D01*
X173491474Y-140165321D01*
X173445131Y-140234678D01*
X173442150Y-140238698D01*
X173389232Y-140303179D01*
X173385870Y-140306887D01*
X173326887Y-140365870D01*
X173323179Y-140369232D01*
X173258698Y-140422150D01*
X173254678Y-140425131D01*
X173185321Y-140471474D01*
X173181029Y-140474047D01*
X173107464Y-140513369D01*
X173102938Y-140515509D01*
X173025872Y-140547430D01*
X173021161Y-140549116D01*
X172941338Y-140573331D01*
X172936482Y-140574547D01*
X172854670Y-140590820D01*
X172849720Y-140591554D01*
X172766707Y-140599730D01*
X172761708Y-140599976D01*
X172678292Y-140599976D01*
X172673293Y-140599730D01*
X172590280Y-140591554D01*
X172585330Y-140590820D01*
X172503518Y-140574547D01*
X172498662Y-140573331D01*
X172418839Y-140549116D01*
X172414128Y-140547430D01*
X172337062Y-140515509D01*
X172332536Y-140513369D01*
X172258971Y-140474047D01*
X172254679Y-140471474D01*
X172185322Y-140425131D01*
X172181302Y-140422150D01*
X172116821Y-140369232D01*
X172113113Y-140365870D01*
X172054130Y-140306887D01*
X172050768Y-140303179D01*
X171997850Y-140238698D01*
X171994869Y-140234678D01*
X171948526Y-140165321D01*
X171945953Y-140161029D01*
X171906631Y-140087464D01*
X171904491Y-140082938D01*
X171872570Y-140005872D01*
X171870884Y-140001161D01*
X171846669Y-139921338D01*
X171845453Y-139916482D01*
X171829180Y-139834670D01*
X171828446Y-139829720D01*
X171820270Y-139746707D01*
X171820024Y-139741708D01*
X171820024Y-139658292D01*
X171820270Y-139653293D01*
X171828446Y-139570280D01*
X171829180Y-139565330D01*
X171845453Y-139483518D01*
X171846669Y-139478662D01*
X171870884Y-139398839D01*
X171872570Y-139394128D01*
X171904491Y-139317062D01*
X171906631Y-139312536D01*
X171945953Y-139238971D01*
X171948526Y-139234679D01*
X171994869Y-139165322D01*
X171997850Y-139161302D01*
X172050768Y-139096821D01*
X172054130Y-139093113D01*
X172111000Y-139036243D01*
X172111000Y-137668000D01*
X172111246Y-137663000D01*
X172112207Y-137653245D01*
X172114157Y-137643441D01*
X172117002Y-137634062D01*
X172120828Y-137624824D01*
X172125449Y-137616179D01*
X172131005Y-137607865D01*
X172137223Y-137600289D01*
X172144289Y-137593223D01*
X172151865Y-137587005D01*
X172160179Y-137581449D01*
X172168824Y-137576828D01*
X172178062Y-137573002D01*
X172187441Y-137570157D01*
X172197245Y-137568207D01*
X172207000Y-137567246D01*
X172212000Y-137567000D01*
X173228000Y-137567000D01*
X173233000Y-137567246D01*
X173242755Y-137568207D01*
X173252559Y-137570157D01*
X173261938Y-137573002D01*
X173271176Y-137576828D01*
X173279821Y-137581449D01*
X173288135Y-137587005D01*
X173295711Y-137593223D01*
X173302777Y-137600289D01*
X173308995Y-137607865D01*
X173314551Y-137616179D01*
X173319172Y-137624824D01*
X173322998Y-137634062D01*
X173325843Y-137643441D01*
X173327793Y-137653245D01*
X173328754Y-137663000D01*
X173329000Y-137668000D01*
X173329000Y-139036243D01*
X173385870Y-139093113D01*
X173389232Y-139096821D01*
X173442150Y-139161302D01*
X173445131Y-139165322D01*
X173491474Y-139234679D01*
X173494047Y-139238971D01*
X173533369Y-139312536D01*
X173535509Y-139317062D01*
X173567430Y-139394128D01*
X173569116Y-139398839D01*
X173593331Y-139478662D01*
X173594547Y-139483518D01*
X173610820Y-139565330D01*
X173611554Y-139570280D01*
X173619730Y-139653293D01*
X173619976Y-139658292D01*
X173619976Y-139741708D01*
X173619730Y-139746707D01*
G37*
G36*
X176159730Y-139746707D02*
G01*
X176151554Y-139829720D01*
X176150820Y-139834670D01*
X176134547Y-139916482D01*
X176133331Y-139921338D01*
X176109116Y-140001161D01*
X176107430Y-140005872D01*
X176075509Y-140082938D01*
X176073369Y-140087464D01*
X176034047Y-140161029D01*
X176031474Y-140165321D01*
X175985131Y-140234678D01*
X175982150Y-140238698D01*
X175929232Y-140303179D01*
X175925870Y-140306887D01*
X175866887Y-140365870D01*
X175863179Y-140369232D01*
X175798698Y-140422150D01*
X175794678Y-140425131D01*
X175725321Y-140471474D01*
X175721029Y-140474047D01*
X175647464Y-140513369D01*
X175642938Y-140515509D01*
X175565872Y-140547430D01*
X175561161Y-140549116D01*
X175481338Y-140573331D01*
X175476482Y-140574547D01*
X175394670Y-140590820D01*
X175389720Y-140591554D01*
X175306707Y-140599730D01*
X175301708Y-140599976D01*
X175218292Y-140599976D01*
X175213293Y-140599730D01*
X175130280Y-140591554D01*
X175125330Y-140590820D01*
X175043518Y-140574547D01*
X175038662Y-140573331D01*
X174958839Y-140549116D01*
X174954128Y-140547430D01*
X174877062Y-140515509D01*
X174872536Y-140513369D01*
X174798971Y-140474047D01*
X174794679Y-140471474D01*
X174725322Y-140425131D01*
X174721302Y-140422150D01*
X174656821Y-140369232D01*
X174653113Y-140365870D01*
X174594130Y-140306887D01*
X174590768Y-140303179D01*
X174537850Y-140238698D01*
X174534869Y-140234678D01*
X174488526Y-140165321D01*
X174485953Y-140161029D01*
X174446631Y-140087464D01*
X174444491Y-140082938D01*
X174412570Y-140005872D01*
X174410884Y-140001161D01*
X174386669Y-139921338D01*
X174385453Y-139916482D01*
X174369180Y-139834670D01*
X174368446Y-139829720D01*
X174360270Y-139746707D01*
X174360024Y-139741708D01*
X174360024Y-139658292D01*
X174360270Y-139653293D01*
X174368446Y-139570280D01*
X174369180Y-139565330D01*
X174385453Y-139483518D01*
X174386669Y-139478662D01*
X174410884Y-139398839D01*
X174412570Y-139394128D01*
X174444491Y-139317062D01*
X174446631Y-139312536D01*
X174485953Y-139238971D01*
X174488526Y-139234679D01*
X174534869Y-139165322D01*
X174537850Y-139161302D01*
X174590768Y-139096821D01*
X174594130Y-139093113D01*
X174651000Y-139036243D01*
X174651000Y-137668000D01*
X174651246Y-137663000D01*
X174652207Y-137653245D01*
X174654157Y-137643441D01*
X174657002Y-137634062D01*
X174660828Y-137624824D01*
X174665449Y-137616179D01*
X174671005Y-137607865D01*
X174677223Y-137600289D01*
X174684289Y-137593223D01*
X174691865Y-137587005D01*
X174700179Y-137581449D01*
X174708824Y-137576828D01*
X174718062Y-137573002D01*
X174727441Y-137570157D01*
X174737245Y-137568207D01*
X174747000Y-137567246D01*
X174752000Y-137567000D01*
X175768000Y-137567000D01*
X175773000Y-137567246D01*
X175782755Y-137568207D01*
X175792559Y-137570157D01*
X175801938Y-137573002D01*
X175811176Y-137576828D01*
X175819821Y-137581449D01*
X175828135Y-137587005D01*
X175835711Y-137593223D01*
X175842777Y-137600289D01*
X175848995Y-137607865D01*
X175854551Y-137616179D01*
X175859172Y-137624824D01*
X175862998Y-137634062D01*
X175865843Y-137643441D01*
X175867793Y-137653245D01*
X175868754Y-137663000D01*
X175869000Y-137668000D01*
X175869000Y-139036243D01*
X175925870Y-139093113D01*
X175929232Y-139096821D01*
X175982150Y-139161302D01*
X175985131Y-139165322D01*
X176031474Y-139234679D01*
X176034047Y-139238971D01*
X176073369Y-139312536D01*
X176075509Y-139317062D01*
X176107430Y-139394128D01*
X176109116Y-139398839D01*
X176133331Y-139478662D01*
X176134547Y-139483518D01*
X176150820Y-139565330D01*
X176151554Y-139570280D01*
X176159730Y-139653293D01*
X176159976Y-139658292D01*
X176159976Y-139741708D01*
X176159730Y-139746707D01*
G37*
G36*
X178699730Y-139746707D02*
G01*
X178691554Y-139829720D01*
X178690820Y-139834670D01*
X178674547Y-139916482D01*
X178673331Y-139921338D01*
X178649116Y-140001161D01*
X178647430Y-140005872D01*
X178615509Y-140082938D01*
X178613369Y-140087464D01*
X178574047Y-140161029D01*
X178571474Y-140165321D01*
X178525131Y-140234678D01*
X178522150Y-140238698D01*
X178469232Y-140303179D01*
X178465870Y-140306887D01*
X178406887Y-140365870D01*
X178403179Y-140369232D01*
X178338698Y-140422150D01*
X178334678Y-140425131D01*
X178265321Y-140471474D01*
X178261029Y-140474047D01*
X178187464Y-140513369D01*
X178182938Y-140515509D01*
X178105872Y-140547430D01*
X178101161Y-140549116D01*
X178021338Y-140573331D01*
X178016482Y-140574547D01*
X177934670Y-140590820D01*
X177929720Y-140591554D01*
X177846707Y-140599730D01*
X177841708Y-140599976D01*
X177758292Y-140599976D01*
X177753293Y-140599730D01*
X177670280Y-140591554D01*
X177665330Y-140590820D01*
X177583518Y-140574547D01*
X177578662Y-140573331D01*
X177498839Y-140549116D01*
X177494128Y-140547430D01*
X177417062Y-140515509D01*
X177412536Y-140513369D01*
X177338971Y-140474047D01*
X177334679Y-140471474D01*
X177265322Y-140425131D01*
X177261302Y-140422150D01*
X177196821Y-140369232D01*
X177193113Y-140365870D01*
X177134130Y-140306887D01*
X177130768Y-140303179D01*
X177077850Y-140238698D01*
X177074869Y-140234678D01*
X177028526Y-140165321D01*
X177025953Y-140161029D01*
X176986631Y-140087464D01*
X176984491Y-140082938D01*
X176952570Y-140005872D01*
X176950884Y-140001161D01*
X176926669Y-139921338D01*
X176925453Y-139916482D01*
X176909180Y-139834670D01*
X176908446Y-139829720D01*
X176900270Y-139746707D01*
X176900024Y-139741708D01*
X176900024Y-139658292D01*
X176900270Y-139653293D01*
X176908446Y-139570280D01*
X176909180Y-139565330D01*
X176925453Y-139483518D01*
X176926669Y-139478662D01*
X176950884Y-139398839D01*
X176952570Y-139394128D01*
X176984491Y-139317062D01*
X176986631Y-139312536D01*
X177025953Y-139238971D01*
X177028526Y-139234679D01*
X177074869Y-139165322D01*
X177077850Y-139161302D01*
X177130768Y-139096821D01*
X177134130Y-139093113D01*
X177191000Y-139036243D01*
X177191000Y-137668000D01*
X177191246Y-137663000D01*
X177192207Y-137653245D01*
X177194157Y-137643441D01*
X177197002Y-137634062D01*
X177200828Y-137624824D01*
X177205449Y-137616179D01*
X177211005Y-137607865D01*
X177217223Y-137600289D01*
X177224289Y-137593223D01*
X177231865Y-137587005D01*
X177240179Y-137581449D01*
X177248824Y-137576828D01*
X177258062Y-137573002D01*
X177267441Y-137570157D01*
X177277245Y-137568207D01*
X177287000Y-137567246D01*
X177292000Y-137567000D01*
X178308000Y-137567000D01*
X178313000Y-137567246D01*
X178322755Y-137568207D01*
X178332559Y-137570157D01*
X178341938Y-137573002D01*
X178351176Y-137576828D01*
X178359821Y-137581449D01*
X178368135Y-137587005D01*
X178375711Y-137593223D01*
X178382777Y-137600289D01*
X178388995Y-137607865D01*
X178394551Y-137616179D01*
X178399172Y-137624824D01*
X178402998Y-137634062D01*
X178405843Y-137643441D01*
X178407793Y-137653245D01*
X178408754Y-137663000D01*
X178409000Y-137668000D01*
X178409000Y-139036243D01*
X178465870Y-139093113D01*
X178469232Y-139096821D01*
X178522150Y-139161302D01*
X178525131Y-139165322D01*
X178571474Y-139234679D01*
X178574047Y-139238971D01*
X178613369Y-139312536D01*
X178615509Y-139317062D01*
X178647430Y-139394128D01*
X178649116Y-139398839D01*
X178673331Y-139478662D01*
X178674547Y-139483518D01*
X178690820Y-139565330D01*
X178691554Y-139570280D01*
X178699730Y-139653293D01*
X178699976Y-139658292D01*
X178699976Y-139741708D01*
X178699730Y-139746707D01*
G37*
G36*
X181239730Y-139746707D02*
G01*
X181231554Y-139829720D01*
X181230820Y-139834670D01*
X181214547Y-139916482D01*
X181213331Y-139921338D01*
X181189116Y-140001161D01*
X181187430Y-140005872D01*
X181155509Y-140082938D01*
X181153369Y-140087464D01*
X181114047Y-140161029D01*
X181111474Y-140165321D01*
X181065131Y-140234678D01*
X181062150Y-140238698D01*
X181009232Y-140303179D01*
X181005870Y-140306887D01*
X180946887Y-140365870D01*
X180943179Y-140369232D01*
X180878698Y-140422150D01*
X180874678Y-140425131D01*
X180805321Y-140471474D01*
X180801029Y-140474047D01*
X180727464Y-140513369D01*
X180722938Y-140515509D01*
X180645872Y-140547430D01*
X180641161Y-140549116D01*
X180561338Y-140573331D01*
X180556482Y-140574547D01*
X180474670Y-140590820D01*
X180469720Y-140591554D01*
X180386707Y-140599730D01*
X180381708Y-140599976D01*
X180298292Y-140599976D01*
X180293293Y-140599730D01*
X180210280Y-140591554D01*
X180205330Y-140590820D01*
X180123518Y-140574547D01*
X180118662Y-140573331D01*
X180038839Y-140549116D01*
X180034128Y-140547430D01*
X179957062Y-140515509D01*
X179952536Y-140513369D01*
X179878971Y-140474047D01*
X179874679Y-140471474D01*
X179805322Y-140425131D01*
X179801302Y-140422150D01*
X179736821Y-140369232D01*
X179733113Y-140365870D01*
X179674130Y-140306887D01*
X179670768Y-140303179D01*
X179617850Y-140238698D01*
X179614869Y-140234678D01*
X179568526Y-140165321D01*
X179565953Y-140161029D01*
X179526631Y-140087464D01*
X179524491Y-140082938D01*
X179492570Y-140005872D01*
X179490884Y-140001161D01*
X179466669Y-139921338D01*
X179465453Y-139916482D01*
X179449180Y-139834670D01*
X179448446Y-139829720D01*
X179440270Y-139746707D01*
X179440024Y-139741708D01*
X179440024Y-139658292D01*
X179440270Y-139653293D01*
X179448446Y-139570280D01*
X179449180Y-139565330D01*
X179465453Y-139483518D01*
X179466669Y-139478662D01*
X179490884Y-139398839D01*
X179492570Y-139394128D01*
X179524491Y-139317062D01*
X179526631Y-139312536D01*
X179565953Y-139238971D01*
X179568526Y-139234679D01*
X179614869Y-139165322D01*
X179617850Y-139161302D01*
X179670768Y-139096821D01*
X179674130Y-139093113D01*
X179731000Y-139036243D01*
X179731000Y-137668000D01*
X179731246Y-137663000D01*
X179732207Y-137653245D01*
X179734157Y-137643441D01*
X179737002Y-137634062D01*
X179740828Y-137624824D01*
X179745449Y-137616179D01*
X179751005Y-137607865D01*
X179757223Y-137600289D01*
X179764289Y-137593223D01*
X179771865Y-137587005D01*
X179780179Y-137581449D01*
X179788824Y-137576828D01*
X179798062Y-137573002D01*
X179807441Y-137570157D01*
X179817245Y-137568207D01*
X179827000Y-137567246D01*
X179832000Y-137567000D01*
X180848000Y-137567000D01*
X180853000Y-137567246D01*
X180862755Y-137568207D01*
X180872559Y-137570157D01*
X180881938Y-137573002D01*
X180891176Y-137576828D01*
X180899821Y-137581449D01*
X180908135Y-137587005D01*
X180915711Y-137593223D01*
X180922777Y-137600289D01*
X180928995Y-137607865D01*
X180934551Y-137616179D01*
X180939172Y-137624824D01*
X180942998Y-137634062D01*
X180945843Y-137643441D01*
X180947793Y-137653245D01*
X180948754Y-137663000D01*
X180949000Y-137668000D01*
X180949000Y-139036243D01*
X181005870Y-139093113D01*
X181009232Y-139096821D01*
X181062150Y-139161302D01*
X181065131Y-139165322D01*
X181111474Y-139234679D01*
X181114047Y-139238971D01*
X181153369Y-139312536D01*
X181155509Y-139317062D01*
X181187430Y-139394128D01*
X181189116Y-139398839D01*
X181213331Y-139478662D01*
X181214547Y-139483518D01*
X181230820Y-139565330D01*
X181231554Y-139570280D01*
X181239730Y-139653293D01*
X181239976Y-139658292D01*
X181239976Y-139741708D01*
X181239730Y-139746707D01*
G37*
G36*
X183779730Y-139746707D02*
G01*
X183771554Y-139829720D01*
X183770820Y-139834670D01*
X183754547Y-139916482D01*
X183753331Y-139921338D01*
X183729116Y-140001161D01*
X183727430Y-140005872D01*
X183695509Y-140082938D01*
X183693369Y-140087464D01*
X183654047Y-140161029D01*
X183651474Y-140165321D01*
X183605131Y-140234678D01*
X183602150Y-140238698D01*
X183549232Y-140303179D01*
X183545870Y-140306887D01*
X183486887Y-140365870D01*
X183483179Y-140369232D01*
X183418698Y-140422150D01*
X183414678Y-140425131D01*
X183345321Y-140471474D01*
X183341029Y-140474047D01*
X183267464Y-140513369D01*
X183262938Y-140515509D01*
X183185872Y-140547430D01*
X183181161Y-140549116D01*
X183101338Y-140573331D01*
X183096482Y-140574547D01*
X183014670Y-140590820D01*
X183009720Y-140591554D01*
X182926707Y-140599730D01*
X182921708Y-140599976D01*
X182838292Y-140599976D01*
X182833293Y-140599730D01*
X182750280Y-140591554D01*
X182745330Y-140590820D01*
X182663518Y-140574547D01*
X182658662Y-140573331D01*
X182578839Y-140549116D01*
X182574128Y-140547430D01*
X182497062Y-140515509D01*
X182492536Y-140513369D01*
X182418971Y-140474047D01*
X182414679Y-140471474D01*
X182345322Y-140425131D01*
X182341302Y-140422150D01*
X182276821Y-140369232D01*
X182273113Y-140365870D01*
X182214130Y-140306887D01*
X182210768Y-140303179D01*
X182157850Y-140238698D01*
X182154869Y-140234678D01*
X182108526Y-140165321D01*
X182105953Y-140161029D01*
X182066631Y-140087464D01*
X182064491Y-140082938D01*
X182032570Y-140005872D01*
X182030884Y-140001161D01*
X182006669Y-139921338D01*
X182005453Y-139916482D01*
X181989180Y-139834670D01*
X181988446Y-139829720D01*
X181980270Y-139746707D01*
X181980024Y-139741708D01*
X181980024Y-139658292D01*
X181980270Y-139653293D01*
X181988446Y-139570280D01*
X181989180Y-139565330D01*
X182005453Y-139483518D01*
X182006669Y-139478662D01*
X182030884Y-139398839D01*
X182032570Y-139394128D01*
X182064491Y-139317062D01*
X182066631Y-139312536D01*
X182105953Y-139238971D01*
X182108526Y-139234679D01*
X182154869Y-139165322D01*
X182157850Y-139161302D01*
X182210768Y-139096821D01*
X182214130Y-139093113D01*
X182271000Y-139036243D01*
X182271000Y-137668000D01*
X182271246Y-137663000D01*
X182272207Y-137653245D01*
X182274157Y-137643441D01*
X182277002Y-137634062D01*
X182280828Y-137624824D01*
X182285449Y-137616179D01*
X182291005Y-137607865D01*
X182297223Y-137600289D01*
X182304289Y-137593223D01*
X182311865Y-137587005D01*
X182320179Y-137581449D01*
X182328824Y-137576828D01*
X182338062Y-137573002D01*
X182347441Y-137570157D01*
X182357245Y-137568207D01*
X182367000Y-137567246D01*
X182372000Y-137567000D01*
X183388000Y-137567000D01*
X183393000Y-137567246D01*
X183402755Y-137568207D01*
X183412559Y-137570157D01*
X183421938Y-137573002D01*
X183431176Y-137576828D01*
X183439821Y-137581449D01*
X183448135Y-137587005D01*
X183455711Y-137593223D01*
X183462777Y-137600289D01*
X183468995Y-137607865D01*
X183474551Y-137616179D01*
X183479172Y-137624824D01*
X183482998Y-137634062D01*
X183485843Y-137643441D01*
X183487793Y-137653245D01*
X183488754Y-137663000D01*
X183489000Y-137668000D01*
X183489000Y-139036243D01*
X183545870Y-139093113D01*
X183549232Y-139096821D01*
X183602150Y-139161302D01*
X183605131Y-139165322D01*
X183651474Y-139234679D01*
X183654047Y-139238971D01*
X183693369Y-139312536D01*
X183695509Y-139317062D01*
X183727430Y-139394128D01*
X183729116Y-139398839D01*
X183753331Y-139478662D01*
X183754547Y-139483518D01*
X183770820Y-139565330D01*
X183771554Y-139570280D01*
X183779730Y-139653293D01*
X183779976Y-139658292D01*
X183779976Y-139741708D01*
X183779730Y-139746707D01*
G37*
G36*
X186319730Y-139746707D02*
G01*
X186311554Y-139829720D01*
X186310820Y-139834670D01*
X186294547Y-139916482D01*
X186293331Y-139921338D01*
X186269116Y-140001161D01*
X186267430Y-140005872D01*
X186235509Y-140082938D01*
X186233369Y-140087464D01*
X186194047Y-140161029D01*
X186191474Y-140165321D01*
X186145131Y-140234678D01*
X186142150Y-140238698D01*
X186089232Y-140303179D01*
X186085870Y-140306887D01*
X186026887Y-140365870D01*
X186023179Y-140369232D01*
X185958698Y-140422150D01*
X185954678Y-140425131D01*
X185885321Y-140471474D01*
X185881029Y-140474047D01*
X185807464Y-140513369D01*
X185802938Y-140515509D01*
X185725872Y-140547430D01*
X185721161Y-140549116D01*
X185641338Y-140573331D01*
X185636482Y-140574547D01*
X185554670Y-140590820D01*
X185549720Y-140591554D01*
X185466707Y-140599730D01*
X185461708Y-140599976D01*
X185378292Y-140599976D01*
X185373293Y-140599730D01*
X185290280Y-140591554D01*
X185285330Y-140590820D01*
X185203518Y-140574547D01*
X185198662Y-140573331D01*
X185118839Y-140549116D01*
X185114128Y-140547430D01*
X185037062Y-140515509D01*
X185032536Y-140513369D01*
X184958971Y-140474047D01*
X184954679Y-140471474D01*
X184885322Y-140425131D01*
X184881302Y-140422150D01*
X184816821Y-140369232D01*
X184813113Y-140365870D01*
X184754130Y-140306887D01*
X184750768Y-140303179D01*
X184697850Y-140238698D01*
X184694869Y-140234678D01*
X184648526Y-140165321D01*
X184645953Y-140161029D01*
X184606631Y-140087464D01*
X184604491Y-140082938D01*
X184572570Y-140005872D01*
X184570884Y-140001161D01*
X184546669Y-139921338D01*
X184545453Y-139916482D01*
X184529180Y-139834670D01*
X184528446Y-139829720D01*
X184520270Y-139746707D01*
X184520024Y-139741708D01*
X184520024Y-139658292D01*
X184520270Y-139653293D01*
X184528446Y-139570280D01*
X184529180Y-139565330D01*
X184545453Y-139483518D01*
X184546669Y-139478662D01*
X184570884Y-139398839D01*
X184572570Y-139394128D01*
X184604491Y-139317062D01*
X184606631Y-139312536D01*
X184645953Y-139238971D01*
X184648526Y-139234679D01*
X184694869Y-139165322D01*
X184697850Y-139161302D01*
X184750768Y-139096821D01*
X184754130Y-139093113D01*
X184811000Y-139036243D01*
X184811000Y-137668000D01*
X184811246Y-137663000D01*
X184812207Y-137653245D01*
X184814157Y-137643441D01*
X184817002Y-137634062D01*
X184820828Y-137624824D01*
X184825449Y-137616179D01*
X184831005Y-137607865D01*
X184837223Y-137600289D01*
X184844289Y-137593223D01*
X184851865Y-137587005D01*
X184860179Y-137581449D01*
X184868824Y-137576828D01*
X184878062Y-137573002D01*
X184887441Y-137570157D01*
X184897245Y-137568207D01*
X184907000Y-137567246D01*
X184912000Y-137567000D01*
X185928000Y-137567000D01*
X185933000Y-137567246D01*
X185942755Y-137568207D01*
X185952559Y-137570157D01*
X185961938Y-137573002D01*
X185971176Y-137576828D01*
X185979821Y-137581449D01*
X185988135Y-137587005D01*
X185995711Y-137593223D01*
X186002777Y-137600289D01*
X186008995Y-137607865D01*
X186014551Y-137616179D01*
X186019172Y-137624824D01*
X186022998Y-137634062D01*
X186025843Y-137643441D01*
X186027793Y-137653245D01*
X186028754Y-137663000D01*
X186029000Y-137668000D01*
X186029000Y-139036243D01*
X186085870Y-139093113D01*
X186089232Y-139096821D01*
X186142150Y-139161302D01*
X186145131Y-139165322D01*
X186191474Y-139234679D01*
X186194047Y-139238971D01*
X186233369Y-139312536D01*
X186235509Y-139317062D01*
X186267430Y-139394128D01*
X186269116Y-139398839D01*
X186293331Y-139478662D01*
X186294547Y-139483518D01*
X186310820Y-139565330D01*
X186311554Y-139570280D01*
X186319730Y-139653293D01*
X186319976Y-139658292D01*
X186319976Y-139741708D01*
X186319730Y-139746707D01*
G37*
G36*
X188859730Y-139746707D02*
G01*
X188851554Y-139829720D01*
X188850820Y-139834670D01*
X188834547Y-139916482D01*
X188833331Y-139921338D01*
X188809116Y-140001161D01*
X188807430Y-140005872D01*
X188775509Y-140082938D01*
X188773369Y-140087464D01*
X188734047Y-140161029D01*
X188731474Y-140165321D01*
X188685131Y-140234678D01*
X188682150Y-140238698D01*
X188629232Y-140303179D01*
X188625870Y-140306887D01*
X188566887Y-140365870D01*
X188563179Y-140369232D01*
X188498698Y-140422150D01*
X188494678Y-140425131D01*
X188425321Y-140471474D01*
X188421029Y-140474047D01*
X188347464Y-140513369D01*
X188342938Y-140515509D01*
X188265872Y-140547430D01*
X188261161Y-140549116D01*
X188181338Y-140573331D01*
X188176482Y-140574547D01*
X188094670Y-140590820D01*
X188089720Y-140591554D01*
X188006707Y-140599730D01*
X188001708Y-140599976D01*
X187918292Y-140599976D01*
X187913293Y-140599730D01*
X187830280Y-140591554D01*
X187825330Y-140590820D01*
X187743518Y-140574547D01*
X187738662Y-140573331D01*
X187658839Y-140549116D01*
X187654128Y-140547430D01*
X187577062Y-140515509D01*
X187572536Y-140513369D01*
X187498971Y-140474047D01*
X187494679Y-140471474D01*
X187425322Y-140425131D01*
X187421302Y-140422150D01*
X187356821Y-140369232D01*
X187353113Y-140365870D01*
X187294130Y-140306887D01*
X187290768Y-140303179D01*
X187237850Y-140238698D01*
X187234869Y-140234678D01*
X187188526Y-140165321D01*
X187185953Y-140161029D01*
X187146631Y-140087464D01*
X187144491Y-140082938D01*
X187112570Y-140005872D01*
X187110884Y-140001161D01*
X187086669Y-139921338D01*
X187085453Y-139916482D01*
X187069180Y-139834670D01*
X187068446Y-139829720D01*
X187060270Y-139746707D01*
X187060024Y-139741708D01*
X187060024Y-139658292D01*
X187060270Y-139653293D01*
X187068446Y-139570280D01*
X187069180Y-139565330D01*
X187085453Y-139483518D01*
X187086669Y-139478662D01*
X187110884Y-139398839D01*
X187112570Y-139394128D01*
X187144491Y-139317062D01*
X187146631Y-139312536D01*
X187185953Y-139238971D01*
X187188526Y-139234679D01*
X187234869Y-139165322D01*
X187237850Y-139161302D01*
X187290768Y-139096821D01*
X187294130Y-139093113D01*
X187351000Y-139036243D01*
X187351000Y-137668000D01*
X187351246Y-137663000D01*
X187352207Y-137653245D01*
X187354157Y-137643441D01*
X187357002Y-137634062D01*
X187360828Y-137624824D01*
X187365449Y-137616179D01*
X187371005Y-137607865D01*
X187377223Y-137600289D01*
X187384289Y-137593223D01*
X187391865Y-137587005D01*
X187400179Y-137581449D01*
X187408824Y-137576828D01*
X187418062Y-137573002D01*
X187427441Y-137570157D01*
X187437245Y-137568207D01*
X187447000Y-137567246D01*
X187452000Y-137567000D01*
X188468000Y-137567000D01*
X188473000Y-137567246D01*
X188482755Y-137568207D01*
X188492559Y-137570157D01*
X188501938Y-137573002D01*
X188511176Y-137576828D01*
X188519821Y-137581449D01*
X188528135Y-137587005D01*
X188535711Y-137593223D01*
X188542777Y-137600289D01*
X188548995Y-137607865D01*
X188554551Y-137616179D01*
X188559172Y-137624824D01*
X188562998Y-137634062D01*
X188565843Y-137643441D01*
X188567793Y-137653245D01*
X188568754Y-137663000D01*
X188569000Y-137668000D01*
X188569000Y-139036243D01*
X188625870Y-139093113D01*
X188629232Y-139096821D01*
X188682150Y-139161302D01*
X188685131Y-139165322D01*
X188731474Y-139234679D01*
X188734047Y-139238971D01*
X188773369Y-139312536D01*
X188775509Y-139317062D01*
X188807430Y-139394128D01*
X188809116Y-139398839D01*
X188833331Y-139478662D01*
X188834547Y-139483518D01*
X188850820Y-139565330D01*
X188851554Y-139570280D01*
X188859730Y-139653293D01*
X188859976Y-139658292D01*
X188859976Y-139741708D01*
X188859730Y-139746707D01*
G37*
G36*
X191399730Y-139746707D02*
G01*
X191391554Y-139829720D01*
X191390820Y-139834670D01*
X191374547Y-139916482D01*
X191373331Y-139921338D01*
X191349116Y-140001161D01*
X191347430Y-140005872D01*
X191315509Y-140082938D01*
X191313369Y-140087464D01*
X191274047Y-140161029D01*
X191271474Y-140165321D01*
X191225131Y-140234678D01*
X191222150Y-140238698D01*
X191169232Y-140303179D01*
X191165870Y-140306887D01*
X191106887Y-140365870D01*
X191103179Y-140369232D01*
X191038698Y-140422150D01*
X191034678Y-140425131D01*
X190965321Y-140471474D01*
X190961029Y-140474047D01*
X190887464Y-140513369D01*
X190882938Y-140515509D01*
X190805872Y-140547430D01*
X190801161Y-140549116D01*
X190721338Y-140573331D01*
X190716482Y-140574547D01*
X190634670Y-140590820D01*
X190629720Y-140591554D01*
X190546707Y-140599730D01*
X190541708Y-140599976D01*
X190458292Y-140599976D01*
X190453293Y-140599730D01*
X190370280Y-140591554D01*
X190365330Y-140590820D01*
X190283518Y-140574547D01*
X190278662Y-140573331D01*
X190198839Y-140549116D01*
X190194128Y-140547430D01*
X190117062Y-140515509D01*
X190112536Y-140513369D01*
X190038971Y-140474047D01*
X190034679Y-140471474D01*
X189965322Y-140425131D01*
X189961302Y-140422150D01*
X189896821Y-140369232D01*
X189893113Y-140365870D01*
X189834130Y-140306887D01*
X189830768Y-140303179D01*
X189777850Y-140238698D01*
X189774869Y-140234678D01*
X189728526Y-140165321D01*
X189725953Y-140161029D01*
X189686631Y-140087464D01*
X189684491Y-140082938D01*
X189652570Y-140005872D01*
X189650884Y-140001161D01*
X189626669Y-139921338D01*
X189625453Y-139916482D01*
X189609180Y-139834670D01*
X189608446Y-139829720D01*
X189600270Y-139746707D01*
X189600024Y-139741708D01*
X189600024Y-139658292D01*
X189600270Y-139653293D01*
X189608446Y-139570280D01*
X189609180Y-139565330D01*
X189625453Y-139483518D01*
X189626669Y-139478662D01*
X189650884Y-139398839D01*
X189652570Y-139394128D01*
X189684491Y-139317062D01*
X189686631Y-139312536D01*
X189725953Y-139238971D01*
X189728526Y-139234679D01*
X189774869Y-139165322D01*
X189777850Y-139161302D01*
X189830768Y-139096821D01*
X189834130Y-139093113D01*
X189891000Y-139036243D01*
X189891000Y-137668000D01*
X189891246Y-137663000D01*
X189892207Y-137653245D01*
X189894157Y-137643441D01*
X189897002Y-137634062D01*
X189900828Y-137624824D01*
X189905449Y-137616179D01*
X189911005Y-137607865D01*
X189917223Y-137600289D01*
X189924289Y-137593223D01*
X189931865Y-137587005D01*
X189940179Y-137581449D01*
X189948824Y-137576828D01*
X189958062Y-137573002D01*
X189967441Y-137570157D01*
X189977245Y-137568207D01*
X189987000Y-137567246D01*
X189992000Y-137567000D01*
X191008000Y-137567000D01*
X191013000Y-137567246D01*
X191022755Y-137568207D01*
X191032559Y-137570157D01*
X191041938Y-137573002D01*
X191051176Y-137576828D01*
X191059821Y-137581449D01*
X191068135Y-137587005D01*
X191075711Y-137593223D01*
X191082777Y-137600289D01*
X191088995Y-137607865D01*
X191094551Y-137616179D01*
X191099172Y-137624824D01*
X191102998Y-137634062D01*
X191105843Y-137643441D01*
X191107793Y-137653245D01*
X191108754Y-137663000D01*
X191109000Y-137668000D01*
X191109000Y-139036243D01*
X191165870Y-139093113D01*
X191169232Y-139096821D01*
X191222150Y-139161302D01*
X191225131Y-139165322D01*
X191271474Y-139234679D01*
X191274047Y-139238971D01*
X191313369Y-139312536D01*
X191315509Y-139317062D01*
X191347430Y-139394128D01*
X191349116Y-139398839D01*
X191373331Y-139478662D01*
X191374547Y-139483518D01*
X191390820Y-139565330D01*
X191391554Y-139570280D01*
X191399730Y-139653293D01*
X191399976Y-139658292D01*
X191399976Y-139741708D01*
X191399730Y-139746707D01*
G37*
G36*
X193939730Y-139746707D02*
G01*
X193931554Y-139829720D01*
X193930820Y-139834670D01*
X193914547Y-139916482D01*
X193913331Y-139921338D01*
X193889116Y-140001161D01*
X193887430Y-140005872D01*
X193855509Y-140082938D01*
X193853369Y-140087464D01*
X193814047Y-140161029D01*
X193811474Y-140165321D01*
X193765131Y-140234678D01*
X193762150Y-140238698D01*
X193709232Y-140303179D01*
X193705870Y-140306887D01*
X193646887Y-140365870D01*
X193643179Y-140369232D01*
X193578698Y-140422150D01*
X193574678Y-140425131D01*
X193505321Y-140471474D01*
X193501029Y-140474047D01*
X193427464Y-140513369D01*
X193422938Y-140515509D01*
X193345872Y-140547430D01*
X193341161Y-140549116D01*
X193261338Y-140573331D01*
X193256482Y-140574547D01*
X193174670Y-140590820D01*
X193169720Y-140591554D01*
X193086707Y-140599730D01*
X193081708Y-140599976D01*
X192998292Y-140599976D01*
X192993293Y-140599730D01*
X192910280Y-140591554D01*
X192905330Y-140590820D01*
X192823518Y-140574547D01*
X192818662Y-140573331D01*
X192738839Y-140549116D01*
X192734128Y-140547430D01*
X192657062Y-140515509D01*
X192652536Y-140513369D01*
X192578971Y-140474047D01*
X192574679Y-140471474D01*
X192505322Y-140425131D01*
X192501302Y-140422150D01*
X192436821Y-140369232D01*
X192433113Y-140365870D01*
X192374130Y-140306887D01*
X192370768Y-140303179D01*
X192317850Y-140238698D01*
X192314869Y-140234678D01*
X192268526Y-140165321D01*
X192265953Y-140161029D01*
X192226631Y-140087464D01*
X192224491Y-140082938D01*
X192192570Y-140005872D01*
X192190884Y-140001161D01*
X192166669Y-139921338D01*
X192165453Y-139916482D01*
X192149180Y-139834670D01*
X192148446Y-139829720D01*
X192140270Y-139746707D01*
X192140024Y-139741708D01*
X192140024Y-139658292D01*
X192140270Y-139653293D01*
X192148446Y-139570280D01*
X192149180Y-139565330D01*
X192165453Y-139483518D01*
X192166669Y-139478662D01*
X192190884Y-139398839D01*
X192192570Y-139394128D01*
X192224491Y-139317062D01*
X192226631Y-139312536D01*
X192265953Y-139238971D01*
X192268526Y-139234679D01*
X192314869Y-139165322D01*
X192317850Y-139161302D01*
X192370768Y-139096821D01*
X192374130Y-139093113D01*
X192431000Y-139036243D01*
X192431000Y-137668000D01*
X192431246Y-137663000D01*
X192432207Y-137653245D01*
X192434157Y-137643441D01*
X192437002Y-137634062D01*
X192440828Y-137624824D01*
X192445449Y-137616179D01*
X192451005Y-137607865D01*
X192457223Y-137600289D01*
X192464289Y-137593223D01*
X192471865Y-137587005D01*
X192480179Y-137581449D01*
X192488824Y-137576828D01*
X192498062Y-137573002D01*
X192507441Y-137570157D01*
X192517245Y-137568207D01*
X192527000Y-137567246D01*
X192532000Y-137567000D01*
X193548000Y-137567000D01*
X193553000Y-137567246D01*
X193562755Y-137568207D01*
X193572559Y-137570157D01*
X193581938Y-137573002D01*
X193591176Y-137576828D01*
X193599821Y-137581449D01*
X193608135Y-137587005D01*
X193615711Y-137593223D01*
X193622777Y-137600289D01*
X193628995Y-137607865D01*
X193634551Y-137616179D01*
X193639172Y-137624824D01*
X193642998Y-137634062D01*
X193645843Y-137643441D01*
X193647793Y-137653245D01*
X193648754Y-137663000D01*
X193649000Y-137668000D01*
X193649000Y-139036243D01*
X193705870Y-139093113D01*
X193709232Y-139096821D01*
X193762150Y-139161302D01*
X193765131Y-139165322D01*
X193811474Y-139234679D01*
X193814047Y-139238971D01*
X193853369Y-139312536D01*
X193855509Y-139317062D01*
X193887430Y-139394128D01*
X193889116Y-139398839D01*
X193913331Y-139478662D01*
X193914547Y-139483518D01*
X193930820Y-139565330D01*
X193931554Y-139570280D01*
X193939730Y-139653293D01*
X193939976Y-139658292D01*
X193939976Y-139741708D01*
X193939730Y-139746707D01*
G37*
G36*
X196479730Y-139746707D02*
G01*
X196471554Y-139829720D01*
X196470820Y-139834670D01*
X196454547Y-139916482D01*
X196453331Y-139921338D01*
X196429116Y-140001161D01*
X196427430Y-140005872D01*
X196395509Y-140082938D01*
X196393369Y-140087464D01*
X196354047Y-140161029D01*
X196351474Y-140165321D01*
X196305131Y-140234678D01*
X196302150Y-140238698D01*
X196249232Y-140303179D01*
X196245870Y-140306887D01*
X196186887Y-140365870D01*
X196183179Y-140369232D01*
X196118698Y-140422150D01*
X196114678Y-140425131D01*
X196045321Y-140471474D01*
X196041029Y-140474047D01*
X195967464Y-140513369D01*
X195962938Y-140515509D01*
X195885872Y-140547430D01*
X195881161Y-140549116D01*
X195801338Y-140573331D01*
X195796482Y-140574547D01*
X195714670Y-140590820D01*
X195709720Y-140591554D01*
X195626707Y-140599730D01*
X195621708Y-140599976D01*
X195538292Y-140599976D01*
X195533293Y-140599730D01*
X195450280Y-140591554D01*
X195445330Y-140590820D01*
X195363518Y-140574547D01*
X195358662Y-140573331D01*
X195278839Y-140549116D01*
X195274128Y-140547430D01*
X195197062Y-140515509D01*
X195192536Y-140513369D01*
X195118971Y-140474047D01*
X195114679Y-140471474D01*
X195045322Y-140425131D01*
X195041302Y-140422150D01*
X194976821Y-140369232D01*
X194973113Y-140365870D01*
X194914130Y-140306887D01*
X194910768Y-140303179D01*
X194857850Y-140238698D01*
X194854869Y-140234678D01*
X194808526Y-140165321D01*
X194805953Y-140161029D01*
X194766631Y-140087464D01*
X194764491Y-140082938D01*
X194732570Y-140005872D01*
X194730884Y-140001161D01*
X194706669Y-139921338D01*
X194705453Y-139916482D01*
X194689180Y-139834670D01*
X194688446Y-139829720D01*
X194680270Y-139746707D01*
X194680024Y-139741708D01*
X194680024Y-139658292D01*
X194680270Y-139653293D01*
X194688446Y-139570280D01*
X194689180Y-139565330D01*
X194705453Y-139483518D01*
X194706669Y-139478662D01*
X194730884Y-139398839D01*
X194732570Y-139394128D01*
X194764491Y-139317062D01*
X194766631Y-139312536D01*
X194805953Y-139238971D01*
X194808526Y-139234679D01*
X194854869Y-139165322D01*
X194857850Y-139161302D01*
X194910768Y-139096821D01*
X194914130Y-139093113D01*
X194971000Y-139036243D01*
X194971000Y-137668000D01*
X194971246Y-137663000D01*
X194972207Y-137653245D01*
X194974157Y-137643441D01*
X194977002Y-137634062D01*
X194980828Y-137624824D01*
X194985449Y-137616179D01*
X194991005Y-137607865D01*
X194997223Y-137600289D01*
X195004289Y-137593223D01*
X195011865Y-137587005D01*
X195020179Y-137581449D01*
X195028824Y-137576828D01*
X195038062Y-137573002D01*
X195047441Y-137570157D01*
X195057245Y-137568207D01*
X195067000Y-137567246D01*
X195072000Y-137567000D01*
X196088000Y-137567000D01*
X196093000Y-137567246D01*
X196102755Y-137568207D01*
X196112559Y-137570157D01*
X196121938Y-137573002D01*
X196131176Y-137576828D01*
X196139821Y-137581449D01*
X196148135Y-137587005D01*
X196155711Y-137593223D01*
X196162777Y-137600289D01*
X196168995Y-137607865D01*
X196174551Y-137616179D01*
X196179172Y-137624824D01*
X196182998Y-137634062D01*
X196185843Y-137643441D01*
X196187793Y-137653245D01*
X196188754Y-137663000D01*
X196189000Y-137668000D01*
X196189000Y-139036243D01*
X196245870Y-139093113D01*
X196249232Y-139096821D01*
X196302150Y-139161302D01*
X196305131Y-139165322D01*
X196351474Y-139234679D01*
X196354047Y-139238971D01*
X196393369Y-139312536D01*
X196395509Y-139317062D01*
X196427430Y-139394128D01*
X196429116Y-139398839D01*
X196453331Y-139478662D01*
X196454547Y-139483518D01*
X196470820Y-139565330D01*
X196471554Y-139570280D01*
X196479730Y-139653293D01*
X196479976Y-139658292D01*
X196479976Y-139741708D01*
X196479730Y-139746707D01*
G37*
G36*
X226959730Y-139746707D02*
G01*
X226951554Y-139829720D01*
X226950820Y-139834670D01*
X226934547Y-139916482D01*
X226933331Y-139921338D01*
X226909116Y-140001161D01*
X226907430Y-140005872D01*
X226875509Y-140082938D01*
X226873369Y-140087464D01*
X226834047Y-140161029D01*
X226831474Y-140165321D01*
X226785131Y-140234678D01*
X226782150Y-140238698D01*
X226729232Y-140303179D01*
X226725870Y-140306887D01*
X226666887Y-140365870D01*
X226663179Y-140369232D01*
X226598698Y-140422150D01*
X226594678Y-140425131D01*
X226525321Y-140471474D01*
X226521029Y-140474047D01*
X226447464Y-140513369D01*
X226442938Y-140515509D01*
X226365872Y-140547430D01*
X226361161Y-140549116D01*
X226281338Y-140573331D01*
X226276482Y-140574547D01*
X226194670Y-140590820D01*
X226189720Y-140591554D01*
X226106707Y-140599730D01*
X226101708Y-140599976D01*
X226018292Y-140599976D01*
X226013293Y-140599730D01*
X225930280Y-140591554D01*
X225925330Y-140590820D01*
X225843518Y-140574547D01*
X225838662Y-140573331D01*
X225758839Y-140549116D01*
X225754128Y-140547430D01*
X225677062Y-140515509D01*
X225672536Y-140513369D01*
X225598971Y-140474047D01*
X225594679Y-140471474D01*
X225525322Y-140425131D01*
X225521302Y-140422150D01*
X225456821Y-140369232D01*
X225453113Y-140365870D01*
X225394130Y-140306887D01*
X225390768Y-140303179D01*
X225337850Y-140238698D01*
X225334869Y-140234678D01*
X225288526Y-140165321D01*
X225285953Y-140161029D01*
X225246631Y-140087464D01*
X225244491Y-140082938D01*
X225212570Y-140005872D01*
X225210884Y-140001161D01*
X225186669Y-139921338D01*
X225185453Y-139916482D01*
X225169180Y-139834670D01*
X225168446Y-139829720D01*
X225160270Y-139746707D01*
X225160024Y-139741708D01*
X225160024Y-139658292D01*
X225160270Y-139653293D01*
X225168446Y-139570280D01*
X225169180Y-139565330D01*
X225185453Y-139483518D01*
X225186669Y-139478662D01*
X225210884Y-139398839D01*
X225212570Y-139394128D01*
X225244491Y-139317062D01*
X225246631Y-139312536D01*
X225285953Y-139238971D01*
X225288526Y-139234679D01*
X225334869Y-139165322D01*
X225337850Y-139161302D01*
X225390768Y-139096821D01*
X225394130Y-139093113D01*
X225451000Y-139036243D01*
X225451000Y-137668000D01*
X225451246Y-137663000D01*
X225452207Y-137653245D01*
X225454157Y-137643441D01*
X225457002Y-137634062D01*
X225460828Y-137624824D01*
X225465449Y-137616179D01*
X225471005Y-137607865D01*
X225477223Y-137600289D01*
X225484289Y-137593223D01*
X225491865Y-137587005D01*
X225500179Y-137581449D01*
X225508824Y-137576828D01*
X225518062Y-137573002D01*
X225527441Y-137570157D01*
X225537245Y-137568207D01*
X225547000Y-137567246D01*
X225552000Y-137567000D01*
X226568000Y-137567000D01*
X226573000Y-137567246D01*
X226582755Y-137568207D01*
X226592559Y-137570157D01*
X226601938Y-137573002D01*
X226611176Y-137576828D01*
X226619821Y-137581449D01*
X226628135Y-137587005D01*
X226635711Y-137593223D01*
X226642777Y-137600289D01*
X226648995Y-137607865D01*
X226654551Y-137616179D01*
X226659172Y-137624824D01*
X226662998Y-137634062D01*
X226665843Y-137643441D01*
X226667793Y-137653245D01*
X226668754Y-137663000D01*
X226669000Y-137668000D01*
X226669000Y-139036243D01*
X226725870Y-139093113D01*
X226729232Y-139096821D01*
X226782150Y-139161302D01*
X226785131Y-139165322D01*
X226831474Y-139234679D01*
X226834047Y-139238971D01*
X226873369Y-139312536D01*
X226875509Y-139317062D01*
X226907430Y-139394128D01*
X226909116Y-139398839D01*
X226933331Y-139478662D01*
X226934547Y-139483518D01*
X226950820Y-139565330D01*
X226951554Y-139570280D01*
X226959730Y-139653293D01*
X226959976Y-139658292D01*
X226959976Y-139741708D01*
X226959730Y-139746707D01*
G37*
G36*
X224419730Y-139746707D02*
G01*
X224411554Y-139829720D01*
X224410820Y-139834670D01*
X224394547Y-139916482D01*
X224393331Y-139921338D01*
X224369116Y-140001161D01*
X224367430Y-140005872D01*
X224335509Y-140082938D01*
X224333369Y-140087464D01*
X224294047Y-140161029D01*
X224291474Y-140165321D01*
X224245131Y-140234678D01*
X224242150Y-140238698D01*
X224189232Y-140303179D01*
X224185870Y-140306887D01*
X224126887Y-140365870D01*
X224123179Y-140369232D01*
X224058698Y-140422150D01*
X224054678Y-140425131D01*
X223985321Y-140471474D01*
X223981029Y-140474047D01*
X223907464Y-140513369D01*
X223902938Y-140515509D01*
X223825872Y-140547430D01*
X223821161Y-140549116D01*
X223741338Y-140573331D01*
X223736482Y-140574547D01*
X223654670Y-140590820D01*
X223649720Y-140591554D01*
X223566707Y-140599730D01*
X223561708Y-140599976D01*
X223478292Y-140599976D01*
X223473293Y-140599730D01*
X223390280Y-140591554D01*
X223385330Y-140590820D01*
X223303518Y-140574547D01*
X223298662Y-140573331D01*
X223218839Y-140549116D01*
X223214128Y-140547430D01*
X223137062Y-140515509D01*
X223132536Y-140513369D01*
X223058971Y-140474047D01*
X223054679Y-140471474D01*
X222985322Y-140425131D01*
X222981302Y-140422150D01*
X222916821Y-140369232D01*
X222913113Y-140365870D01*
X222854130Y-140306887D01*
X222850768Y-140303179D01*
X222797850Y-140238698D01*
X222794869Y-140234678D01*
X222748526Y-140165321D01*
X222745953Y-140161029D01*
X222706631Y-140087464D01*
X222704491Y-140082938D01*
X222672570Y-140005872D01*
X222670884Y-140001161D01*
X222646669Y-139921338D01*
X222645453Y-139916482D01*
X222629180Y-139834670D01*
X222628446Y-139829720D01*
X222620270Y-139746707D01*
X222620024Y-139741708D01*
X222620024Y-139658292D01*
X222620270Y-139653293D01*
X222628446Y-139570280D01*
X222629180Y-139565330D01*
X222645453Y-139483518D01*
X222646669Y-139478662D01*
X222670884Y-139398839D01*
X222672570Y-139394128D01*
X222704491Y-139317062D01*
X222706631Y-139312536D01*
X222745953Y-139238971D01*
X222748526Y-139234679D01*
X222794869Y-139165322D01*
X222797850Y-139161302D01*
X222850768Y-139096821D01*
X222854130Y-139093113D01*
X222911000Y-139036243D01*
X222911000Y-137668000D01*
X222911246Y-137663000D01*
X222912207Y-137653245D01*
X222914157Y-137643441D01*
X222917002Y-137634062D01*
X222920828Y-137624824D01*
X222925449Y-137616179D01*
X222931005Y-137607865D01*
X222937223Y-137600289D01*
X222944289Y-137593223D01*
X222951865Y-137587005D01*
X222960179Y-137581449D01*
X222968824Y-137576828D01*
X222978062Y-137573002D01*
X222987441Y-137570157D01*
X222997245Y-137568207D01*
X223007000Y-137567246D01*
X223012000Y-137567000D01*
X224028000Y-137567000D01*
X224033000Y-137567246D01*
X224042755Y-137568207D01*
X224052559Y-137570157D01*
X224061938Y-137573002D01*
X224071176Y-137576828D01*
X224079821Y-137581449D01*
X224088135Y-137587005D01*
X224095711Y-137593223D01*
X224102777Y-137600289D01*
X224108995Y-137607865D01*
X224114551Y-137616179D01*
X224119172Y-137624824D01*
X224122998Y-137634062D01*
X224125843Y-137643441D01*
X224127793Y-137653245D01*
X224128754Y-137663000D01*
X224129000Y-137668000D01*
X224129000Y-139036243D01*
X224185870Y-139093113D01*
X224189232Y-139096821D01*
X224242150Y-139161302D01*
X224245131Y-139165322D01*
X224291474Y-139234679D01*
X224294047Y-139238971D01*
X224333369Y-139312536D01*
X224335509Y-139317062D01*
X224367430Y-139394128D01*
X224369116Y-139398839D01*
X224393331Y-139478662D01*
X224394547Y-139483518D01*
X224410820Y-139565330D01*
X224411554Y-139570280D01*
X224419730Y-139653293D01*
X224419976Y-139658292D01*
X224419976Y-139741708D01*
X224419730Y-139746707D01*
G37*
G36*
X221879730Y-139746707D02*
G01*
X221871554Y-139829720D01*
X221870820Y-139834670D01*
X221854547Y-139916482D01*
X221853331Y-139921338D01*
X221829116Y-140001161D01*
X221827430Y-140005872D01*
X221795509Y-140082938D01*
X221793369Y-140087464D01*
X221754047Y-140161029D01*
X221751474Y-140165321D01*
X221705131Y-140234678D01*
X221702150Y-140238698D01*
X221649232Y-140303179D01*
X221645870Y-140306887D01*
X221586887Y-140365870D01*
X221583179Y-140369232D01*
X221518698Y-140422150D01*
X221514678Y-140425131D01*
X221445321Y-140471474D01*
X221441029Y-140474047D01*
X221367464Y-140513369D01*
X221362938Y-140515509D01*
X221285872Y-140547430D01*
X221281161Y-140549116D01*
X221201338Y-140573331D01*
X221196482Y-140574547D01*
X221114670Y-140590820D01*
X221109720Y-140591554D01*
X221026707Y-140599730D01*
X221021708Y-140599976D01*
X220938292Y-140599976D01*
X220933293Y-140599730D01*
X220850280Y-140591554D01*
X220845330Y-140590820D01*
X220763518Y-140574547D01*
X220758662Y-140573331D01*
X220678839Y-140549116D01*
X220674128Y-140547430D01*
X220597062Y-140515509D01*
X220592536Y-140513369D01*
X220518971Y-140474047D01*
X220514679Y-140471474D01*
X220445322Y-140425131D01*
X220441302Y-140422150D01*
X220376821Y-140369232D01*
X220373113Y-140365870D01*
X220314130Y-140306887D01*
X220310768Y-140303179D01*
X220257850Y-140238698D01*
X220254869Y-140234678D01*
X220208526Y-140165321D01*
X220205953Y-140161029D01*
X220166631Y-140087464D01*
X220164491Y-140082938D01*
X220132570Y-140005872D01*
X220130884Y-140001161D01*
X220106669Y-139921338D01*
X220105453Y-139916482D01*
X220089180Y-139834670D01*
X220088446Y-139829720D01*
X220080270Y-139746707D01*
X220080024Y-139741708D01*
X220080024Y-139658292D01*
X220080270Y-139653293D01*
X220088446Y-139570280D01*
X220089180Y-139565330D01*
X220105453Y-139483518D01*
X220106669Y-139478662D01*
X220130884Y-139398839D01*
X220132570Y-139394128D01*
X220164491Y-139317062D01*
X220166631Y-139312536D01*
X220205953Y-139238971D01*
X220208526Y-139234679D01*
X220254869Y-139165322D01*
X220257850Y-139161302D01*
X220310768Y-139096821D01*
X220314130Y-139093113D01*
X220371000Y-139036243D01*
X220371000Y-137668000D01*
X220371246Y-137663000D01*
X220372207Y-137653245D01*
X220374157Y-137643441D01*
X220377002Y-137634062D01*
X220380828Y-137624824D01*
X220385449Y-137616179D01*
X220391005Y-137607865D01*
X220397223Y-137600289D01*
X220404289Y-137593223D01*
X220411865Y-137587005D01*
X220420179Y-137581449D01*
X220428824Y-137576828D01*
X220438062Y-137573002D01*
X220447441Y-137570157D01*
X220457245Y-137568207D01*
X220467000Y-137567246D01*
X220472000Y-137567000D01*
X221488000Y-137567000D01*
X221493000Y-137567246D01*
X221502755Y-137568207D01*
X221512559Y-137570157D01*
X221521938Y-137573002D01*
X221531176Y-137576828D01*
X221539821Y-137581449D01*
X221548135Y-137587005D01*
X221555711Y-137593223D01*
X221562777Y-137600289D01*
X221568995Y-137607865D01*
X221574551Y-137616179D01*
X221579172Y-137624824D01*
X221582998Y-137634062D01*
X221585843Y-137643441D01*
X221587793Y-137653245D01*
X221588754Y-137663000D01*
X221589000Y-137668000D01*
X221589000Y-139036243D01*
X221645870Y-139093113D01*
X221649232Y-139096821D01*
X221702150Y-139161302D01*
X221705131Y-139165322D01*
X221751474Y-139234679D01*
X221754047Y-139238971D01*
X221793369Y-139312536D01*
X221795509Y-139317062D01*
X221827430Y-139394128D01*
X221829116Y-139398839D01*
X221853331Y-139478662D01*
X221854547Y-139483518D01*
X221870820Y-139565330D01*
X221871554Y-139570280D01*
X221879730Y-139653293D01*
X221879976Y-139658292D01*
X221879976Y-139741708D01*
X221879730Y-139746707D01*
G37*
G36*
X219339730Y-139746707D02*
G01*
X219331554Y-139829720D01*
X219330820Y-139834670D01*
X219314547Y-139916482D01*
X219313331Y-139921338D01*
X219289116Y-140001161D01*
X219287430Y-140005872D01*
X219255509Y-140082938D01*
X219253369Y-140087464D01*
X219214047Y-140161029D01*
X219211474Y-140165321D01*
X219165131Y-140234678D01*
X219162150Y-140238698D01*
X219109232Y-140303179D01*
X219105870Y-140306887D01*
X219046887Y-140365870D01*
X219043179Y-140369232D01*
X218978698Y-140422150D01*
X218974678Y-140425131D01*
X218905321Y-140471474D01*
X218901029Y-140474047D01*
X218827464Y-140513369D01*
X218822938Y-140515509D01*
X218745872Y-140547430D01*
X218741161Y-140549116D01*
X218661338Y-140573331D01*
X218656482Y-140574547D01*
X218574670Y-140590820D01*
X218569720Y-140591554D01*
X218486707Y-140599730D01*
X218481708Y-140599976D01*
X218398292Y-140599976D01*
X218393293Y-140599730D01*
X218310280Y-140591554D01*
X218305330Y-140590820D01*
X218223518Y-140574547D01*
X218218662Y-140573331D01*
X218138839Y-140549116D01*
X218134128Y-140547430D01*
X218057062Y-140515509D01*
X218052536Y-140513369D01*
X217978971Y-140474047D01*
X217974679Y-140471474D01*
X217905322Y-140425131D01*
X217901302Y-140422150D01*
X217836821Y-140369232D01*
X217833113Y-140365870D01*
X217774130Y-140306887D01*
X217770768Y-140303179D01*
X217717850Y-140238698D01*
X217714869Y-140234678D01*
X217668526Y-140165321D01*
X217665953Y-140161029D01*
X217626631Y-140087464D01*
X217624491Y-140082938D01*
X217592570Y-140005872D01*
X217590884Y-140001161D01*
X217566669Y-139921338D01*
X217565453Y-139916482D01*
X217549180Y-139834670D01*
X217548446Y-139829720D01*
X217540270Y-139746707D01*
X217540024Y-139741708D01*
X217540024Y-139658292D01*
X217540270Y-139653293D01*
X217548446Y-139570280D01*
X217549180Y-139565330D01*
X217565453Y-139483518D01*
X217566669Y-139478662D01*
X217590884Y-139398839D01*
X217592570Y-139394128D01*
X217624491Y-139317062D01*
X217626631Y-139312536D01*
X217665953Y-139238971D01*
X217668526Y-139234679D01*
X217714869Y-139165322D01*
X217717850Y-139161302D01*
X217770768Y-139096821D01*
X217774130Y-139093113D01*
X217831000Y-139036243D01*
X217831000Y-137668000D01*
X217831246Y-137663000D01*
X217832207Y-137653245D01*
X217834157Y-137643441D01*
X217837002Y-137634062D01*
X217840828Y-137624824D01*
X217845449Y-137616179D01*
X217851005Y-137607865D01*
X217857223Y-137600289D01*
X217864289Y-137593223D01*
X217871865Y-137587005D01*
X217880179Y-137581449D01*
X217888824Y-137576828D01*
X217898062Y-137573002D01*
X217907441Y-137570157D01*
X217917245Y-137568207D01*
X217927000Y-137567246D01*
X217932000Y-137567000D01*
X218948000Y-137567000D01*
X218953000Y-137567246D01*
X218962755Y-137568207D01*
X218972559Y-137570157D01*
X218981938Y-137573002D01*
X218991176Y-137576828D01*
X218999821Y-137581449D01*
X219008135Y-137587005D01*
X219015711Y-137593223D01*
X219022777Y-137600289D01*
X219028995Y-137607865D01*
X219034551Y-137616179D01*
X219039172Y-137624824D01*
X219042998Y-137634062D01*
X219045843Y-137643441D01*
X219047793Y-137653245D01*
X219048754Y-137663000D01*
X219049000Y-137668000D01*
X219049000Y-139036243D01*
X219105870Y-139093113D01*
X219109232Y-139096821D01*
X219162150Y-139161302D01*
X219165131Y-139165322D01*
X219211474Y-139234679D01*
X219214047Y-139238971D01*
X219253369Y-139312536D01*
X219255509Y-139317062D01*
X219287430Y-139394128D01*
X219289116Y-139398839D01*
X219313331Y-139478662D01*
X219314547Y-139483518D01*
X219330820Y-139565330D01*
X219331554Y-139570280D01*
X219339730Y-139653293D01*
X219339976Y-139658292D01*
X219339976Y-139741708D01*
X219339730Y-139746707D01*
G37*
G36*
X216799730Y-139746707D02*
G01*
X216791554Y-139829720D01*
X216790820Y-139834670D01*
X216774547Y-139916482D01*
X216773331Y-139921338D01*
X216749116Y-140001161D01*
X216747430Y-140005872D01*
X216715509Y-140082938D01*
X216713369Y-140087464D01*
X216674047Y-140161029D01*
X216671474Y-140165321D01*
X216625131Y-140234678D01*
X216622150Y-140238698D01*
X216569232Y-140303179D01*
X216565870Y-140306887D01*
X216506887Y-140365870D01*
X216503179Y-140369232D01*
X216438698Y-140422150D01*
X216434678Y-140425131D01*
X216365321Y-140471474D01*
X216361029Y-140474047D01*
X216287464Y-140513369D01*
X216282938Y-140515509D01*
X216205872Y-140547430D01*
X216201161Y-140549116D01*
X216121338Y-140573331D01*
X216116482Y-140574547D01*
X216034670Y-140590820D01*
X216029720Y-140591554D01*
X215946707Y-140599730D01*
X215941708Y-140599976D01*
X215858292Y-140599976D01*
X215853293Y-140599730D01*
X215770280Y-140591554D01*
X215765330Y-140590820D01*
X215683518Y-140574547D01*
X215678662Y-140573331D01*
X215598839Y-140549116D01*
X215594128Y-140547430D01*
X215517062Y-140515509D01*
X215512536Y-140513369D01*
X215438971Y-140474047D01*
X215434679Y-140471474D01*
X215365322Y-140425131D01*
X215361302Y-140422150D01*
X215296821Y-140369232D01*
X215293113Y-140365870D01*
X215234130Y-140306887D01*
X215230768Y-140303179D01*
X215177850Y-140238698D01*
X215174869Y-140234678D01*
X215128526Y-140165321D01*
X215125953Y-140161029D01*
X215086631Y-140087464D01*
X215084491Y-140082938D01*
X215052570Y-140005872D01*
X215050884Y-140001161D01*
X215026669Y-139921338D01*
X215025453Y-139916482D01*
X215009180Y-139834670D01*
X215008446Y-139829720D01*
X215000270Y-139746707D01*
X215000024Y-139741708D01*
X215000024Y-139658292D01*
X215000270Y-139653293D01*
X215008446Y-139570280D01*
X215009180Y-139565330D01*
X215025453Y-139483518D01*
X215026669Y-139478662D01*
X215050884Y-139398839D01*
X215052570Y-139394128D01*
X215084491Y-139317062D01*
X215086631Y-139312536D01*
X215125953Y-139238971D01*
X215128526Y-139234679D01*
X215174869Y-139165322D01*
X215177850Y-139161302D01*
X215230768Y-139096821D01*
X215234130Y-139093113D01*
X215291000Y-139036243D01*
X215291000Y-137668000D01*
X215291246Y-137663000D01*
X215292207Y-137653245D01*
X215294157Y-137643441D01*
X215297002Y-137634062D01*
X215300828Y-137624824D01*
X215305449Y-137616179D01*
X215311005Y-137607865D01*
X215317223Y-137600289D01*
X215324289Y-137593223D01*
X215331865Y-137587005D01*
X215340179Y-137581449D01*
X215348824Y-137576828D01*
X215358062Y-137573002D01*
X215367441Y-137570157D01*
X215377245Y-137568207D01*
X215387000Y-137567246D01*
X215392000Y-137567000D01*
X216408000Y-137567000D01*
X216413000Y-137567246D01*
X216422755Y-137568207D01*
X216432559Y-137570157D01*
X216441938Y-137573002D01*
X216451176Y-137576828D01*
X216459821Y-137581449D01*
X216468135Y-137587005D01*
X216475711Y-137593223D01*
X216482777Y-137600289D01*
X216488995Y-137607865D01*
X216494551Y-137616179D01*
X216499172Y-137624824D01*
X216502998Y-137634062D01*
X216505843Y-137643441D01*
X216507793Y-137653245D01*
X216508754Y-137663000D01*
X216509000Y-137668000D01*
X216509000Y-139036243D01*
X216565870Y-139093113D01*
X216569232Y-139096821D01*
X216622150Y-139161302D01*
X216625131Y-139165322D01*
X216671474Y-139234679D01*
X216674047Y-139238971D01*
X216713369Y-139312536D01*
X216715509Y-139317062D01*
X216747430Y-139394128D01*
X216749116Y-139398839D01*
X216773331Y-139478662D01*
X216774547Y-139483518D01*
X216790820Y-139565330D01*
X216791554Y-139570280D01*
X216799730Y-139653293D01*
X216799976Y-139658292D01*
X216799976Y-139741708D01*
X216799730Y-139746707D01*
G37*
G36*
X214259730Y-139746707D02*
G01*
X214251554Y-139829720D01*
X214250820Y-139834670D01*
X214234547Y-139916482D01*
X214233331Y-139921338D01*
X214209116Y-140001161D01*
X214207430Y-140005872D01*
X214175509Y-140082938D01*
X214173369Y-140087464D01*
X214134047Y-140161029D01*
X214131474Y-140165321D01*
X214085131Y-140234678D01*
X214082150Y-140238698D01*
X214029232Y-140303179D01*
X214025870Y-140306887D01*
X213966887Y-140365870D01*
X213963179Y-140369232D01*
X213898698Y-140422150D01*
X213894678Y-140425131D01*
X213825321Y-140471474D01*
X213821029Y-140474047D01*
X213747464Y-140513369D01*
X213742938Y-140515509D01*
X213665872Y-140547430D01*
X213661161Y-140549116D01*
X213581338Y-140573331D01*
X213576482Y-140574547D01*
X213494670Y-140590820D01*
X213489720Y-140591554D01*
X213406707Y-140599730D01*
X213401708Y-140599976D01*
X213318292Y-140599976D01*
X213313293Y-140599730D01*
X213230280Y-140591554D01*
X213225330Y-140590820D01*
X213143518Y-140574547D01*
X213138662Y-140573331D01*
X213058839Y-140549116D01*
X213054128Y-140547430D01*
X212977062Y-140515509D01*
X212972536Y-140513369D01*
X212898971Y-140474047D01*
X212894679Y-140471474D01*
X212825322Y-140425131D01*
X212821302Y-140422150D01*
X212756821Y-140369232D01*
X212753113Y-140365870D01*
X212694130Y-140306887D01*
X212690768Y-140303179D01*
X212637850Y-140238698D01*
X212634869Y-140234678D01*
X212588526Y-140165321D01*
X212585953Y-140161029D01*
X212546631Y-140087464D01*
X212544491Y-140082938D01*
X212512570Y-140005872D01*
X212510884Y-140001161D01*
X212486669Y-139921338D01*
X212485453Y-139916482D01*
X212469180Y-139834670D01*
X212468446Y-139829720D01*
X212460270Y-139746707D01*
X212460024Y-139741708D01*
X212460024Y-139658292D01*
X212460270Y-139653293D01*
X212468446Y-139570280D01*
X212469180Y-139565330D01*
X212485453Y-139483518D01*
X212486669Y-139478662D01*
X212510884Y-139398839D01*
X212512570Y-139394128D01*
X212544491Y-139317062D01*
X212546631Y-139312536D01*
X212585953Y-139238971D01*
X212588526Y-139234679D01*
X212634869Y-139165322D01*
X212637850Y-139161302D01*
X212690768Y-139096821D01*
X212694130Y-139093113D01*
X212751000Y-139036243D01*
X212751000Y-137668000D01*
X212751246Y-137663000D01*
X212752207Y-137653245D01*
X212754157Y-137643441D01*
X212757002Y-137634062D01*
X212760828Y-137624824D01*
X212765449Y-137616179D01*
X212771005Y-137607865D01*
X212777223Y-137600289D01*
X212784289Y-137593223D01*
X212791865Y-137587005D01*
X212800179Y-137581449D01*
X212808824Y-137576828D01*
X212818062Y-137573002D01*
X212827441Y-137570157D01*
X212837245Y-137568207D01*
X212847000Y-137567246D01*
X212852000Y-137567000D01*
X213868000Y-137567000D01*
X213873000Y-137567246D01*
X213882755Y-137568207D01*
X213892559Y-137570157D01*
X213901938Y-137573002D01*
X213911176Y-137576828D01*
X213919821Y-137581449D01*
X213928135Y-137587005D01*
X213935711Y-137593223D01*
X213942777Y-137600289D01*
X213948995Y-137607865D01*
X213954551Y-137616179D01*
X213959172Y-137624824D01*
X213962998Y-137634062D01*
X213965843Y-137643441D01*
X213967793Y-137653245D01*
X213968754Y-137663000D01*
X213969000Y-137668000D01*
X213969000Y-139036243D01*
X214025870Y-139093113D01*
X214029232Y-139096821D01*
X214082150Y-139161302D01*
X214085131Y-139165322D01*
X214131474Y-139234679D01*
X214134047Y-139238971D01*
X214173369Y-139312536D01*
X214175509Y-139317062D01*
X214207430Y-139394128D01*
X214209116Y-139398839D01*
X214233331Y-139478662D01*
X214234547Y-139483518D01*
X214250820Y-139565330D01*
X214251554Y-139570280D01*
X214259730Y-139653293D01*
X214259976Y-139658292D01*
X214259976Y-139741708D01*
X214259730Y-139746707D01*
G37*
G36*
X211719730Y-139746707D02*
G01*
X211711554Y-139829720D01*
X211710820Y-139834670D01*
X211694547Y-139916482D01*
X211693331Y-139921338D01*
X211669116Y-140001161D01*
X211667430Y-140005872D01*
X211635509Y-140082938D01*
X211633369Y-140087464D01*
X211594047Y-140161029D01*
X211591474Y-140165321D01*
X211545131Y-140234678D01*
X211542150Y-140238698D01*
X211489232Y-140303179D01*
X211485870Y-140306887D01*
X211426887Y-140365870D01*
X211423179Y-140369232D01*
X211358698Y-140422150D01*
X211354678Y-140425131D01*
X211285321Y-140471474D01*
X211281029Y-140474047D01*
X211207464Y-140513369D01*
X211202938Y-140515509D01*
X211125872Y-140547430D01*
X211121161Y-140549116D01*
X211041338Y-140573331D01*
X211036482Y-140574547D01*
X210954670Y-140590820D01*
X210949720Y-140591554D01*
X210866707Y-140599730D01*
X210861708Y-140599976D01*
X210778292Y-140599976D01*
X210773293Y-140599730D01*
X210690280Y-140591554D01*
X210685330Y-140590820D01*
X210603518Y-140574547D01*
X210598662Y-140573331D01*
X210518839Y-140549116D01*
X210514128Y-140547430D01*
X210437062Y-140515509D01*
X210432536Y-140513369D01*
X210358971Y-140474047D01*
X210354679Y-140471474D01*
X210285322Y-140425131D01*
X210281302Y-140422150D01*
X210216821Y-140369232D01*
X210213113Y-140365870D01*
X210154130Y-140306887D01*
X210150768Y-140303179D01*
X210097850Y-140238698D01*
X210094869Y-140234678D01*
X210048526Y-140165321D01*
X210045953Y-140161029D01*
X210006631Y-140087464D01*
X210004491Y-140082938D01*
X209972570Y-140005872D01*
X209970884Y-140001161D01*
X209946669Y-139921338D01*
X209945453Y-139916482D01*
X209929180Y-139834670D01*
X209928446Y-139829720D01*
X209920270Y-139746707D01*
X209920024Y-139741708D01*
X209920024Y-139658292D01*
X209920270Y-139653293D01*
X209928446Y-139570280D01*
X209929180Y-139565330D01*
X209945453Y-139483518D01*
X209946669Y-139478662D01*
X209970884Y-139398839D01*
X209972570Y-139394128D01*
X210004491Y-139317062D01*
X210006631Y-139312536D01*
X210045953Y-139238971D01*
X210048526Y-139234679D01*
X210094869Y-139165322D01*
X210097850Y-139161302D01*
X210150768Y-139096821D01*
X210154130Y-139093113D01*
X210211000Y-139036243D01*
X210211000Y-137668000D01*
X210211246Y-137663000D01*
X210212207Y-137653245D01*
X210214157Y-137643441D01*
X210217002Y-137634062D01*
X210220828Y-137624824D01*
X210225449Y-137616179D01*
X210231005Y-137607865D01*
X210237223Y-137600289D01*
X210244289Y-137593223D01*
X210251865Y-137587005D01*
X210260179Y-137581449D01*
X210268824Y-137576828D01*
X210278062Y-137573002D01*
X210287441Y-137570157D01*
X210297245Y-137568207D01*
X210307000Y-137567246D01*
X210312000Y-137567000D01*
X211328000Y-137567000D01*
X211333000Y-137567246D01*
X211342755Y-137568207D01*
X211352559Y-137570157D01*
X211361938Y-137573002D01*
X211371176Y-137576828D01*
X211379821Y-137581449D01*
X211388135Y-137587005D01*
X211395711Y-137593223D01*
X211402777Y-137600289D01*
X211408995Y-137607865D01*
X211414551Y-137616179D01*
X211419172Y-137624824D01*
X211422998Y-137634062D01*
X211425843Y-137643441D01*
X211427793Y-137653245D01*
X211428754Y-137663000D01*
X211429000Y-137668000D01*
X211429000Y-139036243D01*
X211485870Y-139093113D01*
X211489232Y-139096821D01*
X211542150Y-139161302D01*
X211545131Y-139165322D01*
X211591474Y-139234679D01*
X211594047Y-139238971D01*
X211633369Y-139312536D01*
X211635509Y-139317062D01*
X211667430Y-139394128D01*
X211669116Y-139398839D01*
X211693331Y-139478662D01*
X211694547Y-139483518D01*
X211710820Y-139565330D01*
X211711554Y-139570280D01*
X211719730Y-139653293D01*
X211719976Y-139658292D01*
X211719976Y-139741708D01*
X211719730Y-139746707D01*
G37*
G36*
X209179730Y-139746707D02*
G01*
X209171554Y-139829720D01*
X209170820Y-139834670D01*
X209154547Y-139916482D01*
X209153331Y-139921338D01*
X209129116Y-140001161D01*
X209127430Y-140005872D01*
X209095509Y-140082938D01*
X209093369Y-140087464D01*
X209054047Y-140161029D01*
X209051474Y-140165321D01*
X209005131Y-140234678D01*
X209002150Y-140238698D01*
X208949232Y-140303179D01*
X208945870Y-140306887D01*
X208886887Y-140365870D01*
X208883179Y-140369232D01*
X208818698Y-140422150D01*
X208814678Y-140425131D01*
X208745321Y-140471474D01*
X208741029Y-140474047D01*
X208667464Y-140513369D01*
X208662938Y-140515509D01*
X208585872Y-140547430D01*
X208581161Y-140549116D01*
X208501338Y-140573331D01*
X208496482Y-140574547D01*
X208414670Y-140590820D01*
X208409720Y-140591554D01*
X208326707Y-140599730D01*
X208321708Y-140599976D01*
X208238292Y-140599976D01*
X208233293Y-140599730D01*
X208150280Y-140591554D01*
X208145330Y-140590820D01*
X208063518Y-140574547D01*
X208058662Y-140573331D01*
X207978839Y-140549116D01*
X207974128Y-140547430D01*
X207897062Y-140515509D01*
X207892536Y-140513369D01*
X207818971Y-140474047D01*
X207814679Y-140471474D01*
X207745322Y-140425131D01*
X207741302Y-140422150D01*
X207676821Y-140369232D01*
X207673113Y-140365870D01*
X207614130Y-140306887D01*
X207610768Y-140303179D01*
X207557850Y-140238698D01*
X207554869Y-140234678D01*
X207508526Y-140165321D01*
X207505953Y-140161029D01*
X207466631Y-140087464D01*
X207464491Y-140082938D01*
X207432570Y-140005872D01*
X207430884Y-140001161D01*
X207406669Y-139921338D01*
X207405453Y-139916482D01*
X207389180Y-139834670D01*
X207388446Y-139829720D01*
X207380270Y-139746707D01*
X207380024Y-139741708D01*
X207380024Y-139658292D01*
X207380270Y-139653293D01*
X207388446Y-139570280D01*
X207389180Y-139565330D01*
X207405453Y-139483518D01*
X207406669Y-139478662D01*
X207430884Y-139398839D01*
X207432570Y-139394128D01*
X207464491Y-139317062D01*
X207466631Y-139312536D01*
X207505953Y-139238971D01*
X207508526Y-139234679D01*
X207554869Y-139165322D01*
X207557850Y-139161302D01*
X207610768Y-139096821D01*
X207614130Y-139093113D01*
X207671000Y-139036243D01*
X207671000Y-137668000D01*
X207671246Y-137663000D01*
X207672207Y-137653245D01*
X207674157Y-137643441D01*
X207677002Y-137634062D01*
X207680828Y-137624824D01*
X207685449Y-137616179D01*
X207691005Y-137607865D01*
X207697223Y-137600289D01*
X207704289Y-137593223D01*
X207711865Y-137587005D01*
X207720179Y-137581449D01*
X207728824Y-137576828D01*
X207738062Y-137573002D01*
X207747441Y-137570157D01*
X207757245Y-137568207D01*
X207767000Y-137567246D01*
X207772000Y-137567000D01*
X208788000Y-137567000D01*
X208793000Y-137567246D01*
X208802755Y-137568207D01*
X208812559Y-137570157D01*
X208821938Y-137573002D01*
X208831176Y-137576828D01*
X208839821Y-137581449D01*
X208848135Y-137587005D01*
X208855711Y-137593223D01*
X208862777Y-137600289D01*
X208868995Y-137607865D01*
X208874551Y-137616179D01*
X208879172Y-137624824D01*
X208882998Y-137634062D01*
X208885843Y-137643441D01*
X208887793Y-137653245D01*
X208888754Y-137663000D01*
X208889000Y-137668000D01*
X208889000Y-139036243D01*
X208945870Y-139093113D01*
X208949232Y-139096821D01*
X209002150Y-139161302D01*
X209005131Y-139165322D01*
X209051474Y-139234679D01*
X209054047Y-139238971D01*
X209093369Y-139312536D01*
X209095509Y-139317062D01*
X209127430Y-139394128D01*
X209129116Y-139398839D01*
X209153331Y-139478662D01*
X209154547Y-139483518D01*
X209170820Y-139565330D01*
X209171554Y-139570280D01*
X209179730Y-139653293D01*
X209179976Y-139658292D01*
X209179976Y-139741708D01*
X209179730Y-139746707D01*
G37*
G36*
X206639730Y-139746707D02*
G01*
X206631554Y-139829720D01*
X206630820Y-139834670D01*
X206614547Y-139916482D01*
X206613331Y-139921338D01*
X206589116Y-140001161D01*
X206587430Y-140005872D01*
X206555509Y-140082938D01*
X206553369Y-140087464D01*
X206514047Y-140161029D01*
X206511474Y-140165321D01*
X206465131Y-140234678D01*
X206462150Y-140238698D01*
X206409232Y-140303179D01*
X206405870Y-140306887D01*
X206346887Y-140365870D01*
X206343179Y-140369232D01*
X206278698Y-140422150D01*
X206274678Y-140425131D01*
X206205321Y-140471474D01*
X206201029Y-140474047D01*
X206127464Y-140513369D01*
X206122938Y-140515509D01*
X206045872Y-140547430D01*
X206041161Y-140549116D01*
X205961338Y-140573331D01*
X205956482Y-140574547D01*
X205874670Y-140590820D01*
X205869720Y-140591554D01*
X205786707Y-140599730D01*
X205781708Y-140599976D01*
X205698292Y-140599976D01*
X205693293Y-140599730D01*
X205610280Y-140591554D01*
X205605330Y-140590820D01*
X205523518Y-140574547D01*
X205518662Y-140573331D01*
X205438839Y-140549116D01*
X205434128Y-140547430D01*
X205357062Y-140515509D01*
X205352536Y-140513369D01*
X205278971Y-140474047D01*
X205274679Y-140471474D01*
X205205322Y-140425131D01*
X205201302Y-140422150D01*
X205136821Y-140369232D01*
X205133113Y-140365870D01*
X205074130Y-140306887D01*
X205070768Y-140303179D01*
X205017850Y-140238698D01*
X205014869Y-140234678D01*
X204968526Y-140165321D01*
X204965953Y-140161029D01*
X204926631Y-140087464D01*
X204924491Y-140082938D01*
X204892570Y-140005872D01*
X204890884Y-140001161D01*
X204866669Y-139921338D01*
X204865453Y-139916482D01*
X204849180Y-139834670D01*
X204848446Y-139829720D01*
X204840270Y-139746707D01*
X204840024Y-139741708D01*
X204840024Y-139658292D01*
X204840270Y-139653293D01*
X204848446Y-139570280D01*
X204849180Y-139565330D01*
X204865453Y-139483518D01*
X204866669Y-139478662D01*
X204890884Y-139398839D01*
X204892570Y-139394128D01*
X204924491Y-139317062D01*
X204926631Y-139312536D01*
X204965953Y-139238971D01*
X204968526Y-139234679D01*
X205014869Y-139165322D01*
X205017850Y-139161302D01*
X205070768Y-139096821D01*
X205074130Y-139093113D01*
X205131000Y-139036243D01*
X205131000Y-137668000D01*
X205131246Y-137663000D01*
X205132207Y-137653245D01*
X205134157Y-137643441D01*
X205137002Y-137634062D01*
X205140828Y-137624824D01*
X205145449Y-137616179D01*
X205151005Y-137607865D01*
X205157223Y-137600289D01*
X205164289Y-137593223D01*
X205171865Y-137587005D01*
X205180179Y-137581449D01*
X205188824Y-137576828D01*
X205198062Y-137573002D01*
X205207441Y-137570157D01*
X205217245Y-137568207D01*
X205227000Y-137567246D01*
X205232000Y-137567000D01*
X206248000Y-137567000D01*
X206253000Y-137567246D01*
X206262755Y-137568207D01*
X206272559Y-137570157D01*
X206281938Y-137573002D01*
X206291176Y-137576828D01*
X206299821Y-137581449D01*
X206308135Y-137587005D01*
X206315711Y-137593223D01*
X206322777Y-137600289D01*
X206328995Y-137607865D01*
X206334551Y-137616179D01*
X206339172Y-137624824D01*
X206342998Y-137634062D01*
X206345843Y-137643441D01*
X206347793Y-137653245D01*
X206348754Y-137663000D01*
X206349000Y-137668000D01*
X206349000Y-139036243D01*
X206405870Y-139093113D01*
X206409232Y-139096821D01*
X206462150Y-139161302D01*
X206465131Y-139165322D01*
X206511474Y-139234679D01*
X206514047Y-139238971D01*
X206553369Y-139312536D01*
X206555509Y-139317062D01*
X206587430Y-139394128D01*
X206589116Y-139398839D01*
X206613331Y-139478662D01*
X206614547Y-139483518D01*
X206630820Y-139565330D01*
X206631554Y-139570280D01*
X206639730Y-139653293D01*
X206639976Y-139658292D01*
X206639976Y-139741708D01*
X206639730Y-139746707D01*
G37*
G36*
X204099730Y-139746707D02*
G01*
X204091554Y-139829720D01*
X204090820Y-139834670D01*
X204074547Y-139916482D01*
X204073331Y-139921338D01*
X204049116Y-140001161D01*
X204047430Y-140005872D01*
X204015509Y-140082938D01*
X204013369Y-140087464D01*
X203974047Y-140161029D01*
X203971474Y-140165321D01*
X203925131Y-140234678D01*
X203922150Y-140238698D01*
X203869232Y-140303179D01*
X203865870Y-140306887D01*
X203806887Y-140365870D01*
X203803179Y-140369232D01*
X203738698Y-140422150D01*
X203734678Y-140425131D01*
X203665321Y-140471474D01*
X203661029Y-140474047D01*
X203587464Y-140513369D01*
X203582938Y-140515509D01*
X203505872Y-140547430D01*
X203501161Y-140549116D01*
X203421338Y-140573331D01*
X203416482Y-140574547D01*
X203334670Y-140590820D01*
X203329720Y-140591554D01*
X203246707Y-140599730D01*
X203241708Y-140599976D01*
X203158292Y-140599976D01*
X203153293Y-140599730D01*
X203070280Y-140591554D01*
X203065330Y-140590820D01*
X202983518Y-140574547D01*
X202978662Y-140573331D01*
X202898839Y-140549116D01*
X202894128Y-140547430D01*
X202817062Y-140515509D01*
X202812536Y-140513369D01*
X202738971Y-140474047D01*
X202734679Y-140471474D01*
X202665322Y-140425131D01*
X202661302Y-140422150D01*
X202596821Y-140369232D01*
X202593113Y-140365870D01*
X202534130Y-140306887D01*
X202530768Y-140303179D01*
X202477850Y-140238698D01*
X202474869Y-140234678D01*
X202428526Y-140165321D01*
X202425953Y-140161029D01*
X202386631Y-140087464D01*
X202384491Y-140082938D01*
X202352570Y-140005872D01*
X202350884Y-140001161D01*
X202326669Y-139921338D01*
X202325453Y-139916482D01*
X202309180Y-139834670D01*
X202308446Y-139829720D01*
X202300270Y-139746707D01*
X202300024Y-139741708D01*
X202300024Y-139658292D01*
X202300270Y-139653293D01*
X202308446Y-139570280D01*
X202309180Y-139565330D01*
X202325453Y-139483518D01*
X202326669Y-139478662D01*
X202350884Y-139398839D01*
X202352570Y-139394128D01*
X202384491Y-139317062D01*
X202386631Y-139312536D01*
X202425953Y-139238971D01*
X202428526Y-139234679D01*
X202474869Y-139165322D01*
X202477850Y-139161302D01*
X202530768Y-139096821D01*
X202534130Y-139093113D01*
X202591000Y-139036243D01*
X202591000Y-137668000D01*
X202591246Y-137663000D01*
X202592207Y-137653245D01*
X202594157Y-137643441D01*
X202597002Y-137634062D01*
X202600828Y-137624824D01*
X202605449Y-137616179D01*
X202611005Y-137607865D01*
X202617223Y-137600289D01*
X202624289Y-137593223D01*
X202631865Y-137587005D01*
X202640179Y-137581449D01*
X202648824Y-137576828D01*
X202658062Y-137573002D01*
X202667441Y-137570157D01*
X202677245Y-137568207D01*
X202687000Y-137567246D01*
X202692000Y-137567000D01*
X203708000Y-137567000D01*
X203713000Y-137567246D01*
X203722755Y-137568207D01*
X203732559Y-137570157D01*
X203741938Y-137573002D01*
X203751176Y-137576828D01*
X203759821Y-137581449D01*
X203768135Y-137587005D01*
X203775711Y-137593223D01*
X203782777Y-137600289D01*
X203788995Y-137607865D01*
X203794551Y-137616179D01*
X203799172Y-137624824D01*
X203802998Y-137634062D01*
X203805843Y-137643441D01*
X203807793Y-137653245D01*
X203808754Y-137663000D01*
X203809000Y-137668000D01*
X203809000Y-139036243D01*
X203865870Y-139093113D01*
X203869232Y-139096821D01*
X203922150Y-139161302D01*
X203925131Y-139165322D01*
X203971474Y-139234679D01*
X203974047Y-139238971D01*
X204013369Y-139312536D01*
X204015509Y-139317062D01*
X204047430Y-139394128D01*
X204049116Y-139398839D01*
X204073331Y-139478662D01*
X204074547Y-139483518D01*
X204090820Y-139565330D01*
X204091554Y-139570280D01*
X204099730Y-139653293D01*
X204099976Y-139658292D01*
X204099976Y-139741708D01*
X204099730Y-139746707D01*
G37*
G36*
X201559730Y-139746707D02*
G01*
X201551554Y-139829720D01*
X201550820Y-139834670D01*
X201534547Y-139916482D01*
X201533331Y-139921338D01*
X201509116Y-140001161D01*
X201507430Y-140005872D01*
X201475509Y-140082938D01*
X201473369Y-140087464D01*
X201434047Y-140161029D01*
X201431474Y-140165321D01*
X201385131Y-140234678D01*
X201382150Y-140238698D01*
X201329232Y-140303179D01*
X201325870Y-140306887D01*
X201266887Y-140365870D01*
X201263179Y-140369232D01*
X201198698Y-140422150D01*
X201194678Y-140425131D01*
X201125321Y-140471474D01*
X201121029Y-140474047D01*
X201047464Y-140513369D01*
X201042938Y-140515509D01*
X200965872Y-140547430D01*
X200961161Y-140549116D01*
X200881338Y-140573331D01*
X200876482Y-140574547D01*
X200794670Y-140590820D01*
X200789720Y-140591554D01*
X200706707Y-140599730D01*
X200701708Y-140599976D01*
X200618292Y-140599976D01*
X200613293Y-140599730D01*
X200530280Y-140591554D01*
X200525330Y-140590820D01*
X200443518Y-140574547D01*
X200438662Y-140573331D01*
X200358839Y-140549116D01*
X200354128Y-140547430D01*
X200277062Y-140515509D01*
X200272536Y-140513369D01*
X200198971Y-140474047D01*
X200194679Y-140471474D01*
X200125322Y-140425131D01*
X200121302Y-140422150D01*
X200056821Y-140369232D01*
X200053113Y-140365870D01*
X199994130Y-140306887D01*
X199990768Y-140303179D01*
X199937850Y-140238698D01*
X199934869Y-140234678D01*
X199888526Y-140165321D01*
X199885953Y-140161029D01*
X199846631Y-140087464D01*
X199844491Y-140082938D01*
X199812570Y-140005872D01*
X199810884Y-140001161D01*
X199786669Y-139921338D01*
X199785453Y-139916482D01*
X199769180Y-139834670D01*
X199768446Y-139829720D01*
X199760270Y-139746707D01*
X199760024Y-139741708D01*
X199760024Y-139658292D01*
X199760270Y-139653293D01*
X199768446Y-139570280D01*
X199769180Y-139565330D01*
X199785453Y-139483518D01*
X199786669Y-139478662D01*
X199810884Y-139398839D01*
X199812570Y-139394128D01*
X199844491Y-139317062D01*
X199846631Y-139312536D01*
X199885953Y-139238971D01*
X199888526Y-139234679D01*
X199934869Y-139165322D01*
X199937850Y-139161302D01*
X199990768Y-139096821D01*
X199994130Y-139093113D01*
X200051000Y-139036243D01*
X200051000Y-137668000D01*
X200051246Y-137663000D01*
X200052207Y-137653245D01*
X200054157Y-137643441D01*
X200057002Y-137634062D01*
X200060828Y-137624824D01*
X200065449Y-137616179D01*
X200071005Y-137607865D01*
X200077223Y-137600289D01*
X200084289Y-137593223D01*
X200091865Y-137587005D01*
X200100179Y-137581449D01*
X200108824Y-137576828D01*
X200118062Y-137573002D01*
X200127441Y-137570157D01*
X200137245Y-137568207D01*
X200147000Y-137567246D01*
X200152000Y-137567000D01*
X201168000Y-137567000D01*
X201173000Y-137567246D01*
X201182755Y-137568207D01*
X201192559Y-137570157D01*
X201201938Y-137573002D01*
X201211176Y-137576828D01*
X201219821Y-137581449D01*
X201228135Y-137587005D01*
X201235711Y-137593223D01*
X201242777Y-137600289D01*
X201248995Y-137607865D01*
X201254551Y-137616179D01*
X201259172Y-137624824D01*
X201262998Y-137634062D01*
X201265843Y-137643441D01*
X201267793Y-137653245D01*
X201268754Y-137663000D01*
X201269000Y-137668000D01*
X201269000Y-139036243D01*
X201325870Y-139093113D01*
X201329232Y-139096821D01*
X201382150Y-139161302D01*
X201385131Y-139165322D01*
X201431474Y-139234679D01*
X201434047Y-139238971D01*
X201473369Y-139312536D01*
X201475509Y-139317062D01*
X201507430Y-139394128D01*
X201509116Y-139398839D01*
X201533331Y-139478662D01*
X201534547Y-139483518D01*
X201550820Y-139565330D01*
X201551554Y-139570280D01*
X201559730Y-139653293D01*
X201559976Y-139658292D01*
X201559976Y-139741708D01*
X201559730Y-139746707D01*
G37*
G36*
X199019730Y-139746707D02*
G01*
X199011554Y-139829720D01*
X199010820Y-139834670D01*
X198994547Y-139916482D01*
X198993331Y-139921338D01*
X198969116Y-140001161D01*
X198967430Y-140005872D01*
X198935509Y-140082938D01*
X198933369Y-140087464D01*
X198894047Y-140161029D01*
X198891474Y-140165321D01*
X198845131Y-140234678D01*
X198842150Y-140238698D01*
X198789232Y-140303179D01*
X198785870Y-140306887D01*
X198726887Y-140365870D01*
X198723179Y-140369232D01*
X198658698Y-140422150D01*
X198654678Y-140425131D01*
X198585321Y-140471474D01*
X198581029Y-140474047D01*
X198507464Y-140513369D01*
X198502938Y-140515509D01*
X198425872Y-140547430D01*
X198421161Y-140549116D01*
X198341338Y-140573331D01*
X198336482Y-140574547D01*
X198254670Y-140590820D01*
X198249720Y-140591554D01*
X198166707Y-140599730D01*
X198161708Y-140599976D01*
X198078292Y-140599976D01*
X198073293Y-140599730D01*
X197990280Y-140591554D01*
X197985330Y-140590820D01*
X197903518Y-140574547D01*
X197898662Y-140573331D01*
X197818839Y-140549116D01*
X197814128Y-140547430D01*
X197737062Y-140515509D01*
X197732536Y-140513369D01*
X197658971Y-140474047D01*
X197654679Y-140471474D01*
X197585322Y-140425131D01*
X197581302Y-140422150D01*
X197516821Y-140369232D01*
X197513113Y-140365870D01*
X197454130Y-140306887D01*
X197450768Y-140303179D01*
X197397850Y-140238698D01*
X197394869Y-140234678D01*
X197348526Y-140165321D01*
X197345953Y-140161029D01*
X197306631Y-140087464D01*
X197304491Y-140082938D01*
X197272570Y-140005872D01*
X197270884Y-140001161D01*
X197246669Y-139921338D01*
X197245453Y-139916482D01*
X197229180Y-139834670D01*
X197228446Y-139829720D01*
X197220270Y-139746707D01*
X197220024Y-139741708D01*
X197220024Y-139658292D01*
X197220270Y-139653293D01*
X197228446Y-139570280D01*
X197229180Y-139565330D01*
X197245453Y-139483518D01*
X197246669Y-139478662D01*
X197270884Y-139398839D01*
X197272570Y-139394128D01*
X197304491Y-139317062D01*
X197306631Y-139312536D01*
X197345953Y-139238971D01*
X197348526Y-139234679D01*
X197394869Y-139165322D01*
X197397850Y-139161302D01*
X197450768Y-139096821D01*
X197454130Y-139093113D01*
X197511000Y-139036243D01*
X197511000Y-137668000D01*
X197511246Y-137663000D01*
X197512207Y-137653245D01*
X197514157Y-137643441D01*
X197517002Y-137634062D01*
X197520828Y-137624824D01*
X197525449Y-137616179D01*
X197531005Y-137607865D01*
X197537223Y-137600289D01*
X197544289Y-137593223D01*
X197551865Y-137587005D01*
X197560179Y-137581449D01*
X197568824Y-137576828D01*
X197578062Y-137573002D01*
X197587441Y-137570157D01*
X197597245Y-137568207D01*
X197607000Y-137567246D01*
X197612000Y-137567000D01*
X198628000Y-137567000D01*
X198633000Y-137567246D01*
X198642755Y-137568207D01*
X198652559Y-137570157D01*
X198661938Y-137573002D01*
X198671176Y-137576828D01*
X198679821Y-137581449D01*
X198688135Y-137587005D01*
X198695711Y-137593223D01*
X198702777Y-137600289D01*
X198708995Y-137607865D01*
X198714551Y-137616179D01*
X198719172Y-137624824D01*
X198722998Y-137634062D01*
X198725843Y-137643441D01*
X198727793Y-137653245D01*
X198728754Y-137663000D01*
X198729000Y-137668000D01*
X198729000Y-139036243D01*
X198785870Y-139093113D01*
X198789232Y-139096821D01*
X198842150Y-139161302D01*
X198845131Y-139165322D01*
X198891474Y-139234679D01*
X198894047Y-139238971D01*
X198933369Y-139312536D01*
X198935509Y-139317062D01*
X198967430Y-139394128D01*
X198969116Y-139398839D01*
X198993331Y-139478662D01*
X198994547Y-139483518D01*
X199010820Y-139565330D01*
X199011554Y-139570280D01*
X199019730Y-139653293D01*
X199019976Y-139658292D01*
X199019976Y-139741708D01*
X199019730Y-139746707D01*
G37*
G36*
X229499730Y-139746707D02*
G01*
X229491554Y-139829720D01*
X229490820Y-139834670D01*
X229474547Y-139916482D01*
X229473331Y-139921338D01*
X229449116Y-140001161D01*
X229447430Y-140005872D01*
X229415509Y-140082938D01*
X229413369Y-140087464D01*
X229374047Y-140161029D01*
X229371474Y-140165321D01*
X229325131Y-140234678D01*
X229322150Y-140238698D01*
X229269232Y-140303179D01*
X229265870Y-140306887D01*
X229206887Y-140365870D01*
X229203179Y-140369232D01*
X229138698Y-140422150D01*
X229134678Y-140425131D01*
X229065321Y-140471474D01*
X229061029Y-140474047D01*
X228987464Y-140513369D01*
X228982938Y-140515509D01*
X228905872Y-140547430D01*
X228901161Y-140549116D01*
X228821338Y-140573331D01*
X228816482Y-140574547D01*
X228734670Y-140590820D01*
X228729720Y-140591554D01*
X228646707Y-140599730D01*
X228641708Y-140599976D01*
X228558292Y-140599976D01*
X228553293Y-140599730D01*
X228470280Y-140591554D01*
X228465330Y-140590820D01*
X228383518Y-140574547D01*
X228378662Y-140573331D01*
X228298839Y-140549116D01*
X228294128Y-140547430D01*
X228217062Y-140515509D01*
X228212536Y-140513369D01*
X228138971Y-140474047D01*
X228134679Y-140471474D01*
X228065322Y-140425131D01*
X228061302Y-140422150D01*
X227996821Y-140369232D01*
X227993113Y-140365870D01*
X227934130Y-140306887D01*
X227930768Y-140303179D01*
X227877850Y-140238698D01*
X227874869Y-140234678D01*
X227828526Y-140165321D01*
X227825953Y-140161029D01*
X227786631Y-140087464D01*
X227784491Y-140082938D01*
X227752570Y-140005872D01*
X227750884Y-140001161D01*
X227726669Y-139921338D01*
X227725453Y-139916482D01*
X227709180Y-139834670D01*
X227708446Y-139829720D01*
X227700270Y-139746707D01*
X227700024Y-139741708D01*
X227700024Y-139658292D01*
X227700270Y-139653293D01*
X227708446Y-139570280D01*
X227709180Y-139565330D01*
X227725453Y-139483518D01*
X227726669Y-139478662D01*
X227750884Y-139398839D01*
X227752570Y-139394128D01*
X227784491Y-139317062D01*
X227786631Y-139312536D01*
X227825953Y-139238971D01*
X227828526Y-139234679D01*
X227874869Y-139165322D01*
X227877850Y-139161302D01*
X227930768Y-139096821D01*
X227934130Y-139093113D01*
X227991000Y-139036243D01*
X227991000Y-137668000D01*
X227991246Y-137663000D01*
X227992207Y-137653245D01*
X227994157Y-137643441D01*
X227997002Y-137634062D01*
X228000828Y-137624824D01*
X228005449Y-137616179D01*
X228011005Y-137607865D01*
X228017223Y-137600289D01*
X228024289Y-137593223D01*
X228031865Y-137587005D01*
X228040179Y-137581449D01*
X228048824Y-137576828D01*
X228058062Y-137573002D01*
X228067441Y-137570157D01*
X228077245Y-137568207D01*
X228087000Y-137567246D01*
X228092000Y-137567000D01*
X229108000Y-137567000D01*
X229113000Y-137567246D01*
X229122755Y-137568207D01*
X229132559Y-137570157D01*
X229141938Y-137573002D01*
X229151176Y-137576828D01*
X229159821Y-137581449D01*
X229168135Y-137587005D01*
X229175711Y-137593223D01*
X229182777Y-137600289D01*
X229188995Y-137607865D01*
X229194551Y-137616179D01*
X229199172Y-137624824D01*
X229202998Y-137634062D01*
X229205843Y-137643441D01*
X229207793Y-137653245D01*
X229208754Y-137663000D01*
X229209000Y-137668000D01*
X229209000Y-139036243D01*
X229265870Y-139093113D01*
X229269232Y-139096821D01*
X229322150Y-139161302D01*
X229325131Y-139165322D01*
X229371474Y-139234679D01*
X229374047Y-139238971D01*
X229413369Y-139312536D01*
X229415509Y-139317062D01*
X229447430Y-139394128D01*
X229449116Y-139398839D01*
X229473331Y-139478662D01*
X229474547Y-139483518D01*
X229490820Y-139565330D01*
X229491554Y-139570280D01*
X229499730Y-139653293D01*
X229499976Y-139658292D01*
X229499976Y-139741708D01*
X229499730Y-139746707D01*
G37*
G36*
X232039730Y-139746707D02*
G01*
X232031554Y-139829720D01*
X232030820Y-139834670D01*
X232014547Y-139916482D01*
X232013331Y-139921338D01*
X231989116Y-140001161D01*
X231987430Y-140005872D01*
X231955509Y-140082938D01*
X231953369Y-140087464D01*
X231914047Y-140161029D01*
X231911474Y-140165321D01*
X231865131Y-140234678D01*
X231862150Y-140238698D01*
X231809232Y-140303179D01*
X231805870Y-140306887D01*
X231746887Y-140365870D01*
X231743179Y-140369232D01*
X231678698Y-140422150D01*
X231674678Y-140425131D01*
X231605321Y-140471474D01*
X231601029Y-140474047D01*
X231527464Y-140513369D01*
X231522938Y-140515509D01*
X231445872Y-140547430D01*
X231441161Y-140549116D01*
X231361338Y-140573331D01*
X231356482Y-140574547D01*
X231274670Y-140590820D01*
X231269720Y-140591554D01*
X231186707Y-140599730D01*
X231181708Y-140599976D01*
X231098292Y-140599976D01*
X231093293Y-140599730D01*
X231010280Y-140591554D01*
X231005330Y-140590820D01*
X230923518Y-140574547D01*
X230918662Y-140573331D01*
X230838839Y-140549116D01*
X230834128Y-140547430D01*
X230757062Y-140515509D01*
X230752536Y-140513369D01*
X230678971Y-140474047D01*
X230674679Y-140471474D01*
X230605322Y-140425131D01*
X230601302Y-140422150D01*
X230536821Y-140369232D01*
X230533113Y-140365870D01*
X230474130Y-140306887D01*
X230470768Y-140303179D01*
X230417850Y-140238698D01*
X230414869Y-140234678D01*
X230368526Y-140165321D01*
X230365953Y-140161029D01*
X230326631Y-140087464D01*
X230324491Y-140082938D01*
X230292570Y-140005872D01*
X230290884Y-140001161D01*
X230266669Y-139921338D01*
X230265453Y-139916482D01*
X230249180Y-139834670D01*
X230248446Y-139829720D01*
X230240270Y-139746707D01*
X230240024Y-139741708D01*
X230240024Y-139658292D01*
X230240270Y-139653293D01*
X230248446Y-139570280D01*
X230249180Y-139565330D01*
X230265453Y-139483518D01*
X230266669Y-139478662D01*
X230290884Y-139398839D01*
X230292570Y-139394128D01*
X230324491Y-139317062D01*
X230326631Y-139312536D01*
X230365953Y-139238971D01*
X230368526Y-139234679D01*
X230414869Y-139165322D01*
X230417850Y-139161302D01*
X230470768Y-139096821D01*
X230474130Y-139093113D01*
X230531000Y-139036243D01*
X230531000Y-137668000D01*
X230531246Y-137663000D01*
X230532207Y-137653245D01*
X230534157Y-137643441D01*
X230537002Y-137634062D01*
X230540828Y-137624824D01*
X230545449Y-137616179D01*
X230551005Y-137607865D01*
X230557223Y-137600289D01*
X230564289Y-137593223D01*
X230571865Y-137587005D01*
X230580179Y-137581449D01*
X230588824Y-137576828D01*
X230598062Y-137573002D01*
X230607441Y-137570157D01*
X230617245Y-137568207D01*
X230627000Y-137567246D01*
X230632000Y-137567000D01*
X231648000Y-137567000D01*
X231653000Y-137567246D01*
X231662755Y-137568207D01*
X231672559Y-137570157D01*
X231681938Y-137573002D01*
X231691176Y-137576828D01*
X231699821Y-137581449D01*
X231708135Y-137587005D01*
X231715711Y-137593223D01*
X231722777Y-137600289D01*
X231728995Y-137607865D01*
X231734551Y-137616179D01*
X231739172Y-137624824D01*
X231742998Y-137634062D01*
X231745843Y-137643441D01*
X231747793Y-137653245D01*
X231748754Y-137663000D01*
X231749000Y-137668000D01*
X231749000Y-139036243D01*
X231805870Y-139093113D01*
X231809232Y-139096821D01*
X231862150Y-139161302D01*
X231865131Y-139165322D01*
X231911474Y-139234679D01*
X231914047Y-139238971D01*
X231953369Y-139312536D01*
X231955509Y-139317062D01*
X231987430Y-139394128D01*
X231989116Y-139398839D01*
X232013331Y-139478662D01*
X232014547Y-139483518D01*
X232030820Y-139565330D01*
X232031554Y-139570280D01*
X232039730Y-139653293D01*
X232039976Y-139658292D01*
X232039976Y-139741708D01*
X232039730Y-139746707D01*
G37*
G36*
X234579730Y-139746707D02*
G01*
X234571554Y-139829720D01*
X234570820Y-139834670D01*
X234554547Y-139916482D01*
X234553331Y-139921338D01*
X234529116Y-140001161D01*
X234527430Y-140005872D01*
X234495509Y-140082938D01*
X234493369Y-140087464D01*
X234454047Y-140161029D01*
X234451474Y-140165321D01*
X234405131Y-140234678D01*
X234402150Y-140238698D01*
X234349232Y-140303179D01*
X234345870Y-140306887D01*
X234286887Y-140365870D01*
X234283179Y-140369232D01*
X234218698Y-140422150D01*
X234214678Y-140425131D01*
X234145321Y-140471474D01*
X234141029Y-140474047D01*
X234067464Y-140513369D01*
X234062938Y-140515509D01*
X233985872Y-140547430D01*
X233981161Y-140549116D01*
X233901338Y-140573331D01*
X233896482Y-140574547D01*
X233814670Y-140590820D01*
X233809720Y-140591554D01*
X233726707Y-140599730D01*
X233721708Y-140599976D01*
X233638292Y-140599976D01*
X233633293Y-140599730D01*
X233550280Y-140591554D01*
X233545330Y-140590820D01*
X233463518Y-140574547D01*
X233458662Y-140573331D01*
X233378839Y-140549116D01*
X233374128Y-140547430D01*
X233297062Y-140515509D01*
X233292536Y-140513369D01*
X233218971Y-140474047D01*
X233214679Y-140471474D01*
X233145322Y-140425131D01*
X233141302Y-140422150D01*
X233076821Y-140369232D01*
X233073113Y-140365870D01*
X233014130Y-140306887D01*
X233010768Y-140303179D01*
X232957850Y-140238698D01*
X232954869Y-140234678D01*
X232908526Y-140165321D01*
X232905953Y-140161029D01*
X232866631Y-140087464D01*
X232864491Y-140082938D01*
X232832570Y-140005872D01*
X232830884Y-140001161D01*
X232806669Y-139921338D01*
X232805453Y-139916482D01*
X232789180Y-139834670D01*
X232788446Y-139829720D01*
X232780270Y-139746707D01*
X232780024Y-139741708D01*
X232780024Y-139658292D01*
X232780270Y-139653293D01*
X232788446Y-139570280D01*
X232789180Y-139565330D01*
X232805453Y-139483518D01*
X232806669Y-139478662D01*
X232830884Y-139398839D01*
X232832570Y-139394128D01*
X232864491Y-139317062D01*
X232866631Y-139312536D01*
X232905953Y-139238971D01*
X232908526Y-139234679D01*
X232954869Y-139165322D01*
X232957850Y-139161302D01*
X233010768Y-139096821D01*
X233014130Y-139093113D01*
X233071000Y-139036243D01*
X233071000Y-137668000D01*
X233071246Y-137663000D01*
X233072207Y-137653245D01*
X233074157Y-137643441D01*
X233077002Y-137634062D01*
X233080828Y-137624824D01*
X233085449Y-137616179D01*
X233091005Y-137607865D01*
X233097223Y-137600289D01*
X233104289Y-137593223D01*
X233111865Y-137587005D01*
X233120179Y-137581449D01*
X233128824Y-137576828D01*
X233138062Y-137573002D01*
X233147441Y-137570157D01*
X233157245Y-137568207D01*
X233167000Y-137567246D01*
X233172000Y-137567000D01*
X234188000Y-137567000D01*
X234193000Y-137567246D01*
X234202755Y-137568207D01*
X234212559Y-137570157D01*
X234221938Y-137573002D01*
X234231176Y-137576828D01*
X234239821Y-137581449D01*
X234248135Y-137587005D01*
X234255711Y-137593223D01*
X234262777Y-137600289D01*
X234268995Y-137607865D01*
X234274551Y-137616179D01*
X234279172Y-137624824D01*
X234282998Y-137634062D01*
X234285843Y-137643441D01*
X234287793Y-137653245D01*
X234288754Y-137663000D01*
X234289000Y-137668000D01*
X234289000Y-139036243D01*
X234345870Y-139093113D01*
X234349232Y-139096821D01*
X234402150Y-139161302D01*
X234405131Y-139165322D01*
X234451474Y-139234679D01*
X234454047Y-139238971D01*
X234493369Y-139312536D01*
X234495509Y-139317062D01*
X234527430Y-139394128D01*
X234529116Y-139398839D01*
X234553331Y-139478662D01*
X234554547Y-139483518D01*
X234570820Y-139565330D01*
X234571554Y-139570280D01*
X234579730Y-139653293D01*
X234579976Y-139658292D01*
X234579976Y-139741708D01*
X234579730Y-139746707D01*
G37*
G36*
X237119730Y-139746707D02*
G01*
X237111554Y-139829720D01*
X237110820Y-139834670D01*
X237094547Y-139916482D01*
X237093331Y-139921338D01*
X237069116Y-140001161D01*
X237067430Y-140005872D01*
X237035509Y-140082938D01*
X237033369Y-140087464D01*
X236994047Y-140161029D01*
X236991474Y-140165321D01*
X236945131Y-140234678D01*
X236942150Y-140238698D01*
X236889232Y-140303179D01*
X236885870Y-140306887D01*
X236826887Y-140365870D01*
X236823179Y-140369232D01*
X236758698Y-140422150D01*
X236754678Y-140425131D01*
X236685321Y-140471474D01*
X236681029Y-140474047D01*
X236607464Y-140513369D01*
X236602938Y-140515509D01*
X236525872Y-140547430D01*
X236521161Y-140549116D01*
X236441338Y-140573331D01*
X236436482Y-140574547D01*
X236354670Y-140590820D01*
X236349720Y-140591554D01*
X236266707Y-140599730D01*
X236261708Y-140599976D01*
X236178292Y-140599976D01*
X236173293Y-140599730D01*
X236090280Y-140591554D01*
X236085330Y-140590820D01*
X236003518Y-140574547D01*
X235998662Y-140573331D01*
X235918839Y-140549116D01*
X235914128Y-140547430D01*
X235837062Y-140515509D01*
X235832536Y-140513369D01*
X235758971Y-140474047D01*
X235754679Y-140471474D01*
X235685322Y-140425131D01*
X235681302Y-140422150D01*
X235616821Y-140369232D01*
X235613113Y-140365870D01*
X235554130Y-140306887D01*
X235550768Y-140303179D01*
X235497850Y-140238698D01*
X235494869Y-140234678D01*
X235448526Y-140165321D01*
X235445953Y-140161029D01*
X235406631Y-140087464D01*
X235404491Y-140082938D01*
X235372570Y-140005872D01*
X235370884Y-140001161D01*
X235346669Y-139921338D01*
X235345453Y-139916482D01*
X235329180Y-139834670D01*
X235328446Y-139829720D01*
X235320270Y-139746707D01*
X235320024Y-139741708D01*
X235320024Y-139658292D01*
X235320270Y-139653293D01*
X235328446Y-139570280D01*
X235329180Y-139565330D01*
X235345453Y-139483518D01*
X235346669Y-139478662D01*
X235370884Y-139398839D01*
X235372570Y-139394128D01*
X235404491Y-139317062D01*
X235406631Y-139312536D01*
X235445953Y-139238971D01*
X235448526Y-139234679D01*
X235494869Y-139165322D01*
X235497850Y-139161302D01*
X235550768Y-139096821D01*
X235554130Y-139093113D01*
X235611000Y-139036243D01*
X235611000Y-137668000D01*
X235611246Y-137663000D01*
X235612207Y-137653245D01*
X235614157Y-137643441D01*
X235617002Y-137634062D01*
X235620828Y-137624824D01*
X235625449Y-137616179D01*
X235631005Y-137607865D01*
X235637223Y-137600289D01*
X235644289Y-137593223D01*
X235651865Y-137587005D01*
X235660179Y-137581449D01*
X235668824Y-137576828D01*
X235678062Y-137573002D01*
X235687441Y-137570157D01*
X235697245Y-137568207D01*
X235707000Y-137567246D01*
X235712000Y-137567000D01*
X236728000Y-137567000D01*
X236733000Y-137567246D01*
X236742755Y-137568207D01*
X236752559Y-137570157D01*
X236761938Y-137573002D01*
X236771176Y-137576828D01*
X236779821Y-137581449D01*
X236788135Y-137587005D01*
X236795711Y-137593223D01*
X236802777Y-137600289D01*
X236808995Y-137607865D01*
X236814551Y-137616179D01*
X236819172Y-137624824D01*
X236822998Y-137634062D01*
X236825843Y-137643441D01*
X236827793Y-137653245D01*
X236828754Y-137663000D01*
X236829000Y-137668000D01*
X236829000Y-139036243D01*
X236885870Y-139093113D01*
X236889232Y-139096821D01*
X236942150Y-139161302D01*
X236945131Y-139165322D01*
X236991474Y-139234679D01*
X236994047Y-139238971D01*
X237033369Y-139312536D01*
X237035509Y-139317062D01*
X237067430Y-139394128D01*
X237069116Y-139398839D01*
X237093331Y-139478662D01*
X237094547Y-139483518D01*
X237110820Y-139565330D01*
X237111554Y-139570280D01*
X237119730Y-139653293D01*
X237119976Y-139658292D01*
X237119976Y-139741708D01*
X237119730Y-139746707D01*
G37*
D15*
X153670000Y-58420000D03*
D16*
X156210000Y-58420000D03*
D15*
X160020000Y-58420000D03*
D16*
X162560000Y-58420000D03*
D15*
X166370000Y-58420000D03*
D16*
X168910000Y-58420000D03*
D15*
X172720000Y-58420000D03*
D16*
X175260000Y-58420000D03*
D15*
X179070000Y-58420000D03*
D16*
X181610000Y-58420000D03*
D15*
X185420000Y-58420000D03*
D16*
X187960000Y-58420000D03*
D15*
X191770000Y-58420000D03*
D16*
X194310000Y-58420000D03*
D15*
X198120000Y-58420000D03*
D16*
X200660000Y-58420000D03*
D15*
X204470000Y-58420000D03*
D16*
X207010000Y-58420000D03*
D15*
X210820000Y-58420000D03*
D16*
X213360000Y-58420000D03*
D15*
X217170000Y-58420000D03*
D16*
X219710000Y-58420000D03*
D15*
X223520000Y-58420000D03*
D16*
X226060000Y-58420000D03*
D15*
X229870000Y-58420000D03*
D16*
X232410000Y-58420000D03*
D15*
X236220000Y-58420000D03*
D16*
X238760000Y-58420000D03*
D15*
X242570000Y-58420000D03*
D16*
X245110000Y-58420000D03*
D15*
X248920000Y-58420000D03*
D16*
X251460000Y-58420000D03*
D11*
X243840000Y-96560000D03*
D17*
X243840000Y-99060000D03*
D11*
X152400000Y-66080000D03*
D17*
X152400000Y-68580000D03*
D11*
X82296000Y-120182000D03*
D17*
X82296000Y-122682000D03*
D10*
X210820000Y-76200000D03*
X233680000Y-83820000D03*
X213360000Y-76200000D03*
X231140000Y-83820000D03*
X215900000Y-76200000D03*
X228600000Y-83820000D03*
X218440000Y-76200000D03*
X226060000Y-83820000D03*
X220980000Y-76200000D03*
X223520000Y-83820000D03*
X223520000Y-76200000D03*
X220980000Y-83820000D03*
X226060000Y-76200000D03*
X218440000Y-83820000D03*
X228600000Y-76200000D03*
X215900000Y-83820000D03*
X231140000Y-76200000D03*
X213360000Y-83820000D03*
X233680000Y-76200000D03*
D17*
X210820000Y-83820000D03*
D10*
X172720000Y-76200000D03*
X195580000Y-83820000D03*
X175260000Y-76200000D03*
X193040000Y-83820000D03*
X177800000Y-76200000D03*
X190500000Y-83820000D03*
X180340000Y-76200000D03*
X187960000Y-83820000D03*
X182880000Y-76200000D03*
X185420000Y-83820000D03*
X185420000Y-76200000D03*
X182880000Y-83820000D03*
X187960000Y-76200000D03*
X180340000Y-83820000D03*
X190500000Y-76200000D03*
X177800000Y-83820000D03*
X193040000Y-76200000D03*
X175260000Y-83820000D03*
X195580000Y-76200000D03*
D17*
X172720000Y-83820000D03*
D10*
X208280000Y-106680000D03*
X231140000Y-114300000D03*
X210820000Y-106680000D03*
X228600000Y-114300000D03*
X213360000Y-106680000D03*
X226060000Y-114300000D03*
X215900000Y-106680000D03*
X223520000Y-114300000D03*
X218440000Y-106680000D03*
X220980000Y-114300000D03*
X220980000Y-106680000D03*
X218440000Y-114300000D03*
X223520000Y-106680000D03*
X215900000Y-114300000D03*
X226060000Y-106680000D03*
X213360000Y-114300000D03*
X228600000Y-106680000D03*
X210820000Y-114300000D03*
X231140000Y-106680000D03*
D17*
X208280000Y-114300000D03*
D10*
X170180000Y-106680000D03*
X193040000Y-114300000D03*
X172720000Y-106680000D03*
X190500000Y-114300000D03*
X175260000Y-106680000D03*
X187960000Y-114300000D03*
X177800000Y-106680000D03*
X185420000Y-114300000D03*
X180340000Y-106680000D03*
X182880000Y-114300000D03*
X182880000Y-106680000D03*
X180340000Y-114300000D03*
X185420000Y-106680000D03*
X177800000Y-114300000D03*
X187960000Y-106680000D03*
X175260000Y-114300000D03*
X190500000Y-106680000D03*
X172720000Y-114300000D03*
X193040000Y-106680000D03*
D17*
X170180000Y-114300000D03*
D10*
X132080000Y-106680000D03*
X154940000Y-114300000D03*
X134620000Y-106680000D03*
X152400000Y-114300000D03*
X137160000Y-106680000D03*
X149860000Y-114300000D03*
X139700000Y-106680000D03*
X147320000Y-114300000D03*
X142240000Y-106680000D03*
X144780000Y-114300000D03*
X144780000Y-106680000D03*
X142240000Y-114300000D03*
X147320000Y-106680000D03*
X139700000Y-114300000D03*
X149860000Y-106680000D03*
X137160000Y-114300000D03*
X152400000Y-106680000D03*
X134620000Y-114300000D03*
X154940000Y-106680000D03*
D17*
X132080000Y-114300000D03*
D10*
X93980000Y-106680000D03*
X116840000Y-114300000D03*
X96520000Y-106680000D03*
X114300000Y-114300000D03*
X99060000Y-106680000D03*
X111760000Y-114300000D03*
X101600000Y-106680000D03*
X109220000Y-114300000D03*
X104140000Y-106680000D03*
X106680000Y-114300000D03*
X106680000Y-106680000D03*
X104140000Y-114300000D03*
X109220000Y-106680000D03*
X101600000Y-114300000D03*
X111760000Y-106680000D03*
X99060000Y-114300000D03*
X114300000Y-106680000D03*
X96520000Y-114300000D03*
X116840000Y-106680000D03*
D17*
X93980000Y-114300000D03*
D10*
X139700000Y-76200000D03*
X154940000Y-83820000D03*
X142240000Y-76200000D03*
X152400000Y-83820000D03*
X144780000Y-76200000D03*
X149860000Y-83820000D03*
X147320000Y-76200000D03*
X147320000Y-83820000D03*
X149860000Y-76200000D03*
X144780000Y-83820000D03*
X152400000Y-76200000D03*
X142240000Y-83820000D03*
X154940000Y-76200000D03*
D17*
X139700000Y-83820000D03*
D10*
X172720000Y-68580000D03*
X175260000Y-68580000D03*
X177800000Y-68580000D03*
X180340000Y-68580000D03*
X182880000Y-68580000D03*
X185420000Y-68580000D03*
X187960000Y-68580000D03*
X190500000Y-68580000D03*
D17*
X193040000Y-68580000D03*
D10*
X215900000Y-68580000D03*
X218440000Y-68580000D03*
X220980000Y-68580000D03*
X223520000Y-68580000D03*
X226060000Y-68580000D03*
X228600000Y-68580000D03*
X231140000Y-68580000D03*
X233680000Y-68580000D03*
D17*
X236220000Y-68580000D03*
D18*
X236220000Y-127000000D03*
X246380000Y-127000000D03*
X236220000Y-119380000D03*
X246380000Y-119380000D03*
D12*
X53340000Y-55880000D03*
X55880000Y-55880000D03*
X58420000Y-55880000D03*
X60960000Y-55880000D03*
X63500000Y-55880000D03*
X66040000Y-55880000D03*
X68580000Y-55880000D03*
X71120000Y-55880000D03*
X73660000Y-55880000D03*
X76200000Y-55880000D03*
X78740000Y-55880000D03*
X81280000Y-55880000D03*
X83820000Y-55880000D03*
X86360000Y-55880000D03*
X88900000Y-55880000D03*
D13*
X91440000Y-55880000D03*
D18*
X241300000Y-127000000D03*
X241300000Y-119380000D03*
D11*
X203200000Y-81200000D03*
X203200000Y-76200000D03*
X165100000Y-81200000D03*
X165100000Y-76200000D03*
X200660000Y-111680000D03*
X200660000Y-106680000D03*
X162560000Y-111680000D03*
X162560000Y-106680000D03*
X124460000Y-111680000D03*
X124460000Y-106680000D03*
X86360000Y-111680000D03*
X86360000Y-106680000D03*
X132080000Y-81200000D03*
X132080000Y-76200000D03*
M02*
