M48
; DRILL file {KiCad (5.1.5)-3} date 2022-12-08 9:40:58 PM
; FORMAT={-:-/ absolute / metric / decimal}
; #@! TF.CreationDate,2022-12-08T21:40:58-08:00
; #@! TF.GenerationSoftware,Kicad,Pcbnew,(5.1.5)-3
; #@! TF.FileFunction,Plated,1,2,PTH
FMAT,2
METRIC
T1C0.400
T2C0.800
T3C0.900
T4C1.000
T5C1.001
%
G90
G05
T1
X55.88Y-85.852
X55.88Y-87.884
X58.42Y-85.852
X58.42Y-88.9
X60.96Y-85.852
X60.96Y-89.916
X63.5Y-90.932
X63.5Y-85.852
X66.04Y-85.852
X66.04Y-91.948
X68.58Y-85.852
X68.58Y-92.964
X71.12Y-85.852
X71.12Y-93.98
X73.66Y-94.996
X73.66Y-85.852
X76.2Y-85.852
X76.2Y-96.012
X78.74Y-85.852
X78.74Y-97.028
X81.28Y-85.852
X81.28Y-98.044
X83.82Y-99.06
X83.82Y-85.852
X86.36Y-85.852
X86.36Y-100.076
X88.9Y-85.852
X88.9Y-101.092
X91.44Y-85.852
X91.44Y-102.108
X91.44Y-108.458
X93.98Y-81.534
X93.98Y-82.804
X93.98Y-103.378
X93.98Y-104.648
X95.25Y-86.868
X95.25Y-104.394
X96.52Y-104.394
X96.52Y-93.98
X100.33Y-116.586
X100.33Y-118.364
X101.6Y-116.586
X101.6Y-118.364
X101.6Y-125.476
X102.87Y-87.884
X102.87Y-104.394
X102.87Y-116.586
X102.87Y-119.38
X104.14Y-92.964
X104.14Y-104.394
X104.14Y-125.476
X105.41Y-88.9
X105.41Y-104.394
X106.68Y-91.948
X106.68Y-104.394
X109.22Y-116.586
X109.22Y-119.38
X110.49Y-116.586
X110.49Y-122.428
X111.76Y-116.586
X111.76Y-120.396
X111.76Y-125.476
X113.03Y-89.916
X113.03Y-104.394
X113.03Y-116.586
X113.03Y-121.412
X113.03Y-125.476
X114.3Y-90.932
X114.3Y-104.394
X114.3Y-122.428
X114.3Y-125.476
X115.57Y-123.444
X115.57Y-125.476
X116.84Y-108.458
X118.364Y-112.776
X126.746Y-108.458
X128.016Y-85.852
X128.016Y-104.394
X133.35Y-94.996
X133.35Y-104.394
X134.62Y-102.108
X134.62Y-104.394
X137.16Y-116.586
X137.16Y-125.476
X138.43Y-116.586
X138.43Y-132.588
X139.7Y-81.534
X139.7Y-116.586
X139.7Y-126.492
X140.97Y-96.012
X140.97Y-104.394
X140.97Y-116.586
X140.97Y-131.572
X142.24Y-101.092
X142.24Y-104.394
X143.51Y-97.028
X143.51Y-104.394
X144.78Y-100.076
X144.78Y-104.394
X144.78Y-81.534
X147.32Y-116.586
X147.32Y-127.508
X148.59Y-116.586
X148.59Y-130.556
X149.86Y-116.586
X149.86Y-128.524
X151.13Y-98.044
X151.13Y-104.394
X151.13Y-116.586
X151.13Y-129.54
X152.4Y-99.06
X152.4Y-104.394
X169.164Y-78.486
X169.164Y-82.55
X172.212Y-73.66
X172.72Y-85.852
X172.72Y-104.394
X173.482Y-73.66
X175.26Y-86.868
X175.26Y-104.394
X177.8Y-87.884
X177.8Y-104.394
X180.34Y-88.9
X180.34Y-104.394
X182.88Y-89.916
X182.88Y-104.394
X185.42Y-90.932
X185.42Y-104.394
X187.96Y-91.948
X187.96Y-104.394
X190.5Y-92.964
X190.5Y-104.394
X193.04Y-93.98
X193.04Y-104.394
X194.818Y-73.66
X196.088Y-73.66
X197.612Y-109.728
X206.756Y-76.962
X206.756Y-82.55
X213.36Y-94.996
X213.36Y-104.394
X215.9Y-96.012
X215.9Y-104.394
X218.44Y-97.028
X218.44Y-104.394
X220.98Y-104.394
X220.98Y-98.044
X223.52Y-104.394
X223.52Y-99.06
X226.06Y-100.076
X226.06Y-104.394
X228.6Y-104.394
X228.6Y-101.092
X231.14Y-102.108
X231.14Y-104.394
X236.22Y-77.978
X236.22Y-82.55
X237.998Y-102.108
X237.998Y-104.648
X240.284Y-102.108
X240.284Y-104.648
T2
X124.46Y-106.68
X124.46Y-111.68
X93.98Y-106.68
X93.98Y-114.3
X96.52Y-106.68
X96.52Y-114.3
X99.06Y-106.68
X99.06Y-114.3
X101.6Y-106.68
X101.6Y-114.3
X104.14Y-106.68
X104.14Y-114.3
X106.68Y-106.68
X106.68Y-114.3
X109.22Y-106.68
X109.22Y-114.3
X111.76Y-106.68
X111.76Y-114.3
X114.3Y-106.68
X114.3Y-114.3
X116.84Y-106.68
X116.84Y-114.3
X132.08Y-106.68
X132.08Y-114.3
X134.62Y-106.68
X134.62Y-114.3
X137.16Y-106.68
X137.16Y-114.3
X139.7Y-106.68
X139.7Y-114.3
X142.24Y-106.68
X142.24Y-114.3
X144.78Y-106.68
X144.78Y-114.3
X147.32Y-106.68
X147.32Y-114.3
X149.86Y-106.68
X149.86Y-114.3
X152.4Y-106.68
X152.4Y-114.3
X154.94Y-106.68
X154.94Y-114.3
X170.18Y-106.68
X170.18Y-114.3
X172.72Y-106.68
X172.72Y-114.3
X175.26Y-106.68
X175.26Y-114.3
X177.8Y-106.68
X177.8Y-114.3
X180.34Y-106.68
X180.34Y-114.3
X182.88Y-106.68
X182.88Y-114.3
X185.42Y-106.68
X185.42Y-114.3
X187.96Y-106.68
X187.96Y-114.3
X190.5Y-106.68
X190.5Y-114.3
X193.04Y-106.68
X193.04Y-114.3
X82.296Y-120.182
X82.296Y-122.682
X208.28Y-106.68
X208.28Y-114.3
X210.82Y-106.68
X210.82Y-114.3
X213.36Y-106.68
X213.36Y-114.3
X215.9Y-106.68
X215.9Y-114.3
X218.44Y-106.68
X218.44Y-114.3
X220.98Y-106.68
X220.98Y-114.3
X223.52Y-106.68
X223.52Y-114.3
X226.06Y-106.68
X226.06Y-114.3
X228.6Y-106.68
X228.6Y-114.3
X231.14Y-106.68
X231.14Y-114.3
X243.84Y-96.56
X243.84Y-99.06
X132.08Y-76.2
X132.08Y-81.2
X172.72Y-76.2
X172.72Y-83.82
X175.26Y-76.2
X175.26Y-83.82
X177.8Y-76.2
X177.8Y-83.82
X180.34Y-76.2
X180.34Y-83.82
X182.88Y-76.2
X182.88Y-83.82
X185.42Y-76.2
X185.42Y-83.82
X187.96Y-76.2
X187.96Y-83.82
X190.5Y-76.2
X190.5Y-83.82
X193.04Y-76.2
X193.04Y-83.82
X195.58Y-76.2
X195.58Y-83.82
X86.36Y-106.68
X86.36Y-111.68
X210.82Y-76.2
X210.82Y-83.82
X213.36Y-76.2
X213.36Y-83.82
X215.9Y-76.2
X215.9Y-83.82
X218.44Y-76.2
X218.44Y-83.82
X220.98Y-76.2
X220.98Y-83.82
X223.52Y-76.2
X223.52Y-83.82
X226.06Y-76.2
X226.06Y-83.82
X228.6Y-76.2
X228.6Y-83.82
X231.14Y-76.2
X231.14Y-83.82
X233.68Y-76.2
X233.68Y-83.82
X152.4Y-66.08
X152.4Y-68.58
X236.22Y-91.44
X246.38Y-91.44
X162.56Y-106.68
X162.56Y-111.68
X200.66Y-106.68
X200.66Y-111.68
X215.9Y-68.58
X218.44Y-68.58
X220.98Y-68.58
X223.52Y-68.58
X226.06Y-68.58
X228.6Y-68.58
X231.14Y-68.58
X233.68Y-68.58
X236.22Y-68.58
X195.58Y-119.38
X205.74Y-119.38
X203.2Y-76.2
X203.2Y-81.2
X139.7Y-76.2
X139.7Y-83.82
X142.24Y-76.2
X142.24Y-83.82
X144.78Y-76.2
X144.78Y-83.82
X147.32Y-76.2
X147.32Y-83.82
X149.86Y-76.2
X149.86Y-83.82
X152.4Y-76.2
X152.4Y-83.82
X154.94Y-76.2
X154.94Y-83.82
X165.1Y-76.2
X165.1Y-81.2
X172.72Y-68.58
X175.26Y-68.58
X177.8Y-68.58
X180.34Y-68.58
X182.88Y-68.58
X185.42Y-68.58
X187.96Y-68.58
X190.5Y-68.58
X193.04Y-68.58
T3
X160.02Y-58.42
X162.56Y-58.42
X248.92Y-58.42
X251.46Y-58.42
X185.42Y-58.42
X187.96Y-58.42
X242.57Y-58.42
X245.11Y-58.42
X191.77Y-58.42
X194.31Y-58.42
X153.67Y-58.42
X156.21Y-58.42
X166.37Y-58.42
X168.91Y-58.42
X223.52Y-58.42
X226.06Y-58.42
X210.82Y-58.42
X213.36Y-58.42
X217.17Y-58.42
X219.71Y-58.42
X229.87Y-58.42
X232.41Y-58.42
X204.47Y-58.42
X207.01Y-58.42
X236.22Y-58.42
X238.76Y-58.42
X179.07Y-58.42
X181.61Y-58.42
X198.12Y-58.42
X200.66Y-58.42
X172.72Y-58.42
X175.26Y-58.42
T4
X63.5Y-139.7
X66.04Y-139.7
X68.58Y-139.7
X71.12Y-139.7
X73.66Y-139.7
X76.2Y-139.7
X78.74Y-139.7
X81.28Y-139.7
X83.82Y-139.7
X86.36Y-139.7
X53.34Y-55.88
X55.88Y-55.88
X58.42Y-55.88
X60.96Y-55.88
X63.5Y-55.88
X66.04Y-55.88
X68.58Y-55.88
X71.12Y-55.88
X73.66Y-55.88
X76.2Y-55.88
X78.74Y-55.88
X81.28Y-55.88
X83.82Y-55.88
X86.36Y-55.88
X88.9Y-55.88
X91.44Y-55.88
X162.56Y-137.16
X162.56Y-139.7
X165.1Y-137.16
X165.1Y-139.7
X167.64Y-137.16
X167.64Y-139.7
X170.18Y-137.16
X170.18Y-139.7
X172.72Y-137.16
X172.72Y-139.7
X175.26Y-137.16
X175.26Y-139.7
X177.8Y-137.16
X177.8Y-139.7
X180.34Y-137.16
X180.34Y-139.7
X182.88Y-137.16
X182.88Y-139.7
X185.42Y-137.16
X185.42Y-139.7
X187.96Y-137.16
X187.96Y-139.7
X190.5Y-137.16
X190.5Y-139.7
X193.04Y-137.16
X193.04Y-139.7
X195.58Y-137.16
X195.58Y-139.7
X198.12Y-137.16
X198.12Y-139.7
X200.66Y-137.16
X200.66Y-139.7
X203.2Y-137.16
X203.2Y-139.7
X205.74Y-137.16
X205.74Y-139.7
X208.28Y-137.16
X208.28Y-139.7
X210.82Y-137.16
X210.82Y-139.7
X213.36Y-137.16
X213.36Y-139.7
X215.9Y-137.16
X215.9Y-139.7
X218.44Y-137.16
X218.44Y-139.7
X220.98Y-137.16
X220.98Y-139.7
X223.52Y-137.16
X223.52Y-139.7
X226.06Y-137.16
X226.06Y-139.7
X228.6Y-137.16
X228.6Y-139.7
X231.14Y-137.16
X231.14Y-139.7
X233.68Y-137.16
X233.68Y-139.7
X236.22Y-137.16
X236.22Y-139.7
X238.76Y-137.16
X238.76Y-139.7
X241.3Y-137.16
X241.3Y-139.7
X99.06Y-139.7
X101.6Y-139.7
X104.14Y-139.7
X106.68Y-139.7
X109.22Y-139.7
X111.76Y-139.7
X114.3Y-139.7
X116.84Y-139.7
X119.38Y-139.7
X121.92Y-139.7
X124.46Y-139.7
X127.0Y-139.7
X129.54Y-139.7
X132.08Y-139.7
X134.62Y-139.7
X137.16Y-139.7
X241.3Y-73.66
X241.3Y-76.2
X241.3Y-78.74
X96.52Y-55.88
X99.06Y-55.88
T5
X246.38Y-119.38
X241.3Y-127.0
X241.3Y-119.38
X236.22Y-119.38
X236.22Y-127.0
X246.38Y-127.0
T0
M30
