%FSLAX45Y45*%
G04 Gerber Fmt 4.5, Leading zero omitted, Abs format (unit mm)*
G04 Created by KiCad (PCBNEW (5.1.5)-3) date 2022-12-08 22:20:36*
%MOMM*%
%LPD*%
G04 APERTURE LIST*
%TA.AperFunction,Profile*%
%ADD10C,0.050000*%
%TD*%
%ADD11C,0.200000*%
%ADD12C,0.300000*%
G04 APERTURE END LIST*
D10*
X25400000Y-14160500D02*
G75*
G02X25209500Y-14351000I-190500J0D01*
G01*
X5270500Y-14351000D02*
G75*
G02X5080000Y-14160500I0J190500D01*
G01*
X5080000Y-4762500D02*
G75*
G02X5270500Y-4572000I190500J0D01*
G01*
X25209500Y-4572000D02*
G75*
G02X25400000Y-4762500I0J-190500D01*
G01*
X5270500Y-14351000D02*
X25209500Y-14351000D01*
X5080000Y-4762500D02*
X5080000Y-14160500D01*
X25209500Y-4572000D02*
X5270500Y-4572000D01*
X25400000Y-14160500D02*
X25400000Y-4762500D01*
D11*
X5567999Y-8565200D02*
X5607999Y-8605200D01*
X5607999Y-8565200D02*
X5567999Y-8605200D01*
X5568000Y-8768402D02*
X5608000Y-8808402D01*
X5608000Y-8768402D02*
X5568000Y-8808402D01*
X5822000Y-8565199D02*
X5862000Y-8605199D01*
X5862000Y-8565199D02*
X5822000Y-8605199D01*
X5822000Y-8870001D02*
X5862000Y-8910001D01*
X5862000Y-8870001D02*
X5822000Y-8910001D01*
X6076000Y-8565200D02*
X6116000Y-8605200D01*
X6116000Y-8565200D02*
X6076000Y-8605200D01*
X6076000Y-8971600D02*
X6116000Y-9011600D01*
X6116000Y-8971600D02*
X6076000Y-9011600D01*
X6329999Y-9073200D02*
X6369999Y-9113200D01*
X6369999Y-9073200D02*
X6329999Y-9113200D01*
X6330000Y-8565200D02*
X6370000Y-8605200D01*
X6370000Y-8565200D02*
X6330000Y-8605200D01*
X6584000Y-8565200D02*
X6624000Y-8605200D01*
X6624000Y-8565200D02*
X6584000Y-8605200D01*
X6584000Y-9174800D02*
X6624000Y-9214800D01*
X6624000Y-9174800D02*
X6584000Y-9214800D01*
X6838000Y-8565200D02*
X6878000Y-8605200D01*
X6878000Y-8565200D02*
X6838000Y-8605200D01*
X6838000Y-9276401D02*
X6878000Y-9316401D01*
X6878000Y-9276401D02*
X6838000Y-9316401D01*
X7092000Y-8565201D02*
X7132000Y-8605201D01*
X7132000Y-8565201D02*
X7092000Y-8605201D01*
X7092000Y-9378000D02*
X7132000Y-9418000D01*
X7132000Y-9378000D02*
X7092000Y-9418000D01*
X7346000Y-9479600D02*
X7386000Y-9519600D01*
X7386000Y-9479600D02*
X7346000Y-9519600D01*
X7346000Y-8565200D02*
X7386000Y-8605200D01*
X7386000Y-8565200D02*
X7346000Y-8605200D01*
X7600000Y-8565200D02*
X7640000Y-8605200D01*
X7640000Y-8565200D02*
X7600000Y-8605200D01*
X7600000Y-9581198D02*
X7640000Y-9621198D01*
X7640000Y-9581198D02*
X7600000Y-9621198D01*
X7854000Y-8565200D02*
X7894000Y-8605200D01*
X7894000Y-8565200D02*
X7854000Y-8605200D01*
X7854000Y-9682801D02*
X7894000Y-9722801D01*
X7894000Y-9682801D02*
X7854000Y-9722801D01*
X8108000Y-8565200D02*
X8148000Y-8605200D01*
X8148000Y-8565200D02*
X8108000Y-8605200D01*
X8108000Y-9784401D02*
X8148000Y-9824401D01*
X8148000Y-9784401D02*
X8108000Y-9824401D01*
X8362000Y-9886000D02*
X8402000Y-9926000D01*
X8402000Y-9886000D02*
X8362000Y-9926000D01*
X8362000Y-8565200D02*
X8402000Y-8605200D01*
X8402000Y-8565200D02*
X8362000Y-8605200D01*
X8616000Y-8565200D02*
X8656000Y-8605200D01*
X8656000Y-8565200D02*
X8616000Y-8605200D01*
X8616000Y-9987598D02*
X8656000Y-10027598D01*
X8656000Y-9987598D02*
X8616000Y-10027598D01*
X8870000Y-8565200D02*
X8910000Y-8605200D01*
X8910000Y-8565200D02*
X8870000Y-8605200D01*
X8870000Y-10089200D02*
X8910000Y-10129200D01*
X8910000Y-10089200D02*
X8870000Y-10129200D01*
X9124000Y-8565200D02*
X9164000Y-8605200D01*
X9164000Y-8565200D02*
X9124000Y-8605200D01*
X9124000Y-10190800D02*
X9164000Y-10230800D01*
X9164000Y-10190800D02*
X9124000Y-10230800D01*
X9124002Y-10825800D02*
X9164002Y-10865800D01*
X9164002Y-10825800D02*
X9124002Y-10865800D01*
X9378000Y-8133401D02*
X9418000Y-8173401D01*
X9418000Y-8133401D02*
X9378000Y-8173401D01*
X9378000Y-8260400D02*
X9418000Y-8300400D01*
X9418000Y-8260400D02*
X9378000Y-8300400D01*
X9378000Y-10317800D02*
X9418000Y-10357800D01*
X9418000Y-10317800D02*
X9378000Y-10357800D01*
X9378000Y-10444811D02*
X9418000Y-10484811D01*
X9418000Y-10444811D02*
X9378000Y-10484811D01*
X9504999Y-8666800D02*
X9544999Y-8706800D01*
X9544999Y-8666800D02*
X9504999Y-8706800D01*
X9505000Y-10419400D02*
X9545000Y-10459400D01*
X9545000Y-10419400D02*
X9505000Y-10459400D01*
X9632000Y-10419400D02*
X9672000Y-10459400D01*
X9672000Y-10419400D02*
X9632000Y-10459400D01*
X9632001Y-9378000D02*
X9672001Y-9418000D01*
X9672001Y-9378000D02*
X9632001Y-9418000D01*
X10013000Y-11638600D02*
X10053000Y-11678600D01*
X10053000Y-11638600D02*
X10013000Y-11678600D01*
X10013000Y-11816400D02*
X10053000Y-11856400D01*
X10053000Y-11816400D02*
X10013000Y-11856400D01*
X10140000Y-11638600D02*
X10180000Y-11678600D01*
X10180000Y-11638600D02*
X10140000Y-11678600D01*
X10140000Y-11816400D02*
X10180000Y-11856400D01*
X10180000Y-11816400D02*
X10140000Y-11856400D01*
X10140000Y-12527601D02*
X10180000Y-12567601D01*
X10180000Y-12527601D02*
X10140000Y-12567601D01*
X10267000Y-8768400D02*
X10307000Y-8808400D01*
X10307000Y-8768400D02*
X10267000Y-8808400D01*
X10267000Y-10419400D02*
X10307000Y-10459400D01*
X10307000Y-10419400D02*
X10267000Y-10459400D01*
X10267000Y-11638600D02*
X10307000Y-11678600D01*
X10307000Y-11638600D02*
X10267000Y-11678600D01*
X10267000Y-11918000D02*
X10307000Y-11958000D01*
X10307000Y-11918000D02*
X10267000Y-11958000D01*
X10394000Y-9276400D02*
X10434000Y-9316400D01*
X10434000Y-9276400D02*
X10394000Y-9316400D01*
X10394000Y-10419400D02*
X10434000Y-10459400D01*
X10434000Y-10419400D02*
X10394000Y-10459400D01*
X10394000Y-12527601D02*
X10434000Y-12567601D01*
X10434000Y-12527601D02*
X10394000Y-12567601D01*
X10521000Y-8870000D02*
X10561000Y-8910000D01*
X10561000Y-8870000D02*
X10521000Y-8910000D01*
X10521000Y-10419400D02*
X10561000Y-10459400D01*
X10561000Y-10419400D02*
X10521000Y-10459400D01*
X10648000Y-9174800D02*
X10688000Y-9214800D01*
X10688000Y-9174800D02*
X10648000Y-9214800D01*
X10648000Y-10419400D02*
X10688000Y-10459400D01*
X10688000Y-10419400D02*
X10648000Y-10459400D01*
X10902000Y-11638600D02*
X10942000Y-11678600D01*
X10942000Y-11638600D02*
X10902000Y-11678600D01*
X10902000Y-11918000D02*
X10942000Y-11958000D01*
X10942000Y-11918000D02*
X10902000Y-11958000D01*
X11029000Y-11638600D02*
X11069000Y-11678600D01*
X11069000Y-11638600D02*
X11029000Y-11678600D01*
X11029000Y-12222800D02*
X11069000Y-12262800D01*
X11069000Y-12222800D02*
X11029000Y-12262800D01*
X11156000Y-11638600D02*
X11196000Y-11678600D01*
X11196000Y-11638600D02*
X11156000Y-11678600D01*
X11156000Y-12019600D02*
X11196000Y-12059600D01*
X11196000Y-12019600D02*
X11156000Y-12059600D01*
X11156000Y-12527600D02*
X11196000Y-12567600D01*
X11196000Y-12527600D02*
X11156000Y-12567600D01*
X11283000Y-8971600D02*
X11323000Y-9011600D01*
X11323000Y-8971600D02*
X11283000Y-9011600D01*
X11283000Y-10419400D02*
X11323000Y-10459400D01*
X11323000Y-10419400D02*
X11283000Y-10459400D01*
X11283000Y-11638600D02*
X11323000Y-11678600D01*
X11323000Y-11638600D02*
X11283000Y-11678600D01*
X11283000Y-12121200D02*
X11323000Y-12161200D01*
X11323000Y-12121200D02*
X11283000Y-12161200D01*
X11283000Y-12527600D02*
X11323000Y-12567600D01*
X11323000Y-12527600D02*
X11283000Y-12567600D01*
X11410000Y-9073200D02*
X11450000Y-9113200D01*
X11450000Y-9073200D02*
X11410000Y-9113200D01*
X11410000Y-10419400D02*
X11450000Y-10459400D01*
X11450000Y-10419400D02*
X11410000Y-10459400D01*
X11410000Y-12222800D02*
X11450000Y-12262800D01*
X11450000Y-12222800D02*
X11410000Y-12262800D01*
X11410000Y-12527600D02*
X11450000Y-12567600D01*
X11450000Y-12527600D02*
X11410000Y-12567600D01*
X11537000Y-12324400D02*
X11577000Y-12364400D01*
X11577000Y-12324400D02*
X11537000Y-12364400D01*
X11537000Y-12527601D02*
X11577000Y-12567601D01*
X11577000Y-12527601D02*
X11537000Y-12567601D01*
X11664000Y-10825801D02*
X11704000Y-10865801D01*
X11704000Y-10825801D02*
X11664000Y-10865801D01*
X11816400Y-11257600D02*
X11856400Y-11297600D01*
X11856400Y-11257600D02*
X11816400Y-11297600D01*
X12654600Y-10825800D02*
X12694600Y-10865800D01*
X12694600Y-10825800D02*
X12654600Y-10865800D01*
X12781600Y-8565200D02*
X12821600Y-8605200D01*
X12821600Y-8565200D02*
X12781600Y-8605200D01*
X12781600Y-10419400D02*
X12821600Y-10459400D01*
X12821600Y-10419400D02*
X12781600Y-10459400D01*
X13315000Y-9479601D02*
X13355000Y-9519601D01*
X13355000Y-9479601D02*
X13315000Y-9519601D01*
X13315000Y-10419400D02*
X13355000Y-10459400D01*
X13355000Y-10419400D02*
X13315000Y-10459400D01*
X13442000Y-10190801D02*
X13482000Y-10230801D01*
X13482000Y-10190801D02*
X13442000Y-10230801D01*
X13442000Y-10419400D02*
X13482000Y-10459400D01*
X13482000Y-10419400D02*
X13442000Y-10459400D01*
X13696000Y-11638600D02*
X13736000Y-11678600D01*
X13736000Y-11638600D02*
X13696000Y-11678600D01*
X13696000Y-12527600D02*
X13736000Y-12567600D01*
X13736000Y-12527600D02*
X13696000Y-12567600D01*
X13823000Y-11638600D02*
X13863000Y-11678600D01*
X13863000Y-11638600D02*
X13823000Y-11678600D01*
X13823000Y-13238800D02*
X13863000Y-13278800D01*
X13863000Y-13238800D02*
X13823000Y-13278800D01*
X13950000Y-8133400D02*
X13990000Y-8173400D01*
X13990000Y-8133400D02*
X13950000Y-8173400D01*
X13950000Y-11638600D02*
X13990000Y-11678600D01*
X13990000Y-11638600D02*
X13950000Y-11678600D01*
X13950000Y-12629200D02*
X13990000Y-12669200D01*
X13990000Y-12629200D02*
X13950000Y-12669200D01*
X14077000Y-9581200D02*
X14117000Y-9621200D01*
X14117000Y-9581200D02*
X14077000Y-9621200D01*
X14077000Y-10419400D02*
X14117000Y-10459400D01*
X14117000Y-10419400D02*
X14077000Y-10459400D01*
X14077000Y-11638600D02*
X14117000Y-11678600D01*
X14117000Y-11638600D02*
X14077000Y-11678600D01*
X14077000Y-13137200D02*
X14117000Y-13177200D01*
X14117000Y-13137200D02*
X14077000Y-13177200D01*
X14204000Y-10089200D02*
X14244000Y-10129200D01*
X14244000Y-10089200D02*
X14204000Y-10129200D01*
X14204000Y-10419400D02*
X14244000Y-10459400D01*
X14244000Y-10419400D02*
X14204000Y-10459400D01*
X14331000Y-9682799D02*
X14371000Y-9722799D01*
X14371000Y-9682799D02*
X14331000Y-9722799D01*
X14331000Y-10419400D02*
X14371000Y-10459400D01*
X14371000Y-10419400D02*
X14331000Y-10459400D01*
X14458000Y-9987600D02*
X14498000Y-10027600D01*
X14498000Y-9987600D02*
X14458000Y-10027600D01*
X14458000Y-10419400D02*
X14498000Y-10459400D01*
X14498000Y-10419400D02*
X14458000Y-10459400D01*
X14458001Y-8133400D02*
X14498001Y-8173400D01*
X14498001Y-8133400D02*
X14458001Y-8173400D01*
X14712000Y-11638600D02*
X14752000Y-11678600D01*
X14752000Y-11638600D02*
X14712000Y-11678600D01*
X14712000Y-12730800D02*
X14752000Y-12770800D01*
X14752000Y-12730800D02*
X14712000Y-12770800D01*
X14839000Y-11638600D02*
X14879000Y-11678600D01*
X14879000Y-11638600D02*
X14839000Y-11678600D01*
X14839000Y-13035600D02*
X14879000Y-13075600D01*
X14879000Y-13035600D02*
X14839000Y-13075600D01*
X14966000Y-11638600D02*
X15006000Y-11678600D01*
X15006000Y-11638600D02*
X14966000Y-11678600D01*
X14966000Y-12832400D02*
X15006000Y-12872400D01*
X15006000Y-12832400D02*
X14966000Y-12872400D01*
X15093000Y-9784399D02*
X15133000Y-9824399D01*
X15133000Y-9784399D02*
X15093000Y-9824399D01*
X15093000Y-10419400D02*
X15133000Y-10459400D01*
X15133000Y-10419400D02*
X15093000Y-10459400D01*
X15093000Y-11638600D02*
X15133000Y-11678600D01*
X15133000Y-11638600D02*
X15093000Y-11678600D01*
X15093000Y-12934000D02*
X15133000Y-12974000D01*
X15133000Y-12934000D02*
X15093000Y-12974000D01*
X15220000Y-9885999D02*
X15260000Y-9925999D01*
X15260000Y-9885999D02*
X15220000Y-9925999D01*
X15220000Y-10419400D02*
X15260000Y-10459400D01*
X15260000Y-10419400D02*
X15220000Y-10459400D01*
X16896400Y-7828600D02*
X16936400Y-7868600D01*
X16936400Y-7828600D02*
X16896400Y-7868600D01*
X16896400Y-8235000D02*
X16936400Y-8275000D01*
X16936400Y-8235000D02*
X16896400Y-8275000D01*
X17201200Y-7346000D02*
X17241200Y-7386000D01*
X17241200Y-7346000D02*
X17201200Y-7386000D01*
X17252000Y-8565200D02*
X17292000Y-8605200D01*
X17292000Y-8565200D02*
X17252000Y-8605200D01*
X17252000Y-10419400D02*
X17292000Y-10459400D01*
X17292000Y-10419400D02*
X17252000Y-10459400D01*
X17328200Y-7346000D02*
X17368200Y-7386000D01*
X17368200Y-7346000D02*
X17328200Y-7386000D01*
X17506000Y-8666798D02*
X17546000Y-8706798D01*
X17546000Y-8666798D02*
X17506000Y-8706798D01*
X17506000Y-10419400D02*
X17546000Y-10459400D01*
X17546000Y-10419400D02*
X17506000Y-10459400D01*
X17760000Y-8768400D02*
X17800000Y-8808400D01*
X17800000Y-8768400D02*
X17760000Y-8808400D01*
X17760000Y-10419400D02*
X17800000Y-10459400D01*
X17800000Y-10419400D02*
X17760000Y-10459400D01*
X18014000Y-8870000D02*
X18054000Y-8910000D01*
X18054000Y-8870000D02*
X18014000Y-8910000D01*
X18014000Y-10419400D02*
X18054000Y-10459400D01*
X18054000Y-10419400D02*
X18014000Y-10459400D01*
X18268000Y-8971600D02*
X18308000Y-9011600D01*
X18308000Y-8971600D02*
X18268000Y-9011600D01*
X18268000Y-10419400D02*
X18308000Y-10459400D01*
X18308000Y-10419400D02*
X18268000Y-10459400D01*
X18521999Y-9073200D02*
X18561999Y-9113200D01*
X18561999Y-9073200D02*
X18521999Y-9113200D01*
X18522000Y-10419400D02*
X18562000Y-10459400D01*
X18562000Y-10419400D02*
X18522000Y-10459400D01*
X18776000Y-9174800D02*
X18816000Y-9214800D01*
X18816000Y-9174800D02*
X18776000Y-9214800D01*
X18776000Y-10419400D02*
X18816000Y-10459400D01*
X18816000Y-10419400D02*
X18776000Y-10459400D01*
X19030000Y-9276400D02*
X19070000Y-9316400D01*
X19070000Y-9276400D02*
X19030000Y-9316400D01*
X19030000Y-10419400D02*
X19070000Y-10459400D01*
X19070000Y-10419400D02*
X19030000Y-10459400D01*
X19284000Y-9377999D02*
X19324000Y-9417999D01*
X19324000Y-9377999D02*
X19284000Y-9417999D01*
X19284000Y-10419400D02*
X19324000Y-10459400D01*
X19324000Y-10419400D02*
X19284000Y-10459400D01*
X19461800Y-7346000D02*
X19501800Y-7386000D01*
X19501800Y-7346000D02*
X19461800Y-7386000D01*
X19588800Y-7346000D02*
X19628800Y-7386000D01*
X19628800Y-7346000D02*
X19588800Y-7386000D01*
X19741200Y-10952801D02*
X19781200Y-10992801D01*
X19781200Y-10952801D02*
X19741200Y-10992801D01*
X20655600Y-7676200D02*
X20695600Y-7716200D01*
X20695600Y-7676200D02*
X20655600Y-7716200D01*
X20655600Y-8235000D02*
X20695600Y-8275000D01*
X20695600Y-8235000D02*
X20655600Y-8275000D01*
X21316000Y-9479600D02*
X21356000Y-9519600D01*
X21356000Y-9479600D02*
X21316000Y-9519600D01*
X21316000Y-10419400D02*
X21356000Y-10459400D01*
X21356000Y-10419400D02*
X21316000Y-10459400D01*
X21569999Y-9581199D02*
X21609999Y-9621199D01*
X21609999Y-9581199D02*
X21569999Y-9621199D01*
X21570000Y-10419400D02*
X21610000Y-10459400D01*
X21610000Y-10419400D02*
X21570000Y-10459400D01*
X21824000Y-9682800D02*
X21864000Y-9722800D01*
X21864000Y-9682800D02*
X21824000Y-9722800D01*
X21824000Y-10419400D02*
X21864000Y-10459400D01*
X21864000Y-10419400D02*
X21824000Y-10459400D01*
X22078000Y-10419400D02*
X22118000Y-10459400D01*
X22118000Y-10419400D02*
X22078000Y-10459400D01*
X22078000Y-9784400D02*
X22118000Y-9824400D01*
X22118000Y-9784400D02*
X22078000Y-9824400D01*
X22332000Y-10419400D02*
X22372000Y-10459400D01*
X22372000Y-10419400D02*
X22332000Y-10459400D01*
X22332001Y-9886001D02*
X22372000Y-9926001D01*
X22372000Y-9886001D02*
X22332001Y-9926001D01*
X22585999Y-9987600D02*
X22625999Y-10027600D01*
X22625999Y-9987600D02*
X22585999Y-10027600D01*
X22586000Y-10419400D02*
X22626000Y-10459400D01*
X22626000Y-10419400D02*
X22586000Y-10459400D01*
X22840000Y-10419400D02*
X22880000Y-10459400D01*
X22880000Y-10419400D02*
X22840000Y-10459400D01*
X22840000Y-10089200D02*
X22880000Y-10129200D01*
X22880000Y-10089200D02*
X22840000Y-10129200D01*
X23094000Y-10190800D02*
X23134000Y-10230800D01*
X23134000Y-10190800D02*
X23094000Y-10230800D01*
X23094000Y-10419400D02*
X23134000Y-10459400D01*
X23134000Y-10419400D02*
X23094000Y-10459400D01*
X23602000Y-7777798D02*
X23642000Y-7817798D01*
X23642000Y-7777798D02*
X23602000Y-7817798D01*
X23602000Y-8235000D02*
X23642000Y-8275000D01*
X23642000Y-8235000D02*
X23602000Y-8275000D01*
X23779800Y-10190800D02*
X23819800Y-10230800D01*
X23819800Y-10190800D02*
X23779800Y-10230800D01*
X23779800Y-10444800D02*
X23819800Y-10484800D01*
X23819800Y-10444800D02*
X23779800Y-10484800D01*
X24008400Y-10190800D02*
X24048400Y-10230800D01*
X24048400Y-10190800D02*
X24008400Y-10230800D01*
X24008400Y-10444800D02*
X24048400Y-10484800D01*
X24048400Y-10444800D02*
X24008400Y-10484800D01*
X23662000Y-9144000D02*
G75*
G03X23662000Y-9144000I-40000J0D01*
G01*
X24678000Y-9144000D02*
G75*
G03X24678000Y-9144000I-40000J0D01*
G01*
X9438000Y-10668000D02*
G75*
G03X9438000Y-10668000I-40000J0D01*
G01*
X9438000Y-11430000D02*
G75*
G03X9438000Y-11430000I-40000J0D01*
G01*
X9692000Y-10668000D02*
G75*
G03X9692000Y-10668000I-40000J0D01*
G01*
X9692000Y-11430000D02*
G75*
G03X9692000Y-11430000I-40000J0D01*
G01*
X9946000Y-10668000D02*
G75*
G03X9946000Y-10668000I-40000J0D01*
G01*
X9946000Y-11430000D02*
G75*
G03X9946000Y-11430000I-40000J0D01*
G01*
X10200000Y-10668000D02*
G75*
G03X10200000Y-10668000I-40000J0D01*
G01*
X10200000Y-11430000D02*
G75*
G03X10200000Y-11430000I-40000J0D01*
G01*
X10454000Y-10668000D02*
G75*
G03X10454000Y-10668000I-40000J0D01*
G01*
X10454000Y-11430000D02*
G75*
G03X10454000Y-11430000I-40000J0D01*
G01*
X10708000Y-10668000D02*
G75*
G03X10708000Y-10668000I-40000J0D01*
G01*
X10708000Y-11430000D02*
G75*
G03X10708000Y-11430000I-40000J0D01*
G01*
X10962000Y-10668000D02*
G75*
G03X10962000Y-10668000I-40000J0D01*
G01*
X10962000Y-11430000D02*
G75*
G03X10962000Y-11430000I-40000J0D01*
G01*
X11216000Y-10668000D02*
G75*
G03X11216000Y-10668000I-40000J0D01*
G01*
X11216000Y-11430000D02*
G75*
G03X11216000Y-11430000I-40000J0D01*
G01*
X11470000Y-10668000D02*
G75*
G03X11470000Y-10668000I-40000J0D01*
G01*
X11470000Y-11430000D02*
G75*
G03X11470000Y-11430000I-40000J0D01*
G01*
X11724000Y-10668000D02*
G75*
G03X11724000Y-10668000I-40000J0D01*
G01*
X11724000Y-11430000D02*
G75*
G03X11724000Y-11430000I-40000J0D01*
G01*
X21122000Y-7620000D02*
G75*
G03X21122000Y-7620000I-40000J0D01*
G01*
X21122000Y-8382000D02*
G75*
G03X21122000Y-8382000I-40000J0D01*
G01*
X21376000Y-7620000D02*
G75*
G03X21376000Y-7620000I-40000J0D01*
G01*
X21376000Y-8382000D02*
G75*
G03X21376000Y-8382000I-40000J0D01*
G01*
X21630000Y-7620000D02*
G75*
G03X21630000Y-7620000I-40000J0D01*
G01*
X21630000Y-8382000D02*
G75*
G03X21630000Y-8382000I-40000J0D01*
G01*
X21884000Y-7620000D02*
G75*
G03X21884000Y-7620000I-40000J0D01*
G01*
X21884000Y-8382000D02*
G75*
G03X21884000Y-8382000I-40000J0D01*
G01*
X22138000Y-7620000D02*
G75*
G03X22138000Y-7620000I-40000J0D01*
G01*
X22138000Y-8382000D02*
G75*
G03X22138000Y-8382000I-40000J0D01*
G01*
X22392000Y-7620000D02*
G75*
G03X22392000Y-7620000I-40000J0D01*
G01*
X22392000Y-8382000D02*
G75*
G03X22392000Y-8382000I-40000J0D01*
G01*
X22646000Y-7620000D02*
G75*
G03X22646000Y-7620000I-40000J0D01*
G01*
X22646000Y-8382000D02*
G75*
G03X22646000Y-8382000I-40000J0D01*
G01*
X22900000Y-7620000D02*
G75*
G03X22900000Y-7620000I-40000J0D01*
G01*
X22900000Y-8382000D02*
G75*
G03X22900000Y-8382000I-40000J0D01*
G01*
X23154000Y-7620000D02*
G75*
G03X23154000Y-7620000I-40000J0D01*
G01*
X23154000Y-8382000D02*
G75*
G03X23154000Y-8382000I-40000J0D01*
G01*
X23408000Y-7620000D02*
G75*
G03X23408000Y-7620000I-40000J0D01*
G01*
X23408000Y-8382000D02*
G75*
G03X23408000Y-8382000I-40000J0D01*
G01*
X20360000Y-7620000D02*
G75*
G03X20360000Y-7620000I-40000J0D01*
G01*
X20360000Y-8120000D02*
G75*
G03X20360000Y-8120000I-40000J0D01*
G01*
X8269600Y-12018200D02*
G75*
G03X8269600Y-12018200I-40000J0D01*
G01*
X8269600Y-12268200D02*
G75*
G03X8269600Y-12268200I-40000J0D01*
G01*
X12486000Y-10668000D02*
G75*
G03X12486000Y-10668000I-40000J0D01*
G01*
X12486000Y-11168000D02*
G75*
G03X12486000Y-11168000I-40000J0D01*
G01*
X8676000Y-10668000D02*
G75*
G03X8676000Y-10668000I-40000J0D01*
G01*
X8676000Y-11168000D02*
G75*
G03X8676000Y-11168000I-40000J0D01*
G01*
X21630000Y-6858000D02*
G75*
G03X21630000Y-6858000I-40000J0D01*
G01*
X21884000Y-6858000D02*
G75*
G03X21884000Y-6858000I-40000J0D01*
G01*
X22138000Y-6858000D02*
G75*
G03X22138000Y-6858000I-40000J0D01*
G01*
X22392000Y-6858000D02*
G75*
G03X22392000Y-6858000I-40000J0D01*
G01*
X22646000Y-6858000D02*
G75*
G03X22646000Y-6858000I-40000J0D01*
G01*
X22900000Y-6858000D02*
G75*
G03X22900000Y-6858000I-40000J0D01*
G01*
X23154000Y-6858000D02*
G75*
G03X23154000Y-6858000I-40000J0D01*
G01*
X23408000Y-6858000D02*
G75*
G03X23408000Y-6858000I-40000J0D01*
G01*
X23662000Y-6858000D02*
G75*
G03X23662000Y-6858000I-40000J0D01*
G01*
X15280000Y-6608000D02*
G75*
G03X15280000Y-6608000I-40000J0D01*
G01*
X15280000Y-6858000D02*
G75*
G03X15280000Y-6858000I-40000J0D01*
G01*
X13248000Y-7620000D02*
G75*
G03X13248000Y-7620000I-40000J0D01*
G01*
X13248000Y-8120000D02*
G75*
G03X13248000Y-8120000I-40000J0D01*
G01*
X14010000Y-7620000D02*
G75*
G03X14010000Y-7620000I-40000J0D01*
G01*
X14010000Y-8382000D02*
G75*
G03X14010000Y-8382000I-40000J0D01*
G01*
X14264000Y-7620000D02*
G75*
G03X14264000Y-7620000I-40000J0D01*
G01*
X14264000Y-8382000D02*
G75*
G03X14264000Y-8382000I-40000J0D01*
G01*
X14518000Y-7620000D02*
G75*
G03X14518000Y-7620000I-40000J0D01*
G01*
X14518000Y-8382000D02*
G75*
G03X14518000Y-8382000I-40000J0D01*
G01*
X14772000Y-7620000D02*
G75*
G03X14772000Y-7620000I-40000J0D01*
G01*
X14772000Y-8382000D02*
G75*
G03X14772000Y-8382000I-40000J0D01*
G01*
X15026000Y-7620000D02*
G75*
G03X15026000Y-7620000I-40000J0D01*
G01*
X15026000Y-8382000D02*
G75*
G03X15026000Y-8382000I-40000J0D01*
G01*
X15280000Y-7620000D02*
G75*
G03X15280000Y-7620000I-40000J0D01*
G01*
X15280000Y-8382000D02*
G75*
G03X15280000Y-8382000I-40000J0D01*
G01*
X15534000Y-7620000D02*
G75*
G03X15534000Y-7620000I-40000J0D01*
G01*
X15534000Y-8382000D02*
G75*
G03X15534000Y-8382000I-40000J0D01*
G01*
X24424000Y-9656000D02*
G75*
G03X24424000Y-9656000I-40000J0D01*
G01*
X24424000Y-9906000D02*
G75*
G03X24424000Y-9906000I-40000J0D01*
G01*
X19598000Y-11938000D02*
G75*
G03X19598000Y-11938000I-40000J0D01*
G01*
X20614000Y-11938000D02*
G75*
G03X20614000Y-11938000I-40000J0D01*
G01*
X16296000Y-10668000D02*
G75*
G03X16296000Y-10668000I-40000J0D01*
G01*
X16296000Y-11168000D02*
G75*
G03X16296000Y-11168000I-40000J0D01*
G01*
X17312000Y-6858000D02*
G75*
G03X17312000Y-6858000I-40000J0D01*
G01*
X17566000Y-6858000D02*
G75*
G03X17566000Y-6858000I-40000J0D01*
G01*
X17820000Y-6858000D02*
G75*
G03X17820000Y-6858000I-40000J0D01*
G01*
X18074000Y-6858000D02*
G75*
G03X18074000Y-6858000I-40000J0D01*
G01*
X18328000Y-6858000D02*
G75*
G03X18328000Y-6858000I-40000J0D01*
G01*
X18582000Y-6858000D02*
G75*
G03X18582000Y-6858000I-40000J0D01*
G01*
X18836000Y-6858000D02*
G75*
G03X18836000Y-6858000I-40000J0D01*
G01*
X19090000Y-6858000D02*
G75*
G03X19090000Y-6858000I-40000J0D01*
G01*
X19344000Y-6858000D02*
G75*
G03X19344000Y-6858000I-40000J0D01*
G01*
X13248000Y-10668000D02*
G75*
G03X13248000Y-10668000I-40000J0D01*
G01*
X13248000Y-11430000D02*
G75*
G03X13248000Y-11430000I-40000J0D01*
G01*
X13502000Y-10668000D02*
G75*
G03X13502000Y-10668000I-40000J0D01*
G01*
X13502000Y-11430000D02*
G75*
G03X13502000Y-11430000I-40000J0D01*
G01*
X13756000Y-10668000D02*
G75*
G03X13756000Y-10668000I-40000J0D01*
G01*
X13756000Y-11430000D02*
G75*
G03X13756000Y-11430000I-40000J0D01*
G01*
X14010000Y-10668000D02*
G75*
G03X14010000Y-10668000I-40000J0D01*
G01*
X14010000Y-11430000D02*
G75*
G03X14010000Y-11430000I-40000J0D01*
G01*
X14264000Y-10668000D02*
G75*
G03X14264000Y-10668000I-40000J0D01*
G01*
X14264000Y-11430000D02*
G75*
G03X14264000Y-11430000I-40000J0D01*
G01*
X14518000Y-10668000D02*
G75*
G03X14518000Y-10668000I-40000J0D01*
G01*
X14518000Y-11430000D02*
G75*
G03X14518000Y-11430000I-40000J0D01*
G01*
X14772000Y-10668000D02*
G75*
G03X14772000Y-10668000I-40000J0D01*
G01*
X14772000Y-11430000D02*
G75*
G03X14772000Y-11430000I-40000J0D01*
G01*
X15026000Y-10668000D02*
G75*
G03X15026000Y-10668000I-40000J0D01*
G01*
X15026000Y-11430000D02*
G75*
G03X15026000Y-11430000I-40000J0D01*
G01*
X15280000Y-10668000D02*
G75*
G03X15280000Y-10668000I-40000J0D01*
G01*
X15280000Y-11430000D02*
G75*
G03X15280000Y-11430000I-40000J0D01*
G01*
X15534000Y-10668000D02*
G75*
G03X15534000Y-10668000I-40000J0D01*
G01*
X15534000Y-11430000D02*
G75*
G03X15534000Y-11430000I-40000J0D01*
G01*
X16550000Y-7620000D02*
G75*
G03X16550000Y-7620000I-40000J0D01*
G01*
X16550000Y-8120000D02*
G75*
G03X16550000Y-8120000I-40000J0D01*
G01*
X17312000Y-7620000D02*
G75*
G03X17312000Y-7620000I-40000J0D01*
G01*
X17312000Y-8382000D02*
G75*
G03X17312000Y-8382000I-40000J0D01*
G01*
X17566000Y-7620000D02*
G75*
G03X17566000Y-7620000I-40000J0D01*
G01*
X17566000Y-8382000D02*
G75*
G03X17566000Y-8382000I-40000J0D01*
G01*
X17820000Y-7620000D02*
G75*
G03X17820000Y-7620000I-40000J0D01*
G01*
X17820000Y-8382000D02*
G75*
G03X17820000Y-8382000I-40000J0D01*
G01*
X18074000Y-7620000D02*
G75*
G03X18074000Y-7620000I-40000J0D01*
G01*
X18074000Y-8382000D02*
G75*
G03X18074000Y-8382000I-40000J0D01*
G01*
X18328000Y-7620000D02*
G75*
G03X18328000Y-7620000I-40000J0D01*
G01*
X18328000Y-8382000D02*
G75*
G03X18328000Y-8382000I-40000J0D01*
G01*
X18582000Y-7620000D02*
G75*
G03X18582000Y-7620000I-40000J0D01*
G01*
X18582000Y-8382000D02*
G75*
G03X18582000Y-8382000I-40000J0D01*
G01*
X18836000Y-7620000D02*
G75*
G03X18836000Y-7620000I-40000J0D01*
G01*
X18836000Y-8382000D02*
G75*
G03X18836000Y-8382000I-40000J0D01*
G01*
X19090000Y-7620000D02*
G75*
G03X19090000Y-7620000I-40000J0D01*
G01*
X19090000Y-8382000D02*
G75*
G03X19090000Y-8382000I-40000J0D01*
G01*
X19344000Y-7620000D02*
G75*
G03X19344000Y-7620000I-40000J0D01*
G01*
X19344000Y-8382000D02*
G75*
G03X19344000Y-8382000I-40000J0D01*
G01*
X19598000Y-7620000D02*
G75*
G03X19598000Y-7620000I-40000J0D01*
G01*
X19598000Y-8382000D02*
G75*
G03X19598000Y-8382000I-40000J0D01*
G01*
X17058000Y-10668000D02*
G75*
G03X17058000Y-10668000I-40000J0D01*
G01*
X17058000Y-11430000D02*
G75*
G03X17058000Y-11430000I-40000J0D01*
G01*
X17312000Y-10668000D02*
G75*
G03X17312000Y-10668000I-40000J0D01*
G01*
X17312000Y-11430000D02*
G75*
G03X17312000Y-11430000I-40000J0D01*
G01*
X17566000Y-10668000D02*
G75*
G03X17566000Y-10668000I-40000J0D01*
G01*
X17566000Y-11430000D02*
G75*
G03X17566000Y-11430000I-40000J0D01*
G01*
X17820000Y-10668000D02*
G75*
G03X17820000Y-10668000I-40000J0D01*
G01*
X17820000Y-11430000D02*
G75*
G03X17820000Y-11430000I-40000J0D01*
G01*
X18074000Y-10668000D02*
G75*
G03X18074000Y-10668000I-40000J0D01*
G01*
X18074000Y-11430000D02*
G75*
G03X18074000Y-11430000I-40000J0D01*
G01*
X18328000Y-10668000D02*
G75*
G03X18328000Y-10668000I-40000J0D01*
G01*
X18328000Y-11430000D02*
G75*
G03X18328000Y-11430000I-40000J0D01*
G01*
X18582000Y-10668000D02*
G75*
G03X18582000Y-10668000I-40000J0D01*
G01*
X18582000Y-11430000D02*
G75*
G03X18582000Y-11430000I-40000J0D01*
G01*
X18836000Y-10668000D02*
G75*
G03X18836000Y-10668000I-40000J0D01*
G01*
X18836000Y-11430000D02*
G75*
G03X18836000Y-11430000I-40000J0D01*
G01*
X19090000Y-10668000D02*
G75*
G03X19090000Y-10668000I-40000J0D01*
G01*
X19090000Y-11430000D02*
G75*
G03X19090000Y-11430000I-40000J0D01*
G01*
X19344000Y-10668000D02*
G75*
G03X19344000Y-10668000I-40000J0D01*
G01*
X19344000Y-11430000D02*
G75*
G03X19344000Y-11430000I-40000J0D01*
G01*
X20106000Y-10668000D02*
G75*
G03X20106000Y-10668000I-40000J0D01*
G01*
X20106000Y-11168000D02*
G75*
G03X20106000Y-11168000I-40000J0D01*
G01*
X20868000Y-10668000D02*
G75*
G03X20868000Y-10668000I-40000J0D01*
G01*
X20868000Y-11430000D02*
G75*
G03X20868000Y-11430000I-40000J0D01*
G01*
X21122000Y-10668000D02*
G75*
G03X21122000Y-10668000I-40000J0D01*
G01*
X21122000Y-11430000D02*
G75*
G03X21122000Y-11430000I-40000J0D01*
G01*
X21376000Y-10668000D02*
G75*
G03X21376000Y-10668000I-40000J0D01*
G01*
X21376000Y-11430000D02*
G75*
G03X21376000Y-11430000I-40000J0D01*
G01*
X21630000Y-10668000D02*
G75*
G03X21630000Y-10668000I-40000J0D01*
G01*
X21630000Y-11430000D02*
G75*
G03X21630000Y-11430000I-40000J0D01*
G01*
X21884000Y-10668000D02*
G75*
G03X21884000Y-10668000I-40000J0D01*
G01*
X21884000Y-11430000D02*
G75*
G03X21884000Y-11430000I-40000J0D01*
G01*
X22138000Y-10668000D02*
G75*
G03X22138000Y-10668000I-40000J0D01*
G01*
X22138000Y-11430000D02*
G75*
G03X22138000Y-11430000I-40000J0D01*
G01*
X22392000Y-10668000D02*
G75*
G03X22392000Y-10668000I-40000J0D01*
G01*
X22392000Y-11430000D02*
G75*
G03X22392000Y-11430000I-40000J0D01*
G01*
X22646000Y-10668000D02*
G75*
G03X22646000Y-10668000I-40000J0D01*
G01*
X22646000Y-11430000D02*
G75*
G03X22646000Y-11430000I-40000J0D01*
G01*
X22900000Y-10668000D02*
G75*
G03X22900000Y-10668000I-40000J0D01*
G01*
X22900000Y-11430000D02*
G75*
G03X22900000Y-11430000I-40000J0D01*
G01*
X23154000Y-10668000D02*
G75*
G03X23154000Y-10668000I-40000J0D01*
G01*
X23154000Y-11430000D02*
G75*
G03X23154000Y-11430000I-40000J0D01*
G01*
X18542000Y-5797000D02*
X18542000Y-5887000D01*
X18497000Y-5842000D02*
X18587000Y-5842000D01*
X18796000Y-5797000D02*
X18796000Y-5887000D01*
X18751000Y-5842000D02*
X18841000Y-5842000D01*
X24257000Y-5797000D02*
X24257000Y-5887000D01*
X24212000Y-5842000D02*
X24302000Y-5842000D01*
X24511000Y-5797000D02*
X24511000Y-5887000D01*
X24466000Y-5842000D02*
X24556000Y-5842000D01*
X17272000Y-5797000D02*
X17272000Y-5887000D01*
X17227000Y-5842000D02*
X17317000Y-5842000D01*
X17526000Y-5797000D02*
X17526000Y-5887000D01*
X17481000Y-5842000D02*
X17571000Y-5842000D01*
X24892000Y-5797000D02*
X24892000Y-5887000D01*
X24847000Y-5842000D02*
X24937000Y-5842000D01*
X25146000Y-5797000D02*
X25146000Y-5887000D01*
X25101000Y-5842000D02*
X25191000Y-5842000D01*
X17907000Y-5797000D02*
X17907000Y-5887000D01*
X17862000Y-5842000D02*
X17952000Y-5842000D01*
X18161000Y-5797000D02*
X18161000Y-5887000D01*
X18116000Y-5842000D02*
X18206000Y-5842000D01*
X22987000Y-5797000D02*
X22987000Y-5887000D01*
X22942000Y-5842000D02*
X23032000Y-5842000D01*
X23241000Y-5797000D02*
X23241000Y-5887000D01*
X23196000Y-5842000D02*
X23286000Y-5842000D01*
X16002000Y-5797000D02*
X16002000Y-5887000D01*
X15957000Y-5842000D02*
X16047000Y-5842000D01*
X16256000Y-5797000D02*
X16256000Y-5887000D01*
X16211000Y-5842000D02*
X16301000Y-5842000D01*
X23622000Y-5797000D02*
X23622000Y-5887000D01*
X23577000Y-5842000D02*
X23667000Y-5842000D01*
X23876000Y-5797000D02*
X23876000Y-5887000D01*
X23831000Y-5842000D02*
X23921000Y-5842000D01*
X16637000Y-5797000D02*
X16637000Y-5887000D01*
X16592000Y-5842000D02*
X16682000Y-5842000D01*
X16891000Y-5797000D02*
X16891000Y-5887000D01*
X16846000Y-5842000D02*
X16936000Y-5842000D01*
X22352000Y-5797000D02*
X22352000Y-5887000D01*
X22307000Y-5842000D02*
X22397000Y-5842000D01*
X22606000Y-5797000D02*
X22606000Y-5887000D01*
X22561000Y-5842000D02*
X22651000Y-5842000D01*
X15367000Y-5797000D02*
X15367000Y-5887000D01*
X15322000Y-5842000D02*
X15412000Y-5842000D01*
X15621000Y-5797000D02*
X15621000Y-5887000D01*
X15576000Y-5842000D02*
X15666000Y-5842000D01*
X21082000Y-5797000D02*
X21082000Y-5887000D01*
X21037000Y-5842000D02*
X21127000Y-5842000D01*
X21336000Y-5797000D02*
X21336000Y-5887000D01*
X21291000Y-5842000D02*
X21381000Y-5842000D01*
X21717000Y-5797000D02*
X21717000Y-5887000D01*
X21672000Y-5842000D02*
X21762000Y-5842000D01*
X21971000Y-5797000D02*
X21971000Y-5887000D01*
X21926000Y-5842000D02*
X22016000Y-5842000D01*
X19812000Y-5797000D02*
X19812000Y-5887000D01*
X19767000Y-5842000D02*
X19857000Y-5842000D01*
X20066000Y-5797000D02*
X20066000Y-5887000D01*
X20021000Y-5842000D02*
X20111000Y-5842000D01*
X20447000Y-5797000D02*
X20447000Y-5887000D01*
X20402000Y-5842000D02*
X20492000Y-5842000D01*
X20701000Y-5797000D02*
X20701000Y-5887000D01*
X20656000Y-5842000D02*
X20746000Y-5842000D01*
X19177000Y-5797000D02*
X19177000Y-5887000D01*
X19132000Y-5842000D02*
X19222000Y-5842000D01*
X19431000Y-5797000D02*
X19431000Y-5887000D01*
X19386000Y-5842000D02*
X19476000Y-5842000D01*
X5369356Y-5623356D02*
X5369356Y-5552644D01*
X5298644Y-5552644D01*
X5298644Y-5623356D01*
X5369356Y-5623356D01*
X5623356Y-5623356D02*
X5623356Y-5552644D01*
X5552644Y-5552644D01*
X5552644Y-5623356D01*
X5623356Y-5623356D01*
X5877356Y-5623356D02*
X5877356Y-5552644D01*
X5806644Y-5552644D01*
X5806644Y-5623356D01*
X5877356Y-5623356D01*
X6131356Y-5623356D02*
X6131356Y-5552644D01*
X6060644Y-5552644D01*
X6060644Y-5623356D01*
X6131356Y-5623356D01*
X6385356Y-5623356D02*
X6385356Y-5552644D01*
X6314644Y-5552644D01*
X6314644Y-5623356D01*
X6385356Y-5623356D01*
X6639356Y-5623356D02*
X6639356Y-5552644D01*
X6568644Y-5552644D01*
X6568644Y-5623356D01*
X6639356Y-5623356D01*
X6893356Y-5623356D02*
X6893356Y-5552644D01*
X6822644Y-5552644D01*
X6822644Y-5623356D01*
X6893356Y-5623356D01*
X7147356Y-5623356D02*
X7147356Y-5552644D01*
X7076644Y-5552644D01*
X7076644Y-5623356D01*
X7147356Y-5623356D01*
X7401356Y-5623356D02*
X7401356Y-5552644D01*
X7330644Y-5552644D01*
X7330644Y-5623356D01*
X7401356Y-5623356D01*
X7655356Y-5623356D02*
X7655356Y-5552644D01*
X7584644Y-5552644D01*
X7584644Y-5623356D01*
X7655356Y-5623356D01*
X7909356Y-5623356D02*
X7909356Y-5552644D01*
X7838644Y-5552644D01*
X7838644Y-5623356D01*
X7909356Y-5623356D01*
X8163356Y-5623356D02*
X8163356Y-5552644D01*
X8092644Y-5552644D01*
X8092644Y-5623356D01*
X8163356Y-5623356D01*
X8417356Y-5623356D02*
X8417356Y-5552644D01*
X8346644Y-5552644D01*
X8346644Y-5623356D01*
X8417356Y-5623356D01*
X8671356Y-5623356D02*
X8671356Y-5552644D01*
X8600644Y-5552644D01*
X8600644Y-5623356D01*
X8671356Y-5623356D01*
X8925356Y-5623356D02*
X8925356Y-5552644D01*
X8854644Y-5552644D01*
X8854644Y-5623356D01*
X8925356Y-5623356D01*
X9179356Y-5623356D02*
X9179356Y-5552644D01*
X9108644Y-5552644D01*
X9108644Y-5623356D01*
X9179356Y-5623356D01*
X16291356Y-13751356D02*
X16291356Y-13680644D01*
X16220644Y-13680644D01*
X16220644Y-13751356D01*
X16291356Y-13751356D01*
X16291356Y-14005356D02*
X16291356Y-13934644D01*
X16220644Y-13934644D01*
X16220644Y-14005356D01*
X16291356Y-14005356D01*
X16545356Y-13751356D02*
X16545356Y-13680644D01*
X16474644Y-13680644D01*
X16474644Y-13751356D01*
X16545356Y-13751356D01*
X16545356Y-14005356D02*
X16545356Y-13934644D01*
X16474644Y-13934644D01*
X16474644Y-14005356D01*
X16545356Y-14005356D01*
X16799356Y-13751356D02*
X16799356Y-13680644D01*
X16728644Y-13680644D01*
X16728644Y-13751356D01*
X16799356Y-13751356D01*
X16799356Y-14005356D02*
X16799356Y-13934644D01*
X16728644Y-13934644D01*
X16728644Y-14005356D01*
X16799356Y-14005356D01*
X17053356Y-13751356D02*
X17053356Y-13680644D01*
X16982644Y-13680644D01*
X16982644Y-13751356D01*
X17053356Y-13751356D01*
X17053356Y-14005356D02*
X17053356Y-13934644D01*
X16982644Y-13934644D01*
X16982644Y-14005356D01*
X17053356Y-14005356D01*
X17307356Y-13751356D02*
X17307356Y-13680644D01*
X17236644Y-13680644D01*
X17236644Y-13751356D01*
X17307356Y-13751356D01*
X17307356Y-14005356D02*
X17307356Y-13934644D01*
X17236644Y-13934644D01*
X17236644Y-14005356D01*
X17307356Y-14005356D01*
X17561356Y-13751356D02*
X17561356Y-13680644D01*
X17490644Y-13680644D01*
X17490644Y-13751356D01*
X17561356Y-13751356D01*
X17561356Y-14005356D02*
X17561356Y-13934644D01*
X17490644Y-13934644D01*
X17490644Y-14005356D01*
X17561356Y-14005356D01*
X17815356Y-13751356D02*
X17815356Y-13680644D01*
X17744644Y-13680644D01*
X17744644Y-13751356D01*
X17815356Y-13751356D01*
X17815356Y-14005356D02*
X17815356Y-13934644D01*
X17744644Y-13934644D01*
X17744644Y-14005356D01*
X17815356Y-14005356D01*
X18069356Y-13751356D02*
X18069356Y-13680644D01*
X17998644Y-13680644D01*
X17998644Y-13751356D01*
X18069356Y-13751356D01*
X18069356Y-14005356D02*
X18069356Y-13934644D01*
X17998644Y-13934644D01*
X17998644Y-14005356D01*
X18069356Y-14005356D01*
X18323356Y-13751356D02*
X18323356Y-13680644D01*
X18252644Y-13680644D01*
X18252644Y-13751356D01*
X18323356Y-13751356D01*
X18323356Y-14005356D02*
X18323356Y-13934644D01*
X18252644Y-13934644D01*
X18252644Y-14005356D01*
X18323356Y-14005356D01*
X18577356Y-13751356D02*
X18577356Y-13680644D01*
X18506644Y-13680644D01*
X18506644Y-13751356D01*
X18577356Y-13751356D01*
X18577356Y-14005356D02*
X18577356Y-13934644D01*
X18506644Y-13934644D01*
X18506644Y-14005356D01*
X18577356Y-14005356D01*
X18831356Y-13751356D02*
X18831356Y-13680644D01*
X18760644Y-13680644D01*
X18760644Y-13751356D01*
X18831356Y-13751356D01*
X18831356Y-14005356D02*
X18831356Y-13934644D01*
X18760644Y-13934644D01*
X18760644Y-14005356D01*
X18831356Y-14005356D01*
X19085356Y-13751356D02*
X19085356Y-13680644D01*
X19014644Y-13680644D01*
X19014644Y-13751356D01*
X19085356Y-13751356D01*
X19085356Y-14005356D02*
X19085356Y-13934644D01*
X19014644Y-13934644D01*
X19014644Y-14005356D01*
X19085356Y-14005356D01*
X19339356Y-13751356D02*
X19339356Y-13680644D01*
X19268644Y-13680644D01*
X19268644Y-13751356D01*
X19339356Y-13751356D01*
X19339356Y-14005356D02*
X19339356Y-13934644D01*
X19268644Y-13934644D01*
X19268644Y-14005356D01*
X19339356Y-14005356D01*
X19593356Y-13751356D02*
X19593356Y-13680644D01*
X19522644Y-13680644D01*
X19522644Y-13751356D01*
X19593356Y-13751356D01*
X19593356Y-14005356D02*
X19593356Y-13934644D01*
X19522644Y-13934644D01*
X19522644Y-14005356D01*
X19593356Y-14005356D01*
X19847356Y-13751356D02*
X19847356Y-13680644D01*
X19776644Y-13680644D01*
X19776644Y-13751356D01*
X19847356Y-13751356D01*
X19847356Y-14005356D02*
X19847356Y-13934644D01*
X19776644Y-13934644D01*
X19776644Y-14005356D01*
X19847356Y-14005356D01*
X20101356Y-13751356D02*
X20101356Y-13680644D01*
X20030644Y-13680644D01*
X20030644Y-13751356D01*
X20101356Y-13751356D01*
X20101356Y-14005356D02*
X20101356Y-13934644D01*
X20030644Y-13934644D01*
X20030644Y-14005356D01*
X20101356Y-14005356D01*
X20355356Y-13751356D02*
X20355356Y-13680644D01*
X20284644Y-13680644D01*
X20284644Y-13751356D01*
X20355356Y-13751356D01*
X20355356Y-14005356D02*
X20355356Y-13934644D01*
X20284644Y-13934644D01*
X20284644Y-14005356D01*
X20355356Y-14005356D01*
X20609356Y-13751356D02*
X20609356Y-13680644D01*
X20538644Y-13680644D01*
X20538644Y-13751356D01*
X20609356Y-13751356D01*
X20609356Y-14005356D02*
X20609356Y-13934644D01*
X20538644Y-13934644D01*
X20538644Y-14005356D01*
X20609356Y-14005356D01*
X20863356Y-13751356D02*
X20863356Y-13680644D01*
X20792644Y-13680644D01*
X20792644Y-13751356D01*
X20863356Y-13751356D01*
X20863356Y-14005356D02*
X20863356Y-13934644D01*
X20792644Y-13934644D01*
X20792644Y-14005356D01*
X20863356Y-14005356D01*
X21117356Y-13751356D02*
X21117356Y-13680644D01*
X21046644Y-13680644D01*
X21046644Y-13751356D01*
X21117356Y-13751356D01*
X21117356Y-14005356D02*
X21117356Y-13934644D01*
X21046644Y-13934644D01*
X21046644Y-14005356D01*
X21117356Y-14005356D01*
X21371356Y-13751356D02*
X21371356Y-13680644D01*
X21300644Y-13680644D01*
X21300644Y-13751356D01*
X21371356Y-13751356D01*
X21371356Y-14005356D02*
X21371356Y-13934644D01*
X21300644Y-13934644D01*
X21300644Y-14005356D01*
X21371356Y-14005356D01*
X21625356Y-13751356D02*
X21625356Y-13680644D01*
X21554644Y-13680644D01*
X21554644Y-13751356D01*
X21625356Y-13751356D01*
X21625356Y-14005356D02*
X21625356Y-13934644D01*
X21554644Y-13934644D01*
X21554644Y-14005356D01*
X21625356Y-14005356D01*
X21879356Y-13751356D02*
X21879356Y-13680644D01*
X21808644Y-13680644D01*
X21808644Y-13751356D01*
X21879356Y-13751356D01*
X21879356Y-14005356D02*
X21879356Y-13934644D01*
X21808644Y-13934644D01*
X21808644Y-14005356D01*
X21879356Y-14005356D01*
X22133356Y-13751356D02*
X22133356Y-13680644D01*
X22062644Y-13680644D01*
X22062644Y-13751356D01*
X22133356Y-13751356D01*
X22133356Y-14005356D02*
X22133356Y-13934644D01*
X22062644Y-13934644D01*
X22062644Y-14005356D01*
X22133356Y-14005356D01*
X22387356Y-13751356D02*
X22387356Y-13680644D01*
X22316644Y-13680644D01*
X22316644Y-13751356D01*
X22387356Y-13751356D01*
X22387356Y-14005356D02*
X22387356Y-13934644D01*
X22316644Y-13934644D01*
X22316644Y-14005356D01*
X22387356Y-14005356D01*
X22641356Y-13751356D02*
X22641356Y-13680644D01*
X22570644Y-13680644D01*
X22570644Y-13751356D01*
X22641356Y-13751356D01*
X22641356Y-14005356D02*
X22641356Y-13934644D01*
X22570644Y-13934644D01*
X22570644Y-14005356D01*
X22641356Y-14005356D01*
X22895356Y-13751356D02*
X22895356Y-13680644D01*
X22824644Y-13680644D01*
X22824644Y-13751356D01*
X22895356Y-13751356D01*
X22895356Y-14005356D02*
X22895356Y-13934644D01*
X22824644Y-13934644D01*
X22824644Y-14005356D01*
X22895356Y-14005356D01*
X23149356Y-13751356D02*
X23149356Y-13680644D01*
X23078644Y-13680644D01*
X23078644Y-13751356D01*
X23149356Y-13751356D01*
X23149356Y-14005356D02*
X23149356Y-13934644D01*
X23078644Y-13934644D01*
X23078644Y-14005356D01*
X23149356Y-14005356D01*
X23403356Y-13751356D02*
X23403356Y-13680644D01*
X23332644Y-13680644D01*
X23332644Y-13751356D01*
X23403356Y-13751356D01*
X23403356Y-14005356D02*
X23403356Y-13934644D01*
X23332644Y-13934644D01*
X23332644Y-14005356D01*
X23403356Y-14005356D01*
X23657356Y-13751356D02*
X23657356Y-13680644D01*
X23586644Y-13680644D01*
X23586644Y-13751356D01*
X23657356Y-13751356D01*
X23657356Y-14005356D02*
X23657356Y-13934644D01*
X23586644Y-13934644D01*
X23586644Y-14005356D01*
X23657356Y-14005356D01*
X23911356Y-13751356D02*
X23911356Y-13680644D01*
X23840644Y-13680644D01*
X23840644Y-13751356D01*
X23911356Y-13751356D01*
X23911356Y-14005356D02*
X23911356Y-13934644D01*
X23840644Y-13934644D01*
X23840644Y-14005356D01*
X23911356Y-14005356D01*
X24165356Y-13751356D02*
X24165356Y-13680644D01*
X24094644Y-13680644D01*
X24094644Y-13751356D01*
X24165356Y-13751356D01*
X24165356Y-14005356D02*
X24165356Y-13934644D01*
X24094644Y-13934644D01*
X24094644Y-14005356D01*
X24165356Y-14005356D01*
X9941356Y-14005356D02*
X9941356Y-13934644D01*
X9870644Y-13934644D01*
X9870644Y-14005356D01*
X9941356Y-14005356D01*
X10195356Y-14005356D02*
X10195356Y-13934644D01*
X10124644Y-13934644D01*
X10124644Y-14005356D01*
X10195356Y-14005356D01*
X10449356Y-14005356D02*
X10449356Y-13934644D01*
X10378644Y-13934644D01*
X10378644Y-14005356D01*
X10449356Y-14005356D01*
X10703356Y-14005356D02*
X10703356Y-13934644D01*
X10632644Y-13934644D01*
X10632644Y-14005356D01*
X10703356Y-14005356D01*
X10957356Y-14005356D02*
X10957356Y-13934644D01*
X10886644Y-13934644D01*
X10886644Y-14005356D01*
X10957356Y-14005356D01*
X11211356Y-14005356D02*
X11211356Y-13934644D01*
X11140644Y-13934644D01*
X11140644Y-14005356D01*
X11211356Y-14005356D01*
X11465356Y-14005356D02*
X11465356Y-13934644D01*
X11394644Y-13934644D01*
X11394644Y-14005356D01*
X11465356Y-14005356D01*
X11719356Y-14005356D02*
X11719356Y-13934644D01*
X11648644Y-13934644D01*
X11648644Y-14005356D01*
X11719356Y-14005356D01*
X11973356Y-14005356D02*
X11973356Y-13934644D01*
X11902644Y-13934644D01*
X11902644Y-14005356D01*
X11973356Y-14005356D01*
X12227356Y-14005356D02*
X12227356Y-13934644D01*
X12156644Y-13934644D01*
X12156644Y-14005356D01*
X12227356Y-14005356D01*
X12481356Y-14005356D02*
X12481356Y-13934644D01*
X12410644Y-13934644D01*
X12410644Y-14005356D01*
X12481356Y-14005356D01*
X12735356Y-14005356D02*
X12735356Y-13934644D01*
X12664644Y-13934644D01*
X12664644Y-14005356D01*
X12735356Y-14005356D01*
X12989356Y-14005356D02*
X12989356Y-13934644D01*
X12918644Y-13934644D01*
X12918644Y-14005356D01*
X12989356Y-14005356D01*
X13243356Y-14005356D02*
X13243356Y-13934644D01*
X13172644Y-13934644D01*
X13172644Y-14005356D01*
X13243356Y-14005356D01*
X13497356Y-14005356D02*
X13497356Y-13934644D01*
X13426644Y-13934644D01*
X13426644Y-14005356D01*
X13497356Y-14005356D01*
X13751356Y-14005356D02*
X13751356Y-13934644D01*
X13680644Y-13934644D01*
X13680644Y-14005356D01*
X13751356Y-14005356D01*
X9687356Y-5623356D02*
X9687356Y-5552644D01*
X9616644Y-5552644D01*
X9616644Y-5623356D01*
X9687356Y-5623356D01*
X9941356Y-5623356D02*
X9941356Y-5552644D01*
X9870644Y-5552644D01*
X9870644Y-5623356D01*
X9941356Y-5623356D01*
X6385356Y-14005356D02*
X6385356Y-13934644D01*
X6314644Y-13934644D01*
X6314644Y-14005356D01*
X6385356Y-14005356D01*
X6639356Y-14005356D02*
X6639356Y-13934644D01*
X6568644Y-13934644D01*
X6568644Y-14005356D01*
X6639356Y-14005356D01*
X6893356Y-14005356D02*
X6893356Y-13934644D01*
X6822644Y-13934644D01*
X6822644Y-14005356D01*
X6893356Y-14005356D01*
X7147356Y-14005356D02*
X7147356Y-13934644D01*
X7076644Y-13934644D01*
X7076644Y-14005356D01*
X7147356Y-14005356D01*
X7401356Y-14005356D02*
X7401356Y-13934644D01*
X7330644Y-13934644D01*
X7330644Y-14005356D01*
X7401356Y-14005356D01*
X7655356Y-14005356D02*
X7655356Y-13934644D01*
X7584644Y-13934644D01*
X7584644Y-14005356D01*
X7655356Y-14005356D01*
X7909356Y-14005356D02*
X7909356Y-13934644D01*
X7838644Y-13934644D01*
X7838644Y-14005356D01*
X7909356Y-14005356D01*
X8163356Y-14005356D02*
X8163356Y-13934644D01*
X8092644Y-13934644D01*
X8092644Y-14005356D01*
X8163356Y-14005356D01*
X8417356Y-14005356D02*
X8417356Y-13934644D01*
X8346644Y-13934644D01*
X8346644Y-14005356D01*
X8417356Y-14005356D01*
X8671356Y-14005356D02*
X8671356Y-13934644D01*
X8600644Y-13934644D01*
X8600644Y-14005356D01*
X8671356Y-14005356D01*
X24165356Y-7401356D02*
X24165356Y-7330644D01*
X24094644Y-7330644D01*
X24094644Y-7401356D01*
X24165356Y-7401356D01*
X24165356Y-7655356D02*
X24165356Y-7584644D01*
X24094644Y-7584644D01*
X24094644Y-7655356D01*
X24165356Y-7655356D01*
X24165356Y-7909356D02*
X24165356Y-7838644D01*
X24094644Y-7838644D01*
X24094644Y-7909356D01*
X24165356Y-7909356D01*
X24130000Y-11988038D02*
X24180038Y-11938000D01*
X24130000Y-11887962D01*
X24079962Y-11938000D01*
X24130000Y-11988038D01*
X24638000Y-11988038D02*
X24688038Y-11938000D01*
X24638000Y-11887962D01*
X24587962Y-11938000D01*
X24638000Y-11988038D01*
X24130000Y-12750038D02*
X24180038Y-12700000D01*
X24130000Y-12649962D01*
X24079962Y-12700000D01*
X24130000Y-12750038D01*
X23622000Y-11988038D02*
X23672038Y-11938000D01*
X23622000Y-11887962D01*
X23571962Y-11938000D01*
X23622000Y-11988038D01*
X24638000Y-12750038D02*
X24688038Y-12700000D01*
X24638000Y-12649962D01*
X24587962Y-12700000D01*
X24638000Y-12750038D01*
X23622000Y-12750038D02*
X23672038Y-12700000D01*
X23622000Y-12649962D01*
X23571962Y-12700000D01*
X23622000Y-12750038D01*
D12*
X5363928Y-14819214D02*
X5363928Y-14519214D01*
X5435357Y-14519214D01*
X5478214Y-14533500D01*
X5506786Y-14562071D01*
X5521071Y-14590643D01*
X5535357Y-14647786D01*
X5535357Y-14690643D01*
X5521071Y-14747786D01*
X5506786Y-14776357D01*
X5478214Y-14804929D01*
X5435357Y-14819214D01*
X5363928Y-14819214D01*
X5663928Y-14819214D02*
X5663928Y-14619214D01*
X5663928Y-14676357D02*
X5678214Y-14647786D01*
X5692500Y-14633500D01*
X5721071Y-14619214D01*
X5749643Y-14619214D01*
X5849643Y-14819214D02*
X5849643Y-14619214D01*
X5849643Y-14519214D02*
X5835357Y-14533500D01*
X5849643Y-14547786D01*
X5863928Y-14533500D01*
X5849643Y-14519214D01*
X5849643Y-14547786D01*
X6035357Y-14819214D02*
X6006786Y-14804929D01*
X5992500Y-14776357D01*
X5992500Y-14519214D01*
X6192500Y-14819214D02*
X6163928Y-14804929D01*
X6149643Y-14776357D01*
X6149643Y-14519214D01*
X6535357Y-14819214D02*
X6535357Y-14519214D01*
X6635357Y-14733500D01*
X6735357Y-14519214D01*
X6735357Y-14819214D01*
X7006786Y-14819214D02*
X7006786Y-14662071D01*
X6992500Y-14633500D01*
X6963928Y-14619214D01*
X6906786Y-14619214D01*
X6878214Y-14633500D01*
X7006786Y-14804929D02*
X6978214Y-14819214D01*
X6906786Y-14819214D01*
X6878214Y-14804929D01*
X6863928Y-14776357D01*
X6863928Y-14747786D01*
X6878214Y-14719214D01*
X6906786Y-14704929D01*
X6978214Y-14704929D01*
X7006786Y-14690643D01*
X7149643Y-14619214D02*
X7149643Y-14919214D01*
X7149643Y-14633500D02*
X7178214Y-14619214D01*
X7235357Y-14619214D01*
X7263928Y-14633500D01*
X7278214Y-14647786D01*
X7292500Y-14676357D01*
X7292500Y-14762071D01*
X7278214Y-14790643D01*
X7263928Y-14804929D01*
X7235357Y-14819214D01*
X7178214Y-14819214D01*
X7149643Y-14804929D01*
X7421071Y-14790643D02*
X7435357Y-14804929D01*
X7421071Y-14819214D01*
X7406786Y-14804929D01*
X7421071Y-14790643D01*
X7421071Y-14819214D01*
X7421071Y-14633500D02*
X7435357Y-14647786D01*
X7421071Y-14662071D01*
X7406786Y-14647786D01*
X7421071Y-14633500D01*
X7421071Y-14662071D01*
X5037500Y-15293500D02*
X5077500Y-15333500D01*
X5077500Y-15293500D02*
X5037500Y-15333500D01*
X5421071Y-15149214D02*
X5449643Y-15149214D01*
X5478214Y-15163500D01*
X5492500Y-15177786D01*
X5506786Y-15206357D01*
X5521071Y-15263500D01*
X5521071Y-15334929D01*
X5506786Y-15392071D01*
X5492500Y-15420643D01*
X5478214Y-15434929D01*
X5449643Y-15449214D01*
X5421071Y-15449214D01*
X5392500Y-15434929D01*
X5378214Y-15420643D01*
X5363928Y-15392071D01*
X5349643Y-15334929D01*
X5349643Y-15263500D01*
X5363928Y-15206357D01*
X5378214Y-15177786D01*
X5392500Y-15163500D01*
X5421071Y-15149214D01*
X5649643Y-15420643D02*
X5663928Y-15434929D01*
X5649643Y-15449214D01*
X5635357Y-15434929D01*
X5649643Y-15420643D01*
X5649643Y-15449214D01*
X5921071Y-15249214D02*
X5921071Y-15449214D01*
X5849643Y-15134929D02*
X5778214Y-15349214D01*
X5963928Y-15349214D01*
X6135357Y-15149214D02*
X6163928Y-15149214D01*
X6192500Y-15163500D01*
X6206786Y-15177786D01*
X6221071Y-15206357D01*
X6235357Y-15263500D01*
X6235357Y-15334929D01*
X6221071Y-15392071D01*
X6206786Y-15420643D01*
X6192500Y-15434929D01*
X6163928Y-15449214D01*
X6135357Y-15449214D01*
X6106786Y-15434929D01*
X6092500Y-15420643D01*
X6078214Y-15392071D01*
X6063928Y-15334929D01*
X6063928Y-15263500D01*
X6078214Y-15206357D01*
X6092500Y-15177786D01*
X6106786Y-15163500D01*
X6135357Y-15149214D01*
X6363928Y-15449214D02*
X6363928Y-15249214D01*
X6363928Y-15277786D02*
X6378214Y-15263500D01*
X6406786Y-15249214D01*
X6449643Y-15249214D01*
X6478214Y-15263500D01*
X6492500Y-15292071D01*
X6492500Y-15449214D01*
X6492500Y-15292071D02*
X6506786Y-15263500D01*
X6535357Y-15249214D01*
X6578214Y-15249214D01*
X6606786Y-15263500D01*
X6621071Y-15292071D01*
X6621071Y-15449214D01*
X6763928Y-15449214D02*
X6763928Y-15249214D01*
X6763928Y-15277786D02*
X6778214Y-15263500D01*
X6806786Y-15249214D01*
X6849643Y-15249214D01*
X6878214Y-15263500D01*
X6892500Y-15292071D01*
X6892500Y-15449214D01*
X6892500Y-15292071D02*
X6906786Y-15263500D01*
X6935357Y-15249214D01*
X6978214Y-15249214D01*
X7006786Y-15263500D01*
X7021071Y-15292071D01*
X7021071Y-15449214D01*
X7606786Y-15134929D02*
X7349643Y-15520643D01*
X7992500Y-15149214D02*
X8021071Y-15149214D01*
X8049643Y-15163500D01*
X8063928Y-15177786D01*
X8078214Y-15206357D01*
X8092500Y-15263500D01*
X8092500Y-15334929D01*
X8078214Y-15392071D01*
X8063928Y-15420643D01*
X8049643Y-15434929D01*
X8021071Y-15449214D01*
X7992500Y-15449214D01*
X7963928Y-15434929D01*
X7949643Y-15420643D01*
X7935357Y-15392071D01*
X7921071Y-15334929D01*
X7921071Y-15263500D01*
X7935357Y-15206357D01*
X7949643Y-15177786D01*
X7963928Y-15163500D01*
X7992500Y-15149214D01*
X8221071Y-15420643D02*
X8235357Y-15434929D01*
X8221071Y-15449214D01*
X8206786Y-15434929D01*
X8221071Y-15420643D01*
X8221071Y-15449214D01*
X8421071Y-15149214D02*
X8449643Y-15149214D01*
X8478214Y-15163500D01*
X8492500Y-15177786D01*
X8506786Y-15206357D01*
X8521071Y-15263500D01*
X8521071Y-15334929D01*
X8506786Y-15392071D01*
X8492500Y-15420643D01*
X8478214Y-15434929D01*
X8449643Y-15449214D01*
X8421071Y-15449214D01*
X8392500Y-15434929D01*
X8378214Y-15420643D01*
X8363928Y-15392071D01*
X8349643Y-15334929D01*
X8349643Y-15263500D01*
X8363928Y-15206357D01*
X8378214Y-15177786D01*
X8392500Y-15163500D01*
X8421071Y-15149214D01*
X8806786Y-15449214D02*
X8635357Y-15449214D01*
X8721071Y-15449214D02*
X8721071Y-15149214D01*
X8692500Y-15192071D01*
X8663928Y-15220643D01*
X8635357Y-15234929D01*
X9063928Y-15149214D02*
X9006786Y-15149214D01*
X8978214Y-15163500D01*
X8963928Y-15177786D01*
X8935357Y-15220643D01*
X8921071Y-15277786D01*
X8921071Y-15392071D01*
X8935357Y-15420643D01*
X8949643Y-15434929D01*
X8978214Y-15449214D01*
X9035357Y-15449214D01*
X9063928Y-15434929D01*
X9078214Y-15420643D01*
X9092500Y-15392071D01*
X9092500Y-15320643D01*
X9078214Y-15292071D01*
X9063928Y-15277786D01*
X9035357Y-15263500D01*
X8978214Y-15263500D01*
X8949643Y-15277786D01*
X8935357Y-15292071D01*
X8921071Y-15320643D01*
X9206786Y-15149214D02*
X9206786Y-15206357D01*
X9321071Y-15149214D02*
X9321071Y-15206357D01*
X9763928Y-15563500D02*
X9749643Y-15549214D01*
X9721071Y-15506357D01*
X9706786Y-15477786D01*
X9692500Y-15434929D01*
X9678214Y-15363500D01*
X9678214Y-15306357D01*
X9692500Y-15234929D01*
X9706786Y-15192071D01*
X9721071Y-15163500D01*
X9749643Y-15120643D01*
X9763928Y-15106357D01*
X10035357Y-15449214D02*
X9863928Y-15449214D01*
X9949643Y-15449214D02*
X9949643Y-15149214D01*
X9921071Y-15192071D01*
X9892500Y-15220643D01*
X9863928Y-15234929D01*
X10292500Y-15149214D02*
X10235357Y-15149214D01*
X10206786Y-15163500D01*
X10192500Y-15177786D01*
X10163928Y-15220643D01*
X10149643Y-15277786D01*
X10149643Y-15392071D01*
X10163928Y-15420643D01*
X10178214Y-15434929D01*
X10206786Y-15449214D01*
X10263928Y-15449214D01*
X10292500Y-15434929D01*
X10306786Y-15420643D01*
X10321071Y-15392071D01*
X10321071Y-15320643D01*
X10306786Y-15292071D01*
X10292500Y-15277786D01*
X10263928Y-15263500D01*
X10206786Y-15263500D01*
X10178214Y-15277786D01*
X10163928Y-15292071D01*
X10149643Y-15320643D01*
X10606786Y-15449214D02*
X10435357Y-15449214D01*
X10521071Y-15449214D02*
X10521071Y-15149214D01*
X10492500Y-15192071D01*
X10463928Y-15220643D01*
X10435357Y-15234929D01*
X10963928Y-15449214D02*
X10963928Y-15149214D01*
X11092500Y-15449214D02*
X11092500Y-15292071D01*
X11078214Y-15263500D01*
X11049643Y-15249214D01*
X11006786Y-15249214D01*
X10978214Y-15263500D01*
X10963928Y-15277786D01*
X11278214Y-15449214D02*
X11249643Y-15434929D01*
X11235357Y-15420643D01*
X11221071Y-15392071D01*
X11221071Y-15306357D01*
X11235357Y-15277786D01*
X11249643Y-15263500D01*
X11278214Y-15249214D01*
X11321071Y-15249214D01*
X11349643Y-15263500D01*
X11363928Y-15277786D01*
X11378214Y-15306357D01*
X11378214Y-15392071D01*
X11363928Y-15420643D01*
X11349643Y-15434929D01*
X11321071Y-15449214D01*
X11278214Y-15449214D01*
X11549643Y-15449214D02*
X11521071Y-15434929D01*
X11506786Y-15406357D01*
X11506786Y-15149214D01*
X11778214Y-15434929D02*
X11749643Y-15449214D01*
X11692500Y-15449214D01*
X11663928Y-15434929D01*
X11649643Y-15406357D01*
X11649643Y-15292071D01*
X11663928Y-15263500D01*
X11692500Y-15249214D01*
X11749643Y-15249214D01*
X11778214Y-15263500D01*
X11792500Y-15292071D01*
X11792500Y-15320643D01*
X11649643Y-15349214D01*
X11906786Y-15434929D02*
X11935357Y-15449214D01*
X11992500Y-15449214D01*
X12021071Y-15434929D01*
X12035357Y-15406357D01*
X12035357Y-15392071D01*
X12021071Y-15363500D01*
X11992500Y-15349214D01*
X11949643Y-15349214D01*
X11921071Y-15334929D01*
X11906786Y-15306357D01*
X11906786Y-15292071D01*
X11921071Y-15263500D01*
X11949643Y-15249214D01*
X11992500Y-15249214D01*
X12021071Y-15263500D01*
X12135357Y-15563500D02*
X12149643Y-15549214D01*
X12178214Y-15506357D01*
X12192500Y-15477786D01*
X12206786Y-15434929D01*
X12221071Y-15363500D01*
X12221071Y-15306357D01*
X12206786Y-15234929D01*
X12192500Y-15192071D01*
X12178214Y-15163500D01*
X12149643Y-15120643D01*
X12135357Y-15106357D01*
X5077500Y-15709500D02*
G75*
G03X5077500Y-15709500I-40000J0D01*
G01*
X5421071Y-15545214D02*
X5449643Y-15545214D01*
X5478214Y-15559500D01*
X5492500Y-15573786D01*
X5506786Y-15602357D01*
X5521071Y-15659500D01*
X5521071Y-15730929D01*
X5506786Y-15788071D01*
X5492500Y-15816643D01*
X5478214Y-15830929D01*
X5449643Y-15845214D01*
X5421071Y-15845214D01*
X5392500Y-15830929D01*
X5378214Y-15816643D01*
X5363928Y-15788071D01*
X5349643Y-15730929D01*
X5349643Y-15659500D01*
X5363928Y-15602357D01*
X5378214Y-15573786D01*
X5392500Y-15559500D01*
X5421071Y-15545214D01*
X5649643Y-15816643D02*
X5663928Y-15830929D01*
X5649643Y-15845214D01*
X5635357Y-15830929D01*
X5649643Y-15816643D01*
X5649643Y-15845214D01*
X5835357Y-15673786D02*
X5806786Y-15659500D01*
X5792500Y-15645214D01*
X5778214Y-15616643D01*
X5778214Y-15602357D01*
X5792500Y-15573786D01*
X5806786Y-15559500D01*
X5835357Y-15545214D01*
X5892500Y-15545214D01*
X5921071Y-15559500D01*
X5935357Y-15573786D01*
X5949643Y-15602357D01*
X5949643Y-15616643D01*
X5935357Y-15645214D01*
X5921071Y-15659500D01*
X5892500Y-15673786D01*
X5835357Y-15673786D01*
X5806786Y-15688071D01*
X5792500Y-15702357D01*
X5778214Y-15730929D01*
X5778214Y-15788071D01*
X5792500Y-15816643D01*
X5806786Y-15830929D01*
X5835357Y-15845214D01*
X5892500Y-15845214D01*
X5921071Y-15830929D01*
X5935357Y-15816643D01*
X5949643Y-15788071D01*
X5949643Y-15730929D01*
X5935357Y-15702357D01*
X5921071Y-15688071D01*
X5892500Y-15673786D01*
X6135357Y-15545214D02*
X6163928Y-15545214D01*
X6192500Y-15559500D01*
X6206786Y-15573786D01*
X6221071Y-15602357D01*
X6235357Y-15659500D01*
X6235357Y-15730929D01*
X6221071Y-15788071D01*
X6206786Y-15816643D01*
X6192500Y-15830929D01*
X6163928Y-15845214D01*
X6135357Y-15845214D01*
X6106786Y-15830929D01*
X6092500Y-15816643D01*
X6078214Y-15788071D01*
X6063928Y-15730929D01*
X6063928Y-15659500D01*
X6078214Y-15602357D01*
X6092500Y-15573786D01*
X6106786Y-15559500D01*
X6135357Y-15545214D01*
X6363928Y-15845214D02*
X6363928Y-15645214D01*
X6363928Y-15673786D02*
X6378214Y-15659500D01*
X6406786Y-15645214D01*
X6449643Y-15645214D01*
X6478214Y-15659500D01*
X6492500Y-15688071D01*
X6492500Y-15845214D01*
X6492500Y-15688071D02*
X6506786Y-15659500D01*
X6535357Y-15645214D01*
X6578214Y-15645214D01*
X6606786Y-15659500D01*
X6621071Y-15688071D01*
X6621071Y-15845214D01*
X6763928Y-15845214D02*
X6763928Y-15645214D01*
X6763928Y-15673786D02*
X6778214Y-15659500D01*
X6806786Y-15645214D01*
X6849643Y-15645214D01*
X6878214Y-15659500D01*
X6892500Y-15688071D01*
X6892500Y-15845214D01*
X6892500Y-15688071D02*
X6906786Y-15659500D01*
X6935357Y-15645214D01*
X6978214Y-15645214D01*
X7006786Y-15659500D01*
X7021071Y-15688071D01*
X7021071Y-15845214D01*
X7606786Y-15530929D02*
X7349643Y-15916643D01*
X7992500Y-15545214D02*
X8021071Y-15545214D01*
X8049643Y-15559500D01*
X8063928Y-15573786D01*
X8078214Y-15602357D01*
X8092500Y-15659500D01*
X8092500Y-15730929D01*
X8078214Y-15788071D01*
X8063928Y-15816643D01*
X8049643Y-15830929D01*
X8021071Y-15845214D01*
X7992500Y-15845214D01*
X7963928Y-15830929D01*
X7949643Y-15816643D01*
X7935357Y-15788071D01*
X7921071Y-15730929D01*
X7921071Y-15659500D01*
X7935357Y-15602357D01*
X7949643Y-15573786D01*
X7963928Y-15559500D01*
X7992500Y-15545214D01*
X8221071Y-15816643D02*
X8235357Y-15830929D01*
X8221071Y-15845214D01*
X8206786Y-15830929D01*
X8221071Y-15816643D01*
X8221071Y-15845214D01*
X8421071Y-15545214D02*
X8449643Y-15545214D01*
X8478214Y-15559500D01*
X8492500Y-15573786D01*
X8506786Y-15602357D01*
X8521071Y-15659500D01*
X8521071Y-15730929D01*
X8506786Y-15788071D01*
X8492500Y-15816643D01*
X8478214Y-15830929D01*
X8449643Y-15845214D01*
X8421071Y-15845214D01*
X8392500Y-15830929D01*
X8378214Y-15816643D01*
X8363928Y-15788071D01*
X8349643Y-15730929D01*
X8349643Y-15659500D01*
X8363928Y-15602357D01*
X8378214Y-15573786D01*
X8392500Y-15559500D01*
X8421071Y-15545214D01*
X8621071Y-15545214D02*
X8806786Y-15545214D01*
X8706786Y-15659500D01*
X8749643Y-15659500D01*
X8778214Y-15673786D01*
X8792500Y-15688071D01*
X8806786Y-15716643D01*
X8806786Y-15788071D01*
X8792500Y-15816643D01*
X8778214Y-15830929D01*
X8749643Y-15845214D01*
X8663928Y-15845214D01*
X8635357Y-15830929D01*
X8621071Y-15816643D01*
X9092500Y-15845214D02*
X8921071Y-15845214D01*
X9006786Y-15845214D02*
X9006786Y-15545214D01*
X8978214Y-15588071D01*
X8949643Y-15616643D01*
X8921071Y-15630929D01*
X9206786Y-15545214D02*
X9206786Y-15602357D01*
X9321071Y-15545214D02*
X9321071Y-15602357D01*
X9763928Y-15959500D02*
X9749643Y-15945214D01*
X9721071Y-15902357D01*
X9706786Y-15873786D01*
X9692500Y-15830929D01*
X9678214Y-15759500D01*
X9678214Y-15702357D01*
X9692500Y-15630929D01*
X9706786Y-15588071D01*
X9721071Y-15559500D01*
X9749643Y-15516643D01*
X9763928Y-15502357D01*
X10035357Y-15845214D02*
X9863928Y-15845214D01*
X9949643Y-15845214D02*
X9949643Y-15545214D01*
X9921071Y-15588071D01*
X9892500Y-15616643D01*
X9863928Y-15630929D01*
X10135357Y-15545214D02*
X10335357Y-15545214D01*
X10206786Y-15845214D01*
X10578214Y-15545214D02*
X10521071Y-15545214D01*
X10492500Y-15559500D01*
X10478214Y-15573786D01*
X10449643Y-15616643D01*
X10435357Y-15673786D01*
X10435357Y-15788071D01*
X10449643Y-15816643D01*
X10463928Y-15830929D01*
X10492500Y-15845214D01*
X10549643Y-15845214D01*
X10578214Y-15830929D01*
X10592500Y-15816643D01*
X10606786Y-15788071D01*
X10606786Y-15716643D01*
X10592500Y-15688071D01*
X10578214Y-15673786D01*
X10549643Y-15659500D01*
X10492500Y-15659500D01*
X10463928Y-15673786D01*
X10449643Y-15688071D01*
X10435357Y-15716643D01*
X10963928Y-15845214D02*
X10963928Y-15545214D01*
X11092500Y-15845214D02*
X11092500Y-15688071D01*
X11078214Y-15659500D01*
X11049643Y-15645214D01*
X11006786Y-15645214D01*
X10978214Y-15659500D01*
X10963928Y-15673786D01*
X11278214Y-15845214D02*
X11249643Y-15830929D01*
X11235357Y-15816643D01*
X11221071Y-15788071D01*
X11221071Y-15702357D01*
X11235357Y-15673786D01*
X11249643Y-15659500D01*
X11278214Y-15645214D01*
X11321071Y-15645214D01*
X11349643Y-15659500D01*
X11363928Y-15673786D01*
X11378214Y-15702357D01*
X11378214Y-15788071D01*
X11363928Y-15816643D01*
X11349643Y-15830929D01*
X11321071Y-15845214D01*
X11278214Y-15845214D01*
X11549643Y-15845214D02*
X11521071Y-15830929D01*
X11506786Y-15802357D01*
X11506786Y-15545214D01*
X11778214Y-15830929D02*
X11749643Y-15845214D01*
X11692500Y-15845214D01*
X11663928Y-15830929D01*
X11649643Y-15802357D01*
X11649643Y-15688071D01*
X11663928Y-15659500D01*
X11692500Y-15645214D01*
X11749643Y-15645214D01*
X11778214Y-15659500D01*
X11792500Y-15688071D01*
X11792500Y-15716643D01*
X11649643Y-15745214D01*
X11906786Y-15830929D02*
X11935357Y-15845214D01*
X11992500Y-15845214D01*
X12021071Y-15830929D01*
X12035357Y-15802357D01*
X12035357Y-15788071D01*
X12021071Y-15759500D01*
X11992500Y-15745214D01*
X11949643Y-15745214D01*
X11921071Y-15730929D01*
X11906786Y-15702357D01*
X11906786Y-15688071D01*
X11921071Y-15659500D01*
X11949643Y-15645214D01*
X11992500Y-15645214D01*
X12021071Y-15659500D01*
X12135357Y-15959500D02*
X12149643Y-15945214D01*
X12178214Y-15902357D01*
X12192500Y-15873786D01*
X12206786Y-15830929D01*
X12221071Y-15759500D01*
X12221071Y-15702357D01*
X12206786Y-15630929D01*
X12192500Y-15588071D01*
X12178214Y-15559500D01*
X12149643Y-15516643D01*
X12135357Y-15502357D01*
X5032500Y-16060500D02*
X5032500Y-16150500D01*
X4987500Y-16105500D02*
X5077500Y-16105500D01*
X5421071Y-15941214D02*
X5449643Y-15941214D01*
X5478214Y-15955500D01*
X5492500Y-15969786D01*
X5506786Y-15998357D01*
X5521071Y-16055500D01*
X5521071Y-16126929D01*
X5506786Y-16184071D01*
X5492500Y-16212643D01*
X5478214Y-16226929D01*
X5449643Y-16241214D01*
X5421071Y-16241214D01*
X5392500Y-16226929D01*
X5378214Y-16212643D01*
X5363928Y-16184071D01*
X5349643Y-16126929D01*
X5349643Y-16055500D01*
X5363928Y-15998357D01*
X5378214Y-15969786D01*
X5392500Y-15955500D01*
X5421071Y-15941214D01*
X5649643Y-16212643D02*
X5663928Y-16226929D01*
X5649643Y-16241214D01*
X5635357Y-16226929D01*
X5649643Y-16212643D01*
X5649643Y-16241214D01*
X5806786Y-16241214D02*
X5863928Y-16241214D01*
X5892500Y-16226929D01*
X5906786Y-16212643D01*
X5935357Y-16169786D01*
X5949643Y-16112643D01*
X5949643Y-15998357D01*
X5935357Y-15969786D01*
X5921071Y-15955500D01*
X5892500Y-15941214D01*
X5835357Y-15941214D01*
X5806786Y-15955500D01*
X5792500Y-15969786D01*
X5778214Y-15998357D01*
X5778214Y-16069786D01*
X5792500Y-16098357D01*
X5806786Y-16112643D01*
X5835357Y-16126929D01*
X5892500Y-16126929D01*
X5921071Y-16112643D01*
X5935357Y-16098357D01*
X5949643Y-16069786D01*
X6135357Y-15941214D02*
X6163928Y-15941214D01*
X6192500Y-15955500D01*
X6206786Y-15969786D01*
X6221071Y-15998357D01*
X6235357Y-16055500D01*
X6235357Y-16126929D01*
X6221071Y-16184071D01*
X6206786Y-16212643D01*
X6192500Y-16226929D01*
X6163928Y-16241214D01*
X6135357Y-16241214D01*
X6106786Y-16226929D01*
X6092500Y-16212643D01*
X6078214Y-16184071D01*
X6063928Y-16126929D01*
X6063928Y-16055500D01*
X6078214Y-15998357D01*
X6092500Y-15969786D01*
X6106786Y-15955500D01*
X6135357Y-15941214D01*
X6363928Y-16241214D02*
X6363928Y-16041214D01*
X6363928Y-16069786D02*
X6378214Y-16055500D01*
X6406786Y-16041214D01*
X6449643Y-16041214D01*
X6478214Y-16055500D01*
X6492500Y-16084071D01*
X6492500Y-16241214D01*
X6492500Y-16084071D02*
X6506786Y-16055500D01*
X6535357Y-16041214D01*
X6578214Y-16041214D01*
X6606786Y-16055500D01*
X6621071Y-16084071D01*
X6621071Y-16241214D01*
X6763928Y-16241214D02*
X6763928Y-16041214D01*
X6763928Y-16069786D02*
X6778214Y-16055500D01*
X6806786Y-16041214D01*
X6849643Y-16041214D01*
X6878214Y-16055500D01*
X6892500Y-16084071D01*
X6892500Y-16241214D01*
X6892500Y-16084071D02*
X6906786Y-16055500D01*
X6935357Y-16041214D01*
X6978214Y-16041214D01*
X7006786Y-16055500D01*
X7021071Y-16084071D01*
X7021071Y-16241214D01*
X7606786Y-15926929D02*
X7349643Y-16312643D01*
X7992500Y-15941214D02*
X8021071Y-15941214D01*
X8049643Y-15955500D01*
X8063928Y-15969786D01*
X8078214Y-15998357D01*
X8092500Y-16055500D01*
X8092500Y-16126929D01*
X8078214Y-16184071D01*
X8063928Y-16212643D01*
X8049643Y-16226929D01*
X8021071Y-16241214D01*
X7992500Y-16241214D01*
X7963928Y-16226929D01*
X7949643Y-16212643D01*
X7935357Y-16184071D01*
X7921071Y-16126929D01*
X7921071Y-16055500D01*
X7935357Y-15998357D01*
X7949643Y-15969786D01*
X7963928Y-15955500D01*
X7992500Y-15941214D01*
X8221071Y-16212643D02*
X8235357Y-16226929D01*
X8221071Y-16241214D01*
X8206786Y-16226929D01*
X8221071Y-16212643D01*
X8221071Y-16241214D01*
X8421071Y-15941214D02*
X8449643Y-15941214D01*
X8478214Y-15955500D01*
X8492500Y-15969786D01*
X8506786Y-15998357D01*
X8521071Y-16055500D01*
X8521071Y-16126929D01*
X8506786Y-16184071D01*
X8492500Y-16212643D01*
X8478214Y-16226929D01*
X8449643Y-16241214D01*
X8421071Y-16241214D01*
X8392500Y-16226929D01*
X8378214Y-16212643D01*
X8363928Y-16184071D01*
X8349643Y-16126929D01*
X8349643Y-16055500D01*
X8363928Y-15998357D01*
X8378214Y-15969786D01*
X8392500Y-15955500D01*
X8421071Y-15941214D01*
X8621071Y-15941214D02*
X8806786Y-15941214D01*
X8706786Y-16055500D01*
X8749643Y-16055500D01*
X8778214Y-16069786D01*
X8792500Y-16084071D01*
X8806786Y-16112643D01*
X8806786Y-16184071D01*
X8792500Y-16212643D01*
X8778214Y-16226929D01*
X8749643Y-16241214D01*
X8663928Y-16241214D01*
X8635357Y-16226929D01*
X8621071Y-16212643D01*
X9078214Y-15941214D02*
X8935357Y-15941214D01*
X8921071Y-16084071D01*
X8935357Y-16069786D01*
X8963928Y-16055500D01*
X9035357Y-16055500D01*
X9063928Y-16069786D01*
X9078214Y-16084071D01*
X9092500Y-16112643D01*
X9092500Y-16184071D01*
X9078214Y-16212643D01*
X9063928Y-16226929D01*
X9035357Y-16241214D01*
X8963928Y-16241214D01*
X8935357Y-16226929D01*
X8921071Y-16212643D01*
X9206786Y-15941214D02*
X9206786Y-15998357D01*
X9321071Y-15941214D02*
X9321071Y-15998357D01*
X9763928Y-16355500D02*
X9749643Y-16341214D01*
X9721071Y-16298357D01*
X9706786Y-16269786D01*
X9692500Y-16226929D01*
X9678214Y-16155500D01*
X9678214Y-16098357D01*
X9692500Y-16026929D01*
X9706786Y-15984071D01*
X9721071Y-15955500D01*
X9749643Y-15912643D01*
X9763928Y-15898357D01*
X9849643Y-15941214D02*
X10035357Y-15941214D01*
X9935357Y-16055500D01*
X9978214Y-16055500D01*
X10006786Y-16069786D01*
X10021071Y-16084071D01*
X10035357Y-16112643D01*
X10035357Y-16184071D01*
X10021071Y-16212643D01*
X10006786Y-16226929D01*
X9978214Y-16241214D01*
X9892500Y-16241214D01*
X9863928Y-16226929D01*
X9849643Y-16212643D01*
X10149643Y-15969786D02*
X10163928Y-15955500D01*
X10192500Y-15941214D01*
X10263928Y-15941214D01*
X10292500Y-15955500D01*
X10306786Y-15969786D01*
X10321071Y-15998357D01*
X10321071Y-16026929D01*
X10306786Y-16069786D01*
X10135357Y-16241214D01*
X10321071Y-16241214D01*
X10678214Y-16241214D02*
X10678214Y-15941214D01*
X10806786Y-16241214D02*
X10806786Y-16084071D01*
X10792500Y-16055500D01*
X10763928Y-16041214D01*
X10721071Y-16041214D01*
X10692500Y-16055500D01*
X10678214Y-16069786D01*
X10992500Y-16241214D02*
X10963928Y-16226929D01*
X10949643Y-16212643D01*
X10935357Y-16184071D01*
X10935357Y-16098357D01*
X10949643Y-16069786D01*
X10963928Y-16055500D01*
X10992500Y-16041214D01*
X11035357Y-16041214D01*
X11063928Y-16055500D01*
X11078214Y-16069786D01*
X11092500Y-16098357D01*
X11092500Y-16184071D01*
X11078214Y-16212643D01*
X11063928Y-16226929D01*
X11035357Y-16241214D01*
X10992500Y-16241214D01*
X11263928Y-16241214D02*
X11235357Y-16226929D01*
X11221071Y-16198357D01*
X11221071Y-15941214D01*
X11492500Y-16226929D02*
X11463928Y-16241214D01*
X11406786Y-16241214D01*
X11378214Y-16226929D01*
X11363928Y-16198357D01*
X11363928Y-16084071D01*
X11378214Y-16055500D01*
X11406786Y-16041214D01*
X11463928Y-16041214D01*
X11492500Y-16055500D01*
X11506786Y-16084071D01*
X11506786Y-16112643D01*
X11363928Y-16141214D01*
X11621071Y-16226929D02*
X11649643Y-16241214D01*
X11706786Y-16241214D01*
X11735357Y-16226929D01*
X11749643Y-16198357D01*
X11749643Y-16184071D01*
X11735357Y-16155500D01*
X11706786Y-16141214D01*
X11663928Y-16141214D01*
X11635357Y-16126929D01*
X11621071Y-16098357D01*
X11621071Y-16084071D01*
X11635357Y-16055500D01*
X11663928Y-16041214D01*
X11706786Y-16041214D01*
X11735357Y-16055500D01*
X11849643Y-16355500D02*
X11863928Y-16341214D01*
X11892500Y-16298357D01*
X11906786Y-16269786D01*
X11921071Y-16226929D01*
X11935357Y-16155500D01*
X11935357Y-16098357D01*
X11921071Y-16026929D01*
X11906786Y-15984071D01*
X11892500Y-15955500D01*
X11863928Y-15912643D01*
X11849643Y-15898357D01*
X5062856Y-16536856D02*
X5062856Y-16466144D01*
X4992144Y-16466144D01*
X4992144Y-16536856D01*
X5062856Y-16536856D01*
X5521071Y-16637214D02*
X5349643Y-16637214D01*
X5435357Y-16637214D02*
X5435357Y-16337214D01*
X5406786Y-16380071D01*
X5378214Y-16408643D01*
X5349643Y-16422929D01*
X5649643Y-16608643D02*
X5663928Y-16622929D01*
X5649643Y-16637214D01*
X5635357Y-16622929D01*
X5649643Y-16608643D01*
X5649643Y-16637214D01*
X5849643Y-16337214D02*
X5878214Y-16337214D01*
X5906786Y-16351500D01*
X5921071Y-16365786D01*
X5935357Y-16394357D01*
X5949643Y-16451500D01*
X5949643Y-16522929D01*
X5935357Y-16580071D01*
X5921071Y-16608643D01*
X5906786Y-16622929D01*
X5878214Y-16637214D01*
X5849643Y-16637214D01*
X5821071Y-16622929D01*
X5806786Y-16608643D01*
X5792500Y-16580071D01*
X5778214Y-16522929D01*
X5778214Y-16451500D01*
X5792500Y-16394357D01*
X5806786Y-16365786D01*
X5821071Y-16351500D01*
X5849643Y-16337214D01*
X6135357Y-16337214D02*
X6163928Y-16337214D01*
X6192500Y-16351500D01*
X6206786Y-16365786D01*
X6221071Y-16394357D01*
X6235357Y-16451500D01*
X6235357Y-16522929D01*
X6221071Y-16580071D01*
X6206786Y-16608643D01*
X6192500Y-16622929D01*
X6163928Y-16637214D01*
X6135357Y-16637214D01*
X6106786Y-16622929D01*
X6092500Y-16608643D01*
X6078214Y-16580071D01*
X6063928Y-16522929D01*
X6063928Y-16451500D01*
X6078214Y-16394357D01*
X6092500Y-16365786D01*
X6106786Y-16351500D01*
X6135357Y-16337214D01*
X6363928Y-16637214D02*
X6363928Y-16437214D01*
X6363928Y-16465786D02*
X6378214Y-16451500D01*
X6406786Y-16437214D01*
X6449643Y-16437214D01*
X6478214Y-16451500D01*
X6492500Y-16480071D01*
X6492500Y-16637214D01*
X6492500Y-16480071D02*
X6506786Y-16451500D01*
X6535357Y-16437214D01*
X6578214Y-16437214D01*
X6606786Y-16451500D01*
X6621071Y-16480071D01*
X6621071Y-16637214D01*
X6763928Y-16637214D02*
X6763928Y-16437214D01*
X6763928Y-16465786D02*
X6778214Y-16451500D01*
X6806786Y-16437214D01*
X6849643Y-16437214D01*
X6878214Y-16451500D01*
X6892500Y-16480071D01*
X6892500Y-16637214D01*
X6892500Y-16480071D02*
X6906786Y-16451500D01*
X6935357Y-16437214D01*
X6978214Y-16437214D01*
X7006786Y-16451500D01*
X7021071Y-16480071D01*
X7021071Y-16637214D01*
X7606786Y-16322929D02*
X7349643Y-16708643D01*
X7992500Y-16337214D02*
X8021071Y-16337214D01*
X8049643Y-16351500D01*
X8063928Y-16365786D01*
X8078214Y-16394357D01*
X8092500Y-16451500D01*
X8092500Y-16522929D01*
X8078214Y-16580071D01*
X8063928Y-16608643D01*
X8049643Y-16622929D01*
X8021071Y-16637214D01*
X7992500Y-16637214D01*
X7963928Y-16622929D01*
X7949643Y-16608643D01*
X7935357Y-16580071D01*
X7921071Y-16522929D01*
X7921071Y-16451500D01*
X7935357Y-16394357D01*
X7949643Y-16365786D01*
X7963928Y-16351500D01*
X7992500Y-16337214D01*
X8221071Y-16608643D02*
X8235357Y-16622929D01*
X8221071Y-16637214D01*
X8206786Y-16622929D01*
X8221071Y-16608643D01*
X8221071Y-16637214D01*
X8421071Y-16337214D02*
X8449643Y-16337214D01*
X8478214Y-16351500D01*
X8492500Y-16365786D01*
X8506786Y-16394357D01*
X8521071Y-16451500D01*
X8521071Y-16522929D01*
X8506786Y-16580071D01*
X8492500Y-16608643D01*
X8478214Y-16622929D01*
X8449643Y-16637214D01*
X8421071Y-16637214D01*
X8392500Y-16622929D01*
X8378214Y-16608643D01*
X8363928Y-16580071D01*
X8349643Y-16522929D01*
X8349643Y-16451500D01*
X8363928Y-16394357D01*
X8378214Y-16365786D01*
X8392500Y-16351500D01*
X8421071Y-16337214D01*
X8621071Y-16337214D02*
X8806786Y-16337214D01*
X8706786Y-16451500D01*
X8749643Y-16451500D01*
X8778214Y-16465786D01*
X8792500Y-16480071D01*
X8806786Y-16508643D01*
X8806786Y-16580071D01*
X8792500Y-16608643D01*
X8778214Y-16622929D01*
X8749643Y-16637214D01*
X8663928Y-16637214D01*
X8635357Y-16622929D01*
X8621071Y-16608643D01*
X8949643Y-16637214D02*
X9006786Y-16637214D01*
X9035357Y-16622929D01*
X9049643Y-16608643D01*
X9078214Y-16565786D01*
X9092500Y-16508643D01*
X9092500Y-16394357D01*
X9078214Y-16365786D01*
X9063928Y-16351500D01*
X9035357Y-16337214D01*
X8978214Y-16337214D01*
X8949643Y-16351500D01*
X8935357Y-16365786D01*
X8921071Y-16394357D01*
X8921071Y-16465786D01*
X8935357Y-16494357D01*
X8949643Y-16508643D01*
X8978214Y-16522929D01*
X9035357Y-16522929D01*
X9063928Y-16508643D01*
X9078214Y-16494357D01*
X9092500Y-16465786D01*
X9206786Y-16337214D02*
X9206786Y-16394357D01*
X9321071Y-16337214D02*
X9321071Y-16394357D01*
X9763928Y-16751500D02*
X9749643Y-16737214D01*
X9721071Y-16694357D01*
X9706786Y-16665786D01*
X9692500Y-16622929D01*
X9678214Y-16551500D01*
X9678214Y-16494357D01*
X9692500Y-16422929D01*
X9706786Y-16380071D01*
X9721071Y-16351500D01*
X9749643Y-16308643D01*
X9763928Y-16294357D01*
X10035357Y-16637214D02*
X9863928Y-16637214D01*
X9949643Y-16637214D02*
X9949643Y-16337214D01*
X9921071Y-16380071D01*
X9892500Y-16408643D01*
X9863928Y-16422929D01*
X10321071Y-16637214D02*
X10149643Y-16637214D01*
X10235357Y-16637214D02*
X10235357Y-16337214D01*
X10206786Y-16380071D01*
X10178214Y-16408643D01*
X10149643Y-16422929D01*
X10606786Y-16637214D02*
X10435357Y-16637214D01*
X10521071Y-16637214D02*
X10521071Y-16337214D01*
X10492500Y-16380071D01*
X10463928Y-16408643D01*
X10435357Y-16422929D01*
X10963928Y-16637214D02*
X10963928Y-16337214D01*
X11092500Y-16637214D02*
X11092500Y-16480071D01*
X11078214Y-16451500D01*
X11049643Y-16437214D01*
X11006786Y-16437214D01*
X10978214Y-16451500D01*
X10963928Y-16465786D01*
X11278214Y-16637214D02*
X11249643Y-16622929D01*
X11235357Y-16608643D01*
X11221071Y-16580071D01*
X11221071Y-16494357D01*
X11235357Y-16465786D01*
X11249643Y-16451500D01*
X11278214Y-16437214D01*
X11321071Y-16437214D01*
X11349643Y-16451500D01*
X11363928Y-16465786D01*
X11378214Y-16494357D01*
X11378214Y-16580071D01*
X11363928Y-16608643D01*
X11349643Y-16622929D01*
X11321071Y-16637214D01*
X11278214Y-16637214D01*
X11549643Y-16637214D02*
X11521071Y-16622929D01*
X11506786Y-16594357D01*
X11506786Y-16337214D01*
X11778214Y-16622929D02*
X11749643Y-16637214D01*
X11692500Y-16637214D01*
X11663928Y-16622929D01*
X11649643Y-16594357D01*
X11649643Y-16480071D01*
X11663928Y-16451500D01*
X11692500Y-16437214D01*
X11749643Y-16437214D01*
X11778214Y-16451500D01*
X11792500Y-16480071D01*
X11792500Y-16508643D01*
X11649643Y-16537214D01*
X11906786Y-16622929D02*
X11935357Y-16637214D01*
X11992500Y-16637214D01*
X12021071Y-16622929D01*
X12035357Y-16594357D01*
X12035357Y-16580071D01*
X12021071Y-16551500D01*
X11992500Y-16537214D01*
X11949643Y-16537214D01*
X11921071Y-16522929D01*
X11906786Y-16494357D01*
X11906786Y-16480071D01*
X11921071Y-16451500D01*
X11949643Y-16437214D01*
X11992500Y-16437214D01*
X12021071Y-16451500D01*
X12135357Y-16751500D02*
X12149643Y-16737214D01*
X12178214Y-16694357D01*
X12192500Y-16665786D01*
X12206786Y-16622929D01*
X12221071Y-16551500D01*
X12221071Y-16494357D01*
X12206786Y-16422929D01*
X12192500Y-16380071D01*
X12178214Y-16351500D01*
X12149643Y-16308643D01*
X12135357Y-16294357D01*
X5027462Y-16947538D02*
X5077500Y-16897500D01*
X5027462Y-16847462D01*
X4977424Y-16897500D01*
X5027462Y-16947538D01*
X5521071Y-17033214D02*
X5349643Y-17033214D01*
X5435357Y-17033214D02*
X5435357Y-16733214D01*
X5406786Y-16776071D01*
X5378214Y-16804643D01*
X5349643Y-16818929D01*
X5649643Y-17004643D02*
X5663928Y-17018929D01*
X5649643Y-17033214D01*
X5635357Y-17018929D01*
X5649643Y-17004643D01*
X5649643Y-17033214D01*
X5849643Y-16733214D02*
X5878214Y-16733214D01*
X5906786Y-16747500D01*
X5921071Y-16761786D01*
X5935357Y-16790357D01*
X5949643Y-16847500D01*
X5949643Y-16918929D01*
X5935357Y-16976072D01*
X5921071Y-17004643D01*
X5906786Y-17018929D01*
X5878214Y-17033214D01*
X5849643Y-17033214D01*
X5821071Y-17018929D01*
X5806786Y-17004643D01*
X5792500Y-16976072D01*
X5778214Y-16918929D01*
X5778214Y-16847500D01*
X5792500Y-16790357D01*
X5806786Y-16761786D01*
X5821071Y-16747500D01*
X5849643Y-16733214D01*
X6135357Y-16733214D02*
X6163928Y-16733214D01*
X6192500Y-16747500D01*
X6206786Y-16761786D01*
X6221071Y-16790357D01*
X6235357Y-16847500D01*
X6235357Y-16918929D01*
X6221071Y-16976072D01*
X6206786Y-17004643D01*
X6192500Y-17018929D01*
X6163928Y-17033214D01*
X6135357Y-17033214D01*
X6106786Y-17018929D01*
X6092500Y-17004643D01*
X6078214Y-16976072D01*
X6063928Y-16918929D01*
X6063928Y-16847500D01*
X6078214Y-16790357D01*
X6092500Y-16761786D01*
X6106786Y-16747500D01*
X6135357Y-16733214D01*
X6363928Y-17033214D02*
X6363928Y-16833214D01*
X6363928Y-16861786D02*
X6378214Y-16847500D01*
X6406786Y-16833214D01*
X6449643Y-16833214D01*
X6478214Y-16847500D01*
X6492500Y-16876072D01*
X6492500Y-17033214D01*
X6492500Y-16876072D02*
X6506786Y-16847500D01*
X6535357Y-16833214D01*
X6578214Y-16833214D01*
X6606786Y-16847500D01*
X6621071Y-16876072D01*
X6621071Y-17033214D01*
X6763928Y-17033214D02*
X6763928Y-16833214D01*
X6763928Y-16861786D02*
X6778214Y-16847500D01*
X6806786Y-16833214D01*
X6849643Y-16833214D01*
X6878214Y-16847500D01*
X6892500Y-16876072D01*
X6892500Y-17033214D01*
X6892500Y-16876072D02*
X6906786Y-16847500D01*
X6935357Y-16833214D01*
X6978214Y-16833214D01*
X7006786Y-16847500D01*
X7021071Y-16876072D01*
X7021071Y-17033214D01*
X7606786Y-16718929D02*
X7349643Y-17104643D01*
X7992500Y-16733214D02*
X8021071Y-16733214D01*
X8049643Y-16747500D01*
X8063928Y-16761786D01*
X8078214Y-16790357D01*
X8092500Y-16847500D01*
X8092500Y-16918929D01*
X8078214Y-16976072D01*
X8063928Y-17004643D01*
X8049643Y-17018929D01*
X8021071Y-17033214D01*
X7992500Y-17033214D01*
X7963928Y-17018929D01*
X7949643Y-17004643D01*
X7935357Y-16976072D01*
X7921071Y-16918929D01*
X7921071Y-16847500D01*
X7935357Y-16790357D01*
X7949643Y-16761786D01*
X7963928Y-16747500D01*
X7992500Y-16733214D01*
X8221071Y-17004643D02*
X8235357Y-17018929D01*
X8221071Y-17033214D01*
X8206786Y-17018929D01*
X8221071Y-17004643D01*
X8221071Y-17033214D01*
X8421071Y-16733214D02*
X8449643Y-16733214D01*
X8478214Y-16747500D01*
X8492500Y-16761786D01*
X8506786Y-16790357D01*
X8521071Y-16847500D01*
X8521071Y-16918929D01*
X8506786Y-16976072D01*
X8492500Y-17004643D01*
X8478214Y-17018929D01*
X8449643Y-17033214D01*
X8421071Y-17033214D01*
X8392500Y-17018929D01*
X8378214Y-17004643D01*
X8363928Y-16976072D01*
X8349643Y-16918929D01*
X8349643Y-16847500D01*
X8363928Y-16790357D01*
X8378214Y-16761786D01*
X8392500Y-16747500D01*
X8421071Y-16733214D01*
X8621071Y-16733214D02*
X8806786Y-16733214D01*
X8706786Y-16847500D01*
X8749643Y-16847500D01*
X8778214Y-16861786D01*
X8792500Y-16876072D01*
X8806786Y-16904643D01*
X8806786Y-16976072D01*
X8792500Y-17004643D01*
X8778214Y-17018929D01*
X8749643Y-17033214D01*
X8663928Y-17033214D01*
X8635357Y-17018929D01*
X8621071Y-17004643D01*
X8949643Y-17033214D02*
X9006786Y-17033214D01*
X9035357Y-17018929D01*
X9049643Y-17004643D01*
X9078214Y-16961786D01*
X9092500Y-16904643D01*
X9092500Y-16790357D01*
X9078214Y-16761786D01*
X9063928Y-16747500D01*
X9035357Y-16733214D01*
X8978214Y-16733214D01*
X8949643Y-16747500D01*
X8935357Y-16761786D01*
X8921071Y-16790357D01*
X8921071Y-16861786D01*
X8935357Y-16890357D01*
X8949643Y-16904643D01*
X8978214Y-16918929D01*
X9035357Y-16918929D01*
X9063928Y-16904643D01*
X9078214Y-16890357D01*
X9092500Y-16861786D01*
X9206786Y-16733214D02*
X9206786Y-16790357D01*
X9321071Y-16733214D02*
X9321071Y-16790357D01*
X9763928Y-17147500D02*
X9749643Y-17133214D01*
X9721071Y-17090357D01*
X9706786Y-17061786D01*
X9692500Y-17018929D01*
X9678214Y-16947500D01*
X9678214Y-16890357D01*
X9692500Y-16818929D01*
X9706786Y-16776071D01*
X9721071Y-16747500D01*
X9749643Y-16704643D01*
X9763928Y-16690357D01*
X10006786Y-16733214D02*
X9949643Y-16733214D01*
X9921071Y-16747500D01*
X9906786Y-16761786D01*
X9878214Y-16804643D01*
X9863928Y-16861786D01*
X9863928Y-16976072D01*
X9878214Y-17004643D01*
X9892500Y-17018929D01*
X9921071Y-17033214D01*
X9978214Y-17033214D01*
X10006786Y-17018929D01*
X10021071Y-17004643D01*
X10035357Y-16976072D01*
X10035357Y-16904643D01*
X10021071Y-16876072D01*
X10006786Y-16861786D01*
X9978214Y-16847500D01*
X9921071Y-16847500D01*
X9892500Y-16861786D01*
X9878214Y-16876072D01*
X9863928Y-16904643D01*
X10392500Y-17033214D02*
X10392500Y-16733214D01*
X10521071Y-17033214D02*
X10521071Y-16876072D01*
X10506786Y-16847500D01*
X10478214Y-16833214D01*
X10435357Y-16833214D01*
X10406786Y-16847500D01*
X10392500Y-16861786D01*
X10706786Y-17033214D02*
X10678214Y-17018929D01*
X10663928Y-17004643D01*
X10649643Y-16976072D01*
X10649643Y-16890357D01*
X10663928Y-16861786D01*
X10678214Y-16847500D01*
X10706786Y-16833214D01*
X10749643Y-16833214D01*
X10778214Y-16847500D01*
X10792500Y-16861786D01*
X10806786Y-16890357D01*
X10806786Y-16976072D01*
X10792500Y-17004643D01*
X10778214Y-17018929D01*
X10749643Y-17033214D01*
X10706786Y-17033214D01*
X10978214Y-17033214D02*
X10949643Y-17018929D01*
X10935357Y-16990357D01*
X10935357Y-16733214D01*
X11206786Y-17018929D02*
X11178214Y-17033214D01*
X11121071Y-17033214D01*
X11092500Y-17018929D01*
X11078214Y-16990357D01*
X11078214Y-16876072D01*
X11092500Y-16847500D01*
X11121071Y-16833214D01*
X11178214Y-16833214D01*
X11206786Y-16847500D01*
X11221071Y-16876072D01*
X11221071Y-16904643D01*
X11078214Y-16933214D01*
X11335357Y-17018929D02*
X11363928Y-17033214D01*
X11421071Y-17033214D01*
X11449643Y-17018929D01*
X11463928Y-16990357D01*
X11463928Y-16976072D01*
X11449643Y-16947500D01*
X11421071Y-16933214D01*
X11378214Y-16933214D01*
X11349643Y-16918929D01*
X11335357Y-16890357D01*
X11335357Y-16876072D01*
X11349643Y-16847500D01*
X11378214Y-16833214D01*
X11421071Y-16833214D01*
X11449643Y-16847500D01*
X11563928Y-17147500D02*
X11578214Y-17133214D01*
X11606786Y-17090357D01*
X11621071Y-17061786D01*
X11635357Y-17018929D01*
X11649643Y-16947500D01*
X11649643Y-16890357D01*
X11635357Y-16818929D01*
X11621071Y-16776071D01*
X11606786Y-16747500D01*
X11578214Y-16704643D01*
X11563928Y-16690357D01*
M02*
