G04 #@! TF.GenerationSoftware,KiCad,Pcbnew,(7.0.0)*
G04 #@! TF.CreationDate,2024-03-28T20:26:14-07:00*
G04 #@! TF.ProjectId,sound_square,736f756e-645f-4737-9175-6172652e6b69,rev?*
G04 #@! TF.SameCoordinates,Original*
G04 #@! TF.FileFunction,Copper,L1,Top*
G04 #@! TF.FilePolarity,Positive*
%FSLAX46Y46*%
G04 Gerber Fmt 4.6, Leading zero omitted, Abs format (unit mm)*
G04 Created by KiCad (PCBNEW (7.0.0)) date 2024-03-28 20:26:14*
%MOMM*%
%LPD*%
G01*
G04 APERTURE LIST*
G04 #@! TA.AperFunction,ComponentPad*
%ADD10R,1.600000X1.600000*%
G04 #@! TD*
G04 #@! TA.AperFunction,ComponentPad*
%ADD11O,1.600000X1.600000*%
G04 #@! TD*
G04 #@! TA.AperFunction,ComponentPad*
%ADD12R,1.800000X1.800000*%
G04 #@! TD*
G04 #@! TA.AperFunction,ComponentPad*
%ADD13C,1.800000*%
G04 #@! TD*
G04 #@! TA.AperFunction,ComponentPad*
%ADD14R,1.700000X1.700000*%
G04 #@! TD*
G04 #@! TA.AperFunction,ComponentPad*
%ADD15O,1.700000X1.700000*%
G04 #@! TD*
G04 #@! TA.AperFunction,ComponentPad*
%ADD16C,1.600000*%
G04 #@! TD*
G04 #@! TA.AperFunction,ComponentPad*
%ADD17C,1.440000*%
G04 #@! TD*
G04 #@! TA.AperFunction,ViaPad*
%ADD18C,0.762000*%
G04 #@! TD*
G04 #@! TA.AperFunction,Conductor*
%ADD19C,0.254000*%
G04 #@! TD*
G04 #@! TA.AperFunction,Conductor*
%ADD20C,0.762000*%
G04 #@! TD*
G04 APERTURE END LIST*
D10*
X177799999Y-99059999D03*
D11*
X180339999Y-99059999D03*
X182879999Y-99059999D03*
X185419999Y-99059999D03*
X187959999Y-99059999D03*
X190499999Y-99059999D03*
X193039999Y-99059999D03*
X193039999Y-91439999D03*
X190499999Y-91439999D03*
X187959999Y-91439999D03*
X185419999Y-91439999D03*
X182879999Y-91439999D03*
X180339999Y-91439999D03*
X177799999Y-91439999D03*
D10*
X147319999Y-113029999D03*
D11*
X149859999Y-113029999D03*
X152399999Y-113029999D03*
X154939999Y-113029999D03*
X157479999Y-113029999D03*
X160019999Y-113029999D03*
X162559999Y-113029999D03*
X162559999Y-105409999D03*
X160019999Y-105409999D03*
X157479999Y-105409999D03*
X154939999Y-105409999D03*
X152399999Y-105409999D03*
X149859999Y-105409999D03*
X147319999Y-105409999D03*
D12*
X238759999Y-63499999D03*
D13*
X236220000Y-63500000D03*
D14*
X139699999Y-144779999D03*
D15*
X137159999Y-144779999D03*
X134619999Y-144779999D03*
X132079999Y-144779999D03*
X129539999Y-144779999D03*
X126999999Y-144779999D03*
X124459999Y-144779999D03*
X121919999Y-144779999D03*
X119379999Y-144779999D03*
X116839999Y-144779999D03*
X114299999Y-144779999D03*
X111759999Y-144779999D03*
X109219999Y-144779999D03*
X106679999Y-144779999D03*
X104139999Y-144779999D03*
X101599999Y-144779999D03*
D10*
X114299999Y-113029999D03*
D11*
X116839999Y-113029999D03*
X119379999Y-113029999D03*
X121919999Y-113029999D03*
X124459999Y-113029999D03*
X126999999Y-113029999D03*
X129539999Y-113029999D03*
X132079999Y-113029999D03*
X132079999Y-105409999D03*
X129539999Y-105409999D03*
X126999999Y-105409999D03*
X124459999Y-105409999D03*
X121919999Y-105409999D03*
X119379999Y-105409999D03*
X116839999Y-105409999D03*
X114299999Y-105409999D03*
D10*
X203199999Y-99059999D03*
D11*
X205739999Y-99059999D03*
X208279999Y-99059999D03*
X210819999Y-99059999D03*
X213359999Y-99059999D03*
X215899999Y-99059999D03*
X218439999Y-99059999D03*
X220979999Y-99059999D03*
X220979999Y-91439999D03*
X218439999Y-91439999D03*
X215899999Y-91439999D03*
X213359999Y-91439999D03*
X210819999Y-91439999D03*
X208279999Y-91439999D03*
X205739999Y-91439999D03*
X203199999Y-91439999D03*
D16*
X169164000Y-71120000D03*
X164164000Y-71120000D03*
D10*
X88899999Y-113029999D03*
D11*
X91439999Y-113029999D03*
X93979999Y-113029999D03*
X96519999Y-113029999D03*
X99059999Y-113029999D03*
X101599999Y-113029999D03*
X104139999Y-113029999D03*
X104139999Y-105409999D03*
X101599999Y-105409999D03*
X99059999Y-105409999D03*
X96519999Y-105409999D03*
X93979999Y-105409999D03*
X91439999Y-105409999D03*
X88899999Y-105409999D03*
D16*
X111760000Y-77470000D03*
X111760000Y-82470000D03*
D12*
X111759999Y-63499999D03*
D13*
X109220000Y-63500000D03*
D16*
X226060000Y-91440000D03*
X226060000Y-96440000D03*
X172720000Y-91440000D03*
X172720000Y-96440000D03*
D10*
X231139999Y-85089999D03*
D11*
X233679999Y-85089999D03*
X236219999Y-85089999D03*
X238759999Y-85089999D03*
X241299999Y-85089999D03*
X243839999Y-85089999D03*
X246379999Y-85089999D03*
X248919999Y-85089999D03*
X248919999Y-77469999D03*
X246379999Y-77469999D03*
X243839999Y-77469999D03*
X241299999Y-77469999D03*
X238759999Y-77469999D03*
X236219999Y-77469999D03*
X233679999Y-77469999D03*
X231139999Y-77469999D03*
D16*
X193040000Y-71120000D03*
D11*
X203199999Y-71119999D03*
D16*
X220980000Y-124380000D03*
X220980000Y-119380000D03*
X53340000Y-119380000D03*
X53340000Y-124380000D03*
X81280000Y-91440000D03*
X81280000Y-96440000D03*
D17*
X127000000Y-60960000D03*
X129540000Y-63500000D03*
X132080000Y-60960000D03*
D16*
X205740000Y-71120000D03*
D11*
X215899999Y-71119999D03*
D12*
X251459999Y-63499999D03*
D13*
X248920000Y-63500000D03*
D16*
X53340000Y-77470000D03*
X53340000Y-82470000D03*
X142240000Y-119380000D03*
X142240000Y-124380000D03*
D14*
X170179999Y-126999999D03*
D15*
X172719999Y-126999999D03*
D16*
X109220000Y-105410000D03*
X109220000Y-110410000D03*
D12*
X105409999Y-63499999D03*
D13*
X102870000Y-63500000D03*
D10*
X58419999Y-126999999D03*
D11*
X60959999Y-126999999D03*
X63499999Y-126999999D03*
X66039999Y-126999999D03*
X68579999Y-126999999D03*
X71119999Y-126999999D03*
X73659999Y-126999999D03*
X76199999Y-126999999D03*
X78739999Y-126999999D03*
X81279999Y-126999999D03*
X81279999Y-119379999D03*
X78739999Y-119379999D03*
X76199999Y-119379999D03*
X73659999Y-119379999D03*
X71119999Y-119379999D03*
X68579999Y-119379999D03*
X66039999Y-119379999D03*
X63499999Y-119379999D03*
X60959999Y-119379999D03*
X58419999Y-119379999D03*
D14*
X93979999Y-144779999D03*
D15*
X91439999Y-144779999D03*
X88899999Y-144779999D03*
X86359999Y-144779999D03*
X83819999Y-144779999D03*
X81279999Y-144779999D03*
X78739999Y-144779999D03*
X76199999Y-144779999D03*
X73659999Y-144779999D03*
X71119999Y-144779999D03*
X68579999Y-144779999D03*
X66039999Y-144779999D03*
X63499999Y-144779999D03*
X60959999Y-144779999D03*
D16*
X198120000Y-96440000D03*
X198120000Y-91440000D03*
D10*
X160019999Y-71119999D03*
D11*
X157479999Y-71119999D03*
X154939999Y-71119999D03*
X152399999Y-71119999D03*
X149859999Y-71119999D03*
X147319999Y-71119999D03*
X144779999Y-71119999D03*
X142239999Y-71119999D03*
X139699999Y-71119999D03*
X137159999Y-71119999D03*
D14*
X221233999Y-129031999D03*
D15*
X221233999Y-131571999D03*
D10*
X226059999Y-126999999D03*
D11*
X228599999Y-126999999D03*
X231139999Y-126999999D03*
X233679999Y-126999999D03*
X236219999Y-126999999D03*
X238759999Y-126999999D03*
X241299999Y-126999999D03*
X243839999Y-126999999D03*
X246379999Y-126999999D03*
X248919999Y-126999999D03*
X248919999Y-119379999D03*
X246379999Y-119379999D03*
X243839999Y-119379999D03*
X241299999Y-119379999D03*
X238759999Y-119379999D03*
X236219999Y-119379999D03*
X233679999Y-119379999D03*
X231139999Y-119379999D03*
X228599999Y-119379999D03*
X226059999Y-119379999D03*
D12*
X73659999Y-63499999D03*
D13*
X71120000Y-63500000D03*
D10*
X86359999Y-99059999D03*
D11*
X88899999Y-99059999D03*
X91439999Y-99059999D03*
X93979999Y-99059999D03*
X96519999Y-99059999D03*
X99059999Y-99059999D03*
X101599999Y-99059999D03*
X104139999Y-99059999D03*
X104139999Y-91439999D03*
X101599999Y-91439999D03*
X99059999Y-91439999D03*
X96519999Y-91439999D03*
X93979999Y-91439999D03*
X91439999Y-91439999D03*
X88899999Y-91439999D03*
X86359999Y-91439999D03*
D12*
X232409999Y-63499999D03*
D13*
X229870000Y-63500000D03*
D10*
X116839999Y-85089999D03*
D11*
X119379999Y-85089999D03*
X121919999Y-85089999D03*
X124459999Y-85089999D03*
X126999999Y-85089999D03*
X129539999Y-85089999D03*
X132079999Y-85089999D03*
X132079999Y-77469999D03*
X129539999Y-77469999D03*
X126999999Y-77469999D03*
X124459999Y-77469999D03*
X121919999Y-77469999D03*
X119379999Y-77469999D03*
X116839999Y-77469999D03*
D10*
X205739999Y-113029999D03*
D11*
X208279999Y-113029999D03*
X210819999Y-113029999D03*
X213359999Y-113029999D03*
X215899999Y-113029999D03*
X218439999Y-113029999D03*
X220979999Y-113029999D03*
X220979999Y-105409999D03*
X218439999Y-105409999D03*
X215899999Y-105409999D03*
X213359999Y-105409999D03*
X210819999Y-105409999D03*
X208279999Y-105409999D03*
X205739999Y-105409999D03*
D16*
X121920000Y-71120000D03*
D11*
X132079999Y-71119999D03*
D16*
X109220000Y-91440000D03*
X109220000Y-96440000D03*
D12*
X207009999Y-63499999D03*
D13*
X204470000Y-63500000D03*
D14*
X173481999Y-71119999D03*
D15*
X176021999Y-71119999D03*
D16*
X81280000Y-82470000D03*
X81280000Y-77470000D03*
D12*
X80009999Y-63499999D03*
D13*
X77470000Y-63500000D03*
D14*
X165099999Y-60959999D03*
D15*
X162559999Y-60959999D03*
X160019999Y-60959999D03*
X157479999Y-60959999D03*
D14*
X205739999Y-77469999D03*
D15*
X203199999Y-77469999D03*
D16*
X162560000Y-66040000D03*
D11*
X152399999Y-66039999D03*
D10*
X83819999Y-71119999D03*
D11*
X86359999Y-71119999D03*
X88899999Y-71119999D03*
X91439999Y-71119999D03*
X93979999Y-71119999D03*
X96519999Y-71119999D03*
X99059999Y-71119999D03*
X101599999Y-71119999D03*
X104139999Y-71119999D03*
D16*
X53340000Y-91440000D03*
X53340000Y-96440000D03*
X107950000Y-71120000D03*
D11*
X118109999Y-71119999D03*
D12*
X92709999Y-63499999D03*
D13*
X90170000Y-63500000D03*
D12*
X118109999Y-63499999D03*
D13*
X115570000Y-63500000D03*
D10*
X190509999Y-66029999D03*
D11*
X193049999Y-66029999D03*
X195589999Y-66029999D03*
X198129999Y-66029999D03*
X198129999Y-58409999D03*
X195589999Y-58409999D03*
X193049999Y-58409999D03*
X190509999Y-58409999D03*
D10*
X226059999Y-85089999D03*
D11*
X223519999Y-85089999D03*
X220979999Y-85089999D03*
X218439999Y-85089999D03*
X215899999Y-85089999D03*
X213359999Y-85089999D03*
X210819999Y-85089999D03*
X208279999Y-85089999D03*
X205739999Y-85089999D03*
X203199999Y-85089999D03*
D10*
X56387999Y-134365999D03*
D16*
X56388000Y-136866000D03*
D12*
X226059999Y-63499999D03*
D13*
X223520000Y-63500000D03*
D12*
X245109999Y-63499999D03*
D13*
X242570000Y-63500000D03*
D16*
X226060000Y-105410000D03*
X226060000Y-110410000D03*
X182960000Y-71120000D03*
X187960000Y-71120000D03*
D14*
X167131999Y-116077999D03*
D15*
X169671999Y-116077999D03*
D17*
X175260000Y-60960000D03*
X177800000Y-63500000D03*
X180340000Y-60960000D03*
D10*
X86359999Y-85089999D03*
D11*
X88899999Y-85089999D03*
X91439999Y-85089999D03*
X93979999Y-85089999D03*
X96519999Y-85089999D03*
X99059999Y-85089999D03*
X101599999Y-85089999D03*
X104139999Y-85089999D03*
X104139999Y-77469999D03*
X101599999Y-77469999D03*
X99059999Y-77469999D03*
X96519999Y-77469999D03*
X93979999Y-77469999D03*
X91439999Y-77469999D03*
X88899999Y-77469999D03*
X86359999Y-77469999D03*
D10*
X114299999Y-99059999D03*
D11*
X116839999Y-99059999D03*
X119379999Y-99059999D03*
X121919999Y-99059999D03*
X124459999Y-99059999D03*
X126999999Y-99059999D03*
X129539999Y-99059999D03*
X132079999Y-99059999D03*
X132079999Y-91439999D03*
X129539999Y-91439999D03*
X126999999Y-91439999D03*
X124459999Y-91439999D03*
X121919999Y-91439999D03*
X119379999Y-91439999D03*
X116839999Y-91439999D03*
X114299999Y-91439999D03*
D10*
X58419999Y-99059999D03*
D11*
X60959999Y-99059999D03*
X63499999Y-99059999D03*
X66039999Y-99059999D03*
X68579999Y-99059999D03*
X71119999Y-99059999D03*
X73659999Y-99059999D03*
X73659999Y-91439999D03*
X71119999Y-91439999D03*
X68579999Y-91439999D03*
X66039999Y-91439999D03*
X63499999Y-91439999D03*
X60959999Y-91439999D03*
X58419999Y-91439999D03*
D10*
X58419999Y-113029999D03*
D11*
X60959999Y-113029999D03*
X63499999Y-113029999D03*
X66039999Y-113029999D03*
X68579999Y-113029999D03*
X71119999Y-113029999D03*
X73659999Y-113029999D03*
X76199999Y-113029999D03*
X76199999Y-105409999D03*
X73659999Y-105409999D03*
X71119999Y-105409999D03*
X68579999Y-105409999D03*
X66039999Y-105409999D03*
X63499999Y-105409999D03*
X60959999Y-105409999D03*
X58419999Y-105409999D03*
D16*
X83820000Y-105410000D03*
X83820000Y-110410000D03*
D10*
X147319999Y-99059999D03*
D11*
X149859999Y-99059999D03*
X152399999Y-99059999D03*
X154939999Y-99059999D03*
X157479999Y-99059999D03*
X160019999Y-99059999D03*
X162559999Y-99059999D03*
X162559999Y-91439999D03*
X160019999Y-91439999D03*
X157479999Y-91439999D03*
X154939999Y-91439999D03*
X152399999Y-91439999D03*
X149859999Y-91439999D03*
X147319999Y-91439999D03*
D16*
X172720000Y-110410000D03*
X172720000Y-105410000D03*
D10*
X231139999Y-99059999D03*
D11*
X233679999Y-99059999D03*
X236219999Y-99059999D03*
X238759999Y-99059999D03*
X241299999Y-99059999D03*
X243839999Y-99059999D03*
X246379999Y-99059999D03*
X248919999Y-99059999D03*
X248919999Y-91439999D03*
X246379999Y-91439999D03*
X243839999Y-91439999D03*
X241299999Y-91439999D03*
X238759999Y-91439999D03*
X236219999Y-91439999D03*
X233679999Y-91439999D03*
X231139999Y-91439999D03*
D10*
X58419999Y-85089999D03*
D11*
X60959999Y-85089999D03*
X63499999Y-85089999D03*
X66039999Y-85089999D03*
X68579999Y-85089999D03*
X71119999Y-85089999D03*
X73659999Y-85089999D03*
X73659999Y-77469999D03*
X71119999Y-77469999D03*
X68579999Y-77469999D03*
X66039999Y-77469999D03*
X63499999Y-77469999D03*
X60959999Y-77469999D03*
X58419999Y-77469999D03*
D14*
X147319999Y-60959999D03*
D15*
X144779999Y-60959999D03*
X142239999Y-60959999D03*
X139699999Y-60959999D03*
D16*
X172720000Y-124380000D03*
X172720000Y-119380000D03*
D10*
X109219999Y-126999999D03*
D11*
X111759999Y-126999999D03*
X114299999Y-126999999D03*
X116839999Y-126999999D03*
X119379999Y-126999999D03*
X121919999Y-126999999D03*
X124459999Y-126999999D03*
X126999999Y-126999999D03*
X129539999Y-126999999D03*
X132079999Y-126999999D03*
X132079999Y-119379999D03*
X129539999Y-119379999D03*
X126999999Y-119379999D03*
X124459999Y-119379999D03*
X121919999Y-119379999D03*
X119379999Y-119379999D03*
X116839999Y-119379999D03*
X114299999Y-119379999D03*
X111759999Y-119379999D03*
X109219999Y-119379999D03*
D16*
X142240000Y-91440000D03*
X142240000Y-96440000D03*
D14*
X177799999Y-74929999D03*
D15*
X180339999Y-74929999D03*
X177799999Y-77469999D03*
X180339999Y-77469999D03*
X177799999Y-80009999D03*
X180339999Y-80009999D03*
X177799999Y-82549999D03*
X180339999Y-82549999D03*
X177799999Y-85089999D03*
X180339999Y-85089999D03*
D10*
X177799999Y-126999999D03*
D11*
X180339999Y-126999999D03*
X182879999Y-126999999D03*
X185419999Y-126999999D03*
X187959999Y-126999999D03*
X190499999Y-126999999D03*
X193039999Y-126999999D03*
X195579999Y-126999999D03*
X198119999Y-126999999D03*
X200659999Y-126999999D03*
X200659999Y-119379999D03*
X198119999Y-119379999D03*
X195579999Y-119379999D03*
X193039999Y-119379999D03*
X190499999Y-119379999D03*
X187959999Y-119379999D03*
X185419999Y-119379999D03*
X182879999Y-119379999D03*
X180339999Y-119379999D03*
X177799999Y-119379999D03*
D16*
X104140000Y-119380000D03*
X104140000Y-124380000D03*
D12*
X213359999Y-63499999D03*
D13*
X210820000Y-63500000D03*
D16*
X200660000Y-105410000D03*
X200660000Y-110410000D03*
D12*
X219709999Y-63499999D03*
D13*
X217170000Y-63500000D03*
D14*
X60959999Y-55879999D03*
D15*
X60959999Y-58419999D03*
X60959999Y-60959999D03*
X60959999Y-63499999D03*
X60959999Y-66039999D03*
X60959999Y-68579999D03*
D10*
X147319999Y-85089999D03*
D11*
X149859999Y-85089999D03*
X152399999Y-85089999D03*
X154939999Y-85089999D03*
X157479999Y-85089999D03*
X160019999Y-85089999D03*
X162559999Y-85089999D03*
X165099999Y-85089999D03*
X165099999Y-77469999D03*
X162559999Y-77469999D03*
X160019999Y-77469999D03*
X157479999Y-77469999D03*
X154939999Y-77469999D03*
X152399999Y-77469999D03*
X149859999Y-77469999D03*
X147319999Y-77469999D03*
D14*
X185419999Y-58419999D03*
D15*
X185419999Y-60959999D03*
D10*
X215899999Y-129285999D03*
D16*
X213400000Y-129286000D03*
D10*
X231139999Y-113029999D03*
D11*
X233679999Y-113029999D03*
X236219999Y-113029999D03*
X238759999Y-113029999D03*
X241299999Y-113029999D03*
X243839999Y-113029999D03*
X246379999Y-113029999D03*
X248919999Y-113029999D03*
X248919999Y-105409999D03*
X246379999Y-105409999D03*
X243839999Y-105409999D03*
X241299999Y-105409999D03*
X238759999Y-105409999D03*
X236219999Y-105409999D03*
X233679999Y-105409999D03*
X231139999Y-105409999D03*
D16*
X142240000Y-82470000D03*
X142240000Y-77470000D03*
D14*
X208279999Y-81279999D03*
D15*
X205739999Y-81279999D03*
X203199999Y-81279999D03*
D16*
X53340000Y-105410000D03*
X53340000Y-110410000D03*
D10*
X177799999Y-113029999D03*
D11*
X180339999Y-113029999D03*
X182879999Y-113029999D03*
X185419999Y-113029999D03*
X187959999Y-113029999D03*
X190499999Y-113029999D03*
X193039999Y-113029999D03*
X195579999Y-113029999D03*
X195579999Y-105409999D03*
X193039999Y-105409999D03*
X190499999Y-105409999D03*
X187959999Y-105409999D03*
X185419999Y-105409999D03*
X182879999Y-105409999D03*
X180339999Y-105409999D03*
X177799999Y-105409999D03*
D16*
X142240000Y-105410000D03*
X142240000Y-110410000D03*
D14*
X243839999Y-144779999D03*
D15*
X241299999Y-144779999D03*
X238759999Y-144779999D03*
X236219999Y-144779999D03*
X233679999Y-144779999D03*
X231139999Y-144779999D03*
X228599999Y-144779999D03*
X226059999Y-144779999D03*
X223519999Y-144779999D03*
X220979999Y-144779999D03*
X218439999Y-144779999D03*
X215899999Y-144779999D03*
X213359999Y-144779999D03*
X210819999Y-144779999D03*
X208279999Y-144779999D03*
X205739999Y-144779999D03*
X203199999Y-144779999D03*
X200659999Y-144779999D03*
X198119999Y-144779999D03*
X195579999Y-144779999D03*
X193039999Y-144779999D03*
X190499999Y-144779999D03*
X187959999Y-144779999D03*
X185419999Y-144779999D03*
X182879999Y-144779999D03*
X180339999Y-144779999D03*
X177799999Y-144779999D03*
X175259999Y-144779999D03*
X172719999Y-144779999D03*
X170179999Y-144779999D03*
X167639999Y-144779999D03*
X165099999Y-144779999D03*
D16*
X220980000Y-77470000D03*
X225980000Y-77470000D03*
D10*
X219709999Y-71119999D03*
D11*
X222249999Y-71119999D03*
X224789999Y-71119999D03*
X227329999Y-71119999D03*
X229869999Y-71119999D03*
X232409999Y-71119999D03*
X234949999Y-71119999D03*
X237489999Y-71119999D03*
X240029999Y-71119999D03*
D12*
X99059999Y-63499999D03*
D13*
X96520000Y-63500000D03*
D16*
X137160000Y-66040000D03*
D11*
X147319999Y-66039999D03*
D12*
X86359999Y-63499999D03*
D13*
X83820000Y-63500000D03*
D10*
X187959999Y-85089999D03*
D16*
X195580000Y-85090000D03*
X195580000Y-77470000D03*
X187960000Y-77470000D03*
D10*
X147319999Y-126999999D03*
D11*
X149859999Y-126999999D03*
X152399999Y-126999999D03*
X154939999Y-126999999D03*
X157479999Y-126999999D03*
X160019999Y-126999999D03*
X162559999Y-126999999D03*
X165099999Y-126999999D03*
X165099999Y-119379999D03*
X162559999Y-119379999D03*
X160019999Y-119379999D03*
X157479999Y-119379999D03*
X154939999Y-119379999D03*
X152399999Y-119379999D03*
X149859999Y-119379999D03*
X147319999Y-119379999D03*
D18*
X242570000Y-92710000D03*
X86868000Y-122174000D03*
X91186000Y-129286000D03*
X242570000Y-88392000D03*
X147320000Y-123190000D03*
X86868000Y-120650000D03*
X86868000Y-115316000D03*
X86868000Y-113792000D03*
X92710000Y-129286000D03*
X148590000Y-121158000D03*
X135636000Y-105410000D03*
X88900000Y-95250000D03*
X220980000Y-95758000D03*
X238760000Y-94742000D03*
X233680000Y-95504000D03*
X111760000Y-137160000D03*
X228600000Y-136398000D03*
X229870000Y-142494000D03*
X231140000Y-136398000D03*
X114300000Y-137160000D03*
X232410000Y-141732000D03*
X241300000Y-141732000D03*
X234950000Y-140970000D03*
X238760000Y-140970000D03*
X233680000Y-136398000D03*
X116840000Y-137160000D03*
X236220000Y-136398000D03*
X236220000Y-140208000D03*
X119380000Y-137160000D03*
X238760000Y-139446000D03*
X233680000Y-139446000D03*
X238760000Y-136398000D03*
X121920000Y-137160000D03*
X241300000Y-138684000D03*
X124460000Y-137160000D03*
X241300000Y-136398000D03*
X231140000Y-138684000D03*
X127000000Y-137160000D03*
X243840000Y-137922000D03*
X243840000Y-136398000D03*
X228600000Y-137922000D03*
X129540000Y-137160000D03*
X226060000Y-137160000D03*
X182880000Y-129540000D03*
X223520000Y-136398000D03*
X63500000Y-131064000D03*
X182880000Y-136398000D03*
X185420000Y-135636000D03*
X66040000Y-131826000D03*
X220980000Y-135636000D03*
X185420000Y-129540000D03*
X193040000Y-129540000D03*
X193040000Y-134874000D03*
X218440000Y-134874000D03*
X73660000Y-133350000D03*
X195580000Y-129540000D03*
X76200000Y-134112000D03*
X195580000Y-134112000D03*
X215900000Y-134112000D03*
X213360000Y-133350000D03*
X80010000Y-133350000D03*
X80010000Y-125222000D03*
X194310000Y-133350000D03*
X194310000Y-129540000D03*
X191770000Y-132588000D03*
X77470000Y-125222000D03*
X191770000Y-129540000D03*
X77470000Y-132588000D03*
X210820000Y-132588000D03*
X67310000Y-131826000D03*
X208280000Y-131826000D03*
X184150000Y-131826000D03*
X67310000Y-125222000D03*
X184150000Y-129540000D03*
X179070000Y-129540000D03*
X179070000Y-131064000D03*
X64770000Y-125222000D03*
X64770000Y-131064000D03*
X205740000Y-131064000D03*
X167640000Y-128778000D03*
X168402000Y-104140000D03*
X168402000Y-123190000D03*
X55118000Y-94234000D03*
X168402000Y-119888000D03*
X168402000Y-100076000D03*
X168402000Y-109474000D03*
X174244000Y-89154000D03*
X162814000Y-143764000D03*
X168402000Y-113284000D03*
X204470000Y-129540000D03*
X158496000Y-146812000D03*
X98044000Y-141732000D03*
X161036000Y-146812000D03*
X204470000Y-146812000D03*
X98044000Y-144018000D03*
X247650000Y-75946000D03*
X248920000Y-67818000D03*
X174752000Y-116332000D03*
X203454000Y-108458000D03*
X230124000Y-108966000D03*
X165862000Y-112268000D03*
X180594000Y-116332000D03*
X220472000Y-108458000D03*
X152908000Y-109982000D03*
X228092000Y-108966000D03*
X163068000Y-110744000D03*
X177800000Y-108204000D03*
X173736000Y-108204000D03*
X174498000Y-94234000D03*
X177038000Y-94234000D03*
X184150000Y-93472000D03*
X184150000Y-102362000D03*
X208280000Y-119380000D03*
X217678000Y-122682000D03*
X186690000Y-109982000D03*
X198120000Y-116840000D03*
X184150000Y-100330000D03*
X186690000Y-103632000D03*
X132080000Y-123190000D03*
X81280000Y-121920000D03*
X85598000Y-125222000D03*
X88138000Y-125222000D03*
X53340000Y-121920000D03*
X54356000Y-100330000D03*
X57658000Y-97028000D03*
X139446000Y-105156000D03*
X139446000Y-115062000D03*
X139446000Y-108204000D03*
X139446000Y-123444000D03*
X144780000Y-129286000D03*
X135636000Y-86614000D03*
X139446000Y-101346000D03*
X139446000Y-119888000D03*
X139446000Y-99060000D03*
X139446000Y-117602000D03*
X138938000Y-89916000D03*
X144780000Y-143256000D03*
X115062000Y-142494000D03*
X137668000Y-117602000D03*
X137668000Y-115062000D03*
X137668000Y-108204000D03*
X133350000Y-87884000D03*
X137668000Y-91186000D03*
X137668000Y-99060000D03*
X137668000Y-105156000D03*
X142494000Y-129286000D03*
X137668000Y-101346000D03*
X137668000Y-123444000D03*
X137668000Y-119888000D03*
X120650000Y-80264000D03*
X120650000Y-75692000D03*
X120650000Y-67056000D03*
X239014000Y-115316000D03*
X240030000Y-110744000D03*
X246380000Y-110744000D03*
X241300000Y-107442000D03*
X243332000Y-107442000D03*
X247650000Y-111506000D03*
X237490000Y-111506000D03*
X58420000Y-130302000D03*
X230124000Y-82042000D03*
X228092000Y-82042000D03*
X222250000Y-89916000D03*
X199390000Y-121158000D03*
X212090000Y-92964000D03*
X223774000Y-103886000D03*
X217170000Y-103886000D03*
X198120000Y-121920000D03*
X210820000Y-114808000D03*
X230886000Y-102362000D03*
X227330000Y-102362000D03*
X252222000Y-95250000D03*
X202946000Y-94234000D03*
X221996000Y-106934000D03*
X230124000Y-103124000D03*
X198882000Y-109220000D03*
X198882000Y-104648000D03*
X250952000Y-93980000D03*
X200152000Y-92964000D03*
X228092000Y-103124000D03*
X202184000Y-96520000D03*
X191770000Y-97536000D03*
X196088000Y-95250000D03*
X174498000Y-102616000D03*
X181102000Y-97536000D03*
X157480000Y-116332000D03*
X177038000Y-102616000D03*
X158750000Y-123190000D03*
X110998000Y-100584000D03*
X113538000Y-100584000D03*
X144272000Y-103124000D03*
X106172000Y-100584000D03*
X143764000Y-106934000D03*
X111252000Y-107696000D03*
X102870000Y-106934000D03*
X85598000Y-106934000D03*
X146558000Y-106934000D03*
X135636000Y-106934000D03*
X146304000Y-88900000D03*
X148590000Y-95250000D03*
X139954000Y-88900000D03*
X144272000Y-88900000D03*
X148590000Y-93472000D03*
X136906000Y-85852000D03*
X83058000Y-80772000D03*
X146558000Y-94234000D03*
X140462000Y-92710000D03*
X118110000Y-86614000D03*
X113538000Y-85852000D03*
X144272000Y-94234000D03*
X86614000Y-81534000D03*
X135368969Y-87649547D03*
X120904000Y-102616000D03*
X146304000Y-115824000D03*
X101092000Y-108458000D03*
X113284000Y-109220000D03*
X111252000Y-109220000D03*
X85598000Y-108458000D03*
X144272000Y-115824000D03*
X64516000Y-110744000D03*
X182118000Y-96774000D03*
X202946000Y-95758000D03*
X195326000Y-94488000D03*
X189484000Y-96774000D03*
X228092000Y-99060000D03*
X224536000Y-97790000D03*
X232410000Y-97282000D03*
X199136000Y-101600000D03*
X215900000Y-101600000D03*
X204978000Y-101600000D03*
X202438000Y-101600000D03*
X228168700Y-101600000D03*
X230124000Y-101600000D03*
X224028000Y-100584000D03*
X240792000Y-93472000D03*
X228092000Y-93472000D03*
X222250000Y-101600000D03*
X198120000Y-100838000D03*
X227330000Y-94234000D03*
X221742000Y-93472000D03*
X236220000Y-94234000D03*
X199390000Y-93726000D03*
X202184000Y-94996000D03*
X223266000Y-97028000D03*
X212090000Y-97028000D03*
X177800000Y-94996000D03*
X202438000Y-89154000D03*
X173736000Y-94996000D03*
X230124000Y-89154000D03*
X227076000Y-89154000D03*
X226314000Y-88392000D03*
X230886000Y-88392000D03*
X230124000Y-87630000D03*
X227076000Y-87630000D03*
X233426000Y-81280000D03*
X234950000Y-86614000D03*
X230124000Y-80518000D03*
X228092000Y-80518000D03*
X232410000Y-86614000D03*
X227330000Y-81280000D03*
X230886000Y-81280000D03*
X232410000Y-83566000D03*
X166370000Y-104140000D03*
X166370000Y-100076000D03*
X191516000Y-87884000D03*
X167386000Y-100076000D03*
X189484000Y-87884000D03*
X167386000Y-102616000D03*
X113538000Y-83820000D03*
X69850000Y-82550000D03*
X86614000Y-80010000D03*
X83058000Y-79248000D03*
X85598000Y-109982000D03*
X78232000Y-109143300D03*
X92710000Y-109220000D03*
X78232000Y-104394000D03*
X93980000Y-110490000D03*
X83058000Y-94742000D03*
X87630000Y-97536000D03*
X85598000Y-94742000D03*
X101092000Y-93980000D03*
X82042000Y-93980000D03*
X92710000Y-93218000D03*
X83058000Y-93218000D03*
X90170000Y-115570000D03*
X90170000Y-118618000D03*
X95250000Y-86614000D03*
X77724000Y-117856000D03*
X76708000Y-117094000D03*
X75692000Y-116332000D03*
X126746000Y-108712000D03*
X124714000Y-108712000D03*
X128143000Y-114427000D03*
X120129900Y-116840000D03*
X119126000Y-116078000D03*
X118110000Y-115316000D03*
X245110000Y-75946000D03*
X245110000Y-68580000D03*
X245110000Y-71120000D03*
X116840000Y-97028000D03*
X110998000Y-94742000D03*
X113538000Y-94742000D03*
X102870000Y-97790000D03*
X93980000Y-96774000D03*
X109982000Y-93980000D03*
X124460000Y-97028000D03*
X114554000Y-93980000D03*
X116586000Y-88900000D03*
X111760000Y-88900000D03*
X115570000Y-89916000D03*
X106172000Y-89916000D03*
X110744000Y-89916000D03*
X121920000Y-96266000D03*
X129540000Y-97028000D03*
X238760000Y-73406000D03*
X249174000Y-79756000D03*
X102870000Y-75946000D03*
X100330000Y-75946000D03*
X96266000Y-75184000D03*
X82042000Y-80010000D03*
X78232000Y-78486000D03*
X85598000Y-80772000D03*
X78232000Y-80010000D03*
X210058000Y-77470000D03*
X210058000Y-73152000D03*
X196596000Y-86868000D03*
X227584000Y-113030000D03*
X195072000Y-99822000D03*
X101092000Y-119888000D03*
X110490000Y-113030000D03*
X204216000Y-111506000D03*
X219710000Y-111506000D03*
X195072000Y-102870000D03*
X197866000Y-104648000D03*
X101092000Y-122428000D03*
X85344000Y-119380000D03*
X194818000Y-89916000D03*
X85344000Y-115316000D03*
X197866000Y-107696000D03*
X189484000Y-81534000D03*
X191516000Y-83566000D03*
X189230000Y-73660000D03*
X186690000Y-73660000D03*
X167640000Y-78740000D03*
X177038000Y-108966000D03*
X230886000Y-108204000D03*
X227330000Y-108204000D03*
X221234000Y-107696000D03*
X151130000Y-117094000D03*
X162052000Y-111506000D03*
X174498000Y-108966000D03*
X151130000Y-123190000D03*
X203708000Y-106934000D03*
X102616000Y-101346000D03*
X76200000Y-93980000D03*
X110998000Y-99060000D03*
X78994000Y-96774000D03*
X144272000Y-102108000D03*
X82550000Y-100330000D03*
X179578000Y-68326000D03*
X224790000Y-83058000D03*
X224790000Y-79756000D03*
X189230000Y-68326000D03*
X211328000Y-74168000D03*
X211328000Y-77470000D03*
X180340000Y-55372000D03*
X180340000Y-57150000D03*
X184912000Y-66040000D03*
X186436000Y-66030000D03*
X84582000Y-107696000D03*
X101854000Y-107696000D03*
X146304000Y-116840000D03*
X110490000Y-108458000D03*
X114046000Y-108458000D03*
X144272000Y-116840000D03*
X186690000Y-63500000D03*
X189230000Y-63500000D03*
D19*
X53340000Y-77470000D02*
X56388000Y-77470000D01*
D20*
X229108000Y-77470000D02*
X229108000Y-83312000D01*
X196596000Y-80010000D02*
X190500000Y-80010000D01*
D19*
X198120000Y-91440000D02*
X201168000Y-91440000D01*
D20*
X114300000Y-91440000D02*
X112268000Y-91440000D01*
X201168000Y-91440000D02*
X201168000Y-102870000D01*
X114808000Y-87630000D02*
X112268000Y-90170000D01*
D19*
X242570000Y-92710000D02*
X242570000Y-88392000D01*
D20*
X58420000Y-91440000D02*
X56388000Y-91440000D01*
X145288000Y-91440000D02*
X145288000Y-105410000D01*
D19*
X111760000Y-77470000D02*
X114808000Y-77470000D01*
D20*
X190500000Y-88900000D02*
X175768000Y-88900000D01*
D19*
X165100000Y-80010000D02*
X162560000Y-82550000D01*
X160020000Y-119380000D02*
X160020000Y-121158000D01*
D20*
X56388000Y-105410000D02*
X56388000Y-91440000D01*
D19*
X81280000Y-91440000D02*
X84328000Y-91440000D01*
X231648000Y-110998000D02*
X229108000Y-110998000D01*
D20*
X215900000Y-122428000D02*
X215900000Y-129286000D01*
X147320000Y-91440000D02*
X145288000Y-91440000D01*
D19*
X200660000Y-105410000D02*
X203708000Y-105410000D01*
D20*
X86868000Y-120650000D02*
X86868000Y-122174000D01*
X145288000Y-85090000D02*
X145288000Y-91440000D01*
X56388000Y-77470000D02*
X58420000Y-77470000D01*
X84328000Y-77470000D02*
X84328000Y-102870000D01*
D19*
X100838000Y-86868000D02*
X114808000Y-86868000D01*
D20*
X84328000Y-91440000D02*
X86360000Y-91440000D01*
X225980000Y-77470000D02*
X229870000Y-77470000D01*
X147320000Y-77470000D02*
X145288000Y-77470000D01*
X226060000Y-119380000D02*
X218948000Y-119380000D01*
X231140000Y-77470000D02*
X229870000Y-77470000D01*
X223694000Y-75184000D02*
X225980000Y-77470000D01*
D19*
X142240000Y-105410000D02*
X145288000Y-105410000D01*
D20*
X218440000Y-75184000D02*
X201422000Y-75184000D01*
D19*
X226060000Y-91440000D02*
X229108000Y-91440000D01*
D20*
X112268000Y-91440000D02*
X112268000Y-105410000D01*
D19*
X180340000Y-113030000D02*
X177800000Y-115570000D01*
D20*
X229108000Y-109982000D02*
X229108000Y-105410000D01*
D19*
X104140000Y-119380000D02*
X109220000Y-119380000D01*
X149860000Y-127000000D02*
X151638000Y-128778000D01*
X172720000Y-119380000D02*
X175768000Y-119380000D01*
X142240000Y-91440000D02*
X145288000Y-91440000D01*
X147320000Y-127000000D02*
X149860000Y-127000000D01*
D20*
X56388000Y-119380000D02*
X56388000Y-105410000D01*
X229108000Y-113030000D02*
X229108000Y-109982000D01*
X229108000Y-105410000D02*
X231140000Y-105410000D01*
X199644000Y-88900000D02*
X190500000Y-88900000D01*
X56388000Y-129286000D02*
X56388000Y-134453621D01*
D19*
X200660000Y-105410000D02*
X195580000Y-105410000D01*
X136398000Y-106172000D02*
X141478000Y-106172000D01*
D20*
X175768000Y-91440000D02*
X175768000Y-105410000D01*
X116840000Y-77470000D02*
X114808000Y-77470000D01*
X90424000Y-121158000D02*
X86868000Y-124714000D01*
X229108000Y-91440000D02*
X229108000Y-105410000D01*
X160020000Y-121158000D02*
X175768000Y-121158000D01*
D19*
X99060000Y-85090000D02*
X100838000Y-86868000D01*
D20*
X145288000Y-105410000D02*
X145288000Y-119380000D01*
D19*
X116840000Y-113030000D02*
X114554000Y-110744000D01*
D20*
X187960000Y-77470000D02*
X190500000Y-80010000D01*
X109220000Y-119380000D02*
X109220000Y-121158000D01*
X190500000Y-80010000D02*
X190500000Y-88900000D01*
X201168000Y-91440000D02*
X201168000Y-90424000D01*
X175768000Y-88900000D02*
X175768000Y-91440000D01*
X226060000Y-119380000D02*
X226060000Y-116078000D01*
X175768000Y-119380000D02*
X177800000Y-119380000D01*
D19*
X109220000Y-105410000D02*
X112268000Y-105410000D01*
X155702000Y-128778000D02*
X157480000Y-127000000D01*
D20*
X92710000Y-129286000D02*
X86868000Y-129286000D01*
X201168000Y-90424000D02*
X199644000Y-88900000D01*
D19*
X135636000Y-105410000D02*
X136398000Y-106172000D01*
X172720000Y-91440000D02*
X175768000Y-91440000D01*
D20*
X56388000Y-91440000D02*
X56388000Y-77470000D01*
X203708000Y-105410000D02*
X205740000Y-105410000D01*
D19*
X142240000Y-77470000D02*
X145288000Y-77470000D01*
D20*
X177800000Y-105410000D02*
X175768000Y-105410000D01*
X112268000Y-105410000D02*
X112268000Y-110744000D01*
X201422000Y-75184000D02*
X196596000Y-80010000D01*
D19*
X226060000Y-105410000D02*
X229108000Y-105410000D01*
X109220000Y-91440000D02*
X112268000Y-91440000D01*
D20*
X147320000Y-105410000D02*
X145288000Y-105410000D01*
X203200000Y-91440000D02*
X201168000Y-91440000D01*
D19*
X147320000Y-123190000D02*
X147320000Y-127000000D01*
X83820000Y-105410000D02*
X86868000Y-105410000D01*
D20*
X84328000Y-102870000D02*
X86868000Y-105410000D01*
X56388000Y-129286000D02*
X56388000Y-119380000D01*
X86868000Y-122174000D02*
X86868000Y-129286000D01*
X86868000Y-113792000D02*
X86868000Y-105410000D01*
X187960000Y-60960000D02*
X190510000Y-58410000D01*
X114808000Y-77470000D02*
X114808000Y-86868000D01*
D19*
X233680000Y-113030000D02*
X231648000Y-110998000D01*
D20*
X112268000Y-113284000D02*
X109220000Y-116332000D01*
X187960000Y-77470000D02*
X187960000Y-60960000D01*
X88900000Y-105410000D02*
X86868000Y-105410000D01*
D19*
X53340000Y-91440000D02*
X56388000Y-91440000D01*
D20*
X58420000Y-119380000D02*
X56388000Y-119380000D01*
X148590000Y-121158000D02*
X160020000Y-121158000D01*
D19*
X142240000Y-119380000D02*
X145288000Y-119380000D01*
D20*
X56388000Y-105410000D02*
X58420000Y-105410000D01*
D19*
X162560000Y-82550000D02*
X162560000Y-85090000D01*
X172720000Y-105410000D02*
X175768000Y-105410000D01*
D20*
X201168000Y-102870000D02*
X203708000Y-105410000D01*
X229108000Y-83312000D02*
X229108000Y-91440000D01*
D19*
X81280000Y-77470000D02*
X84328000Y-77470000D01*
D20*
X218440000Y-75184000D02*
X223694000Y-75184000D01*
D19*
X114554000Y-110744000D02*
X112268000Y-110744000D01*
D20*
X112268000Y-90170000D02*
X112268000Y-91440000D01*
X226060000Y-116078000D02*
X229108000Y-113030000D01*
X109220000Y-121158000D02*
X90424000Y-121158000D01*
D19*
X147320000Y-85090000D02*
X145288000Y-85090000D01*
D20*
X145288000Y-121158000D02*
X145288000Y-119380000D01*
X86868000Y-129286000D02*
X56388000Y-129286000D01*
D19*
X151638000Y-128778000D02*
X155702000Y-128778000D01*
X141478000Y-106172000D02*
X142240000Y-105410000D01*
D20*
X86360000Y-77470000D02*
X84328000Y-77470000D01*
D19*
X60960000Y-113030000D02*
X60960000Y-116840000D01*
X177800000Y-115570000D02*
X177800000Y-119380000D01*
D20*
X114300000Y-105410000D02*
X112268000Y-105410000D01*
X109220000Y-116332000D02*
X109220000Y-119380000D01*
D19*
X229108000Y-110998000D02*
X229108000Y-109982000D01*
D20*
X86868000Y-115316000D02*
X86868000Y-113792000D01*
D19*
X152400000Y-119380000D02*
X147320000Y-119380000D01*
D20*
X175768000Y-121158000D02*
X175768000Y-119380000D01*
X229870000Y-77470000D02*
X229108000Y-77470000D01*
X109220000Y-121158000D02*
X145288000Y-121158000D01*
X114808000Y-86868000D02*
X114808000Y-87630000D01*
D19*
X165100000Y-77470000D02*
X165100000Y-80010000D01*
D20*
X231140000Y-91440000D02*
X229108000Y-91440000D01*
D19*
X215900000Y-75184000D02*
X215900000Y-71120000D01*
D20*
X175768000Y-105410000D02*
X175768000Y-119380000D01*
X112268000Y-110744000D02*
X112268000Y-113284000D01*
D19*
X165100000Y-77470000D02*
X162560000Y-77470000D01*
D20*
X145288000Y-77470000D02*
X145288000Y-85090000D01*
X177800000Y-91440000D02*
X175768000Y-91440000D01*
D19*
X76200000Y-105410000D02*
X83820000Y-105410000D01*
X60960000Y-116840000D02*
X58420000Y-119380000D01*
D20*
X218948000Y-119380000D02*
X215900000Y-122428000D01*
X145288000Y-119380000D02*
X147320000Y-119380000D01*
X145288000Y-121158000D02*
X148590000Y-121158000D01*
D19*
X238760000Y-91440000D02*
X238760000Y-94742000D01*
X233680000Y-95504000D02*
X233680000Y-91440000D01*
X220980000Y-95758000D02*
X220980000Y-99060000D01*
X88900000Y-95250000D02*
X88900000Y-91440000D01*
X228600000Y-127000000D02*
X228600000Y-136398000D01*
X229870000Y-142494000D02*
X117094000Y-142494000D01*
X117094000Y-142494000D02*
X111760000Y-137160000D01*
X243840000Y-144780000D02*
X243840000Y-143510000D01*
X243840000Y-143510000D02*
X242824000Y-142494000D01*
X242824000Y-142494000D02*
X229870000Y-142494000D01*
X231140000Y-127000000D02*
X231140000Y-136398000D01*
X241300000Y-141732000D02*
X232410000Y-141732000D01*
X118872000Y-141732000D02*
X114300000Y-137160000D01*
X232410000Y-141732000D02*
X118872000Y-141732000D01*
X234950000Y-140970000D02*
X120650000Y-140970000D01*
X120650000Y-140970000D02*
X116840000Y-137160000D01*
X238760000Y-140970000D02*
X234950000Y-140970000D01*
X233680000Y-127000000D02*
X233680000Y-136398000D01*
X236220000Y-140208000D02*
X122428000Y-140208000D01*
X122428000Y-140208000D02*
X119380000Y-137160000D01*
X236220000Y-127000000D02*
X236220000Y-136398000D01*
X238760000Y-139446000D02*
X233680000Y-139446000D01*
X233680000Y-139446000D02*
X124206000Y-139446000D01*
X124206000Y-139446000D02*
X121920000Y-137160000D01*
X238760000Y-127000000D02*
X238760000Y-136398000D01*
X241300000Y-138684000D02*
X231140000Y-138684000D01*
X125984000Y-138684000D02*
X124460000Y-137160000D01*
X241300000Y-127000000D02*
X241300000Y-136398000D01*
X231140000Y-138684000D02*
X125984000Y-138684000D01*
X127762000Y-137922000D02*
X228600000Y-137922000D01*
X127000000Y-137160000D02*
X127762000Y-137922000D01*
X228600000Y-137922000D02*
X243840000Y-137922000D01*
X243840000Y-127000000D02*
X243840000Y-136398000D01*
X246380000Y-136398000D02*
X245618000Y-137160000D01*
X245618000Y-137160000D02*
X226060000Y-137160000D01*
X129540000Y-137160000D02*
X226060000Y-137160000D01*
X246380000Y-127000000D02*
X246380000Y-136398000D01*
X63500000Y-131064000D02*
X63500000Y-131318000D01*
X182880000Y-136398000D02*
X223520000Y-136398000D01*
X68580000Y-136398000D02*
X182880000Y-136398000D01*
X182880000Y-127000000D02*
X182880000Y-129540000D01*
X63500000Y-131318000D02*
X68580000Y-136398000D01*
X185420000Y-127000000D02*
X185420000Y-129540000D01*
X69850000Y-135636000D02*
X185420000Y-135636000D01*
X185420000Y-135636000D02*
X220980000Y-135636000D01*
X66040000Y-131826000D02*
X69850000Y-135636000D01*
X193040000Y-127000000D02*
X193040000Y-129540000D01*
X73660000Y-133350000D02*
X75184000Y-134874000D01*
X75184000Y-134874000D02*
X193040000Y-134874000D01*
X193040000Y-134874000D02*
X218440000Y-134874000D01*
X195580000Y-134112000D02*
X215900000Y-134112000D01*
X76200000Y-134112000D02*
X195580000Y-134112000D01*
X195580000Y-127000000D02*
X195580000Y-129540000D01*
X76200000Y-121412000D02*
X80010000Y-125222000D01*
X195580000Y-119380000D02*
X195580000Y-122936000D01*
X194310000Y-133350000D02*
X213360000Y-133350000D01*
X80010000Y-133350000D02*
X194310000Y-133350000D01*
X195580000Y-122936000D02*
X194310000Y-124206000D01*
X194310000Y-124206000D02*
X194310000Y-129540000D01*
X76200000Y-119380000D02*
X76200000Y-121412000D01*
X73660000Y-119380000D02*
X73660000Y-121412000D01*
X191770000Y-124206000D02*
X193040000Y-122936000D01*
X210820000Y-132588000D02*
X191770000Y-132588000D01*
X191770000Y-132588000D02*
X77470000Y-132588000D01*
X191770000Y-129540000D02*
X191770000Y-124206000D01*
X73660000Y-121412000D02*
X77470000Y-125222000D01*
X193040000Y-122936000D02*
X193040000Y-119380000D01*
X185420000Y-122936000D02*
X184150000Y-124206000D01*
X66040000Y-123952000D02*
X67310000Y-125222000D01*
X184150000Y-124206000D02*
X184150000Y-129540000D01*
X66040000Y-119380000D02*
X66040000Y-123952000D01*
X67310000Y-131826000D02*
X184150000Y-131826000D01*
X185420000Y-119380000D02*
X185420000Y-122936000D01*
X184150000Y-131826000D02*
X208280000Y-131826000D01*
X179070000Y-129540000D02*
X179070000Y-124968000D01*
X182880000Y-121158000D02*
X182880000Y-119380000D01*
X179070000Y-124968000D02*
X182880000Y-121158000D01*
X63500000Y-123952000D02*
X64770000Y-125222000D01*
X63500000Y-119380000D02*
X63500000Y-123952000D01*
X179070000Y-131064000D02*
X205740000Y-131064000D01*
X64770000Y-131064000D02*
X179070000Y-131064000D01*
X62230000Y-78740000D02*
X63500000Y-77470000D01*
X55118000Y-130048000D02*
X55118000Y-94234000D01*
X81788000Y-147574000D02*
X159004000Y-147574000D01*
X63500000Y-77470000D02*
X66040000Y-77470000D01*
X168402000Y-100076000D02*
X168402000Y-93218000D01*
X54102000Y-131064000D02*
X55118000Y-130048000D01*
X167640000Y-128778000D02*
X167640000Y-123952000D01*
X81280000Y-147066000D02*
X60059200Y-147066000D01*
X168402000Y-109474000D02*
X168402000Y-104140000D01*
X54102000Y-141108800D02*
X54102000Y-131064000D01*
X60960000Y-91440000D02*
X62230000Y-90170000D01*
X81280000Y-147066000D02*
X81788000Y-147574000D01*
X168402000Y-119888000D02*
X168402000Y-113284000D01*
X81280000Y-144780000D02*
X81280000Y-147066000D01*
X62230000Y-90170000D02*
X62230000Y-78740000D01*
X167640000Y-123952000D02*
X168402000Y-123190000D01*
X168402000Y-93218000D02*
X172466000Y-89154000D01*
X60059200Y-147066000D02*
X54102000Y-141108800D01*
X172466000Y-89154000D02*
X174244000Y-89154000D01*
X159004000Y-147574000D02*
X162814000Y-143764000D01*
X158496000Y-146812000D02*
X99822000Y-146812000D01*
X161036000Y-146812000D02*
X204470000Y-146812000D01*
X212090000Y-121920000D02*
X212090000Y-109982000D01*
X60960000Y-144780000D02*
X64008000Y-141732000D01*
X98044000Y-145034000D02*
X98044000Y-144018000D01*
X213360000Y-108712000D02*
X213360000Y-105410000D01*
X99822000Y-146812000D02*
X98044000Y-145034000D01*
X204470000Y-129540000D02*
X212090000Y-121920000D01*
X212090000Y-109982000D02*
X213360000Y-108712000D01*
X64008000Y-141732000D02*
X98044000Y-141732000D01*
X243840000Y-71120000D02*
X240030000Y-71120000D01*
X251460000Y-63500000D02*
X243840000Y-71120000D01*
X248920000Y-74676000D02*
X247650000Y-75946000D01*
X248920000Y-67818000D02*
X248920000Y-74676000D01*
X182880000Y-113030000D02*
X182880000Y-114046000D01*
X182880000Y-113030000D02*
X182880000Y-110236000D01*
X220980000Y-108966000D02*
X228092000Y-108966000D01*
X147320000Y-111252000D02*
X147320000Y-113030000D01*
X165862000Y-112268000D02*
X170688000Y-112268000D01*
X152908000Y-109982000D02*
X148590000Y-109982000D01*
X182880000Y-114046000D02*
X180594000Y-116332000D01*
X232664000Y-108966000D02*
X236220000Y-105410000D01*
X170688000Y-112268000D02*
X174752000Y-116332000D01*
X220472000Y-108458000D02*
X220980000Y-108966000D01*
X184658000Y-108458000D02*
X203454000Y-108458000D01*
X182880000Y-110236000D02*
X184658000Y-108458000D01*
X148590000Y-109982000D02*
X147320000Y-111252000D01*
X230124000Y-108966000D02*
X232664000Y-108966000D01*
X168275000Y-110744000D02*
X170815000Y-108204000D01*
X179070000Y-106934000D02*
X179070000Y-104902000D01*
X179070000Y-104902000D02*
X179832000Y-104140000D01*
X179832000Y-104140000D02*
X181610000Y-104140000D01*
X177800000Y-108204000D02*
X179070000Y-106934000D01*
X181610000Y-104140000D02*
X182880000Y-105410000D01*
X170815000Y-108204000D02*
X173736000Y-108204000D01*
X163068000Y-110744000D02*
X168275000Y-110744000D01*
X157480000Y-101092000D02*
X157480000Y-99060000D01*
X169418000Y-94742000D02*
X169418000Y-100584000D01*
X177038000Y-94234000D02*
X180086000Y-94234000D01*
X169926000Y-94234000D02*
X169418000Y-94742000D01*
X168910000Y-101092000D02*
X157480000Y-101092000D01*
X180086000Y-94234000D02*
X182880000Y-91440000D01*
X149352000Y-101092000D02*
X158242000Y-101092000D01*
X169418000Y-100584000D02*
X168910000Y-101092000D01*
X174498000Y-94234000D02*
X169926000Y-94234000D01*
X147320000Y-99060000D02*
X149352000Y-101092000D01*
X152400000Y-99060000D02*
X154940000Y-99060000D01*
X60960000Y-55880000D02*
X60960000Y-58420000D01*
X60960000Y-55880000D02*
X65278000Y-60198000D01*
X118110000Y-71120000D02*
X118110000Y-83820000D01*
X121920000Y-62484000D02*
X121920000Y-67056000D01*
X118110000Y-83820000D02*
X116840000Y-85090000D01*
X119634000Y-60198000D02*
X121920000Y-62484000D01*
X118110000Y-70866000D02*
X118110000Y-71120000D01*
X65278000Y-60198000D02*
X119634000Y-60198000D01*
X121920000Y-67056000D02*
X118110000Y-70866000D01*
X184150000Y-93472000D02*
X184150000Y-95352657D01*
X182880000Y-96622657D02*
X182880000Y-99060000D01*
X184150000Y-95352657D02*
X182880000Y-96622657D01*
X187960000Y-96520000D02*
X187960000Y-91440000D01*
X190500000Y-99060000D02*
X187960000Y-96520000D01*
X185420000Y-91440000D02*
X185420000Y-95250000D01*
X187960000Y-111252000D02*
X186690000Y-109982000D01*
X184150000Y-96520000D02*
X184150000Y-100330000D01*
X185420000Y-95250000D02*
X184150000Y-96520000D01*
X198120000Y-113284000D02*
X196088000Y-111252000D01*
X184150000Y-102362000D02*
X185420000Y-103632000D01*
X245618000Y-122682000D02*
X248920000Y-119380000D01*
X221234000Y-129032000D02*
X221234000Y-131572000D01*
X218948000Y-122682000D02*
X245618000Y-122682000D01*
X217678000Y-122682000D02*
X218948000Y-122682000D01*
X198120000Y-116840000D02*
X198120000Y-113284000D01*
X200660000Y-119380000D02*
X208280000Y-119380000D01*
X221234000Y-129032000D02*
X218948000Y-126746000D01*
X218948000Y-126746000D02*
X218948000Y-122682000D01*
X185420000Y-103632000D02*
X186690000Y-103632000D01*
X196088000Y-111252000D02*
X187960000Y-111252000D01*
X59690000Y-91948000D02*
X59690000Y-86360000D01*
X63500000Y-91440000D02*
X63500000Y-90170000D01*
X59690000Y-86360000D02*
X58420000Y-85090000D01*
X60452000Y-92710000D02*
X59690000Y-91948000D01*
X63500000Y-91440000D02*
X62230000Y-92710000D01*
X62230000Y-92710000D02*
X60452000Y-92710000D01*
X63500000Y-90170000D02*
X68580000Y-85090000D01*
X63500000Y-85090000D02*
X66040000Y-85090000D01*
X51562000Y-103124000D02*
X51562000Y-120142000D01*
X105156000Y-125984000D02*
X105918000Y-125222000D01*
X88138000Y-125222000D02*
X102362000Y-125222000D01*
X103124000Y-125984000D02*
X105156000Y-125984000D01*
X57658000Y-97028000D02*
X60452000Y-97028000D01*
X105918000Y-125222000D02*
X130048000Y-125222000D01*
X60452000Y-97028000D02*
X66040000Y-91440000D01*
X51562000Y-120142000D02*
X53340000Y-121920000D01*
X82296000Y-121920000D02*
X81280000Y-121920000D01*
X130048000Y-125222000D02*
X132080000Y-123190000D01*
X85598000Y-125222000D02*
X82296000Y-121920000D01*
X54356000Y-100330000D02*
X51562000Y-103124000D01*
X102362000Y-125222000D02*
X103124000Y-125984000D01*
X139446000Y-101346000D02*
X139446000Y-105156000D01*
X139446000Y-117602000D02*
X139446000Y-119888000D01*
X135382000Y-86868000D02*
X128778000Y-86868000D01*
X138938000Y-89916000D02*
X139446000Y-90424000D01*
X139446000Y-108204000D02*
X139446000Y-115062000D01*
X144780000Y-143256000D02*
X72644000Y-143256000D01*
X139446000Y-123952000D02*
X139446000Y-123444000D01*
X119380000Y-77470000D02*
X127000000Y-85090000D01*
X128778000Y-86868000D02*
X127000000Y-85090000D01*
X135636000Y-86614000D02*
X135382000Y-86868000D01*
X72644000Y-143256000D02*
X71120000Y-144780000D01*
X144780000Y-129286000D02*
X139446000Y-123952000D01*
X139446000Y-90424000D02*
X139446000Y-99060000D01*
X137668000Y-91186000D02*
X137668000Y-99060000D01*
X68326000Y-142494000D02*
X66040000Y-144780000D01*
X123190000Y-86360000D02*
X124460000Y-85090000D01*
X137668000Y-108204000D02*
X137668000Y-115062000D01*
X137668000Y-123444000D02*
X137668000Y-124460000D01*
X137668000Y-124460000D02*
X142494000Y-129286000D01*
X115062000Y-142494000D02*
X68326000Y-142494000D01*
X120650000Y-86360000D02*
X123190000Y-86360000D01*
X127254000Y-87884000D02*
X124460000Y-85090000D01*
X119380000Y-85090000D02*
X120650000Y-86360000D01*
X137668000Y-101346000D02*
X137668000Y-105156000D01*
X133350000Y-87884000D02*
X127254000Y-87884000D01*
X137668000Y-117602000D02*
X137668000Y-119888000D01*
X120650000Y-62992000D02*
X120650000Y-67056000D01*
X120650000Y-72390000D02*
X120650000Y-75692000D01*
X121920000Y-81534000D02*
X121920000Y-85090000D01*
X60960000Y-66040000D02*
X65786000Y-61214000D01*
X120650000Y-80264000D02*
X121920000Y-81534000D01*
X65786000Y-61214000D02*
X118872000Y-61214000D01*
X121920000Y-71120000D02*
X120650000Y-72390000D01*
X60960000Y-66040000D02*
X60960000Y-68580000D01*
X118872000Y-61214000D02*
X120650000Y-62992000D01*
X235966000Y-115824000D02*
X232156000Y-115824000D01*
X238760000Y-113030000D02*
X235966000Y-115824000D01*
X232156000Y-115824000D02*
X228600000Y-119380000D01*
X239014000Y-115316000D02*
X237490000Y-116840000D01*
X233680000Y-116840000D02*
X231140000Y-119380000D01*
X237490000Y-116840000D02*
X233680000Y-116840000D01*
X238252000Y-121158000D02*
X241554000Y-121158000D01*
X241554000Y-121158000D02*
X242570000Y-120142000D01*
X235204000Y-117856000D02*
X236474000Y-117856000D01*
X242570000Y-117094000D02*
X243840000Y-115824000D01*
X237490000Y-118872000D02*
X237490000Y-120396000D01*
X237490000Y-120396000D02*
X238252000Y-121158000D01*
X242570000Y-120142000D02*
X242570000Y-117094000D01*
X236474000Y-117856000D02*
X237490000Y-118872000D01*
X243840000Y-115824000D02*
X243840000Y-113030000D01*
X233680000Y-119380000D02*
X235204000Y-117856000D01*
X236220000Y-119380000D02*
X236220000Y-120650000D01*
X236220000Y-120650000D02*
X237490000Y-121920000D01*
X237490000Y-121920000D02*
X243840000Y-121920000D01*
X245110000Y-120650000D02*
X245110000Y-117094000D01*
X246380000Y-115824000D02*
X246380000Y-113030000D01*
X243840000Y-121920000D02*
X245110000Y-120650000D01*
X245110000Y-117094000D02*
X246380000Y-115824000D01*
X240030000Y-115824000D02*
X238760000Y-117094000D01*
X240030000Y-110744000D02*
X240030000Y-115824000D01*
X238760000Y-117094000D02*
X238760000Y-119380000D01*
X246380000Y-110744000D02*
X246380000Y-105410000D01*
X241300000Y-119380000D02*
X241300000Y-117094000D01*
X242570000Y-106680000D02*
X243840000Y-105410000D01*
X241300000Y-117094000D02*
X242570000Y-115824000D01*
X242570000Y-115824000D02*
X242570000Y-106680000D01*
X243332000Y-107442000D02*
X245110000Y-109220000D01*
X241300000Y-105410000D02*
X241300000Y-107442000D01*
X245110000Y-115824000D02*
X243840000Y-117094000D01*
X243840000Y-117094000D02*
X243840000Y-119380000D01*
X245110000Y-109220000D02*
X245110000Y-115824000D01*
X237490000Y-106680000D02*
X237490000Y-111506000D01*
X247650000Y-111506000D02*
X247650000Y-118110000D01*
X238760000Y-105410000D02*
X237490000Y-106680000D01*
X247650000Y-118110000D02*
X246380000Y-119380000D01*
X184150000Y-116840000D02*
X185420000Y-115570000D01*
X180340000Y-127000000D02*
X184150000Y-123190000D01*
X185420000Y-115570000D02*
X185420000Y-113030000D01*
X184150000Y-123190000D02*
X184150000Y-116840000D01*
X186690000Y-122936000D02*
X186690000Y-116840000D01*
X187960000Y-127000000D02*
X187960000Y-124206000D01*
X186690000Y-116840000D02*
X187960000Y-115570000D01*
X187960000Y-124206000D02*
X186690000Y-122936000D01*
X187960000Y-115570000D02*
X187960000Y-113030000D01*
X189230000Y-125730000D02*
X189230000Y-117094000D01*
X190500000Y-127000000D02*
X189230000Y-125730000D01*
X190500000Y-115824000D02*
X190500000Y-113030000D01*
X189230000Y-117094000D02*
X190500000Y-115824000D01*
X198120000Y-127000000D02*
X196850000Y-125730000D01*
X196850000Y-125730000D02*
X196850000Y-116840000D01*
X196850000Y-116840000D02*
X193040000Y-113030000D01*
X205994000Y-130302000D02*
X177800000Y-130302000D01*
X215900000Y-108712000D02*
X214630000Y-109982000D01*
X214630000Y-114300000D02*
X213360000Y-115570000D01*
X177800000Y-130302000D02*
X177800000Y-129794000D01*
X177800000Y-130302000D02*
X58420000Y-130302000D01*
X177800000Y-129794000D02*
X177800000Y-127000000D01*
X215900000Y-105410000D02*
X215900000Y-108712000D01*
X214630000Y-109982000D02*
X214630000Y-114300000D01*
X213360000Y-122936000D02*
X205994000Y-130302000D01*
X213360000Y-115570000D02*
X213360000Y-122936000D01*
X207010000Y-102870000D02*
X207010000Y-108712000D01*
X205740000Y-109982000D02*
X205740000Y-113030000D01*
X205740000Y-101600000D02*
X207010000Y-102870000D01*
X202946000Y-115824000D02*
X205740000Y-113030000D01*
X207010000Y-108712000D02*
X205740000Y-109982000D01*
X201676000Y-115824000D02*
X202946000Y-115824000D01*
X205740000Y-99060000D02*
X205740000Y-101600000D01*
X198120000Y-119380000D02*
X201676000Y-115824000D01*
X209550000Y-120396000D02*
X209550000Y-114300000D01*
X213360000Y-101854000D02*
X213360000Y-99060000D01*
X212090000Y-103124000D02*
X213360000Y-101854000D01*
X228092000Y-89257934D02*
X227433934Y-89916000D01*
X230124000Y-82042000D02*
X231140000Y-83058000D01*
X231140000Y-83058000D02*
X231140000Y-85090000D01*
X208788000Y-121158000D02*
X209550000Y-120396000D01*
X210820000Y-113030000D02*
X210820000Y-109982000D01*
X212090000Y-108712000D02*
X212090000Y-103124000D01*
X210820000Y-109982000D02*
X212090000Y-108712000D01*
X213360000Y-99060000D02*
X213360000Y-94234000D01*
X209550000Y-114300000D02*
X210820000Y-113030000D01*
X199390000Y-121158000D02*
X208788000Y-121158000D01*
X213360000Y-94234000D02*
X212090000Y-92964000D01*
X227433934Y-89916000D02*
X222250000Y-89916000D01*
X228092000Y-82042000D02*
X228092000Y-89257934D01*
X217170000Y-103886000D02*
X217170000Y-95758000D01*
X230886000Y-102362000D02*
X247904000Y-102362000D01*
X215900000Y-94488000D02*
X215900000Y-91440000D01*
X217170000Y-95758000D02*
X215900000Y-94488000D01*
X217170000Y-108712000D02*
X215900000Y-109982000D01*
X252222000Y-93980000D02*
X252222000Y-84074000D01*
X252222000Y-84074000D02*
X250190000Y-82042000D01*
X227330000Y-102362000D02*
X225298000Y-102362000D01*
X250190000Y-82042000D02*
X236728000Y-82042000D01*
X215900000Y-109982000D02*
X215900000Y-113030000D01*
X210820000Y-114808000D02*
X210820000Y-120904000D01*
X236728000Y-82042000D02*
X233680000Y-85090000D01*
X208788000Y-122936000D02*
X199136000Y-122936000D01*
X250952000Y-95250000D02*
X252222000Y-93980000D01*
X210820000Y-120904000D02*
X208788000Y-122936000D01*
X225298000Y-102362000D02*
X223774000Y-103886000D01*
X217170000Y-103886000D02*
X217170000Y-108712000D01*
X247904000Y-102362000D02*
X250952000Y-99314000D01*
X199136000Y-122936000D02*
X198120000Y-121920000D01*
X250952000Y-99314000D02*
X250952000Y-95250000D01*
X200152000Y-103124000D02*
X200152000Y-92964000D01*
X250952000Y-84582000D02*
X249682000Y-83312000D01*
X218440000Y-105410000D02*
X218440000Y-102870000D01*
X219710000Y-101600000D02*
X219710000Y-96774000D01*
X184150000Y-115570000D02*
X180340000Y-119380000D01*
X217170000Y-94234000D02*
X217170000Y-90678000D01*
X209550000Y-90170000D02*
X208280000Y-91440000D01*
X222250000Y-106934000D02*
X221996000Y-106934000D01*
X198882000Y-104648000D02*
X198882000Y-104394000D01*
X217170000Y-90678000D02*
X216662000Y-90170000D01*
X185674000Y-109220000D02*
X184150000Y-110744000D01*
X206756000Y-92964000D02*
X208280000Y-91440000D01*
X237998000Y-83312000D02*
X236220000Y-85090000D01*
X226060000Y-103124000D02*
X222250000Y-106934000D01*
X218440000Y-102870000D02*
X219710000Y-101600000D01*
X248920000Y-103124000D02*
X252222000Y-99822000D01*
X252222000Y-99822000D02*
X252222000Y-95250000D01*
X204216000Y-92964000D02*
X206756000Y-92964000D01*
X184150000Y-110744000D02*
X184150000Y-115570000D01*
X249682000Y-83312000D02*
X237998000Y-83312000D01*
X198882000Y-109220000D02*
X185674000Y-109220000D01*
X216662000Y-90170000D02*
X209550000Y-90170000D01*
X250952000Y-93980000D02*
X250952000Y-84582000D01*
X202946000Y-94234000D02*
X204216000Y-92964000D01*
X198882000Y-104394000D02*
X200152000Y-103124000D01*
X228092000Y-103124000D02*
X226060000Y-103124000D01*
X230124000Y-103124000D02*
X248920000Y-103124000D01*
X219710000Y-96774000D02*
X217170000Y-94234000D01*
X158750000Y-103886000D02*
X158750000Y-106426000D01*
X191770000Y-97536000D02*
X193802000Y-97536000D01*
X157480000Y-116332000D02*
X158750000Y-115062000D01*
X158750000Y-115062000D02*
X158750000Y-111760000D01*
X160020000Y-127000000D02*
X160020000Y-124460000D01*
X193802000Y-97536000D02*
X196088000Y-95250000D01*
X174498000Y-102616000D02*
X168656000Y-102616000D01*
X180086000Y-97536000D02*
X179070000Y-98552000D01*
X162560000Y-129540000D02*
X168910000Y-129540000D01*
X181102000Y-97536000D02*
X180086000Y-97536000D01*
X158750000Y-106426000D02*
X156083000Y-109093000D01*
X170180000Y-127000000D02*
X172720000Y-127000000D01*
X158750000Y-111760000D02*
X156083000Y-109093000D01*
X159258000Y-103378000D02*
X158750000Y-103886000D01*
X202184000Y-96520000D02*
X203200000Y-97536000D01*
X179070000Y-98552000D02*
X179070000Y-100584000D01*
X156083000Y-109093000D02*
X152400000Y-105410000D01*
X179070000Y-100584000D02*
X177038000Y-102616000D01*
X170180000Y-128270000D02*
X170180000Y-127000000D01*
X167894000Y-103378000D02*
X159258000Y-103378000D01*
X168910000Y-129540000D02*
X170180000Y-128270000D01*
X203200000Y-97536000D02*
X203200000Y-99060000D01*
X160020000Y-124460000D02*
X158750000Y-123190000D01*
X168656000Y-102616000D02*
X167894000Y-103378000D01*
X160020000Y-127000000D02*
X162560000Y-129540000D01*
X141224000Y-100584000D02*
X113538000Y-100584000D01*
X161290000Y-106680000D02*
X160020000Y-105410000D01*
X162560000Y-119380000D02*
X161290000Y-118110000D01*
X110998000Y-100584000D02*
X106172000Y-100584000D01*
X144272000Y-103124000D02*
X143764000Y-103124000D01*
X161290000Y-118110000D02*
X161290000Y-106680000D01*
X143764000Y-103124000D02*
X141224000Y-100584000D01*
X151384000Y-106934000D02*
X157480000Y-113030000D01*
X143764000Y-106934000D02*
X135636000Y-106934000D01*
X103632000Y-107696000D02*
X111252000Y-107696000D01*
X65024000Y-106934000D02*
X63500000Y-105410000D01*
X146558000Y-106934000D02*
X151384000Y-106934000D01*
X85598000Y-106934000D02*
X65024000Y-106934000D01*
X102870000Y-106934000D02*
X103632000Y-107696000D01*
X149860000Y-96520000D02*
X148590000Y-95250000D01*
X146304000Y-88900000D02*
X147574000Y-88900000D01*
X149860000Y-99060000D02*
X149860000Y-96520000D01*
X136906000Y-85852000D02*
X134112000Y-83058000D01*
X144272000Y-88900000D02*
X139954000Y-88900000D01*
X127508000Y-83058000D02*
X121920000Y-77470000D01*
X148590000Y-89916000D02*
X148590000Y-93472000D01*
X134112000Y-83058000D02*
X127508000Y-83058000D01*
X147574000Y-88900000D02*
X148590000Y-89916000D01*
X67310000Y-81280000D02*
X67310000Y-76454000D01*
X140462000Y-92710000D02*
X141986000Y-94234000D01*
X119380000Y-87884000D02*
X125222000Y-87884000D01*
X83058000Y-80772000D02*
X75438000Y-80772000D01*
X118110000Y-86614000D02*
X119380000Y-87884000D01*
X155194000Y-94234000D02*
X160020000Y-99060000D01*
X71120000Y-85090000D02*
X67310000Y-81280000D01*
X66802000Y-75946000D02*
X62484000Y-75946000D01*
X134188200Y-88823800D02*
X135362453Y-87649547D01*
X126161800Y-88823800D02*
X134188200Y-88823800D01*
X141986000Y-94234000D02*
X144272000Y-94234000D01*
X135362453Y-87649547D02*
X135368969Y-87649547D01*
X62484000Y-75946000D02*
X60960000Y-77470000D01*
X86614000Y-81534000D02*
X87122000Y-82042000D01*
X87122000Y-82042000D02*
X105918000Y-82042000D01*
X67310000Y-76454000D02*
X66802000Y-75946000D01*
X125222000Y-87884000D02*
X126161800Y-88823800D01*
X109728000Y-85852000D02*
X113538000Y-85852000D01*
X75438000Y-80772000D02*
X71120000Y-85090000D01*
X105918000Y-82042000D02*
X109728000Y-85852000D01*
X146558000Y-94234000D02*
X155194000Y-94234000D01*
X153416000Y-111506000D02*
X154940000Y-113030000D01*
X149352000Y-111506000D02*
X153416000Y-111506000D01*
X122174000Y-101346000D02*
X120904000Y-102616000D01*
X134874000Y-103378000D02*
X132842000Y-101346000D01*
X148590000Y-112268000D02*
X149352000Y-111506000D01*
X147066000Y-115824000D02*
X148590000Y-114300000D01*
X146304000Y-115824000D02*
X147066000Y-115824000D01*
X66802000Y-108458000D02*
X85598000Y-108458000D01*
X113284000Y-109220000D02*
X115570000Y-109220000D01*
X64516000Y-110744000D02*
X66802000Y-108458000D01*
X132842000Y-101346000D02*
X122174000Y-101346000D01*
X134874000Y-115062000D02*
X134874000Y-103378000D01*
X101854000Y-109220000D02*
X111252000Y-109220000D01*
X115570000Y-109220000D02*
X119380000Y-105410000D01*
X135636000Y-115824000D02*
X134874000Y-115062000D01*
X148590000Y-114300000D02*
X148590000Y-112268000D01*
X101092000Y-108458000D02*
X101854000Y-109220000D01*
X144272000Y-115824000D02*
X135636000Y-115824000D01*
X208280000Y-101854000D02*
X208280000Y-99060000D01*
X208280000Y-113030000D02*
X208280000Y-109982000D01*
X193040000Y-96774000D02*
X195326000Y-94488000D01*
X179578000Y-96774000D02*
X177800000Y-98552000D01*
X189484000Y-96774000D02*
X193040000Y-96774000D01*
X209550000Y-108712000D02*
X209550000Y-103124000D01*
X209550000Y-103124000D02*
X208280000Y-101854000D01*
X182118000Y-96774000D02*
X179578000Y-96774000D01*
X202946000Y-95758000D02*
X204978000Y-95758000D01*
X177800000Y-98552000D02*
X177800000Y-99060000D01*
X208280000Y-109982000D02*
X209550000Y-108712000D01*
X204978000Y-95758000D02*
X208280000Y-99060000D01*
X225806000Y-99060000D02*
X224536000Y-97790000D01*
X233680000Y-98552000D02*
X233680000Y-99060000D01*
X232410000Y-97282000D02*
X233680000Y-98552000D01*
X228092000Y-99060000D02*
X225806000Y-99060000D01*
X199136000Y-101600000D02*
X198628000Y-102108000D01*
X214630000Y-108712000D02*
X213360000Y-109982000D01*
X213360000Y-109982000D02*
X213360000Y-113030000D01*
X186944000Y-102108000D02*
X186182000Y-101346000D01*
X215900000Y-101600000D02*
X215900000Y-99060000D01*
X186182000Y-101346000D02*
X182626000Y-101346000D01*
X202438000Y-101600000D02*
X204978000Y-101600000D01*
X214630000Y-102870000D02*
X214630000Y-108712000D01*
X198628000Y-102108000D02*
X186944000Y-102108000D01*
X182626000Y-101346000D02*
X180340000Y-99060000D01*
X214630000Y-102870000D02*
X215900000Y-101600000D01*
X228168700Y-101600000D02*
X225044000Y-101600000D01*
X238760000Y-101600000D02*
X241300000Y-99060000D01*
X230124000Y-101600000D02*
X238760000Y-101600000D01*
X225044000Y-101600000D02*
X224028000Y-100584000D01*
X240792000Y-93472000D02*
X243078000Y-93472000D01*
X243840000Y-92710000D02*
X243840000Y-91440000D01*
X243078000Y-93472000D02*
X243840000Y-92710000D01*
X228092000Y-93472000D02*
X224790000Y-93472000D01*
X222758000Y-91440000D02*
X220980000Y-91440000D01*
X224790000Y-93472000D02*
X222758000Y-91440000D01*
X222250000Y-101600000D02*
X219710000Y-104140000D01*
X219710000Y-108712000D02*
X218440000Y-109982000D01*
X222250000Y-101600000D02*
X222250000Y-95250000D01*
X187706000Y-101346000D02*
X185420000Y-99060000D01*
X219710000Y-104140000D02*
X219710000Y-108712000D01*
X198120000Y-100838000D02*
X197612000Y-101346000D01*
X197612000Y-101346000D02*
X187706000Y-101346000D01*
X218440000Y-109982000D02*
X218440000Y-113030000D01*
X222250000Y-95250000D02*
X218440000Y-91440000D01*
X236220000Y-94234000D02*
X236220000Y-91440000D01*
X227330000Y-94234000D02*
X222504000Y-94234000D01*
X222504000Y-94234000D02*
X221742000Y-93472000D01*
X212090000Y-97028000D02*
X212090000Y-95250000D01*
X223266000Y-97028000D02*
X223266000Y-103124000D01*
X202184000Y-94996000D02*
X204470000Y-94996000D01*
X196342000Y-100584000D02*
X199390000Y-97536000D01*
X189484000Y-100584000D02*
X196342000Y-100584000D01*
X212090000Y-95250000D02*
X210820000Y-93980000D01*
X199390000Y-97536000D02*
X199390000Y-93726000D01*
X210820000Y-93980000D02*
X210820000Y-93726000D01*
X204470000Y-94996000D02*
X205740000Y-93726000D01*
X223266000Y-103124000D02*
X220980000Y-105410000D01*
X210820000Y-93726000D02*
X210820000Y-91440000D01*
X205740000Y-93726000D02*
X210820000Y-93726000D01*
X187960000Y-99060000D02*
X189484000Y-100584000D01*
X177800000Y-94996000D02*
X181356000Y-94996000D01*
X170434000Y-95504000D02*
X170434000Y-100838000D01*
X153416000Y-101854000D02*
X149860000Y-105410000D01*
X184150000Y-90678000D02*
X184912000Y-89916000D01*
X191516000Y-89916000D02*
X193040000Y-91440000D01*
X230124000Y-89154000D02*
X231140000Y-89154000D01*
X184912000Y-89916000D02*
X191516000Y-89916000D01*
X231140000Y-97028000D02*
X231140000Y-99060000D01*
X173736000Y-94996000D02*
X170942000Y-94996000D01*
X227076000Y-89154000D02*
X202438000Y-89154000D01*
X232410000Y-90424000D02*
X232410000Y-95758000D01*
X232410000Y-95758000D02*
X231140000Y-97028000D01*
X184150000Y-92202000D02*
X184150000Y-90678000D01*
X170434000Y-100838000D02*
X169418000Y-101854000D01*
X170942000Y-94996000D02*
X170434000Y-95504000D01*
X169418000Y-101854000D02*
X153416000Y-101854000D01*
X181356000Y-94996000D02*
X184150000Y-92202000D01*
X231140000Y-89154000D02*
X232410000Y-90424000D01*
X237490000Y-97790000D02*
X238760000Y-99060000D01*
X230886000Y-88392000D02*
X231521000Y-88392000D01*
X236728000Y-89408000D02*
X237490000Y-90170000D01*
X237490000Y-90170000D02*
X237490000Y-97790000D01*
X231521000Y-88392000D02*
X232537000Y-89408000D01*
X205740000Y-86360000D02*
X205740000Y-85090000D01*
X232537000Y-89408000D02*
X236728000Y-89408000D01*
X226314000Y-88392000D02*
X207772000Y-88392000D01*
X207772000Y-88392000D02*
X205740000Y-86360000D01*
X238506000Y-88646000D02*
X240030000Y-90170000D01*
X208280000Y-86360000D02*
X208280000Y-85090000D01*
X240030000Y-94996000D02*
X241300000Y-96266000D01*
X241300000Y-96266000D02*
X243586000Y-96266000D01*
X233172000Y-88646000D02*
X238506000Y-88646000D01*
X209550000Y-87630000D02*
X208280000Y-86360000D01*
X232156000Y-87630000D02*
X233172000Y-88646000D01*
X240030000Y-90170000D02*
X240030000Y-94996000D01*
X243586000Y-96266000D02*
X246380000Y-99060000D01*
X227076000Y-87630000D02*
X209550000Y-87630000D01*
X230124000Y-87630000D02*
X232156000Y-87630000D01*
X228092000Y-80518000D02*
X213868000Y-80518000D01*
X230124000Y-80518000D02*
X232664000Y-80518000D01*
X235458000Y-87122000D02*
X244602000Y-87122000D01*
X234950000Y-86614000D02*
X235458000Y-87122000D01*
X244602000Y-87122000D02*
X248920000Y-91440000D01*
X213868000Y-80518000D02*
X210820000Y-83566000D01*
X210820000Y-83566000D02*
X210820000Y-85090000D01*
X232664000Y-80518000D02*
X233426000Y-81280000D01*
X232410000Y-82804000D02*
X230886000Y-81280000D01*
X215646000Y-81280000D02*
X213360000Y-83566000D01*
X241300000Y-90170000D02*
X241300000Y-91440000D01*
X227330000Y-81280000D02*
X215646000Y-81280000D01*
X232410000Y-83566000D02*
X232410000Y-82804000D01*
X233680000Y-87884000D02*
X239014000Y-87884000D01*
X213360000Y-83566000D02*
X213360000Y-85090000D01*
X239014000Y-87884000D02*
X241300000Y-90170000D01*
X232410000Y-86614000D02*
X233680000Y-87884000D01*
X151638000Y-89916000D02*
X163576000Y-89916000D01*
X149860000Y-71120000D02*
X149860000Y-74168000D01*
X166370000Y-92710000D02*
X166370000Y-100076000D01*
X148590000Y-75438000D02*
X148590000Y-86868000D01*
X148590000Y-86868000D02*
X151638000Y-89916000D01*
X166370000Y-104140000D02*
X165100000Y-105410000D01*
X163576000Y-89916000D02*
X166370000Y-92710000D01*
X165100000Y-105410000D02*
X162560000Y-105410000D01*
X149860000Y-74168000D02*
X148590000Y-75438000D01*
X154940000Y-105410000D02*
X157734000Y-102616000D01*
X202184000Y-83566000D02*
X197866000Y-87884000D01*
X208788000Y-83566000D02*
X202184000Y-83566000D01*
X209550000Y-84328000D02*
X208788000Y-83566000D01*
X215900000Y-85090000D02*
X215900000Y-86360000D01*
X157734000Y-102616000D02*
X167132000Y-102616000D01*
X209550000Y-86360000D02*
X209550000Y-84328000D01*
X215900000Y-86360000D02*
X215392000Y-86868000D01*
X167132000Y-102616000D02*
X167386000Y-102616000D01*
X210058000Y-86868000D02*
X209550000Y-86360000D01*
X189484000Y-87884000D02*
X171958000Y-87884000D01*
X215392000Y-86868000D02*
X210058000Y-86868000D01*
X197866000Y-87884000D02*
X191516000Y-87884000D01*
X167386000Y-92456000D02*
X167386000Y-100076000D01*
X171958000Y-87884000D02*
X167386000Y-92456000D01*
X73152000Y-79248000D02*
X69850000Y-82550000D01*
X86614000Y-80010000D02*
X87884000Y-81280000D01*
X110490000Y-83820000D02*
X113538000Y-83820000D01*
X83058000Y-79248000D02*
X73152000Y-79248000D01*
X107950000Y-81280000D02*
X110490000Y-83820000D01*
X87884000Y-81280000D02*
X107950000Y-81280000D01*
X78308700Y-109220000D02*
X78232000Y-109143300D01*
X93980000Y-110490000D02*
X92710000Y-109220000D01*
X84836000Y-109220000D02*
X78308700Y-109220000D01*
X58420000Y-100076000D02*
X58420000Y-99060000D01*
X77216000Y-103378000D02*
X61722000Y-103378000D01*
X92710000Y-103632000D02*
X91440000Y-102362000D01*
X91440000Y-102362000D02*
X91440000Y-99060000D01*
X78232000Y-104394000D02*
X77216000Y-103378000D01*
X92710000Y-109220000D02*
X92710000Y-103632000D01*
X61722000Y-103378000D02*
X58420000Y-100076000D01*
X85598000Y-109982000D02*
X84836000Y-109220000D01*
X104140000Y-105410000D02*
X104140000Y-104140000D01*
X60960000Y-100584000D02*
X60960000Y-99060000D01*
X85598000Y-94996000D02*
X85598000Y-94742000D01*
X83058000Y-94742000D02*
X79248000Y-94742000D01*
X77724000Y-100838000D02*
X75946000Y-102616000D01*
X87630000Y-97028000D02*
X85598000Y-94996000D01*
X79248000Y-94742000D02*
X77724000Y-96266000D01*
X75946000Y-102616000D02*
X62992000Y-102616000D01*
X62992000Y-102616000D02*
X60960000Y-100584000D01*
X77724000Y-96266000D02*
X77724000Y-100838000D01*
X104140000Y-104140000D02*
X99060000Y-99060000D01*
X87630000Y-97536000D02*
X87630000Y-97028000D01*
X63500000Y-96266000D02*
X67310000Y-92456000D01*
X67310000Y-90932000D02*
X68072000Y-90170000D01*
X63500000Y-99060000D02*
X63500000Y-96266000D01*
X69850000Y-90170000D02*
X71120000Y-91440000D01*
X67310000Y-92456000D02*
X67310000Y-90932000D01*
X68072000Y-90170000D02*
X69850000Y-90170000D01*
X82042000Y-93980000D02*
X78994000Y-93980000D01*
X99060000Y-101600000D02*
X97790000Y-100330000D01*
X97790000Y-100330000D02*
X97790000Y-97282000D01*
X76962000Y-96012000D02*
X76962000Y-100330000D01*
X97790000Y-97282000D02*
X101092000Y-93980000D01*
X101092000Y-93980000D02*
X101600000Y-93472000D01*
X78994000Y-93980000D02*
X76962000Y-96012000D01*
X68834000Y-101854000D02*
X66040000Y-99060000D01*
X101600000Y-93472000D02*
X101600000Y-91440000D01*
X76962000Y-100330000D02*
X75438000Y-101854000D01*
X75438000Y-101854000D02*
X68834000Y-101854000D01*
X99060000Y-105410000D02*
X99060000Y-101600000D01*
X70612000Y-101092000D02*
X74930000Y-101092000D01*
X93980000Y-103378000D02*
X92710000Y-102108000D01*
X93980000Y-105410000D02*
X93980000Y-103378000D01*
X74930000Y-101092000D02*
X76200000Y-99822000D01*
X92710000Y-92710000D02*
X93980000Y-91440000D01*
X68580000Y-99060000D02*
X70612000Y-101092000D01*
X76200000Y-95758000D02*
X78740000Y-93218000D01*
X92710000Y-102108000D02*
X92710000Y-93218000D01*
X78740000Y-93218000D02*
X83058000Y-93218000D01*
X92710000Y-93218000D02*
X92710000Y-92710000D01*
X76200000Y-99822000D02*
X76200000Y-95758000D01*
X71120000Y-99060000D02*
X71120000Y-93980000D01*
X71120000Y-93980000D02*
X68580000Y-91440000D01*
X245110000Y-63500000D02*
X237490000Y-71120000D01*
X60960000Y-127000000D02*
X62230000Y-125730000D01*
X62230000Y-125730000D02*
X62230000Y-116840000D01*
X62230000Y-116840000D02*
X66040000Y-113030000D01*
X69850000Y-125730000D02*
X69850000Y-114300000D01*
X69850000Y-114300000D02*
X68580000Y-113030000D01*
X68580000Y-127000000D02*
X69850000Y-125730000D01*
X71120000Y-127000000D02*
X72224800Y-125895200D01*
X72224800Y-125895200D02*
X72224800Y-114134800D01*
X72224800Y-114134800D02*
X71120000Y-113030000D01*
X74930000Y-121412000D02*
X74930000Y-114300000D01*
X78740000Y-125222000D02*
X74930000Y-121412000D01*
X78740000Y-127000000D02*
X78740000Y-125222000D01*
X74930000Y-114300000D02*
X73660000Y-113030000D01*
X81915000Y-121158000D02*
X84455000Y-118618000D01*
X88900000Y-102870000D02*
X90170000Y-104140000D01*
X90170000Y-104140000D02*
X90170000Y-108204000D01*
X84455000Y-118618000D02*
X90170000Y-118618000D01*
X90170000Y-118618000D02*
X94996000Y-118618000D01*
X78740000Y-119380000D02*
X80518000Y-121158000D01*
X90170000Y-108204000D02*
X90170000Y-115570000D01*
X88900000Y-99060000D02*
X88900000Y-102870000D01*
X80518000Y-121158000D02*
X81915000Y-121158000D01*
X99060000Y-114554000D02*
X99060000Y-113030000D01*
X94996000Y-118618000D02*
X99060000Y-114554000D01*
X96520000Y-99060000D02*
X96520000Y-96774000D01*
X97790000Y-109220000D02*
X97790000Y-103124000D01*
X97790000Y-103124000D02*
X96520000Y-101854000D01*
X101600000Y-106680000D02*
X101600000Y-105410000D01*
X97790000Y-109220000D02*
X99060000Y-109220000D01*
X94488000Y-117856000D02*
X97790000Y-114554000D01*
X97790000Y-114554000D02*
X97790000Y-109220000D01*
X96520000Y-101854000D02*
X96520000Y-99060000D01*
X96520000Y-96774000D02*
X100330000Y-92964000D01*
X100330000Y-92964000D02*
X100330000Y-90678000D01*
X99060000Y-109220000D02*
X101600000Y-106680000D01*
X96266000Y-86614000D02*
X95250000Y-86614000D01*
X100330000Y-90678000D02*
X96266000Y-86614000D01*
X77724000Y-117856000D02*
X94488000Y-117856000D01*
X90424000Y-83566000D02*
X88900000Y-85090000D01*
X95250000Y-88646000D02*
X92710000Y-86106000D01*
X95250000Y-95250000D02*
X99060000Y-91440000D01*
X92710000Y-84328000D02*
X91948000Y-83566000D01*
X96266000Y-88646000D02*
X95250000Y-88646000D01*
X92710000Y-117094000D02*
X95250000Y-114554000D01*
X99060000Y-91440000D02*
X96266000Y-88646000D01*
X95250000Y-105410000D02*
X96520000Y-105410000D01*
X92710000Y-86106000D02*
X92710000Y-84328000D01*
X95250000Y-105410000D02*
X95250000Y-95250000D01*
X95250000Y-114554000D02*
X95250000Y-105410000D01*
X76708000Y-117094000D02*
X92710000Y-117094000D01*
X91948000Y-83566000D02*
X90424000Y-83566000D01*
X91440000Y-91440000D02*
X91440000Y-85090000D01*
X91440000Y-110490000D02*
X91440000Y-105410000D01*
X90170000Y-102362000D02*
X90170000Y-92710000D01*
X90170000Y-92710000D02*
X91440000Y-91440000D01*
X91440000Y-105410000D02*
X91440000Y-103632000D01*
X91440000Y-116332000D02*
X92710000Y-115062000D01*
X75692000Y-116332000D02*
X91440000Y-116332000D01*
X92710000Y-115062000D02*
X92710000Y-111760000D01*
X91440000Y-103632000D02*
X90170000Y-102362000D01*
X92710000Y-111760000D02*
X91440000Y-110490000D01*
X129032000Y-102870000D02*
X123698000Y-102870000D01*
X129540000Y-119380000D02*
X130810000Y-118110000D01*
X123698000Y-102870000D02*
X121920000Y-104648000D01*
X121920000Y-104648000D02*
X121920000Y-105410000D01*
X130810000Y-118110000D02*
X130810000Y-104648000D01*
X130810000Y-104648000D02*
X129032000Y-102870000D01*
X125730000Y-114554000D02*
X127000000Y-115824000D01*
X124460000Y-105410000D02*
X125730000Y-106680000D01*
X127000000Y-115824000D02*
X127000000Y-119380000D01*
X125730000Y-106680000D02*
X125730000Y-114554000D01*
X124460000Y-115824000D02*
X124460000Y-119380000D01*
X123190000Y-114554000D02*
X124460000Y-115824000D01*
X123190000Y-110236000D02*
X123190000Y-114554000D01*
X127000000Y-105410000D02*
X127000000Y-107442000D01*
X127000000Y-107442000D02*
X126746000Y-107696000D01*
X126746000Y-107696000D02*
X126746000Y-108712000D01*
X124714000Y-108712000D02*
X123190000Y-110236000D01*
X123190000Y-106426000D02*
X123190000Y-104648000D01*
X124206000Y-103632000D02*
X127762000Y-103632000D01*
X127762000Y-103632000D02*
X129540000Y-105410000D01*
X123190000Y-104648000D02*
X124206000Y-103632000D01*
X120650000Y-114554000D02*
X120650000Y-108966000D01*
X121920000Y-115824000D02*
X120650000Y-114554000D01*
X120650000Y-108966000D02*
X123190000Y-106426000D01*
X121920000Y-119380000D02*
X121920000Y-115824000D01*
X128143000Y-114427000D02*
X129540000Y-113030000D01*
X119380000Y-116840000D02*
X120129900Y-116840000D01*
X116840000Y-119380000D02*
X119380000Y-116840000D01*
X117602000Y-116078000D02*
X114300000Y-119380000D01*
X119126000Y-116078000D02*
X117602000Y-116078000D01*
X115824000Y-115316000D02*
X111760000Y-119380000D01*
X118110000Y-115316000D02*
X115824000Y-115316000D01*
X246634000Y-62484000D02*
X246634000Y-67056000D01*
X246634000Y-67056000D02*
X245110000Y-68580000D01*
X245110000Y-71120000D02*
X245110000Y-75946000D01*
X242570000Y-63500000D02*
X244094000Y-61976000D01*
X246126000Y-61976000D02*
X246634000Y-62484000D01*
X244094000Y-61976000D02*
X246126000Y-61976000D01*
X113538000Y-94742000D02*
X114554000Y-94742000D01*
X93980000Y-99060000D02*
X93980000Y-96774000D01*
X110998000Y-94742000D02*
X105918000Y-94742000D01*
X114554000Y-94742000D02*
X116840000Y-97028000D01*
X105918000Y-94742000D02*
X102870000Y-97790000D01*
X105410000Y-93980000D02*
X101600000Y-97790000D01*
X109982000Y-93980000D02*
X105410000Y-93980000D01*
X101600000Y-97790000D02*
X101600000Y-99060000D01*
X115316000Y-93980000D02*
X118364000Y-97028000D01*
X114554000Y-93980000D02*
X115316000Y-93980000D01*
X118364000Y-97028000D02*
X124460000Y-97028000D01*
X116586000Y-88900000D02*
X121412000Y-88900000D01*
X123190000Y-90678000D02*
X123190000Y-92202000D01*
X104140000Y-90308630D02*
X105548630Y-88900000D01*
X125730000Y-92710000D02*
X127000000Y-91440000D01*
X104140000Y-91440000D02*
X104140000Y-90308630D01*
X105548630Y-88900000D02*
X111760000Y-88900000D01*
X123698000Y-92710000D02*
X125730000Y-92710000D01*
X123190000Y-92202000D02*
X123698000Y-92710000D01*
X121412000Y-88900000D02*
X123190000Y-90678000D01*
X117856000Y-89916000D02*
X119380000Y-91440000D01*
X115570000Y-89916000D02*
X117856000Y-89916000D01*
X110744000Y-89916000D02*
X106172000Y-89916000D01*
X139192000Y-87122000D02*
X139192000Y-73152000D01*
X139700000Y-72644000D02*
X139700000Y-71120000D01*
X121920000Y-96266000D02*
X123444000Y-94742000D01*
X131572000Y-94742000D02*
X139192000Y-87122000D01*
X123444000Y-94742000D02*
X131572000Y-94742000D01*
X139192000Y-73152000D02*
X139700000Y-72644000D01*
X131064000Y-95504000D02*
X131826000Y-95504000D01*
X129540000Y-97028000D02*
X131064000Y-95504000D01*
X139954000Y-73406000D02*
X142240000Y-71120000D01*
X139954000Y-87376000D02*
X139954000Y-73406000D01*
X131826000Y-95504000D02*
X139954000Y-87376000D01*
X139192000Y-69596000D02*
X143256000Y-69596000D01*
X138430000Y-70358000D02*
X139192000Y-69596000D01*
X133858000Y-91440000D02*
X138430000Y-86868000D01*
X138430000Y-86868000D02*
X138430000Y-70358000D01*
X132080000Y-91440000D02*
X133858000Y-91440000D01*
X143256000Y-69596000D02*
X144780000Y-71120000D01*
X137160000Y-68834000D02*
X145034000Y-68834000D01*
X145034000Y-68834000D02*
X147320000Y-71120000D01*
X137591800Y-86644068D02*
X137591800Y-74091800D01*
X137591800Y-74091800D02*
X135890000Y-72390000D01*
X126238000Y-89662000D02*
X134573868Y-89662000D01*
X134573868Y-89662000D02*
X137591800Y-86644068D01*
X135890000Y-70104000D02*
X137160000Y-68834000D01*
X135890000Y-72390000D02*
X135890000Y-70104000D01*
X124460000Y-91440000D02*
X126238000Y-89662000D01*
X238760000Y-67310000D02*
X234950000Y-71120000D01*
X238760000Y-63500000D02*
X238760000Y-67310000D01*
X238252000Y-72898000D02*
X238760000Y-73406000D01*
X236220000Y-67310000D02*
X233680000Y-69850000D01*
X233680000Y-71882000D02*
X234696000Y-72898000D01*
X234696000Y-72898000D02*
X238252000Y-72898000D01*
X236220000Y-63500000D02*
X236220000Y-67310000D01*
X233680000Y-69850000D02*
X233680000Y-71882000D01*
X232410000Y-63500000D02*
X232410000Y-71120000D01*
X237490000Y-73660000D02*
X241300000Y-77470000D01*
X229870000Y-68580000D02*
X231140000Y-69850000D01*
X229870000Y-63500000D02*
X229870000Y-68580000D01*
X232664000Y-73660000D02*
X237490000Y-73660000D01*
X231140000Y-72136000D02*
X232664000Y-73660000D01*
X231140000Y-69850000D02*
X231140000Y-72136000D01*
X226060000Y-66040000D02*
X229870000Y-69850000D01*
X229870000Y-69850000D02*
X229870000Y-71120000D01*
X226060000Y-63500000D02*
X226060000Y-66040000D01*
X223520000Y-63500000D02*
X223520000Y-64770000D01*
X237490000Y-76454000D02*
X237490000Y-78232000D01*
X230632000Y-74422000D02*
X235458000Y-74422000D01*
X242316000Y-78994000D02*
X243840000Y-77470000D01*
X228600000Y-69850000D02*
X228600000Y-72390000D01*
X223520000Y-64770000D02*
X228600000Y-69850000D01*
X238252000Y-78994000D02*
X242316000Y-78994000D01*
X237490000Y-78232000D02*
X238252000Y-78994000D01*
X235458000Y-74422000D02*
X237490000Y-76454000D01*
X228600000Y-72390000D02*
X230632000Y-74422000D01*
X227330000Y-69850000D02*
X227330000Y-71120000D01*
X221488000Y-65278000D02*
X222758000Y-65278000D01*
X219710000Y-63500000D02*
X221488000Y-65278000D01*
X222758000Y-65278000D02*
X227330000Y-69850000D01*
X226060000Y-72390000D02*
X228854000Y-75184000D01*
X244094000Y-79756000D02*
X246380000Y-77470000D01*
X217170000Y-63500000D02*
X220218000Y-66548000D01*
X222758000Y-66548000D02*
X226060000Y-69850000D01*
X226060000Y-69850000D02*
X226060000Y-72390000D01*
X234950000Y-78486000D02*
X236220000Y-79756000D01*
X228854000Y-75184000D02*
X233680000Y-75184000D01*
X236220000Y-79756000D02*
X244094000Y-79756000D01*
X233680000Y-75184000D02*
X234950000Y-76454000D01*
X220218000Y-66548000D02*
X222758000Y-66548000D01*
X234950000Y-76454000D02*
X234950000Y-78486000D01*
X217424000Y-67564000D02*
X222504000Y-67564000D01*
X213360000Y-63500000D02*
X217424000Y-67564000D01*
X224790000Y-69850000D02*
X224790000Y-71120000D01*
X222504000Y-67564000D02*
X224790000Y-69850000D01*
X231394000Y-75946000D02*
X227076000Y-75946000D01*
X232410000Y-78232000D02*
X232410000Y-76962000D01*
X223520000Y-72390000D02*
X223520000Y-69850000D01*
X223520000Y-69850000D02*
X222250000Y-68580000D01*
X215900000Y-68580000D02*
X210820000Y-63500000D01*
X234696000Y-80518000D02*
X232410000Y-78232000D01*
X245872000Y-80518000D02*
X234696000Y-80518000D01*
X222250000Y-68580000D02*
X215900000Y-68580000D01*
X248920000Y-77470000D02*
X245872000Y-80518000D01*
X227076000Y-75946000D02*
X223520000Y-72390000D01*
X232410000Y-76962000D02*
X231394000Y-75946000D01*
X213106000Y-69596000D02*
X220726000Y-69596000D01*
X220726000Y-69596000D02*
X222250000Y-71120000D01*
X207010000Y-63500000D02*
X213106000Y-69596000D01*
X204470000Y-63500000D02*
X204470000Y-62738000D01*
X204470000Y-62738000D02*
X205994000Y-61214000D01*
X250952000Y-77978000D02*
X249174000Y-79756000D01*
X250952000Y-67056000D02*
X250952000Y-77978000D01*
X205994000Y-61214000D02*
X252222000Y-61214000D01*
X253238000Y-62230000D02*
X253238000Y-64770000D01*
X252222000Y-61214000D02*
X253238000Y-62230000D01*
X253238000Y-64770000D02*
X250952000Y-67056000D01*
X112776000Y-68834000D02*
X118110000Y-63500000D01*
X104140000Y-71120000D02*
X106426000Y-68834000D01*
X106426000Y-68834000D02*
X112776000Y-68834000D01*
X105410000Y-67818000D02*
X111252000Y-67818000D01*
X102870000Y-70358000D02*
X105410000Y-67818000D01*
X102870000Y-75946000D02*
X102870000Y-70358000D01*
X111252000Y-67818000D02*
X115570000Y-63500000D01*
X105156000Y-66802000D02*
X101600000Y-70358000D01*
X111760000Y-63500000D02*
X108458000Y-66802000D01*
X101600000Y-70358000D02*
X101600000Y-71120000D01*
X108458000Y-66802000D02*
X105156000Y-66802000D01*
X100330000Y-75946000D02*
X100330000Y-70104000D01*
X100330000Y-70104000D02*
X104648000Y-65786000D01*
X104648000Y-65786000D02*
X106934000Y-65786000D01*
X106934000Y-65786000D02*
X109220000Y-63500000D01*
X99060000Y-69850000D02*
X99060000Y-71120000D01*
X105410000Y-63500000D02*
X99060000Y-69850000D01*
X102870000Y-63500000D02*
X97790000Y-68580000D01*
X97790000Y-73660000D02*
X96266000Y-75184000D01*
X97790000Y-68580000D02*
X97790000Y-73660000D01*
X96520000Y-67818000D02*
X96520000Y-71120000D01*
X99060000Y-63500000D02*
X99060000Y-65278000D01*
X99060000Y-65278000D02*
X96520000Y-67818000D01*
X96520000Y-63500000D02*
X96520000Y-65532000D01*
X95250000Y-76200000D02*
X96520000Y-77470000D01*
X96520000Y-65532000D02*
X95250000Y-66802000D01*
X95250000Y-66802000D02*
X95250000Y-76200000D01*
X92710000Y-63500000D02*
X92710000Y-65532000D01*
X93980000Y-66802000D02*
X93980000Y-71120000D01*
X92710000Y-65532000D02*
X93980000Y-66802000D01*
X99060000Y-77470000D02*
X97536000Y-78994000D01*
X92710000Y-67818000D02*
X90170000Y-65278000D01*
X92710000Y-78740000D02*
X92710000Y-67818000D01*
X92964000Y-78994000D02*
X92710000Y-78740000D01*
X97536000Y-78994000D02*
X92964000Y-78994000D01*
X90170000Y-65278000D02*
X90170000Y-63500000D01*
X86360000Y-63500000D02*
X86360000Y-64008000D01*
X91440000Y-69088000D02*
X91440000Y-71120000D01*
X86360000Y-64008000D02*
X91440000Y-69088000D01*
X101600000Y-77470000D02*
X99314000Y-79756000D01*
X91186000Y-79756000D02*
X90170000Y-78740000D01*
X90170000Y-69850000D02*
X83820000Y-63500000D01*
X99314000Y-79756000D02*
X91186000Y-79756000D01*
X90170000Y-78740000D02*
X90170000Y-69850000D01*
X80010000Y-63500000D02*
X82042000Y-65532000D01*
X88900000Y-70104000D02*
X88900000Y-71120000D01*
X84328000Y-65532000D02*
X88900000Y-70104000D01*
X82042000Y-65532000D02*
X84328000Y-65532000D01*
X83566000Y-66294000D02*
X80264000Y-66294000D01*
X89408000Y-80518000D02*
X87630000Y-78740000D01*
X101092000Y-80518000D02*
X89408000Y-80518000D01*
X104140000Y-77470000D02*
X101092000Y-80518000D01*
X87630000Y-70358000D02*
X83566000Y-66294000D01*
X87630000Y-78740000D02*
X87630000Y-70358000D01*
X80264000Y-66294000D02*
X77470000Y-63500000D01*
X86360000Y-71628000D02*
X86360000Y-71120000D01*
X79502000Y-73914000D02*
X84074000Y-73914000D01*
X73660000Y-63500000D02*
X73660000Y-68072000D01*
X73660000Y-68072000D02*
X79502000Y-73914000D01*
X84074000Y-73914000D02*
X86360000Y-71628000D01*
X99314000Y-82804000D02*
X101600000Y-85090000D01*
X86660132Y-82804000D02*
X99314000Y-82804000D01*
X78232000Y-78486000D02*
X71120000Y-71374000D01*
X82042000Y-80010000D02*
X78232000Y-80010000D01*
X85598000Y-80772000D02*
X85598000Y-81741868D01*
X85598000Y-81741868D02*
X86660132Y-82804000D01*
X71120000Y-71374000D02*
X71120000Y-63500000D01*
X208280000Y-77470000D02*
X208280000Y-81280000D01*
X200152000Y-58166000D02*
X198374000Y-56388000D01*
X205740000Y-77470000D02*
X208280000Y-77470000D01*
X200152000Y-61976000D02*
X200152000Y-58166000D01*
X210058000Y-73152000D02*
X210058000Y-71882000D01*
X142240000Y-60960000D02*
X139700000Y-60960000D01*
X146812000Y-56388000D02*
X142240000Y-60960000D01*
X210058000Y-77470000D02*
X205740000Y-77470000D01*
X210058000Y-71882000D02*
X200152000Y-61976000D01*
X198374000Y-56388000D02*
X146812000Y-56388000D01*
X181610000Y-112522000D02*
X181610000Y-109728000D01*
X183642000Y-107696000D02*
X194310000Y-107696000D01*
X96012000Y-119380000D02*
X100330000Y-115062000D01*
X100330000Y-115062000D02*
X101092000Y-115062000D01*
X101092000Y-122428000D02*
X177038000Y-122428000D01*
X179324000Y-111506000D02*
X177800000Y-113030000D01*
X195072000Y-97536000D02*
X195072000Y-99822000D01*
X227584000Y-113030000D02*
X225552000Y-113030000D01*
X197866000Y-107696000D02*
X203708000Y-107696000D01*
X225552000Y-113030000D02*
X224036800Y-111514800D01*
X195072000Y-102870000D02*
X196088000Y-102870000D01*
X196088000Y-93218000D02*
X196850000Y-93980000D01*
X108458000Y-115062000D02*
X110490000Y-113030000D01*
X200660000Y-82804000D02*
X196596000Y-86868000D01*
X181610000Y-113792000D02*
X181610000Y-112522000D01*
X85344000Y-119380000D02*
X96012000Y-119380000D01*
X194818000Y-89916000D02*
X196088000Y-91186000D01*
X203708000Y-107696000D02*
X204216000Y-108204000D01*
X101092000Y-115062000D02*
X108458000Y-115062000D01*
X100584000Y-119380000D02*
X101092000Y-119888000D01*
X81534000Y-111506000D02*
X85344000Y-115316000D01*
X179070000Y-116332000D02*
X181610000Y-113792000D01*
X179070000Y-120396000D02*
X179070000Y-116332000D01*
X196088000Y-91186000D02*
X196088000Y-93218000D01*
X181610000Y-109728000D02*
X183642000Y-107696000D01*
X181610000Y-112522000D02*
X181610000Y-111506000D01*
X96012000Y-119380000D02*
X100584000Y-119380000D01*
X204216000Y-82804000D02*
X200660000Y-82804000D01*
X58420000Y-113030000D02*
X59944000Y-111506000D01*
X196850000Y-95758000D02*
X195072000Y-97536000D01*
X59944000Y-111506000D02*
X81534000Y-111506000D01*
X196850000Y-93980000D02*
X196850000Y-95758000D01*
X204216000Y-108204000D02*
X204216000Y-111506000D01*
X205740000Y-81280000D02*
X204216000Y-82804000D01*
X177038000Y-122428000D02*
X179070000Y-120396000D01*
X224036800Y-111514800D02*
X219718800Y-111514800D01*
X196088000Y-102870000D02*
X197866000Y-104648000D01*
X219718800Y-111514800D02*
X219710000Y-111506000D01*
X194310000Y-107696000D02*
X197866000Y-107696000D01*
X181610000Y-111506000D02*
X179324000Y-111506000D01*
X197612000Y-83566000D02*
X199898000Y-81280000D01*
X187960000Y-80010000D02*
X180340000Y-80010000D01*
X189484000Y-81534000D02*
X187960000Y-80010000D01*
X199898000Y-81280000D02*
X203200000Y-81280000D01*
X203200000Y-77470000D02*
X203200000Y-81280000D01*
X191516000Y-83566000D02*
X197612000Y-83566000D01*
X180340000Y-74930000D02*
X180340000Y-85090000D01*
X168656000Y-73914000D02*
X153924000Y-73914000D01*
X153924000Y-73914000D02*
X151130000Y-76708000D01*
X189484000Y-73660000D02*
X193294000Y-77470000D01*
X151130000Y-83820000D02*
X149860000Y-85090000D01*
X151130000Y-76708000D02*
X151130000Y-83820000D01*
X186690000Y-73660000D02*
X179070000Y-73660000D01*
X177800000Y-74930000D02*
X169672000Y-74930000D01*
X179070000Y-73660000D02*
X177800000Y-74930000D01*
X189230000Y-73660000D02*
X189484000Y-73660000D01*
X169672000Y-74930000D02*
X168656000Y-73914000D01*
X193294000Y-77470000D02*
X195580000Y-77470000D01*
X154940000Y-74930000D02*
X152400000Y-77470000D01*
X169672000Y-77470000D02*
X167132000Y-74930000D01*
X167132000Y-74930000D02*
X154940000Y-74930000D01*
X177800000Y-77470000D02*
X169672000Y-77470000D01*
X167640000Y-78740000D02*
X168910000Y-80010000D01*
X168910000Y-80010000D02*
X177800000Y-80010000D01*
X230886000Y-108204000D02*
X231394000Y-108204000D01*
X152400000Y-115824000D02*
X152400000Y-113030000D01*
X164338000Y-111514800D02*
X162060800Y-111514800D01*
X162060800Y-111514800D02*
X162052000Y-111506000D01*
X171450000Y-108966000D02*
X168901200Y-111514800D01*
X168901200Y-111514800D02*
X164338000Y-111514800D01*
X233680000Y-105918000D02*
X233680000Y-105410000D01*
X227330000Y-108204000D02*
X221742000Y-108204000D01*
X221742000Y-108204000D02*
X221234000Y-107696000D01*
X203708000Y-106934000D02*
X180340000Y-106934000D01*
X151130000Y-117094000D02*
X152400000Y-115824000D01*
X164338000Y-113284000D02*
X167132000Y-116078000D01*
X231394000Y-108204000D02*
X233680000Y-105918000D01*
X174498000Y-108966000D02*
X171450000Y-108966000D01*
X178308000Y-108966000D02*
X180340000Y-106934000D01*
X180340000Y-106934000D02*
X180340000Y-105410000D01*
X164338000Y-111514800D02*
X164338000Y-113284000D01*
X151130000Y-123190000D02*
X154940000Y-127000000D01*
X177038000Y-108966000D02*
X178308000Y-108966000D01*
X157480000Y-77470000D02*
X159004000Y-75946000D01*
X168402000Y-82550000D02*
X177800000Y-82550000D01*
X165608000Y-75946000D02*
X166624000Y-76962000D01*
X166624000Y-76962000D02*
X166624000Y-80772000D01*
X159004000Y-75946000D02*
X165608000Y-75946000D01*
X166624000Y-80772000D02*
X168402000Y-82550000D01*
X162052000Y-86868000D02*
X161290000Y-86106000D01*
X177800000Y-85090000D02*
X168402000Y-85090000D01*
X168402000Y-85090000D02*
X166624000Y-86868000D01*
X160020000Y-80518000D02*
X160020000Y-77470000D01*
X166624000Y-86868000D02*
X162052000Y-86868000D01*
X161290000Y-81788000D02*
X160020000Y-80518000D01*
X161290000Y-86106000D02*
X161290000Y-81788000D01*
X73660000Y-91440000D02*
X76200000Y-93980000D01*
X110998000Y-99060000D02*
X106172000Y-99060000D01*
X144272000Y-102108000D02*
X141986000Y-99822000D01*
X82550000Y-100330000D02*
X78994000Y-96774000D01*
X103886000Y-101346000D02*
X102616000Y-101346000D01*
X133858000Y-97790000D02*
X115570000Y-97790000D01*
X141986000Y-99822000D02*
X135890000Y-99822000D01*
X135890000Y-99822000D02*
X133858000Y-97790000D01*
X115570000Y-97790000D02*
X114300000Y-99060000D01*
X106172000Y-99060000D02*
X103886000Y-101346000D01*
X160020000Y-71120000D02*
X156718000Y-67818000D01*
X156718000Y-67818000D02*
X138938000Y-67818000D01*
X138938000Y-67818000D02*
X137160000Y-66040000D01*
X209804000Y-74168000D02*
X209042000Y-73406000D01*
X198882000Y-73406000D02*
X193802000Y-68326000D01*
X211328000Y-77470000D02*
X213614000Y-79756000D01*
X211328000Y-74168000D02*
X209804000Y-74168000D01*
X193802000Y-68326000D02*
X189230000Y-68326000D01*
X224790000Y-83820000D02*
X224790000Y-83058000D01*
X209042000Y-73406000D02*
X198882000Y-73406000D01*
X226060000Y-85090000D02*
X224790000Y-83820000D01*
X213614000Y-79756000D02*
X224790000Y-79756000D01*
X179578000Y-68326000D02*
X164846000Y-68326000D01*
X164846000Y-68326000D02*
X162560000Y-66040000D01*
D20*
X160020000Y-67056000D02*
X160020000Y-60960000D01*
X164164000Y-71120000D02*
X164084000Y-71120000D01*
X157480000Y-60960000D02*
X160020000Y-60960000D01*
X164084000Y-71120000D02*
X160020000Y-67056000D01*
D19*
X144780000Y-63500000D02*
X144780000Y-62738000D01*
X132080000Y-60960000D02*
X134620000Y-63500000D01*
X134620000Y-63500000D02*
X144780000Y-63500000D01*
X144780000Y-60960000D02*
X147320000Y-60960000D01*
X147320000Y-66040000D02*
X152400000Y-66040000D01*
X147320000Y-66040000D02*
X144780000Y-63500000D01*
X144780000Y-62738000D02*
X144780000Y-60960000D01*
X205740000Y-71120000D02*
X203200000Y-71120000D01*
X203200000Y-67818000D02*
X203200000Y-71120000D01*
X198130000Y-58410000D02*
X198130000Y-62748000D01*
X198130000Y-62748000D02*
X203200000Y-67818000D01*
X129540000Y-58420000D02*
X129540000Y-63500000D01*
X180340000Y-57150000D02*
X180340000Y-60960000D01*
X133604000Y-54356000D02*
X129540000Y-58420000D01*
X179324000Y-54356000D02*
X133604000Y-54356000D01*
X180340000Y-55372000D02*
X179324000Y-54356000D01*
D20*
X184922000Y-66030000D02*
X184912000Y-66040000D01*
X178826000Y-71120000D02*
X169164000Y-71120000D01*
X184912000Y-66040000D02*
X183906000Y-66040000D01*
X183906000Y-66040000D02*
X178826000Y-71120000D01*
X186436000Y-66030000D02*
X184922000Y-66030000D01*
D19*
X195590000Y-58410000D02*
X193050000Y-58410000D01*
X132334000Y-102108000D02*
X122936000Y-102108000D01*
X157480000Y-117856000D02*
X157480000Y-119380000D01*
X63246000Y-107696000D02*
X60960000Y-105410000D01*
X118618000Y-103632000D02*
X116840000Y-105410000D01*
X116840000Y-105664000D02*
X116840000Y-105410000D01*
X133858000Y-103632000D02*
X132334000Y-102108000D01*
X146304000Y-116840000D02*
X147320000Y-117856000D01*
X121412000Y-103632000D02*
X118618000Y-103632000D01*
X144272000Y-116840000D02*
X135128000Y-116840000D01*
X160020000Y-115316000D02*
X157480000Y-117856000D01*
X133858000Y-115570000D02*
X133858000Y-103632000D01*
X160020000Y-113030000D02*
X160020000Y-115316000D01*
X114046000Y-108458000D02*
X116840000Y-105664000D01*
X102616000Y-108458000D02*
X110490000Y-108458000D01*
X147320000Y-117856000D02*
X157480000Y-117856000D01*
X122936000Y-102108000D02*
X121412000Y-103632000D01*
X135128000Y-116840000D02*
X133858000Y-115570000D01*
X101854000Y-107696000D02*
X102616000Y-108458000D01*
X84582000Y-107696000D02*
X63246000Y-107696000D01*
X193060000Y-63500000D02*
X195590000Y-66030000D01*
X189230000Y-63500000D02*
X193060000Y-63500000D01*
X185420000Y-63500000D02*
X186690000Y-63500000D01*
X177800000Y-63500000D02*
X185420000Y-63500000D01*
X185420000Y-58420000D02*
X185420000Y-63500000D01*
M02*
