%TF.GenerationSoftware,KiCad,Pcbnew,(7.0.0)*%
%TF.CreationDate,2024-03-28T20:26:27-07:00*%
%TF.ProjectId,sound_square,736f756e-645f-4737-9175-6172652e6b69,rev?*%
%TF.SameCoordinates,Original*%
%TF.FileFunction,Drillmap*%
%TF.FilePolarity,Positive*%
%FSLAX45Y45*%
G04 Gerber Fmt 4.5, Leading zero omitted, Abs format (unit mm)*
G04 Created by KiCad (PCBNEW (7.0.0)) date 2024-03-28 20:26:27*
%MOMM*%
%LPD*%
G01*
G04 APERTURE LIST*
%ADD10C,0.100000*%
%ADD11C,0.200000*%
%ADD12C,0.038100*%
%ADD13C,0.080000*%
%ADD14C,0.090000*%
G04 APERTURE END LIST*
D10*
X25400000Y-5270500D02*
X25400000Y-14668500D01*
X25209500Y-14859000D02*
G75*
G03*
X25400000Y-14668500I0J190500D01*
G01*
X5080000Y-14668500D02*
G75*
G03*
X5270500Y-14859000I190500J0D01*
G01*
X5080000Y-14668500D02*
X5080000Y-5270500D01*
X5270500Y-5080000D02*
G75*
G03*
X5080000Y-5270500I0J-190500D01*
G01*
X25209500Y-14859000D02*
X5270500Y-14859000D01*
X25400000Y-5270500D02*
G75*
G03*
X25209500Y-5080000I-190500J0D01*
G01*
X5270500Y-5080000D02*
X25209500Y-5080000D01*
D11*
D12*
X5314950Y-12172950D02*
X5353050Y-12211050D01*
X5353050Y-12172950D02*
X5314950Y-12211050D01*
X5416550Y-10013950D02*
X5454650Y-10052050D01*
X5454650Y-10013950D02*
X5416550Y-10052050D01*
X5492750Y-9404350D02*
X5530850Y-9442450D01*
X5530850Y-9404350D02*
X5492750Y-9442450D01*
X5746750Y-9683750D02*
X5784850Y-9721850D01*
X5784850Y-9683750D02*
X5746750Y-9721850D01*
X5822950Y-13011150D02*
X5861050Y-13049250D01*
X5861050Y-13011150D02*
X5822950Y-13049250D01*
X6330950Y-13087350D02*
X6369050Y-13125450D01*
X6369050Y-13087350D02*
X6330950Y-13125450D01*
X6432550Y-11055350D02*
X6470650Y-11093450D01*
X6470650Y-11055350D02*
X6432550Y-11093450D01*
X6457950Y-12503150D02*
X6496050Y-12541250D01*
X6496050Y-12503150D02*
X6457950Y-12541250D01*
X6457950Y-13087350D02*
X6496050Y-13125450D01*
X6496050Y-13087350D02*
X6457950Y-13125450D01*
X6584950Y-13163550D02*
X6623050Y-13201650D01*
X6623050Y-13163550D02*
X6584950Y-13201650D01*
X6711950Y-12503150D02*
X6750050Y-12541250D01*
X6750050Y-12503150D02*
X6711950Y-12541250D01*
X6711950Y-13163550D02*
X6750050Y-13201650D01*
X6750050Y-13163550D02*
X6711950Y-13201650D01*
X6965950Y-8235950D02*
X7004050Y-8274050D01*
X7004050Y-8235950D02*
X6965950Y-8274050D01*
X7346950Y-13315950D02*
X7385050Y-13354050D01*
X7385050Y-13315950D02*
X7346950Y-13354050D01*
X7550150Y-11614150D02*
X7588250Y-11652250D01*
X7588250Y-11614150D02*
X7550150Y-11652250D01*
X7600950Y-9378950D02*
X7639050Y-9417050D01*
X7639050Y-9378950D02*
X7600950Y-9417050D01*
X7600950Y-13392150D02*
X7639050Y-13430250D01*
X7639050Y-13392150D02*
X7600950Y-13430250D01*
X7651750Y-11690350D02*
X7689850Y-11728450D01*
X7689850Y-11690350D02*
X7651750Y-11728450D01*
X7727950Y-12503150D02*
X7766050Y-12541250D01*
X7766050Y-12503150D02*
X7727950Y-12541250D01*
X7727950Y-13239750D02*
X7766050Y-13277850D01*
X7766050Y-13239750D02*
X7727950Y-13277850D01*
X7753350Y-11766550D02*
X7791450Y-11804650D01*
X7791450Y-11766550D02*
X7753350Y-11804650D01*
X7804150Y-7829550D02*
X7842250Y-7867650D01*
X7842250Y-7829550D02*
X7804150Y-7867650D01*
X7804150Y-7981950D02*
X7842250Y-8020050D01*
X7842250Y-7981950D02*
X7804150Y-8020050D01*
X7804150Y-10420350D02*
X7842250Y-10458450D01*
X7842250Y-10420350D02*
X7804150Y-10458450D01*
X7804150Y-10895280D02*
X7842250Y-10933380D01*
X7842250Y-10895280D02*
X7804150Y-10933380D01*
X7880350Y-9658350D02*
X7918450Y-9696450D01*
X7918450Y-9658350D02*
X7880350Y-9696450D01*
X7981950Y-12503150D02*
X8020050Y-12541250D01*
X8020050Y-12503150D02*
X7981950Y-12541250D01*
X7981950Y-13315950D02*
X8020050Y-13354050D01*
X8020050Y-13315950D02*
X7981950Y-13354050D01*
X8108950Y-12172950D02*
X8147050Y-12211050D01*
X8147050Y-12172950D02*
X8108950Y-12211050D01*
X8185150Y-7981950D02*
X8223250Y-8020050D01*
X8223250Y-7981950D02*
X8185150Y-8020050D01*
X8185150Y-9378950D02*
X8223250Y-9417050D01*
X8223250Y-9378950D02*
X8185150Y-9417050D01*
X8235950Y-10013950D02*
X8274050Y-10052050D01*
X8274050Y-10013950D02*
X8235950Y-10052050D01*
X8286750Y-7905750D02*
X8324850Y-7943850D01*
X8324850Y-7905750D02*
X8286750Y-7943850D01*
X8286750Y-8058150D02*
X8324850Y-8096250D01*
X8324850Y-8058150D02*
X8286750Y-8096250D01*
X8286750Y-9302750D02*
X8324850Y-9340850D01*
X8324850Y-9302750D02*
X8286750Y-9340850D01*
X8286750Y-9455150D02*
X8324850Y-9493250D01*
X8324850Y-9455150D02*
X8286750Y-9493250D01*
X8439150Y-10750550D02*
X8477250Y-10788650D01*
X8477250Y-10750550D02*
X8439150Y-10788650D01*
X8515350Y-11512550D02*
X8553450Y-11550650D01*
X8553450Y-11512550D02*
X8515350Y-11550650D01*
X8515350Y-11918950D02*
X8553450Y-11957050D01*
X8553450Y-11918950D02*
X8515350Y-11957050D01*
X8540750Y-8058150D02*
X8578850Y-8096250D01*
X8578850Y-8058150D02*
X8540750Y-8096250D01*
X8540750Y-9455150D02*
X8578850Y-9493250D01*
X8578850Y-9455150D02*
X8540750Y-9493250D01*
X8540750Y-10674350D02*
X8578850Y-10712450D01*
X8578850Y-10674350D02*
X8540750Y-10712450D01*
X8540750Y-10826750D02*
X8578850Y-10864850D01*
X8578850Y-10826750D02*
X8540750Y-10864850D01*
X8540750Y-10979150D02*
X8578850Y-11017250D01*
X8578850Y-10979150D02*
X8540750Y-11017250D01*
X8540750Y-12503150D02*
X8578850Y-12541250D01*
X8578850Y-12503150D02*
X8540750Y-12541250D01*
X8642350Y-7981950D02*
X8680450Y-8020050D01*
X8680450Y-7981950D02*
X8642350Y-8020050D01*
X8642350Y-8134350D02*
X8680450Y-8172450D01*
X8680450Y-8134350D02*
X8642350Y-8172450D01*
X8667750Y-11360150D02*
X8705850Y-11398250D01*
X8705850Y-11360150D02*
X8667750Y-11398250D01*
X8667750Y-11512550D02*
X8705850Y-11550650D01*
X8705850Y-11512550D02*
X8667750Y-11550650D01*
X8667750Y-12045950D02*
X8705850Y-12084050D01*
X8705850Y-12045950D02*
X8667750Y-12084050D01*
X8667750Y-12198350D02*
X8705850Y-12236450D01*
X8705850Y-12198350D02*
X8667750Y-12236450D01*
X8743950Y-9734550D02*
X8782050Y-9772650D01*
X8782050Y-9734550D02*
X8743950Y-9772650D01*
X8794750Y-12503150D02*
X8832850Y-12541250D01*
X8832850Y-12503150D02*
X8794750Y-12541250D01*
X8870950Y-9505950D02*
X8909050Y-9544050D01*
X8909050Y-9505950D02*
X8870950Y-9544050D01*
X8997950Y-11537950D02*
X9036050Y-11576050D01*
X9036050Y-11537950D02*
X8997950Y-11576050D01*
X8997950Y-11842750D02*
X9036050Y-11880850D01*
X9036050Y-11842750D02*
X8997950Y-11880850D01*
X9099550Y-12909550D02*
X9137650Y-12947650D01*
X9137650Y-12909550D02*
X9099550Y-12947650D01*
X9251950Y-9302750D02*
X9290050Y-9340850D01*
X9290050Y-9302750D02*
X9251950Y-9340850D01*
X9251950Y-10902950D02*
X9290050Y-10941050D01*
X9290050Y-10902950D02*
X9251950Y-10941050D01*
X9251950Y-12909550D02*
X9290050Y-12947650D01*
X9290050Y-12909550D02*
X9251950Y-12947650D01*
X9378950Y-9658350D02*
X9417050Y-9696450D01*
X9417050Y-9658350D02*
X9378950Y-9696450D01*
X9378950Y-11029950D02*
X9417050Y-11068050D01*
X9417050Y-11029950D02*
X9378950Y-11068050D01*
X9505950Y-8642350D02*
X9544050Y-8680450D01*
X9544050Y-8642350D02*
X9505950Y-8680450D01*
X9607550Y-7499350D02*
X9645650Y-7537450D01*
X9645650Y-7499350D02*
X9607550Y-7537450D01*
X9785350Y-14154150D02*
X9823450Y-14192250D01*
X9823450Y-14154150D02*
X9785350Y-14192250D01*
X9785350Y-14382750D02*
X9823450Y-14420850D01*
X9823450Y-14382750D02*
X9785350Y-14420850D01*
X10013950Y-7575550D02*
X10052050Y-7613650D01*
X10052050Y-7575550D02*
X10013950Y-7613650D01*
X10090150Y-9378950D02*
X10128250Y-9417050D01*
X10128250Y-9378950D02*
X10090150Y-9417050D01*
X10090150Y-10826750D02*
X10128250Y-10864850D01*
X10128250Y-10826750D02*
X10090150Y-10864850D01*
X10090150Y-11969750D02*
X10128250Y-12007850D01*
X10128250Y-11969750D02*
X10090150Y-12007850D01*
X10090150Y-12223750D02*
X10128250Y-12261850D01*
X10128250Y-12223750D02*
X10090150Y-12261850D01*
X10166350Y-10750550D02*
X10204450Y-10788650D01*
X10204450Y-10750550D02*
X10166350Y-10788650D01*
X10242550Y-10115550D02*
X10280650Y-10153650D01*
X10280650Y-10115550D02*
X10242550Y-10153650D01*
X10267950Y-7575550D02*
X10306050Y-7613650D01*
X10306050Y-7575550D02*
X10267950Y-7613650D01*
X10267950Y-9759950D02*
X10306050Y-9798050D01*
X10306050Y-9759950D02*
X10267950Y-9798050D01*
X10267950Y-10674350D02*
X10306050Y-10712450D01*
X10306050Y-10674350D02*
X10267950Y-10712450D01*
X10598150Y-8972550D02*
X10636250Y-9010650D01*
X10636250Y-8972550D02*
X10598150Y-9010650D01*
X10598150Y-10039350D02*
X10636250Y-10077450D01*
X10636250Y-10039350D02*
X10598150Y-10077450D01*
X10979150Y-9378950D02*
X11017250Y-9417050D01*
X11017250Y-9378950D02*
X10979150Y-9417050D01*
X11029950Y-10826750D02*
X11068050Y-10864850D01*
X11068050Y-10826750D02*
X11029950Y-10864850D01*
X11029950Y-11283950D02*
X11068050Y-11322050D01*
X11068050Y-11283950D02*
X11029950Y-11322050D01*
X11055350Y-8972550D02*
X11093450Y-9010650D01*
X11093450Y-8972550D02*
X11055350Y-9010650D01*
X11080750Y-9455150D02*
X11118850Y-9493250D01*
X11118850Y-9455150D02*
X11080750Y-9493250D01*
X11080750Y-9886950D02*
X11118850Y-9925050D01*
X11118850Y-9886950D02*
X11080750Y-9925050D01*
X11080750Y-10039350D02*
X11118850Y-10077450D01*
X11118850Y-10039350D02*
X11080750Y-10077450D01*
X11106150Y-10750550D02*
X11144250Y-10788650D01*
X11144250Y-10750550D02*
X11106150Y-10788650D01*
X11106150Y-10902950D02*
X11144250Y-10941050D01*
X11144250Y-10902950D02*
X11106150Y-10941050D01*
X11156950Y-8870950D02*
X11195050Y-8909050D01*
X11195050Y-8870950D02*
X11156950Y-8909050D01*
X11156950Y-13696950D02*
X11195050Y-13735050D01*
X11195050Y-13696950D02*
X11156950Y-13735050D01*
X11309350Y-10902950D02*
X11347450Y-10941050D01*
X11347450Y-10902950D02*
X11309350Y-10941050D01*
X11334750Y-8362950D02*
X11372850Y-8401050D01*
X11372850Y-8362950D02*
X11334750Y-8401050D01*
X11334750Y-8566150D02*
X11372850Y-8604250D01*
X11372850Y-8566150D02*
X11334750Y-8604250D01*
X11334750Y-9455150D02*
X11372850Y-9493250D01*
X11372850Y-9455150D02*
X11334750Y-9493250D01*
X11334750Y-10039350D02*
X11372850Y-10077450D01*
X11372850Y-10039350D02*
X11334750Y-10077450D01*
X11385550Y-10826750D02*
X11423650Y-10864850D01*
X11423650Y-10826750D02*
X11385550Y-10864850D01*
X11410950Y-13696950D02*
X11449050Y-13735050D01*
X11449050Y-13696950D02*
X11410950Y-13735050D01*
X11436350Y-9378950D02*
X11474450Y-9417050D01*
X11474450Y-9378950D02*
X11436350Y-9417050D01*
X11487150Y-14230350D02*
X11525250Y-14268450D01*
X11525250Y-14230350D02*
X11487150Y-14268450D01*
X11537950Y-8972550D02*
X11576050Y-9010650D01*
X11576050Y-8972550D02*
X11537950Y-9010650D01*
X11639550Y-8870950D02*
X11677650Y-8909050D01*
X11677650Y-8870950D02*
X11639550Y-8909050D01*
X11664950Y-9683750D02*
X11703050Y-9721850D01*
X11703050Y-9683750D02*
X11664950Y-9721850D01*
X11664950Y-13696950D02*
X11703050Y-13735050D01*
X11703050Y-13696950D02*
X11664950Y-13735050D01*
X11791950Y-8642350D02*
X11830050Y-8680450D01*
X11830050Y-8642350D02*
X11791950Y-8680450D01*
X11791950Y-11512550D02*
X11830050Y-11550650D01*
X11830050Y-11512550D02*
X11791950Y-11550650D01*
X11893550Y-11588750D02*
X11931650Y-11626850D01*
X11931650Y-11588750D02*
X11893550Y-11626850D01*
X11918950Y-13696950D02*
X11957050Y-13735050D01*
X11957050Y-13696950D02*
X11918950Y-13735050D01*
X11993940Y-11664950D02*
X12032040Y-11703050D01*
X12032040Y-11664950D02*
X11993940Y-11703050D01*
X12045950Y-6686550D02*
X12084050Y-6724650D01*
X12084050Y-6686550D02*
X12045950Y-6724650D01*
X12045950Y-7550150D02*
X12084050Y-7588250D01*
X12084050Y-7550150D02*
X12045950Y-7588250D01*
X12045950Y-8007350D02*
X12084050Y-8045450D01*
X12084050Y-8007350D02*
X12045950Y-8045450D01*
X12071350Y-10242550D02*
X12109450Y-10280650D01*
X12109450Y-10242550D02*
X12071350Y-10280650D01*
X12172950Y-9607550D02*
X12211050Y-9645650D01*
X12211050Y-9607550D02*
X12172950Y-9645650D01*
X12172950Y-13696950D02*
X12211050Y-13735050D01*
X12211050Y-13696950D02*
X12172950Y-13735050D01*
X12426950Y-9683750D02*
X12465050Y-9721850D01*
X12465050Y-9683750D02*
X12426950Y-9721850D01*
X12426950Y-13696950D02*
X12465050Y-13735050D01*
X12465050Y-13696950D02*
X12426950Y-13735050D01*
X12452350Y-10852150D02*
X12490450Y-10890250D01*
X12490450Y-10852150D02*
X12452350Y-10890250D01*
X12655550Y-10852150D02*
X12693650Y-10890250D01*
X12693650Y-10852150D02*
X12655550Y-10890250D01*
X12680950Y-13696950D02*
X12719050Y-13735050D01*
X12719050Y-13696950D02*
X12680950Y-13735050D01*
X12795250Y-11423650D02*
X12833350Y-11461750D01*
X12833350Y-11423650D02*
X12795250Y-11461750D01*
X12934950Y-9683750D02*
X12973050Y-9721850D01*
X12973050Y-9683750D02*
X12934950Y-9721850D01*
X12934950Y-13696950D02*
X12973050Y-13735050D01*
X12973050Y-13696950D02*
X12934950Y-13735050D01*
X13188950Y-12299950D02*
X13227050Y-12338050D01*
X13227050Y-12299950D02*
X13188950Y-12338050D01*
X13315950Y-8769350D02*
X13354050Y-8807450D01*
X13354050Y-8769350D02*
X13315950Y-8807450D01*
X13517847Y-8745905D02*
X13555947Y-8784005D01*
X13555947Y-8745905D02*
X13517847Y-8784005D01*
X13544550Y-8642350D02*
X13582650Y-8680450D01*
X13582650Y-8642350D02*
X13544550Y-8680450D01*
X13544550Y-10521950D02*
X13582650Y-10560050D01*
X13582650Y-10521950D02*
X13544550Y-10560050D01*
X13544550Y-10674350D02*
X13582650Y-10712450D01*
X13582650Y-10674350D02*
X13544550Y-10712450D01*
X13671550Y-8566150D02*
X13709650Y-8604250D01*
X13709650Y-8566150D02*
X13671550Y-8604250D01*
X13747750Y-9099550D02*
X13785850Y-9137650D01*
X13785850Y-9099550D02*
X13747750Y-9137650D01*
X13747750Y-9886950D02*
X13785850Y-9925050D01*
X13785850Y-9886950D02*
X13747750Y-9925050D01*
X13747750Y-10115550D02*
X13785850Y-10153650D01*
X13785850Y-10115550D02*
X13747750Y-10153650D01*
X13747750Y-10496550D02*
X13785850Y-10534650D01*
X13785850Y-10496550D02*
X13747750Y-10534650D01*
X13747750Y-10801350D02*
X13785850Y-10839450D01*
X13785850Y-10801350D02*
X13747750Y-10839450D01*
X13747750Y-11487150D02*
X13785850Y-11525250D01*
X13785850Y-11487150D02*
X13747750Y-11525250D01*
X13747750Y-11741150D02*
X13785850Y-11779250D01*
X13785850Y-11741150D02*
X13747750Y-11779250D01*
X13747750Y-11969750D02*
X13785850Y-12007850D01*
X13785850Y-11969750D02*
X13747750Y-12007850D01*
X13747750Y-12325350D02*
X13785850Y-12363450D01*
X13785850Y-12325350D02*
X13747750Y-12363450D01*
X13874750Y-8972550D02*
X13912850Y-9010650D01*
X13912850Y-8972550D02*
X13874750Y-9010650D01*
X13925550Y-9886950D02*
X13963650Y-9925050D01*
X13963650Y-9886950D02*
X13925550Y-9925050D01*
X13925550Y-10115550D02*
X13963650Y-10153650D01*
X13963650Y-10115550D02*
X13925550Y-10153650D01*
X13925550Y-10496550D02*
X13963650Y-10534650D01*
X13963650Y-10496550D02*
X13925550Y-10534650D01*
X13925550Y-10801350D02*
X13963650Y-10839450D01*
X13963650Y-10801350D02*
X13925550Y-10839450D01*
X13925550Y-11487150D02*
X13963650Y-11525250D01*
X13963650Y-11487150D02*
X13925550Y-11525250D01*
X13925550Y-11741150D02*
X13963650Y-11779250D01*
X13963650Y-11741150D02*
X13925550Y-11779250D01*
X13925550Y-11969750D02*
X13963650Y-12007850D01*
X13963650Y-11969750D02*
X13925550Y-12007850D01*
X13925550Y-12325350D02*
X13963650Y-12363450D01*
X13963650Y-12325350D02*
X13925550Y-12363450D01*
X13976350Y-8870950D02*
X14014450Y-8909050D01*
X14014450Y-8870950D02*
X13976350Y-8909050D01*
X14027150Y-9251950D02*
X14065250Y-9290050D01*
X14065250Y-9251950D02*
X14027150Y-9290050D01*
X14230350Y-12909550D02*
X14268450Y-12947650D01*
X14268450Y-12909550D02*
X14230350Y-12947650D01*
X14357350Y-10674350D02*
X14395450Y-10712450D01*
X14395450Y-10674350D02*
X14357350Y-10712450D01*
X14408150Y-8870950D02*
X14446250Y-8909050D01*
X14446250Y-8870950D02*
X14408150Y-8909050D01*
X14408150Y-9404350D02*
X14446250Y-9442450D01*
X14446250Y-9404350D02*
X14408150Y-9442450D01*
X14408150Y-10191750D02*
X14446250Y-10229850D01*
X14446250Y-10191750D02*
X14408150Y-10229850D01*
X14408150Y-10293350D02*
X14446250Y-10331450D01*
X14446250Y-10293350D02*
X14408150Y-10331450D01*
X14408150Y-11563350D02*
X14446250Y-11601450D01*
X14446250Y-11563350D02*
X14408150Y-11601450D01*
X14408150Y-11664950D02*
X14446250Y-11703050D01*
X14446250Y-11664950D02*
X14408150Y-11703050D01*
X14458950Y-12909550D02*
X14497050Y-12947650D01*
X14497050Y-12909550D02*
X14458950Y-12947650D01*
X14458950Y-14306550D02*
X14497050Y-14344650D01*
X14497050Y-14306550D02*
X14458950Y-14344650D01*
X14611350Y-8870950D02*
X14649450Y-8909050D01*
X14649450Y-8870950D02*
X14611350Y-8909050D01*
X14611350Y-11563350D02*
X14649450Y-11601450D01*
X14649450Y-11563350D02*
X14611350Y-11601450D01*
X14611350Y-11664950D02*
X14649450Y-11703050D01*
X14649450Y-11664950D02*
X14611350Y-11703050D01*
X14636750Y-9404350D02*
X14674850Y-9442450D01*
X14674850Y-9404350D02*
X14636750Y-9442450D01*
X14636750Y-10674350D02*
X14674850Y-10712450D01*
X14674850Y-10674350D02*
X14636750Y-10712450D01*
X14712950Y-12299950D02*
X14751050Y-12338050D01*
X14751050Y-12299950D02*
X14712950Y-12338050D01*
X14839950Y-9328150D02*
X14878050Y-9366250D01*
X14878050Y-9328150D02*
X14839950Y-9366250D01*
X14839950Y-9505950D02*
X14878050Y-9544050D01*
X14878050Y-9505950D02*
X14839950Y-9544050D01*
X14839950Y-12096750D02*
X14878050Y-12134850D01*
X14878050Y-12096750D02*
X14839950Y-12134850D01*
X15093950Y-11690350D02*
X15132050Y-11728450D01*
X15132050Y-11690350D02*
X15093950Y-11728450D01*
X15093950Y-12299950D02*
X15132050Y-12338050D01*
X15132050Y-12299950D02*
X15093950Y-12338050D01*
X15271750Y-10979150D02*
X15309850Y-11017250D01*
X15309850Y-10979150D02*
X15271750Y-11017250D01*
X15728950Y-11614150D02*
X15767050Y-11652250D01*
X15767050Y-11614150D02*
X15728950Y-11652250D01*
X15830550Y-14662150D02*
X15868650Y-14700250D01*
X15868650Y-14662150D02*
X15830550Y-14700250D01*
X15855950Y-12299950D02*
X15894050Y-12338050D01*
X15894050Y-12299950D02*
X15855950Y-12338050D01*
X16084550Y-14662150D02*
X16122650Y-14700250D01*
X16122650Y-14662150D02*
X16084550Y-14700250D01*
X16186150Y-11131550D02*
X16224250Y-11169650D01*
X16224250Y-11131550D02*
X16186150Y-11169650D01*
X16262350Y-14357350D02*
X16300450Y-14395450D01*
X16300450Y-14357350D02*
X16262350Y-14395450D01*
X16287750Y-11055350D02*
X16325850Y-11093450D01*
X16325850Y-11055350D02*
X16287750Y-11093450D01*
X16567150Y-11207750D02*
X16605250Y-11245850D01*
X16605250Y-11207750D02*
X16567150Y-11245850D01*
X16617950Y-9988550D02*
X16656050Y-10026650D01*
X16656050Y-9988550D02*
X16617950Y-10026650D01*
X16617950Y-10394950D02*
X16656050Y-10433050D01*
X16656050Y-10394950D02*
X16617950Y-10433050D01*
X16719550Y-9988550D02*
X16757650Y-10026650D01*
X16757650Y-9988550D02*
X16719550Y-10026650D01*
X16719550Y-10242550D02*
X16757650Y-10280650D01*
X16757650Y-10242550D02*
X16719550Y-10280650D01*
X16744950Y-7854950D02*
X16783050Y-7893050D01*
X16783050Y-7854950D02*
X16744950Y-7893050D01*
X16744950Y-12858750D02*
X16783050Y-12896850D01*
X16783050Y-12858750D02*
X16744950Y-12896850D01*
X16821150Y-9988550D02*
X16859250Y-10026650D01*
X16859250Y-9988550D02*
X16821150Y-10026650D01*
X16821150Y-10394950D02*
X16859250Y-10433050D01*
X16859250Y-10394950D02*
X16821150Y-10433050D01*
X16821150Y-10928350D02*
X16859250Y-10966450D01*
X16859250Y-10928350D02*
X16821150Y-10966450D01*
X16821150Y-11309350D02*
X16859250Y-11347450D01*
X16859250Y-11309350D02*
X16821150Y-11347450D01*
X16821150Y-11969750D02*
X16859250Y-12007850D01*
X16859250Y-11969750D02*
X16821150Y-12007850D01*
X16821150Y-12299950D02*
X16859250Y-12338050D01*
X16859250Y-12299950D02*
X16821150Y-12338050D01*
X17354550Y-9480550D02*
X17392650Y-9518650D01*
X17392650Y-9480550D02*
X17354550Y-9518650D01*
X17354550Y-10801350D02*
X17392650Y-10839450D01*
X17392650Y-10801350D02*
X17354550Y-10839450D01*
X17405350Y-8896350D02*
X17443450Y-8934450D01*
X17443450Y-8896350D02*
X17405350Y-8934450D01*
X17430750Y-9404350D02*
X17468850Y-9442450D01*
X17468850Y-9404350D02*
X17430750Y-9442450D01*
X17430750Y-10242550D02*
X17468850Y-10280650D01*
X17468850Y-10242550D02*
X17430750Y-10280650D01*
X17430750Y-10877550D02*
X17468850Y-10915650D01*
X17468850Y-10877550D02*
X17430750Y-10915650D01*
X17456150Y-11614150D02*
X17494250Y-11652250D01*
X17494250Y-11614150D02*
X17456150Y-11652250D01*
X17684750Y-9404350D02*
X17722850Y-9442450D01*
X17722850Y-9404350D02*
X17684750Y-9442450D01*
X17684750Y-10242550D02*
X17722850Y-10280650D01*
X17722850Y-10242550D02*
X17684750Y-10280650D01*
X17684750Y-10877550D02*
X17722850Y-10915650D01*
X17722850Y-10877550D02*
X17684750Y-10915650D01*
X17760950Y-9480550D02*
X17799050Y-9518650D01*
X17799050Y-9480550D02*
X17760950Y-9518650D01*
X17760950Y-10801350D02*
X17799050Y-10839450D01*
X17799050Y-10801350D02*
X17760950Y-10839450D01*
X17887950Y-12934950D02*
X17926050Y-12973050D01*
X17926050Y-12934950D02*
X17887950Y-12973050D01*
X17887950Y-13087350D02*
X17926050Y-13125450D01*
X17926050Y-13087350D02*
X17887950Y-13125450D01*
X17938750Y-6813550D02*
X17976850Y-6851650D01*
X17976850Y-6813550D02*
X17938750Y-6851650D01*
X18014950Y-5518150D02*
X18053050Y-5556250D01*
X18053050Y-5518150D02*
X18014950Y-5556250D01*
X18014950Y-5695950D02*
X18053050Y-5734050D01*
X18053050Y-5695950D02*
X18014950Y-5734050D01*
X18040350Y-11614150D02*
X18078450Y-11652250D01*
X18078450Y-11614150D02*
X18040350Y-11652250D01*
X18091150Y-9734550D02*
X18129250Y-9772650D01*
X18129250Y-9734550D02*
X18091150Y-9772650D01*
X18192750Y-9658350D02*
X18230850Y-9696450D01*
X18230850Y-9658350D02*
X18192750Y-9696450D01*
X18268950Y-12934950D02*
X18307050Y-12973050D01*
X18307050Y-12934950D02*
X18268950Y-12973050D01*
X18268950Y-13620750D02*
X18307050Y-13658850D01*
X18307050Y-13620750D02*
X18268950Y-13658850D01*
X18395950Y-9328150D02*
X18434050Y-9366250D01*
X18434050Y-9328150D02*
X18395950Y-9366250D01*
X18395950Y-10013950D02*
X18434050Y-10052050D01*
X18434050Y-10013950D02*
X18395950Y-10052050D01*
X18395950Y-10217150D02*
X18434050Y-10255250D01*
X18434050Y-10217150D02*
X18395950Y-10255250D01*
X18395950Y-12934950D02*
X18434050Y-12973050D01*
X18434050Y-12934950D02*
X18395950Y-12973050D01*
X18395950Y-13163550D02*
X18434050Y-13201650D01*
X18434050Y-13163550D02*
X18395950Y-13201650D01*
X18472150Y-6584950D02*
X18510250Y-6623050D01*
X18510250Y-6584950D02*
X18472150Y-6623050D01*
X18522950Y-12934950D02*
X18561050Y-12973050D01*
X18561050Y-12934950D02*
X18522950Y-12973050D01*
X18522950Y-13544550D02*
X18561050Y-13582650D01*
X18561050Y-13544550D02*
X18522950Y-13582650D01*
X18624550Y-6583950D02*
X18662650Y-6622050D01*
X18662650Y-6583950D02*
X18624550Y-6622050D01*
X18649950Y-6330950D02*
X18688050Y-6369050D01*
X18688050Y-6330950D02*
X18649950Y-6369050D01*
X18649950Y-7346950D02*
X18688050Y-7385050D01*
X18688050Y-7346950D02*
X18649950Y-7385050D01*
X18649950Y-10344150D02*
X18688050Y-10382250D01*
X18688050Y-10344150D02*
X18649950Y-10382250D01*
X18649950Y-10979150D02*
X18688050Y-11017250D01*
X18688050Y-10979150D02*
X18649950Y-11017250D01*
X18903950Y-6330950D02*
X18942050Y-6369050D01*
X18942050Y-6330950D02*
X18903950Y-6369050D01*
X18903950Y-6813550D02*
X18942050Y-6851650D01*
X18942050Y-6813550D02*
X18903950Y-6851650D01*
X18903950Y-7346950D02*
X18942050Y-7385050D01*
X18942050Y-7346950D02*
X18903950Y-7385050D01*
X18929350Y-8134350D02*
X18967450Y-8172450D01*
X18967450Y-8134350D02*
X18929350Y-8172450D01*
X18929350Y-8769350D02*
X18967450Y-8807450D01*
X18967450Y-8769350D02*
X18929350Y-8807450D01*
X18929350Y-9658350D02*
X18967450Y-9696450D01*
X18967450Y-9658350D02*
X18929350Y-9696450D01*
X19132550Y-8337550D02*
X19170650Y-8375650D01*
X19170650Y-8337550D02*
X19132550Y-8375650D01*
X19132550Y-8769350D02*
X19170650Y-8807450D01*
X19170650Y-8769350D02*
X19132550Y-8807450D01*
X19157950Y-9734550D02*
X19196050Y-9772650D01*
X19196050Y-9734550D02*
X19157950Y-9772650D01*
X19157950Y-12934950D02*
X19196050Y-12973050D01*
X19196050Y-12934950D02*
X19157950Y-12973050D01*
X19157950Y-13239750D02*
X19196050Y-13277850D01*
X19196050Y-13239750D02*
X19157950Y-13277850D01*
X19284950Y-12934950D02*
X19323050Y-12973050D01*
X19323050Y-12934950D02*
X19284950Y-12973050D01*
X19284950Y-13468350D02*
X19323050Y-13506450D01*
X19323050Y-13468350D02*
X19284950Y-13506450D01*
X19411950Y-12934950D02*
X19450050Y-12973050D01*
X19450050Y-12934950D02*
X19411950Y-12973050D01*
X19411950Y-13315950D02*
X19450050Y-13354050D01*
X19450050Y-13315950D02*
X19411950Y-13354050D01*
X19462750Y-8972550D02*
X19500850Y-9010650D01*
X19500850Y-8972550D02*
X19462750Y-9010650D01*
X19488150Y-9963150D02*
X19526250Y-10001250D01*
X19526250Y-9963150D02*
X19488150Y-10001250D01*
X19488150Y-10267950D02*
X19526250Y-10306050D01*
X19526250Y-10267950D02*
X19488150Y-10306050D01*
X19513550Y-9429750D02*
X19551650Y-9467850D01*
X19551650Y-9429750D02*
X19513550Y-9467850D01*
X19538950Y-12934950D02*
X19577050Y-12973050D01*
X19577050Y-12934950D02*
X19538950Y-12973050D01*
X19538950Y-13392150D02*
X19577050Y-13430250D01*
X19577050Y-13392150D02*
X19538950Y-13430250D01*
X19589750Y-9505950D02*
X19627850Y-9544050D01*
X19627850Y-9505950D02*
X19589750Y-9544050D01*
X19640550Y-8667750D02*
X19678650Y-8705850D01*
X19678650Y-8667750D02*
X19640550Y-8705850D01*
X19767550Y-10445750D02*
X19805650Y-10483850D01*
X19805650Y-10445750D02*
X19767550Y-10483850D01*
X19767550Y-10750550D02*
X19805650Y-10788650D01*
X19805650Y-10750550D02*
X19767550Y-10788650D01*
X19792950Y-10064750D02*
X19831050Y-10102850D01*
X19831050Y-10064750D02*
X19792950Y-10102850D01*
X19792950Y-11664950D02*
X19831050Y-11703050D01*
X19831050Y-11664950D02*
X19792950Y-11703050D01*
X19792950Y-12172950D02*
X19831050Y-12211050D01*
X19831050Y-12172950D02*
X19792950Y-12211050D01*
X19869150Y-10445750D02*
X19907250Y-10483850D01*
X19907250Y-10445750D02*
X19869150Y-10483850D01*
X19869150Y-10902950D02*
X19907250Y-10941050D01*
X19907250Y-10902950D02*
X19869150Y-10941050D01*
X19894550Y-10140950D02*
X19932650Y-10179050D01*
X19932650Y-10140950D02*
X19894550Y-10179050D01*
X19919950Y-9353550D02*
X19958050Y-9391650D01*
X19958050Y-9353550D02*
X19919950Y-9391650D01*
X19919950Y-12096750D02*
X19958050Y-12134850D01*
X19958050Y-12096750D02*
X19919950Y-12134850D01*
X19996150Y-9277350D02*
X20034250Y-9315450D01*
X20034250Y-9277350D02*
X19996150Y-9315450D01*
X20199350Y-9480550D02*
X20237450Y-9518650D01*
X20237450Y-9480550D02*
X20199350Y-9518650D01*
X20199350Y-9632950D02*
X20237450Y-9671050D01*
X20237450Y-9632950D02*
X20199350Y-9671050D01*
X20224750Y-8896350D02*
X20262850Y-8934450D01*
X20262850Y-8896350D02*
X20224750Y-8934450D01*
X20224750Y-10140950D02*
X20262850Y-10179050D01*
X20262850Y-10140950D02*
X20224750Y-10179050D01*
X20275550Y-9404350D02*
X20313650Y-9442450D01*
X20313650Y-9404350D02*
X20275550Y-9442450D01*
X20275550Y-9556750D02*
X20313650Y-9594850D01*
X20313650Y-9556750D02*
X20275550Y-9594850D01*
X20326350Y-10826750D02*
X20364450Y-10864850D01*
X20364450Y-10826750D02*
X20326350Y-10864850D01*
X20351750Y-10674350D02*
X20389850Y-10712450D01*
X20389850Y-10674350D02*
X20351750Y-10712450D01*
X20402550Y-11131550D02*
X20440650Y-11169650D01*
X20440650Y-11131550D02*
X20402550Y-11169650D01*
X20427950Y-12934950D02*
X20466050Y-12973050D01*
X20466050Y-12934950D02*
X20427950Y-12973050D01*
X20427950Y-14662150D02*
X20466050Y-14700250D01*
X20466050Y-14662150D02*
X20427950Y-14700250D01*
X20478750Y-10140950D02*
X20516850Y-10179050D01*
X20516850Y-10140950D02*
X20478750Y-10179050D01*
X20554950Y-13087350D02*
X20593050Y-13125450D01*
X20593050Y-13087350D02*
X20554950Y-13125450D01*
X20808950Y-11918950D02*
X20847050Y-11957050D01*
X20847050Y-11918950D02*
X20808950Y-11957050D01*
X20808950Y-13163550D02*
X20847050Y-13201650D01*
X20847050Y-13163550D02*
X20808950Y-13201650D01*
X20986750Y-7296150D02*
X21024850Y-7334250D01*
X21024850Y-7296150D02*
X20986750Y-7334250D01*
X20986750Y-7727950D02*
X21024850Y-7766050D01*
X21024850Y-7727950D02*
X20986750Y-7766050D01*
X21062950Y-11461750D02*
X21101050Y-11499850D01*
X21101050Y-11461750D02*
X21062950Y-11499850D01*
X21062950Y-13239750D02*
X21101050Y-13277850D01*
X21101050Y-13239750D02*
X21062950Y-13277850D01*
X21113750Y-7397750D02*
X21151850Y-7435850D01*
X21151850Y-7397750D02*
X21113750Y-7435850D01*
X21113750Y-7727950D02*
X21151850Y-7766050D01*
X21151850Y-7727950D02*
X21113750Y-7766050D01*
X21189950Y-9277350D02*
X21228050Y-9315450D01*
X21228050Y-9277350D02*
X21189950Y-9315450D01*
X21189950Y-9683750D02*
X21228050Y-9721850D01*
X21228050Y-9683750D02*
X21189950Y-9721850D01*
X21316950Y-13315950D02*
X21355050Y-13354050D01*
X21355050Y-13315950D02*
X21316950Y-13354050D01*
X21570950Y-10140950D02*
X21609050Y-10179050D01*
X21609050Y-10140950D02*
X21570950Y-10179050D01*
X21570950Y-13392150D02*
X21609050Y-13430250D01*
X21609050Y-13392150D02*
X21570950Y-13430250D01*
X21697950Y-10369550D02*
X21736050Y-10407650D01*
X21736050Y-10369550D02*
X21697950Y-10407650D01*
X21748750Y-12249150D02*
X21786850Y-12287250D01*
X21786850Y-12249150D02*
X21748750Y-12287250D01*
X21824950Y-13468350D02*
X21863050Y-13506450D01*
X21863050Y-13468350D02*
X21824950Y-13506450D01*
X21951950Y-11131550D02*
X21990050Y-11169650D01*
X21990050Y-11131550D02*
X21951950Y-11169650D01*
X22028150Y-10826750D02*
X22066250Y-10864850D01*
X22066250Y-10826750D02*
X22028150Y-10864850D01*
X22078950Y-9556750D02*
X22117050Y-9594850D01*
X22117050Y-9556750D02*
X22078950Y-9594850D01*
X22078950Y-13544550D02*
X22117050Y-13582650D01*
X22117050Y-13544550D02*
X22078950Y-13582650D01*
X22104350Y-10750550D02*
X22142450Y-10788650D01*
X22142450Y-10750550D02*
X22104350Y-10788650D01*
X22155150Y-9328150D02*
X22193250Y-9366250D01*
X22193250Y-9328150D02*
X22155150Y-9366250D01*
X22180550Y-10674350D02*
X22218650Y-10712450D01*
X22218650Y-10674350D02*
X22180550Y-10712450D01*
X22205950Y-8972550D02*
X22244050Y-9010650D01*
X22244050Y-8972550D02*
X22205950Y-9010650D01*
X22205950Y-10140950D02*
X22244050Y-10179050D01*
X22244050Y-10140950D02*
X22205950Y-10179050D01*
X22307550Y-9683750D02*
X22345650Y-9721850D01*
X22345650Y-9683750D02*
X22307550Y-9721850D01*
X22332950Y-13620750D02*
X22371050Y-13658850D01*
X22371050Y-13620750D02*
X22332950Y-13658850D01*
X22358350Y-10369550D02*
X22396450Y-10407650D01*
X22396450Y-10369550D02*
X22358350Y-10407650D01*
X22383750Y-10039350D02*
X22421850Y-10077450D01*
X22421850Y-10039350D02*
X22383750Y-10077450D01*
X22434550Y-9759950D02*
X22472650Y-9798050D01*
X22472650Y-9759950D02*
X22434550Y-9798050D01*
X22459950Y-7956550D02*
X22498050Y-7994650D01*
X22498050Y-7956550D02*
X22459950Y-7994650D01*
X22459950Y-8286750D02*
X22498050Y-8324850D01*
X22498050Y-8286750D02*
X22459950Y-8324850D01*
X22586950Y-13696950D02*
X22625050Y-13735050D01*
X22625050Y-13696950D02*
X22586950Y-13735050D01*
X22612350Y-8820150D02*
X22650450Y-8858250D01*
X22650450Y-8820150D02*
X22612350Y-8858250D01*
X22688550Y-8743950D02*
X22726650Y-8782050D01*
X22726650Y-8743950D02*
X22688550Y-8782050D01*
X22688550Y-8896350D02*
X22726650Y-8934450D01*
X22726650Y-8896350D02*
X22688550Y-8934450D01*
X22713950Y-8108950D02*
X22752050Y-8147050D01*
X22752050Y-8108950D02*
X22713950Y-8147050D01*
X22713950Y-9404350D02*
X22752050Y-9442450D01*
X22752050Y-9404350D02*
X22713950Y-9442450D01*
X22713950Y-10217150D02*
X22752050Y-10255250D01*
X22752050Y-10217150D02*
X22713950Y-10255250D01*
X22713950Y-10801350D02*
X22752050Y-10839450D01*
X22752050Y-10801350D02*
X22713950Y-10839450D01*
X22739350Y-11283950D02*
X22777450Y-11322050D01*
X22777450Y-11283950D02*
X22739350Y-11322050D01*
X22790150Y-8032750D02*
X22828250Y-8070850D01*
X22828250Y-8032750D02*
X22790150Y-8070850D01*
X22790150Y-8185150D02*
X22828250Y-8223250D01*
X22828250Y-8185150D02*
X22790150Y-8223250D01*
X22790150Y-9328150D02*
X22828250Y-9366250D01*
X22828250Y-9328150D02*
X22790150Y-9366250D01*
X22790150Y-9886950D02*
X22828250Y-9925050D01*
X22828250Y-9886950D02*
X22790150Y-9925050D01*
X22790150Y-10293350D02*
X22828250Y-10331450D01*
X22828250Y-10293350D02*
X22790150Y-10331450D01*
X22790150Y-10877550D02*
X22828250Y-10915650D01*
X22828250Y-10877550D02*
X22790150Y-10915650D01*
X22797820Y-10140950D02*
X22835920Y-10179050D01*
X22835920Y-10140950D02*
X22797820Y-10179050D01*
X22840950Y-13620750D02*
X22879050Y-13658850D01*
X22879050Y-13620750D02*
X22840950Y-13658850D01*
X22840950Y-13773150D02*
X22879050Y-13811250D01*
X22879050Y-13773150D02*
X22840950Y-13811250D01*
X22967950Y-14230350D02*
X23006050Y-14268450D01*
X23006050Y-14230350D02*
X22967950Y-14268450D01*
X22993350Y-8032750D02*
X23031450Y-8070850D01*
X23031450Y-8032750D02*
X22993350Y-8070850D01*
X22993350Y-8185150D02*
X23031450Y-8223250D01*
X23031450Y-8185150D02*
X22993350Y-8223250D01*
X22993350Y-8743950D02*
X23031450Y-8782050D01*
X23031450Y-8743950D02*
X22993350Y-8782050D01*
X22993350Y-8896350D02*
X23031450Y-8934450D01*
X23031450Y-8896350D02*
X22993350Y-8934450D01*
X22993350Y-10140950D02*
X23031450Y-10179050D01*
X23031450Y-10140950D02*
X22993350Y-10179050D01*
X22993350Y-10293350D02*
X23031450Y-10331450D01*
X23031450Y-10293350D02*
X22993350Y-10331450D01*
X22993350Y-10877550D02*
X23031450Y-10915650D01*
X23031450Y-10877550D02*
X22993350Y-10915650D01*
X23069550Y-8108950D02*
X23107650Y-8147050D01*
X23107650Y-8108950D02*
X23069550Y-8147050D01*
X23069550Y-8820150D02*
X23107650Y-8858250D01*
X23107650Y-8820150D02*
X23069550Y-8858250D01*
X23069550Y-10217150D02*
X23107650Y-10255250D01*
X23107650Y-10217150D02*
X23069550Y-10255250D01*
X23069550Y-10801350D02*
X23107650Y-10839450D01*
X23107650Y-10801350D02*
X23069550Y-10839450D01*
X23094950Y-13620750D02*
X23133050Y-13658850D01*
X23133050Y-13620750D02*
X23094950Y-13658850D01*
X23094950Y-13849350D02*
X23133050Y-13887450D01*
X23133050Y-13849350D02*
X23094950Y-13887450D01*
X23221950Y-8337550D02*
X23260050Y-8375650D01*
X23260050Y-8337550D02*
X23221950Y-8375650D01*
X23221950Y-8642350D02*
X23260050Y-8680450D01*
X23260050Y-8642350D02*
X23221950Y-8680450D01*
X23221950Y-9709150D02*
X23260050Y-9747250D01*
X23260050Y-9709150D02*
X23221950Y-9747250D01*
X23221950Y-14154150D02*
X23260050Y-14192250D01*
X23260050Y-14154150D02*
X23221950Y-14192250D01*
X23323550Y-8108950D02*
X23361650Y-8147050D01*
X23361650Y-8108950D02*
X23323550Y-8147050D01*
X23348950Y-9531350D02*
X23387050Y-9569450D01*
X23387050Y-9531350D02*
X23348950Y-9569450D01*
X23348950Y-13620750D02*
X23387050Y-13658850D01*
X23387050Y-13620750D02*
X23348950Y-13658850D01*
X23348950Y-13925550D02*
X23387050Y-13963650D01*
X23387050Y-13925550D02*
X23348950Y-13963650D01*
X23475950Y-8642350D02*
X23514050Y-8680450D01*
X23514050Y-8642350D02*
X23475950Y-8680450D01*
X23475950Y-14077950D02*
X23514050Y-14116050D01*
X23514050Y-14077950D02*
X23475950Y-14116050D01*
X23602950Y-9404350D02*
X23641050Y-9442450D01*
X23641050Y-9404350D02*
X23602950Y-9442450D01*
X23602950Y-13620750D02*
X23641050Y-13658850D01*
X23641050Y-13620750D02*
X23602950Y-13658850D01*
X23602950Y-14001750D02*
X23641050Y-14039850D01*
X23641050Y-14001750D02*
X23602950Y-14039850D01*
X23729950Y-11131550D02*
X23768050Y-11169650D01*
X23768050Y-11131550D02*
X23729950Y-11169650D01*
X23856950Y-7321550D02*
X23895050Y-7359650D01*
X23895050Y-7321550D02*
X23856950Y-7359650D01*
X23856950Y-9455150D02*
X23895050Y-9493250D01*
X23895050Y-9455150D02*
X23856950Y-9493250D01*
X23856950Y-13620750D02*
X23895050Y-13658850D01*
X23895050Y-13620750D02*
X23856950Y-13658850D01*
X23856950Y-13925550D02*
X23895050Y-13963650D01*
X23895050Y-13925550D02*
X23856950Y-13963650D01*
X23856950Y-14077950D02*
X23895050Y-14116050D01*
X23895050Y-14077950D02*
X23856950Y-14116050D01*
X23882350Y-11512550D02*
X23920450Y-11550650D01*
X23920450Y-11512550D02*
X23882350Y-11550650D01*
X23983950Y-11055350D02*
X24022050Y-11093450D01*
X24022050Y-11055350D02*
X23983950Y-11093450D01*
X24060150Y-9328150D02*
X24098250Y-9366250D01*
X24098250Y-9328150D02*
X24060150Y-9366250D01*
X24110950Y-10725150D02*
X24149050Y-10763250D01*
X24149050Y-10725150D02*
X24110950Y-10763250D01*
X24110950Y-13620750D02*
X24149050Y-13658850D01*
X24149050Y-13620750D02*
X24110950Y-13658850D01*
X24110950Y-13849350D02*
X24149050Y-13887450D01*
X24149050Y-13849350D02*
X24110950Y-13887450D01*
X24110950Y-14154150D02*
X24149050Y-14192250D01*
X24149050Y-14154150D02*
X24110950Y-14192250D01*
X24237950Y-8820150D02*
X24276050Y-8858250D01*
X24276050Y-8820150D02*
X24237950Y-8858250D01*
X24237950Y-9251950D02*
X24276050Y-9290050D01*
X24276050Y-9251950D02*
X24237950Y-9290050D01*
X24314150Y-10725150D02*
X24352250Y-10763250D01*
X24352250Y-10725150D02*
X24314150Y-10763250D01*
X24364950Y-13620750D02*
X24403050Y-13658850D01*
X24403050Y-13620750D02*
X24364950Y-13658850D01*
X24364950Y-13773150D02*
X24403050Y-13811250D01*
X24403050Y-13773150D02*
X24364950Y-13811250D01*
X24491950Y-6838950D02*
X24530050Y-6877050D01*
X24530050Y-6838950D02*
X24491950Y-6877050D01*
X24491950Y-7092950D02*
X24530050Y-7131050D01*
X24530050Y-7092950D02*
X24491950Y-7131050D01*
X24491950Y-7575550D02*
X24530050Y-7613650D01*
X24530050Y-7575550D02*
X24491950Y-7613650D01*
X24618950Y-11055350D02*
X24657050Y-11093450D01*
X24657050Y-11055350D02*
X24618950Y-11093450D01*
X24745950Y-7575550D02*
X24784050Y-7613650D01*
X24784050Y-7575550D02*
X24745950Y-7613650D01*
X24745950Y-11131550D02*
X24784050Y-11169650D01*
X24784050Y-11131550D02*
X24745950Y-11169650D01*
X24872950Y-6762750D02*
X24911050Y-6800850D01*
X24911050Y-6762750D02*
X24872950Y-6800850D01*
X24898350Y-7956550D02*
X24936450Y-7994650D01*
X24936450Y-7956550D02*
X24898350Y-7994650D01*
X25076150Y-9378950D02*
X25114250Y-9417050D01*
X25114250Y-9378950D02*
X25076150Y-9417050D01*
X25203150Y-9505950D02*
X25241250Y-9544050D01*
X25241250Y-9505950D02*
X25203150Y-9544050D01*
D13*
X5374000Y-7747000D02*
G75*
G03*
X5374000Y-7747000I-40000J0D01*
G01*
X5374000Y-8247000D02*
G75*
G03*
X5374000Y-8247000I-40000J0D01*
G01*
X5374000Y-9144000D02*
G75*
G03*
X5374000Y-9144000I-40000J0D01*
G01*
X5374000Y-9644000D02*
G75*
G03*
X5374000Y-9644000I-40000J0D01*
G01*
X5374000Y-10541000D02*
G75*
G03*
X5374000Y-10541000I-40000J0D01*
G01*
X5374000Y-11041000D02*
G75*
G03*
X5374000Y-11041000I-40000J0D01*
G01*
X5374000Y-11938000D02*
G75*
G03*
X5374000Y-11938000I-40000J0D01*
G01*
X5374000Y-12438000D02*
G75*
G03*
X5374000Y-12438000I-40000J0D01*
G01*
X5678800Y-13436600D02*
G75*
G03*
X5678800Y-13436600I-40000J0D01*
G01*
X5678800Y-13686600D02*
G75*
G03*
X5678800Y-13686600I-40000J0D01*
G01*
X5882000Y-7747000D02*
G75*
G03*
X5882000Y-7747000I-40000J0D01*
G01*
X5882000Y-8509000D02*
G75*
G03*
X5882000Y-8509000I-40000J0D01*
G01*
X5882000Y-9144000D02*
G75*
G03*
X5882000Y-9144000I-40000J0D01*
G01*
X5882000Y-9906000D02*
G75*
G03*
X5882000Y-9906000I-40000J0D01*
G01*
X5882000Y-10541000D02*
G75*
G03*
X5882000Y-10541000I-40000J0D01*
G01*
X5882000Y-11303000D02*
G75*
G03*
X5882000Y-11303000I-40000J0D01*
G01*
X5882000Y-11938000D02*
G75*
G03*
X5882000Y-11938000I-40000J0D01*
G01*
X5882000Y-12700000D02*
G75*
G03*
X5882000Y-12700000I-40000J0D01*
G01*
X6136000Y-7747000D02*
G75*
G03*
X6136000Y-7747000I-40000J0D01*
G01*
X6136000Y-8509000D02*
G75*
G03*
X6136000Y-8509000I-40000J0D01*
G01*
X6136000Y-9144000D02*
G75*
G03*
X6136000Y-9144000I-40000J0D01*
G01*
X6136000Y-9906000D02*
G75*
G03*
X6136000Y-9906000I-40000J0D01*
G01*
X6136000Y-10541000D02*
G75*
G03*
X6136000Y-10541000I-40000J0D01*
G01*
X6136000Y-11303000D02*
G75*
G03*
X6136000Y-11303000I-40000J0D01*
G01*
X6136000Y-11938000D02*
G75*
G03*
X6136000Y-11938000I-40000J0D01*
G01*
X6136000Y-12700000D02*
G75*
G03*
X6136000Y-12700000I-40000J0D01*
G01*
X6390000Y-7747000D02*
G75*
G03*
X6390000Y-7747000I-40000J0D01*
G01*
X6390000Y-8509000D02*
G75*
G03*
X6390000Y-8509000I-40000J0D01*
G01*
X6390000Y-9144000D02*
G75*
G03*
X6390000Y-9144000I-40000J0D01*
G01*
X6390000Y-9906000D02*
G75*
G03*
X6390000Y-9906000I-40000J0D01*
G01*
X6390000Y-10541000D02*
G75*
G03*
X6390000Y-10541000I-40000J0D01*
G01*
X6390000Y-11303000D02*
G75*
G03*
X6390000Y-11303000I-40000J0D01*
G01*
X6390000Y-11938000D02*
G75*
G03*
X6390000Y-11938000I-40000J0D01*
G01*
X6390000Y-12700000D02*
G75*
G03*
X6390000Y-12700000I-40000J0D01*
G01*
X6644000Y-7747000D02*
G75*
G03*
X6644000Y-7747000I-40000J0D01*
G01*
X6644000Y-8509000D02*
G75*
G03*
X6644000Y-8509000I-40000J0D01*
G01*
X6644000Y-9144000D02*
G75*
G03*
X6644000Y-9144000I-40000J0D01*
G01*
X6644000Y-9906000D02*
G75*
G03*
X6644000Y-9906000I-40000J0D01*
G01*
X6644000Y-10541000D02*
G75*
G03*
X6644000Y-10541000I-40000J0D01*
G01*
X6644000Y-11303000D02*
G75*
G03*
X6644000Y-11303000I-40000J0D01*
G01*
X6644000Y-11938000D02*
G75*
G03*
X6644000Y-11938000I-40000J0D01*
G01*
X6644000Y-12700000D02*
G75*
G03*
X6644000Y-12700000I-40000J0D01*
G01*
X6898000Y-7747000D02*
G75*
G03*
X6898000Y-7747000I-40000J0D01*
G01*
X6898000Y-8509000D02*
G75*
G03*
X6898000Y-8509000I-40000J0D01*
G01*
X6898000Y-9144000D02*
G75*
G03*
X6898000Y-9144000I-40000J0D01*
G01*
X6898000Y-9906000D02*
G75*
G03*
X6898000Y-9906000I-40000J0D01*
G01*
X6898000Y-10541000D02*
G75*
G03*
X6898000Y-10541000I-40000J0D01*
G01*
X6898000Y-11303000D02*
G75*
G03*
X6898000Y-11303000I-40000J0D01*
G01*
X6898000Y-11938000D02*
G75*
G03*
X6898000Y-11938000I-40000J0D01*
G01*
X6898000Y-12700000D02*
G75*
G03*
X6898000Y-12700000I-40000J0D01*
G01*
X7152000Y-7747000D02*
G75*
G03*
X7152000Y-7747000I-40000J0D01*
G01*
X7152000Y-8509000D02*
G75*
G03*
X7152000Y-8509000I-40000J0D01*
G01*
X7152000Y-9144000D02*
G75*
G03*
X7152000Y-9144000I-40000J0D01*
G01*
X7152000Y-9906000D02*
G75*
G03*
X7152000Y-9906000I-40000J0D01*
G01*
X7152000Y-10541000D02*
G75*
G03*
X7152000Y-10541000I-40000J0D01*
G01*
X7152000Y-11303000D02*
G75*
G03*
X7152000Y-11303000I-40000J0D01*
G01*
X7152000Y-11938000D02*
G75*
G03*
X7152000Y-11938000I-40000J0D01*
G01*
X7152000Y-12700000D02*
G75*
G03*
X7152000Y-12700000I-40000J0D01*
G01*
X7406000Y-7747000D02*
G75*
G03*
X7406000Y-7747000I-40000J0D01*
G01*
X7406000Y-8509000D02*
G75*
G03*
X7406000Y-8509000I-40000J0D01*
G01*
X7406000Y-9144000D02*
G75*
G03*
X7406000Y-9144000I-40000J0D01*
G01*
X7406000Y-9906000D02*
G75*
G03*
X7406000Y-9906000I-40000J0D01*
G01*
X7406000Y-10541000D02*
G75*
G03*
X7406000Y-10541000I-40000J0D01*
G01*
X7406000Y-11303000D02*
G75*
G03*
X7406000Y-11303000I-40000J0D01*
G01*
X7406000Y-11938000D02*
G75*
G03*
X7406000Y-11938000I-40000J0D01*
G01*
X7406000Y-12700000D02*
G75*
G03*
X7406000Y-12700000I-40000J0D01*
G01*
X7660000Y-10541000D02*
G75*
G03*
X7660000Y-10541000I-40000J0D01*
G01*
X7660000Y-11303000D02*
G75*
G03*
X7660000Y-11303000I-40000J0D01*
G01*
X7660000Y-11938000D02*
G75*
G03*
X7660000Y-11938000I-40000J0D01*
G01*
X7660000Y-12700000D02*
G75*
G03*
X7660000Y-12700000I-40000J0D01*
G01*
X7914000Y-11938000D02*
G75*
G03*
X7914000Y-11938000I-40000J0D01*
G01*
X7914000Y-12700000D02*
G75*
G03*
X7914000Y-12700000I-40000J0D01*
G01*
X8168000Y-7747000D02*
G75*
G03*
X8168000Y-7747000I-40000J0D01*
G01*
X8168000Y-8247000D02*
G75*
G03*
X8168000Y-8247000I-40000J0D01*
G01*
X8168000Y-9144000D02*
G75*
G03*
X8168000Y-9144000I-40000J0D01*
G01*
X8168000Y-9644000D02*
G75*
G03*
X8168000Y-9644000I-40000J0D01*
G01*
X8168000Y-11938000D02*
G75*
G03*
X8168000Y-11938000I-40000J0D01*
G01*
X8168000Y-12700000D02*
G75*
G03*
X8168000Y-12700000I-40000J0D01*
G01*
X8422000Y-7112000D02*
G75*
G03*
X8422000Y-7112000I-40000J0D01*
G01*
X8422000Y-10541000D02*
G75*
G03*
X8422000Y-10541000I-40000J0D01*
G01*
X8422000Y-11041000D02*
G75*
G03*
X8422000Y-11041000I-40000J0D01*
G01*
X8676000Y-7112000D02*
G75*
G03*
X8676000Y-7112000I-40000J0D01*
G01*
X8676000Y-7747000D02*
G75*
G03*
X8676000Y-7747000I-40000J0D01*
G01*
X8676000Y-8509000D02*
G75*
G03*
X8676000Y-8509000I-40000J0D01*
G01*
X8676000Y-9144000D02*
G75*
G03*
X8676000Y-9144000I-40000J0D01*
G01*
X8676000Y-9906000D02*
G75*
G03*
X8676000Y-9906000I-40000J0D01*
G01*
X8930000Y-7112000D02*
G75*
G03*
X8930000Y-7112000I-40000J0D01*
G01*
X8930000Y-7747000D02*
G75*
G03*
X8930000Y-7747000I-40000J0D01*
G01*
X8930000Y-8509000D02*
G75*
G03*
X8930000Y-8509000I-40000J0D01*
G01*
X8930000Y-9144000D02*
G75*
G03*
X8930000Y-9144000I-40000J0D01*
G01*
X8930000Y-9906000D02*
G75*
G03*
X8930000Y-9906000I-40000J0D01*
G01*
X8930000Y-10541000D02*
G75*
G03*
X8930000Y-10541000I-40000J0D01*
G01*
X8930000Y-11303000D02*
G75*
G03*
X8930000Y-11303000I-40000J0D01*
G01*
X9184000Y-7112000D02*
G75*
G03*
X9184000Y-7112000I-40000J0D01*
G01*
X9184000Y-7747000D02*
G75*
G03*
X9184000Y-7747000I-40000J0D01*
G01*
X9184000Y-8509000D02*
G75*
G03*
X9184000Y-8509000I-40000J0D01*
G01*
X9184000Y-9144000D02*
G75*
G03*
X9184000Y-9144000I-40000J0D01*
G01*
X9184000Y-9906000D02*
G75*
G03*
X9184000Y-9906000I-40000J0D01*
G01*
X9184000Y-10541000D02*
G75*
G03*
X9184000Y-10541000I-40000J0D01*
G01*
X9184000Y-11303000D02*
G75*
G03*
X9184000Y-11303000I-40000J0D01*
G01*
X9438000Y-7112000D02*
G75*
G03*
X9438000Y-7112000I-40000J0D01*
G01*
X9438000Y-7747000D02*
G75*
G03*
X9438000Y-7747000I-40000J0D01*
G01*
X9438000Y-8509000D02*
G75*
G03*
X9438000Y-8509000I-40000J0D01*
G01*
X9438000Y-9144000D02*
G75*
G03*
X9438000Y-9144000I-40000J0D01*
G01*
X9438000Y-9906000D02*
G75*
G03*
X9438000Y-9906000I-40000J0D01*
G01*
X9438000Y-10541000D02*
G75*
G03*
X9438000Y-10541000I-40000J0D01*
G01*
X9438000Y-11303000D02*
G75*
G03*
X9438000Y-11303000I-40000J0D01*
G01*
X9692000Y-7112000D02*
G75*
G03*
X9692000Y-7112000I-40000J0D01*
G01*
X9692000Y-7747000D02*
G75*
G03*
X9692000Y-7747000I-40000J0D01*
G01*
X9692000Y-8509000D02*
G75*
G03*
X9692000Y-8509000I-40000J0D01*
G01*
X9692000Y-9144000D02*
G75*
G03*
X9692000Y-9144000I-40000J0D01*
G01*
X9692000Y-9906000D02*
G75*
G03*
X9692000Y-9906000I-40000J0D01*
G01*
X9692000Y-10541000D02*
G75*
G03*
X9692000Y-10541000I-40000J0D01*
G01*
X9692000Y-11303000D02*
G75*
G03*
X9692000Y-11303000I-40000J0D01*
G01*
X9946000Y-7112000D02*
G75*
G03*
X9946000Y-7112000I-40000J0D01*
G01*
X9946000Y-7747000D02*
G75*
G03*
X9946000Y-7747000I-40000J0D01*
G01*
X9946000Y-8509000D02*
G75*
G03*
X9946000Y-8509000I-40000J0D01*
G01*
X9946000Y-9144000D02*
G75*
G03*
X9946000Y-9144000I-40000J0D01*
G01*
X9946000Y-9906000D02*
G75*
G03*
X9946000Y-9906000I-40000J0D01*
G01*
X9946000Y-10541000D02*
G75*
G03*
X9946000Y-10541000I-40000J0D01*
G01*
X9946000Y-11303000D02*
G75*
G03*
X9946000Y-11303000I-40000J0D01*
G01*
X10200000Y-7112000D02*
G75*
G03*
X10200000Y-7112000I-40000J0D01*
G01*
X10200000Y-7747000D02*
G75*
G03*
X10200000Y-7747000I-40000J0D01*
G01*
X10200000Y-8509000D02*
G75*
G03*
X10200000Y-8509000I-40000J0D01*
G01*
X10200000Y-9144000D02*
G75*
G03*
X10200000Y-9144000I-40000J0D01*
G01*
X10200000Y-9906000D02*
G75*
G03*
X10200000Y-9906000I-40000J0D01*
G01*
X10200000Y-10541000D02*
G75*
G03*
X10200000Y-10541000I-40000J0D01*
G01*
X10200000Y-11303000D02*
G75*
G03*
X10200000Y-11303000I-40000J0D01*
G01*
X10454000Y-7112000D02*
G75*
G03*
X10454000Y-7112000I-40000J0D01*
G01*
X10454000Y-7747000D02*
G75*
G03*
X10454000Y-7747000I-40000J0D01*
G01*
X10454000Y-8509000D02*
G75*
G03*
X10454000Y-8509000I-40000J0D01*
G01*
X10454000Y-9144000D02*
G75*
G03*
X10454000Y-9144000I-40000J0D01*
G01*
X10454000Y-9906000D02*
G75*
G03*
X10454000Y-9906000I-40000J0D01*
G01*
X10454000Y-10541000D02*
G75*
G03*
X10454000Y-10541000I-40000J0D01*
G01*
X10454000Y-11303000D02*
G75*
G03*
X10454000Y-11303000I-40000J0D01*
G01*
X10454000Y-11938000D02*
G75*
G03*
X10454000Y-11938000I-40000J0D01*
G01*
X10454000Y-12438000D02*
G75*
G03*
X10454000Y-12438000I-40000J0D01*
G01*
X10835000Y-7112000D02*
G75*
G03*
X10835000Y-7112000I-40000J0D01*
G01*
X10962000Y-9144000D02*
G75*
G03*
X10962000Y-9144000I-40000J0D01*
G01*
X10962000Y-9644000D02*
G75*
G03*
X10962000Y-9644000I-40000J0D01*
G01*
X10962000Y-10541000D02*
G75*
G03*
X10962000Y-10541000I-40000J0D01*
G01*
X10962000Y-11041000D02*
G75*
G03*
X10962000Y-11041000I-40000J0D01*
G01*
X10962000Y-11938000D02*
G75*
G03*
X10962000Y-11938000I-40000J0D01*
G01*
X10962000Y-12700000D02*
G75*
G03*
X10962000Y-12700000I-40000J0D01*
G01*
X11216000Y-7747000D02*
G75*
G03*
X11216000Y-7747000I-40000J0D01*
G01*
X11216000Y-8247000D02*
G75*
G03*
X11216000Y-8247000I-40000J0D01*
G01*
X11216000Y-11938000D02*
G75*
G03*
X11216000Y-11938000I-40000J0D01*
G01*
X11216000Y-12700000D02*
G75*
G03*
X11216000Y-12700000I-40000J0D01*
G01*
X11470000Y-9144000D02*
G75*
G03*
X11470000Y-9144000I-40000J0D01*
G01*
X11470000Y-9906000D02*
G75*
G03*
X11470000Y-9906000I-40000J0D01*
G01*
X11470000Y-10541000D02*
G75*
G03*
X11470000Y-10541000I-40000J0D01*
G01*
X11470000Y-11303000D02*
G75*
G03*
X11470000Y-11303000I-40000J0D01*
G01*
X11470000Y-11938000D02*
G75*
G03*
X11470000Y-11938000I-40000J0D01*
G01*
X11470000Y-12700000D02*
G75*
G03*
X11470000Y-12700000I-40000J0D01*
G01*
X11724000Y-7747000D02*
G75*
G03*
X11724000Y-7747000I-40000J0D01*
G01*
X11724000Y-8509000D02*
G75*
G03*
X11724000Y-8509000I-40000J0D01*
G01*
X11724000Y-9144000D02*
G75*
G03*
X11724000Y-9144000I-40000J0D01*
G01*
X11724000Y-9906000D02*
G75*
G03*
X11724000Y-9906000I-40000J0D01*
G01*
X11724000Y-10541000D02*
G75*
G03*
X11724000Y-10541000I-40000J0D01*
G01*
X11724000Y-11303000D02*
G75*
G03*
X11724000Y-11303000I-40000J0D01*
G01*
X11724000Y-11938000D02*
G75*
G03*
X11724000Y-11938000I-40000J0D01*
G01*
X11724000Y-12700000D02*
G75*
G03*
X11724000Y-12700000I-40000J0D01*
G01*
X11851000Y-7112000D02*
G75*
G03*
X11851000Y-7112000I-40000J0D01*
G01*
X11978000Y-7747000D02*
G75*
G03*
X11978000Y-7747000I-40000J0D01*
G01*
X11978000Y-8509000D02*
G75*
G03*
X11978000Y-8509000I-40000J0D01*
G01*
X11978000Y-9144000D02*
G75*
G03*
X11978000Y-9144000I-40000J0D01*
G01*
X11978000Y-9906000D02*
G75*
G03*
X11978000Y-9906000I-40000J0D01*
G01*
X11978000Y-10541000D02*
G75*
G03*
X11978000Y-10541000I-40000J0D01*
G01*
X11978000Y-11303000D02*
G75*
G03*
X11978000Y-11303000I-40000J0D01*
G01*
X11978000Y-11938000D02*
G75*
G03*
X11978000Y-11938000I-40000J0D01*
G01*
X11978000Y-12700000D02*
G75*
G03*
X11978000Y-12700000I-40000J0D01*
G01*
X12232000Y-7112000D02*
G75*
G03*
X12232000Y-7112000I-40000J0D01*
G01*
X12232000Y-7747000D02*
G75*
G03*
X12232000Y-7747000I-40000J0D01*
G01*
X12232000Y-8509000D02*
G75*
G03*
X12232000Y-8509000I-40000J0D01*
G01*
X12232000Y-9144000D02*
G75*
G03*
X12232000Y-9144000I-40000J0D01*
G01*
X12232000Y-9906000D02*
G75*
G03*
X12232000Y-9906000I-40000J0D01*
G01*
X12232000Y-10541000D02*
G75*
G03*
X12232000Y-10541000I-40000J0D01*
G01*
X12232000Y-11303000D02*
G75*
G03*
X12232000Y-11303000I-40000J0D01*
G01*
X12232000Y-11938000D02*
G75*
G03*
X12232000Y-11938000I-40000J0D01*
G01*
X12232000Y-12700000D02*
G75*
G03*
X12232000Y-12700000I-40000J0D01*
G01*
X12486000Y-7747000D02*
G75*
G03*
X12486000Y-7747000I-40000J0D01*
G01*
X12486000Y-8509000D02*
G75*
G03*
X12486000Y-8509000I-40000J0D01*
G01*
X12486000Y-9144000D02*
G75*
G03*
X12486000Y-9144000I-40000J0D01*
G01*
X12486000Y-9906000D02*
G75*
G03*
X12486000Y-9906000I-40000J0D01*
G01*
X12486000Y-10541000D02*
G75*
G03*
X12486000Y-10541000I-40000J0D01*
G01*
X12486000Y-11303000D02*
G75*
G03*
X12486000Y-11303000I-40000J0D01*
G01*
X12486000Y-11938000D02*
G75*
G03*
X12486000Y-11938000I-40000J0D01*
G01*
X12486000Y-12700000D02*
G75*
G03*
X12486000Y-12700000I-40000J0D01*
G01*
X12740000Y-6096000D02*
G75*
G03*
X12740000Y-6096000I-40000J0D01*
G01*
X12740000Y-7747000D02*
G75*
G03*
X12740000Y-7747000I-40000J0D01*
G01*
X12740000Y-8509000D02*
G75*
G03*
X12740000Y-8509000I-40000J0D01*
G01*
X12740000Y-9144000D02*
G75*
G03*
X12740000Y-9144000I-40000J0D01*
G01*
X12740000Y-9906000D02*
G75*
G03*
X12740000Y-9906000I-40000J0D01*
G01*
X12740000Y-10541000D02*
G75*
G03*
X12740000Y-10541000I-40000J0D01*
G01*
X12740000Y-11303000D02*
G75*
G03*
X12740000Y-11303000I-40000J0D01*
G01*
X12740000Y-11938000D02*
G75*
G03*
X12740000Y-11938000I-40000J0D01*
G01*
X12740000Y-12700000D02*
G75*
G03*
X12740000Y-12700000I-40000J0D01*
G01*
X12994000Y-6350000D02*
G75*
G03*
X12994000Y-6350000I-40000J0D01*
G01*
X12994000Y-7747000D02*
G75*
G03*
X12994000Y-7747000I-40000J0D01*
G01*
X12994000Y-8509000D02*
G75*
G03*
X12994000Y-8509000I-40000J0D01*
G01*
X12994000Y-9144000D02*
G75*
G03*
X12994000Y-9144000I-40000J0D01*
G01*
X12994000Y-9906000D02*
G75*
G03*
X12994000Y-9906000I-40000J0D01*
G01*
X12994000Y-10541000D02*
G75*
G03*
X12994000Y-10541000I-40000J0D01*
G01*
X12994000Y-11303000D02*
G75*
G03*
X12994000Y-11303000I-40000J0D01*
G01*
X12994000Y-11938000D02*
G75*
G03*
X12994000Y-11938000I-40000J0D01*
G01*
X12994000Y-12700000D02*
G75*
G03*
X12994000Y-12700000I-40000J0D01*
G01*
X13248000Y-6096000D02*
G75*
G03*
X13248000Y-6096000I-40000J0D01*
G01*
X13248000Y-7112000D02*
G75*
G03*
X13248000Y-7112000I-40000J0D01*
G01*
X13248000Y-7747000D02*
G75*
G03*
X13248000Y-7747000I-40000J0D01*
G01*
X13248000Y-8509000D02*
G75*
G03*
X13248000Y-8509000I-40000J0D01*
G01*
X13248000Y-9144000D02*
G75*
G03*
X13248000Y-9144000I-40000J0D01*
G01*
X13248000Y-9906000D02*
G75*
G03*
X13248000Y-9906000I-40000J0D01*
G01*
X13248000Y-10541000D02*
G75*
G03*
X13248000Y-10541000I-40000J0D01*
G01*
X13248000Y-11303000D02*
G75*
G03*
X13248000Y-11303000I-40000J0D01*
G01*
X13248000Y-11938000D02*
G75*
G03*
X13248000Y-11938000I-40000J0D01*
G01*
X13248000Y-12700000D02*
G75*
G03*
X13248000Y-12700000I-40000J0D01*
G01*
X13756000Y-6604000D02*
G75*
G03*
X13756000Y-6604000I-40000J0D01*
G01*
X13756000Y-7112000D02*
G75*
G03*
X13756000Y-7112000I-40000J0D01*
G01*
X14010000Y-7112000D02*
G75*
G03*
X14010000Y-7112000I-40000J0D01*
G01*
X14264000Y-7112000D02*
G75*
G03*
X14264000Y-7112000I-40000J0D01*
G01*
X14264000Y-7747000D02*
G75*
G03*
X14264000Y-7747000I-40000J0D01*
G01*
X14264000Y-8247000D02*
G75*
G03*
X14264000Y-8247000I-40000J0D01*
G01*
X14264000Y-9144000D02*
G75*
G03*
X14264000Y-9144000I-40000J0D01*
G01*
X14264000Y-9644000D02*
G75*
G03*
X14264000Y-9644000I-40000J0D01*
G01*
X14264000Y-10541000D02*
G75*
G03*
X14264000Y-10541000I-40000J0D01*
G01*
X14264000Y-11041000D02*
G75*
G03*
X14264000Y-11041000I-40000J0D01*
G01*
X14264000Y-11938000D02*
G75*
G03*
X14264000Y-11938000I-40000J0D01*
G01*
X14264000Y-12438000D02*
G75*
G03*
X14264000Y-12438000I-40000J0D01*
G01*
X14518000Y-7112000D02*
G75*
G03*
X14518000Y-7112000I-40000J0D01*
G01*
X14772000Y-6604000D02*
G75*
G03*
X14772000Y-6604000I-40000J0D01*
G01*
X14772000Y-7112000D02*
G75*
G03*
X14772000Y-7112000I-40000J0D01*
G01*
X14772000Y-7747000D02*
G75*
G03*
X14772000Y-7747000I-40000J0D01*
G01*
X14772000Y-8509000D02*
G75*
G03*
X14772000Y-8509000I-40000J0D01*
G01*
X14772000Y-9144000D02*
G75*
G03*
X14772000Y-9144000I-40000J0D01*
G01*
X14772000Y-9906000D02*
G75*
G03*
X14772000Y-9906000I-40000J0D01*
G01*
X14772000Y-10541000D02*
G75*
G03*
X14772000Y-10541000I-40000J0D01*
G01*
X14772000Y-11303000D02*
G75*
G03*
X14772000Y-11303000I-40000J0D01*
G01*
X14772000Y-11938000D02*
G75*
G03*
X14772000Y-11938000I-40000J0D01*
G01*
X14772000Y-12700000D02*
G75*
G03*
X14772000Y-12700000I-40000J0D01*
G01*
X15026000Y-7112000D02*
G75*
G03*
X15026000Y-7112000I-40000J0D01*
G01*
X15026000Y-7747000D02*
G75*
G03*
X15026000Y-7747000I-40000J0D01*
G01*
X15026000Y-8509000D02*
G75*
G03*
X15026000Y-8509000I-40000J0D01*
G01*
X15026000Y-9144000D02*
G75*
G03*
X15026000Y-9144000I-40000J0D01*
G01*
X15026000Y-9906000D02*
G75*
G03*
X15026000Y-9906000I-40000J0D01*
G01*
X15026000Y-10541000D02*
G75*
G03*
X15026000Y-10541000I-40000J0D01*
G01*
X15026000Y-11303000D02*
G75*
G03*
X15026000Y-11303000I-40000J0D01*
G01*
X15026000Y-11938000D02*
G75*
G03*
X15026000Y-11938000I-40000J0D01*
G01*
X15026000Y-12700000D02*
G75*
G03*
X15026000Y-12700000I-40000J0D01*
G01*
X15280000Y-6604000D02*
G75*
G03*
X15280000Y-6604000I-40000J0D01*
G01*
X15280000Y-7112000D02*
G75*
G03*
X15280000Y-7112000I-40000J0D01*
G01*
X15280000Y-7747000D02*
G75*
G03*
X15280000Y-7747000I-40000J0D01*
G01*
X15280000Y-8509000D02*
G75*
G03*
X15280000Y-8509000I-40000J0D01*
G01*
X15280000Y-9144000D02*
G75*
G03*
X15280000Y-9144000I-40000J0D01*
G01*
X15280000Y-9906000D02*
G75*
G03*
X15280000Y-9906000I-40000J0D01*
G01*
X15280000Y-10541000D02*
G75*
G03*
X15280000Y-10541000I-40000J0D01*
G01*
X15280000Y-11303000D02*
G75*
G03*
X15280000Y-11303000I-40000J0D01*
G01*
X15280000Y-11938000D02*
G75*
G03*
X15280000Y-11938000I-40000J0D01*
G01*
X15280000Y-12700000D02*
G75*
G03*
X15280000Y-12700000I-40000J0D01*
G01*
X15534000Y-7112000D02*
G75*
G03*
X15534000Y-7112000I-40000J0D01*
G01*
X15534000Y-7747000D02*
G75*
G03*
X15534000Y-7747000I-40000J0D01*
G01*
X15534000Y-8509000D02*
G75*
G03*
X15534000Y-8509000I-40000J0D01*
G01*
X15534000Y-9144000D02*
G75*
G03*
X15534000Y-9144000I-40000J0D01*
G01*
X15534000Y-9906000D02*
G75*
G03*
X15534000Y-9906000I-40000J0D01*
G01*
X15534000Y-10541000D02*
G75*
G03*
X15534000Y-10541000I-40000J0D01*
G01*
X15534000Y-11303000D02*
G75*
G03*
X15534000Y-11303000I-40000J0D01*
G01*
X15534000Y-11938000D02*
G75*
G03*
X15534000Y-11938000I-40000J0D01*
G01*
X15534000Y-12700000D02*
G75*
G03*
X15534000Y-12700000I-40000J0D01*
G01*
X15788000Y-7112000D02*
G75*
G03*
X15788000Y-7112000I-40000J0D01*
G01*
X15788000Y-7747000D02*
G75*
G03*
X15788000Y-7747000I-40000J0D01*
G01*
X15788000Y-8509000D02*
G75*
G03*
X15788000Y-8509000I-40000J0D01*
G01*
X15788000Y-9144000D02*
G75*
G03*
X15788000Y-9144000I-40000J0D01*
G01*
X15788000Y-9906000D02*
G75*
G03*
X15788000Y-9906000I-40000J0D01*
G01*
X15788000Y-10541000D02*
G75*
G03*
X15788000Y-10541000I-40000J0D01*
G01*
X15788000Y-11303000D02*
G75*
G03*
X15788000Y-11303000I-40000J0D01*
G01*
X15788000Y-11938000D02*
G75*
G03*
X15788000Y-11938000I-40000J0D01*
G01*
X15788000Y-12700000D02*
G75*
G03*
X15788000Y-12700000I-40000J0D01*
G01*
X16042000Y-7112000D02*
G75*
G03*
X16042000Y-7112000I-40000J0D01*
G01*
X16042000Y-7747000D02*
G75*
G03*
X16042000Y-7747000I-40000J0D01*
G01*
X16042000Y-8509000D02*
G75*
G03*
X16042000Y-8509000I-40000J0D01*
G01*
X16042000Y-9144000D02*
G75*
G03*
X16042000Y-9144000I-40000J0D01*
G01*
X16042000Y-9906000D02*
G75*
G03*
X16042000Y-9906000I-40000J0D01*
G01*
X16042000Y-10541000D02*
G75*
G03*
X16042000Y-10541000I-40000J0D01*
G01*
X16042000Y-11303000D02*
G75*
G03*
X16042000Y-11303000I-40000J0D01*
G01*
X16042000Y-11938000D02*
G75*
G03*
X16042000Y-11938000I-40000J0D01*
G01*
X16042000Y-12700000D02*
G75*
G03*
X16042000Y-12700000I-40000J0D01*
G01*
X16296000Y-6604000D02*
G75*
G03*
X16296000Y-6604000I-40000J0D01*
G01*
X16296000Y-7747000D02*
G75*
G03*
X16296000Y-7747000I-40000J0D01*
G01*
X16296000Y-8509000D02*
G75*
G03*
X16296000Y-8509000I-40000J0D01*
G01*
X16296000Y-9144000D02*
G75*
G03*
X16296000Y-9144000I-40000J0D01*
G01*
X16296000Y-9906000D02*
G75*
G03*
X16296000Y-9906000I-40000J0D01*
G01*
X16296000Y-10541000D02*
G75*
G03*
X16296000Y-10541000I-40000J0D01*
G01*
X16296000Y-11303000D02*
G75*
G03*
X16296000Y-11303000I-40000J0D01*
G01*
X16296000Y-11938000D02*
G75*
G03*
X16296000Y-11938000I-40000J0D01*
G01*
X16296000Y-12700000D02*
G75*
G03*
X16296000Y-12700000I-40000J0D01*
G01*
X16456400Y-7112000D02*
G75*
G03*
X16456400Y-7112000I-40000J0D01*
G01*
X16550000Y-7747000D02*
G75*
G03*
X16550000Y-7747000I-40000J0D01*
G01*
X16550000Y-8509000D02*
G75*
G03*
X16550000Y-8509000I-40000J0D01*
G01*
X16550000Y-11938000D02*
G75*
G03*
X16550000Y-11938000I-40000J0D01*
G01*
X16550000Y-12700000D02*
G75*
G03*
X16550000Y-12700000I-40000J0D01*
G01*
X16956400Y-7112000D02*
G75*
G03*
X16956400Y-7112000I-40000J0D01*
G01*
X17312000Y-9144000D02*
G75*
G03*
X17312000Y-9144000I-40000J0D01*
G01*
X17312000Y-9644000D02*
G75*
G03*
X17312000Y-9644000I-40000J0D01*
G01*
X17312000Y-10541000D02*
G75*
G03*
X17312000Y-10541000I-40000J0D01*
G01*
X17312000Y-11041000D02*
G75*
G03*
X17312000Y-11041000I-40000J0D01*
G01*
X17312000Y-11938000D02*
G75*
G03*
X17312000Y-11938000I-40000J0D01*
G01*
X17312000Y-12438000D02*
G75*
G03*
X17312000Y-12438000I-40000J0D01*
G01*
X17566000Y-6096000D02*
G75*
G03*
X17566000Y-6096000I-40000J0D01*
G01*
X17820000Y-6350000D02*
G75*
G03*
X17820000Y-6350000I-40000J0D01*
G01*
X17820000Y-9144000D02*
G75*
G03*
X17820000Y-9144000I-40000J0D01*
G01*
X17820000Y-9906000D02*
G75*
G03*
X17820000Y-9906000I-40000J0D01*
G01*
X17820000Y-10541000D02*
G75*
G03*
X17820000Y-10541000I-40000J0D01*
G01*
X17820000Y-11303000D02*
G75*
G03*
X17820000Y-11303000I-40000J0D01*
G01*
X17820000Y-11938000D02*
G75*
G03*
X17820000Y-11938000I-40000J0D01*
G01*
X17820000Y-12700000D02*
G75*
G03*
X17820000Y-12700000I-40000J0D01*
G01*
X18074000Y-6096000D02*
G75*
G03*
X18074000Y-6096000I-40000J0D01*
G01*
X18074000Y-9144000D02*
G75*
G03*
X18074000Y-9144000I-40000J0D01*
G01*
X18074000Y-9906000D02*
G75*
G03*
X18074000Y-9906000I-40000J0D01*
G01*
X18074000Y-10541000D02*
G75*
G03*
X18074000Y-10541000I-40000J0D01*
G01*
X18074000Y-11303000D02*
G75*
G03*
X18074000Y-11303000I-40000J0D01*
G01*
X18074000Y-11938000D02*
G75*
G03*
X18074000Y-11938000I-40000J0D01*
G01*
X18074000Y-12700000D02*
G75*
G03*
X18074000Y-12700000I-40000J0D01*
G01*
X18328000Y-9144000D02*
G75*
G03*
X18328000Y-9144000I-40000J0D01*
G01*
X18328000Y-9906000D02*
G75*
G03*
X18328000Y-9906000I-40000J0D01*
G01*
X18328000Y-10541000D02*
G75*
G03*
X18328000Y-10541000I-40000J0D01*
G01*
X18328000Y-11303000D02*
G75*
G03*
X18328000Y-11303000I-40000J0D01*
G01*
X18328000Y-11938000D02*
G75*
G03*
X18328000Y-11938000I-40000J0D01*
G01*
X18328000Y-12700000D02*
G75*
G03*
X18328000Y-12700000I-40000J0D01*
G01*
X18336000Y-7112000D02*
G75*
G03*
X18336000Y-7112000I-40000J0D01*
G01*
X18582000Y-9144000D02*
G75*
G03*
X18582000Y-9144000I-40000J0D01*
G01*
X18582000Y-9906000D02*
G75*
G03*
X18582000Y-9906000I-40000J0D01*
G01*
X18582000Y-10541000D02*
G75*
G03*
X18582000Y-10541000I-40000J0D01*
G01*
X18582000Y-11303000D02*
G75*
G03*
X18582000Y-11303000I-40000J0D01*
G01*
X18582000Y-11938000D02*
G75*
G03*
X18582000Y-11938000I-40000J0D01*
G01*
X18582000Y-12700000D02*
G75*
G03*
X18582000Y-12700000I-40000J0D01*
G01*
X18836000Y-7112000D02*
G75*
G03*
X18836000Y-7112000I-40000J0D01*
G01*
X18836000Y-7747000D02*
G75*
G03*
X18836000Y-7747000I-40000J0D01*
G01*
X18836000Y-8509000D02*
G75*
G03*
X18836000Y-8509000I-40000J0D01*
G01*
X18836000Y-9144000D02*
G75*
G03*
X18836000Y-9144000I-40000J0D01*
G01*
X18836000Y-9906000D02*
G75*
G03*
X18836000Y-9906000I-40000J0D01*
G01*
X18836000Y-10541000D02*
G75*
G03*
X18836000Y-10541000I-40000J0D01*
G01*
X18836000Y-11303000D02*
G75*
G03*
X18836000Y-11303000I-40000J0D01*
G01*
X18836000Y-11938000D02*
G75*
G03*
X18836000Y-11938000I-40000J0D01*
G01*
X18836000Y-12700000D02*
G75*
G03*
X18836000Y-12700000I-40000J0D01*
G01*
X19090000Y-9144000D02*
G75*
G03*
X19090000Y-9144000I-40000J0D01*
G01*
X19090000Y-9906000D02*
G75*
G03*
X19090000Y-9906000I-40000J0D01*
G01*
X19090000Y-10541000D02*
G75*
G03*
X19090000Y-10541000I-40000J0D01*
G01*
X19090000Y-11303000D02*
G75*
G03*
X19090000Y-11303000I-40000J0D01*
G01*
X19090000Y-11938000D02*
G75*
G03*
X19090000Y-11938000I-40000J0D01*
G01*
X19090000Y-12700000D02*
G75*
G03*
X19090000Y-12700000I-40000J0D01*
G01*
X19091000Y-5841000D02*
G75*
G03*
X19091000Y-5841000I-40000J0D01*
G01*
X19091000Y-6603000D02*
G75*
G03*
X19091000Y-6603000I-40000J0D01*
G01*
X19344000Y-7112000D02*
G75*
G03*
X19344000Y-7112000I-40000J0D01*
G01*
X19344000Y-9144000D02*
G75*
G03*
X19344000Y-9144000I-40000J0D01*
G01*
X19344000Y-9906000D02*
G75*
G03*
X19344000Y-9906000I-40000J0D01*
G01*
X19344000Y-10541000D02*
G75*
G03*
X19344000Y-10541000I-40000J0D01*
G01*
X19344000Y-11303000D02*
G75*
G03*
X19344000Y-11303000I-40000J0D01*
G01*
X19344000Y-11938000D02*
G75*
G03*
X19344000Y-11938000I-40000J0D01*
G01*
X19344000Y-12700000D02*
G75*
G03*
X19344000Y-12700000I-40000J0D01*
G01*
X19345000Y-5841000D02*
G75*
G03*
X19345000Y-5841000I-40000J0D01*
G01*
X19345000Y-6603000D02*
G75*
G03*
X19345000Y-6603000I-40000J0D01*
G01*
X19598000Y-7747000D02*
G75*
G03*
X19598000Y-7747000I-40000J0D01*
G01*
X19598000Y-8509000D02*
G75*
G03*
X19598000Y-8509000I-40000J0D01*
G01*
X19598000Y-10541000D02*
G75*
G03*
X19598000Y-10541000I-40000J0D01*
G01*
X19598000Y-11303000D02*
G75*
G03*
X19598000Y-11303000I-40000J0D01*
G01*
X19598000Y-11938000D02*
G75*
G03*
X19598000Y-11938000I-40000J0D01*
G01*
X19598000Y-12700000D02*
G75*
G03*
X19598000Y-12700000I-40000J0D01*
G01*
X19599000Y-5841000D02*
G75*
G03*
X19599000Y-5841000I-40000J0D01*
G01*
X19599000Y-6603000D02*
G75*
G03*
X19599000Y-6603000I-40000J0D01*
G01*
X19852000Y-9144000D02*
G75*
G03*
X19852000Y-9144000I-40000J0D01*
G01*
X19852000Y-9644000D02*
G75*
G03*
X19852000Y-9644000I-40000J0D01*
G01*
X19852000Y-11938000D02*
G75*
G03*
X19852000Y-11938000I-40000J0D01*
G01*
X19852000Y-12700000D02*
G75*
G03*
X19852000Y-12700000I-40000J0D01*
G01*
X19853000Y-5841000D02*
G75*
G03*
X19853000Y-5841000I-40000J0D01*
G01*
X19853000Y-6603000D02*
G75*
G03*
X19853000Y-6603000I-40000J0D01*
G01*
X20106000Y-10541000D02*
G75*
G03*
X20106000Y-10541000I-40000J0D01*
G01*
X20106000Y-11041000D02*
G75*
G03*
X20106000Y-11041000I-40000J0D01*
G01*
X20106000Y-11938000D02*
G75*
G03*
X20106000Y-11938000I-40000J0D01*
G01*
X20106000Y-12700000D02*
G75*
G03*
X20106000Y-12700000I-40000J0D01*
G01*
X20360000Y-7112000D02*
G75*
G03*
X20360000Y-7112000I-40000J0D01*
G01*
X20360000Y-8509000D02*
G75*
G03*
X20360000Y-8509000I-40000J0D01*
G01*
X20360000Y-9144000D02*
G75*
G03*
X20360000Y-9144000I-40000J0D01*
G01*
X20360000Y-9906000D02*
G75*
G03*
X20360000Y-9906000I-40000J0D01*
G01*
X20614000Y-7112000D02*
G75*
G03*
X20614000Y-7112000I-40000J0D01*
G01*
X20614000Y-8509000D02*
G75*
G03*
X20614000Y-8509000I-40000J0D01*
G01*
X20614000Y-9144000D02*
G75*
G03*
X20614000Y-9144000I-40000J0D01*
G01*
X20614000Y-9906000D02*
G75*
G03*
X20614000Y-9906000I-40000J0D01*
G01*
X20614000Y-10541000D02*
G75*
G03*
X20614000Y-10541000I-40000J0D01*
G01*
X20614000Y-11303000D02*
G75*
G03*
X20614000Y-11303000I-40000J0D01*
G01*
X20868000Y-8509000D02*
G75*
G03*
X20868000Y-8509000I-40000J0D01*
G01*
X20868000Y-9144000D02*
G75*
G03*
X20868000Y-9144000I-40000J0D01*
G01*
X20868000Y-9906000D02*
G75*
G03*
X20868000Y-9906000I-40000J0D01*
G01*
X20868000Y-10541000D02*
G75*
G03*
X20868000Y-10541000I-40000J0D01*
G01*
X20868000Y-11303000D02*
G75*
G03*
X20868000Y-11303000I-40000J0D01*
G01*
X21122000Y-8509000D02*
G75*
G03*
X21122000Y-8509000I-40000J0D01*
G01*
X21122000Y-9144000D02*
G75*
G03*
X21122000Y-9144000I-40000J0D01*
G01*
X21122000Y-9906000D02*
G75*
G03*
X21122000Y-9906000I-40000J0D01*
G01*
X21122000Y-10541000D02*
G75*
G03*
X21122000Y-10541000I-40000J0D01*
G01*
X21122000Y-11303000D02*
G75*
G03*
X21122000Y-11303000I-40000J0D01*
G01*
X21376000Y-8509000D02*
G75*
G03*
X21376000Y-8509000I-40000J0D01*
G01*
X21376000Y-9144000D02*
G75*
G03*
X21376000Y-9144000I-40000J0D01*
G01*
X21376000Y-9906000D02*
G75*
G03*
X21376000Y-9906000I-40000J0D01*
G01*
X21376000Y-10541000D02*
G75*
G03*
X21376000Y-10541000I-40000J0D01*
G01*
X21376000Y-11303000D02*
G75*
G03*
X21376000Y-11303000I-40000J0D01*
G01*
X21380000Y-12928600D02*
G75*
G03*
X21380000Y-12928600I-40000J0D01*
G01*
X21630000Y-7112000D02*
G75*
G03*
X21630000Y-7112000I-40000J0D01*
G01*
X21630000Y-8509000D02*
G75*
G03*
X21630000Y-8509000I-40000J0D01*
G01*
X21630000Y-9144000D02*
G75*
G03*
X21630000Y-9144000I-40000J0D01*
G01*
X21630000Y-9906000D02*
G75*
G03*
X21630000Y-9906000I-40000J0D01*
G01*
X21630000Y-10541000D02*
G75*
G03*
X21630000Y-10541000I-40000J0D01*
G01*
X21630000Y-11303000D02*
G75*
G03*
X21630000Y-11303000I-40000J0D01*
G01*
X21630000Y-12928600D02*
G75*
G03*
X21630000Y-12928600I-40000J0D01*
G01*
X21884000Y-8509000D02*
G75*
G03*
X21884000Y-8509000I-40000J0D01*
G01*
X21884000Y-9144000D02*
G75*
G03*
X21884000Y-9144000I-40000J0D01*
G01*
X21884000Y-9906000D02*
G75*
G03*
X21884000Y-9906000I-40000J0D01*
G01*
X21884000Y-10541000D02*
G75*
G03*
X21884000Y-10541000I-40000J0D01*
G01*
X21884000Y-11303000D02*
G75*
G03*
X21884000Y-11303000I-40000J0D01*
G01*
X22011000Y-7112000D02*
G75*
G03*
X22011000Y-7112000I-40000J0D01*
G01*
X22138000Y-7747000D02*
G75*
G03*
X22138000Y-7747000I-40000J0D01*
G01*
X22138000Y-8509000D02*
G75*
G03*
X22138000Y-8509000I-40000J0D01*
G01*
X22138000Y-9144000D02*
G75*
G03*
X22138000Y-9144000I-40000J0D01*
G01*
X22138000Y-9906000D02*
G75*
G03*
X22138000Y-9906000I-40000J0D01*
G01*
X22138000Y-10541000D02*
G75*
G03*
X22138000Y-10541000I-40000J0D01*
G01*
X22138000Y-11303000D02*
G75*
G03*
X22138000Y-11303000I-40000J0D01*
G01*
X22138000Y-11938000D02*
G75*
G03*
X22138000Y-11938000I-40000J0D01*
G01*
X22138000Y-12438000D02*
G75*
G03*
X22138000Y-12438000I-40000J0D01*
G01*
X22265000Y-7112000D02*
G75*
G03*
X22265000Y-7112000I-40000J0D01*
G01*
X22392000Y-8509000D02*
G75*
G03*
X22392000Y-8509000I-40000J0D01*
G01*
X22519000Y-7112000D02*
G75*
G03*
X22519000Y-7112000I-40000J0D01*
G01*
X22638000Y-7747000D02*
G75*
G03*
X22638000Y-7747000I-40000J0D01*
G01*
X22646000Y-8509000D02*
G75*
G03*
X22646000Y-8509000I-40000J0D01*
G01*
X22646000Y-9144000D02*
G75*
G03*
X22646000Y-9144000I-40000J0D01*
G01*
X22646000Y-9644000D02*
G75*
G03*
X22646000Y-9644000I-40000J0D01*
G01*
X22646000Y-10541000D02*
G75*
G03*
X22646000Y-10541000I-40000J0D01*
G01*
X22646000Y-11041000D02*
G75*
G03*
X22646000Y-11041000I-40000J0D01*
G01*
X22646000Y-11938000D02*
G75*
G03*
X22646000Y-11938000I-40000J0D01*
G01*
X22646000Y-12700000D02*
G75*
G03*
X22646000Y-12700000I-40000J0D01*
G01*
X22773000Y-7112000D02*
G75*
G03*
X22773000Y-7112000I-40000J0D01*
G01*
X22900000Y-11938000D02*
G75*
G03*
X22900000Y-11938000I-40000J0D01*
G01*
X22900000Y-12700000D02*
G75*
G03*
X22900000Y-12700000I-40000J0D01*
G01*
X23027000Y-7112000D02*
G75*
G03*
X23027000Y-7112000I-40000J0D01*
G01*
X23154000Y-7747000D02*
G75*
G03*
X23154000Y-7747000I-40000J0D01*
G01*
X23154000Y-8509000D02*
G75*
G03*
X23154000Y-8509000I-40000J0D01*
G01*
X23154000Y-9144000D02*
G75*
G03*
X23154000Y-9144000I-40000J0D01*
G01*
X23154000Y-9906000D02*
G75*
G03*
X23154000Y-9906000I-40000J0D01*
G01*
X23154000Y-10541000D02*
G75*
G03*
X23154000Y-10541000I-40000J0D01*
G01*
X23154000Y-11303000D02*
G75*
G03*
X23154000Y-11303000I-40000J0D01*
G01*
X23154000Y-11938000D02*
G75*
G03*
X23154000Y-11938000I-40000J0D01*
G01*
X23154000Y-12700000D02*
G75*
G03*
X23154000Y-12700000I-40000J0D01*
G01*
X23281000Y-7112000D02*
G75*
G03*
X23281000Y-7112000I-40000J0D01*
G01*
X23408000Y-7747000D02*
G75*
G03*
X23408000Y-7747000I-40000J0D01*
G01*
X23408000Y-8509000D02*
G75*
G03*
X23408000Y-8509000I-40000J0D01*
G01*
X23408000Y-9144000D02*
G75*
G03*
X23408000Y-9144000I-40000J0D01*
G01*
X23408000Y-9906000D02*
G75*
G03*
X23408000Y-9906000I-40000J0D01*
G01*
X23408000Y-10541000D02*
G75*
G03*
X23408000Y-10541000I-40000J0D01*
G01*
X23408000Y-11303000D02*
G75*
G03*
X23408000Y-11303000I-40000J0D01*
G01*
X23408000Y-11938000D02*
G75*
G03*
X23408000Y-11938000I-40000J0D01*
G01*
X23408000Y-12700000D02*
G75*
G03*
X23408000Y-12700000I-40000J0D01*
G01*
X23535000Y-7112000D02*
G75*
G03*
X23535000Y-7112000I-40000J0D01*
G01*
X23662000Y-7747000D02*
G75*
G03*
X23662000Y-7747000I-40000J0D01*
G01*
X23662000Y-8509000D02*
G75*
G03*
X23662000Y-8509000I-40000J0D01*
G01*
X23662000Y-9144000D02*
G75*
G03*
X23662000Y-9144000I-40000J0D01*
G01*
X23662000Y-9906000D02*
G75*
G03*
X23662000Y-9906000I-40000J0D01*
G01*
X23662000Y-10541000D02*
G75*
G03*
X23662000Y-10541000I-40000J0D01*
G01*
X23662000Y-11303000D02*
G75*
G03*
X23662000Y-11303000I-40000J0D01*
G01*
X23662000Y-11938000D02*
G75*
G03*
X23662000Y-11938000I-40000J0D01*
G01*
X23662000Y-12700000D02*
G75*
G03*
X23662000Y-12700000I-40000J0D01*
G01*
X23789000Y-7112000D02*
G75*
G03*
X23789000Y-7112000I-40000J0D01*
G01*
X23916000Y-7747000D02*
G75*
G03*
X23916000Y-7747000I-40000J0D01*
G01*
X23916000Y-8509000D02*
G75*
G03*
X23916000Y-8509000I-40000J0D01*
G01*
X23916000Y-9144000D02*
G75*
G03*
X23916000Y-9144000I-40000J0D01*
G01*
X23916000Y-9906000D02*
G75*
G03*
X23916000Y-9906000I-40000J0D01*
G01*
X23916000Y-10541000D02*
G75*
G03*
X23916000Y-10541000I-40000J0D01*
G01*
X23916000Y-11303000D02*
G75*
G03*
X23916000Y-11303000I-40000J0D01*
G01*
X23916000Y-11938000D02*
G75*
G03*
X23916000Y-11938000I-40000J0D01*
G01*
X23916000Y-12700000D02*
G75*
G03*
X23916000Y-12700000I-40000J0D01*
G01*
X24043000Y-7112000D02*
G75*
G03*
X24043000Y-7112000I-40000J0D01*
G01*
X24170000Y-7747000D02*
G75*
G03*
X24170000Y-7747000I-40000J0D01*
G01*
X24170000Y-8509000D02*
G75*
G03*
X24170000Y-8509000I-40000J0D01*
G01*
X24170000Y-9144000D02*
G75*
G03*
X24170000Y-9144000I-40000J0D01*
G01*
X24170000Y-9906000D02*
G75*
G03*
X24170000Y-9906000I-40000J0D01*
G01*
X24170000Y-10541000D02*
G75*
G03*
X24170000Y-10541000I-40000J0D01*
G01*
X24170000Y-11303000D02*
G75*
G03*
X24170000Y-11303000I-40000J0D01*
G01*
X24170000Y-11938000D02*
G75*
G03*
X24170000Y-11938000I-40000J0D01*
G01*
X24170000Y-12700000D02*
G75*
G03*
X24170000Y-12700000I-40000J0D01*
G01*
X24424000Y-7747000D02*
G75*
G03*
X24424000Y-7747000I-40000J0D01*
G01*
X24424000Y-8509000D02*
G75*
G03*
X24424000Y-8509000I-40000J0D01*
G01*
X24424000Y-9144000D02*
G75*
G03*
X24424000Y-9144000I-40000J0D01*
G01*
X24424000Y-9906000D02*
G75*
G03*
X24424000Y-9906000I-40000J0D01*
G01*
X24424000Y-10541000D02*
G75*
G03*
X24424000Y-10541000I-40000J0D01*
G01*
X24424000Y-11303000D02*
G75*
G03*
X24424000Y-11303000I-40000J0D01*
G01*
X24424000Y-11938000D02*
G75*
G03*
X24424000Y-11938000I-40000J0D01*
G01*
X24424000Y-12700000D02*
G75*
G03*
X24424000Y-12700000I-40000J0D01*
G01*
X24678000Y-7747000D02*
G75*
G03*
X24678000Y-7747000I-40000J0D01*
G01*
X24678000Y-8509000D02*
G75*
G03*
X24678000Y-8509000I-40000J0D01*
G01*
X24678000Y-9144000D02*
G75*
G03*
X24678000Y-9144000I-40000J0D01*
G01*
X24678000Y-9906000D02*
G75*
G03*
X24678000Y-9906000I-40000J0D01*
G01*
X24678000Y-10541000D02*
G75*
G03*
X24678000Y-10541000I-40000J0D01*
G01*
X24678000Y-11303000D02*
G75*
G03*
X24678000Y-11303000I-40000J0D01*
G01*
X24678000Y-11938000D02*
G75*
G03*
X24678000Y-11938000I-40000J0D01*
G01*
X24678000Y-12700000D02*
G75*
G03*
X24678000Y-12700000I-40000J0D01*
G01*
X24932000Y-7747000D02*
G75*
G03*
X24932000Y-7747000I-40000J0D01*
G01*
X24932000Y-8509000D02*
G75*
G03*
X24932000Y-8509000I-40000J0D01*
G01*
X24932000Y-9144000D02*
G75*
G03*
X24932000Y-9144000I-40000J0D01*
G01*
X24932000Y-9906000D02*
G75*
G03*
X24932000Y-9906000I-40000J0D01*
G01*
X24932000Y-10541000D02*
G75*
G03*
X24932000Y-10541000I-40000J0D01*
G01*
X24932000Y-11303000D02*
G75*
G03*
X24932000Y-11303000I-40000J0D01*
G01*
X24932000Y-11938000D02*
G75*
G03*
X24932000Y-11938000I-40000J0D01*
G01*
X24932000Y-12700000D02*
G75*
G03*
X24932000Y-12700000I-40000J0D01*
G01*
D14*
X7112000Y-6305000D02*
X7112000Y-6395000D01*
X7067000Y-6350000D02*
X7157000Y-6350000D01*
X7366000Y-6305000D02*
X7366000Y-6395000D01*
X7321000Y-6350000D02*
X7411000Y-6350000D01*
X7747000Y-6305000D02*
X7747000Y-6395000D01*
X7702000Y-6350000D02*
X7792000Y-6350000D01*
X8001000Y-6305000D02*
X8001000Y-6395000D01*
X7956000Y-6350000D02*
X8046000Y-6350000D01*
X8382000Y-6305000D02*
X8382000Y-6395000D01*
X8337000Y-6350000D02*
X8427000Y-6350000D01*
X8636000Y-6305000D02*
X8636000Y-6395000D01*
X8591000Y-6350000D02*
X8681000Y-6350000D01*
X9017000Y-6305000D02*
X9017000Y-6395000D01*
X8972000Y-6350000D02*
X9062000Y-6350000D01*
X9271000Y-6305000D02*
X9271000Y-6395000D01*
X9226000Y-6350000D02*
X9316000Y-6350000D01*
X9652000Y-6305000D02*
X9652000Y-6395000D01*
X9607000Y-6350000D02*
X9697000Y-6350000D01*
X9906000Y-6305000D02*
X9906000Y-6395000D01*
X9861000Y-6350000D02*
X9951000Y-6350000D01*
X10287000Y-6305000D02*
X10287000Y-6395000D01*
X10242000Y-6350000D02*
X10332000Y-6350000D01*
X10541000Y-6305000D02*
X10541000Y-6395000D01*
X10496000Y-6350000D02*
X10586000Y-6350000D01*
X10922000Y-6305000D02*
X10922000Y-6395000D01*
X10877000Y-6350000D02*
X10967000Y-6350000D01*
X11176000Y-6305000D02*
X11176000Y-6395000D01*
X11131000Y-6350000D02*
X11221000Y-6350000D01*
X11557000Y-6305000D02*
X11557000Y-6395000D01*
X11512000Y-6350000D02*
X11602000Y-6350000D01*
X11811000Y-6305000D02*
X11811000Y-6395000D01*
X11766000Y-6350000D02*
X11856000Y-6350000D01*
X20447000Y-6305000D02*
X20447000Y-6395000D01*
X20402000Y-6350000D02*
X20492000Y-6350000D01*
X20701000Y-6305000D02*
X20701000Y-6395000D01*
X20656000Y-6350000D02*
X20746000Y-6350000D01*
X21082000Y-6305000D02*
X21082000Y-6395000D01*
X21037000Y-6350000D02*
X21127000Y-6350000D01*
X21336000Y-6305000D02*
X21336000Y-6395000D01*
X21291000Y-6350000D02*
X21381000Y-6350000D01*
X21717000Y-6305000D02*
X21717000Y-6395000D01*
X21672000Y-6350000D02*
X21762000Y-6350000D01*
X21971000Y-6305000D02*
X21971000Y-6395000D01*
X21926000Y-6350000D02*
X22016000Y-6350000D01*
X22352000Y-6305000D02*
X22352000Y-6395000D01*
X22307000Y-6350000D02*
X22397000Y-6350000D01*
X22606000Y-6305000D02*
X22606000Y-6395000D01*
X22561000Y-6350000D02*
X22651000Y-6350000D01*
X22987000Y-6305000D02*
X22987000Y-6395000D01*
X22942000Y-6350000D02*
X23032000Y-6350000D01*
X23241000Y-6305000D02*
X23241000Y-6395000D01*
X23196000Y-6350000D02*
X23286000Y-6350000D01*
X23622000Y-6305000D02*
X23622000Y-6395000D01*
X23577000Y-6350000D02*
X23667000Y-6350000D01*
X23876000Y-6305000D02*
X23876000Y-6395000D01*
X23831000Y-6350000D02*
X23921000Y-6350000D01*
X24257000Y-6305000D02*
X24257000Y-6395000D01*
X24212000Y-6350000D02*
X24302000Y-6350000D01*
X24511000Y-6305000D02*
X24511000Y-6395000D01*
X24466000Y-6350000D02*
X24556000Y-6350000D01*
X24892000Y-6305000D02*
X24892000Y-6395000D01*
X24847000Y-6350000D02*
X24937000Y-6350000D01*
X25146000Y-6305000D02*
X25146000Y-6395000D01*
X25101000Y-6350000D02*
X25191000Y-6350000D01*
D10*
X6131356Y-5623356D02*
X6131356Y-5552644D01*
X6060644Y-5552644D01*
X6060644Y-5623356D01*
X6131356Y-5623356D01*
X6131356Y-5877356D02*
X6131356Y-5806644D01*
X6060644Y-5806644D01*
X6060644Y-5877356D01*
X6131356Y-5877356D01*
X6131356Y-6131356D02*
X6131356Y-6060644D01*
X6060644Y-6060644D01*
X6060644Y-6131356D01*
X6131356Y-6131356D01*
X6131356Y-6385356D02*
X6131356Y-6314644D01*
X6060644Y-6314644D01*
X6060644Y-6385356D01*
X6131356Y-6385356D01*
X6131356Y-6639356D02*
X6131356Y-6568644D01*
X6060644Y-6568644D01*
X6060644Y-6639356D01*
X6131356Y-6639356D01*
X6131356Y-6893356D02*
X6131356Y-6822644D01*
X6060644Y-6822644D01*
X6060644Y-6893356D01*
X6131356Y-6893356D01*
X6131356Y-14513356D02*
X6131356Y-14442644D01*
X6060644Y-14442644D01*
X6060644Y-14513356D01*
X6131356Y-14513356D01*
X6385356Y-14513356D02*
X6385356Y-14442644D01*
X6314644Y-14442644D01*
X6314644Y-14513356D01*
X6385356Y-14513356D01*
X6639356Y-14513356D02*
X6639356Y-14442644D01*
X6568644Y-14442644D01*
X6568644Y-14513356D01*
X6639356Y-14513356D01*
X6893356Y-14513356D02*
X6893356Y-14442644D01*
X6822644Y-14442644D01*
X6822644Y-14513356D01*
X6893356Y-14513356D01*
X7147356Y-14513356D02*
X7147356Y-14442644D01*
X7076644Y-14442644D01*
X7076644Y-14513356D01*
X7147356Y-14513356D01*
X7401356Y-14513356D02*
X7401356Y-14442644D01*
X7330644Y-14442644D01*
X7330644Y-14513356D01*
X7401356Y-14513356D01*
X7655356Y-14513356D02*
X7655356Y-14442644D01*
X7584644Y-14442644D01*
X7584644Y-14513356D01*
X7655356Y-14513356D01*
X7909356Y-14513356D02*
X7909356Y-14442644D01*
X7838644Y-14442644D01*
X7838644Y-14513356D01*
X7909356Y-14513356D01*
X8163356Y-14513356D02*
X8163356Y-14442644D01*
X8092644Y-14442644D01*
X8092644Y-14513356D01*
X8163356Y-14513356D01*
X8417356Y-14513356D02*
X8417356Y-14442644D01*
X8346644Y-14442644D01*
X8346644Y-14513356D01*
X8417356Y-14513356D01*
X8671356Y-14513356D02*
X8671356Y-14442644D01*
X8600644Y-14442644D01*
X8600644Y-14513356D01*
X8671356Y-14513356D01*
X8925356Y-14513356D02*
X8925356Y-14442644D01*
X8854644Y-14442644D01*
X8854644Y-14513356D01*
X8925356Y-14513356D01*
X9179356Y-14513356D02*
X9179356Y-14442644D01*
X9108644Y-14442644D01*
X9108644Y-14513356D01*
X9179356Y-14513356D01*
X9433356Y-14513356D02*
X9433356Y-14442644D01*
X9362644Y-14442644D01*
X9362644Y-14513356D01*
X9433356Y-14513356D01*
X10195356Y-14513356D02*
X10195356Y-14442644D01*
X10124644Y-14442644D01*
X10124644Y-14513356D01*
X10195356Y-14513356D01*
X10449356Y-14513356D02*
X10449356Y-14442644D01*
X10378644Y-14442644D01*
X10378644Y-14513356D01*
X10449356Y-14513356D01*
X10703356Y-14513356D02*
X10703356Y-14442644D01*
X10632644Y-14442644D01*
X10632644Y-14513356D01*
X10703356Y-14513356D01*
X10957356Y-14513356D02*
X10957356Y-14442644D01*
X10886644Y-14442644D01*
X10886644Y-14513356D01*
X10957356Y-14513356D01*
X11211356Y-14513356D02*
X11211356Y-14442644D01*
X11140644Y-14442644D01*
X11140644Y-14513356D01*
X11211356Y-14513356D01*
X11465356Y-14513356D02*
X11465356Y-14442644D01*
X11394644Y-14442644D01*
X11394644Y-14513356D01*
X11465356Y-14513356D01*
X11719356Y-14513356D02*
X11719356Y-14442644D01*
X11648644Y-14442644D01*
X11648644Y-14513356D01*
X11719356Y-14513356D01*
X11973356Y-14513356D02*
X11973356Y-14442644D01*
X11902644Y-14442644D01*
X11902644Y-14513356D01*
X11973356Y-14513356D01*
X12227356Y-14513356D02*
X12227356Y-14442644D01*
X12156644Y-14442644D01*
X12156644Y-14513356D01*
X12227356Y-14513356D01*
X12481356Y-14513356D02*
X12481356Y-14442644D01*
X12410644Y-14442644D01*
X12410644Y-14513356D01*
X12481356Y-14513356D01*
X12735356Y-14513356D02*
X12735356Y-14442644D01*
X12664644Y-14442644D01*
X12664644Y-14513356D01*
X12735356Y-14513356D01*
X12989356Y-14513356D02*
X12989356Y-14442644D01*
X12918644Y-14442644D01*
X12918644Y-14513356D01*
X12989356Y-14513356D01*
X13243356Y-14513356D02*
X13243356Y-14442644D01*
X13172644Y-14442644D01*
X13172644Y-14513356D01*
X13243356Y-14513356D01*
X13497356Y-14513356D02*
X13497356Y-14442644D01*
X13426644Y-14442644D01*
X13426644Y-14513356D01*
X13497356Y-14513356D01*
X13751356Y-14513356D02*
X13751356Y-14442644D01*
X13680644Y-14442644D01*
X13680644Y-14513356D01*
X13751356Y-14513356D01*
X14005356Y-6131356D02*
X14005356Y-6060644D01*
X13934644Y-6060644D01*
X13934644Y-6131356D01*
X14005356Y-6131356D01*
X14005356Y-14513356D02*
X14005356Y-14442644D01*
X13934644Y-14442644D01*
X13934644Y-14513356D01*
X14005356Y-14513356D01*
X14259356Y-6131356D02*
X14259356Y-6060644D01*
X14188644Y-6060644D01*
X14188644Y-6131356D01*
X14259356Y-6131356D01*
X14513356Y-6131356D02*
X14513356Y-6060644D01*
X14442644Y-6060644D01*
X14442644Y-6131356D01*
X14513356Y-6131356D01*
X14767356Y-6131356D02*
X14767356Y-6060644D01*
X14696644Y-6060644D01*
X14696644Y-6131356D01*
X14767356Y-6131356D01*
X15783356Y-6131356D02*
X15783356Y-6060644D01*
X15712644Y-6060644D01*
X15712644Y-6131356D01*
X15783356Y-6131356D01*
X16037356Y-6131356D02*
X16037356Y-6060644D01*
X15966644Y-6060644D01*
X15966644Y-6131356D01*
X16037356Y-6131356D01*
X16291356Y-6131356D02*
X16291356Y-6060644D01*
X16220644Y-6060644D01*
X16220644Y-6131356D01*
X16291356Y-6131356D01*
X16545356Y-6131356D02*
X16545356Y-6060644D01*
X16474644Y-6060644D01*
X16474644Y-6131356D01*
X16545356Y-6131356D01*
X16545356Y-14513356D02*
X16545356Y-14442644D01*
X16474644Y-14442644D01*
X16474644Y-14513356D01*
X16545356Y-14513356D01*
X16748556Y-11643156D02*
X16748556Y-11572444D01*
X16677844Y-11572444D01*
X16677844Y-11643156D01*
X16748556Y-11643156D01*
X16799356Y-14513356D02*
X16799356Y-14442644D01*
X16728644Y-14442644D01*
X16728644Y-14513356D01*
X16799356Y-14513356D01*
X17002556Y-11643156D02*
X17002556Y-11572444D01*
X16931844Y-11572444D01*
X16931844Y-11643156D01*
X17002556Y-11643156D01*
X17053356Y-12735356D02*
X17053356Y-12664644D01*
X16982644Y-12664644D01*
X16982644Y-12735356D01*
X17053356Y-12735356D01*
X17053356Y-14513356D02*
X17053356Y-14442644D01*
X16982644Y-14442644D01*
X16982644Y-14513356D01*
X17053356Y-14513356D01*
X17307356Y-12735356D02*
X17307356Y-12664644D01*
X17236644Y-12664644D01*
X17236644Y-12735356D01*
X17307356Y-12735356D01*
X17307356Y-14513356D02*
X17307356Y-14442644D01*
X17236644Y-14442644D01*
X17236644Y-14513356D01*
X17307356Y-14513356D01*
X17383556Y-7147356D02*
X17383556Y-7076644D01*
X17312844Y-7076644D01*
X17312844Y-7147356D01*
X17383556Y-7147356D01*
X17561356Y-14513356D02*
X17561356Y-14442644D01*
X17490644Y-14442644D01*
X17490644Y-14513356D01*
X17561356Y-14513356D01*
X17637556Y-7147356D02*
X17637556Y-7076644D01*
X17566844Y-7076644D01*
X17566844Y-7147356D01*
X17637556Y-7147356D01*
X17815356Y-7528356D02*
X17815356Y-7457644D01*
X17744644Y-7457644D01*
X17744644Y-7528356D01*
X17815356Y-7528356D01*
X17815356Y-7782356D02*
X17815356Y-7711644D01*
X17744644Y-7711644D01*
X17744644Y-7782356D01*
X17815356Y-7782356D01*
X17815356Y-8036356D02*
X17815356Y-7965644D01*
X17744644Y-7965644D01*
X17744644Y-8036356D01*
X17815356Y-8036356D01*
X17815356Y-8290356D02*
X17815356Y-8219644D01*
X17744644Y-8219644D01*
X17744644Y-8290356D01*
X17815356Y-8290356D01*
X17815356Y-8544356D02*
X17815356Y-8473644D01*
X17744644Y-8473644D01*
X17744644Y-8544356D01*
X17815356Y-8544356D01*
X17815356Y-14513356D02*
X17815356Y-14442644D01*
X17744644Y-14442644D01*
X17744644Y-14513356D01*
X17815356Y-14513356D01*
X18069356Y-7528356D02*
X18069356Y-7457644D01*
X17998644Y-7457644D01*
X17998644Y-7528356D01*
X18069356Y-7528356D01*
X18069356Y-7782356D02*
X18069356Y-7711644D01*
X17998644Y-7711644D01*
X17998644Y-7782356D01*
X18069356Y-7782356D01*
X18069356Y-8036356D02*
X18069356Y-7965644D01*
X17998644Y-7965644D01*
X17998644Y-8036356D01*
X18069356Y-8036356D01*
X18069356Y-8290356D02*
X18069356Y-8219644D01*
X17998644Y-8219644D01*
X17998644Y-8290356D01*
X18069356Y-8290356D01*
X18069356Y-8544356D02*
X18069356Y-8473644D01*
X17998644Y-8473644D01*
X17998644Y-8544356D01*
X18069356Y-8544356D01*
X18069356Y-14513356D02*
X18069356Y-14442644D01*
X17998644Y-14442644D01*
X17998644Y-14513356D01*
X18069356Y-14513356D01*
X18323356Y-14513356D02*
X18323356Y-14442644D01*
X18252644Y-14442644D01*
X18252644Y-14513356D01*
X18323356Y-14513356D01*
X18577356Y-5877356D02*
X18577356Y-5806644D01*
X18506644Y-5806644D01*
X18506644Y-5877356D01*
X18577356Y-5877356D01*
X18577356Y-6131356D02*
X18577356Y-6060644D01*
X18506644Y-6060644D01*
X18506644Y-6131356D01*
X18577356Y-6131356D01*
X18577356Y-14513356D02*
X18577356Y-14442644D01*
X18506644Y-14442644D01*
X18506644Y-14513356D01*
X18577356Y-14513356D01*
X18831356Y-14513356D02*
X18831356Y-14442644D01*
X18760644Y-14442644D01*
X18760644Y-14513356D01*
X18831356Y-14513356D01*
X19085356Y-14513356D02*
X19085356Y-14442644D01*
X19014644Y-14442644D01*
X19014644Y-14513356D01*
X19085356Y-14513356D01*
X19339356Y-14513356D02*
X19339356Y-14442644D01*
X19268644Y-14442644D01*
X19268644Y-14513356D01*
X19339356Y-14513356D01*
X19593356Y-14513356D02*
X19593356Y-14442644D01*
X19522644Y-14442644D01*
X19522644Y-14513356D01*
X19593356Y-14513356D01*
X19847356Y-14513356D02*
X19847356Y-14442644D01*
X19776644Y-14442644D01*
X19776644Y-14513356D01*
X19847356Y-14513356D01*
X20101356Y-14513356D02*
X20101356Y-14442644D01*
X20030644Y-14442644D01*
X20030644Y-14513356D01*
X20101356Y-14513356D01*
X20355356Y-7782356D02*
X20355356Y-7711644D01*
X20284644Y-7711644D01*
X20284644Y-7782356D01*
X20355356Y-7782356D01*
X20355356Y-8163356D02*
X20355356Y-8092644D01*
X20284644Y-8092644D01*
X20284644Y-8163356D01*
X20355356Y-8163356D01*
X20355356Y-14513356D02*
X20355356Y-14442644D01*
X20284644Y-14442644D01*
X20284644Y-14513356D01*
X20355356Y-14513356D01*
X20609356Y-7782356D02*
X20609356Y-7711644D01*
X20538644Y-7711644D01*
X20538644Y-7782356D01*
X20609356Y-7782356D01*
X20609356Y-8163356D02*
X20609356Y-8092644D01*
X20538644Y-8092644D01*
X20538644Y-8163356D01*
X20609356Y-8163356D01*
X20609356Y-14513356D02*
X20609356Y-14442644D01*
X20538644Y-14442644D01*
X20538644Y-14513356D01*
X20609356Y-14513356D01*
X20863356Y-8163356D02*
X20863356Y-8092644D01*
X20792644Y-8092644D01*
X20792644Y-8163356D01*
X20863356Y-8163356D01*
X20863356Y-14513356D02*
X20863356Y-14442644D01*
X20792644Y-14442644D01*
X20792644Y-14513356D01*
X20863356Y-14513356D01*
X21117356Y-14513356D02*
X21117356Y-14442644D01*
X21046644Y-14442644D01*
X21046644Y-14513356D01*
X21117356Y-14513356D01*
X21371356Y-14513356D02*
X21371356Y-14442644D01*
X21300644Y-14442644D01*
X21300644Y-14513356D01*
X21371356Y-14513356D01*
X21625356Y-14513356D02*
X21625356Y-14442644D01*
X21554644Y-14442644D01*
X21554644Y-14513356D01*
X21625356Y-14513356D01*
X21879356Y-14513356D02*
X21879356Y-14442644D01*
X21808644Y-14442644D01*
X21808644Y-14513356D01*
X21879356Y-14513356D01*
X22133356Y-14513356D02*
X22133356Y-14442644D01*
X22062644Y-14442644D01*
X22062644Y-14513356D01*
X22133356Y-14513356D01*
X22158756Y-12938556D02*
X22158756Y-12867844D01*
X22088044Y-12867844D01*
X22088044Y-12938556D01*
X22158756Y-12938556D01*
X22158756Y-13192556D02*
X22158756Y-13121844D01*
X22088044Y-13121844D01*
X22088044Y-13192556D01*
X22158756Y-13192556D01*
X22387356Y-14513356D02*
X22387356Y-14442644D01*
X22316644Y-14442644D01*
X22316644Y-14513356D01*
X22387356Y-14513356D01*
X22641356Y-14513356D02*
X22641356Y-14442644D01*
X22570644Y-14442644D01*
X22570644Y-14513356D01*
X22641356Y-14513356D01*
X22895356Y-14513356D02*
X22895356Y-14442644D01*
X22824644Y-14442644D01*
X22824644Y-14513356D01*
X22895356Y-14513356D01*
X23149356Y-14513356D02*
X23149356Y-14442644D01*
X23078644Y-14442644D01*
X23078644Y-14513356D01*
X23149356Y-14513356D01*
X23403356Y-14513356D02*
X23403356Y-14442644D01*
X23332644Y-14442644D01*
X23332644Y-14513356D01*
X23403356Y-14513356D01*
X23657356Y-14513356D02*
X23657356Y-14442644D01*
X23586644Y-14442644D01*
X23586644Y-14513356D01*
X23657356Y-14513356D01*
X23911356Y-14513356D02*
X23911356Y-14442644D01*
X23840644Y-14442644D01*
X23840644Y-14513356D01*
X23911356Y-14513356D01*
X24165356Y-14513356D02*
X24165356Y-14442644D01*
X24094644Y-14442644D01*
X24094644Y-14513356D01*
X24165356Y-14513356D01*
X24419356Y-14513356D02*
X24419356Y-14442644D01*
X24348644Y-14442644D01*
X24348644Y-14513356D01*
X24419356Y-14513356D01*
D11*
X5322619Y-15157476D02*
X5322619Y-14957476D01*
X5322619Y-14957476D02*
X5370238Y-14957476D01*
X5370238Y-14957476D02*
X5398810Y-14967000D01*
X5398810Y-14967000D02*
X5417857Y-14986048D01*
X5417857Y-14986048D02*
X5427381Y-15005095D01*
X5427381Y-15005095D02*
X5436905Y-15043190D01*
X5436905Y-15043190D02*
X5436905Y-15071762D01*
X5436905Y-15071762D02*
X5427381Y-15109857D01*
X5427381Y-15109857D02*
X5417857Y-15128905D01*
X5417857Y-15128905D02*
X5398810Y-15147952D01*
X5398810Y-15147952D02*
X5370238Y-15157476D01*
X5370238Y-15157476D02*
X5322619Y-15157476D01*
X5522619Y-15157476D02*
X5522619Y-15024143D01*
X5522619Y-15062238D02*
X5532143Y-15043190D01*
X5532143Y-15043190D02*
X5541667Y-15033667D01*
X5541667Y-15033667D02*
X5560714Y-15024143D01*
X5560714Y-15024143D02*
X5579762Y-15024143D01*
X5646428Y-15157476D02*
X5646428Y-15024143D01*
X5646428Y-14957476D02*
X5636905Y-14967000D01*
X5636905Y-14967000D02*
X5646428Y-14976524D01*
X5646428Y-14976524D02*
X5655952Y-14967000D01*
X5655952Y-14967000D02*
X5646428Y-14957476D01*
X5646428Y-14957476D02*
X5646428Y-14976524D01*
X5770238Y-15157476D02*
X5751190Y-15147952D01*
X5751190Y-15147952D02*
X5741667Y-15128905D01*
X5741667Y-15128905D02*
X5741667Y-14957476D01*
X5875000Y-15157476D02*
X5855952Y-15147952D01*
X5855952Y-15147952D02*
X5846428Y-15128905D01*
X5846428Y-15128905D02*
X5846428Y-14957476D01*
X6071190Y-15157476D02*
X6071190Y-14957476D01*
X6071190Y-14957476D02*
X6137857Y-15100333D01*
X6137857Y-15100333D02*
X6204524Y-14957476D01*
X6204524Y-14957476D02*
X6204524Y-15157476D01*
X6385476Y-15157476D02*
X6385476Y-15052714D01*
X6385476Y-15052714D02*
X6375952Y-15033667D01*
X6375952Y-15033667D02*
X6356905Y-15024143D01*
X6356905Y-15024143D02*
X6318809Y-15024143D01*
X6318809Y-15024143D02*
X6299762Y-15033667D01*
X6385476Y-15147952D02*
X6366428Y-15157476D01*
X6366428Y-15157476D02*
X6318809Y-15157476D01*
X6318809Y-15157476D02*
X6299762Y-15147952D01*
X6299762Y-15147952D02*
X6290238Y-15128905D01*
X6290238Y-15128905D02*
X6290238Y-15109857D01*
X6290238Y-15109857D02*
X6299762Y-15090809D01*
X6299762Y-15090809D02*
X6318809Y-15081286D01*
X6318809Y-15081286D02*
X6366428Y-15081286D01*
X6366428Y-15081286D02*
X6385476Y-15071762D01*
X6480714Y-15024143D02*
X6480714Y-15224143D01*
X6480714Y-15033667D02*
X6499762Y-15024143D01*
X6499762Y-15024143D02*
X6537857Y-15024143D01*
X6537857Y-15024143D02*
X6556905Y-15033667D01*
X6556905Y-15033667D02*
X6566428Y-15043190D01*
X6566428Y-15043190D02*
X6575952Y-15062238D01*
X6575952Y-15062238D02*
X6575952Y-15119381D01*
X6575952Y-15119381D02*
X6566428Y-15138428D01*
X6566428Y-15138428D02*
X6556905Y-15147952D01*
X6556905Y-15147952D02*
X6537857Y-15157476D01*
X6537857Y-15157476D02*
X6499762Y-15157476D01*
X6499762Y-15157476D02*
X6480714Y-15147952D01*
X6661667Y-15138428D02*
X6671190Y-15147952D01*
X6671190Y-15147952D02*
X6661667Y-15157476D01*
X6661667Y-15157476D02*
X6652143Y-15147952D01*
X6652143Y-15147952D02*
X6661667Y-15138428D01*
X6661667Y-15138428D02*
X6661667Y-15157476D01*
X6661667Y-15033667D02*
X6671190Y-15043190D01*
X6671190Y-15043190D02*
X6661667Y-15052714D01*
X6661667Y-15052714D02*
X6652143Y-15043190D01*
X6652143Y-15043190D02*
X6661667Y-15033667D01*
X6661667Y-15033667D02*
X6661667Y-15052714D01*
D12*
X5036900Y-15484950D02*
X5075000Y-15523050D01*
X5075000Y-15484950D02*
X5036900Y-15523050D01*
D11*
X5360714Y-15377476D02*
X5379762Y-15377476D01*
X5379762Y-15377476D02*
X5398810Y-15387000D01*
X5398810Y-15387000D02*
X5408333Y-15396524D01*
X5408333Y-15396524D02*
X5417857Y-15415571D01*
X5417857Y-15415571D02*
X5427381Y-15453667D01*
X5427381Y-15453667D02*
X5427381Y-15501286D01*
X5427381Y-15501286D02*
X5417857Y-15539381D01*
X5417857Y-15539381D02*
X5408333Y-15558428D01*
X5408333Y-15558428D02*
X5398810Y-15567952D01*
X5398810Y-15567952D02*
X5379762Y-15577476D01*
X5379762Y-15577476D02*
X5360714Y-15577476D01*
X5360714Y-15577476D02*
X5341667Y-15567952D01*
X5341667Y-15567952D02*
X5332143Y-15558428D01*
X5332143Y-15558428D02*
X5322619Y-15539381D01*
X5322619Y-15539381D02*
X5313095Y-15501286D01*
X5313095Y-15501286D02*
X5313095Y-15453667D01*
X5313095Y-15453667D02*
X5322619Y-15415571D01*
X5322619Y-15415571D02*
X5332143Y-15396524D01*
X5332143Y-15396524D02*
X5341667Y-15387000D01*
X5341667Y-15387000D02*
X5360714Y-15377476D01*
X5513095Y-15558428D02*
X5522619Y-15567952D01*
X5522619Y-15567952D02*
X5513095Y-15577476D01*
X5513095Y-15577476D02*
X5503571Y-15567952D01*
X5503571Y-15567952D02*
X5513095Y-15558428D01*
X5513095Y-15558428D02*
X5513095Y-15577476D01*
X5589286Y-15377476D02*
X5713095Y-15377476D01*
X5713095Y-15377476D02*
X5646428Y-15453667D01*
X5646428Y-15453667D02*
X5675000Y-15453667D01*
X5675000Y-15453667D02*
X5694048Y-15463190D01*
X5694048Y-15463190D02*
X5703571Y-15472714D01*
X5703571Y-15472714D02*
X5713095Y-15491762D01*
X5713095Y-15491762D02*
X5713095Y-15539381D01*
X5713095Y-15539381D02*
X5703571Y-15558428D01*
X5703571Y-15558428D02*
X5694048Y-15567952D01*
X5694048Y-15567952D02*
X5675000Y-15577476D01*
X5675000Y-15577476D02*
X5617857Y-15577476D01*
X5617857Y-15577476D02*
X5598809Y-15567952D01*
X5598809Y-15567952D02*
X5589286Y-15558428D01*
X5827381Y-15463190D02*
X5808333Y-15453667D01*
X5808333Y-15453667D02*
X5798809Y-15444143D01*
X5798809Y-15444143D02*
X5789286Y-15425095D01*
X5789286Y-15425095D02*
X5789286Y-15415571D01*
X5789286Y-15415571D02*
X5798809Y-15396524D01*
X5798809Y-15396524D02*
X5808333Y-15387000D01*
X5808333Y-15387000D02*
X5827381Y-15377476D01*
X5827381Y-15377476D02*
X5865476Y-15377476D01*
X5865476Y-15377476D02*
X5884524Y-15387000D01*
X5884524Y-15387000D02*
X5894048Y-15396524D01*
X5894048Y-15396524D02*
X5903571Y-15415571D01*
X5903571Y-15415571D02*
X5903571Y-15425095D01*
X5903571Y-15425095D02*
X5894048Y-15444143D01*
X5894048Y-15444143D02*
X5884524Y-15453667D01*
X5884524Y-15453667D02*
X5865476Y-15463190D01*
X5865476Y-15463190D02*
X5827381Y-15463190D01*
X5827381Y-15463190D02*
X5808333Y-15472714D01*
X5808333Y-15472714D02*
X5798809Y-15482238D01*
X5798809Y-15482238D02*
X5789286Y-15501286D01*
X5789286Y-15501286D02*
X5789286Y-15539381D01*
X5789286Y-15539381D02*
X5798809Y-15558428D01*
X5798809Y-15558428D02*
X5808333Y-15567952D01*
X5808333Y-15567952D02*
X5827381Y-15577476D01*
X5827381Y-15577476D02*
X5865476Y-15577476D01*
X5865476Y-15577476D02*
X5884524Y-15567952D01*
X5884524Y-15567952D02*
X5894048Y-15558428D01*
X5894048Y-15558428D02*
X5903571Y-15539381D01*
X5903571Y-15539381D02*
X5903571Y-15501286D01*
X5903571Y-15501286D02*
X5894048Y-15482238D01*
X5894048Y-15482238D02*
X5884524Y-15472714D01*
X5884524Y-15472714D02*
X5865476Y-15463190D01*
X6094048Y-15577476D02*
X5979762Y-15577476D01*
X6036905Y-15577476D02*
X6036905Y-15377476D01*
X6036905Y-15377476D02*
X6017857Y-15406048D01*
X6017857Y-15406048D02*
X5998809Y-15425095D01*
X5998809Y-15425095D02*
X5979762Y-15434619D01*
X6179762Y-15577476D02*
X6179762Y-15444143D01*
X6179762Y-15463190D02*
X6189286Y-15453667D01*
X6189286Y-15453667D02*
X6208333Y-15444143D01*
X6208333Y-15444143D02*
X6236905Y-15444143D01*
X6236905Y-15444143D02*
X6255952Y-15453667D01*
X6255952Y-15453667D02*
X6265476Y-15472714D01*
X6265476Y-15472714D02*
X6265476Y-15577476D01*
X6265476Y-15472714D02*
X6275000Y-15453667D01*
X6275000Y-15453667D02*
X6294048Y-15444143D01*
X6294048Y-15444143D02*
X6322619Y-15444143D01*
X6322619Y-15444143D02*
X6341667Y-15453667D01*
X6341667Y-15453667D02*
X6351190Y-15472714D01*
X6351190Y-15472714D02*
X6351190Y-15577476D01*
X6446429Y-15577476D02*
X6446429Y-15444143D01*
X6446429Y-15463190D02*
X6455952Y-15453667D01*
X6455952Y-15453667D02*
X6475000Y-15444143D01*
X6475000Y-15444143D02*
X6503571Y-15444143D01*
X6503571Y-15444143D02*
X6522619Y-15453667D01*
X6522619Y-15453667D02*
X6532143Y-15472714D01*
X6532143Y-15472714D02*
X6532143Y-15577476D01*
X6532143Y-15472714D02*
X6541667Y-15453667D01*
X6541667Y-15453667D02*
X6560714Y-15444143D01*
X6560714Y-15444143D02*
X6589286Y-15444143D01*
X6589286Y-15444143D02*
X6608333Y-15453667D01*
X6608333Y-15453667D02*
X6617857Y-15472714D01*
X6617857Y-15472714D02*
X6617857Y-15577476D01*
X6975952Y-15367952D02*
X6804524Y-15625095D01*
X7200714Y-15377476D02*
X7219762Y-15377476D01*
X7219762Y-15377476D02*
X7238810Y-15387000D01*
X7238810Y-15387000D02*
X7248333Y-15396524D01*
X7248333Y-15396524D02*
X7257857Y-15415571D01*
X7257857Y-15415571D02*
X7267381Y-15453667D01*
X7267381Y-15453667D02*
X7267381Y-15501286D01*
X7267381Y-15501286D02*
X7257857Y-15539381D01*
X7257857Y-15539381D02*
X7248333Y-15558428D01*
X7248333Y-15558428D02*
X7238810Y-15567952D01*
X7238810Y-15567952D02*
X7219762Y-15577476D01*
X7219762Y-15577476D02*
X7200714Y-15577476D01*
X7200714Y-15577476D02*
X7181667Y-15567952D01*
X7181667Y-15567952D02*
X7172143Y-15558428D01*
X7172143Y-15558428D02*
X7162619Y-15539381D01*
X7162619Y-15539381D02*
X7153095Y-15501286D01*
X7153095Y-15501286D02*
X7153095Y-15453667D01*
X7153095Y-15453667D02*
X7162619Y-15415571D01*
X7162619Y-15415571D02*
X7172143Y-15396524D01*
X7172143Y-15396524D02*
X7181667Y-15387000D01*
X7181667Y-15387000D02*
X7200714Y-15377476D01*
X7353095Y-15558428D02*
X7362619Y-15567952D01*
X7362619Y-15567952D02*
X7353095Y-15577476D01*
X7353095Y-15577476D02*
X7343571Y-15567952D01*
X7343571Y-15567952D02*
X7353095Y-15558428D01*
X7353095Y-15558428D02*
X7353095Y-15577476D01*
X7486429Y-15377476D02*
X7505476Y-15377476D01*
X7505476Y-15377476D02*
X7524524Y-15387000D01*
X7524524Y-15387000D02*
X7534048Y-15396524D01*
X7534048Y-15396524D02*
X7543571Y-15415571D01*
X7543571Y-15415571D02*
X7553095Y-15453667D01*
X7553095Y-15453667D02*
X7553095Y-15501286D01*
X7553095Y-15501286D02*
X7543571Y-15539381D01*
X7543571Y-15539381D02*
X7534048Y-15558428D01*
X7534048Y-15558428D02*
X7524524Y-15567952D01*
X7524524Y-15567952D02*
X7505476Y-15577476D01*
X7505476Y-15577476D02*
X7486429Y-15577476D01*
X7486429Y-15577476D02*
X7467381Y-15567952D01*
X7467381Y-15567952D02*
X7457857Y-15558428D01*
X7457857Y-15558428D02*
X7448333Y-15539381D01*
X7448333Y-15539381D02*
X7438810Y-15501286D01*
X7438810Y-15501286D02*
X7438810Y-15453667D01*
X7438810Y-15453667D02*
X7448333Y-15415571D01*
X7448333Y-15415571D02*
X7457857Y-15396524D01*
X7457857Y-15396524D02*
X7467381Y-15387000D01*
X7467381Y-15387000D02*
X7486429Y-15377476D01*
X7743571Y-15577476D02*
X7629286Y-15577476D01*
X7686429Y-15577476D02*
X7686429Y-15377476D01*
X7686429Y-15377476D02*
X7667381Y-15406048D01*
X7667381Y-15406048D02*
X7648333Y-15425095D01*
X7648333Y-15425095D02*
X7629286Y-15434619D01*
X7924524Y-15377476D02*
X7829286Y-15377476D01*
X7829286Y-15377476D02*
X7819762Y-15472714D01*
X7819762Y-15472714D02*
X7829286Y-15463190D01*
X7829286Y-15463190D02*
X7848333Y-15453667D01*
X7848333Y-15453667D02*
X7895952Y-15453667D01*
X7895952Y-15453667D02*
X7915000Y-15463190D01*
X7915000Y-15463190D02*
X7924524Y-15472714D01*
X7924524Y-15472714D02*
X7934048Y-15491762D01*
X7934048Y-15491762D02*
X7934048Y-15539381D01*
X7934048Y-15539381D02*
X7924524Y-15558428D01*
X7924524Y-15558428D02*
X7915000Y-15567952D01*
X7915000Y-15567952D02*
X7895952Y-15577476D01*
X7895952Y-15577476D02*
X7848333Y-15577476D01*
X7848333Y-15577476D02*
X7829286Y-15567952D01*
X7829286Y-15567952D02*
X7819762Y-15558428D01*
X8057857Y-15377476D02*
X8076905Y-15377476D01*
X8076905Y-15377476D02*
X8095952Y-15387000D01*
X8095952Y-15387000D02*
X8105476Y-15396524D01*
X8105476Y-15396524D02*
X8115000Y-15415571D01*
X8115000Y-15415571D02*
X8124524Y-15453667D01*
X8124524Y-15453667D02*
X8124524Y-15501286D01*
X8124524Y-15501286D02*
X8115000Y-15539381D01*
X8115000Y-15539381D02*
X8105476Y-15558428D01*
X8105476Y-15558428D02*
X8095952Y-15567952D01*
X8095952Y-15567952D02*
X8076905Y-15577476D01*
X8076905Y-15577476D02*
X8057857Y-15577476D01*
X8057857Y-15577476D02*
X8038810Y-15567952D01*
X8038810Y-15567952D02*
X8029286Y-15558428D01*
X8029286Y-15558428D02*
X8019762Y-15539381D01*
X8019762Y-15539381D02*
X8010238Y-15501286D01*
X8010238Y-15501286D02*
X8010238Y-15453667D01*
X8010238Y-15453667D02*
X8019762Y-15415571D01*
X8019762Y-15415571D02*
X8029286Y-15396524D01*
X8029286Y-15396524D02*
X8038810Y-15387000D01*
X8038810Y-15387000D02*
X8057857Y-15377476D01*
X8200714Y-15377476D02*
X8200714Y-15415571D01*
X8276905Y-15377476D02*
X8276905Y-15415571D01*
X8539762Y-15653667D02*
X8530238Y-15644143D01*
X8530238Y-15644143D02*
X8511191Y-15615571D01*
X8511191Y-15615571D02*
X8501667Y-15596524D01*
X8501667Y-15596524D02*
X8492143Y-15567952D01*
X8492143Y-15567952D02*
X8482619Y-15520333D01*
X8482619Y-15520333D02*
X8482619Y-15482238D01*
X8482619Y-15482238D02*
X8492143Y-15434619D01*
X8492143Y-15434619D02*
X8501667Y-15406048D01*
X8501667Y-15406048D02*
X8511191Y-15387000D01*
X8511191Y-15387000D02*
X8530238Y-15358428D01*
X8530238Y-15358428D02*
X8539762Y-15348905D01*
X8596905Y-15377476D02*
X8720714Y-15377476D01*
X8720714Y-15377476D02*
X8654048Y-15453667D01*
X8654048Y-15453667D02*
X8682619Y-15453667D01*
X8682619Y-15453667D02*
X8701667Y-15463190D01*
X8701667Y-15463190D02*
X8711191Y-15472714D01*
X8711191Y-15472714D02*
X8720714Y-15491762D01*
X8720714Y-15491762D02*
X8720714Y-15539381D01*
X8720714Y-15539381D02*
X8711191Y-15558428D01*
X8711191Y-15558428D02*
X8701667Y-15567952D01*
X8701667Y-15567952D02*
X8682619Y-15577476D01*
X8682619Y-15577476D02*
X8625476Y-15577476D01*
X8625476Y-15577476D02*
X8606429Y-15567952D01*
X8606429Y-15567952D02*
X8596905Y-15558428D01*
X8787381Y-15377476D02*
X8920714Y-15377476D01*
X8920714Y-15377476D02*
X8835000Y-15577476D01*
X8977857Y-15377476D02*
X9111191Y-15377476D01*
X9111191Y-15377476D02*
X9025476Y-15577476D01*
X9307381Y-15577476D02*
X9307381Y-15377476D01*
X9393095Y-15577476D02*
X9393095Y-15472714D01*
X9393095Y-15472714D02*
X9383572Y-15453667D01*
X9383572Y-15453667D02*
X9364524Y-15444143D01*
X9364524Y-15444143D02*
X9335953Y-15444143D01*
X9335953Y-15444143D02*
X9316905Y-15453667D01*
X9316905Y-15453667D02*
X9307381Y-15463190D01*
X9516905Y-15577476D02*
X9497857Y-15567952D01*
X9497857Y-15567952D02*
X9488334Y-15558428D01*
X9488334Y-15558428D02*
X9478810Y-15539381D01*
X9478810Y-15539381D02*
X9478810Y-15482238D01*
X9478810Y-15482238D02*
X9488334Y-15463190D01*
X9488334Y-15463190D02*
X9497857Y-15453667D01*
X9497857Y-15453667D02*
X9516905Y-15444143D01*
X9516905Y-15444143D02*
X9545476Y-15444143D01*
X9545476Y-15444143D02*
X9564524Y-15453667D01*
X9564524Y-15453667D02*
X9574048Y-15463190D01*
X9574048Y-15463190D02*
X9583572Y-15482238D01*
X9583572Y-15482238D02*
X9583572Y-15539381D01*
X9583572Y-15539381D02*
X9574048Y-15558428D01*
X9574048Y-15558428D02*
X9564524Y-15567952D01*
X9564524Y-15567952D02*
X9545476Y-15577476D01*
X9545476Y-15577476D02*
X9516905Y-15577476D01*
X9697857Y-15577476D02*
X9678810Y-15567952D01*
X9678810Y-15567952D02*
X9669286Y-15548905D01*
X9669286Y-15548905D02*
X9669286Y-15377476D01*
X9850238Y-15567952D02*
X9831191Y-15577476D01*
X9831191Y-15577476D02*
X9793095Y-15577476D01*
X9793095Y-15577476D02*
X9774048Y-15567952D01*
X9774048Y-15567952D02*
X9764524Y-15548905D01*
X9764524Y-15548905D02*
X9764524Y-15472714D01*
X9764524Y-15472714D02*
X9774048Y-15453667D01*
X9774048Y-15453667D02*
X9793095Y-15444143D01*
X9793095Y-15444143D02*
X9831191Y-15444143D01*
X9831191Y-15444143D02*
X9850238Y-15453667D01*
X9850238Y-15453667D02*
X9859762Y-15472714D01*
X9859762Y-15472714D02*
X9859762Y-15491762D01*
X9859762Y-15491762D02*
X9764524Y-15510809D01*
X9935953Y-15567952D02*
X9955000Y-15577476D01*
X9955000Y-15577476D02*
X9993095Y-15577476D01*
X9993095Y-15577476D02*
X10012143Y-15567952D01*
X10012143Y-15567952D02*
X10021667Y-15548905D01*
X10021667Y-15548905D02*
X10021667Y-15539381D01*
X10021667Y-15539381D02*
X10012143Y-15520333D01*
X10012143Y-15520333D02*
X9993095Y-15510809D01*
X9993095Y-15510809D02*
X9964524Y-15510809D01*
X9964524Y-15510809D02*
X9945476Y-15501286D01*
X9945476Y-15501286D02*
X9935953Y-15482238D01*
X9935953Y-15482238D02*
X9935953Y-15472714D01*
X9935953Y-15472714D02*
X9945476Y-15453667D01*
X9945476Y-15453667D02*
X9964524Y-15444143D01*
X9964524Y-15444143D02*
X9993095Y-15444143D01*
X9993095Y-15444143D02*
X10012143Y-15453667D01*
X10088334Y-15653667D02*
X10097857Y-15644143D01*
X10097857Y-15644143D02*
X10116905Y-15615571D01*
X10116905Y-15615571D02*
X10126429Y-15596524D01*
X10126429Y-15596524D02*
X10135953Y-15567952D01*
X10135953Y-15567952D02*
X10145476Y-15520333D01*
X10145476Y-15520333D02*
X10145476Y-15482238D01*
X10145476Y-15482238D02*
X10135953Y-15434619D01*
X10135953Y-15434619D02*
X10126429Y-15406048D01*
X10126429Y-15406048D02*
X10116905Y-15387000D01*
X10116905Y-15387000D02*
X10097857Y-15358428D01*
X10097857Y-15358428D02*
X10088334Y-15348905D01*
D13*
X5075000Y-15768000D02*
G75*
G03*
X5075000Y-15768000I-40000J0D01*
G01*
D11*
X5360714Y-15641476D02*
X5379762Y-15641476D01*
X5379762Y-15641476D02*
X5398810Y-15651000D01*
X5398810Y-15651000D02*
X5408333Y-15660524D01*
X5408333Y-15660524D02*
X5417857Y-15679571D01*
X5417857Y-15679571D02*
X5427381Y-15717667D01*
X5427381Y-15717667D02*
X5427381Y-15765286D01*
X5427381Y-15765286D02*
X5417857Y-15803381D01*
X5417857Y-15803381D02*
X5408333Y-15822428D01*
X5408333Y-15822428D02*
X5398810Y-15831952D01*
X5398810Y-15831952D02*
X5379762Y-15841476D01*
X5379762Y-15841476D02*
X5360714Y-15841476D01*
X5360714Y-15841476D02*
X5341667Y-15831952D01*
X5341667Y-15831952D02*
X5332143Y-15822428D01*
X5332143Y-15822428D02*
X5322619Y-15803381D01*
X5322619Y-15803381D02*
X5313095Y-15765286D01*
X5313095Y-15765286D02*
X5313095Y-15717667D01*
X5313095Y-15717667D02*
X5322619Y-15679571D01*
X5322619Y-15679571D02*
X5332143Y-15660524D01*
X5332143Y-15660524D02*
X5341667Y-15651000D01*
X5341667Y-15651000D02*
X5360714Y-15641476D01*
X5513095Y-15822428D02*
X5522619Y-15831952D01*
X5522619Y-15831952D02*
X5513095Y-15841476D01*
X5513095Y-15841476D02*
X5503571Y-15831952D01*
X5503571Y-15831952D02*
X5513095Y-15822428D01*
X5513095Y-15822428D02*
X5513095Y-15841476D01*
X5636905Y-15727190D02*
X5617857Y-15717667D01*
X5617857Y-15717667D02*
X5608333Y-15708143D01*
X5608333Y-15708143D02*
X5598809Y-15689095D01*
X5598809Y-15689095D02*
X5598809Y-15679571D01*
X5598809Y-15679571D02*
X5608333Y-15660524D01*
X5608333Y-15660524D02*
X5617857Y-15651000D01*
X5617857Y-15651000D02*
X5636905Y-15641476D01*
X5636905Y-15641476D02*
X5675000Y-15641476D01*
X5675000Y-15641476D02*
X5694048Y-15651000D01*
X5694048Y-15651000D02*
X5703571Y-15660524D01*
X5703571Y-15660524D02*
X5713095Y-15679571D01*
X5713095Y-15679571D02*
X5713095Y-15689095D01*
X5713095Y-15689095D02*
X5703571Y-15708143D01*
X5703571Y-15708143D02*
X5694048Y-15717667D01*
X5694048Y-15717667D02*
X5675000Y-15727190D01*
X5675000Y-15727190D02*
X5636905Y-15727190D01*
X5636905Y-15727190D02*
X5617857Y-15736714D01*
X5617857Y-15736714D02*
X5608333Y-15746238D01*
X5608333Y-15746238D02*
X5598809Y-15765286D01*
X5598809Y-15765286D02*
X5598809Y-15803381D01*
X5598809Y-15803381D02*
X5608333Y-15822428D01*
X5608333Y-15822428D02*
X5617857Y-15831952D01*
X5617857Y-15831952D02*
X5636905Y-15841476D01*
X5636905Y-15841476D02*
X5675000Y-15841476D01*
X5675000Y-15841476D02*
X5694048Y-15831952D01*
X5694048Y-15831952D02*
X5703571Y-15822428D01*
X5703571Y-15822428D02*
X5713095Y-15803381D01*
X5713095Y-15803381D02*
X5713095Y-15765286D01*
X5713095Y-15765286D02*
X5703571Y-15746238D01*
X5703571Y-15746238D02*
X5694048Y-15736714D01*
X5694048Y-15736714D02*
X5675000Y-15727190D01*
X5836905Y-15641476D02*
X5855952Y-15641476D01*
X5855952Y-15641476D02*
X5875000Y-15651000D01*
X5875000Y-15651000D02*
X5884524Y-15660524D01*
X5884524Y-15660524D02*
X5894048Y-15679571D01*
X5894048Y-15679571D02*
X5903571Y-15717667D01*
X5903571Y-15717667D02*
X5903571Y-15765286D01*
X5903571Y-15765286D02*
X5894048Y-15803381D01*
X5894048Y-15803381D02*
X5884524Y-15822428D01*
X5884524Y-15822428D02*
X5875000Y-15831952D01*
X5875000Y-15831952D02*
X5855952Y-15841476D01*
X5855952Y-15841476D02*
X5836905Y-15841476D01*
X5836905Y-15841476D02*
X5817857Y-15831952D01*
X5817857Y-15831952D02*
X5808333Y-15822428D01*
X5808333Y-15822428D02*
X5798809Y-15803381D01*
X5798809Y-15803381D02*
X5789286Y-15765286D01*
X5789286Y-15765286D02*
X5789286Y-15717667D01*
X5789286Y-15717667D02*
X5798809Y-15679571D01*
X5798809Y-15679571D02*
X5808333Y-15660524D01*
X5808333Y-15660524D02*
X5817857Y-15651000D01*
X5817857Y-15651000D02*
X5836905Y-15641476D01*
X6027381Y-15641476D02*
X6046429Y-15641476D01*
X6046429Y-15641476D02*
X6065476Y-15651000D01*
X6065476Y-15651000D02*
X6075000Y-15660524D01*
X6075000Y-15660524D02*
X6084524Y-15679571D01*
X6084524Y-15679571D02*
X6094048Y-15717667D01*
X6094048Y-15717667D02*
X6094048Y-15765286D01*
X6094048Y-15765286D02*
X6084524Y-15803381D01*
X6084524Y-15803381D02*
X6075000Y-15822428D01*
X6075000Y-15822428D02*
X6065476Y-15831952D01*
X6065476Y-15831952D02*
X6046429Y-15841476D01*
X6046429Y-15841476D02*
X6027381Y-15841476D01*
X6027381Y-15841476D02*
X6008333Y-15831952D01*
X6008333Y-15831952D02*
X5998809Y-15822428D01*
X5998809Y-15822428D02*
X5989286Y-15803381D01*
X5989286Y-15803381D02*
X5979762Y-15765286D01*
X5979762Y-15765286D02*
X5979762Y-15717667D01*
X5979762Y-15717667D02*
X5989286Y-15679571D01*
X5989286Y-15679571D02*
X5998809Y-15660524D01*
X5998809Y-15660524D02*
X6008333Y-15651000D01*
X6008333Y-15651000D02*
X6027381Y-15641476D01*
X6179762Y-15841476D02*
X6179762Y-15708143D01*
X6179762Y-15727190D02*
X6189286Y-15717667D01*
X6189286Y-15717667D02*
X6208333Y-15708143D01*
X6208333Y-15708143D02*
X6236905Y-15708143D01*
X6236905Y-15708143D02*
X6255952Y-15717667D01*
X6255952Y-15717667D02*
X6265476Y-15736714D01*
X6265476Y-15736714D02*
X6265476Y-15841476D01*
X6265476Y-15736714D02*
X6275000Y-15717667D01*
X6275000Y-15717667D02*
X6294048Y-15708143D01*
X6294048Y-15708143D02*
X6322619Y-15708143D01*
X6322619Y-15708143D02*
X6341667Y-15717667D01*
X6341667Y-15717667D02*
X6351190Y-15736714D01*
X6351190Y-15736714D02*
X6351190Y-15841476D01*
X6446429Y-15841476D02*
X6446429Y-15708143D01*
X6446429Y-15727190D02*
X6455952Y-15717667D01*
X6455952Y-15717667D02*
X6475000Y-15708143D01*
X6475000Y-15708143D02*
X6503571Y-15708143D01*
X6503571Y-15708143D02*
X6522619Y-15717667D01*
X6522619Y-15717667D02*
X6532143Y-15736714D01*
X6532143Y-15736714D02*
X6532143Y-15841476D01*
X6532143Y-15736714D02*
X6541667Y-15717667D01*
X6541667Y-15717667D02*
X6560714Y-15708143D01*
X6560714Y-15708143D02*
X6589286Y-15708143D01*
X6589286Y-15708143D02*
X6608333Y-15717667D01*
X6608333Y-15717667D02*
X6617857Y-15736714D01*
X6617857Y-15736714D02*
X6617857Y-15841476D01*
X6975952Y-15631952D02*
X6804524Y-15889095D01*
X7200714Y-15641476D02*
X7219762Y-15641476D01*
X7219762Y-15641476D02*
X7238810Y-15651000D01*
X7238810Y-15651000D02*
X7248333Y-15660524D01*
X7248333Y-15660524D02*
X7257857Y-15679571D01*
X7257857Y-15679571D02*
X7267381Y-15717667D01*
X7267381Y-15717667D02*
X7267381Y-15765286D01*
X7267381Y-15765286D02*
X7257857Y-15803381D01*
X7257857Y-15803381D02*
X7248333Y-15822428D01*
X7248333Y-15822428D02*
X7238810Y-15831952D01*
X7238810Y-15831952D02*
X7219762Y-15841476D01*
X7219762Y-15841476D02*
X7200714Y-15841476D01*
X7200714Y-15841476D02*
X7181667Y-15831952D01*
X7181667Y-15831952D02*
X7172143Y-15822428D01*
X7172143Y-15822428D02*
X7162619Y-15803381D01*
X7162619Y-15803381D02*
X7153095Y-15765286D01*
X7153095Y-15765286D02*
X7153095Y-15717667D01*
X7153095Y-15717667D02*
X7162619Y-15679571D01*
X7162619Y-15679571D02*
X7172143Y-15660524D01*
X7172143Y-15660524D02*
X7181667Y-15651000D01*
X7181667Y-15651000D02*
X7200714Y-15641476D01*
X7353095Y-15822428D02*
X7362619Y-15831952D01*
X7362619Y-15831952D02*
X7353095Y-15841476D01*
X7353095Y-15841476D02*
X7343571Y-15831952D01*
X7343571Y-15831952D02*
X7353095Y-15822428D01*
X7353095Y-15822428D02*
X7353095Y-15841476D01*
X7486429Y-15641476D02*
X7505476Y-15641476D01*
X7505476Y-15641476D02*
X7524524Y-15651000D01*
X7524524Y-15651000D02*
X7534048Y-15660524D01*
X7534048Y-15660524D02*
X7543571Y-15679571D01*
X7543571Y-15679571D02*
X7553095Y-15717667D01*
X7553095Y-15717667D02*
X7553095Y-15765286D01*
X7553095Y-15765286D02*
X7543571Y-15803381D01*
X7543571Y-15803381D02*
X7534048Y-15822428D01*
X7534048Y-15822428D02*
X7524524Y-15831952D01*
X7524524Y-15831952D02*
X7505476Y-15841476D01*
X7505476Y-15841476D02*
X7486429Y-15841476D01*
X7486429Y-15841476D02*
X7467381Y-15831952D01*
X7467381Y-15831952D02*
X7457857Y-15822428D01*
X7457857Y-15822428D02*
X7448333Y-15803381D01*
X7448333Y-15803381D02*
X7438810Y-15765286D01*
X7438810Y-15765286D02*
X7438810Y-15717667D01*
X7438810Y-15717667D02*
X7448333Y-15679571D01*
X7448333Y-15679571D02*
X7457857Y-15660524D01*
X7457857Y-15660524D02*
X7467381Y-15651000D01*
X7467381Y-15651000D02*
X7486429Y-15641476D01*
X7619762Y-15641476D02*
X7743571Y-15641476D01*
X7743571Y-15641476D02*
X7676905Y-15717667D01*
X7676905Y-15717667D02*
X7705476Y-15717667D01*
X7705476Y-15717667D02*
X7724524Y-15727190D01*
X7724524Y-15727190D02*
X7734048Y-15736714D01*
X7734048Y-15736714D02*
X7743571Y-15755762D01*
X7743571Y-15755762D02*
X7743571Y-15803381D01*
X7743571Y-15803381D02*
X7734048Y-15822428D01*
X7734048Y-15822428D02*
X7724524Y-15831952D01*
X7724524Y-15831952D02*
X7705476Y-15841476D01*
X7705476Y-15841476D02*
X7648333Y-15841476D01*
X7648333Y-15841476D02*
X7629286Y-15831952D01*
X7629286Y-15831952D02*
X7619762Y-15822428D01*
X7934048Y-15841476D02*
X7819762Y-15841476D01*
X7876905Y-15841476D02*
X7876905Y-15641476D01*
X7876905Y-15641476D02*
X7857857Y-15670048D01*
X7857857Y-15670048D02*
X7838810Y-15689095D01*
X7838810Y-15689095D02*
X7819762Y-15698619D01*
X8115000Y-15641476D02*
X8019762Y-15641476D01*
X8019762Y-15641476D02*
X8010238Y-15736714D01*
X8010238Y-15736714D02*
X8019762Y-15727190D01*
X8019762Y-15727190D02*
X8038810Y-15717667D01*
X8038810Y-15717667D02*
X8086429Y-15717667D01*
X8086429Y-15717667D02*
X8105476Y-15727190D01*
X8105476Y-15727190D02*
X8115000Y-15736714D01*
X8115000Y-15736714D02*
X8124524Y-15755762D01*
X8124524Y-15755762D02*
X8124524Y-15803381D01*
X8124524Y-15803381D02*
X8115000Y-15822428D01*
X8115000Y-15822428D02*
X8105476Y-15831952D01*
X8105476Y-15831952D02*
X8086429Y-15841476D01*
X8086429Y-15841476D02*
X8038810Y-15841476D01*
X8038810Y-15841476D02*
X8019762Y-15831952D01*
X8019762Y-15831952D02*
X8010238Y-15822428D01*
X8200714Y-15641476D02*
X8200714Y-15679571D01*
X8276905Y-15641476D02*
X8276905Y-15679571D01*
X8539762Y-15917667D02*
X8530238Y-15908143D01*
X8530238Y-15908143D02*
X8511191Y-15879571D01*
X8511191Y-15879571D02*
X8501667Y-15860524D01*
X8501667Y-15860524D02*
X8492143Y-15831952D01*
X8492143Y-15831952D02*
X8482619Y-15784333D01*
X8482619Y-15784333D02*
X8482619Y-15746238D01*
X8482619Y-15746238D02*
X8492143Y-15698619D01*
X8492143Y-15698619D02*
X8501667Y-15670048D01*
X8501667Y-15670048D02*
X8511191Y-15651000D01*
X8511191Y-15651000D02*
X8530238Y-15622428D01*
X8530238Y-15622428D02*
X8539762Y-15612905D01*
X8711191Y-15641476D02*
X8615953Y-15641476D01*
X8615953Y-15641476D02*
X8606429Y-15736714D01*
X8606429Y-15736714D02*
X8615953Y-15727190D01*
X8615953Y-15727190D02*
X8635000Y-15717667D01*
X8635000Y-15717667D02*
X8682619Y-15717667D01*
X8682619Y-15717667D02*
X8701667Y-15727190D01*
X8701667Y-15727190D02*
X8711191Y-15736714D01*
X8711191Y-15736714D02*
X8720714Y-15755762D01*
X8720714Y-15755762D02*
X8720714Y-15803381D01*
X8720714Y-15803381D02*
X8711191Y-15822428D01*
X8711191Y-15822428D02*
X8701667Y-15831952D01*
X8701667Y-15831952D02*
X8682619Y-15841476D01*
X8682619Y-15841476D02*
X8635000Y-15841476D01*
X8635000Y-15841476D02*
X8615953Y-15831952D01*
X8615953Y-15831952D02*
X8606429Y-15822428D01*
X8844524Y-15641476D02*
X8863572Y-15641476D01*
X8863572Y-15641476D02*
X8882619Y-15651000D01*
X8882619Y-15651000D02*
X8892143Y-15660524D01*
X8892143Y-15660524D02*
X8901667Y-15679571D01*
X8901667Y-15679571D02*
X8911191Y-15717667D01*
X8911191Y-15717667D02*
X8911191Y-15765286D01*
X8911191Y-15765286D02*
X8901667Y-15803381D01*
X8901667Y-15803381D02*
X8892143Y-15822428D01*
X8892143Y-15822428D02*
X8882619Y-15831952D01*
X8882619Y-15831952D02*
X8863572Y-15841476D01*
X8863572Y-15841476D02*
X8844524Y-15841476D01*
X8844524Y-15841476D02*
X8825476Y-15831952D01*
X8825476Y-15831952D02*
X8815953Y-15822428D01*
X8815953Y-15822428D02*
X8806429Y-15803381D01*
X8806429Y-15803381D02*
X8796905Y-15765286D01*
X8796905Y-15765286D02*
X8796905Y-15717667D01*
X8796905Y-15717667D02*
X8806429Y-15679571D01*
X8806429Y-15679571D02*
X8815953Y-15660524D01*
X8815953Y-15660524D02*
X8825476Y-15651000D01*
X8825476Y-15651000D02*
X8844524Y-15641476D01*
X9025476Y-15727190D02*
X9006429Y-15717667D01*
X9006429Y-15717667D02*
X8996905Y-15708143D01*
X8996905Y-15708143D02*
X8987381Y-15689095D01*
X8987381Y-15689095D02*
X8987381Y-15679571D01*
X8987381Y-15679571D02*
X8996905Y-15660524D01*
X8996905Y-15660524D02*
X9006429Y-15651000D01*
X9006429Y-15651000D02*
X9025476Y-15641476D01*
X9025476Y-15641476D02*
X9063572Y-15641476D01*
X9063572Y-15641476D02*
X9082619Y-15651000D01*
X9082619Y-15651000D02*
X9092143Y-15660524D01*
X9092143Y-15660524D02*
X9101667Y-15679571D01*
X9101667Y-15679571D02*
X9101667Y-15689095D01*
X9101667Y-15689095D02*
X9092143Y-15708143D01*
X9092143Y-15708143D02*
X9082619Y-15717667D01*
X9082619Y-15717667D02*
X9063572Y-15727190D01*
X9063572Y-15727190D02*
X9025476Y-15727190D01*
X9025476Y-15727190D02*
X9006429Y-15736714D01*
X9006429Y-15736714D02*
X8996905Y-15746238D01*
X8996905Y-15746238D02*
X8987381Y-15765286D01*
X8987381Y-15765286D02*
X8987381Y-15803381D01*
X8987381Y-15803381D02*
X8996905Y-15822428D01*
X8996905Y-15822428D02*
X9006429Y-15831952D01*
X9006429Y-15831952D02*
X9025476Y-15841476D01*
X9025476Y-15841476D02*
X9063572Y-15841476D01*
X9063572Y-15841476D02*
X9082619Y-15831952D01*
X9082619Y-15831952D02*
X9092143Y-15822428D01*
X9092143Y-15822428D02*
X9101667Y-15803381D01*
X9101667Y-15803381D02*
X9101667Y-15765286D01*
X9101667Y-15765286D02*
X9092143Y-15746238D01*
X9092143Y-15746238D02*
X9082619Y-15736714D01*
X9082619Y-15736714D02*
X9063572Y-15727190D01*
X9307381Y-15841476D02*
X9307381Y-15641476D01*
X9393095Y-15841476D02*
X9393095Y-15736714D01*
X9393095Y-15736714D02*
X9383572Y-15717667D01*
X9383572Y-15717667D02*
X9364524Y-15708143D01*
X9364524Y-15708143D02*
X9335953Y-15708143D01*
X9335953Y-15708143D02*
X9316905Y-15717667D01*
X9316905Y-15717667D02*
X9307381Y-15727190D01*
X9516905Y-15841476D02*
X9497857Y-15831952D01*
X9497857Y-15831952D02*
X9488334Y-15822428D01*
X9488334Y-15822428D02*
X9478810Y-15803381D01*
X9478810Y-15803381D02*
X9478810Y-15746238D01*
X9478810Y-15746238D02*
X9488334Y-15727190D01*
X9488334Y-15727190D02*
X9497857Y-15717667D01*
X9497857Y-15717667D02*
X9516905Y-15708143D01*
X9516905Y-15708143D02*
X9545476Y-15708143D01*
X9545476Y-15708143D02*
X9564524Y-15717667D01*
X9564524Y-15717667D02*
X9574048Y-15727190D01*
X9574048Y-15727190D02*
X9583572Y-15746238D01*
X9583572Y-15746238D02*
X9583572Y-15803381D01*
X9583572Y-15803381D02*
X9574048Y-15822428D01*
X9574048Y-15822428D02*
X9564524Y-15831952D01*
X9564524Y-15831952D02*
X9545476Y-15841476D01*
X9545476Y-15841476D02*
X9516905Y-15841476D01*
X9697857Y-15841476D02*
X9678810Y-15831952D01*
X9678810Y-15831952D02*
X9669286Y-15812905D01*
X9669286Y-15812905D02*
X9669286Y-15641476D01*
X9850238Y-15831952D02*
X9831191Y-15841476D01*
X9831191Y-15841476D02*
X9793095Y-15841476D01*
X9793095Y-15841476D02*
X9774048Y-15831952D01*
X9774048Y-15831952D02*
X9764524Y-15812905D01*
X9764524Y-15812905D02*
X9764524Y-15736714D01*
X9764524Y-15736714D02*
X9774048Y-15717667D01*
X9774048Y-15717667D02*
X9793095Y-15708143D01*
X9793095Y-15708143D02*
X9831191Y-15708143D01*
X9831191Y-15708143D02*
X9850238Y-15717667D01*
X9850238Y-15717667D02*
X9859762Y-15736714D01*
X9859762Y-15736714D02*
X9859762Y-15755762D01*
X9859762Y-15755762D02*
X9764524Y-15774809D01*
X9935953Y-15831952D02*
X9955000Y-15841476D01*
X9955000Y-15841476D02*
X9993095Y-15841476D01*
X9993095Y-15841476D02*
X10012143Y-15831952D01*
X10012143Y-15831952D02*
X10021667Y-15812905D01*
X10021667Y-15812905D02*
X10021667Y-15803381D01*
X10021667Y-15803381D02*
X10012143Y-15784333D01*
X10012143Y-15784333D02*
X9993095Y-15774809D01*
X9993095Y-15774809D02*
X9964524Y-15774809D01*
X9964524Y-15774809D02*
X9945476Y-15765286D01*
X9945476Y-15765286D02*
X9935953Y-15746238D01*
X9935953Y-15746238D02*
X9935953Y-15736714D01*
X9935953Y-15736714D02*
X9945476Y-15717667D01*
X9945476Y-15717667D02*
X9964524Y-15708143D01*
X9964524Y-15708143D02*
X9993095Y-15708143D01*
X9993095Y-15708143D02*
X10012143Y-15717667D01*
X10088334Y-15917667D02*
X10097857Y-15908143D01*
X10097857Y-15908143D02*
X10116905Y-15879571D01*
X10116905Y-15879571D02*
X10126429Y-15860524D01*
X10126429Y-15860524D02*
X10135953Y-15831952D01*
X10135953Y-15831952D02*
X10145476Y-15784333D01*
X10145476Y-15784333D02*
X10145476Y-15746238D01*
X10145476Y-15746238D02*
X10135953Y-15698619D01*
X10135953Y-15698619D02*
X10126429Y-15670048D01*
X10126429Y-15670048D02*
X10116905Y-15651000D01*
X10116905Y-15651000D02*
X10097857Y-15622428D01*
X10097857Y-15622428D02*
X10088334Y-15612905D01*
D14*
X5030000Y-15987000D02*
X5030000Y-16077000D01*
X4985000Y-16032000D02*
X5075000Y-16032000D01*
D11*
X5360714Y-15905476D02*
X5379762Y-15905476D01*
X5379762Y-15905476D02*
X5398810Y-15915000D01*
X5398810Y-15915000D02*
X5408333Y-15924524D01*
X5408333Y-15924524D02*
X5417857Y-15943571D01*
X5417857Y-15943571D02*
X5427381Y-15981667D01*
X5427381Y-15981667D02*
X5427381Y-16029286D01*
X5427381Y-16029286D02*
X5417857Y-16067381D01*
X5417857Y-16067381D02*
X5408333Y-16086428D01*
X5408333Y-16086428D02*
X5398810Y-16095952D01*
X5398810Y-16095952D02*
X5379762Y-16105476D01*
X5379762Y-16105476D02*
X5360714Y-16105476D01*
X5360714Y-16105476D02*
X5341667Y-16095952D01*
X5341667Y-16095952D02*
X5332143Y-16086428D01*
X5332143Y-16086428D02*
X5322619Y-16067381D01*
X5322619Y-16067381D02*
X5313095Y-16029286D01*
X5313095Y-16029286D02*
X5313095Y-15981667D01*
X5313095Y-15981667D02*
X5322619Y-15943571D01*
X5322619Y-15943571D02*
X5332143Y-15924524D01*
X5332143Y-15924524D02*
X5341667Y-15915000D01*
X5341667Y-15915000D02*
X5360714Y-15905476D01*
X5513095Y-16086428D02*
X5522619Y-16095952D01*
X5522619Y-16095952D02*
X5513095Y-16105476D01*
X5513095Y-16105476D02*
X5503571Y-16095952D01*
X5503571Y-16095952D02*
X5513095Y-16086428D01*
X5513095Y-16086428D02*
X5513095Y-16105476D01*
X5617857Y-16105476D02*
X5655952Y-16105476D01*
X5655952Y-16105476D02*
X5675000Y-16095952D01*
X5675000Y-16095952D02*
X5684524Y-16086428D01*
X5684524Y-16086428D02*
X5703571Y-16057857D01*
X5703571Y-16057857D02*
X5713095Y-16019762D01*
X5713095Y-16019762D02*
X5713095Y-15943571D01*
X5713095Y-15943571D02*
X5703571Y-15924524D01*
X5703571Y-15924524D02*
X5694048Y-15915000D01*
X5694048Y-15915000D02*
X5675000Y-15905476D01*
X5675000Y-15905476D02*
X5636905Y-15905476D01*
X5636905Y-15905476D02*
X5617857Y-15915000D01*
X5617857Y-15915000D02*
X5608333Y-15924524D01*
X5608333Y-15924524D02*
X5598809Y-15943571D01*
X5598809Y-15943571D02*
X5598809Y-15991190D01*
X5598809Y-15991190D02*
X5608333Y-16010238D01*
X5608333Y-16010238D02*
X5617857Y-16019762D01*
X5617857Y-16019762D02*
X5636905Y-16029286D01*
X5636905Y-16029286D02*
X5675000Y-16029286D01*
X5675000Y-16029286D02*
X5694048Y-16019762D01*
X5694048Y-16019762D02*
X5703571Y-16010238D01*
X5703571Y-16010238D02*
X5713095Y-15991190D01*
X5836905Y-15905476D02*
X5855952Y-15905476D01*
X5855952Y-15905476D02*
X5875000Y-15915000D01*
X5875000Y-15915000D02*
X5884524Y-15924524D01*
X5884524Y-15924524D02*
X5894048Y-15943571D01*
X5894048Y-15943571D02*
X5903571Y-15981667D01*
X5903571Y-15981667D02*
X5903571Y-16029286D01*
X5903571Y-16029286D02*
X5894048Y-16067381D01*
X5894048Y-16067381D02*
X5884524Y-16086428D01*
X5884524Y-16086428D02*
X5875000Y-16095952D01*
X5875000Y-16095952D02*
X5855952Y-16105476D01*
X5855952Y-16105476D02*
X5836905Y-16105476D01*
X5836905Y-16105476D02*
X5817857Y-16095952D01*
X5817857Y-16095952D02*
X5808333Y-16086428D01*
X5808333Y-16086428D02*
X5798809Y-16067381D01*
X5798809Y-16067381D02*
X5789286Y-16029286D01*
X5789286Y-16029286D02*
X5789286Y-15981667D01*
X5789286Y-15981667D02*
X5798809Y-15943571D01*
X5798809Y-15943571D02*
X5808333Y-15924524D01*
X5808333Y-15924524D02*
X5817857Y-15915000D01*
X5817857Y-15915000D02*
X5836905Y-15905476D01*
X6027381Y-15905476D02*
X6046429Y-15905476D01*
X6046429Y-15905476D02*
X6065476Y-15915000D01*
X6065476Y-15915000D02*
X6075000Y-15924524D01*
X6075000Y-15924524D02*
X6084524Y-15943571D01*
X6084524Y-15943571D02*
X6094048Y-15981667D01*
X6094048Y-15981667D02*
X6094048Y-16029286D01*
X6094048Y-16029286D02*
X6084524Y-16067381D01*
X6084524Y-16067381D02*
X6075000Y-16086428D01*
X6075000Y-16086428D02*
X6065476Y-16095952D01*
X6065476Y-16095952D02*
X6046429Y-16105476D01*
X6046429Y-16105476D02*
X6027381Y-16105476D01*
X6027381Y-16105476D02*
X6008333Y-16095952D01*
X6008333Y-16095952D02*
X5998809Y-16086428D01*
X5998809Y-16086428D02*
X5989286Y-16067381D01*
X5989286Y-16067381D02*
X5979762Y-16029286D01*
X5979762Y-16029286D02*
X5979762Y-15981667D01*
X5979762Y-15981667D02*
X5989286Y-15943571D01*
X5989286Y-15943571D02*
X5998809Y-15924524D01*
X5998809Y-15924524D02*
X6008333Y-15915000D01*
X6008333Y-15915000D02*
X6027381Y-15905476D01*
X6179762Y-16105476D02*
X6179762Y-15972143D01*
X6179762Y-15991190D02*
X6189286Y-15981667D01*
X6189286Y-15981667D02*
X6208333Y-15972143D01*
X6208333Y-15972143D02*
X6236905Y-15972143D01*
X6236905Y-15972143D02*
X6255952Y-15981667D01*
X6255952Y-15981667D02*
X6265476Y-16000714D01*
X6265476Y-16000714D02*
X6265476Y-16105476D01*
X6265476Y-16000714D02*
X6275000Y-15981667D01*
X6275000Y-15981667D02*
X6294048Y-15972143D01*
X6294048Y-15972143D02*
X6322619Y-15972143D01*
X6322619Y-15972143D02*
X6341667Y-15981667D01*
X6341667Y-15981667D02*
X6351190Y-16000714D01*
X6351190Y-16000714D02*
X6351190Y-16105476D01*
X6446429Y-16105476D02*
X6446429Y-15972143D01*
X6446429Y-15991190D02*
X6455952Y-15981667D01*
X6455952Y-15981667D02*
X6475000Y-15972143D01*
X6475000Y-15972143D02*
X6503571Y-15972143D01*
X6503571Y-15972143D02*
X6522619Y-15981667D01*
X6522619Y-15981667D02*
X6532143Y-16000714D01*
X6532143Y-16000714D02*
X6532143Y-16105476D01*
X6532143Y-16000714D02*
X6541667Y-15981667D01*
X6541667Y-15981667D02*
X6560714Y-15972143D01*
X6560714Y-15972143D02*
X6589286Y-15972143D01*
X6589286Y-15972143D02*
X6608333Y-15981667D01*
X6608333Y-15981667D02*
X6617857Y-16000714D01*
X6617857Y-16000714D02*
X6617857Y-16105476D01*
X6975952Y-15895952D02*
X6804524Y-16153095D01*
X7200714Y-15905476D02*
X7219762Y-15905476D01*
X7219762Y-15905476D02*
X7238810Y-15915000D01*
X7238810Y-15915000D02*
X7248333Y-15924524D01*
X7248333Y-15924524D02*
X7257857Y-15943571D01*
X7257857Y-15943571D02*
X7267381Y-15981667D01*
X7267381Y-15981667D02*
X7267381Y-16029286D01*
X7267381Y-16029286D02*
X7257857Y-16067381D01*
X7257857Y-16067381D02*
X7248333Y-16086428D01*
X7248333Y-16086428D02*
X7238810Y-16095952D01*
X7238810Y-16095952D02*
X7219762Y-16105476D01*
X7219762Y-16105476D02*
X7200714Y-16105476D01*
X7200714Y-16105476D02*
X7181667Y-16095952D01*
X7181667Y-16095952D02*
X7172143Y-16086428D01*
X7172143Y-16086428D02*
X7162619Y-16067381D01*
X7162619Y-16067381D02*
X7153095Y-16029286D01*
X7153095Y-16029286D02*
X7153095Y-15981667D01*
X7153095Y-15981667D02*
X7162619Y-15943571D01*
X7162619Y-15943571D02*
X7172143Y-15924524D01*
X7172143Y-15924524D02*
X7181667Y-15915000D01*
X7181667Y-15915000D02*
X7200714Y-15905476D01*
X7353095Y-16086428D02*
X7362619Y-16095952D01*
X7362619Y-16095952D02*
X7353095Y-16105476D01*
X7353095Y-16105476D02*
X7343571Y-16095952D01*
X7343571Y-16095952D02*
X7353095Y-16086428D01*
X7353095Y-16086428D02*
X7353095Y-16105476D01*
X7486429Y-15905476D02*
X7505476Y-15905476D01*
X7505476Y-15905476D02*
X7524524Y-15915000D01*
X7524524Y-15915000D02*
X7534048Y-15924524D01*
X7534048Y-15924524D02*
X7543571Y-15943571D01*
X7543571Y-15943571D02*
X7553095Y-15981667D01*
X7553095Y-15981667D02*
X7553095Y-16029286D01*
X7553095Y-16029286D02*
X7543571Y-16067381D01*
X7543571Y-16067381D02*
X7534048Y-16086428D01*
X7534048Y-16086428D02*
X7524524Y-16095952D01*
X7524524Y-16095952D02*
X7505476Y-16105476D01*
X7505476Y-16105476D02*
X7486429Y-16105476D01*
X7486429Y-16105476D02*
X7467381Y-16095952D01*
X7467381Y-16095952D02*
X7457857Y-16086428D01*
X7457857Y-16086428D02*
X7448333Y-16067381D01*
X7448333Y-16067381D02*
X7438810Y-16029286D01*
X7438810Y-16029286D02*
X7438810Y-15981667D01*
X7438810Y-15981667D02*
X7448333Y-15943571D01*
X7448333Y-15943571D02*
X7457857Y-15924524D01*
X7457857Y-15924524D02*
X7467381Y-15915000D01*
X7467381Y-15915000D02*
X7486429Y-15905476D01*
X7619762Y-15905476D02*
X7743571Y-15905476D01*
X7743571Y-15905476D02*
X7676905Y-15981667D01*
X7676905Y-15981667D02*
X7705476Y-15981667D01*
X7705476Y-15981667D02*
X7724524Y-15991190D01*
X7724524Y-15991190D02*
X7734048Y-16000714D01*
X7734048Y-16000714D02*
X7743571Y-16019762D01*
X7743571Y-16019762D02*
X7743571Y-16067381D01*
X7743571Y-16067381D02*
X7734048Y-16086428D01*
X7734048Y-16086428D02*
X7724524Y-16095952D01*
X7724524Y-16095952D02*
X7705476Y-16105476D01*
X7705476Y-16105476D02*
X7648333Y-16105476D01*
X7648333Y-16105476D02*
X7629286Y-16095952D01*
X7629286Y-16095952D02*
X7619762Y-16086428D01*
X7924524Y-15905476D02*
X7829286Y-15905476D01*
X7829286Y-15905476D02*
X7819762Y-16000714D01*
X7819762Y-16000714D02*
X7829286Y-15991190D01*
X7829286Y-15991190D02*
X7848333Y-15981667D01*
X7848333Y-15981667D02*
X7895952Y-15981667D01*
X7895952Y-15981667D02*
X7915000Y-15991190D01*
X7915000Y-15991190D02*
X7924524Y-16000714D01*
X7924524Y-16000714D02*
X7934048Y-16019762D01*
X7934048Y-16019762D02*
X7934048Y-16067381D01*
X7934048Y-16067381D02*
X7924524Y-16086428D01*
X7924524Y-16086428D02*
X7915000Y-16095952D01*
X7915000Y-16095952D02*
X7895952Y-16105476D01*
X7895952Y-16105476D02*
X7848333Y-16105476D01*
X7848333Y-16105476D02*
X7829286Y-16095952D01*
X7829286Y-16095952D02*
X7819762Y-16086428D01*
X8105476Y-15972143D02*
X8105476Y-16105476D01*
X8057857Y-15895952D02*
X8010238Y-16038809D01*
X8010238Y-16038809D02*
X8134048Y-16038809D01*
X8200714Y-15905476D02*
X8200714Y-15943571D01*
X8276905Y-15905476D02*
X8276905Y-15943571D01*
X8539762Y-16181667D02*
X8530238Y-16172143D01*
X8530238Y-16172143D02*
X8511191Y-16143571D01*
X8511191Y-16143571D02*
X8501667Y-16124524D01*
X8501667Y-16124524D02*
X8492143Y-16095952D01*
X8492143Y-16095952D02*
X8482619Y-16048333D01*
X8482619Y-16048333D02*
X8482619Y-16010238D01*
X8482619Y-16010238D02*
X8492143Y-15962619D01*
X8492143Y-15962619D02*
X8501667Y-15934048D01*
X8501667Y-15934048D02*
X8511191Y-15915000D01*
X8511191Y-15915000D02*
X8530238Y-15886428D01*
X8530238Y-15886428D02*
X8539762Y-15876905D01*
X8596905Y-15905476D02*
X8720714Y-15905476D01*
X8720714Y-15905476D02*
X8654048Y-15981667D01*
X8654048Y-15981667D02*
X8682619Y-15981667D01*
X8682619Y-15981667D02*
X8701667Y-15991190D01*
X8701667Y-15991190D02*
X8711191Y-16000714D01*
X8711191Y-16000714D02*
X8720714Y-16019762D01*
X8720714Y-16019762D02*
X8720714Y-16067381D01*
X8720714Y-16067381D02*
X8711191Y-16086428D01*
X8711191Y-16086428D02*
X8701667Y-16095952D01*
X8701667Y-16095952D02*
X8682619Y-16105476D01*
X8682619Y-16105476D02*
X8625476Y-16105476D01*
X8625476Y-16105476D02*
X8606429Y-16095952D01*
X8606429Y-16095952D02*
X8596905Y-16086428D01*
X8796905Y-15924524D02*
X8806429Y-15915000D01*
X8806429Y-15915000D02*
X8825476Y-15905476D01*
X8825476Y-15905476D02*
X8873095Y-15905476D01*
X8873095Y-15905476D02*
X8892143Y-15915000D01*
X8892143Y-15915000D02*
X8901667Y-15924524D01*
X8901667Y-15924524D02*
X8911191Y-15943571D01*
X8911191Y-15943571D02*
X8911191Y-15962619D01*
X8911191Y-15962619D02*
X8901667Y-15991190D01*
X8901667Y-15991190D02*
X8787381Y-16105476D01*
X8787381Y-16105476D02*
X8911191Y-16105476D01*
X9116905Y-16105476D02*
X9116905Y-15905476D01*
X9202619Y-16105476D02*
X9202619Y-16000714D01*
X9202619Y-16000714D02*
X9193095Y-15981667D01*
X9193095Y-15981667D02*
X9174048Y-15972143D01*
X9174048Y-15972143D02*
X9145476Y-15972143D01*
X9145476Y-15972143D02*
X9126429Y-15981667D01*
X9126429Y-15981667D02*
X9116905Y-15991190D01*
X9326429Y-16105476D02*
X9307381Y-16095952D01*
X9307381Y-16095952D02*
X9297857Y-16086428D01*
X9297857Y-16086428D02*
X9288334Y-16067381D01*
X9288334Y-16067381D02*
X9288334Y-16010238D01*
X9288334Y-16010238D02*
X9297857Y-15991190D01*
X9297857Y-15991190D02*
X9307381Y-15981667D01*
X9307381Y-15981667D02*
X9326429Y-15972143D01*
X9326429Y-15972143D02*
X9355000Y-15972143D01*
X9355000Y-15972143D02*
X9374048Y-15981667D01*
X9374048Y-15981667D02*
X9383572Y-15991190D01*
X9383572Y-15991190D02*
X9393095Y-16010238D01*
X9393095Y-16010238D02*
X9393095Y-16067381D01*
X9393095Y-16067381D02*
X9383572Y-16086428D01*
X9383572Y-16086428D02*
X9374048Y-16095952D01*
X9374048Y-16095952D02*
X9355000Y-16105476D01*
X9355000Y-16105476D02*
X9326429Y-16105476D01*
X9507381Y-16105476D02*
X9488334Y-16095952D01*
X9488334Y-16095952D02*
X9478810Y-16076905D01*
X9478810Y-16076905D02*
X9478810Y-15905476D01*
X9659762Y-16095952D02*
X9640715Y-16105476D01*
X9640715Y-16105476D02*
X9602619Y-16105476D01*
X9602619Y-16105476D02*
X9583572Y-16095952D01*
X9583572Y-16095952D02*
X9574048Y-16076905D01*
X9574048Y-16076905D02*
X9574048Y-16000714D01*
X9574048Y-16000714D02*
X9583572Y-15981667D01*
X9583572Y-15981667D02*
X9602619Y-15972143D01*
X9602619Y-15972143D02*
X9640715Y-15972143D01*
X9640715Y-15972143D02*
X9659762Y-15981667D01*
X9659762Y-15981667D02*
X9669286Y-16000714D01*
X9669286Y-16000714D02*
X9669286Y-16019762D01*
X9669286Y-16019762D02*
X9574048Y-16038809D01*
X9745476Y-16095952D02*
X9764524Y-16105476D01*
X9764524Y-16105476D02*
X9802619Y-16105476D01*
X9802619Y-16105476D02*
X9821667Y-16095952D01*
X9821667Y-16095952D02*
X9831191Y-16076905D01*
X9831191Y-16076905D02*
X9831191Y-16067381D01*
X9831191Y-16067381D02*
X9821667Y-16048333D01*
X9821667Y-16048333D02*
X9802619Y-16038809D01*
X9802619Y-16038809D02*
X9774048Y-16038809D01*
X9774048Y-16038809D02*
X9755000Y-16029286D01*
X9755000Y-16029286D02*
X9745476Y-16010238D01*
X9745476Y-16010238D02*
X9745476Y-16000714D01*
X9745476Y-16000714D02*
X9755000Y-15981667D01*
X9755000Y-15981667D02*
X9774048Y-15972143D01*
X9774048Y-15972143D02*
X9802619Y-15972143D01*
X9802619Y-15972143D02*
X9821667Y-15981667D01*
X9897857Y-16181667D02*
X9907381Y-16172143D01*
X9907381Y-16172143D02*
X9926429Y-16143571D01*
X9926429Y-16143571D02*
X9935953Y-16124524D01*
X9935953Y-16124524D02*
X9945476Y-16095952D01*
X9945476Y-16095952D02*
X9955000Y-16048333D01*
X9955000Y-16048333D02*
X9955000Y-16010238D01*
X9955000Y-16010238D02*
X9945476Y-15962619D01*
X9945476Y-15962619D02*
X9935953Y-15934048D01*
X9935953Y-15934048D02*
X9926429Y-15915000D01*
X9926429Y-15915000D02*
X9907381Y-15886428D01*
X9907381Y-15886428D02*
X9897857Y-15876905D01*
D10*
X5060356Y-16331356D02*
X5060356Y-16260644D01*
X4989644Y-16260644D01*
X4989644Y-16331356D01*
X5060356Y-16331356D01*
D11*
X5427381Y-16369476D02*
X5313095Y-16369476D01*
X5370238Y-16369476D02*
X5370238Y-16169476D01*
X5370238Y-16169476D02*
X5351190Y-16198048D01*
X5351190Y-16198048D02*
X5332143Y-16217095D01*
X5332143Y-16217095D02*
X5313095Y-16226619D01*
X5513095Y-16350428D02*
X5522619Y-16359952D01*
X5522619Y-16359952D02*
X5513095Y-16369476D01*
X5513095Y-16369476D02*
X5503571Y-16359952D01*
X5503571Y-16359952D02*
X5513095Y-16350428D01*
X5513095Y-16350428D02*
X5513095Y-16369476D01*
X5646428Y-16169476D02*
X5665476Y-16169476D01*
X5665476Y-16169476D02*
X5684524Y-16179000D01*
X5684524Y-16179000D02*
X5694048Y-16188524D01*
X5694048Y-16188524D02*
X5703571Y-16207571D01*
X5703571Y-16207571D02*
X5713095Y-16245667D01*
X5713095Y-16245667D02*
X5713095Y-16293286D01*
X5713095Y-16293286D02*
X5703571Y-16331381D01*
X5703571Y-16331381D02*
X5694048Y-16350428D01*
X5694048Y-16350428D02*
X5684524Y-16359952D01*
X5684524Y-16359952D02*
X5665476Y-16369476D01*
X5665476Y-16369476D02*
X5646428Y-16369476D01*
X5646428Y-16369476D02*
X5627381Y-16359952D01*
X5627381Y-16359952D02*
X5617857Y-16350428D01*
X5617857Y-16350428D02*
X5608333Y-16331381D01*
X5608333Y-16331381D02*
X5598809Y-16293286D01*
X5598809Y-16293286D02*
X5598809Y-16245667D01*
X5598809Y-16245667D02*
X5608333Y-16207571D01*
X5608333Y-16207571D02*
X5617857Y-16188524D01*
X5617857Y-16188524D02*
X5627381Y-16179000D01*
X5627381Y-16179000D02*
X5646428Y-16169476D01*
X5836905Y-16169476D02*
X5855952Y-16169476D01*
X5855952Y-16169476D02*
X5875000Y-16179000D01*
X5875000Y-16179000D02*
X5884524Y-16188524D01*
X5884524Y-16188524D02*
X5894048Y-16207571D01*
X5894048Y-16207571D02*
X5903571Y-16245667D01*
X5903571Y-16245667D02*
X5903571Y-16293286D01*
X5903571Y-16293286D02*
X5894048Y-16331381D01*
X5894048Y-16331381D02*
X5884524Y-16350428D01*
X5884524Y-16350428D02*
X5875000Y-16359952D01*
X5875000Y-16359952D02*
X5855952Y-16369476D01*
X5855952Y-16369476D02*
X5836905Y-16369476D01*
X5836905Y-16369476D02*
X5817857Y-16359952D01*
X5817857Y-16359952D02*
X5808333Y-16350428D01*
X5808333Y-16350428D02*
X5798809Y-16331381D01*
X5798809Y-16331381D02*
X5789286Y-16293286D01*
X5789286Y-16293286D02*
X5789286Y-16245667D01*
X5789286Y-16245667D02*
X5798809Y-16207571D01*
X5798809Y-16207571D02*
X5808333Y-16188524D01*
X5808333Y-16188524D02*
X5817857Y-16179000D01*
X5817857Y-16179000D02*
X5836905Y-16169476D01*
X6027381Y-16169476D02*
X6046429Y-16169476D01*
X6046429Y-16169476D02*
X6065476Y-16179000D01*
X6065476Y-16179000D02*
X6075000Y-16188524D01*
X6075000Y-16188524D02*
X6084524Y-16207571D01*
X6084524Y-16207571D02*
X6094048Y-16245667D01*
X6094048Y-16245667D02*
X6094048Y-16293286D01*
X6094048Y-16293286D02*
X6084524Y-16331381D01*
X6084524Y-16331381D02*
X6075000Y-16350428D01*
X6075000Y-16350428D02*
X6065476Y-16359952D01*
X6065476Y-16359952D02*
X6046429Y-16369476D01*
X6046429Y-16369476D02*
X6027381Y-16369476D01*
X6027381Y-16369476D02*
X6008333Y-16359952D01*
X6008333Y-16359952D02*
X5998809Y-16350428D01*
X5998809Y-16350428D02*
X5989286Y-16331381D01*
X5989286Y-16331381D02*
X5979762Y-16293286D01*
X5979762Y-16293286D02*
X5979762Y-16245667D01*
X5979762Y-16245667D02*
X5989286Y-16207571D01*
X5989286Y-16207571D02*
X5998809Y-16188524D01*
X5998809Y-16188524D02*
X6008333Y-16179000D01*
X6008333Y-16179000D02*
X6027381Y-16169476D01*
X6179762Y-16369476D02*
X6179762Y-16236143D01*
X6179762Y-16255190D02*
X6189286Y-16245667D01*
X6189286Y-16245667D02*
X6208333Y-16236143D01*
X6208333Y-16236143D02*
X6236905Y-16236143D01*
X6236905Y-16236143D02*
X6255952Y-16245667D01*
X6255952Y-16245667D02*
X6265476Y-16264714D01*
X6265476Y-16264714D02*
X6265476Y-16369476D01*
X6265476Y-16264714D02*
X6275000Y-16245667D01*
X6275000Y-16245667D02*
X6294048Y-16236143D01*
X6294048Y-16236143D02*
X6322619Y-16236143D01*
X6322619Y-16236143D02*
X6341667Y-16245667D01*
X6341667Y-16245667D02*
X6351190Y-16264714D01*
X6351190Y-16264714D02*
X6351190Y-16369476D01*
X6446429Y-16369476D02*
X6446429Y-16236143D01*
X6446429Y-16255190D02*
X6455952Y-16245667D01*
X6455952Y-16245667D02*
X6475000Y-16236143D01*
X6475000Y-16236143D02*
X6503571Y-16236143D01*
X6503571Y-16236143D02*
X6522619Y-16245667D01*
X6522619Y-16245667D02*
X6532143Y-16264714D01*
X6532143Y-16264714D02*
X6532143Y-16369476D01*
X6532143Y-16264714D02*
X6541667Y-16245667D01*
X6541667Y-16245667D02*
X6560714Y-16236143D01*
X6560714Y-16236143D02*
X6589286Y-16236143D01*
X6589286Y-16236143D02*
X6608333Y-16245667D01*
X6608333Y-16245667D02*
X6617857Y-16264714D01*
X6617857Y-16264714D02*
X6617857Y-16369476D01*
X6975952Y-16159952D02*
X6804524Y-16417095D01*
X7200714Y-16169476D02*
X7219762Y-16169476D01*
X7219762Y-16169476D02*
X7238810Y-16179000D01*
X7238810Y-16179000D02*
X7248333Y-16188524D01*
X7248333Y-16188524D02*
X7257857Y-16207571D01*
X7257857Y-16207571D02*
X7267381Y-16245667D01*
X7267381Y-16245667D02*
X7267381Y-16293286D01*
X7267381Y-16293286D02*
X7257857Y-16331381D01*
X7257857Y-16331381D02*
X7248333Y-16350428D01*
X7248333Y-16350428D02*
X7238810Y-16359952D01*
X7238810Y-16359952D02*
X7219762Y-16369476D01*
X7219762Y-16369476D02*
X7200714Y-16369476D01*
X7200714Y-16369476D02*
X7181667Y-16359952D01*
X7181667Y-16359952D02*
X7172143Y-16350428D01*
X7172143Y-16350428D02*
X7162619Y-16331381D01*
X7162619Y-16331381D02*
X7153095Y-16293286D01*
X7153095Y-16293286D02*
X7153095Y-16245667D01*
X7153095Y-16245667D02*
X7162619Y-16207571D01*
X7162619Y-16207571D02*
X7172143Y-16188524D01*
X7172143Y-16188524D02*
X7181667Y-16179000D01*
X7181667Y-16179000D02*
X7200714Y-16169476D01*
X7353095Y-16350428D02*
X7362619Y-16359952D01*
X7362619Y-16359952D02*
X7353095Y-16369476D01*
X7353095Y-16369476D02*
X7343571Y-16359952D01*
X7343571Y-16359952D02*
X7353095Y-16350428D01*
X7353095Y-16350428D02*
X7353095Y-16369476D01*
X7486429Y-16169476D02*
X7505476Y-16169476D01*
X7505476Y-16169476D02*
X7524524Y-16179000D01*
X7524524Y-16179000D02*
X7534048Y-16188524D01*
X7534048Y-16188524D02*
X7543571Y-16207571D01*
X7543571Y-16207571D02*
X7553095Y-16245667D01*
X7553095Y-16245667D02*
X7553095Y-16293286D01*
X7553095Y-16293286D02*
X7543571Y-16331381D01*
X7543571Y-16331381D02*
X7534048Y-16350428D01*
X7534048Y-16350428D02*
X7524524Y-16359952D01*
X7524524Y-16359952D02*
X7505476Y-16369476D01*
X7505476Y-16369476D02*
X7486429Y-16369476D01*
X7486429Y-16369476D02*
X7467381Y-16359952D01*
X7467381Y-16359952D02*
X7457857Y-16350428D01*
X7457857Y-16350428D02*
X7448333Y-16331381D01*
X7448333Y-16331381D02*
X7438810Y-16293286D01*
X7438810Y-16293286D02*
X7438810Y-16245667D01*
X7438810Y-16245667D02*
X7448333Y-16207571D01*
X7448333Y-16207571D02*
X7457857Y-16188524D01*
X7457857Y-16188524D02*
X7467381Y-16179000D01*
X7467381Y-16179000D02*
X7486429Y-16169476D01*
X7619762Y-16169476D02*
X7743571Y-16169476D01*
X7743571Y-16169476D02*
X7676905Y-16245667D01*
X7676905Y-16245667D02*
X7705476Y-16245667D01*
X7705476Y-16245667D02*
X7724524Y-16255190D01*
X7724524Y-16255190D02*
X7734048Y-16264714D01*
X7734048Y-16264714D02*
X7743571Y-16283762D01*
X7743571Y-16283762D02*
X7743571Y-16331381D01*
X7743571Y-16331381D02*
X7734048Y-16350428D01*
X7734048Y-16350428D02*
X7724524Y-16359952D01*
X7724524Y-16359952D02*
X7705476Y-16369476D01*
X7705476Y-16369476D02*
X7648333Y-16369476D01*
X7648333Y-16369476D02*
X7629286Y-16359952D01*
X7629286Y-16359952D02*
X7619762Y-16350428D01*
X7838810Y-16369476D02*
X7876905Y-16369476D01*
X7876905Y-16369476D02*
X7895952Y-16359952D01*
X7895952Y-16359952D02*
X7905476Y-16350428D01*
X7905476Y-16350428D02*
X7924524Y-16321857D01*
X7924524Y-16321857D02*
X7934048Y-16283762D01*
X7934048Y-16283762D02*
X7934048Y-16207571D01*
X7934048Y-16207571D02*
X7924524Y-16188524D01*
X7924524Y-16188524D02*
X7915000Y-16179000D01*
X7915000Y-16179000D02*
X7895952Y-16169476D01*
X7895952Y-16169476D02*
X7857857Y-16169476D01*
X7857857Y-16169476D02*
X7838810Y-16179000D01*
X7838810Y-16179000D02*
X7829286Y-16188524D01*
X7829286Y-16188524D02*
X7819762Y-16207571D01*
X7819762Y-16207571D02*
X7819762Y-16255190D01*
X7819762Y-16255190D02*
X7829286Y-16274238D01*
X7829286Y-16274238D02*
X7838810Y-16283762D01*
X7838810Y-16283762D02*
X7857857Y-16293286D01*
X7857857Y-16293286D02*
X7895952Y-16293286D01*
X7895952Y-16293286D02*
X7915000Y-16283762D01*
X7915000Y-16283762D02*
X7924524Y-16274238D01*
X7924524Y-16274238D02*
X7934048Y-16255190D01*
X8105476Y-16236143D02*
X8105476Y-16369476D01*
X8057857Y-16159952D02*
X8010238Y-16302809D01*
X8010238Y-16302809D02*
X8134048Y-16302809D01*
X8200714Y-16169476D02*
X8200714Y-16207571D01*
X8276905Y-16169476D02*
X8276905Y-16207571D01*
X8539762Y-16445667D02*
X8530238Y-16436143D01*
X8530238Y-16436143D02*
X8511191Y-16407571D01*
X8511191Y-16407571D02*
X8501667Y-16388524D01*
X8501667Y-16388524D02*
X8492143Y-16359952D01*
X8492143Y-16359952D02*
X8482619Y-16312333D01*
X8482619Y-16312333D02*
X8482619Y-16274238D01*
X8482619Y-16274238D02*
X8492143Y-16226619D01*
X8492143Y-16226619D02*
X8501667Y-16198048D01*
X8501667Y-16198048D02*
X8511191Y-16179000D01*
X8511191Y-16179000D02*
X8530238Y-16150428D01*
X8530238Y-16150428D02*
X8539762Y-16140905D01*
X8720714Y-16369476D02*
X8606429Y-16369476D01*
X8663572Y-16369476D02*
X8663572Y-16169476D01*
X8663572Y-16169476D02*
X8644524Y-16198048D01*
X8644524Y-16198048D02*
X8625476Y-16217095D01*
X8625476Y-16217095D02*
X8606429Y-16226619D01*
X8844524Y-16169476D02*
X8863572Y-16169476D01*
X8863572Y-16169476D02*
X8882619Y-16179000D01*
X8882619Y-16179000D02*
X8892143Y-16188524D01*
X8892143Y-16188524D02*
X8901667Y-16207571D01*
X8901667Y-16207571D02*
X8911191Y-16245667D01*
X8911191Y-16245667D02*
X8911191Y-16293286D01*
X8911191Y-16293286D02*
X8901667Y-16331381D01*
X8901667Y-16331381D02*
X8892143Y-16350428D01*
X8892143Y-16350428D02*
X8882619Y-16359952D01*
X8882619Y-16359952D02*
X8863572Y-16369476D01*
X8863572Y-16369476D02*
X8844524Y-16369476D01*
X8844524Y-16369476D02*
X8825476Y-16359952D01*
X8825476Y-16359952D02*
X8815953Y-16350428D01*
X8815953Y-16350428D02*
X8806429Y-16331381D01*
X8806429Y-16331381D02*
X8796905Y-16293286D01*
X8796905Y-16293286D02*
X8796905Y-16245667D01*
X8796905Y-16245667D02*
X8806429Y-16207571D01*
X8806429Y-16207571D02*
X8815953Y-16188524D01*
X8815953Y-16188524D02*
X8825476Y-16179000D01*
X8825476Y-16179000D02*
X8844524Y-16169476D01*
X9101667Y-16369476D02*
X8987381Y-16369476D01*
X9044524Y-16369476D02*
X9044524Y-16169476D01*
X9044524Y-16169476D02*
X9025476Y-16198048D01*
X9025476Y-16198048D02*
X9006429Y-16217095D01*
X9006429Y-16217095D02*
X8987381Y-16226619D01*
X9307381Y-16369476D02*
X9307381Y-16169476D01*
X9393095Y-16369476D02*
X9393095Y-16264714D01*
X9393095Y-16264714D02*
X9383572Y-16245667D01*
X9383572Y-16245667D02*
X9364524Y-16236143D01*
X9364524Y-16236143D02*
X9335953Y-16236143D01*
X9335953Y-16236143D02*
X9316905Y-16245667D01*
X9316905Y-16245667D02*
X9307381Y-16255190D01*
X9516905Y-16369476D02*
X9497857Y-16359952D01*
X9497857Y-16359952D02*
X9488334Y-16350428D01*
X9488334Y-16350428D02*
X9478810Y-16331381D01*
X9478810Y-16331381D02*
X9478810Y-16274238D01*
X9478810Y-16274238D02*
X9488334Y-16255190D01*
X9488334Y-16255190D02*
X9497857Y-16245667D01*
X9497857Y-16245667D02*
X9516905Y-16236143D01*
X9516905Y-16236143D02*
X9545476Y-16236143D01*
X9545476Y-16236143D02*
X9564524Y-16245667D01*
X9564524Y-16245667D02*
X9574048Y-16255190D01*
X9574048Y-16255190D02*
X9583572Y-16274238D01*
X9583572Y-16274238D02*
X9583572Y-16331381D01*
X9583572Y-16331381D02*
X9574048Y-16350428D01*
X9574048Y-16350428D02*
X9564524Y-16359952D01*
X9564524Y-16359952D02*
X9545476Y-16369476D01*
X9545476Y-16369476D02*
X9516905Y-16369476D01*
X9697857Y-16369476D02*
X9678810Y-16359952D01*
X9678810Y-16359952D02*
X9669286Y-16340905D01*
X9669286Y-16340905D02*
X9669286Y-16169476D01*
X9850238Y-16359952D02*
X9831191Y-16369476D01*
X9831191Y-16369476D02*
X9793095Y-16369476D01*
X9793095Y-16369476D02*
X9774048Y-16359952D01*
X9774048Y-16359952D02*
X9764524Y-16340905D01*
X9764524Y-16340905D02*
X9764524Y-16264714D01*
X9764524Y-16264714D02*
X9774048Y-16245667D01*
X9774048Y-16245667D02*
X9793095Y-16236143D01*
X9793095Y-16236143D02*
X9831191Y-16236143D01*
X9831191Y-16236143D02*
X9850238Y-16245667D01*
X9850238Y-16245667D02*
X9859762Y-16264714D01*
X9859762Y-16264714D02*
X9859762Y-16283762D01*
X9859762Y-16283762D02*
X9764524Y-16302809D01*
X9935953Y-16359952D02*
X9955000Y-16369476D01*
X9955000Y-16369476D02*
X9993095Y-16369476D01*
X9993095Y-16369476D02*
X10012143Y-16359952D01*
X10012143Y-16359952D02*
X10021667Y-16340905D01*
X10021667Y-16340905D02*
X10021667Y-16331381D01*
X10021667Y-16331381D02*
X10012143Y-16312333D01*
X10012143Y-16312333D02*
X9993095Y-16302809D01*
X9993095Y-16302809D02*
X9964524Y-16302809D01*
X9964524Y-16302809D02*
X9945476Y-16293286D01*
X9945476Y-16293286D02*
X9935953Y-16274238D01*
X9935953Y-16274238D02*
X9935953Y-16264714D01*
X9935953Y-16264714D02*
X9945476Y-16245667D01*
X9945476Y-16245667D02*
X9964524Y-16236143D01*
X9964524Y-16236143D02*
X9993095Y-16236143D01*
X9993095Y-16236143D02*
X10012143Y-16245667D01*
X10088334Y-16445667D02*
X10097857Y-16436143D01*
X10097857Y-16436143D02*
X10116905Y-16407571D01*
X10116905Y-16407571D02*
X10126429Y-16388524D01*
X10126429Y-16388524D02*
X10135953Y-16359952D01*
X10135953Y-16359952D02*
X10145476Y-16312333D01*
X10145476Y-16312333D02*
X10145476Y-16274238D01*
X10145476Y-16274238D02*
X10135953Y-16226619D01*
X10135953Y-16226619D02*
X10126429Y-16198048D01*
X10126429Y-16198048D02*
X10116905Y-16179000D01*
X10116905Y-16179000D02*
X10097857Y-16150428D01*
X10097857Y-16150428D02*
X10088334Y-16140905D01*
M02*
