M48
; DRILL file {KiCad (7.0.0)} date Thu Mar 28 20:26:26 2024
; FORMAT={-:-/ absolute / metric / decimal}
; #@! TF.CreationDate,2024-03-28T20:26:26-07:00
; #@! TF.GenerationSoftware,Kicad,Pcbnew,(7.0.0)
; #@! TF.FileFunction,Plated,1,2,PTH
FMAT,2
METRIC
; #@! TA.AperFunction,Plated,PTH,ViaDrill
T1C0.381
; #@! TA.AperFunction,Plated,PTH,ComponentDrill
T2C0.800
; #@! TA.AperFunction,Plated,PTH,ComponentDrill
T3C0.900
; #@! TA.AperFunction,Plated,PTH,ComponentDrill
T4C1.000
%
G90
G05
T1
X53.34Y-121.92
X54.356Y-100.33
X55.118Y-94.234
X57.658Y-97.028
X58.42Y-130.302
X63.5Y-131.064
X64.516Y-110.744
X64.77Y-125.222
X64.77Y-131.064
X66.04Y-131.826
X67.31Y-125.222
X67.31Y-131.826
X69.85Y-82.55
X73.66Y-133.35
X75.692Y-116.332
X76.2Y-93.98
X76.2Y-134.112
X76.708Y-117.094
X77.47Y-125.222
X77.47Y-132.588
X77.724Y-117.856
X78.232Y-78.486
X78.232Y-80.01
X78.232Y-104.394
X78.232Y-109.143
X78.994Y-96.774
X80.01Y-125.222
X80.01Y-133.35
X81.28Y-121.92
X82.042Y-80.01
X82.042Y-93.98
X82.55Y-100.33
X83.058Y-79.248
X83.058Y-80.772
X83.058Y-93.218
X83.058Y-94.742
X84.582Y-107.696
X85.344Y-115.316
X85.344Y-119.38
X85.598Y-80.772
X85.598Y-94.742
X85.598Y-106.934
X85.598Y-108.458
X85.598Y-109.982
X85.598Y-125.222
X86.614Y-80.01
X86.614Y-81.534
X86.868Y-113.792
X86.868Y-115.316
X86.868Y-120.65
X86.868Y-122.174
X87.63Y-97.536
X88.138Y-125.222
X88.9Y-95.25
X90.17Y-115.57
X90.17Y-118.618
X91.186Y-129.286
X92.71Y-93.218
X92.71Y-109.22
X92.71Y-129.286
X93.98Y-96.774
X93.98Y-110.49
X95.25Y-86.614
X96.266Y-75.184
X98.044Y-141.732
X98.044Y-144.018
X100.33Y-75.946
X101.092Y-93.98
X101.092Y-108.458
X101.092Y-119.888
X101.092Y-122.428
X101.854Y-107.696
X102.616Y-101.346
X102.87Y-75.946
X102.87Y-97.79
X102.87Y-106.934
X106.172Y-89.916
X106.172Y-100.584
X109.982Y-93.98
X110.49Y-108.458
X110.49Y-113.03
X110.744Y-89.916
X110.998Y-94.742
X110.998Y-99.06
X110.998Y-100.584
X111.252Y-107.696
X111.252Y-109.22
X111.76Y-88.9
X111.76Y-137.16
X113.284Y-109.22
X113.538Y-83.82
X113.538Y-85.852
X113.538Y-94.742
X113.538Y-100.584
X114.046Y-108.458
X114.3Y-137.16
X114.554Y-93.98
X115.062Y-142.494
X115.57Y-89.916
X116.586Y-88.9
X116.84Y-97.028
X116.84Y-137.16
X118.11Y-86.614
X118.11Y-115.316
X119.126Y-116.078
X119.38Y-137.16
X120.13Y-116.84
X120.65Y-67.056
X120.65Y-75.692
X120.65Y-80.264
X120.904Y-102.616
X121.92Y-96.266
X121.92Y-137.16
X124.46Y-97.028
X124.46Y-137.16
X124.714Y-108.712
X126.746Y-108.712
X127.0Y-137.16
X128.143Y-114.427
X129.54Y-97.028
X129.54Y-137.16
X132.08Y-123.19
X133.35Y-87.884
X135.369Y-87.65
X135.636Y-86.614
X135.636Y-105.41
X135.636Y-106.934
X136.906Y-85.852
X137.668Y-91.186
X137.668Y-99.06
X137.668Y-101.346
X137.668Y-105.156
X137.668Y-108.204
X137.668Y-115.062
X137.668Y-117.602
X137.668Y-119.888
X137.668Y-123.444
X138.938Y-89.916
X139.446Y-99.06
X139.446Y-101.346
X139.446Y-105.156
X139.446Y-108.204
X139.446Y-115.062
X139.446Y-117.602
X139.446Y-119.888
X139.446Y-123.444
X139.954Y-88.9
X140.462Y-92.71
X142.494Y-129.286
X143.764Y-106.934
X144.272Y-88.9
X144.272Y-94.234
X144.272Y-102.108
X144.272Y-103.124
X144.272Y-115.824
X144.272Y-116.84
X144.78Y-129.286
X144.78Y-143.256
X146.304Y-88.9
X146.304Y-115.824
X146.304Y-116.84
X146.558Y-94.234
X146.558Y-106.934
X147.32Y-123.19
X148.59Y-93.472
X148.59Y-95.25
X148.59Y-121.158
X151.13Y-117.094
X151.13Y-123.19
X152.908Y-109.982
X157.48Y-116.332
X158.496Y-146.812
X158.75Y-123.19
X161.036Y-146.812
X162.052Y-111.506
X162.814Y-143.764
X163.068Y-110.744
X165.862Y-112.268
X166.37Y-100.076
X166.37Y-104.14
X167.386Y-100.076
X167.386Y-102.616
X167.64Y-78.74
X167.64Y-128.778
X168.402Y-100.076
X168.402Y-104.14
X168.402Y-109.474
X168.402Y-113.284
X168.402Y-119.888
X168.402Y-123.19
X173.736Y-94.996
X173.736Y-108.204
X174.244Y-89.154
X174.498Y-94.234
X174.498Y-102.616
X174.498Y-108.966
X174.752Y-116.332
X177.038Y-94.234
X177.038Y-102.616
X177.038Y-108.966
X177.8Y-94.996
X177.8Y-108.204
X179.07Y-129.54
X179.07Y-131.064
X179.578Y-68.326
X180.34Y-55.372
X180.34Y-57.15
X180.594Y-116.332
X181.102Y-97.536
X182.118Y-96.774
X182.88Y-129.54
X182.88Y-136.398
X184.15Y-93.472
X184.15Y-100.33
X184.15Y-102.362
X184.15Y-129.54
X184.15Y-131.826
X184.912Y-66.04
X185.42Y-129.54
X185.42Y-135.636
X186.436Y-66.03
X186.69Y-63.5
X186.69Y-73.66
X186.69Y-103.632
X186.69Y-109.982
X189.23Y-63.5
X189.23Y-68.326
X189.23Y-73.66
X189.484Y-81.534
X189.484Y-87.884
X189.484Y-96.774
X191.516Y-83.566
X191.516Y-87.884
X191.77Y-97.536
X191.77Y-129.54
X191.77Y-132.588
X193.04Y-129.54
X193.04Y-134.874
X194.31Y-129.54
X194.31Y-133.35
X194.818Y-89.916
X195.072Y-99.822
X195.072Y-102.87
X195.326Y-94.488
X195.58Y-129.54
X195.58Y-134.112
X196.088Y-95.25
X196.596Y-86.868
X197.866Y-104.648
X197.866Y-107.696
X198.12Y-100.838
X198.12Y-116.84
X198.12Y-121.92
X198.882Y-104.648
X198.882Y-109.22
X199.136Y-101.6
X199.39Y-93.726
X199.39Y-121.158
X200.152Y-92.964
X202.184Y-94.996
X202.184Y-96.52
X202.438Y-89.154
X202.438Y-101.6
X202.946Y-94.234
X202.946Y-95.758
X203.454Y-108.458
X203.708Y-106.934
X204.216Y-111.506
X204.47Y-129.54
X204.47Y-146.812
X204.978Y-101.6
X205.74Y-131.064
X208.28Y-119.38
X208.28Y-131.826
X210.058Y-73.152
X210.058Y-77.47
X210.82Y-114.808
X210.82Y-132.588
X211.328Y-74.168
X211.328Y-77.47
X212.09Y-92.964
X212.09Y-97.028
X213.36Y-133.35
X215.9Y-101.6
X215.9Y-134.112
X217.17Y-103.886
X217.678Y-122.682
X218.44Y-134.874
X219.71Y-111.506
X220.472Y-108.458
X220.98Y-95.758
X220.98Y-135.636
X221.234Y-107.696
X221.742Y-93.472
X221.996Y-106.934
X222.25Y-89.916
X222.25Y-101.6
X223.266Y-97.028
X223.52Y-136.398
X223.774Y-103.886
X224.028Y-100.584
X224.536Y-97.79
X224.79Y-79.756
X224.79Y-83.058
X226.06Y-137.16
X226.314Y-88.392
X227.076Y-87.63
X227.076Y-89.154
X227.33Y-81.28
X227.33Y-94.234
X227.33Y-102.362
X227.33Y-108.204
X227.584Y-113.03
X228.092Y-80.518
X228.092Y-82.042
X228.092Y-93.472
X228.092Y-99.06
X228.092Y-103.124
X228.092Y-108.966
X228.169Y-101.6
X228.6Y-136.398
X228.6Y-137.922
X229.87Y-142.494
X230.124Y-80.518
X230.124Y-82.042
X230.124Y-87.63
X230.124Y-89.154
X230.124Y-101.6
X230.124Y-103.124
X230.124Y-108.966
X230.886Y-81.28
X230.886Y-88.392
X230.886Y-102.362
X230.886Y-108.204
X231.14Y-136.398
X231.14Y-138.684
X232.41Y-83.566
X232.41Y-86.614
X232.41Y-97.282
X232.41Y-141.732
X233.426Y-81.28
X233.68Y-95.504
X233.68Y-136.398
X233.68Y-139.446
X234.95Y-86.614
X234.95Y-140.97
X236.22Y-94.234
X236.22Y-136.398
X236.22Y-140.208
X237.49Y-111.506
X238.76Y-73.406
X238.76Y-94.742
X238.76Y-136.398
X238.76Y-139.446
X238.76Y-140.97
X239.014Y-115.316
X240.03Y-110.744
X240.792Y-93.472
X241.3Y-107.442
X241.3Y-136.398
X241.3Y-138.684
X241.3Y-141.732
X242.57Y-88.392
X242.57Y-92.71
X243.332Y-107.442
X243.84Y-136.398
X243.84Y-137.922
X245.11Y-68.58
X245.11Y-71.12
X245.11Y-75.946
X246.38Y-110.744
X247.65Y-75.946
X247.65Y-111.506
X248.92Y-67.818
X249.174Y-79.756
X250.952Y-93.98
X252.222Y-95.25
T2
X53.34Y-77.47
X53.34Y-82.47
X53.34Y-91.44
X53.34Y-96.44
X53.34Y-105.41
X53.34Y-110.41
X53.34Y-119.38
X53.34Y-124.38
X56.388Y-134.366
X56.388Y-136.866
X58.42Y-77.47
X58.42Y-85.09
X58.42Y-91.44
X58.42Y-99.06
X58.42Y-105.41
X58.42Y-113.03
X58.42Y-119.38
X58.42Y-127.0
X60.96Y-77.47
X60.96Y-85.09
X60.96Y-91.44
X60.96Y-99.06
X60.96Y-105.41
X60.96Y-113.03
X60.96Y-119.38
X60.96Y-127.0
X63.5Y-77.47
X63.5Y-85.09
X63.5Y-91.44
X63.5Y-99.06
X63.5Y-105.41
X63.5Y-113.03
X63.5Y-119.38
X63.5Y-127.0
X66.04Y-77.47
X66.04Y-85.09
X66.04Y-91.44
X66.04Y-99.06
X66.04Y-105.41
X66.04Y-113.03
X66.04Y-119.38
X66.04Y-127.0
X68.58Y-77.47
X68.58Y-85.09
X68.58Y-91.44
X68.58Y-99.06
X68.58Y-105.41
X68.58Y-113.03
X68.58Y-119.38
X68.58Y-127.0
X71.12Y-77.47
X71.12Y-85.09
X71.12Y-91.44
X71.12Y-99.06
X71.12Y-105.41
X71.12Y-113.03
X71.12Y-119.38
X71.12Y-127.0
X73.66Y-77.47
X73.66Y-85.09
X73.66Y-91.44
X73.66Y-99.06
X73.66Y-105.41
X73.66Y-113.03
X73.66Y-119.38
X73.66Y-127.0
X76.2Y-105.41
X76.2Y-113.03
X76.2Y-119.38
X76.2Y-127.0
X78.74Y-119.38
X78.74Y-127.0
X81.28Y-77.47
X81.28Y-82.47
X81.28Y-91.44
X81.28Y-96.44
X81.28Y-119.38
X81.28Y-127.0
X83.82Y-71.12
X83.82Y-105.41
X83.82Y-110.41
X86.36Y-71.12
X86.36Y-77.47
X86.36Y-85.09
X86.36Y-91.44
X86.36Y-99.06
X88.9Y-71.12
X88.9Y-77.47
X88.9Y-85.09
X88.9Y-91.44
X88.9Y-99.06
X88.9Y-105.41
X88.9Y-113.03
X91.44Y-71.12
X91.44Y-77.47
X91.44Y-85.09
X91.44Y-91.44
X91.44Y-99.06
X91.44Y-105.41
X91.44Y-113.03
X93.98Y-71.12
X93.98Y-77.47
X93.98Y-85.09
X93.98Y-91.44
X93.98Y-99.06
X93.98Y-105.41
X93.98Y-113.03
X96.52Y-71.12
X96.52Y-77.47
X96.52Y-85.09
X96.52Y-91.44
X96.52Y-99.06
X96.52Y-105.41
X96.52Y-113.03
X99.06Y-71.12
X99.06Y-77.47
X99.06Y-85.09
X99.06Y-91.44
X99.06Y-99.06
X99.06Y-105.41
X99.06Y-113.03
X101.6Y-71.12
X101.6Y-77.47
X101.6Y-85.09
X101.6Y-91.44
X101.6Y-99.06
X101.6Y-105.41
X101.6Y-113.03
X104.14Y-71.12
X104.14Y-77.47
X104.14Y-85.09
X104.14Y-91.44
X104.14Y-99.06
X104.14Y-105.41
X104.14Y-113.03
X104.14Y-119.38
X104.14Y-124.38
X107.95Y-71.12
X109.22Y-91.44
X109.22Y-96.44
X109.22Y-105.41
X109.22Y-110.41
X109.22Y-119.38
X109.22Y-127.0
X111.76Y-77.47
X111.76Y-82.47
X111.76Y-119.38
X111.76Y-127.0
X114.3Y-91.44
X114.3Y-99.06
X114.3Y-105.41
X114.3Y-113.03
X114.3Y-119.38
X114.3Y-127.0
X116.84Y-77.47
X116.84Y-85.09
X116.84Y-91.44
X116.84Y-99.06
X116.84Y-105.41
X116.84Y-113.03
X116.84Y-119.38
X116.84Y-127.0
X118.11Y-71.12
X119.38Y-77.47
X119.38Y-85.09
X119.38Y-91.44
X119.38Y-99.06
X119.38Y-105.41
X119.38Y-113.03
X119.38Y-119.38
X119.38Y-127.0
X121.92Y-71.12
X121.92Y-77.47
X121.92Y-85.09
X121.92Y-91.44
X121.92Y-99.06
X121.92Y-105.41
X121.92Y-113.03
X121.92Y-119.38
X121.92Y-127.0
X124.46Y-77.47
X124.46Y-85.09
X124.46Y-91.44
X124.46Y-99.06
X124.46Y-105.41
X124.46Y-113.03
X124.46Y-119.38
X124.46Y-127.0
X127.0Y-60.96
X127.0Y-77.47
X127.0Y-85.09
X127.0Y-91.44
X127.0Y-99.06
X127.0Y-105.41
X127.0Y-113.03
X127.0Y-119.38
X127.0Y-127.0
X129.54Y-63.5
X129.54Y-77.47
X129.54Y-85.09
X129.54Y-91.44
X129.54Y-99.06
X129.54Y-105.41
X129.54Y-113.03
X129.54Y-119.38
X129.54Y-127.0
X132.08Y-60.96
X132.08Y-71.12
X132.08Y-77.47
X132.08Y-85.09
X132.08Y-91.44
X132.08Y-99.06
X132.08Y-105.41
X132.08Y-113.03
X132.08Y-119.38
X132.08Y-127.0
X137.16Y-66.04
X137.16Y-71.12
X139.7Y-71.12
X142.24Y-71.12
X142.24Y-77.47
X142.24Y-82.47
X142.24Y-91.44
X142.24Y-96.44
X142.24Y-105.41
X142.24Y-110.41
X142.24Y-119.38
X142.24Y-124.38
X144.78Y-71.12
X147.32Y-66.04
X147.32Y-71.12
X147.32Y-77.47
X147.32Y-85.09
X147.32Y-91.44
X147.32Y-99.06
X147.32Y-105.41
X147.32Y-113.03
X147.32Y-119.38
X147.32Y-127.0
X149.86Y-71.12
X149.86Y-77.47
X149.86Y-85.09
X149.86Y-91.44
X149.86Y-99.06
X149.86Y-105.41
X149.86Y-113.03
X149.86Y-119.38
X149.86Y-127.0
X152.4Y-66.04
X152.4Y-71.12
X152.4Y-77.47
X152.4Y-85.09
X152.4Y-91.44
X152.4Y-99.06
X152.4Y-105.41
X152.4Y-113.03
X152.4Y-119.38
X152.4Y-127.0
X154.94Y-71.12
X154.94Y-77.47
X154.94Y-85.09
X154.94Y-91.44
X154.94Y-99.06
X154.94Y-105.41
X154.94Y-113.03
X154.94Y-119.38
X154.94Y-127.0
X157.48Y-71.12
X157.48Y-77.47
X157.48Y-85.09
X157.48Y-91.44
X157.48Y-99.06
X157.48Y-105.41
X157.48Y-113.03
X157.48Y-119.38
X157.48Y-127.0
X160.02Y-71.12
X160.02Y-77.47
X160.02Y-85.09
X160.02Y-91.44
X160.02Y-99.06
X160.02Y-105.41
X160.02Y-113.03
X160.02Y-119.38
X160.02Y-127.0
X162.56Y-66.04
X162.56Y-77.47
X162.56Y-85.09
X162.56Y-91.44
X162.56Y-99.06
X162.56Y-105.41
X162.56Y-113.03
X162.56Y-119.38
X162.56Y-127.0
X164.164Y-71.12
X165.1Y-77.47
X165.1Y-85.09
X165.1Y-119.38
X165.1Y-127.0
X169.164Y-71.12
X172.72Y-91.44
X172.72Y-96.44
X172.72Y-105.41
X172.72Y-110.41
X172.72Y-119.38
X172.72Y-124.38
X175.26Y-60.96
X177.8Y-63.5
X177.8Y-91.44
X177.8Y-99.06
X177.8Y-105.41
X177.8Y-113.03
X177.8Y-119.38
X177.8Y-127.0
X180.34Y-60.96
X180.34Y-91.44
X180.34Y-99.06
X180.34Y-105.41
X180.34Y-113.03
X180.34Y-119.38
X180.34Y-127.0
X182.88Y-91.44
X182.88Y-99.06
X182.88Y-105.41
X182.88Y-113.03
X182.88Y-119.38
X182.88Y-127.0
X182.96Y-71.12
X185.42Y-91.44
X185.42Y-99.06
X185.42Y-105.41
X185.42Y-113.03
X185.42Y-119.38
X185.42Y-127.0
X187.96Y-71.12
X187.96Y-77.47
X187.96Y-85.09
X187.96Y-91.44
X187.96Y-99.06
X187.96Y-105.41
X187.96Y-113.03
X187.96Y-119.38
X187.96Y-127.0
X190.5Y-91.44
X190.5Y-99.06
X190.5Y-105.41
X190.5Y-113.03
X190.5Y-119.38
X190.5Y-127.0
X190.51Y-58.41
X190.51Y-66.03
X193.04Y-71.12
X193.04Y-91.44
X193.04Y-99.06
X193.04Y-105.41
X193.04Y-113.03
X193.04Y-119.38
X193.04Y-127.0
X193.05Y-58.41
X193.05Y-66.03
X195.58Y-77.47
X195.58Y-85.09
X195.58Y-105.41
X195.58Y-113.03
X195.58Y-119.38
X195.58Y-127.0
X195.59Y-58.41
X195.59Y-66.03
X198.12Y-91.44
X198.12Y-96.44
X198.12Y-119.38
X198.12Y-127.0
X198.13Y-58.41
X198.13Y-66.03
X200.66Y-105.41
X200.66Y-110.41
X200.66Y-119.38
X200.66Y-127.0
X203.2Y-71.12
X203.2Y-85.09
X203.2Y-91.44
X203.2Y-99.06
X205.74Y-71.12
X205.74Y-85.09
X205.74Y-91.44
X205.74Y-99.06
X205.74Y-105.41
X205.74Y-113.03
X208.28Y-85.09
X208.28Y-91.44
X208.28Y-99.06
X208.28Y-105.41
X208.28Y-113.03
X210.82Y-85.09
X210.82Y-91.44
X210.82Y-99.06
X210.82Y-105.41
X210.82Y-113.03
X213.36Y-85.09
X213.36Y-91.44
X213.36Y-99.06
X213.36Y-105.41
X213.36Y-113.03
X213.4Y-129.286
X215.9Y-71.12
X215.9Y-85.09
X215.9Y-91.44
X215.9Y-99.06
X215.9Y-105.41
X215.9Y-113.03
X215.9Y-129.286
X218.44Y-85.09
X218.44Y-91.44
X218.44Y-99.06
X218.44Y-105.41
X218.44Y-113.03
X219.71Y-71.12
X220.98Y-77.47
X220.98Y-85.09
X220.98Y-91.44
X220.98Y-99.06
X220.98Y-105.41
X220.98Y-113.03
X220.98Y-119.38
X220.98Y-124.38
X222.25Y-71.12
X223.52Y-85.09
X224.79Y-71.12
X225.98Y-77.47
X226.06Y-85.09
X226.06Y-91.44
X226.06Y-96.44
X226.06Y-105.41
X226.06Y-110.41
X226.06Y-119.38
X226.06Y-127.0
X227.33Y-71.12
X228.6Y-119.38
X228.6Y-127.0
X229.87Y-71.12
X231.14Y-77.47
X231.14Y-85.09
X231.14Y-91.44
X231.14Y-99.06
X231.14Y-105.41
X231.14Y-113.03
X231.14Y-119.38
X231.14Y-127.0
X232.41Y-71.12
X233.68Y-77.47
X233.68Y-85.09
X233.68Y-91.44
X233.68Y-99.06
X233.68Y-105.41
X233.68Y-113.03
X233.68Y-119.38
X233.68Y-127.0
X234.95Y-71.12
X236.22Y-77.47
X236.22Y-85.09
X236.22Y-91.44
X236.22Y-99.06
X236.22Y-105.41
X236.22Y-113.03
X236.22Y-119.38
X236.22Y-127.0
X237.49Y-71.12
X238.76Y-77.47
X238.76Y-85.09
X238.76Y-91.44
X238.76Y-99.06
X238.76Y-105.41
X238.76Y-113.03
X238.76Y-119.38
X238.76Y-127.0
X240.03Y-71.12
X241.3Y-77.47
X241.3Y-85.09
X241.3Y-91.44
X241.3Y-99.06
X241.3Y-105.41
X241.3Y-113.03
X241.3Y-119.38
X241.3Y-127.0
X243.84Y-77.47
X243.84Y-85.09
X243.84Y-91.44
X243.84Y-99.06
X243.84Y-105.41
X243.84Y-113.03
X243.84Y-119.38
X243.84Y-127.0
X246.38Y-77.47
X246.38Y-85.09
X246.38Y-91.44
X246.38Y-99.06
X246.38Y-105.41
X246.38Y-113.03
X246.38Y-119.38
X246.38Y-127.0
X248.92Y-77.47
X248.92Y-85.09
X248.92Y-91.44
X248.92Y-99.06
X248.92Y-105.41
X248.92Y-113.03
X248.92Y-119.38
X248.92Y-127.0
T3
X71.12Y-63.5
X73.66Y-63.5
X77.47Y-63.5
X80.01Y-63.5
X83.82Y-63.5
X86.36Y-63.5
X90.17Y-63.5
X92.71Y-63.5
X96.52Y-63.5
X99.06Y-63.5
X102.87Y-63.5
X105.41Y-63.5
X109.22Y-63.5
X111.76Y-63.5
X115.57Y-63.5
X118.11Y-63.5
X204.47Y-63.5
X207.01Y-63.5
X210.82Y-63.5
X213.36Y-63.5
X217.17Y-63.5
X219.71Y-63.5
X223.52Y-63.5
X226.06Y-63.5
X229.87Y-63.5
X232.41Y-63.5
X236.22Y-63.5
X238.76Y-63.5
X242.57Y-63.5
X245.11Y-63.5
X248.92Y-63.5
X251.46Y-63.5
T4
X60.96Y-55.88
X60.96Y-58.42
X60.96Y-60.96
X60.96Y-63.5
X60.96Y-66.04
X60.96Y-68.58
X60.96Y-144.78
X63.5Y-144.78
X66.04Y-144.78
X68.58Y-144.78
X71.12Y-144.78
X73.66Y-144.78
X76.2Y-144.78
X78.74Y-144.78
X81.28Y-144.78
X83.82Y-144.78
X86.36Y-144.78
X88.9Y-144.78
X91.44Y-144.78
X93.98Y-144.78
X101.6Y-144.78
X104.14Y-144.78
X106.68Y-144.78
X109.22Y-144.78
X111.76Y-144.78
X114.3Y-144.78
X116.84Y-144.78
X119.38Y-144.78
X121.92Y-144.78
X124.46Y-144.78
X127.0Y-144.78
X129.54Y-144.78
X132.08Y-144.78
X134.62Y-144.78
X137.16Y-144.78
X139.7Y-60.96
X139.7Y-144.78
X142.24Y-60.96
X144.78Y-60.96
X147.32Y-60.96
X157.48Y-60.96
X160.02Y-60.96
X162.56Y-60.96
X165.1Y-60.96
X165.1Y-144.78
X167.132Y-116.078
X167.64Y-144.78
X169.672Y-116.078
X170.18Y-127.0
X170.18Y-144.78
X172.72Y-127.0
X172.72Y-144.78
X173.482Y-71.12
X175.26Y-144.78
X176.022Y-71.12
X177.8Y-74.93
X177.8Y-77.47
X177.8Y-80.01
X177.8Y-82.55
X177.8Y-85.09
X177.8Y-144.78
X180.34Y-74.93
X180.34Y-77.47
X180.34Y-80.01
X180.34Y-82.55
X180.34Y-85.09
X180.34Y-144.78
X182.88Y-144.78
X185.42Y-58.42
X185.42Y-60.96
X185.42Y-144.78
X187.96Y-144.78
X190.5Y-144.78
X193.04Y-144.78
X195.58Y-144.78
X198.12Y-144.78
X200.66Y-144.78
X203.2Y-77.47
X203.2Y-81.28
X203.2Y-144.78
X205.74Y-77.47
X205.74Y-81.28
X205.74Y-144.78
X208.28Y-81.28
X208.28Y-144.78
X210.82Y-144.78
X213.36Y-144.78
X215.9Y-144.78
X218.44Y-144.78
X220.98Y-144.78
X221.234Y-129.032
X221.234Y-131.572
X223.52Y-144.78
X226.06Y-144.78
X228.6Y-144.78
X231.14Y-144.78
X233.68Y-144.78
X236.22Y-144.78
X238.76Y-144.78
X241.3Y-144.78
X243.84Y-144.78
T0
M30
