G04 #@! TF.GenerationSoftware,KiCad,Pcbnew,(7.0.0)*
G04 #@! TF.CreationDate,2023-09-24T17:52:05-07:00*
G04 #@! TF.ProjectId,rom_counter,726f6d5f-636f-4756-9e74-65722e6b6963,rev?*
G04 #@! TF.SameCoordinates,Original*
G04 #@! TF.FileFunction,Copper,L1,Top*
G04 #@! TF.FilePolarity,Positive*
%FSLAX46Y46*%
G04 Gerber Fmt 4.6, Leading zero omitted, Abs format (unit mm)*
G04 Created by KiCad (PCBNEW (7.0.0)) date 2023-09-24 17:52:05*
%MOMM*%
%LPD*%
G01*
G04 APERTURE LIST*
G04 #@! TA.AperFunction,ComponentPad*
%ADD10R,1.700000X1.700000*%
G04 #@! TD*
G04 #@! TA.AperFunction,ComponentPad*
%ADD11O,1.700000X1.700000*%
G04 #@! TD*
G04 #@! TA.AperFunction,ComponentPad*
%ADD12R,1.600000X1.600000*%
G04 #@! TD*
G04 #@! TA.AperFunction,ComponentPad*
%ADD13C,1.600000*%
G04 #@! TD*
G04 #@! TA.AperFunction,ComponentPad*
%ADD14O,1.600000X1.600000*%
G04 #@! TD*
G04 #@! TA.AperFunction,ComponentPad*
%ADD15R,1.800000X1.800000*%
G04 #@! TD*
G04 #@! TA.AperFunction,ComponentPad*
%ADD16C,1.800000*%
G04 #@! TD*
G04 #@! TA.AperFunction,ViaPad*
%ADD17C,0.762000*%
G04 #@! TD*
G04 #@! TA.AperFunction,Conductor*
%ADD18C,0.762000*%
G04 #@! TD*
G04 #@! TA.AperFunction,Conductor*
%ADD19C,0.254000*%
G04 #@! TD*
G04 APERTURE END LIST*
D10*
X91439999Y-60959999D03*
D11*
X88899999Y-60959999D03*
X86359999Y-60959999D03*
X83819999Y-60959999D03*
X81279999Y-60959999D03*
X78739999Y-60959999D03*
X76199999Y-60959999D03*
X73659999Y-60959999D03*
X71119999Y-60959999D03*
X68579999Y-60959999D03*
X66039999Y-60959999D03*
X63499999Y-60959999D03*
X60959999Y-60959999D03*
X58419999Y-60959999D03*
X55879999Y-60959999D03*
X53339999Y-60959999D03*
D10*
X139699999Y-144779999D03*
D11*
X137159999Y-144779999D03*
X134619999Y-144779999D03*
X132079999Y-144779999D03*
X129539999Y-144779999D03*
X126999999Y-144779999D03*
X124459999Y-144779999D03*
X121919999Y-144779999D03*
X119379999Y-144779999D03*
X116839999Y-144779999D03*
X114299999Y-144779999D03*
X111759999Y-144779999D03*
X109219999Y-144779999D03*
X106679999Y-144779999D03*
X104139999Y-144779999D03*
X101599999Y-144779999D03*
D12*
X116585999Y-66039999D03*
D13*
X119086000Y-66040000D03*
X104220000Y-99060000D03*
X109220000Y-99060000D03*
D12*
X180339999Y-109219999D03*
D14*
X177799999Y-109219999D03*
X175259999Y-109219999D03*
X172719999Y-109219999D03*
X170179999Y-109219999D03*
X167639999Y-109219999D03*
X165099999Y-109219999D03*
X162559999Y-109219999D03*
X160019999Y-109219999D03*
D13*
X248412000Y-129540000D03*
D14*
X248411999Y-119379999D03*
D10*
X137159999Y-116839999D03*
D11*
X137159999Y-114299999D03*
X139699999Y-116839999D03*
X139699999Y-114299999D03*
X142239999Y-116839999D03*
X142239999Y-114299999D03*
X144779999Y-116839999D03*
X144779999Y-114299999D03*
X147319999Y-116839999D03*
X147319999Y-114299999D03*
X149859999Y-116839999D03*
X149859999Y-114299999D03*
X152399999Y-116839999D03*
X152399999Y-114299999D03*
X154939999Y-116839999D03*
X154939999Y-114299999D03*
X157479999Y-116839999D03*
X157479999Y-114299999D03*
X160019999Y-116839999D03*
X160019999Y-114299999D03*
X162559999Y-116839999D03*
X162559999Y-114299999D03*
X165099999Y-116839999D03*
X165099999Y-114299999D03*
X167639999Y-116839999D03*
X167639999Y-114299999D03*
X170179999Y-116839999D03*
X170179999Y-114299999D03*
X172719999Y-116839999D03*
X172719999Y-114299999D03*
X175259999Y-116839999D03*
X175259999Y-114299999D03*
D12*
X203199999Y-78739999D03*
D14*
X203199999Y-81279999D03*
X203199999Y-83819999D03*
X203199999Y-86359999D03*
X203199999Y-88899999D03*
X203199999Y-91439999D03*
X203199999Y-93979999D03*
X203199999Y-96519999D03*
X203199999Y-99059999D03*
X203199999Y-101599999D03*
X203199999Y-104139999D03*
X203199999Y-106679999D03*
X203199999Y-109219999D03*
X203199999Y-111759999D03*
X218439999Y-111759999D03*
X218439999Y-109219999D03*
X218439999Y-106679999D03*
X218439999Y-104139999D03*
X218439999Y-101599999D03*
X218439999Y-99059999D03*
X218439999Y-96519999D03*
X218439999Y-93979999D03*
X218439999Y-91439999D03*
X218439999Y-88899999D03*
X218439999Y-86359999D03*
X218439999Y-83819999D03*
X218439999Y-81279999D03*
X218439999Y-78739999D03*
D13*
X55880000Y-81200000D03*
X55880000Y-76200000D03*
X55880000Y-126920000D03*
X55880000Y-121920000D03*
D10*
X180847999Y-63499999D03*
D11*
X183387999Y-63499999D03*
D12*
X160019999Y-86613999D03*
D14*
X162559999Y-86613999D03*
X165099999Y-86613999D03*
X167639999Y-86613999D03*
X170179999Y-86613999D03*
X172719999Y-86613999D03*
X175259999Y-86613999D03*
X175259999Y-78993999D03*
X172719999Y-78993999D03*
X170179999Y-78993999D03*
X167639999Y-78993999D03*
X165099999Y-78993999D03*
X162559999Y-78993999D03*
X160019999Y-78993999D03*
D12*
X134619999Y-86613999D03*
D14*
X137159999Y-86613999D03*
X139699999Y-86613999D03*
X142239999Y-86613999D03*
X144779999Y-86613999D03*
X147319999Y-86613999D03*
X149859999Y-86613999D03*
X149859999Y-78993999D03*
X147319999Y-78993999D03*
X144779999Y-78993999D03*
X142239999Y-78993999D03*
X139699999Y-78993999D03*
X137159999Y-78993999D03*
X134619999Y-78993999D03*
D13*
X154940000Y-83994000D03*
X154940000Y-78994000D03*
X55880000Y-96440000D03*
X55880000Y-91440000D03*
D12*
X101599999Y-104139999D03*
D14*
X101599999Y-106679999D03*
X101599999Y-109219999D03*
X101599999Y-111759999D03*
X101599999Y-114299999D03*
X101599999Y-116839999D03*
X101599999Y-119379999D03*
X101599999Y-121919999D03*
X101599999Y-124459999D03*
X101599999Y-126999999D03*
X109219999Y-126999999D03*
X109219999Y-124459999D03*
X109219999Y-121919999D03*
X109219999Y-119379999D03*
X109219999Y-116839999D03*
X109219999Y-114299999D03*
X109219999Y-111759999D03*
X109219999Y-109219999D03*
X109219999Y-106679999D03*
X109219999Y-104139999D03*
D13*
X104220000Y-66040000D03*
X109220000Y-66040000D03*
X213440000Y-68580000D03*
X218440000Y-68580000D03*
D15*
X245109999Y-63499999D03*
D16*
X242570000Y-63500000D03*
D13*
X115316000Y-106680000D03*
D14*
X115315999Y-96519999D03*
D12*
X160019999Y-101599999D03*
D14*
X162559999Y-101599999D03*
X165099999Y-101599999D03*
X167639999Y-101599999D03*
X170179999Y-101599999D03*
X172719999Y-101599999D03*
X175259999Y-101599999D03*
X175259999Y-93979999D03*
X172719999Y-93979999D03*
X170179999Y-93979999D03*
X167639999Y-93979999D03*
X165099999Y-93979999D03*
X162559999Y-93979999D03*
X160019999Y-93979999D03*
D13*
X129540000Y-68500000D03*
X129540000Y-63500000D03*
D12*
X91439999Y-129031999D03*
D13*
X93940000Y-129032000D03*
D15*
X251459999Y-63499999D03*
D16*
X248920000Y-63500000D03*
D13*
X214630000Y-64770000D03*
D14*
X204469999Y-64769999D03*
D13*
X154940000Y-98980000D03*
X154940000Y-93980000D03*
D10*
X60959999Y-66039999D03*
D11*
X60959999Y-68579999D03*
D12*
X134619999Y-71119999D03*
D14*
X137159999Y-71119999D03*
X139699999Y-71119999D03*
X142239999Y-71119999D03*
X144779999Y-71119999D03*
X147319999Y-71119999D03*
X149859999Y-71119999D03*
X149859999Y-63499999D03*
X147319999Y-63499999D03*
X144779999Y-63499999D03*
X142239999Y-63499999D03*
X139699999Y-63499999D03*
X137159999Y-63499999D03*
X134619999Y-63499999D03*
D13*
X188214000Y-64770000D03*
D14*
X198373999Y-64769999D03*
D12*
X60959999Y-129539999D03*
D14*
X63499999Y-129539999D03*
X66039999Y-129539999D03*
X68579999Y-129539999D03*
X71119999Y-129539999D03*
X73659999Y-129539999D03*
X76199999Y-129539999D03*
X78739999Y-129539999D03*
X78739999Y-121919999D03*
X76199999Y-121919999D03*
X73659999Y-121919999D03*
X71119999Y-121919999D03*
X68579999Y-121919999D03*
X66039999Y-121919999D03*
X63499999Y-121919999D03*
X60959999Y-121919999D03*
D12*
X60959999Y-83819999D03*
D14*
X63499999Y-83819999D03*
X66039999Y-83819999D03*
X68579999Y-83819999D03*
X71119999Y-83819999D03*
X73659999Y-83819999D03*
X76199999Y-83819999D03*
X78739999Y-83819999D03*
X78739999Y-76199999D03*
X76199999Y-76199999D03*
X73659999Y-76199999D03*
X71119999Y-76199999D03*
X68579999Y-76199999D03*
X66039999Y-76199999D03*
X63499999Y-76199999D03*
X60959999Y-76199999D03*
D12*
X101599999Y-71119999D03*
D14*
X101599999Y-73659999D03*
X101599999Y-76199999D03*
X101599999Y-78739999D03*
X101599999Y-81279999D03*
X101599999Y-83819999D03*
X101599999Y-86359999D03*
X101599999Y-88899999D03*
X101599999Y-91439999D03*
X101599999Y-93979999D03*
X109219999Y-93979999D03*
X109219999Y-91439999D03*
X109219999Y-88899999D03*
X109219999Y-86359999D03*
X109219999Y-83819999D03*
X109219999Y-81279999D03*
X109219999Y-78739999D03*
X109219999Y-76199999D03*
X109219999Y-73659999D03*
X109219999Y-71119999D03*
D12*
X60959999Y-99059999D03*
D14*
X63499999Y-99059999D03*
X66039999Y-99059999D03*
X68579999Y-99059999D03*
X71119999Y-99059999D03*
X73659999Y-99059999D03*
X76199999Y-99059999D03*
X78739999Y-99059999D03*
X78739999Y-91439999D03*
X76199999Y-91439999D03*
X73659999Y-91439999D03*
X71119999Y-91439999D03*
X68579999Y-91439999D03*
X66039999Y-91439999D03*
X63499999Y-91439999D03*
X60959999Y-91439999D03*
D13*
X188214000Y-59690000D03*
D14*
X198373999Y-59689999D03*
D12*
X60959999Y-114299999D03*
D14*
X63499999Y-114299999D03*
X66039999Y-114299999D03*
X68579999Y-114299999D03*
X71119999Y-114299999D03*
X73659999Y-114299999D03*
X76199999Y-114299999D03*
X78739999Y-114299999D03*
X78739999Y-106679999D03*
X76199999Y-106679999D03*
X73659999Y-106679999D03*
X71119999Y-106679999D03*
X68579999Y-106679999D03*
X66039999Y-106679999D03*
X63499999Y-106679999D03*
X60959999Y-106679999D03*
D13*
X129540000Y-78994000D03*
X129540000Y-83994000D03*
D12*
X193039999Y-76707999D03*
D13*
X195540000Y-76708000D03*
X129540000Y-94060000D03*
X129540000Y-99060000D03*
D10*
X99059999Y-60959999D03*
D11*
X96519999Y-60959999D03*
D13*
X214630000Y-59690000D03*
D14*
X204469999Y-59689999D03*
D12*
X134619999Y-101599999D03*
D14*
X137159999Y-101599999D03*
X139699999Y-101599999D03*
X142239999Y-101599999D03*
X144779999Y-101599999D03*
X147319999Y-101599999D03*
X149859999Y-101599999D03*
X149859999Y-93979999D03*
X147319999Y-93979999D03*
X144779999Y-93979999D03*
X142239999Y-93979999D03*
X139699999Y-93979999D03*
X137159999Y-93979999D03*
X134619999Y-93979999D03*
D10*
X243839999Y-144779999D03*
D11*
X241299999Y-144779999D03*
X238759999Y-144779999D03*
X236219999Y-144779999D03*
X233679999Y-144779999D03*
X231139999Y-144779999D03*
X228599999Y-144779999D03*
X226059999Y-144779999D03*
X223519999Y-144779999D03*
X220979999Y-144779999D03*
X218439999Y-144779999D03*
X215899999Y-144779999D03*
X213359999Y-144779999D03*
X210819999Y-144779999D03*
X208279999Y-144779999D03*
X205739999Y-144779999D03*
X203199999Y-144779999D03*
X200659999Y-144779999D03*
X198119999Y-144779999D03*
X195579999Y-144779999D03*
X193039999Y-144779999D03*
X190499999Y-144779999D03*
X187959999Y-144779999D03*
X185419999Y-144779999D03*
X182879999Y-144779999D03*
X180339999Y-144779999D03*
X177799999Y-144779999D03*
X175259999Y-144779999D03*
X172719999Y-144779999D03*
X170179999Y-144779999D03*
X167639999Y-144779999D03*
X165099999Y-144779999D03*
D12*
X132079999Y-109219999D03*
D14*
X134619999Y-109219999D03*
X137159999Y-109219999D03*
X139699999Y-109219999D03*
X142239999Y-109219999D03*
X144779999Y-109219999D03*
X147319999Y-109219999D03*
X149859999Y-109219999D03*
X152399999Y-109219999D03*
D10*
X93979999Y-144779999D03*
D11*
X91439999Y-144779999D03*
X88899999Y-144779999D03*
X86359999Y-144779999D03*
X83819999Y-144779999D03*
X81279999Y-144779999D03*
X78739999Y-144779999D03*
X76199999Y-144779999D03*
X73659999Y-144779999D03*
X71119999Y-144779999D03*
X68579999Y-144779999D03*
X66039999Y-144779999D03*
X63499999Y-144779999D03*
X60959999Y-144779999D03*
D13*
X55880000Y-111680000D03*
X55880000Y-106680000D03*
X241380000Y-68580000D03*
X246380000Y-68580000D03*
D12*
X231139999Y-78739999D03*
D14*
X231139999Y-81279999D03*
X231139999Y-83819999D03*
X231139999Y-86359999D03*
X231139999Y-88899999D03*
X231139999Y-91439999D03*
X231139999Y-93979999D03*
X231139999Y-96519999D03*
X231139999Y-99059999D03*
X231139999Y-101599999D03*
X231139999Y-104139999D03*
X231139999Y-106679999D03*
X231139999Y-109219999D03*
X231139999Y-111759999D03*
X246379999Y-111759999D03*
X246379999Y-109219999D03*
X246379999Y-106679999D03*
X246379999Y-104139999D03*
X246379999Y-101599999D03*
X246379999Y-99059999D03*
X246379999Y-96519999D03*
X246379999Y-93979999D03*
X246379999Y-91439999D03*
X246379999Y-88899999D03*
X246379999Y-86359999D03*
X246379999Y-83819999D03*
X246379999Y-81279999D03*
X246379999Y-78739999D03*
D17*
X101092000Y-101600000D03*
X107950000Y-61722000D03*
X66040000Y-124460000D03*
X109474000Y-61722000D03*
X91440000Y-138938000D03*
X66040000Y-93980000D03*
X66040000Y-109220000D03*
X101092000Y-68580000D03*
X106934000Y-68580000D03*
X60960000Y-124460000D03*
X91440000Y-137414000D03*
X106934000Y-101600000D03*
X60960000Y-109220000D03*
X68580000Y-80010000D03*
X60960000Y-93980000D03*
X207010000Y-121158000D03*
X207010000Y-119380000D03*
X241300000Y-128016000D03*
X241300000Y-129540000D03*
X238760000Y-128016000D03*
X204470000Y-119380000D03*
X204470000Y-121920000D03*
X238760000Y-130302000D03*
X222250000Y-119380000D03*
X236220000Y-131064000D03*
X222250000Y-122682000D03*
X236220000Y-128016000D03*
X233680000Y-131826000D03*
X233680000Y-128016000D03*
X219710000Y-123444000D03*
X219710000Y-119380000D03*
X217170000Y-119380000D03*
X231140000Y-132842000D03*
X217170000Y-124206000D03*
X231140000Y-128016000D03*
X214630000Y-124968500D03*
X214630000Y-119380000D03*
X228600000Y-125730000D03*
X228600000Y-132842000D03*
X226060000Y-125730000D03*
X212090000Y-125730000D03*
X212090000Y-119380000D03*
X226060000Y-132842000D03*
X223520000Y-132842000D03*
X229870000Y-119380000D03*
X229870000Y-125730000D03*
X223520000Y-126492000D03*
X220980000Y-132842000D03*
X227330000Y-127254000D03*
X227330000Y-119380000D03*
X220980000Y-127254000D03*
X224790000Y-119380000D03*
X218440000Y-128016000D03*
X218440000Y-132842000D03*
X224790000Y-128016000D03*
X215900000Y-132842000D03*
X215900000Y-128778000D03*
X242570000Y-119380000D03*
X242570000Y-121158000D03*
X213360000Y-129540000D03*
X240030000Y-129540000D03*
X213360000Y-132842000D03*
X240030000Y-119380000D03*
X237490000Y-130301500D03*
X237490000Y-119380000D03*
X210820000Y-130302000D03*
X210820000Y-132842000D03*
X208280000Y-131064000D03*
X234950000Y-131064000D03*
X208280000Y-132842000D03*
X234950000Y-119380000D03*
X232410000Y-131826000D03*
X232410000Y-119380000D03*
X200914000Y-132588000D03*
X215646000Y-102870000D03*
X220726000Y-102870000D03*
X200914000Y-119634000D03*
X199898000Y-118364000D03*
X199898000Y-133858000D03*
X198882000Y-132588000D03*
X198882000Y-119634000D03*
X197866000Y-118364000D03*
X197866000Y-133858000D03*
X196850000Y-119634000D03*
X196850000Y-132588000D03*
X195834000Y-133858000D03*
X195834000Y-118364000D03*
X194818000Y-132588000D03*
X194818000Y-119634000D03*
X193802000Y-118364000D03*
X193802000Y-133858000D03*
X197358000Y-85090000D03*
X200914000Y-85090000D03*
X192786000Y-119634000D03*
X192786000Y-132588000D03*
X191770000Y-118364000D03*
X191770000Y-133858000D03*
X193040000Y-87630000D03*
X200914000Y-87630000D03*
X190754000Y-132588000D03*
X200914000Y-95250000D03*
X190754000Y-119634000D03*
X190754000Y-95250000D03*
X200914000Y-90170000D03*
X189738000Y-118364000D03*
X189738000Y-133858000D03*
X189738000Y-90170000D03*
X188722000Y-132588000D03*
X188722000Y-119634000D03*
X200914000Y-82550000D03*
X187706000Y-118364000D03*
X187706500Y-133858000D03*
X193040000Y-82550000D03*
X186690000Y-132588000D03*
X186690000Y-119634000D03*
X152146000Y-57658000D03*
X151384000Y-61722000D03*
X149860000Y-74168000D03*
X241300000Y-56388000D03*
X183388000Y-72136000D03*
X243840000Y-56388000D03*
X183388000Y-74676000D03*
X172720000Y-119380000D03*
X159258000Y-132842000D03*
X156718000Y-132842000D03*
X170180000Y-119380000D03*
X146304000Y-143256000D03*
X143256000Y-146304000D03*
X154178000Y-132842000D03*
X167640000Y-119380000D03*
X165100000Y-119380000D03*
X151638000Y-132842000D03*
X149098000Y-132842000D03*
X162560000Y-119380000D03*
X146558000Y-132842000D03*
X160020000Y-119380000D03*
X157480000Y-119380000D03*
X144018000Y-132842000D03*
X141478000Y-132842000D03*
X154940000Y-119380000D03*
X138938000Y-132842000D03*
X152400000Y-119380000D03*
X149860000Y-119380000D03*
X136398000Y-132842000D03*
X133858000Y-132842000D03*
X147320000Y-119380000D03*
X131318000Y-132842000D03*
X144780000Y-119380000D03*
X128778000Y-132842000D03*
X142240000Y-119380000D03*
X139700000Y-119380000D03*
X126238000Y-132842000D03*
X137160000Y-119380000D03*
X123698000Y-132842000D03*
X121158000Y-132842000D03*
X134620000Y-119380000D03*
X63500000Y-134620000D03*
X63500000Y-137668000D03*
X67564000Y-134620000D03*
X67564000Y-137668000D03*
X168910000Y-83566000D03*
X168910000Y-74930000D03*
X142240000Y-98552000D03*
X139700000Y-97790000D03*
X167640000Y-99060000D03*
X166370000Y-98044000D03*
X98806000Y-73660000D03*
X81534000Y-81026000D03*
X82550000Y-80010000D03*
X97790000Y-76200000D03*
X81534000Y-78994000D03*
X96774000Y-78740000D03*
X82550000Y-77978000D03*
X95758000Y-77978000D03*
X82550000Y-86614000D03*
X94742000Y-83820000D03*
X81534000Y-87630000D03*
X93726000Y-86360000D03*
X92710000Y-88900000D03*
X82550000Y-88646000D03*
X91694000Y-91440000D03*
X81534000Y-89662000D03*
X82550000Y-101854000D03*
X90678000Y-101854000D03*
X89662000Y-102870000D03*
X81534000Y-102870000D03*
X88646000Y-103886000D03*
X82550000Y-103886000D03*
X81534000Y-104902000D03*
X87630000Y-104902000D03*
X82550000Y-116332000D03*
X86614000Y-116332000D03*
X81534000Y-117348000D03*
X85598000Y-117348000D03*
X84582000Y-118364000D03*
X82550000Y-118364000D03*
X140970000Y-59182000D03*
X140970000Y-65278000D03*
X71120000Y-139700000D03*
X71120000Y-133858000D03*
X154178000Y-57658000D03*
X182372000Y-61214000D03*
X154178000Y-60706000D03*
X181610000Y-72136000D03*
X181610000Y-74676000D03*
X184404000Y-88138000D03*
X182372000Y-88138000D03*
X200914000Y-92710000D03*
X185420000Y-92710000D03*
X143510000Y-82550000D03*
X143510000Y-75184000D03*
X152400000Y-68072000D03*
X176784000Y-58420000D03*
X152400000Y-62484000D03*
X182372000Y-58420000D03*
X152400000Y-71628000D03*
X157988000Y-77216000D03*
X153162000Y-58420000D03*
X178816000Y-58420000D03*
X156210000Y-76200000D03*
X111252000Y-73660000D03*
X128016000Y-76200000D03*
X111252000Y-95250000D03*
X125476000Y-73660000D03*
X67310000Y-86868000D03*
X66040000Y-81026000D03*
X64008000Y-78994000D03*
X63500000Y-95250000D03*
X67310000Y-102362000D03*
X66040000Y-95250000D03*
X63500000Y-110490000D03*
X67310000Y-118110000D03*
X66040000Y-110490000D03*
X179070000Y-76962000D03*
X175514000Y-76962000D03*
X184404000Y-119634000D03*
X179070000Y-90678000D03*
X179070000Y-86360000D03*
X184404000Y-133350000D03*
X152654000Y-75184000D03*
X152654000Y-82550000D03*
X175260000Y-82296000D03*
D18*
X160020000Y-81280000D02*
X160020000Y-78994000D01*
D19*
X70612000Y-82042000D02*
X74422000Y-82042000D01*
D18*
X106934000Y-71120000D02*
X109220000Y-71120000D01*
X106934000Y-68580000D02*
X106934000Y-61722000D01*
X53594000Y-124460000D02*
X53340000Y-124206000D01*
X126746000Y-65786000D02*
X134620000Y-65786000D01*
X126746000Y-106680000D02*
X129540000Y-106680000D01*
D19*
X68580000Y-80010000D02*
X70612000Y-82042000D01*
X250190000Y-124460000D02*
X250190000Y-77216000D01*
X101600000Y-102108000D02*
X101092000Y-101600000D01*
D18*
X106934000Y-61722000D02*
X116586000Y-61722000D01*
X134620000Y-81280000D02*
X160020000Y-81280000D01*
D19*
X62230000Y-80010000D02*
X60960000Y-78740000D01*
X76200000Y-124460000D02*
X78740000Y-121920000D01*
X250190000Y-77216000D02*
X246380000Y-73406000D01*
D18*
X246380000Y-73406000D02*
X246380000Y-78740000D01*
X129540000Y-106680000D02*
X132080000Y-109220000D01*
X160020000Y-81280000D02*
X177800000Y-81280000D01*
X53340000Y-109220000D02*
X53340000Y-93980000D01*
D19*
X76200000Y-99060000D02*
X76200000Y-93980000D01*
X134540000Y-94060000D02*
X134620000Y-93980000D01*
X154940000Y-78994000D02*
X160020000Y-78994000D01*
D18*
X106934000Y-104140000D02*
X109220000Y-104140000D01*
X134620000Y-81280000D02*
X134620000Y-80010000D01*
X106934000Y-136144000D02*
X106934000Y-104140000D01*
X134620000Y-80010000D02*
X134620000Y-78994000D01*
D19*
X76200000Y-93980000D02*
X66040000Y-93980000D01*
D18*
X185166000Y-73406000D02*
X187706000Y-70866000D01*
D19*
X101600000Y-104140000D02*
X101600000Y-102108000D01*
X218440000Y-68580000D02*
X218440000Y-70866000D01*
X246380000Y-81280000D02*
X246380000Y-78740000D01*
D18*
X53340000Y-78740000D02*
X60960000Y-78740000D01*
X53340000Y-109220000D02*
X60960000Y-109220000D01*
D19*
X55880000Y-106680000D02*
X60960000Y-106680000D01*
X55880000Y-121920000D02*
X60960000Y-121920000D01*
D18*
X177800000Y-76200000D02*
X180594000Y-73406000D01*
D19*
X129540000Y-78994000D02*
X134620000Y-78994000D01*
D18*
X60960000Y-124460000D02*
X60960000Y-121920000D01*
X60960000Y-109220000D02*
X60960000Y-106680000D01*
D19*
X76200000Y-114300000D02*
X76200000Y-109220000D01*
X101600000Y-69088000D02*
X101600000Y-71120000D01*
D18*
X106934000Y-101600000D02*
X106934000Y-71120000D01*
D19*
X76200000Y-109220000D02*
X66040000Y-109220000D01*
D18*
X91440000Y-137414000D02*
X91440000Y-136398000D01*
X126746000Y-96520000D02*
X134620000Y-96520000D01*
X91440000Y-144780000D02*
X91440000Y-138938000D01*
X60960000Y-93980000D02*
X60960000Y-91440000D01*
X160020000Y-96520000D02*
X180340000Y-96520000D01*
X116586000Y-61722000D02*
X126746000Y-61722000D01*
D19*
X248412000Y-129540000D02*
X248412000Y-126238000D01*
D18*
X91440000Y-136398000D02*
X53340000Y-136398000D01*
D19*
X76200000Y-129540000D02*
X76200000Y-124460000D01*
D18*
X193040000Y-70866000D02*
X193040000Y-76708000D01*
D19*
X129540000Y-63500000D02*
X134620000Y-63500000D01*
X55880000Y-91440000D02*
X60960000Y-91440000D01*
D18*
X246380000Y-70866000D02*
X246380000Y-73406000D01*
D19*
X129540000Y-94060000D02*
X134540000Y-94060000D01*
D18*
X160020000Y-96520000D02*
X160020000Y-93980000D01*
X127000000Y-81280000D02*
X134620000Y-81280000D01*
D19*
X246380000Y-68580000D02*
X246380000Y-70866000D01*
D18*
X187706000Y-70866000D02*
X193040000Y-70866000D01*
D19*
X109220000Y-66040000D02*
X109220000Y-71120000D01*
D18*
X53340000Y-93980000D02*
X60960000Y-93980000D01*
D19*
X68580000Y-80010000D02*
X62230000Y-80010000D01*
X74422000Y-82042000D02*
X76200000Y-83820000D01*
X154940000Y-93980000D02*
X160020000Y-93980000D01*
X76200000Y-109220000D02*
X78740000Y-106680000D01*
X248412000Y-126238000D02*
X250190000Y-124460000D01*
D18*
X106680000Y-136398000D02*
X106934000Y-136144000D01*
X180340000Y-96520000D02*
X180340000Y-109220000D01*
X177800000Y-81280000D02*
X177800000Y-76200000D01*
X180594000Y-73406000D02*
X185166000Y-73406000D01*
D19*
X109220000Y-99060000D02*
X109220000Y-104140000D01*
D18*
X218440000Y-70866000D02*
X246380000Y-70866000D01*
X218440000Y-70866000D02*
X218440000Y-78740000D01*
X106934000Y-104140000D02*
X106934000Y-101600000D01*
D19*
X76200000Y-124460000D02*
X66040000Y-124460000D01*
D18*
X60960000Y-78740000D02*
X60960000Y-76200000D01*
D19*
X76200000Y-76200000D02*
X78740000Y-76200000D01*
D18*
X134620000Y-65786000D02*
X134620000Y-63500000D01*
X116586000Y-61722000D02*
X116586000Y-66040000D01*
X91440000Y-136398000D02*
X106680000Y-136398000D01*
X134620000Y-96520000D02*
X160020000Y-96520000D01*
X53340000Y-136398000D02*
X53340000Y-124206000D01*
X60960000Y-124460000D02*
X53594000Y-124460000D01*
D19*
X101092000Y-68580000D02*
X101600000Y-69088000D01*
D18*
X91440000Y-144780000D02*
X93980000Y-144780000D01*
X106934000Y-71120000D02*
X106934000Y-68580000D01*
X53340000Y-93980000D02*
X53340000Y-78740000D01*
X53340000Y-124206000D02*
X53340000Y-109220000D01*
X126746000Y-61722000D02*
X126746000Y-106680000D01*
D19*
X55880000Y-76200000D02*
X60960000Y-76200000D01*
X78740000Y-91440000D02*
X76200000Y-93980000D01*
D18*
X91440000Y-138938000D02*
X91440000Y-137414000D01*
D19*
X198374000Y-64770000D02*
X198374000Y-70866000D01*
D18*
X134620000Y-96520000D02*
X134620000Y-93980000D01*
X193040000Y-70866000D02*
X218440000Y-70866000D01*
D19*
X124460000Y-120396000D02*
X124460000Y-85344000D01*
X203200000Y-104140000D02*
X209550000Y-110490000D01*
X109474000Y-75946000D02*
X109220000Y-76200000D01*
X209550000Y-110490000D02*
X209550000Y-120396000D01*
X243840000Y-120396000D02*
X124460000Y-120396000D01*
X243840000Y-144780000D02*
X243840000Y-120396000D01*
X124460000Y-85344000D02*
X115062000Y-75946000D01*
X115062000Y-75946000D02*
X109474000Y-75946000D01*
X207772000Y-111252000D02*
X203200000Y-106680000D01*
X123698000Y-87376000D02*
X115062000Y-78740000D01*
X123698000Y-121158000D02*
X123698000Y-87376000D01*
X241300000Y-144780000D02*
X241300000Y-129540000D01*
X207010000Y-121158000D02*
X123698000Y-121158000D01*
X207772000Y-118618000D02*
X207772000Y-111252000D01*
X115062000Y-78740000D02*
X109220000Y-78740000D01*
X241300000Y-128016000D02*
X241300000Y-121158000D01*
X241300000Y-121158000D02*
X207010000Y-121158000D01*
X207010000Y-119380000D02*
X207772000Y-118618000D01*
X238760000Y-121920000D02*
X204470000Y-121920000D01*
X122936000Y-121920000D02*
X122936000Y-89154000D01*
X205740000Y-118110000D02*
X205740000Y-111760000D01*
X115062000Y-81280000D02*
X109220000Y-81280000D01*
X238760000Y-128016000D02*
X238760000Y-121920000D01*
X238760000Y-144780000D02*
X238760000Y-130302000D01*
X122936000Y-89154000D02*
X115062000Y-81280000D01*
X204470000Y-121920000D02*
X122936000Y-121920000D01*
X205740000Y-111760000D02*
X203200000Y-109220000D01*
X204470000Y-119380000D02*
X205740000Y-118110000D01*
X109220000Y-83820000D02*
X115062000Y-83820000D01*
X218694000Y-112014000D02*
X218440000Y-111760000D01*
X122174000Y-90932000D02*
X122174000Y-122682000D01*
X122174000Y-122682000D02*
X222250000Y-122682000D01*
X218694000Y-111999000D02*
X218440000Y-111745000D01*
X222250000Y-119380000D02*
X222250000Y-116840000D01*
X236220000Y-128016000D02*
X236220000Y-122682000D01*
X218694000Y-113284000D02*
X218694000Y-112014000D01*
X236220000Y-144780000D02*
X236220000Y-131064000D01*
X115062000Y-83820000D02*
X122174000Y-90932000D01*
X222250000Y-116840000D02*
X218694000Y-113284000D01*
X236220000Y-122682000D02*
X222250000Y-122682000D01*
X216916000Y-114046000D02*
X216916000Y-110729000D01*
X121412000Y-123444000D02*
X121412000Y-92710000D01*
X219710000Y-116840000D02*
X216916000Y-114046000D01*
X219710000Y-119380000D02*
X219710000Y-116840000D01*
X121412000Y-92710000D02*
X115062000Y-86360000D01*
X233680000Y-123444000D02*
X219710000Y-123444000D01*
X219710000Y-123444000D02*
X121412000Y-123444000D01*
X115062000Y-86360000D02*
X109220000Y-86360000D01*
X216916000Y-110729000D02*
X218440000Y-109205000D01*
X233680000Y-144780000D02*
X233680000Y-131826000D01*
X233680000Y-128016000D02*
X233680000Y-123444000D01*
X215138000Y-114808000D02*
X215138000Y-109982000D01*
X215138000Y-109982000D02*
X218440000Y-106680000D01*
X120650000Y-124206000D02*
X120650000Y-94488000D01*
X217170000Y-124206000D02*
X231140000Y-124206000D01*
X217170000Y-124206000D02*
X120650000Y-124206000D01*
X120650000Y-94488000D02*
X115062000Y-88900000D01*
X115062000Y-88900000D02*
X109220000Y-88900000D01*
X217170000Y-116840000D02*
X215138000Y-114808000D01*
X231140000Y-144780000D02*
X231140000Y-132842000D01*
X231140000Y-124206000D02*
X231140000Y-128016000D01*
X217170000Y-119380000D02*
X217170000Y-116840000D01*
X214630000Y-116840000D02*
X213360000Y-115570000D01*
X228600000Y-144780000D02*
X228600000Y-132842000D01*
X213360000Y-109220000D02*
X218440000Y-104140000D01*
X115062000Y-91440000D02*
X109220000Y-91440000D01*
X214630000Y-119380000D02*
X214630000Y-116840000D01*
X119888000Y-96266000D02*
X115062000Y-91440000D01*
X214630000Y-124968500D02*
X214629500Y-124968000D01*
X214629500Y-124968000D02*
X119888000Y-124968000D01*
X228600000Y-124968000D02*
X214630500Y-124968000D01*
X119888000Y-124968000D02*
X119888000Y-96266000D01*
X214630500Y-124968000D02*
X214630000Y-124968500D01*
X213360000Y-115570000D02*
X213360000Y-109220000D01*
X228600000Y-125730000D02*
X228600000Y-124968000D01*
X212090000Y-119380000D02*
X212090000Y-116840000D01*
X115062000Y-93980000D02*
X109220000Y-93980000D01*
X119126000Y-125730000D02*
X119126000Y-98044000D01*
X212090000Y-125730000D02*
X119126000Y-125730000D01*
X226060000Y-125730000D02*
X212090000Y-125730000D01*
X211582000Y-116332000D02*
X211582000Y-108458000D01*
X119126000Y-98044000D02*
X115062000Y-93980000D01*
X226060000Y-144780000D02*
X226060000Y-132842000D01*
X212090000Y-116840000D02*
X211582000Y-116332000D01*
X211582000Y-108458000D02*
X218440000Y-101600000D01*
X229870000Y-126492000D02*
X223520000Y-126492000D01*
X229870000Y-119380000D02*
X229870000Y-117348000D01*
X229870000Y-125730000D02*
X229870000Y-126492000D01*
X229870000Y-117348000D02*
X235204000Y-112014000D01*
X110998000Y-109220000D02*
X118364000Y-116586000D01*
X118364000Y-126492000D02*
X223520000Y-126492000D01*
X223520000Y-144780000D02*
X223520000Y-132842000D01*
X235204000Y-108204000D02*
X231140000Y-104140000D01*
X235204000Y-112014000D02*
X235204000Y-108204000D01*
X118364000Y-116586000D02*
X118364000Y-126492000D01*
X109220000Y-109220000D02*
X110998000Y-109220000D01*
X227330000Y-127254000D02*
X220980000Y-127254000D01*
X117602000Y-118364000D02*
X110998000Y-111760000D01*
X227330000Y-119380000D02*
X227330000Y-117856000D01*
X110998000Y-111760000D02*
X109220000Y-111760000D01*
X233426000Y-108966000D02*
X231140000Y-106680000D01*
X227330000Y-117856000D02*
X233426000Y-111760000D01*
X220980000Y-127254000D02*
X117602000Y-127254000D01*
X117602000Y-127254000D02*
X117602000Y-118364000D01*
X220980000Y-144780000D02*
X220980000Y-132842000D01*
X233426000Y-111760000D02*
X233426000Y-108966000D01*
X109220000Y-114300000D02*
X110998000Y-114300000D01*
X229108000Y-111252000D02*
X231140000Y-109220000D01*
X224790000Y-119380000D02*
X224790000Y-118364000D01*
X110998000Y-114300000D02*
X116840000Y-120142000D01*
X224790000Y-128016000D02*
X218440000Y-128016000D01*
X116840000Y-120142000D02*
X116840000Y-128016000D01*
X218440000Y-144780000D02*
X218440000Y-132842000D01*
X224790000Y-118364000D02*
X229108000Y-114046000D01*
X116840000Y-128016000D02*
X218440000Y-128016000D01*
X229108000Y-114046000D02*
X229108000Y-111252000D01*
X215900000Y-128778000D02*
X116078000Y-128778000D01*
X215900000Y-144780000D02*
X215900000Y-132842000D01*
X242570000Y-115570000D02*
X242570000Y-119380000D01*
X116078000Y-128778000D02*
X116078000Y-121920000D01*
X116078000Y-121920000D02*
X110998000Y-116840000D01*
X110998000Y-116840000D02*
X109220000Y-116840000D01*
X246380000Y-111760000D02*
X242570000Y-115570000D01*
X242570000Y-121158000D02*
X242570000Y-128778000D01*
X242570000Y-128778000D02*
X215900000Y-128778000D01*
X109220000Y-119380000D02*
X110998000Y-119380000D01*
X115316000Y-123698000D02*
X115316000Y-129540000D01*
X115316000Y-129540000D02*
X213360000Y-129540000D01*
X240030000Y-115570000D02*
X246380000Y-109220000D01*
X240030000Y-129540000D02*
X213360000Y-129540000D01*
X213360000Y-144780000D02*
X213360000Y-132842000D01*
X110998000Y-119380000D02*
X115316000Y-123698000D01*
X240030000Y-119380000D02*
X240030000Y-115570000D01*
X114554000Y-125476000D02*
X114554000Y-130302000D01*
X110998000Y-121920000D02*
X114554000Y-125476000D01*
X114554000Y-130302000D02*
X210820000Y-130302000D01*
X239014000Y-114046000D02*
X246380000Y-106680000D01*
X109220000Y-121920000D02*
X110998000Y-121920000D01*
X237490000Y-119380000D02*
X237490000Y-116840000D01*
X237489500Y-130302000D02*
X210820000Y-130302000D01*
X210820000Y-144780000D02*
X210820000Y-132842000D01*
X237490000Y-116840000D02*
X239014000Y-115316000D01*
X239014000Y-115316000D02*
X239014000Y-114046000D01*
X110998000Y-124460000D02*
X113792000Y-127254000D01*
X237744000Y-112776000D02*
X246380000Y-104140000D01*
X234950000Y-131064000D02*
X208280000Y-131064000D01*
X109220000Y-124460000D02*
X110998000Y-124460000D01*
X234950000Y-116967000D02*
X237744000Y-114173000D01*
X237744000Y-114173000D02*
X237744000Y-112776000D01*
X113792000Y-131064000D02*
X208280000Y-131064000D01*
X208280000Y-144780000D02*
X208280000Y-132842000D01*
X113792000Y-127254000D02*
X113792000Y-131064000D01*
X234950000Y-119380000D02*
X234950000Y-116967000D01*
X232410000Y-116840000D02*
X236474000Y-112776000D01*
X113030000Y-131826000D02*
X113030000Y-129032000D01*
X232410000Y-119380000D02*
X232410000Y-116840000D01*
X236474000Y-112776000D02*
X236474000Y-111506000D01*
X205740000Y-131826000D02*
X113030000Y-131826000D01*
X113030000Y-129032000D02*
X110998000Y-127000000D01*
X110998000Y-127000000D02*
X109220000Y-127000000D01*
X205740000Y-131826000D02*
X232410000Y-131826000D01*
X205740000Y-144780000D02*
X205740000Y-131826000D01*
X236474000Y-111506000D02*
X246380000Y-101600000D01*
X200914000Y-142494000D02*
X203200000Y-144780000D01*
X220726000Y-102870000D02*
X228092000Y-102870000D01*
X200914000Y-119634000D02*
X200914000Y-103886000D01*
X205994000Y-102870000D02*
X215646000Y-102870000D01*
X204724000Y-101600000D02*
X205994000Y-102870000D01*
X203200000Y-101600000D02*
X204724000Y-101600000D01*
X229362000Y-101600000D02*
X231140000Y-101600000D01*
X228092000Y-102870000D02*
X229362000Y-101600000D01*
X200914000Y-103886000D02*
X203200000Y-101600000D01*
X200914000Y-132588000D02*
X200914000Y-142494000D01*
X199898000Y-102362000D02*
X203200000Y-99060000D01*
X229362000Y-99060000D02*
X231140000Y-99060000D01*
X199898000Y-144018000D02*
X200660000Y-144780000D01*
X203200000Y-99060000D02*
X204724000Y-99060000D01*
X205994000Y-100330000D02*
X228092000Y-100330000D01*
X199898000Y-133858000D02*
X199898000Y-144018000D01*
X204724000Y-99060000D02*
X205994000Y-100330000D01*
X199898000Y-118364000D02*
X199898000Y-102362000D01*
X228092000Y-100330000D02*
X229362000Y-99060000D01*
X198882000Y-119634000D02*
X198882000Y-100838000D01*
X205994000Y-97790000D02*
X228092000Y-97790000D01*
X198882000Y-144018000D02*
X198120000Y-144780000D01*
X228092000Y-97790000D02*
X229362000Y-96520000D01*
X204724000Y-96520000D02*
X205994000Y-97790000D01*
X198882000Y-132588000D02*
X198882000Y-144018000D01*
X203200000Y-96520000D02*
X204724000Y-96520000D01*
X229362000Y-96520000D02*
X231140000Y-96520000D01*
X198882000Y-100838000D02*
X203200000Y-96520000D01*
X197866000Y-142494000D02*
X195580000Y-144780000D01*
X229362000Y-93980000D02*
X231140000Y-93980000D01*
X200914000Y-93980000D02*
X204724000Y-93980000D01*
X205994000Y-95250000D02*
X228092000Y-95250000D01*
X197866000Y-133858000D02*
X197866000Y-142494000D01*
X204724000Y-93980000D02*
X205994000Y-95250000D01*
X197866000Y-118364000D02*
X197866000Y-97028000D01*
X228092000Y-95250000D02*
X229362000Y-93980000D01*
X197866000Y-97028000D02*
X200914000Y-93980000D01*
X204724000Y-91440000D02*
X205994000Y-92710000D01*
X205994000Y-92710000D02*
X228092000Y-92710000D01*
X229362000Y-91440000D02*
X231140000Y-91440000D01*
X196850000Y-95504000D02*
X200914000Y-91440000D01*
X200914000Y-91440000D02*
X204724000Y-91440000D01*
X196850000Y-119634000D02*
X196850000Y-95504000D01*
X196850000Y-140970000D02*
X193040000Y-144780000D01*
X228092000Y-92710000D02*
X229362000Y-91440000D01*
X196850000Y-132588000D02*
X196850000Y-140970000D01*
X195834000Y-139446000D02*
X190500000Y-144780000D01*
X229362000Y-88900000D02*
X231140000Y-88900000D01*
X195834000Y-133858000D02*
X195834000Y-139446000D01*
X205994000Y-90170000D02*
X228092000Y-90170000D01*
X228092000Y-90170000D02*
X229362000Y-88900000D01*
X195834000Y-93980000D02*
X200914000Y-88900000D01*
X195834000Y-118364000D02*
X195834000Y-93980000D01*
X200914000Y-88900000D02*
X204724000Y-88900000D01*
X204724000Y-88900000D02*
X205994000Y-90170000D01*
X194818000Y-119634000D02*
X194818000Y-92456000D01*
X204724000Y-86360000D02*
X205994000Y-87630000D01*
X228092000Y-87630000D02*
X229362000Y-86360000D01*
X194818000Y-92456000D02*
X200914000Y-86360000D01*
X194818000Y-132588000D02*
X194818000Y-137922000D01*
X194818000Y-137922000D02*
X187960000Y-144780000D01*
X200914000Y-86360000D02*
X204724000Y-86360000D01*
X205994000Y-87630000D02*
X228092000Y-87630000D01*
X229362000Y-86360000D02*
X231140000Y-86360000D01*
X205994000Y-85090000D02*
X228092000Y-85090000D01*
X193802000Y-136906000D02*
X185928000Y-144780000D01*
X228092000Y-85090000D02*
X229362000Y-83820000D01*
X229362000Y-83820000D02*
X231140000Y-83820000D01*
X193802000Y-90932000D02*
X200914000Y-83820000D01*
X185928000Y-144780000D02*
X185420000Y-144780000D01*
X204724000Y-83820000D02*
X205994000Y-85090000D01*
X193802000Y-118364000D02*
X193802000Y-90932000D01*
X200914000Y-83820000D02*
X204724000Y-83820000D01*
X193802000Y-133858000D02*
X193802000Y-136906000D01*
X204724000Y-85090000D02*
X205979000Y-86345000D01*
X243586000Y-85090000D02*
X244856000Y-86360000D01*
X205979000Y-86345000D02*
X228107000Y-86345000D01*
X228107000Y-86345000D02*
X229362000Y-85090000D01*
X192786000Y-136398000D02*
X186690000Y-142494000D01*
X229362000Y-85090000D02*
X243586000Y-85090000D01*
X192786000Y-132588000D02*
X192786000Y-136398000D01*
X185166000Y-142494000D02*
X182880000Y-144780000D01*
X192786000Y-89662000D02*
X192786000Y-119634000D01*
X200914000Y-85090000D02*
X204724000Y-85090000D01*
X197358000Y-85090000D02*
X192786000Y-89662000D01*
X186690000Y-142494000D02*
X185166000Y-142494000D01*
X244856000Y-86360000D02*
X246380000Y-86360000D01*
X228107000Y-88885000D02*
X229362000Y-87630000D01*
X191770000Y-88900000D02*
X191770000Y-118364000D01*
X229362000Y-87630000D02*
X243586000Y-87630000D01*
X191770000Y-133858000D02*
X191770000Y-135890000D01*
X186182000Y-141478000D02*
X183388000Y-141478000D01*
X243586000Y-87630000D02*
X244856000Y-88900000D01*
X191770000Y-135890000D02*
X186182000Y-141478000D01*
X205979000Y-88885000D02*
X228107000Y-88885000D01*
X193040000Y-87630000D02*
X191770000Y-88900000D01*
X180340000Y-144526000D02*
X180340000Y-144780000D01*
X244856000Y-88900000D02*
X246380000Y-88900000D01*
X200914000Y-87630000D02*
X204724000Y-87630000D01*
X183388000Y-141478000D02*
X180340000Y-144526000D01*
X204724000Y-87630000D02*
X205979000Y-88885000D01*
X177800000Y-144526000D02*
X177800000Y-144780000D01*
X244856000Y-96520000D02*
X246380000Y-96520000D01*
X190754000Y-135636000D02*
X185928000Y-140462000D01*
X204724000Y-95250000D02*
X205994000Y-96520000D01*
X206009000Y-96505000D02*
X228107000Y-96505000D01*
X190754000Y-132588000D02*
X190754000Y-135636000D01*
X200914000Y-95250000D02*
X204724000Y-95250000D01*
X228107000Y-96505000D02*
X229362000Y-95250000D01*
X243586000Y-95250000D02*
X244856000Y-96520000D01*
X181864000Y-140462000D02*
X177800000Y-144526000D01*
X205994000Y-96520000D02*
X206009000Y-96505000D01*
X229362000Y-95250000D02*
X243586000Y-95250000D01*
X190754000Y-95250000D02*
X190754000Y-119634000D01*
X185928000Y-140462000D02*
X181864000Y-140462000D01*
X243586000Y-90170000D02*
X244856000Y-91440000D01*
X189738000Y-135382000D02*
X185674000Y-139446000D01*
X189738000Y-90170000D02*
X189738000Y-118364000D01*
X185674000Y-139446000D02*
X180594000Y-139446000D01*
X189738000Y-133858000D02*
X189738000Y-135382000D01*
X200914000Y-90170000D02*
X204724000Y-90170000D01*
X244856000Y-91440000D02*
X246380000Y-91440000D01*
X180594000Y-139446000D02*
X175260000Y-144780000D01*
X205994000Y-91440000D02*
X218948000Y-91440000D01*
X228107000Y-91425000D02*
X229362000Y-90170000D01*
X204724000Y-90170000D02*
X205994000Y-91440000D01*
X218440000Y-91425000D02*
X228107000Y-91425000D01*
X229362000Y-90170000D02*
X243586000Y-90170000D01*
X188722000Y-132588000D02*
X188722000Y-134874000D01*
X205994000Y-82550000D02*
X228092000Y-82550000D01*
X179070000Y-138430000D02*
X172720000Y-144780000D01*
X188722000Y-119634000D02*
X188722000Y-89154000D01*
X229362000Y-81280000D02*
X231140000Y-81280000D01*
X185166000Y-138430000D02*
X179070000Y-138430000D01*
X196596000Y-81280000D02*
X204724000Y-81280000D01*
X188722000Y-134874000D02*
X185166000Y-138430000D01*
X188722000Y-89154000D02*
X196596000Y-81280000D01*
X204724000Y-81280000D02*
X205994000Y-82550000D01*
X228092000Y-82550000D02*
X229362000Y-81280000D01*
X200914000Y-82550000D02*
X204724000Y-82550000D01*
X218440000Y-83805000D02*
X228107000Y-83805000D01*
X205994000Y-83820000D02*
X218440000Y-83820000D01*
X243586000Y-82550000D02*
X244856000Y-83820000D01*
X193040000Y-82550000D02*
X187706000Y-87884000D01*
X187706500Y-134111500D02*
X184404000Y-137414000D01*
X228107000Y-83805000D02*
X229362000Y-82550000D01*
X184404000Y-137414000D02*
X177546000Y-137414000D01*
X229362000Y-82550000D02*
X243586000Y-82550000D01*
X177546000Y-137414000D02*
X170180000Y-144780000D01*
X187706500Y-133858000D02*
X187706500Y-134111500D01*
X187706000Y-87884000D02*
X187706000Y-118364000D01*
X204724000Y-82550000D02*
X205994000Y-83820000D01*
X244856000Y-83820000D02*
X246380000Y-83820000D01*
X183642000Y-136398000D02*
X176022000Y-136398000D01*
X229362000Y-78740000D02*
X231140000Y-78740000D01*
X203200000Y-78725000D02*
X204709000Y-78725000D01*
X186690000Y-132588000D02*
X186690000Y-133350000D01*
X186690000Y-119634000D02*
X186690000Y-86360000D01*
X205994000Y-80010000D02*
X228092000Y-80010000D01*
X176022000Y-136398000D02*
X167640000Y-144780000D01*
X186690000Y-86360000D02*
X194310000Y-78740000D01*
X186690000Y-133350000D02*
X183642000Y-136398000D01*
X194310000Y-78740000D02*
X203200000Y-78740000D01*
X204709000Y-78725000D02*
X205994000Y-80010000D01*
X228092000Y-80010000D02*
X229362000Y-78740000D01*
X245110000Y-63500000D02*
X242824000Y-65786000D01*
X242824000Y-65786000D02*
X218186000Y-65786000D01*
X214630000Y-62230000D02*
X214630000Y-59690000D01*
X218186000Y-65786000D02*
X214630000Y-62230000D01*
X152146000Y-57658000D02*
X154432000Y-55372000D01*
X143510000Y-70358000D02*
X143510000Y-72136000D01*
X154432000Y-55372000D02*
X242570000Y-55372000D01*
X146558000Y-67310000D02*
X143510000Y-70358000D01*
X151384000Y-61722000D02*
X151384000Y-66294000D01*
X143510000Y-72136000D02*
X145542000Y-74168000D01*
X150368000Y-67310000D02*
X146558000Y-67310000D01*
X145542000Y-74168000D02*
X149860000Y-74168000D01*
X242570000Y-55372000D02*
X242570000Y-63500000D01*
X151384000Y-66294000D02*
X150368000Y-67310000D01*
X251460000Y-63500000D02*
X248412000Y-66548000D01*
X216408000Y-66548000D02*
X214630000Y-64770000D01*
X248412000Y-66548000D02*
X216408000Y-66548000D01*
X188976000Y-56388000D02*
X186690000Y-58674000D01*
X150114000Y-89408000D02*
X147320000Y-86614000D01*
X186690000Y-62484000D02*
X183388000Y-65786000D01*
X183388000Y-74676000D02*
X183388000Y-89408000D01*
X247904000Y-56388000D02*
X248920000Y-57404000D01*
X183388000Y-65786000D02*
X183388000Y-72136000D01*
X186690000Y-58674000D02*
X186690000Y-62484000D01*
X241300000Y-56388000D02*
X188976000Y-56388000D01*
X243840000Y-56388000D02*
X247904000Y-56388000D01*
X248920000Y-57404000D02*
X248920000Y-63500000D01*
X183388000Y-89408000D02*
X150114000Y-89408000D01*
X159258000Y-132842000D02*
X147320000Y-144780000D01*
X147320000Y-144780000D02*
X139700000Y-144780000D01*
X172720000Y-119380000D02*
X175260000Y-116840000D01*
X143002000Y-146558000D02*
X137160000Y-146558000D01*
X146304000Y-143256000D02*
X156718000Y-132842000D01*
X143256000Y-146304000D02*
X143002000Y-146558000D01*
X137160000Y-146558000D02*
X137160000Y-144780000D01*
X170180000Y-119380000D02*
X172720000Y-116840000D01*
X170180000Y-116840000D02*
X167640000Y-119380000D01*
X154178000Y-132842000D02*
X144272000Y-142748000D01*
X144272000Y-142748000D02*
X136652000Y-142748000D01*
X136652000Y-142748000D02*
X134620000Y-144780000D01*
X151638000Y-132842000D02*
X142494000Y-141986000D01*
X142494000Y-141986000D02*
X134874000Y-141986000D01*
X134874000Y-141986000D02*
X132080000Y-144780000D01*
X167640000Y-116840000D02*
X165100000Y-119380000D01*
X133096000Y-141224000D02*
X129540000Y-144780000D01*
X149098000Y-132842000D02*
X140716000Y-141224000D01*
X165100000Y-116840000D02*
X162560000Y-119380000D01*
X140716000Y-141224000D02*
X133096000Y-141224000D01*
X138938000Y-140462000D02*
X131318000Y-140462000D01*
X146558000Y-132842000D02*
X138938000Y-140462000D01*
X162560000Y-116840000D02*
X160020000Y-119380000D01*
X131318000Y-140462000D02*
X127000000Y-144780000D01*
X160020000Y-116840000D02*
X157480000Y-119380000D01*
X137160000Y-139700000D02*
X129540000Y-139700000D01*
X144018000Y-132842000D02*
X137160000Y-139700000D01*
X129540000Y-139700000D02*
X124460000Y-144780000D01*
X157480000Y-116840000D02*
X154940000Y-119380000D01*
X135382000Y-138938000D02*
X127762000Y-138938000D01*
X141478000Y-132842000D02*
X135382000Y-138938000D01*
X127762000Y-138938000D02*
X121920000Y-144780000D01*
X152400000Y-119380000D02*
X154940000Y-116840000D01*
X138938000Y-132842000D02*
X133604000Y-138176000D01*
X125984000Y-138176000D02*
X119380000Y-144780000D01*
X133604000Y-138176000D02*
X125984000Y-138176000D01*
X136398000Y-132842000D02*
X131826000Y-137414000D01*
X152400000Y-116840000D02*
X149860000Y-119380000D01*
X124206000Y-137414000D02*
X116840000Y-144780000D01*
X131826000Y-137414000D02*
X124206000Y-137414000D01*
X122428000Y-136652000D02*
X114300000Y-144780000D01*
X133858000Y-132842000D02*
X130048000Y-136652000D01*
X149860000Y-116840000D02*
X147320000Y-119380000D01*
X130048000Y-136652000D02*
X122428000Y-136652000D01*
X128270000Y-135890000D02*
X120650000Y-135890000D01*
X147320000Y-116840000D02*
X144780000Y-119380000D01*
X131318000Y-132842000D02*
X128270000Y-135890000D01*
X120650000Y-135890000D02*
X111760000Y-144780000D01*
X128778000Y-132842000D02*
X126492000Y-135128000D01*
X126492000Y-135128000D02*
X118872000Y-135128000D01*
X144780000Y-116840000D02*
X142240000Y-119380000D01*
X118872000Y-135128000D02*
X109220000Y-144780000D01*
X124714000Y-134366000D02*
X117094000Y-134366000D01*
X142240000Y-116840000D02*
X139700000Y-119380000D01*
X117094000Y-134366000D02*
X106680000Y-144780000D01*
X126238000Y-132842000D02*
X124714000Y-134366000D01*
X139700000Y-116840000D02*
X137160000Y-119380000D01*
X122936000Y-133604000D02*
X115316000Y-133604000D01*
X123698000Y-132842000D02*
X122936000Y-133604000D01*
X115316000Y-133604000D02*
X104140000Y-144780000D01*
X121158000Y-132842000D02*
X113538000Y-132842000D01*
X137160000Y-116840000D02*
X134620000Y-119380000D01*
X113538000Y-132842000D02*
X101600000Y-144780000D01*
X64770000Y-113030000D02*
X64770000Y-100330000D01*
X63500000Y-134620000D02*
X63500000Y-129540000D01*
X58928000Y-142240000D02*
X58928000Y-145796000D01*
X63500000Y-129540000D02*
X64770000Y-128270000D01*
X64770000Y-85090000D02*
X63500000Y-83820000D01*
X64770000Y-100330000D02*
X63500000Y-99060000D01*
X64770000Y-128270000D02*
X64770000Y-115570000D01*
X64770000Y-115570000D02*
X63500000Y-114300000D01*
X76200000Y-146812000D02*
X76200000Y-144780000D01*
X75946000Y-147066000D02*
X76200000Y-146812000D01*
X63500000Y-114300000D02*
X64770000Y-113030000D01*
X58928000Y-145796000D02*
X60198000Y-147066000D01*
X60198000Y-147066000D02*
X75946000Y-147066000D01*
X63500000Y-137668000D02*
X58928000Y-142240000D01*
X64770000Y-97790000D02*
X64770000Y-85090000D01*
X63500000Y-99060000D02*
X64770000Y-97790000D01*
X104902000Y-102870000D02*
X104902000Y-134620000D01*
X168910000Y-74930000D02*
X162306000Y-74930000D01*
X60960000Y-144780000D02*
X67564000Y-138176000D01*
X153416000Y-62545631D02*
X154940000Y-61021631D01*
X153416000Y-66040000D02*
X153416000Y-62545631D01*
X154493631Y-59944000D02*
X104902000Y-59944000D01*
X154940000Y-61021631D02*
X154940000Y-60390369D01*
X104902000Y-134620000D02*
X67564000Y-134620000D01*
X102616000Y-100584000D02*
X104902000Y-102870000D01*
X170180000Y-86614000D02*
X167640000Y-86614000D01*
X168910000Y-85344000D02*
X167640000Y-86614000D01*
X102616000Y-97790000D02*
X102616000Y-100584000D01*
X168910000Y-83566000D02*
X168910000Y-85344000D01*
X154940000Y-60390369D02*
X154493631Y-59944000D01*
X67564000Y-138176000D02*
X67564000Y-137668000D01*
X162306000Y-74930000D02*
X153416000Y-66040000D01*
X102616000Y-65024000D02*
X102616000Y-67056000D01*
X102616000Y-67056000D02*
X104902000Y-69342000D01*
X104902000Y-62738000D02*
X102616000Y-65024000D01*
X104902000Y-95504000D02*
X102616000Y-97790000D01*
X104902000Y-69342000D02*
X104902000Y-95504000D01*
X104902000Y-59944000D02*
X104902000Y-62738000D01*
X134620000Y-101600000D02*
X134620000Y-109220000D01*
X137160000Y-111760000D02*
X137160000Y-114300000D01*
X134620000Y-109220000D02*
X137160000Y-111760000D01*
X137160000Y-109220000D02*
X139700000Y-111760000D01*
X139700000Y-111760000D02*
X139700000Y-114300000D01*
X137160000Y-109220000D02*
X137160000Y-101600000D01*
X139700000Y-101600000D02*
X139700000Y-109220000D01*
X142240000Y-111760000D02*
X142240000Y-114300000D01*
X139700000Y-109220000D02*
X142240000Y-111760000D01*
X142240000Y-109220000D02*
X144780000Y-111760000D01*
X144780000Y-111760000D02*
X144780000Y-114300000D01*
X142240000Y-109220000D02*
X142240000Y-101600000D01*
X144780000Y-109220000D02*
X147320000Y-111760000D01*
X147320000Y-111760000D02*
X147320000Y-114300000D01*
X144780000Y-101600000D02*
X144780000Y-109220000D01*
X147320000Y-109220000D02*
X147320000Y-101600000D01*
X149860000Y-114300000D02*
X149860000Y-111760000D01*
X149860000Y-111760000D02*
X147320000Y-109220000D01*
X152400000Y-111760000D02*
X152400000Y-114300000D01*
X148590000Y-98552000D02*
X148590000Y-103124000D01*
X149860000Y-109220000D02*
X152400000Y-111760000D01*
X148590000Y-103124000D02*
X149860000Y-104394000D01*
X142240000Y-98552000D02*
X148590000Y-98552000D01*
X149860000Y-104394000D02*
X149860000Y-109220000D01*
X152400000Y-109220000D02*
X154940000Y-111760000D01*
X139700000Y-97790000D02*
X152400000Y-97790000D01*
X152400000Y-97790000D02*
X152400000Y-109220000D01*
X154940000Y-111760000D02*
X154940000Y-114300000D01*
X157480000Y-111760000D02*
X157480000Y-114300000D01*
X160020000Y-101600000D02*
X160020000Y-109220000D01*
X160020000Y-109220000D02*
X157480000Y-111760000D01*
X160020000Y-111760000D02*
X160020000Y-114300000D01*
X162560000Y-109220000D02*
X160020000Y-111760000D01*
X162560000Y-109220000D02*
X162560000Y-101600000D01*
X165100000Y-109220000D02*
X162560000Y-111760000D01*
X165100000Y-101600000D02*
X165100000Y-109220000D01*
X162560000Y-111760000D02*
X162560000Y-114300000D01*
X165100000Y-111760000D02*
X165100000Y-114300000D01*
X167640000Y-101600000D02*
X167640000Y-109220000D01*
X167640000Y-109220000D02*
X165100000Y-111760000D01*
X170180000Y-109220000D02*
X170180000Y-101600000D01*
X167640000Y-111760000D02*
X167640000Y-114300000D01*
X170180000Y-109220000D02*
X167640000Y-111760000D01*
X172720000Y-101600000D02*
X172720000Y-109220000D01*
X170180000Y-114300000D02*
X170180000Y-111760000D01*
X170180000Y-111760000D02*
X172720000Y-109220000D01*
X175260000Y-104394000D02*
X175260000Y-109220000D01*
X167640000Y-99060000D02*
X173990000Y-99060000D01*
X173990000Y-99060000D02*
X173990000Y-103124000D01*
X175260000Y-109220000D02*
X172720000Y-111760000D01*
X173990000Y-103124000D02*
X175260000Y-104394000D01*
X172720000Y-111760000D02*
X172720000Y-114300000D01*
X175260000Y-111760000D02*
X177800000Y-109220000D01*
X166370000Y-98044000D02*
X177800000Y-98044000D01*
X175260000Y-114300000D02*
X175260000Y-111760000D01*
X177800000Y-98044000D02*
X177800000Y-109220000D01*
X81534000Y-81026000D02*
X70866000Y-81026000D01*
X91440000Y-66294000D02*
X98806000Y-73660000D01*
X70866000Y-81026000D02*
X66040000Y-76200000D01*
X98806000Y-73660000D02*
X101600000Y-73660000D01*
X91440000Y-60960000D02*
X91440000Y-66294000D01*
X97790000Y-76200000D02*
X97790000Y-73914000D01*
X88900000Y-65024000D02*
X88900000Y-60960000D01*
X72390000Y-80010000D02*
X68580000Y-76200000D01*
X101600000Y-76200000D02*
X97790000Y-76200000D01*
X82550000Y-80010000D02*
X72390000Y-80010000D01*
X97790000Y-73914000D02*
X88900000Y-65024000D01*
X86360000Y-63754000D02*
X86360000Y-60960000D01*
X96774000Y-74168000D02*
X86360000Y-63754000D01*
X96774000Y-78740000D02*
X101600000Y-78740000D01*
X81534000Y-78994000D02*
X73914000Y-78994000D01*
X96774000Y-78740000D02*
X96774000Y-74168000D01*
X73914000Y-78994000D02*
X71120000Y-76200000D01*
X97282000Y-81280000D02*
X101600000Y-81280000D01*
X95758000Y-79756000D02*
X97282000Y-81280000D01*
X83820000Y-62484000D02*
X83820000Y-60960000D01*
X75438000Y-77978000D02*
X73660000Y-76200000D01*
X82550000Y-77978000D02*
X75438000Y-77978000D01*
X95758000Y-74422000D02*
X83820000Y-62484000D01*
X95758000Y-77978000D02*
X95758000Y-74422000D01*
X95758000Y-77978000D02*
X95758000Y-79756000D01*
X70866000Y-86614000D02*
X66040000Y-91440000D01*
X94742000Y-74676000D02*
X94742000Y-83820000D01*
X82550000Y-86614000D02*
X70866000Y-86614000D01*
X81280000Y-60960000D02*
X81280000Y-61214000D01*
X94742000Y-83820000D02*
X101600000Y-83820000D01*
X81280000Y-61214000D02*
X94742000Y-74676000D01*
X101600000Y-86360000D02*
X94996000Y-86360000D01*
X84582000Y-66802000D02*
X78740000Y-60960000D01*
X85598000Y-66802000D02*
X84582000Y-66802000D01*
X72390000Y-87630000D02*
X68580000Y-91440000D01*
X93726000Y-86360000D02*
X93726000Y-74930000D01*
X81534000Y-87630000D02*
X72390000Y-87630000D01*
X93726000Y-74930000D02*
X85598000Y-66802000D01*
X93726000Y-86360000D02*
X94996000Y-86360000D01*
X92710000Y-75184000D02*
X85090000Y-67564000D01*
X82550000Y-88646000D02*
X73914000Y-88646000D01*
X73914000Y-88646000D02*
X71120000Y-91440000D01*
X85090000Y-67564000D02*
X82296000Y-67564000D01*
X82296000Y-67564000D02*
X76200000Y-61468000D01*
X92710000Y-88900000D02*
X92710000Y-75184000D01*
X92710000Y-88900000D02*
X101600000Y-88900000D01*
X76200000Y-61468000D02*
X76200000Y-60960000D01*
X91694000Y-89662000D02*
X91694002Y-89661998D01*
X91694000Y-91440000D02*
X101600000Y-91440000D01*
X84582000Y-68326000D02*
X81026000Y-68326000D01*
X81026000Y-68326000D02*
X73660000Y-60960000D01*
X75438000Y-89662000D02*
X73660000Y-91440000D01*
X91694002Y-89661998D02*
X91694002Y-75438002D01*
X81534000Y-89662000D02*
X75438000Y-89662000D01*
X91694000Y-91440000D02*
X91694000Y-89662000D01*
X91694002Y-75438002D02*
X84582000Y-68326000D01*
X90678000Y-101854000D02*
X95504000Y-106680000D01*
X90678000Y-101854000D02*
X90678000Y-75692000D01*
X82550000Y-101854000D02*
X70866000Y-101854000D01*
X79248000Y-69088000D02*
X71120000Y-60960000D01*
X84074000Y-69088000D02*
X79248000Y-69088000D01*
X90678000Y-75692000D02*
X84074000Y-69088000D01*
X95504000Y-106680000D02*
X101600000Y-106680000D01*
X70866000Y-101854000D02*
X66040000Y-106680000D01*
X77470000Y-69850000D02*
X68580000Y-60960000D01*
X96012000Y-109220000D02*
X89662000Y-102870000D01*
X81534000Y-102870000D02*
X72390000Y-102870000D01*
X83566000Y-69850000D02*
X77470000Y-69850000D01*
X101600000Y-109220000D02*
X96012000Y-109220000D01*
X72390000Y-102870000D02*
X68580000Y-106680000D01*
X89662000Y-102870000D02*
X89662000Y-75946000D01*
X89662000Y-75946000D02*
X83566000Y-69850000D01*
X73914000Y-103886000D02*
X71120000Y-106680000D01*
X88646000Y-103886000D02*
X96520000Y-111760000D01*
X83058000Y-70612000D02*
X75692000Y-70612000D01*
X88646000Y-103886000D02*
X88646000Y-76200000D01*
X82550000Y-103886000D02*
X73914000Y-103886000D01*
X88646000Y-76200000D02*
X83058000Y-70612000D01*
X96520000Y-111760000D02*
X101600000Y-111760000D01*
X75692000Y-70612000D02*
X66040000Y-60960000D01*
X82550000Y-71374000D02*
X73914000Y-71374000D01*
X87630000Y-104902000D02*
X87630000Y-76454000D01*
X73914000Y-71374000D02*
X63500000Y-60960000D01*
X87630000Y-76454000D02*
X82550000Y-71374000D01*
X97028000Y-114300000D02*
X101600000Y-114300000D01*
X75438000Y-104902000D02*
X73660000Y-106680000D01*
X87630000Y-104902000D02*
X97028000Y-114300000D01*
X81534000Y-104902000D02*
X75438000Y-104902000D01*
X82550000Y-116332000D02*
X71628000Y-116332000D01*
X82042000Y-72136000D02*
X72136000Y-72136000D01*
X71628000Y-116332000D02*
X66040000Y-121920000D01*
X87122000Y-116840000D02*
X101600000Y-116840000D01*
X86614000Y-116332000D02*
X86614000Y-76708000D01*
X86614000Y-76708000D02*
X82042000Y-72136000D01*
X72136000Y-72136000D02*
X60960000Y-60960000D01*
X86614000Y-116332000D02*
X87122000Y-116840000D01*
X81534000Y-117348000D02*
X73152000Y-117348000D01*
X81534000Y-72898000D02*
X62484000Y-72898000D01*
X58420000Y-68834000D02*
X58420000Y-60960000D01*
X62484000Y-72898000D02*
X58420000Y-68834000D01*
X85598000Y-76962000D02*
X81534000Y-72898000D01*
X85598000Y-117348000D02*
X87630000Y-119380000D01*
X85598000Y-117348000D02*
X85598000Y-76962000D01*
X87630000Y-119380000D02*
X101600000Y-119380000D01*
X73152000Y-117348000D02*
X68580000Y-121920000D01*
X88138000Y-121920000D02*
X101600000Y-121920000D01*
X84582000Y-118364000D02*
X88138000Y-121920000D01*
X84582000Y-77172420D02*
X81069580Y-73660000D01*
X74676000Y-118364000D02*
X71120000Y-121920000D01*
X84582000Y-118364000D02*
X84582000Y-77172420D01*
X81069580Y-73660000D02*
X61468000Y-73660000D01*
X55880000Y-68072000D02*
X55880000Y-60960000D01*
X61468000Y-73660000D02*
X55880000Y-68072000D01*
X82550000Y-118364000D02*
X74676000Y-118364000D01*
X80518000Y-74422000D02*
X60452000Y-74422000D01*
X60452000Y-74422000D02*
X53340000Y-67310000D01*
X73660000Y-121920000D02*
X76200000Y-119380000D01*
X53340000Y-67310000D02*
X53340000Y-60960000D01*
X83566000Y-119380000D02*
X83566000Y-77470000D01*
X76200000Y-119380000D02*
X83566000Y-119380000D01*
X88646000Y-124460000D02*
X83566000Y-119380000D01*
X83566000Y-77470000D02*
X80518000Y-74422000D01*
X101600000Y-124460000D02*
X88646000Y-124460000D01*
X101854000Y-67310000D02*
X104140000Y-69596000D01*
X104140000Y-103124000D02*
X104140000Y-133858000D01*
X104140000Y-133858000D02*
X71120000Y-133858000D01*
X101854000Y-97536000D02*
X101854000Y-100838000D01*
X104140000Y-69596000D02*
X104140000Y-95250000D01*
X134620000Y-71120000D02*
X136144000Y-69596000D01*
X104140000Y-59182000D02*
X104140000Y-62484000D01*
X140970000Y-59182000D02*
X104140000Y-59182000D01*
X140716000Y-69596000D02*
X142240000Y-71120000D01*
X71120000Y-144780000D02*
X71120000Y-139700000D01*
X104140000Y-62484000D02*
X101854000Y-64770000D01*
X140970000Y-65278000D02*
X140208000Y-66040000D01*
X101854000Y-64770000D02*
X101854000Y-67310000D01*
X140208000Y-66040000D02*
X140208000Y-69596000D01*
X136144000Y-69596000D02*
X140716000Y-69596000D01*
X101854000Y-100838000D02*
X104140000Y-103124000D01*
X104140000Y-95250000D02*
X101854000Y-97536000D01*
X154178000Y-57658000D02*
X177800000Y-57658000D01*
X62230000Y-115570000D02*
X60960000Y-114300000D01*
X105664000Y-135382000D02*
X60960000Y-135382000D01*
X60960000Y-114300000D02*
X62230000Y-113030000D01*
X180848000Y-61214000D02*
X182372000Y-61214000D01*
X62230000Y-85090000D02*
X60960000Y-83820000D01*
X62230000Y-97790000D02*
X62230000Y-85090000D01*
X154178000Y-60706000D02*
X105664000Y-60706000D01*
X180848000Y-63500000D02*
X180848000Y-61214000D01*
X62230000Y-128270000D02*
X62230000Y-115570000D01*
X177800000Y-61214000D02*
X180848000Y-61214000D01*
X60960000Y-135382000D02*
X60960000Y-129540000D01*
X105664000Y-60706000D02*
X105664000Y-135382000D01*
X62230000Y-113030000D02*
X62230000Y-100330000D01*
X60960000Y-129540000D02*
X62230000Y-128270000D01*
X62230000Y-100330000D02*
X60960000Y-99060000D01*
X60960000Y-99060000D02*
X62230000Y-97790000D01*
X177800000Y-57658000D02*
X177800000Y-61214000D01*
X178689000Y-87122000D02*
X180340000Y-87122000D01*
X172720000Y-86614000D02*
X174244000Y-85090000D01*
X174244000Y-85090000D02*
X176657000Y-85090000D01*
X182880000Y-64770000D02*
X181610000Y-66040000D01*
X181610000Y-85852000D02*
X181610000Y-74676000D01*
X183388000Y-63500000D02*
X182880000Y-64008000D01*
X180340000Y-87122000D02*
X181610000Y-85852000D01*
X181610000Y-66040000D02*
X181610000Y-72136000D01*
X176657000Y-85090000D02*
X178689000Y-87122000D01*
X182880000Y-64008000D02*
X182880000Y-64770000D01*
X205994000Y-93980000D02*
X218440000Y-93980000D01*
X229362000Y-92710000D02*
X243586000Y-92710000D01*
X248412000Y-119380000D02*
X248412000Y-96012000D01*
X182372000Y-88138000D02*
X166624000Y-88138000D01*
X185420000Y-89154000D02*
X185420000Y-92710000D01*
X218440000Y-93965000D02*
X228107000Y-93965000D01*
X243586000Y-92710000D02*
X244856000Y-93980000D01*
X184404000Y-88138000D02*
X185420000Y-89154000D01*
X166624000Y-88138000D02*
X165100000Y-86614000D01*
X244856000Y-93980000D02*
X246380000Y-93980000D01*
X228107000Y-93965000D02*
X229362000Y-92710000D01*
X204724000Y-92710000D02*
X205994000Y-93980000D01*
X200914000Y-92710000D02*
X204724000Y-92710000D01*
X248412000Y-96012000D02*
X246380000Y-93980000D01*
X147828000Y-91948000D02*
X149860000Y-93980000D01*
X134620000Y-86614000D02*
X139954000Y-91948000D01*
X139954000Y-91948000D02*
X147828000Y-91948000D01*
X173228000Y-91948000D02*
X175260000Y-93980000D01*
X137160000Y-86614000D02*
X141732000Y-91186000D01*
X141732000Y-91186000D02*
X148336000Y-91186000D01*
X148336000Y-91186000D02*
X149098000Y-91948000D01*
X149098000Y-91948000D02*
X173228000Y-91948000D01*
X144780000Y-86614000D02*
X144780000Y-83820000D01*
X139700000Y-86614000D02*
X144780000Y-86614000D01*
X141224000Y-75184000D02*
X137160000Y-71120000D01*
X144780000Y-83820000D02*
X143510000Y-82550000D01*
X143510000Y-75184000D02*
X141224000Y-75184000D01*
X59690000Y-59690000D02*
X59690000Y-64770000D01*
X60960000Y-68580000D02*
X60960000Y-66040000D01*
X178816000Y-58420000D02*
X182372000Y-58420000D01*
X157988000Y-77216000D02*
X156972000Y-77216000D01*
X153162000Y-58420000D02*
X170180000Y-58420000D01*
X156972000Y-75884369D02*
X156972000Y-77216000D01*
X156972000Y-77216000D02*
X149098000Y-77216000D01*
X170180000Y-58420000D02*
X176784000Y-58420000D01*
X147320000Y-78994000D02*
X144780000Y-78994000D01*
X152715631Y-71628000D02*
X156972000Y-75884369D01*
X60960000Y-58420000D02*
X59690000Y-59690000D01*
X59690000Y-64770000D02*
X60960000Y-66040000D01*
X149098000Y-77216000D02*
X147320000Y-78994000D01*
X153162000Y-58420000D02*
X60960000Y-58420000D01*
X152400000Y-68072000D02*
X152400000Y-62484000D01*
X152400000Y-71628000D02*
X152715631Y-71628000D01*
X125476000Y-73660000D02*
X109220000Y-73660000D01*
X111252000Y-106680000D02*
X109220000Y-106680000D01*
X135890000Y-76200000D02*
X128016000Y-76200000D01*
X111252000Y-95250000D02*
X111252000Y-96520000D01*
X111252000Y-73660000D02*
X109220000Y-73660000D01*
X111252000Y-96520000D02*
X111252000Y-106680000D01*
X156210000Y-76200000D02*
X135890000Y-76200000D01*
X115316000Y-96520000D02*
X111252000Y-96520000D01*
X67310000Y-86868000D02*
X67310000Y-82296000D01*
X64008000Y-78994000D02*
X63500000Y-78486000D01*
X67310000Y-82296000D02*
X66040000Y-81026000D01*
X63500000Y-78486000D02*
X63500000Y-76200000D01*
X67310000Y-102362000D02*
X67310000Y-96520000D01*
X63500000Y-95250000D02*
X63500000Y-91440000D01*
X67310000Y-96520000D02*
X66040000Y-95250000D01*
X67310000Y-111760000D02*
X66040000Y-110490000D01*
X63500000Y-110490000D02*
X63500000Y-106680000D01*
X67310000Y-118110000D02*
X67310000Y-111760000D01*
X157226000Y-147320000D02*
X169164000Y-135382000D01*
X174752000Y-76962000D02*
X172720000Y-78994000D01*
X179070000Y-76962000D02*
X179070000Y-86360000D01*
X78486000Y-147320000D02*
X157226000Y-147320000D01*
X169164000Y-135382000D02*
X182372000Y-135382000D01*
X77470000Y-143256000D02*
X77470000Y-146304000D01*
X72644000Y-138430000D02*
X77470000Y-143256000D01*
X77470000Y-146304000D02*
X78486000Y-147320000D01*
X184404000Y-119634000D02*
X184404000Y-96012000D01*
X181356000Y-92964000D02*
X179070000Y-90678000D01*
X182372000Y-135382000D02*
X184404000Y-133350000D01*
X66040000Y-141986000D02*
X69596000Y-138430000D01*
X170180000Y-78994000D02*
X172720000Y-78994000D01*
X69596000Y-138430000D02*
X72644000Y-138430000D01*
X66040000Y-144780000D02*
X66040000Y-141986000D01*
X175514000Y-76962000D02*
X174752000Y-76962000D01*
X184404000Y-96012000D02*
X181356000Y-92964000D01*
X145542000Y-75184000D02*
X152654000Y-75184000D01*
X139700000Y-71120000D02*
X142748000Y-74168000D01*
X155956000Y-82550000D02*
X160020000Y-86614000D01*
X144526000Y-74168000D02*
X145542000Y-75184000D01*
X142748000Y-74168000D02*
X144526000Y-74168000D01*
X152654000Y-82550000D02*
X155956000Y-82550000D01*
X176022000Y-75946000D02*
X161544000Y-75946000D01*
X176784000Y-77470000D02*
X176784000Y-76708000D01*
X165100000Y-82296000D02*
X175260000Y-82296000D01*
X151130000Y-68326000D02*
X147574000Y-68326000D01*
X147574000Y-68326000D02*
X144780000Y-71120000D01*
X155194000Y-69596000D02*
X152400000Y-69596000D01*
X161544000Y-75946000D02*
X155194000Y-69596000D01*
X162560000Y-83504369D02*
X162560000Y-86614000D01*
X165100000Y-82296000D02*
X163768369Y-82296000D01*
X163768369Y-82296000D02*
X162560000Y-83504369D01*
X175260000Y-78994000D02*
X176784000Y-77470000D01*
X152400000Y-69596000D02*
X151130000Y-68326000D01*
X176784000Y-76708000D02*
X176022000Y-75946000D01*
X154432000Y-70612000D02*
X151892000Y-70612000D01*
X160782000Y-76962000D02*
X154432000Y-70612000D01*
X149098000Y-69342000D02*
X147320000Y-71120000D01*
X163068000Y-76962000D02*
X160782000Y-76962000D01*
X150622000Y-69342000D02*
X149098000Y-69342000D01*
X165100000Y-78994000D02*
X163068000Y-76962000D01*
X151892000Y-70612000D02*
X150622000Y-69342000D01*
M02*
