M48
; DRILL file {KiCad (7.0.0)} date Sun Sep 24 17:52:17 2023
; FORMAT={-:-/ absolute / metric / decimal}
; #@! TF.CreationDate,2023-09-24T17:52:17-07:00
; #@! TF.GenerationSoftware,Kicad,Pcbnew,(7.0.0)
; #@! TF.FileFunction,Plated,1,2,PTH
FMAT,2
METRIC
; #@! TA.AperFunction,Plated,PTH,ViaDrill
T1C0.381
; #@! TA.AperFunction,Plated,PTH,ComponentDrill
T2C0.800
; #@! TA.AperFunction,Plated,PTH,ComponentDrill
T3C0.900
; #@! TA.AperFunction,Plated,PTH,ComponentDrill
T4C1.000
%
G90
G05
T1
X60.96Y-93.98
X60.96Y-109.22
X60.96Y-124.46
X63.5Y-95.25
X63.5Y-110.49
X63.5Y-134.62
X63.5Y-137.668
X64.008Y-78.994
X66.04Y-81.026
X66.04Y-93.98
X66.04Y-95.25
X66.04Y-109.22
X66.04Y-110.49
X66.04Y-124.46
X67.31Y-86.868
X67.31Y-102.362
X67.31Y-118.11
X67.564Y-134.62
X67.564Y-137.668
X68.58Y-80.01
X71.12Y-133.858
X71.12Y-139.7
X81.534Y-78.994
X81.534Y-81.026
X81.534Y-87.63
X81.534Y-89.662
X81.534Y-102.87
X81.534Y-104.902
X81.534Y-117.348
X82.55Y-77.978
X82.55Y-80.01
X82.55Y-86.614
X82.55Y-88.646
X82.55Y-101.854
X82.55Y-103.886
X82.55Y-116.332
X82.55Y-118.364
X84.582Y-118.364
X85.598Y-117.348
X86.614Y-116.332
X87.63Y-104.902
X88.646Y-103.886
X89.662Y-102.87
X90.678Y-101.854
X91.44Y-137.414
X91.44Y-138.938
X91.694Y-91.44
X92.71Y-88.9
X93.726Y-86.36
X94.742Y-83.82
X95.758Y-77.978
X96.774Y-78.74
X97.79Y-76.2
X98.806Y-73.66
X101.092Y-68.58
X101.092Y-101.6
X106.934Y-68.58
X106.934Y-101.6
X107.95Y-61.722
X109.474Y-61.722
X111.252Y-73.66
X111.252Y-95.25
X121.158Y-132.842
X123.698Y-132.842
X125.476Y-73.66
X126.238Y-132.842
X128.016Y-76.2
X128.778Y-132.842
X131.318Y-132.842
X133.858Y-132.842
X134.62Y-119.38
X136.398Y-132.842
X137.16Y-119.38
X138.938Y-132.842
X139.7Y-97.79
X139.7Y-119.38
X140.97Y-59.182
X140.97Y-65.278
X141.478Y-132.842
X142.24Y-98.552
X142.24Y-119.38
X143.256Y-146.304
X143.51Y-75.184
X143.51Y-82.55
X144.018Y-132.842
X144.78Y-119.38
X146.304Y-143.256
X146.558Y-132.842
X147.32Y-119.38
X149.098Y-132.842
X149.86Y-74.168
X149.86Y-119.38
X151.384Y-61.722
X151.638Y-132.842
X152.146Y-57.658
X152.4Y-62.484
X152.4Y-68.072
X152.4Y-71.628
X152.4Y-119.38
X152.654Y-75.184
X152.654Y-82.55
X153.162Y-58.42
X154.178Y-57.658
X154.178Y-60.706
X154.178Y-132.842
X154.94Y-119.38
X156.21Y-76.2
X156.718Y-132.842
X157.48Y-119.38
X157.988Y-77.216
X159.258Y-132.842
X160.02Y-119.38
X162.56Y-119.38
X165.1Y-119.38
X166.37Y-98.044
X167.64Y-99.06
X167.64Y-119.38
X168.91Y-74.93
X168.91Y-83.566
X170.18Y-119.38
X172.72Y-119.38
X175.26Y-82.296
X175.514Y-76.962
X176.784Y-58.42
X178.816Y-58.42
X179.07Y-76.962
X179.07Y-86.36
X179.07Y-90.678
X181.61Y-72.136
X181.61Y-74.676
X182.372Y-58.42
X182.372Y-61.214
X182.372Y-88.138
X183.388Y-72.136
X183.388Y-74.676
X184.404Y-88.138
X184.404Y-119.634
X184.404Y-133.35
X185.42Y-92.71
X186.69Y-119.634
X186.69Y-132.588
X187.706Y-118.364
X187.707Y-133.858
X188.722Y-119.634
X188.722Y-132.588
X189.738Y-90.17
X189.738Y-118.364
X189.738Y-133.858
X190.754Y-95.25
X190.754Y-119.634
X190.754Y-132.588
X191.77Y-118.364
X191.77Y-133.858
X192.786Y-119.634
X192.786Y-132.588
X193.04Y-82.55
X193.04Y-87.63
X193.802Y-118.364
X193.802Y-133.858
X194.818Y-119.634
X194.818Y-132.588
X195.834Y-118.364
X195.834Y-133.858
X196.85Y-119.634
X196.85Y-132.588
X197.358Y-85.09
X197.866Y-118.364
X197.866Y-133.858
X198.882Y-119.634
X198.882Y-132.588
X199.898Y-118.364
X199.898Y-133.858
X200.914Y-82.55
X200.914Y-85.09
X200.914Y-87.63
X200.914Y-90.17
X200.914Y-92.71
X200.914Y-95.25
X200.914Y-119.634
X200.914Y-132.588
X204.47Y-119.38
X204.47Y-121.92
X207.01Y-119.38
X207.01Y-121.158
X208.28Y-131.064
X208.28Y-132.842
X210.82Y-130.302
X210.82Y-132.842
X212.09Y-119.38
X212.09Y-125.73
X213.36Y-129.54
X213.36Y-132.842
X214.63Y-119.38
X214.63Y-124.968
X215.646Y-102.87
X215.9Y-128.778
X215.9Y-132.842
X217.17Y-119.38
X217.17Y-124.206
X218.44Y-128.016
X218.44Y-132.842
X219.71Y-119.38
X219.71Y-123.444
X220.726Y-102.87
X220.98Y-127.254
X220.98Y-132.842
X222.25Y-119.38
X222.25Y-122.682
X223.52Y-126.492
X223.52Y-132.842
X224.79Y-119.38
X224.79Y-128.016
X226.06Y-125.73
X226.06Y-132.842
X227.33Y-119.38
X227.33Y-127.254
X228.6Y-125.73
X228.6Y-132.842
X229.87Y-119.38
X229.87Y-125.73
X231.14Y-128.016
X231.14Y-132.842
X232.41Y-119.38
X232.41Y-131.826
X233.68Y-128.016
X233.68Y-131.826
X234.95Y-119.38
X234.95Y-131.064
X236.22Y-128.016
X236.22Y-131.064
X237.49Y-119.38
X237.49Y-130.302
X238.76Y-128.016
X238.76Y-130.302
X240.03Y-119.38
X240.03Y-129.54
X241.3Y-56.388
X241.3Y-128.016
X241.3Y-129.54
X242.57Y-119.38
X242.57Y-121.158
X243.84Y-56.388
T2
X55.88Y-76.2
X55.88Y-81.2
X55.88Y-91.44
X55.88Y-96.44
X55.88Y-106.68
X55.88Y-111.68
X55.88Y-121.92
X55.88Y-126.92
X60.96Y-76.2
X60.96Y-83.82
X60.96Y-91.44
X60.96Y-99.06
X60.96Y-106.68
X60.96Y-114.3
X60.96Y-121.92
X60.96Y-129.54
X63.5Y-76.2
X63.5Y-83.82
X63.5Y-91.44
X63.5Y-99.06
X63.5Y-106.68
X63.5Y-114.3
X63.5Y-121.92
X63.5Y-129.54
X66.04Y-76.2
X66.04Y-83.82
X66.04Y-91.44
X66.04Y-99.06
X66.04Y-106.68
X66.04Y-114.3
X66.04Y-121.92
X66.04Y-129.54
X68.58Y-76.2
X68.58Y-83.82
X68.58Y-91.44
X68.58Y-99.06
X68.58Y-106.68
X68.58Y-114.3
X68.58Y-121.92
X68.58Y-129.54
X71.12Y-76.2
X71.12Y-83.82
X71.12Y-91.44
X71.12Y-99.06
X71.12Y-106.68
X71.12Y-114.3
X71.12Y-121.92
X71.12Y-129.54
X73.66Y-76.2
X73.66Y-83.82
X73.66Y-91.44
X73.66Y-99.06
X73.66Y-106.68
X73.66Y-114.3
X73.66Y-121.92
X73.66Y-129.54
X76.2Y-76.2
X76.2Y-83.82
X76.2Y-91.44
X76.2Y-99.06
X76.2Y-106.68
X76.2Y-114.3
X76.2Y-121.92
X76.2Y-129.54
X78.74Y-76.2
X78.74Y-83.82
X78.74Y-91.44
X78.74Y-99.06
X78.74Y-106.68
X78.74Y-114.3
X78.74Y-121.92
X78.74Y-129.54
X91.44Y-129.032
X93.94Y-129.032
X101.6Y-71.12
X101.6Y-73.66
X101.6Y-76.2
X101.6Y-78.74
X101.6Y-81.28
X101.6Y-83.82
X101.6Y-86.36
X101.6Y-88.9
X101.6Y-91.44
X101.6Y-93.98
X101.6Y-104.14
X101.6Y-106.68
X101.6Y-109.22
X101.6Y-111.76
X101.6Y-114.3
X101.6Y-116.84
X101.6Y-119.38
X101.6Y-121.92
X101.6Y-124.46
X101.6Y-127.0
X104.22Y-66.04
X104.22Y-99.06
X109.22Y-66.04
X109.22Y-71.12
X109.22Y-73.66
X109.22Y-76.2
X109.22Y-78.74
X109.22Y-81.28
X109.22Y-83.82
X109.22Y-86.36
X109.22Y-88.9
X109.22Y-91.44
X109.22Y-93.98
X109.22Y-99.06
X109.22Y-104.14
X109.22Y-106.68
X109.22Y-109.22
X109.22Y-111.76
X109.22Y-114.3
X109.22Y-116.84
X109.22Y-119.38
X109.22Y-121.92
X109.22Y-124.46
X109.22Y-127.0
X115.316Y-96.52
X115.316Y-106.68
X116.586Y-66.04
X119.086Y-66.04
X129.54Y-63.5
X129.54Y-68.5
X129.54Y-78.994
X129.54Y-83.994
X129.54Y-94.06
X129.54Y-99.06
X132.08Y-109.22
X134.62Y-63.5
X134.62Y-71.12
X134.62Y-78.994
X134.62Y-86.614
X134.62Y-93.98
X134.62Y-101.6
X134.62Y-109.22
X137.16Y-63.5
X137.16Y-71.12
X137.16Y-78.994
X137.16Y-86.614
X137.16Y-93.98
X137.16Y-101.6
X137.16Y-109.22
X139.7Y-63.5
X139.7Y-71.12
X139.7Y-78.994
X139.7Y-86.614
X139.7Y-93.98
X139.7Y-101.6
X139.7Y-109.22
X142.24Y-63.5
X142.24Y-71.12
X142.24Y-78.994
X142.24Y-86.614
X142.24Y-93.98
X142.24Y-101.6
X142.24Y-109.22
X144.78Y-63.5
X144.78Y-71.12
X144.78Y-78.994
X144.78Y-86.614
X144.78Y-93.98
X144.78Y-101.6
X144.78Y-109.22
X147.32Y-63.5
X147.32Y-71.12
X147.32Y-78.994
X147.32Y-86.614
X147.32Y-93.98
X147.32Y-101.6
X147.32Y-109.22
X149.86Y-63.5
X149.86Y-71.12
X149.86Y-78.994
X149.86Y-86.614
X149.86Y-93.98
X149.86Y-101.6
X149.86Y-109.22
X152.4Y-109.22
X154.94Y-78.994
X154.94Y-83.994
X154.94Y-93.98
X154.94Y-98.98
X160.02Y-78.994
X160.02Y-86.614
X160.02Y-93.98
X160.02Y-101.6
X160.02Y-109.22
X162.56Y-78.994
X162.56Y-86.614
X162.56Y-93.98
X162.56Y-101.6
X162.56Y-109.22
X165.1Y-78.994
X165.1Y-86.614
X165.1Y-93.98
X165.1Y-101.6
X165.1Y-109.22
X167.64Y-78.994
X167.64Y-86.614
X167.64Y-93.98
X167.64Y-101.6
X167.64Y-109.22
X170.18Y-78.994
X170.18Y-86.614
X170.18Y-93.98
X170.18Y-101.6
X170.18Y-109.22
X172.72Y-78.994
X172.72Y-86.614
X172.72Y-93.98
X172.72Y-101.6
X172.72Y-109.22
X175.26Y-78.994
X175.26Y-86.614
X175.26Y-93.98
X175.26Y-101.6
X175.26Y-109.22
X177.8Y-109.22
X180.34Y-109.22
X188.214Y-59.69
X188.214Y-64.77
X193.04Y-76.708
X195.54Y-76.708
X198.374Y-59.69
X198.374Y-64.77
X203.2Y-78.74
X203.2Y-81.28
X203.2Y-83.82
X203.2Y-86.36
X203.2Y-88.9
X203.2Y-91.44
X203.2Y-93.98
X203.2Y-96.52
X203.2Y-99.06
X203.2Y-101.6
X203.2Y-104.14
X203.2Y-106.68
X203.2Y-109.22
X203.2Y-111.76
X204.47Y-59.69
X204.47Y-64.77
X213.44Y-68.58
X214.63Y-59.69
X214.63Y-64.77
X218.44Y-68.58
X218.44Y-78.74
X218.44Y-81.28
X218.44Y-83.82
X218.44Y-86.36
X218.44Y-88.9
X218.44Y-91.44
X218.44Y-93.98
X218.44Y-96.52
X218.44Y-99.06
X218.44Y-101.6
X218.44Y-104.14
X218.44Y-106.68
X218.44Y-109.22
X218.44Y-111.76
X231.14Y-78.74
X231.14Y-81.28
X231.14Y-83.82
X231.14Y-86.36
X231.14Y-88.9
X231.14Y-91.44
X231.14Y-93.98
X231.14Y-96.52
X231.14Y-99.06
X231.14Y-101.6
X231.14Y-104.14
X231.14Y-106.68
X231.14Y-109.22
X231.14Y-111.76
X241.38Y-68.58
X246.38Y-68.58
X246.38Y-78.74
X246.38Y-81.28
X246.38Y-83.82
X246.38Y-86.36
X246.38Y-88.9
X246.38Y-91.44
X246.38Y-93.98
X246.38Y-96.52
X246.38Y-99.06
X246.38Y-101.6
X246.38Y-104.14
X246.38Y-106.68
X246.38Y-109.22
X246.38Y-111.76
X248.412Y-119.38
X248.412Y-129.54
T3
X242.57Y-63.5
X245.11Y-63.5
X248.92Y-63.5
X251.46Y-63.5
T4
X53.34Y-60.96
X55.88Y-60.96
X58.42Y-60.96
X60.96Y-60.96
X60.96Y-66.04
X60.96Y-68.58
X60.96Y-144.78
X63.5Y-60.96
X63.5Y-144.78
X66.04Y-60.96
X66.04Y-144.78
X68.58Y-60.96
X68.58Y-144.78
X71.12Y-60.96
X71.12Y-144.78
X73.66Y-60.96
X73.66Y-144.78
X76.2Y-60.96
X76.2Y-144.78
X78.74Y-60.96
X78.74Y-144.78
X81.28Y-60.96
X81.28Y-144.78
X83.82Y-60.96
X83.82Y-144.78
X86.36Y-60.96
X86.36Y-144.78
X88.9Y-60.96
X88.9Y-144.78
X91.44Y-60.96
X91.44Y-144.78
X93.98Y-144.78
X96.52Y-60.96
X99.06Y-60.96
X101.6Y-144.78
X104.14Y-144.78
X106.68Y-144.78
X109.22Y-144.78
X111.76Y-144.78
X114.3Y-144.78
X116.84Y-144.78
X119.38Y-144.78
X121.92Y-144.78
X124.46Y-144.78
X127.0Y-144.78
X129.54Y-144.78
X132.08Y-144.78
X134.62Y-144.78
X137.16Y-114.3
X137.16Y-116.84
X137.16Y-144.78
X139.7Y-114.3
X139.7Y-116.84
X139.7Y-144.78
X142.24Y-114.3
X142.24Y-116.84
X144.78Y-114.3
X144.78Y-116.84
X147.32Y-114.3
X147.32Y-116.84
X149.86Y-114.3
X149.86Y-116.84
X152.4Y-114.3
X152.4Y-116.84
X154.94Y-114.3
X154.94Y-116.84
X157.48Y-114.3
X157.48Y-116.84
X160.02Y-114.3
X160.02Y-116.84
X162.56Y-114.3
X162.56Y-116.84
X165.1Y-114.3
X165.1Y-116.84
X165.1Y-144.78
X167.64Y-114.3
X167.64Y-116.84
X167.64Y-144.78
X170.18Y-114.3
X170.18Y-116.84
X170.18Y-144.78
X172.72Y-114.3
X172.72Y-116.84
X172.72Y-144.78
X175.26Y-114.3
X175.26Y-116.84
X175.26Y-144.78
X177.8Y-144.78
X180.34Y-144.78
X180.848Y-63.5
X182.88Y-144.78
X183.388Y-63.5
X185.42Y-144.78
X187.96Y-144.78
X190.5Y-144.78
X193.04Y-144.78
X195.58Y-144.78
X198.12Y-144.78
X200.66Y-144.78
X203.2Y-144.78
X205.74Y-144.78
X208.28Y-144.78
X210.82Y-144.78
X213.36Y-144.78
X215.9Y-144.78
X218.44Y-144.78
X220.98Y-144.78
X223.52Y-144.78
X226.06Y-144.78
X228.6Y-144.78
X231.14Y-144.78
X233.68Y-144.78
X236.22Y-144.78
X238.76Y-144.78
X241.3Y-144.78
X243.84Y-144.78
T0
M30
