M48
; DRILL file {KiCad (7.0.0)} date Thu Mar 28 20:30:12 2024
; FORMAT={-:-/ absolute / metric / decimal}
; #@! TF.CreationDate,2024-03-28T20:30:12-07:00
; #@! TF.GenerationSoftware,Kicad,Pcbnew,(7.0.0)
; #@! TF.FileFunction,Plated,1,2,PTH
FMAT,2
METRIC
; #@! TA.AperFunction,Plated,PTH,ViaDrill
T1C0.381
; #@! TA.AperFunction,Plated,PTH,ComponentDrill
T2C0.800
; #@! TA.AperFunction,Plated,PTH,ComponentDrill
T3C1.000
%
G90
G05
T1
X60.452Y-76.962
X60.452Y-80.772
X65.278Y-111.76
X73.406Y-128.778
X75.438Y-126.746
X78.232Y-117.348
X78.232Y-133.35
X80.264Y-131.318
X81.28Y-123.19
X82.042Y-81.28
X83.312Y-73.66
X83.312Y-75.184
X83.312Y-76.708
X84.074Y-72.898
X84.074Y-74.422
X84.074Y-75.946
X84.074Y-77.47
X86.106Y-115.57
X86.36Y-106.172
X87.884Y-122.174
X90.424Y-122.174
X94.488Y-115.57
X95.25Y-99.06
X95.504Y-118.364
X95.504Y-122.936
X96.266Y-106.68
X99.06Y-106.68
X99.314Y-99.06
X100.838Y-131.572
X100.838Y-133.604
X102.108Y-105.664
X102.108Y-108.966
X104.14Y-99.06
X106.68Y-114.3
X109.22Y-78.74
X111.76Y-78.74
X114.3Y-78.74
X116.586Y-131.572
X116.586Y-136.652
X116.84Y-78.74
X119.38Y-78.74
X119.38Y-106.68
X119.38Y-131.572
X119.38Y-133.604
X119.38Y-135.636
X121.92Y-78.74
X122.428Y-131.572
X122.428Y-136.652
X124.46Y-78.74
X124.714Y-131.572
X124.714Y-137.668
X127.0Y-78.74
X127.0Y-93.98
X130.048Y-98.806
X130.048Y-100.33
X130.048Y-101.854
X130.302Y-89.916
X130.81Y-98.044
X130.81Y-99.568
X130.81Y-101.092
X130.81Y-102.616
X131.064Y-89.154
X131.318Y-135.636
X131.318Y-139.7
X131.826Y-88.392
X132.334Y-102.616
X132.588Y-87.63
X133.096Y-101.854
X133.35Y-86.868
X133.858Y-101.092
X134.112Y-86.106
X134.62Y-100.33
X134.874Y-85.344
X135.382Y-99.568
X136.144Y-98.806
X136.906Y-98.044
X139.7Y-131.572
X139.7Y-138.684
X148.082Y-131.826
X148.082Y-138.684
X148.844Y-132.588
X148.844Y-139.446
X149.606Y-131.826
X149.606Y-137.922
X150.368Y-132.588
X150.368Y-140.208
X151.13Y-131.826
X151.13Y-137.16
X151.892Y-132.588
X151.892Y-140.97
X152.654Y-131.826
X152.654Y-136.398
X153.416Y-132.588
X153.416Y-141.732
X157.48Y-69.596
X157.48Y-126.746
X157.48Y-132.588
X157.48Y-139.446
X160.02Y-68.834
X161.544Y-140.208
X162.306Y-140.97
X162.56Y-68.072
X163.068Y-141.732
X163.83Y-79.502
X163.83Y-88.9
X163.83Y-136.398
X164.592Y-137.16
X165.1Y-67.31
X165.354Y-137.922
X166.116Y-138.684
X166.37Y-78.74
X166.37Y-88.9
X167.64Y-66.548
X167.64Y-132.588
X167.64Y-134.112
X168.91Y-80.264
X168.91Y-88.9
X170.18Y-65.786
X170.18Y-125.476
X170.18Y-132.588
X170.18Y-134.874
X171.196Y-107.95
X171.45Y-77.978
X171.45Y-88.9
X172.72Y-65.024
X173.99Y-81.026
X173.99Y-88.9
X174.244Y-96.52
X175.006Y-95.758
X175.768Y-96.52
X176.53Y-77.216
X176.53Y-88.9
X176.53Y-95.758
X177.292Y-96.52
X177.8Y-81.788
X178.054Y-95.758
X178.816Y-96.52
X179.07Y-81.788
X179.07Y-88.9
X179.578Y-95.758
X180.34Y-81.026
X181.61Y-76.454
X181.61Y-88.9
X182.88Y-80.264
X183.896Y-97.79
X184.15Y-85.598
X184.15Y-88.9
X185.42Y-79.502
X185.674Y-97.79
X186.69Y-84.836
X186.69Y-88.9
X187.96Y-78.74
X189.23Y-86.36
X189.23Y-88.9
X190.5Y-77.978
X191.77Y-84.074
X191.77Y-88.9
X193.04Y-77.216
X194.31Y-87.122
X194.31Y-88.9
X195.072Y-97.79
X195.072Y-108.712
X195.072Y-132.588
X195.072Y-135.636
X195.58Y-76.454
X196.85Y-83.312
X196.85Y-88.9
X196.85Y-97.79
X198.882Y-133.35
X198.882Y-138.684
X201.93Y-82.55
X201.93Y-88.9
X202.184Y-133.35
X202.184Y-139.446
X202.946Y-132.588
X202.946Y-137.922
X203.708Y-133.35
X203.708Y-140.208
X204.47Y-132.588
X204.47Y-137.16
X205.232Y-133.35
X205.232Y-140.97
X205.994Y-132.588
X205.994Y-136.398
X206.756Y-105.41
X206.756Y-133.35
X206.756Y-141.732
X208.28Y-75.692
X208.28Y-129.032
X209.804Y-133.35
X209.804Y-142.494
X210.82Y-74.93
X210.82Y-126.746
X211.582Y-133.35
X211.582Y-139.446
X213.36Y-74.168
X214.884Y-140.208
X215.646Y-140.97
X215.9Y-73.406
X216.408Y-141.732
X217.17Y-67.31
X217.17Y-88.9
X217.17Y-136.398
X217.932Y-137.16
X218.44Y-72.644
X218.694Y-137.922
X219.456Y-138.684
X219.71Y-66.548
X219.71Y-88.9
X220.98Y-71.882
X222.25Y-68.072
X222.25Y-88.9
X223.52Y-71.12
X224.79Y-65.786
X224.79Y-88.9
X226.06Y-70.358
X226.06Y-136.398
X227.33Y-68.834
X227.33Y-88.9
X227.584Y-95.758
X228.346Y-96.52
X228.6Y-87.884
X228.6Y-137.16
X229.108Y-95.758
X229.87Y-65.024
X229.87Y-87.884
X229.87Y-96.52
X230.632Y-95.758
X231.14Y-87.122
X231.14Y-137.922
X231.394Y-96.52
X232.156Y-95.758
X232.41Y-69.596
X232.41Y-87.122
X232.918Y-96.52
X233.68Y-86.36
X233.68Y-138.684
X234.95Y-64.262
X234.95Y-86.36
X235.204Y-128.524
X236.22Y-85.598
X236.22Y-139.446
X236.474Y-106.68
X236.728Y-97.79
X237.49Y-73.406
X237.49Y-85.598
X238.76Y-84.836
X238.76Y-97.79
X238.76Y-140.208
X240.03Y-72.644
X240.03Y-84.836
X241.3Y-84.074
X241.3Y-140.97
X242.57Y-74.168
X242.57Y-84.074
X243.84Y-83.312
X245.11Y-71.882
X245.11Y-83.312
X246.38Y-83.312
X246.38Y-99.822
X246.38Y-101.346
X247.904Y-74.93
X248.412Y-108.712
X248.92Y-76.708
X249.174Y-73.914
X250.19Y-76.708
T2
X54.61Y-71.12
X54.61Y-76.12
X54.61Y-83.82
X54.61Y-88.82
X58.42Y-71.12
X58.42Y-78.74
X58.42Y-83.82
X58.42Y-91.44
X60.96Y-71.12
X60.96Y-78.74
X60.96Y-83.82
X60.96Y-91.44
X61.0Y-124.46
X63.5Y-71.12
X63.5Y-78.74
X63.5Y-83.82
X63.5Y-91.44
X63.5Y-124.46
X66.04Y-71.12
X66.04Y-78.74
X66.04Y-83.82
X66.04Y-91.44
X68.58Y-71.12
X68.58Y-78.74
X68.58Y-83.82
X68.58Y-91.44
X68.58Y-124.46
X69.85Y-111.76
X69.85Y-116.76
X71.12Y-71.12
X71.12Y-78.74
X71.12Y-83.82
X71.12Y-91.44
X73.66Y-71.12
X73.66Y-78.74
X73.66Y-83.82
X73.66Y-91.44
X73.66Y-111.76
X73.66Y-119.38
X76.2Y-71.12
X76.2Y-78.74
X76.2Y-83.82
X76.2Y-91.44
X76.2Y-111.76
X76.2Y-119.38
X78.74Y-71.12
X78.74Y-78.74
X78.74Y-83.82
X78.74Y-91.44
X78.74Y-111.76
X78.74Y-119.38
X78.74Y-124.46
X81.28Y-71.12
X81.28Y-78.74
X81.28Y-83.82
X81.28Y-91.44
X81.28Y-104.14
X81.28Y-111.76
X81.28Y-119.38
X83.82Y-111.76
X83.82Y-119.38
X86.36Y-111.76
X86.36Y-119.38
X88.9Y-111.76
X88.9Y-119.38
X91.44Y-104.14
X91.48Y-93.98
X93.98Y-93.98
X100.33Y-83.82
X100.33Y-88.82
X100.33Y-96.52
X100.33Y-101.52
X100.33Y-111.76
X100.33Y-116.76
X104.14Y-83.82
X104.14Y-91.44
X104.14Y-96.52
X104.14Y-104.14
X104.14Y-111.76
X104.14Y-119.38
X106.68Y-83.82
X106.68Y-91.44
X106.68Y-96.52
X106.68Y-104.14
X106.68Y-111.76
X106.68Y-119.38
X109.22Y-83.82
X109.22Y-91.44
X109.22Y-96.52
X109.22Y-104.14
X109.22Y-111.76
X109.22Y-119.38
X111.76Y-83.82
X111.76Y-91.44
X111.76Y-96.52
X111.76Y-104.14
X111.76Y-111.76
X111.76Y-119.38
X114.3Y-83.82
X114.3Y-91.44
X114.3Y-96.52
X114.3Y-104.14
X114.3Y-111.76
X114.3Y-119.38
X116.84Y-83.82
X116.84Y-91.44
X116.84Y-96.52
X116.84Y-104.14
X116.84Y-111.76
X116.84Y-119.38
X119.38Y-83.82
X119.38Y-91.44
X119.38Y-96.52
X119.38Y-104.14
X119.38Y-111.76
X119.38Y-119.38
X121.92Y-83.82
X121.92Y-91.44
X121.92Y-96.52
X121.92Y-104.14
X124.46Y-83.82
X124.46Y-91.44
X124.46Y-96.52
X124.46Y-104.14
X127.0Y-83.82
X127.0Y-91.44
X127.0Y-96.52
X127.0Y-104.14
X127.0Y-111.76
X127.0Y-121.92
X133.35Y-111.76
X133.35Y-121.92
X139.7Y-111.76
X139.7Y-121.92
X147.32Y-104.14
X147.32Y-106.68
X147.32Y-109.22
X147.32Y-111.76
X147.32Y-114.3
X147.32Y-116.84
X147.32Y-119.38
X147.32Y-121.92
X147.32Y-124.46
X147.32Y-127.0
X154.94Y-104.14
X154.94Y-106.68
X154.94Y-109.22
X154.94Y-111.76
X154.94Y-114.3
X154.94Y-116.84
X154.94Y-119.38
X154.94Y-121.92
X154.94Y-124.46
X154.94Y-127.0
X157.48Y-95.33
X157.48Y-100.33
X160.02Y-104.14
X160.02Y-106.68
X160.02Y-109.22
X160.02Y-111.76
X160.02Y-114.3
X160.02Y-116.84
X160.02Y-119.38
X160.02Y-121.92
X160.02Y-124.46
X160.02Y-127.0
X167.64Y-104.14
X167.64Y-106.68
X167.64Y-109.22
X167.64Y-111.76
X167.64Y-114.3
X167.64Y-116.84
X167.64Y-119.38
X167.64Y-121.92
X167.64Y-124.46
X167.64Y-127.0
X170.18Y-95.33
X170.18Y-100.33
X172.72Y-104.14
X172.72Y-106.68
X172.72Y-109.22
X172.72Y-111.76
X172.72Y-114.3
X172.72Y-116.84
X172.72Y-119.38
X172.72Y-121.92
X172.72Y-124.46
X172.72Y-127.0
X180.34Y-104.14
X180.34Y-106.68
X180.34Y-109.22
X180.34Y-111.76
X180.34Y-114.3
X180.34Y-116.84
X180.34Y-119.38
X180.34Y-121.92
X180.34Y-124.46
X180.34Y-127.0
X182.88Y-95.33
X182.88Y-100.33
X185.42Y-104.14
X185.42Y-106.68
X185.42Y-109.22
X185.42Y-111.76
X185.42Y-114.3
X185.42Y-116.84
X185.42Y-119.38
X185.42Y-121.92
X185.42Y-124.46
X185.42Y-127.0
X193.04Y-104.14
X193.04Y-106.68
X193.04Y-109.22
X193.04Y-111.76
X193.04Y-114.3
X193.04Y-116.84
X193.04Y-119.38
X193.04Y-121.92
X193.04Y-124.46
X193.04Y-127.0
X195.58Y-95.33
X195.58Y-100.33
X200.66Y-104.14
X200.66Y-106.68
X200.66Y-109.22
X200.66Y-111.76
X200.66Y-114.3
X200.66Y-116.84
X200.66Y-119.38
X200.66Y-121.92
X200.66Y-124.46
X200.66Y-127.0
X205.74Y-91.44
X208.24Y-91.44
X208.28Y-104.14
X208.28Y-106.68
X208.28Y-109.22
X208.28Y-111.76
X208.28Y-114.3
X208.28Y-116.84
X208.28Y-119.38
X208.28Y-121.92
X208.28Y-124.46
X208.28Y-127.0
X210.82Y-95.33
X210.82Y-100.33
X213.36Y-104.14
X213.36Y-106.68
X213.36Y-109.22
X213.36Y-111.76
X213.36Y-114.3
X213.36Y-116.84
X213.36Y-119.38
X213.36Y-121.92
X213.36Y-124.46
X213.36Y-127.0
X220.98Y-104.14
X220.98Y-106.68
X220.98Y-109.22
X220.98Y-111.76
X220.98Y-114.3
X220.98Y-116.84
X220.98Y-119.38
X220.98Y-121.92
X220.98Y-124.46
X220.98Y-127.0
X223.52Y-95.33
X223.52Y-100.33
X226.06Y-104.14
X226.06Y-106.68
X226.06Y-109.22
X226.06Y-111.76
X226.06Y-114.3
X226.06Y-116.84
X226.06Y-119.38
X226.06Y-121.92
X226.06Y-124.46
X226.06Y-127.0
X233.68Y-104.14
X233.68Y-106.68
X233.68Y-109.22
X233.68Y-111.76
X233.68Y-114.3
X233.68Y-116.84
X233.68Y-119.38
X233.68Y-121.92
X233.68Y-124.46
X233.68Y-127.0
X236.22Y-95.33
X236.22Y-100.33
X238.76Y-104.14
X238.76Y-106.68
X238.76Y-109.22
X238.76Y-111.76
X238.76Y-114.3
X238.76Y-116.84
X238.76Y-119.38
X238.76Y-121.92
X238.76Y-124.46
X238.76Y-127.0
X246.38Y-104.14
X246.38Y-106.68
X246.38Y-109.22
X246.38Y-111.76
X246.38Y-114.3
X246.38Y-116.84
X246.38Y-119.38
X246.38Y-121.92
X246.38Y-124.46
X246.38Y-127.0
X248.92Y-95.33
X248.92Y-100.33
T3
X58.42Y-60.96
X60.96Y-60.96
X60.96Y-99.06
X60.96Y-101.6
X60.96Y-104.14
X60.96Y-106.68
X60.96Y-109.22
X60.96Y-111.76
X60.96Y-144.78
X63.5Y-60.96
X63.5Y-144.78
X66.04Y-60.96
X66.04Y-144.78
X68.58Y-60.96
X68.58Y-144.78
X71.12Y-60.96
X71.12Y-144.78
X73.66Y-60.96
X73.66Y-144.78
X76.2Y-144.78
X78.74Y-144.78
X81.28Y-144.78
X83.82Y-144.78
X86.36Y-144.78
X88.9Y-129.54
X88.9Y-137.16
X88.9Y-144.78
X91.44Y-129.54
X91.44Y-137.16
X91.44Y-144.78
X93.98Y-144.78
X101.6Y-144.78
X104.14Y-144.78
X106.68Y-60.96
X106.68Y-144.78
X109.22Y-60.96
X109.22Y-129.54
X109.22Y-137.16
X109.22Y-144.78
X111.76Y-60.96
X111.76Y-129.54
X111.76Y-137.16
X111.76Y-144.78
X114.3Y-60.96
X114.3Y-144.78
X116.84Y-60.96
X116.84Y-144.78
X119.38Y-60.96
X119.38Y-144.78
X121.92Y-60.96
X121.92Y-144.78
X124.46Y-60.96
X124.46Y-144.78
X127.0Y-60.96
X127.0Y-129.54
X127.0Y-144.78
X129.54Y-60.96
X129.54Y-129.54
X129.54Y-144.78
X132.08Y-60.96
X132.08Y-144.78
X134.62Y-60.96
X134.62Y-144.78
X137.16Y-60.96
X137.16Y-144.78
X139.7Y-60.96
X139.7Y-144.78
X142.24Y-60.96
X144.78Y-60.96
X157.48Y-60.96
X160.02Y-60.96
X162.56Y-60.96
X165.1Y-60.96
X165.1Y-144.78
X167.64Y-60.96
X167.64Y-144.78
X170.18Y-60.96
X170.18Y-144.78
X172.72Y-60.96
X172.72Y-144.78
X175.26Y-60.96
X175.26Y-144.78
X177.8Y-60.96
X177.8Y-144.78
X180.34Y-60.96
X180.34Y-144.78
X182.88Y-60.96
X182.88Y-144.78
X185.42Y-60.96
X185.42Y-144.78
X187.96Y-60.96
X187.96Y-144.78
X190.5Y-60.96
X190.5Y-144.78
X193.04Y-60.96
X193.04Y-144.78
X195.58Y-60.96
X195.58Y-144.78
X198.12Y-144.78
X200.66Y-144.78
X203.2Y-144.78
X205.74Y-144.78
X208.28Y-60.96
X208.28Y-144.78
X210.82Y-60.96
X210.82Y-144.78
X213.36Y-60.96
X213.36Y-144.78
X215.9Y-60.96
X215.9Y-144.78
X218.44Y-60.96
X218.44Y-144.78
X220.98Y-60.96
X220.98Y-144.78
X223.52Y-60.96
X223.52Y-144.78
X226.06Y-60.96
X226.06Y-144.78
X228.6Y-60.96
X228.6Y-144.78
X231.14Y-60.96
X231.14Y-144.78
X233.68Y-60.96
X233.68Y-144.78
X236.22Y-60.96
X236.22Y-144.78
X238.76Y-60.96
X238.76Y-144.78
X241.3Y-60.96
X241.3Y-144.78
X243.84Y-60.96
X243.84Y-144.78
X246.38Y-60.96
T0
M30
