%TF.GenerationSoftware,KiCad,Pcbnew,(7.0.0)*%
%TF.CreationDate,2024-11-17T17:29:49-08:00*%
%TF.ProjectId,multi_register,6d756c74-695f-4726-9567-69737465722e,rev?*%
%TF.SameCoordinates,Original*%
%TF.FileFunction,Drillmap*%
%TF.FilePolarity,Positive*%
%FSLAX45Y45*%
G04 Gerber Fmt 4.5, Leading zero omitted, Abs format (unit mm)*
G04 Created by KiCad (PCBNEW (7.0.0)) date 2024-11-17 17:29:49*
%MOMM*%
%LPD*%
G01*
G04 APERTURE LIST*
%ADD10C,0.050000*%
%ADD11C,0.200000*%
%ADD12C,0.038100*%
%ADD13C,0.080000*%
%ADD14C,0.090000*%
%ADD15C,0.100000*%
G04 APERTURE END LIST*
D10*
X5270500Y-14859000D02*
X25209500Y-14859000D01*
X5080000Y-14668500D02*
G75*
G03*
X5270500Y-14859000I190500J0D01*
G01*
X5080000Y-5270500D02*
X5080000Y-14668500D01*
X25209500Y-14859000D02*
G75*
G03*
X25400000Y-14668500I0J190500D01*
G01*
X5270500Y-5080000D02*
G75*
G03*
X5080000Y-5270500I0J-190500D01*
G01*
X25209500Y-5080000D02*
X5270500Y-5080000D01*
X25400000Y-5270500D02*
G75*
G03*
X25209500Y-5080000I-190500J0D01*
G01*
X25400000Y-14668500D02*
X25400000Y-5270500D01*
D11*
D12*
X6330950Y-12299950D02*
X6369050Y-12338050D01*
X6369050Y-12299950D02*
X6330950Y-12338050D01*
X6584950Y-12376150D02*
X6623050Y-12414250D01*
X6623050Y-12376150D02*
X6584950Y-12414250D01*
X6838950Y-12452350D02*
X6877050Y-12490450D01*
X6877050Y-12452350D02*
X6838950Y-12490450D01*
X7092950Y-12528550D02*
X7131050Y-12566650D01*
X7131050Y-12528550D02*
X7092950Y-12566650D01*
X7346950Y-12604750D02*
X7385050Y-12642850D01*
X7385050Y-12604750D02*
X7346950Y-12642850D01*
X7600950Y-12680950D02*
X7639050Y-12719050D01*
X7639050Y-12680950D02*
X7600950Y-12719050D01*
X7854950Y-12757150D02*
X7893050Y-12795250D01*
X7893050Y-12757150D02*
X7854950Y-12795250D01*
X7981950Y-6686550D02*
X8020050Y-6724650D01*
X8020050Y-6686550D02*
X7981950Y-6724650D01*
X7981950Y-7956550D02*
X8020050Y-7994650D01*
X8020050Y-7956550D02*
X7981950Y-7994650D01*
X7981950Y-9226550D02*
X8020050Y-9264650D01*
X8020050Y-9226550D02*
X7981950Y-9264650D01*
X7981950Y-10496550D02*
X8020050Y-10534650D01*
X8020050Y-10496550D02*
X7981950Y-10534650D01*
X7981950Y-11766550D02*
X8020050Y-11804650D01*
X8020050Y-11766550D02*
X7981950Y-11804650D01*
X8743950Y-6838950D02*
X8782050Y-6877050D01*
X8782050Y-6838950D02*
X8743950Y-6877050D01*
X8743950Y-7194550D02*
X8782050Y-7232650D01*
X8782050Y-7194550D02*
X8743950Y-7232650D01*
X8743950Y-8108950D02*
X8782050Y-8147050D01*
X8782050Y-8108950D02*
X8743950Y-8147050D01*
X8743950Y-8464550D02*
X8782050Y-8502650D01*
X8782050Y-8464550D02*
X8743950Y-8502650D01*
X8743950Y-9378950D02*
X8782050Y-9417050D01*
X8782050Y-9378950D02*
X8743950Y-9417050D01*
X8743950Y-9734550D02*
X8782050Y-9772650D01*
X8782050Y-9734550D02*
X8743950Y-9772650D01*
X8743950Y-10648950D02*
X8782050Y-10687050D01*
X8782050Y-10648950D02*
X8743950Y-10687050D01*
X8743950Y-11004550D02*
X8782050Y-11042650D01*
X8782050Y-11004550D02*
X8743950Y-11042650D01*
X8769350Y-5873750D02*
X8807450Y-5911850D01*
X8807450Y-5873750D02*
X8769350Y-5911850D01*
X8972550Y-5873750D02*
X9010650Y-5911850D01*
X9010650Y-5873750D02*
X8972550Y-5911850D01*
X9378950Y-12833350D02*
X9417050Y-12871450D01*
X9417050Y-12833350D02*
X9378950Y-12871450D01*
X9632950Y-12909550D02*
X9671050Y-12947650D01*
X9671050Y-12909550D02*
X9632950Y-12947650D01*
X9886950Y-12985750D02*
X9925050Y-13023850D01*
X9925050Y-12985750D02*
X9886950Y-13023850D01*
X10140950Y-13061950D02*
X10179050Y-13100050D01*
X10179050Y-13061950D02*
X10140950Y-13100050D01*
X10267950Y-13290550D02*
X10306050Y-13328650D01*
X10306050Y-13290550D02*
X10267950Y-13328650D01*
X10267950Y-13442950D02*
X10306050Y-13481050D01*
X10306050Y-13442950D02*
X10267950Y-13481050D01*
X10394950Y-13138150D02*
X10433050Y-13176250D01*
X10433050Y-13138150D02*
X10394950Y-13176250D01*
X10521950Y-11639550D02*
X10560050Y-11677650D01*
X10560050Y-11639550D02*
X10521950Y-11677650D01*
X10521950Y-12096750D02*
X10560050Y-12134850D01*
X10560050Y-12096750D02*
X10521950Y-12134850D01*
X10521950Y-13214350D02*
X10560050Y-13252450D01*
X10560050Y-13214350D02*
X10521950Y-13252450D01*
X10521950Y-13442950D02*
X10560050Y-13481050D01*
X10560050Y-13442950D02*
X10521950Y-13481050D01*
X10648950Y-13214350D02*
X10687050Y-13252450D01*
X10687050Y-13214350D02*
X10648950Y-13252450D01*
X10775950Y-11639550D02*
X10814050Y-11677650D01*
X10814050Y-11639550D02*
X10775950Y-11677650D01*
X10775950Y-12096750D02*
X10814050Y-12134850D01*
X10814050Y-12096750D02*
X10775950Y-12134850D01*
X10775950Y-13138150D02*
X10814050Y-13176250D01*
X10814050Y-13138150D02*
X10775950Y-13176250D01*
X10775950Y-13442950D02*
X10814050Y-13481050D01*
X10814050Y-13442950D02*
X10775950Y-13481050D01*
X10902950Y-13290550D02*
X10941050Y-13328650D01*
X10941050Y-13290550D02*
X10902950Y-13328650D01*
X11029950Y-11639550D02*
X11068050Y-11677650D01*
X11068050Y-11639550D02*
X11029950Y-11677650D01*
X11029950Y-12096750D02*
X11068050Y-12134850D01*
X11068050Y-12096750D02*
X11029950Y-12134850D01*
X11029950Y-13061950D02*
X11068050Y-13100050D01*
X11068050Y-13061950D02*
X11029950Y-13100050D01*
X11029950Y-13442950D02*
X11068050Y-13481050D01*
X11068050Y-13442950D02*
X11029950Y-13481050D01*
X11156950Y-13366750D02*
X11195050Y-13404850D01*
X11195050Y-13366750D02*
X11156950Y-13404850D01*
X11283950Y-6686550D02*
X11322050Y-6724650D01*
X11322050Y-6686550D02*
X11283950Y-6724650D01*
X11283950Y-7956550D02*
X11322050Y-7994650D01*
X11322050Y-7956550D02*
X11283950Y-7994650D01*
X11283950Y-9226550D02*
X11322050Y-9264650D01*
X11322050Y-9226550D02*
X11283950Y-9264650D01*
X11283950Y-10496550D02*
X11322050Y-10534650D01*
X11322050Y-10496550D02*
X11283950Y-10534650D01*
X11283950Y-11766550D02*
X11322050Y-11804650D01*
X11322050Y-11766550D02*
X11283950Y-11804650D01*
X11283950Y-12985750D02*
X11322050Y-13023850D01*
X11322050Y-12985750D02*
X11283950Y-13023850D01*
X11283950Y-13442950D02*
X11322050Y-13481050D01*
X11322050Y-13442950D02*
X11283950Y-13481050D01*
X11537950Y-12909550D02*
X11576050Y-12947650D01*
X11576050Y-12909550D02*
X11537950Y-12947650D01*
X11537950Y-13442950D02*
X11576050Y-13481050D01*
X11576050Y-13442950D02*
X11537950Y-13481050D01*
X11791950Y-12833350D02*
X11830050Y-12871450D01*
X11830050Y-12833350D02*
X11791950Y-12871450D01*
X11791950Y-13442950D02*
X11830050Y-13481050D01*
X11830050Y-13442950D02*
X11791950Y-13481050D01*
X12020550Y-6076950D02*
X12058650Y-6115050D01*
X12058650Y-6076950D02*
X12020550Y-6115050D01*
X12020550Y-6686550D02*
X12058650Y-6724650D01*
X12058650Y-6686550D02*
X12020550Y-6724650D01*
X12020550Y-7346950D02*
X12058650Y-7385050D01*
X12058650Y-7346950D02*
X12020550Y-7385050D01*
X12020550Y-7956550D02*
X12058650Y-7994650D01*
X12058650Y-7956550D02*
X12020550Y-7994650D01*
X12045950Y-12757150D02*
X12084050Y-12795250D01*
X12084050Y-12757150D02*
X12045950Y-12795250D01*
X12045950Y-13442950D02*
X12084050Y-13481050D01*
X12084050Y-13442950D02*
X12045950Y-13481050D01*
X12147550Y-8769350D02*
X12185650Y-8807450D01*
X12185650Y-8769350D02*
X12147550Y-8807450D01*
X12147550Y-8921750D02*
X12185650Y-8959850D01*
X12185650Y-8921750D02*
X12147550Y-8959850D01*
X12147550Y-9658350D02*
X12185650Y-9696450D01*
X12185650Y-9658350D02*
X12147550Y-9696450D01*
X12147550Y-9810750D02*
X12185650Y-9848850D01*
X12185650Y-9810750D02*
X12147550Y-9848850D01*
X12274550Y-6076950D02*
X12312650Y-6115050D01*
X12312650Y-6076950D02*
X12274550Y-6115050D01*
X12274550Y-6686550D02*
X12312650Y-6724650D01*
X12312650Y-6686550D02*
X12274550Y-6724650D01*
X12274550Y-7346950D02*
X12312650Y-7385050D01*
X12312650Y-7346950D02*
X12274550Y-7385050D01*
X12274550Y-7956550D02*
X12312650Y-7994650D01*
X12312650Y-7956550D02*
X12274550Y-7994650D01*
X12299950Y-12680950D02*
X12338050Y-12719050D01*
X12338050Y-12680950D02*
X12299950Y-12719050D01*
X12299950Y-13442950D02*
X12338050Y-13481050D01*
X12338050Y-13442950D02*
X12299950Y-13481050D01*
X12553950Y-12604750D02*
X12592050Y-12642850D01*
X12592050Y-12604750D02*
X12553950Y-12642850D01*
X12553950Y-13442950D02*
X12592050Y-13481050D01*
X12592050Y-13442950D02*
X12553950Y-13481050D01*
X12680950Y-12223750D02*
X12719050Y-12261850D01*
X12719050Y-12223750D02*
X12680950Y-12261850D01*
X12807950Y-12528550D02*
X12846050Y-12566650D01*
X12846050Y-12528550D02*
X12807950Y-12566650D01*
X12807950Y-13442950D02*
X12846050Y-13481050D01*
X12846050Y-13442950D02*
X12807950Y-13481050D01*
X12934950Y-12299950D02*
X12973050Y-12338050D01*
X12973050Y-12299950D02*
X12934950Y-12338050D01*
X12960350Y-8997950D02*
X12998450Y-9036050D01*
X12998450Y-8997950D02*
X12960350Y-9036050D01*
X12960350Y-9302750D02*
X12998450Y-9340850D01*
X12998450Y-9302750D02*
X12960350Y-9340850D01*
X13061950Y-11639550D02*
X13100050Y-11677650D01*
X13100050Y-11639550D02*
X13061950Y-11677650D01*
X13061950Y-12122150D02*
X13100050Y-12160250D01*
X13100050Y-12122150D02*
X13061950Y-12160250D01*
X13061950Y-12452350D02*
X13100050Y-12490450D01*
X13100050Y-12452350D02*
X13061950Y-12490450D01*
X13061950Y-13442950D02*
X13100050Y-13481050D01*
X13100050Y-13442950D02*
X13061950Y-13481050D01*
X13087350Y-9074150D02*
X13125450Y-9112250D01*
X13125450Y-9074150D02*
X13087350Y-9112250D01*
X13087350Y-9302750D02*
X13125450Y-9340850D01*
X13125450Y-9302750D02*
X13087350Y-9340850D01*
X13188950Y-12376150D02*
X13227050Y-12414250D01*
X13227050Y-12376150D02*
X13188950Y-12414250D01*
X13315950Y-11639550D02*
X13354050Y-11677650D01*
X13354050Y-11639550D02*
X13315950Y-11677650D01*
X13315950Y-12122150D02*
X13354050Y-12160250D01*
X13354050Y-12122150D02*
X13315950Y-12160250D01*
X13315950Y-12376150D02*
X13354050Y-12414250D01*
X13354050Y-12376150D02*
X13315950Y-12414250D01*
X13315950Y-13442950D02*
X13354050Y-13481050D01*
X13354050Y-13442950D02*
X13315950Y-13481050D01*
X13341350Y-8769350D02*
X13379450Y-8807450D01*
X13379450Y-8769350D02*
X13341350Y-8807450D01*
X13341350Y-8997950D02*
X13379450Y-9036050D01*
X13379450Y-8997950D02*
X13341350Y-9036050D01*
X13341350Y-9150350D02*
X13379450Y-9188450D01*
X13379450Y-9150350D02*
X13341350Y-9188450D01*
X13341350Y-9378950D02*
X13379450Y-9417050D01*
X13379450Y-9378950D02*
X13341350Y-9417050D01*
X13442950Y-12452350D02*
X13481050Y-12490450D01*
X13481050Y-12452350D02*
X13442950Y-12490450D01*
X13468350Y-8769350D02*
X13506450Y-8807450D01*
X13506450Y-8769350D02*
X13468350Y-8807450D01*
X13468350Y-9378950D02*
X13506450Y-9417050D01*
X13506450Y-9378950D02*
X13468350Y-9417050D01*
X13569950Y-11639550D02*
X13608050Y-11677650D01*
X13608050Y-11639550D02*
X13569950Y-11677650D01*
X13569950Y-12122150D02*
X13608050Y-12160250D01*
X13608050Y-12122150D02*
X13569950Y-12160250D01*
X13569950Y-12299950D02*
X13608050Y-12338050D01*
X13608050Y-12299950D02*
X13569950Y-12338050D01*
X13569950Y-13442950D02*
X13608050Y-13481050D01*
X13608050Y-13442950D02*
X13569950Y-13481050D01*
X13595350Y-8769350D02*
X13633450Y-8807450D01*
X13633450Y-8769350D02*
X13595350Y-8807450D01*
X13595350Y-9074150D02*
X13633450Y-9112250D01*
X13633450Y-9074150D02*
X13595350Y-9112250D01*
X13696950Y-12528550D02*
X13735050Y-12566650D01*
X13735050Y-12528550D02*
X13696950Y-12566650D01*
X13722350Y-8769350D02*
X13760450Y-8807450D01*
X13760450Y-8769350D02*
X13722350Y-8807450D01*
X13722350Y-9455150D02*
X13760450Y-9493250D01*
X13760450Y-9455150D02*
X13722350Y-9493250D01*
X13823950Y-12223750D02*
X13862050Y-12261850D01*
X13862050Y-12223750D02*
X13823950Y-12261850D01*
X13823950Y-13442950D02*
X13862050Y-13481050D01*
X13862050Y-13442950D02*
X13823950Y-13481050D01*
X13849350Y-8693150D02*
X13887450Y-8731250D01*
X13887450Y-8693150D02*
X13849350Y-8731250D01*
X13849350Y-9455150D02*
X13887450Y-9493250D01*
X13887450Y-9455150D02*
X13849350Y-9493250D01*
X14585950Y-11766550D02*
X14624050Y-11804650D01*
X14624050Y-11766550D02*
X14585950Y-11804650D01*
X14712950Y-9582150D02*
X14751050Y-9620250D01*
X14751050Y-9582150D02*
X14712950Y-9620250D01*
X14814550Y-8515350D02*
X14852650Y-8553450D01*
X14852650Y-8515350D02*
X14814550Y-8553450D01*
X14814550Y-8667750D02*
X14852650Y-8705850D01*
X14852650Y-8667750D02*
X14814550Y-8705850D01*
X14916150Y-9582150D02*
X14954250Y-9620250D01*
X14954250Y-9582150D02*
X14916150Y-9620250D01*
X14992350Y-10648950D02*
X15030450Y-10687050D01*
X15030450Y-10648950D02*
X14992350Y-10687050D01*
X15322550Y-10648950D02*
X15360650Y-10687050D01*
X15360650Y-10648950D02*
X15322550Y-10687050D01*
X15347950Y-10039350D02*
X15386050Y-10077450D01*
X15386050Y-10039350D02*
X15347950Y-10077450D01*
X15855950Y-8693150D02*
X15894050Y-8731250D01*
X15894050Y-8693150D02*
X15855950Y-8731250D01*
X15855950Y-9683750D02*
X15894050Y-9721850D01*
X15894050Y-9683750D02*
X15855950Y-9721850D01*
X15855950Y-11309350D02*
X15894050Y-11347450D01*
X15894050Y-11309350D02*
X15855950Y-11347450D01*
X16033750Y-7829550D02*
X16071850Y-7867650D01*
X16071850Y-7829550D02*
X16033750Y-7867650D01*
X16109950Y-8693150D02*
X16148050Y-8731250D01*
X16148050Y-8693150D02*
X16109950Y-8731250D01*
X16109950Y-9683750D02*
X16148050Y-9721850D01*
X16148050Y-9683750D02*
X16109950Y-9721850D01*
X16109950Y-11766550D02*
X16148050Y-11804650D01*
X16148050Y-11766550D02*
X16109950Y-11804650D01*
X16211550Y-7829550D02*
X16249650Y-7867650D01*
X16249650Y-7829550D02*
X16211550Y-7867650D01*
X18141950Y-7550150D02*
X18180050Y-7588250D01*
X18180050Y-7550150D02*
X18141950Y-7588250D01*
X18218150Y-7651750D02*
X18256250Y-7689850D01*
X18256250Y-7651750D02*
X18218150Y-7689850D01*
X18345150Y-7524750D02*
X18383250Y-7562850D01*
X18383250Y-7524750D02*
X18345150Y-7562850D01*
X18649950Y-10979150D02*
X18688050Y-11017250D01*
X18688050Y-10979150D02*
X18649950Y-11017250D01*
X18649950Y-11309350D02*
X18688050Y-11347450D01*
X18688050Y-11309350D02*
X18649950Y-11347450D01*
X18649950Y-12071350D02*
X18688050Y-12109450D01*
X18688050Y-12071350D02*
X18649950Y-12109450D01*
X18776950Y-10496550D02*
X18815050Y-10534650D01*
X18815050Y-10496550D02*
X18776950Y-10534650D01*
X19056350Y-8540750D02*
X19094450Y-8578850D01*
X19094450Y-8540750D02*
X19056350Y-8578850D01*
X19183350Y-9582150D02*
X19221450Y-9620250D01*
X19221450Y-9582150D02*
X19183350Y-9620250D01*
X19284950Y-13595350D02*
X19323050Y-13633450D01*
X19323050Y-13595350D02*
X19284950Y-13633450D01*
X19310350Y-9582150D02*
X19348450Y-9620250D01*
X19348450Y-9582150D02*
X19310350Y-9620250D01*
X19538950Y-7753350D02*
X19577050Y-7791450D01*
X19577050Y-7753350D02*
X19538950Y-7791450D01*
X19538950Y-9455150D02*
X19577050Y-9493250D01*
X19577050Y-9455150D02*
X19538950Y-9493250D01*
X19665950Y-12604750D02*
X19704050Y-12642850D01*
X19704050Y-12604750D02*
X19665950Y-12642850D01*
X19665950Y-13671550D02*
X19704050Y-13709650D01*
X19704050Y-13671550D02*
X19665950Y-13709650D01*
X19665950Y-13900150D02*
X19704050Y-13938250D01*
X19704050Y-13900150D02*
X19665950Y-13938250D01*
X19792950Y-7829550D02*
X19831050Y-7867650D01*
X19831050Y-7829550D02*
X19792950Y-7867650D01*
X19792950Y-9378950D02*
X19831050Y-9417050D01*
X19831050Y-9378950D02*
X19792950Y-9417050D01*
X19792950Y-12172950D02*
X19831050Y-12211050D01*
X19831050Y-12172950D02*
X19792950Y-12211050D01*
X20046950Y-7905750D02*
X20085050Y-7943850D01*
X20085050Y-7905750D02*
X20046950Y-7943850D01*
X20046950Y-9302750D02*
X20085050Y-9340850D01*
X20085050Y-9302750D02*
X20046950Y-9340850D01*
X20300950Y-7981950D02*
X20339050Y-8020050D01*
X20339050Y-7981950D02*
X20300950Y-8020050D01*
X20300950Y-9226550D02*
X20339050Y-9264650D01*
X20339050Y-9226550D02*
X20300950Y-9264650D01*
X20300950Y-12655550D02*
X20339050Y-12693650D01*
X20339050Y-12655550D02*
X20300950Y-12693650D01*
X20554950Y-8159750D02*
X20593050Y-8197850D01*
X20593050Y-8159750D02*
X20554950Y-8197850D01*
X20554950Y-9150350D02*
X20593050Y-9188450D01*
X20593050Y-9150350D02*
X20554950Y-9188450D01*
X20681950Y-8540750D02*
X20720050Y-8578850D01*
X20720050Y-8540750D02*
X20681950Y-8578850D01*
X20681950Y-9150350D02*
X20720050Y-9188450D01*
X20720050Y-9150350D02*
X20681950Y-9188450D01*
X20808950Y-8540750D02*
X20847050Y-8578850D01*
X20847050Y-8540750D02*
X20808950Y-8578850D01*
X20808950Y-9150350D02*
X20847050Y-9188450D01*
X20847050Y-9150350D02*
X20808950Y-9188450D01*
X20834350Y-11461750D02*
X20872450Y-11499850D01*
X20872450Y-11461750D02*
X20834350Y-11499850D01*
X20910550Y-9582150D02*
X20948650Y-9620250D01*
X20948650Y-9582150D02*
X20910550Y-9620250D01*
X21037550Y-9582150D02*
X21075650Y-9620250D01*
X21075650Y-9582150D02*
X21037550Y-9620250D01*
X21139150Y-13620750D02*
X21177250Y-13658850D01*
X21177250Y-13620750D02*
X21139150Y-13658850D01*
X21139150Y-14001750D02*
X21177250Y-14039850D01*
X21177250Y-14001750D02*
X21139150Y-14039850D01*
X21342350Y-10140950D02*
X21380450Y-10179050D01*
X21380450Y-10140950D02*
X21342350Y-10179050D01*
X21545550Y-11004550D02*
X21583650Y-11042650D01*
X21583650Y-11004550D02*
X21545550Y-11042650D01*
X21545550Y-11156950D02*
X21583650Y-11195050D01*
X21583650Y-11156950D02*
X21545550Y-11195050D01*
X21545550Y-11563350D02*
X21583650Y-11601450D01*
X21583650Y-11563350D02*
X21545550Y-11601450D01*
X21545550Y-11690350D02*
X21583650Y-11728450D01*
X21583650Y-11690350D02*
X21545550Y-11728450D01*
X21570950Y-7956550D02*
X21609050Y-7994650D01*
X21609050Y-7956550D02*
X21570950Y-7994650D01*
X22586950Y-12833350D02*
X22625050Y-12871450D01*
X22625050Y-12833350D02*
X22586950Y-12871450D01*
X22840950Y-8769350D02*
X22879050Y-8807450D01*
X22879050Y-8769350D02*
X22840950Y-8807450D01*
X22840950Y-11461750D02*
X22879050Y-11499850D01*
X22879050Y-11461750D02*
X22840950Y-11499850D01*
X23094950Y-8997950D02*
X23133050Y-9036050D01*
X23133050Y-8997950D02*
X23094950Y-9036050D01*
X23094950Y-10293350D02*
X23133050Y-10331450D01*
X23133050Y-10293350D02*
X23094950Y-10331450D01*
X23094950Y-13900150D02*
X23133050Y-13938250D01*
X23133050Y-13900150D02*
X23094950Y-13938250D01*
X23348950Y-13900150D02*
X23387050Y-13938250D01*
X23387050Y-13900150D02*
X23348950Y-13938250D01*
X23475950Y-10394950D02*
X23514050Y-10433050D01*
X23514050Y-10394950D02*
X23475950Y-10433050D01*
X23526750Y-13544550D02*
X23564850Y-13582650D01*
X23564850Y-13544550D02*
X23526750Y-13582650D01*
X23602950Y-12680950D02*
X23641050Y-12719050D01*
X23641050Y-12680950D02*
X23602950Y-12719050D01*
X23602950Y-12833350D02*
X23641050Y-12871450D01*
X23641050Y-12833350D02*
X23602950Y-12871450D01*
X23602950Y-13900150D02*
X23641050Y-13938250D01*
X23641050Y-13900150D02*
X23602950Y-13938250D01*
X23653750Y-11156950D02*
X23691850Y-11195050D01*
X23691850Y-11156950D02*
X23653750Y-11195050D01*
X23679150Y-13544550D02*
X23717250Y-13582650D01*
X23717250Y-13544550D02*
X23679150Y-13582650D01*
X23704550Y-12757150D02*
X23742650Y-12795250D01*
X23742650Y-12757150D02*
X23704550Y-12795250D01*
X23704550Y-12909550D02*
X23742650Y-12947650D01*
X23742650Y-12909550D02*
X23704550Y-12947650D01*
X23729950Y-10394950D02*
X23768050Y-10433050D01*
X23768050Y-10394950D02*
X23729950Y-10433050D01*
X23755350Y-9582150D02*
X23793450Y-9620250D01*
X23793450Y-9582150D02*
X23755350Y-9620250D01*
X24110950Y-11156950D02*
X24149050Y-11195050D01*
X24149050Y-11156950D02*
X24110950Y-11195050D01*
X24110950Y-12757150D02*
X24149050Y-12795250D01*
X24149050Y-12757150D02*
X24110950Y-12795250D01*
X24110950Y-12909550D02*
X24149050Y-12947650D01*
X24149050Y-12909550D02*
X24110950Y-12947650D01*
X24110950Y-13544550D02*
X24149050Y-13582650D01*
X24149050Y-13544550D02*
X24110950Y-13582650D01*
X24212550Y-12833350D02*
X24250650Y-12871450D01*
X24250650Y-12833350D02*
X24212550Y-12871450D01*
X24237950Y-13671550D02*
X24276050Y-13709650D01*
X24276050Y-13671550D02*
X24237950Y-13709650D01*
X24466550Y-9124950D02*
X24504650Y-9163050D01*
X24504650Y-9124950D02*
X24466550Y-9163050D01*
D13*
X5374000Y-6096000D02*
G75*
G03*
X5374000Y-6096000I-40000J0D01*
G01*
X5374000Y-6596000D02*
G75*
G03*
X5374000Y-6596000I-40000J0D01*
G01*
X5374000Y-7366000D02*
G75*
G03*
X5374000Y-7366000I-40000J0D01*
G01*
X5374000Y-7866000D02*
G75*
G03*
X5374000Y-7866000I-40000J0D01*
G01*
X5374000Y-8636000D02*
G75*
G03*
X5374000Y-8636000I-40000J0D01*
G01*
X5374000Y-9136000D02*
G75*
G03*
X5374000Y-9136000I-40000J0D01*
G01*
X5374000Y-9906000D02*
G75*
G03*
X5374000Y-9906000I-40000J0D01*
G01*
X5374000Y-10406000D02*
G75*
G03*
X5374000Y-10406000I-40000J0D01*
G01*
X5374000Y-11176000D02*
G75*
G03*
X5374000Y-11176000I-40000J0D01*
G01*
X5374000Y-11676000D02*
G75*
G03*
X5374000Y-11676000I-40000J0D01*
G01*
X5882000Y-6096000D02*
G75*
G03*
X5882000Y-6096000I-40000J0D01*
G01*
X5882000Y-6858000D02*
G75*
G03*
X5882000Y-6858000I-40000J0D01*
G01*
X5882000Y-7366000D02*
G75*
G03*
X5882000Y-7366000I-40000J0D01*
G01*
X5882000Y-8128000D02*
G75*
G03*
X5882000Y-8128000I-40000J0D01*
G01*
X5882000Y-8636000D02*
G75*
G03*
X5882000Y-8636000I-40000J0D01*
G01*
X5882000Y-9398000D02*
G75*
G03*
X5882000Y-9398000I-40000J0D01*
G01*
X5882000Y-9906000D02*
G75*
G03*
X5882000Y-9906000I-40000J0D01*
G01*
X5882000Y-10668000D02*
G75*
G03*
X5882000Y-10668000I-40000J0D01*
G01*
X5882000Y-11176000D02*
G75*
G03*
X5882000Y-11176000I-40000J0D01*
G01*
X5882000Y-11938000D02*
G75*
G03*
X5882000Y-11938000I-40000J0D01*
G01*
X6136000Y-6096000D02*
G75*
G03*
X6136000Y-6096000I-40000J0D01*
G01*
X6136000Y-6858000D02*
G75*
G03*
X6136000Y-6858000I-40000J0D01*
G01*
X6136000Y-7366000D02*
G75*
G03*
X6136000Y-7366000I-40000J0D01*
G01*
X6136000Y-8128000D02*
G75*
G03*
X6136000Y-8128000I-40000J0D01*
G01*
X6136000Y-8636000D02*
G75*
G03*
X6136000Y-8636000I-40000J0D01*
G01*
X6136000Y-9398000D02*
G75*
G03*
X6136000Y-9398000I-40000J0D01*
G01*
X6136000Y-9906000D02*
G75*
G03*
X6136000Y-9906000I-40000J0D01*
G01*
X6136000Y-10668000D02*
G75*
G03*
X6136000Y-10668000I-40000J0D01*
G01*
X6136000Y-11176000D02*
G75*
G03*
X6136000Y-11176000I-40000J0D01*
G01*
X6136000Y-11938000D02*
G75*
G03*
X6136000Y-11938000I-40000J0D01*
G01*
X6136000Y-13212000D02*
G75*
G03*
X6136000Y-13212000I-40000J0D01*
G01*
X6136000Y-13462000D02*
G75*
G03*
X6136000Y-13462000I-40000J0D01*
G01*
X6390000Y-6096000D02*
G75*
G03*
X6390000Y-6096000I-40000J0D01*
G01*
X6390000Y-6858000D02*
G75*
G03*
X6390000Y-6858000I-40000J0D01*
G01*
X6390000Y-7366000D02*
G75*
G03*
X6390000Y-7366000I-40000J0D01*
G01*
X6390000Y-8128000D02*
G75*
G03*
X6390000Y-8128000I-40000J0D01*
G01*
X6390000Y-8636000D02*
G75*
G03*
X6390000Y-8636000I-40000J0D01*
G01*
X6390000Y-9398000D02*
G75*
G03*
X6390000Y-9398000I-40000J0D01*
G01*
X6390000Y-9906000D02*
G75*
G03*
X6390000Y-9906000I-40000J0D01*
G01*
X6390000Y-10668000D02*
G75*
G03*
X6390000Y-10668000I-40000J0D01*
G01*
X6390000Y-11176000D02*
G75*
G03*
X6390000Y-11176000I-40000J0D01*
G01*
X6390000Y-11938000D02*
G75*
G03*
X6390000Y-11938000I-40000J0D01*
G01*
X6644000Y-6096000D02*
G75*
G03*
X6644000Y-6096000I-40000J0D01*
G01*
X6644000Y-6858000D02*
G75*
G03*
X6644000Y-6858000I-40000J0D01*
G01*
X6644000Y-7366000D02*
G75*
G03*
X6644000Y-7366000I-40000J0D01*
G01*
X6644000Y-8128000D02*
G75*
G03*
X6644000Y-8128000I-40000J0D01*
G01*
X6644000Y-8636000D02*
G75*
G03*
X6644000Y-8636000I-40000J0D01*
G01*
X6644000Y-9398000D02*
G75*
G03*
X6644000Y-9398000I-40000J0D01*
G01*
X6644000Y-9906000D02*
G75*
G03*
X6644000Y-9906000I-40000J0D01*
G01*
X6644000Y-10668000D02*
G75*
G03*
X6644000Y-10668000I-40000J0D01*
G01*
X6644000Y-11176000D02*
G75*
G03*
X6644000Y-11176000I-40000J0D01*
G01*
X6644000Y-11938000D02*
G75*
G03*
X6644000Y-11938000I-40000J0D01*
G01*
X6898000Y-6096000D02*
G75*
G03*
X6898000Y-6096000I-40000J0D01*
G01*
X6898000Y-6858000D02*
G75*
G03*
X6898000Y-6858000I-40000J0D01*
G01*
X6898000Y-7366000D02*
G75*
G03*
X6898000Y-7366000I-40000J0D01*
G01*
X6898000Y-8128000D02*
G75*
G03*
X6898000Y-8128000I-40000J0D01*
G01*
X6898000Y-8636000D02*
G75*
G03*
X6898000Y-8636000I-40000J0D01*
G01*
X6898000Y-9398000D02*
G75*
G03*
X6898000Y-9398000I-40000J0D01*
G01*
X6898000Y-9906000D02*
G75*
G03*
X6898000Y-9906000I-40000J0D01*
G01*
X6898000Y-10668000D02*
G75*
G03*
X6898000Y-10668000I-40000J0D01*
G01*
X6898000Y-11176000D02*
G75*
G03*
X6898000Y-11176000I-40000J0D01*
G01*
X6898000Y-11938000D02*
G75*
G03*
X6898000Y-11938000I-40000J0D01*
G01*
X7152000Y-6096000D02*
G75*
G03*
X7152000Y-6096000I-40000J0D01*
G01*
X7152000Y-6858000D02*
G75*
G03*
X7152000Y-6858000I-40000J0D01*
G01*
X7152000Y-7366000D02*
G75*
G03*
X7152000Y-7366000I-40000J0D01*
G01*
X7152000Y-8128000D02*
G75*
G03*
X7152000Y-8128000I-40000J0D01*
G01*
X7152000Y-8636000D02*
G75*
G03*
X7152000Y-8636000I-40000J0D01*
G01*
X7152000Y-9398000D02*
G75*
G03*
X7152000Y-9398000I-40000J0D01*
G01*
X7152000Y-9906000D02*
G75*
G03*
X7152000Y-9906000I-40000J0D01*
G01*
X7152000Y-10668000D02*
G75*
G03*
X7152000Y-10668000I-40000J0D01*
G01*
X7152000Y-11176000D02*
G75*
G03*
X7152000Y-11176000I-40000J0D01*
G01*
X7152000Y-11938000D02*
G75*
G03*
X7152000Y-11938000I-40000J0D01*
G01*
X7406000Y-6096000D02*
G75*
G03*
X7406000Y-6096000I-40000J0D01*
G01*
X7406000Y-6858000D02*
G75*
G03*
X7406000Y-6858000I-40000J0D01*
G01*
X7406000Y-7366000D02*
G75*
G03*
X7406000Y-7366000I-40000J0D01*
G01*
X7406000Y-8128000D02*
G75*
G03*
X7406000Y-8128000I-40000J0D01*
G01*
X7406000Y-8636000D02*
G75*
G03*
X7406000Y-8636000I-40000J0D01*
G01*
X7406000Y-9398000D02*
G75*
G03*
X7406000Y-9398000I-40000J0D01*
G01*
X7406000Y-9906000D02*
G75*
G03*
X7406000Y-9906000I-40000J0D01*
G01*
X7406000Y-10668000D02*
G75*
G03*
X7406000Y-10668000I-40000J0D01*
G01*
X7406000Y-11176000D02*
G75*
G03*
X7406000Y-11176000I-40000J0D01*
G01*
X7406000Y-11938000D02*
G75*
G03*
X7406000Y-11938000I-40000J0D01*
G01*
X7660000Y-6096000D02*
G75*
G03*
X7660000Y-6096000I-40000J0D01*
G01*
X7660000Y-6858000D02*
G75*
G03*
X7660000Y-6858000I-40000J0D01*
G01*
X7660000Y-7366000D02*
G75*
G03*
X7660000Y-7366000I-40000J0D01*
G01*
X7660000Y-8128000D02*
G75*
G03*
X7660000Y-8128000I-40000J0D01*
G01*
X7660000Y-8636000D02*
G75*
G03*
X7660000Y-8636000I-40000J0D01*
G01*
X7660000Y-9398000D02*
G75*
G03*
X7660000Y-9398000I-40000J0D01*
G01*
X7660000Y-9906000D02*
G75*
G03*
X7660000Y-9906000I-40000J0D01*
G01*
X7660000Y-10668000D02*
G75*
G03*
X7660000Y-10668000I-40000J0D01*
G01*
X7660000Y-11176000D02*
G75*
G03*
X7660000Y-11176000I-40000J0D01*
G01*
X7660000Y-11938000D02*
G75*
G03*
X7660000Y-11938000I-40000J0D01*
G01*
X7914000Y-6096000D02*
G75*
G03*
X7914000Y-6096000I-40000J0D01*
G01*
X7914000Y-6858000D02*
G75*
G03*
X7914000Y-6858000I-40000J0D01*
G01*
X7914000Y-7366000D02*
G75*
G03*
X7914000Y-7366000I-40000J0D01*
G01*
X7914000Y-8128000D02*
G75*
G03*
X7914000Y-8128000I-40000J0D01*
G01*
X7914000Y-8636000D02*
G75*
G03*
X7914000Y-8636000I-40000J0D01*
G01*
X7914000Y-9398000D02*
G75*
G03*
X7914000Y-9398000I-40000J0D01*
G01*
X7914000Y-9906000D02*
G75*
G03*
X7914000Y-9906000I-40000J0D01*
G01*
X7914000Y-10668000D02*
G75*
G03*
X7914000Y-10668000I-40000J0D01*
G01*
X7914000Y-11176000D02*
G75*
G03*
X7914000Y-11176000I-40000J0D01*
G01*
X7914000Y-11938000D02*
G75*
G03*
X7914000Y-11938000I-40000J0D01*
G01*
X8168000Y-6096000D02*
G75*
G03*
X8168000Y-6096000I-40000J0D01*
G01*
X8168000Y-6858000D02*
G75*
G03*
X8168000Y-6858000I-40000J0D01*
G01*
X8168000Y-7366000D02*
G75*
G03*
X8168000Y-7366000I-40000J0D01*
G01*
X8168000Y-8128000D02*
G75*
G03*
X8168000Y-8128000I-40000J0D01*
G01*
X8168000Y-8636000D02*
G75*
G03*
X8168000Y-8636000I-40000J0D01*
G01*
X8168000Y-9398000D02*
G75*
G03*
X8168000Y-9398000I-40000J0D01*
G01*
X8168000Y-9906000D02*
G75*
G03*
X8168000Y-9906000I-40000J0D01*
G01*
X8168000Y-10668000D02*
G75*
G03*
X8168000Y-10668000I-40000J0D01*
G01*
X8168000Y-11176000D02*
G75*
G03*
X8168000Y-11176000I-40000J0D01*
G01*
X8168000Y-11938000D02*
G75*
G03*
X8168000Y-11938000I-40000J0D01*
G01*
X8676000Y-6096000D02*
G75*
G03*
X8676000Y-6096000I-40000J0D01*
G01*
X8676000Y-6596000D02*
G75*
G03*
X8676000Y-6596000I-40000J0D01*
G01*
X8676000Y-7366000D02*
G75*
G03*
X8676000Y-7366000I-40000J0D01*
G01*
X8676000Y-7866000D02*
G75*
G03*
X8676000Y-7866000I-40000J0D01*
G01*
X8676000Y-8636000D02*
G75*
G03*
X8676000Y-8636000I-40000J0D01*
G01*
X8676000Y-9136000D02*
G75*
G03*
X8676000Y-9136000I-40000J0D01*
G01*
X8676000Y-9906000D02*
G75*
G03*
X8676000Y-9906000I-40000J0D01*
G01*
X8676000Y-10406000D02*
G75*
G03*
X8676000Y-10406000I-40000J0D01*
G01*
X8676000Y-11176000D02*
G75*
G03*
X8676000Y-11176000I-40000J0D01*
G01*
X8676000Y-11676000D02*
G75*
G03*
X8676000Y-11676000I-40000J0D01*
G01*
X9184000Y-6096000D02*
G75*
G03*
X9184000Y-6096000I-40000J0D01*
G01*
X9184000Y-6858000D02*
G75*
G03*
X9184000Y-6858000I-40000J0D01*
G01*
X9184000Y-7366000D02*
G75*
G03*
X9184000Y-7366000I-40000J0D01*
G01*
X9184000Y-8128000D02*
G75*
G03*
X9184000Y-8128000I-40000J0D01*
G01*
X9184000Y-8636000D02*
G75*
G03*
X9184000Y-8636000I-40000J0D01*
G01*
X9184000Y-9398000D02*
G75*
G03*
X9184000Y-9398000I-40000J0D01*
G01*
X9184000Y-9906000D02*
G75*
G03*
X9184000Y-9906000I-40000J0D01*
G01*
X9184000Y-10668000D02*
G75*
G03*
X9184000Y-10668000I-40000J0D01*
G01*
X9184000Y-11176000D02*
G75*
G03*
X9184000Y-11176000I-40000J0D01*
G01*
X9184000Y-11938000D02*
G75*
G03*
X9184000Y-11938000I-40000J0D01*
G01*
X9438000Y-6096000D02*
G75*
G03*
X9438000Y-6096000I-40000J0D01*
G01*
X9438000Y-6858000D02*
G75*
G03*
X9438000Y-6858000I-40000J0D01*
G01*
X9438000Y-7366000D02*
G75*
G03*
X9438000Y-7366000I-40000J0D01*
G01*
X9438000Y-8128000D02*
G75*
G03*
X9438000Y-8128000I-40000J0D01*
G01*
X9438000Y-8636000D02*
G75*
G03*
X9438000Y-8636000I-40000J0D01*
G01*
X9438000Y-9398000D02*
G75*
G03*
X9438000Y-9398000I-40000J0D01*
G01*
X9438000Y-9906000D02*
G75*
G03*
X9438000Y-9906000I-40000J0D01*
G01*
X9438000Y-10668000D02*
G75*
G03*
X9438000Y-10668000I-40000J0D01*
G01*
X9438000Y-11176000D02*
G75*
G03*
X9438000Y-11176000I-40000J0D01*
G01*
X9438000Y-11938000D02*
G75*
G03*
X9438000Y-11938000I-40000J0D01*
G01*
X9692000Y-6096000D02*
G75*
G03*
X9692000Y-6096000I-40000J0D01*
G01*
X9692000Y-6858000D02*
G75*
G03*
X9692000Y-6858000I-40000J0D01*
G01*
X9692000Y-7366000D02*
G75*
G03*
X9692000Y-7366000I-40000J0D01*
G01*
X9692000Y-8128000D02*
G75*
G03*
X9692000Y-8128000I-40000J0D01*
G01*
X9692000Y-8636000D02*
G75*
G03*
X9692000Y-8636000I-40000J0D01*
G01*
X9692000Y-9398000D02*
G75*
G03*
X9692000Y-9398000I-40000J0D01*
G01*
X9692000Y-9906000D02*
G75*
G03*
X9692000Y-9906000I-40000J0D01*
G01*
X9692000Y-10668000D02*
G75*
G03*
X9692000Y-10668000I-40000J0D01*
G01*
X9692000Y-11176000D02*
G75*
G03*
X9692000Y-11176000I-40000J0D01*
G01*
X9692000Y-11938000D02*
G75*
G03*
X9692000Y-11938000I-40000J0D01*
G01*
X9946000Y-6096000D02*
G75*
G03*
X9946000Y-6096000I-40000J0D01*
G01*
X9946000Y-6858000D02*
G75*
G03*
X9946000Y-6858000I-40000J0D01*
G01*
X9946000Y-7366000D02*
G75*
G03*
X9946000Y-7366000I-40000J0D01*
G01*
X9946000Y-8128000D02*
G75*
G03*
X9946000Y-8128000I-40000J0D01*
G01*
X9946000Y-8636000D02*
G75*
G03*
X9946000Y-8636000I-40000J0D01*
G01*
X9946000Y-9398000D02*
G75*
G03*
X9946000Y-9398000I-40000J0D01*
G01*
X9946000Y-9906000D02*
G75*
G03*
X9946000Y-9906000I-40000J0D01*
G01*
X9946000Y-10668000D02*
G75*
G03*
X9946000Y-10668000I-40000J0D01*
G01*
X9946000Y-11176000D02*
G75*
G03*
X9946000Y-11176000I-40000J0D01*
G01*
X9946000Y-11938000D02*
G75*
G03*
X9946000Y-11938000I-40000J0D01*
G01*
X10200000Y-6096000D02*
G75*
G03*
X10200000Y-6096000I-40000J0D01*
G01*
X10200000Y-6858000D02*
G75*
G03*
X10200000Y-6858000I-40000J0D01*
G01*
X10200000Y-7366000D02*
G75*
G03*
X10200000Y-7366000I-40000J0D01*
G01*
X10200000Y-8128000D02*
G75*
G03*
X10200000Y-8128000I-40000J0D01*
G01*
X10200000Y-8636000D02*
G75*
G03*
X10200000Y-8636000I-40000J0D01*
G01*
X10200000Y-9398000D02*
G75*
G03*
X10200000Y-9398000I-40000J0D01*
G01*
X10200000Y-9906000D02*
G75*
G03*
X10200000Y-9906000I-40000J0D01*
G01*
X10200000Y-10668000D02*
G75*
G03*
X10200000Y-10668000I-40000J0D01*
G01*
X10200000Y-11176000D02*
G75*
G03*
X10200000Y-11176000I-40000J0D01*
G01*
X10200000Y-11938000D02*
G75*
G03*
X10200000Y-11938000I-40000J0D01*
G01*
X10454000Y-6096000D02*
G75*
G03*
X10454000Y-6096000I-40000J0D01*
G01*
X10454000Y-6858000D02*
G75*
G03*
X10454000Y-6858000I-40000J0D01*
G01*
X10454000Y-7366000D02*
G75*
G03*
X10454000Y-7366000I-40000J0D01*
G01*
X10454000Y-8128000D02*
G75*
G03*
X10454000Y-8128000I-40000J0D01*
G01*
X10454000Y-8636000D02*
G75*
G03*
X10454000Y-8636000I-40000J0D01*
G01*
X10454000Y-9398000D02*
G75*
G03*
X10454000Y-9398000I-40000J0D01*
G01*
X10454000Y-9906000D02*
G75*
G03*
X10454000Y-9906000I-40000J0D01*
G01*
X10454000Y-10668000D02*
G75*
G03*
X10454000Y-10668000I-40000J0D01*
G01*
X10454000Y-11176000D02*
G75*
G03*
X10454000Y-11176000I-40000J0D01*
G01*
X10454000Y-11938000D02*
G75*
G03*
X10454000Y-11938000I-40000J0D01*
G01*
X10708000Y-6096000D02*
G75*
G03*
X10708000Y-6096000I-40000J0D01*
G01*
X10708000Y-6858000D02*
G75*
G03*
X10708000Y-6858000I-40000J0D01*
G01*
X10708000Y-7366000D02*
G75*
G03*
X10708000Y-7366000I-40000J0D01*
G01*
X10708000Y-8128000D02*
G75*
G03*
X10708000Y-8128000I-40000J0D01*
G01*
X10708000Y-8636000D02*
G75*
G03*
X10708000Y-8636000I-40000J0D01*
G01*
X10708000Y-9398000D02*
G75*
G03*
X10708000Y-9398000I-40000J0D01*
G01*
X10708000Y-9906000D02*
G75*
G03*
X10708000Y-9906000I-40000J0D01*
G01*
X10708000Y-10668000D02*
G75*
G03*
X10708000Y-10668000I-40000J0D01*
G01*
X10708000Y-11176000D02*
G75*
G03*
X10708000Y-11176000I-40000J0D01*
G01*
X10708000Y-11938000D02*
G75*
G03*
X10708000Y-11938000I-40000J0D01*
G01*
X10962000Y-6096000D02*
G75*
G03*
X10962000Y-6096000I-40000J0D01*
G01*
X10962000Y-6858000D02*
G75*
G03*
X10962000Y-6858000I-40000J0D01*
G01*
X10962000Y-7366000D02*
G75*
G03*
X10962000Y-7366000I-40000J0D01*
G01*
X10962000Y-8128000D02*
G75*
G03*
X10962000Y-8128000I-40000J0D01*
G01*
X10962000Y-8636000D02*
G75*
G03*
X10962000Y-8636000I-40000J0D01*
G01*
X10962000Y-9398000D02*
G75*
G03*
X10962000Y-9398000I-40000J0D01*
G01*
X10962000Y-9906000D02*
G75*
G03*
X10962000Y-9906000I-40000J0D01*
G01*
X10962000Y-10668000D02*
G75*
G03*
X10962000Y-10668000I-40000J0D01*
G01*
X10962000Y-11176000D02*
G75*
G03*
X10962000Y-11176000I-40000J0D01*
G01*
X10962000Y-11938000D02*
G75*
G03*
X10962000Y-11938000I-40000J0D01*
G01*
X11216000Y-6096000D02*
G75*
G03*
X11216000Y-6096000I-40000J0D01*
G01*
X11216000Y-6858000D02*
G75*
G03*
X11216000Y-6858000I-40000J0D01*
G01*
X11216000Y-7366000D02*
G75*
G03*
X11216000Y-7366000I-40000J0D01*
G01*
X11216000Y-8128000D02*
G75*
G03*
X11216000Y-8128000I-40000J0D01*
G01*
X11216000Y-8636000D02*
G75*
G03*
X11216000Y-8636000I-40000J0D01*
G01*
X11216000Y-9398000D02*
G75*
G03*
X11216000Y-9398000I-40000J0D01*
G01*
X11216000Y-9906000D02*
G75*
G03*
X11216000Y-9906000I-40000J0D01*
G01*
X11216000Y-10668000D02*
G75*
G03*
X11216000Y-10668000I-40000J0D01*
G01*
X11216000Y-11176000D02*
G75*
G03*
X11216000Y-11176000I-40000J0D01*
G01*
X11216000Y-11938000D02*
G75*
G03*
X11216000Y-11938000I-40000J0D01*
G01*
X11470000Y-6096000D02*
G75*
G03*
X11470000Y-6096000I-40000J0D01*
G01*
X11470000Y-6858000D02*
G75*
G03*
X11470000Y-6858000I-40000J0D01*
G01*
X11470000Y-7366000D02*
G75*
G03*
X11470000Y-7366000I-40000J0D01*
G01*
X11470000Y-8128000D02*
G75*
G03*
X11470000Y-8128000I-40000J0D01*
G01*
X11470000Y-8636000D02*
G75*
G03*
X11470000Y-8636000I-40000J0D01*
G01*
X11470000Y-9398000D02*
G75*
G03*
X11470000Y-9398000I-40000J0D01*
G01*
X11470000Y-9906000D02*
G75*
G03*
X11470000Y-9906000I-40000J0D01*
G01*
X11470000Y-10668000D02*
G75*
G03*
X11470000Y-10668000I-40000J0D01*
G01*
X11470000Y-11176000D02*
G75*
G03*
X11470000Y-11176000I-40000J0D01*
G01*
X11470000Y-11938000D02*
G75*
G03*
X11470000Y-11938000I-40000J0D01*
G01*
X11978000Y-9906000D02*
G75*
G03*
X11978000Y-9906000I-40000J0D01*
G01*
X11978000Y-10406000D02*
G75*
G03*
X11978000Y-10406000I-40000J0D01*
G01*
X11978000Y-11176000D02*
G75*
G03*
X11978000Y-11176000I-40000J0D01*
G01*
X11978000Y-11676000D02*
G75*
G03*
X11978000Y-11676000I-40000J0D01*
G01*
X12486000Y-9906000D02*
G75*
G03*
X12486000Y-9906000I-40000J0D01*
G01*
X12486000Y-10668000D02*
G75*
G03*
X12486000Y-10668000I-40000J0D01*
G01*
X12486000Y-11176000D02*
G75*
G03*
X12486000Y-11176000I-40000J0D01*
G01*
X12486000Y-11938000D02*
G75*
G03*
X12486000Y-11938000I-40000J0D01*
G01*
X12740000Y-9906000D02*
G75*
G03*
X12740000Y-9906000I-40000J0D01*
G01*
X12740000Y-10668000D02*
G75*
G03*
X12740000Y-10668000I-40000J0D01*
G01*
X12740000Y-11176000D02*
G75*
G03*
X12740000Y-11176000I-40000J0D01*
G01*
X12740000Y-11938000D02*
G75*
G03*
X12740000Y-11938000I-40000J0D01*
G01*
X12994000Y-9906000D02*
G75*
G03*
X12994000Y-9906000I-40000J0D01*
G01*
X12994000Y-10668000D02*
G75*
G03*
X12994000Y-10668000I-40000J0D01*
G01*
X12994000Y-11176000D02*
G75*
G03*
X12994000Y-11176000I-40000J0D01*
G01*
X12994000Y-11938000D02*
G75*
G03*
X12994000Y-11938000I-40000J0D01*
G01*
X13248000Y-9906000D02*
G75*
G03*
X13248000Y-9906000I-40000J0D01*
G01*
X13248000Y-10668000D02*
G75*
G03*
X13248000Y-10668000I-40000J0D01*
G01*
X13248000Y-11176000D02*
G75*
G03*
X13248000Y-11176000I-40000J0D01*
G01*
X13248000Y-11938000D02*
G75*
G03*
X13248000Y-11938000I-40000J0D01*
G01*
X13502000Y-9906000D02*
G75*
G03*
X13502000Y-9906000I-40000J0D01*
G01*
X13502000Y-10668000D02*
G75*
G03*
X13502000Y-10668000I-40000J0D01*
G01*
X13502000Y-11176000D02*
G75*
G03*
X13502000Y-11176000I-40000J0D01*
G01*
X13502000Y-11938000D02*
G75*
G03*
X13502000Y-11938000I-40000J0D01*
G01*
X13756000Y-9906000D02*
G75*
G03*
X13756000Y-9906000I-40000J0D01*
G01*
X13756000Y-10668000D02*
G75*
G03*
X13756000Y-10668000I-40000J0D01*
G01*
X13756000Y-11176000D02*
G75*
G03*
X13756000Y-11176000I-40000J0D01*
G01*
X13756000Y-11938000D02*
G75*
G03*
X13756000Y-11938000I-40000J0D01*
G01*
X14010000Y-9906000D02*
G75*
G03*
X14010000Y-9906000I-40000J0D01*
G01*
X14010000Y-10668000D02*
G75*
G03*
X14010000Y-10668000I-40000J0D01*
G01*
X14010000Y-11176000D02*
G75*
G03*
X14010000Y-11176000I-40000J0D01*
G01*
X14010000Y-11938000D02*
G75*
G03*
X14010000Y-11938000I-40000J0D01*
G01*
X14264000Y-9906000D02*
G75*
G03*
X14264000Y-9906000I-40000J0D01*
G01*
X14264000Y-10668000D02*
G75*
G03*
X14264000Y-10668000I-40000J0D01*
G01*
X14264000Y-11176000D02*
G75*
G03*
X14264000Y-11176000I-40000J0D01*
G01*
X14264000Y-11938000D02*
G75*
G03*
X14264000Y-11938000I-40000J0D01*
G01*
X14268000Y-8128000D02*
G75*
G03*
X14268000Y-8128000I-40000J0D01*
G01*
X14518000Y-8128000D02*
G75*
G03*
X14518000Y-8128000I-40000J0D01*
G01*
X14518000Y-9906000D02*
G75*
G03*
X14518000Y-9906000I-40000J0D01*
G01*
X14518000Y-10668000D02*
G75*
G03*
X14518000Y-10668000I-40000J0D01*
G01*
X14518000Y-11176000D02*
G75*
G03*
X14518000Y-11176000I-40000J0D01*
G01*
X14518000Y-11938000D02*
G75*
G03*
X14518000Y-11938000I-40000J0D01*
G01*
X14772000Y-9906000D02*
G75*
G03*
X14772000Y-9906000I-40000J0D01*
G01*
X14772000Y-10668000D02*
G75*
G03*
X14772000Y-10668000I-40000J0D01*
G01*
X14772000Y-11176000D02*
G75*
G03*
X14772000Y-11176000I-40000J0D01*
G01*
X14772000Y-11938000D02*
G75*
G03*
X14772000Y-11938000I-40000J0D01*
G01*
X15153000Y-7620000D02*
G75*
G03*
X15153000Y-7620000I-40000J0D01*
G01*
X15153000Y-8120000D02*
G75*
G03*
X15153000Y-8120000I-40000J0D01*
G01*
X15280000Y-9906000D02*
G75*
G03*
X15280000Y-9906000I-40000J0D01*
G01*
X15280000Y-10406000D02*
G75*
G03*
X15280000Y-10406000I-40000J0D01*
G01*
X15280000Y-11176000D02*
G75*
G03*
X15280000Y-11176000I-40000J0D01*
G01*
X15280000Y-11676000D02*
G75*
G03*
X15280000Y-11676000I-40000J0D01*
G01*
X15661000Y-7620000D02*
G75*
G03*
X15661000Y-7620000I-40000J0D01*
G01*
X15661000Y-8382000D02*
G75*
G03*
X15661000Y-8382000I-40000J0D01*
G01*
X15788000Y-9906000D02*
G75*
G03*
X15788000Y-9906000I-40000J0D01*
G01*
X15788000Y-10668000D02*
G75*
G03*
X15788000Y-10668000I-40000J0D01*
G01*
X15788000Y-11176000D02*
G75*
G03*
X15788000Y-11176000I-40000J0D01*
G01*
X15788000Y-11938000D02*
G75*
G03*
X15788000Y-11938000I-40000J0D01*
G01*
X15915000Y-7620000D02*
G75*
G03*
X15915000Y-7620000I-40000J0D01*
G01*
X15915000Y-8382000D02*
G75*
G03*
X15915000Y-8382000I-40000J0D01*
G01*
X16042000Y-9906000D02*
G75*
G03*
X16042000Y-9906000I-40000J0D01*
G01*
X16042000Y-10668000D02*
G75*
G03*
X16042000Y-10668000I-40000J0D01*
G01*
X16042000Y-11176000D02*
G75*
G03*
X16042000Y-11176000I-40000J0D01*
G01*
X16042000Y-11938000D02*
G75*
G03*
X16042000Y-11938000I-40000J0D01*
G01*
X16169000Y-7620000D02*
G75*
G03*
X16169000Y-7620000I-40000J0D01*
G01*
X16169000Y-8382000D02*
G75*
G03*
X16169000Y-8382000I-40000J0D01*
G01*
X16296000Y-7112000D02*
G75*
G03*
X16296000Y-7112000I-40000J0D01*
G01*
X16296000Y-9906000D02*
G75*
G03*
X16296000Y-9906000I-40000J0D01*
G01*
X16296000Y-10668000D02*
G75*
G03*
X16296000Y-10668000I-40000J0D01*
G01*
X16296000Y-11176000D02*
G75*
G03*
X16296000Y-11176000I-40000J0D01*
G01*
X16296000Y-11938000D02*
G75*
G03*
X16296000Y-11938000I-40000J0D01*
G01*
X16423000Y-7620000D02*
G75*
G03*
X16423000Y-7620000I-40000J0D01*
G01*
X16423000Y-8382000D02*
G75*
G03*
X16423000Y-8382000I-40000J0D01*
G01*
X16550000Y-7112000D02*
G75*
G03*
X16550000Y-7112000I-40000J0D01*
G01*
X16550000Y-9906000D02*
G75*
G03*
X16550000Y-9906000I-40000J0D01*
G01*
X16550000Y-10668000D02*
G75*
G03*
X16550000Y-10668000I-40000J0D01*
G01*
X16550000Y-11176000D02*
G75*
G03*
X16550000Y-11176000I-40000J0D01*
G01*
X16550000Y-11938000D02*
G75*
G03*
X16550000Y-11938000I-40000J0D01*
G01*
X16677000Y-7620000D02*
G75*
G03*
X16677000Y-7620000I-40000J0D01*
G01*
X16677000Y-8382000D02*
G75*
G03*
X16677000Y-8382000I-40000J0D01*
G01*
X16804000Y-7112000D02*
G75*
G03*
X16804000Y-7112000I-40000J0D01*
G01*
X16804000Y-9906000D02*
G75*
G03*
X16804000Y-9906000I-40000J0D01*
G01*
X16804000Y-10668000D02*
G75*
G03*
X16804000Y-10668000I-40000J0D01*
G01*
X16804000Y-11176000D02*
G75*
G03*
X16804000Y-11176000I-40000J0D01*
G01*
X16804000Y-11938000D02*
G75*
G03*
X16804000Y-11938000I-40000J0D01*
G01*
X16931000Y-7620000D02*
G75*
G03*
X16931000Y-7620000I-40000J0D01*
G01*
X16931000Y-8382000D02*
G75*
G03*
X16931000Y-8382000I-40000J0D01*
G01*
X17058000Y-7112000D02*
G75*
G03*
X17058000Y-7112000I-40000J0D01*
G01*
X17058000Y-9906000D02*
G75*
G03*
X17058000Y-9906000I-40000J0D01*
G01*
X17058000Y-10668000D02*
G75*
G03*
X17058000Y-10668000I-40000J0D01*
G01*
X17058000Y-11176000D02*
G75*
G03*
X17058000Y-11176000I-40000J0D01*
G01*
X17058000Y-11938000D02*
G75*
G03*
X17058000Y-11938000I-40000J0D01*
G01*
X17185000Y-7620000D02*
G75*
G03*
X17185000Y-7620000I-40000J0D01*
G01*
X17185000Y-8382000D02*
G75*
G03*
X17185000Y-8382000I-40000J0D01*
G01*
X17312000Y-7112000D02*
G75*
G03*
X17312000Y-7112000I-40000J0D01*
G01*
X17312000Y-9906000D02*
G75*
G03*
X17312000Y-9906000I-40000J0D01*
G01*
X17312000Y-10668000D02*
G75*
G03*
X17312000Y-10668000I-40000J0D01*
G01*
X17312000Y-11176000D02*
G75*
G03*
X17312000Y-11176000I-40000J0D01*
G01*
X17312000Y-11938000D02*
G75*
G03*
X17312000Y-11938000I-40000J0D01*
G01*
X17439000Y-7620000D02*
G75*
G03*
X17439000Y-7620000I-40000J0D01*
G01*
X17439000Y-8382000D02*
G75*
G03*
X17439000Y-8382000I-40000J0D01*
G01*
X17566000Y-7112000D02*
G75*
G03*
X17566000Y-7112000I-40000J0D01*
G01*
X17566000Y-9906000D02*
G75*
G03*
X17566000Y-9906000I-40000J0D01*
G01*
X17566000Y-10668000D02*
G75*
G03*
X17566000Y-10668000I-40000J0D01*
G01*
X17566000Y-11176000D02*
G75*
G03*
X17566000Y-11176000I-40000J0D01*
G01*
X17566000Y-11938000D02*
G75*
G03*
X17566000Y-11938000I-40000J0D01*
G01*
X17566000Y-12700000D02*
G75*
G03*
X17566000Y-12700000I-40000J0D01*
G01*
X17566000Y-12950000D02*
G75*
G03*
X17566000Y-12950000I-40000J0D01*
G01*
X17693000Y-7620000D02*
G75*
G03*
X17693000Y-7620000I-40000J0D01*
G01*
X17693000Y-8382000D02*
G75*
G03*
X17693000Y-8382000I-40000J0D01*
G01*
X17820000Y-7112000D02*
G75*
G03*
X17820000Y-7112000I-40000J0D01*
G01*
X17820000Y-9906000D02*
G75*
G03*
X17820000Y-9906000I-40000J0D01*
G01*
X17820000Y-10668000D02*
G75*
G03*
X17820000Y-10668000I-40000J0D01*
G01*
X17820000Y-11176000D02*
G75*
G03*
X17820000Y-11176000I-40000J0D01*
G01*
X17820000Y-11938000D02*
G75*
G03*
X17820000Y-11938000I-40000J0D01*
G01*
X17947000Y-7620000D02*
G75*
G03*
X17947000Y-7620000I-40000J0D01*
G01*
X17947000Y-8382000D02*
G75*
G03*
X17947000Y-8382000I-40000J0D01*
G01*
X18074000Y-7112000D02*
G75*
G03*
X18074000Y-7112000I-40000J0D01*
G01*
X18074000Y-9906000D02*
G75*
G03*
X18074000Y-9906000I-40000J0D01*
G01*
X18074000Y-10668000D02*
G75*
G03*
X18074000Y-10668000I-40000J0D01*
G01*
X18074000Y-11176000D02*
G75*
G03*
X18074000Y-11176000I-40000J0D01*
G01*
X18074000Y-11938000D02*
G75*
G03*
X18074000Y-11938000I-40000J0D01*
G01*
X18074000Y-12446000D02*
G75*
G03*
X18074000Y-12446000I-40000J0D01*
G01*
X18074000Y-13462000D02*
G75*
G03*
X18074000Y-13462000I-40000J0D01*
G01*
X18328000Y-7112000D02*
G75*
G03*
X18328000Y-7112000I-40000J0D01*
G01*
X18582000Y-9906000D02*
G75*
G03*
X18582000Y-9906000I-40000J0D01*
G01*
X18582000Y-10406000D02*
G75*
G03*
X18582000Y-10406000I-40000J0D01*
G01*
X18582000Y-11176000D02*
G75*
G03*
X18582000Y-11176000I-40000J0D01*
G01*
X18582000Y-11676000D02*
G75*
G03*
X18582000Y-11676000I-40000J0D01*
G01*
X18582000Y-12446000D02*
G75*
G03*
X18582000Y-12446000I-40000J0D01*
G01*
X18582000Y-12946000D02*
G75*
G03*
X18582000Y-12946000I-40000J0D01*
G01*
X19089000Y-11176000D02*
G75*
G03*
X19089000Y-11176000I-40000J0D01*
G01*
X19089000Y-11938000D02*
G75*
G03*
X19089000Y-11938000I-40000J0D01*
G01*
X19090000Y-9906000D02*
G75*
G03*
X19090000Y-9906000I-40000J0D01*
G01*
X19090000Y-10668000D02*
G75*
G03*
X19090000Y-10668000I-40000J0D01*
G01*
X19090000Y-12446000D02*
G75*
G03*
X19090000Y-12446000I-40000J0D01*
G01*
X19090000Y-13208000D02*
G75*
G03*
X19090000Y-13208000I-40000J0D01*
G01*
X19343000Y-11176000D02*
G75*
G03*
X19343000Y-11176000I-40000J0D01*
G01*
X19343000Y-11938000D02*
G75*
G03*
X19343000Y-11938000I-40000J0D01*
G01*
X19344000Y-9906000D02*
G75*
G03*
X19344000Y-9906000I-40000J0D01*
G01*
X19344000Y-10668000D02*
G75*
G03*
X19344000Y-10668000I-40000J0D01*
G01*
X19344000Y-12446000D02*
G75*
G03*
X19344000Y-12446000I-40000J0D01*
G01*
X19344000Y-13208000D02*
G75*
G03*
X19344000Y-13208000I-40000J0D01*
G01*
X19597000Y-11176000D02*
G75*
G03*
X19597000Y-11176000I-40000J0D01*
G01*
X19597000Y-11938000D02*
G75*
G03*
X19597000Y-11938000I-40000J0D01*
G01*
X19598000Y-9906000D02*
G75*
G03*
X19598000Y-9906000I-40000J0D01*
G01*
X19598000Y-10668000D02*
G75*
G03*
X19598000Y-10668000I-40000J0D01*
G01*
X19598000Y-12446000D02*
G75*
G03*
X19598000Y-12446000I-40000J0D01*
G01*
X19598000Y-13208000D02*
G75*
G03*
X19598000Y-13208000I-40000J0D01*
G01*
X19851000Y-11176000D02*
G75*
G03*
X19851000Y-11176000I-40000J0D01*
G01*
X19851000Y-11938000D02*
G75*
G03*
X19851000Y-11938000I-40000J0D01*
G01*
X19852000Y-9906000D02*
G75*
G03*
X19852000Y-9906000I-40000J0D01*
G01*
X19852000Y-10668000D02*
G75*
G03*
X19852000Y-10668000I-40000J0D01*
G01*
X19852000Y-12446000D02*
G75*
G03*
X19852000Y-12446000I-40000J0D01*
G01*
X19852000Y-13208000D02*
G75*
G03*
X19852000Y-13208000I-40000J0D01*
G01*
X20105000Y-11176000D02*
G75*
G03*
X20105000Y-11176000I-40000J0D01*
G01*
X20105000Y-11938000D02*
G75*
G03*
X20105000Y-11938000I-40000J0D01*
G01*
X20106000Y-9906000D02*
G75*
G03*
X20106000Y-9906000I-40000J0D01*
G01*
X20106000Y-10668000D02*
G75*
G03*
X20106000Y-10668000I-40000J0D01*
G01*
X20106000Y-12446000D02*
G75*
G03*
X20106000Y-12446000I-40000J0D01*
G01*
X20106000Y-13208000D02*
G75*
G03*
X20106000Y-13208000I-40000J0D01*
G01*
X20359000Y-11176000D02*
G75*
G03*
X20359000Y-11176000I-40000J0D01*
G01*
X20359000Y-11938000D02*
G75*
G03*
X20359000Y-11938000I-40000J0D01*
G01*
X20360000Y-9906000D02*
G75*
G03*
X20360000Y-9906000I-40000J0D01*
G01*
X20360000Y-10668000D02*
G75*
G03*
X20360000Y-10668000I-40000J0D01*
G01*
X20360000Y-12446000D02*
G75*
G03*
X20360000Y-12446000I-40000J0D01*
G01*
X20360000Y-13208000D02*
G75*
G03*
X20360000Y-13208000I-40000J0D01*
G01*
X20613000Y-11176000D02*
G75*
G03*
X20613000Y-11176000I-40000J0D01*
G01*
X20613000Y-11938000D02*
G75*
G03*
X20613000Y-11938000I-40000J0D01*
G01*
X20614000Y-9906000D02*
G75*
G03*
X20614000Y-9906000I-40000J0D01*
G01*
X20614000Y-10668000D02*
G75*
G03*
X20614000Y-10668000I-40000J0D01*
G01*
X20614000Y-12446000D02*
G75*
G03*
X20614000Y-12446000I-40000J0D01*
G01*
X20614000Y-13208000D02*
G75*
G03*
X20614000Y-13208000I-40000J0D01*
G01*
X20867000Y-11176000D02*
G75*
G03*
X20867000Y-11176000I-40000J0D01*
G01*
X20867000Y-11938000D02*
G75*
G03*
X20867000Y-11938000I-40000J0D01*
G01*
X20868000Y-7620000D02*
G75*
G03*
X20868000Y-7620000I-40000J0D01*
G01*
X20868000Y-8120000D02*
G75*
G03*
X20868000Y-8120000I-40000J0D01*
G01*
X20868000Y-9906000D02*
G75*
G03*
X20868000Y-9906000I-40000J0D01*
G01*
X20868000Y-10668000D02*
G75*
G03*
X20868000Y-10668000I-40000J0D01*
G01*
X21376000Y-7620000D02*
G75*
G03*
X21376000Y-7620000I-40000J0D01*
G01*
X21376000Y-8382000D02*
G75*
G03*
X21376000Y-8382000I-40000J0D01*
G01*
X21376000Y-9398000D02*
G75*
G03*
X21376000Y-9398000I-40000J0D01*
G01*
X21376000Y-9906000D02*
G75*
G03*
X21376000Y-9906000I-40000J0D01*
G01*
X21376000Y-10406000D02*
G75*
G03*
X21376000Y-10406000I-40000J0D01*
G01*
X21376000Y-11176000D02*
G75*
G03*
X21376000Y-11176000I-40000J0D01*
G01*
X21376000Y-11676000D02*
G75*
G03*
X21376000Y-11676000I-40000J0D01*
G01*
X21376000Y-12446000D02*
G75*
G03*
X21376000Y-12446000I-40000J0D01*
G01*
X21376000Y-12946000D02*
G75*
G03*
X21376000Y-12946000I-40000J0D01*
G01*
X21630000Y-7620000D02*
G75*
G03*
X21630000Y-7620000I-40000J0D01*
G01*
X21630000Y-8382000D02*
G75*
G03*
X21630000Y-8382000I-40000J0D01*
G01*
X21630000Y-9398000D02*
G75*
G03*
X21630000Y-9398000I-40000J0D01*
G01*
X21757000Y-7112000D02*
G75*
G03*
X21757000Y-7112000I-40000J0D01*
G01*
X21884000Y-7620000D02*
G75*
G03*
X21884000Y-7620000I-40000J0D01*
G01*
X21884000Y-8382000D02*
G75*
G03*
X21884000Y-8382000I-40000J0D01*
G01*
X21884000Y-9398000D02*
G75*
G03*
X21884000Y-9398000I-40000J0D01*
G01*
X21884000Y-9906000D02*
G75*
G03*
X21884000Y-9906000I-40000J0D01*
G01*
X21884000Y-10668000D02*
G75*
G03*
X21884000Y-10668000I-40000J0D01*
G01*
X21884000Y-11176000D02*
G75*
G03*
X21884000Y-11176000I-40000J0D01*
G01*
X21884000Y-11938000D02*
G75*
G03*
X21884000Y-11938000I-40000J0D01*
G01*
X21884000Y-12446000D02*
G75*
G03*
X21884000Y-12446000I-40000J0D01*
G01*
X21884000Y-13208000D02*
G75*
G03*
X21884000Y-13208000I-40000J0D01*
G01*
X22011000Y-7112000D02*
G75*
G03*
X22011000Y-7112000I-40000J0D01*
G01*
X22138000Y-7620000D02*
G75*
G03*
X22138000Y-7620000I-40000J0D01*
G01*
X22138000Y-8382000D02*
G75*
G03*
X22138000Y-8382000I-40000J0D01*
G01*
X22138000Y-9398000D02*
G75*
G03*
X22138000Y-9398000I-40000J0D01*
G01*
X22138000Y-9906000D02*
G75*
G03*
X22138000Y-9906000I-40000J0D01*
G01*
X22138000Y-10668000D02*
G75*
G03*
X22138000Y-10668000I-40000J0D01*
G01*
X22138000Y-11176000D02*
G75*
G03*
X22138000Y-11176000I-40000J0D01*
G01*
X22138000Y-11938000D02*
G75*
G03*
X22138000Y-11938000I-40000J0D01*
G01*
X22138000Y-12446000D02*
G75*
G03*
X22138000Y-12446000I-40000J0D01*
G01*
X22138000Y-13208000D02*
G75*
G03*
X22138000Y-13208000I-40000J0D01*
G01*
X22265000Y-7112000D02*
G75*
G03*
X22265000Y-7112000I-40000J0D01*
G01*
X22392000Y-7620000D02*
G75*
G03*
X22392000Y-7620000I-40000J0D01*
G01*
X22392000Y-8382000D02*
G75*
G03*
X22392000Y-8382000I-40000J0D01*
G01*
X22392000Y-9398000D02*
G75*
G03*
X22392000Y-9398000I-40000J0D01*
G01*
X22392000Y-9906000D02*
G75*
G03*
X22392000Y-9906000I-40000J0D01*
G01*
X22392000Y-10668000D02*
G75*
G03*
X22392000Y-10668000I-40000J0D01*
G01*
X22392000Y-11176000D02*
G75*
G03*
X22392000Y-11176000I-40000J0D01*
G01*
X22392000Y-11938000D02*
G75*
G03*
X22392000Y-11938000I-40000J0D01*
G01*
X22392000Y-12446000D02*
G75*
G03*
X22392000Y-12446000I-40000J0D01*
G01*
X22392000Y-13208000D02*
G75*
G03*
X22392000Y-13208000I-40000J0D01*
G01*
X22519000Y-7112000D02*
G75*
G03*
X22519000Y-7112000I-40000J0D01*
G01*
X22646000Y-7620000D02*
G75*
G03*
X22646000Y-7620000I-40000J0D01*
G01*
X22646000Y-8382000D02*
G75*
G03*
X22646000Y-8382000I-40000J0D01*
G01*
X22646000Y-9398000D02*
G75*
G03*
X22646000Y-9398000I-40000J0D01*
G01*
X22646000Y-9906000D02*
G75*
G03*
X22646000Y-9906000I-40000J0D01*
G01*
X22646000Y-10668000D02*
G75*
G03*
X22646000Y-10668000I-40000J0D01*
G01*
X22646000Y-11176000D02*
G75*
G03*
X22646000Y-11176000I-40000J0D01*
G01*
X22646000Y-11938000D02*
G75*
G03*
X22646000Y-11938000I-40000J0D01*
G01*
X22646000Y-12446000D02*
G75*
G03*
X22646000Y-12446000I-40000J0D01*
G01*
X22646000Y-13208000D02*
G75*
G03*
X22646000Y-13208000I-40000J0D01*
G01*
X22773000Y-7112000D02*
G75*
G03*
X22773000Y-7112000I-40000J0D01*
G01*
X22900000Y-7620000D02*
G75*
G03*
X22900000Y-7620000I-40000J0D01*
G01*
X22900000Y-8382000D02*
G75*
G03*
X22900000Y-8382000I-40000J0D01*
G01*
X22900000Y-9398000D02*
G75*
G03*
X22900000Y-9398000I-40000J0D01*
G01*
X22900000Y-9906000D02*
G75*
G03*
X22900000Y-9906000I-40000J0D01*
G01*
X22900000Y-10668000D02*
G75*
G03*
X22900000Y-10668000I-40000J0D01*
G01*
X22900000Y-11176000D02*
G75*
G03*
X22900000Y-11176000I-40000J0D01*
G01*
X22900000Y-11938000D02*
G75*
G03*
X22900000Y-11938000I-40000J0D01*
G01*
X22900000Y-12446000D02*
G75*
G03*
X22900000Y-12446000I-40000J0D01*
G01*
X22900000Y-13208000D02*
G75*
G03*
X22900000Y-13208000I-40000J0D01*
G01*
X23027000Y-7112000D02*
G75*
G03*
X23027000Y-7112000I-40000J0D01*
G01*
X23154000Y-7620000D02*
G75*
G03*
X23154000Y-7620000I-40000J0D01*
G01*
X23154000Y-8382000D02*
G75*
G03*
X23154000Y-8382000I-40000J0D01*
G01*
X23154000Y-9398000D02*
G75*
G03*
X23154000Y-9398000I-40000J0D01*
G01*
X23154000Y-9906000D02*
G75*
G03*
X23154000Y-9906000I-40000J0D01*
G01*
X23154000Y-10668000D02*
G75*
G03*
X23154000Y-10668000I-40000J0D01*
G01*
X23154000Y-11176000D02*
G75*
G03*
X23154000Y-11176000I-40000J0D01*
G01*
X23154000Y-11938000D02*
G75*
G03*
X23154000Y-11938000I-40000J0D01*
G01*
X23154000Y-12446000D02*
G75*
G03*
X23154000Y-12446000I-40000J0D01*
G01*
X23154000Y-13208000D02*
G75*
G03*
X23154000Y-13208000I-40000J0D01*
G01*
X23281000Y-7112000D02*
G75*
G03*
X23281000Y-7112000I-40000J0D01*
G01*
X23408000Y-7620000D02*
G75*
G03*
X23408000Y-7620000I-40000J0D01*
G01*
X23408000Y-8382000D02*
G75*
G03*
X23408000Y-8382000I-40000J0D01*
G01*
X23408000Y-9398000D02*
G75*
G03*
X23408000Y-9398000I-40000J0D01*
G01*
X23408000Y-9906000D02*
G75*
G03*
X23408000Y-9906000I-40000J0D01*
G01*
X23408000Y-10668000D02*
G75*
G03*
X23408000Y-10668000I-40000J0D01*
G01*
X23408000Y-11176000D02*
G75*
G03*
X23408000Y-11176000I-40000J0D01*
G01*
X23408000Y-11938000D02*
G75*
G03*
X23408000Y-11938000I-40000J0D01*
G01*
X23408000Y-12446000D02*
G75*
G03*
X23408000Y-12446000I-40000J0D01*
G01*
X23408000Y-13208000D02*
G75*
G03*
X23408000Y-13208000I-40000J0D01*
G01*
X23535000Y-7112000D02*
G75*
G03*
X23535000Y-7112000I-40000J0D01*
G01*
X23662000Y-7620000D02*
G75*
G03*
X23662000Y-7620000I-40000J0D01*
G01*
X23662000Y-8382000D02*
G75*
G03*
X23662000Y-8382000I-40000J0D01*
G01*
X23662000Y-9906000D02*
G75*
G03*
X23662000Y-9906000I-40000J0D01*
G01*
X23662000Y-10668000D02*
G75*
G03*
X23662000Y-10668000I-40000J0D01*
G01*
X23662000Y-12446000D02*
G75*
G03*
X23662000Y-12446000I-40000J0D01*
G01*
X23662000Y-13208000D02*
G75*
G03*
X23662000Y-13208000I-40000J0D01*
G01*
X23789000Y-7112000D02*
G75*
G03*
X23789000Y-7112000I-40000J0D01*
G01*
X24551000Y-10541000D02*
G75*
G03*
X24551000Y-10541000I-40000J0D01*
G01*
X24551000Y-11557000D02*
G75*
G03*
X24551000Y-11557000I-40000J0D01*
G01*
X24551000Y-12200000D02*
G75*
G03*
X24551000Y-12200000I-40000J0D01*
G01*
X24551000Y-12700000D02*
G75*
G03*
X24551000Y-12700000I-40000J0D01*
G01*
X24551000Y-13724000D02*
G75*
G03*
X24551000Y-13724000I-40000J0D01*
G01*
X24551000Y-14224000D02*
G75*
G03*
X24551000Y-14224000I-40000J0D01*
G01*
X24932000Y-11938000D02*
G75*
G03*
X24932000Y-11938000I-40000J0D01*
G01*
X24932000Y-12954000D02*
G75*
G03*
X24932000Y-12954000I-40000J0D01*
G01*
X24932000Y-13462000D02*
G75*
G03*
X24932000Y-13462000I-40000J0D01*
G01*
X24932000Y-14478000D02*
G75*
G03*
X24932000Y-14478000I-40000J0D01*
G01*
D14*
X14725650Y-6305000D02*
X14725650Y-6395000D01*
X14680650Y-6350000D02*
X14770650Y-6350000D01*
X14979650Y-6305000D02*
X14979650Y-6395000D01*
X14934650Y-6350000D02*
X15024650Y-6350000D01*
X15367000Y-6305000D02*
X15367000Y-6395000D01*
X15322000Y-6350000D02*
X15412000Y-6350000D01*
X15621000Y-6305000D02*
X15621000Y-6395000D01*
X15576000Y-6350000D02*
X15666000Y-6350000D01*
X16002000Y-6305000D02*
X16002000Y-6395000D01*
X15957000Y-6350000D02*
X16047000Y-6350000D01*
X16256000Y-6305000D02*
X16256000Y-6395000D01*
X16211000Y-6350000D02*
X16301000Y-6350000D01*
X16637000Y-6305000D02*
X16637000Y-6395000D01*
X16592000Y-6350000D02*
X16682000Y-6350000D01*
X16891000Y-6305000D02*
X16891000Y-6395000D01*
X16846000Y-6350000D02*
X16936000Y-6350000D01*
X17272000Y-6305000D02*
X17272000Y-6395000D01*
X17227000Y-6350000D02*
X17317000Y-6350000D01*
X17526000Y-6305000D02*
X17526000Y-6395000D01*
X17481000Y-6350000D02*
X17571000Y-6350000D01*
X17907000Y-6305000D02*
X17907000Y-6395000D01*
X17862000Y-6350000D02*
X17952000Y-6350000D01*
X18161000Y-6305000D02*
X18161000Y-6395000D01*
X18116000Y-6350000D02*
X18206000Y-6350000D01*
X18542000Y-6305000D02*
X18542000Y-6395000D01*
X18497000Y-6350000D02*
X18587000Y-6350000D01*
X18796000Y-6305000D02*
X18796000Y-6395000D01*
X18751000Y-6350000D02*
X18841000Y-6350000D01*
X19177000Y-6305000D02*
X19177000Y-6395000D01*
X19132000Y-6350000D02*
X19222000Y-6350000D01*
X19431000Y-6305000D02*
X19431000Y-6395000D01*
X19386000Y-6350000D02*
X19476000Y-6350000D01*
X20447000Y-6305000D02*
X20447000Y-6395000D01*
X20402000Y-6350000D02*
X20492000Y-6350000D01*
X20701000Y-6305000D02*
X20701000Y-6395000D01*
X20656000Y-6350000D02*
X20746000Y-6350000D01*
X21082000Y-6305000D02*
X21082000Y-6395000D01*
X21037000Y-6350000D02*
X21127000Y-6350000D01*
X21336000Y-6305000D02*
X21336000Y-6395000D01*
X21291000Y-6350000D02*
X21381000Y-6350000D01*
X21717000Y-6305000D02*
X21717000Y-6395000D01*
X21672000Y-6350000D02*
X21762000Y-6350000D01*
X21971000Y-6305000D02*
X21971000Y-6395000D01*
X21926000Y-6350000D02*
X22016000Y-6350000D01*
X22352000Y-6305000D02*
X22352000Y-6395000D01*
X22307000Y-6350000D02*
X22397000Y-6350000D01*
X22606000Y-6305000D02*
X22606000Y-6395000D01*
X22561000Y-6350000D02*
X22651000Y-6350000D01*
X22987000Y-6305000D02*
X22987000Y-6395000D01*
X22942000Y-6350000D02*
X23032000Y-6350000D01*
X23241000Y-6305000D02*
X23241000Y-6395000D01*
X23196000Y-6350000D02*
X23286000Y-6350000D01*
X23622000Y-6305000D02*
X23622000Y-6395000D01*
X23577000Y-6350000D02*
X23667000Y-6350000D01*
X23876000Y-6305000D02*
X23876000Y-6395000D01*
X23831000Y-6350000D02*
X23921000Y-6350000D01*
X24257000Y-6305000D02*
X24257000Y-6395000D01*
X24212000Y-6350000D02*
X24302000Y-6350000D01*
X24511000Y-6305000D02*
X24511000Y-6395000D01*
X24466000Y-6350000D02*
X24556000Y-6350000D01*
X24892000Y-6305000D02*
X24892000Y-6395000D01*
X24847000Y-6350000D02*
X24937000Y-6350000D01*
X25146000Y-6305000D02*
X25146000Y-6395000D01*
X25101000Y-6350000D02*
X25191000Y-6350000D01*
D15*
X6385356Y-14513356D02*
X6385356Y-14442644D01*
X6314644Y-14442644D01*
X6314644Y-14513356D01*
X6385356Y-14513356D01*
X6639356Y-14513356D02*
X6639356Y-14442644D01*
X6568644Y-14442644D01*
X6568644Y-14513356D01*
X6639356Y-14513356D01*
X6893356Y-14513356D02*
X6893356Y-14442644D01*
X6822644Y-14442644D01*
X6822644Y-14513356D01*
X6893356Y-14513356D01*
X7147356Y-14513356D02*
X7147356Y-14442644D01*
X7076644Y-14442644D01*
X7076644Y-14513356D01*
X7147356Y-14513356D01*
X7401356Y-14513356D02*
X7401356Y-14442644D01*
X7330644Y-14442644D01*
X7330644Y-14513356D01*
X7401356Y-14513356D01*
X7655356Y-14513356D02*
X7655356Y-14442644D01*
X7584644Y-14442644D01*
X7584644Y-14513356D01*
X7655356Y-14513356D01*
X7909356Y-14513356D02*
X7909356Y-14442644D01*
X7838644Y-14442644D01*
X7838644Y-14513356D01*
X7909356Y-14513356D01*
X8163356Y-14513356D02*
X8163356Y-14442644D01*
X8092644Y-14442644D01*
X8092644Y-14513356D01*
X8163356Y-14513356D01*
X8417356Y-14513356D02*
X8417356Y-14442644D01*
X8346644Y-14442644D01*
X8346644Y-14513356D01*
X8417356Y-14513356D01*
X8671356Y-14513356D02*
X8671356Y-14442644D01*
X8600644Y-14442644D01*
X8600644Y-14513356D01*
X8671356Y-14513356D01*
X9941356Y-14513356D02*
X9941356Y-14442644D01*
X9870644Y-14442644D01*
X9870644Y-14513356D01*
X9941356Y-14513356D01*
X10195356Y-14513356D02*
X10195356Y-14442644D01*
X10124644Y-14442644D01*
X10124644Y-14513356D01*
X10195356Y-14513356D01*
X10449356Y-14513356D02*
X10449356Y-14442644D01*
X10378644Y-14442644D01*
X10378644Y-14513356D01*
X10449356Y-14513356D01*
X10703356Y-14513356D02*
X10703356Y-14442644D01*
X10632644Y-14442644D01*
X10632644Y-14513356D01*
X10703356Y-14513356D01*
X10957356Y-14513356D02*
X10957356Y-14442644D01*
X10886644Y-14442644D01*
X10886644Y-14513356D01*
X10957356Y-14513356D01*
X11211356Y-14513356D02*
X11211356Y-14442644D01*
X11140644Y-14442644D01*
X11140644Y-14513356D01*
X11211356Y-14513356D01*
X11465356Y-14513356D02*
X11465356Y-14442644D01*
X11394644Y-14442644D01*
X11394644Y-14513356D01*
X11465356Y-14513356D01*
X11719356Y-14513356D02*
X11719356Y-14442644D01*
X11648644Y-14442644D01*
X11648644Y-14513356D01*
X11719356Y-14513356D01*
X11973356Y-14513356D02*
X11973356Y-14442644D01*
X11902644Y-14442644D01*
X11902644Y-14513356D01*
X11973356Y-14513356D01*
X12227356Y-14513356D02*
X12227356Y-14442644D01*
X12156644Y-14442644D01*
X12156644Y-14513356D01*
X12227356Y-14513356D01*
X12481356Y-14513356D02*
X12481356Y-14442644D01*
X12410644Y-14442644D01*
X12410644Y-14513356D01*
X12481356Y-14513356D01*
X12735356Y-14513356D02*
X12735356Y-14442644D01*
X12664644Y-14442644D01*
X12664644Y-14513356D01*
X12735356Y-14513356D01*
X12989356Y-14513356D02*
X12989356Y-14442644D01*
X12918644Y-14442644D01*
X12918644Y-14513356D01*
X12989356Y-14513356D01*
X13243356Y-14513356D02*
X13243356Y-14442644D01*
X13172644Y-14442644D01*
X13172644Y-14513356D01*
X13243356Y-14513356D01*
X13497356Y-14513356D02*
X13497356Y-14442644D01*
X13426644Y-14442644D01*
X13426644Y-14513356D01*
X13497356Y-14513356D01*
X13751356Y-14513356D02*
X13751356Y-14442644D01*
X13680644Y-14442644D01*
X13680644Y-14513356D01*
X13751356Y-14513356D01*
X16291356Y-14513356D02*
X16291356Y-14442644D01*
X16220644Y-14442644D01*
X16220644Y-14513356D01*
X16291356Y-14513356D01*
X16545356Y-14513356D02*
X16545356Y-14442644D01*
X16474644Y-14442644D01*
X16474644Y-14513356D01*
X16545356Y-14513356D01*
X16799356Y-14513356D02*
X16799356Y-14442644D01*
X16728644Y-14442644D01*
X16728644Y-14513356D01*
X16799356Y-14513356D01*
X17053356Y-14513356D02*
X17053356Y-14442644D01*
X16982644Y-14442644D01*
X16982644Y-14513356D01*
X17053356Y-14513356D01*
X17307356Y-14513356D02*
X17307356Y-14442644D01*
X17236644Y-14442644D01*
X17236644Y-14513356D01*
X17307356Y-14513356D01*
X17561356Y-14513356D02*
X17561356Y-14442644D01*
X17490644Y-14442644D01*
X17490644Y-14513356D01*
X17561356Y-14513356D01*
X17815356Y-14513356D02*
X17815356Y-14442644D01*
X17744644Y-14442644D01*
X17744644Y-14513356D01*
X17815356Y-14513356D01*
X18069356Y-14513356D02*
X18069356Y-14442644D01*
X17998644Y-14442644D01*
X17998644Y-14513356D01*
X18069356Y-14513356D01*
X18323356Y-14513356D02*
X18323356Y-14442644D01*
X18252644Y-14442644D01*
X18252644Y-14513356D01*
X18323356Y-14513356D01*
X18577356Y-14513356D02*
X18577356Y-14442644D01*
X18506644Y-14442644D01*
X18506644Y-14513356D01*
X18577356Y-14513356D01*
X18831356Y-14513356D02*
X18831356Y-14442644D01*
X18760644Y-14442644D01*
X18760644Y-14513356D01*
X18831356Y-14513356D01*
X19085356Y-14513356D02*
X19085356Y-14442644D01*
X19014644Y-14442644D01*
X19014644Y-14513356D01*
X19085356Y-14513356D01*
X19339356Y-14513356D02*
X19339356Y-14442644D01*
X19268644Y-14442644D01*
X19268644Y-14513356D01*
X19339356Y-14513356D01*
X19593356Y-14513356D02*
X19593356Y-14442644D01*
X19522644Y-14442644D01*
X19522644Y-14513356D01*
X19593356Y-14513356D01*
X19847356Y-14513356D02*
X19847356Y-14442644D01*
X19776644Y-14442644D01*
X19776644Y-14513356D01*
X19847356Y-14513356D01*
X20101356Y-14513356D02*
X20101356Y-14442644D01*
X20030644Y-14442644D01*
X20030644Y-14513356D01*
X20101356Y-14513356D01*
X20355356Y-14513356D02*
X20355356Y-14442644D01*
X20284644Y-14442644D01*
X20284644Y-14513356D01*
X20355356Y-14513356D01*
X20609356Y-14513356D02*
X20609356Y-14442644D01*
X20538644Y-14442644D01*
X20538644Y-14513356D01*
X20609356Y-14513356D01*
X20863356Y-14513356D02*
X20863356Y-14442644D01*
X20792644Y-14442644D01*
X20792644Y-14513356D01*
X20863356Y-14513356D01*
X21117356Y-14513356D02*
X21117356Y-14442644D01*
X21046644Y-14442644D01*
X21046644Y-14513356D01*
X21117356Y-14513356D01*
X21371356Y-14513356D02*
X21371356Y-14442644D01*
X21300644Y-14442644D01*
X21300644Y-14513356D01*
X21371356Y-14513356D01*
X21625356Y-14513356D02*
X21625356Y-14442644D01*
X21554644Y-14442644D01*
X21554644Y-14513356D01*
X21625356Y-14513356D01*
X21879356Y-14513356D02*
X21879356Y-14442644D01*
X21808644Y-14442644D01*
X21808644Y-14513356D01*
X21879356Y-14513356D01*
X22133356Y-14513356D02*
X22133356Y-14442644D01*
X22062644Y-14442644D01*
X22062644Y-14513356D01*
X22133356Y-14513356D01*
X22387356Y-14513356D02*
X22387356Y-14442644D01*
X22316644Y-14442644D01*
X22316644Y-14513356D01*
X22387356Y-14513356D01*
X22641356Y-14513356D02*
X22641356Y-14442644D01*
X22570644Y-14442644D01*
X22570644Y-14513356D01*
X22641356Y-14513356D01*
X22895356Y-14513356D02*
X22895356Y-14442644D01*
X22824644Y-14442644D01*
X22824644Y-14513356D01*
X22895356Y-14513356D01*
X23149356Y-14513356D02*
X23149356Y-14442644D01*
X23078644Y-14442644D01*
X23078644Y-14513356D01*
X23149356Y-14513356D01*
X23403356Y-14513356D02*
X23403356Y-14442644D01*
X23332644Y-14442644D01*
X23332644Y-14513356D01*
X23403356Y-14513356D01*
X23657356Y-14513356D02*
X23657356Y-14442644D01*
X23586644Y-14442644D01*
X23586644Y-14513356D01*
X23657356Y-14513356D01*
X23911356Y-14513356D02*
X23911356Y-14442644D01*
X23840644Y-14442644D01*
X23840644Y-14513356D01*
X23911356Y-14513356D01*
X24165356Y-7909356D02*
X24165356Y-7838644D01*
X24094644Y-7838644D01*
X24094644Y-7909356D01*
X24165356Y-7909356D01*
X24165356Y-8163356D02*
X24165356Y-8092644D01*
X24094644Y-8092644D01*
X24094644Y-8163356D01*
X24165356Y-8163356D01*
X24165356Y-8417356D02*
X24165356Y-8346644D01*
X24094644Y-8346644D01*
X24094644Y-8417356D01*
X24165356Y-8417356D01*
X24165356Y-9179356D02*
X24165356Y-9108644D01*
X24094644Y-9108644D01*
X24094644Y-9179356D01*
X24165356Y-9179356D01*
X24165356Y-9433356D02*
X24165356Y-9362644D01*
X24094644Y-9362644D01*
X24094644Y-9433356D01*
X24165356Y-9433356D01*
X24165356Y-9687356D02*
X24165356Y-9616644D01*
X24094644Y-9616644D01*
X24094644Y-9687356D01*
X24165356Y-9687356D01*
X24165356Y-14513356D02*
X24165356Y-14442644D01*
X24094644Y-14442644D01*
X24094644Y-14513356D01*
X24165356Y-14513356D01*
X24927356Y-7502956D02*
X24927356Y-7432244D01*
X24856644Y-7432244D01*
X24856644Y-7502956D01*
X24927356Y-7502956D01*
X24927356Y-10931956D02*
X24927356Y-10861244D01*
X24856644Y-10861244D01*
X24856644Y-10931956D01*
X24927356Y-10931956D01*
X24927356Y-11185956D02*
X24927356Y-11115244D01*
X24856644Y-11115244D01*
X24856644Y-11185956D01*
X24927356Y-11185956D01*
X25181356Y-7502956D02*
X25181356Y-7432244D01*
X25110644Y-7432244D01*
X25110644Y-7502956D01*
X25181356Y-7502956D01*
D11*
X5325119Y-15154976D02*
X5325119Y-14954976D01*
X5325119Y-14954976D02*
X5372738Y-14954976D01*
X5372738Y-14954976D02*
X5401310Y-14964500D01*
X5401310Y-14964500D02*
X5420357Y-14983548D01*
X5420357Y-14983548D02*
X5429881Y-15002595D01*
X5429881Y-15002595D02*
X5439405Y-15040690D01*
X5439405Y-15040690D02*
X5439405Y-15069262D01*
X5439405Y-15069262D02*
X5429881Y-15107357D01*
X5429881Y-15107357D02*
X5420357Y-15126405D01*
X5420357Y-15126405D02*
X5401310Y-15145452D01*
X5401310Y-15145452D02*
X5372738Y-15154976D01*
X5372738Y-15154976D02*
X5325119Y-15154976D01*
X5525119Y-15154976D02*
X5525119Y-15021643D01*
X5525119Y-15059738D02*
X5534643Y-15040690D01*
X5534643Y-15040690D02*
X5544167Y-15031167D01*
X5544167Y-15031167D02*
X5563214Y-15021643D01*
X5563214Y-15021643D02*
X5582262Y-15021643D01*
X5648928Y-15154976D02*
X5648928Y-15021643D01*
X5648928Y-14954976D02*
X5639405Y-14964500D01*
X5639405Y-14964500D02*
X5648928Y-14974024D01*
X5648928Y-14974024D02*
X5658452Y-14964500D01*
X5658452Y-14964500D02*
X5648928Y-14954976D01*
X5648928Y-14954976D02*
X5648928Y-14974024D01*
X5772738Y-15154976D02*
X5753690Y-15145452D01*
X5753690Y-15145452D02*
X5744167Y-15126405D01*
X5744167Y-15126405D02*
X5744167Y-14954976D01*
X5877500Y-15154976D02*
X5858452Y-15145452D01*
X5858452Y-15145452D02*
X5848928Y-15126405D01*
X5848928Y-15126405D02*
X5848928Y-14954976D01*
X6073690Y-15154976D02*
X6073690Y-14954976D01*
X6073690Y-14954976D02*
X6140357Y-15097833D01*
X6140357Y-15097833D02*
X6207024Y-14954976D01*
X6207024Y-14954976D02*
X6207024Y-15154976D01*
X6387976Y-15154976D02*
X6387976Y-15050214D01*
X6387976Y-15050214D02*
X6378452Y-15031167D01*
X6378452Y-15031167D02*
X6359405Y-15021643D01*
X6359405Y-15021643D02*
X6321309Y-15021643D01*
X6321309Y-15021643D02*
X6302262Y-15031167D01*
X6387976Y-15145452D02*
X6368928Y-15154976D01*
X6368928Y-15154976D02*
X6321309Y-15154976D01*
X6321309Y-15154976D02*
X6302262Y-15145452D01*
X6302262Y-15145452D02*
X6292738Y-15126405D01*
X6292738Y-15126405D02*
X6292738Y-15107357D01*
X6292738Y-15107357D02*
X6302262Y-15088309D01*
X6302262Y-15088309D02*
X6321309Y-15078786D01*
X6321309Y-15078786D02*
X6368928Y-15078786D01*
X6368928Y-15078786D02*
X6387976Y-15069262D01*
X6483214Y-15021643D02*
X6483214Y-15221643D01*
X6483214Y-15031167D02*
X6502262Y-15021643D01*
X6502262Y-15021643D02*
X6540357Y-15021643D01*
X6540357Y-15021643D02*
X6559405Y-15031167D01*
X6559405Y-15031167D02*
X6568928Y-15040690D01*
X6568928Y-15040690D02*
X6578452Y-15059738D01*
X6578452Y-15059738D02*
X6578452Y-15116881D01*
X6578452Y-15116881D02*
X6568928Y-15135928D01*
X6568928Y-15135928D02*
X6559405Y-15145452D01*
X6559405Y-15145452D02*
X6540357Y-15154976D01*
X6540357Y-15154976D02*
X6502262Y-15154976D01*
X6502262Y-15154976D02*
X6483214Y-15145452D01*
X6664167Y-15135928D02*
X6673690Y-15145452D01*
X6673690Y-15145452D02*
X6664167Y-15154976D01*
X6664167Y-15154976D02*
X6654643Y-15145452D01*
X6654643Y-15145452D02*
X6664167Y-15135928D01*
X6664167Y-15135928D02*
X6664167Y-15154976D01*
X6664167Y-15031167D02*
X6673690Y-15040690D01*
X6673690Y-15040690D02*
X6664167Y-15050214D01*
X6664167Y-15050214D02*
X6654643Y-15040690D01*
X6654643Y-15040690D02*
X6664167Y-15031167D01*
X6664167Y-15031167D02*
X6664167Y-15050214D01*
D12*
X5039400Y-15482450D02*
X5077500Y-15520550D01*
X5077500Y-15482450D02*
X5039400Y-15520550D01*
D11*
X5363214Y-15374976D02*
X5382262Y-15374976D01*
X5382262Y-15374976D02*
X5401310Y-15384500D01*
X5401310Y-15384500D02*
X5410833Y-15394024D01*
X5410833Y-15394024D02*
X5420357Y-15413071D01*
X5420357Y-15413071D02*
X5429881Y-15451167D01*
X5429881Y-15451167D02*
X5429881Y-15498786D01*
X5429881Y-15498786D02*
X5420357Y-15536881D01*
X5420357Y-15536881D02*
X5410833Y-15555928D01*
X5410833Y-15555928D02*
X5401310Y-15565452D01*
X5401310Y-15565452D02*
X5382262Y-15574976D01*
X5382262Y-15574976D02*
X5363214Y-15574976D01*
X5363214Y-15574976D02*
X5344167Y-15565452D01*
X5344167Y-15565452D02*
X5334643Y-15555928D01*
X5334643Y-15555928D02*
X5325119Y-15536881D01*
X5325119Y-15536881D02*
X5315595Y-15498786D01*
X5315595Y-15498786D02*
X5315595Y-15451167D01*
X5315595Y-15451167D02*
X5325119Y-15413071D01*
X5325119Y-15413071D02*
X5334643Y-15394024D01*
X5334643Y-15394024D02*
X5344167Y-15384500D01*
X5344167Y-15384500D02*
X5363214Y-15374976D01*
X5515595Y-15555928D02*
X5525119Y-15565452D01*
X5525119Y-15565452D02*
X5515595Y-15574976D01*
X5515595Y-15574976D02*
X5506071Y-15565452D01*
X5506071Y-15565452D02*
X5515595Y-15555928D01*
X5515595Y-15555928D02*
X5515595Y-15574976D01*
X5591786Y-15374976D02*
X5715595Y-15374976D01*
X5715595Y-15374976D02*
X5648928Y-15451167D01*
X5648928Y-15451167D02*
X5677500Y-15451167D01*
X5677500Y-15451167D02*
X5696548Y-15460690D01*
X5696548Y-15460690D02*
X5706071Y-15470214D01*
X5706071Y-15470214D02*
X5715595Y-15489262D01*
X5715595Y-15489262D02*
X5715595Y-15536881D01*
X5715595Y-15536881D02*
X5706071Y-15555928D01*
X5706071Y-15555928D02*
X5696548Y-15565452D01*
X5696548Y-15565452D02*
X5677500Y-15574976D01*
X5677500Y-15574976D02*
X5620357Y-15574976D01*
X5620357Y-15574976D02*
X5601309Y-15565452D01*
X5601309Y-15565452D02*
X5591786Y-15555928D01*
X5829881Y-15460690D02*
X5810833Y-15451167D01*
X5810833Y-15451167D02*
X5801309Y-15441643D01*
X5801309Y-15441643D02*
X5791786Y-15422595D01*
X5791786Y-15422595D02*
X5791786Y-15413071D01*
X5791786Y-15413071D02*
X5801309Y-15394024D01*
X5801309Y-15394024D02*
X5810833Y-15384500D01*
X5810833Y-15384500D02*
X5829881Y-15374976D01*
X5829881Y-15374976D02*
X5867976Y-15374976D01*
X5867976Y-15374976D02*
X5887024Y-15384500D01*
X5887024Y-15384500D02*
X5896548Y-15394024D01*
X5896548Y-15394024D02*
X5906071Y-15413071D01*
X5906071Y-15413071D02*
X5906071Y-15422595D01*
X5906071Y-15422595D02*
X5896548Y-15441643D01*
X5896548Y-15441643D02*
X5887024Y-15451167D01*
X5887024Y-15451167D02*
X5867976Y-15460690D01*
X5867976Y-15460690D02*
X5829881Y-15460690D01*
X5829881Y-15460690D02*
X5810833Y-15470214D01*
X5810833Y-15470214D02*
X5801309Y-15479738D01*
X5801309Y-15479738D02*
X5791786Y-15498786D01*
X5791786Y-15498786D02*
X5791786Y-15536881D01*
X5791786Y-15536881D02*
X5801309Y-15555928D01*
X5801309Y-15555928D02*
X5810833Y-15565452D01*
X5810833Y-15565452D02*
X5829881Y-15574976D01*
X5829881Y-15574976D02*
X5867976Y-15574976D01*
X5867976Y-15574976D02*
X5887024Y-15565452D01*
X5887024Y-15565452D02*
X5896548Y-15555928D01*
X5896548Y-15555928D02*
X5906071Y-15536881D01*
X5906071Y-15536881D02*
X5906071Y-15498786D01*
X5906071Y-15498786D02*
X5896548Y-15479738D01*
X5896548Y-15479738D02*
X5887024Y-15470214D01*
X5887024Y-15470214D02*
X5867976Y-15460690D01*
X6096548Y-15574976D02*
X5982262Y-15574976D01*
X6039405Y-15574976D02*
X6039405Y-15374976D01*
X6039405Y-15374976D02*
X6020357Y-15403548D01*
X6020357Y-15403548D02*
X6001309Y-15422595D01*
X6001309Y-15422595D02*
X5982262Y-15432119D01*
X6182262Y-15574976D02*
X6182262Y-15441643D01*
X6182262Y-15460690D02*
X6191786Y-15451167D01*
X6191786Y-15451167D02*
X6210833Y-15441643D01*
X6210833Y-15441643D02*
X6239405Y-15441643D01*
X6239405Y-15441643D02*
X6258452Y-15451167D01*
X6258452Y-15451167D02*
X6267976Y-15470214D01*
X6267976Y-15470214D02*
X6267976Y-15574976D01*
X6267976Y-15470214D02*
X6277500Y-15451167D01*
X6277500Y-15451167D02*
X6296548Y-15441643D01*
X6296548Y-15441643D02*
X6325119Y-15441643D01*
X6325119Y-15441643D02*
X6344167Y-15451167D01*
X6344167Y-15451167D02*
X6353690Y-15470214D01*
X6353690Y-15470214D02*
X6353690Y-15574976D01*
X6448929Y-15574976D02*
X6448929Y-15441643D01*
X6448929Y-15460690D02*
X6458452Y-15451167D01*
X6458452Y-15451167D02*
X6477500Y-15441643D01*
X6477500Y-15441643D02*
X6506071Y-15441643D01*
X6506071Y-15441643D02*
X6525119Y-15451167D01*
X6525119Y-15451167D02*
X6534643Y-15470214D01*
X6534643Y-15470214D02*
X6534643Y-15574976D01*
X6534643Y-15470214D02*
X6544167Y-15451167D01*
X6544167Y-15451167D02*
X6563214Y-15441643D01*
X6563214Y-15441643D02*
X6591786Y-15441643D01*
X6591786Y-15441643D02*
X6610833Y-15451167D01*
X6610833Y-15451167D02*
X6620357Y-15470214D01*
X6620357Y-15470214D02*
X6620357Y-15574976D01*
X6978452Y-15365452D02*
X6807024Y-15622595D01*
X7203214Y-15374976D02*
X7222262Y-15374976D01*
X7222262Y-15374976D02*
X7241310Y-15384500D01*
X7241310Y-15384500D02*
X7250833Y-15394024D01*
X7250833Y-15394024D02*
X7260357Y-15413071D01*
X7260357Y-15413071D02*
X7269881Y-15451167D01*
X7269881Y-15451167D02*
X7269881Y-15498786D01*
X7269881Y-15498786D02*
X7260357Y-15536881D01*
X7260357Y-15536881D02*
X7250833Y-15555928D01*
X7250833Y-15555928D02*
X7241310Y-15565452D01*
X7241310Y-15565452D02*
X7222262Y-15574976D01*
X7222262Y-15574976D02*
X7203214Y-15574976D01*
X7203214Y-15574976D02*
X7184167Y-15565452D01*
X7184167Y-15565452D02*
X7174643Y-15555928D01*
X7174643Y-15555928D02*
X7165119Y-15536881D01*
X7165119Y-15536881D02*
X7155595Y-15498786D01*
X7155595Y-15498786D02*
X7155595Y-15451167D01*
X7155595Y-15451167D02*
X7165119Y-15413071D01*
X7165119Y-15413071D02*
X7174643Y-15394024D01*
X7174643Y-15394024D02*
X7184167Y-15384500D01*
X7184167Y-15384500D02*
X7203214Y-15374976D01*
X7355595Y-15555928D02*
X7365119Y-15565452D01*
X7365119Y-15565452D02*
X7355595Y-15574976D01*
X7355595Y-15574976D02*
X7346071Y-15565452D01*
X7346071Y-15565452D02*
X7355595Y-15555928D01*
X7355595Y-15555928D02*
X7355595Y-15574976D01*
X7488929Y-15374976D02*
X7507976Y-15374976D01*
X7507976Y-15374976D02*
X7527024Y-15384500D01*
X7527024Y-15384500D02*
X7536548Y-15394024D01*
X7536548Y-15394024D02*
X7546071Y-15413071D01*
X7546071Y-15413071D02*
X7555595Y-15451167D01*
X7555595Y-15451167D02*
X7555595Y-15498786D01*
X7555595Y-15498786D02*
X7546071Y-15536881D01*
X7546071Y-15536881D02*
X7536548Y-15555928D01*
X7536548Y-15555928D02*
X7527024Y-15565452D01*
X7527024Y-15565452D02*
X7507976Y-15574976D01*
X7507976Y-15574976D02*
X7488929Y-15574976D01*
X7488929Y-15574976D02*
X7469881Y-15565452D01*
X7469881Y-15565452D02*
X7460357Y-15555928D01*
X7460357Y-15555928D02*
X7450833Y-15536881D01*
X7450833Y-15536881D02*
X7441310Y-15498786D01*
X7441310Y-15498786D02*
X7441310Y-15451167D01*
X7441310Y-15451167D02*
X7450833Y-15413071D01*
X7450833Y-15413071D02*
X7460357Y-15394024D01*
X7460357Y-15394024D02*
X7469881Y-15384500D01*
X7469881Y-15384500D02*
X7488929Y-15374976D01*
X7746071Y-15574976D02*
X7631786Y-15574976D01*
X7688929Y-15574976D02*
X7688929Y-15374976D01*
X7688929Y-15374976D02*
X7669881Y-15403548D01*
X7669881Y-15403548D02*
X7650833Y-15422595D01*
X7650833Y-15422595D02*
X7631786Y-15432119D01*
X7927024Y-15374976D02*
X7831786Y-15374976D01*
X7831786Y-15374976D02*
X7822262Y-15470214D01*
X7822262Y-15470214D02*
X7831786Y-15460690D01*
X7831786Y-15460690D02*
X7850833Y-15451167D01*
X7850833Y-15451167D02*
X7898452Y-15451167D01*
X7898452Y-15451167D02*
X7917500Y-15460690D01*
X7917500Y-15460690D02*
X7927024Y-15470214D01*
X7927024Y-15470214D02*
X7936548Y-15489262D01*
X7936548Y-15489262D02*
X7936548Y-15536881D01*
X7936548Y-15536881D02*
X7927024Y-15555928D01*
X7927024Y-15555928D02*
X7917500Y-15565452D01*
X7917500Y-15565452D02*
X7898452Y-15574976D01*
X7898452Y-15574976D02*
X7850833Y-15574976D01*
X7850833Y-15574976D02*
X7831786Y-15565452D01*
X7831786Y-15565452D02*
X7822262Y-15555928D01*
X8060357Y-15374976D02*
X8079405Y-15374976D01*
X8079405Y-15374976D02*
X8098452Y-15384500D01*
X8098452Y-15384500D02*
X8107976Y-15394024D01*
X8107976Y-15394024D02*
X8117500Y-15413071D01*
X8117500Y-15413071D02*
X8127024Y-15451167D01*
X8127024Y-15451167D02*
X8127024Y-15498786D01*
X8127024Y-15498786D02*
X8117500Y-15536881D01*
X8117500Y-15536881D02*
X8107976Y-15555928D01*
X8107976Y-15555928D02*
X8098452Y-15565452D01*
X8098452Y-15565452D02*
X8079405Y-15574976D01*
X8079405Y-15574976D02*
X8060357Y-15574976D01*
X8060357Y-15574976D02*
X8041310Y-15565452D01*
X8041310Y-15565452D02*
X8031786Y-15555928D01*
X8031786Y-15555928D02*
X8022262Y-15536881D01*
X8022262Y-15536881D02*
X8012738Y-15498786D01*
X8012738Y-15498786D02*
X8012738Y-15451167D01*
X8012738Y-15451167D02*
X8022262Y-15413071D01*
X8022262Y-15413071D02*
X8031786Y-15394024D01*
X8031786Y-15394024D02*
X8041310Y-15384500D01*
X8041310Y-15384500D02*
X8060357Y-15374976D01*
X8203214Y-15374976D02*
X8203214Y-15413071D01*
X8279405Y-15374976D02*
X8279405Y-15413071D01*
X8542262Y-15651167D02*
X8532738Y-15641643D01*
X8532738Y-15641643D02*
X8513691Y-15613071D01*
X8513691Y-15613071D02*
X8504167Y-15594024D01*
X8504167Y-15594024D02*
X8494643Y-15565452D01*
X8494643Y-15565452D02*
X8485119Y-15517833D01*
X8485119Y-15517833D02*
X8485119Y-15479738D01*
X8485119Y-15479738D02*
X8494643Y-15432119D01*
X8494643Y-15432119D02*
X8504167Y-15403548D01*
X8504167Y-15403548D02*
X8513691Y-15384500D01*
X8513691Y-15384500D02*
X8532738Y-15355928D01*
X8532738Y-15355928D02*
X8542262Y-15346405D01*
X8723214Y-15574976D02*
X8608929Y-15574976D01*
X8666072Y-15574976D02*
X8666072Y-15374976D01*
X8666072Y-15374976D02*
X8647024Y-15403548D01*
X8647024Y-15403548D02*
X8627976Y-15422595D01*
X8627976Y-15422595D02*
X8608929Y-15432119D01*
X8818453Y-15574976D02*
X8856548Y-15574976D01*
X8856548Y-15574976D02*
X8875595Y-15565452D01*
X8875595Y-15565452D02*
X8885119Y-15555928D01*
X8885119Y-15555928D02*
X8904167Y-15527357D01*
X8904167Y-15527357D02*
X8913691Y-15489262D01*
X8913691Y-15489262D02*
X8913691Y-15413071D01*
X8913691Y-15413071D02*
X8904167Y-15394024D01*
X8904167Y-15394024D02*
X8894643Y-15384500D01*
X8894643Y-15384500D02*
X8875595Y-15374976D01*
X8875595Y-15374976D02*
X8837500Y-15374976D01*
X8837500Y-15374976D02*
X8818453Y-15384500D01*
X8818453Y-15384500D02*
X8808929Y-15394024D01*
X8808929Y-15394024D02*
X8799405Y-15413071D01*
X8799405Y-15413071D02*
X8799405Y-15460690D01*
X8799405Y-15460690D02*
X8808929Y-15479738D01*
X8808929Y-15479738D02*
X8818453Y-15489262D01*
X8818453Y-15489262D02*
X8837500Y-15498786D01*
X8837500Y-15498786D02*
X8875595Y-15498786D01*
X8875595Y-15498786D02*
X8894643Y-15489262D01*
X8894643Y-15489262D02*
X8904167Y-15479738D01*
X8904167Y-15479738D02*
X8913691Y-15460690D01*
X8989881Y-15394024D02*
X8999405Y-15384500D01*
X8999405Y-15384500D02*
X9018453Y-15374976D01*
X9018453Y-15374976D02*
X9066072Y-15374976D01*
X9066072Y-15374976D02*
X9085119Y-15384500D01*
X9085119Y-15384500D02*
X9094643Y-15394024D01*
X9094643Y-15394024D02*
X9104167Y-15413071D01*
X9104167Y-15413071D02*
X9104167Y-15432119D01*
X9104167Y-15432119D02*
X9094643Y-15460690D01*
X9094643Y-15460690D02*
X8980357Y-15574976D01*
X8980357Y-15574976D02*
X9104167Y-15574976D01*
X9309881Y-15574976D02*
X9309881Y-15374976D01*
X9395595Y-15574976D02*
X9395595Y-15470214D01*
X9395595Y-15470214D02*
X9386072Y-15451167D01*
X9386072Y-15451167D02*
X9367024Y-15441643D01*
X9367024Y-15441643D02*
X9338453Y-15441643D01*
X9338453Y-15441643D02*
X9319405Y-15451167D01*
X9319405Y-15451167D02*
X9309881Y-15460690D01*
X9519405Y-15574976D02*
X9500357Y-15565452D01*
X9500357Y-15565452D02*
X9490834Y-15555928D01*
X9490834Y-15555928D02*
X9481310Y-15536881D01*
X9481310Y-15536881D02*
X9481310Y-15479738D01*
X9481310Y-15479738D02*
X9490834Y-15460690D01*
X9490834Y-15460690D02*
X9500357Y-15451167D01*
X9500357Y-15451167D02*
X9519405Y-15441643D01*
X9519405Y-15441643D02*
X9547976Y-15441643D01*
X9547976Y-15441643D02*
X9567024Y-15451167D01*
X9567024Y-15451167D02*
X9576548Y-15460690D01*
X9576548Y-15460690D02*
X9586072Y-15479738D01*
X9586072Y-15479738D02*
X9586072Y-15536881D01*
X9586072Y-15536881D02*
X9576548Y-15555928D01*
X9576548Y-15555928D02*
X9567024Y-15565452D01*
X9567024Y-15565452D02*
X9547976Y-15574976D01*
X9547976Y-15574976D02*
X9519405Y-15574976D01*
X9700357Y-15574976D02*
X9681310Y-15565452D01*
X9681310Y-15565452D02*
X9671786Y-15546405D01*
X9671786Y-15546405D02*
X9671786Y-15374976D01*
X9852738Y-15565452D02*
X9833691Y-15574976D01*
X9833691Y-15574976D02*
X9795595Y-15574976D01*
X9795595Y-15574976D02*
X9776548Y-15565452D01*
X9776548Y-15565452D02*
X9767024Y-15546405D01*
X9767024Y-15546405D02*
X9767024Y-15470214D01*
X9767024Y-15470214D02*
X9776548Y-15451167D01*
X9776548Y-15451167D02*
X9795595Y-15441643D01*
X9795595Y-15441643D02*
X9833691Y-15441643D01*
X9833691Y-15441643D02*
X9852738Y-15451167D01*
X9852738Y-15451167D02*
X9862262Y-15470214D01*
X9862262Y-15470214D02*
X9862262Y-15489262D01*
X9862262Y-15489262D02*
X9767024Y-15508309D01*
X9938453Y-15565452D02*
X9957500Y-15574976D01*
X9957500Y-15574976D02*
X9995595Y-15574976D01*
X9995595Y-15574976D02*
X10014643Y-15565452D01*
X10014643Y-15565452D02*
X10024167Y-15546405D01*
X10024167Y-15546405D02*
X10024167Y-15536881D01*
X10024167Y-15536881D02*
X10014643Y-15517833D01*
X10014643Y-15517833D02*
X9995595Y-15508309D01*
X9995595Y-15508309D02*
X9967024Y-15508309D01*
X9967024Y-15508309D02*
X9947976Y-15498786D01*
X9947976Y-15498786D02*
X9938453Y-15479738D01*
X9938453Y-15479738D02*
X9938453Y-15470214D01*
X9938453Y-15470214D02*
X9947976Y-15451167D01*
X9947976Y-15451167D02*
X9967024Y-15441643D01*
X9967024Y-15441643D02*
X9995595Y-15441643D01*
X9995595Y-15441643D02*
X10014643Y-15451167D01*
X10090834Y-15651167D02*
X10100357Y-15641643D01*
X10100357Y-15641643D02*
X10119405Y-15613071D01*
X10119405Y-15613071D02*
X10128929Y-15594024D01*
X10128929Y-15594024D02*
X10138453Y-15565452D01*
X10138453Y-15565452D02*
X10147976Y-15517833D01*
X10147976Y-15517833D02*
X10147976Y-15479738D01*
X10147976Y-15479738D02*
X10138453Y-15432119D01*
X10138453Y-15432119D02*
X10128929Y-15403548D01*
X10128929Y-15403548D02*
X10119405Y-15384500D01*
X10119405Y-15384500D02*
X10100357Y-15355928D01*
X10100357Y-15355928D02*
X10090834Y-15346405D01*
D13*
X5077500Y-15765500D02*
G75*
G03*
X5077500Y-15765500I-40000J0D01*
G01*
D11*
X5363214Y-15638976D02*
X5382262Y-15638976D01*
X5382262Y-15638976D02*
X5401310Y-15648500D01*
X5401310Y-15648500D02*
X5410833Y-15658024D01*
X5410833Y-15658024D02*
X5420357Y-15677071D01*
X5420357Y-15677071D02*
X5429881Y-15715167D01*
X5429881Y-15715167D02*
X5429881Y-15762786D01*
X5429881Y-15762786D02*
X5420357Y-15800881D01*
X5420357Y-15800881D02*
X5410833Y-15819928D01*
X5410833Y-15819928D02*
X5401310Y-15829452D01*
X5401310Y-15829452D02*
X5382262Y-15838976D01*
X5382262Y-15838976D02*
X5363214Y-15838976D01*
X5363214Y-15838976D02*
X5344167Y-15829452D01*
X5344167Y-15829452D02*
X5334643Y-15819928D01*
X5334643Y-15819928D02*
X5325119Y-15800881D01*
X5325119Y-15800881D02*
X5315595Y-15762786D01*
X5315595Y-15762786D02*
X5315595Y-15715167D01*
X5315595Y-15715167D02*
X5325119Y-15677071D01*
X5325119Y-15677071D02*
X5334643Y-15658024D01*
X5334643Y-15658024D02*
X5344167Y-15648500D01*
X5344167Y-15648500D02*
X5363214Y-15638976D01*
X5515595Y-15819928D02*
X5525119Y-15829452D01*
X5525119Y-15829452D02*
X5515595Y-15838976D01*
X5515595Y-15838976D02*
X5506071Y-15829452D01*
X5506071Y-15829452D02*
X5515595Y-15819928D01*
X5515595Y-15819928D02*
X5515595Y-15838976D01*
X5639405Y-15724690D02*
X5620357Y-15715167D01*
X5620357Y-15715167D02*
X5610833Y-15705643D01*
X5610833Y-15705643D02*
X5601309Y-15686595D01*
X5601309Y-15686595D02*
X5601309Y-15677071D01*
X5601309Y-15677071D02*
X5610833Y-15658024D01*
X5610833Y-15658024D02*
X5620357Y-15648500D01*
X5620357Y-15648500D02*
X5639405Y-15638976D01*
X5639405Y-15638976D02*
X5677500Y-15638976D01*
X5677500Y-15638976D02*
X5696548Y-15648500D01*
X5696548Y-15648500D02*
X5706071Y-15658024D01*
X5706071Y-15658024D02*
X5715595Y-15677071D01*
X5715595Y-15677071D02*
X5715595Y-15686595D01*
X5715595Y-15686595D02*
X5706071Y-15705643D01*
X5706071Y-15705643D02*
X5696548Y-15715167D01*
X5696548Y-15715167D02*
X5677500Y-15724690D01*
X5677500Y-15724690D02*
X5639405Y-15724690D01*
X5639405Y-15724690D02*
X5620357Y-15734214D01*
X5620357Y-15734214D02*
X5610833Y-15743738D01*
X5610833Y-15743738D02*
X5601309Y-15762786D01*
X5601309Y-15762786D02*
X5601309Y-15800881D01*
X5601309Y-15800881D02*
X5610833Y-15819928D01*
X5610833Y-15819928D02*
X5620357Y-15829452D01*
X5620357Y-15829452D02*
X5639405Y-15838976D01*
X5639405Y-15838976D02*
X5677500Y-15838976D01*
X5677500Y-15838976D02*
X5696548Y-15829452D01*
X5696548Y-15829452D02*
X5706071Y-15819928D01*
X5706071Y-15819928D02*
X5715595Y-15800881D01*
X5715595Y-15800881D02*
X5715595Y-15762786D01*
X5715595Y-15762786D02*
X5706071Y-15743738D01*
X5706071Y-15743738D02*
X5696548Y-15734214D01*
X5696548Y-15734214D02*
X5677500Y-15724690D01*
X5839405Y-15638976D02*
X5858452Y-15638976D01*
X5858452Y-15638976D02*
X5877500Y-15648500D01*
X5877500Y-15648500D02*
X5887024Y-15658024D01*
X5887024Y-15658024D02*
X5896548Y-15677071D01*
X5896548Y-15677071D02*
X5906071Y-15715167D01*
X5906071Y-15715167D02*
X5906071Y-15762786D01*
X5906071Y-15762786D02*
X5896548Y-15800881D01*
X5896548Y-15800881D02*
X5887024Y-15819928D01*
X5887024Y-15819928D02*
X5877500Y-15829452D01*
X5877500Y-15829452D02*
X5858452Y-15838976D01*
X5858452Y-15838976D02*
X5839405Y-15838976D01*
X5839405Y-15838976D02*
X5820357Y-15829452D01*
X5820357Y-15829452D02*
X5810833Y-15819928D01*
X5810833Y-15819928D02*
X5801309Y-15800881D01*
X5801309Y-15800881D02*
X5791786Y-15762786D01*
X5791786Y-15762786D02*
X5791786Y-15715167D01*
X5791786Y-15715167D02*
X5801309Y-15677071D01*
X5801309Y-15677071D02*
X5810833Y-15658024D01*
X5810833Y-15658024D02*
X5820357Y-15648500D01*
X5820357Y-15648500D02*
X5839405Y-15638976D01*
X6029881Y-15638976D02*
X6048929Y-15638976D01*
X6048929Y-15638976D02*
X6067976Y-15648500D01*
X6067976Y-15648500D02*
X6077500Y-15658024D01*
X6077500Y-15658024D02*
X6087024Y-15677071D01*
X6087024Y-15677071D02*
X6096548Y-15715167D01*
X6096548Y-15715167D02*
X6096548Y-15762786D01*
X6096548Y-15762786D02*
X6087024Y-15800881D01*
X6087024Y-15800881D02*
X6077500Y-15819928D01*
X6077500Y-15819928D02*
X6067976Y-15829452D01*
X6067976Y-15829452D02*
X6048929Y-15838976D01*
X6048929Y-15838976D02*
X6029881Y-15838976D01*
X6029881Y-15838976D02*
X6010833Y-15829452D01*
X6010833Y-15829452D02*
X6001309Y-15819928D01*
X6001309Y-15819928D02*
X5991786Y-15800881D01*
X5991786Y-15800881D02*
X5982262Y-15762786D01*
X5982262Y-15762786D02*
X5982262Y-15715167D01*
X5982262Y-15715167D02*
X5991786Y-15677071D01*
X5991786Y-15677071D02*
X6001309Y-15658024D01*
X6001309Y-15658024D02*
X6010833Y-15648500D01*
X6010833Y-15648500D02*
X6029881Y-15638976D01*
X6182262Y-15838976D02*
X6182262Y-15705643D01*
X6182262Y-15724690D02*
X6191786Y-15715167D01*
X6191786Y-15715167D02*
X6210833Y-15705643D01*
X6210833Y-15705643D02*
X6239405Y-15705643D01*
X6239405Y-15705643D02*
X6258452Y-15715167D01*
X6258452Y-15715167D02*
X6267976Y-15734214D01*
X6267976Y-15734214D02*
X6267976Y-15838976D01*
X6267976Y-15734214D02*
X6277500Y-15715167D01*
X6277500Y-15715167D02*
X6296548Y-15705643D01*
X6296548Y-15705643D02*
X6325119Y-15705643D01*
X6325119Y-15705643D02*
X6344167Y-15715167D01*
X6344167Y-15715167D02*
X6353690Y-15734214D01*
X6353690Y-15734214D02*
X6353690Y-15838976D01*
X6448929Y-15838976D02*
X6448929Y-15705643D01*
X6448929Y-15724690D02*
X6458452Y-15715167D01*
X6458452Y-15715167D02*
X6477500Y-15705643D01*
X6477500Y-15705643D02*
X6506071Y-15705643D01*
X6506071Y-15705643D02*
X6525119Y-15715167D01*
X6525119Y-15715167D02*
X6534643Y-15734214D01*
X6534643Y-15734214D02*
X6534643Y-15838976D01*
X6534643Y-15734214D02*
X6544167Y-15715167D01*
X6544167Y-15715167D02*
X6563214Y-15705643D01*
X6563214Y-15705643D02*
X6591786Y-15705643D01*
X6591786Y-15705643D02*
X6610833Y-15715167D01*
X6610833Y-15715167D02*
X6620357Y-15734214D01*
X6620357Y-15734214D02*
X6620357Y-15838976D01*
X6978452Y-15629452D02*
X6807024Y-15886595D01*
X7203214Y-15638976D02*
X7222262Y-15638976D01*
X7222262Y-15638976D02*
X7241310Y-15648500D01*
X7241310Y-15648500D02*
X7250833Y-15658024D01*
X7250833Y-15658024D02*
X7260357Y-15677071D01*
X7260357Y-15677071D02*
X7269881Y-15715167D01*
X7269881Y-15715167D02*
X7269881Y-15762786D01*
X7269881Y-15762786D02*
X7260357Y-15800881D01*
X7260357Y-15800881D02*
X7250833Y-15819928D01*
X7250833Y-15819928D02*
X7241310Y-15829452D01*
X7241310Y-15829452D02*
X7222262Y-15838976D01*
X7222262Y-15838976D02*
X7203214Y-15838976D01*
X7203214Y-15838976D02*
X7184167Y-15829452D01*
X7184167Y-15829452D02*
X7174643Y-15819928D01*
X7174643Y-15819928D02*
X7165119Y-15800881D01*
X7165119Y-15800881D02*
X7155595Y-15762786D01*
X7155595Y-15762786D02*
X7155595Y-15715167D01*
X7155595Y-15715167D02*
X7165119Y-15677071D01*
X7165119Y-15677071D02*
X7174643Y-15658024D01*
X7174643Y-15658024D02*
X7184167Y-15648500D01*
X7184167Y-15648500D02*
X7203214Y-15638976D01*
X7355595Y-15819928D02*
X7365119Y-15829452D01*
X7365119Y-15829452D02*
X7355595Y-15838976D01*
X7355595Y-15838976D02*
X7346071Y-15829452D01*
X7346071Y-15829452D02*
X7355595Y-15819928D01*
X7355595Y-15819928D02*
X7355595Y-15838976D01*
X7488929Y-15638976D02*
X7507976Y-15638976D01*
X7507976Y-15638976D02*
X7527024Y-15648500D01*
X7527024Y-15648500D02*
X7536548Y-15658024D01*
X7536548Y-15658024D02*
X7546071Y-15677071D01*
X7546071Y-15677071D02*
X7555595Y-15715167D01*
X7555595Y-15715167D02*
X7555595Y-15762786D01*
X7555595Y-15762786D02*
X7546071Y-15800881D01*
X7546071Y-15800881D02*
X7536548Y-15819928D01*
X7536548Y-15819928D02*
X7527024Y-15829452D01*
X7527024Y-15829452D02*
X7507976Y-15838976D01*
X7507976Y-15838976D02*
X7488929Y-15838976D01*
X7488929Y-15838976D02*
X7469881Y-15829452D01*
X7469881Y-15829452D02*
X7460357Y-15819928D01*
X7460357Y-15819928D02*
X7450833Y-15800881D01*
X7450833Y-15800881D02*
X7441310Y-15762786D01*
X7441310Y-15762786D02*
X7441310Y-15715167D01*
X7441310Y-15715167D02*
X7450833Y-15677071D01*
X7450833Y-15677071D02*
X7460357Y-15658024D01*
X7460357Y-15658024D02*
X7469881Y-15648500D01*
X7469881Y-15648500D02*
X7488929Y-15638976D01*
X7622262Y-15638976D02*
X7746071Y-15638976D01*
X7746071Y-15638976D02*
X7679405Y-15715167D01*
X7679405Y-15715167D02*
X7707976Y-15715167D01*
X7707976Y-15715167D02*
X7727024Y-15724690D01*
X7727024Y-15724690D02*
X7736548Y-15734214D01*
X7736548Y-15734214D02*
X7746071Y-15753262D01*
X7746071Y-15753262D02*
X7746071Y-15800881D01*
X7746071Y-15800881D02*
X7736548Y-15819928D01*
X7736548Y-15819928D02*
X7727024Y-15829452D01*
X7727024Y-15829452D02*
X7707976Y-15838976D01*
X7707976Y-15838976D02*
X7650833Y-15838976D01*
X7650833Y-15838976D02*
X7631786Y-15829452D01*
X7631786Y-15829452D02*
X7622262Y-15819928D01*
X7936548Y-15838976D02*
X7822262Y-15838976D01*
X7879405Y-15838976D02*
X7879405Y-15638976D01*
X7879405Y-15638976D02*
X7860357Y-15667548D01*
X7860357Y-15667548D02*
X7841310Y-15686595D01*
X7841310Y-15686595D02*
X7822262Y-15696119D01*
X8117500Y-15638976D02*
X8022262Y-15638976D01*
X8022262Y-15638976D02*
X8012738Y-15734214D01*
X8012738Y-15734214D02*
X8022262Y-15724690D01*
X8022262Y-15724690D02*
X8041310Y-15715167D01*
X8041310Y-15715167D02*
X8088929Y-15715167D01*
X8088929Y-15715167D02*
X8107976Y-15724690D01*
X8107976Y-15724690D02*
X8117500Y-15734214D01*
X8117500Y-15734214D02*
X8127024Y-15753262D01*
X8127024Y-15753262D02*
X8127024Y-15800881D01*
X8127024Y-15800881D02*
X8117500Y-15819928D01*
X8117500Y-15819928D02*
X8107976Y-15829452D01*
X8107976Y-15829452D02*
X8088929Y-15838976D01*
X8088929Y-15838976D02*
X8041310Y-15838976D01*
X8041310Y-15838976D02*
X8022262Y-15829452D01*
X8022262Y-15829452D02*
X8012738Y-15819928D01*
X8203214Y-15638976D02*
X8203214Y-15677071D01*
X8279405Y-15638976D02*
X8279405Y-15677071D01*
X8542262Y-15915167D02*
X8532738Y-15905643D01*
X8532738Y-15905643D02*
X8513691Y-15877071D01*
X8513691Y-15877071D02*
X8504167Y-15858024D01*
X8504167Y-15858024D02*
X8494643Y-15829452D01*
X8494643Y-15829452D02*
X8485119Y-15781833D01*
X8485119Y-15781833D02*
X8485119Y-15743738D01*
X8485119Y-15743738D02*
X8494643Y-15696119D01*
X8494643Y-15696119D02*
X8504167Y-15667548D01*
X8504167Y-15667548D02*
X8513691Y-15648500D01*
X8513691Y-15648500D02*
X8532738Y-15619928D01*
X8532738Y-15619928D02*
X8542262Y-15610405D01*
X8713691Y-15638976D02*
X8618453Y-15638976D01*
X8618453Y-15638976D02*
X8608929Y-15734214D01*
X8608929Y-15734214D02*
X8618453Y-15724690D01*
X8618453Y-15724690D02*
X8637500Y-15715167D01*
X8637500Y-15715167D02*
X8685119Y-15715167D01*
X8685119Y-15715167D02*
X8704167Y-15724690D01*
X8704167Y-15724690D02*
X8713691Y-15734214D01*
X8713691Y-15734214D02*
X8723214Y-15753262D01*
X8723214Y-15753262D02*
X8723214Y-15800881D01*
X8723214Y-15800881D02*
X8713691Y-15819928D01*
X8713691Y-15819928D02*
X8704167Y-15829452D01*
X8704167Y-15829452D02*
X8685119Y-15838976D01*
X8685119Y-15838976D02*
X8637500Y-15838976D01*
X8637500Y-15838976D02*
X8618453Y-15829452D01*
X8618453Y-15829452D02*
X8608929Y-15819928D01*
X8847024Y-15638976D02*
X8866072Y-15638976D01*
X8866072Y-15638976D02*
X8885119Y-15648500D01*
X8885119Y-15648500D02*
X8894643Y-15658024D01*
X8894643Y-15658024D02*
X8904167Y-15677071D01*
X8904167Y-15677071D02*
X8913691Y-15715167D01*
X8913691Y-15715167D02*
X8913691Y-15762786D01*
X8913691Y-15762786D02*
X8904167Y-15800881D01*
X8904167Y-15800881D02*
X8894643Y-15819928D01*
X8894643Y-15819928D02*
X8885119Y-15829452D01*
X8885119Y-15829452D02*
X8866072Y-15838976D01*
X8866072Y-15838976D02*
X8847024Y-15838976D01*
X8847024Y-15838976D02*
X8827976Y-15829452D01*
X8827976Y-15829452D02*
X8818453Y-15819928D01*
X8818453Y-15819928D02*
X8808929Y-15800881D01*
X8808929Y-15800881D02*
X8799405Y-15762786D01*
X8799405Y-15762786D02*
X8799405Y-15715167D01*
X8799405Y-15715167D02*
X8808929Y-15677071D01*
X8808929Y-15677071D02*
X8818453Y-15658024D01*
X8818453Y-15658024D02*
X8827976Y-15648500D01*
X8827976Y-15648500D02*
X8847024Y-15638976D01*
X9104167Y-15838976D02*
X8989881Y-15838976D01*
X9047024Y-15838976D02*
X9047024Y-15638976D01*
X9047024Y-15638976D02*
X9027976Y-15667548D01*
X9027976Y-15667548D02*
X9008929Y-15686595D01*
X9008929Y-15686595D02*
X8989881Y-15696119D01*
X9309881Y-15838976D02*
X9309881Y-15638976D01*
X9395595Y-15838976D02*
X9395595Y-15734214D01*
X9395595Y-15734214D02*
X9386072Y-15715167D01*
X9386072Y-15715167D02*
X9367024Y-15705643D01*
X9367024Y-15705643D02*
X9338453Y-15705643D01*
X9338453Y-15705643D02*
X9319405Y-15715167D01*
X9319405Y-15715167D02*
X9309881Y-15724690D01*
X9519405Y-15838976D02*
X9500357Y-15829452D01*
X9500357Y-15829452D02*
X9490834Y-15819928D01*
X9490834Y-15819928D02*
X9481310Y-15800881D01*
X9481310Y-15800881D02*
X9481310Y-15743738D01*
X9481310Y-15743738D02*
X9490834Y-15724690D01*
X9490834Y-15724690D02*
X9500357Y-15715167D01*
X9500357Y-15715167D02*
X9519405Y-15705643D01*
X9519405Y-15705643D02*
X9547976Y-15705643D01*
X9547976Y-15705643D02*
X9567024Y-15715167D01*
X9567024Y-15715167D02*
X9576548Y-15724690D01*
X9576548Y-15724690D02*
X9586072Y-15743738D01*
X9586072Y-15743738D02*
X9586072Y-15800881D01*
X9586072Y-15800881D02*
X9576548Y-15819928D01*
X9576548Y-15819928D02*
X9567024Y-15829452D01*
X9567024Y-15829452D02*
X9547976Y-15838976D01*
X9547976Y-15838976D02*
X9519405Y-15838976D01*
X9700357Y-15838976D02*
X9681310Y-15829452D01*
X9681310Y-15829452D02*
X9671786Y-15810405D01*
X9671786Y-15810405D02*
X9671786Y-15638976D01*
X9852738Y-15829452D02*
X9833691Y-15838976D01*
X9833691Y-15838976D02*
X9795595Y-15838976D01*
X9795595Y-15838976D02*
X9776548Y-15829452D01*
X9776548Y-15829452D02*
X9767024Y-15810405D01*
X9767024Y-15810405D02*
X9767024Y-15734214D01*
X9767024Y-15734214D02*
X9776548Y-15715167D01*
X9776548Y-15715167D02*
X9795595Y-15705643D01*
X9795595Y-15705643D02*
X9833691Y-15705643D01*
X9833691Y-15705643D02*
X9852738Y-15715167D01*
X9852738Y-15715167D02*
X9862262Y-15734214D01*
X9862262Y-15734214D02*
X9862262Y-15753262D01*
X9862262Y-15753262D02*
X9767024Y-15772309D01*
X9938453Y-15829452D02*
X9957500Y-15838976D01*
X9957500Y-15838976D02*
X9995595Y-15838976D01*
X9995595Y-15838976D02*
X10014643Y-15829452D01*
X10014643Y-15829452D02*
X10024167Y-15810405D01*
X10024167Y-15810405D02*
X10024167Y-15800881D01*
X10024167Y-15800881D02*
X10014643Y-15781833D01*
X10014643Y-15781833D02*
X9995595Y-15772309D01*
X9995595Y-15772309D02*
X9967024Y-15772309D01*
X9967024Y-15772309D02*
X9947976Y-15762786D01*
X9947976Y-15762786D02*
X9938453Y-15743738D01*
X9938453Y-15743738D02*
X9938453Y-15734214D01*
X9938453Y-15734214D02*
X9947976Y-15715167D01*
X9947976Y-15715167D02*
X9967024Y-15705643D01*
X9967024Y-15705643D02*
X9995595Y-15705643D01*
X9995595Y-15705643D02*
X10014643Y-15715167D01*
X10090834Y-15915167D02*
X10100357Y-15905643D01*
X10100357Y-15905643D02*
X10119405Y-15877071D01*
X10119405Y-15877071D02*
X10128929Y-15858024D01*
X10128929Y-15858024D02*
X10138453Y-15829452D01*
X10138453Y-15829452D02*
X10147976Y-15781833D01*
X10147976Y-15781833D02*
X10147976Y-15743738D01*
X10147976Y-15743738D02*
X10138453Y-15696119D01*
X10138453Y-15696119D02*
X10128929Y-15667548D01*
X10128929Y-15667548D02*
X10119405Y-15648500D01*
X10119405Y-15648500D02*
X10100357Y-15619928D01*
X10100357Y-15619928D02*
X10090834Y-15610405D01*
D14*
X5032500Y-15984500D02*
X5032500Y-16074500D01*
X4987500Y-16029500D02*
X5077500Y-16029500D01*
D11*
X5363214Y-15902976D02*
X5382262Y-15902976D01*
X5382262Y-15902976D02*
X5401310Y-15912500D01*
X5401310Y-15912500D02*
X5410833Y-15922024D01*
X5410833Y-15922024D02*
X5420357Y-15941071D01*
X5420357Y-15941071D02*
X5429881Y-15979167D01*
X5429881Y-15979167D02*
X5429881Y-16026786D01*
X5429881Y-16026786D02*
X5420357Y-16064881D01*
X5420357Y-16064881D02*
X5410833Y-16083928D01*
X5410833Y-16083928D02*
X5401310Y-16093452D01*
X5401310Y-16093452D02*
X5382262Y-16102976D01*
X5382262Y-16102976D02*
X5363214Y-16102976D01*
X5363214Y-16102976D02*
X5344167Y-16093452D01*
X5344167Y-16093452D02*
X5334643Y-16083928D01*
X5334643Y-16083928D02*
X5325119Y-16064881D01*
X5325119Y-16064881D02*
X5315595Y-16026786D01*
X5315595Y-16026786D02*
X5315595Y-15979167D01*
X5315595Y-15979167D02*
X5325119Y-15941071D01*
X5325119Y-15941071D02*
X5334643Y-15922024D01*
X5334643Y-15922024D02*
X5344167Y-15912500D01*
X5344167Y-15912500D02*
X5363214Y-15902976D01*
X5515595Y-16083928D02*
X5525119Y-16093452D01*
X5525119Y-16093452D02*
X5515595Y-16102976D01*
X5515595Y-16102976D02*
X5506071Y-16093452D01*
X5506071Y-16093452D02*
X5515595Y-16083928D01*
X5515595Y-16083928D02*
X5515595Y-16102976D01*
X5620357Y-16102976D02*
X5658452Y-16102976D01*
X5658452Y-16102976D02*
X5677500Y-16093452D01*
X5677500Y-16093452D02*
X5687024Y-16083928D01*
X5687024Y-16083928D02*
X5706071Y-16055357D01*
X5706071Y-16055357D02*
X5715595Y-16017262D01*
X5715595Y-16017262D02*
X5715595Y-15941071D01*
X5715595Y-15941071D02*
X5706071Y-15922024D01*
X5706071Y-15922024D02*
X5696548Y-15912500D01*
X5696548Y-15912500D02*
X5677500Y-15902976D01*
X5677500Y-15902976D02*
X5639405Y-15902976D01*
X5639405Y-15902976D02*
X5620357Y-15912500D01*
X5620357Y-15912500D02*
X5610833Y-15922024D01*
X5610833Y-15922024D02*
X5601309Y-15941071D01*
X5601309Y-15941071D02*
X5601309Y-15988690D01*
X5601309Y-15988690D02*
X5610833Y-16007738D01*
X5610833Y-16007738D02*
X5620357Y-16017262D01*
X5620357Y-16017262D02*
X5639405Y-16026786D01*
X5639405Y-16026786D02*
X5677500Y-16026786D01*
X5677500Y-16026786D02*
X5696548Y-16017262D01*
X5696548Y-16017262D02*
X5706071Y-16007738D01*
X5706071Y-16007738D02*
X5715595Y-15988690D01*
X5839405Y-15902976D02*
X5858452Y-15902976D01*
X5858452Y-15902976D02*
X5877500Y-15912500D01*
X5877500Y-15912500D02*
X5887024Y-15922024D01*
X5887024Y-15922024D02*
X5896548Y-15941071D01*
X5896548Y-15941071D02*
X5906071Y-15979167D01*
X5906071Y-15979167D02*
X5906071Y-16026786D01*
X5906071Y-16026786D02*
X5896548Y-16064881D01*
X5896548Y-16064881D02*
X5887024Y-16083928D01*
X5887024Y-16083928D02*
X5877500Y-16093452D01*
X5877500Y-16093452D02*
X5858452Y-16102976D01*
X5858452Y-16102976D02*
X5839405Y-16102976D01*
X5839405Y-16102976D02*
X5820357Y-16093452D01*
X5820357Y-16093452D02*
X5810833Y-16083928D01*
X5810833Y-16083928D02*
X5801309Y-16064881D01*
X5801309Y-16064881D02*
X5791786Y-16026786D01*
X5791786Y-16026786D02*
X5791786Y-15979167D01*
X5791786Y-15979167D02*
X5801309Y-15941071D01*
X5801309Y-15941071D02*
X5810833Y-15922024D01*
X5810833Y-15922024D02*
X5820357Y-15912500D01*
X5820357Y-15912500D02*
X5839405Y-15902976D01*
X6029881Y-15902976D02*
X6048929Y-15902976D01*
X6048929Y-15902976D02*
X6067976Y-15912500D01*
X6067976Y-15912500D02*
X6077500Y-15922024D01*
X6077500Y-15922024D02*
X6087024Y-15941071D01*
X6087024Y-15941071D02*
X6096548Y-15979167D01*
X6096548Y-15979167D02*
X6096548Y-16026786D01*
X6096548Y-16026786D02*
X6087024Y-16064881D01*
X6087024Y-16064881D02*
X6077500Y-16083928D01*
X6077500Y-16083928D02*
X6067976Y-16093452D01*
X6067976Y-16093452D02*
X6048929Y-16102976D01*
X6048929Y-16102976D02*
X6029881Y-16102976D01*
X6029881Y-16102976D02*
X6010833Y-16093452D01*
X6010833Y-16093452D02*
X6001309Y-16083928D01*
X6001309Y-16083928D02*
X5991786Y-16064881D01*
X5991786Y-16064881D02*
X5982262Y-16026786D01*
X5982262Y-16026786D02*
X5982262Y-15979167D01*
X5982262Y-15979167D02*
X5991786Y-15941071D01*
X5991786Y-15941071D02*
X6001309Y-15922024D01*
X6001309Y-15922024D02*
X6010833Y-15912500D01*
X6010833Y-15912500D02*
X6029881Y-15902976D01*
X6182262Y-16102976D02*
X6182262Y-15969643D01*
X6182262Y-15988690D02*
X6191786Y-15979167D01*
X6191786Y-15979167D02*
X6210833Y-15969643D01*
X6210833Y-15969643D02*
X6239405Y-15969643D01*
X6239405Y-15969643D02*
X6258452Y-15979167D01*
X6258452Y-15979167D02*
X6267976Y-15998214D01*
X6267976Y-15998214D02*
X6267976Y-16102976D01*
X6267976Y-15998214D02*
X6277500Y-15979167D01*
X6277500Y-15979167D02*
X6296548Y-15969643D01*
X6296548Y-15969643D02*
X6325119Y-15969643D01*
X6325119Y-15969643D02*
X6344167Y-15979167D01*
X6344167Y-15979167D02*
X6353690Y-15998214D01*
X6353690Y-15998214D02*
X6353690Y-16102976D01*
X6448929Y-16102976D02*
X6448929Y-15969643D01*
X6448929Y-15988690D02*
X6458452Y-15979167D01*
X6458452Y-15979167D02*
X6477500Y-15969643D01*
X6477500Y-15969643D02*
X6506071Y-15969643D01*
X6506071Y-15969643D02*
X6525119Y-15979167D01*
X6525119Y-15979167D02*
X6534643Y-15998214D01*
X6534643Y-15998214D02*
X6534643Y-16102976D01*
X6534643Y-15998214D02*
X6544167Y-15979167D01*
X6544167Y-15979167D02*
X6563214Y-15969643D01*
X6563214Y-15969643D02*
X6591786Y-15969643D01*
X6591786Y-15969643D02*
X6610833Y-15979167D01*
X6610833Y-15979167D02*
X6620357Y-15998214D01*
X6620357Y-15998214D02*
X6620357Y-16102976D01*
X6978452Y-15893452D02*
X6807024Y-16150595D01*
X7203214Y-15902976D02*
X7222262Y-15902976D01*
X7222262Y-15902976D02*
X7241310Y-15912500D01*
X7241310Y-15912500D02*
X7250833Y-15922024D01*
X7250833Y-15922024D02*
X7260357Y-15941071D01*
X7260357Y-15941071D02*
X7269881Y-15979167D01*
X7269881Y-15979167D02*
X7269881Y-16026786D01*
X7269881Y-16026786D02*
X7260357Y-16064881D01*
X7260357Y-16064881D02*
X7250833Y-16083928D01*
X7250833Y-16083928D02*
X7241310Y-16093452D01*
X7241310Y-16093452D02*
X7222262Y-16102976D01*
X7222262Y-16102976D02*
X7203214Y-16102976D01*
X7203214Y-16102976D02*
X7184167Y-16093452D01*
X7184167Y-16093452D02*
X7174643Y-16083928D01*
X7174643Y-16083928D02*
X7165119Y-16064881D01*
X7165119Y-16064881D02*
X7155595Y-16026786D01*
X7155595Y-16026786D02*
X7155595Y-15979167D01*
X7155595Y-15979167D02*
X7165119Y-15941071D01*
X7165119Y-15941071D02*
X7174643Y-15922024D01*
X7174643Y-15922024D02*
X7184167Y-15912500D01*
X7184167Y-15912500D02*
X7203214Y-15902976D01*
X7355595Y-16083928D02*
X7365119Y-16093452D01*
X7365119Y-16093452D02*
X7355595Y-16102976D01*
X7355595Y-16102976D02*
X7346071Y-16093452D01*
X7346071Y-16093452D02*
X7355595Y-16083928D01*
X7355595Y-16083928D02*
X7355595Y-16102976D01*
X7488929Y-15902976D02*
X7507976Y-15902976D01*
X7507976Y-15902976D02*
X7527024Y-15912500D01*
X7527024Y-15912500D02*
X7536548Y-15922024D01*
X7536548Y-15922024D02*
X7546071Y-15941071D01*
X7546071Y-15941071D02*
X7555595Y-15979167D01*
X7555595Y-15979167D02*
X7555595Y-16026786D01*
X7555595Y-16026786D02*
X7546071Y-16064881D01*
X7546071Y-16064881D02*
X7536548Y-16083928D01*
X7536548Y-16083928D02*
X7527024Y-16093452D01*
X7527024Y-16093452D02*
X7507976Y-16102976D01*
X7507976Y-16102976D02*
X7488929Y-16102976D01*
X7488929Y-16102976D02*
X7469881Y-16093452D01*
X7469881Y-16093452D02*
X7460357Y-16083928D01*
X7460357Y-16083928D02*
X7450833Y-16064881D01*
X7450833Y-16064881D02*
X7441310Y-16026786D01*
X7441310Y-16026786D02*
X7441310Y-15979167D01*
X7441310Y-15979167D02*
X7450833Y-15941071D01*
X7450833Y-15941071D02*
X7460357Y-15922024D01*
X7460357Y-15922024D02*
X7469881Y-15912500D01*
X7469881Y-15912500D02*
X7488929Y-15902976D01*
X7622262Y-15902976D02*
X7746071Y-15902976D01*
X7746071Y-15902976D02*
X7679405Y-15979167D01*
X7679405Y-15979167D02*
X7707976Y-15979167D01*
X7707976Y-15979167D02*
X7727024Y-15988690D01*
X7727024Y-15988690D02*
X7736548Y-15998214D01*
X7736548Y-15998214D02*
X7746071Y-16017262D01*
X7746071Y-16017262D02*
X7746071Y-16064881D01*
X7746071Y-16064881D02*
X7736548Y-16083928D01*
X7736548Y-16083928D02*
X7727024Y-16093452D01*
X7727024Y-16093452D02*
X7707976Y-16102976D01*
X7707976Y-16102976D02*
X7650833Y-16102976D01*
X7650833Y-16102976D02*
X7631786Y-16093452D01*
X7631786Y-16093452D02*
X7622262Y-16083928D01*
X7927024Y-15902976D02*
X7831786Y-15902976D01*
X7831786Y-15902976D02*
X7822262Y-15998214D01*
X7822262Y-15998214D02*
X7831786Y-15988690D01*
X7831786Y-15988690D02*
X7850833Y-15979167D01*
X7850833Y-15979167D02*
X7898452Y-15979167D01*
X7898452Y-15979167D02*
X7917500Y-15988690D01*
X7917500Y-15988690D02*
X7927024Y-15998214D01*
X7927024Y-15998214D02*
X7936548Y-16017262D01*
X7936548Y-16017262D02*
X7936548Y-16064881D01*
X7936548Y-16064881D02*
X7927024Y-16083928D01*
X7927024Y-16083928D02*
X7917500Y-16093452D01*
X7917500Y-16093452D02*
X7898452Y-16102976D01*
X7898452Y-16102976D02*
X7850833Y-16102976D01*
X7850833Y-16102976D02*
X7831786Y-16093452D01*
X7831786Y-16093452D02*
X7822262Y-16083928D01*
X8107976Y-15969643D02*
X8107976Y-16102976D01*
X8060357Y-15893452D02*
X8012738Y-16036309D01*
X8012738Y-16036309D02*
X8136548Y-16036309D01*
X8203214Y-15902976D02*
X8203214Y-15941071D01*
X8279405Y-15902976D02*
X8279405Y-15941071D01*
X8542262Y-16179167D02*
X8532738Y-16169643D01*
X8532738Y-16169643D02*
X8513691Y-16141071D01*
X8513691Y-16141071D02*
X8504167Y-16122024D01*
X8504167Y-16122024D02*
X8494643Y-16093452D01*
X8494643Y-16093452D02*
X8485119Y-16045833D01*
X8485119Y-16045833D02*
X8485119Y-16007738D01*
X8485119Y-16007738D02*
X8494643Y-15960119D01*
X8494643Y-15960119D02*
X8504167Y-15931548D01*
X8504167Y-15931548D02*
X8513691Y-15912500D01*
X8513691Y-15912500D02*
X8532738Y-15883928D01*
X8532738Y-15883928D02*
X8542262Y-15874405D01*
X8599405Y-15902976D02*
X8723214Y-15902976D01*
X8723214Y-15902976D02*
X8656548Y-15979167D01*
X8656548Y-15979167D02*
X8685119Y-15979167D01*
X8685119Y-15979167D02*
X8704167Y-15988690D01*
X8704167Y-15988690D02*
X8713691Y-15998214D01*
X8713691Y-15998214D02*
X8723214Y-16017262D01*
X8723214Y-16017262D02*
X8723214Y-16064881D01*
X8723214Y-16064881D02*
X8713691Y-16083928D01*
X8713691Y-16083928D02*
X8704167Y-16093452D01*
X8704167Y-16093452D02*
X8685119Y-16102976D01*
X8685119Y-16102976D02*
X8627976Y-16102976D01*
X8627976Y-16102976D02*
X8608929Y-16093452D01*
X8608929Y-16093452D02*
X8599405Y-16083928D01*
X8799405Y-15922024D02*
X8808929Y-15912500D01*
X8808929Y-15912500D02*
X8827976Y-15902976D01*
X8827976Y-15902976D02*
X8875595Y-15902976D01*
X8875595Y-15902976D02*
X8894643Y-15912500D01*
X8894643Y-15912500D02*
X8904167Y-15922024D01*
X8904167Y-15922024D02*
X8913691Y-15941071D01*
X8913691Y-15941071D02*
X8913691Y-15960119D01*
X8913691Y-15960119D02*
X8904167Y-15988690D01*
X8904167Y-15988690D02*
X8789881Y-16102976D01*
X8789881Y-16102976D02*
X8913691Y-16102976D01*
X9119405Y-16102976D02*
X9119405Y-15902976D01*
X9205119Y-16102976D02*
X9205119Y-15998214D01*
X9205119Y-15998214D02*
X9195595Y-15979167D01*
X9195595Y-15979167D02*
X9176548Y-15969643D01*
X9176548Y-15969643D02*
X9147976Y-15969643D01*
X9147976Y-15969643D02*
X9128929Y-15979167D01*
X9128929Y-15979167D02*
X9119405Y-15988690D01*
X9328929Y-16102976D02*
X9309881Y-16093452D01*
X9309881Y-16093452D02*
X9300357Y-16083928D01*
X9300357Y-16083928D02*
X9290834Y-16064881D01*
X9290834Y-16064881D02*
X9290834Y-16007738D01*
X9290834Y-16007738D02*
X9300357Y-15988690D01*
X9300357Y-15988690D02*
X9309881Y-15979167D01*
X9309881Y-15979167D02*
X9328929Y-15969643D01*
X9328929Y-15969643D02*
X9357500Y-15969643D01*
X9357500Y-15969643D02*
X9376548Y-15979167D01*
X9376548Y-15979167D02*
X9386072Y-15988690D01*
X9386072Y-15988690D02*
X9395595Y-16007738D01*
X9395595Y-16007738D02*
X9395595Y-16064881D01*
X9395595Y-16064881D02*
X9386072Y-16083928D01*
X9386072Y-16083928D02*
X9376548Y-16093452D01*
X9376548Y-16093452D02*
X9357500Y-16102976D01*
X9357500Y-16102976D02*
X9328929Y-16102976D01*
X9509881Y-16102976D02*
X9490834Y-16093452D01*
X9490834Y-16093452D02*
X9481310Y-16074405D01*
X9481310Y-16074405D02*
X9481310Y-15902976D01*
X9662262Y-16093452D02*
X9643215Y-16102976D01*
X9643215Y-16102976D02*
X9605119Y-16102976D01*
X9605119Y-16102976D02*
X9586072Y-16093452D01*
X9586072Y-16093452D02*
X9576548Y-16074405D01*
X9576548Y-16074405D02*
X9576548Y-15998214D01*
X9576548Y-15998214D02*
X9586072Y-15979167D01*
X9586072Y-15979167D02*
X9605119Y-15969643D01*
X9605119Y-15969643D02*
X9643215Y-15969643D01*
X9643215Y-15969643D02*
X9662262Y-15979167D01*
X9662262Y-15979167D02*
X9671786Y-15998214D01*
X9671786Y-15998214D02*
X9671786Y-16017262D01*
X9671786Y-16017262D02*
X9576548Y-16036309D01*
X9747976Y-16093452D02*
X9767024Y-16102976D01*
X9767024Y-16102976D02*
X9805119Y-16102976D01*
X9805119Y-16102976D02*
X9824167Y-16093452D01*
X9824167Y-16093452D02*
X9833691Y-16074405D01*
X9833691Y-16074405D02*
X9833691Y-16064881D01*
X9833691Y-16064881D02*
X9824167Y-16045833D01*
X9824167Y-16045833D02*
X9805119Y-16036309D01*
X9805119Y-16036309D02*
X9776548Y-16036309D01*
X9776548Y-16036309D02*
X9757500Y-16026786D01*
X9757500Y-16026786D02*
X9747976Y-16007738D01*
X9747976Y-16007738D02*
X9747976Y-15998214D01*
X9747976Y-15998214D02*
X9757500Y-15979167D01*
X9757500Y-15979167D02*
X9776548Y-15969643D01*
X9776548Y-15969643D02*
X9805119Y-15969643D01*
X9805119Y-15969643D02*
X9824167Y-15979167D01*
X9900357Y-16179167D02*
X9909881Y-16169643D01*
X9909881Y-16169643D02*
X9928929Y-16141071D01*
X9928929Y-16141071D02*
X9938453Y-16122024D01*
X9938453Y-16122024D02*
X9947976Y-16093452D01*
X9947976Y-16093452D02*
X9957500Y-16045833D01*
X9957500Y-16045833D02*
X9957500Y-16007738D01*
X9957500Y-16007738D02*
X9947976Y-15960119D01*
X9947976Y-15960119D02*
X9938453Y-15931548D01*
X9938453Y-15931548D02*
X9928929Y-15912500D01*
X9928929Y-15912500D02*
X9909881Y-15883928D01*
X9909881Y-15883928D02*
X9900357Y-15874405D01*
D15*
X5062856Y-16328856D02*
X5062856Y-16258144D01*
X4992144Y-16258144D01*
X4992144Y-16328856D01*
X5062856Y-16328856D01*
D11*
X5429881Y-16366976D02*
X5315595Y-16366976D01*
X5372738Y-16366976D02*
X5372738Y-16166976D01*
X5372738Y-16166976D02*
X5353690Y-16195548D01*
X5353690Y-16195548D02*
X5334643Y-16214595D01*
X5334643Y-16214595D02*
X5315595Y-16224119D01*
X5515595Y-16347928D02*
X5525119Y-16357452D01*
X5525119Y-16357452D02*
X5515595Y-16366976D01*
X5515595Y-16366976D02*
X5506071Y-16357452D01*
X5506071Y-16357452D02*
X5515595Y-16347928D01*
X5515595Y-16347928D02*
X5515595Y-16366976D01*
X5648928Y-16166976D02*
X5667976Y-16166976D01*
X5667976Y-16166976D02*
X5687024Y-16176500D01*
X5687024Y-16176500D02*
X5696548Y-16186024D01*
X5696548Y-16186024D02*
X5706071Y-16205071D01*
X5706071Y-16205071D02*
X5715595Y-16243167D01*
X5715595Y-16243167D02*
X5715595Y-16290786D01*
X5715595Y-16290786D02*
X5706071Y-16328881D01*
X5706071Y-16328881D02*
X5696548Y-16347928D01*
X5696548Y-16347928D02*
X5687024Y-16357452D01*
X5687024Y-16357452D02*
X5667976Y-16366976D01*
X5667976Y-16366976D02*
X5648928Y-16366976D01*
X5648928Y-16366976D02*
X5629881Y-16357452D01*
X5629881Y-16357452D02*
X5620357Y-16347928D01*
X5620357Y-16347928D02*
X5610833Y-16328881D01*
X5610833Y-16328881D02*
X5601309Y-16290786D01*
X5601309Y-16290786D02*
X5601309Y-16243167D01*
X5601309Y-16243167D02*
X5610833Y-16205071D01*
X5610833Y-16205071D02*
X5620357Y-16186024D01*
X5620357Y-16186024D02*
X5629881Y-16176500D01*
X5629881Y-16176500D02*
X5648928Y-16166976D01*
X5839405Y-16166976D02*
X5858452Y-16166976D01*
X5858452Y-16166976D02*
X5877500Y-16176500D01*
X5877500Y-16176500D02*
X5887024Y-16186024D01*
X5887024Y-16186024D02*
X5896548Y-16205071D01*
X5896548Y-16205071D02*
X5906071Y-16243167D01*
X5906071Y-16243167D02*
X5906071Y-16290786D01*
X5906071Y-16290786D02*
X5896548Y-16328881D01*
X5896548Y-16328881D02*
X5887024Y-16347928D01*
X5887024Y-16347928D02*
X5877500Y-16357452D01*
X5877500Y-16357452D02*
X5858452Y-16366976D01*
X5858452Y-16366976D02*
X5839405Y-16366976D01*
X5839405Y-16366976D02*
X5820357Y-16357452D01*
X5820357Y-16357452D02*
X5810833Y-16347928D01*
X5810833Y-16347928D02*
X5801309Y-16328881D01*
X5801309Y-16328881D02*
X5791786Y-16290786D01*
X5791786Y-16290786D02*
X5791786Y-16243167D01*
X5791786Y-16243167D02*
X5801309Y-16205071D01*
X5801309Y-16205071D02*
X5810833Y-16186024D01*
X5810833Y-16186024D02*
X5820357Y-16176500D01*
X5820357Y-16176500D02*
X5839405Y-16166976D01*
X6029881Y-16166976D02*
X6048929Y-16166976D01*
X6048929Y-16166976D02*
X6067976Y-16176500D01*
X6067976Y-16176500D02*
X6077500Y-16186024D01*
X6077500Y-16186024D02*
X6087024Y-16205071D01*
X6087024Y-16205071D02*
X6096548Y-16243167D01*
X6096548Y-16243167D02*
X6096548Y-16290786D01*
X6096548Y-16290786D02*
X6087024Y-16328881D01*
X6087024Y-16328881D02*
X6077500Y-16347928D01*
X6077500Y-16347928D02*
X6067976Y-16357452D01*
X6067976Y-16357452D02*
X6048929Y-16366976D01*
X6048929Y-16366976D02*
X6029881Y-16366976D01*
X6029881Y-16366976D02*
X6010833Y-16357452D01*
X6010833Y-16357452D02*
X6001309Y-16347928D01*
X6001309Y-16347928D02*
X5991786Y-16328881D01*
X5991786Y-16328881D02*
X5982262Y-16290786D01*
X5982262Y-16290786D02*
X5982262Y-16243167D01*
X5982262Y-16243167D02*
X5991786Y-16205071D01*
X5991786Y-16205071D02*
X6001309Y-16186024D01*
X6001309Y-16186024D02*
X6010833Y-16176500D01*
X6010833Y-16176500D02*
X6029881Y-16166976D01*
X6182262Y-16366976D02*
X6182262Y-16233643D01*
X6182262Y-16252690D02*
X6191786Y-16243167D01*
X6191786Y-16243167D02*
X6210833Y-16233643D01*
X6210833Y-16233643D02*
X6239405Y-16233643D01*
X6239405Y-16233643D02*
X6258452Y-16243167D01*
X6258452Y-16243167D02*
X6267976Y-16262214D01*
X6267976Y-16262214D02*
X6267976Y-16366976D01*
X6267976Y-16262214D02*
X6277500Y-16243167D01*
X6277500Y-16243167D02*
X6296548Y-16233643D01*
X6296548Y-16233643D02*
X6325119Y-16233643D01*
X6325119Y-16233643D02*
X6344167Y-16243167D01*
X6344167Y-16243167D02*
X6353690Y-16262214D01*
X6353690Y-16262214D02*
X6353690Y-16366976D01*
X6448929Y-16366976D02*
X6448929Y-16233643D01*
X6448929Y-16252690D02*
X6458452Y-16243167D01*
X6458452Y-16243167D02*
X6477500Y-16233643D01*
X6477500Y-16233643D02*
X6506071Y-16233643D01*
X6506071Y-16233643D02*
X6525119Y-16243167D01*
X6525119Y-16243167D02*
X6534643Y-16262214D01*
X6534643Y-16262214D02*
X6534643Y-16366976D01*
X6534643Y-16262214D02*
X6544167Y-16243167D01*
X6544167Y-16243167D02*
X6563214Y-16233643D01*
X6563214Y-16233643D02*
X6591786Y-16233643D01*
X6591786Y-16233643D02*
X6610833Y-16243167D01*
X6610833Y-16243167D02*
X6620357Y-16262214D01*
X6620357Y-16262214D02*
X6620357Y-16366976D01*
X6978452Y-16157452D02*
X6807024Y-16414595D01*
X7203214Y-16166976D02*
X7222262Y-16166976D01*
X7222262Y-16166976D02*
X7241310Y-16176500D01*
X7241310Y-16176500D02*
X7250833Y-16186024D01*
X7250833Y-16186024D02*
X7260357Y-16205071D01*
X7260357Y-16205071D02*
X7269881Y-16243167D01*
X7269881Y-16243167D02*
X7269881Y-16290786D01*
X7269881Y-16290786D02*
X7260357Y-16328881D01*
X7260357Y-16328881D02*
X7250833Y-16347928D01*
X7250833Y-16347928D02*
X7241310Y-16357452D01*
X7241310Y-16357452D02*
X7222262Y-16366976D01*
X7222262Y-16366976D02*
X7203214Y-16366976D01*
X7203214Y-16366976D02*
X7184167Y-16357452D01*
X7184167Y-16357452D02*
X7174643Y-16347928D01*
X7174643Y-16347928D02*
X7165119Y-16328881D01*
X7165119Y-16328881D02*
X7155595Y-16290786D01*
X7155595Y-16290786D02*
X7155595Y-16243167D01*
X7155595Y-16243167D02*
X7165119Y-16205071D01*
X7165119Y-16205071D02*
X7174643Y-16186024D01*
X7174643Y-16186024D02*
X7184167Y-16176500D01*
X7184167Y-16176500D02*
X7203214Y-16166976D01*
X7355595Y-16347928D02*
X7365119Y-16357452D01*
X7365119Y-16357452D02*
X7355595Y-16366976D01*
X7355595Y-16366976D02*
X7346071Y-16357452D01*
X7346071Y-16357452D02*
X7355595Y-16347928D01*
X7355595Y-16347928D02*
X7355595Y-16366976D01*
X7488929Y-16166976D02*
X7507976Y-16166976D01*
X7507976Y-16166976D02*
X7527024Y-16176500D01*
X7527024Y-16176500D02*
X7536548Y-16186024D01*
X7536548Y-16186024D02*
X7546071Y-16205071D01*
X7546071Y-16205071D02*
X7555595Y-16243167D01*
X7555595Y-16243167D02*
X7555595Y-16290786D01*
X7555595Y-16290786D02*
X7546071Y-16328881D01*
X7546071Y-16328881D02*
X7536548Y-16347928D01*
X7536548Y-16347928D02*
X7527024Y-16357452D01*
X7527024Y-16357452D02*
X7507976Y-16366976D01*
X7507976Y-16366976D02*
X7488929Y-16366976D01*
X7488929Y-16366976D02*
X7469881Y-16357452D01*
X7469881Y-16357452D02*
X7460357Y-16347928D01*
X7460357Y-16347928D02*
X7450833Y-16328881D01*
X7450833Y-16328881D02*
X7441310Y-16290786D01*
X7441310Y-16290786D02*
X7441310Y-16243167D01*
X7441310Y-16243167D02*
X7450833Y-16205071D01*
X7450833Y-16205071D02*
X7460357Y-16186024D01*
X7460357Y-16186024D02*
X7469881Y-16176500D01*
X7469881Y-16176500D02*
X7488929Y-16166976D01*
X7622262Y-16166976D02*
X7746071Y-16166976D01*
X7746071Y-16166976D02*
X7679405Y-16243167D01*
X7679405Y-16243167D02*
X7707976Y-16243167D01*
X7707976Y-16243167D02*
X7727024Y-16252690D01*
X7727024Y-16252690D02*
X7736548Y-16262214D01*
X7736548Y-16262214D02*
X7746071Y-16281262D01*
X7746071Y-16281262D02*
X7746071Y-16328881D01*
X7746071Y-16328881D02*
X7736548Y-16347928D01*
X7736548Y-16347928D02*
X7727024Y-16357452D01*
X7727024Y-16357452D02*
X7707976Y-16366976D01*
X7707976Y-16366976D02*
X7650833Y-16366976D01*
X7650833Y-16366976D02*
X7631786Y-16357452D01*
X7631786Y-16357452D02*
X7622262Y-16347928D01*
X7841310Y-16366976D02*
X7879405Y-16366976D01*
X7879405Y-16366976D02*
X7898452Y-16357452D01*
X7898452Y-16357452D02*
X7907976Y-16347928D01*
X7907976Y-16347928D02*
X7927024Y-16319357D01*
X7927024Y-16319357D02*
X7936548Y-16281262D01*
X7936548Y-16281262D02*
X7936548Y-16205071D01*
X7936548Y-16205071D02*
X7927024Y-16186024D01*
X7927024Y-16186024D02*
X7917500Y-16176500D01*
X7917500Y-16176500D02*
X7898452Y-16166976D01*
X7898452Y-16166976D02*
X7860357Y-16166976D01*
X7860357Y-16166976D02*
X7841310Y-16176500D01*
X7841310Y-16176500D02*
X7831786Y-16186024D01*
X7831786Y-16186024D02*
X7822262Y-16205071D01*
X7822262Y-16205071D02*
X7822262Y-16252690D01*
X7822262Y-16252690D02*
X7831786Y-16271738D01*
X7831786Y-16271738D02*
X7841310Y-16281262D01*
X7841310Y-16281262D02*
X7860357Y-16290786D01*
X7860357Y-16290786D02*
X7898452Y-16290786D01*
X7898452Y-16290786D02*
X7917500Y-16281262D01*
X7917500Y-16281262D02*
X7927024Y-16271738D01*
X7927024Y-16271738D02*
X7936548Y-16252690D01*
X8107976Y-16233643D02*
X8107976Y-16366976D01*
X8060357Y-16157452D02*
X8012738Y-16300309D01*
X8012738Y-16300309D02*
X8136548Y-16300309D01*
X8203214Y-16166976D02*
X8203214Y-16205071D01*
X8279405Y-16166976D02*
X8279405Y-16205071D01*
X8542262Y-16443167D02*
X8532738Y-16433643D01*
X8532738Y-16433643D02*
X8513691Y-16405071D01*
X8513691Y-16405071D02*
X8504167Y-16386024D01*
X8504167Y-16386024D02*
X8494643Y-16357452D01*
X8494643Y-16357452D02*
X8485119Y-16309833D01*
X8485119Y-16309833D02*
X8485119Y-16271738D01*
X8485119Y-16271738D02*
X8494643Y-16224119D01*
X8494643Y-16224119D02*
X8504167Y-16195548D01*
X8504167Y-16195548D02*
X8513691Y-16176500D01*
X8513691Y-16176500D02*
X8532738Y-16147928D01*
X8532738Y-16147928D02*
X8542262Y-16138405D01*
X8704167Y-16166976D02*
X8666072Y-16166976D01*
X8666072Y-16166976D02*
X8647024Y-16176500D01*
X8647024Y-16176500D02*
X8637500Y-16186024D01*
X8637500Y-16186024D02*
X8618453Y-16214595D01*
X8618453Y-16214595D02*
X8608929Y-16252690D01*
X8608929Y-16252690D02*
X8608929Y-16328881D01*
X8608929Y-16328881D02*
X8618453Y-16347928D01*
X8618453Y-16347928D02*
X8627976Y-16357452D01*
X8627976Y-16357452D02*
X8647024Y-16366976D01*
X8647024Y-16366976D02*
X8685119Y-16366976D01*
X8685119Y-16366976D02*
X8704167Y-16357452D01*
X8704167Y-16357452D02*
X8713691Y-16347928D01*
X8713691Y-16347928D02*
X8723214Y-16328881D01*
X8723214Y-16328881D02*
X8723214Y-16281262D01*
X8723214Y-16281262D02*
X8713691Y-16262214D01*
X8713691Y-16262214D02*
X8704167Y-16252690D01*
X8704167Y-16252690D02*
X8685119Y-16243167D01*
X8685119Y-16243167D02*
X8647024Y-16243167D01*
X8647024Y-16243167D02*
X8627976Y-16252690D01*
X8627976Y-16252690D02*
X8618453Y-16262214D01*
X8618453Y-16262214D02*
X8608929Y-16281262D01*
X8837500Y-16252690D02*
X8818453Y-16243167D01*
X8818453Y-16243167D02*
X8808929Y-16233643D01*
X8808929Y-16233643D02*
X8799405Y-16214595D01*
X8799405Y-16214595D02*
X8799405Y-16205071D01*
X8799405Y-16205071D02*
X8808929Y-16186024D01*
X8808929Y-16186024D02*
X8818453Y-16176500D01*
X8818453Y-16176500D02*
X8837500Y-16166976D01*
X8837500Y-16166976D02*
X8875595Y-16166976D01*
X8875595Y-16166976D02*
X8894643Y-16176500D01*
X8894643Y-16176500D02*
X8904167Y-16186024D01*
X8904167Y-16186024D02*
X8913691Y-16205071D01*
X8913691Y-16205071D02*
X8913691Y-16214595D01*
X8913691Y-16214595D02*
X8904167Y-16233643D01*
X8904167Y-16233643D02*
X8894643Y-16243167D01*
X8894643Y-16243167D02*
X8875595Y-16252690D01*
X8875595Y-16252690D02*
X8837500Y-16252690D01*
X8837500Y-16252690D02*
X8818453Y-16262214D01*
X8818453Y-16262214D02*
X8808929Y-16271738D01*
X8808929Y-16271738D02*
X8799405Y-16290786D01*
X8799405Y-16290786D02*
X8799405Y-16328881D01*
X8799405Y-16328881D02*
X8808929Y-16347928D01*
X8808929Y-16347928D02*
X8818453Y-16357452D01*
X8818453Y-16357452D02*
X8837500Y-16366976D01*
X8837500Y-16366976D02*
X8875595Y-16366976D01*
X8875595Y-16366976D02*
X8894643Y-16357452D01*
X8894643Y-16357452D02*
X8904167Y-16347928D01*
X8904167Y-16347928D02*
X8913691Y-16328881D01*
X8913691Y-16328881D02*
X8913691Y-16290786D01*
X8913691Y-16290786D02*
X8904167Y-16271738D01*
X8904167Y-16271738D02*
X8894643Y-16262214D01*
X8894643Y-16262214D02*
X8875595Y-16252690D01*
X9119405Y-16366976D02*
X9119405Y-16166976D01*
X9205119Y-16366976D02*
X9205119Y-16262214D01*
X9205119Y-16262214D02*
X9195595Y-16243167D01*
X9195595Y-16243167D02*
X9176548Y-16233643D01*
X9176548Y-16233643D02*
X9147976Y-16233643D01*
X9147976Y-16233643D02*
X9128929Y-16243167D01*
X9128929Y-16243167D02*
X9119405Y-16252690D01*
X9328929Y-16366976D02*
X9309881Y-16357452D01*
X9309881Y-16357452D02*
X9300357Y-16347928D01*
X9300357Y-16347928D02*
X9290834Y-16328881D01*
X9290834Y-16328881D02*
X9290834Y-16271738D01*
X9290834Y-16271738D02*
X9300357Y-16252690D01*
X9300357Y-16252690D02*
X9309881Y-16243167D01*
X9309881Y-16243167D02*
X9328929Y-16233643D01*
X9328929Y-16233643D02*
X9357500Y-16233643D01*
X9357500Y-16233643D02*
X9376548Y-16243167D01*
X9376548Y-16243167D02*
X9386072Y-16252690D01*
X9386072Y-16252690D02*
X9395595Y-16271738D01*
X9395595Y-16271738D02*
X9395595Y-16328881D01*
X9395595Y-16328881D02*
X9386072Y-16347928D01*
X9386072Y-16347928D02*
X9376548Y-16357452D01*
X9376548Y-16357452D02*
X9357500Y-16366976D01*
X9357500Y-16366976D02*
X9328929Y-16366976D01*
X9509881Y-16366976D02*
X9490834Y-16357452D01*
X9490834Y-16357452D02*
X9481310Y-16338405D01*
X9481310Y-16338405D02*
X9481310Y-16166976D01*
X9662262Y-16357452D02*
X9643215Y-16366976D01*
X9643215Y-16366976D02*
X9605119Y-16366976D01*
X9605119Y-16366976D02*
X9586072Y-16357452D01*
X9586072Y-16357452D02*
X9576548Y-16338405D01*
X9576548Y-16338405D02*
X9576548Y-16262214D01*
X9576548Y-16262214D02*
X9586072Y-16243167D01*
X9586072Y-16243167D02*
X9605119Y-16233643D01*
X9605119Y-16233643D02*
X9643215Y-16233643D01*
X9643215Y-16233643D02*
X9662262Y-16243167D01*
X9662262Y-16243167D02*
X9671786Y-16262214D01*
X9671786Y-16262214D02*
X9671786Y-16281262D01*
X9671786Y-16281262D02*
X9576548Y-16300309D01*
X9747976Y-16357452D02*
X9767024Y-16366976D01*
X9767024Y-16366976D02*
X9805119Y-16366976D01*
X9805119Y-16366976D02*
X9824167Y-16357452D01*
X9824167Y-16357452D02*
X9833691Y-16338405D01*
X9833691Y-16338405D02*
X9833691Y-16328881D01*
X9833691Y-16328881D02*
X9824167Y-16309833D01*
X9824167Y-16309833D02*
X9805119Y-16300309D01*
X9805119Y-16300309D02*
X9776548Y-16300309D01*
X9776548Y-16300309D02*
X9757500Y-16290786D01*
X9757500Y-16290786D02*
X9747976Y-16271738D01*
X9747976Y-16271738D02*
X9747976Y-16262214D01*
X9747976Y-16262214D02*
X9757500Y-16243167D01*
X9757500Y-16243167D02*
X9776548Y-16233643D01*
X9776548Y-16233643D02*
X9805119Y-16233643D01*
X9805119Y-16233643D02*
X9824167Y-16243167D01*
X9900357Y-16443167D02*
X9909881Y-16433643D01*
X9909881Y-16433643D02*
X9928929Y-16405071D01*
X9928929Y-16405071D02*
X9938453Y-16386024D01*
X9938453Y-16386024D02*
X9947976Y-16357452D01*
X9947976Y-16357452D02*
X9957500Y-16309833D01*
X9957500Y-16309833D02*
X9957500Y-16271738D01*
X9957500Y-16271738D02*
X9947976Y-16224119D01*
X9947976Y-16224119D02*
X9938453Y-16195548D01*
X9938453Y-16195548D02*
X9928929Y-16176500D01*
X9928929Y-16176500D02*
X9909881Y-16147928D01*
X9909881Y-16147928D02*
X9900357Y-16138405D01*
M02*
