M48
; DRILL file {KiCad (7.0.0)} date Sun Nov 17 17:29:47 2024
; FORMAT={-:-/ absolute / metric / decimal}
; #@! TF.CreationDate,2024-11-17T17:29:47-08:00
; #@! TF.GenerationSoftware,Kicad,Pcbnew,(7.0.0)
; #@! TF.FileFunction,Plated,1,2,PTH
FMAT,2
METRIC
; #@! TA.AperFunction,Plated,PTH,ViaDrill
T1C0.381
; #@! TA.AperFunction,Plated,PTH,ComponentDrill
T2C0.800
; #@! TA.AperFunction,Plated,PTH,ComponentDrill
T3C0.900
; #@! TA.AperFunction,Plated,PTH,ComponentDrill
T4C1.000
%
G90
G05
T1
X63.5Y-123.19
X66.04Y-123.952
X68.58Y-124.714
X71.12Y-125.476
X73.66Y-126.238
X76.2Y-127.0
X78.74Y-127.762
X80.01Y-67.056
X80.01Y-79.756
X80.01Y-92.456
X80.01Y-105.156
X80.01Y-117.856
X87.63Y-68.58
X87.63Y-72.136
X87.63Y-81.28
X87.63Y-84.836
X87.63Y-93.98
X87.63Y-97.536
X87.63Y-106.68
X87.63Y-110.236
X87.884Y-58.928
X89.916Y-58.928
X93.98Y-128.524
X96.52Y-129.286
X99.06Y-130.048
X101.6Y-130.81
X102.87Y-133.096
X102.87Y-134.62
X104.14Y-131.572
X105.41Y-116.586
X105.41Y-121.158
X105.41Y-132.334
X105.41Y-134.62
X106.68Y-132.334
X107.95Y-116.586
X107.95Y-121.158
X107.95Y-131.572
X107.95Y-134.62
X109.22Y-133.096
X110.49Y-116.586
X110.49Y-121.158
X110.49Y-130.81
X110.49Y-134.62
X111.76Y-133.858
X113.03Y-67.056
X113.03Y-79.756
X113.03Y-92.456
X113.03Y-105.156
X113.03Y-117.856
X113.03Y-130.048
X113.03Y-134.62
X115.57Y-129.286
X115.57Y-134.62
X118.11Y-128.524
X118.11Y-134.62
X120.396Y-60.96
X120.396Y-67.056
X120.396Y-73.66
X120.396Y-79.756
X120.65Y-127.762
X120.65Y-134.62
X121.666Y-87.884
X121.666Y-89.408
X121.666Y-96.774
X121.666Y-98.298
X122.936Y-60.96
X122.936Y-67.056
X122.936Y-73.66
X122.936Y-79.756
X123.19Y-127.0
X123.19Y-134.62
X125.73Y-126.238
X125.73Y-134.62
X127.0Y-122.428
X128.27Y-125.476
X128.27Y-134.62
X129.54Y-123.19
X129.794Y-90.17
X129.794Y-93.218
X130.81Y-116.586
X130.81Y-121.412
X130.81Y-124.714
X130.81Y-134.62
X131.064Y-90.932
X131.064Y-93.218
X132.08Y-123.952
X133.35Y-116.586
X133.35Y-121.412
X133.35Y-123.952
X133.35Y-134.62
X133.604Y-87.884
X133.604Y-90.17
X133.604Y-91.694
X133.604Y-93.98
X134.62Y-124.714
X134.874Y-87.884
X134.874Y-93.98
X135.89Y-116.586
X135.89Y-121.412
X135.89Y-123.19
X135.89Y-134.62
X136.144Y-87.884
X136.144Y-90.932
X137.16Y-125.476
X137.414Y-87.884
X137.414Y-94.742
X138.43Y-122.428
X138.43Y-134.62
X138.684Y-87.122
X138.684Y-94.742
X146.05Y-117.856
X147.32Y-96.012
X148.336Y-85.344
X148.336Y-86.868
X149.352Y-96.012
X150.114Y-106.68
X153.416Y-106.68
X153.67Y-100.584
X158.75Y-87.122
X158.75Y-97.028
X158.75Y-113.284
X160.528Y-78.486
X161.29Y-87.122
X161.29Y-97.028
X161.29Y-117.856
X162.306Y-78.486
X181.61Y-75.692
X182.372Y-76.708
X183.642Y-75.438
X186.69Y-109.982
X186.69Y-113.284
X186.69Y-120.904
X187.96Y-105.156
X190.754Y-85.598
X192.024Y-96.012
X193.04Y-136.144
X193.294Y-96.012
X195.58Y-77.724
X195.58Y-94.742
X196.85Y-126.238
X196.85Y-136.906
X196.85Y-139.192
X198.12Y-78.486
X198.12Y-93.98
X198.12Y-121.92
X200.66Y-79.248
X200.66Y-93.218
X203.2Y-80.01
X203.2Y-92.456
X203.2Y-126.746
X205.74Y-81.788
X205.74Y-91.694
X207.01Y-85.598
X207.01Y-91.694
X208.28Y-85.598
X208.28Y-91.694
X208.534Y-114.808
X209.296Y-96.012
X210.566Y-96.012
X211.582Y-136.398
X211.582Y-140.208
X213.614Y-101.6
X215.646Y-110.236
X215.646Y-111.76
X215.646Y-115.824
X215.646Y-117.094
X215.9Y-79.756
X226.06Y-128.524
X228.6Y-87.884
X228.6Y-114.808
X231.14Y-90.17
X231.14Y-103.124
X231.14Y-139.192
X233.68Y-139.192
X234.95Y-104.14
X235.458Y-135.636
X236.22Y-127.0
X236.22Y-128.524
X236.22Y-139.192
X236.728Y-111.76
X236.982Y-135.636
X237.236Y-127.762
X237.236Y-129.286
X237.49Y-104.14
X237.744Y-96.012
X241.3Y-111.76
X241.3Y-127.762
X241.3Y-129.286
X241.3Y-135.636
X242.316Y-128.524
X242.57Y-136.906
X244.856Y-91.44
T2
X53.34Y-60.96
X53.34Y-65.96
X53.34Y-73.66
X53.34Y-78.66
X53.34Y-86.36
X53.34Y-91.36
X53.34Y-99.06
X53.34Y-104.06
X53.34Y-111.76
X53.34Y-116.76
X58.42Y-60.96
X58.42Y-68.58
X58.42Y-73.66
X58.42Y-81.28
X58.42Y-86.36
X58.42Y-93.98
X58.42Y-99.06
X58.42Y-106.68
X58.42Y-111.76
X58.42Y-119.38
X60.96Y-60.96
X60.96Y-68.58
X60.96Y-73.66
X60.96Y-81.28
X60.96Y-86.36
X60.96Y-93.98
X60.96Y-99.06
X60.96Y-106.68
X60.96Y-111.76
X60.96Y-119.38
X60.96Y-132.12
X60.96Y-134.62
X63.5Y-60.96
X63.5Y-68.58
X63.5Y-73.66
X63.5Y-81.28
X63.5Y-86.36
X63.5Y-93.98
X63.5Y-99.06
X63.5Y-106.68
X63.5Y-111.76
X63.5Y-119.38
X66.04Y-60.96
X66.04Y-68.58
X66.04Y-73.66
X66.04Y-81.28
X66.04Y-86.36
X66.04Y-93.98
X66.04Y-99.06
X66.04Y-106.68
X66.04Y-111.76
X66.04Y-119.38
X68.58Y-60.96
X68.58Y-68.58
X68.58Y-73.66
X68.58Y-81.28
X68.58Y-86.36
X68.58Y-93.98
X68.58Y-99.06
X68.58Y-106.68
X68.58Y-111.76
X68.58Y-119.38
X71.12Y-60.96
X71.12Y-68.58
X71.12Y-73.66
X71.12Y-81.28
X71.12Y-86.36
X71.12Y-93.98
X71.12Y-99.06
X71.12Y-106.68
X71.12Y-111.76
X71.12Y-119.38
X73.66Y-60.96
X73.66Y-68.58
X73.66Y-73.66
X73.66Y-81.28
X73.66Y-86.36
X73.66Y-93.98
X73.66Y-99.06
X73.66Y-106.68
X73.66Y-111.76
X73.66Y-119.38
X76.2Y-60.96
X76.2Y-68.58
X76.2Y-73.66
X76.2Y-81.28
X76.2Y-86.36
X76.2Y-93.98
X76.2Y-99.06
X76.2Y-106.68
X76.2Y-111.76
X76.2Y-119.38
X78.74Y-60.96
X78.74Y-68.58
X78.74Y-73.66
X78.74Y-81.28
X78.74Y-86.36
X78.74Y-93.98
X78.74Y-99.06
X78.74Y-106.68
X78.74Y-111.76
X78.74Y-119.38
X81.28Y-60.96
X81.28Y-68.58
X81.28Y-73.66
X81.28Y-81.28
X81.28Y-86.36
X81.28Y-93.98
X81.28Y-99.06
X81.28Y-106.68
X81.28Y-111.76
X81.28Y-119.38
X86.36Y-60.96
X86.36Y-65.96
X86.36Y-73.66
X86.36Y-78.66
X86.36Y-86.36
X86.36Y-91.36
X86.36Y-99.06
X86.36Y-104.06
X86.36Y-111.76
X86.36Y-116.76
X91.44Y-60.96
X91.44Y-68.58
X91.44Y-73.66
X91.44Y-81.28
X91.44Y-86.36
X91.44Y-93.98
X91.44Y-99.06
X91.44Y-106.68
X91.44Y-111.76
X91.44Y-119.38
X93.98Y-60.96
X93.98Y-68.58
X93.98Y-73.66
X93.98Y-81.28
X93.98Y-86.36
X93.98Y-93.98
X93.98Y-99.06
X93.98Y-106.68
X93.98Y-111.76
X93.98Y-119.38
X96.52Y-60.96
X96.52Y-68.58
X96.52Y-73.66
X96.52Y-81.28
X96.52Y-86.36
X96.52Y-93.98
X96.52Y-99.06
X96.52Y-106.68
X96.52Y-111.76
X96.52Y-119.38
X99.06Y-60.96
X99.06Y-68.58
X99.06Y-73.66
X99.06Y-81.28
X99.06Y-86.36
X99.06Y-93.98
X99.06Y-99.06
X99.06Y-106.68
X99.06Y-111.76
X99.06Y-119.38
X101.6Y-60.96
X101.6Y-68.58
X101.6Y-73.66
X101.6Y-81.28
X101.6Y-86.36
X101.6Y-93.98
X101.6Y-99.06
X101.6Y-106.68
X101.6Y-111.76
X101.6Y-119.38
X104.14Y-60.96
X104.14Y-68.58
X104.14Y-73.66
X104.14Y-81.28
X104.14Y-86.36
X104.14Y-93.98
X104.14Y-99.06
X104.14Y-106.68
X104.14Y-111.76
X104.14Y-119.38
X106.68Y-60.96
X106.68Y-68.58
X106.68Y-73.66
X106.68Y-81.28
X106.68Y-86.36
X106.68Y-93.98
X106.68Y-99.06
X106.68Y-106.68
X106.68Y-111.76
X106.68Y-119.38
X109.22Y-60.96
X109.22Y-68.58
X109.22Y-73.66
X109.22Y-81.28
X109.22Y-86.36
X109.22Y-93.98
X109.22Y-99.06
X109.22Y-106.68
X109.22Y-111.76
X109.22Y-119.38
X111.76Y-60.96
X111.76Y-68.58
X111.76Y-73.66
X111.76Y-81.28
X111.76Y-86.36
X111.76Y-93.98
X111.76Y-99.06
X111.76Y-106.68
X111.76Y-111.76
X111.76Y-119.38
X114.3Y-60.96
X114.3Y-68.58
X114.3Y-73.66
X114.3Y-81.28
X114.3Y-86.36
X114.3Y-93.98
X114.3Y-99.06
X114.3Y-106.68
X114.3Y-111.76
X114.3Y-119.38
X119.38Y-99.06
X119.38Y-104.06
X119.38Y-111.76
X119.38Y-116.76
X124.46Y-99.06
X124.46Y-106.68
X124.46Y-111.76
X124.46Y-119.38
X127.0Y-99.06
X127.0Y-106.68
X127.0Y-111.76
X127.0Y-119.38
X129.54Y-99.06
X129.54Y-106.68
X129.54Y-111.76
X129.54Y-119.38
X132.08Y-99.06
X132.08Y-106.68
X132.08Y-111.76
X132.08Y-119.38
X134.62Y-99.06
X134.62Y-106.68
X134.62Y-111.76
X134.62Y-119.38
X137.16Y-99.06
X137.16Y-106.68
X137.16Y-111.76
X137.16Y-119.38
X139.7Y-99.06
X139.7Y-106.68
X139.7Y-111.76
X139.7Y-119.38
X142.24Y-99.06
X142.24Y-106.68
X142.24Y-111.76
X142.24Y-119.38
X142.28Y-81.28
X144.78Y-81.28
X144.78Y-99.06
X144.78Y-106.68
X144.78Y-111.76
X144.78Y-119.38
X147.32Y-99.06
X147.32Y-106.68
X147.32Y-111.76
X147.32Y-119.38
X151.13Y-76.2
X151.13Y-81.2
X152.4Y-99.06
X152.4Y-104.06
X152.4Y-111.76
X152.4Y-116.76
X156.21Y-76.2
X156.21Y-83.82
X157.48Y-99.06
X157.48Y-106.68
X157.48Y-111.76
X157.48Y-119.38
X158.75Y-76.2
X158.75Y-83.82
X160.02Y-99.06
X160.02Y-106.68
X160.02Y-111.76
X160.02Y-119.38
X161.29Y-76.2
X161.29Y-83.82
X162.56Y-71.12
X162.56Y-99.06
X162.56Y-106.68
X162.56Y-111.76
X162.56Y-119.38
X163.83Y-76.2
X163.83Y-83.82
X165.1Y-71.12
X165.1Y-99.06
X165.1Y-106.68
X165.1Y-111.76
X165.1Y-119.38
X166.37Y-76.2
X166.37Y-83.82
X167.64Y-71.12
X167.64Y-99.06
X167.64Y-106.68
X167.64Y-111.76
X167.64Y-119.38
X168.91Y-76.2
X168.91Y-83.82
X170.18Y-71.12
X170.18Y-99.06
X170.18Y-106.68
X170.18Y-111.76
X170.18Y-119.38
X171.45Y-76.2
X171.45Y-83.82
X172.72Y-71.12
X172.72Y-99.06
X172.72Y-106.68
X172.72Y-111.76
X172.72Y-119.38
X173.99Y-76.2
X173.99Y-83.82
X175.26Y-71.12
X175.26Y-99.06
X175.26Y-106.68
X175.26Y-111.76
X175.26Y-119.38
X175.26Y-127.0
X175.26Y-129.5
X176.53Y-76.2
X176.53Y-83.82
X177.8Y-71.12
X177.8Y-99.06
X177.8Y-106.68
X177.8Y-111.76
X177.8Y-119.38
X179.07Y-76.2
X179.07Y-83.82
X180.34Y-71.12
X180.34Y-99.06
X180.34Y-106.68
X180.34Y-111.76
X180.34Y-119.38
X180.34Y-124.46
X180.34Y-134.62
X182.88Y-71.12
X185.42Y-99.06
X185.42Y-104.06
X185.42Y-111.76
X185.42Y-116.76
X185.42Y-124.46
X185.42Y-129.46
X190.49Y-111.76
X190.49Y-119.38
X190.5Y-99.06
X190.5Y-106.68
X190.5Y-124.46
X190.5Y-132.08
X193.03Y-111.76
X193.03Y-119.38
X193.04Y-99.06
X193.04Y-106.68
X193.04Y-124.46
X193.04Y-132.08
X195.57Y-111.76
X195.57Y-119.38
X195.58Y-99.06
X195.58Y-106.68
X195.58Y-124.46
X195.58Y-132.08
X198.11Y-111.76
X198.11Y-119.38
X198.12Y-99.06
X198.12Y-106.68
X198.12Y-124.46
X198.12Y-132.08
X200.65Y-111.76
X200.65Y-119.38
X200.66Y-99.06
X200.66Y-106.68
X200.66Y-124.46
X200.66Y-132.08
X203.19Y-111.76
X203.19Y-119.38
X203.2Y-99.06
X203.2Y-106.68
X203.2Y-124.46
X203.2Y-132.08
X205.73Y-111.76
X205.73Y-119.38
X205.74Y-99.06
X205.74Y-106.68
X205.74Y-124.46
X205.74Y-132.08
X208.27Y-111.76
X208.27Y-119.38
X208.28Y-76.2
X208.28Y-81.2
X208.28Y-99.06
X208.28Y-106.68
X213.36Y-76.2
X213.36Y-83.82
X213.36Y-93.98
X213.36Y-99.06
X213.36Y-104.06
X213.36Y-111.76
X213.36Y-116.76
X213.36Y-124.46
X213.36Y-129.46
X215.9Y-76.2
X215.9Y-83.82
X215.9Y-93.98
X217.17Y-71.12
X218.44Y-76.2
X218.44Y-83.82
X218.44Y-93.98
X218.44Y-99.06
X218.44Y-106.68
X218.44Y-111.76
X218.44Y-119.38
X218.44Y-124.46
X218.44Y-132.08
X219.71Y-71.12
X220.98Y-76.2
X220.98Y-83.82
X220.98Y-93.98
X220.98Y-99.06
X220.98Y-106.68
X220.98Y-111.76
X220.98Y-119.38
X220.98Y-124.46
X220.98Y-132.08
X222.25Y-71.12
X223.52Y-76.2
X223.52Y-83.82
X223.52Y-93.98
X223.52Y-99.06
X223.52Y-106.68
X223.52Y-111.76
X223.52Y-119.38
X223.52Y-124.46
X223.52Y-132.08
X224.79Y-71.12
X226.06Y-76.2
X226.06Y-83.82
X226.06Y-93.98
X226.06Y-99.06
X226.06Y-106.68
X226.06Y-111.76
X226.06Y-119.38
X226.06Y-124.46
X226.06Y-132.08
X227.33Y-71.12
X228.6Y-76.2
X228.6Y-83.82
X228.6Y-93.98
X228.6Y-99.06
X228.6Y-106.68
X228.6Y-111.76
X228.6Y-119.38
X228.6Y-124.46
X228.6Y-132.08
X229.87Y-71.12
X231.14Y-76.2
X231.14Y-83.82
X231.14Y-93.98
X231.14Y-99.06
X231.14Y-106.68
X231.14Y-111.76
X231.14Y-119.38
X231.14Y-124.46
X231.14Y-132.08
X232.41Y-71.12
X233.68Y-76.2
X233.68Y-83.82
X233.68Y-93.98
X233.68Y-99.06
X233.68Y-106.68
X233.68Y-111.76
X233.68Y-119.38
X233.68Y-124.46
X233.68Y-132.08
X234.95Y-71.12
X236.22Y-76.2
X236.22Y-83.82
X236.22Y-99.06
X236.22Y-106.68
X236.22Y-124.46
X236.22Y-132.08
X237.49Y-71.12
X245.11Y-105.41
X245.11Y-115.57
X245.11Y-122.0
X245.11Y-127.0
X245.11Y-137.24
X245.11Y-142.24
X248.92Y-119.38
X248.92Y-129.54
X248.92Y-134.62
X248.92Y-144.78
T3
X147.256Y-63.5
X149.796Y-63.5
X153.67Y-63.5
X156.21Y-63.5
X160.02Y-63.5
X162.56Y-63.5
X166.37Y-63.5
X168.91Y-63.5
X172.72Y-63.5
X175.26Y-63.5
X179.07Y-63.5
X181.61Y-63.5
X185.42Y-63.5
X187.96Y-63.5
X191.77Y-63.5
X194.31Y-63.5
X204.47Y-63.5
X207.01Y-63.5
X210.82Y-63.5
X213.36Y-63.5
X217.17Y-63.5
X219.71Y-63.5
X223.52Y-63.5
X226.06Y-63.5
X229.87Y-63.5
X232.41Y-63.5
X236.22Y-63.5
X238.76Y-63.5
X242.57Y-63.5
X245.11Y-63.5
X248.92Y-63.5
X251.46Y-63.5
T4
X63.5Y-144.78
X66.04Y-144.78
X68.58Y-144.78
X71.12Y-144.78
X73.66Y-144.78
X76.2Y-144.78
X78.74Y-144.78
X81.28Y-144.78
X83.82Y-144.78
X86.36Y-144.78
X99.06Y-144.78
X101.6Y-144.78
X104.14Y-144.78
X106.68Y-144.78
X109.22Y-144.78
X111.76Y-144.78
X114.3Y-144.78
X116.84Y-144.78
X119.38Y-144.78
X121.92Y-144.78
X124.46Y-144.78
X127.0Y-144.78
X129.54Y-144.78
X132.08Y-144.78
X134.62Y-144.78
X137.16Y-144.78
X162.56Y-144.78
X165.1Y-144.78
X167.64Y-144.78
X170.18Y-144.78
X172.72Y-144.78
X175.26Y-144.78
X177.8Y-144.78
X180.34Y-144.78
X182.88Y-144.78
X185.42Y-144.78
X187.96Y-144.78
X190.5Y-144.78
X193.04Y-144.78
X195.58Y-144.78
X198.12Y-144.78
X200.66Y-144.78
X203.2Y-144.78
X205.74Y-144.78
X208.28Y-144.78
X210.82Y-144.78
X213.36Y-144.78
X215.9Y-144.78
X218.44Y-144.78
X220.98Y-144.78
X223.52Y-144.78
X226.06Y-144.78
X228.6Y-144.78
X231.14Y-144.78
X233.68Y-144.78
X236.22Y-144.78
X238.76Y-144.78
X241.3Y-78.74
X241.3Y-81.28
X241.3Y-83.82
X241.3Y-91.44
X241.3Y-93.98
X241.3Y-96.52
X241.3Y-144.78
X248.92Y-74.676
X248.92Y-108.966
X248.92Y-111.506
X251.46Y-74.676
T0
M30
