G04 #@! TF.GenerationSoftware,KiCad,Pcbnew,(7.0.0)*
G04 #@! TF.CreationDate,2024-11-17T17:29:26-08:00*
G04 #@! TF.ProjectId,multi_register,6d756c74-695f-4726-9567-69737465722e,rev?*
G04 #@! TF.SameCoordinates,Original*
G04 #@! TF.FileFunction,Legend,Bot*
G04 #@! TF.FilePolarity,Positive*
%FSLAX46Y46*%
G04 Gerber Fmt 4.6, Leading zero omitted, Abs format (unit mm)*
G04 Created by KiCad (PCBNEW (7.0.0)) date 2024-11-17 17:29:26*
%MOMM*%
%LPD*%
G01*
G04 APERTURE LIST*
%ADD10R,1.600000X1.600000*%
%ADD11O,1.600000X1.600000*%
%ADD12C,1.600000*%
%ADD13R,1.800000X1.800000*%
%ADD14C,1.800000*%
%ADD15R,1.700000X1.700000*%
%ADD16O,1.700000X1.700000*%
G04 APERTURE END LIST*
%LPC*%
D10*
X91439999Y-119379999D03*
D11*
X93979999Y-119379999D03*
X96519999Y-119379999D03*
X99059999Y-119379999D03*
X101599999Y-119379999D03*
X104139999Y-119379999D03*
X106679999Y-119379999D03*
X109219999Y-119379999D03*
X111759999Y-119379999D03*
X114299999Y-119379999D03*
X114299999Y-111759999D03*
X111759999Y-111759999D03*
X109219999Y-111759999D03*
X106679999Y-111759999D03*
X104139999Y-111759999D03*
X101599999Y-111759999D03*
X99059999Y-111759999D03*
X96519999Y-111759999D03*
X93979999Y-111759999D03*
X91439999Y-111759999D03*
D12*
X245110000Y-122000000D03*
X245110000Y-127000000D03*
D10*
X124459999Y-119379999D03*
D11*
X126999999Y-119379999D03*
X129539999Y-119379999D03*
X132079999Y-119379999D03*
X134619999Y-119379999D03*
X137159999Y-119379999D03*
X139699999Y-119379999D03*
X142239999Y-119379999D03*
X144779999Y-119379999D03*
X147319999Y-119379999D03*
X147319999Y-111759999D03*
X144779999Y-111759999D03*
X142239999Y-111759999D03*
X139699999Y-111759999D03*
X137159999Y-111759999D03*
X134619999Y-111759999D03*
X132079999Y-111759999D03*
X129539999Y-111759999D03*
X126999999Y-111759999D03*
X124459999Y-111759999D03*
D12*
X53340000Y-65960000D03*
X53340000Y-60960000D03*
D13*
X187959999Y-63499999D03*
D14*
X185420000Y-63500000D03*
D12*
X208280000Y-81200000D03*
X208280000Y-76200000D03*
X248920000Y-119380000D03*
D11*
X248919999Y-129539999D03*
D10*
X91439999Y-81279999D03*
D11*
X93979999Y-81279999D03*
X96519999Y-81279999D03*
X99059999Y-81279999D03*
X101599999Y-81279999D03*
X104139999Y-81279999D03*
X106679999Y-81279999D03*
X109219999Y-81279999D03*
X111759999Y-81279999D03*
X114299999Y-81279999D03*
X114299999Y-73659999D03*
X111759999Y-73659999D03*
X109219999Y-73659999D03*
X106679999Y-73659999D03*
X104139999Y-73659999D03*
X101599999Y-73659999D03*
X99059999Y-73659999D03*
X96519999Y-73659999D03*
X93979999Y-73659999D03*
X91439999Y-73659999D03*
D12*
X245110000Y-105410000D03*
D11*
X245109999Y-115569999D03*
D12*
X151130000Y-81200000D03*
X151130000Y-76200000D03*
D10*
X91439999Y-68579999D03*
D11*
X93979999Y-68579999D03*
X96519999Y-68579999D03*
X99059999Y-68579999D03*
X101599999Y-68579999D03*
X104139999Y-68579999D03*
X106679999Y-68579999D03*
X109219999Y-68579999D03*
X111759999Y-68579999D03*
X114299999Y-68579999D03*
X114299999Y-60959999D03*
X111759999Y-60959999D03*
X109219999Y-60959999D03*
X106679999Y-60959999D03*
X104139999Y-60959999D03*
X101599999Y-60959999D03*
X99059999Y-60959999D03*
X96519999Y-60959999D03*
X93979999Y-60959999D03*
X91439999Y-60959999D03*
D10*
X190499999Y-106679999D03*
D11*
X193039999Y-106679999D03*
X195579999Y-106679999D03*
X198119999Y-106679999D03*
X200659999Y-106679999D03*
X203199999Y-106679999D03*
X205739999Y-106679999D03*
X208279999Y-106679999D03*
X208279999Y-99059999D03*
X205739999Y-99059999D03*
X203199999Y-99059999D03*
X200659999Y-99059999D03*
X198119999Y-99059999D03*
X195579999Y-99059999D03*
X193039999Y-99059999D03*
X190499999Y-99059999D03*
D13*
X251459999Y-63499999D03*
D14*
X248920000Y-63500000D03*
D13*
X213359999Y-63499999D03*
D14*
X210820000Y-63500000D03*
D13*
X245109999Y-63499999D03*
D14*
X242570000Y-63500000D03*
D10*
X213359999Y-83819999D03*
D11*
X215899999Y-83819999D03*
X218439999Y-83819999D03*
X220979999Y-83819999D03*
X223519999Y-83819999D03*
X226059999Y-83819999D03*
X228599999Y-83819999D03*
X231139999Y-83819999D03*
X233679999Y-83819999D03*
X236219999Y-83819999D03*
X236219999Y-76199999D03*
X233679999Y-76199999D03*
X231139999Y-76199999D03*
X228599999Y-76199999D03*
X226059999Y-76199999D03*
X223519999Y-76199999D03*
X220979999Y-76199999D03*
X218439999Y-76199999D03*
X215899999Y-76199999D03*
X213359999Y-76199999D03*
D13*
X149796499Y-63499999D03*
D14*
X147256500Y-63500000D03*
D12*
X86360000Y-65960000D03*
X86360000Y-60960000D03*
X53340000Y-104060000D03*
X53340000Y-99060000D03*
D10*
X60959999Y-134619999D03*
D12*
X60960000Y-132120000D03*
D13*
X207009999Y-63499999D03*
D14*
X204470000Y-63500000D03*
D13*
X181609999Y-63499999D03*
D14*
X179070000Y-63500000D03*
D12*
X185420000Y-104060000D03*
X185420000Y-99060000D03*
X248920000Y-144780000D03*
D11*
X248919999Y-134619999D03*
D15*
X241299999Y-78739999D03*
D16*
X241299999Y-81279999D03*
X241299999Y-83819999D03*
D13*
X219709999Y-63499999D03*
D14*
X217170000Y-63500000D03*
D10*
X58419999Y-119379999D03*
D11*
X60959999Y-119379999D03*
X63499999Y-119379999D03*
X66039999Y-119379999D03*
X68579999Y-119379999D03*
X71119999Y-119379999D03*
X73659999Y-119379999D03*
X76199999Y-119379999D03*
X78739999Y-119379999D03*
X81279999Y-119379999D03*
X81279999Y-111759999D03*
X78739999Y-111759999D03*
X76199999Y-111759999D03*
X73659999Y-111759999D03*
X71119999Y-111759999D03*
X68579999Y-111759999D03*
X66039999Y-111759999D03*
X63499999Y-111759999D03*
X60959999Y-111759999D03*
X58419999Y-111759999D03*
D12*
X245110000Y-142240000D03*
X245110000Y-137240000D03*
X213360000Y-116760000D03*
X213360000Y-111760000D03*
D10*
X91439999Y-106679999D03*
D11*
X93979999Y-106679999D03*
X96519999Y-106679999D03*
X99059999Y-106679999D03*
X101599999Y-106679999D03*
X104139999Y-106679999D03*
X106679999Y-106679999D03*
X109219999Y-106679999D03*
X111759999Y-106679999D03*
X114299999Y-106679999D03*
X114299999Y-99059999D03*
X111759999Y-99059999D03*
X109219999Y-99059999D03*
X106679999Y-99059999D03*
X104139999Y-99059999D03*
X101599999Y-99059999D03*
X99059999Y-99059999D03*
X96519999Y-99059999D03*
X93979999Y-99059999D03*
X91439999Y-99059999D03*
D15*
X248919999Y-74675999D03*
D16*
X251459999Y-74675999D03*
D10*
X175259999Y-126999999D03*
D12*
X175260000Y-129500000D03*
D13*
X194309999Y-63499999D03*
D14*
X191770000Y-63500000D03*
D10*
X218439999Y-106679999D03*
D11*
X220979999Y-106679999D03*
X223519999Y-106679999D03*
X226059999Y-106679999D03*
X228599999Y-106679999D03*
X231139999Y-106679999D03*
X233679999Y-106679999D03*
X236219999Y-106679999D03*
X236219999Y-99059999D03*
X233679999Y-99059999D03*
X231139999Y-99059999D03*
X228599999Y-99059999D03*
X226059999Y-99059999D03*
X223519999Y-99059999D03*
X220979999Y-99059999D03*
X218439999Y-99059999D03*
D10*
X218439999Y-119379999D03*
D11*
X220979999Y-119379999D03*
X223519999Y-119379999D03*
X226059999Y-119379999D03*
X228599999Y-119379999D03*
X231139999Y-119379999D03*
X233679999Y-119379999D03*
X233679999Y-111759999D03*
X231139999Y-111759999D03*
X228599999Y-111759999D03*
X226059999Y-111759999D03*
X223519999Y-111759999D03*
X220979999Y-111759999D03*
X218439999Y-111759999D03*
D12*
X86360000Y-78660000D03*
X86360000Y-73660000D03*
D10*
X58419999Y-81279999D03*
D11*
X60959999Y-81279999D03*
X63499999Y-81279999D03*
X66039999Y-81279999D03*
X68579999Y-81279999D03*
X71119999Y-81279999D03*
X73659999Y-81279999D03*
X76199999Y-81279999D03*
X78739999Y-81279999D03*
X81279999Y-81279999D03*
X81279999Y-73659999D03*
X78739999Y-73659999D03*
X76199999Y-73659999D03*
X73659999Y-73659999D03*
X71119999Y-73659999D03*
X68579999Y-73659999D03*
X66039999Y-73659999D03*
X63499999Y-73659999D03*
X60959999Y-73659999D03*
X58419999Y-73659999D03*
D13*
X226059999Y-63499999D03*
D14*
X223520000Y-63500000D03*
D10*
X144779999Y-81279999D03*
D12*
X142280000Y-81280000D03*
X152400000Y-104060000D03*
X152400000Y-99060000D03*
X53340000Y-78660000D03*
X53340000Y-73660000D03*
X213360000Y-104060000D03*
X213360000Y-99060000D03*
D10*
X58419999Y-93979999D03*
D11*
X60959999Y-93979999D03*
X63499999Y-93979999D03*
X66039999Y-93979999D03*
X68579999Y-93979999D03*
X71119999Y-93979999D03*
X73659999Y-93979999D03*
X76199999Y-93979999D03*
X78739999Y-93979999D03*
X81279999Y-93979999D03*
X81279999Y-86359999D03*
X78739999Y-86359999D03*
X76199999Y-86359999D03*
X73659999Y-86359999D03*
X71119999Y-86359999D03*
X68579999Y-86359999D03*
X66039999Y-86359999D03*
X63499999Y-86359999D03*
X60959999Y-86359999D03*
X58419999Y-86359999D03*
D12*
X119380000Y-104060000D03*
X119380000Y-99060000D03*
D10*
X182879999Y-71119999D03*
D11*
X180339999Y-71119999D03*
X177799999Y-71119999D03*
X175259999Y-71119999D03*
X172719999Y-71119999D03*
X170179999Y-71119999D03*
X167639999Y-71119999D03*
X165099999Y-71119999D03*
X162559999Y-71119999D03*
D12*
X185420000Y-116760000D03*
X185420000Y-111760000D03*
X86360000Y-116760000D03*
X86360000Y-111760000D03*
X53340000Y-91360000D03*
X53340000Y-86360000D03*
D10*
X218439999Y-132079999D03*
D11*
X220979999Y-132079999D03*
X223519999Y-132079999D03*
X226059999Y-132079999D03*
X228599999Y-132079999D03*
X231139999Y-132079999D03*
X233679999Y-132079999D03*
X236219999Y-132079999D03*
X236219999Y-124459999D03*
X233679999Y-124459999D03*
X231139999Y-124459999D03*
X228599999Y-124459999D03*
X226059999Y-124459999D03*
X223519999Y-124459999D03*
X220979999Y-124459999D03*
X218439999Y-124459999D03*
D15*
X86359999Y-144779999D03*
D16*
X83819999Y-144779999D03*
X81279999Y-144779999D03*
X78739999Y-144779999D03*
X76199999Y-144779999D03*
X73659999Y-144779999D03*
X71119999Y-144779999D03*
X68579999Y-144779999D03*
X66039999Y-144779999D03*
X63499999Y-144779999D03*
D13*
X232409999Y-63499999D03*
D14*
X229870000Y-63500000D03*
D13*
X238759999Y-63499999D03*
D14*
X236220000Y-63500000D03*
D12*
X53340000Y-116760000D03*
X53340000Y-111760000D03*
X86360000Y-91360000D03*
X86360000Y-86360000D03*
X152400000Y-116760000D03*
X152400000Y-111760000D03*
D15*
X137159999Y-144779999D03*
D16*
X134619999Y-144779999D03*
X132079999Y-144779999D03*
X129539999Y-144779999D03*
X126999999Y-144779999D03*
X124459999Y-144779999D03*
X121919999Y-144779999D03*
X119379999Y-144779999D03*
X116839999Y-144779999D03*
X114299999Y-144779999D03*
X111759999Y-144779999D03*
X109219999Y-144779999D03*
X106679999Y-144779999D03*
X104139999Y-144779999D03*
X101599999Y-144779999D03*
X99059999Y-144779999D03*
D10*
X190489999Y-119379999D03*
D11*
X193029999Y-119379999D03*
X195569999Y-119379999D03*
X198109999Y-119379999D03*
X200649999Y-119379999D03*
X203189999Y-119379999D03*
X205729999Y-119379999D03*
X208269999Y-119379999D03*
X208269999Y-111759999D03*
X205729999Y-111759999D03*
X203189999Y-111759999D03*
X200649999Y-111759999D03*
X198109999Y-111759999D03*
X195569999Y-111759999D03*
X193029999Y-111759999D03*
X190489999Y-111759999D03*
D10*
X213359999Y-93979999D03*
D11*
X215899999Y-93979999D03*
X218439999Y-93979999D03*
X220979999Y-93979999D03*
X223519999Y-93979999D03*
X226059999Y-93979999D03*
X228599999Y-93979999D03*
X231139999Y-93979999D03*
X233679999Y-93979999D03*
D10*
X190499999Y-132079999D03*
D11*
X193039999Y-132079999D03*
X195579999Y-132079999D03*
X198119999Y-132079999D03*
X200659999Y-132079999D03*
X203199999Y-132079999D03*
X205739999Y-132079999D03*
X205739999Y-124459999D03*
X203199999Y-124459999D03*
X200659999Y-124459999D03*
X198119999Y-124459999D03*
X195579999Y-124459999D03*
X193039999Y-124459999D03*
X190499999Y-124459999D03*
D10*
X124459999Y-106679999D03*
D11*
X126999999Y-106679999D03*
X129539999Y-106679999D03*
X132079999Y-106679999D03*
X134619999Y-106679999D03*
X137159999Y-106679999D03*
X139699999Y-106679999D03*
X142239999Y-106679999D03*
X144779999Y-106679999D03*
X147319999Y-106679999D03*
X147319999Y-99059999D03*
X144779999Y-99059999D03*
X142239999Y-99059999D03*
X139699999Y-99059999D03*
X137159999Y-99059999D03*
X134619999Y-99059999D03*
X132079999Y-99059999D03*
X129539999Y-99059999D03*
X126999999Y-99059999D03*
X124459999Y-99059999D03*
D10*
X157479999Y-106679999D03*
D11*
X160019999Y-106679999D03*
X162559999Y-106679999D03*
X165099999Y-106679999D03*
X167639999Y-106679999D03*
X170179999Y-106679999D03*
X172719999Y-106679999D03*
X175259999Y-106679999D03*
X177799999Y-106679999D03*
X180339999Y-106679999D03*
X180339999Y-99059999D03*
X177799999Y-99059999D03*
X175259999Y-99059999D03*
X172719999Y-99059999D03*
X170179999Y-99059999D03*
X167639999Y-99059999D03*
X165099999Y-99059999D03*
X162559999Y-99059999D03*
X160019999Y-99059999D03*
X157479999Y-99059999D03*
D15*
X241299999Y-91439999D03*
D16*
X241299999Y-93979999D03*
X241299999Y-96519999D03*
D12*
X119380000Y-116760000D03*
X119380000Y-111760000D03*
D13*
X168909999Y-63499999D03*
D14*
X166370000Y-63500000D03*
D12*
X213360000Y-129460000D03*
X213360000Y-124460000D03*
D15*
X248919999Y-108965999D03*
D16*
X248919999Y-111505999D03*
D15*
X241299999Y-144779999D03*
D16*
X238759999Y-144779999D03*
X236219999Y-144779999D03*
X233679999Y-144779999D03*
X231139999Y-144779999D03*
X228599999Y-144779999D03*
X226059999Y-144779999D03*
X223519999Y-144779999D03*
X220979999Y-144779999D03*
X218439999Y-144779999D03*
X215899999Y-144779999D03*
X213359999Y-144779999D03*
X210819999Y-144779999D03*
X208279999Y-144779999D03*
X205739999Y-144779999D03*
X203199999Y-144779999D03*
X200659999Y-144779999D03*
X198119999Y-144779999D03*
X195579999Y-144779999D03*
X193039999Y-144779999D03*
X190499999Y-144779999D03*
X187959999Y-144779999D03*
X185419999Y-144779999D03*
X182879999Y-144779999D03*
X180339999Y-144779999D03*
X177799999Y-144779999D03*
X175259999Y-144779999D03*
X172719999Y-144779999D03*
X170179999Y-144779999D03*
X167639999Y-144779999D03*
X165099999Y-144779999D03*
X162559999Y-144779999D03*
D13*
X162559999Y-63499999D03*
D14*
X160020000Y-63500000D03*
D12*
X185420000Y-129460000D03*
X185420000Y-124460000D03*
D13*
X175259999Y-63499999D03*
D14*
X172720000Y-63500000D03*
D10*
X91439999Y-93979999D03*
D11*
X93979999Y-93979999D03*
X96519999Y-93979999D03*
X99059999Y-93979999D03*
X101599999Y-93979999D03*
X104139999Y-93979999D03*
X106679999Y-93979999D03*
X109219999Y-93979999D03*
X111759999Y-93979999D03*
X114299999Y-93979999D03*
X114299999Y-86359999D03*
X111759999Y-86359999D03*
X109219999Y-86359999D03*
X106679999Y-86359999D03*
X104139999Y-86359999D03*
X101599999Y-86359999D03*
X99059999Y-86359999D03*
X96519999Y-86359999D03*
X93979999Y-86359999D03*
X91439999Y-86359999D03*
D12*
X180340000Y-134620000D03*
D11*
X180339999Y-124459999D03*
D10*
X156209999Y-83819999D03*
D11*
X158749999Y-83819999D03*
X161289999Y-83819999D03*
X163829999Y-83819999D03*
X166369999Y-83819999D03*
X168909999Y-83819999D03*
X171449999Y-83819999D03*
X173989999Y-83819999D03*
X176529999Y-83819999D03*
X179069999Y-83819999D03*
X179069999Y-76199999D03*
X176529999Y-76199999D03*
X173989999Y-76199999D03*
X171449999Y-76199999D03*
X168909999Y-76199999D03*
X166369999Y-76199999D03*
X163829999Y-76199999D03*
X161289999Y-76199999D03*
X158749999Y-76199999D03*
X156209999Y-76199999D03*
D10*
X157479999Y-119379999D03*
D11*
X160019999Y-119379999D03*
X162559999Y-119379999D03*
X165099999Y-119379999D03*
X167639999Y-119379999D03*
X170179999Y-119379999D03*
X172719999Y-119379999D03*
X175259999Y-119379999D03*
X177799999Y-119379999D03*
X180339999Y-119379999D03*
X180339999Y-111759999D03*
X177799999Y-111759999D03*
X175259999Y-111759999D03*
X172719999Y-111759999D03*
X170179999Y-111759999D03*
X167639999Y-111759999D03*
X165099999Y-111759999D03*
X162559999Y-111759999D03*
X160019999Y-111759999D03*
X157479999Y-111759999D03*
D12*
X86360000Y-104060000D03*
X86360000Y-99060000D03*
D13*
X156209999Y-63499999D03*
D14*
X153670000Y-63500000D03*
D10*
X58419999Y-106679999D03*
D11*
X60959999Y-106679999D03*
X63499999Y-106679999D03*
X66039999Y-106679999D03*
X68579999Y-106679999D03*
X71119999Y-106679999D03*
X73659999Y-106679999D03*
X76199999Y-106679999D03*
X78739999Y-106679999D03*
X81279999Y-106679999D03*
X81279999Y-99059999D03*
X78739999Y-99059999D03*
X76199999Y-99059999D03*
X73659999Y-99059999D03*
X71119999Y-99059999D03*
X68579999Y-99059999D03*
X66039999Y-99059999D03*
X63499999Y-99059999D03*
X60959999Y-99059999D03*
X58419999Y-99059999D03*
D10*
X58419999Y-68579999D03*
D11*
X60959999Y-68579999D03*
X63499999Y-68579999D03*
X66039999Y-68579999D03*
X68579999Y-68579999D03*
X71119999Y-68579999D03*
X73659999Y-68579999D03*
X76199999Y-68579999D03*
X78739999Y-68579999D03*
X81279999Y-68579999D03*
X81279999Y-60959999D03*
X78739999Y-60959999D03*
X76199999Y-60959999D03*
X73659999Y-60959999D03*
X71119999Y-60959999D03*
X68579999Y-60959999D03*
X66039999Y-60959999D03*
X63499999Y-60959999D03*
X60959999Y-60959999D03*
X58419999Y-60959999D03*
D10*
X237489999Y-71119999D03*
D11*
X234949999Y-71119999D03*
X232409999Y-71119999D03*
X229869999Y-71119999D03*
X227329999Y-71119999D03*
X224789999Y-71119999D03*
X222249999Y-71119999D03*
X219709999Y-71119999D03*
X217169999Y-71119999D03*
M02*
