%TF.GenerationSoftware,KiCad,Pcbnew,(7.0.0)*%
%TF.CreationDate,2024-11-17T17:22:16-08:00*%
%TF.ProjectId,shift_rot,73686966-745f-4726-9f74-2e6b69636164,rev?*%
%TF.SameCoordinates,Original*%
%TF.FileFunction,Drillmap*%
%TF.FilePolarity,Positive*%
%FSLAX45Y45*%
G04 Gerber Fmt 4.5, Leading zero omitted, Abs format (unit mm)*
G04 Created by KiCad (PCBNEW (7.0.0)) date 2024-11-17 17:22:16*
%MOMM*%
%LPD*%
G01*
G04 APERTURE LIST*
%ADD10C,0.050000*%
%ADD11C,0.200000*%
%ADD12C,0.038100*%
%ADD13C,0.080000*%
%ADD14C,0.090000*%
%ADD15C,0.100000*%
G04 APERTURE END LIST*
D10*
X5270500Y-14859000D02*
X25209500Y-14859000D01*
X5080000Y-14668500D02*
G75*
G03*
X5270500Y-14859000I190500J0D01*
G01*
X5080000Y-5270500D02*
X5080000Y-14668500D01*
X25209500Y-14859000D02*
G75*
G03*
X25400000Y-14668500I0J190500D01*
G01*
X5270500Y-5080000D02*
G75*
G03*
X5080000Y-5270500I0J-190500D01*
G01*
X25209500Y-5080000D02*
X5270500Y-5080000D01*
X25400000Y-5270500D02*
G75*
G03*
X25209500Y-5080000I-190500J0D01*
G01*
X25400000Y-14668500D02*
X25400000Y-5270500D01*
D11*
D12*
X6076950Y-12757150D02*
X6115050Y-12795250D01*
X6115050Y-12757150D02*
X6076950Y-12795250D01*
X6330950Y-8007350D02*
X6369050Y-8045450D01*
X6369050Y-8007350D02*
X6330950Y-8045450D01*
X6457950Y-10521950D02*
X6496050Y-10560050D01*
X6496050Y-10521950D02*
X6457950Y-10560050D01*
X6584950Y-10852150D02*
X6623050Y-10890250D01*
X6623050Y-10852150D02*
X6584950Y-10890250D01*
X6584950Y-11309350D02*
X6623050Y-11347450D01*
X6623050Y-11309350D02*
X6584950Y-11347450D01*
X6584950Y-12833350D02*
X6623050Y-12871450D01*
X6623050Y-12833350D02*
X6584950Y-12871450D01*
X6711950Y-7423150D02*
X6750050Y-7461250D01*
X6750050Y-7423150D02*
X6711950Y-7461250D01*
X6711950Y-7567880D02*
X6750050Y-7605980D01*
X6750050Y-7567880D02*
X6711950Y-7605980D01*
X6711950Y-10521950D02*
X6750050Y-10560050D01*
X6750050Y-10521950D02*
X6711950Y-10560050D01*
X6711950Y-12299950D02*
X6750050Y-12338050D01*
X6750050Y-12299950D02*
X6711950Y-12338050D01*
X6711950Y-12833350D02*
X6750050Y-12871450D01*
X6750050Y-12833350D02*
X6711950Y-12871450D01*
X6838950Y-12833350D02*
X6877050Y-12871450D01*
X6877050Y-12833350D02*
X6838950Y-12871450D01*
X6965950Y-7346950D02*
X7004050Y-7385050D01*
X7004050Y-7346950D02*
X6965950Y-7385050D01*
X6965950Y-7575550D02*
X7004050Y-7613650D01*
X7004050Y-7575550D02*
X6965950Y-7613650D01*
X6965950Y-11512550D02*
X7004050Y-11550650D01*
X7004050Y-11512550D02*
X6965950Y-11550650D01*
X6965950Y-12299950D02*
X7004050Y-12338050D01*
X7004050Y-12299950D02*
X6965950Y-12338050D01*
X6965950Y-12833350D02*
X7004050Y-12871450D01*
X7004050Y-12833350D02*
X6965950Y-12871450D01*
X7219950Y-7270750D02*
X7258050Y-7308850D01*
X7258050Y-7270750D02*
X7219950Y-7308850D01*
X7219950Y-7575550D02*
X7258050Y-7613650D01*
X7258050Y-7575550D02*
X7219950Y-7613650D01*
X7219950Y-11309350D02*
X7258050Y-11347450D01*
X7258050Y-11309350D02*
X7219950Y-11347450D01*
X7473950Y-7194550D02*
X7512050Y-7232650D01*
X7512050Y-7194550D02*
X7473950Y-7232650D01*
X7473950Y-7575550D02*
X7512050Y-7613650D01*
X7512050Y-7575550D02*
X7473950Y-7613650D01*
X7473950Y-11512550D02*
X7512050Y-11550650D01*
X7512050Y-11512550D02*
X7473950Y-11550650D01*
X7600950Y-12833350D02*
X7639050Y-12871450D01*
X7639050Y-12833350D02*
X7600950Y-12871450D01*
X7727950Y-7118350D02*
X7766050Y-7156450D01*
X7766050Y-7118350D02*
X7727950Y-7156450D01*
X7727950Y-7575550D02*
X7766050Y-7613650D01*
X7766050Y-7575550D02*
X7727950Y-7613650D01*
X7727950Y-12299950D02*
X7766050Y-12338050D01*
X7766050Y-12299950D02*
X7727950Y-12338050D01*
X7727950Y-12833350D02*
X7766050Y-12871450D01*
X7766050Y-12833350D02*
X7727950Y-12871450D01*
X7854950Y-12833350D02*
X7893050Y-12871450D01*
X7893050Y-12833350D02*
X7854950Y-12871450D01*
X7981950Y-7042150D02*
X8020050Y-7080250D01*
X8020050Y-7042150D02*
X7981950Y-7080250D01*
X7981950Y-7575550D02*
X8020050Y-7613650D01*
X8020050Y-7575550D02*
X7981950Y-7613650D01*
X8108950Y-12122150D02*
X8147050Y-12160250D01*
X8147050Y-12122150D02*
X8108950Y-12160250D01*
X8159750Y-10826750D02*
X8197850Y-10864850D01*
X8197850Y-10826750D02*
X8159750Y-10864850D01*
X8235950Y-8947150D02*
X8274050Y-8985250D01*
X8274050Y-8947150D02*
X8235950Y-8985250D01*
X8235950Y-12299950D02*
X8274050Y-12338050D01*
X8274050Y-12299950D02*
X8235950Y-12338050D01*
X8235950Y-12833350D02*
X8274050Y-12871450D01*
X8274050Y-12833350D02*
X8235950Y-12871450D01*
X8464550Y-10242550D02*
X8502650Y-10280650D01*
X8502650Y-10242550D02*
X8464550Y-10280650D01*
X8489950Y-7981950D02*
X8528050Y-8020050D01*
X8528050Y-7981950D02*
X8489950Y-8020050D01*
X8489950Y-8947150D02*
X8528050Y-8985250D01*
X8528050Y-8947150D02*
X8489950Y-8985250D01*
X8489950Y-9251950D02*
X8528050Y-9290050D01*
X8528050Y-9251950D02*
X8489950Y-9290050D01*
X8566150Y-7778750D02*
X8604250Y-7816850D01*
X8604250Y-7778750D02*
X8566150Y-7816850D01*
X8566150Y-10826750D02*
X8604250Y-10864850D01*
X8604250Y-10826750D02*
X8566150Y-10864850D01*
X8642350Y-11614150D02*
X8680450Y-11652250D01*
X8680450Y-11614150D02*
X8642350Y-11652250D01*
X8693150Y-12528550D02*
X8731250Y-12566650D01*
X8731250Y-12528550D02*
X8693150Y-12566650D01*
X8769350Y-14154150D02*
X8807450Y-14192250D01*
X8807450Y-14154150D02*
X8769350Y-14192250D01*
X8997950Y-9404350D02*
X9036050Y-9442450D01*
X9036050Y-9404350D02*
X8997950Y-9442450D01*
X9023350Y-8870950D02*
X9061450Y-8909050D01*
X9061450Y-8870950D02*
X9023350Y-8909050D01*
X9023350Y-10140950D02*
X9061450Y-10179050D01*
X9061450Y-10140950D02*
X9023350Y-10179050D01*
X9023350Y-11944350D02*
X9061450Y-11982450D01*
X9061450Y-11944350D02*
X9023350Y-11982450D01*
X9031020Y-11410950D02*
X9069120Y-11449050D01*
X9069120Y-11410950D02*
X9031020Y-11449050D01*
X9226550Y-8870950D02*
X9264650Y-8909050D01*
X9264650Y-8870950D02*
X9226550Y-8909050D01*
X9226550Y-10140950D02*
X9264650Y-10179050D01*
X9264650Y-10140950D02*
X9226550Y-10179050D01*
X9226550Y-11410950D02*
X9264650Y-11449050D01*
X9264650Y-11410950D02*
X9226550Y-11449050D01*
X9226550Y-11944350D02*
X9264650Y-11982450D01*
X9264650Y-11944350D02*
X9226550Y-11982450D01*
X9251950Y-7727950D02*
X9290050Y-7766050D01*
X9290050Y-7727950D02*
X9251950Y-7766050D01*
X9251950Y-9404350D02*
X9290050Y-9442450D01*
X9290050Y-9404350D02*
X9251950Y-9442450D01*
X9378950Y-7651750D02*
X9417050Y-7689850D01*
X9417050Y-7651750D02*
X9378950Y-7689850D01*
X9378950Y-12757150D02*
X9417050Y-12795250D01*
X9417050Y-12757150D02*
X9378950Y-12795250D01*
X9429750Y-10242550D02*
X9467850Y-10280650D01*
X9467850Y-10242550D02*
X9429750Y-10280650D01*
X9429750Y-11512550D02*
X9467850Y-11550650D01*
X9467850Y-11512550D02*
X9429750Y-11550650D01*
X9505950Y-6965950D02*
X9544050Y-7004050D01*
X9544050Y-6965950D02*
X9505950Y-7004050D01*
X9505950Y-7575550D02*
X9544050Y-7613650D01*
X9544050Y-7575550D02*
X9505950Y-7613650D01*
X9759950Y-6889750D02*
X9798050Y-6927850D01*
X9798050Y-6889750D02*
X9759950Y-6927850D01*
X9759950Y-7575550D02*
X9798050Y-7613650D01*
X9798050Y-7575550D02*
X9759950Y-7613650D01*
X9759950Y-10547350D02*
X9798050Y-10585450D01*
X9798050Y-10547350D02*
X9759950Y-10585450D01*
X9886950Y-10877550D02*
X9925050Y-10915650D01*
X9925050Y-10877550D02*
X9886950Y-10915650D01*
X9886950Y-11309350D02*
X9925050Y-11347450D01*
X9925050Y-11309350D02*
X9886950Y-11347450D01*
X9886950Y-12833350D02*
X9925050Y-12871450D01*
X9925050Y-12833350D02*
X9886950Y-12871450D01*
X10013950Y-6813550D02*
X10052050Y-6851650D01*
X10052050Y-6813550D02*
X10013950Y-6851650D01*
X10013950Y-7575550D02*
X10052050Y-7613650D01*
X10052050Y-7575550D02*
X10013950Y-7613650D01*
X10013950Y-10547350D02*
X10052050Y-10585450D01*
X10052050Y-10547350D02*
X10013950Y-10585450D01*
X10013950Y-12299950D02*
X10052050Y-12338050D01*
X10052050Y-12299950D02*
X10013950Y-12338050D01*
X10013950Y-12833350D02*
X10052050Y-12871450D01*
X10052050Y-12833350D02*
X10013950Y-12871450D01*
X10140950Y-12833350D02*
X10179050Y-12871450D01*
X10179050Y-12833350D02*
X10140950Y-12871450D01*
X10140950Y-14001750D02*
X10179050Y-14039850D01*
X10179050Y-14001750D02*
X10140950Y-14039850D01*
X10140950Y-14154150D02*
X10179050Y-14192250D01*
X10179050Y-14154150D02*
X10140950Y-14192250D01*
X10267950Y-6737350D02*
X10306050Y-6775450D01*
X10306050Y-6737350D02*
X10267950Y-6775450D01*
X10267950Y-7575550D02*
X10306050Y-7613650D01*
X10306050Y-7575550D02*
X10267950Y-7613650D01*
X10267950Y-11512550D02*
X10306050Y-11550650D01*
X10306050Y-11512550D02*
X10267950Y-11550650D01*
X10267950Y-12299950D02*
X10306050Y-12338050D01*
X10306050Y-12299950D02*
X10267950Y-12338050D01*
X10267950Y-12833350D02*
X10306050Y-12871450D01*
X10306050Y-12833350D02*
X10267950Y-12871450D01*
X10394950Y-13925550D02*
X10433050Y-13963650D01*
X10433050Y-13925550D02*
X10394950Y-13963650D01*
X10394950Y-14154150D02*
X10433050Y-14192250D01*
X10433050Y-14154150D02*
X10394950Y-14192250D01*
X10521950Y-6661150D02*
X10560050Y-6699250D01*
X10560050Y-6661150D02*
X10521950Y-6699250D01*
X10521950Y-7575550D02*
X10560050Y-7613650D01*
X10560050Y-7575550D02*
X10521950Y-7613650D01*
X10521950Y-11309350D02*
X10560050Y-11347450D01*
X10560050Y-11309350D02*
X10521950Y-11347450D01*
X10648950Y-13849350D02*
X10687050Y-13887450D01*
X10687050Y-13849350D02*
X10648950Y-13887450D01*
X10648950Y-14154150D02*
X10687050Y-14192250D01*
X10687050Y-14154150D02*
X10648950Y-14192250D01*
X10775950Y-6584950D02*
X10814050Y-6623050D01*
X10814050Y-6584950D02*
X10775950Y-6623050D01*
X10775950Y-7575550D02*
X10814050Y-7613650D01*
X10814050Y-7575550D02*
X10775950Y-7613650D01*
X10775950Y-11512550D02*
X10814050Y-11550650D01*
X10814050Y-11512550D02*
X10775950Y-11550650D01*
X10902950Y-12833350D02*
X10941050Y-12871450D01*
X10941050Y-12833350D02*
X10902950Y-12871450D01*
X10902950Y-13773150D02*
X10941050Y-13811250D01*
X10941050Y-13773150D02*
X10902950Y-13811250D01*
X10902950Y-14154150D02*
X10941050Y-14192250D01*
X10941050Y-14154150D02*
X10902950Y-14192250D01*
X11029950Y-6508750D02*
X11068050Y-6546850D01*
X11068050Y-6508750D02*
X11029950Y-6546850D01*
X11029950Y-7575550D02*
X11068050Y-7613650D01*
X11068050Y-7575550D02*
X11029950Y-7613650D01*
X11029950Y-12299950D02*
X11068050Y-12338050D01*
X11068050Y-12299950D02*
X11029950Y-12338050D01*
X11029950Y-12833350D02*
X11068050Y-12871450D01*
X11068050Y-12833350D02*
X11029950Y-12871450D01*
X11156950Y-12833350D02*
X11195050Y-12871450D01*
X11195050Y-12833350D02*
X11156950Y-12871450D01*
X11156950Y-13696950D02*
X11195050Y-13735050D01*
X11195050Y-13696950D02*
X11156950Y-13735050D01*
X11156950Y-14154150D02*
X11195050Y-14192250D01*
X11195050Y-14154150D02*
X11156950Y-14192250D01*
X11283950Y-6432550D02*
X11322050Y-6470650D01*
X11322050Y-6432550D02*
X11283950Y-6470650D01*
X11283950Y-7575550D02*
X11322050Y-7613650D01*
X11322050Y-7575550D02*
X11283950Y-7613650D01*
X11410950Y-12122150D02*
X11449050Y-12160250D01*
X11449050Y-12122150D02*
X11410950Y-12160250D01*
X11410950Y-13620750D02*
X11449050Y-13658850D01*
X11449050Y-13620750D02*
X11410950Y-13658850D01*
X11410950Y-14154150D02*
X11449050Y-14192250D01*
X11449050Y-14154150D02*
X11410950Y-14192250D01*
X11537950Y-6356350D02*
X11576050Y-6394450D01*
X11576050Y-6356350D02*
X11537950Y-6394450D01*
X11537950Y-7575550D02*
X11576050Y-7613650D01*
X11576050Y-7575550D02*
X11537950Y-7613650D01*
X11537950Y-8947150D02*
X11576050Y-8985250D01*
X11576050Y-8947150D02*
X11537950Y-8985250D01*
X11537950Y-12274550D02*
X11576050Y-12312650D01*
X11576050Y-12274550D02*
X11537950Y-12312650D01*
X11537950Y-12833350D02*
X11576050Y-12871450D01*
X11576050Y-12833350D02*
X11537950Y-12871450D01*
X11639550Y-8337550D02*
X11677650Y-8375650D01*
X11677650Y-8337550D02*
X11639550Y-8375650D01*
X11664950Y-13544550D02*
X11703050Y-13582650D01*
X11703050Y-13544550D02*
X11664950Y-13582650D01*
X11664950Y-14146480D02*
X11703050Y-14184580D01*
X11703050Y-14146480D02*
X11664950Y-14184580D01*
X11766550Y-9251950D02*
X11804650Y-9290050D01*
X11804650Y-9251950D02*
X11766550Y-9290050D01*
X11791950Y-7727950D02*
X11830050Y-7766050D01*
X11830050Y-7727950D02*
X11791950Y-7766050D01*
X11791950Y-7981950D02*
X11830050Y-8020050D01*
X11830050Y-7981950D02*
X11791950Y-8020050D01*
X11791950Y-10267950D02*
X11830050Y-10306050D01*
X11830050Y-10267950D02*
X11791950Y-10306050D01*
X11918950Y-13468350D02*
X11957050Y-13506450D01*
X11957050Y-13468350D02*
X11918950Y-13506450D01*
X11918950Y-14154150D02*
X11957050Y-14192250D01*
X11957050Y-14154150D02*
X11918950Y-14192250D01*
X12172950Y-13392150D02*
X12211050Y-13430250D01*
X12211050Y-13392150D02*
X12172950Y-13430250D01*
X12172950Y-14154150D02*
X12211050Y-14192250D01*
X12211050Y-14154150D02*
X12172950Y-14192250D01*
X12426950Y-13315950D02*
X12465050Y-13354050D01*
X12465050Y-13315950D02*
X12426950Y-13354050D01*
X12426950Y-14154150D02*
X12465050Y-14192250D01*
X12465050Y-14154150D02*
X12426950Y-14192250D01*
X12680950Y-10979150D02*
X12719050Y-11017250D01*
X12719050Y-10979150D02*
X12680950Y-11017250D01*
X12680950Y-13239750D02*
X12719050Y-13277850D01*
X12719050Y-13239750D02*
X12680950Y-13277850D01*
X12680950Y-14154150D02*
X12719050Y-14192250D01*
X12719050Y-14154150D02*
X12680950Y-14192250D01*
X12731750Y-11487150D02*
X12769850Y-11525250D01*
X12769850Y-11487150D02*
X12731750Y-11525250D01*
X12807950Y-12299950D02*
X12846050Y-12338050D01*
X12846050Y-12299950D02*
X12807950Y-12338050D01*
X12807950Y-14077950D02*
X12846050Y-14116050D01*
X12846050Y-14077950D02*
X12807950Y-14116050D01*
X12934950Y-11487150D02*
X12973050Y-11525250D01*
X12973050Y-11487150D02*
X12934950Y-11525250D01*
X12934950Y-12934950D02*
X12973050Y-12973050D01*
X12973050Y-12934950D02*
X12934950Y-12973050D01*
X12934950Y-14077950D02*
X12973050Y-14116050D01*
X12973050Y-14077950D02*
X12934950Y-14116050D01*
X13061950Y-12299950D02*
X13100050Y-12338050D01*
X13100050Y-12299950D02*
X13061950Y-12338050D01*
X13061950Y-14001750D02*
X13100050Y-14039850D01*
X13100050Y-14001750D02*
X13061950Y-14039850D01*
X13188950Y-11487150D02*
X13227050Y-11525250D01*
X13227050Y-11487150D02*
X13188950Y-11525250D01*
X13188950Y-12833350D02*
X13227050Y-12871450D01*
X13227050Y-12833350D02*
X13188950Y-12871450D01*
X13188950Y-13011150D02*
X13227050Y-13049250D01*
X13227050Y-13011150D02*
X13188950Y-13049250D01*
X13188950Y-14001750D02*
X13227050Y-14039850D01*
X13227050Y-14001750D02*
X13188950Y-14039850D01*
X13315950Y-12299950D02*
X13354050Y-12338050D01*
X13354050Y-12299950D02*
X13315950Y-12338050D01*
X13315950Y-12833350D02*
X13354050Y-12871450D01*
X13354050Y-12833350D02*
X13315950Y-12871450D01*
X13315950Y-13011150D02*
X13354050Y-13049250D01*
X13354050Y-13011150D02*
X13315950Y-13049250D01*
X13315950Y-13925550D02*
X13354050Y-13963650D01*
X13354050Y-13925550D02*
X13315950Y-13963650D01*
X13442950Y-11487150D02*
X13481050Y-11525250D01*
X13481050Y-11487150D02*
X13442950Y-11525250D01*
X13442950Y-12833350D02*
X13481050Y-12871450D01*
X13481050Y-12833350D02*
X13442950Y-12871450D01*
X13442950Y-13087350D02*
X13481050Y-13125450D01*
X13481050Y-13087350D02*
X13442950Y-13125450D01*
X13442950Y-13925550D02*
X13481050Y-13963650D01*
X13481050Y-13925550D02*
X13442950Y-13963650D01*
X13442950Y-14281150D02*
X13481050Y-14319250D01*
X13481050Y-14281150D02*
X13442950Y-14319250D01*
X13569950Y-12299950D02*
X13608050Y-12338050D01*
X13608050Y-12299950D02*
X13569950Y-12338050D01*
X13569950Y-12833350D02*
X13608050Y-12871450D01*
X13608050Y-12833350D02*
X13569950Y-12871450D01*
X13569950Y-13087350D02*
X13608050Y-13125450D01*
X13608050Y-13087350D02*
X13569950Y-13125450D01*
X13569950Y-13849350D02*
X13608050Y-13887450D01*
X13608050Y-13849350D02*
X13569950Y-13887450D01*
X13569950Y-14204950D02*
X13608050Y-14243050D01*
X13608050Y-14204950D02*
X13569950Y-14243050D01*
X13696950Y-11487150D02*
X13735050Y-11525250D01*
X13735050Y-11487150D02*
X13696950Y-11525250D01*
X13696950Y-12833350D02*
X13735050Y-12871450D01*
X13735050Y-12833350D02*
X13696950Y-12871450D01*
X13696950Y-13163550D02*
X13735050Y-13201650D01*
X13735050Y-13163550D02*
X13696950Y-13201650D01*
X13696950Y-13849350D02*
X13735050Y-13887450D01*
X13735050Y-13849350D02*
X13696950Y-13887450D01*
X13823950Y-12299950D02*
X13862050Y-12338050D01*
X13862050Y-12299950D02*
X13823950Y-12338050D01*
X13823950Y-12833350D02*
X13862050Y-12871450D01*
X13862050Y-12833350D02*
X13823950Y-12871450D01*
X13823950Y-13163550D02*
X13862050Y-13201650D01*
X13862050Y-13163550D02*
X13823950Y-13201650D01*
X13823950Y-13773150D02*
X13862050Y-13811250D01*
X13862050Y-13773150D02*
X13823950Y-13811250D01*
X13950950Y-11487150D02*
X13989050Y-11525250D01*
X13989050Y-11487150D02*
X13950950Y-11525250D01*
X13950950Y-12833350D02*
X13989050Y-12871450D01*
X13989050Y-12833350D02*
X13950950Y-12871450D01*
X14077950Y-12299950D02*
X14116050Y-12338050D01*
X14116050Y-12299950D02*
X14077950Y-12338050D01*
X14077950Y-12833350D02*
X14116050Y-12871450D01*
X14116050Y-12833350D02*
X14077950Y-12871450D01*
X14077950Y-13239750D02*
X14116050Y-13277850D01*
X14116050Y-13239750D02*
X14077950Y-13277850D01*
X14077950Y-13696950D02*
X14116050Y-13735050D01*
X14116050Y-13696950D02*
X14077950Y-13735050D01*
X14204950Y-11487150D02*
X14243050Y-11525250D01*
X14243050Y-11487150D02*
X14204950Y-11525250D01*
X14204950Y-12833350D02*
X14243050Y-12871450D01*
X14243050Y-12833350D02*
X14204950Y-12871450D01*
X14331950Y-12299950D02*
X14370050Y-12338050D01*
X14370050Y-12299950D02*
X14331950Y-12338050D01*
X14331950Y-12833350D02*
X14370050Y-12871450D01*
X14370050Y-12833350D02*
X14331950Y-12871450D01*
X14331950Y-13315950D02*
X14370050Y-13354050D01*
X14370050Y-13315950D02*
X14331950Y-13354050D01*
X14331950Y-13620750D02*
X14370050Y-13658850D01*
X14370050Y-13620750D02*
X14331950Y-13658850D01*
X14458950Y-11487150D02*
X14497050Y-11525250D01*
X14497050Y-11487150D02*
X14458950Y-11525250D01*
X14458950Y-12833350D02*
X14497050Y-12871450D01*
X14497050Y-12833350D02*
X14458950Y-12871450D01*
X14585950Y-12299950D02*
X14624050Y-12338050D01*
X14624050Y-12299950D02*
X14585950Y-12338050D01*
X14585950Y-12833350D02*
X14624050Y-12871450D01*
X14624050Y-12833350D02*
X14585950Y-12871450D01*
X14585950Y-13392150D02*
X14624050Y-13430250D01*
X14624050Y-13392150D02*
X14585950Y-13430250D01*
X14585950Y-13544550D02*
X14624050Y-13582650D01*
X14624050Y-13544550D02*
X14585950Y-13582650D01*
X14712950Y-10979150D02*
X14751050Y-11017250D01*
X14751050Y-10979150D02*
X14712950Y-11017250D01*
X14712950Y-11487150D02*
X14751050Y-11525250D01*
X14751050Y-11487150D02*
X14712950Y-11525250D01*
X14712950Y-12833350D02*
X14751050Y-12871450D01*
X14751050Y-12833350D02*
X14712950Y-12871450D01*
X14814550Y-11791950D02*
X14852650Y-11830050D01*
X14852650Y-11791950D02*
X14814550Y-11830050D01*
X14966950Y-9886950D02*
X15005050Y-9925050D01*
X15005050Y-9886950D02*
X14966950Y-9925050D01*
X15144750Y-12528550D02*
X15182850Y-12566650D01*
X15182850Y-12528550D02*
X15144750Y-12566650D01*
X15144750Y-12757150D02*
X15182850Y-12795250D01*
X15182850Y-12757150D02*
X15144750Y-12795250D01*
X15322550Y-9810750D02*
X15360650Y-9848850D01*
X15360650Y-9810750D02*
X15322550Y-9848850D01*
X15322550Y-10260280D02*
X15360650Y-10298380D01*
X15360650Y-10260280D02*
X15322550Y-10298380D01*
X15627350Y-11156950D02*
X15665450Y-11195050D01*
X15665450Y-11156950D02*
X15627350Y-11195050D01*
X15627350Y-11410950D02*
X15665450Y-11449050D01*
X15665450Y-11410950D02*
X15627350Y-11449050D01*
X15830550Y-11410950D02*
X15868650Y-11449050D01*
X15868650Y-11410950D02*
X15830550Y-11449050D01*
X16363950Y-11410950D02*
X16402050Y-11449050D01*
X16402050Y-11410950D02*
X16363950Y-11449050D01*
X16490950Y-9734550D02*
X16529050Y-9772650D01*
X16529050Y-9734550D02*
X16490950Y-9772650D01*
X16744950Y-9658350D02*
X16783050Y-9696450D01*
X16783050Y-9658350D02*
X16744950Y-9696450D01*
X16871950Y-13671550D02*
X16910050Y-13709650D01*
X16910050Y-13671550D02*
X16871950Y-13709650D01*
X16998950Y-9582150D02*
X17037050Y-9620250D01*
X17037050Y-9582150D02*
X16998950Y-9620250D01*
X17252950Y-9505950D02*
X17291050Y-9544050D01*
X17291050Y-9505950D02*
X17252950Y-9544050D01*
X17506950Y-9429750D02*
X17545050Y-9467850D01*
X17545050Y-9429750D02*
X17506950Y-9467850D01*
X17633950Y-9734550D02*
X17672050Y-9772650D01*
X17672050Y-9734550D02*
X17633950Y-9772650D01*
X17633950Y-10547350D02*
X17672050Y-10585450D01*
X17672050Y-10547350D02*
X17633950Y-10585450D01*
X17710150Y-13671550D02*
X17748250Y-13709650D01*
X17748250Y-13671550D02*
X17710150Y-13709650D01*
X17760950Y-9353550D02*
X17799050Y-9391650D01*
X17799050Y-9353550D02*
X17760950Y-9391650D01*
X17811750Y-11995150D02*
X17849850Y-12033250D01*
X17849850Y-11995150D02*
X17811750Y-12033250D01*
X17837150Y-11461750D02*
X17875250Y-11499850D01*
X17875250Y-11461750D02*
X17837150Y-11499850D01*
X18014950Y-9277350D02*
X18053050Y-9315450D01*
X18053050Y-9277350D02*
X18014950Y-9315450D01*
X18065750Y-10191750D02*
X18103850Y-10229850D01*
X18103850Y-10191750D02*
X18065750Y-10229850D01*
X18065750Y-11461750D02*
X18103850Y-11499850D01*
X18103850Y-11461750D02*
X18065750Y-11499850D01*
X18141950Y-8591550D02*
X18180050Y-8629650D01*
X18180050Y-8591550D02*
X18141950Y-8629650D01*
X18141950Y-9963150D02*
X18180050Y-10001250D01*
X18180050Y-9963150D02*
X18141950Y-10001250D01*
X18141950Y-10293350D02*
X18180050Y-10331450D01*
X18180050Y-10293350D02*
X18141950Y-10331450D01*
X18218150Y-11995150D02*
X18256250Y-12033250D01*
X18256250Y-11995150D02*
X18218150Y-12033250D01*
X18268950Y-9201150D02*
X18307050Y-9239250D01*
X18307050Y-9201150D02*
X18268950Y-9239250D01*
X18421350Y-11893550D02*
X18459450Y-11931650D01*
X18459450Y-11893550D02*
X18421350Y-11931650D01*
X18624550Y-11893550D02*
X18662650Y-11931650D01*
X18662650Y-11893550D02*
X18624550Y-11931650D01*
X18624550Y-12274550D02*
X18662650Y-12312650D01*
X18662650Y-12274550D02*
X18624550Y-12312650D01*
X18624550Y-12833350D02*
X18662650Y-12871450D01*
X18662650Y-12833350D02*
X18624550Y-12871450D01*
X18776950Y-13011150D02*
X18815050Y-13049250D01*
X18815050Y-13011150D02*
X18776950Y-13049250D01*
X19030950Y-12901880D02*
X19069050Y-12939980D01*
X19069050Y-12901880D02*
X19030950Y-12939980D01*
X19284950Y-10928350D02*
X19323050Y-10966450D01*
X19323050Y-10928350D02*
X19284950Y-10966450D01*
X19284950Y-11334750D02*
X19323050Y-11372850D01*
X19323050Y-11334750D02*
X19284950Y-11372850D01*
X19284950Y-12833350D02*
X19323050Y-12871450D01*
X19323050Y-12833350D02*
X19284950Y-12871450D01*
X19538950Y-9886950D02*
X19577050Y-9925050D01*
X19577050Y-9886950D02*
X19538950Y-9925050D01*
X19538950Y-10191750D02*
X19577050Y-10229850D01*
X19577050Y-10191750D02*
X19538950Y-10229850D01*
X19792950Y-12655550D02*
X19831050Y-12693650D01*
X19831050Y-12655550D02*
X19792950Y-12693650D01*
X20300950Y-11334750D02*
X20339050Y-11372850D01*
X20339050Y-11334750D02*
X20300950Y-11372850D01*
X20300950Y-12757150D02*
X20339050Y-12795250D01*
X20339050Y-12757150D02*
X20300950Y-12795250D01*
X20834350Y-10217150D02*
X20872450Y-10255250D01*
X20872450Y-10217150D02*
X20834350Y-10255250D01*
X20910550Y-10674350D02*
X20948650Y-10712450D01*
X20948650Y-10674350D02*
X20910550Y-10712450D01*
X21062950Y-12553950D02*
X21101050Y-12592050D01*
X21101050Y-12553950D02*
X21062950Y-12592050D01*
X21062950Y-12757150D02*
X21101050Y-12795250D01*
X21101050Y-12757150D02*
X21062950Y-12795250D01*
X21215350Y-11868150D02*
X21253450Y-11906250D01*
X21253450Y-11868150D02*
X21215350Y-11906250D01*
X21215350Y-12426950D02*
X21253450Y-12465050D01*
X21253450Y-12426950D02*
X21215350Y-12465050D01*
X21570950Y-9124950D02*
X21609050Y-9163050D01*
X21609050Y-9124950D02*
X21570950Y-9163050D01*
X21697950Y-11410950D02*
X21736050Y-11449050D01*
X21736050Y-11410950D02*
X21697950Y-11449050D01*
X21824950Y-9048750D02*
X21863050Y-9086850D01*
X21863050Y-9048750D02*
X21824950Y-9086850D01*
X21977350Y-11410950D02*
X22015450Y-11449050D01*
X22015450Y-11410950D02*
X21977350Y-11449050D01*
X22078950Y-8972550D02*
X22117050Y-9010650D01*
X22117050Y-8972550D02*
X22078950Y-9010650D01*
X22332950Y-8896350D02*
X22371050Y-8934450D01*
X22371050Y-8896350D02*
X22332950Y-8934450D01*
X22586950Y-8820150D02*
X22625050Y-8858250D01*
X22625050Y-8820150D02*
X22586950Y-8858250D01*
X22586950Y-12807950D02*
X22625050Y-12846050D01*
X22625050Y-12807950D02*
X22586950Y-12846050D01*
X22840950Y-8743950D02*
X22879050Y-8782050D01*
X22879050Y-8743950D02*
X22840950Y-8782050D01*
X23094950Y-8667750D02*
X23133050Y-8705850D01*
X23133050Y-8667750D02*
X23094950Y-8705850D01*
D13*
X5628000Y-7874000D02*
G75*
G03*
X5628000Y-7874000I-40000J0D01*
G01*
X5628000Y-8374000D02*
G75*
G03*
X5628000Y-8374000I-40000J0D01*
G01*
X5628000Y-9144000D02*
G75*
G03*
X5628000Y-9144000I-40000J0D01*
G01*
X5628000Y-9644000D02*
G75*
G03*
X5628000Y-9644000I-40000J0D01*
G01*
X5628000Y-10414000D02*
G75*
G03*
X5628000Y-10414000I-40000J0D01*
G01*
X5628000Y-10914000D02*
G75*
G03*
X5628000Y-10914000I-40000J0D01*
G01*
X5628000Y-11684000D02*
G75*
G03*
X5628000Y-11684000I-40000J0D01*
G01*
X5628000Y-12184000D02*
G75*
G03*
X5628000Y-12184000I-40000J0D01*
G01*
X5628000Y-13212000D02*
G75*
G03*
X5628000Y-13212000I-40000J0D01*
G01*
X5628000Y-13462000D02*
G75*
G03*
X5628000Y-13462000I-40000J0D01*
G01*
X6136000Y-7874000D02*
G75*
G03*
X6136000Y-7874000I-40000J0D01*
G01*
X6136000Y-8636000D02*
G75*
G03*
X6136000Y-8636000I-40000J0D01*
G01*
X6136000Y-9144000D02*
G75*
G03*
X6136000Y-9144000I-40000J0D01*
G01*
X6136000Y-9906000D02*
G75*
G03*
X6136000Y-9906000I-40000J0D01*
G01*
X6136000Y-10414000D02*
G75*
G03*
X6136000Y-10414000I-40000J0D01*
G01*
X6136000Y-11176000D02*
G75*
G03*
X6136000Y-11176000I-40000J0D01*
G01*
X6136000Y-11684000D02*
G75*
G03*
X6136000Y-11684000I-40000J0D01*
G01*
X6136000Y-12446000D02*
G75*
G03*
X6136000Y-12446000I-40000J0D01*
G01*
X6390000Y-7874000D02*
G75*
G03*
X6390000Y-7874000I-40000J0D01*
G01*
X6390000Y-8636000D02*
G75*
G03*
X6390000Y-8636000I-40000J0D01*
G01*
X6390000Y-9144000D02*
G75*
G03*
X6390000Y-9144000I-40000J0D01*
G01*
X6390000Y-9906000D02*
G75*
G03*
X6390000Y-9906000I-40000J0D01*
G01*
X6390000Y-10414000D02*
G75*
G03*
X6390000Y-10414000I-40000J0D01*
G01*
X6390000Y-11176000D02*
G75*
G03*
X6390000Y-11176000I-40000J0D01*
G01*
X6390000Y-11684000D02*
G75*
G03*
X6390000Y-11684000I-40000J0D01*
G01*
X6390000Y-12446000D02*
G75*
G03*
X6390000Y-12446000I-40000J0D01*
G01*
X6644000Y-7874000D02*
G75*
G03*
X6644000Y-7874000I-40000J0D01*
G01*
X6644000Y-8636000D02*
G75*
G03*
X6644000Y-8636000I-40000J0D01*
G01*
X6644000Y-9144000D02*
G75*
G03*
X6644000Y-9144000I-40000J0D01*
G01*
X6644000Y-9906000D02*
G75*
G03*
X6644000Y-9906000I-40000J0D01*
G01*
X6644000Y-10414000D02*
G75*
G03*
X6644000Y-10414000I-40000J0D01*
G01*
X6644000Y-11176000D02*
G75*
G03*
X6644000Y-11176000I-40000J0D01*
G01*
X6644000Y-11684000D02*
G75*
G03*
X6644000Y-11684000I-40000J0D01*
G01*
X6644000Y-12446000D02*
G75*
G03*
X6644000Y-12446000I-40000J0D01*
G01*
X6898000Y-7874000D02*
G75*
G03*
X6898000Y-7874000I-40000J0D01*
G01*
X6898000Y-8636000D02*
G75*
G03*
X6898000Y-8636000I-40000J0D01*
G01*
X6898000Y-9144000D02*
G75*
G03*
X6898000Y-9144000I-40000J0D01*
G01*
X6898000Y-9906000D02*
G75*
G03*
X6898000Y-9906000I-40000J0D01*
G01*
X6898000Y-10414000D02*
G75*
G03*
X6898000Y-10414000I-40000J0D01*
G01*
X6898000Y-11176000D02*
G75*
G03*
X6898000Y-11176000I-40000J0D01*
G01*
X6898000Y-11684000D02*
G75*
G03*
X6898000Y-11684000I-40000J0D01*
G01*
X6898000Y-12446000D02*
G75*
G03*
X6898000Y-12446000I-40000J0D01*
G01*
X7152000Y-7874000D02*
G75*
G03*
X7152000Y-7874000I-40000J0D01*
G01*
X7152000Y-8636000D02*
G75*
G03*
X7152000Y-8636000I-40000J0D01*
G01*
X7152000Y-9144000D02*
G75*
G03*
X7152000Y-9144000I-40000J0D01*
G01*
X7152000Y-9906000D02*
G75*
G03*
X7152000Y-9906000I-40000J0D01*
G01*
X7152000Y-10414000D02*
G75*
G03*
X7152000Y-10414000I-40000J0D01*
G01*
X7152000Y-11176000D02*
G75*
G03*
X7152000Y-11176000I-40000J0D01*
G01*
X7152000Y-11684000D02*
G75*
G03*
X7152000Y-11684000I-40000J0D01*
G01*
X7152000Y-12446000D02*
G75*
G03*
X7152000Y-12446000I-40000J0D01*
G01*
X7406000Y-7874000D02*
G75*
G03*
X7406000Y-7874000I-40000J0D01*
G01*
X7406000Y-8636000D02*
G75*
G03*
X7406000Y-8636000I-40000J0D01*
G01*
X7406000Y-9144000D02*
G75*
G03*
X7406000Y-9144000I-40000J0D01*
G01*
X7406000Y-9906000D02*
G75*
G03*
X7406000Y-9906000I-40000J0D01*
G01*
X7406000Y-10414000D02*
G75*
G03*
X7406000Y-10414000I-40000J0D01*
G01*
X7406000Y-11176000D02*
G75*
G03*
X7406000Y-11176000I-40000J0D01*
G01*
X7406000Y-11684000D02*
G75*
G03*
X7406000Y-11684000I-40000J0D01*
G01*
X7406000Y-12446000D02*
G75*
G03*
X7406000Y-12446000I-40000J0D01*
G01*
X7660000Y-7874000D02*
G75*
G03*
X7660000Y-7874000I-40000J0D01*
G01*
X7660000Y-8636000D02*
G75*
G03*
X7660000Y-8636000I-40000J0D01*
G01*
X7660000Y-9144000D02*
G75*
G03*
X7660000Y-9144000I-40000J0D01*
G01*
X7660000Y-9906000D02*
G75*
G03*
X7660000Y-9906000I-40000J0D01*
G01*
X7660000Y-10414000D02*
G75*
G03*
X7660000Y-10414000I-40000J0D01*
G01*
X7660000Y-11176000D02*
G75*
G03*
X7660000Y-11176000I-40000J0D01*
G01*
X7660000Y-11684000D02*
G75*
G03*
X7660000Y-11684000I-40000J0D01*
G01*
X7660000Y-12446000D02*
G75*
G03*
X7660000Y-12446000I-40000J0D01*
G01*
X7914000Y-7874000D02*
G75*
G03*
X7914000Y-7874000I-40000J0D01*
G01*
X7914000Y-8636000D02*
G75*
G03*
X7914000Y-8636000I-40000J0D01*
G01*
X7914000Y-9144000D02*
G75*
G03*
X7914000Y-9144000I-40000J0D01*
G01*
X7914000Y-9906000D02*
G75*
G03*
X7914000Y-9906000I-40000J0D01*
G01*
X7914000Y-10414000D02*
G75*
G03*
X7914000Y-10414000I-40000J0D01*
G01*
X7914000Y-11176000D02*
G75*
G03*
X7914000Y-11176000I-40000J0D01*
G01*
X7914000Y-11684000D02*
G75*
G03*
X7914000Y-11684000I-40000J0D01*
G01*
X7914000Y-12446000D02*
G75*
G03*
X7914000Y-12446000I-40000J0D01*
G01*
X8168000Y-7874000D02*
G75*
G03*
X8168000Y-7874000I-40000J0D01*
G01*
X8168000Y-8636000D02*
G75*
G03*
X8168000Y-8636000I-40000J0D01*
G01*
X8168000Y-9144000D02*
G75*
G03*
X8168000Y-9144000I-40000J0D01*
G01*
X8168000Y-9906000D02*
G75*
G03*
X8168000Y-9906000I-40000J0D01*
G01*
X8168000Y-10414000D02*
G75*
G03*
X8168000Y-10414000I-40000J0D01*
G01*
X8168000Y-11176000D02*
G75*
G03*
X8168000Y-11176000I-40000J0D01*
G01*
X8168000Y-11684000D02*
G75*
G03*
X8168000Y-11684000I-40000J0D01*
G01*
X8168000Y-12446000D02*
G75*
G03*
X8168000Y-12446000I-40000J0D01*
G01*
X8422000Y-7874000D02*
G75*
G03*
X8422000Y-7874000I-40000J0D01*
G01*
X8422000Y-8636000D02*
G75*
G03*
X8422000Y-8636000I-40000J0D01*
G01*
X8422000Y-9144000D02*
G75*
G03*
X8422000Y-9144000I-40000J0D01*
G01*
X8422000Y-9906000D02*
G75*
G03*
X8422000Y-9906000I-40000J0D01*
G01*
X8422000Y-10414000D02*
G75*
G03*
X8422000Y-10414000I-40000J0D01*
G01*
X8422000Y-11176000D02*
G75*
G03*
X8422000Y-11176000I-40000J0D01*
G01*
X8422000Y-11684000D02*
G75*
G03*
X8422000Y-11684000I-40000J0D01*
G01*
X8422000Y-12446000D02*
G75*
G03*
X8422000Y-12446000I-40000J0D01*
G01*
X8930000Y-7874000D02*
G75*
G03*
X8930000Y-7874000I-40000J0D01*
G01*
X8930000Y-8374000D02*
G75*
G03*
X8930000Y-8374000I-40000J0D01*
G01*
X8930000Y-9144000D02*
G75*
G03*
X8930000Y-9144000I-40000J0D01*
G01*
X8930000Y-9644000D02*
G75*
G03*
X8930000Y-9644000I-40000J0D01*
G01*
X8930000Y-10414000D02*
G75*
G03*
X8930000Y-10414000I-40000J0D01*
G01*
X8930000Y-10914000D02*
G75*
G03*
X8930000Y-10914000I-40000J0D01*
G01*
X8930000Y-11684000D02*
G75*
G03*
X8930000Y-11684000I-40000J0D01*
G01*
X8930000Y-12184000D02*
G75*
G03*
X8930000Y-12184000I-40000J0D01*
G01*
X9438000Y-7874000D02*
G75*
G03*
X9438000Y-7874000I-40000J0D01*
G01*
X9438000Y-8636000D02*
G75*
G03*
X9438000Y-8636000I-40000J0D01*
G01*
X9438000Y-9144000D02*
G75*
G03*
X9438000Y-9144000I-40000J0D01*
G01*
X9438000Y-9906000D02*
G75*
G03*
X9438000Y-9906000I-40000J0D01*
G01*
X9438000Y-10414000D02*
G75*
G03*
X9438000Y-10414000I-40000J0D01*
G01*
X9438000Y-11176000D02*
G75*
G03*
X9438000Y-11176000I-40000J0D01*
G01*
X9438000Y-11684000D02*
G75*
G03*
X9438000Y-11684000I-40000J0D01*
G01*
X9438000Y-12446000D02*
G75*
G03*
X9438000Y-12446000I-40000J0D01*
G01*
X9692000Y-7874000D02*
G75*
G03*
X9692000Y-7874000I-40000J0D01*
G01*
X9692000Y-8636000D02*
G75*
G03*
X9692000Y-8636000I-40000J0D01*
G01*
X9692000Y-9144000D02*
G75*
G03*
X9692000Y-9144000I-40000J0D01*
G01*
X9692000Y-9906000D02*
G75*
G03*
X9692000Y-9906000I-40000J0D01*
G01*
X9692000Y-10414000D02*
G75*
G03*
X9692000Y-10414000I-40000J0D01*
G01*
X9692000Y-11176000D02*
G75*
G03*
X9692000Y-11176000I-40000J0D01*
G01*
X9692000Y-11684000D02*
G75*
G03*
X9692000Y-11684000I-40000J0D01*
G01*
X9692000Y-12446000D02*
G75*
G03*
X9692000Y-12446000I-40000J0D01*
G01*
X9946000Y-7874000D02*
G75*
G03*
X9946000Y-7874000I-40000J0D01*
G01*
X9946000Y-8636000D02*
G75*
G03*
X9946000Y-8636000I-40000J0D01*
G01*
X9946000Y-9144000D02*
G75*
G03*
X9946000Y-9144000I-40000J0D01*
G01*
X9946000Y-9906000D02*
G75*
G03*
X9946000Y-9906000I-40000J0D01*
G01*
X9946000Y-10414000D02*
G75*
G03*
X9946000Y-10414000I-40000J0D01*
G01*
X9946000Y-11176000D02*
G75*
G03*
X9946000Y-11176000I-40000J0D01*
G01*
X9946000Y-11684000D02*
G75*
G03*
X9946000Y-11684000I-40000J0D01*
G01*
X9946000Y-12446000D02*
G75*
G03*
X9946000Y-12446000I-40000J0D01*
G01*
X10200000Y-7874000D02*
G75*
G03*
X10200000Y-7874000I-40000J0D01*
G01*
X10200000Y-8636000D02*
G75*
G03*
X10200000Y-8636000I-40000J0D01*
G01*
X10200000Y-9144000D02*
G75*
G03*
X10200000Y-9144000I-40000J0D01*
G01*
X10200000Y-9906000D02*
G75*
G03*
X10200000Y-9906000I-40000J0D01*
G01*
X10200000Y-10414000D02*
G75*
G03*
X10200000Y-10414000I-40000J0D01*
G01*
X10200000Y-11176000D02*
G75*
G03*
X10200000Y-11176000I-40000J0D01*
G01*
X10200000Y-11684000D02*
G75*
G03*
X10200000Y-11684000I-40000J0D01*
G01*
X10200000Y-12446000D02*
G75*
G03*
X10200000Y-12446000I-40000J0D01*
G01*
X10454000Y-7874000D02*
G75*
G03*
X10454000Y-7874000I-40000J0D01*
G01*
X10454000Y-8636000D02*
G75*
G03*
X10454000Y-8636000I-40000J0D01*
G01*
X10454000Y-9144000D02*
G75*
G03*
X10454000Y-9144000I-40000J0D01*
G01*
X10454000Y-9906000D02*
G75*
G03*
X10454000Y-9906000I-40000J0D01*
G01*
X10454000Y-10414000D02*
G75*
G03*
X10454000Y-10414000I-40000J0D01*
G01*
X10454000Y-11176000D02*
G75*
G03*
X10454000Y-11176000I-40000J0D01*
G01*
X10454000Y-11684000D02*
G75*
G03*
X10454000Y-11684000I-40000J0D01*
G01*
X10454000Y-12446000D02*
G75*
G03*
X10454000Y-12446000I-40000J0D01*
G01*
X10708000Y-7874000D02*
G75*
G03*
X10708000Y-7874000I-40000J0D01*
G01*
X10708000Y-8636000D02*
G75*
G03*
X10708000Y-8636000I-40000J0D01*
G01*
X10708000Y-9144000D02*
G75*
G03*
X10708000Y-9144000I-40000J0D01*
G01*
X10708000Y-9906000D02*
G75*
G03*
X10708000Y-9906000I-40000J0D01*
G01*
X10708000Y-10414000D02*
G75*
G03*
X10708000Y-10414000I-40000J0D01*
G01*
X10708000Y-11176000D02*
G75*
G03*
X10708000Y-11176000I-40000J0D01*
G01*
X10708000Y-11684000D02*
G75*
G03*
X10708000Y-11684000I-40000J0D01*
G01*
X10708000Y-12446000D02*
G75*
G03*
X10708000Y-12446000I-40000J0D01*
G01*
X10962000Y-7874000D02*
G75*
G03*
X10962000Y-7874000I-40000J0D01*
G01*
X10962000Y-8636000D02*
G75*
G03*
X10962000Y-8636000I-40000J0D01*
G01*
X10962000Y-9144000D02*
G75*
G03*
X10962000Y-9144000I-40000J0D01*
G01*
X10962000Y-9906000D02*
G75*
G03*
X10962000Y-9906000I-40000J0D01*
G01*
X10962000Y-10414000D02*
G75*
G03*
X10962000Y-10414000I-40000J0D01*
G01*
X10962000Y-11176000D02*
G75*
G03*
X10962000Y-11176000I-40000J0D01*
G01*
X10962000Y-11684000D02*
G75*
G03*
X10962000Y-11684000I-40000J0D01*
G01*
X10962000Y-12446000D02*
G75*
G03*
X10962000Y-12446000I-40000J0D01*
G01*
X11216000Y-7874000D02*
G75*
G03*
X11216000Y-7874000I-40000J0D01*
G01*
X11216000Y-8636000D02*
G75*
G03*
X11216000Y-8636000I-40000J0D01*
G01*
X11216000Y-9144000D02*
G75*
G03*
X11216000Y-9144000I-40000J0D01*
G01*
X11216000Y-9906000D02*
G75*
G03*
X11216000Y-9906000I-40000J0D01*
G01*
X11216000Y-10414000D02*
G75*
G03*
X11216000Y-10414000I-40000J0D01*
G01*
X11216000Y-11176000D02*
G75*
G03*
X11216000Y-11176000I-40000J0D01*
G01*
X11216000Y-11684000D02*
G75*
G03*
X11216000Y-11684000I-40000J0D01*
G01*
X11216000Y-12446000D02*
G75*
G03*
X11216000Y-12446000I-40000J0D01*
G01*
X11470000Y-7874000D02*
G75*
G03*
X11470000Y-7874000I-40000J0D01*
G01*
X11470000Y-8636000D02*
G75*
G03*
X11470000Y-8636000I-40000J0D01*
G01*
X11470000Y-9144000D02*
G75*
G03*
X11470000Y-9144000I-40000J0D01*
G01*
X11470000Y-9906000D02*
G75*
G03*
X11470000Y-9906000I-40000J0D01*
G01*
X11470000Y-10414000D02*
G75*
G03*
X11470000Y-10414000I-40000J0D01*
G01*
X11470000Y-11176000D02*
G75*
G03*
X11470000Y-11176000I-40000J0D01*
G01*
X11470000Y-11684000D02*
G75*
G03*
X11470000Y-11684000I-40000J0D01*
G01*
X11470000Y-12446000D02*
G75*
G03*
X11470000Y-12446000I-40000J0D01*
G01*
X11724000Y-7874000D02*
G75*
G03*
X11724000Y-7874000I-40000J0D01*
G01*
X11724000Y-8636000D02*
G75*
G03*
X11724000Y-8636000I-40000J0D01*
G01*
X11724000Y-9144000D02*
G75*
G03*
X11724000Y-9144000I-40000J0D01*
G01*
X11724000Y-9906000D02*
G75*
G03*
X11724000Y-9906000I-40000J0D01*
G01*
X11724000Y-10414000D02*
G75*
G03*
X11724000Y-10414000I-40000J0D01*
G01*
X11724000Y-11176000D02*
G75*
G03*
X11724000Y-11176000I-40000J0D01*
G01*
X11724000Y-11684000D02*
G75*
G03*
X11724000Y-11684000I-40000J0D01*
G01*
X11724000Y-12446000D02*
G75*
G03*
X11724000Y-12446000I-40000J0D01*
G01*
X12232000Y-10414000D02*
G75*
G03*
X12232000Y-10414000I-40000J0D01*
G01*
X12232000Y-10914000D02*
G75*
G03*
X12232000Y-10914000I-40000J0D01*
G01*
X12232000Y-11692000D02*
G75*
G03*
X12232000Y-11692000I-40000J0D01*
G01*
X12232000Y-12192000D02*
G75*
G03*
X12232000Y-12192000I-40000J0D01*
G01*
X12740000Y-10414000D02*
G75*
G03*
X12740000Y-10414000I-40000J0D01*
G01*
X12740000Y-11176000D02*
G75*
G03*
X12740000Y-11176000I-40000J0D01*
G01*
X12740000Y-11684000D02*
G75*
G03*
X12740000Y-11684000I-40000J0D01*
G01*
X12740000Y-12446000D02*
G75*
G03*
X12740000Y-12446000I-40000J0D01*
G01*
X12994000Y-10414000D02*
G75*
G03*
X12994000Y-10414000I-40000J0D01*
G01*
X12994000Y-11176000D02*
G75*
G03*
X12994000Y-11176000I-40000J0D01*
G01*
X12994000Y-11684000D02*
G75*
G03*
X12994000Y-11684000I-40000J0D01*
G01*
X12994000Y-12446000D02*
G75*
G03*
X12994000Y-12446000I-40000J0D01*
G01*
X13248000Y-10414000D02*
G75*
G03*
X13248000Y-10414000I-40000J0D01*
G01*
X13248000Y-11176000D02*
G75*
G03*
X13248000Y-11176000I-40000J0D01*
G01*
X13248000Y-11684000D02*
G75*
G03*
X13248000Y-11684000I-40000J0D01*
G01*
X13248000Y-12446000D02*
G75*
G03*
X13248000Y-12446000I-40000J0D01*
G01*
X13502000Y-10414000D02*
G75*
G03*
X13502000Y-10414000I-40000J0D01*
G01*
X13502000Y-11176000D02*
G75*
G03*
X13502000Y-11176000I-40000J0D01*
G01*
X13502000Y-11684000D02*
G75*
G03*
X13502000Y-11684000I-40000J0D01*
G01*
X13502000Y-12446000D02*
G75*
G03*
X13502000Y-12446000I-40000J0D01*
G01*
X13756000Y-10414000D02*
G75*
G03*
X13756000Y-10414000I-40000J0D01*
G01*
X13756000Y-11176000D02*
G75*
G03*
X13756000Y-11176000I-40000J0D01*
G01*
X13756000Y-11684000D02*
G75*
G03*
X13756000Y-11684000I-40000J0D01*
G01*
X13756000Y-12446000D02*
G75*
G03*
X13756000Y-12446000I-40000J0D01*
G01*
X14010000Y-10414000D02*
G75*
G03*
X14010000Y-10414000I-40000J0D01*
G01*
X14010000Y-11176000D02*
G75*
G03*
X14010000Y-11176000I-40000J0D01*
G01*
X14010000Y-11684000D02*
G75*
G03*
X14010000Y-11684000I-40000J0D01*
G01*
X14010000Y-12446000D02*
G75*
G03*
X14010000Y-12446000I-40000J0D01*
G01*
X14264000Y-10414000D02*
G75*
G03*
X14264000Y-10414000I-40000J0D01*
G01*
X14264000Y-11176000D02*
G75*
G03*
X14264000Y-11176000I-40000J0D01*
G01*
X14264000Y-11684000D02*
G75*
G03*
X14264000Y-11684000I-40000J0D01*
G01*
X14264000Y-12446000D02*
G75*
G03*
X14264000Y-12446000I-40000J0D01*
G01*
X14518000Y-10414000D02*
G75*
G03*
X14518000Y-10414000I-40000J0D01*
G01*
X14518000Y-11176000D02*
G75*
G03*
X14518000Y-11176000I-40000J0D01*
G01*
X14518000Y-11684000D02*
G75*
G03*
X14518000Y-11684000I-40000J0D01*
G01*
X14518000Y-12446000D02*
G75*
G03*
X14518000Y-12446000I-40000J0D01*
G01*
X14772000Y-10414000D02*
G75*
G03*
X14772000Y-10414000I-40000J0D01*
G01*
X14772000Y-11176000D02*
G75*
G03*
X14772000Y-11176000I-40000J0D01*
G01*
X14772000Y-11684000D02*
G75*
G03*
X14772000Y-11684000I-40000J0D01*
G01*
X14772000Y-12446000D02*
G75*
G03*
X14772000Y-12446000I-40000J0D01*
G01*
X15026000Y-7370000D02*
G75*
G03*
X15026000Y-7370000I-40000J0D01*
G01*
X15026000Y-7620000D02*
G75*
G03*
X15026000Y-7620000I-40000J0D01*
G01*
X15026000Y-10414000D02*
G75*
G03*
X15026000Y-10414000I-40000J0D01*
G01*
X15026000Y-11176000D02*
G75*
G03*
X15026000Y-11176000I-40000J0D01*
G01*
X15026000Y-11684000D02*
G75*
G03*
X15026000Y-11684000I-40000J0D01*
G01*
X15026000Y-12446000D02*
G75*
G03*
X15026000Y-12446000I-40000J0D01*
G01*
X15534000Y-10414000D02*
G75*
G03*
X15534000Y-10414000I-40000J0D01*
G01*
X15534000Y-10914000D02*
G75*
G03*
X15534000Y-10914000I-40000J0D01*
G01*
X15534000Y-11684000D02*
G75*
G03*
X15534000Y-11684000I-40000J0D01*
G01*
X15534000Y-12184000D02*
G75*
G03*
X15534000Y-12184000I-40000J0D01*
G01*
X15788000Y-7620000D02*
G75*
G03*
X15788000Y-7620000I-40000J0D01*
G01*
X15788000Y-8120000D02*
G75*
G03*
X15788000Y-8120000I-40000J0D01*
G01*
X16042000Y-10414000D02*
G75*
G03*
X16042000Y-10414000I-40000J0D01*
G01*
X16042000Y-11176000D02*
G75*
G03*
X16042000Y-11176000I-40000J0D01*
G01*
X16042000Y-11684000D02*
G75*
G03*
X16042000Y-11684000I-40000J0D01*
G01*
X16042000Y-12446000D02*
G75*
G03*
X16042000Y-12446000I-40000J0D01*
G01*
X16296000Y-7620000D02*
G75*
G03*
X16296000Y-7620000I-40000J0D01*
G01*
X16296000Y-8382000D02*
G75*
G03*
X16296000Y-8382000I-40000J0D01*
G01*
X16296000Y-10414000D02*
G75*
G03*
X16296000Y-10414000I-40000J0D01*
G01*
X16296000Y-11176000D02*
G75*
G03*
X16296000Y-11176000I-40000J0D01*
G01*
X16296000Y-11684000D02*
G75*
G03*
X16296000Y-11684000I-40000J0D01*
G01*
X16296000Y-12446000D02*
G75*
G03*
X16296000Y-12446000I-40000J0D01*
G01*
X16550000Y-7620000D02*
G75*
G03*
X16550000Y-7620000I-40000J0D01*
G01*
X16550000Y-8382000D02*
G75*
G03*
X16550000Y-8382000I-40000J0D01*
G01*
X16550000Y-10414000D02*
G75*
G03*
X16550000Y-10414000I-40000J0D01*
G01*
X16550000Y-11176000D02*
G75*
G03*
X16550000Y-11176000I-40000J0D01*
G01*
X16550000Y-11684000D02*
G75*
G03*
X16550000Y-11684000I-40000J0D01*
G01*
X16550000Y-12446000D02*
G75*
G03*
X16550000Y-12446000I-40000J0D01*
G01*
X16804000Y-7620000D02*
G75*
G03*
X16804000Y-7620000I-40000J0D01*
G01*
X16804000Y-8382000D02*
G75*
G03*
X16804000Y-8382000I-40000J0D01*
G01*
X16804000Y-10414000D02*
G75*
G03*
X16804000Y-10414000I-40000J0D01*
G01*
X16804000Y-11176000D02*
G75*
G03*
X16804000Y-11176000I-40000J0D01*
G01*
X16804000Y-11684000D02*
G75*
G03*
X16804000Y-11684000I-40000J0D01*
G01*
X16804000Y-12446000D02*
G75*
G03*
X16804000Y-12446000I-40000J0D01*
G01*
X16931000Y-7112000D02*
G75*
G03*
X16931000Y-7112000I-40000J0D01*
G01*
X17058000Y-7620000D02*
G75*
G03*
X17058000Y-7620000I-40000J0D01*
G01*
X17058000Y-8382000D02*
G75*
G03*
X17058000Y-8382000I-40000J0D01*
G01*
X17058000Y-10414000D02*
G75*
G03*
X17058000Y-10414000I-40000J0D01*
G01*
X17058000Y-11176000D02*
G75*
G03*
X17058000Y-11176000I-40000J0D01*
G01*
X17058000Y-11684000D02*
G75*
G03*
X17058000Y-11684000I-40000J0D01*
G01*
X17058000Y-12446000D02*
G75*
G03*
X17058000Y-12446000I-40000J0D01*
G01*
X17185000Y-7112000D02*
G75*
G03*
X17185000Y-7112000I-40000J0D01*
G01*
X17312000Y-7620000D02*
G75*
G03*
X17312000Y-7620000I-40000J0D01*
G01*
X17312000Y-8382000D02*
G75*
G03*
X17312000Y-8382000I-40000J0D01*
G01*
X17312000Y-10414000D02*
G75*
G03*
X17312000Y-10414000I-40000J0D01*
G01*
X17312000Y-11176000D02*
G75*
G03*
X17312000Y-11176000I-40000J0D01*
G01*
X17312000Y-11684000D02*
G75*
G03*
X17312000Y-11684000I-40000J0D01*
G01*
X17312000Y-12446000D02*
G75*
G03*
X17312000Y-12446000I-40000J0D01*
G01*
X17439000Y-7112000D02*
G75*
G03*
X17439000Y-7112000I-40000J0D01*
G01*
X17566000Y-7620000D02*
G75*
G03*
X17566000Y-7620000I-40000J0D01*
G01*
X17566000Y-8382000D02*
G75*
G03*
X17566000Y-8382000I-40000J0D01*
G01*
X17566000Y-10414000D02*
G75*
G03*
X17566000Y-10414000I-40000J0D01*
G01*
X17566000Y-11176000D02*
G75*
G03*
X17566000Y-11176000I-40000J0D01*
G01*
X17566000Y-11684000D02*
G75*
G03*
X17566000Y-11684000I-40000J0D01*
G01*
X17566000Y-12446000D02*
G75*
G03*
X17566000Y-12446000I-40000J0D01*
G01*
X17693000Y-7112000D02*
G75*
G03*
X17693000Y-7112000I-40000J0D01*
G01*
X17820000Y-7620000D02*
G75*
G03*
X17820000Y-7620000I-40000J0D01*
G01*
X17820000Y-8382000D02*
G75*
G03*
X17820000Y-8382000I-40000J0D01*
G01*
X17820000Y-10414000D02*
G75*
G03*
X17820000Y-10414000I-40000J0D01*
G01*
X17820000Y-11176000D02*
G75*
G03*
X17820000Y-11176000I-40000J0D01*
G01*
X17820000Y-11684000D02*
G75*
G03*
X17820000Y-11684000I-40000J0D01*
G01*
X17820000Y-12446000D02*
G75*
G03*
X17820000Y-12446000I-40000J0D01*
G01*
X17947000Y-7112000D02*
G75*
G03*
X17947000Y-7112000I-40000J0D01*
G01*
X18074000Y-7620000D02*
G75*
G03*
X18074000Y-7620000I-40000J0D01*
G01*
X18074000Y-8382000D02*
G75*
G03*
X18074000Y-8382000I-40000J0D01*
G01*
X18201000Y-7112000D02*
G75*
G03*
X18201000Y-7112000I-40000J0D01*
G01*
X18328000Y-7620000D02*
G75*
G03*
X18328000Y-7620000I-40000J0D01*
G01*
X18328000Y-8382000D02*
G75*
G03*
X18328000Y-8382000I-40000J0D01*
G01*
X18328000Y-11684000D02*
G75*
G03*
X18328000Y-11684000I-40000J0D01*
G01*
X18328000Y-12184000D02*
G75*
G03*
X18328000Y-12184000I-40000J0D01*
G01*
X18455000Y-7112000D02*
G75*
G03*
X18455000Y-7112000I-40000J0D01*
G01*
X18582000Y-7620000D02*
G75*
G03*
X18582000Y-7620000I-40000J0D01*
G01*
X18582000Y-8382000D02*
G75*
G03*
X18582000Y-8382000I-40000J0D01*
G01*
X18582000Y-10414000D02*
G75*
G03*
X18582000Y-10414000I-40000J0D01*
G01*
X18582000Y-10914000D02*
G75*
G03*
X18582000Y-10914000I-40000J0D01*
G01*
X18709000Y-7112000D02*
G75*
G03*
X18709000Y-7112000I-40000J0D01*
G01*
X18836000Y-11684000D02*
G75*
G03*
X18836000Y-11684000I-40000J0D01*
G01*
X18836000Y-12446000D02*
G75*
G03*
X18836000Y-12446000I-40000J0D01*
G01*
X18963000Y-7112000D02*
G75*
G03*
X18963000Y-7112000I-40000J0D01*
G01*
X19090000Y-10414000D02*
G75*
G03*
X19090000Y-10414000I-40000J0D01*
G01*
X19090000Y-11176000D02*
G75*
G03*
X19090000Y-11176000I-40000J0D01*
G01*
X19090000Y-11684000D02*
G75*
G03*
X19090000Y-11684000I-40000J0D01*
G01*
X19090000Y-12446000D02*
G75*
G03*
X19090000Y-12446000I-40000J0D01*
G01*
X19344000Y-10414000D02*
G75*
G03*
X19344000Y-10414000I-40000J0D01*
G01*
X19344000Y-11176000D02*
G75*
G03*
X19344000Y-11176000I-40000J0D01*
G01*
X19344000Y-11684000D02*
G75*
G03*
X19344000Y-11684000I-40000J0D01*
G01*
X19344000Y-12446000D02*
G75*
G03*
X19344000Y-12446000I-40000J0D01*
G01*
X19598000Y-10414000D02*
G75*
G03*
X19598000Y-10414000I-40000J0D01*
G01*
X19598000Y-11176000D02*
G75*
G03*
X19598000Y-11176000I-40000J0D01*
G01*
X19598000Y-11684000D02*
G75*
G03*
X19598000Y-11684000I-40000J0D01*
G01*
X19598000Y-12446000D02*
G75*
G03*
X19598000Y-12446000I-40000J0D01*
G01*
X19852000Y-10414000D02*
G75*
G03*
X19852000Y-10414000I-40000J0D01*
G01*
X19852000Y-11176000D02*
G75*
G03*
X19852000Y-11176000I-40000J0D01*
G01*
X19852000Y-11684000D02*
G75*
G03*
X19852000Y-11684000I-40000J0D01*
G01*
X19852000Y-12446000D02*
G75*
G03*
X19852000Y-12446000I-40000J0D01*
G01*
X19852000Y-12954000D02*
G75*
G03*
X19852000Y-12954000I-40000J0D01*
G01*
X20106000Y-10414000D02*
G75*
G03*
X20106000Y-10414000I-40000J0D01*
G01*
X20106000Y-11176000D02*
G75*
G03*
X20106000Y-11176000I-40000J0D01*
G01*
X20106000Y-11684000D02*
G75*
G03*
X20106000Y-11684000I-40000J0D01*
G01*
X20106000Y-12446000D02*
G75*
G03*
X20106000Y-12446000I-40000J0D01*
G01*
X20360000Y-10414000D02*
G75*
G03*
X20360000Y-10414000I-40000J0D01*
G01*
X20360000Y-11176000D02*
G75*
G03*
X20360000Y-11176000I-40000J0D01*
G01*
X20360000Y-11684000D02*
G75*
G03*
X20360000Y-11684000I-40000J0D01*
G01*
X20360000Y-12446000D02*
G75*
G03*
X20360000Y-12446000I-40000J0D01*
G01*
X20614000Y-10414000D02*
G75*
G03*
X20614000Y-10414000I-40000J0D01*
G01*
X20614000Y-11176000D02*
G75*
G03*
X20614000Y-11176000I-40000J0D01*
G01*
X20614000Y-11684000D02*
G75*
G03*
X20614000Y-11684000I-40000J0D01*
G01*
X20614000Y-12446000D02*
G75*
G03*
X20614000Y-12446000I-40000J0D01*
G01*
X20868000Y-7620000D02*
G75*
G03*
X20868000Y-7620000I-40000J0D01*
G01*
X20868000Y-8120000D02*
G75*
G03*
X20868000Y-8120000I-40000J0D01*
G01*
X20868000Y-12954000D02*
G75*
G03*
X20868000Y-12954000I-40000J0D01*
G01*
X21122000Y-10058400D02*
G75*
G03*
X21122000Y-10058400I-40000J0D01*
G01*
X21122000Y-10414000D02*
G75*
G03*
X21122000Y-10414000I-40000J0D01*
G01*
X21122000Y-10914000D02*
G75*
G03*
X21122000Y-10914000I-40000J0D01*
G01*
X21122000Y-11684000D02*
G75*
G03*
X21122000Y-11684000I-40000J0D01*
G01*
X21122000Y-12184000D02*
G75*
G03*
X21122000Y-12184000I-40000J0D01*
G01*
X21122000Y-12954000D02*
G75*
G03*
X21122000Y-12954000I-40000J0D01*
G01*
X21376000Y-7620000D02*
G75*
G03*
X21376000Y-7620000I-40000J0D01*
G01*
X21376000Y-8382000D02*
G75*
G03*
X21376000Y-8382000I-40000J0D01*
G01*
X21630000Y-7620000D02*
G75*
G03*
X21630000Y-7620000I-40000J0D01*
G01*
X21630000Y-8382000D02*
G75*
G03*
X21630000Y-8382000I-40000J0D01*
G01*
X21630000Y-10414000D02*
G75*
G03*
X21630000Y-10414000I-40000J0D01*
G01*
X21630000Y-11176000D02*
G75*
G03*
X21630000Y-11176000I-40000J0D01*
G01*
X21630000Y-11684000D02*
G75*
G03*
X21630000Y-11684000I-40000J0D01*
G01*
X21630000Y-12446000D02*
G75*
G03*
X21630000Y-12446000I-40000J0D01*
G01*
X21884000Y-7620000D02*
G75*
G03*
X21884000Y-7620000I-40000J0D01*
G01*
X21884000Y-8382000D02*
G75*
G03*
X21884000Y-8382000I-40000J0D01*
G01*
X21884000Y-10414000D02*
G75*
G03*
X21884000Y-10414000I-40000J0D01*
G01*
X21884000Y-11176000D02*
G75*
G03*
X21884000Y-11176000I-40000J0D01*
G01*
X21884000Y-11684000D02*
G75*
G03*
X21884000Y-11684000I-40000J0D01*
G01*
X21884000Y-12446000D02*
G75*
G03*
X21884000Y-12446000I-40000J0D01*
G01*
X22011000Y-7112000D02*
G75*
G03*
X22011000Y-7112000I-40000J0D01*
G01*
X22138000Y-7620000D02*
G75*
G03*
X22138000Y-7620000I-40000J0D01*
G01*
X22138000Y-8382000D02*
G75*
G03*
X22138000Y-8382000I-40000J0D01*
G01*
X22138000Y-10058400D02*
G75*
G03*
X22138000Y-10058400I-40000J0D01*
G01*
X22138000Y-10414000D02*
G75*
G03*
X22138000Y-10414000I-40000J0D01*
G01*
X22138000Y-11176000D02*
G75*
G03*
X22138000Y-11176000I-40000J0D01*
G01*
X22138000Y-11684000D02*
G75*
G03*
X22138000Y-11684000I-40000J0D01*
G01*
X22138000Y-12446000D02*
G75*
G03*
X22138000Y-12446000I-40000J0D01*
G01*
X22138000Y-12954000D02*
G75*
G03*
X22138000Y-12954000I-40000J0D01*
G01*
X22265000Y-7112000D02*
G75*
G03*
X22265000Y-7112000I-40000J0D01*
G01*
X22392000Y-7620000D02*
G75*
G03*
X22392000Y-7620000I-40000J0D01*
G01*
X22392000Y-8382000D02*
G75*
G03*
X22392000Y-8382000I-40000J0D01*
G01*
X22392000Y-10058400D02*
G75*
G03*
X22392000Y-10058400I-40000J0D01*
G01*
X22392000Y-10414000D02*
G75*
G03*
X22392000Y-10414000I-40000J0D01*
G01*
X22392000Y-11176000D02*
G75*
G03*
X22392000Y-11176000I-40000J0D01*
G01*
X22392000Y-11684000D02*
G75*
G03*
X22392000Y-11684000I-40000J0D01*
G01*
X22392000Y-12446000D02*
G75*
G03*
X22392000Y-12446000I-40000J0D01*
G01*
X22519000Y-7112000D02*
G75*
G03*
X22519000Y-7112000I-40000J0D01*
G01*
X22646000Y-7620000D02*
G75*
G03*
X22646000Y-7620000I-40000J0D01*
G01*
X22646000Y-8382000D02*
G75*
G03*
X22646000Y-8382000I-40000J0D01*
G01*
X22646000Y-10414000D02*
G75*
G03*
X22646000Y-10414000I-40000J0D01*
G01*
X22646000Y-11176000D02*
G75*
G03*
X22646000Y-11176000I-40000J0D01*
G01*
X22646000Y-11684000D02*
G75*
G03*
X22646000Y-11684000I-40000J0D01*
G01*
X22646000Y-12446000D02*
G75*
G03*
X22646000Y-12446000I-40000J0D01*
G01*
X22773000Y-7112000D02*
G75*
G03*
X22773000Y-7112000I-40000J0D01*
G01*
X22900000Y-7620000D02*
G75*
G03*
X22900000Y-7620000I-40000J0D01*
G01*
X22900000Y-8382000D02*
G75*
G03*
X22900000Y-8382000I-40000J0D01*
G01*
X22900000Y-10414000D02*
G75*
G03*
X22900000Y-10414000I-40000J0D01*
G01*
X22900000Y-11176000D02*
G75*
G03*
X22900000Y-11176000I-40000J0D01*
G01*
X22900000Y-11684000D02*
G75*
G03*
X22900000Y-11684000I-40000J0D01*
G01*
X22900000Y-12446000D02*
G75*
G03*
X22900000Y-12446000I-40000J0D01*
G01*
X23027000Y-7112000D02*
G75*
G03*
X23027000Y-7112000I-40000J0D01*
G01*
X23154000Y-7620000D02*
G75*
G03*
X23154000Y-7620000I-40000J0D01*
G01*
X23154000Y-8382000D02*
G75*
G03*
X23154000Y-8382000I-40000J0D01*
G01*
X23154000Y-10414000D02*
G75*
G03*
X23154000Y-10414000I-40000J0D01*
G01*
X23154000Y-11176000D02*
G75*
G03*
X23154000Y-11176000I-40000J0D01*
G01*
X23154000Y-11684000D02*
G75*
G03*
X23154000Y-11684000I-40000J0D01*
G01*
X23154000Y-12446000D02*
G75*
G03*
X23154000Y-12446000I-40000J0D01*
G01*
X23281000Y-7112000D02*
G75*
G03*
X23281000Y-7112000I-40000J0D01*
G01*
X23408000Y-7620000D02*
G75*
G03*
X23408000Y-7620000I-40000J0D01*
G01*
X23408000Y-8382000D02*
G75*
G03*
X23408000Y-8382000I-40000J0D01*
G01*
X23408000Y-10058400D02*
G75*
G03*
X23408000Y-10058400I-40000J0D01*
G01*
X23535000Y-7112000D02*
G75*
G03*
X23535000Y-7112000I-40000J0D01*
G01*
X23662000Y-7620000D02*
G75*
G03*
X23662000Y-7620000I-40000J0D01*
G01*
X23662000Y-8382000D02*
G75*
G03*
X23662000Y-8382000I-40000J0D01*
G01*
X23789000Y-7112000D02*
G75*
G03*
X23789000Y-7112000I-40000J0D01*
G01*
X24043000Y-7112000D02*
G75*
G03*
X24043000Y-7112000I-40000J0D01*
G01*
X24170000Y-8890000D02*
G75*
G03*
X24170000Y-8890000I-40000J0D01*
G01*
X24170000Y-9906000D02*
G75*
G03*
X24170000Y-9906000I-40000J0D01*
G01*
X24428000Y-12446000D02*
G75*
G03*
X24428000Y-12446000I-40000J0D01*
G01*
X24678000Y-12446000D02*
G75*
G03*
X24678000Y-12446000I-40000J0D01*
G01*
D14*
X15367000Y-6305000D02*
X15367000Y-6395000D01*
X15322000Y-6350000D02*
X15412000Y-6350000D01*
X15621000Y-6305000D02*
X15621000Y-6395000D01*
X15576000Y-6350000D02*
X15666000Y-6350000D01*
X16002000Y-6305000D02*
X16002000Y-6395000D01*
X15957000Y-6350000D02*
X16047000Y-6350000D01*
X16256000Y-6305000D02*
X16256000Y-6395000D01*
X16211000Y-6350000D02*
X16301000Y-6350000D01*
X16637000Y-6305000D02*
X16637000Y-6395000D01*
X16592000Y-6350000D02*
X16682000Y-6350000D01*
X16891000Y-6305000D02*
X16891000Y-6395000D01*
X16846000Y-6350000D02*
X16936000Y-6350000D01*
X17272000Y-6305000D02*
X17272000Y-6395000D01*
X17227000Y-6350000D02*
X17317000Y-6350000D01*
X17526000Y-6305000D02*
X17526000Y-6395000D01*
X17481000Y-6350000D02*
X17571000Y-6350000D01*
X17907000Y-6305000D02*
X17907000Y-6395000D01*
X17862000Y-6350000D02*
X17952000Y-6350000D01*
X18161000Y-6305000D02*
X18161000Y-6395000D01*
X18116000Y-6350000D02*
X18206000Y-6350000D01*
X18542000Y-6305000D02*
X18542000Y-6395000D01*
X18497000Y-6350000D02*
X18587000Y-6350000D01*
X18796000Y-6305000D02*
X18796000Y-6395000D01*
X18751000Y-6350000D02*
X18841000Y-6350000D01*
X19177000Y-6305000D02*
X19177000Y-6395000D01*
X19132000Y-6350000D02*
X19222000Y-6350000D01*
X19431000Y-6305000D02*
X19431000Y-6395000D01*
X19386000Y-6350000D02*
X19476000Y-6350000D01*
X19812000Y-6305000D02*
X19812000Y-6395000D01*
X19767000Y-6350000D02*
X19857000Y-6350000D01*
X20066000Y-6305000D02*
X20066000Y-6395000D01*
X20021000Y-6350000D02*
X20111000Y-6350000D01*
X20447000Y-6305000D02*
X20447000Y-6395000D01*
X20402000Y-6350000D02*
X20492000Y-6350000D01*
X20701000Y-6305000D02*
X20701000Y-6395000D01*
X20656000Y-6350000D02*
X20746000Y-6350000D01*
X21082000Y-6305000D02*
X21082000Y-6395000D01*
X21037000Y-6350000D02*
X21127000Y-6350000D01*
X21336000Y-6305000D02*
X21336000Y-6395000D01*
X21291000Y-6350000D02*
X21381000Y-6350000D01*
X21717000Y-6305000D02*
X21717000Y-6395000D01*
X21672000Y-6350000D02*
X21762000Y-6350000D01*
X21971000Y-6305000D02*
X21971000Y-6395000D01*
X21926000Y-6350000D02*
X22016000Y-6350000D01*
X22352000Y-6305000D02*
X22352000Y-6395000D01*
X22307000Y-6350000D02*
X22397000Y-6350000D01*
X22606000Y-6305000D02*
X22606000Y-6395000D01*
X22561000Y-6350000D02*
X22651000Y-6350000D01*
X22987000Y-6305000D02*
X22987000Y-6395000D01*
X22942000Y-6350000D02*
X23032000Y-6350000D01*
X23241000Y-6305000D02*
X23241000Y-6395000D01*
X23196000Y-6350000D02*
X23286000Y-6350000D01*
X23622000Y-6305000D02*
X23622000Y-6395000D01*
X23577000Y-6350000D02*
X23667000Y-6350000D01*
X23876000Y-6305000D02*
X23876000Y-6395000D01*
X23831000Y-6350000D02*
X23921000Y-6350000D01*
X24257000Y-6305000D02*
X24257000Y-6395000D01*
X24212000Y-6350000D02*
X24302000Y-6350000D01*
X24511000Y-6305000D02*
X24511000Y-6395000D01*
X24466000Y-6350000D02*
X24556000Y-6350000D01*
X24892000Y-6305000D02*
X24892000Y-6395000D01*
X24847000Y-6350000D02*
X24937000Y-6350000D01*
X25146000Y-6305000D02*
X25146000Y-6395000D01*
X25101000Y-6350000D02*
X25191000Y-6350000D01*
D15*
X5369356Y-6131356D02*
X5369356Y-6060644D01*
X5298644Y-6060644D01*
X5298644Y-6131356D01*
X5369356Y-6131356D01*
X5623356Y-6131356D02*
X5623356Y-6060644D01*
X5552644Y-6060644D01*
X5552644Y-6131356D01*
X5623356Y-6131356D01*
X5877356Y-6131356D02*
X5877356Y-6060644D01*
X5806644Y-6060644D01*
X5806644Y-6131356D01*
X5877356Y-6131356D01*
X6131356Y-6131356D02*
X6131356Y-6060644D01*
X6060644Y-6060644D01*
X6060644Y-6131356D01*
X6131356Y-6131356D01*
X6385356Y-6131356D02*
X6385356Y-6060644D01*
X6314644Y-6060644D01*
X6314644Y-6131356D01*
X6385356Y-6131356D01*
X6385356Y-14513356D02*
X6385356Y-14442644D01*
X6314644Y-14442644D01*
X6314644Y-14513356D01*
X6385356Y-14513356D01*
X6639356Y-6131356D02*
X6639356Y-6060644D01*
X6568644Y-6060644D01*
X6568644Y-6131356D01*
X6639356Y-6131356D01*
X6639356Y-14513356D02*
X6639356Y-14442644D01*
X6568644Y-14442644D01*
X6568644Y-14513356D01*
X6639356Y-14513356D01*
X6893356Y-6131356D02*
X6893356Y-6060644D01*
X6822644Y-6060644D01*
X6822644Y-6131356D01*
X6893356Y-6131356D01*
X6893356Y-14513356D02*
X6893356Y-14442644D01*
X6822644Y-14442644D01*
X6822644Y-14513356D01*
X6893356Y-14513356D01*
X7147356Y-6131356D02*
X7147356Y-6060644D01*
X7076644Y-6060644D01*
X7076644Y-6131356D01*
X7147356Y-6131356D01*
X7147356Y-14513356D02*
X7147356Y-14442644D01*
X7076644Y-14442644D01*
X7076644Y-14513356D01*
X7147356Y-14513356D01*
X7401356Y-6131356D02*
X7401356Y-6060644D01*
X7330644Y-6060644D01*
X7330644Y-6131356D01*
X7401356Y-6131356D01*
X7401356Y-14513356D02*
X7401356Y-14442644D01*
X7330644Y-14442644D01*
X7330644Y-14513356D01*
X7401356Y-14513356D01*
X7655356Y-6131356D02*
X7655356Y-6060644D01*
X7584644Y-6060644D01*
X7584644Y-6131356D01*
X7655356Y-6131356D01*
X7655356Y-14513356D02*
X7655356Y-14442644D01*
X7584644Y-14442644D01*
X7584644Y-14513356D01*
X7655356Y-14513356D01*
X7909356Y-6131356D02*
X7909356Y-6060644D01*
X7838644Y-6060644D01*
X7838644Y-6131356D01*
X7909356Y-6131356D01*
X7909356Y-14513356D02*
X7909356Y-14442644D01*
X7838644Y-14442644D01*
X7838644Y-14513356D01*
X7909356Y-14513356D01*
X8163356Y-6131356D02*
X8163356Y-6060644D01*
X8092644Y-6060644D01*
X8092644Y-6131356D01*
X8163356Y-6131356D01*
X8163356Y-14513356D02*
X8163356Y-14442644D01*
X8092644Y-14442644D01*
X8092644Y-14513356D01*
X8163356Y-14513356D01*
X8417356Y-6131356D02*
X8417356Y-6060644D01*
X8346644Y-6060644D01*
X8346644Y-6131356D01*
X8417356Y-6131356D01*
X8417356Y-14513356D02*
X8417356Y-14442644D01*
X8346644Y-14442644D01*
X8346644Y-14513356D01*
X8417356Y-14513356D01*
X8671356Y-6131356D02*
X8671356Y-6060644D01*
X8600644Y-6060644D01*
X8600644Y-6131356D01*
X8671356Y-6131356D01*
X8671356Y-14513356D02*
X8671356Y-14442644D01*
X8600644Y-14442644D01*
X8600644Y-14513356D01*
X8671356Y-14513356D01*
X8925356Y-6131356D02*
X8925356Y-6060644D01*
X8854644Y-6060644D01*
X8854644Y-6131356D01*
X8925356Y-6131356D01*
X9179356Y-6131356D02*
X9179356Y-6060644D01*
X9108644Y-6060644D01*
X9108644Y-6131356D01*
X9179356Y-6131356D01*
X9687356Y-6131356D02*
X9687356Y-6060644D01*
X9616644Y-6060644D01*
X9616644Y-6131356D01*
X9687356Y-6131356D01*
X9941356Y-6131356D02*
X9941356Y-6060644D01*
X9870644Y-6060644D01*
X9870644Y-6131356D01*
X9941356Y-6131356D01*
X9941356Y-14513356D02*
X9941356Y-14442644D01*
X9870644Y-14442644D01*
X9870644Y-14513356D01*
X9941356Y-14513356D01*
X10195356Y-14513356D02*
X10195356Y-14442644D01*
X10124644Y-14442644D01*
X10124644Y-14513356D01*
X10195356Y-14513356D01*
X10449356Y-14513356D02*
X10449356Y-14442644D01*
X10378644Y-14442644D01*
X10378644Y-14513356D01*
X10449356Y-14513356D01*
X10703356Y-14513356D02*
X10703356Y-14442644D01*
X10632644Y-14442644D01*
X10632644Y-14513356D01*
X10703356Y-14513356D01*
X10957356Y-14513356D02*
X10957356Y-14442644D01*
X10886644Y-14442644D01*
X10886644Y-14513356D01*
X10957356Y-14513356D01*
X11211356Y-14513356D02*
X11211356Y-14442644D01*
X11140644Y-14442644D01*
X11140644Y-14513356D01*
X11211356Y-14513356D01*
X11465356Y-14513356D02*
X11465356Y-14442644D01*
X11394644Y-14442644D01*
X11394644Y-14513356D01*
X11465356Y-14513356D01*
X11719356Y-14513356D02*
X11719356Y-14442644D01*
X11648644Y-14442644D01*
X11648644Y-14513356D01*
X11719356Y-14513356D01*
X11973356Y-14513356D02*
X11973356Y-14442644D01*
X11902644Y-14442644D01*
X11902644Y-14513356D01*
X11973356Y-14513356D01*
X12227356Y-14513356D02*
X12227356Y-14442644D01*
X12156644Y-14442644D01*
X12156644Y-14513356D01*
X12227356Y-14513356D01*
X12481356Y-14513356D02*
X12481356Y-14442644D01*
X12410644Y-14442644D01*
X12410644Y-14513356D01*
X12481356Y-14513356D01*
X12735356Y-14513356D02*
X12735356Y-14442644D01*
X12664644Y-14442644D01*
X12664644Y-14513356D01*
X12735356Y-14513356D01*
X12989356Y-14513356D02*
X12989356Y-14442644D01*
X12918644Y-14442644D01*
X12918644Y-14513356D01*
X12989356Y-14513356D01*
X13243356Y-14513356D02*
X13243356Y-14442644D01*
X13172644Y-14442644D01*
X13172644Y-14513356D01*
X13243356Y-14513356D01*
X13497356Y-14513356D02*
X13497356Y-14442644D01*
X13426644Y-14442644D01*
X13426644Y-14513356D01*
X13497356Y-14513356D01*
X13751356Y-14513356D02*
X13751356Y-14442644D01*
X13680644Y-14442644D01*
X13680644Y-14513356D01*
X13751356Y-14513356D01*
X16291356Y-14513356D02*
X16291356Y-14442644D01*
X16220644Y-14442644D01*
X16220644Y-14513356D01*
X16291356Y-14513356D01*
X16545356Y-14513356D02*
X16545356Y-14442644D01*
X16474644Y-14442644D01*
X16474644Y-14513356D01*
X16545356Y-14513356D01*
X16799356Y-14513356D02*
X16799356Y-14442644D01*
X16728644Y-14442644D01*
X16728644Y-14513356D01*
X16799356Y-14513356D01*
X17053356Y-14513356D02*
X17053356Y-14442644D01*
X16982644Y-14442644D01*
X16982644Y-14513356D01*
X17053356Y-14513356D01*
X17307356Y-14513356D02*
X17307356Y-14442644D01*
X17236644Y-14442644D01*
X17236644Y-14513356D01*
X17307356Y-14513356D01*
X17561356Y-14513356D02*
X17561356Y-14442644D01*
X17490644Y-14442644D01*
X17490644Y-14513356D01*
X17561356Y-14513356D01*
X17815356Y-14513356D02*
X17815356Y-14442644D01*
X17744644Y-14442644D01*
X17744644Y-14513356D01*
X17815356Y-14513356D01*
X18069356Y-14513356D02*
X18069356Y-14442644D01*
X17998644Y-14442644D01*
X17998644Y-14513356D01*
X18069356Y-14513356D01*
X18323356Y-14513356D02*
X18323356Y-14442644D01*
X18252644Y-14442644D01*
X18252644Y-14513356D01*
X18323356Y-14513356D01*
X18577356Y-14513356D02*
X18577356Y-14442644D01*
X18506644Y-14442644D01*
X18506644Y-14513356D01*
X18577356Y-14513356D01*
X18831356Y-14513356D02*
X18831356Y-14442644D01*
X18760644Y-14442644D01*
X18760644Y-14513356D01*
X18831356Y-14513356D01*
X19085356Y-14513356D02*
X19085356Y-14442644D01*
X19014644Y-14442644D01*
X19014644Y-14513356D01*
X19085356Y-14513356D01*
X19339356Y-14513356D02*
X19339356Y-14442644D01*
X19268644Y-14442644D01*
X19268644Y-14513356D01*
X19339356Y-14513356D01*
X19593356Y-14513356D02*
X19593356Y-14442644D01*
X19522644Y-14442644D01*
X19522644Y-14513356D01*
X19593356Y-14513356D01*
X19847356Y-14513356D02*
X19847356Y-14442644D01*
X19776644Y-14442644D01*
X19776644Y-14513356D01*
X19847356Y-14513356D01*
X20101356Y-14513356D02*
X20101356Y-14442644D01*
X20030644Y-14442644D01*
X20030644Y-14513356D01*
X20101356Y-14513356D01*
X20355356Y-14513356D02*
X20355356Y-14442644D01*
X20284644Y-14442644D01*
X20284644Y-14513356D01*
X20355356Y-14513356D01*
X20609356Y-14513356D02*
X20609356Y-14442644D01*
X20538644Y-14442644D01*
X20538644Y-14513356D01*
X20609356Y-14513356D01*
X20863356Y-14513356D02*
X20863356Y-14442644D01*
X20792644Y-14442644D01*
X20792644Y-14513356D01*
X20863356Y-14513356D01*
X21117356Y-14513356D02*
X21117356Y-14442644D01*
X21046644Y-14442644D01*
X21046644Y-14513356D01*
X21117356Y-14513356D01*
X21371356Y-14513356D02*
X21371356Y-14442644D01*
X21300644Y-14442644D01*
X21300644Y-14513356D01*
X21371356Y-14513356D01*
X21625356Y-14513356D02*
X21625356Y-14442644D01*
X21554644Y-14442644D01*
X21554644Y-14513356D01*
X21625356Y-14513356D01*
X21879356Y-14513356D02*
X21879356Y-14442644D01*
X21808644Y-14442644D01*
X21808644Y-14513356D01*
X21879356Y-14513356D01*
X22133356Y-14513356D02*
X22133356Y-14442644D01*
X22062644Y-14442644D01*
X22062644Y-14513356D01*
X22133356Y-14513356D01*
X22387356Y-14513356D02*
X22387356Y-14442644D01*
X22316644Y-14442644D01*
X22316644Y-14513356D01*
X22387356Y-14513356D01*
X22641356Y-14513356D02*
X22641356Y-14442644D01*
X22570644Y-14442644D01*
X22570644Y-14513356D01*
X22641356Y-14513356D01*
X22895356Y-14513356D02*
X22895356Y-14442644D01*
X22824644Y-14442644D01*
X22824644Y-14513356D01*
X22895356Y-14513356D01*
X23149356Y-14513356D02*
X23149356Y-14442644D01*
X23078644Y-14442644D01*
X23078644Y-14513356D01*
X23149356Y-14513356D01*
X23403356Y-14513356D02*
X23403356Y-14442644D01*
X23332644Y-14442644D01*
X23332644Y-14513356D01*
X23403356Y-14513356D01*
X23657356Y-14513356D02*
X23657356Y-14442644D01*
X23586644Y-14442644D01*
X23586644Y-14513356D01*
X23657356Y-14513356D01*
X23911356Y-14513356D02*
X23911356Y-14442644D01*
X23840644Y-14442644D01*
X23840644Y-14513356D01*
X23911356Y-14513356D01*
X24165356Y-7909356D02*
X24165356Y-7838644D01*
X24094644Y-7838644D01*
X24094644Y-7909356D01*
X24165356Y-7909356D01*
X24165356Y-8163356D02*
X24165356Y-8092644D01*
X24094644Y-8092644D01*
X24094644Y-8163356D01*
X24165356Y-8163356D01*
X24165356Y-8417356D02*
X24165356Y-8346644D01*
X24094644Y-8346644D01*
X24094644Y-8417356D01*
X24165356Y-8417356D01*
X24165356Y-14513356D02*
X24165356Y-14442644D01*
X24094644Y-14442644D01*
X24094644Y-14513356D01*
X24165356Y-14513356D01*
D11*
X5325119Y-15154976D02*
X5325119Y-14954976D01*
X5325119Y-14954976D02*
X5372738Y-14954976D01*
X5372738Y-14954976D02*
X5401310Y-14964500D01*
X5401310Y-14964500D02*
X5420357Y-14983548D01*
X5420357Y-14983548D02*
X5429881Y-15002595D01*
X5429881Y-15002595D02*
X5439405Y-15040690D01*
X5439405Y-15040690D02*
X5439405Y-15069262D01*
X5439405Y-15069262D02*
X5429881Y-15107357D01*
X5429881Y-15107357D02*
X5420357Y-15126405D01*
X5420357Y-15126405D02*
X5401310Y-15145452D01*
X5401310Y-15145452D02*
X5372738Y-15154976D01*
X5372738Y-15154976D02*
X5325119Y-15154976D01*
X5525119Y-15154976D02*
X5525119Y-15021643D01*
X5525119Y-15059738D02*
X5534643Y-15040690D01*
X5534643Y-15040690D02*
X5544167Y-15031167D01*
X5544167Y-15031167D02*
X5563214Y-15021643D01*
X5563214Y-15021643D02*
X5582262Y-15021643D01*
X5648928Y-15154976D02*
X5648928Y-15021643D01*
X5648928Y-14954976D02*
X5639405Y-14964500D01*
X5639405Y-14964500D02*
X5648928Y-14974024D01*
X5648928Y-14974024D02*
X5658452Y-14964500D01*
X5658452Y-14964500D02*
X5648928Y-14954976D01*
X5648928Y-14954976D02*
X5648928Y-14974024D01*
X5772738Y-15154976D02*
X5753690Y-15145452D01*
X5753690Y-15145452D02*
X5744167Y-15126405D01*
X5744167Y-15126405D02*
X5744167Y-14954976D01*
X5877500Y-15154976D02*
X5858452Y-15145452D01*
X5858452Y-15145452D02*
X5848928Y-15126405D01*
X5848928Y-15126405D02*
X5848928Y-14954976D01*
X6073690Y-15154976D02*
X6073690Y-14954976D01*
X6073690Y-14954976D02*
X6140357Y-15097833D01*
X6140357Y-15097833D02*
X6207024Y-14954976D01*
X6207024Y-14954976D02*
X6207024Y-15154976D01*
X6387976Y-15154976D02*
X6387976Y-15050214D01*
X6387976Y-15050214D02*
X6378452Y-15031167D01*
X6378452Y-15031167D02*
X6359405Y-15021643D01*
X6359405Y-15021643D02*
X6321309Y-15021643D01*
X6321309Y-15021643D02*
X6302262Y-15031167D01*
X6387976Y-15145452D02*
X6368928Y-15154976D01*
X6368928Y-15154976D02*
X6321309Y-15154976D01*
X6321309Y-15154976D02*
X6302262Y-15145452D01*
X6302262Y-15145452D02*
X6292738Y-15126405D01*
X6292738Y-15126405D02*
X6292738Y-15107357D01*
X6292738Y-15107357D02*
X6302262Y-15088309D01*
X6302262Y-15088309D02*
X6321309Y-15078786D01*
X6321309Y-15078786D02*
X6368928Y-15078786D01*
X6368928Y-15078786D02*
X6387976Y-15069262D01*
X6483214Y-15021643D02*
X6483214Y-15221643D01*
X6483214Y-15031167D02*
X6502262Y-15021643D01*
X6502262Y-15021643D02*
X6540357Y-15021643D01*
X6540357Y-15021643D02*
X6559405Y-15031167D01*
X6559405Y-15031167D02*
X6568928Y-15040690D01*
X6568928Y-15040690D02*
X6578452Y-15059738D01*
X6578452Y-15059738D02*
X6578452Y-15116881D01*
X6578452Y-15116881D02*
X6568928Y-15135928D01*
X6568928Y-15135928D02*
X6559405Y-15145452D01*
X6559405Y-15145452D02*
X6540357Y-15154976D01*
X6540357Y-15154976D02*
X6502262Y-15154976D01*
X6502262Y-15154976D02*
X6483214Y-15145452D01*
X6664167Y-15135928D02*
X6673690Y-15145452D01*
X6673690Y-15145452D02*
X6664167Y-15154976D01*
X6664167Y-15154976D02*
X6654643Y-15145452D01*
X6654643Y-15145452D02*
X6664167Y-15135928D01*
X6664167Y-15135928D02*
X6664167Y-15154976D01*
X6664167Y-15031167D02*
X6673690Y-15040690D01*
X6673690Y-15040690D02*
X6664167Y-15050214D01*
X6664167Y-15050214D02*
X6654643Y-15040690D01*
X6654643Y-15040690D02*
X6664167Y-15031167D01*
X6664167Y-15031167D02*
X6664167Y-15050214D01*
D12*
X5039400Y-15482450D02*
X5077500Y-15520550D01*
X5077500Y-15482450D02*
X5039400Y-15520550D01*
D11*
X5363214Y-15374976D02*
X5382262Y-15374976D01*
X5382262Y-15374976D02*
X5401310Y-15384500D01*
X5401310Y-15384500D02*
X5410833Y-15394024D01*
X5410833Y-15394024D02*
X5420357Y-15413071D01*
X5420357Y-15413071D02*
X5429881Y-15451167D01*
X5429881Y-15451167D02*
X5429881Y-15498786D01*
X5429881Y-15498786D02*
X5420357Y-15536881D01*
X5420357Y-15536881D02*
X5410833Y-15555928D01*
X5410833Y-15555928D02*
X5401310Y-15565452D01*
X5401310Y-15565452D02*
X5382262Y-15574976D01*
X5382262Y-15574976D02*
X5363214Y-15574976D01*
X5363214Y-15574976D02*
X5344167Y-15565452D01*
X5344167Y-15565452D02*
X5334643Y-15555928D01*
X5334643Y-15555928D02*
X5325119Y-15536881D01*
X5325119Y-15536881D02*
X5315595Y-15498786D01*
X5315595Y-15498786D02*
X5315595Y-15451167D01*
X5315595Y-15451167D02*
X5325119Y-15413071D01*
X5325119Y-15413071D02*
X5334643Y-15394024D01*
X5334643Y-15394024D02*
X5344167Y-15384500D01*
X5344167Y-15384500D02*
X5363214Y-15374976D01*
X5515595Y-15555928D02*
X5525119Y-15565452D01*
X5525119Y-15565452D02*
X5515595Y-15574976D01*
X5515595Y-15574976D02*
X5506071Y-15565452D01*
X5506071Y-15565452D02*
X5515595Y-15555928D01*
X5515595Y-15555928D02*
X5515595Y-15574976D01*
X5591786Y-15374976D02*
X5715595Y-15374976D01*
X5715595Y-15374976D02*
X5648928Y-15451167D01*
X5648928Y-15451167D02*
X5677500Y-15451167D01*
X5677500Y-15451167D02*
X5696548Y-15460690D01*
X5696548Y-15460690D02*
X5706071Y-15470214D01*
X5706071Y-15470214D02*
X5715595Y-15489262D01*
X5715595Y-15489262D02*
X5715595Y-15536881D01*
X5715595Y-15536881D02*
X5706071Y-15555928D01*
X5706071Y-15555928D02*
X5696548Y-15565452D01*
X5696548Y-15565452D02*
X5677500Y-15574976D01*
X5677500Y-15574976D02*
X5620357Y-15574976D01*
X5620357Y-15574976D02*
X5601309Y-15565452D01*
X5601309Y-15565452D02*
X5591786Y-15555928D01*
X5829881Y-15460690D02*
X5810833Y-15451167D01*
X5810833Y-15451167D02*
X5801309Y-15441643D01*
X5801309Y-15441643D02*
X5791786Y-15422595D01*
X5791786Y-15422595D02*
X5791786Y-15413071D01*
X5791786Y-15413071D02*
X5801309Y-15394024D01*
X5801309Y-15394024D02*
X5810833Y-15384500D01*
X5810833Y-15384500D02*
X5829881Y-15374976D01*
X5829881Y-15374976D02*
X5867976Y-15374976D01*
X5867976Y-15374976D02*
X5887024Y-15384500D01*
X5887024Y-15384500D02*
X5896548Y-15394024D01*
X5896548Y-15394024D02*
X5906071Y-15413071D01*
X5906071Y-15413071D02*
X5906071Y-15422595D01*
X5906071Y-15422595D02*
X5896548Y-15441643D01*
X5896548Y-15441643D02*
X5887024Y-15451167D01*
X5887024Y-15451167D02*
X5867976Y-15460690D01*
X5867976Y-15460690D02*
X5829881Y-15460690D01*
X5829881Y-15460690D02*
X5810833Y-15470214D01*
X5810833Y-15470214D02*
X5801309Y-15479738D01*
X5801309Y-15479738D02*
X5791786Y-15498786D01*
X5791786Y-15498786D02*
X5791786Y-15536881D01*
X5791786Y-15536881D02*
X5801309Y-15555928D01*
X5801309Y-15555928D02*
X5810833Y-15565452D01*
X5810833Y-15565452D02*
X5829881Y-15574976D01*
X5829881Y-15574976D02*
X5867976Y-15574976D01*
X5867976Y-15574976D02*
X5887024Y-15565452D01*
X5887024Y-15565452D02*
X5896548Y-15555928D01*
X5896548Y-15555928D02*
X5906071Y-15536881D01*
X5906071Y-15536881D02*
X5906071Y-15498786D01*
X5906071Y-15498786D02*
X5896548Y-15479738D01*
X5896548Y-15479738D02*
X5887024Y-15470214D01*
X5887024Y-15470214D02*
X5867976Y-15460690D01*
X6096548Y-15574976D02*
X5982262Y-15574976D01*
X6039405Y-15574976D02*
X6039405Y-15374976D01*
X6039405Y-15374976D02*
X6020357Y-15403548D01*
X6020357Y-15403548D02*
X6001309Y-15422595D01*
X6001309Y-15422595D02*
X5982262Y-15432119D01*
X6182262Y-15574976D02*
X6182262Y-15441643D01*
X6182262Y-15460690D02*
X6191786Y-15451167D01*
X6191786Y-15451167D02*
X6210833Y-15441643D01*
X6210833Y-15441643D02*
X6239405Y-15441643D01*
X6239405Y-15441643D02*
X6258452Y-15451167D01*
X6258452Y-15451167D02*
X6267976Y-15470214D01*
X6267976Y-15470214D02*
X6267976Y-15574976D01*
X6267976Y-15470214D02*
X6277500Y-15451167D01*
X6277500Y-15451167D02*
X6296548Y-15441643D01*
X6296548Y-15441643D02*
X6325119Y-15441643D01*
X6325119Y-15441643D02*
X6344167Y-15451167D01*
X6344167Y-15451167D02*
X6353690Y-15470214D01*
X6353690Y-15470214D02*
X6353690Y-15574976D01*
X6448929Y-15574976D02*
X6448929Y-15441643D01*
X6448929Y-15460690D02*
X6458452Y-15451167D01*
X6458452Y-15451167D02*
X6477500Y-15441643D01*
X6477500Y-15441643D02*
X6506071Y-15441643D01*
X6506071Y-15441643D02*
X6525119Y-15451167D01*
X6525119Y-15451167D02*
X6534643Y-15470214D01*
X6534643Y-15470214D02*
X6534643Y-15574976D01*
X6534643Y-15470214D02*
X6544167Y-15451167D01*
X6544167Y-15451167D02*
X6563214Y-15441643D01*
X6563214Y-15441643D02*
X6591786Y-15441643D01*
X6591786Y-15441643D02*
X6610833Y-15451167D01*
X6610833Y-15451167D02*
X6620357Y-15470214D01*
X6620357Y-15470214D02*
X6620357Y-15574976D01*
X6978452Y-15365452D02*
X6807024Y-15622595D01*
X7203214Y-15374976D02*
X7222262Y-15374976D01*
X7222262Y-15374976D02*
X7241310Y-15384500D01*
X7241310Y-15384500D02*
X7250833Y-15394024D01*
X7250833Y-15394024D02*
X7260357Y-15413071D01*
X7260357Y-15413071D02*
X7269881Y-15451167D01*
X7269881Y-15451167D02*
X7269881Y-15498786D01*
X7269881Y-15498786D02*
X7260357Y-15536881D01*
X7260357Y-15536881D02*
X7250833Y-15555928D01*
X7250833Y-15555928D02*
X7241310Y-15565452D01*
X7241310Y-15565452D02*
X7222262Y-15574976D01*
X7222262Y-15574976D02*
X7203214Y-15574976D01*
X7203214Y-15574976D02*
X7184167Y-15565452D01*
X7184167Y-15565452D02*
X7174643Y-15555928D01*
X7174643Y-15555928D02*
X7165119Y-15536881D01*
X7165119Y-15536881D02*
X7155595Y-15498786D01*
X7155595Y-15498786D02*
X7155595Y-15451167D01*
X7155595Y-15451167D02*
X7165119Y-15413071D01*
X7165119Y-15413071D02*
X7174643Y-15394024D01*
X7174643Y-15394024D02*
X7184167Y-15384500D01*
X7184167Y-15384500D02*
X7203214Y-15374976D01*
X7355595Y-15555928D02*
X7365119Y-15565452D01*
X7365119Y-15565452D02*
X7355595Y-15574976D01*
X7355595Y-15574976D02*
X7346071Y-15565452D01*
X7346071Y-15565452D02*
X7355595Y-15555928D01*
X7355595Y-15555928D02*
X7355595Y-15574976D01*
X7488929Y-15374976D02*
X7507976Y-15374976D01*
X7507976Y-15374976D02*
X7527024Y-15384500D01*
X7527024Y-15384500D02*
X7536548Y-15394024D01*
X7536548Y-15394024D02*
X7546071Y-15413071D01*
X7546071Y-15413071D02*
X7555595Y-15451167D01*
X7555595Y-15451167D02*
X7555595Y-15498786D01*
X7555595Y-15498786D02*
X7546071Y-15536881D01*
X7546071Y-15536881D02*
X7536548Y-15555928D01*
X7536548Y-15555928D02*
X7527024Y-15565452D01*
X7527024Y-15565452D02*
X7507976Y-15574976D01*
X7507976Y-15574976D02*
X7488929Y-15574976D01*
X7488929Y-15574976D02*
X7469881Y-15565452D01*
X7469881Y-15565452D02*
X7460357Y-15555928D01*
X7460357Y-15555928D02*
X7450833Y-15536881D01*
X7450833Y-15536881D02*
X7441310Y-15498786D01*
X7441310Y-15498786D02*
X7441310Y-15451167D01*
X7441310Y-15451167D02*
X7450833Y-15413071D01*
X7450833Y-15413071D02*
X7460357Y-15394024D01*
X7460357Y-15394024D02*
X7469881Y-15384500D01*
X7469881Y-15384500D02*
X7488929Y-15374976D01*
X7746071Y-15574976D02*
X7631786Y-15574976D01*
X7688929Y-15574976D02*
X7688929Y-15374976D01*
X7688929Y-15374976D02*
X7669881Y-15403548D01*
X7669881Y-15403548D02*
X7650833Y-15422595D01*
X7650833Y-15422595D02*
X7631786Y-15432119D01*
X7927024Y-15374976D02*
X7831786Y-15374976D01*
X7831786Y-15374976D02*
X7822262Y-15470214D01*
X7822262Y-15470214D02*
X7831786Y-15460690D01*
X7831786Y-15460690D02*
X7850833Y-15451167D01*
X7850833Y-15451167D02*
X7898452Y-15451167D01*
X7898452Y-15451167D02*
X7917500Y-15460690D01*
X7917500Y-15460690D02*
X7927024Y-15470214D01*
X7927024Y-15470214D02*
X7936548Y-15489262D01*
X7936548Y-15489262D02*
X7936548Y-15536881D01*
X7936548Y-15536881D02*
X7927024Y-15555928D01*
X7927024Y-15555928D02*
X7917500Y-15565452D01*
X7917500Y-15565452D02*
X7898452Y-15574976D01*
X7898452Y-15574976D02*
X7850833Y-15574976D01*
X7850833Y-15574976D02*
X7831786Y-15565452D01*
X7831786Y-15565452D02*
X7822262Y-15555928D01*
X8060357Y-15374976D02*
X8079405Y-15374976D01*
X8079405Y-15374976D02*
X8098452Y-15384500D01*
X8098452Y-15384500D02*
X8107976Y-15394024D01*
X8107976Y-15394024D02*
X8117500Y-15413071D01*
X8117500Y-15413071D02*
X8127024Y-15451167D01*
X8127024Y-15451167D02*
X8127024Y-15498786D01*
X8127024Y-15498786D02*
X8117500Y-15536881D01*
X8117500Y-15536881D02*
X8107976Y-15555928D01*
X8107976Y-15555928D02*
X8098452Y-15565452D01*
X8098452Y-15565452D02*
X8079405Y-15574976D01*
X8079405Y-15574976D02*
X8060357Y-15574976D01*
X8060357Y-15574976D02*
X8041310Y-15565452D01*
X8041310Y-15565452D02*
X8031786Y-15555928D01*
X8031786Y-15555928D02*
X8022262Y-15536881D01*
X8022262Y-15536881D02*
X8012738Y-15498786D01*
X8012738Y-15498786D02*
X8012738Y-15451167D01*
X8012738Y-15451167D02*
X8022262Y-15413071D01*
X8022262Y-15413071D02*
X8031786Y-15394024D01*
X8031786Y-15394024D02*
X8041310Y-15384500D01*
X8041310Y-15384500D02*
X8060357Y-15374976D01*
X8203214Y-15374976D02*
X8203214Y-15413071D01*
X8279405Y-15374976D02*
X8279405Y-15413071D01*
X8542262Y-15651167D02*
X8532738Y-15641643D01*
X8532738Y-15641643D02*
X8513691Y-15613071D01*
X8513691Y-15613071D02*
X8504167Y-15594024D01*
X8504167Y-15594024D02*
X8494643Y-15565452D01*
X8494643Y-15565452D02*
X8485119Y-15517833D01*
X8485119Y-15517833D02*
X8485119Y-15479738D01*
X8485119Y-15479738D02*
X8494643Y-15432119D01*
X8494643Y-15432119D02*
X8504167Y-15403548D01*
X8504167Y-15403548D02*
X8513691Y-15384500D01*
X8513691Y-15384500D02*
X8532738Y-15355928D01*
X8532738Y-15355928D02*
X8542262Y-15346405D01*
X8608929Y-15394024D02*
X8618453Y-15384500D01*
X8618453Y-15384500D02*
X8637500Y-15374976D01*
X8637500Y-15374976D02*
X8685119Y-15374976D01*
X8685119Y-15374976D02*
X8704167Y-15384500D01*
X8704167Y-15384500D02*
X8713691Y-15394024D01*
X8713691Y-15394024D02*
X8723214Y-15413071D01*
X8723214Y-15413071D02*
X8723214Y-15432119D01*
X8723214Y-15432119D02*
X8713691Y-15460690D01*
X8713691Y-15460690D02*
X8599405Y-15574976D01*
X8599405Y-15574976D02*
X8723214Y-15574976D01*
X8894643Y-15441643D02*
X8894643Y-15574976D01*
X8847024Y-15365452D02*
X8799405Y-15508309D01*
X8799405Y-15508309D02*
X8923214Y-15508309D01*
X8989881Y-15394024D02*
X8999405Y-15384500D01*
X8999405Y-15384500D02*
X9018453Y-15374976D01*
X9018453Y-15374976D02*
X9066072Y-15374976D01*
X9066072Y-15374976D02*
X9085119Y-15384500D01*
X9085119Y-15384500D02*
X9094643Y-15394024D01*
X9094643Y-15394024D02*
X9104167Y-15413071D01*
X9104167Y-15413071D02*
X9104167Y-15432119D01*
X9104167Y-15432119D02*
X9094643Y-15460690D01*
X9094643Y-15460690D02*
X8980357Y-15574976D01*
X8980357Y-15574976D02*
X9104167Y-15574976D01*
X9309881Y-15574976D02*
X9309881Y-15374976D01*
X9395595Y-15574976D02*
X9395595Y-15470214D01*
X9395595Y-15470214D02*
X9386072Y-15451167D01*
X9386072Y-15451167D02*
X9367024Y-15441643D01*
X9367024Y-15441643D02*
X9338453Y-15441643D01*
X9338453Y-15441643D02*
X9319405Y-15451167D01*
X9319405Y-15451167D02*
X9309881Y-15460690D01*
X9519405Y-15574976D02*
X9500357Y-15565452D01*
X9500357Y-15565452D02*
X9490834Y-15555928D01*
X9490834Y-15555928D02*
X9481310Y-15536881D01*
X9481310Y-15536881D02*
X9481310Y-15479738D01*
X9481310Y-15479738D02*
X9490834Y-15460690D01*
X9490834Y-15460690D02*
X9500357Y-15451167D01*
X9500357Y-15451167D02*
X9519405Y-15441643D01*
X9519405Y-15441643D02*
X9547976Y-15441643D01*
X9547976Y-15441643D02*
X9567024Y-15451167D01*
X9567024Y-15451167D02*
X9576548Y-15460690D01*
X9576548Y-15460690D02*
X9586072Y-15479738D01*
X9586072Y-15479738D02*
X9586072Y-15536881D01*
X9586072Y-15536881D02*
X9576548Y-15555928D01*
X9576548Y-15555928D02*
X9567024Y-15565452D01*
X9567024Y-15565452D02*
X9547976Y-15574976D01*
X9547976Y-15574976D02*
X9519405Y-15574976D01*
X9700357Y-15574976D02*
X9681310Y-15565452D01*
X9681310Y-15565452D02*
X9671786Y-15546405D01*
X9671786Y-15546405D02*
X9671786Y-15374976D01*
X9852738Y-15565452D02*
X9833691Y-15574976D01*
X9833691Y-15574976D02*
X9795595Y-15574976D01*
X9795595Y-15574976D02*
X9776548Y-15565452D01*
X9776548Y-15565452D02*
X9767024Y-15546405D01*
X9767024Y-15546405D02*
X9767024Y-15470214D01*
X9767024Y-15470214D02*
X9776548Y-15451167D01*
X9776548Y-15451167D02*
X9795595Y-15441643D01*
X9795595Y-15441643D02*
X9833691Y-15441643D01*
X9833691Y-15441643D02*
X9852738Y-15451167D01*
X9852738Y-15451167D02*
X9862262Y-15470214D01*
X9862262Y-15470214D02*
X9862262Y-15489262D01*
X9862262Y-15489262D02*
X9767024Y-15508309D01*
X9938453Y-15565452D02*
X9957500Y-15574976D01*
X9957500Y-15574976D02*
X9995595Y-15574976D01*
X9995595Y-15574976D02*
X10014643Y-15565452D01*
X10014643Y-15565452D02*
X10024167Y-15546405D01*
X10024167Y-15546405D02*
X10024167Y-15536881D01*
X10024167Y-15536881D02*
X10014643Y-15517833D01*
X10014643Y-15517833D02*
X9995595Y-15508309D01*
X9995595Y-15508309D02*
X9967024Y-15508309D01*
X9967024Y-15508309D02*
X9947976Y-15498786D01*
X9947976Y-15498786D02*
X9938453Y-15479738D01*
X9938453Y-15479738D02*
X9938453Y-15470214D01*
X9938453Y-15470214D02*
X9947976Y-15451167D01*
X9947976Y-15451167D02*
X9967024Y-15441643D01*
X9967024Y-15441643D02*
X9995595Y-15441643D01*
X9995595Y-15441643D02*
X10014643Y-15451167D01*
X10090834Y-15651167D02*
X10100357Y-15641643D01*
X10100357Y-15641643D02*
X10119405Y-15613071D01*
X10119405Y-15613071D02*
X10128929Y-15594024D01*
X10128929Y-15594024D02*
X10138453Y-15565452D01*
X10138453Y-15565452D02*
X10147976Y-15517833D01*
X10147976Y-15517833D02*
X10147976Y-15479738D01*
X10147976Y-15479738D02*
X10138453Y-15432119D01*
X10138453Y-15432119D02*
X10128929Y-15403548D01*
X10128929Y-15403548D02*
X10119405Y-15384500D01*
X10119405Y-15384500D02*
X10100357Y-15355928D01*
X10100357Y-15355928D02*
X10090834Y-15346405D01*
D13*
X5077500Y-15765500D02*
G75*
G03*
X5077500Y-15765500I-40000J0D01*
G01*
D11*
X5363214Y-15638976D02*
X5382262Y-15638976D01*
X5382262Y-15638976D02*
X5401310Y-15648500D01*
X5401310Y-15648500D02*
X5410833Y-15658024D01*
X5410833Y-15658024D02*
X5420357Y-15677071D01*
X5420357Y-15677071D02*
X5429881Y-15715167D01*
X5429881Y-15715167D02*
X5429881Y-15762786D01*
X5429881Y-15762786D02*
X5420357Y-15800881D01*
X5420357Y-15800881D02*
X5410833Y-15819928D01*
X5410833Y-15819928D02*
X5401310Y-15829452D01*
X5401310Y-15829452D02*
X5382262Y-15838976D01*
X5382262Y-15838976D02*
X5363214Y-15838976D01*
X5363214Y-15838976D02*
X5344167Y-15829452D01*
X5344167Y-15829452D02*
X5334643Y-15819928D01*
X5334643Y-15819928D02*
X5325119Y-15800881D01*
X5325119Y-15800881D02*
X5315595Y-15762786D01*
X5315595Y-15762786D02*
X5315595Y-15715167D01*
X5315595Y-15715167D02*
X5325119Y-15677071D01*
X5325119Y-15677071D02*
X5334643Y-15658024D01*
X5334643Y-15658024D02*
X5344167Y-15648500D01*
X5344167Y-15648500D02*
X5363214Y-15638976D01*
X5515595Y-15819928D02*
X5525119Y-15829452D01*
X5525119Y-15829452D02*
X5515595Y-15838976D01*
X5515595Y-15838976D02*
X5506071Y-15829452D01*
X5506071Y-15829452D02*
X5515595Y-15819928D01*
X5515595Y-15819928D02*
X5515595Y-15838976D01*
X5639405Y-15724690D02*
X5620357Y-15715167D01*
X5620357Y-15715167D02*
X5610833Y-15705643D01*
X5610833Y-15705643D02*
X5601309Y-15686595D01*
X5601309Y-15686595D02*
X5601309Y-15677071D01*
X5601309Y-15677071D02*
X5610833Y-15658024D01*
X5610833Y-15658024D02*
X5620357Y-15648500D01*
X5620357Y-15648500D02*
X5639405Y-15638976D01*
X5639405Y-15638976D02*
X5677500Y-15638976D01*
X5677500Y-15638976D02*
X5696548Y-15648500D01*
X5696548Y-15648500D02*
X5706071Y-15658024D01*
X5706071Y-15658024D02*
X5715595Y-15677071D01*
X5715595Y-15677071D02*
X5715595Y-15686595D01*
X5715595Y-15686595D02*
X5706071Y-15705643D01*
X5706071Y-15705643D02*
X5696548Y-15715167D01*
X5696548Y-15715167D02*
X5677500Y-15724690D01*
X5677500Y-15724690D02*
X5639405Y-15724690D01*
X5639405Y-15724690D02*
X5620357Y-15734214D01*
X5620357Y-15734214D02*
X5610833Y-15743738D01*
X5610833Y-15743738D02*
X5601309Y-15762786D01*
X5601309Y-15762786D02*
X5601309Y-15800881D01*
X5601309Y-15800881D02*
X5610833Y-15819928D01*
X5610833Y-15819928D02*
X5620357Y-15829452D01*
X5620357Y-15829452D02*
X5639405Y-15838976D01*
X5639405Y-15838976D02*
X5677500Y-15838976D01*
X5677500Y-15838976D02*
X5696548Y-15829452D01*
X5696548Y-15829452D02*
X5706071Y-15819928D01*
X5706071Y-15819928D02*
X5715595Y-15800881D01*
X5715595Y-15800881D02*
X5715595Y-15762786D01*
X5715595Y-15762786D02*
X5706071Y-15743738D01*
X5706071Y-15743738D02*
X5696548Y-15734214D01*
X5696548Y-15734214D02*
X5677500Y-15724690D01*
X5839405Y-15638976D02*
X5858452Y-15638976D01*
X5858452Y-15638976D02*
X5877500Y-15648500D01*
X5877500Y-15648500D02*
X5887024Y-15658024D01*
X5887024Y-15658024D02*
X5896548Y-15677071D01*
X5896548Y-15677071D02*
X5906071Y-15715167D01*
X5906071Y-15715167D02*
X5906071Y-15762786D01*
X5906071Y-15762786D02*
X5896548Y-15800881D01*
X5896548Y-15800881D02*
X5887024Y-15819928D01*
X5887024Y-15819928D02*
X5877500Y-15829452D01*
X5877500Y-15829452D02*
X5858452Y-15838976D01*
X5858452Y-15838976D02*
X5839405Y-15838976D01*
X5839405Y-15838976D02*
X5820357Y-15829452D01*
X5820357Y-15829452D02*
X5810833Y-15819928D01*
X5810833Y-15819928D02*
X5801309Y-15800881D01*
X5801309Y-15800881D02*
X5791786Y-15762786D01*
X5791786Y-15762786D02*
X5791786Y-15715167D01*
X5791786Y-15715167D02*
X5801309Y-15677071D01*
X5801309Y-15677071D02*
X5810833Y-15658024D01*
X5810833Y-15658024D02*
X5820357Y-15648500D01*
X5820357Y-15648500D02*
X5839405Y-15638976D01*
X6029881Y-15638976D02*
X6048929Y-15638976D01*
X6048929Y-15638976D02*
X6067976Y-15648500D01*
X6067976Y-15648500D02*
X6077500Y-15658024D01*
X6077500Y-15658024D02*
X6087024Y-15677071D01*
X6087024Y-15677071D02*
X6096548Y-15715167D01*
X6096548Y-15715167D02*
X6096548Y-15762786D01*
X6096548Y-15762786D02*
X6087024Y-15800881D01*
X6087024Y-15800881D02*
X6077500Y-15819928D01*
X6077500Y-15819928D02*
X6067976Y-15829452D01*
X6067976Y-15829452D02*
X6048929Y-15838976D01*
X6048929Y-15838976D02*
X6029881Y-15838976D01*
X6029881Y-15838976D02*
X6010833Y-15829452D01*
X6010833Y-15829452D02*
X6001309Y-15819928D01*
X6001309Y-15819928D02*
X5991786Y-15800881D01*
X5991786Y-15800881D02*
X5982262Y-15762786D01*
X5982262Y-15762786D02*
X5982262Y-15715167D01*
X5982262Y-15715167D02*
X5991786Y-15677071D01*
X5991786Y-15677071D02*
X6001309Y-15658024D01*
X6001309Y-15658024D02*
X6010833Y-15648500D01*
X6010833Y-15648500D02*
X6029881Y-15638976D01*
X6182262Y-15838976D02*
X6182262Y-15705643D01*
X6182262Y-15724690D02*
X6191786Y-15715167D01*
X6191786Y-15715167D02*
X6210833Y-15705643D01*
X6210833Y-15705643D02*
X6239405Y-15705643D01*
X6239405Y-15705643D02*
X6258452Y-15715167D01*
X6258452Y-15715167D02*
X6267976Y-15734214D01*
X6267976Y-15734214D02*
X6267976Y-15838976D01*
X6267976Y-15734214D02*
X6277500Y-15715167D01*
X6277500Y-15715167D02*
X6296548Y-15705643D01*
X6296548Y-15705643D02*
X6325119Y-15705643D01*
X6325119Y-15705643D02*
X6344167Y-15715167D01*
X6344167Y-15715167D02*
X6353690Y-15734214D01*
X6353690Y-15734214D02*
X6353690Y-15838976D01*
X6448929Y-15838976D02*
X6448929Y-15705643D01*
X6448929Y-15724690D02*
X6458452Y-15715167D01*
X6458452Y-15715167D02*
X6477500Y-15705643D01*
X6477500Y-15705643D02*
X6506071Y-15705643D01*
X6506071Y-15705643D02*
X6525119Y-15715167D01*
X6525119Y-15715167D02*
X6534643Y-15734214D01*
X6534643Y-15734214D02*
X6534643Y-15838976D01*
X6534643Y-15734214D02*
X6544167Y-15715167D01*
X6544167Y-15715167D02*
X6563214Y-15705643D01*
X6563214Y-15705643D02*
X6591786Y-15705643D01*
X6591786Y-15705643D02*
X6610833Y-15715167D01*
X6610833Y-15715167D02*
X6620357Y-15734214D01*
X6620357Y-15734214D02*
X6620357Y-15838976D01*
X6978452Y-15629452D02*
X6807024Y-15886595D01*
X7203214Y-15638976D02*
X7222262Y-15638976D01*
X7222262Y-15638976D02*
X7241310Y-15648500D01*
X7241310Y-15648500D02*
X7250833Y-15658024D01*
X7250833Y-15658024D02*
X7260357Y-15677071D01*
X7260357Y-15677071D02*
X7269881Y-15715167D01*
X7269881Y-15715167D02*
X7269881Y-15762786D01*
X7269881Y-15762786D02*
X7260357Y-15800881D01*
X7260357Y-15800881D02*
X7250833Y-15819928D01*
X7250833Y-15819928D02*
X7241310Y-15829452D01*
X7241310Y-15829452D02*
X7222262Y-15838976D01*
X7222262Y-15838976D02*
X7203214Y-15838976D01*
X7203214Y-15838976D02*
X7184167Y-15829452D01*
X7184167Y-15829452D02*
X7174643Y-15819928D01*
X7174643Y-15819928D02*
X7165119Y-15800881D01*
X7165119Y-15800881D02*
X7155595Y-15762786D01*
X7155595Y-15762786D02*
X7155595Y-15715167D01*
X7155595Y-15715167D02*
X7165119Y-15677071D01*
X7165119Y-15677071D02*
X7174643Y-15658024D01*
X7174643Y-15658024D02*
X7184167Y-15648500D01*
X7184167Y-15648500D02*
X7203214Y-15638976D01*
X7355595Y-15819928D02*
X7365119Y-15829452D01*
X7365119Y-15829452D02*
X7355595Y-15838976D01*
X7355595Y-15838976D02*
X7346071Y-15829452D01*
X7346071Y-15829452D02*
X7355595Y-15819928D01*
X7355595Y-15819928D02*
X7355595Y-15838976D01*
X7488929Y-15638976D02*
X7507976Y-15638976D01*
X7507976Y-15638976D02*
X7527024Y-15648500D01*
X7527024Y-15648500D02*
X7536548Y-15658024D01*
X7536548Y-15658024D02*
X7546071Y-15677071D01*
X7546071Y-15677071D02*
X7555595Y-15715167D01*
X7555595Y-15715167D02*
X7555595Y-15762786D01*
X7555595Y-15762786D02*
X7546071Y-15800881D01*
X7546071Y-15800881D02*
X7536548Y-15819928D01*
X7536548Y-15819928D02*
X7527024Y-15829452D01*
X7527024Y-15829452D02*
X7507976Y-15838976D01*
X7507976Y-15838976D02*
X7488929Y-15838976D01*
X7488929Y-15838976D02*
X7469881Y-15829452D01*
X7469881Y-15829452D02*
X7460357Y-15819928D01*
X7460357Y-15819928D02*
X7450833Y-15800881D01*
X7450833Y-15800881D02*
X7441310Y-15762786D01*
X7441310Y-15762786D02*
X7441310Y-15715167D01*
X7441310Y-15715167D02*
X7450833Y-15677071D01*
X7450833Y-15677071D02*
X7460357Y-15658024D01*
X7460357Y-15658024D02*
X7469881Y-15648500D01*
X7469881Y-15648500D02*
X7488929Y-15638976D01*
X7622262Y-15638976D02*
X7746071Y-15638976D01*
X7746071Y-15638976D02*
X7679405Y-15715167D01*
X7679405Y-15715167D02*
X7707976Y-15715167D01*
X7707976Y-15715167D02*
X7727024Y-15724690D01*
X7727024Y-15724690D02*
X7736548Y-15734214D01*
X7736548Y-15734214D02*
X7746071Y-15753262D01*
X7746071Y-15753262D02*
X7746071Y-15800881D01*
X7746071Y-15800881D02*
X7736548Y-15819928D01*
X7736548Y-15819928D02*
X7727024Y-15829452D01*
X7727024Y-15829452D02*
X7707976Y-15838976D01*
X7707976Y-15838976D02*
X7650833Y-15838976D01*
X7650833Y-15838976D02*
X7631786Y-15829452D01*
X7631786Y-15829452D02*
X7622262Y-15819928D01*
X7936548Y-15838976D02*
X7822262Y-15838976D01*
X7879405Y-15838976D02*
X7879405Y-15638976D01*
X7879405Y-15638976D02*
X7860357Y-15667548D01*
X7860357Y-15667548D02*
X7841310Y-15686595D01*
X7841310Y-15686595D02*
X7822262Y-15696119D01*
X8117500Y-15638976D02*
X8022262Y-15638976D01*
X8022262Y-15638976D02*
X8012738Y-15734214D01*
X8012738Y-15734214D02*
X8022262Y-15724690D01*
X8022262Y-15724690D02*
X8041310Y-15715167D01*
X8041310Y-15715167D02*
X8088929Y-15715167D01*
X8088929Y-15715167D02*
X8107976Y-15724690D01*
X8107976Y-15724690D02*
X8117500Y-15734214D01*
X8117500Y-15734214D02*
X8127024Y-15753262D01*
X8127024Y-15753262D02*
X8127024Y-15800881D01*
X8127024Y-15800881D02*
X8117500Y-15819928D01*
X8117500Y-15819928D02*
X8107976Y-15829452D01*
X8107976Y-15829452D02*
X8088929Y-15838976D01*
X8088929Y-15838976D02*
X8041310Y-15838976D01*
X8041310Y-15838976D02*
X8022262Y-15829452D01*
X8022262Y-15829452D02*
X8012738Y-15819928D01*
X8203214Y-15638976D02*
X8203214Y-15677071D01*
X8279405Y-15638976D02*
X8279405Y-15677071D01*
X8542262Y-15915167D02*
X8532738Y-15905643D01*
X8532738Y-15905643D02*
X8513691Y-15877071D01*
X8513691Y-15877071D02*
X8504167Y-15858024D01*
X8504167Y-15858024D02*
X8494643Y-15829452D01*
X8494643Y-15829452D02*
X8485119Y-15781833D01*
X8485119Y-15781833D02*
X8485119Y-15743738D01*
X8485119Y-15743738D02*
X8494643Y-15696119D01*
X8494643Y-15696119D02*
X8504167Y-15667548D01*
X8504167Y-15667548D02*
X8513691Y-15648500D01*
X8513691Y-15648500D02*
X8532738Y-15619928D01*
X8532738Y-15619928D02*
X8542262Y-15610405D01*
X8704167Y-15705643D02*
X8704167Y-15838976D01*
X8656548Y-15629452D02*
X8608929Y-15772309D01*
X8608929Y-15772309D02*
X8732738Y-15772309D01*
X8847024Y-15638976D02*
X8866072Y-15638976D01*
X8866072Y-15638976D02*
X8885119Y-15648500D01*
X8885119Y-15648500D02*
X8894643Y-15658024D01*
X8894643Y-15658024D02*
X8904167Y-15677071D01*
X8904167Y-15677071D02*
X8913691Y-15715167D01*
X8913691Y-15715167D02*
X8913691Y-15762786D01*
X8913691Y-15762786D02*
X8904167Y-15800881D01*
X8904167Y-15800881D02*
X8894643Y-15819928D01*
X8894643Y-15819928D02*
X8885119Y-15829452D01*
X8885119Y-15829452D02*
X8866072Y-15838976D01*
X8866072Y-15838976D02*
X8847024Y-15838976D01*
X8847024Y-15838976D02*
X8827976Y-15829452D01*
X8827976Y-15829452D02*
X8818453Y-15819928D01*
X8818453Y-15819928D02*
X8808929Y-15800881D01*
X8808929Y-15800881D02*
X8799405Y-15762786D01*
X8799405Y-15762786D02*
X8799405Y-15715167D01*
X8799405Y-15715167D02*
X8808929Y-15677071D01*
X8808929Y-15677071D02*
X8818453Y-15658024D01*
X8818453Y-15658024D02*
X8827976Y-15648500D01*
X8827976Y-15648500D02*
X8847024Y-15638976D01*
X9037500Y-15638976D02*
X9056548Y-15638976D01*
X9056548Y-15638976D02*
X9075595Y-15648500D01*
X9075595Y-15648500D02*
X9085119Y-15658024D01*
X9085119Y-15658024D02*
X9094643Y-15677071D01*
X9094643Y-15677071D02*
X9104167Y-15715167D01*
X9104167Y-15715167D02*
X9104167Y-15762786D01*
X9104167Y-15762786D02*
X9094643Y-15800881D01*
X9094643Y-15800881D02*
X9085119Y-15819928D01*
X9085119Y-15819928D02*
X9075595Y-15829452D01*
X9075595Y-15829452D02*
X9056548Y-15838976D01*
X9056548Y-15838976D02*
X9037500Y-15838976D01*
X9037500Y-15838976D02*
X9018453Y-15829452D01*
X9018453Y-15829452D02*
X9008929Y-15819928D01*
X9008929Y-15819928D02*
X8999405Y-15800881D01*
X8999405Y-15800881D02*
X8989881Y-15762786D01*
X8989881Y-15762786D02*
X8989881Y-15715167D01*
X8989881Y-15715167D02*
X8999405Y-15677071D01*
X8999405Y-15677071D02*
X9008929Y-15658024D01*
X9008929Y-15658024D02*
X9018453Y-15648500D01*
X9018453Y-15648500D02*
X9037500Y-15638976D01*
X9309881Y-15838976D02*
X9309881Y-15638976D01*
X9395595Y-15838976D02*
X9395595Y-15734214D01*
X9395595Y-15734214D02*
X9386072Y-15715167D01*
X9386072Y-15715167D02*
X9367024Y-15705643D01*
X9367024Y-15705643D02*
X9338453Y-15705643D01*
X9338453Y-15705643D02*
X9319405Y-15715167D01*
X9319405Y-15715167D02*
X9309881Y-15724690D01*
X9519405Y-15838976D02*
X9500357Y-15829452D01*
X9500357Y-15829452D02*
X9490834Y-15819928D01*
X9490834Y-15819928D02*
X9481310Y-15800881D01*
X9481310Y-15800881D02*
X9481310Y-15743738D01*
X9481310Y-15743738D02*
X9490834Y-15724690D01*
X9490834Y-15724690D02*
X9500357Y-15715167D01*
X9500357Y-15715167D02*
X9519405Y-15705643D01*
X9519405Y-15705643D02*
X9547976Y-15705643D01*
X9547976Y-15705643D02*
X9567024Y-15715167D01*
X9567024Y-15715167D02*
X9576548Y-15724690D01*
X9576548Y-15724690D02*
X9586072Y-15743738D01*
X9586072Y-15743738D02*
X9586072Y-15800881D01*
X9586072Y-15800881D02*
X9576548Y-15819928D01*
X9576548Y-15819928D02*
X9567024Y-15829452D01*
X9567024Y-15829452D02*
X9547976Y-15838976D01*
X9547976Y-15838976D02*
X9519405Y-15838976D01*
X9700357Y-15838976D02*
X9681310Y-15829452D01*
X9681310Y-15829452D02*
X9671786Y-15810405D01*
X9671786Y-15810405D02*
X9671786Y-15638976D01*
X9852738Y-15829452D02*
X9833691Y-15838976D01*
X9833691Y-15838976D02*
X9795595Y-15838976D01*
X9795595Y-15838976D02*
X9776548Y-15829452D01*
X9776548Y-15829452D02*
X9767024Y-15810405D01*
X9767024Y-15810405D02*
X9767024Y-15734214D01*
X9767024Y-15734214D02*
X9776548Y-15715167D01*
X9776548Y-15715167D02*
X9795595Y-15705643D01*
X9795595Y-15705643D02*
X9833691Y-15705643D01*
X9833691Y-15705643D02*
X9852738Y-15715167D01*
X9852738Y-15715167D02*
X9862262Y-15734214D01*
X9862262Y-15734214D02*
X9862262Y-15753262D01*
X9862262Y-15753262D02*
X9767024Y-15772309D01*
X9938453Y-15829452D02*
X9957500Y-15838976D01*
X9957500Y-15838976D02*
X9995595Y-15838976D01*
X9995595Y-15838976D02*
X10014643Y-15829452D01*
X10014643Y-15829452D02*
X10024167Y-15810405D01*
X10024167Y-15810405D02*
X10024167Y-15800881D01*
X10024167Y-15800881D02*
X10014643Y-15781833D01*
X10014643Y-15781833D02*
X9995595Y-15772309D01*
X9995595Y-15772309D02*
X9967024Y-15772309D01*
X9967024Y-15772309D02*
X9947976Y-15762786D01*
X9947976Y-15762786D02*
X9938453Y-15743738D01*
X9938453Y-15743738D02*
X9938453Y-15734214D01*
X9938453Y-15734214D02*
X9947976Y-15715167D01*
X9947976Y-15715167D02*
X9967024Y-15705643D01*
X9967024Y-15705643D02*
X9995595Y-15705643D01*
X9995595Y-15705643D02*
X10014643Y-15715167D01*
X10090834Y-15915167D02*
X10100357Y-15905643D01*
X10100357Y-15905643D02*
X10119405Y-15877071D01*
X10119405Y-15877071D02*
X10128929Y-15858024D01*
X10128929Y-15858024D02*
X10138453Y-15829452D01*
X10138453Y-15829452D02*
X10147976Y-15781833D01*
X10147976Y-15781833D02*
X10147976Y-15743738D01*
X10147976Y-15743738D02*
X10138453Y-15696119D01*
X10138453Y-15696119D02*
X10128929Y-15667548D01*
X10128929Y-15667548D02*
X10119405Y-15648500D01*
X10119405Y-15648500D02*
X10100357Y-15619928D01*
X10100357Y-15619928D02*
X10090834Y-15610405D01*
D14*
X5032500Y-15984500D02*
X5032500Y-16074500D01*
X4987500Y-16029500D02*
X5077500Y-16029500D01*
D11*
X5363214Y-15902976D02*
X5382262Y-15902976D01*
X5382262Y-15902976D02*
X5401310Y-15912500D01*
X5401310Y-15912500D02*
X5410833Y-15922024D01*
X5410833Y-15922024D02*
X5420357Y-15941071D01*
X5420357Y-15941071D02*
X5429881Y-15979167D01*
X5429881Y-15979167D02*
X5429881Y-16026786D01*
X5429881Y-16026786D02*
X5420357Y-16064881D01*
X5420357Y-16064881D02*
X5410833Y-16083928D01*
X5410833Y-16083928D02*
X5401310Y-16093452D01*
X5401310Y-16093452D02*
X5382262Y-16102976D01*
X5382262Y-16102976D02*
X5363214Y-16102976D01*
X5363214Y-16102976D02*
X5344167Y-16093452D01*
X5344167Y-16093452D02*
X5334643Y-16083928D01*
X5334643Y-16083928D02*
X5325119Y-16064881D01*
X5325119Y-16064881D02*
X5315595Y-16026786D01*
X5315595Y-16026786D02*
X5315595Y-15979167D01*
X5315595Y-15979167D02*
X5325119Y-15941071D01*
X5325119Y-15941071D02*
X5334643Y-15922024D01*
X5334643Y-15922024D02*
X5344167Y-15912500D01*
X5344167Y-15912500D02*
X5363214Y-15902976D01*
X5515595Y-16083928D02*
X5525119Y-16093452D01*
X5525119Y-16093452D02*
X5515595Y-16102976D01*
X5515595Y-16102976D02*
X5506071Y-16093452D01*
X5506071Y-16093452D02*
X5515595Y-16083928D01*
X5515595Y-16083928D02*
X5515595Y-16102976D01*
X5620357Y-16102976D02*
X5658452Y-16102976D01*
X5658452Y-16102976D02*
X5677500Y-16093452D01*
X5677500Y-16093452D02*
X5687024Y-16083928D01*
X5687024Y-16083928D02*
X5706071Y-16055357D01*
X5706071Y-16055357D02*
X5715595Y-16017262D01*
X5715595Y-16017262D02*
X5715595Y-15941071D01*
X5715595Y-15941071D02*
X5706071Y-15922024D01*
X5706071Y-15922024D02*
X5696548Y-15912500D01*
X5696548Y-15912500D02*
X5677500Y-15902976D01*
X5677500Y-15902976D02*
X5639405Y-15902976D01*
X5639405Y-15902976D02*
X5620357Y-15912500D01*
X5620357Y-15912500D02*
X5610833Y-15922024D01*
X5610833Y-15922024D02*
X5601309Y-15941071D01*
X5601309Y-15941071D02*
X5601309Y-15988690D01*
X5601309Y-15988690D02*
X5610833Y-16007738D01*
X5610833Y-16007738D02*
X5620357Y-16017262D01*
X5620357Y-16017262D02*
X5639405Y-16026786D01*
X5639405Y-16026786D02*
X5677500Y-16026786D01*
X5677500Y-16026786D02*
X5696548Y-16017262D01*
X5696548Y-16017262D02*
X5706071Y-16007738D01*
X5706071Y-16007738D02*
X5715595Y-15988690D01*
X5839405Y-15902976D02*
X5858452Y-15902976D01*
X5858452Y-15902976D02*
X5877500Y-15912500D01*
X5877500Y-15912500D02*
X5887024Y-15922024D01*
X5887024Y-15922024D02*
X5896548Y-15941071D01*
X5896548Y-15941071D02*
X5906071Y-15979167D01*
X5906071Y-15979167D02*
X5906071Y-16026786D01*
X5906071Y-16026786D02*
X5896548Y-16064881D01*
X5896548Y-16064881D02*
X5887024Y-16083928D01*
X5887024Y-16083928D02*
X5877500Y-16093452D01*
X5877500Y-16093452D02*
X5858452Y-16102976D01*
X5858452Y-16102976D02*
X5839405Y-16102976D01*
X5839405Y-16102976D02*
X5820357Y-16093452D01*
X5820357Y-16093452D02*
X5810833Y-16083928D01*
X5810833Y-16083928D02*
X5801309Y-16064881D01*
X5801309Y-16064881D02*
X5791786Y-16026786D01*
X5791786Y-16026786D02*
X5791786Y-15979167D01*
X5791786Y-15979167D02*
X5801309Y-15941071D01*
X5801309Y-15941071D02*
X5810833Y-15922024D01*
X5810833Y-15922024D02*
X5820357Y-15912500D01*
X5820357Y-15912500D02*
X5839405Y-15902976D01*
X6029881Y-15902976D02*
X6048929Y-15902976D01*
X6048929Y-15902976D02*
X6067976Y-15912500D01*
X6067976Y-15912500D02*
X6077500Y-15922024D01*
X6077500Y-15922024D02*
X6087024Y-15941071D01*
X6087024Y-15941071D02*
X6096548Y-15979167D01*
X6096548Y-15979167D02*
X6096548Y-16026786D01*
X6096548Y-16026786D02*
X6087024Y-16064881D01*
X6087024Y-16064881D02*
X6077500Y-16083928D01*
X6077500Y-16083928D02*
X6067976Y-16093452D01*
X6067976Y-16093452D02*
X6048929Y-16102976D01*
X6048929Y-16102976D02*
X6029881Y-16102976D01*
X6029881Y-16102976D02*
X6010833Y-16093452D01*
X6010833Y-16093452D02*
X6001309Y-16083928D01*
X6001309Y-16083928D02*
X5991786Y-16064881D01*
X5991786Y-16064881D02*
X5982262Y-16026786D01*
X5982262Y-16026786D02*
X5982262Y-15979167D01*
X5982262Y-15979167D02*
X5991786Y-15941071D01*
X5991786Y-15941071D02*
X6001309Y-15922024D01*
X6001309Y-15922024D02*
X6010833Y-15912500D01*
X6010833Y-15912500D02*
X6029881Y-15902976D01*
X6182262Y-16102976D02*
X6182262Y-15969643D01*
X6182262Y-15988690D02*
X6191786Y-15979167D01*
X6191786Y-15979167D02*
X6210833Y-15969643D01*
X6210833Y-15969643D02*
X6239405Y-15969643D01*
X6239405Y-15969643D02*
X6258452Y-15979167D01*
X6258452Y-15979167D02*
X6267976Y-15998214D01*
X6267976Y-15998214D02*
X6267976Y-16102976D01*
X6267976Y-15998214D02*
X6277500Y-15979167D01*
X6277500Y-15979167D02*
X6296548Y-15969643D01*
X6296548Y-15969643D02*
X6325119Y-15969643D01*
X6325119Y-15969643D02*
X6344167Y-15979167D01*
X6344167Y-15979167D02*
X6353690Y-15998214D01*
X6353690Y-15998214D02*
X6353690Y-16102976D01*
X6448929Y-16102976D02*
X6448929Y-15969643D01*
X6448929Y-15988690D02*
X6458452Y-15979167D01*
X6458452Y-15979167D02*
X6477500Y-15969643D01*
X6477500Y-15969643D02*
X6506071Y-15969643D01*
X6506071Y-15969643D02*
X6525119Y-15979167D01*
X6525119Y-15979167D02*
X6534643Y-15998214D01*
X6534643Y-15998214D02*
X6534643Y-16102976D01*
X6534643Y-15998214D02*
X6544167Y-15979167D01*
X6544167Y-15979167D02*
X6563214Y-15969643D01*
X6563214Y-15969643D02*
X6591786Y-15969643D01*
X6591786Y-15969643D02*
X6610833Y-15979167D01*
X6610833Y-15979167D02*
X6620357Y-15998214D01*
X6620357Y-15998214D02*
X6620357Y-16102976D01*
X6978452Y-15893452D02*
X6807024Y-16150595D01*
X7203214Y-15902976D02*
X7222262Y-15902976D01*
X7222262Y-15902976D02*
X7241310Y-15912500D01*
X7241310Y-15912500D02*
X7250833Y-15922024D01*
X7250833Y-15922024D02*
X7260357Y-15941071D01*
X7260357Y-15941071D02*
X7269881Y-15979167D01*
X7269881Y-15979167D02*
X7269881Y-16026786D01*
X7269881Y-16026786D02*
X7260357Y-16064881D01*
X7260357Y-16064881D02*
X7250833Y-16083928D01*
X7250833Y-16083928D02*
X7241310Y-16093452D01*
X7241310Y-16093452D02*
X7222262Y-16102976D01*
X7222262Y-16102976D02*
X7203214Y-16102976D01*
X7203214Y-16102976D02*
X7184167Y-16093452D01*
X7184167Y-16093452D02*
X7174643Y-16083928D01*
X7174643Y-16083928D02*
X7165119Y-16064881D01*
X7165119Y-16064881D02*
X7155595Y-16026786D01*
X7155595Y-16026786D02*
X7155595Y-15979167D01*
X7155595Y-15979167D02*
X7165119Y-15941071D01*
X7165119Y-15941071D02*
X7174643Y-15922024D01*
X7174643Y-15922024D02*
X7184167Y-15912500D01*
X7184167Y-15912500D02*
X7203214Y-15902976D01*
X7355595Y-16083928D02*
X7365119Y-16093452D01*
X7365119Y-16093452D02*
X7355595Y-16102976D01*
X7355595Y-16102976D02*
X7346071Y-16093452D01*
X7346071Y-16093452D02*
X7355595Y-16083928D01*
X7355595Y-16083928D02*
X7355595Y-16102976D01*
X7488929Y-15902976D02*
X7507976Y-15902976D01*
X7507976Y-15902976D02*
X7527024Y-15912500D01*
X7527024Y-15912500D02*
X7536548Y-15922024D01*
X7536548Y-15922024D02*
X7546071Y-15941071D01*
X7546071Y-15941071D02*
X7555595Y-15979167D01*
X7555595Y-15979167D02*
X7555595Y-16026786D01*
X7555595Y-16026786D02*
X7546071Y-16064881D01*
X7546071Y-16064881D02*
X7536548Y-16083928D01*
X7536548Y-16083928D02*
X7527024Y-16093452D01*
X7527024Y-16093452D02*
X7507976Y-16102976D01*
X7507976Y-16102976D02*
X7488929Y-16102976D01*
X7488929Y-16102976D02*
X7469881Y-16093452D01*
X7469881Y-16093452D02*
X7460357Y-16083928D01*
X7460357Y-16083928D02*
X7450833Y-16064881D01*
X7450833Y-16064881D02*
X7441310Y-16026786D01*
X7441310Y-16026786D02*
X7441310Y-15979167D01*
X7441310Y-15979167D02*
X7450833Y-15941071D01*
X7450833Y-15941071D02*
X7460357Y-15922024D01*
X7460357Y-15922024D02*
X7469881Y-15912500D01*
X7469881Y-15912500D02*
X7488929Y-15902976D01*
X7622262Y-15902976D02*
X7746071Y-15902976D01*
X7746071Y-15902976D02*
X7679405Y-15979167D01*
X7679405Y-15979167D02*
X7707976Y-15979167D01*
X7707976Y-15979167D02*
X7727024Y-15988690D01*
X7727024Y-15988690D02*
X7736548Y-15998214D01*
X7736548Y-15998214D02*
X7746071Y-16017262D01*
X7746071Y-16017262D02*
X7746071Y-16064881D01*
X7746071Y-16064881D02*
X7736548Y-16083928D01*
X7736548Y-16083928D02*
X7727024Y-16093452D01*
X7727024Y-16093452D02*
X7707976Y-16102976D01*
X7707976Y-16102976D02*
X7650833Y-16102976D01*
X7650833Y-16102976D02*
X7631786Y-16093452D01*
X7631786Y-16093452D02*
X7622262Y-16083928D01*
X7927024Y-15902976D02*
X7831786Y-15902976D01*
X7831786Y-15902976D02*
X7822262Y-15998214D01*
X7822262Y-15998214D02*
X7831786Y-15988690D01*
X7831786Y-15988690D02*
X7850833Y-15979167D01*
X7850833Y-15979167D02*
X7898452Y-15979167D01*
X7898452Y-15979167D02*
X7917500Y-15988690D01*
X7917500Y-15988690D02*
X7927024Y-15998214D01*
X7927024Y-15998214D02*
X7936548Y-16017262D01*
X7936548Y-16017262D02*
X7936548Y-16064881D01*
X7936548Y-16064881D02*
X7927024Y-16083928D01*
X7927024Y-16083928D02*
X7917500Y-16093452D01*
X7917500Y-16093452D02*
X7898452Y-16102976D01*
X7898452Y-16102976D02*
X7850833Y-16102976D01*
X7850833Y-16102976D02*
X7831786Y-16093452D01*
X7831786Y-16093452D02*
X7822262Y-16083928D01*
X8107976Y-15969643D02*
X8107976Y-16102976D01*
X8060357Y-15893452D02*
X8012738Y-16036309D01*
X8012738Y-16036309D02*
X8136548Y-16036309D01*
X8203214Y-15902976D02*
X8203214Y-15941071D01*
X8279405Y-15902976D02*
X8279405Y-15941071D01*
X8542262Y-16179167D02*
X8532738Y-16169643D01*
X8532738Y-16169643D02*
X8513691Y-16141071D01*
X8513691Y-16141071D02*
X8504167Y-16122024D01*
X8504167Y-16122024D02*
X8494643Y-16093452D01*
X8494643Y-16093452D02*
X8485119Y-16045833D01*
X8485119Y-16045833D02*
X8485119Y-16007738D01*
X8485119Y-16007738D02*
X8494643Y-15960119D01*
X8494643Y-15960119D02*
X8504167Y-15931548D01*
X8504167Y-15931548D02*
X8513691Y-15912500D01*
X8513691Y-15912500D02*
X8532738Y-15883928D01*
X8532738Y-15883928D02*
X8542262Y-15874405D01*
X8599405Y-15902976D02*
X8723214Y-15902976D01*
X8723214Y-15902976D02*
X8656548Y-15979167D01*
X8656548Y-15979167D02*
X8685119Y-15979167D01*
X8685119Y-15979167D02*
X8704167Y-15988690D01*
X8704167Y-15988690D02*
X8713691Y-15998214D01*
X8713691Y-15998214D02*
X8723214Y-16017262D01*
X8723214Y-16017262D02*
X8723214Y-16064881D01*
X8723214Y-16064881D02*
X8713691Y-16083928D01*
X8713691Y-16083928D02*
X8704167Y-16093452D01*
X8704167Y-16093452D02*
X8685119Y-16102976D01*
X8685119Y-16102976D02*
X8627976Y-16102976D01*
X8627976Y-16102976D02*
X8608929Y-16093452D01*
X8608929Y-16093452D02*
X8599405Y-16083928D01*
X8799405Y-15922024D02*
X8808929Y-15912500D01*
X8808929Y-15912500D02*
X8827976Y-15902976D01*
X8827976Y-15902976D02*
X8875595Y-15902976D01*
X8875595Y-15902976D02*
X8894643Y-15912500D01*
X8894643Y-15912500D02*
X8904167Y-15922024D01*
X8904167Y-15922024D02*
X8913691Y-15941071D01*
X8913691Y-15941071D02*
X8913691Y-15960119D01*
X8913691Y-15960119D02*
X8904167Y-15988690D01*
X8904167Y-15988690D02*
X8789881Y-16102976D01*
X8789881Y-16102976D02*
X8913691Y-16102976D01*
X9119405Y-16102976D02*
X9119405Y-15902976D01*
X9205119Y-16102976D02*
X9205119Y-15998214D01*
X9205119Y-15998214D02*
X9195595Y-15979167D01*
X9195595Y-15979167D02*
X9176548Y-15969643D01*
X9176548Y-15969643D02*
X9147976Y-15969643D01*
X9147976Y-15969643D02*
X9128929Y-15979167D01*
X9128929Y-15979167D02*
X9119405Y-15988690D01*
X9328929Y-16102976D02*
X9309881Y-16093452D01*
X9309881Y-16093452D02*
X9300357Y-16083928D01*
X9300357Y-16083928D02*
X9290834Y-16064881D01*
X9290834Y-16064881D02*
X9290834Y-16007738D01*
X9290834Y-16007738D02*
X9300357Y-15988690D01*
X9300357Y-15988690D02*
X9309881Y-15979167D01*
X9309881Y-15979167D02*
X9328929Y-15969643D01*
X9328929Y-15969643D02*
X9357500Y-15969643D01*
X9357500Y-15969643D02*
X9376548Y-15979167D01*
X9376548Y-15979167D02*
X9386072Y-15988690D01*
X9386072Y-15988690D02*
X9395595Y-16007738D01*
X9395595Y-16007738D02*
X9395595Y-16064881D01*
X9395595Y-16064881D02*
X9386072Y-16083928D01*
X9386072Y-16083928D02*
X9376548Y-16093452D01*
X9376548Y-16093452D02*
X9357500Y-16102976D01*
X9357500Y-16102976D02*
X9328929Y-16102976D01*
X9509881Y-16102976D02*
X9490834Y-16093452D01*
X9490834Y-16093452D02*
X9481310Y-16074405D01*
X9481310Y-16074405D02*
X9481310Y-15902976D01*
X9662262Y-16093452D02*
X9643215Y-16102976D01*
X9643215Y-16102976D02*
X9605119Y-16102976D01*
X9605119Y-16102976D02*
X9586072Y-16093452D01*
X9586072Y-16093452D02*
X9576548Y-16074405D01*
X9576548Y-16074405D02*
X9576548Y-15998214D01*
X9576548Y-15998214D02*
X9586072Y-15979167D01*
X9586072Y-15979167D02*
X9605119Y-15969643D01*
X9605119Y-15969643D02*
X9643215Y-15969643D01*
X9643215Y-15969643D02*
X9662262Y-15979167D01*
X9662262Y-15979167D02*
X9671786Y-15998214D01*
X9671786Y-15998214D02*
X9671786Y-16017262D01*
X9671786Y-16017262D02*
X9576548Y-16036309D01*
X9747976Y-16093452D02*
X9767024Y-16102976D01*
X9767024Y-16102976D02*
X9805119Y-16102976D01*
X9805119Y-16102976D02*
X9824167Y-16093452D01*
X9824167Y-16093452D02*
X9833691Y-16074405D01*
X9833691Y-16074405D02*
X9833691Y-16064881D01*
X9833691Y-16064881D02*
X9824167Y-16045833D01*
X9824167Y-16045833D02*
X9805119Y-16036309D01*
X9805119Y-16036309D02*
X9776548Y-16036309D01*
X9776548Y-16036309D02*
X9757500Y-16026786D01*
X9757500Y-16026786D02*
X9747976Y-16007738D01*
X9747976Y-16007738D02*
X9747976Y-15998214D01*
X9747976Y-15998214D02*
X9757500Y-15979167D01*
X9757500Y-15979167D02*
X9776548Y-15969643D01*
X9776548Y-15969643D02*
X9805119Y-15969643D01*
X9805119Y-15969643D02*
X9824167Y-15979167D01*
X9900357Y-16179167D02*
X9909881Y-16169643D01*
X9909881Y-16169643D02*
X9928929Y-16141071D01*
X9928929Y-16141071D02*
X9938453Y-16122024D01*
X9938453Y-16122024D02*
X9947976Y-16093452D01*
X9947976Y-16093452D02*
X9957500Y-16045833D01*
X9957500Y-16045833D02*
X9957500Y-16007738D01*
X9957500Y-16007738D02*
X9947976Y-15960119D01*
X9947976Y-15960119D02*
X9938453Y-15931548D01*
X9938453Y-15931548D02*
X9928929Y-15912500D01*
X9928929Y-15912500D02*
X9909881Y-15883928D01*
X9909881Y-15883928D02*
X9900357Y-15874405D01*
D15*
X5062856Y-16328856D02*
X5062856Y-16258144D01*
X4992144Y-16258144D01*
X4992144Y-16328856D01*
X5062856Y-16328856D01*
D11*
X5429881Y-16366976D02*
X5315595Y-16366976D01*
X5372738Y-16366976D02*
X5372738Y-16166976D01*
X5372738Y-16166976D02*
X5353690Y-16195548D01*
X5353690Y-16195548D02*
X5334643Y-16214595D01*
X5334643Y-16214595D02*
X5315595Y-16224119D01*
X5515595Y-16347928D02*
X5525119Y-16357452D01*
X5525119Y-16357452D02*
X5515595Y-16366976D01*
X5515595Y-16366976D02*
X5506071Y-16357452D01*
X5506071Y-16357452D02*
X5515595Y-16347928D01*
X5515595Y-16347928D02*
X5515595Y-16366976D01*
X5648928Y-16166976D02*
X5667976Y-16166976D01*
X5667976Y-16166976D02*
X5687024Y-16176500D01*
X5687024Y-16176500D02*
X5696548Y-16186024D01*
X5696548Y-16186024D02*
X5706071Y-16205071D01*
X5706071Y-16205071D02*
X5715595Y-16243167D01*
X5715595Y-16243167D02*
X5715595Y-16290786D01*
X5715595Y-16290786D02*
X5706071Y-16328881D01*
X5706071Y-16328881D02*
X5696548Y-16347928D01*
X5696548Y-16347928D02*
X5687024Y-16357452D01*
X5687024Y-16357452D02*
X5667976Y-16366976D01*
X5667976Y-16366976D02*
X5648928Y-16366976D01*
X5648928Y-16366976D02*
X5629881Y-16357452D01*
X5629881Y-16357452D02*
X5620357Y-16347928D01*
X5620357Y-16347928D02*
X5610833Y-16328881D01*
X5610833Y-16328881D02*
X5601309Y-16290786D01*
X5601309Y-16290786D02*
X5601309Y-16243167D01*
X5601309Y-16243167D02*
X5610833Y-16205071D01*
X5610833Y-16205071D02*
X5620357Y-16186024D01*
X5620357Y-16186024D02*
X5629881Y-16176500D01*
X5629881Y-16176500D02*
X5648928Y-16166976D01*
X5839405Y-16166976D02*
X5858452Y-16166976D01*
X5858452Y-16166976D02*
X5877500Y-16176500D01*
X5877500Y-16176500D02*
X5887024Y-16186024D01*
X5887024Y-16186024D02*
X5896548Y-16205071D01*
X5896548Y-16205071D02*
X5906071Y-16243167D01*
X5906071Y-16243167D02*
X5906071Y-16290786D01*
X5906071Y-16290786D02*
X5896548Y-16328881D01*
X5896548Y-16328881D02*
X5887024Y-16347928D01*
X5887024Y-16347928D02*
X5877500Y-16357452D01*
X5877500Y-16357452D02*
X5858452Y-16366976D01*
X5858452Y-16366976D02*
X5839405Y-16366976D01*
X5839405Y-16366976D02*
X5820357Y-16357452D01*
X5820357Y-16357452D02*
X5810833Y-16347928D01*
X5810833Y-16347928D02*
X5801309Y-16328881D01*
X5801309Y-16328881D02*
X5791786Y-16290786D01*
X5791786Y-16290786D02*
X5791786Y-16243167D01*
X5791786Y-16243167D02*
X5801309Y-16205071D01*
X5801309Y-16205071D02*
X5810833Y-16186024D01*
X5810833Y-16186024D02*
X5820357Y-16176500D01*
X5820357Y-16176500D02*
X5839405Y-16166976D01*
X6029881Y-16166976D02*
X6048929Y-16166976D01*
X6048929Y-16166976D02*
X6067976Y-16176500D01*
X6067976Y-16176500D02*
X6077500Y-16186024D01*
X6077500Y-16186024D02*
X6087024Y-16205071D01*
X6087024Y-16205071D02*
X6096548Y-16243167D01*
X6096548Y-16243167D02*
X6096548Y-16290786D01*
X6096548Y-16290786D02*
X6087024Y-16328881D01*
X6087024Y-16328881D02*
X6077500Y-16347928D01*
X6077500Y-16347928D02*
X6067976Y-16357452D01*
X6067976Y-16357452D02*
X6048929Y-16366976D01*
X6048929Y-16366976D02*
X6029881Y-16366976D01*
X6029881Y-16366976D02*
X6010833Y-16357452D01*
X6010833Y-16357452D02*
X6001309Y-16347928D01*
X6001309Y-16347928D02*
X5991786Y-16328881D01*
X5991786Y-16328881D02*
X5982262Y-16290786D01*
X5982262Y-16290786D02*
X5982262Y-16243167D01*
X5982262Y-16243167D02*
X5991786Y-16205071D01*
X5991786Y-16205071D02*
X6001309Y-16186024D01*
X6001309Y-16186024D02*
X6010833Y-16176500D01*
X6010833Y-16176500D02*
X6029881Y-16166976D01*
X6182262Y-16366976D02*
X6182262Y-16233643D01*
X6182262Y-16252690D02*
X6191786Y-16243167D01*
X6191786Y-16243167D02*
X6210833Y-16233643D01*
X6210833Y-16233643D02*
X6239405Y-16233643D01*
X6239405Y-16233643D02*
X6258452Y-16243167D01*
X6258452Y-16243167D02*
X6267976Y-16262214D01*
X6267976Y-16262214D02*
X6267976Y-16366976D01*
X6267976Y-16262214D02*
X6277500Y-16243167D01*
X6277500Y-16243167D02*
X6296548Y-16233643D01*
X6296548Y-16233643D02*
X6325119Y-16233643D01*
X6325119Y-16233643D02*
X6344167Y-16243167D01*
X6344167Y-16243167D02*
X6353690Y-16262214D01*
X6353690Y-16262214D02*
X6353690Y-16366976D01*
X6448929Y-16366976D02*
X6448929Y-16233643D01*
X6448929Y-16252690D02*
X6458452Y-16243167D01*
X6458452Y-16243167D02*
X6477500Y-16233643D01*
X6477500Y-16233643D02*
X6506071Y-16233643D01*
X6506071Y-16233643D02*
X6525119Y-16243167D01*
X6525119Y-16243167D02*
X6534643Y-16262214D01*
X6534643Y-16262214D02*
X6534643Y-16366976D01*
X6534643Y-16262214D02*
X6544167Y-16243167D01*
X6544167Y-16243167D02*
X6563214Y-16233643D01*
X6563214Y-16233643D02*
X6591786Y-16233643D01*
X6591786Y-16233643D02*
X6610833Y-16243167D01*
X6610833Y-16243167D02*
X6620357Y-16262214D01*
X6620357Y-16262214D02*
X6620357Y-16366976D01*
X6978452Y-16157452D02*
X6807024Y-16414595D01*
X7203214Y-16166976D02*
X7222262Y-16166976D01*
X7222262Y-16166976D02*
X7241310Y-16176500D01*
X7241310Y-16176500D02*
X7250833Y-16186024D01*
X7250833Y-16186024D02*
X7260357Y-16205071D01*
X7260357Y-16205071D02*
X7269881Y-16243167D01*
X7269881Y-16243167D02*
X7269881Y-16290786D01*
X7269881Y-16290786D02*
X7260357Y-16328881D01*
X7260357Y-16328881D02*
X7250833Y-16347928D01*
X7250833Y-16347928D02*
X7241310Y-16357452D01*
X7241310Y-16357452D02*
X7222262Y-16366976D01*
X7222262Y-16366976D02*
X7203214Y-16366976D01*
X7203214Y-16366976D02*
X7184167Y-16357452D01*
X7184167Y-16357452D02*
X7174643Y-16347928D01*
X7174643Y-16347928D02*
X7165119Y-16328881D01*
X7165119Y-16328881D02*
X7155595Y-16290786D01*
X7155595Y-16290786D02*
X7155595Y-16243167D01*
X7155595Y-16243167D02*
X7165119Y-16205071D01*
X7165119Y-16205071D02*
X7174643Y-16186024D01*
X7174643Y-16186024D02*
X7184167Y-16176500D01*
X7184167Y-16176500D02*
X7203214Y-16166976D01*
X7355595Y-16347928D02*
X7365119Y-16357452D01*
X7365119Y-16357452D02*
X7355595Y-16366976D01*
X7355595Y-16366976D02*
X7346071Y-16357452D01*
X7346071Y-16357452D02*
X7355595Y-16347928D01*
X7355595Y-16347928D02*
X7355595Y-16366976D01*
X7488929Y-16166976D02*
X7507976Y-16166976D01*
X7507976Y-16166976D02*
X7527024Y-16176500D01*
X7527024Y-16176500D02*
X7536548Y-16186024D01*
X7536548Y-16186024D02*
X7546071Y-16205071D01*
X7546071Y-16205071D02*
X7555595Y-16243167D01*
X7555595Y-16243167D02*
X7555595Y-16290786D01*
X7555595Y-16290786D02*
X7546071Y-16328881D01*
X7546071Y-16328881D02*
X7536548Y-16347928D01*
X7536548Y-16347928D02*
X7527024Y-16357452D01*
X7527024Y-16357452D02*
X7507976Y-16366976D01*
X7507976Y-16366976D02*
X7488929Y-16366976D01*
X7488929Y-16366976D02*
X7469881Y-16357452D01*
X7469881Y-16357452D02*
X7460357Y-16347928D01*
X7460357Y-16347928D02*
X7450833Y-16328881D01*
X7450833Y-16328881D02*
X7441310Y-16290786D01*
X7441310Y-16290786D02*
X7441310Y-16243167D01*
X7441310Y-16243167D02*
X7450833Y-16205071D01*
X7450833Y-16205071D02*
X7460357Y-16186024D01*
X7460357Y-16186024D02*
X7469881Y-16176500D01*
X7469881Y-16176500D02*
X7488929Y-16166976D01*
X7622262Y-16166976D02*
X7746071Y-16166976D01*
X7746071Y-16166976D02*
X7679405Y-16243167D01*
X7679405Y-16243167D02*
X7707976Y-16243167D01*
X7707976Y-16243167D02*
X7727024Y-16252690D01*
X7727024Y-16252690D02*
X7736548Y-16262214D01*
X7736548Y-16262214D02*
X7746071Y-16281262D01*
X7746071Y-16281262D02*
X7746071Y-16328881D01*
X7746071Y-16328881D02*
X7736548Y-16347928D01*
X7736548Y-16347928D02*
X7727024Y-16357452D01*
X7727024Y-16357452D02*
X7707976Y-16366976D01*
X7707976Y-16366976D02*
X7650833Y-16366976D01*
X7650833Y-16366976D02*
X7631786Y-16357452D01*
X7631786Y-16357452D02*
X7622262Y-16347928D01*
X7841310Y-16366976D02*
X7879405Y-16366976D01*
X7879405Y-16366976D02*
X7898452Y-16357452D01*
X7898452Y-16357452D02*
X7907976Y-16347928D01*
X7907976Y-16347928D02*
X7927024Y-16319357D01*
X7927024Y-16319357D02*
X7936548Y-16281262D01*
X7936548Y-16281262D02*
X7936548Y-16205071D01*
X7936548Y-16205071D02*
X7927024Y-16186024D01*
X7927024Y-16186024D02*
X7917500Y-16176500D01*
X7917500Y-16176500D02*
X7898452Y-16166976D01*
X7898452Y-16166976D02*
X7860357Y-16166976D01*
X7860357Y-16166976D02*
X7841310Y-16176500D01*
X7841310Y-16176500D02*
X7831786Y-16186024D01*
X7831786Y-16186024D02*
X7822262Y-16205071D01*
X7822262Y-16205071D02*
X7822262Y-16252690D01*
X7822262Y-16252690D02*
X7831786Y-16271738D01*
X7831786Y-16271738D02*
X7841310Y-16281262D01*
X7841310Y-16281262D02*
X7860357Y-16290786D01*
X7860357Y-16290786D02*
X7898452Y-16290786D01*
X7898452Y-16290786D02*
X7917500Y-16281262D01*
X7917500Y-16281262D02*
X7927024Y-16271738D01*
X7927024Y-16271738D02*
X7936548Y-16252690D01*
X8107976Y-16233643D02*
X8107976Y-16366976D01*
X8060357Y-16157452D02*
X8012738Y-16300309D01*
X8012738Y-16300309D02*
X8136548Y-16300309D01*
X8203214Y-16166976D02*
X8203214Y-16205071D01*
X8279405Y-16166976D02*
X8279405Y-16205071D01*
X8542262Y-16443167D02*
X8532738Y-16433643D01*
X8532738Y-16433643D02*
X8513691Y-16405071D01*
X8513691Y-16405071D02*
X8504167Y-16386024D01*
X8504167Y-16386024D02*
X8494643Y-16357452D01*
X8494643Y-16357452D02*
X8485119Y-16309833D01*
X8485119Y-16309833D02*
X8485119Y-16271738D01*
X8485119Y-16271738D02*
X8494643Y-16224119D01*
X8494643Y-16224119D02*
X8504167Y-16195548D01*
X8504167Y-16195548D02*
X8513691Y-16176500D01*
X8513691Y-16176500D02*
X8532738Y-16147928D01*
X8532738Y-16147928D02*
X8542262Y-16138405D01*
X8599405Y-16166976D02*
X8732738Y-16166976D01*
X8732738Y-16166976D02*
X8647024Y-16366976D01*
X8818453Y-16366976D02*
X8856548Y-16366976D01*
X8856548Y-16366976D02*
X8875595Y-16357452D01*
X8875595Y-16357452D02*
X8885119Y-16347928D01*
X8885119Y-16347928D02*
X8904167Y-16319357D01*
X8904167Y-16319357D02*
X8913691Y-16281262D01*
X8913691Y-16281262D02*
X8913691Y-16205071D01*
X8913691Y-16205071D02*
X8904167Y-16186024D01*
X8904167Y-16186024D02*
X8894643Y-16176500D01*
X8894643Y-16176500D02*
X8875595Y-16166976D01*
X8875595Y-16166976D02*
X8837500Y-16166976D01*
X8837500Y-16166976D02*
X8818453Y-16176500D01*
X8818453Y-16176500D02*
X8808929Y-16186024D01*
X8808929Y-16186024D02*
X8799405Y-16205071D01*
X8799405Y-16205071D02*
X8799405Y-16252690D01*
X8799405Y-16252690D02*
X8808929Y-16271738D01*
X8808929Y-16271738D02*
X8818453Y-16281262D01*
X8818453Y-16281262D02*
X8837500Y-16290786D01*
X8837500Y-16290786D02*
X8875595Y-16290786D01*
X8875595Y-16290786D02*
X8894643Y-16281262D01*
X8894643Y-16281262D02*
X8904167Y-16271738D01*
X8904167Y-16271738D02*
X8913691Y-16252690D01*
X9119405Y-16366976D02*
X9119405Y-16166976D01*
X9205119Y-16366976D02*
X9205119Y-16262214D01*
X9205119Y-16262214D02*
X9195595Y-16243167D01*
X9195595Y-16243167D02*
X9176548Y-16233643D01*
X9176548Y-16233643D02*
X9147976Y-16233643D01*
X9147976Y-16233643D02*
X9128929Y-16243167D01*
X9128929Y-16243167D02*
X9119405Y-16252690D01*
X9328929Y-16366976D02*
X9309881Y-16357452D01*
X9309881Y-16357452D02*
X9300357Y-16347928D01*
X9300357Y-16347928D02*
X9290834Y-16328881D01*
X9290834Y-16328881D02*
X9290834Y-16271738D01*
X9290834Y-16271738D02*
X9300357Y-16252690D01*
X9300357Y-16252690D02*
X9309881Y-16243167D01*
X9309881Y-16243167D02*
X9328929Y-16233643D01*
X9328929Y-16233643D02*
X9357500Y-16233643D01*
X9357500Y-16233643D02*
X9376548Y-16243167D01*
X9376548Y-16243167D02*
X9386072Y-16252690D01*
X9386072Y-16252690D02*
X9395595Y-16271738D01*
X9395595Y-16271738D02*
X9395595Y-16328881D01*
X9395595Y-16328881D02*
X9386072Y-16347928D01*
X9386072Y-16347928D02*
X9376548Y-16357452D01*
X9376548Y-16357452D02*
X9357500Y-16366976D01*
X9357500Y-16366976D02*
X9328929Y-16366976D01*
X9509881Y-16366976D02*
X9490834Y-16357452D01*
X9490834Y-16357452D02*
X9481310Y-16338405D01*
X9481310Y-16338405D02*
X9481310Y-16166976D01*
X9662262Y-16357452D02*
X9643215Y-16366976D01*
X9643215Y-16366976D02*
X9605119Y-16366976D01*
X9605119Y-16366976D02*
X9586072Y-16357452D01*
X9586072Y-16357452D02*
X9576548Y-16338405D01*
X9576548Y-16338405D02*
X9576548Y-16262214D01*
X9576548Y-16262214D02*
X9586072Y-16243167D01*
X9586072Y-16243167D02*
X9605119Y-16233643D01*
X9605119Y-16233643D02*
X9643215Y-16233643D01*
X9643215Y-16233643D02*
X9662262Y-16243167D01*
X9662262Y-16243167D02*
X9671786Y-16262214D01*
X9671786Y-16262214D02*
X9671786Y-16281262D01*
X9671786Y-16281262D02*
X9576548Y-16300309D01*
X9747976Y-16357452D02*
X9767024Y-16366976D01*
X9767024Y-16366976D02*
X9805119Y-16366976D01*
X9805119Y-16366976D02*
X9824167Y-16357452D01*
X9824167Y-16357452D02*
X9833691Y-16338405D01*
X9833691Y-16338405D02*
X9833691Y-16328881D01*
X9833691Y-16328881D02*
X9824167Y-16309833D01*
X9824167Y-16309833D02*
X9805119Y-16300309D01*
X9805119Y-16300309D02*
X9776548Y-16300309D01*
X9776548Y-16300309D02*
X9757500Y-16290786D01*
X9757500Y-16290786D02*
X9747976Y-16271738D01*
X9747976Y-16271738D02*
X9747976Y-16262214D01*
X9747976Y-16262214D02*
X9757500Y-16243167D01*
X9757500Y-16243167D02*
X9776548Y-16233643D01*
X9776548Y-16233643D02*
X9805119Y-16233643D01*
X9805119Y-16233643D02*
X9824167Y-16243167D01*
X9900357Y-16443167D02*
X9909881Y-16433643D01*
X9909881Y-16433643D02*
X9928929Y-16405071D01*
X9928929Y-16405071D02*
X9938453Y-16386024D01*
X9938453Y-16386024D02*
X9947976Y-16357452D01*
X9947976Y-16357452D02*
X9957500Y-16309833D01*
X9957500Y-16309833D02*
X9957500Y-16271738D01*
X9957500Y-16271738D02*
X9947976Y-16224119D01*
X9947976Y-16224119D02*
X9938453Y-16195548D01*
X9938453Y-16195548D02*
X9928929Y-16176500D01*
X9928929Y-16176500D02*
X9909881Y-16147928D01*
X9909881Y-16147928D02*
X9900357Y-16138405D01*
M02*
