%TF.GenerationSoftware,KiCad,Pcbnew,(7.0.0)*%
%TF.CreationDate,2024-11-17T17:22:16-08:00*%
%TF.ProjectId,shift_rot,73686966-745f-4726-9f74-2e6b69636164,rev?*%
%TF.SameCoordinates,Original*%
%TF.FileFunction,Drillmap*%
%TF.FilePolarity,Positive*%
%FSLAX45Y45*%
G04 Gerber Fmt 4.5, Leading zero omitted, Abs format (unit mm)*
G04 Created by KiCad (PCBNEW (7.0.0)) date 2024-11-17 17:22:16*
%MOMM*%
%LPD*%
G01*
G04 APERTURE LIST*
%ADD10C,0.050000*%
%ADD11C,0.200000*%
G04 APERTURE END LIST*
D10*
X5270500Y-14859000D02*
X25209500Y-14859000D01*
X5080000Y-14668500D02*
G75*
G03*
X5270500Y-14859000I190500J0D01*
G01*
X5080000Y-5270500D02*
X5080000Y-14668500D01*
X25209500Y-14859000D02*
G75*
G03*
X25400000Y-14668500I0J190500D01*
G01*
X5270500Y-5080000D02*
G75*
G03*
X5080000Y-5270500I0J-190500D01*
G01*
X25209500Y-5080000D02*
X5270500Y-5080000D01*
X25400000Y-5270500D02*
G75*
G03*
X25209500Y-5080000I-190500J0D01*
G01*
X25400000Y-14668500D02*
X25400000Y-5270500D01*
D11*
X5325119Y-15154976D02*
X5325119Y-14954976D01*
X5325119Y-14954976D02*
X5372738Y-14954976D01*
X5372738Y-14954976D02*
X5401310Y-14964500D01*
X5401310Y-14964500D02*
X5420357Y-14983548D01*
X5420357Y-14983548D02*
X5429881Y-15002595D01*
X5429881Y-15002595D02*
X5439405Y-15040690D01*
X5439405Y-15040690D02*
X5439405Y-15069262D01*
X5439405Y-15069262D02*
X5429881Y-15107357D01*
X5429881Y-15107357D02*
X5420357Y-15126405D01*
X5420357Y-15126405D02*
X5401310Y-15145452D01*
X5401310Y-15145452D02*
X5372738Y-15154976D01*
X5372738Y-15154976D02*
X5325119Y-15154976D01*
X5525119Y-15154976D02*
X5525119Y-15021643D01*
X5525119Y-15059738D02*
X5534643Y-15040690D01*
X5534643Y-15040690D02*
X5544167Y-15031167D01*
X5544167Y-15031167D02*
X5563214Y-15021643D01*
X5563214Y-15021643D02*
X5582262Y-15021643D01*
X5648928Y-15154976D02*
X5648928Y-15021643D01*
X5648928Y-14954976D02*
X5639405Y-14964500D01*
X5639405Y-14964500D02*
X5648928Y-14974024D01*
X5648928Y-14974024D02*
X5658452Y-14964500D01*
X5658452Y-14964500D02*
X5648928Y-14954976D01*
X5648928Y-14954976D02*
X5648928Y-14974024D01*
X5772738Y-15154976D02*
X5753690Y-15145452D01*
X5753690Y-15145452D02*
X5744167Y-15126405D01*
X5744167Y-15126405D02*
X5744167Y-14954976D01*
X5877500Y-15154976D02*
X5858452Y-15145452D01*
X5858452Y-15145452D02*
X5848928Y-15126405D01*
X5848928Y-15126405D02*
X5848928Y-14954976D01*
X6073690Y-15154976D02*
X6073690Y-14954976D01*
X6073690Y-14954976D02*
X6140357Y-15097833D01*
X6140357Y-15097833D02*
X6207024Y-14954976D01*
X6207024Y-14954976D02*
X6207024Y-15154976D01*
X6387976Y-15154976D02*
X6387976Y-15050214D01*
X6387976Y-15050214D02*
X6378452Y-15031167D01*
X6378452Y-15031167D02*
X6359405Y-15021643D01*
X6359405Y-15021643D02*
X6321309Y-15021643D01*
X6321309Y-15021643D02*
X6302262Y-15031167D01*
X6387976Y-15145452D02*
X6368928Y-15154976D01*
X6368928Y-15154976D02*
X6321309Y-15154976D01*
X6321309Y-15154976D02*
X6302262Y-15145452D01*
X6302262Y-15145452D02*
X6292738Y-15126405D01*
X6292738Y-15126405D02*
X6292738Y-15107357D01*
X6292738Y-15107357D02*
X6302262Y-15088309D01*
X6302262Y-15088309D02*
X6321309Y-15078786D01*
X6321309Y-15078786D02*
X6368928Y-15078786D01*
X6368928Y-15078786D02*
X6387976Y-15069262D01*
X6483214Y-15021643D02*
X6483214Y-15221643D01*
X6483214Y-15031167D02*
X6502262Y-15021643D01*
X6502262Y-15021643D02*
X6540357Y-15021643D01*
X6540357Y-15021643D02*
X6559405Y-15031167D01*
X6559405Y-15031167D02*
X6568928Y-15040690D01*
X6568928Y-15040690D02*
X6578452Y-15059738D01*
X6578452Y-15059738D02*
X6578452Y-15116881D01*
X6578452Y-15116881D02*
X6568928Y-15135928D01*
X6568928Y-15135928D02*
X6559405Y-15145452D01*
X6559405Y-15145452D02*
X6540357Y-15154976D01*
X6540357Y-15154976D02*
X6502262Y-15154976D01*
X6502262Y-15154976D02*
X6483214Y-15145452D01*
X6664167Y-15135928D02*
X6673690Y-15145452D01*
X6673690Y-15145452D02*
X6664167Y-15154976D01*
X6664167Y-15154976D02*
X6654643Y-15145452D01*
X6654643Y-15145452D02*
X6664167Y-15135928D01*
X6664167Y-15135928D02*
X6664167Y-15154976D01*
X6664167Y-15031167D02*
X6673690Y-15040690D01*
X6673690Y-15040690D02*
X6664167Y-15050214D01*
X6664167Y-15050214D02*
X6654643Y-15040690D01*
X6654643Y-15040690D02*
X6664167Y-15031167D01*
X6664167Y-15031167D02*
X6664167Y-15050214D01*
M02*
