<?xml version='1.0' encoding='UTF-8' standalone='no'?>
<!-- Created with Fritzing (http://www.fritzing.org/) -->
<svg xmlns="http://www.w3.org/2000/svg" y="0in" width="0.6in" height="0.33in" baseProfile="tiny" x="0in"  version="1.2" viewBox="0 0 600 330">
    <desc >
        <referenceFile >generic_ic_dip_12_300mil_bread.svg</referenceFile>
    </desc>
    <g gorn="0.1" id="breadboard" >
        <rect y="30" width="600" height="270" gorn="0.1.0" id="middle" x="0"  fill="#303030"/>
        <rect y="30" width="600" height="24.6" gorn="0.1.1" id="top" x="0"  fill="#3D3D3D"/>
        <rect y="275.4" width="600" height="24.6" gorn="0.1.2" id="bottom" x="0"  fill="#000000"/>
        <polygon points="600,30,592.5,54.6,592.5,275.4,600,300" gorn="0.1.3" id="right"  fill="#141414"/>
        <polygon points="0,30,7.5,54.6,7.5,275.4,0,300" gorn="0.1.4" id="left"  fill="#1F1F1F"/>
        <polygon points="50,115,7.5,114.6,5.6,135.8,5.6,165,50,165" gorn="0.1.5" id="left-upper-rect"  fill="#1C1C1C"/>
        <polygon points="7.5,215.5,50,215.5,50,165,5.6,165,5.6,194.2" gorn="0.1.6" id="left-lower-rect"  fill="#383838"/>
        <path d="M5.6,135.8l0,58.3c14.7,-1.7,26.2,-14,26.2,-29.2C31.8,149.7,20.4,137.5,5.6,135.8z" gorn="0.1.7" id="slot"  fill="#262626"/>
        <path d="M7.5,54.6L7.5,114.5c23.8,4.5,41.9,25.3,41.9,50.4c0,25.1,-18,46,-41.9,50.5L7.5,215.5l50,0L57.5,54.6L7.5,54.6z" gorn="0.1.8" id="cover"  fill="#303030"/>
        <circle cx="65" cy="234.7"  fill="#212121" r="20.6"/>
        <text y="165" text-anchor="start" font-family="OCRA" gorn="0.1.10" id="label" x="65" stroke="none"  fill="#e6e6e6" font-size="80">IC</text>
        <rect y="286.6" width="30" height="43.4" gorn="0.1.11" id="connector0pin" x="35"  fill="#8C8C8C"/>
        <rect y="300" width="30" height="30" gorn="0.1.12" id="connector0terminal" x="35"  fill="#8C8C8C"/>
        <polygon points="35,286.6,35,306.6,65,306.6,85,297.4,85,286.6"  fill="#8C8C8C"/>
        <rect width="30" height="43.4" gorn="0.1.14" id="connector11pin" x="35"  fill="#8C8C8C"/>
        <rect width="30" height="30" gorn="0.1.15" id="connector11terminal" x="35"  fill="#8C8C8C"/>
        <polygon points="85,43.4,85,32.6,65,23.4,35,23.4,35,43.4"  fill="#8C8C8C"/>
        <rect y="286.6" width="30" height="43.4" gorn="0.1.17" id="connector5pin" x="535"  fill="#8C8C8C"/>
        <rect y="300" width="30" height="30" gorn="0.1.18" id="connector5terminal" x="535"  fill="#8C8C8C"/>
        <polygon points="515,286.6,515,297.4,535,306.6,565,306.6,565,286.6"  fill="#8C8C8C"/>
        <rect y="0" width="30" height="43.4" gorn="0.1.20" id="connector6pin" x="535"  fill="#8C8C8C"/>
        <rect y="0" width="30" height="30" gorn="0.1.21" id="connector6terminal" x="535"  fill="#8C8C8C"/>
        <polygon points="565,43.4,565,23.4,535,23.4,515,32.6,515,43.4"  fill="#8C8C8C"/>
        <rect y="0" width="30" height="43.4" gorn="0.1.23" id="connector10pin" x="135"  fill="#8C8C8C"/>
        <rect width="30" height="30" gorn="0.1.24" id="connector10terminal" x="135"  fill="#8C8C8C"/>
        <polygon points="185,43.4,185,32.6,165,23.4,135,23.4,115,32.6,115,43.4"  fill="#8C8C8C"/>
        <rect y="0" width="30" height="43.4" gorn="0.1.26" id="connector9pin" x="235"  fill="#8C8C8C"/>
        <rect width="30" height="30" gorn="0.1.27" id="connector9terminal" x="235"  fill="#8C8C8C"/>
        <polygon points="285,43.4,285,32.6,265,23.4,235,23.4,215,32.6,215,43.4"  fill="#8C8C8C"/>
        <rect y="0" width="30" height="43.4" gorn="0.1.29" id="connector8pin" x="335"  fill="#8C8C8C"/>
        <rect width="30" height="30" gorn="0.1.30" id="connector8terminal" x="335"  fill="#8C8C8C"/>
        <polygon points="385,43.4,385,32.6,365,23.4,335,23.4,315,32.6,315,43.4"  fill="#8C8C8C"/>
        <rect y="0" width="30" height="43.4" gorn="0.1.32" id="connector7pin" x="435"  fill="#8C8C8C"/>
        <rect width="30" height="30" gorn="0.1.33" id="connector7terminal" x="435"  fill="#8C8C8C"/>
        <polygon points="485,43.4,485,32.6,465,23.4,435,23.4,415,32.6,415,43.4"  fill="#8C8C8C"/>
        <rect y="286.6" width="30" height="43.4" gorn="0.1.35" id="connector1pin" x="135"  fill="#8C8C8C"/>
        <rect y="300" width="30" height="30" gorn="0.1.36" id="connector1terminal" x="135"  fill="#8C8C8C"/>
        <polygon points="115,286.6,115,297.4,135,306.6,165,306.6,185,297.4,185,286.6"  fill="#8C8C8C"/>
        <rect y="286.6" width="30" height="43.4" gorn="0.1.38" id="connector2pin" x="235"  fill="#8C8C8C"/>
        <rect y="300" width="30" height="30" gorn="0.1.39" id="connector2terminal" x="235"  fill="#8C8C8C"/>
        <polygon points="215,286.6,215,297.4,235,306.6,265,306.6,285,297.4,285,286.6"  fill="#8C8C8C"/>
        <rect y="286.6" width="30" height="43.4" gorn="0.1.41" id="connector3pin" x="335"  fill="#8C8C8C"/>
        <rect y="300" width="30" height="30" gorn="0.1.42" id="connector3terminal" x="335"  fill="#8C8C8C"/>
        <polygon points="315,286.6,315,297.4,335,306.6,365,306.6,385,297.4,385,286.6"  fill="#8C8C8C"/>
        <rect y="286.6" width="30" height="43.4" gorn="0.1.44" id="connector4pin" x="435"  fill="#8C8C8C"/>
        <rect y="300" width="30" height="30" gorn="0.1.45" id="connector4terminal" x="435"  fill="#8C8C8C"/>
        <polygon points="415,286.6,415,297.4,435,306.6,465,306.6,485,297.4,485,286.6"  fill="#8C8C8C"/>
    </g>
</svg>
