<?xml version='1.0' encoding='UTF-8' standalone='no'?>
<!-- Created with Fritzing (http://www.fritzing.org/) -->
<svg xmlns="http://www.w3.org/2000/svg" version="1.2" baseProfile="tiny" width="1.2in" viewBox="0 0 1200 330" y="0in" height="0.33in"  x="0in">
    <desc >
        <referenceFile >generic_ic_dip_24_300mil_bread.svg</referenceFile>
    </desc>
    <g gorn="0.1" id="breadboard" >
        <rect gorn="0.1.0" fill="#303030" id="middle" width="1200" y="30" height="270"  x="0"/>
        <rect gorn="0.1.1" fill="#3D3D3D" id="top" width="1200" y="30" height="24.6"  x="0"/>
        <rect gorn="0.1.2" fill="#000000" id="bottom" width="1200" y="275.4" height="24.6"  x="0"/>
        <polygon gorn="0.1.3" fill="#141414" points="1200,30,1192.5,54.6,1192.5,275.4,1200,300" id="right" />
        <polygon gorn="0.1.4" fill="#1F1F1F" points="0,30,7.5,54.6,7.5,275.4,0,300" id="left" />
        <polygon gorn="0.1.5" fill="#1C1C1C" points="50,115,7.5,114.6,5.6,135.8,5.6,165,50,165" id="left-upper-rect" />
        <polygon gorn="0.1.6" fill="#383838" points="7.5,215.5,50,215.5,50,165,5.6,165,5.6,194.2" id="left-lower-rect" />
        <path d="M5.6,135.8l0,58.3c14.7,-1.7,26.2,-14,26.2,-29.2C31.8,149.7,20.4,137.5,5.6,135.8z" gorn="0.1.7" fill="#262626" id="slot" />
        <path d="M7.5,54.6L7.5,114.5c23.8,4.5,41.9,25.3,41.9,50.4c0,25.1,-18,46,-41.9,50.5L7.5,215.5l50,0L57.5,54.6L7.5,54.6z" gorn="0.1.8" fill="#303030" id="cover" />
        <circle fill="#212121" cx="65" r="20.6" cy="234.7" />
        <text gorn="0.1.10" fill="#e6e6e6" id="label" stroke="none" font-size="80" y="165"  x="65" font-family="OCRA" text-anchor="start">6116SA15TPG</text>
        <rect gorn="0.1.11" fill="#8C8C8C" id="connector0pin" width="30" y="286.6" height="43.4"  x="35"/>
        <rect gorn="0.1.12" fill="#8C8C8C" id="connector0terminal" width="30" y="300" height="30"  x="35"/>
        <polygon fill="#8C8C8C" points="35,286.6,35,306.6,65,306.6,85,297.4,85,286.6" />
        <rect gorn="0.1.14" fill="#8C8C8C" id="connector23pin" width="30" height="43.4"  x="35"/>
        <rect gorn="0.1.15" fill="#8C8C8C" id="connector23terminal" width="30" height="30"  x="35"/>
        <polygon fill="#8C8C8C" points="85,43.4,85,32.6,65,23.4,35,23.4,35,43.4" />
        <rect gorn="0.1.17" fill="#8C8C8C" id="connector11pin" width="30" y="286.6" height="43.4"  x="1135"/>
        <rect gorn="0.1.18" fill="#8C8C8C" id="connector11terminal" width="30" y="300" height="30"  x="1135"/>
        <polygon fill="#8C8C8C" points="1115,286.6,1115,297.4,1135,306.6,1165,306.6,1165,286.6" />
        <rect gorn="0.1.20" fill="#8C8C8C" id="connector12pin" width="30" y="0" height="43.4"  x="1135"/>
        <rect gorn="0.1.21" fill="#8C8C8C" id="connector12terminal" width="30" y="0" height="30"  x="1135"/>
        <polygon fill="#8C8C8C" points="1165,43.4,1165,23.4,1135,23.4,1115,32.6,1115,43.4" />
        <rect gorn="0.1.23" fill="#8C8C8C" id="connector22pin" width="30" y="0" height="43.4"  x="135"/>
        <rect gorn="0.1.24" fill="#8C8C8C" id="connector22terminal" width="30" height="30"  x="135"/>
        <polygon fill="#8C8C8C" points="185,43.4,185,32.6,165,23.4,135,23.4,115,32.6,115,43.4" />
        <rect gorn="0.1.26" fill="#8C8C8C" id="connector21pin" width="30" y="0" height="43.4"  x="235"/>
        <rect gorn="0.1.27" fill="#8C8C8C" id="connector21terminal" width="30" height="30"  x="235"/>
        <polygon fill="#8C8C8C" points="285,43.4,285,32.6,265,23.4,235,23.4,215,32.6,215,43.4" />
        <rect gorn="0.1.29" fill="#8C8C8C" id="connector20pin" width="30" y="0" height="43.4"  x="335"/>
        <rect gorn="0.1.30" fill="#8C8C8C" id="connector20terminal" width="30" height="30"  x="335"/>
        <polygon fill="#8C8C8C" points="385,43.4,385,32.6,365,23.4,335,23.4,315,32.6,315,43.4" />
        <rect gorn="0.1.32" fill="#8C8C8C" id="connector19pin" width="30" y="0" height="43.4"  x="435"/>
        <rect gorn="0.1.33" fill="#8C8C8C" id="connector19terminal" width="30" height="30"  x="435"/>
        <polygon fill="#8C8C8C" points="485,43.4,485,32.6,465,23.4,435,23.4,415,32.6,415,43.4" />
        <rect gorn="0.1.35" fill="#8C8C8C" id="connector18pin" width="30" y="0" height="43.4"  x="535"/>
        <rect gorn="0.1.36" fill="#8C8C8C" id="connector18terminal" width="30" height="30"  x="535"/>
        <polygon fill="#8C8C8C" points="585,43.4,585,32.6,565,23.4,535,23.4,515,32.6,515,43.4" />
        <rect gorn="0.1.38" fill="#8C8C8C" id="connector17pin" width="30" y="0" height="43.4"  x="635"/>
        <rect gorn="0.1.39" fill="#8C8C8C" id="connector17terminal" width="30" height="30"  x="635"/>
        <polygon fill="#8C8C8C" points="685,43.4,685,32.6,665,23.4,635,23.4,615,32.6,615,43.4" />
        <rect gorn="0.1.41" fill="#8C8C8C" id="connector16pin" width="30" y="0" height="43.4"  x="735"/>
        <rect gorn="0.1.42" fill="#8C8C8C" id="connector16terminal" width="30" height="30"  x="735"/>
        <polygon fill="#8C8C8C" points="785,43.4,785,32.6,765,23.4,735,23.4,715,32.6,715,43.4" />
        <rect gorn="0.1.44" fill="#8C8C8C" id="connector15pin" width="30" y="0" height="43.4"  x="835"/>
        <rect gorn="0.1.45" fill="#8C8C8C" id="connector15terminal" width="30" height="30"  x="835"/>
        <polygon fill="#8C8C8C" points="885,43.4,885,32.6,865,23.4,835,23.4,815,32.6,815,43.4" />
        <rect gorn="0.1.47" fill="#8C8C8C" id="connector14pin" width="30" y="0" height="43.4"  x="935"/>
        <rect gorn="0.1.48" fill="#8C8C8C" id="connector14terminal" width="30" height="30"  x="935"/>
        <polygon fill="#8C8C8C" points="985,43.4,985,32.6,965,23.4,935,23.4,915,32.6,915,43.4" />
        <rect gorn="0.1.50" fill="#8C8C8C" id="connector13pin" width="30" y="0" height="43.4"  x="1035"/>
        <rect gorn="0.1.51" fill="#8C8C8C" id="connector13terminal" width="30" height="30"  x="1035"/>
        <polygon fill="#8C8C8C" points="1085,43.4,1085,32.6,1065,23.4,1035,23.4,1015,32.6,1015,43.4" />
        <rect gorn="0.1.53" fill="#8C8C8C" id="connector1pin" width="30" y="286.6" height="43.4"  x="135"/>
        <rect gorn="0.1.54" fill="#8C8C8C" id="connector1terminal" width="30" y="300" height="30"  x="135"/>
        <polygon fill="#8C8C8C" points="115,286.6,115,297.4,135,306.6,165,306.6,185,297.4,185,286.6" />
        <rect gorn="0.1.56" fill="#8C8C8C" id="connector2pin" width="30" y="286.6" height="43.4"  x="235"/>
        <rect gorn="0.1.57" fill="#8C8C8C" id="connector2terminal" width="30" y="300" height="30"  x="235"/>
        <polygon fill="#8C8C8C" points="215,286.6,215,297.4,235,306.6,265,306.6,285,297.4,285,286.6" />
        <rect gorn="0.1.59" fill="#8C8C8C" id="connector3pin" width="30" y="286.6" height="43.4"  x="335"/>
        <rect gorn="0.1.60" fill="#8C8C8C" id="connector3terminal" width="30" y="300" height="30"  x="335"/>
        <polygon fill="#8C8C8C" points="315,286.6,315,297.4,335,306.6,365,306.6,385,297.4,385,286.6" />
        <rect gorn="0.1.62" fill="#8C8C8C" id="connector4pin" width="30" y="286.6" height="43.4"  x="435"/>
        <rect gorn="0.1.63" fill="#8C8C8C" id="connector4terminal" width="30" y="300" height="30"  x="435"/>
        <polygon fill="#8C8C8C" points="415,286.6,415,297.4,435,306.6,465,306.6,485,297.4,485,286.6" />
        <rect gorn="0.1.65" fill="#8C8C8C" id="connector5pin" width="30" y="286.6" height="43.4"  x="535"/>
        <rect gorn="0.1.66" fill="#8C8C8C" id="connector5terminal" width="30" y="300" height="30"  x="535"/>
        <polygon fill="#8C8C8C" points="515,286.6,515,297.4,535,306.6,565,306.6,585,297.4,585,286.6" />
        <rect gorn="0.1.68" fill="#8C8C8C" id="connector6pin" width="30" y="286.6" height="43.4"  x="635"/>
        <rect gorn="0.1.69" fill="#8C8C8C" id="connector6terminal" width="30" y="300" height="30"  x="635"/>
        <polygon fill="#8C8C8C" points="615,286.6,615,297.4,635,306.6,665,306.6,685,297.4,685,286.6" />
        <rect gorn="0.1.71" fill="#8C8C8C" id="connector7pin" width="30" y="286.6" height="43.4"  x="735"/>
        <rect gorn="0.1.72" fill="#8C8C8C" id="connector7terminal" width="30" y="300" height="30"  x="735"/>
        <polygon fill="#8C8C8C" points="715,286.6,715,297.4,735,306.6,765,306.6,785,297.4,785,286.6" />
        <rect gorn="0.1.74" fill="#8C8C8C" id="connector8pin" width="30" y="286.6" height="43.4"  x="835"/>
        <rect gorn="0.1.75" fill="#8C8C8C" id="connector8terminal" width="30" y="300" height="30"  x="835"/>
        <polygon fill="#8C8C8C" points="815,286.6,815,297.4,835,306.6,865,306.6,885,297.4,885,286.6" />
        <rect gorn="0.1.77" fill="#8C8C8C" id="connector9pin" width="30" y="286.6" height="43.4"  x="935"/>
        <rect gorn="0.1.78" fill="#8C8C8C" id="connector9terminal" width="30" y="300" height="30"  x="935"/>
        <polygon fill="#8C8C8C" points="915,286.6,915,297.4,935,306.6,965,306.6,985,297.4,985,286.6" />
        <rect gorn="0.1.80" fill="#8C8C8C" id="connector10pin" width="30" y="286.6" height="43.4"  x="1035"/>
        <rect gorn="0.1.81" fill="#8C8C8C" id="connector10terminal" width="30" y="300" height="30"  x="1035"/>
        <polygon fill="#8C8C8C" points="1015,286.6,1015,297.4,1035,306.6,1065,306.6,1085,297.4,1085,286.6" />
    </g>
</svg>
