<?xml version='1.0' encoding='UTF-8' standalone='no'?>
<!-- Created with Fritzing (http://www.fritzing.org/) -->
<svg xmlns="http://www.w3.org/2000/svg" viewBox="0 0 1000 330" width="1in" baseProfile="tiny" height="0.33in" y="0in" version="1.2" x="0in" >
    <desc >
        <referenceFile >generic_ic_dip_20_300mil_bread.svg</referenceFile>
    </desc>
    <g gorn="0.1" id="breadboard" >
        <rect width="1000" gorn="0.1.0" height="270" y="30" fill="#303030" id="middle" x="0" />
        <rect width="1000" gorn="0.1.1" height="24.6" y="30" fill="#3D3D3D" id="top" x="0" />
        <rect width="1000" gorn="0.1.2" height="24.6" y="275.4" fill="#000000" id="bottom" x="0" />
        <polygon gorn="0.1.3" fill="#141414" id="right" points="1000,30,992.5,54.6,992.5,275.4,1000,300" />
        <polygon gorn="0.1.4" fill="#1F1F1F" id="left" points="0,30,7.5,54.6,7.5,275.4,0,300" />
        <polygon gorn="0.1.5" fill="#1C1C1C" id="left-upper-rect" points="50,115,7.5,114.6,5.6,135.8,5.6,165,50,165" />
        <polygon gorn="0.1.6" fill="#383838" id="left-lower-rect" points="7.5,215.5,50,215.5,50,165,5.6,165,5.6,194.2" />
        <path d="M5.6,135.8l0,58.3c14.7,-1.7,26.2,-14,26.2,-29.2C31.8,149.7,20.4,137.5,5.6,135.8z" gorn="0.1.7" fill="#262626" id="slot" />
        <path d="M7.5,54.6L7.5,114.5c23.8,4.5,41.9,25.3,41.9,50.4c0,25.1,-18,46,-41.9,50.5L7.5,215.5l50,0L57.5,54.6L7.5,54.6z" gorn="0.1.8" fill="#303030" id="cover" />
        <circle cx="65" cy="234.7" r="20.6" fill="#212121" />
        <text font-size="80" gorn="0.1.10" stroke="none" font-family="OCRA" y="165" fill="#e6e6e6" id="label" x="65"  text-anchor="start">SN74HCT245</text>
        <rect width="30" gorn="0.1.11" height="43.4" y="286.6" fill="#8C8C8C" id="connector0pin" x="35" />
        <rect width="30" gorn="0.1.12" height="30" y="300" fill="#8C8C8C" id="connector0terminal" x="35" />
        <polygon fill="#8C8C8C" points="35,286.6,35,306.6,65,306.6,85,297.4,85,286.6" />
        <rect width="30" gorn="0.1.14" height="43.4" fill="#8C8C8C" id="connector19pin" x="35" />
        <rect width="30" gorn="0.1.15" height="30" fill="#8C8C8C" id="connector19terminal" x="35" />
        <polygon fill="#8C8C8C" points="85,43.4,85,32.6,65,23.4,35,23.4,35,43.4" />
        <rect width="30" gorn="0.1.17" height="43.4" y="286.6" fill="#8C8C8C" id="connector9pin" x="935" />
        <rect width="30" gorn="0.1.18" height="30" y="300" fill="#8C8C8C" id="connector9terminal" x="935" />
        <polygon fill="#8C8C8C" points="915,286.6,915,297.4,935,306.6,965,306.6,965,286.6" />
        <rect width="30" gorn="0.1.20" height="43.4" y="0" fill="#8C8C8C" id="connector10pin" x="935" />
        <rect width="30" gorn="0.1.21" height="30" y="0" fill="#8C8C8C" id="connector10terminal" x="935" />
        <polygon fill="#8C8C8C" points="965,43.4,965,23.4,935,23.4,915,32.6,915,43.4" />
        <rect width="30" gorn="0.1.23" height="43.4" y="0" fill="#8C8C8C" id="connector18pin" x="135" />
        <rect width="30" gorn="0.1.24" height="30" fill="#8C8C8C" id="connector18terminal" x="135" />
        <polygon fill="#8C8C8C" points="185,43.4,185,32.6,165,23.4,135,23.4,115,32.6,115,43.4" />
        <rect width="30" gorn="0.1.26" height="43.4" y="0" fill="#8C8C8C" id="connector17pin" x="235" />
        <rect width="30" gorn="0.1.27" height="30" fill="#8C8C8C" id="connector17terminal" x="235" />
        <polygon fill="#8C8C8C" points="285,43.4,285,32.6,265,23.4,235,23.4,215,32.6,215,43.4" />
        <rect width="30" gorn="0.1.29" height="43.4" y="0" fill="#8C8C8C" id="connector16pin" x="335" />
        <rect width="30" gorn="0.1.30" height="30" fill="#8C8C8C" id="connector16terminal" x="335" />
        <polygon fill="#8C8C8C" points="385,43.4,385,32.6,365,23.4,335,23.4,315,32.6,315,43.4" />
        <rect width="30" gorn="0.1.32" height="43.4" y="0" fill="#8C8C8C" id="connector15pin" x="435" />
        <rect width="30" gorn="0.1.33" height="30" fill="#8C8C8C" id="connector15terminal" x="435" />
        <polygon fill="#8C8C8C" points="485,43.4,485,32.6,465,23.4,435,23.4,415,32.6,415,43.4" />
        <rect width="30" gorn="0.1.35" height="43.4" y="0" fill="#8C8C8C" id="connector14pin" x="535" />
        <rect width="30" gorn="0.1.36" height="30" fill="#8C8C8C" id="connector14terminal" x="535" />
        <polygon fill="#8C8C8C" points="585,43.4,585,32.6,565,23.4,535,23.4,515,32.6,515,43.4" />
        <rect width="30" gorn="0.1.38" height="43.4" y="0" fill="#8C8C8C" id="connector13pin" x="635" />
        <rect width="30" gorn="0.1.39" height="30" fill="#8C8C8C" id="connector13terminal" x="635" />
        <polygon fill="#8C8C8C" points="685,43.4,685,32.6,665,23.4,635,23.4,615,32.6,615,43.4" />
        <rect width="30" gorn="0.1.41" height="43.4" y="0" fill="#8C8C8C" id="connector12pin" x="735" />
        <rect width="30" gorn="0.1.42" height="30" fill="#8C8C8C" id="connector12terminal" x="735" />
        <polygon fill="#8C8C8C" points="785,43.4,785,32.6,765,23.4,735,23.4,715,32.6,715,43.4" />
        <rect width="30" gorn="0.1.44" height="43.4" y="0" fill="#8C8C8C" id="connector11pin" x="835" />
        <rect width="30" gorn="0.1.45" height="30" fill="#8C8C8C" id="connector11terminal" x="835" />
        <polygon fill="#8C8C8C" points="885,43.4,885,32.6,865,23.4,835,23.4,815,32.6,815,43.4" />
        <rect width="30" gorn="0.1.47" height="43.4" y="286.6" fill="#8C8C8C" id="connector1pin" x="135" />
        <rect width="30" gorn="0.1.48" height="30" y="300" fill="#8C8C8C" id="connector1terminal" x="135" />
        <polygon fill="#8C8C8C" points="115,286.6,115,297.4,135,306.6,165,306.6,185,297.4,185,286.6" />
        <rect width="30" gorn="0.1.50" height="43.4" y="286.6" fill="#8C8C8C" id="connector2pin" x="235" />
        <rect width="30" gorn="0.1.51" height="30" y="300" fill="#8C8C8C" id="connector2terminal" x="235" />
        <polygon fill="#8C8C8C" points="215,286.6,215,297.4,235,306.6,265,306.6,285,297.4,285,286.6" />
        <rect width="30" gorn="0.1.53" height="43.4" y="286.6" fill="#8C8C8C" id="connector3pin" x="335" />
        <rect width="30" gorn="0.1.54" height="30" y="300" fill="#8C8C8C" id="connector3terminal" x="335" />
        <polygon fill="#8C8C8C" points="315,286.6,315,297.4,335,306.6,365,306.6,385,297.4,385,286.6" />
        <rect width="30" gorn="0.1.56" height="43.4" y="286.6" fill="#8C8C8C" id="connector4pin" x="435" />
        <rect width="30" gorn="0.1.57" height="30" y="300" fill="#8C8C8C" id="connector4terminal" x="435" />
        <polygon fill="#8C8C8C" points="415,286.6,415,297.4,435,306.6,465,306.6,485,297.4,485,286.6" />
        <rect width="30" gorn="0.1.59" height="43.4" y="286.6" fill="#8C8C8C" id="connector5pin" x="535" />
        <rect width="30" gorn="0.1.60" height="30" y="300" fill="#8C8C8C" id="connector5terminal" x="535" />
        <polygon fill="#8C8C8C" points="515,286.6,515,297.4,535,306.6,565,306.6,585,297.4,585,286.6" />
        <rect width="30" gorn="0.1.62" height="43.4" y="286.6" fill="#8C8C8C" id="connector6pin" x="635" />
        <rect width="30" gorn="0.1.63" height="30" y="300" fill="#8C8C8C" id="connector6terminal" x="635" />
        <polygon fill="#8C8C8C" points="615,286.6,615,297.4,635,306.6,665,306.6,685,297.4,685,286.6" />
        <rect width="30" gorn="0.1.65" height="43.4" y="286.6" fill="#8C8C8C" id="connector7pin" x="735" />
        <rect width="30" gorn="0.1.66" height="30" y="300" fill="#8C8C8C" id="connector7terminal" x="735" />
        <polygon fill="#8C8C8C" points="715,286.6,715,297.4,735,306.6,765,306.6,785,297.4,785,286.6" />
        <rect width="30" gorn="0.1.68" height="43.4" y="286.6" fill="#8C8C8C" id="connector8pin" x="835" />
        <rect width="30" gorn="0.1.69" height="30" y="300" fill="#8C8C8C" id="connector8terminal" x="835" />
        <polygon fill="#8C8C8C" points="815,286.6,815,297.4,835,306.6,865,306.6,885,297.4,885,286.6" />
    </g>
</svg>
