<?xml version='1.0' encoding='UTF-8' standalone='no'?>
<!-- Created with Fritzing (http://www.fritzing.org/) -->
<svg xmlns="http://www.w3.org/2000/svg" height="0.33in" viewBox="0 0 800 330"  baseProfile="tiny" y="0in" x="0in" width="0.8in" version="1.2">
    <desc >
        <referenceFile >generic_ic_dip_16_300mil_bread.svg</referenceFile>
    </desc>
    <g  gorn="0.1" id="breadboard">
        <rect height="270"  gorn="0.1.0" fill="#303030" id="middle" y="30" x="0" width="800"/>
        <rect height="24.6"  gorn="0.1.1" fill="#3D3D3D" id="top" y="30" x="0" width="800"/>
        <rect height="24.6"  gorn="0.1.2" fill="#000000" id="bottom" y="275.4" x="0" width="800"/>
        <polygon  gorn="0.1.3" fill="#141414" id="right" points="800,30,792.5,54.6,792.5,275.4,800,300"/>
        <polygon  gorn="0.1.4" fill="#1F1F1F" id="left" points="0,30,7.5,54.6,7.5,275.4,0,300"/>
        <polygon  gorn="0.1.5" fill="#1C1C1C" id="left-upper-rect" points="50,115,7.5,114.6,5.6,135.8,5.6,165,50,165"/>
        <polygon  gorn="0.1.6" fill="#383838" id="left-lower-rect" points="7.5,215.5,50,215.5,50,165,5.6,165,5.6,194.2"/>
        <path  gorn="0.1.7" fill="#262626" d="M5.6,135.8l0,58.3c14.7,-1.7,26.2,-14,26.2,-29.2C31.8,149.7,20.4,137.5,5.6,135.8z" id="slot"/>
        <path  gorn="0.1.8" fill="#303030" d="M7.5,54.6L7.5,114.5c23.8,4.5,41.9,25.3,41.9,50.4c0,25.1,-18,46,-41.9,50.5L7.5,215.5l50,0L57.5,54.6L7.5,54.6z" id="cover"/>
        <circle  cy="234.7" fill="#212121" r="20.6" cx="65"/>
        <text  gorn="0.1.10" fill="#e6e6e6" font-size="80" font-family="OCRA" id="label" stroke="none" y="165" text-anchor="start" x="65">74HCT161</text>
        <rect height="43.4"  gorn="0.1.11" fill="#8C8C8C" id="connector0pin" y="286.6" x="35" width="30"/>
        <rect height="30"  gorn="0.1.12" fill="#8C8C8C" id="connector0terminal" y="300" x="35" width="30"/>
        <polygon  fill="#8C8C8C" points="35,286.6,35,306.6,65,306.6,85,297.4,85,286.6"/>
        <rect height="43.4"  gorn="0.1.14" fill="#8C8C8C" id="connector15pin" x="35" width="30"/>
        <rect height="30"  gorn="0.1.15" fill="#8C8C8C" id="connector15terminal" x="35" width="30"/>
        <polygon  fill="#8C8C8C" points="85,43.4,85,32.6,65,23.4,35,23.4,35,43.4"/>
        <rect height="43.4"  gorn="0.1.17" fill="#8C8C8C" id="connector7pin" y="286.6" x="735" width="30"/>
        <rect height="30"  gorn="0.1.18" fill="#8C8C8C" id="connector7terminal" y="300" x="735" width="30"/>
        <polygon  fill="#8C8C8C" points="715,286.6,715,297.4,735,306.6,765,306.6,765,286.6"/>
        <rect height="43.4"  gorn="0.1.20" fill="#8C8C8C" id="connector8pin" y="0" x="735" width="30"/>
        <rect height="30"  gorn="0.1.21" fill="#8C8C8C" id="connector8terminal" y="0" x="735" width="30"/>
        <polygon  fill="#8C8C8C" points="765,43.4,765,23.4,735,23.4,715,32.6,715,43.4"/>
        <rect height="43.4"  gorn="0.1.23" fill="#8C8C8C" id="connector14pin" y="0" x="135" width="30"/>
        <rect height="30"  gorn="0.1.24" fill="#8C8C8C" id="connector14terminal" x="135" width="30"/>
        <polygon  fill="#8C8C8C" points="185,43.4,185,32.6,165,23.4,135,23.4,115,32.6,115,43.4"/>
        <rect height="43.4"  gorn="0.1.26" fill="#8C8C8C" id="connector13pin" y="0" x="235" width="30"/>
        <rect height="30"  gorn="0.1.27" fill="#8C8C8C" id="connector13terminal" x="235" width="30"/>
        <polygon  fill="#8C8C8C" points="285,43.4,285,32.6,265,23.4,235,23.4,215,32.6,215,43.4"/>
        <rect height="43.4"  gorn="0.1.29" fill="#8C8C8C" id="connector12pin" y="0" x="335" width="30"/>
        <rect height="30"  gorn="0.1.30" fill="#8C8C8C" id="connector12terminal" x="335" width="30"/>
        <polygon  fill="#8C8C8C" points="385,43.4,385,32.6,365,23.4,335,23.4,315,32.6,315,43.4"/>
        <rect height="43.4"  gorn="0.1.32" fill="#8C8C8C" id="connector11pin" y="0" x="435" width="30"/>
        <rect height="30"  gorn="0.1.33" fill="#8C8C8C" id="connector11terminal" x="435" width="30"/>
        <polygon  fill="#8C8C8C" points="485,43.4,485,32.6,465,23.4,435,23.4,415,32.6,415,43.4"/>
        <rect height="43.4"  gorn="0.1.35" fill="#8C8C8C" id="connector10pin" y="0" x="535" width="30"/>
        <rect height="30"  gorn="0.1.36" fill="#8C8C8C" id="connector10terminal" x="535" width="30"/>
        <polygon  fill="#8C8C8C" points="585,43.4,585,32.6,565,23.4,535,23.4,515,32.6,515,43.4"/>
        <rect height="43.4"  gorn="0.1.38" fill="#8C8C8C" id="connector9pin" y="0" x="635" width="30"/>
        <rect height="30"  gorn="0.1.39" fill="#8C8C8C" id="connector9terminal" x="635" width="30"/>
        <polygon  fill="#8C8C8C" points="685,43.4,685,32.6,665,23.4,635,23.4,615,32.6,615,43.4"/>
        <rect height="43.4"  gorn="0.1.41" fill="#8C8C8C" id="connector1pin" y="286.6" x="135" width="30"/>
        <rect height="30"  gorn="0.1.42" fill="#8C8C8C" id="connector1terminal" y="300" x="135" width="30"/>
        <polygon  fill="#8C8C8C" points="115,286.6,115,297.4,135,306.6,165,306.6,185,297.4,185,286.6"/>
        <rect height="43.4"  gorn="0.1.44" fill="#8C8C8C" id="connector2pin" y="286.6" x="235" width="30"/>
        <rect height="30"  gorn="0.1.45" fill="#8C8C8C" id="connector2terminal" y="300" x="235" width="30"/>
        <polygon  fill="#8C8C8C" points="215,286.6,215,297.4,235,306.6,265,306.6,285,297.4,285,286.6"/>
        <rect height="43.4"  gorn="0.1.47" fill="#8C8C8C" id="connector3pin" y="286.6" x="335" width="30"/>
        <rect height="30"  gorn="0.1.48" fill="#8C8C8C" id="connector3terminal" y="300" x="335" width="30"/>
        <polygon  fill="#8C8C8C" points="315,286.6,315,297.4,335,306.6,365,306.6,385,297.4,385,286.6"/>
        <rect height="43.4"  gorn="0.1.50" fill="#8C8C8C" id="connector4pin" y="286.6" x="435" width="30"/>
        <rect height="30"  gorn="0.1.51" fill="#8C8C8C" id="connector4terminal" y="300" x="435" width="30"/>
        <polygon  fill="#8C8C8C" points="415,286.6,415,297.4,435,306.6,465,306.6,485,297.4,485,286.6"/>
        <rect height="43.4"  gorn="0.1.53" fill="#8C8C8C" id="connector5pin" y="286.6" x="535" width="30"/>
        <rect height="30"  gorn="0.1.54" fill="#8C8C8C" id="connector5terminal" y="300" x="535" width="30"/>
        <polygon  fill="#8C8C8C" points="515,286.6,515,297.4,535,306.6,565,306.6,585,297.4,585,286.6"/>
        <rect height="43.4"  gorn="0.1.56" fill="#8C8C8C" id="connector6pin" y="286.6" x="635" width="30"/>
        <rect height="30"  gorn="0.1.57" fill="#8C8C8C" id="connector6terminal" y="300" x="635" width="30"/>
        <polygon  fill="#8C8C8C" points="615,286.6,615,297.4,635,306.6,665,306.6,685,297.4,685,286.6"/>
    </g>
</svg>
