<?xml version='1.0' encoding='UTF-8' standalone='no'?>
<!-- Created with Fritzing (http://www.fritzing.org/) -->
<svg xmlns="http://www.w3.org/2000/svg" viewBox="0 0 800 330" width="0.8in" height="0.33in" y="0in"  version="1.2" baseProfile="tiny" x="0in">
    <desc >
        <referenceFile >generic_ic_dip_16_300mil_bread.svg</referenceFile>
    </desc>
    <g  id="breadboard" gorn="0.1">
        <rect width="800" height="270" y="30"  id="middle" gorn="0.1.0" fill="#303030" x="0"/>
        <rect width="800" height="24.6" y="30"  id="top" gorn="0.1.1" fill="#3D3D3D" x="0"/>
        <rect width="800" height="24.6" y="275.4"  id="bottom" gorn="0.1.2" fill="#000000" x="0"/>
        <polygon points="800,30,792.5,54.6,792.5,275.4,800,300"  id="right" gorn="0.1.3" fill="#141414"/>
        <polygon points="0,30,7.5,54.6,7.5,275.4,0,300"  id="left" gorn="0.1.4" fill="#1F1F1F"/>
        <polygon points="50,115,7.5,114.6,5.6,135.8,5.6,165,50,165"  id="left-upper-rect" gorn="0.1.5" fill="#1C1C1C"/>
        <polygon points="7.5,215.5,50,215.5,50,165,5.6,165,5.6,194.2"  id="left-lower-rect" gorn="0.1.6" fill="#383838"/>
        <path d="M5.6,135.8l0,58.3c14.7,-1.7,26.2,-14,26.2,-29.2C31.8,149.7,20.4,137.5,5.6,135.8z"  id="slot" gorn="0.1.7" fill="#262626"/>
        <path d="M7.5,54.6L7.5,114.5c23.8,4.5,41.9,25.3,41.9,50.4c0,25.1,-18,46,-41.9,50.5L7.5,215.5l50,0L57.5,54.6L7.5,54.6z"  id="cover" gorn="0.1.8" fill="#303030"/>
        <circle cx="65"  cy="234.7" fill="#212121" r="20.6"/>
        <text y="165" stroke="none"  id="label" gorn="0.1.10" fill="#e6e6e6" font-size="80" x="65" text-anchor="start" font-family="OCRA">74HCT157</text>
        <rect width="30" height="43.4" y="286.6"  id="connector0pin" gorn="0.1.11" fill="#8C8C8C" x="35"/>
        <rect width="30" height="30" y="300"  id="connector0terminal" gorn="0.1.12" fill="#8C8C8C" x="35"/>
        <polygon points="35,286.6,35,306.6,65,306.6,85,297.4,85,286.6"  fill="#8C8C8C"/>
        <rect width="30" height="43.4"  id="connector15pin" gorn="0.1.14" fill="#8C8C8C" x="35"/>
        <rect width="30" height="30"  id="connector15terminal" gorn="0.1.15" fill="#8C8C8C" x="35"/>
        <polygon points="85,43.4,85,32.6,65,23.4,35,23.4,35,43.4"  fill="#8C8C8C"/>
        <rect width="30" height="43.4" y="286.6"  id="connector7pin" gorn="0.1.17" fill="#8C8C8C" x="735"/>
        <rect width="30" height="30" y="300"  id="connector7terminal" gorn="0.1.18" fill="#8C8C8C" x="735"/>
        <polygon points="715,286.6,715,297.4,735,306.6,765,306.6,765,286.6"  fill="#8C8C8C"/>
        <rect width="30" height="43.4" y="0"  id="connector8pin" gorn="0.1.20" fill="#8C8C8C" x="735"/>
        <rect width="30" height="30" y="0"  id="connector8terminal" gorn="0.1.21" fill="#8C8C8C" x="735"/>
        <polygon points="765,43.4,765,23.4,735,23.4,715,32.6,715,43.4"  fill="#8C8C8C"/>
        <rect width="30" height="43.4" y="0"  id="connector14pin" gorn="0.1.23" fill="#8C8C8C" x="135"/>
        <rect width="30" height="30"  id="connector14terminal" gorn="0.1.24" fill="#8C8C8C" x="135"/>
        <polygon points="185,43.4,185,32.6,165,23.4,135,23.4,115,32.6,115,43.4"  fill="#8C8C8C"/>
        <rect width="30" height="43.4" y="0"  id="connector13pin" gorn="0.1.26" fill="#8C8C8C" x="235"/>
        <rect width="30" height="30"  id="connector13terminal" gorn="0.1.27" fill="#8C8C8C" x="235"/>
        <polygon points="285,43.4,285,32.6,265,23.4,235,23.4,215,32.6,215,43.4"  fill="#8C8C8C"/>
        <rect width="30" height="43.4" y="0"  id="connector12pin" gorn="0.1.29" fill="#8C8C8C" x="335"/>
        <rect width="30" height="30"  id="connector12terminal" gorn="0.1.30" fill="#8C8C8C" x="335"/>
        <polygon points="385,43.4,385,32.6,365,23.4,335,23.4,315,32.6,315,43.4"  fill="#8C8C8C"/>
        <rect width="30" height="43.4" y="0"  id="connector11pin" gorn="0.1.32" fill="#8C8C8C" x="435"/>
        <rect width="30" height="30"  id="connector11terminal" gorn="0.1.33" fill="#8C8C8C" x="435"/>
        <polygon points="485,43.4,485,32.6,465,23.4,435,23.4,415,32.6,415,43.4"  fill="#8C8C8C"/>
        <rect width="30" height="43.4" y="0"  id="connector10pin" gorn="0.1.35" fill="#8C8C8C" x="535"/>
        <rect width="30" height="30"  id="connector10terminal" gorn="0.1.36" fill="#8C8C8C" x="535"/>
        <polygon points="585,43.4,585,32.6,565,23.4,535,23.4,515,32.6,515,43.4"  fill="#8C8C8C"/>
        <rect width="30" height="43.4" y="0"  id="connector9pin" gorn="0.1.38" fill="#8C8C8C" x="635"/>
        <rect width="30" height="30"  id="connector9terminal" gorn="0.1.39" fill="#8C8C8C" x="635"/>
        <polygon points="685,43.4,685,32.6,665,23.4,635,23.4,615,32.6,615,43.4"  fill="#8C8C8C"/>
        <rect width="30" height="43.4" y="286.6"  id="connector1pin" gorn="0.1.41" fill="#8C8C8C" x="135"/>
        <rect width="30" height="30" y="300"  id="connector1terminal" gorn="0.1.42" fill="#8C8C8C" x="135"/>
        <polygon points="115,286.6,115,297.4,135,306.6,165,306.6,185,297.4,185,286.6"  fill="#8C8C8C"/>
        <rect width="30" height="43.4" y="286.6"  id="connector2pin" gorn="0.1.44" fill="#8C8C8C" x="235"/>
        <rect width="30" height="30" y="300"  id="connector2terminal" gorn="0.1.45" fill="#8C8C8C" x="235"/>
        <polygon points="215,286.6,215,297.4,235,306.6,265,306.6,285,297.4,285,286.6"  fill="#8C8C8C"/>
        <rect width="30" height="43.4" y="286.6"  id="connector3pin" gorn="0.1.47" fill="#8C8C8C" x="335"/>
        <rect width="30" height="30" y="300"  id="connector3terminal" gorn="0.1.48" fill="#8C8C8C" x="335"/>
        <polygon points="315,286.6,315,297.4,335,306.6,365,306.6,385,297.4,385,286.6"  fill="#8C8C8C"/>
        <rect width="30" height="43.4" y="286.6"  id="connector4pin" gorn="0.1.50" fill="#8C8C8C" x="435"/>
        <rect width="30" height="30" y="300"  id="connector4terminal" gorn="0.1.51" fill="#8C8C8C" x="435"/>
        <polygon points="415,286.6,415,297.4,435,306.6,465,306.6,485,297.4,485,286.6"  fill="#8C8C8C"/>
        <rect width="30" height="43.4" y="286.6"  id="connector5pin" gorn="0.1.53" fill="#8C8C8C" x="535"/>
        <rect width="30" height="30" y="300"  id="connector5terminal" gorn="0.1.54" fill="#8C8C8C" x="535"/>
        <polygon points="515,286.6,515,297.4,535,306.6,565,306.6,585,297.4,585,286.6"  fill="#8C8C8C"/>
        <rect width="30" height="43.4" y="286.6"  id="connector6pin" gorn="0.1.56" fill="#8C8C8C" x="635"/>
        <rect width="30" height="30" y="300"  id="connector6terminal" gorn="0.1.57" fill="#8C8C8C" x="635"/>
        <polygon points="615,286.6,615,297.4,635,306.6,665,306.6,685,297.4,685,286.6"  fill="#8C8C8C"/>
    </g>
</svg>
