<?xml version='1.0' encoding='UTF-8' standalone='no'?>
<!-- Created with Fritzing (http://www.fritzing.org/) -->
<svg xmlns="http://www.w3.org/2000/svg" width="0.8in" version="1.2"  x="0in" y="0in" baseProfile="tiny" viewBox="0 0 800 330" height="0.33in">
    <desc >
        <referenceFile >generic_ic_dip_16_300mil_bread.svg</referenceFile>
    </desc>
    <g gorn="0.1"  id="breadboard">
        <rect width="800" gorn="0.1.0"  x="0" y="30" id="middle" height="270" fill="#303030"/>
        <rect width="800" gorn="0.1.1"  x="0" y="30" id="top" height="24.6" fill="#3D3D3D"/>
        <rect width="800" gorn="0.1.2"  x="0" y="275.4" id="bottom" height="24.6" fill="#000000"/>
        <polygon points="800,30,792.5,54.6,792.5,275.4,800,300" gorn="0.1.3"  id="right" fill="#141414"/>
        <polygon points="0,30,7.5,54.6,7.5,275.4,0,300" gorn="0.1.4"  id="left" fill="#1F1F1F"/>
        <polygon points="50,115,7.5,114.6,5.6,135.8,5.6,165,50,165" gorn="0.1.5"  id="left-upper-rect" fill="#1C1C1C"/>
        <polygon points="7.5,215.5,50,215.5,50,165,5.6,165,5.6,194.2" gorn="0.1.6"  id="left-lower-rect" fill="#383838"/>
        <path gorn="0.1.7"  id="slot" fill="#262626" d="M5.6,135.8l0,58.3c14.7,-1.7,26.2,-14,26.2,-29.2C31.8,149.7,20.4,137.5,5.6,135.8z"/>
        <path gorn="0.1.8"  id="cover" fill="#303030" d="M7.5,54.6L7.5,114.5c23.8,4.5,41.9,25.3,41.9,50.4c0,25.1,-18,46,-41.9,50.5L7.5,215.5l50,0L57.5,54.6L7.5,54.6z"/>
        <circle r="20.6" cy="234.7"  cx="65" fill="#212121"/>
        <text text-anchor="start" gorn="0.1.10"  x="65" y="165" id="label" font-size="80" fill="#e6e6e6" stroke="none" font-family="OCRA">74HCT109</text>
        <rect width="30" gorn="0.1.11"  x="35" y="286.6" id="connector0pin" height="43.4" fill="#8C8C8C"/>
        <rect width="30" gorn="0.1.12"  x="35" y="300" id="connector0terminal" height="30" fill="#8C8C8C"/>
        <polygon points="35,286.6,35,306.6,65,306.6,85,297.4,85,286.6"  fill="#8C8C8C"/>
        <rect width="30" gorn="0.1.14"  x="35" id="connector15pin" height="43.4" fill="#8C8C8C"/>
        <rect width="30" gorn="0.1.15"  x="35" id="connector15terminal" height="30" fill="#8C8C8C"/>
        <polygon points="85,43.4,85,32.6,65,23.4,35,23.4,35,43.4"  fill="#8C8C8C"/>
        <rect width="30" gorn="0.1.17"  x="735" y="286.6" id="connector7pin" height="43.4" fill="#8C8C8C"/>
        <rect width="30" gorn="0.1.18"  x="735" y="300" id="connector7terminal" height="30" fill="#8C8C8C"/>
        <polygon points="715,286.6,715,297.4,735,306.6,765,306.6,765,286.6"  fill="#8C8C8C"/>
        <rect width="30" gorn="0.1.20"  x="735" y="0" id="connector8pin" height="43.4" fill="#8C8C8C"/>
        <rect width="30" gorn="0.1.21"  x="735" y="0" id="connector8terminal" height="30" fill="#8C8C8C"/>
        <polygon points="765,43.4,765,23.4,735,23.4,715,32.6,715,43.4"  fill="#8C8C8C"/>
        <rect width="30" gorn="0.1.23"  x="135" y="0" id="connector14pin" height="43.4" fill="#8C8C8C"/>
        <rect width="30" gorn="0.1.24"  x="135" id="connector14terminal" height="30" fill="#8C8C8C"/>
        <polygon points="185,43.4,185,32.6,165,23.4,135,23.4,115,32.6,115,43.4"  fill="#8C8C8C"/>
        <rect width="30" gorn="0.1.26"  x="235" y="0" id="connector13pin" height="43.4" fill="#8C8C8C"/>
        <rect width="30" gorn="0.1.27"  x="235" id="connector13terminal" height="30" fill="#8C8C8C"/>
        <polygon points="285,43.4,285,32.6,265,23.4,235,23.4,215,32.6,215,43.4"  fill="#8C8C8C"/>
        <rect width="30" gorn="0.1.29"  x="335" y="0" id="connector12pin" height="43.4" fill="#8C8C8C"/>
        <rect width="30" gorn="0.1.30"  x="335" id="connector12terminal" height="30" fill="#8C8C8C"/>
        <polygon points="385,43.4,385,32.6,365,23.4,335,23.4,315,32.6,315,43.4"  fill="#8C8C8C"/>
        <rect width="30" gorn="0.1.32"  x="435" y="0" id="connector11pin" height="43.4" fill="#8C8C8C"/>
        <rect width="30" gorn="0.1.33"  x="435" id="connector11terminal" height="30" fill="#8C8C8C"/>
        <polygon points="485,43.4,485,32.6,465,23.4,435,23.4,415,32.6,415,43.4"  fill="#8C8C8C"/>
        <rect width="30" gorn="0.1.35"  x="535" y="0" id="connector10pin" height="43.4" fill="#8C8C8C"/>
        <rect width="30" gorn="0.1.36"  x="535" id="connector10terminal" height="30" fill="#8C8C8C"/>
        <polygon points="585,43.4,585,32.6,565,23.4,535,23.4,515,32.6,515,43.4"  fill="#8C8C8C"/>
        <rect width="30" gorn="0.1.38"  x="635" y="0" id="connector9pin" height="43.4" fill="#8C8C8C"/>
        <rect width="30" gorn="0.1.39"  x="635" id="connector9terminal" height="30" fill="#8C8C8C"/>
        <polygon points="685,43.4,685,32.6,665,23.4,635,23.4,615,32.6,615,43.4"  fill="#8C8C8C"/>
        <rect width="30" gorn="0.1.41"  x="135" y="286.6" id="connector1pin" height="43.4" fill="#8C8C8C"/>
        <rect width="30" gorn="0.1.42"  x="135" y="300" id="connector1terminal" height="30" fill="#8C8C8C"/>
        <polygon points="115,286.6,115,297.4,135,306.6,165,306.6,185,297.4,185,286.6"  fill="#8C8C8C"/>
        <rect width="30" gorn="0.1.44"  x="235" y="286.6" id="connector2pin" height="43.4" fill="#8C8C8C"/>
        <rect width="30" gorn="0.1.45"  x="235" y="300" id="connector2terminal" height="30" fill="#8C8C8C"/>
        <polygon points="215,286.6,215,297.4,235,306.6,265,306.6,285,297.4,285,286.6"  fill="#8C8C8C"/>
        <rect width="30" gorn="0.1.47"  x="335" y="286.6" id="connector3pin" height="43.4" fill="#8C8C8C"/>
        <rect width="30" gorn="0.1.48"  x="335" y="300" id="connector3terminal" height="30" fill="#8C8C8C"/>
        <polygon points="315,286.6,315,297.4,335,306.6,365,306.6,385,297.4,385,286.6"  fill="#8C8C8C"/>
        <rect width="30" gorn="0.1.50"  x="435" y="286.6" id="connector4pin" height="43.4" fill="#8C8C8C"/>
        <rect width="30" gorn="0.1.51"  x="435" y="300" id="connector4terminal" height="30" fill="#8C8C8C"/>
        <polygon points="415,286.6,415,297.4,435,306.6,465,306.6,485,297.4,485,286.6"  fill="#8C8C8C"/>
        <rect width="30" gorn="0.1.53"  x="535" y="286.6" id="connector5pin" height="43.4" fill="#8C8C8C"/>
        <rect width="30" gorn="0.1.54"  x="535" y="300" id="connector5terminal" height="30" fill="#8C8C8C"/>
        <polygon points="515,286.6,515,297.4,535,306.6,565,306.6,585,297.4,585,286.6"  fill="#8C8C8C"/>
        <rect width="30" gorn="0.1.56"  x="635" y="286.6" id="connector6pin" height="43.4" fill="#8C8C8C"/>
        <rect width="30" gorn="0.1.57"  x="635" y="300" id="connector6terminal" height="30" fill="#8C8C8C"/>
        <polygon points="615,286.6,615,297.4,635,306.6,665,306.6,685,297.4,685,286.6"  fill="#8C8C8C"/>
    </g>
</svg>
