<?xml version='1.0' encoding='UTF-8' standalone='no'?>
<!-- Created with Fritzing (http://www.fritzing.org/) -->
<svg xmlns="http://www.w3.org/2000/svg" width="0.7in"  version="1.2" viewBox="0 0 700 330" baseProfile="tiny" x="0in" y="0in" height="0.33in">
    <desc >
        <referenceFile >generic_ic_dip_14_300mil_bread.svg</referenceFile>
    </desc>
    <g id="breadboard"  gorn="0.1">
        <rect id="middle" width="700"  x="0" y="30" fill="#303030" height="270" gorn="0.1.0"/>
        <rect id="top" width="700"  x="0" y="30" fill="#3D3D3D" height="24.6" gorn="0.1.1"/>
        <rect id="bottom" width="700"  x="0" y="275.4" fill="#000000" height="24.6" gorn="0.1.2"/>
        <polygon id="right"  fill="#141414" points="700,30,692.5,54.6,692.5,275.4,700,300" gorn="0.1.3"/>
        <polygon id="left"  fill="#1F1F1F" points="0,30,7.5,54.6,7.5,275.4,0,300" gorn="0.1.4"/>
        <polygon id="left-upper-rect"  fill="#1C1C1C" points="50,115,7.5,114.6,5.6,135.8,5.6,165,50,165" gorn="0.1.5"/>
        <polygon id="left-lower-rect"  fill="#383838" points="7.5,215.5,50,215.5,50,165,5.6,165,5.6,194.2" gorn="0.1.6"/>
        <path id="slot" d="M5.6,135.8l0,58.3c14.7,-1.7,26.2,-14,26.2,-29.2C31.8,149.7,20.4,137.5,5.6,135.8z"  fill="#262626" gorn="0.1.7"/>
        <path id="cover" d="M7.5,54.6L7.5,114.5c23.8,4.5,41.9,25.3,41.9,50.4c0,25.1,-18,46,-41.9,50.5L7.5,215.5l50,0L57.5,54.6L7.5,54.6z"  fill="#303030" gorn="0.1.8"/>
        <circle r="20.6"  fill="#212121" cy="234.7" cx="65"/>
        <text id="label" stroke="none"  font-family="OCRA" x="65" y="165" fill="#e6e6e6" text-anchor="start" gorn="0.1.10" font-size="80">74HCT04</text>
        <rect id="connector0pin" width="30"  x="35" y="286.6" fill="#8C8C8C" height="43.4" gorn="0.1.11"/>
        <rect id="connector0terminal" width="30"  x="35" y="300" fill="#8C8C8C" height="30" gorn="0.1.12"/>
        <polygon  fill="#8C8C8C" points="35,286.6,35,306.6,65,306.6,85,297.4,85,286.6"/>
        <rect id="connector13pin" width="30"  x="35" fill="#8C8C8C" height="43.4" gorn="0.1.14"/>
        <rect id="connector13terminal" width="30"  x="35" fill="#8C8C8C" height="30" gorn="0.1.15"/>
        <polygon  fill="#8C8C8C" points="85,43.4,85,32.6,65,23.4,35,23.4,35,43.4"/>
        <rect id="connector6pin" width="30"  x="635" y="286.6" fill="#8C8C8C" height="43.4" gorn="0.1.17"/>
        <rect id="connector6terminal" width="30"  x="635" y="300" fill="#8C8C8C" height="30" gorn="0.1.18"/>
        <polygon  fill="#8C8C8C" points="615,286.6,615,297.4,635,306.6,665,306.6,665,286.6"/>
        <rect id="connector7pin" width="30"  x="635" y="0" fill="#8C8C8C" height="43.4" gorn="0.1.20"/>
        <rect id="connector7terminal" width="30"  x="635" y="0" fill="#8C8C8C" height="30" gorn="0.1.21"/>
        <polygon  fill="#8C8C8C" points="665,43.4,665,23.4,635,23.4,615,32.6,615,43.4"/>
        <rect id="connector12pin" width="30"  x="135" y="0" fill="#8C8C8C" height="43.4" gorn="0.1.23"/>
        <rect id="connector12terminal" width="30"  x="135" fill="#8C8C8C" height="30" gorn="0.1.24"/>
        <polygon  fill="#8C8C8C" points="185,43.4,185,32.6,165,23.4,135,23.4,115,32.6,115,43.4"/>
        <rect id="connector11pin" width="30"  x="235" y="0" fill="#8C8C8C" height="43.4" gorn="0.1.26"/>
        <rect id="connector11terminal" width="30"  x="235" fill="#8C8C8C" height="30" gorn="0.1.27"/>
        <polygon  fill="#8C8C8C" points="285,43.4,285,32.6,265,23.4,235,23.4,215,32.6,215,43.4"/>
        <rect id="connector10pin" width="30"  x="335" y="0" fill="#8C8C8C" height="43.4" gorn="0.1.29"/>
        <rect id="connector10terminal" width="30"  x="335" fill="#8C8C8C" height="30" gorn="0.1.30"/>
        <polygon  fill="#8C8C8C" points="385,43.4,385,32.6,365,23.4,335,23.4,315,32.6,315,43.4"/>
        <rect id="connector9pin" width="30"  x="435" y="0" fill="#8C8C8C" height="43.4" gorn="0.1.32"/>
        <rect id="connector9terminal" width="30"  x="435" fill="#8C8C8C" height="30" gorn="0.1.33"/>
        <polygon  fill="#8C8C8C" points="485,43.4,485,32.6,465,23.4,435,23.4,415,32.6,415,43.4"/>
        <rect id="connector8pin" width="30"  x="535" y="0" fill="#8C8C8C" height="43.4" gorn="0.1.35"/>
        <rect id="connector8terminal" width="30"  x="535" fill="#8C8C8C" height="30" gorn="0.1.36"/>
        <polygon  fill="#8C8C8C" points="585,43.4,585,32.6,565,23.4,535,23.4,515,32.6,515,43.4"/>
        <rect id="connector1pin" width="30"  x="135" y="286.6" fill="#8C8C8C" height="43.4" gorn="0.1.38"/>
        <rect id="connector1terminal" width="30"  x="135" y="300" fill="#8C8C8C" height="30" gorn="0.1.39"/>
        <polygon  fill="#8C8C8C" points="115,286.6,115,297.4,135,306.6,165,306.6,185,297.4,185,286.6"/>
        <rect id="connector2pin" width="30"  x="235" y="286.6" fill="#8C8C8C" height="43.4" gorn="0.1.41"/>
        <rect id="connector2terminal" width="30"  x="235" y="300" fill="#8C8C8C" height="30" gorn="0.1.42"/>
        <polygon  fill="#8C8C8C" points="215,286.6,215,297.4,235,306.6,265,306.6,285,297.4,285,286.6"/>
        <rect id="connector3pin" width="30"  x="335" y="286.6" fill="#8C8C8C" height="43.4" gorn="0.1.44"/>
        <rect id="connector3terminal" width="30"  x="335" y="300" fill="#8C8C8C" height="30" gorn="0.1.45"/>
        <polygon  fill="#8C8C8C" points="315,286.6,315,297.4,335,306.6,365,306.6,385,297.4,385,286.6"/>
        <rect id="connector4pin" width="30"  x="435" y="286.6" fill="#8C8C8C" height="43.4" gorn="0.1.47"/>
        <rect id="connector4terminal" width="30"  x="435" y="300" fill="#8C8C8C" height="30" gorn="0.1.48"/>
        <polygon  fill="#8C8C8C" points="415,286.6,415,297.4,435,306.6,465,306.6,485,297.4,485,286.6"/>
        <rect id="connector5pin" width="30"  x="535" y="286.6" fill="#8C8C8C" height="43.4" gorn="0.1.50"/>
        <rect id="connector5terminal" width="30"  x="535" y="300" fill="#8C8C8C" height="30" gorn="0.1.51"/>
        <polygon  fill="#8C8C8C" points="515,286.6,515,297.4,535,306.6,565,306.6,585,297.4,585,286.6"/>
    </g>
</svg>
