<?xml version='1.0' encoding='UTF-8' standalone='no'?>
<!-- Created with Fritzing (http://www.fritzing.org/) -->
<svg xmlns="http://www.w3.org/2000/svg" baseProfile="tiny" y="0in" width="0.8in" version="1.2" x="0in"  viewBox="0 0 800 330" height="0.33in">
    <desc >
        <referenceFile >generic_ic_dip_16_300mil_bread.svg</referenceFile>
    </desc>
    <g gorn="0.1" id="breadboard" >
        <rect y="30" fill="#303030" width="800" gorn="0.1.0" id="middle" x="0"  height="270"/>
        <rect y="30" fill="#3D3D3D" width="800" gorn="0.1.1" id="top" x="0"  height="24.6"/>
        <rect y="275.4" fill="#000000" width="800" gorn="0.1.2" id="bottom" x="0"  height="24.6"/>
        <polygon points="800,30,792.5,54.6,792.5,275.4,800,300" fill="#141414" gorn="0.1.3" id="right" />
        <polygon points="0,30,7.5,54.6,7.5,275.4,0,300" fill="#1F1F1F" gorn="0.1.4" id="left" />
        <polygon points="50,115,7.5,114.6,5.6,135.8,5.6,165,50,165" fill="#1C1C1C" gorn="0.1.5" id="left-upper-rect" />
        <polygon points="7.5,215.5,50,215.5,50,165,5.6,165,5.6,194.2" fill="#383838" gorn="0.1.6" id="left-lower-rect" />
        <path fill="#262626" gorn="0.1.7" id="slot"  d="M5.6,135.8l0,58.3c14.7,-1.7,26.2,-14,26.2,-29.2C31.8,149.7,20.4,137.5,5.6,135.8z"/>
        <path fill="#303030" gorn="0.1.8" id="cover"  d="M7.5,54.6L7.5,114.5c23.8,4.5,41.9,25.3,41.9,50.4c0,25.1,-18,46,-41.9,50.5L7.5,215.5l50,0L57.5,54.6L7.5,54.6z"/>
        <circle fill="#212121" cy="234.7" cx="65"  r="20.6"/>
        <text y="165" text-anchor="start" fill="#e6e6e6" stroke="none" font-family="OCRA" gorn="0.1.10" id="label" x="65" font-size="80" >74HC165</text>
        <rect y="286.6" fill="#8C8C8C" width="30" gorn="0.1.11" id="connector0pin" x="35"  height="43.4"/>
        <rect y="300" fill="#8C8C8C" width="30" gorn="0.1.12" id="connector0terminal" x="35"  height="30"/>
        <polygon points="35,286.6,35,306.6,65,306.6,85,297.4,85,286.6" fill="#8C8C8C" />
        <rect fill="#8C8C8C" width="30" gorn="0.1.14" id="connector15pin" x="35"  height="43.4"/>
        <rect fill="#8C8C8C" width="30" gorn="0.1.15" id="connector15terminal" x="35"  height="30"/>
        <polygon points="85,43.4,85,32.6,65,23.4,35,23.4,35,43.4" fill="#8C8C8C" />
        <rect y="286.6" fill="#8C8C8C" width="30" gorn="0.1.17" id="connector7pin" x="735"  height="43.4"/>
        <rect y="300" fill="#8C8C8C" width="30" gorn="0.1.18" id="connector7terminal" x="735"  height="30"/>
        <polygon points="715,286.6,715,297.4,735,306.6,765,306.6,765,286.6" fill="#8C8C8C" />
        <rect y="0" fill="#8C8C8C" width="30" gorn="0.1.20" id="connector8pin" x="735"  height="43.4"/>
        <rect y="0" fill="#8C8C8C" width="30" gorn="0.1.21" id="connector8terminal" x="735"  height="30"/>
        <polygon points="765,43.4,765,23.4,735,23.4,715,32.6,715,43.4" fill="#8C8C8C" />
        <rect y="0" fill="#8C8C8C" width="30" gorn="0.1.23" id="connector14pin" x="135"  height="43.4"/>
        <rect fill="#8C8C8C" width="30" gorn="0.1.24" id="connector14terminal" x="135"  height="30"/>
        <polygon points="185,43.4,185,32.6,165,23.4,135,23.4,115,32.6,115,43.4" fill="#8C8C8C" />
        <rect y="0" fill="#8C8C8C" width="30" gorn="0.1.26" id="connector13pin" x="235"  height="43.4"/>
        <rect fill="#8C8C8C" width="30" gorn="0.1.27" id="connector13terminal" x="235"  height="30"/>
        <polygon points="285,43.4,285,32.6,265,23.4,235,23.4,215,32.6,215,43.4" fill="#8C8C8C" />
        <rect y="0" fill="#8C8C8C" width="30" gorn="0.1.29" id="connector12pin" x="335"  height="43.4"/>
        <rect fill="#8C8C8C" width="30" gorn="0.1.30" id="connector12terminal" x="335"  height="30"/>
        <polygon points="385,43.4,385,32.6,365,23.4,335,23.4,315,32.6,315,43.4" fill="#8C8C8C" />
        <rect y="0" fill="#8C8C8C" width="30" gorn="0.1.32" id="connector11pin" x="435"  height="43.4"/>
        <rect fill="#8C8C8C" width="30" gorn="0.1.33" id="connector11terminal" x="435"  height="30"/>
        <polygon points="485,43.4,485,32.6,465,23.4,435,23.4,415,32.6,415,43.4" fill="#8C8C8C" />
        <rect y="0" fill="#8C8C8C" width="30" gorn="0.1.35" id="connector10pin" x="535"  height="43.4"/>
        <rect fill="#8C8C8C" width="30" gorn="0.1.36" id="connector10terminal" x="535"  height="30"/>
        <polygon points="585,43.4,585,32.6,565,23.4,535,23.4,515,32.6,515,43.4" fill="#8C8C8C" />
        <rect y="0" fill="#8C8C8C" width="30" gorn="0.1.38" id="connector9pin" x="635"  height="43.4"/>
        <rect fill="#8C8C8C" width="30" gorn="0.1.39" id="connector9terminal" x="635"  height="30"/>
        <polygon points="685,43.4,685,32.6,665,23.4,635,23.4,615,32.6,615,43.4" fill="#8C8C8C" />
        <rect y="286.6" fill="#8C8C8C" width="30" gorn="0.1.41" id="connector1pin" x="135"  height="43.4"/>
        <rect y="300" fill="#8C8C8C" width="30" gorn="0.1.42" id="connector1terminal" x="135"  height="30"/>
        <polygon points="115,286.6,115,297.4,135,306.6,165,306.6,185,297.4,185,286.6" fill="#8C8C8C" />
        <rect y="286.6" fill="#8C8C8C" width="30" gorn="0.1.44" id="connector2pin" x="235"  height="43.4"/>
        <rect y="300" fill="#8C8C8C" width="30" gorn="0.1.45" id="connector2terminal" x="235"  height="30"/>
        <polygon points="215,286.6,215,297.4,235,306.6,265,306.6,285,297.4,285,286.6" fill="#8C8C8C" />
        <rect y="286.6" fill="#8C8C8C" width="30" gorn="0.1.47" id="connector3pin" x="335"  height="43.4"/>
        <rect y="300" fill="#8C8C8C" width="30" gorn="0.1.48" id="connector3terminal" x="335"  height="30"/>
        <polygon points="315,286.6,315,297.4,335,306.6,365,306.6,385,297.4,385,286.6" fill="#8C8C8C" />
        <rect y="286.6" fill="#8C8C8C" width="30" gorn="0.1.50" id="connector4pin" x="435"  height="43.4"/>
        <rect y="300" fill="#8C8C8C" width="30" gorn="0.1.51" id="connector4terminal" x="435"  height="30"/>
        <polygon points="415,286.6,415,297.4,435,306.6,465,306.6,485,297.4,485,286.6" fill="#8C8C8C" />
        <rect y="286.6" fill="#8C8C8C" width="30" gorn="0.1.53" id="connector5pin" x="535"  height="43.4"/>
        <rect y="300" fill="#8C8C8C" width="30" gorn="0.1.54" id="connector5terminal" x="535"  height="30"/>
        <polygon points="515,286.6,515,297.4,535,306.6,565,306.6,585,297.4,585,286.6" fill="#8C8C8C" />
        <rect y="286.6" fill="#8C8C8C" width="30" gorn="0.1.56" id="connector6pin" x="635"  height="43.4"/>
        <rect y="300" fill="#8C8C8C" width="30" gorn="0.1.57" id="connector6terminal" x="635"  height="30"/>
        <polygon points="615,286.6,615,297.4,635,306.6,665,306.6,685,297.4,685,286.6" fill="#8C8C8C" />
    </g>
</svg>
