<?xml version='1.0' encoding='UTF-8' standalone='no'?>
<!-- Created with Fritzing (http://www.fritzing.org/) -->
<svg xmlns="http://www.w3.org/2000/svg" height="0.63in" viewBox="0 0 1400 630" baseProfile="tiny" y="0in" version="1.2"  width="1.4in" x="0in">
    <desc >
        <referenceFile >generic_ic_dip_28_600mil_bread.svg</referenceFile>
    </desc>
    <g  gorn="0.1" id="breadboard">
        <rect height="570" y="30" fill="#303030"  width="1400" gorn="0.1.0" id="middle" x="0"/>
        <rect height="24.6" y="30" fill="#3D3D3D"  width="1400" gorn="0.1.1" id="top" x="0"/>
        <rect height="24.6" y="575.4" fill="#000000"  width="1400" gorn="0.1.2" id="bottom" x="0"/>
        <polygon fill="#141414" points="1400,30,1392.5,54.6,1392.5,575.4,1400,600"  gorn="0.1.3" id="right"/>
        <polygon fill="#1F1F1F" points="0,30,7.5,54.6,7.5,575.4,0,600"  gorn="0.1.4" id="left"/>
        <polygon fill="#1C1C1C" points="50,265,7.5,264.6,5.6,285.8,5.6,315,50,315"  gorn="0.1.5" id="left-upper-rect"/>
        <polygon fill="#383838" points="7.5,365.5,50,365.5,50,315,5.6,315,5.6,344.2"  gorn="0.1.6" id="left-lower-rect"/>
        <path d="M5.6,285.8l0,58.3c14.7,-1.7,26.2,-14,26.2,-29.2C31.8,299.7,20.4,287.5,5.6,285.8z" fill="#262626"  gorn="0.1.7" id="slot"/>
        <path d="M7.5,54.6L7.5,264.5c23.8,4.5,41.9,25.3,41.9,50.4c0,25.1,-18,46,-41.9,50.5L7.5,365.5l50,0L57.5,54.6L7.5,54.6z" fill="#303030"  gorn="0.1.8" id="cover"/>
        <circle cx="65" cy="534.7" fill="#212121" r="20.6" />
        <text y="315" text-anchor="start" font-size="80" fill="#e6e6e6" font-family="OCRA"  stroke="none" gorn="0.1.10" id="label" x="65">AT28C256</text>
        <rect height="43.4" y="586.6" fill="#8C8C8C"  width="30" gorn="0.1.11" id="connector0pin" x="35"/>
        <rect height="30" y="600" fill="#8C8C8C"  width="30" gorn="0.1.12" id="connector0terminal" x="35"/>
        <polygon fill="#8C8C8C" points="35,586.6,35,606.6,65,606.6,85,597.4,85,586.6" />
        <rect height="43.4" fill="#8C8C8C"  width="30" gorn="0.1.14" id="connector27pin" x="35"/>
        <rect height="30" fill="#8C8C8C"  width="30" gorn="0.1.15" id="connector27terminal" x="35"/>
        <polygon fill="#8C8C8C" points="85,43.4,85,32.6,65,23.4,35,23.4,35,43.4" />
        <rect height="43.4" y="586.6" fill="#8C8C8C"  width="30" gorn="0.1.17" id="connector13pin" x="1335"/>
        <rect height="30" y="600" fill="#8C8C8C"  width="30" gorn="0.1.18" id="connector13terminal" x="1335"/>
        <polygon fill="#8C8C8C" points="1315,586.6,1315,597.4,1335,606.6,1365,606.6,1365,586.6" />
        <rect height="43.4" y="0" fill="#8C8C8C"  width="30" gorn="0.1.20" id="connector14pin" x="1335"/>
        <rect height="30" y="0" fill="#8C8C8C"  width="30" gorn="0.1.21" id="connector14terminal" x="1335"/>
        <polygon fill="#8C8C8C" points="1365,43.4,1365,23.4,1335,23.4,1315,32.6,1315,43.4" />
        <rect height="43.4" y="0" fill="#8C8C8C"  width="30" gorn="0.1.23" id="connector26pin" x="135"/>
        <rect height="30" fill="#8C8C8C"  width="30" gorn="0.1.24" id="connector26terminal" x="135"/>
        <polygon fill="#8C8C8C" points="185,43.4,185,32.6,165,23.4,135,23.4,115,32.6,115,43.4" />
        <rect height="43.4" y="0" fill="#8C8C8C"  width="30" gorn="0.1.26" id="connector25pin" x="235"/>
        <rect height="30" fill="#8C8C8C"  width="30" gorn="0.1.27" id="connector25terminal" x="235"/>
        <polygon fill="#8C8C8C" points="285,43.4,285,32.6,265,23.4,235,23.4,215,32.6,215,43.4" />
        <rect height="43.4" y="0" fill="#8C8C8C"  width="30" gorn="0.1.29" id="connector24pin" x="335"/>
        <rect height="30" fill="#8C8C8C"  width="30" gorn="0.1.30" id="connector24terminal" x="335"/>
        <polygon fill="#8C8C8C" points="385,43.4,385,32.6,365,23.4,335,23.4,315,32.6,315,43.4" />
        <rect height="43.4" y="0" fill="#8C8C8C"  width="30" gorn="0.1.32" id="connector23pin" x="435"/>
        <rect height="30" fill="#8C8C8C"  width="30" gorn="0.1.33" id="connector23terminal" x="435"/>
        <polygon fill="#8C8C8C" points="485,43.4,485,32.6,465,23.4,435,23.4,415,32.6,415,43.4" />
        <rect height="43.4" y="0" fill="#8C8C8C"  width="30" gorn="0.1.35" id="connector22pin" x="535"/>
        <rect height="30" fill="#8C8C8C"  width="30" gorn="0.1.36" id="connector22terminal" x="535"/>
        <polygon fill="#8C8C8C" points="585,43.4,585,32.6,565,23.4,535,23.4,515,32.6,515,43.4" />
        <rect height="43.4" y="0" fill="#8C8C8C"  width="30" gorn="0.1.38" id="connector21pin" x="635"/>
        <rect height="30" fill="#8C8C8C"  width="30" gorn="0.1.39" id="connector21terminal" x="635"/>
        <polygon fill="#8C8C8C" points="685,43.4,685,32.6,665,23.4,635,23.4,615,32.6,615,43.4" />
        <rect height="43.4" y="0" fill="#8C8C8C"  width="30" gorn="0.1.41" id="connector20pin" x="735"/>
        <rect height="30" fill="#8C8C8C"  width="30" gorn="0.1.42" id="connector20terminal" x="735"/>
        <polygon fill="#8C8C8C" points="785,43.4,785,32.6,765,23.4,735,23.4,715,32.6,715,43.4" />
        <rect height="43.4" y="0" fill="#8C8C8C"  width="30" gorn="0.1.44" id="connector19pin" x="835"/>
        <rect height="30" fill="#8C8C8C"  width="30" gorn="0.1.45" id="connector19terminal" x="835"/>
        <polygon fill="#8C8C8C" points="885,43.4,885,32.6,865,23.4,835,23.4,815,32.6,815,43.4" />
        <rect height="43.4" y="0" fill="#8C8C8C"  width="30" gorn="0.1.47" id="connector18pin" x="935"/>
        <rect height="30" fill="#8C8C8C"  width="30" gorn="0.1.48" id="connector18terminal" x="935"/>
        <polygon fill="#8C8C8C" points="985,43.4,985,32.6,965,23.4,935,23.4,915,32.6,915,43.4" />
        <rect height="43.4" y="0" fill="#8C8C8C"  width="30" gorn="0.1.50" id="connector17pin" x="1035"/>
        <rect height="30" fill="#8C8C8C"  width="30" gorn="0.1.51" id="connector17terminal" x="1035"/>
        <polygon fill="#8C8C8C" points="1085,43.4,1085,32.6,1065,23.4,1035,23.4,1015,32.6,1015,43.4" />
        <rect height="43.4" y="0" fill="#8C8C8C"  width="30" gorn="0.1.53" id="connector16pin" x="1135"/>
        <rect height="30" fill="#8C8C8C"  width="30" gorn="0.1.54" id="connector16terminal" x="1135"/>
        <polygon fill="#8C8C8C" points="1185,43.4,1185,32.6,1165,23.4,1135,23.4,1115,32.6,1115,43.4" />
        <rect height="43.4" y="0" fill="#8C8C8C"  width="30" gorn="0.1.56" id="connector15pin" x="1235"/>
        <rect height="30" fill="#8C8C8C"  width="30" gorn="0.1.57" id="connector15terminal" x="1235"/>
        <polygon fill="#8C8C8C" points="1285,43.4,1285,32.6,1265,23.4,1235,23.4,1215,32.6,1215,43.4" />
        <rect height="43.4" y="586.6" fill="#8C8C8C"  width="30" gorn="0.1.59" id="connector1pin" x="135"/>
        <rect height="30" y="600" fill="#8C8C8C"  width="30" gorn="0.1.60" id="connector1terminal" x="135"/>
        <polygon fill="#8C8C8C" points="115,586.6,115,597.4,135,606.6,165,606.6,185,597.4,185,586.6" />
        <rect height="43.4" y="586.6" fill="#8C8C8C"  width="30" gorn="0.1.62" id="connector2pin" x="235"/>
        <rect height="30" y="600" fill="#8C8C8C"  width="30" gorn="0.1.63" id="connector2terminal" x="235"/>
        <polygon fill="#8C8C8C" points="215,586.6,215,597.4,235,606.6,265,606.6,285,597.4,285,586.6" />
        <rect height="43.4" y="586.6" fill="#8C8C8C"  width="30" gorn="0.1.65" id="connector3pin" x="335"/>
        <rect height="30" y="600" fill="#8C8C8C"  width="30" gorn="0.1.66" id="connector3terminal" x="335"/>
        <polygon fill="#8C8C8C" points="315,586.6,315,597.4,335,606.6,365,606.6,385,597.4,385,586.6" />
        <rect height="43.4" y="586.6" fill="#8C8C8C"  width="30" gorn="0.1.68" id="connector4pin" x="435"/>
        <rect height="30" y="600" fill="#8C8C8C"  width="30" gorn="0.1.69" id="connector4terminal" x="435"/>
        <polygon fill="#8C8C8C" points="415,586.6,415,597.4,435,606.6,465,606.6,485,597.4,485,586.6" />
        <rect height="43.4" y="586.6" fill="#8C8C8C"  width="30" gorn="0.1.71" id="connector5pin" x="535"/>
        <rect height="30" y="600" fill="#8C8C8C"  width="30" gorn="0.1.72" id="connector5terminal" x="535"/>
        <polygon fill="#8C8C8C" points="515,586.6,515,597.4,535,606.6,565,606.6,585,597.4,585,586.6" />
        <rect height="43.4" y="586.6" fill="#8C8C8C"  width="30" gorn="0.1.74" id="connector6pin" x="635"/>
        <rect height="30" y="600" fill="#8C8C8C"  width="30" gorn="0.1.75" id="connector6terminal" x="635"/>
        <polygon fill="#8C8C8C" points="615,586.6,615,597.4,635,606.6,665,606.6,685,597.4,685,586.6" />
        <rect height="43.4" y="586.6" fill="#8C8C8C"  width="30" gorn="0.1.77" id="connector7pin" x="735"/>
        <rect height="30" y="600" fill="#8C8C8C"  width="30" gorn="0.1.78" id="connector7terminal" x="735"/>
        <polygon fill="#8C8C8C" points="715,586.6,715,597.4,735,606.6,765,606.6,785,597.4,785,586.6" />
        <rect height="43.4" y="586.6" fill="#8C8C8C"  width="30" gorn="0.1.80" id="connector8pin" x="835"/>
        <rect height="30" y="600" fill="#8C8C8C"  width="30" gorn="0.1.81" id="connector8terminal" x="835"/>
        <polygon fill="#8C8C8C" points="815,586.6,815,597.4,835,606.6,865,606.6,885,597.4,885,586.6" />
        <rect height="43.4" y="586.6" fill="#8C8C8C"  width="30" gorn="0.1.83" id="connector9pin" x="935"/>
        <rect height="30" y="600" fill="#8C8C8C"  width="30" gorn="0.1.84" id="connector9terminal" x="935"/>
        <polygon fill="#8C8C8C" points="915,586.6,915,597.4,935,606.6,965,606.6,985,597.4,985,586.6" />
        <rect height="43.4" y="586.6" fill="#8C8C8C"  width="30" gorn="0.1.86" id="connector10pin" x="1035"/>
        <rect height="30" y="600" fill="#8C8C8C"  width="30" gorn="0.1.87" id="connector10terminal" x="1035"/>
        <polygon fill="#8C8C8C" points="1015,586.6,1015,597.4,1035,606.6,1065,606.6,1085,597.4,1085,586.6" />
        <rect height="43.4" y="586.6" fill="#8C8C8C"  width="30" gorn="0.1.89" id="connector11pin" x="1135"/>
        <rect height="30" y="600" fill="#8C8C8C"  width="30" gorn="0.1.90" id="connector11terminal" x="1135"/>
        <polygon fill="#8C8C8C" points="1115,586.6,1115,597.4,1135,606.6,1165,606.6,1185,597.4,1185,586.6" />
        <rect height="43.4" y="586.6" fill="#8C8C8C"  width="30" gorn="0.1.92" id="connector12pin" x="1235"/>
        <rect height="30" y="600" fill="#8C8C8C"  width="30" gorn="0.1.93" id="connector12terminal" x="1235"/>
        <polygon fill="#8C8C8C" points="1215,586.6,1215,597.4,1235,606.6,1265,606.6,1285,597.4,1285,586.6" />
    </g>
</svg>
