%TF.GenerationSoftware,KiCad,Pcbnew,(7.0.0)*%
%TF.CreationDate,2023-09-24T18:01:01-07:00*%
%TF.ProjectId,interface_clock,696e7465-7266-4616-9365-5f636c6f636b,rev?*%
%TF.SameCoordinates,Original*%
%TF.FileFunction,Drillmap*%
%TF.FilePolarity,Positive*%
%FSLAX45Y45*%
G04 Gerber Fmt 4.5, Leading zero omitted, Abs format (unit mm)*
G04 Created by KiCad (PCBNEW (7.0.0)) date 2023-09-24 18:01:01*
%MOMM*%
%LPD*%
G01*
G04 APERTURE LIST*
%ADD10C,0.050000*%
%ADD11C,0.200000*%
%ADD12C,0.038100*%
%ADD13C,0.080000*%
%ADD14C,0.090000*%
%ADD15C,0.100000*%
G04 APERTURE END LIST*
D10*
X5080000Y-14668500D02*
X5080000Y-5270500D01*
X5270500Y-5080000D02*
X25209500Y-5080000D01*
X25400000Y-5270500D02*
X25400000Y-14668500D01*
X25400000Y-5270500D02*
G75*
G03*
X25209500Y-5080000I-190500J0D01*
G01*
X25209500Y-14859000D02*
G75*
G03*
X25400000Y-14668500I0J190500D01*
G01*
X25209500Y-14859000D02*
X5270500Y-14859000D01*
X5080000Y-14668500D02*
G75*
G03*
X5270500Y-14859000I190500J0D01*
G01*
X5270500Y-5080000D02*
G75*
G03*
X5080000Y-5270500I0J-190500D01*
G01*
D11*
D12*
X5492750Y-8616950D02*
X5530850Y-8655050D01*
X5530850Y-8616950D02*
X5492750Y-8655050D01*
X5492750Y-8769350D02*
X5530850Y-8807450D01*
X5530850Y-8769350D02*
X5492750Y-8807450D01*
X5492750Y-13722350D02*
X5530850Y-13760450D01*
X5530850Y-13722350D02*
X5492750Y-13760450D01*
X5492750Y-13874750D02*
X5530850Y-13912850D01*
X5530850Y-13874750D02*
X5492750Y-13912850D01*
X5873750Y-8743950D02*
X5911850Y-8782050D01*
X5911850Y-8743950D02*
X5873750Y-8782050D01*
X5873750Y-8997950D02*
X5911850Y-9036050D01*
X5911850Y-8997950D02*
X5873750Y-9036050D01*
X5873750Y-9251950D02*
X5911850Y-9290050D01*
X5911850Y-9251950D02*
X5873750Y-9290050D01*
X5873750Y-9505950D02*
X5911850Y-9544050D01*
X5911850Y-9505950D02*
X5873750Y-9544050D01*
X5873750Y-9759950D02*
X5911850Y-9798050D01*
X5911850Y-9759950D02*
X5873750Y-9798050D01*
X5873750Y-10013950D02*
X5911850Y-10052050D01*
X5911850Y-10013950D02*
X5873750Y-10052050D01*
X6635750Y-8058150D02*
X6673850Y-8096250D01*
X6673850Y-8058150D02*
X6635750Y-8096250D01*
X6737350Y-13900150D02*
X6775450Y-13938250D01*
X6775450Y-13900150D02*
X6737350Y-13938250D01*
X6838950Y-14154150D02*
X6877050Y-14192250D01*
X6877050Y-14154150D02*
X6838950Y-14192250D01*
X7245350Y-13442950D02*
X7283450Y-13481050D01*
X7283450Y-13442950D02*
X7245350Y-13481050D01*
X7346950Y-14154150D02*
X7385050Y-14192250D01*
X7385050Y-14154150D02*
X7346950Y-14192250D01*
X7499350Y-12172950D02*
X7537450Y-12211050D01*
X7537450Y-12172950D02*
X7499350Y-12211050D01*
X7600950Y-12934950D02*
X7639050Y-12973050D01*
X7639050Y-12934950D02*
X7600950Y-12973050D01*
X7727950Y-13900150D02*
X7766050Y-13938250D01*
X7766050Y-13900150D02*
X7727950Y-13938250D01*
X7981950Y-11537950D02*
X8020050Y-11576050D01*
X8020050Y-11537950D02*
X7981950Y-11576050D01*
X8058150Y-12172950D02*
X8096250Y-12211050D01*
X8096250Y-12172950D02*
X8058150Y-12211050D01*
X8159750Y-6838950D02*
X8197850Y-6877050D01*
X8197850Y-6838950D02*
X8159750Y-6877050D01*
X8235952Y-6737350D02*
X8274052Y-6775450D01*
X8274052Y-6737350D02*
X8235952Y-6775450D01*
X8464550Y-14255750D02*
X8502650Y-14293850D01*
X8502650Y-14255750D02*
X8464550Y-14293850D01*
X8489950Y-6737350D02*
X8528050Y-6775450D01*
X8528050Y-6737350D02*
X8489950Y-6775450D01*
X8540750Y-6838950D02*
X8578850Y-6877050D01*
X8578850Y-6838950D02*
X8540750Y-6877050D01*
X8591550Y-7829550D02*
X8629650Y-7867650D01*
X8629650Y-7829550D02*
X8591550Y-7867650D01*
X8591550Y-14001750D02*
X8629650Y-14039850D01*
X8629650Y-14001750D02*
X8591550Y-14039850D01*
X8616950Y-13188950D02*
X8655050Y-13227050D01*
X8655050Y-13188950D02*
X8616950Y-13227050D01*
X8693150Y-12198350D02*
X8731250Y-12236450D01*
X8731250Y-12198350D02*
X8693150Y-12236450D01*
X8718550Y-13696950D02*
X8756650Y-13735050D01*
X8756650Y-13696950D02*
X8718550Y-13735050D01*
X8947150Y-7829550D02*
X8985250Y-7867650D01*
X8985250Y-7829550D02*
X8947150Y-7867650D01*
X8947150Y-12096750D02*
X8985250Y-12134850D01*
X8985250Y-12096750D02*
X8947150Y-12134850D01*
X9023350Y-13696950D02*
X9061450Y-13735050D01*
X9061450Y-13696950D02*
X9023350Y-13735050D01*
X9226550Y-14255749D02*
X9264650Y-14293849D01*
X9264650Y-14255749D02*
X9226550Y-14293849D01*
X9251950Y-14001751D02*
X9290050Y-14039851D01*
X9290050Y-14001751D02*
X9251950Y-14039851D01*
X9378950Y-12782550D02*
X9417050Y-12820650D01*
X9417050Y-12782550D02*
X9378950Y-12820650D01*
X9480550Y-12096750D02*
X9518650Y-12134850D01*
X9518650Y-12096750D02*
X9480550Y-12134850D01*
X9531350Y-14001750D02*
X9569450Y-14039850D01*
X9569450Y-14001750D02*
X9531350Y-14039850D01*
X9734550Y-14281150D02*
X9772650Y-14319250D01*
X9772650Y-14281150D02*
X9734550Y-14319250D01*
X10750550Y-6838951D02*
X10788650Y-6877051D01*
X10788650Y-6838951D02*
X10750550Y-6877051D01*
X11106150Y-6838950D02*
X11144250Y-6877050D01*
X11144250Y-6838950D02*
X11106150Y-6877050D01*
X11283950Y-7931150D02*
X11322050Y-7969250D01*
X11322050Y-7931150D02*
X11283950Y-7969250D01*
X11436350Y-8362950D02*
X11474450Y-8401050D01*
X11474450Y-8362950D02*
X11436350Y-8401050D01*
X11436350Y-8616950D02*
X11474450Y-8655050D01*
X11474450Y-8616950D02*
X11436350Y-8655050D01*
X11436350Y-8870950D02*
X11474450Y-8909050D01*
X11474450Y-8870950D02*
X11436350Y-8909050D01*
X11436350Y-9124950D02*
X11474450Y-9163050D01*
X11474450Y-9124950D02*
X11436350Y-9163050D01*
X11436350Y-9378950D02*
X11474450Y-9417050D01*
X11474450Y-9378950D02*
X11436350Y-9417050D01*
X11436350Y-9632950D02*
X11474450Y-9671050D01*
X11474450Y-9632950D02*
X11436350Y-9671050D01*
X11436350Y-9886950D02*
X11474450Y-9925050D01*
X11474450Y-9886950D02*
X11436350Y-9925050D01*
X11639550Y-8489950D02*
X11677650Y-8528050D01*
X11677650Y-8489950D02*
X11639550Y-8528050D01*
X11639550Y-8743950D02*
X11677650Y-8782050D01*
X11677650Y-8743950D02*
X11639550Y-8782050D01*
X11639550Y-8997950D02*
X11677650Y-9036050D01*
X11677650Y-8997950D02*
X11639550Y-9036050D01*
X11639550Y-9251950D02*
X11677650Y-9290050D01*
X11677650Y-9251950D02*
X11639550Y-9290050D01*
X11664950Y-10140950D02*
X11703050Y-10179050D01*
X11703050Y-10140950D02*
X11664950Y-10179050D01*
X11842750Y-9302750D02*
X11880850Y-9340850D01*
X11880850Y-9302750D02*
X11842750Y-9340850D01*
X11893550Y-12096750D02*
X11931650Y-12134850D01*
X11931650Y-12096750D02*
X11893550Y-12134850D01*
X11995150Y-9556750D02*
X12033250Y-9594850D01*
X12033250Y-9556750D02*
X11995150Y-9594850D01*
X12172950Y-10394950D02*
X12211050Y-10433050D01*
X12211050Y-10394950D02*
X12172950Y-10433050D01*
X12680950Y-10648950D02*
X12719050Y-10687050D01*
X12719050Y-10648950D02*
X12680950Y-10687050D01*
X12680950Y-12782550D02*
X12719050Y-12820650D01*
X12719050Y-12782550D02*
X12680950Y-12820650D01*
X12757150Y-9429750D02*
X12795250Y-9467850D01*
X12795250Y-9429750D02*
X12757150Y-9467850D01*
X12807950Y-12096750D02*
X12846050Y-12134850D01*
X12846050Y-12096750D02*
X12807950Y-12134850D01*
X13138150Y-9683750D02*
X13176250Y-9721850D01*
X13176250Y-9683750D02*
X13138150Y-9721850D01*
X13188950Y-10902950D02*
X13227050Y-10941050D01*
X13227050Y-10902950D02*
X13188950Y-10941050D01*
X13519150Y-9861550D02*
X13557250Y-9899650D01*
X13557250Y-9861550D02*
X13519150Y-9899650D01*
X13696950Y-7245350D02*
X13735050Y-7283450D01*
X13735050Y-7245350D02*
X13696950Y-7283450D01*
X13696950Y-11156950D02*
X13735050Y-11195050D01*
X13735050Y-11156950D02*
X13696950Y-11195050D01*
X13900150Y-9861550D02*
X13938250Y-9899650D01*
X13938250Y-9861550D02*
X13900150Y-9899650D01*
X14077950Y-14281150D02*
X14116050Y-14319250D01*
X14116050Y-14281150D02*
X14077950Y-14319250D01*
X14204950Y-11410950D02*
X14243050Y-11449050D01*
X14243050Y-11410950D02*
X14204950Y-11449050D01*
X14331950Y-14001750D02*
X14370050Y-14039850D01*
X14370050Y-14001750D02*
X14331950Y-14039850D01*
X14357350Y-11537950D02*
X14395450Y-11576050D01*
X14395450Y-11537950D02*
X14357350Y-11576050D01*
X14458950Y-11664950D02*
X14497050Y-11703050D01*
X14497050Y-11664950D02*
X14458950Y-11703050D01*
X14560550Y-10496550D02*
X14598650Y-10534650D01*
X14598650Y-10496550D02*
X14560550Y-10534650D01*
X14763750Y-8921750D02*
X14801850Y-8959850D01*
X14801850Y-8921750D02*
X14763750Y-8959850D01*
X14763750Y-10267950D02*
X14801850Y-10306050D01*
X14801850Y-10267950D02*
X14763750Y-10306050D01*
X14763750Y-10699750D02*
X14801850Y-10737850D01*
X14801850Y-10699750D02*
X14763750Y-10737850D01*
X14916150Y-8921750D02*
X14954250Y-8959850D01*
X14954250Y-8921750D02*
X14916150Y-8959850D01*
X14916150Y-10496550D02*
X14954250Y-10534650D01*
X14954250Y-10496550D02*
X14916150Y-10534650D01*
X15068549Y-10496550D02*
X15106649Y-10534650D01*
X15106649Y-10496550D02*
X15068549Y-10534650D01*
X15068550Y-7651750D02*
X15106650Y-7689850D01*
X15106650Y-7651750D02*
X15068550Y-7689850D01*
X15068550Y-8007350D02*
X15106650Y-8045450D01*
X15106650Y-8007350D02*
X15068550Y-8045450D01*
X15068550Y-8921750D02*
X15106650Y-8959850D01*
X15106650Y-8921750D02*
X15068550Y-8959850D01*
X15170150Y-12477750D02*
X15208250Y-12515850D01*
X15208250Y-12477750D02*
X15170150Y-12515850D01*
X15170150Y-12884151D02*
X15208250Y-12922251D01*
X15208250Y-12884151D02*
X15170150Y-12922251D01*
X15220950Y-7651750D02*
X15259050Y-7689850D01*
X15259050Y-7651750D02*
X15220950Y-7689850D01*
X15220950Y-8007350D02*
X15259050Y-8045450D01*
X15259050Y-8007350D02*
X15220950Y-8045450D01*
X15220950Y-8769350D02*
X15259050Y-8807450D01*
X15259050Y-8769350D02*
X15220950Y-8807450D01*
X15220950Y-8921750D02*
X15259050Y-8959850D01*
X15259050Y-8921750D02*
X15220950Y-8959850D01*
X15220950Y-10496550D02*
X15259050Y-10534650D01*
X15259050Y-10496550D02*
X15220950Y-10534650D01*
X15271750Y-12350750D02*
X15309850Y-12388850D01*
X15309850Y-12350750D02*
X15271750Y-12388850D01*
X15271750Y-13620750D02*
X15309850Y-13658850D01*
X15309850Y-13620750D02*
X15271750Y-13658850D01*
X15373350Y-7651750D02*
X15411450Y-7689850D01*
X15411450Y-7651750D02*
X15373350Y-7689850D01*
X15373350Y-8007350D02*
X15411450Y-8045450D01*
X15411450Y-8007350D02*
X15373350Y-8045450D01*
X15373350Y-9759950D02*
X15411450Y-9798050D01*
X15411450Y-9759950D02*
X15373350Y-9798050D01*
X15373350Y-10496550D02*
X15411450Y-10534650D01*
X15411450Y-10496550D02*
X15373350Y-10534650D01*
X15373350Y-12477750D02*
X15411450Y-12515850D01*
X15411450Y-12477750D02*
X15373350Y-12515850D01*
X15373350Y-13519150D02*
X15411450Y-13557250D01*
X15411450Y-13519150D02*
X15373350Y-13557250D01*
X15424150Y-14077950D02*
X15462250Y-14116050D01*
X15462250Y-14077950D02*
X15424150Y-14116050D01*
X15424150Y-14357350D02*
X15462250Y-14395450D01*
X15462250Y-14357350D02*
X15424150Y-14395450D01*
X15474950Y-11741150D02*
X15513050Y-11779250D01*
X15513050Y-11741150D02*
X15474950Y-11779250D01*
X15474950Y-12350750D02*
X15513050Y-12388850D01*
X15513050Y-12350750D02*
X15474950Y-12388850D01*
X15474950Y-13620750D02*
X15513050Y-13658850D01*
X15513050Y-13620750D02*
X15474950Y-13658850D01*
X15525750Y-7804150D02*
X15563850Y-7842250D01*
X15563850Y-7804150D02*
X15525750Y-7842250D01*
X15525750Y-8007350D02*
X15563850Y-8045450D01*
X15563850Y-8007350D02*
X15525750Y-8045450D01*
X15525750Y-8921750D02*
X15563850Y-8959850D01*
X15563850Y-8921750D02*
X15525750Y-8959850D01*
X15525751Y-10496550D02*
X15563851Y-10534650D01*
X15563851Y-10496550D02*
X15525751Y-10534650D01*
X15678150Y-10369550D02*
X15716250Y-10407650D01*
X15716250Y-10369550D02*
X15678150Y-10407650D01*
X15728950Y-11487150D02*
X15767050Y-11525250D01*
X15767050Y-11487150D02*
X15728950Y-11525250D01*
X15855950Y-10801350D02*
X15894050Y-10839450D01*
X15894050Y-10801350D02*
X15855950Y-10839450D01*
X15932150Y-10902950D02*
X15970250Y-10941050D01*
X15970250Y-10902950D02*
X15932150Y-10941050D01*
X15932150Y-11791950D02*
X15970250Y-11830050D01*
X15970250Y-11791950D02*
X15932150Y-11830050D01*
X15932150Y-11995150D02*
X15970250Y-12033250D01*
X15970250Y-11995150D02*
X15932150Y-12033250D01*
X16008350Y-11690350D02*
X16046450Y-11728450D01*
X16046450Y-11690350D02*
X16008350Y-11728450D01*
X16008350Y-11893550D02*
X16046450Y-11931650D01*
X16046450Y-11893550D02*
X16008350Y-11931650D01*
X16109950Y-12325350D02*
X16148050Y-12363450D01*
X16148050Y-12325350D02*
X16109950Y-12363450D01*
X16109950Y-13265150D02*
X16148050Y-13303250D01*
X16148050Y-13265150D02*
X16109950Y-13303250D01*
X16313150Y-10496550D02*
X16351250Y-10534650D01*
X16351250Y-10496550D02*
X16313150Y-10534650D01*
X16389350Y-10902950D02*
X16427450Y-10941050D01*
X16427450Y-10902950D02*
X16389350Y-10941050D01*
X16389350Y-11690350D02*
X16427450Y-11728450D01*
X16427450Y-11690350D02*
X16389350Y-11728450D01*
X16389350Y-11893550D02*
X16427450Y-11931650D01*
X16427450Y-11893550D02*
X16389350Y-11931650D01*
X16440150Y-11055350D02*
X16478250Y-11093450D01*
X16478250Y-11055350D02*
X16440150Y-11093450D01*
X16465550Y-11791950D02*
X16503650Y-11830050D01*
X16503650Y-11791950D02*
X16465550Y-11830050D01*
X16465550Y-11995150D02*
X16503650Y-12033250D01*
X16503650Y-11995150D02*
X16465550Y-12033250D01*
X16490950Y-9632950D02*
X16529050Y-9671050D01*
X16529050Y-9632950D02*
X16490950Y-9671050D01*
X16490950Y-10140950D02*
X16529050Y-10179050D01*
X16529050Y-10140950D02*
X16490950Y-10179050D01*
X16617950Y-9632950D02*
X16656050Y-9671050D01*
X16656050Y-9632950D02*
X16617950Y-9671050D01*
X16617950Y-10394950D02*
X16656050Y-10433050D01*
X16656050Y-10394950D02*
X16617950Y-10433050D01*
X16617950Y-13366750D02*
X16656050Y-13404850D01*
X16656050Y-13366750D02*
X16617950Y-13404850D01*
X16617950Y-13569950D02*
X16656050Y-13608050D01*
X16656050Y-13569950D02*
X16617950Y-13608050D01*
X16617950Y-13773150D02*
X16656050Y-13811250D01*
X16656050Y-13773150D02*
X16617950Y-13811250D01*
X16694150Y-12223750D02*
X16732250Y-12261850D01*
X16732250Y-12223750D02*
X16694150Y-12261850D01*
X16744950Y-7600950D02*
X16783050Y-7639050D01*
X16783050Y-7600950D02*
X16744950Y-7639050D01*
X16871950Y-12579352D02*
X16910050Y-12617452D01*
X16910050Y-12579352D02*
X16871950Y-12617452D01*
X16871950Y-12884150D02*
X16910050Y-12922250D01*
X16910050Y-12884150D02*
X16871950Y-12922250D01*
X16998950Y-12782550D02*
X17037050Y-12820650D01*
X17037050Y-12782550D02*
X16998950Y-12820650D01*
X17125950Y-9226550D02*
X17164050Y-9264650D01*
X17164050Y-9226550D02*
X17125950Y-9264650D01*
X17379950Y-12147550D02*
X17418050Y-12185650D01*
X17418050Y-12147550D02*
X17379950Y-12185650D01*
X17506950Y-12020550D02*
X17545050Y-12058650D01*
X17545050Y-12020550D02*
X17506950Y-12058650D01*
X17735550Y-12020550D02*
X17773650Y-12058650D01*
X17773650Y-12020550D02*
X17735550Y-12058650D01*
X17735550Y-12147550D02*
X17773650Y-12185650D01*
X17773650Y-12147550D02*
X17735550Y-12185650D01*
X17913350Y-11233150D02*
X17951450Y-11271250D01*
X17951450Y-11233150D02*
X17913350Y-11271250D01*
X18192750Y-11868150D02*
X18230850Y-11906250D01*
X18230850Y-11868150D02*
X18192750Y-11906250D01*
X18243550Y-10648950D02*
X18281650Y-10687050D01*
X18281650Y-10648950D02*
X18243550Y-10687050D01*
X18294350Y-12045950D02*
X18332450Y-12084050D01*
X18332450Y-12045950D02*
X18294350Y-12084050D01*
X18294350Y-12960350D02*
X18332450Y-12998450D01*
X18332450Y-12960350D02*
X18294350Y-12998450D01*
X18421350Y-13036550D02*
X18459450Y-13074650D01*
X18459450Y-13036550D02*
X18421350Y-13074650D01*
X18446748Y-9556750D02*
X18484848Y-9594850D01*
X18484848Y-9556750D02*
X18446748Y-9594850D01*
X18548350Y-12045950D02*
X18586450Y-12084050D01*
X18586450Y-12045950D02*
X18548350Y-12084050D01*
X18548350Y-12884152D02*
X18586450Y-12922252D01*
X18586450Y-12884152D02*
X18548350Y-12922252D01*
X18573750Y-10648950D02*
X18611850Y-10687050D01*
X18611850Y-10648950D02*
X18573750Y-10687050D01*
X18573750Y-11182350D02*
X18611850Y-11220450D01*
X18611850Y-11182350D02*
X18573750Y-11220450D01*
X18573750Y-11487150D02*
X18611850Y-11525250D01*
X18611850Y-11487150D02*
X18573750Y-11525250D01*
X18675350Y-11817350D02*
X18713450Y-11855450D01*
X18713450Y-11817350D02*
X18675350Y-11855450D01*
X18700750Y-12579350D02*
X18738850Y-12617450D01*
X18738850Y-12579350D02*
X18700750Y-12617450D01*
X18700750Y-12884150D02*
X18738850Y-12922250D01*
X18738850Y-12884150D02*
X18700750Y-12922250D01*
X18726149Y-9226550D02*
X18764249Y-9264650D01*
X18764249Y-9226550D02*
X18726149Y-9264650D01*
X18726150Y-10801350D02*
X18764250Y-10839450D01*
X18764250Y-10801350D02*
X18726150Y-10839450D01*
X18726150Y-11174680D02*
X18764250Y-11212780D01*
X18764250Y-11174680D02*
X18726150Y-11212780D01*
X18980150Y-9556750D02*
X19018250Y-9594850D01*
X19018250Y-9556750D02*
X18980150Y-9594850D01*
X19081750Y-10217150D02*
X19119850Y-10255250D01*
X19119850Y-10217150D02*
X19081750Y-10255250D01*
X19208750Y-10369550D02*
X19246850Y-10407650D01*
X19246850Y-10369550D02*
X19208750Y-10407650D01*
X19284950Y-10140950D02*
X19323050Y-10179050D01*
X19323050Y-10140950D02*
X19284950Y-10179050D01*
X19335750Y-9226550D02*
X19373850Y-9264650D01*
X19373850Y-9226550D02*
X19335750Y-9264650D01*
X19386550Y-9683750D02*
X19424650Y-9721850D01*
X19424650Y-9683750D02*
X19386550Y-9721850D01*
X19386550Y-9937750D02*
X19424650Y-9975850D01*
X19424650Y-9937750D02*
X19386550Y-9975850D01*
X19411950Y-11741150D02*
X19450050Y-11779250D01*
X19450050Y-11741150D02*
X19411950Y-11779250D01*
X19411950Y-12045950D02*
X19450050Y-12084050D01*
X19450050Y-12045950D02*
X19411950Y-12084050D01*
X19513550Y-8820150D02*
X19551650Y-8858250D01*
X19551650Y-8820150D02*
X19513550Y-8858250D01*
X19513550Y-9328150D02*
X19551650Y-9366250D01*
X19551650Y-9328150D02*
X19513550Y-9366250D01*
X19513550Y-9455150D02*
X19551650Y-9493250D01*
X19551650Y-9455150D02*
X19513550Y-9493250D01*
X19564349Y-11233150D02*
X19602449Y-11271250D01*
X19602449Y-11233150D02*
X19564349Y-11271250D01*
X19564350Y-12198350D02*
X19602450Y-12236450D01*
X19602450Y-12198350D02*
X19564350Y-12236450D01*
X19640550Y-8820150D02*
X19678650Y-8858250D01*
X19678650Y-8820150D02*
X19640550Y-8858250D01*
X19640550Y-10267950D02*
X19678650Y-10306050D01*
X19678650Y-10267950D02*
X19640550Y-10306050D01*
X19691350Y-9937750D02*
X19729450Y-9975850D01*
X19729450Y-9937750D02*
X19691350Y-9975850D01*
X19691351Y-9683750D02*
X19729451Y-9721850D01*
X19729451Y-9683750D02*
X19691351Y-9721850D01*
X19716750Y-10369550D02*
X19754850Y-10407650D01*
X19754850Y-10369550D02*
X19716750Y-10407650D01*
X19742150Y-10140950D02*
X19780250Y-10179050D01*
X19780250Y-10140950D02*
X19742150Y-10179050D01*
X19792950Y-13519150D02*
X19831050Y-13557250D01*
X19831050Y-13519150D02*
X19792950Y-13557250D01*
X19792950Y-13671550D02*
X19831050Y-13709650D01*
X19831050Y-13671550D02*
X19792950Y-13709650D01*
X20046950Y-9556750D02*
X20085050Y-9594850D01*
X20085050Y-9556750D02*
X20046950Y-9594850D01*
X20046950Y-9861550D02*
X20085050Y-9899650D01*
X20085050Y-9861550D02*
X20046950Y-9899650D01*
X20046950Y-11588750D02*
X20085050Y-11626850D01*
X20085050Y-11588750D02*
X20046950Y-11626850D01*
X20046950Y-11817350D02*
X20085050Y-11855450D01*
X20085050Y-11817350D02*
X20046950Y-11855450D01*
X20097750Y-10902950D02*
X20135850Y-10941050D01*
X20135850Y-10902950D02*
X20097750Y-10941050D01*
X20173950Y-11004550D02*
X20212050Y-11042650D01*
X20212050Y-11004550D02*
X20173950Y-11042650D01*
X20173950Y-11537950D02*
X20212050Y-11576050D01*
X20212050Y-11537950D02*
X20173950Y-11576050D01*
X20173950Y-11741150D02*
X20212050Y-11779250D01*
X20212050Y-11741150D02*
X20173950Y-11779250D01*
X20224750Y-10902950D02*
X20262850Y-10941050D01*
X20262850Y-10902950D02*
X20224750Y-10941050D01*
X20300950Y-13747750D02*
X20339050Y-13785850D01*
X20339050Y-13747750D02*
X20300950Y-13785850D01*
X20580350Y-11004550D02*
X20618450Y-11042650D01*
X20618450Y-11004550D02*
X20580350Y-11042650D01*
X20656550Y-10902950D02*
X20694650Y-10941050D01*
X20694650Y-10902950D02*
X20656550Y-10941050D01*
X20681950Y-11741150D02*
X20720050Y-11779250D01*
X20720050Y-11741150D02*
X20681950Y-11779250D01*
X20681950Y-12071350D02*
X20720050Y-12109450D01*
X20720050Y-12071350D02*
X20681950Y-12109450D01*
X20783550Y-10902949D02*
X20821650Y-10941049D01*
X20821650Y-10902949D02*
X20783550Y-10941049D01*
X20808950Y-7219950D02*
X20847050Y-7258050D01*
X20847050Y-7219950D02*
X20808950Y-7258050D01*
X20808950Y-8921750D02*
X20847050Y-8959850D01*
X20847050Y-8921750D02*
X20808950Y-8959850D01*
X20808950Y-11741150D02*
X20847050Y-11779250D01*
X20847050Y-11741150D02*
X20808950Y-11779250D01*
X20808950Y-12071350D02*
X20847050Y-12109450D01*
X20847050Y-12071350D02*
X20808950Y-12109450D01*
X20808950Y-13976350D02*
X20847050Y-14014450D01*
X20847050Y-13976350D02*
X20808950Y-14014450D01*
X20935950Y-11741150D02*
X20974050Y-11779250D01*
X20974050Y-11741150D02*
X20935950Y-11779250D01*
X20935950Y-12071350D02*
X20974050Y-12109450D01*
X20974050Y-12071350D02*
X20935950Y-12109450D01*
X20961350Y-11131550D02*
X20999450Y-11169650D01*
X20999450Y-11131550D02*
X20961350Y-11169650D01*
X21062950Y-11741150D02*
X21101050Y-11779250D01*
X21101050Y-11741150D02*
X21062950Y-11779250D01*
X21062950Y-12071349D02*
X21101050Y-12109449D01*
X21101050Y-12071349D02*
X21062950Y-12109449D01*
X21316949Y-11131550D02*
X21355049Y-11169650D01*
X21355049Y-11131550D02*
X21316949Y-11169650D01*
X21443950Y-7219950D02*
X21482050Y-7258050D01*
X21482050Y-7219950D02*
X21443950Y-7258050D01*
X21545550Y-12655550D02*
X21583650Y-12693650D01*
X21583650Y-12655550D02*
X21545550Y-12693650D01*
X21545550Y-12782550D02*
X21583650Y-12820650D01*
X21583650Y-12782550D02*
X21545550Y-12820650D01*
X21545550Y-12909550D02*
X21583650Y-12947650D01*
X21583650Y-12909550D02*
X21545550Y-12947650D01*
X21647150Y-10775950D02*
X21685250Y-10814050D01*
X21685250Y-10775950D02*
X21647150Y-10814050D01*
X21647150Y-11080750D02*
X21685250Y-11118850D01*
X21685250Y-11080750D02*
X21647150Y-11118850D01*
X21647150Y-11791950D02*
X21685250Y-11830050D01*
X21685250Y-11791950D02*
X21647150Y-11830050D01*
X21647150Y-12172950D02*
X21685250Y-12211050D01*
X21685250Y-12172950D02*
X21647150Y-12211050D01*
X21799550Y-11791950D02*
X21837650Y-11830050D01*
X21837650Y-11791950D02*
X21799550Y-11830050D01*
X21799550Y-12172950D02*
X21837650Y-12211050D01*
X21837650Y-12172950D02*
X21799550Y-12211050D01*
X21824950Y-10064750D02*
X21863050Y-10102850D01*
X21863050Y-10064750D02*
X21824950Y-10102850D01*
X21824950Y-11029950D02*
X21863050Y-11068050D01*
X21863050Y-11029950D02*
X21824950Y-11068050D01*
X21926550Y-10166350D02*
X21964650Y-10204450D01*
X21964650Y-10166350D02*
X21926550Y-10204450D01*
X21926550Y-11106150D02*
X21964650Y-11144250D01*
X21964650Y-11106150D02*
X21926550Y-11144250D01*
X21951950Y-11741150D02*
X21990050Y-11779250D01*
X21990050Y-11741150D02*
X21951950Y-11779250D01*
X21951950Y-12172950D02*
X21990050Y-12211050D01*
X21990050Y-12172950D02*
X21951950Y-12211050D01*
X22028150Y-10064750D02*
X22066250Y-10102850D01*
X22066250Y-10064750D02*
X22028150Y-10102850D01*
X22028150Y-11029950D02*
X22066250Y-11068050D01*
X22066250Y-11029950D02*
X22028150Y-11068050D01*
X22078950Y-7219950D02*
X22117050Y-7258050D01*
X22117050Y-7219950D02*
X22078950Y-7258050D01*
X22104350Y-11563350D02*
X22142450Y-11601450D01*
X22142450Y-11563350D02*
X22104350Y-11601450D01*
X22104350Y-12172950D02*
X22142450Y-12211050D01*
X22142450Y-12172950D02*
X22104350Y-12211050D01*
X22129750Y-10242550D02*
X22167850Y-10280650D01*
X22167850Y-10242550D02*
X22129750Y-10280650D01*
X22129750Y-11106150D02*
X22167850Y-11144250D01*
X22167850Y-11106150D02*
X22129750Y-11144250D01*
X22231350Y-10801350D02*
X22269450Y-10839450D01*
X22269450Y-10801350D02*
X22231350Y-10839450D01*
X22231350Y-11029950D02*
X22269450Y-11068050D01*
X22269450Y-11029950D02*
X22231350Y-11068050D01*
X22282150Y-11410950D02*
X22320250Y-11449050D01*
X22320250Y-11410950D02*
X22282150Y-11449050D01*
X22358350Y-12782550D02*
X22396450Y-12820650D01*
X22396450Y-12782550D02*
X22358350Y-12820650D01*
X22358350Y-12909550D02*
X22396450Y-12947650D01*
X22396450Y-12909550D02*
X22358350Y-12947650D01*
X22510750Y-12655550D02*
X22548850Y-12693650D01*
X22548850Y-12655550D02*
X22510750Y-12693650D01*
X22688550Y-10318750D02*
X22726650Y-10356850D01*
X22726650Y-10318750D02*
X22688550Y-10356850D01*
X22713950Y-7219950D02*
X22752050Y-7258050D01*
X22752050Y-7219950D02*
X22713950Y-7258050D01*
X22790150Y-11639550D02*
X22828250Y-11677650D01*
X22828250Y-11639550D02*
X22790150Y-11677650D01*
X22993350Y-10318750D02*
X23031450Y-10356850D01*
X23031450Y-10318750D02*
X22993350Y-10356850D01*
X23094950Y-11766550D02*
X23133050Y-11804650D01*
X23133050Y-11766550D02*
X23094950Y-11804650D01*
X23348950Y-7219950D02*
X23387050Y-7258050D01*
X23387050Y-7219950D02*
X23348950Y-7258050D01*
X23348950Y-11791950D02*
X23387050Y-11830050D01*
X23387050Y-11791950D02*
X23348950Y-11830050D01*
X23983950Y-7219950D02*
X24022050Y-7258050D01*
X24022050Y-7219950D02*
X23983950Y-7258050D01*
X24364949Y-8947150D02*
X24403049Y-8985250D01*
X24403049Y-8947150D02*
X24364949Y-8985250D01*
X24364950Y-8718550D02*
X24403050Y-8756650D01*
X24403050Y-8718550D02*
X24364950Y-8756650D01*
X24618950Y-7219950D02*
X24657050Y-7258050D01*
X24657050Y-7219950D02*
X24618950Y-7258050D01*
D13*
X5374500Y-6603000D02*
G75*
G03*
X5374500Y-6603000I-40000J0D01*
G01*
X5374500Y-7365000D02*
G75*
G03*
X5374500Y-7365000I-40000J0D01*
G01*
X5628500Y-6603000D02*
G75*
G03*
X5628500Y-6603000I-40000J0D01*
G01*
X5628500Y-7365000D02*
G75*
G03*
X5628500Y-7365000I-40000J0D01*
G01*
X5882500Y-6603000D02*
G75*
G03*
X5882500Y-6603000I-40000J0D01*
G01*
X5882500Y-7365000D02*
G75*
G03*
X5882500Y-7365000I-40000J0D01*
G01*
X6136500Y-6603000D02*
G75*
G03*
X6136500Y-6603000I-40000J0D01*
G01*
X6136500Y-7365000D02*
G75*
G03*
X6136500Y-7365000I-40000J0D01*
G01*
X6390500Y-6603000D02*
G75*
G03*
X6390500Y-6603000I-40000J0D01*
G01*
X6390500Y-7365000D02*
G75*
G03*
X6390500Y-7365000I-40000J0D01*
G01*
X6644500Y-6603000D02*
G75*
G03*
X6644500Y-6603000I-40000J0D01*
G01*
X6644500Y-7365000D02*
G75*
G03*
X6644500Y-7365000I-40000J0D01*
G01*
X6898000Y-8128000D02*
G75*
G03*
X6898000Y-8128000I-40000J0D01*
G01*
X6898500Y-6603000D02*
G75*
G03*
X6898500Y-6603000I-40000J0D01*
G01*
X6898500Y-7365000D02*
G75*
G03*
X6898500Y-7365000I-40000J0D01*
G01*
X7152000Y-8128000D02*
G75*
G03*
X7152000Y-8128000I-40000J0D01*
G01*
X7152000Y-12065000D02*
G75*
G03*
X7152000Y-12065000I-40000J0D01*
G01*
X7152000Y-12319000D02*
G75*
G03*
X7152000Y-12319000I-40000J0D01*
G01*
X7152000Y-12573000D02*
G75*
G03*
X7152000Y-12573000I-40000J0D01*
G01*
X7152000Y-12827000D02*
G75*
G03*
X7152000Y-12827000I-40000J0D01*
G01*
X7152000Y-13081000D02*
G75*
G03*
X7152000Y-13081000I-40000J0D01*
G01*
X7152000Y-13335000D02*
G75*
G03*
X7152000Y-13335000I-40000J0D01*
G01*
X7152000Y-13589000D02*
G75*
G03*
X7152000Y-13589000I-40000J0D01*
G01*
X7152500Y-6603000D02*
G75*
G03*
X7152500Y-6603000I-40000J0D01*
G01*
X7152500Y-7365000D02*
G75*
G03*
X7152500Y-7365000I-40000J0D01*
G01*
X7406000Y-8128000D02*
G75*
G03*
X7406000Y-8128000I-40000J0D01*
G01*
X7406500Y-6603000D02*
G75*
G03*
X7406500Y-6603000I-40000J0D01*
G01*
X7406500Y-7365000D02*
G75*
G03*
X7406500Y-7365000I-40000J0D01*
G01*
X7660000Y-8128000D02*
G75*
G03*
X7660000Y-8128000I-40000J0D01*
G01*
X7660500Y-6603000D02*
G75*
G03*
X7660500Y-6603000I-40000J0D01*
G01*
X7660500Y-7365000D02*
G75*
G03*
X7660500Y-7365000I-40000J0D01*
G01*
X7914000Y-8128000D02*
G75*
G03*
X7914000Y-8128000I-40000J0D01*
G01*
X7914000Y-12065000D02*
G75*
G03*
X7914000Y-12065000I-40000J0D01*
G01*
X7914000Y-12319000D02*
G75*
G03*
X7914000Y-12319000I-40000J0D01*
G01*
X7914000Y-12573000D02*
G75*
G03*
X7914000Y-12573000I-40000J0D01*
G01*
X7914000Y-12827000D02*
G75*
G03*
X7914000Y-12827000I-40000J0D01*
G01*
X7914000Y-13081000D02*
G75*
G03*
X7914000Y-13081000I-40000J0D01*
G01*
X7914000Y-13335000D02*
G75*
G03*
X7914000Y-13335000I-40000J0D01*
G01*
X7914000Y-13589000D02*
G75*
G03*
X7914000Y-13589000I-40000J0D01*
G01*
X8168000Y-8128000D02*
G75*
G03*
X8168000Y-8128000I-40000J0D01*
G01*
X8295000Y-12065000D02*
G75*
G03*
X8295000Y-12065000I-40000J0D01*
G01*
X8295000Y-12565000D02*
G75*
G03*
X8295000Y-12565000I-40000J0D01*
G01*
X8422000Y-8128000D02*
G75*
G03*
X8422000Y-8128000I-40000J0D01*
G01*
X8422500Y-6603000D02*
G75*
G03*
X8422500Y-6603000I-40000J0D01*
G01*
X8422500Y-7365000D02*
G75*
G03*
X8422500Y-7365000I-40000J0D01*
G01*
X8676000Y-8128000D02*
G75*
G03*
X8676000Y-8128000I-40000J0D01*
G01*
X8676000Y-12954000D02*
G75*
G03*
X8676000Y-12954000I-40000J0D01*
G01*
X8676000Y-13454000D02*
G75*
G03*
X8676000Y-13454000I-40000J0D01*
G01*
X8676500Y-6603000D02*
G75*
G03*
X8676500Y-6603000I-40000J0D01*
G01*
X8676500Y-7365000D02*
G75*
G03*
X8676500Y-7365000I-40000J0D01*
G01*
X8930000Y-8128000D02*
G75*
G03*
X8930000Y-8128000I-40000J0D01*
G01*
X8930500Y-6603000D02*
G75*
G03*
X8930500Y-6603000I-40000J0D01*
G01*
X8930500Y-7365000D02*
G75*
G03*
X8930500Y-7365000I-40000J0D01*
G01*
X9184000Y-12446000D02*
G75*
G03*
X9184000Y-12446000I-40000J0D01*
G01*
X9184000Y-13208000D02*
G75*
G03*
X9184000Y-13208000I-40000J0D01*
G01*
X9184500Y-6603000D02*
G75*
G03*
X9184500Y-6603000I-40000J0D01*
G01*
X9184500Y-7365000D02*
G75*
G03*
X9184500Y-7365000I-40000J0D01*
G01*
X9438000Y-8128000D02*
G75*
G03*
X9438000Y-8128000I-40000J0D01*
G01*
X9438000Y-12446000D02*
G75*
G03*
X9438000Y-12446000I-40000J0D01*
G01*
X9438000Y-13208000D02*
G75*
G03*
X9438000Y-13208000I-40000J0D01*
G01*
X9438000Y-13716000D02*
G75*
G03*
X9438000Y-13716000I-40000J0D01*
G01*
X9438500Y-6603000D02*
G75*
G03*
X9438500Y-6603000I-40000J0D01*
G01*
X9438500Y-7365000D02*
G75*
G03*
X9438500Y-7365000I-40000J0D01*
G01*
X9692000Y-8128000D02*
G75*
G03*
X9692000Y-8128000I-40000J0D01*
G01*
X9692000Y-11938000D02*
G75*
G03*
X9692000Y-11938000I-40000J0D01*
G01*
X9692000Y-12446000D02*
G75*
G03*
X9692000Y-12446000I-40000J0D01*
G01*
X9692000Y-13208000D02*
G75*
G03*
X9692000Y-13208000I-40000J0D01*
G01*
X9692000Y-13716000D02*
G75*
G03*
X9692000Y-13716000I-40000J0D01*
G01*
X9692500Y-6603000D02*
G75*
G03*
X9692500Y-6603000I-40000J0D01*
G01*
X9692500Y-7365000D02*
G75*
G03*
X9692500Y-7365000I-40000J0D01*
G01*
X9946000Y-8128000D02*
G75*
G03*
X9946000Y-8128000I-40000J0D01*
G01*
X9946000Y-11938000D02*
G75*
G03*
X9946000Y-11938000I-40000J0D01*
G01*
X9946000Y-12446000D02*
G75*
G03*
X9946000Y-12446000I-40000J0D01*
G01*
X9946000Y-13208000D02*
G75*
G03*
X9946000Y-13208000I-40000J0D01*
G01*
X9946000Y-13716000D02*
G75*
G03*
X9946000Y-13716000I-40000J0D01*
G01*
X9946500Y-6603000D02*
G75*
G03*
X9946500Y-6603000I-40000J0D01*
G01*
X9946500Y-7365000D02*
G75*
G03*
X9946500Y-7365000I-40000J0D01*
G01*
X10200000Y-8128000D02*
G75*
G03*
X10200000Y-8128000I-40000J0D01*
G01*
X10200000Y-11938000D02*
G75*
G03*
X10200000Y-11938000I-40000J0D01*
G01*
X10200000Y-12446000D02*
G75*
G03*
X10200000Y-12446000I-40000J0D01*
G01*
X10200000Y-13208000D02*
G75*
G03*
X10200000Y-13208000I-40000J0D01*
G01*
X10200000Y-13716000D02*
G75*
G03*
X10200000Y-13716000I-40000J0D01*
G01*
X10200500Y-6603000D02*
G75*
G03*
X10200500Y-6603000I-40000J0D01*
G01*
X10200500Y-7365000D02*
G75*
G03*
X10200500Y-7365000I-40000J0D01*
G01*
X10454000Y-8128000D02*
G75*
G03*
X10454000Y-8128000I-40000J0D01*
G01*
X10454000Y-11938000D02*
G75*
G03*
X10454000Y-11938000I-40000J0D01*
G01*
X10454000Y-12446000D02*
G75*
G03*
X10454000Y-12446000I-40000J0D01*
G01*
X10454000Y-13208000D02*
G75*
G03*
X10454000Y-13208000I-40000J0D01*
G01*
X10454000Y-13716000D02*
G75*
G03*
X10454000Y-13716000I-40000J0D01*
G01*
X10454500Y-6603000D02*
G75*
G03*
X10454500Y-6603000I-40000J0D01*
G01*
X10454500Y-7365000D02*
G75*
G03*
X10454500Y-7365000I-40000J0D01*
G01*
X10708000Y-8128000D02*
G75*
G03*
X10708000Y-8128000I-40000J0D01*
G01*
X10708000Y-11938000D02*
G75*
G03*
X10708000Y-11938000I-40000J0D01*
G01*
X10708000Y-12446000D02*
G75*
G03*
X10708000Y-12446000I-40000J0D01*
G01*
X10708000Y-13208000D02*
G75*
G03*
X10708000Y-13208000I-40000J0D01*
G01*
X10708000Y-13716000D02*
G75*
G03*
X10708000Y-13716000I-40000J0D01*
G01*
X10708500Y-6603000D02*
G75*
G03*
X10708500Y-6603000I-40000J0D01*
G01*
X10708500Y-7365000D02*
G75*
G03*
X10708500Y-7365000I-40000J0D01*
G01*
X10962000Y-8128000D02*
G75*
G03*
X10962000Y-8128000I-40000J0D01*
G01*
X10962000Y-11938000D02*
G75*
G03*
X10962000Y-11938000I-40000J0D01*
G01*
X10962000Y-12446000D02*
G75*
G03*
X10962000Y-12446000I-40000J0D01*
G01*
X10962000Y-13208000D02*
G75*
G03*
X10962000Y-13208000I-40000J0D01*
G01*
X10962000Y-13716000D02*
G75*
G03*
X10962000Y-13716000I-40000J0D01*
G01*
X11216000Y-6604000D02*
G75*
G03*
X11216000Y-6604000I-40000J0D01*
G01*
X11216000Y-7104000D02*
G75*
G03*
X11216000Y-7104000I-40000J0D01*
G01*
X11216000Y-8128000D02*
G75*
G03*
X11216000Y-8128000I-40000J0D01*
G01*
X11216000Y-11938000D02*
G75*
G03*
X11216000Y-11938000I-40000J0D01*
G01*
X11216000Y-12446000D02*
G75*
G03*
X11216000Y-12446000I-40000J0D01*
G01*
X11216000Y-13208000D02*
G75*
G03*
X11216000Y-13208000I-40000J0D01*
G01*
X11216000Y-13716000D02*
G75*
G03*
X11216000Y-13716000I-40000J0D01*
G01*
X11470000Y-8128000D02*
G75*
G03*
X11470000Y-8128000I-40000J0D01*
G01*
X11470000Y-11938000D02*
G75*
G03*
X11470000Y-11938000I-40000J0D01*
G01*
X11470000Y-12446000D02*
G75*
G03*
X11470000Y-12446000I-40000J0D01*
G01*
X11470000Y-13208000D02*
G75*
G03*
X11470000Y-13208000I-40000J0D01*
G01*
X11470000Y-13716000D02*
G75*
G03*
X11470000Y-13716000I-40000J0D01*
G01*
X11724000Y-11938000D02*
G75*
G03*
X11724000Y-11938000I-40000J0D01*
G01*
X11978000Y-6092000D02*
G75*
G03*
X11978000Y-6092000I-40000J0D01*
G01*
X11978000Y-12446000D02*
G75*
G03*
X11978000Y-12446000I-40000J0D01*
G01*
X11978000Y-12946000D02*
G75*
G03*
X11978000Y-12946000I-40000J0D01*
G01*
X12054200Y-8128000D02*
G75*
G03*
X12054200Y-8128000I-40000J0D01*
G01*
X12054200Y-9144000D02*
G75*
G03*
X12054200Y-9144000I-40000J0D01*
G01*
X12228000Y-6092000D02*
G75*
G03*
X12228000Y-6092000I-40000J0D01*
G01*
X12236000Y-11912600D02*
G75*
G03*
X12236000Y-11912600I-40000J0D01*
G01*
X12435200Y-8128000D02*
G75*
G03*
X12435200Y-8128000I-40000J0D01*
G01*
X12435200Y-9144000D02*
G75*
G03*
X12435200Y-9144000I-40000J0D01*
G01*
X12486000Y-11912600D02*
G75*
G03*
X12486000Y-11912600I-40000J0D01*
G01*
X12486000Y-12446000D02*
G75*
G03*
X12486000Y-12446000I-40000J0D01*
G01*
X12486000Y-13208000D02*
G75*
G03*
X12486000Y-13208000I-40000J0D01*
G01*
X12740000Y-12446000D02*
G75*
G03*
X12740000Y-12446000I-40000J0D01*
G01*
X12740000Y-13208000D02*
G75*
G03*
X12740000Y-13208000I-40000J0D01*
G01*
X12740000Y-13716000D02*
G75*
G03*
X12740000Y-13716000I-40000J0D01*
G01*
X12816200Y-8128000D02*
G75*
G03*
X12816200Y-8128000I-40000J0D01*
G01*
X12816200Y-9144000D02*
G75*
G03*
X12816200Y-9144000I-40000J0D01*
G01*
X12994000Y-6858000D02*
G75*
G03*
X12994000Y-6858000I-40000J0D01*
G01*
X12994000Y-7358000D02*
G75*
G03*
X12994000Y-7358000I-40000J0D01*
G01*
X12994000Y-11938000D02*
G75*
G03*
X12994000Y-11938000I-40000J0D01*
G01*
X12994000Y-12446000D02*
G75*
G03*
X12994000Y-12446000I-40000J0D01*
G01*
X12994000Y-13208000D02*
G75*
G03*
X12994000Y-13208000I-40000J0D01*
G01*
X12994000Y-13716000D02*
G75*
G03*
X12994000Y-13716000I-40000J0D01*
G01*
X13197200Y-8128000D02*
G75*
G03*
X13197200Y-8128000I-40000J0D01*
G01*
X13197200Y-9144000D02*
G75*
G03*
X13197200Y-9144000I-40000J0D01*
G01*
X13248000Y-11938000D02*
G75*
G03*
X13248000Y-11938000I-40000J0D01*
G01*
X13248000Y-12446000D02*
G75*
G03*
X13248000Y-12446000I-40000J0D01*
G01*
X13248000Y-13208000D02*
G75*
G03*
X13248000Y-13208000I-40000J0D01*
G01*
X13248000Y-13716000D02*
G75*
G03*
X13248000Y-13716000I-40000J0D01*
G01*
X13502000Y-11938000D02*
G75*
G03*
X13502000Y-11938000I-40000J0D01*
G01*
X13502000Y-12446000D02*
G75*
G03*
X13502000Y-12446000I-40000J0D01*
G01*
X13502000Y-13208000D02*
G75*
G03*
X13502000Y-13208000I-40000J0D01*
G01*
X13502000Y-13716000D02*
G75*
G03*
X13502000Y-13716000I-40000J0D01*
G01*
X13578200Y-8128000D02*
G75*
G03*
X13578200Y-8128000I-40000J0D01*
G01*
X13578200Y-9144000D02*
G75*
G03*
X13578200Y-9144000I-40000J0D01*
G01*
X13756000Y-6858000D02*
G75*
G03*
X13756000Y-6858000I-40000J0D01*
G01*
X13756000Y-7620000D02*
G75*
G03*
X13756000Y-7620000I-40000J0D01*
G01*
X13756000Y-11938000D02*
G75*
G03*
X13756000Y-11938000I-40000J0D01*
G01*
X13756000Y-12446000D02*
G75*
G03*
X13756000Y-12446000I-40000J0D01*
G01*
X13756000Y-13208000D02*
G75*
G03*
X13756000Y-13208000I-40000J0D01*
G01*
X13756000Y-13716000D02*
G75*
G03*
X13756000Y-13716000I-40000J0D01*
G01*
X13959200Y-8128000D02*
G75*
G03*
X13959200Y-8128000I-40000J0D01*
G01*
X13959200Y-9144000D02*
G75*
G03*
X13959200Y-9144000I-40000J0D01*
G01*
X14010000Y-11938000D02*
G75*
G03*
X14010000Y-11938000I-40000J0D01*
G01*
X14010000Y-12446000D02*
G75*
G03*
X14010000Y-12446000I-40000J0D01*
G01*
X14010000Y-13208000D02*
G75*
G03*
X14010000Y-13208000I-40000J0D01*
G01*
X14010000Y-13716000D02*
G75*
G03*
X14010000Y-13716000I-40000J0D01*
G01*
X14264000Y-11938000D02*
G75*
G03*
X14264000Y-11938000I-40000J0D01*
G01*
X14264000Y-12446000D02*
G75*
G03*
X14264000Y-12446000I-40000J0D01*
G01*
X14264000Y-13208000D02*
G75*
G03*
X14264000Y-13208000I-40000J0D01*
G01*
X14264000Y-13716000D02*
G75*
G03*
X14264000Y-13716000I-40000J0D01*
G01*
X14518000Y-6858000D02*
G75*
G03*
X14518000Y-6858000I-40000J0D01*
G01*
X14518000Y-7620000D02*
G75*
G03*
X14518000Y-7620000I-40000J0D01*
G01*
X14518000Y-11938000D02*
G75*
G03*
X14518000Y-11938000I-40000J0D01*
G01*
X14518000Y-12446000D02*
G75*
G03*
X14518000Y-12446000I-40000J0D01*
G01*
X14518000Y-13208000D02*
G75*
G03*
X14518000Y-13208000I-40000J0D01*
G01*
X14518000Y-13716000D02*
G75*
G03*
X14518000Y-13716000I-40000J0D01*
G01*
X14772000Y-11938000D02*
G75*
G03*
X14772000Y-11938000I-40000J0D01*
G01*
X14772000Y-12446000D02*
G75*
G03*
X14772000Y-12446000I-40000J0D01*
G01*
X14772000Y-13208000D02*
G75*
G03*
X14772000Y-13208000I-40000J0D01*
G01*
X14772000Y-13716000D02*
G75*
G03*
X14772000Y-13716000I-40000J0D01*
G01*
X15026000Y-11938000D02*
G75*
G03*
X15026000Y-11938000I-40000J0D01*
G01*
X15153000Y-13462000D02*
G75*
G03*
X15153000Y-13462000I-40000J0D01*
G01*
X15542000Y-6604000D02*
G75*
G03*
X15542000Y-6604000I-40000J0D01*
G01*
X15788000Y-10668000D02*
G75*
G03*
X15788000Y-10668000I-40000J0D01*
G01*
X15788000Y-11168000D02*
G75*
G03*
X15788000Y-11168000I-40000J0D01*
G01*
X15788000Y-12446000D02*
G75*
G03*
X15788000Y-12446000I-40000J0D01*
G01*
X15788000Y-12946000D02*
G75*
G03*
X15788000Y-12946000I-40000J0D01*
G01*
X15788000Y-13970000D02*
G75*
G03*
X15788000Y-13970000I-40000J0D01*
G01*
X15788000Y-14470000D02*
G75*
G03*
X15788000Y-14470000I-40000J0D01*
G01*
X16042000Y-6604000D02*
G75*
G03*
X16042000Y-6604000I-40000J0D01*
G01*
X16042000Y-8136000D02*
G75*
G03*
X16042000Y-8136000I-40000J0D01*
G01*
X16042000Y-8636000D02*
G75*
G03*
X16042000Y-8636000I-40000J0D01*
G01*
X16169000Y-13462000D02*
G75*
G03*
X16169000Y-13462000I-40000J0D01*
G01*
X16550000Y-6350000D02*
G75*
G03*
X16550000Y-6350000I-40000J0D01*
G01*
X16550000Y-7112000D02*
G75*
G03*
X16550000Y-7112000I-40000J0D01*
G01*
X16550000Y-7620000D02*
G75*
G03*
X16550000Y-7620000I-40000J0D01*
G01*
X16550000Y-8128000D02*
G75*
G03*
X16550000Y-8128000I-40000J0D01*
G01*
X16550000Y-8636000D02*
G75*
G03*
X16550000Y-8636000I-40000J0D01*
G01*
X16550000Y-9398000D02*
G75*
G03*
X16550000Y-9398000I-40000J0D01*
G01*
X16550000Y-10668000D02*
G75*
G03*
X16550000Y-10668000I-40000J0D01*
G01*
X16550000Y-11430000D02*
G75*
G03*
X16550000Y-11430000I-40000J0D01*
G01*
X16550000Y-12446000D02*
G75*
G03*
X16550000Y-12446000I-40000J0D01*
G01*
X16550000Y-13208000D02*
G75*
G03*
X16550000Y-13208000I-40000J0D01*
G01*
X16804000Y-6350000D02*
G75*
G03*
X16804000Y-6350000I-40000J0D01*
G01*
X16804000Y-7112000D02*
G75*
G03*
X16804000Y-7112000I-40000J0D01*
G01*
X16804000Y-8636000D02*
G75*
G03*
X16804000Y-8636000I-40000J0D01*
G01*
X16804000Y-9398000D02*
G75*
G03*
X16804000Y-9398000I-40000J0D01*
G01*
X16804000Y-10668000D02*
G75*
G03*
X16804000Y-10668000I-40000J0D01*
G01*
X16804000Y-11430000D02*
G75*
G03*
X16804000Y-11430000I-40000J0D01*
G01*
X16804000Y-12446000D02*
G75*
G03*
X16804000Y-12446000I-40000J0D01*
G01*
X16804000Y-13208000D02*
G75*
G03*
X16804000Y-13208000I-40000J0D01*
G01*
X17058000Y-6350000D02*
G75*
G03*
X17058000Y-6350000I-40000J0D01*
G01*
X17058000Y-7112000D02*
G75*
G03*
X17058000Y-7112000I-40000J0D01*
G01*
X17058000Y-8636000D02*
G75*
G03*
X17058000Y-8636000I-40000J0D01*
G01*
X17058000Y-9398000D02*
G75*
G03*
X17058000Y-9398000I-40000J0D01*
G01*
X17058000Y-10668000D02*
G75*
G03*
X17058000Y-10668000I-40000J0D01*
G01*
X17058000Y-11430000D02*
G75*
G03*
X17058000Y-11430000I-40000J0D01*
G01*
X17058000Y-12446000D02*
G75*
G03*
X17058000Y-12446000I-40000J0D01*
G01*
X17058000Y-13208000D02*
G75*
G03*
X17058000Y-13208000I-40000J0D01*
G01*
X17312000Y-6350000D02*
G75*
G03*
X17312000Y-6350000I-40000J0D01*
G01*
X17312000Y-7112000D02*
G75*
G03*
X17312000Y-7112000I-40000J0D01*
G01*
X17312000Y-8636000D02*
G75*
G03*
X17312000Y-8636000I-40000J0D01*
G01*
X17312000Y-9398000D02*
G75*
G03*
X17312000Y-9398000I-40000J0D01*
G01*
X17312000Y-10668000D02*
G75*
G03*
X17312000Y-10668000I-40000J0D01*
G01*
X17312000Y-11430000D02*
G75*
G03*
X17312000Y-11430000I-40000J0D01*
G01*
X17312000Y-12446000D02*
G75*
G03*
X17312000Y-12446000I-40000J0D01*
G01*
X17312000Y-13208000D02*
G75*
G03*
X17312000Y-13208000I-40000J0D01*
G01*
X17566000Y-6350000D02*
G75*
G03*
X17566000Y-6350000I-40000J0D01*
G01*
X17566000Y-7112000D02*
G75*
G03*
X17566000Y-7112000I-40000J0D01*
G01*
X17566000Y-7620000D02*
G75*
G03*
X17566000Y-7620000I-40000J0D01*
G01*
X17566000Y-8128000D02*
G75*
G03*
X17566000Y-8128000I-40000J0D01*
G01*
X17566000Y-8636000D02*
G75*
G03*
X17566000Y-8636000I-40000J0D01*
G01*
X17566000Y-9398000D02*
G75*
G03*
X17566000Y-9398000I-40000J0D01*
G01*
X17566000Y-10668000D02*
G75*
G03*
X17566000Y-10668000I-40000J0D01*
G01*
X17566000Y-11430000D02*
G75*
G03*
X17566000Y-11430000I-40000J0D01*
G01*
X17566000Y-12446000D02*
G75*
G03*
X17566000Y-12446000I-40000J0D01*
G01*
X17566000Y-13208000D02*
G75*
G03*
X17566000Y-13208000I-40000J0D01*
G01*
X17820000Y-6350000D02*
G75*
G03*
X17820000Y-6350000I-40000J0D01*
G01*
X17820000Y-7112000D02*
G75*
G03*
X17820000Y-7112000I-40000J0D01*
G01*
X17820000Y-8636000D02*
G75*
G03*
X17820000Y-8636000I-40000J0D01*
G01*
X17820000Y-9398000D02*
G75*
G03*
X17820000Y-9398000I-40000J0D01*
G01*
X17820000Y-10668000D02*
G75*
G03*
X17820000Y-10668000I-40000J0D01*
G01*
X17820000Y-11430000D02*
G75*
G03*
X17820000Y-11430000I-40000J0D01*
G01*
X17820000Y-12446000D02*
G75*
G03*
X17820000Y-12446000I-40000J0D01*
G01*
X17820000Y-13208000D02*
G75*
G03*
X17820000Y-13208000I-40000J0D01*
G01*
X18074000Y-6350000D02*
G75*
G03*
X18074000Y-6350000I-40000J0D01*
G01*
X18074000Y-7112000D02*
G75*
G03*
X18074000Y-7112000I-40000J0D01*
G01*
X18074000Y-8128000D02*
G75*
G03*
X18074000Y-8128000I-40000J0D01*
G01*
X18074000Y-8636000D02*
G75*
G03*
X18074000Y-8636000I-40000J0D01*
G01*
X18074000Y-9398000D02*
G75*
G03*
X18074000Y-9398000I-40000J0D01*
G01*
X18074000Y-10668000D02*
G75*
G03*
X18074000Y-10668000I-40000J0D01*
G01*
X18074000Y-11430000D02*
G75*
G03*
X18074000Y-11430000I-40000J0D01*
G01*
X18074000Y-12446000D02*
G75*
G03*
X18074000Y-12446000I-40000J0D01*
G01*
X18074000Y-13208000D02*
G75*
G03*
X18074000Y-13208000I-40000J0D01*
G01*
X18328000Y-6350000D02*
G75*
G03*
X18328000Y-6350000I-40000J0D01*
G01*
X18328000Y-7112000D02*
G75*
G03*
X18328000Y-7112000I-40000J0D01*
G01*
X18328000Y-8636000D02*
G75*
G03*
X18328000Y-8636000I-40000J0D01*
G01*
X18328000Y-9398000D02*
G75*
G03*
X18328000Y-9398000I-40000J0D01*
G01*
X18574000Y-8128000D02*
G75*
G03*
X18574000Y-8128000I-40000J0D01*
G01*
X18717000Y-8636000D02*
G75*
G03*
X18717000Y-8636000I-40000J0D01*
G01*
X19217000Y-7112000D02*
G75*
G03*
X19217000Y-7112000I-40000J0D01*
G01*
X19217000Y-8128000D02*
G75*
G03*
X19217000Y-8128000I-40000J0D01*
G01*
X19217000Y-8636000D02*
G75*
G03*
X19217000Y-8636000I-40000J0D01*
G01*
X19217000Y-10668000D02*
G75*
G03*
X19217000Y-10668000I-40000J0D01*
G01*
X19217000Y-11168000D02*
G75*
G03*
X19217000Y-11168000I-40000J0D01*
G01*
X19217000Y-12446000D02*
G75*
G03*
X19217000Y-12446000I-40000J0D01*
G01*
X19217000Y-12946000D02*
G75*
G03*
X19217000Y-12946000I-40000J0D01*
G01*
X19852000Y-7112000D02*
G75*
G03*
X19852000Y-7112000I-40000J0D01*
G01*
X19852000Y-8128000D02*
G75*
G03*
X19852000Y-8128000I-40000J0D01*
G01*
X19852000Y-8636000D02*
G75*
G03*
X19852000Y-8636000I-40000J0D01*
G01*
X19852000Y-9398000D02*
G75*
G03*
X19852000Y-9398000I-40000J0D01*
G01*
X19852000Y-10668000D02*
G75*
G03*
X19852000Y-10668000I-40000J0D01*
G01*
X19852000Y-11430000D02*
G75*
G03*
X19852000Y-11430000I-40000J0D01*
G01*
X19852000Y-12446000D02*
G75*
G03*
X19852000Y-12446000I-40000J0D01*
G01*
X19852000Y-13208000D02*
G75*
G03*
X19852000Y-13208000I-40000J0D01*
G01*
X20106000Y-8636000D02*
G75*
G03*
X20106000Y-8636000I-40000J0D01*
G01*
X20106000Y-9398000D02*
G75*
G03*
X20106000Y-9398000I-40000J0D01*
G01*
X20106000Y-10668000D02*
G75*
G03*
X20106000Y-10668000I-40000J0D01*
G01*
X20106000Y-11430000D02*
G75*
G03*
X20106000Y-11430000I-40000J0D01*
G01*
X20106000Y-12446000D02*
G75*
G03*
X20106000Y-12446000I-40000J0D01*
G01*
X20106000Y-13208000D02*
G75*
G03*
X20106000Y-13208000I-40000J0D01*
G01*
X20360000Y-8636000D02*
G75*
G03*
X20360000Y-8636000I-40000J0D01*
G01*
X20360000Y-9398000D02*
G75*
G03*
X20360000Y-9398000I-40000J0D01*
G01*
X20360000Y-10668000D02*
G75*
G03*
X20360000Y-10668000I-40000J0D01*
G01*
X20360000Y-11430000D02*
G75*
G03*
X20360000Y-11430000I-40000J0D01*
G01*
X20360000Y-12446000D02*
G75*
G03*
X20360000Y-12446000I-40000J0D01*
G01*
X20360000Y-13208000D02*
G75*
G03*
X20360000Y-13208000I-40000J0D01*
G01*
X20487000Y-7112000D02*
G75*
G03*
X20487000Y-7112000I-40000J0D01*
G01*
X20487000Y-8128000D02*
G75*
G03*
X20487000Y-8128000I-40000J0D01*
G01*
X20614000Y-8636000D02*
G75*
G03*
X20614000Y-8636000I-40000J0D01*
G01*
X20614000Y-9398000D02*
G75*
G03*
X20614000Y-9398000I-40000J0D01*
G01*
X20614000Y-10668000D02*
G75*
G03*
X20614000Y-10668000I-40000J0D01*
G01*
X20614000Y-11430000D02*
G75*
G03*
X20614000Y-11430000I-40000J0D01*
G01*
X20614000Y-12446000D02*
G75*
G03*
X20614000Y-12446000I-40000J0D01*
G01*
X20614000Y-13208000D02*
G75*
G03*
X20614000Y-13208000I-40000J0D01*
G01*
X20868000Y-8636000D02*
G75*
G03*
X20868000Y-8636000I-40000J0D01*
G01*
X20868000Y-9398000D02*
G75*
G03*
X20868000Y-9398000I-40000J0D01*
G01*
X20868000Y-10668000D02*
G75*
G03*
X20868000Y-10668000I-40000J0D01*
G01*
X20868000Y-11430000D02*
G75*
G03*
X20868000Y-11430000I-40000J0D01*
G01*
X20868000Y-12446000D02*
G75*
G03*
X20868000Y-12446000I-40000J0D01*
G01*
X20868000Y-13208000D02*
G75*
G03*
X20868000Y-13208000I-40000J0D01*
G01*
X21122000Y-7112000D02*
G75*
G03*
X21122000Y-7112000I-40000J0D01*
G01*
X21122000Y-8128000D02*
G75*
G03*
X21122000Y-8128000I-40000J0D01*
G01*
X21122000Y-8636000D02*
G75*
G03*
X21122000Y-8636000I-40000J0D01*
G01*
X21122000Y-9398000D02*
G75*
G03*
X21122000Y-9398000I-40000J0D01*
G01*
X21122000Y-10668000D02*
G75*
G03*
X21122000Y-10668000I-40000J0D01*
G01*
X21122000Y-11430000D02*
G75*
G03*
X21122000Y-11430000I-40000J0D01*
G01*
X21122000Y-12446000D02*
G75*
G03*
X21122000Y-12446000I-40000J0D01*
G01*
X21122000Y-13208000D02*
G75*
G03*
X21122000Y-13208000I-40000J0D01*
G01*
X21376000Y-8636000D02*
G75*
G03*
X21376000Y-8636000I-40000J0D01*
G01*
X21376000Y-9398000D02*
G75*
G03*
X21376000Y-9398000I-40000J0D01*
G01*
X21376000Y-10668000D02*
G75*
G03*
X21376000Y-10668000I-40000J0D01*
G01*
X21376000Y-11430000D02*
G75*
G03*
X21376000Y-11430000I-40000J0D01*
G01*
X21376000Y-12446000D02*
G75*
G03*
X21376000Y-12446000I-40000J0D01*
G01*
X21376000Y-13208000D02*
G75*
G03*
X21376000Y-13208000I-40000J0D01*
G01*
X21630000Y-8636000D02*
G75*
G03*
X21630000Y-8636000I-40000J0D01*
G01*
X21630000Y-9398000D02*
G75*
G03*
X21630000Y-9398000I-40000J0D01*
G01*
X21757000Y-7112000D02*
G75*
G03*
X21757000Y-7112000I-40000J0D01*
G01*
X21757000Y-8128000D02*
G75*
G03*
X21757000Y-8128000I-40000J0D01*
G01*
X21884000Y-8636000D02*
G75*
G03*
X21884000Y-8636000I-40000J0D01*
G01*
X21884000Y-9398000D02*
G75*
G03*
X21884000Y-9398000I-40000J0D01*
G01*
X22138000Y-8636000D02*
G75*
G03*
X22138000Y-8636000I-40000J0D01*
G01*
X22138000Y-9398000D02*
G75*
G03*
X22138000Y-9398000I-40000J0D01*
G01*
X22392000Y-7112000D02*
G75*
G03*
X22392000Y-7112000I-40000J0D01*
G01*
X22392000Y-8128000D02*
G75*
G03*
X22392000Y-8128000I-40000J0D01*
G01*
X22519000Y-10668000D02*
G75*
G03*
X22519000Y-10668000I-40000J0D01*
G01*
X22519000Y-11168000D02*
G75*
G03*
X22519000Y-11168000I-40000J0D01*
G01*
X22900000Y-9402000D02*
G75*
G03*
X22900000Y-9402000I-40000J0D01*
G01*
X22900000Y-9652000D02*
G75*
G03*
X22900000Y-9652000I-40000J0D01*
G01*
X23027000Y-7112000D02*
G75*
G03*
X23027000Y-7112000I-40000J0D01*
G01*
X23027000Y-8128000D02*
G75*
G03*
X23027000Y-8128000I-40000J0D01*
G01*
X23154000Y-10668000D02*
G75*
G03*
X23154000Y-10668000I-40000J0D01*
G01*
X23154000Y-11430000D02*
G75*
G03*
X23154000Y-11430000I-40000J0D01*
G01*
X23408000Y-10160000D02*
G75*
G03*
X23408000Y-10160000I-40000J0D01*
G01*
X23408000Y-10668000D02*
G75*
G03*
X23408000Y-10668000I-40000J0D01*
G01*
X23408000Y-11430000D02*
G75*
G03*
X23408000Y-11430000I-40000J0D01*
G01*
X23662000Y-7112000D02*
G75*
G03*
X23662000Y-7112000I-40000J0D01*
G01*
X23662000Y-8128000D02*
G75*
G03*
X23662000Y-8128000I-40000J0D01*
G01*
X23662000Y-10668000D02*
G75*
G03*
X23662000Y-10668000I-40000J0D01*
G01*
X23662000Y-11430000D02*
G75*
G03*
X23662000Y-11430000I-40000J0D01*
G01*
X23916000Y-10668000D02*
G75*
G03*
X23916000Y-10668000I-40000J0D01*
G01*
X23916000Y-11430000D02*
G75*
G03*
X23916000Y-11430000I-40000J0D01*
G01*
X24170000Y-10668000D02*
G75*
G03*
X24170000Y-10668000I-40000J0D01*
G01*
X24170000Y-11430000D02*
G75*
G03*
X24170000Y-11430000I-40000J0D01*
G01*
X24424000Y-10160000D02*
G75*
G03*
X24424000Y-10160000I-40000J0D01*
G01*
X24424000Y-10668000D02*
G75*
G03*
X24424000Y-10668000I-40000J0D01*
G01*
X24424000Y-11430000D02*
G75*
G03*
X24424000Y-11430000I-40000J0D01*
G01*
X24678000Y-10668000D02*
G75*
G03*
X24678000Y-10668000I-40000J0D01*
G01*
X24678000Y-11430000D02*
G75*
G03*
X24678000Y-11430000I-40000J0D01*
G01*
X24830400Y-8991600D02*
G75*
G03*
X24830400Y-8991600I-40000J0D01*
G01*
X24830400Y-10007600D02*
G75*
G03*
X24830400Y-10007600I-40000J0D01*
G01*
D14*
X20447000Y-6305000D02*
X20447000Y-6395000D01*
X20402000Y-6350000D02*
X20492000Y-6350000D01*
X20701000Y-6305000D02*
X20701000Y-6395000D01*
X20656000Y-6350000D02*
X20746000Y-6350000D01*
X21082000Y-6305000D02*
X21082000Y-6395000D01*
X21037000Y-6350000D02*
X21127000Y-6350000D01*
X21336000Y-6305000D02*
X21336000Y-6395000D01*
X21291000Y-6350000D02*
X21381000Y-6350000D01*
X21717000Y-6305000D02*
X21717000Y-6395000D01*
X21672000Y-6350000D02*
X21762000Y-6350000D01*
X21971000Y-6305000D02*
X21971000Y-6395000D01*
X21926000Y-6350000D02*
X22016000Y-6350000D01*
X22352000Y-6305000D02*
X22352000Y-6395000D01*
X22307000Y-6350000D02*
X22397000Y-6350000D01*
X22606000Y-6305000D02*
X22606000Y-6395000D01*
X22561000Y-6350000D02*
X22651000Y-6350000D01*
X22987000Y-6305000D02*
X22987000Y-6395000D01*
X22942000Y-6350000D02*
X23032000Y-6350000D01*
X23241000Y-6305000D02*
X23241000Y-6395000D01*
X23196000Y-6350000D02*
X23286000Y-6350000D01*
X23622000Y-6305000D02*
X23622000Y-6395000D01*
X23577000Y-6350000D02*
X23667000Y-6350000D01*
X23876000Y-6305000D02*
X23876000Y-6395000D01*
X23831000Y-6350000D02*
X23921000Y-6350000D01*
X24257000Y-6305000D02*
X24257000Y-6395000D01*
X24212000Y-6350000D02*
X24302000Y-6350000D01*
X24511000Y-6305000D02*
X24511000Y-6395000D01*
X24466000Y-6350000D02*
X24556000Y-6350000D01*
X24892000Y-6305000D02*
X24892000Y-6395000D01*
X24847000Y-6350000D02*
X24937000Y-6350000D01*
X25146000Y-6305000D02*
X25146000Y-6395000D01*
X25101000Y-6350000D02*
X25191000Y-6350000D01*
D15*
X5369356Y-6131356D02*
X5369356Y-6060644D01*
X5298644Y-6060644D01*
X5298644Y-6131356D01*
X5369356Y-6131356D01*
X5623356Y-6131356D02*
X5623356Y-6060644D01*
X5552644Y-6060644D01*
X5552644Y-6131356D01*
X5623356Y-6131356D01*
X5877356Y-6131356D02*
X5877356Y-6060644D01*
X5806644Y-6060644D01*
X5806644Y-6131356D01*
X5877356Y-6131356D01*
X6131356Y-6131356D02*
X6131356Y-6060644D01*
X6060644Y-6060644D01*
X6060644Y-6131356D01*
X6131356Y-6131356D01*
X6131356Y-8163356D02*
X6131356Y-8092644D01*
X6060644Y-8092644D01*
X6060644Y-8163356D01*
X6131356Y-8163356D01*
X6131356Y-8417356D02*
X6131356Y-8346644D01*
X6060644Y-8346644D01*
X6060644Y-8417356D01*
X6131356Y-8417356D01*
X6131356Y-8671356D02*
X6131356Y-8600644D01*
X6060644Y-8600644D01*
X6060644Y-8671356D01*
X6131356Y-8671356D01*
X6131356Y-8925356D02*
X6131356Y-8854644D01*
X6060644Y-8854644D01*
X6060644Y-8925356D01*
X6131356Y-8925356D01*
X6131356Y-9179356D02*
X6131356Y-9108644D01*
X6060644Y-9108644D01*
X6060644Y-9179356D01*
X6131356Y-9179356D01*
X6131356Y-9433356D02*
X6131356Y-9362644D01*
X6060644Y-9362644D01*
X6060644Y-9433356D01*
X6131356Y-9433356D01*
X6131356Y-9687356D02*
X6131356Y-9616644D01*
X6060644Y-9616644D01*
X6060644Y-9687356D01*
X6131356Y-9687356D01*
X6131356Y-9941356D02*
X6131356Y-9870644D01*
X6060644Y-9870644D01*
X6060644Y-9941356D01*
X6131356Y-9941356D01*
X6131356Y-10195356D02*
X6131356Y-10124644D01*
X6060644Y-10124644D01*
X6060644Y-10195356D01*
X6131356Y-10195356D01*
X6131356Y-10449356D02*
X6131356Y-10378644D01*
X6060644Y-10378644D01*
X6060644Y-10449356D01*
X6131356Y-10449356D01*
X6131356Y-10703356D02*
X6131356Y-10632644D01*
X6060644Y-10632644D01*
X6060644Y-10703356D01*
X6131356Y-10703356D01*
X6131356Y-10957356D02*
X6131356Y-10886644D01*
X6060644Y-10886644D01*
X6060644Y-10957356D01*
X6131356Y-10957356D01*
X6131356Y-11211356D02*
X6131356Y-11140644D01*
X6060644Y-11140644D01*
X6060644Y-11211356D01*
X6131356Y-11211356D01*
X6131356Y-11465356D02*
X6131356Y-11394644D01*
X6060644Y-11394644D01*
X6060644Y-11465356D01*
X6131356Y-11465356D01*
X6131356Y-11719356D02*
X6131356Y-11648644D01*
X6060644Y-11648644D01*
X6060644Y-11719356D01*
X6131356Y-11719356D01*
X6131356Y-11973356D02*
X6131356Y-11902644D01*
X6060644Y-11902644D01*
X6060644Y-11973356D01*
X6131356Y-11973356D01*
X6131356Y-12227356D02*
X6131356Y-12156644D01*
X6060644Y-12156644D01*
X6060644Y-12227356D01*
X6131356Y-12227356D01*
X6131356Y-12735356D02*
X6131356Y-12664644D01*
X6060644Y-12664644D01*
X6060644Y-12735356D01*
X6131356Y-12735356D01*
X6131356Y-12989356D02*
X6131356Y-12918644D01*
X6060644Y-12918644D01*
X6060644Y-12989356D01*
X6131356Y-12989356D01*
X6131356Y-13243356D02*
X6131356Y-13172644D01*
X6060644Y-13172644D01*
X6060644Y-13243356D01*
X6131356Y-13243356D01*
X6131356Y-13497356D02*
X6131356Y-13426644D01*
X6060644Y-13426644D01*
X6060644Y-13497356D01*
X6131356Y-13497356D01*
X6131356Y-13751356D02*
X6131356Y-13680644D01*
X6060644Y-13680644D01*
X6060644Y-13751356D01*
X6131356Y-13751356D01*
X6131356Y-14005356D02*
X6131356Y-13934644D01*
X6060644Y-13934644D01*
X6060644Y-14005356D01*
X6131356Y-14005356D01*
X6385356Y-6131356D02*
X6385356Y-6060644D01*
X6314644Y-6060644D01*
X6314644Y-6131356D01*
X6385356Y-6131356D01*
X6385356Y-8163356D02*
X6385356Y-8092644D01*
X6314644Y-8092644D01*
X6314644Y-8163356D01*
X6385356Y-8163356D01*
X6385356Y-8417356D02*
X6385356Y-8346644D01*
X6314644Y-8346644D01*
X6314644Y-8417356D01*
X6385356Y-8417356D01*
X6385356Y-8671356D02*
X6385356Y-8600644D01*
X6314644Y-8600644D01*
X6314644Y-8671356D01*
X6385356Y-8671356D01*
X6385356Y-8925356D02*
X6385356Y-8854644D01*
X6314644Y-8854644D01*
X6314644Y-8925356D01*
X6385356Y-8925356D01*
X6385356Y-9179356D02*
X6385356Y-9108644D01*
X6314644Y-9108644D01*
X6314644Y-9179356D01*
X6385356Y-9179356D01*
X6385356Y-9433356D02*
X6385356Y-9362644D01*
X6314644Y-9362644D01*
X6314644Y-9433356D01*
X6385356Y-9433356D01*
X6385356Y-9687356D02*
X6385356Y-9616644D01*
X6314644Y-9616644D01*
X6314644Y-9687356D01*
X6385356Y-9687356D01*
X6385356Y-9941356D02*
X6385356Y-9870644D01*
X6314644Y-9870644D01*
X6314644Y-9941356D01*
X6385356Y-9941356D01*
X6385356Y-10195356D02*
X6385356Y-10124644D01*
X6314644Y-10124644D01*
X6314644Y-10195356D01*
X6385356Y-10195356D01*
X6385356Y-10449356D02*
X6385356Y-10378644D01*
X6314644Y-10378644D01*
X6314644Y-10449356D01*
X6385356Y-10449356D01*
X6385356Y-10703356D02*
X6385356Y-10632644D01*
X6314644Y-10632644D01*
X6314644Y-10703356D01*
X6385356Y-10703356D01*
X6385356Y-10957356D02*
X6385356Y-10886644D01*
X6314644Y-10886644D01*
X6314644Y-10957356D01*
X6385356Y-10957356D01*
X6385356Y-11211356D02*
X6385356Y-11140644D01*
X6314644Y-11140644D01*
X6314644Y-11211356D01*
X6385356Y-11211356D01*
X6385356Y-11465356D02*
X6385356Y-11394644D01*
X6314644Y-11394644D01*
X6314644Y-11465356D01*
X6385356Y-11465356D01*
X6385356Y-11719356D02*
X6385356Y-11648644D01*
X6314644Y-11648644D01*
X6314644Y-11719356D01*
X6385356Y-11719356D01*
X6385356Y-11973356D02*
X6385356Y-11902644D01*
X6314644Y-11902644D01*
X6314644Y-11973356D01*
X6385356Y-11973356D01*
X6385356Y-12227356D02*
X6385356Y-12156644D01*
X6314644Y-12156644D01*
X6314644Y-12227356D01*
X6385356Y-12227356D01*
X6385356Y-12735356D02*
X6385356Y-12664644D01*
X6314644Y-12664644D01*
X6314644Y-12735356D01*
X6385356Y-12735356D01*
X6385356Y-12989356D02*
X6385356Y-12918644D01*
X6314644Y-12918644D01*
X6314644Y-12989356D01*
X6385356Y-12989356D01*
X6385356Y-13243356D02*
X6385356Y-13172644D01*
X6314644Y-13172644D01*
X6314644Y-13243356D01*
X6385356Y-13243356D01*
X6385356Y-13497356D02*
X6385356Y-13426644D01*
X6314644Y-13426644D01*
X6314644Y-13497356D01*
X6385356Y-13497356D01*
X6385356Y-13751356D02*
X6385356Y-13680644D01*
X6314644Y-13680644D01*
X6314644Y-13751356D01*
X6385356Y-13751356D01*
X6385356Y-14005356D02*
X6385356Y-13934644D01*
X6314644Y-13934644D01*
X6314644Y-14005356D01*
X6385356Y-14005356D01*
X6385356Y-14513356D02*
X6385356Y-14442644D01*
X6314644Y-14442644D01*
X6314644Y-14513356D01*
X6385356Y-14513356D01*
X6639356Y-6131356D02*
X6639356Y-6060644D01*
X6568644Y-6060644D01*
X6568644Y-6131356D01*
X6639356Y-6131356D01*
X6639356Y-14513356D02*
X6639356Y-14442644D01*
X6568644Y-14442644D01*
X6568644Y-14513356D01*
X6639356Y-14513356D01*
X6893356Y-6131356D02*
X6893356Y-6060644D01*
X6822644Y-6060644D01*
X6822644Y-6131356D01*
X6893356Y-6131356D01*
X6893356Y-14513356D02*
X6893356Y-14442644D01*
X6822644Y-14442644D01*
X6822644Y-14513356D01*
X6893356Y-14513356D01*
X7147356Y-6131356D02*
X7147356Y-6060644D01*
X7076644Y-6060644D01*
X7076644Y-6131356D01*
X7147356Y-6131356D01*
X7147356Y-14513356D02*
X7147356Y-14442644D01*
X7076644Y-14442644D01*
X7076644Y-14513356D01*
X7147356Y-14513356D01*
X7401356Y-6131356D02*
X7401356Y-6060644D01*
X7330644Y-6060644D01*
X7330644Y-6131356D01*
X7401356Y-6131356D01*
X7401356Y-14513356D02*
X7401356Y-14442644D01*
X7330644Y-14442644D01*
X7330644Y-14513356D01*
X7401356Y-14513356D01*
X7655356Y-6131356D02*
X7655356Y-6060644D01*
X7584644Y-6060644D01*
X7584644Y-6131356D01*
X7655356Y-6131356D01*
X7655356Y-14513356D02*
X7655356Y-14442644D01*
X7584644Y-14442644D01*
X7584644Y-14513356D01*
X7655356Y-14513356D01*
X7909356Y-6131356D02*
X7909356Y-6060644D01*
X7838644Y-6060644D01*
X7838644Y-6131356D01*
X7909356Y-6131356D01*
X7909356Y-14513356D02*
X7909356Y-14442644D01*
X7838644Y-14442644D01*
X7838644Y-14513356D01*
X7909356Y-14513356D01*
X8163356Y-6131356D02*
X8163356Y-6060644D01*
X8092644Y-6060644D01*
X8092644Y-6131356D01*
X8163356Y-6131356D01*
X8163356Y-14513356D02*
X8163356Y-14442644D01*
X8092644Y-14442644D01*
X8092644Y-14513356D01*
X8163356Y-14513356D01*
X8417356Y-6131356D02*
X8417356Y-6060644D01*
X8346644Y-6060644D01*
X8346644Y-6131356D01*
X8417356Y-6131356D01*
X8417356Y-14513356D02*
X8417356Y-14442644D01*
X8346644Y-14442644D01*
X8346644Y-14513356D01*
X8417356Y-14513356D01*
X8671356Y-6131356D02*
X8671356Y-6060644D01*
X8600644Y-6060644D01*
X8600644Y-6131356D01*
X8671356Y-6131356D01*
X8671356Y-14513356D02*
X8671356Y-14442644D01*
X8600644Y-14442644D01*
X8600644Y-14513356D01*
X8671356Y-14513356D01*
X8925356Y-6131356D02*
X8925356Y-6060644D01*
X8854644Y-6060644D01*
X8854644Y-6131356D01*
X8925356Y-6131356D01*
X9179356Y-6131356D02*
X9179356Y-6060644D01*
X9108644Y-6060644D01*
X9108644Y-6131356D01*
X9179356Y-6131356D01*
X9687356Y-6131356D02*
X9687356Y-6060644D01*
X9616644Y-6060644D01*
X9616644Y-6131356D01*
X9687356Y-6131356D01*
X9941356Y-6131356D02*
X9941356Y-6060644D01*
X9870644Y-6060644D01*
X9870644Y-6131356D01*
X9941356Y-6131356D01*
X9941356Y-14513356D02*
X9941356Y-14442644D01*
X9870644Y-14442644D01*
X9870644Y-14513356D01*
X9941356Y-14513356D01*
X10195356Y-14513356D02*
X10195356Y-14442644D01*
X10124644Y-14442644D01*
X10124644Y-14513356D01*
X10195356Y-14513356D01*
X10449356Y-14513356D02*
X10449356Y-14442644D01*
X10378644Y-14442644D01*
X10378644Y-14513356D01*
X10449356Y-14513356D01*
X10703356Y-14513356D02*
X10703356Y-14442644D01*
X10632644Y-14442644D01*
X10632644Y-14513356D01*
X10703356Y-14513356D01*
X10957356Y-14513356D02*
X10957356Y-14442644D01*
X10886644Y-14442644D01*
X10886644Y-14513356D01*
X10957356Y-14513356D01*
X11211356Y-14513356D02*
X11211356Y-14442644D01*
X11140644Y-14442644D01*
X11140644Y-14513356D01*
X11211356Y-14513356D01*
X11465356Y-14513356D02*
X11465356Y-14442644D01*
X11394644Y-14442644D01*
X11394644Y-14513356D01*
X11465356Y-14513356D01*
X11719356Y-14513356D02*
X11719356Y-14442644D01*
X11648644Y-14442644D01*
X11648644Y-14513356D01*
X11719356Y-14513356D01*
X11973356Y-14513356D02*
X11973356Y-14442644D01*
X11902644Y-14442644D01*
X11902644Y-14513356D01*
X11973356Y-14513356D01*
X12227356Y-14513356D02*
X12227356Y-14442644D01*
X12156644Y-14442644D01*
X12156644Y-14513356D01*
X12227356Y-14513356D01*
X12481356Y-14513356D02*
X12481356Y-14442644D01*
X12410644Y-14442644D01*
X12410644Y-14513356D01*
X12481356Y-14513356D01*
X12735356Y-14513356D02*
X12735356Y-14442644D01*
X12664644Y-14442644D01*
X12664644Y-14513356D01*
X12735356Y-14513356D01*
X12989356Y-14513356D02*
X12989356Y-14442644D01*
X12918644Y-14442644D01*
X12918644Y-14513356D01*
X12989356Y-14513356D01*
X13243356Y-14513356D02*
X13243356Y-14442644D01*
X13172644Y-14442644D01*
X13172644Y-14513356D01*
X13243356Y-14513356D01*
X13497356Y-14513356D02*
X13497356Y-14442644D01*
X13426644Y-14442644D01*
X13426644Y-14513356D01*
X13497356Y-14513356D01*
X13751356Y-14513356D02*
X13751356Y-14442644D01*
X13680644Y-14442644D01*
X13680644Y-14513356D01*
X13751356Y-14513356D01*
X16291356Y-14513356D02*
X16291356Y-14442644D01*
X16220644Y-14442644D01*
X16220644Y-14513356D01*
X16291356Y-14513356D01*
X16545356Y-14513356D02*
X16545356Y-14442644D01*
X16474644Y-14442644D01*
X16474644Y-14513356D01*
X16545356Y-14513356D01*
X16799356Y-14513356D02*
X16799356Y-14442644D01*
X16728644Y-14442644D01*
X16728644Y-14513356D01*
X16799356Y-14513356D01*
X17053356Y-14513356D02*
X17053356Y-14442644D01*
X16982644Y-14442644D01*
X16982644Y-14513356D01*
X17053356Y-14513356D01*
X17307356Y-14513356D02*
X17307356Y-14442644D01*
X17236644Y-14442644D01*
X17236644Y-14513356D01*
X17307356Y-14513356D01*
X17561356Y-14513356D02*
X17561356Y-14442644D01*
X17490644Y-14442644D01*
X17490644Y-14513356D01*
X17561356Y-14513356D01*
X17815356Y-14513356D02*
X17815356Y-14442644D01*
X17744644Y-14442644D01*
X17744644Y-14513356D01*
X17815356Y-14513356D01*
X18069356Y-14513356D02*
X18069356Y-14442644D01*
X17998644Y-14442644D01*
X17998644Y-14513356D01*
X18069356Y-14513356D01*
X18323356Y-14513356D02*
X18323356Y-14442644D01*
X18252644Y-14442644D01*
X18252644Y-14513356D01*
X18323356Y-14513356D01*
X18577356Y-14513356D02*
X18577356Y-14442644D01*
X18506644Y-14442644D01*
X18506644Y-14513356D01*
X18577356Y-14513356D01*
X18831356Y-14513356D02*
X18831356Y-14442644D01*
X18760644Y-14442644D01*
X18760644Y-14513356D01*
X18831356Y-14513356D01*
X19085356Y-14513356D02*
X19085356Y-14442644D01*
X19014644Y-14442644D01*
X19014644Y-14513356D01*
X19085356Y-14513356D01*
X19339356Y-14513356D02*
X19339356Y-14442644D01*
X19268644Y-14442644D01*
X19268644Y-14513356D01*
X19339356Y-14513356D01*
X19593356Y-14513356D02*
X19593356Y-14442644D01*
X19522644Y-14442644D01*
X19522644Y-14513356D01*
X19593356Y-14513356D01*
X19847356Y-14513356D02*
X19847356Y-14442644D01*
X19776644Y-14442644D01*
X19776644Y-14513356D01*
X19847356Y-14513356D01*
X20101356Y-14513356D02*
X20101356Y-14442644D01*
X20030644Y-14442644D01*
X20030644Y-14513356D01*
X20101356Y-14513356D01*
X20355356Y-14513356D02*
X20355356Y-14442644D01*
X20284644Y-14442644D01*
X20284644Y-14513356D01*
X20355356Y-14513356D01*
X20609356Y-14513356D02*
X20609356Y-14442644D01*
X20538644Y-14442644D01*
X20538644Y-14513356D01*
X20609356Y-14513356D01*
X20863356Y-14513356D02*
X20863356Y-14442644D01*
X20792644Y-14442644D01*
X20792644Y-14513356D01*
X20863356Y-14513356D01*
X21117356Y-14513356D02*
X21117356Y-14442644D01*
X21046644Y-14442644D01*
X21046644Y-14513356D01*
X21117356Y-14513356D01*
X21371356Y-14513356D02*
X21371356Y-14442644D01*
X21300644Y-14442644D01*
X21300644Y-14513356D01*
X21371356Y-14513356D01*
X21625356Y-14513356D02*
X21625356Y-14442644D01*
X21554644Y-14442644D01*
X21554644Y-14513356D01*
X21625356Y-14513356D01*
X21879356Y-14513356D02*
X21879356Y-14442644D01*
X21808644Y-14442644D01*
X21808644Y-14513356D01*
X21879356Y-14513356D01*
X22133356Y-14513356D02*
X22133356Y-14442644D01*
X22062644Y-14442644D01*
X22062644Y-14513356D01*
X22133356Y-14513356D01*
X22387356Y-14513356D02*
X22387356Y-14442644D01*
X22316644Y-14442644D01*
X22316644Y-14513356D01*
X22387356Y-14513356D01*
X22641356Y-14513356D02*
X22641356Y-14442644D01*
X22570644Y-14442644D01*
X22570644Y-14513356D01*
X22641356Y-14513356D01*
X22895356Y-14513356D02*
X22895356Y-14442644D01*
X22824644Y-14442644D01*
X22824644Y-14513356D01*
X22895356Y-14513356D01*
X23149356Y-14513356D02*
X23149356Y-14442644D01*
X23078644Y-14442644D01*
X23078644Y-14513356D01*
X23149356Y-14513356D01*
X23403356Y-14513356D02*
X23403356Y-14442644D01*
X23332644Y-14442644D01*
X23332644Y-14513356D01*
X23403356Y-14513356D01*
X23657356Y-14513356D02*
X23657356Y-14442644D01*
X23586644Y-14442644D01*
X23586644Y-14513356D01*
X23657356Y-14513356D01*
X23911356Y-14513356D02*
X23911356Y-14442644D01*
X23840644Y-14442644D01*
X23840644Y-14513356D01*
X23911356Y-14513356D01*
X24165356Y-7909356D02*
X24165356Y-7838644D01*
X24094644Y-7838644D01*
X24094644Y-7909356D01*
X24165356Y-7909356D01*
X24165356Y-8163356D02*
X24165356Y-8092644D01*
X24094644Y-8092644D01*
X24094644Y-8163356D01*
X24165356Y-8163356D01*
X24165356Y-8417356D02*
X24165356Y-8346644D01*
X24094644Y-8346644D01*
X24094644Y-8417356D01*
X24165356Y-8417356D01*
X24165356Y-14513356D02*
X24165356Y-14442644D01*
X24094644Y-14442644D01*
X24094644Y-14513356D01*
X24165356Y-14513356D01*
D11*
X5325119Y-15154976D02*
X5325119Y-14954976D01*
X5325119Y-14954976D02*
X5372738Y-14954976D01*
X5372738Y-14954976D02*
X5401310Y-14964500D01*
X5401310Y-14964500D02*
X5420357Y-14983548D01*
X5420357Y-14983548D02*
X5429881Y-15002595D01*
X5429881Y-15002595D02*
X5439405Y-15040690D01*
X5439405Y-15040690D02*
X5439405Y-15069262D01*
X5439405Y-15069262D02*
X5429881Y-15107357D01*
X5429881Y-15107357D02*
X5420357Y-15126405D01*
X5420357Y-15126405D02*
X5401310Y-15145452D01*
X5401310Y-15145452D02*
X5372738Y-15154976D01*
X5372738Y-15154976D02*
X5325119Y-15154976D01*
X5525119Y-15154976D02*
X5525119Y-15021643D01*
X5525119Y-15059738D02*
X5534643Y-15040690D01*
X5534643Y-15040690D02*
X5544167Y-15031167D01*
X5544167Y-15031167D02*
X5563214Y-15021643D01*
X5563214Y-15021643D02*
X5582262Y-15021643D01*
X5648928Y-15154976D02*
X5648928Y-15021643D01*
X5648928Y-14954976D02*
X5639405Y-14964500D01*
X5639405Y-14964500D02*
X5648928Y-14974024D01*
X5648928Y-14974024D02*
X5658452Y-14964500D01*
X5658452Y-14964500D02*
X5648928Y-14954976D01*
X5648928Y-14954976D02*
X5648928Y-14974024D01*
X5772738Y-15154976D02*
X5753690Y-15145452D01*
X5753690Y-15145452D02*
X5744167Y-15126405D01*
X5744167Y-15126405D02*
X5744167Y-14954976D01*
X5877500Y-15154976D02*
X5858452Y-15145452D01*
X5858452Y-15145452D02*
X5848928Y-15126405D01*
X5848928Y-15126405D02*
X5848928Y-14954976D01*
X6073690Y-15154976D02*
X6073690Y-14954976D01*
X6073690Y-14954976D02*
X6140357Y-15097833D01*
X6140357Y-15097833D02*
X6207024Y-14954976D01*
X6207024Y-14954976D02*
X6207024Y-15154976D01*
X6387976Y-15154976D02*
X6387976Y-15050214D01*
X6387976Y-15050214D02*
X6378452Y-15031167D01*
X6378452Y-15031167D02*
X6359405Y-15021643D01*
X6359405Y-15021643D02*
X6321309Y-15021643D01*
X6321309Y-15021643D02*
X6302262Y-15031167D01*
X6387976Y-15145452D02*
X6368928Y-15154976D01*
X6368928Y-15154976D02*
X6321309Y-15154976D01*
X6321309Y-15154976D02*
X6302262Y-15145452D01*
X6302262Y-15145452D02*
X6292738Y-15126405D01*
X6292738Y-15126405D02*
X6292738Y-15107357D01*
X6292738Y-15107357D02*
X6302262Y-15088309D01*
X6302262Y-15088309D02*
X6321309Y-15078786D01*
X6321309Y-15078786D02*
X6368928Y-15078786D01*
X6368928Y-15078786D02*
X6387976Y-15069262D01*
X6483214Y-15021643D02*
X6483214Y-15221643D01*
X6483214Y-15031167D02*
X6502262Y-15021643D01*
X6502262Y-15021643D02*
X6540357Y-15021643D01*
X6540357Y-15021643D02*
X6559405Y-15031167D01*
X6559405Y-15031167D02*
X6568928Y-15040690D01*
X6568928Y-15040690D02*
X6578452Y-15059738D01*
X6578452Y-15059738D02*
X6578452Y-15116881D01*
X6578452Y-15116881D02*
X6568928Y-15135928D01*
X6568928Y-15135928D02*
X6559405Y-15145452D01*
X6559405Y-15145452D02*
X6540357Y-15154976D01*
X6540357Y-15154976D02*
X6502262Y-15154976D01*
X6502262Y-15154976D02*
X6483214Y-15145452D01*
X6664167Y-15135928D02*
X6673690Y-15145452D01*
X6673690Y-15145452D02*
X6664167Y-15154976D01*
X6664167Y-15154976D02*
X6654643Y-15145452D01*
X6654643Y-15145452D02*
X6664167Y-15135928D01*
X6664167Y-15135928D02*
X6664167Y-15154976D01*
X6664167Y-15031167D02*
X6673690Y-15040690D01*
X6673690Y-15040690D02*
X6664167Y-15050214D01*
X6664167Y-15050214D02*
X6654643Y-15040690D01*
X6654643Y-15040690D02*
X6664167Y-15031167D01*
X6664167Y-15031167D02*
X6664167Y-15050214D01*
D12*
X5039400Y-15482450D02*
X5077500Y-15520550D01*
X5077500Y-15482450D02*
X5039400Y-15520550D01*
D11*
X5363214Y-15374976D02*
X5382262Y-15374976D01*
X5382262Y-15374976D02*
X5401310Y-15384500D01*
X5401310Y-15384500D02*
X5410833Y-15394024D01*
X5410833Y-15394024D02*
X5420357Y-15413071D01*
X5420357Y-15413071D02*
X5429881Y-15451167D01*
X5429881Y-15451167D02*
X5429881Y-15498786D01*
X5429881Y-15498786D02*
X5420357Y-15536881D01*
X5420357Y-15536881D02*
X5410833Y-15555928D01*
X5410833Y-15555928D02*
X5401310Y-15565452D01*
X5401310Y-15565452D02*
X5382262Y-15574976D01*
X5382262Y-15574976D02*
X5363214Y-15574976D01*
X5363214Y-15574976D02*
X5344167Y-15565452D01*
X5344167Y-15565452D02*
X5334643Y-15555928D01*
X5334643Y-15555928D02*
X5325119Y-15536881D01*
X5325119Y-15536881D02*
X5315595Y-15498786D01*
X5315595Y-15498786D02*
X5315595Y-15451167D01*
X5315595Y-15451167D02*
X5325119Y-15413071D01*
X5325119Y-15413071D02*
X5334643Y-15394024D01*
X5334643Y-15394024D02*
X5344167Y-15384500D01*
X5344167Y-15384500D02*
X5363214Y-15374976D01*
X5515595Y-15555928D02*
X5525119Y-15565452D01*
X5525119Y-15565452D02*
X5515595Y-15574976D01*
X5515595Y-15574976D02*
X5506071Y-15565452D01*
X5506071Y-15565452D02*
X5515595Y-15555928D01*
X5515595Y-15555928D02*
X5515595Y-15574976D01*
X5591786Y-15374976D02*
X5715595Y-15374976D01*
X5715595Y-15374976D02*
X5648928Y-15451167D01*
X5648928Y-15451167D02*
X5677500Y-15451167D01*
X5677500Y-15451167D02*
X5696548Y-15460690D01*
X5696548Y-15460690D02*
X5706071Y-15470214D01*
X5706071Y-15470214D02*
X5715595Y-15489262D01*
X5715595Y-15489262D02*
X5715595Y-15536881D01*
X5715595Y-15536881D02*
X5706071Y-15555928D01*
X5706071Y-15555928D02*
X5696548Y-15565452D01*
X5696548Y-15565452D02*
X5677500Y-15574976D01*
X5677500Y-15574976D02*
X5620357Y-15574976D01*
X5620357Y-15574976D02*
X5601309Y-15565452D01*
X5601309Y-15565452D02*
X5591786Y-15555928D01*
X5829881Y-15460690D02*
X5810833Y-15451167D01*
X5810833Y-15451167D02*
X5801309Y-15441643D01*
X5801309Y-15441643D02*
X5791786Y-15422595D01*
X5791786Y-15422595D02*
X5791786Y-15413071D01*
X5791786Y-15413071D02*
X5801309Y-15394024D01*
X5801309Y-15394024D02*
X5810833Y-15384500D01*
X5810833Y-15384500D02*
X5829881Y-15374976D01*
X5829881Y-15374976D02*
X5867976Y-15374976D01*
X5867976Y-15374976D02*
X5887024Y-15384500D01*
X5887024Y-15384500D02*
X5896548Y-15394024D01*
X5896548Y-15394024D02*
X5906071Y-15413071D01*
X5906071Y-15413071D02*
X5906071Y-15422595D01*
X5906071Y-15422595D02*
X5896548Y-15441643D01*
X5896548Y-15441643D02*
X5887024Y-15451167D01*
X5887024Y-15451167D02*
X5867976Y-15460690D01*
X5867976Y-15460690D02*
X5829881Y-15460690D01*
X5829881Y-15460690D02*
X5810833Y-15470214D01*
X5810833Y-15470214D02*
X5801309Y-15479738D01*
X5801309Y-15479738D02*
X5791786Y-15498786D01*
X5791786Y-15498786D02*
X5791786Y-15536881D01*
X5791786Y-15536881D02*
X5801309Y-15555928D01*
X5801309Y-15555928D02*
X5810833Y-15565452D01*
X5810833Y-15565452D02*
X5829881Y-15574976D01*
X5829881Y-15574976D02*
X5867976Y-15574976D01*
X5867976Y-15574976D02*
X5887024Y-15565452D01*
X5887024Y-15565452D02*
X5896548Y-15555928D01*
X5896548Y-15555928D02*
X5906071Y-15536881D01*
X5906071Y-15536881D02*
X5906071Y-15498786D01*
X5906071Y-15498786D02*
X5896548Y-15479738D01*
X5896548Y-15479738D02*
X5887024Y-15470214D01*
X5887024Y-15470214D02*
X5867976Y-15460690D01*
X6096548Y-15574976D02*
X5982262Y-15574976D01*
X6039405Y-15574976D02*
X6039405Y-15374976D01*
X6039405Y-15374976D02*
X6020357Y-15403548D01*
X6020357Y-15403548D02*
X6001309Y-15422595D01*
X6001309Y-15422595D02*
X5982262Y-15432119D01*
X6182262Y-15574976D02*
X6182262Y-15441643D01*
X6182262Y-15460690D02*
X6191786Y-15451167D01*
X6191786Y-15451167D02*
X6210833Y-15441643D01*
X6210833Y-15441643D02*
X6239405Y-15441643D01*
X6239405Y-15441643D02*
X6258452Y-15451167D01*
X6258452Y-15451167D02*
X6267976Y-15470214D01*
X6267976Y-15470214D02*
X6267976Y-15574976D01*
X6267976Y-15470214D02*
X6277500Y-15451167D01*
X6277500Y-15451167D02*
X6296548Y-15441643D01*
X6296548Y-15441643D02*
X6325119Y-15441643D01*
X6325119Y-15441643D02*
X6344167Y-15451167D01*
X6344167Y-15451167D02*
X6353690Y-15470214D01*
X6353690Y-15470214D02*
X6353690Y-15574976D01*
X6448929Y-15574976D02*
X6448929Y-15441643D01*
X6448929Y-15460690D02*
X6458452Y-15451167D01*
X6458452Y-15451167D02*
X6477500Y-15441643D01*
X6477500Y-15441643D02*
X6506071Y-15441643D01*
X6506071Y-15441643D02*
X6525119Y-15451167D01*
X6525119Y-15451167D02*
X6534643Y-15470214D01*
X6534643Y-15470214D02*
X6534643Y-15574976D01*
X6534643Y-15470214D02*
X6544167Y-15451167D01*
X6544167Y-15451167D02*
X6563214Y-15441643D01*
X6563214Y-15441643D02*
X6591786Y-15441643D01*
X6591786Y-15441643D02*
X6610833Y-15451167D01*
X6610833Y-15451167D02*
X6620357Y-15470214D01*
X6620357Y-15470214D02*
X6620357Y-15574976D01*
X6978452Y-15365452D02*
X6807024Y-15622595D01*
X7203214Y-15374976D02*
X7222262Y-15374976D01*
X7222262Y-15374976D02*
X7241310Y-15384500D01*
X7241310Y-15384500D02*
X7250833Y-15394024D01*
X7250833Y-15394024D02*
X7260357Y-15413071D01*
X7260357Y-15413071D02*
X7269881Y-15451167D01*
X7269881Y-15451167D02*
X7269881Y-15498786D01*
X7269881Y-15498786D02*
X7260357Y-15536881D01*
X7260357Y-15536881D02*
X7250833Y-15555928D01*
X7250833Y-15555928D02*
X7241310Y-15565452D01*
X7241310Y-15565452D02*
X7222262Y-15574976D01*
X7222262Y-15574976D02*
X7203214Y-15574976D01*
X7203214Y-15574976D02*
X7184167Y-15565452D01*
X7184167Y-15565452D02*
X7174643Y-15555928D01*
X7174643Y-15555928D02*
X7165119Y-15536881D01*
X7165119Y-15536881D02*
X7155595Y-15498786D01*
X7155595Y-15498786D02*
X7155595Y-15451167D01*
X7155595Y-15451167D02*
X7165119Y-15413071D01*
X7165119Y-15413071D02*
X7174643Y-15394024D01*
X7174643Y-15394024D02*
X7184167Y-15384500D01*
X7184167Y-15384500D02*
X7203214Y-15374976D01*
X7355595Y-15555928D02*
X7365119Y-15565452D01*
X7365119Y-15565452D02*
X7355595Y-15574976D01*
X7355595Y-15574976D02*
X7346071Y-15565452D01*
X7346071Y-15565452D02*
X7355595Y-15555928D01*
X7355595Y-15555928D02*
X7355595Y-15574976D01*
X7488929Y-15374976D02*
X7507976Y-15374976D01*
X7507976Y-15374976D02*
X7527024Y-15384500D01*
X7527024Y-15384500D02*
X7536548Y-15394024D01*
X7536548Y-15394024D02*
X7546071Y-15413071D01*
X7546071Y-15413071D02*
X7555595Y-15451167D01*
X7555595Y-15451167D02*
X7555595Y-15498786D01*
X7555595Y-15498786D02*
X7546071Y-15536881D01*
X7546071Y-15536881D02*
X7536548Y-15555928D01*
X7536548Y-15555928D02*
X7527024Y-15565452D01*
X7527024Y-15565452D02*
X7507976Y-15574976D01*
X7507976Y-15574976D02*
X7488929Y-15574976D01*
X7488929Y-15574976D02*
X7469881Y-15565452D01*
X7469881Y-15565452D02*
X7460357Y-15555928D01*
X7460357Y-15555928D02*
X7450833Y-15536881D01*
X7450833Y-15536881D02*
X7441310Y-15498786D01*
X7441310Y-15498786D02*
X7441310Y-15451167D01*
X7441310Y-15451167D02*
X7450833Y-15413071D01*
X7450833Y-15413071D02*
X7460357Y-15394024D01*
X7460357Y-15394024D02*
X7469881Y-15384500D01*
X7469881Y-15384500D02*
X7488929Y-15374976D01*
X7746071Y-15574976D02*
X7631786Y-15574976D01*
X7688929Y-15574976D02*
X7688929Y-15374976D01*
X7688929Y-15374976D02*
X7669881Y-15403548D01*
X7669881Y-15403548D02*
X7650833Y-15422595D01*
X7650833Y-15422595D02*
X7631786Y-15432119D01*
X7927024Y-15374976D02*
X7831786Y-15374976D01*
X7831786Y-15374976D02*
X7822262Y-15470214D01*
X7822262Y-15470214D02*
X7831786Y-15460690D01*
X7831786Y-15460690D02*
X7850833Y-15451167D01*
X7850833Y-15451167D02*
X7898452Y-15451167D01*
X7898452Y-15451167D02*
X7917500Y-15460690D01*
X7917500Y-15460690D02*
X7927024Y-15470214D01*
X7927024Y-15470214D02*
X7936548Y-15489262D01*
X7936548Y-15489262D02*
X7936548Y-15536881D01*
X7936548Y-15536881D02*
X7927024Y-15555928D01*
X7927024Y-15555928D02*
X7917500Y-15565452D01*
X7917500Y-15565452D02*
X7898452Y-15574976D01*
X7898452Y-15574976D02*
X7850833Y-15574976D01*
X7850833Y-15574976D02*
X7831786Y-15565452D01*
X7831786Y-15565452D02*
X7822262Y-15555928D01*
X8060357Y-15374976D02*
X8079405Y-15374976D01*
X8079405Y-15374976D02*
X8098452Y-15384500D01*
X8098452Y-15384500D02*
X8107976Y-15394024D01*
X8107976Y-15394024D02*
X8117500Y-15413071D01*
X8117500Y-15413071D02*
X8127024Y-15451167D01*
X8127024Y-15451167D02*
X8127024Y-15498786D01*
X8127024Y-15498786D02*
X8117500Y-15536881D01*
X8117500Y-15536881D02*
X8107976Y-15555928D01*
X8107976Y-15555928D02*
X8098452Y-15565452D01*
X8098452Y-15565452D02*
X8079405Y-15574976D01*
X8079405Y-15574976D02*
X8060357Y-15574976D01*
X8060357Y-15574976D02*
X8041310Y-15565452D01*
X8041310Y-15565452D02*
X8031786Y-15555928D01*
X8031786Y-15555928D02*
X8022262Y-15536881D01*
X8022262Y-15536881D02*
X8012738Y-15498786D01*
X8012738Y-15498786D02*
X8012738Y-15451167D01*
X8012738Y-15451167D02*
X8022262Y-15413071D01*
X8022262Y-15413071D02*
X8031786Y-15394024D01*
X8031786Y-15394024D02*
X8041310Y-15384500D01*
X8041310Y-15384500D02*
X8060357Y-15374976D01*
X8203214Y-15374976D02*
X8203214Y-15413071D01*
X8279405Y-15374976D02*
X8279405Y-15413071D01*
X8542262Y-15651167D02*
X8532738Y-15641643D01*
X8532738Y-15641643D02*
X8513691Y-15613071D01*
X8513691Y-15613071D02*
X8504167Y-15594024D01*
X8504167Y-15594024D02*
X8494643Y-15565452D01*
X8494643Y-15565452D02*
X8485119Y-15517833D01*
X8485119Y-15517833D02*
X8485119Y-15479738D01*
X8485119Y-15479738D02*
X8494643Y-15432119D01*
X8494643Y-15432119D02*
X8504167Y-15403548D01*
X8504167Y-15403548D02*
X8513691Y-15384500D01*
X8513691Y-15384500D02*
X8532738Y-15355928D01*
X8532738Y-15355928D02*
X8542262Y-15346405D01*
X8608929Y-15394024D02*
X8618453Y-15384500D01*
X8618453Y-15384500D02*
X8637500Y-15374976D01*
X8637500Y-15374976D02*
X8685119Y-15374976D01*
X8685119Y-15374976D02*
X8704167Y-15384500D01*
X8704167Y-15384500D02*
X8713691Y-15394024D01*
X8713691Y-15394024D02*
X8723214Y-15413071D01*
X8723214Y-15413071D02*
X8723214Y-15432119D01*
X8723214Y-15432119D02*
X8713691Y-15460690D01*
X8713691Y-15460690D02*
X8599405Y-15574976D01*
X8599405Y-15574976D02*
X8723214Y-15574976D01*
X8894643Y-15441643D02*
X8894643Y-15574976D01*
X8847024Y-15365452D02*
X8799405Y-15508309D01*
X8799405Y-15508309D02*
X8923214Y-15508309D01*
X8980357Y-15374976D02*
X9113691Y-15374976D01*
X9113691Y-15374976D02*
X9027976Y-15574976D01*
X9309881Y-15574976D02*
X9309881Y-15374976D01*
X9395595Y-15574976D02*
X9395595Y-15470214D01*
X9395595Y-15470214D02*
X9386072Y-15451167D01*
X9386072Y-15451167D02*
X9367024Y-15441643D01*
X9367024Y-15441643D02*
X9338453Y-15441643D01*
X9338453Y-15441643D02*
X9319405Y-15451167D01*
X9319405Y-15451167D02*
X9309881Y-15460690D01*
X9519405Y-15574976D02*
X9500357Y-15565452D01*
X9500357Y-15565452D02*
X9490834Y-15555928D01*
X9490834Y-15555928D02*
X9481310Y-15536881D01*
X9481310Y-15536881D02*
X9481310Y-15479738D01*
X9481310Y-15479738D02*
X9490834Y-15460690D01*
X9490834Y-15460690D02*
X9500357Y-15451167D01*
X9500357Y-15451167D02*
X9519405Y-15441643D01*
X9519405Y-15441643D02*
X9547976Y-15441643D01*
X9547976Y-15441643D02*
X9567024Y-15451167D01*
X9567024Y-15451167D02*
X9576548Y-15460690D01*
X9576548Y-15460690D02*
X9586072Y-15479738D01*
X9586072Y-15479738D02*
X9586072Y-15536881D01*
X9586072Y-15536881D02*
X9576548Y-15555928D01*
X9576548Y-15555928D02*
X9567024Y-15565452D01*
X9567024Y-15565452D02*
X9547976Y-15574976D01*
X9547976Y-15574976D02*
X9519405Y-15574976D01*
X9700357Y-15574976D02*
X9681310Y-15565452D01*
X9681310Y-15565452D02*
X9671786Y-15546405D01*
X9671786Y-15546405D02*
X9671786Y-15374976D01*
X9852738Y-15565452D02*
X9833691Y-15574976D01*
X9833691Y-15574976D02*
X9795595Y-15574976D01*
X9795595Y-15574976D02*
X9776548Y-15565452D01*
X9776548Y-15565452D02*
X9767024Y-15546405D01*
X9767024Y-15546405D02*
X9767024Y-15470214D01*
X9767024Y-15470214D02*
X9776548Y-15451167D01*
X9776548Y-15451167D02*
X9795595Y-15441643D01*
X9795595Y-15441643D02*
X9833691Y-15441643D01*
X9833691Y-15441643D02*
X9852738Y-15451167D01*
X9852738Y-15451167D02*
X9862262Y-15470214D01*
X9862262Y-15470214D02*
X9862262Y-15489262D01*
X9862262Y-15489262D02*
X9767024Y-15508309D01*
X9938453Y-15565452D02*
X9957500Y-15574976D01*
X9957500Y-15574976D02*
X9995595Y-15574976D01*
X9995595Y-15574976D02*
X10014643Y-15565452D01*
X10014643Y-15565452D02*
X10024167Y-15546405D01*
X10024167Y-15546405D02*
X10024167Y-15536881D01*
X10024167Y-15536881D02*
X10014643Y-15517833D01*
X10014643Y-15517833D02*
X9995595Y-15508309D01*
X9995595Y-15508309D02*
X9967024Y-15508309D01*
X9967024Y-15508309D02*
X9947976Y-15498786D01*
X9947976Y-15498786D02*
X9938453Y-15479738D01*
X9938453Y-15479738D02*
X9938453Y-15470214D01*
X9938453Y-15470214D02*
X9947976Y-15451167D01*
X9947976Y-15451167D02*
X9967024Y-15441643D01*
X9967024Y-15441643D02*
X9995595Y-15441643D01*
X9995595Y-15441643D02*
X10014643Y-15451167D01*
X10090834Y-15651167D02*
X10100357Y-15641643D01*
X10100357Y-15641643D02*
X10119405Y-15613071D01*
X10119405Y-15613071D02*
X10128929Y-15594024D01*
X10128929Y-15594024D02*
X10138453Y-15565452D01*
X10138453Y-15565452D02*
X10147976Y-15517833D01*
X10147976Y-15517833D02*
X10147976Y-15479738D01*
X10147976Y-15479738D02*
X10138453Y-15432119D01*
X10138453Y-15432119D02*
X10128929Y-15403548D01*
X10128929Y-15403548D02*
X10119405Y-15384500D01*
X10119405Y-15384500D02*
X10100357Y-15355928D01*
X10100357Y-15355928D02*
X10090834Y-15346405D01*
D13*
X5077500Y-15765500D02*
G75*
G03*
X5077500Y-15765500I-40000J0D01*
G01*
D11*
X5363214Y-15638976D02*
X5382262Y-15638976D01*
X5382262Y-15638976D02*
X5401310Y-15648500D01*
X5401310Y-15648500D02*
X5410833Y-15658024D01*
X5410833Y-15658024D02*
X5420357Y-15677071D01*
X5420357Y-15677071D02*
X5429881Y-15715167D01*
X5429881Y-15715167D02*
X5429881Y-15762786D01*
X5429881Y-15762786D02*
X5420357Y-15800881D01*
X5420357Y-15800881D02*
X5410833Y-15819928D01*
X5410833Y-15819928D02*
X5401310Y-15829452D01*
X5401310Y-15829452D02*
X5382262Y-15838976D01*
X5382262Y-15838976D02*
X5363214Y-15838976D01*
X5363214Y-15838976D02*
X5344167Y-15829452D01*
X5344167Y-15829452D02*
X5334643Y-15819928D01*
X5334643Y-15819928D02*
X5325119Y-15800881D01*
X5325119Y-15800881D02*
X5315595Y-15762786D01*
X5315595Y-15762786D02*
X5315595Y-15715167D01*
X5315595Y-15715167D02*
X5325119Y-15677071D01*
X5325119Y-15677071D02*
X5334643Y-15658024D01*
X5334643Y-15658024D02*
X5344167Y-15648500D01*
X5344167Y-15648500D02*
X5363214Y-15638976D01*
X5515595Y-15819928D02*
X5525119Y-15829452D01*
X5525119Y-15829452D02*
X5515595Y-15838976D01*
X5515595Y-15838976D02*
X5506071Y-15829452D01*
X5506071Y-15829452D02*
X5515595Y-15819928D01*
X5515595Y-15819928D02*
X5515595Y-15838976D01*
X5639405Y-15724690D02*
X5620357Y-15715167D01*
X5620357Y-15715167D02*
X5610833Y-15705643D01*
X5610833Y-15705643D02*
X5601309Y-15686595D01*
X5601309Y-15686595D02*
X5601309Y-15677071D01*
X5601309Y-15677071D02*
X5610833Y-15658024D01*
X5610833Y-15658024D02*
X5620357Y-15648500D01*
X5620357Y-15648500D02*
X5639405Y-15638976D01*
X5639405Y-15638976D02*
X5677500Y-15638976D01*
X5677500Y-15638976D02*
X5696548Y-15648500D01*
X5696548Y-15648500D02*
X5706071Y-15658024D01*
X5706071Y-15658024D02*
X5715595Y-15677071D01*
X5715595Y-15677071D02*
X5715595Y-15686595D01*
X5715595Y-15686595D02*
X5706071Y-15705643D01*
X5706071Y-15705643D02*
X5696548Y-15715167D01*
X5696548Y-15715167D02*
X5677500Y-15724690D01*
X5677500Y-15724690D02*
X5639405Y-15724690D01*
X5639405Y-15724690D02*
X5620357Y-15734214D01*
X5620357Y-15734214D02*
X5610833Y-15743738D01*
X5610833Y-15743738D02*
X5601309Y-15762786D01*
X5601309Y-15762786D02*
X5601309Y-15800881D01*
X5601309Y-15800881D02*
X5610833Y-15819928D01*
X5610833Y-15819928D02*
X5620357Y-15829452D01*
X5620357Y-15829452D02*
X5639405Y-15838976D01*
X5639405Y-15838976D02*
X5677500Y-15838976D01*
X5677500Y-15838976D02*
X5696548Y-15829452D01*
X5696548Y-15829452D02*
X5706071Y-15819928D01*
X5706071Y-15819928D02*
X5715595Y-15800881D01*
X5715595Y-15800881D02*
X5715595Y-15762786D01*
X5715595Y-15762786D02*
X5706071Y-15743738D01*
X5706071Y-15743738D02*
X5696548Y-15734214D01*
X5696548Y-15734214D02*
X5677500Y-15724690D01*
X5839405Y-15638976D02*
X5858452Y-15638976D01*
X5858452Y-15638976D02*
X5877500Y-15648500D01*
X5877500Y-15648500D02*
X5887024Y-15658024D01*
X5887024Y-15658024D02*
X5896548Y-15677071D01*
X5896548Y-15677071D02*
X5906071Y-15715167D01*
X5906071Y-15715167D02*
X5906071Y-15762786D01*
X5906071Y-15762786D02*
X5896548Y-15800881D01*
X5896548Y-15800881D02*
X5887024Y-15819928D01*
X5887024Y-15819928D02*
X5877500Y-15829452D01*
X5877500Y-15829452D02*
X5858452Y-15838976D01*
X5858452Y-15838976D02*
X5839405Y-15838976D01*
X5839405Y-15838976D02*
X5820357Y-15829452D01*
X5820357Y-15829452D02*
X5810833Y-15819928D01*
X5810833Y-15819928D02*
X5801309Y-15800881D01*
X5801309Y-15800881D02*
X5791786Y-15762786D01*
X5791786Y-15762786D02*
X5791786Y-15715167D01*
X5791786Y-15715167D02*
X5801309Y-15677071D01*
X5801309Y-15677071D02*
X5810833Y-15658024D01*
X5810833Y-15658024D02*
X5820357Y-15648500D01*
X5820357Y-15648500D02*
X5839405Y-15638976D01*
X6029881Y-15638976D02*
X6048929Y-15638976D01*
X6048929Y-15638976D02*
X6067976Y-15648500D01*
X6067976Y-15648500D02*
X6077500Y-15658024D01*
X6077500Y-15658024D02*
X6087024Y-15677071D01*
X6087024Y-15677071D02*
X6096548Y-15715167D01*
X6096548Y-15715167D02*
X6096548Y-15762786D01*
X6096548Y-15762786D02*
X6087024Y-15800881D01*
X6087024Y-15800881D02*
X6077500Y-15819928D01*
X6077500Y-15819928D02*
X6067976Y-15829452D01*
X6067976Y-15829452D02*
X6048929Y-15838976D01*
X6048929Y-15838976D02*
X6029881Y-15838976D01*
X6029881Y-15838976D02*
X6010833Y-15829452D01*
X6010833Y-15829452D02*
X6001309Y-15819928D01*
X6001309Y-15819928D02*
X5991786Y-15800881D01*
X5991786Y-15800881D02*
X5982262Y-15762786D01*
X5982262Y-15762786D02*
X5982262Y-15715167D01*
X5982262Y-15715167D02*
X5991786Y-15677071D01*
X5991786Y-15677071D02*
X6001309Y-15658024D01*
X6001309Y-15658024D02*
X6010833Y-15648500D01*
X6010833Y-15648500D02*
X6029881Y-15638976D01*
X6182262Y-15838976D02*
X6182262Y-15705643D01*
X6182262Y-15724690D02*
X6191786Y-15715167D01*
X6191786Y-15715167D02*
X6210833Y-15705643D01*
X6210833Y-15705643D02*
X6239405Y-15705643D01*
X6239405Y-15705643D02*
X6258452Y-15715167D01*
X6258452Y-15715167D02*
X6267976Y-15734214D01*
X6267976Y-15734214D02*
X6267976Y-15838976D01*
X6267976Y-15734214D02*
X6277500Y-15715167D01*
X6277500Y-15715167D02*
X6296548Y-15705643D01*
X6296548Y-15705643D02*
X6325119Y-15705643D01*
X6325119Y-15705643D02*
X6344167Y-15715167D01*
X6344167Y-15715167D02*
X6353690Y-15734214D01*
X6353690Y-15734214D02*
X6353690Y-15838976D01*
X6448929Y-15838976D02*
X6448929Y-15705643D01*
X6448929Y-15724690D02*
X6458452Y-15715167D01*
X6458452Y-15715167D02*
X6477500Y-15705643D01*
X6477500Y-15705643D02*
X6506071Y-15705643D01*
X6506071Y-15705643D02*
X6525119Y-15715167D01*
X6525119Y-15715167D02*
X6534643Y-15734214D01*
X6534643Y-15734214D02*
X6534643Y-15838976D01*
X6534643Y-15734214D02*
X6544167Y-15715167D01*
X6544167Y-15715167D02*
X6563214Y-15705643D01*
X6563214Y-15705643D02*
X6591786Y-15705643D01*
X6591786Y-15705643D02*
X6610833Y-15715167D01*
X6610833Y-15715167D02*
X6620357Y-15734214D01*
X6620357Y-15734214D02*
X6620357Y-15838976D01*
X6978452Y-15629452D02*
X6807024Y-15886595D01*
X7203214Y-15638976D02*
X7222262Y-15638976D01*
X7222262Y-15638976D02*
X7241310Y-15648500D01*
X7241310Y-15648500D02*
X7250833Y-15658024D01*
X7250833Y-15658024D02*
X7260357Y-15677071D01*
X7260357Y-15677071D02*
X7269881Y-15715167D01*
X7269881Y-15715167D02*
X7269881Y-15762786D01*
X7269881Y-15762786D02*
X7260357Y-15800881D01*
X7260357Y-15800881D02*
X7250833Y-15819928D01*
X7250833Y-15819928D02*
X7241310Y-15829452D01*
X7241310Y-15829452D02*
X7222262Y-15838976D01*
X7222262Y-15838976D02*
X7203214Y-15838976D01*
X7203214Y-15838976D02*
X7184167Y-15829452D01*
X7184167Y-15829452D02*
X7174643Y-15819928D01*
X7174643Y-15819928D02*
X7165119Y-15800881D01*
X7165119Y-15800881D02*
X7155595Y-15762786D01*
X7155595Y-15762786D02*
X7155595Y-15715167D01*
X7155595Y-15715167D02*
X7165119Y-15677071D01*
X7165119Y-15677071D02*
X7174643Y-15658024D01*
X7174643Y-15658024D02*
X7184167Y-15648500D01*
X7184167Y-15648500D02*
X7203214Y-15638976D01*
X7355595Y-15819928D02*
X7365119Y-15829452D01*
X7365119Y-15829452D02*
X7355595Y-15838976D01*
X7355595Y-15838976D02*
X7346071Y-15829452D01*
X7346071Y-15829452D02*
X7355595Y-15819928D01*
X7355595Y-15819928D02*
X7355595Y-15838976D01*
X7488929Y-15638976D02*
X7507976Y-15638976D01*
X7507976Y-15638976D02*
X7527024Y-15648500D01*
X7527024Y-15648500D02*
X7536548Y-15658024D01*
X7536548Y-15658024D02*
X7546071Y-15677071D01*
X7546071Y-15677071D02*
X7555595Y-15715167D01*
X7555595Y-15715167D02*
X7555595Y-15762786D01*
X7555595Y-15762786D02*
X7546071Y-15800881D01*
X7546071Y-15800881D02*
X7536548Y-15819928D01*
X7536548Y-15819928D02*
X7527024Y-15829452D01*
X7527024Y-15829452D02*
X7507976Y-15838976D01*
X7507976Y-15838976D02*
X7488929Y-15838976D01*
X7488929Y-15838976D02*
X7469881Y-15829452D01*
X7469881Y-15829452D02*
X7460357Y-15819928D01*
X7460357Y-15819928D02*
X7450833Y-15800881D01*
X7450833Y-15800881D02*
X7441310Y-15762786D01*
X7441310Y-15762786D02*
X7441310Y-15715167D01*
X7441310Y-15715167D02*
X7450833Y-15677071D01*
X7450833Y-15677071D02*
X7460357Y-15658024D01*
X7460357Y-15658024D02*
X7469881Y-15648500D01*
X7469881Y-15648500D02*
X7488929Y-15638976D01*
X7622262Y-15638976D02*
X7746071Y-15638976D01*
X7746071Y-15638976D02*
X7679405Y-15715167D01*
X7679405Y-15715167D02*
X7707976Y-15715167D01*
X7707976Y-15715167D02*
X7727024Y-15724690D01*
X7727024Y-15724690D02*
X7736548Y-15734214D01*
X7736548Y-15734214D02*
X7746071Y-15753262D01*
X7746071Y-15753262D02*
X7746071Y-15800881D01*
X7746071Y-15800881D02*
X7736548Y-15819928D01*
X7736548Y-15819928D02*
X7727024Y-15829452D01*
X7727024Y-15829452D02*
X7707976Y-15838976D01*
X7707976Y-15838976D02*
X7650833Y-15838976D01*
X7650833Y-15838976D02*
X7631786Y-15829452D01*
X7631786Y-15829452D02*
X7622262Y-15819928D01*
X7936548Y-15838976D02*
X7822262Y-15838976D01*
X7879405Y-15838976D02*
X7879405Y-15638976D01*
X7879405Y-15638976D02*
X7860357Y-15667548D01*
X7860357Y-15667548D02*
X7841310Y-15686595D01*
X7841310Y-15686595D02*
X7822262Y-15696119D01*
X8117500Y-15638976D02*
X8022262Y-15638976D01*
X8022262Y-15638976D02*
X8012738Y-15734214D01*
X8012738Y-15734214D02*
X8022262Y-15724690D01*
X8022262Y-15724690D02*
X8041310Y-15715167D01*
X8041310Y-15715167D02*
X8088929Y-15715167D01*
X8088929Y-15715167D02*
X8107976Y-15724690D01*
X8107976Y-15724690D02*
X8117500Y-15734214D01*
X8117500Y-15734214D02*
X8127024Y-15753262D01*
X8127024Y-15753262D02*
X8127024Y-15800881D01*
X8127024Y-15800881D02*
X8117500Y-15819928D01*
X8117500Y-15819928D02*
X8107976Y-15829452D01*
X8107976Y-15829452D02*
X8088929Y-15838976D01*
X8088929Y-15838976D02*
X8041310Y-15838976D01*
X8041310Y-15838976D02*
X8022262Y-15829452D01*
X8022262Y-15829452D02*
X8012738Y-15819928D01*
X8203214Y-15638976D02*
X8203214Y-15677071D01*
X8279405Y-15638976D02*
X8279405Y-15677071D01*
X8542262Y-15915167D02*
X8532738Y-15905643D01*
X8532738Y-15905643D02*
X8513691Y-15877071D01*
X8513691Y-15877071D02*
X8504167Y-15858024D01*
X8504167Y-15858024D02*
X8494643Y-15829452D01*
X8494643Y-15829452D02*
X8485119Y-15781833D01*
X8485119Y-15781833D02*
X8485119Y-15743738D01*
X8485119Y-15743738D02*
X8494643Y-15696119D01*
X8494643Y-15696119D02*
X8504167Y-15667548D01*
X8504167Y-15667548D02*
X8513691Y-15648500D01*
X8513691Y-15648500D02*
X8532738Y-15619928D01*
X8532738Y-15619928D02*
X8542262Y-15610405D01*
X8599405Y-15638976D02*
X8723214Y-15638976D01*
X8723214Y-15638976D02*
X8656548Y-15715167D01*
X8656548Y-15715167D02*
X8685119Y-15715167D01*
X8685119Y-15715167D02*
X8704167Y-15724690D01*
X8704167Y-15724690D02*
X8713691Y-15734214D01*
X8713691Y-15734214D02*
X8723214Y-15753262D01*
X8723214Y-15753262D02*
X8723214Y-15800881D01*
X8723214Y-15800881D02*
X8713691Y-15819928D01*
X8713691Y-15819928D02*
X8704167Y-15829452D01*
X8704167Y-15829452D02*
X8685119Y-15838976D01*
X8685119Y-15838976D02*
X8627976Y-15838976D01*
X8627976Y-15838976D02*
X8608929Y-15829452D01*
X8608929Y-15829452D02*
X8599405Y-15819928D01*
X8894643Y-15705643D02*
X8894643Y-15838976D01*
X8847024Y-15629452D02*
X8799405Y-15772309D01*
X8799405Y-15772309D02*
X8923214Y-15772309D01*
X9027976Y-15724690D02*
X9008929Y-15715167D01*
X9008929Y-15715167D02*
X8999405Y-15705643D01*
X8999405Y-15705643D02*
X8989881Y-15686595D01*
X8989881Y-15686595D02*
X8989881Y-15677071D01*
X8989881Y-15677071D02*
X8999405Y-15658024D01*
X8999405Y-15658024D02*
X9008929Y-15648500D01*
X9008929Y-15648500D02*
X9027976Y-15638976D01*
X9027976Y-15638976D02*
X9066072Y-15638976D01*
X9066072Y-15638976D02*
X9085119Y-15648500D01*
X9085119Y-15648500D02*
X9094643Y-15658024D01*
X9094643Y-15658024D02*
X9104167Y-15677071D01*
X9104167Y-15677071D02*
X9104167Y-15686595D01*
X9104167Y-15686595D02*
X9094643Y-15705643D01*
X9094643Y-15705643D02*
X9085119Y-15715167D01*
X9085119Y-15715167D02*
X9066072Y-15724690D01*
X9066072Y-15724690D02*
X9027976Y-15724690D01*
X9027976Y-15724690D02*
X9008929Y-15734214D01*
X9008929Y-15734214D02*
X8999405Y-15743738D01*
X8999405Y-15743738D02*
X8989881Y-15762786D01*
X8989881Y-15762786D02*
X8989881Y-15800881D01*
X8989881Y-15800881D02*
X8999405Y-15819928D01*
X8999405Y-15819928D02*
X9008929Y-15829452D01*
X9008929Y-15829452D02*
X9027976Y-15838976D01*
X9027976Y-15838976D02*
X9066072Y-15838976D01*
X9066072Y-15838976D02*
X9085119Y-15829452D01*
X9085119Y-15829452D02*
X9094643Y-15819928D01*
X9094643Y-15819928D02*
X9104167Y-15800881D01*
X9104167Y-15800881D02*
X9104167Y-15762786D01*
X9104167Y-15762786D02*
X9094643Y-15743738D01*
X9094643Y-15743738D02*
X9085119Y-15734214D01*
X9085119Y-15734214D02*
X9066072Y-15724690D01*
X9309881Y-15838976D02*
X9309881Y-15638976D01*
X9395595Y-15838976D02*
X9395595Y-15734214D01*
X9395595Y-15734214D02*
X9386072Y-15715167D01*
X9386072Y-15715167D02*
X9367024Y-15705643D01*
X9367024Y-15705643D02*
X9338453Y-15705643D01*
X9338453Y-15705643D02*
X9319405Y-15715167D01*
X9319405Y-15715167D02*
X9309881Y-15724690D01*
X9519405Y-15838976D02*
X9500357Y-15829452D01*
X9500357Y-15829452D02*
X9490834Y-15819928D01*
X9490834Y-15819928D02*
X9481310Y-15800881D01*
X9481310Y-15800881D02*
X9481310Y-15743738D01*
X9481310Y-15743738D02*
X9490834Y-15724690D01*
X9490834Y-15724690D02*
X9500357Y-15715167D01*
X9500357Y-15715167D02*
X9519405Y-15705643D01*
X9519405Y-15705643D02*
X9547976Y-15705643D01*
X9547976Y-15705643D02*
X9567024Y-15715167D01*
X9567024Y-15715167D02*
X9576548Y-15724690D01*
X9576548Y-15724690D02*
X9586072Y-15743738D01*
X9586072Y-15743738D02*
X9586072Y-15800881D01*
X9586072Y-15800881D02*
X9576548Y-15819928D01*
X9576548Y-15819928D02*
X9567024Y-15829452D01*
X9567024Y-15829452D02*
X9547976Y-15838976D01*
X9547976Y-15838976D02*
X9519405Y-15838976D01*
X9700357Y-15838976D02*
X9681310Y-15829452D01*
X9681310Y-15829452D02*
X9671786Y-15810405D01*
X9671786Y-15810405D02*
X9671786Y-15638976D01*
X9852738Y-15829452D02*
X9833691Y-15838976D01*
X9833691Y-15838976D02*
X9795595Y-15838976D01*
X9795595Y-15838976D02*
X9776548Y-15829452D01*
X9776548Y-15829452D02*
X9767024Y-15810405D01*
X9767024Y-15810405D02*
X9767024Y-15734214D01*
X9767024Y-15734214D02*
X9776548Y-15715167D01*
X9776548Y-15715167D02*
X9795595Y-15705643D01*
X9795595Y-15705643D02*
X9833691Y-15705643D01*
X9833691Y-15705643D02*
X9852738Y-15715167D01*
X9852738Y-15715167D02*
X9862262Y-15734214D01*
X9862262Y-15734214D02*
X9862262Y-15753262D01*
X9862262Y-15753262D02*
X9767024Y-15772309D01*
X9938453Y-15829452D02*
X9957500Y-15838976D01*
X9957500Y-15838976D02*
X9995595Y-15838976D01*
X9995595Y-15838976D02*
X10014643Y-15829452D01*
X10014643Y-15829452D02*
X10024167Y-15810405D01*
X10024167Y-15810405D02*
X10024167Y-15800881D01*
X10024167Y-15800881D02*
X10014643Y-15781833D01*
X10014643Y-15781833D02*
X9995595Y-15772309D01*
X9995595Y-15772309D02*
X9967024Y-15772309D01*
X9967024Y-15772309D02*
X9947976Y-15762786D01*
X9947976Y-15762786D02*
X9938453Y-15743738D01*
X9938453Y-15743738D02*
X9938453Y-15734214D01*
X9938453Y-15734214D02*
X9947976Y-15715167D01*
X9947976Y-15715167D02*
X9967024Y-15705643D01*
X9967024Y-15705643D02*
X9995595Y-15705643D01*
X9995595Y-15705643D02*
X10014643Y-15715167D01*
X10090834Y-15915167D02*
X10100357Y-15905643D01*
X10100357Y-15905643D02*
X10119405Y-15877071D01*
X10119405Y-15877071D02*
X10128929Y-15858024D01*
X10128929Y-15858024D02*
X10138453Y-15829452D01*
X10138453Y-15829452D02*
X10147976Y-15781833D01*
X10147976Y-15781833D02*
X10147976Y-15743738D01*
X10147976Y-15743738D02*
X10138453Y-15696119D01*
X10138453Y-15696119D02*
X10128929Y-15667548D01*
X10128929Y-15667548D02*
X10119405Y-15648500D01*
X10119405Y-15648500D02*
X10100357Y-15619928D01*
X10100357Y-15619928D02*
X10090834Y-15610405D01*
D14*
X5032500Y-15984500D02*
X5032500Y-16074500D01*
X4987500Y-16029500D02*
X5077500Y-16029500D01*
D11*
X5363214Y-15902976D02*
X5382262Y-15902976D01*
X5382262Y-15902976D02*
X5401310Y-15912500D01*
X5401310Y-15912500D02*
X5410833Y-15922024D01*
X5410833Y-15922024D02*
X5420357Y-15941071D01*
X5420357Y-15941071D02*
X5429881Y-15979167D01*
X5429881Y-15979167D02*
X5429881Y-16026786D01*
X5429881Y-16026786D02*
X5420357Y-16064881D01*
X5420357Y-16064881D02*
X5410833Y-16083928D01*
X5410833Y-16083928D02*
X5401310Y-16093452D01*
X5401310Y-16093452D02*
X5382262Y-16102976D01*
X5382262Y-16102976D02*
X5363214Y-16102976D01*
X5363214Y-16102976D02*
X5344167Y-16093452D01*
X5344167Y-16093452D02*
X5334643Y-16083928D01*
X5334643Y-16083928D02*
X5325119Y-16064881D01*
X5325119Y-16064881D02*
X5315595Y-16026786D01*
X5315595Y-16026786D02*
X5315595Y-15979167D01*
X5315595Y-15979167D02*
X5325119Y-15941071D01*
X5325119Y-15941071D02*
X5334643Y-15922024D01*
X5334643Y-15922024D02*
X5344167Y-15912500D01*
X5344167Y-15912500D02*
X5363214Y-15902976D01*
X5515595Y-16083928D02*
X5525119Y-16093452D01*
X5525119Y-16093452D02*
X5515595Y-16102976D01*
X5515595Y-16102976D02*
X5506071Y-16093452D01*
X5506071Y-16093452D02*
X5515595Y-16083928D01*
X5515595Y-16083928D02*
X5515595Y-16102976D01*
X5620357Y-16102976D02*
X5658452Y-16102976D01*
X5658452Y-16102976D02*
X5677500Y-16093452D01*
X5677500Y-16093452D02*
X5687024Y-16083928D01*
X5687024Y-16083928D02*
X5706071Y-16055357D01*
X5706071Y-16055357D02*
X5715595Y-16017262D01*
X5715595Y-16017262D02*
X5715595Y-15941071D01*
X5715595Y-15941071D02*
X5706071Y-15922024D01*
X5706071Y-15922024D02*
X5696548Y-15912500D01*
X5696548Y-15912500D02*
X5677500Y-15902976D01*
X5677500Y-15902976D02*
X5639405Y-15902976D01*
X5639405Y-15902976D02*
X5620357Y-15912500D01*
X5620357Y-15912500D02*
X5610833Y-15922024D01*
X5610833Y-15922024D02*
X5601309Y-15941071D01*
X5601309Y-15941071D02*
X5601309Y-15988690D01*
X5601309Y-15988690D02*
X5610833Y-16007738D01*
X5610833Y-16007738D02*
X5620357Y-16017262D01*
X5620357Y-16017262D02*
X5639405Y-16026786D01*
X5639405Y-16026786D02*
X5677500Y-16026786D01*
X5677500Y-16026786D02*
X5696548Y-16017262D01*
X5696548Y-16017262D02*
X5706071Y-16007738D01*
X5706071Y-16007738D02*
X5715595Y-15988690D01*
X5839405Y-15902976D02*
X5858452Y-15902976D01*
X5858452Y-15902976D02*
X5877500Y-15912500D01*
X5877500Y-15912500D02*
X5887024Y-15922024D01*
X5887024Y-15922024D02*
X5896548Y-15941071D01*
X5896548Y-15941071D02*
X5906071Y-15979167D01*
X5906071Y-15979167D02*
X5906071Y-16026786D01*
X5906071Y-16026786D02*
X5896548Y-16064881D01*
X5896548Y-16064881D02*
X5887024Y-16083928D01*
X5887024Y-16083928D02*
X5877500Y-16093452D01*
X5877500Y-16093452D02*
X5858452Y-16102976D01*
X5858452Y-16102976D02*
X5839405Y-16102976D01*
X5839405Y-16102976D02*
X5820357Y-16093452D01*
X5820357Y-16093452D02*
X5810833Y-16083928D01*
X5810833Y-16083928D02*
X5801309Y-16064881D01*
X5801309Y-16064881D02*
X5791786Y-16026786D01*
X5791786Y-16026786D02*
X5791786Y-15979167D01*
X5791786Y-15979167D02*
X5801309Y-15941071D01*
X5801309Y-15941071D02*
X5810833Y-15922024D01*
X5810833Y-15922024D02*
X5820357Y-15912500D01*
X5820357Y-15912500D02*
X5839405Y-15902976D01*
X6029881Y-15902976D02*
X6048929Y-15902976D01*
X6048929Y-15902976D02*
X6067976Y-15912500D01*
X6067976Y-15912500D02*
X6077500Y-15922024D01*
X6077500Y-15922024D02*
X6087024Y-15941071D01*
X6087024Y-15941071D02*
X6096548Y-15979167D01*
X6096548Y-15979167D02*
X6096548Y-16026786D01*
X6096548Y-16026786D02*
X6087024Y-16064881D01*
X6087024Y-16064881D02*
X6077500Y-16083928D01*
X6077500Y-16083928D02*
X6067976Y-16093452D01*
X6067976Y-16093452D02*
X6048929Y-16102976D01*
X6048929Y-16102976D02*
X6029881Y-16102976D01*
X6029881Y-16102976D02*
X6010833Y-16093452D01*
X6010833Y-16093452D02*
X6001309Y-16083928D01*
X6001309Y-16083928D02*
X5991786Y-16064881D01*
X5991786Y-16064881D02*
X5982262Y-16026786D01*
X5982262Y-16026786D02*
X5982262Y-15979167D01*
X5982262Y-15979167D02*
X5991786Y-15941071D01*
X5991786Y-15941071D02*
X6001309Y-15922024D01*
X6001309Y-15922024D02*
X6010833Y-15912500D01*
X6010833Y-15912500D02*
X6029881Y-15902976D01*
X6182262Y-16102976D02*
X6182262Y-15969643D01*
X6182262Y-15988690D02*
X6191786Y-15979167D01*
X6191786Y-15979167D02*
X6210833Y-15969643D01*
X6210833Y-15969643D02*
X6239405Y-15969643D01*
X6239405Y-15969643D02*
X6258452Y-15979167D01*
X6258452Y-15979167D02*
X6267976Y-15998214D01*
X6267976Y-15998214D02*
X6267976Y-16102976D01*
X6267976Y-15998214D02*
X6277500Y-15979167D01*
X6277500Y-15979167D02*
X6296548Y-15969643D01*
X6296548Y-15969643D02*
X6325119Y-15969643D01*
X6325119Y-15969643D02*
X6344167Y-15979167D01*
X6344167Y-15979167D02*
X6353690Y-15998214D01*
X6353690Y-15998214D02*
X6353690Y-16102976D01*
X6448929Y-16102976D02*
X6448929Y-15969643D01*
X6448929Y-15988690D02*
X6458452Y-15979167D01*
X6458452Y-15979167D02*
X6477500Y-15969643D01*
X6477500Y-15969643D02*
X6506071Y-15969643D01*
X6506071Y-15969643D02*
X6525119Y-15979167D01*
X6525119Y-15979167D02*
X6534643Y-15998214D01*
X6534643Y-15998214D02*
X6534643Y-16102976D01*
X6534643Y-15998214D02*
X6544167Y-15979167D01*
X6544167Y-15979167D02*
X6563214Y-15969643D01*
X6563214Y-15969643D02*
X6591786Y-15969643D01*
X6591786Y-15969643D02*
X6610833Y-15979167D01*
X6610833Y-15979167D02*
X6620357Y-15998214D01*
X6620357Y-15998214D02*
X6620357Y-16102976D01*
X6978452Y-15893452D02*
X6807024Y-16150595D01*
X7203214Y-15902976D02*
X7222262Y-15902976D01*
X7222262Y-15902976D02*
X7241310Y-15912500D01*
X7241310Y-15912500D02*
X7250833Y-15922024D01*
X7250833Y-15922024D02*
X7260357Y-15941071D01*
X7260357Y-15941071D02*
X7269881Y-15979167D01*
X7269881Y-15979167D02*
X7269881Y-16026786D01*
X7269881Y-16026786D02*
X7260357Y-16064881D01*
X7260357Y-16064881D02*
X7250833Y-16083928D01*
X7250833Y-16083928D02*
X7241310Y-16093452D01*
X7241310Y-16093452D02*
X7222262Y-16102976D01*
X7222262Y-16102976D02*
X7203214Y-16102976D01*
X7203214Y-16102976D02*
X7184167Y-16093452D01*
X7184167Y-16093452D02*
X7174643Y-16083928D01*
X7174643Y-16083928D02*
X7165119Y-16064881D01*
X7165119Y-16064881D02*
X7155595Y-16026786D01*
X7155595Y-16026786D02*
X7155595Y-15979167D01*
X7155595Y-15979167D02*
X7165119Y-15941071D01*
X7165119Y-15941071D02*
X7174643Y-15922024D01*
X7174643Y-15922024D02*
X7184167Y-15912500D01*
X7184167Y-15912500D02*
X7203214Y-15902976D01*
X7355595Y-16083928D02*
X7365119Y-16093452D01*
X7365119Y-16093452D02*
X7355595Y-16102976D01*
X7355595Y-16102976D02*
X7346071Y-16093452D01*
X7346071Y-16093452D02*
X7355595Y-16083928D01*
X7355595Y-16083928D02*
X7355595Y-16102976D01*
X7488929Y-15902976D02*
X7507976Y-15902976D01*
X7507976Y-15902976D02*
X7527024Y-15912500D01*
X7527024Y-15912500D02*
X7536548Y-15922024D01*
X7536548Y-15922024D02*
X7546071Y-15941071D01*
X7546071Y-15941071D02*
X7555595Y-15979167D01*
X7555595Y-15979167D02*
X7555595Y-16026786D01*
X7555595Y-16026786D02*
X7546071Y-16064881D01*
X7546071Y-16064881D02*
X7536548Y-16083928D01*
X7536548Y-16083928D02*
X7527024Y-16093452D01*
X7527024Y-16093452D02*
X7507976Y-16102976D01*
X7507976Y-16102976D02*
X7488929Y-16102976D01*
X7488929Y-16102976D02*
X7469881Y-16093452D01*
X7469881Y-16093452D02*
X7460357Y-16083928D01*
X7460357Y-16083928D02*
X7450833Y-16064881D01*
X7450833Y-16064881D02*
X7441310Y-16026786D01*
X7441310Y-16026786D02*
X7441310Y-15979167D01*
X7441310Y-15979167D02*
X7450833Y-15941071D01*
X7450833Y-15941071D02*
X7460357Y-15922024D01*
X7460357Y-15922024D02*
X7469881Y-15912500D01*
X7469881Y-15912500D02*
X7488929Y-15902976D01*
X7622262Y-15902976D02*
X7746071Y-15902976D01*
X7746071Y-15902976D02*
X7679405Y-15979167D01*
X7679405Y-15979167D02*
X7707976Y-15979167D01*
X7707976Y-15979167D02*
X7727024Y-15988690D01*
X7727024Y-15988690D02*
X7736548Y-15998214D01*
X7736548Y-15998214D02*
X7746071Y-16017262D01*
X7746071Y-16017262D02*
X7746071Y-16064881D01*
X7746071Y-16064881D02*
X7736548Y-16083928D01*
X7736548Y-16083928D02*
X7727024Y-16093452D01*
X7727024Y-16093452D02*
X7707976Y-16102976D01*
X7707976Y-16102976D02*
X7650833Y-16102976D01*
X7650833Y-16102976D02*
X7631786Y-16093452D01*
X7631786Y-16093452D02*
X7622262Y-16083928D01*
X7927024Y-15902976D02*
X7831786Y-15902976D01*
X7831786Y-15902976D02*
X7822262Y-15998214D01*
X7822262Y-15998214D02*
X7831786Y-15988690D01*
X7831786Y-15988690D02*
X7850833Y-15979167D01*
X7850833Y-15979167D02*
X7898452Y-15979167D01*
X7898452Y-15979167D02*
X7917500Y-15988690D01*
X7917500Y-15988690D02*
X7927024Y-15998214D01*
X7927024Y-15998214D02*
X7936548Y-16017262D01*
X7936548Y-16017262D02*
X7936548Y-16064881D01*
X7936548Y-16064881D02*
X7927024Y-16083928D01*
X7927024Y-16083928D02*
X7917500Y-16093452D01*
X7917500Y-16093452D02*
X7898452Y-16102976D01*
X7898452Y-16102976D02*
X7850833Y-16102976D01*
X7850833Y-16102976D02*
X7831786Y-16093452D01*
X7831786Y-16093452D02*
X7822262Y-16083928D01*
X8107976Y-15969643D02*
X8107976Y-16102976D01*
X8060357Y-15893452D02*
X8012738Y-16036309D01*
X8012738Y-16036309D02*
X8136548Y-16036309D01*
X8203214Y-15902976D02*
X8203214Y-15941071D01*
X8279405Y-15902976D02*
X8279405Y-15941071D01*
X8542262Y-16179167D02*
X8532738Y-16169643D01*
X8532738Y-16169643D02*
X8513691Y-16141071D01*
X8513691Y-16141071D02*
X8504167Y-16122024D01*
X8504167Y-16122024D02*
X8494643Y-16093452D01*
X8494643Y-16093452D02*
X8485119Y-16045833D01*
X8485119Y-16045833D02*
X8485119Y-16007738D01*
X8485119Y-16007738D02*
X8494643Y-15960119D01*
X8494643Y-15960119D02*
X8504167Y-15931548D01*
X8504167Y-15931548D02*
X8513691Y-15912500D01*
X8513691Y-15912500D02*
X8532738Y-15883928D01*
X8532738Y-15883928D02*
X8542262Y-15874405D01*
X8723214Y-16102976D02*
X8608929Y-16102976D01*
X8666072Y-16102976D02*
X8666072Y-15902976D01*
X8666072Y-15902976D02*
X8647024Y-15931548D01*
X8647024Y-15931548D02*
X8627976Y-15950595D01*
X8627976Y-15950595D02*
X8608929Y-15960119D01*
X8894643Y-15902976D02*
X8856548Y-15902976D01*
X8856548Y-15902976D02*
X8837500Y-15912500D01*
X8837500Y-15912500D02*
X8827976Y-15922024D01*
X8827976Y-15922024D02*
X8808929Y-15950595D01*
X8808929Y-15950595D02*
X8799405Y-15988690D01*
X8799405Y-15988690D02*
X8799405Y-16064881D01*
X8799405Y-16064881D02*
X8808929Y-16083928D01*
X8808929Y-16083928D02*
X8818453Y-16093452D01*
X8818453Y-16093452D02*
X8837500Y-16102976D01*
X8837500Y-16102976D02*
X8875595Y-16102976D01*
X8875595Y-16102976D02*
X8894643Y-16093452D01*
X8894643Y-16093452D02*
X8904167Y-16083928D01*
X8904167Y-16083928D02*
X8913691Y-16064881D01*
X8913691Y-16064881D02*
X8913691Y-16017262D01*
X8913691Y-16017262D02*
X8904167Y-15998214D01*
X8904167Y-15998214D02*
X8894643Y-15988690D01*
X8894643Y-15988690D02*
X8875595Y-15979167D01*
X8875595Y-15979167D02*
X8837500Y-15979167D01*
X8837500Y-15979167D02*
X8818453Y-15988690D01*
X8818453Y-15988690D02*
X8808929Y-15998214D01*
X8808929Y-15998214D02*
X8799405Y-16017262D01*
X9119405Y-16102976D02*
X9119405Y-15902976D01*
X9205119Y-16102976D02*
X9205119Y-15998214D01*
X9205119Y-15998214D02*
X9195595Y-15979167D01*
X9195595Y-15979167D02*
X9176548Y-15969643D01*
X9176548Y-15969643D02*
X9147976Y-15969643D01*
X9147976Y-15969643D02*
X9128929Y-15979167D01*
X9128929Y-15979167D02*
X9119405Y-15988690D01*
X9328929Y-16102976D02*
X9309881Y-16093452D01*
X9309881Y-16093452D02*
X9300357Y-16083928D01*
X9300357Y-16083928D02*
X9290834Y-16064881D01*
X9290834Y-16064881D02*
X9290834Y-16007738D01*
X9290834Y-16007738D02*
X9300357Y-15988690D01*
X9300357Y-15988690D02*
X9309881Y-15979167D01*
X9309881Y-15979167D02*
X9328929Y-15969643D01*
X9328929Y-15969643D02*
X9357500Y-15969643D01*
X9357500Y-15969643D02*
X9376548Y-15979167D01*
X9376548Y-15979167D02*
X9386072Y-15988690D01*
X9386072Y-15988690D02*
X9395595Y-16007738D01*
X9395595Y-16007738D02*
X9395595Y-16064881D01*
X9395595Y-16064881D02*
X9386072Y-16083928D01*
X9386072Y-16083928D02*
X9376548Y-16093452D01*
X9376548Y-16093452D02*
X9357500Y-16102976D01*
X9357500Y-16102976D02*
X9328929Y-16102976D01*
X9509881Y-16102976D02*
X9490834Y-16093452D01*
X9490834Y-16093452D02*
X9481310Y-16074405D01*
X9481310Y-16074405D02*
X9481310Y-15902976D01*
X9662262Y-16093452D02*
X9643215Y-16102976D01*
X9643215Y-16102976D02*
X9605119Y-16102976D01*
X9605119Y-16102976D02*
X9586072Y-16093452D01*
X9586072Y-16093452D02*
X9576548Y-16074405D01*
X9576548Y-16074405D02*
X9576548Y-15998214D01*
X9576548Y-15998214D02*
X9586072Y-15979167D01*
X9586072Y-15979167D02*
X9605119Y-15969643D01*
X9605119Y-15969643D02*
X9643215Y-15969643D01*
X9643215Y-15969643D02*
X9662262Y-15979167D01*
X9662262Y-15979167D02*
X9671786Y-15998214D01*
X9671786Y-15998214D02*
X9671786Y-16017262D01*
X9671786Y-16017262D02*
X9576548Y-16036309D01*
X9747976Y-16093452D02*
X9767024Y-16102976D01*
X9767024Y-16102976D02*
X9805119Y-16102976D01*
X9805119Y-16102976D02*
X9824167Y-16093452D01*
X9824167Y-16093452D02*
X9833691Y-16074405D01*
X9833691Y-16074405D02*
X9833691Y-16064881D01*
X9833691Y-16064881D02*
X9824167Y-16045833D01*
X9824167Y-16045833D02*
X9805119Y-16036309D01*
X9805119Y-16036309D02*
X9776548Y-16036309D01*
X9776548Y-16036309D02*
X9757500Y-16026786D01*
X9757500Y-16026786D02*
X9747976Y-16007738D01*
X9747976Y-16007738D02*
X9747976Y-15998214D01*
X9747976Y-15998214D02*
X9757500Y-15979167D01*
X9757500Y-15979167D02*
X9776548Y-15969643D01*
X9776548Y-15969643D02*
X9805119Y-15969643D01*
X9805119Y-15969643D02*
X9824167Y-15979167D01*
X9900357Y-16179167D02*
X9909881Y-16169643D01*
X9909881Y-16169643D02*
X9928929Y-16141071D01*
X9928929Y-16141071D02*
X9938453Y-16122024D01*
X9938453Y-16122024D02*
X9947976Y-16093452D01*
X9947976Y-16093452D02*
X9957500Y-16045833D01*
X9957500Y-16045833D02*
X9957500Y-16007738D01*
X9957500Y-16007738D02*
X9947976Y-15960119D01*
X9947976Y-15960119D02*
X9938453Y-15931548D01*
X9938453Y-15931548D02*
X9928929Y-15912500D01*
X9928929Y-15912500D02*
X9909881Y-15883928D01*
X9909881Y-15883928D02*
X9900357Y-15874405D01*
D15*
X5062856Y-16328856D02*
X5062856Y-16258144D01*
X4992144Y-16258144D01*
X4992144Y-16328856D01*
X5062856Y-16328856D01*
D11*
X5429881Y-16366976D02*
X5315595Y-16366976D01*
X5372738Y-16366976D02*
X5372738Y-16166976D01*
X5372738Y-16166976D02*
X5353690Y-16195548D01*
X5353690Y-16195548D02*
X5334643Y-16214595D01*
X5334643Y-16214595D02*
X5315595Y-16224119D01*
X5515595Y-16347928D02*
X5525119Y-16357452D01*
X5525119Y-16357452D02*
X5515595Y-16366976D01*
X5515595Y-16366976D02*
X5506071Y-16357452D01*
X5506071Y-16357452D02*
X5515595Y-16347928D01*
X5515595Y-16347928D02*
X5515595Y-16366976D01*
X5648928Y-16166976D02*
X5667976Y-16166976D01*
X5667976Y-16166976D02*
X5687024Y-16176500D01*
X5687024Y-16176500D02*
X5696548Y-16186024D01*
X5696548Y-16186024D02*
X5706071Y-16205071D01*
X5706071Y-16205071D02*
X5715595Y-16243167D01*
X5715595Y-16243167D02*
X5715595Y-16290786D01*
X5715595Y-16290786D02*
X5706071Y-16328881D01*
X5706071Y-16328881D02*
X5696548Y-16347928D01*
X5696548Y-16347928D02*
X5687024Y-16357452D01*
X5687024Y-16357452D02*
X5667976Y-16366976D01*
X5667976Y-16366976D02*
X5648928Y-16366976D01*
X5648928Y-16366976D02*
X5629881Y-16357452D01*
X5629881Y-16357452D02*
X5620357Y-16347928D01*
X5620357Y-16347928D02*
X5610833Y-16328881D01*
X5610833Y-16328881D02*
X5601309Y-16290786D01*
X5601309Y-16290786D02*
X5601309Y-16243167D01*
X5601309Y-16243167D02*
X5610833Y-16205071D01*
X5610833Y-16205071D02*
X5620357Y-16186024D01*
X5620357Y-16186024D02*
X5629881Y-16176500D01*
X5629881Y-16176500D02*
X5648928Y-16166976D01*
X5839405Y-16166976D02*
X5858452Y-16166976D01*
X5858452Y-16166976D02*
X5877500Y-16176500D01*
X5877500Y-16176500D02*
X5887024Y-16186024D01*
X5887024Y-16186024D02*
X5896548Y-16205071D01*
X5896548Y-16205071D02*
X5906071Y-16243167D01*
X5906071Y-16243167D02*
X5906071Y-16290786D01*
X5906071Y-16290786D02*
X5896548Y-16328881D01*
X5896548Y-16328881D02*
X5887024Y-16347928D01*
X5887024Y-16347928D02*
X5877500Y-16357452D01*
X5877500Y-16357452D02*
X5858452Y-16366976D01*
X5858452Y-16366976D02*
X5839405Y-16366976D01*
X5839405Y-16366976D02*
X5820357Y-16357452D01*
X5820357Y-16357452D02*
X5810833Y-16347928D01*
X5810833Y-16347928D02*
X5801309Y-16328881D01*
X5801309Y-16328881D02*
X5791786Y-16290786D01*
X5791786Y-16290786D02*
X5791786Y-16243167D01*
X5791786Y-16243167D02*
X5801309Y-16205071D01*
X5801309Y-16205071D02*
X5810833Y-16186024D01*
X5810833Y-16186024D02*
X5820357Y-16176500D01*
X5820357Y-16176500D02*
X5839405Y-16166976D01*
X6029881Y-16166976D02*
X6048929Y-16166976D01*
X6048929Y-16166976D02*
X6067976Y-16176500D01*
X6067976Y-16176500D02*
X6077500Y-16186024D01*
X6077500Y-16186024D02*
X6087024Y-16205071D01*
X6087024Y-16205071D02*
X6096548Y-16243167D01*
X6096548Y-16243167D02*
X6096548Y-16290786D01*
X6096548Y-16290786D02*
X6087024Y-16328881D01*
X6087024Y-16328881D02*
X6077500Y-16347928D01*
X6077500Y-16347928D02*
X6067976Y-16357452D01*
X6067976Y-16357452D02*
X6048929Y-16366976D01*
X6048929Y-16366976D02*
X6029881Y-16366976D01*
X6029881Y-16366976D02*
X6010833Y-16357452D01*
X6010833Y-16357452D02*
X6001309Y-16347928D01*
X6001309Y-16347928D02*
X5991786Y-16328881D01*
X5991786Y-16328881D02*
X5982262Y-16290786D01*
X5982262Y-16290786D02*
X5982262Y-16243167D01*
X5982262Y-16243167D02*
X5991786Y-16205071D01*
X5991786Y-16205071D02*
X6001309Y-16186024D01*
X6001309Y-16186024D02*
X6010833Y-16176500D01*
X6010833Y-16176500D02*
X6029881Y-16166976D01*
X6182262Y-16366976D02*
X6182262Y-16233643D01*
X6182262Y-16252690D02*
X6191786Y-16243167D01*
X6191786Y-16243167D02*
X6210833Y-16233643D01*
X6210833Y-16233643D02*
X6239405Y-16233643D01*
X6239405Y-16233643D02*
X6258452Y-16243167D01*
X6258452Y-16243167D02*
X6267976Y-16262214D01*
X6267976Y-16262214D02*
X6267976Y-16366976D01*
X6267976Y-16262214D02*
X6277500Y-16243167D01*
X6277500Y-16243167D02*
X6296548Y-16233643D01*
X6296548Y-16233643D02*
X6325119Y-16233643D01*
X6325119Y-16233643D02*
X6344167Y-16243167D01*
X6344167Y-16243167D02*
X6353690Y-16262214D01*
X6353690Y-16262214D02*
X6353690Y-16366976D01*
X6448929Y-16366976D02*
X6448929Y-16233643D01*
X6448929Y-16252690D02*
X6458452Y-16243167D01*
X6458452Y-16243167D02*
X6477500Y-16233643D01*
X6477500Y-16233643D02*
X6506071Y-16233643D01*
X6506071Y-16233643D02*
X6525119Y-16243167D01*
X6525119Y-16243167D02*
X6534643Y-16262214D01*
X6534643Y-16262214D02*
X6534643Y-16366976D01*
X6534643Y-16262214D02*
X6544167Y-16243167D01*
X6544167Y-16243167D02*
X6563214Y-16233643D01*
X6563214Y-16233643D02*
X6591786Y-16233643D01*
X6591786Y-16233643D02*
X6610833Y-16243167D01*
X6610833Y-16243167D02*
X6620357Y-16262214D01*
X6620357Y-16262214D02*
X6620357Y-16366976D01*
X6978452Y-16157452D02*
X6807024Y-16414595D01*
X7203214Y-16166976D02*
X7222262Y-16166976D01*
X7222262Y-16166976D02*
X7241310Y-16176500D01*
X7241310Y-16176500D02*
X7250833Y-16186024D01*
X7250833Y-16186024D02*
X7260357Y-16205071D01*
X7260357Y-16205071D02*
X7269881Y-16243167D01*
X7269881Y-16243167D02*
X7269881Y-16290786D01*
X7269881Y-16290786D02*
X7260357Y-16328881D01*
X7260357Y-16328881D02*
X7250833Y-16347928D01*
X7250833Y-16347928D02*
X7241310Y-16357452D01*
X7241310Y-16357452D02*
X7222262Y-16366976D01*
X7222262Y-16366976D02*
X7203214Y-16366976D01*
X7203214Y-16366976D02*
X7184167Y-16357452D01*
X7184167Y-16357452D02*
X7174643Y-16347928D01*
X7174643Y-16347928D02*
X7165119Y-16328881D01*
X7165119Y-16328881D02*
X7155595Y-16290786D01*
X7155595Y-16290786D02*
X7155595Y-16243167D01*
X7155595Y-16243167D02*
X7165119Y-16205071D01*
X7165119Y-16205071D02*
X7174643Y-16186024D01*
X7174643Y-16186024D02*
X7184167Y-16176500D01*
X7184167Y-16176500D02*
X7203214Y-16166976D01*
X7355595Y-16347928D02*
X7365119Y-16357452D01*
X7365119Y-16357452D02*
X7355595Y-16366976D01*
X7355595Y-16366976D02*
X7346071Y-16357452D01*
X7346071Y-16357452D02*
X7355595Y-16347928D01*
X7355595Y-16347928D02*
X7355595Y-16366976D01*
X7488929Y-16166976D02*
X7507976Y-16166976D01*
X7507976Y-16166976D02*
X7527024Y-16176500D01*
X7527024Y-16176500D02*
X7536548Y-16186024D01*
X7536548Y-16186024D02*
X7546071Y-16205071D01*
X7546071Y-16205071D02*
X7555595Y-16243167D01*
X7555595Y-16243167D02*
X7555595Y-16290786D01*
X7555595Y-16290786D02*
X7546071Y-16328881D01*
X7546071Y-16328881D02*
X7536548Y-16347928D01*
X7536548Y-16347928D02*
X7527024Y-16357452D01*
X7527024Y-16357452D02*
X7507976Y-16366976D01*
X7507976Y-16366976D02*
X7488929Y-16366976D01*
X7488929Y-16366976D02*
X7469881Y-16357452D01*
X7469881Y-16357452D02*
X7460357Y-16347928D01*
X7460357Y-16347928D02*
X7450833Y-16328881D01*
X7450833Y-16328881D02*
X7441310Y-16290786D01*
X7441310Y-16290786D02*
X7441310Y-16243167D01*
X7441310Y-16243167D02*
X7450833Y-16205071D01*
X7450833Y-16205071D02*
X7460357Y-16186024D01*
X7460357Y-16186024D02*
X7469881Y-16176500D01*
X7469881Y-16176500D02*
X7488929Y-16166976D01*
X7622262Y-16166976D02*
X7746071Y-16166976D01*
X7746071Y-16166976D02*
X7679405Y-16243167D01*
X7679405Y-16243167D02*
X7707976Y-16243167D01*
X7707976Y-16243167D02*
X7727024Y-16252690D01*
X7727024Y-16252690D02*
X7736548Y-16262214D01*
X7736548Y-16262214D02*
X7746071Y-16281262D01*
X7746071Y-16281262D02*
X7746071Y-16328881D01*
X7746071Y-16328881D02*
X7736548Y-16347928D01*
X7736548Y-16347928D02*
X7727024Y-16357452D01*
X7727024Y-16357452D02*
X7707976Y-16366976D01*
X7707976Y-16366976D02*
X7650833Y-16366976D01*
X7650833Y-16366976D02*
X7631786Y-16357452D01*
X7631786Y-16357452D02*
X7622262Y-16347928D01*
X7841310Y-16366976D02*
X7879405Y-16366976D01*
X7879405Y-16366976D02*
X7898452Y-16357452D01*
X7898452Y-16357452D02*
X7907976Y-16347928D01*
X7907976Y-16347928D02*
X7927024Y-16319357D01*
X7927024Y-16319357D02*
X7936548Y-16281262D01*
X7936548Y-16281262D02*
X7936548Y-16205071D01*
X7936548Y-16205071D02*
X7927024Y-16186024D01*
X7927024Y-16186024D02*
X7917500Y-16176500D01*
X7917500Y-16176500D02*
X7898452Y-16166976D01*
X7898452Y-16166976D02*
X7860357Y-16166976D01*
X7860357Y-16166976D02*
X7841310Y-16176500D01*
X7841310Y-16176500D02*
X7831786Y-16186024D01*
X7831786Y-16186024D02*
X7822262Y-16205071D01*
X7822262Y-16205071D02*
X7822262Y-16252690D01*
X7822262Y-16252690D02*
X7831786Y-16271738D01*
X7831786Y-16271738D02*
X7841310Y-16281262D01*
X7841310Y-16281262D02*
X7860357Y-16290786D01*
X7860357Y-16290786D02*
X7898452Y-16290786D01*
X7898452Y-16290786D02*
X7917500Y-16281262D01*
X7917500Y-16281262D02*
X7927024Y-16271738D01*
X7927024Y-16271738D02*
X7936548Y-16252690D01*
X8107976Y-16233643D02*
X8107976Y-16366976D01*
X8060357Y-16157452D02*
X8012738Y-16300309D01*
X8012738Y-16300309D02*
X8136548Y-16300309D01*
X8203214Y-16166976D02*
X8203214Y-16205071D01*
X8279405Y-16166976D02*
X8279405Y-16205071D01*
X8542262Y-16443167D02*
X8532738Y-16433643D01*
X8532738Y-16433643D02*
X8513691Y-16405071D01*
X8513691Y-16405071D02*
X8504167Y-16386024D01*
X8504167Y-16386024D02*
X8494643Y-16357452D01*
X8494643Y-16357452D02*
X8485119Y-16309833D01*
X8485119Y-16309833D02*
X8485119Y-16271738D01*
X8485119Y-16271738D02*
X8494643Y-16224119D01*
X8494643Y-16224119D02*
X8504167Y-16195548D01*
X8504167Y-16195548D02*
X8513691Y-16176500D01*
X8513691Y-16176500D02*
X8532738Y-16147928D01*
X8532738Y-16147928D02*
X8542262Y-16138405D01*
X8723214Y-16366976D02*
X8608929Y-16366976D01*
X8666072Y-16366976D02*
X8666072Y-16166976D01*
X8666072Y-16166976D02*
X8647024Y-16195548D01*
X8647024Y-16195548D02*
X8627976Y-16214595D01*
X8627976Y-16214595D02*
X8608929Y-16224119D01*
X8799405Y-16186024D02*
X8808929Y-16176500D01*
X8808929Y-16176500D02*
X8827976Y-16166976D01*
X8827976Y-16166976D02*
X8875595Y-16166976D01*
X8875595Y-16166976D02*
X8894643Y-16176500D01*
X8894643Y-16176500D02*
X8904167Y-16186024D01*
X8904167Y-16186024D02*
X8913691Y-16205071D01*
X8913691Y-16205071D02*
X8913691Y-16224119D01*
X8913691Y-16224119D02*
X8904167Y-16252690D01*
X8904167Y-16252690D02*
X8789881Y-16366976D01*
X8789881Y-16366976D02*
X8913691Y-16366976D01*
X9094643Y-16166976D02*
X8999405Y-16166976D01*
X8999405Y-16166976D02*
X8989881Y-16262214D01*
X8989881Y-16262214D02*
X8999405Y-16252690D01*
X8999405Y-16252690D02*
X9018453Y-16243167D01*
X9018453Y-16243167D02*
X9066072Y-16243167D01*
X9066072Y-16243167D02*
X9085119Y-16252690D01*
X9085119Y-16252690D02*
X9094643Y-16262214D01*
X9094643Y-16262214D02*
X9104167Y-16281262D01*
X9104167Y-16281262D02*
X9104167Y-16328881D01*
X9104167Y-16328881D02*
X9094643Y-16347928D01*
X9094643Y-16347928D02*
X9085119Y-16357452D01*
X9085119Y-16357452D02*
X9066072Y-16366976D01*
X9066072Y-16366976D02*
X9018453Y-16366976D01*
X9018453Y-16366976D02*
X8999405Y-16357452D01*
X8999405Y-16357452D02*
X8989881Y-16347928D01*
X9309881Y-16366976D02*
X9309881Y-16166976D01*
X9395595Y-16366976D02*
X9395595Y-16262214D01*
X9395595Y-16262214D02*
X9386072Y-16243167D01*
X9386072Y-16243167D02*
X9367024Y-16233643D01*
X9367024Y-16233643D02*
X9338453Y-16233643D01*
X9338453Y-16233643D02*
X9319405Y-16243167D01*
X9319405Y-16243167D02*
X9309881Y-16252690D01*
X9519405Y-16366976D02*
X9500357Y-16357452D01*
X9500357Y-16357452D02*
X9490834Y-16347928D01*
X9490834Y-16347928D02*
X9481310Y-16328881D01*
X9481310Y-16328881D02*
X9481310Y-16271738D01*
X9481310Y-16271738D02*
X9490834Y-16252690D01*
X9490834Y-16252690D02*
X9500357Y-16243167D01*
X9500357Y-16243167D02*
X9519405Y-16233643D01*
X9519405Y-16233643D02*
X9547976Y-16233643D01*
X9547976Y-16233643D02*
X9567024Y-16243167D01*
X9567024Y-16243167D02*
X9576548Y-16252690D01*
X9576548Y-16252690D02*
X9586072Y-16271738D01*
X9586072Y-16271738D02*
X9586072Y-16328881D01*
X9586072Y-16328881D02*
X9576548Y-16347928D01*
X9576548Y-16347928D02*
X9567024Y-16357452D01*
X9567024Y-16357452D02*
X9547976Y-16366976D01*
X9547976Y-16366976D02*
X9519405Y-16366976D01*
X9700357Y-16366976D02*
X9681310Y-16357452D01*
X9681310Y-16357452D02*
X9671786Y-16338405D01*
X9671786Y-16338405D02*
X9671786Y-16166976D01*
X9852738Y-16357452D02*
X9833691Y-16366976D01*
X9833691Y-16366976D02*
X9795595Y-16366976D01*
X9795595Y-16366976D02*
X9776548Y-16357452D01*
X9776548Y-16357452D02*
X9767024Y-16338405D01*
X9767024Y-16338405D02*
X9767024Y-16262214D01*
X9767024Y-16262214D02*
X9776548Y-16243167D01*
X9776548Y-16243167D02*
X9795595Y-16233643D01*
X9795595Y-16233643D02*
X9833691Y-16233643D01*
X9833691Y-16233643D02*
X9852738Y-16243167D01*
X9852738Y-16243167D02*
X9862262Y-16262214D01*
X9862262Y-16262214D02*
X9862262Y-16281262D01*
X9862262Y-16281262D02*
X9767024Y-16300309D01*
X9938453Y-16357452D02*
X9957500Y-16366976D01*
X9957500Y-16366976D02*
X9995595Y-16366976D01*
X9995595Y-16366976D02*
X10014643Y-16357452D01*
X10014643Y-16357452D02*
X10024167Y-16338405D01*
X10024167Y-16338405D02*
X10024167Y-16328881D01*
X10024167Y-16328881D02*
X10014643Y-16309833D01*
X10014643Y-16309833D02*
X9995595Y-16300309D01*
X9995595Y-16300309D02*
X9967024Y-16300309D01*
X9967024Y-16300309D02*
X9947976Y-16290786D01*
X9947976Y-16290786D02*
X9938453Y-16271738D01*
X9938453Y-16271738D02*
X9938453Y-16262214D01*
X9938453Y-16262214D02*
X9947976Y-16243167D01*
X9947976Y-16243167D02*
X9967024Y-16233643D01*
X9967024Y-16233643D02*
X9995595Y-16233643D01*
X9995595Y-16233643D02*
X10014643Y-16243167D01*
X10090834Y-16443167D02*
X10100357Y-16433643D01*
X10100357Y-16433643D02*
X10119405Y-16405071D01*
X10119405Y-16405071D02*
X10128929Y-16386024D01*
X10128929Y-16386024D02*
X10138453Y-16357452D01*
X10138453Y-16357452D02*
X10147976Y-16309833D01*
X10147976Y-16309833D02*
X10147976Y-16271738D01*
X10147976Y-16271738D02*
X10138453Y-16224119D01*
X10138453Y-16224119D02*
X10128929Y-16195548D01*
X10128929Y-16195548D02*
X10119405Y-16176500D01*
X10119405Y-16176500D02*
X10100357Y-16147928D01*
X10100357Y-16147928D02*
X10090834Y-16138405D01*
M02*
