G04 #@! TF.GenerationSoftware,KiCad,Pcbnew,(7.0.0)*
G04 #@! TF.CreationDate,2023-09-24T18:00:44-07:00*
G04 #@! TF.ProjectId,interface_clock,696e7465-7266-4616-9365-5f636c6f636b,rev?*
G04 #@! TF.SameCoordinates,Original*
G04 #@! TF.FileFunction,Copper,L1,Top*
G04 #@! TF.FilePolarity,Positive*
%FSLAX46Y46*%
G04 Gerber Fmt 4.6, Leading zero omitted, Abs format (unit mm)*
G04 Created by KiCad (PCBNEW (7.0.0)) date 2023-09-24 18:00:44*
%MOMM*%
%LPD*%
G01*
G04 APERTURE LIST*
G04 #@! TA.AperFunction,ComponentPad*
%ADD10C,1.600000*%
G04 #@! TD*
G04 #@! TA.AperFunction,ComponentPad*
%ADD11R,1.700000X1.700000*%
G04 #@! TD*
G04 #@! TA.AperFunction,ComponentPad*
%ADD12O,1.700000X1.700000*%
G04 #@! TD*
G04 #@! TA.AperFunction,ComponentPad*
%ADD13R,1.600000X1.600000*%
G04 #@! TD*
G04 #@! TA.AperFunction,ComponentPad*
%ADD14O,1.600000X1.600000*%
G04 #@! TD*
G04 #@! TA.AperFunction,ComponentPad*
%ADD15R,1.800000X1.800000*%
G04 #@! TD*
G04 #@! TA.AperFunction,ComponentPad*
%ADD16C,1.800000*%
G04 #@! TD*
G04 #@! TA.AperFunction,ViaPad*
%ADD17C,0.762000*%
G04 #@! TD*
G04 #@! TA.AperFunction,Conductor*
%ADD18C,0.254000*%
G04 #@! TD*
G04 #@! TA.AperFunction,Conductor*
%ADD19C,0.762000*%
G04 #@! TD*
G04 #@! TA.AperFunction,Conductor*
%ADD20C,0.508000*%
G04 #@! TD*
G04 APERTURE END LIST*
D10*
X157480000Y-106680000D03*
X157480000Y-111680000D03*
X224790000Y-106680000D03*
X224790000Y-111680000D03*
X86360000Y-129540000D03*
X86360000Y-134540000D03*
X111760000Y-66040000D03*
X111760000Y-71040000D03*
X160020000Y-86360000D03*
X160020000Y-81360000D03*
D11*
X241299999Y-144779999D03*
D12*
X238759999Y-144779999D03*
X236219999Y-144779999D03*
X233679999Y-144779999D03*
X231139999Y-144779999D03*
X228599999Y-144779999D03*
X226059999Y-144779999D03*
X223519999Y-144779999D03*
X220979999Y-144779999D03*
X218439999Y-144779999D03*
X215899999Y-144779999D03*
X213359999Y-144779999D03*
X210819999Y-144779999D03*
X208279999Y-144779999D03*
X205739999Y-144779999D03*
X203199999Y-144779999D03*
X200659999Y-144779999D03*
X198119999Y-144779999D03*
X195579999Y-144779999D03*
X193039999Y-144779999D03*
X190499999Y-144779999D03*
X187959999Y-144779999D03*
X185419999Y-144779999D03*
X182879999Y-144779999D03*
X180339999Y-144779999D03*
X177799999Y-144779999D03*
X175259999Y-144779999D03*
X172719999Y-144779999D03*
X170179999Y-144779999D03*
X167639999Y-144779999D03*
X165099999Y-144779999D03*
X162559999Y-144779999D03*
D11*
X86359999Y-144779999D03*
D12*
X83819999Y-144779999D03*
X81279999Y-144779999D03*
X78739999Y-144779999D03*
X76199999Y-144779999D03*
X73659999Y-144779999D03*
X71119999Y-144779999D03*
X68579999Y-144779999D03*
X66039999Y-144779999D03*
X63499999Y-144779999D03*
D11*
X137159999Y-144779999D03*
D12*
X134619999Y-144779999D03*
X132079999Y-144779999D03*
X129539999Y-144779999D03*
X126999999Y-144779999D03*
X124459999Y-144779999D03*
X121919999Y-144779999D03*
X119379999Y-144779999D03*
X116839999Y-144779999D03*
X114299999Y-144779999D03*
X111759999Y-144779999D03*
X109219999Y-144779999D03*
X106679999Y-144779999D03*
X104139999Y-144779999D03*
X101599999Y-144779999D03*
X99059999Y-144779999D03*
D13*
X114299999Y-137159999D03*
D14*
X111759999Y-137159999D03*
X109219999Y-137159999D03*
X106679999Y-137159999D03*
X104139999Y-137159999D03*
X101599999Y-137159999D03*
X99059999Y-137159999D03*
X96519999Y-137159999D03*
X93979999Y-137159999D03*
D13*
X147319999Y-137159999D03*
D14*
X144779999Y-137159999D03*
X142239999Y-137159999D03*
X139699999Y-137159999D03*
X137159999Y-137159999D03*
X134619999Y-137159999D03*
X132079999Y-137159999D03*
X129539999Y-137159999D03*
X126999999Y-137159999D03*
D13*
X149859999Y-119379999D03*
D14*
X147319999Y-119379999D03*
X144779999Y-119379999D03*
X142239999Y-119379999D03*
X139699999Y-119379999D03*
X137159999Y-119379999D03*
X134619999Y-119379999D03*
X132079999Y-119379999D03*
X129539999Y-119379999D03*
D13*
X116839999Y-119379999D03*
D14*
X114299999Y-119379999D03*
X111759999Y-119379999D03*
X109219999Y-119379999D03*
X106679999Y-119379999D03*
X104139999Y-119379999D03*
X101599999Y-119379999D03*
X99059999Y-119379999D03*
X96519999Y-119379999D03*
D13*
X137159999Y-76199999D03*
D10*
X144780000Y-76200000D03*
X144780000Y-68580000D03*
X137160000Y-68580000D03*
D13*
X198119999Y-114299999D03*
D14*
X200659999Y-114299999D03*
X203199999Y-114299999D03*
X205739999Y-114299999D03*
X208279999Y-114299999D03*
X210819999Y-114299999D03*
X213359999Y-114299999D03*
X213359999Y-106679999D03*
X210819999Y-106679999D03*
X208279999Y-106679999D03*
X205739999Y-106679999D03*
X203199999Y-106679999D03*
X200659999Y-106679999D03*
X198119999Y-106679999D03*
D13*
X198119999Y-132079999D03*
D14*
X200659999Y-132079999D03*
X203199999Y-132079999D03*
X205739999Y-132079999D03*
X208279999Y-132079999D03*
X210819999Y-132079999D03*
X213359999Y-132079999D03*
X213359999Y-124459999D03*
X210819999Y-124459999D03*
X208279999Y-124459999D03*
X205739999Y-124459999D03*
X203199999Y-124459999D03*
X200659999Y-124459999D03*
X198119999Y-124459999D03*
D10*
X191770000Y-111680000D03*
X191770000Y-106680000D03*
X191770000Y-124460000D03*
X191770000Y-129460000D03*
D13*
X165099999Y-114299999D03*
D14*
X167639999Y-114299999D03*
X170179999Y-114299999D03*
X172719999Y-114299999D03*
X175259999Y-114299999D03*
X177799999Y-114299999D03*
X180339999Y-114299999D03*
X180339999Y-106679999D03*
X177799999Y-106679999D03*
X175259999Y-106679999D03*
X172719999Y-106679999D03*
X170179999Y-106679999D03*
X167639999Y-106679999D03*
X165099999Y-106679999D03*
D13*
X231139999Y-114299999D03*
D14*
X233679999Y-114299999D03*
X236219999Y-114299999D03*
X238759999Y-114299999D03*
X241299999Y-114299999D03*
X243839999Y-114299999D03*
X246379999Y-114299999D03*
X246379999Y-106679999D03*
X243839999Y-106679999D03*
X241299999Y-106679999D03*
X238759999Y-106679999D03*
X236219999Y-106679999D03*
X233679999Y-106679999D03*
X231139999Y-106679999D03*
D13*
X124459999Y-132079999D03*
D14*
X126999999Y-132079999D03*
X129539999Y-132079999D03*
X132079999Y-132079999D03*
X134619999Y-132079999D03*
X137159999Y-132079999D03*
X139699999Y-132079999D03*
X142239999Y-132079999D03*
X144779999Y-132079999D03*
X147319999Y-132079999D03*
X147319999Y-124459999D03*
X144779999Y-124459999D03*
X142239999Y-124459999D03*
X139699999Y-124459999D03*
X137159999Y-124459999D03*
X134619999Y-124459999D03*
X132079999Y-124459999D03*
X129539999Y-124459999D03*
X126999999Y-124459999D03*
X124459999Y-124459999D03*
D13*
X165099999Y-93979999D03*
D14*
X167639999Y-93979999D03*
X170179999Y-93979999D03*
X172719999Y-93979999D03*
X175259999Y-93979999D03*
X177799999Y-93979999D03*
X180339999Y-93979999D03*
X182879999Y-93979999D03*
X182879999Y-86359999D03*
X180339999Y-86359999D03*
X177799999Y-86359999D03*
X175259999Y-86359999D03*
X172719999Y-86359999D03*
X170179999Y-86359999D03*
X167639999Y-86359999D03*
X165099999Y-86359999D03*
D10*
X119380000Y-124460000D03*
X119380000Y-129460000D03*
X157480000Y-124460000D03*
X157480000Y-129460000D03*
X191770000Y-81280000D03*
D14*
X191769999Y-71119999D03*
D10*
X120142000Y-81280000D03*
D14*
X120141999Y-91439999D03*
D10*
X123952000Y-81280000D03*
D14*
X123951999Y-91439999D03*
D10*
X127762000Y-81280000D03*
D14*
X127761999Y-91439999D03*
D10*
X131572000Y-81280000D03*
D14*
X131571999Y-91439999D03*
D10*
X135382000Y-81280000D03*
D14*
X135381999Y-91439999D03*
D10*
X139192000Y-81280000D03*
D14*
X139191999Y-91439999D03*
D13*
X165099999Y-132079999D03*
D14*
X167639999Y-132079999D03*
X170179999Y-132079999D03*
X172719999Y-132079999D03*
X175259999Y-132079999D03*
X177799999Y-132079999D03*
X180339999Y-132079999D03*
X180339999Y-124459999D03*
X177799999Y-124459999D03*
X175259999Y-124459999D03*
X172719999Y-124459999D03*
X170179999Y-124459999D03*
X167639999Y-124459999D03*
X165099999Y-124459999D03*
D10*
X191770000Y-86360000D03*
X186770000Y-86360000D03*
D15*
X207009999Y-63499999D03*
D16*
X204470000Y-63500000D03*
D15*
X213359999Y-63499999D03*
D16*
X210820000Y-63500000D03*
D15*
X219709999Y-63499999D03*
D16*
X217170000Y-63500000D03*
D15*
X226059999Y-63499999D03*
D16*
X223520000Y-63500000D03*
D15*
X232409999Y-63499999D03*
D16*
X229870000Y-63500000D03*
D15*
X238759999Y-63499999D03*
D16*
X236220000Y-63500000D03*
D10*
X198120000Y-71120000D03*
D14*
X198119999Y-81279999D03*
D10*
X204470000Y-71120000D03*
D14*
X204469999Y-81279999D03*
D10*
X210820000Y-71120000D03*
D14*
X210819999Y-81279999D03*
D10*
X217170000Y-71120000D03*
D14*
X217169999Y-81279999D03*
D10*
X223520000Y-71120000D03*
D14*
X223519999Y-81279999D03*
D10*
X229870000Y-71120000D03*
D14*
X229869999Y-81279999D03*
D13*
X198119999Y-93979999D03*
D14*
X200659999Y-93979999D03*
X203199999Y-93979999D03*
X205739999Y-93979999D03*
X208279999Y-93979999D03*
X210819999Y-93979999D03*
X213359999Y-93979999D03*
X215899999Y-93979999D03*
X218439999Y-93979999D03*
X220979999Y-93979999D03*
X220979999Y-86359999D03*
X218439999Y-86359999D03*
X215899999Y-86359999D03*
X213359999Y-86359999D03*
X210819999Y-86359999D03*
X208279999Y-86359999D03*
X205739999Y-86359999D03*
X203199999Y-86359999D03*
X200659999Y-86359999D03*
X198119999Y-86359999D03*
D10*
X82550000Y-120650000D03*
X82550000Y-125650000D03*
D13*
X71119999Y-120649999D03*
D14*
X71119999Y-123189999D03*
X71119999Y-125729999D03*
X71119999Y-128269999D03*
X71119999Y-130809999D03*
X71119999Y-133349999D03*
X71119999Y-135889999D03*
X78739999Y-135889999D03*
X78739999Y-133349999D03*
X78739999Y-130809999D03*
X78739999Y-128269999D03*
X78739999Y-125729999D03*
X78739999Y-123189999D03*
X78739999Y-120649999D03*
D15*
X245109999Y-63499999D03*
D16*
X242570000Y-63500000D03*
D15*
X251459999Y-63499999D03*
D16*
X248920000Y-63500000D03*
D10*
X236220000Y-71120000D03*
D14*
X236219999Y-81279999D03*
D10*
X165100000Y-81280000D03*
D14*
X175259999Y-81279999D03*
D10*
X247904000Y-89916000D03*
D14*
X247903999Y-100075999D03*
D10*
X180340000Y-81280000D03*
X185340000Y-81280000D03*
X233680000Y-101600000D03*
D14*
X243839999Y-101599999D03*
D10*
X160020000Y-66040000D03*
X155020000Y-66040000D03*
X157480000Y-139700000D03*
X157480000Y-144700000D03*
D13*
X165099999Y-71119999D03*
D14*
X167639999Y-71119999D03*
X170179999Y-71119999D03*
X172719999Y-71119999D03*
X175259999Y-71119999D03*
X177799999Y-71119999D03*
X180339999Y-71119999D03*
X182879999Y-71119999D03*
X182879999Y-63499999D03*
X180339999Y-63499999D03*
X177799999Y-63499999D03*
X175259999Y-63499999D03*
X172719999Y-63499999D03*
X170179999Y-63499999D03*
X167639999Y-63499999D03*
X165099999Y-63499999D03*
D10*
X151130000Y-134620000D03*
D14*
X161289999Y-134619999D03*
D13*
X91439999Y-132079999D03*
D14*
X93979999Y-132079999D03*
X96519999Y-132079999D03*
X99059999Y-132079999D03*
X101599999Y-132079999D03*
X104139999Y-132079999D03*
X106679999Y-132079999D03*
X109219999Y-132079999D03*
X111759999Y-132079999D03*
X114299999Y-132079999D03*
X114299999Y-124459999D03*
X111759999Y-124459999D03*
X109219999Y-124459999D03*
X106679999Y-124459999D03*
X104139999Y-124459999D03*
X101599999Y-124459999D03*
X99059999Y-124459999D03*
X96519999Y-124459999D03*
X93979999Y-124459999D03*
X91439999Y-124459999D03*
D10*
X175260000Y-76200000D03*
D14*
X165099999Y-76199999D03*
D13*
X114299999Y-81279999D03*
D14*
X111759999Y-81279999D03*
X109219999Y-81279999D03*
X106679999Y-81279999D03*
X104139999Y-81279999D03*
X101599999Y-81279999D03*
X99059999Y-81279999D03*
X96519999Y-81279999D03*
X93979999Y-81279999D03*
D13*
X228599999Y-96519999D03*
D10*
X228600000Y-94020000D03*
D13*
X88899999Y-81279999D03*
D14*
X86359999Y-81279999D03*
X83819999Y-81279999D03*
X81279999Y-81279999D03*
X78739999Y-81279999D03*
X76199999Y-81279999D03*
X73659999Y-81279999D03*
X71119999Y-81279999D03*
X68579999Y-81279999D03*
D11*
X91439999Y-60959999D03*
D12*
X88899999Y-60959999D03*
X86359999Y-60959999D03*
X83819999Y-60959999D03*
X81279999Y-60959999D03*
X78739999Y-60959999D03*
X76199999Y-60959999D03*
X73659999Y-60959999D03*
X71119999Y-60959999D03*
X68579999Y-60959999D03*
X66039999Y-60959999D03*
X63499999Y-60959999D03*
X60959999Y-60959999D03*
X58419999Y-60959999D03*
X55879999Y-60959999D03*
X53339999Y-60959999D03*
D11*
X241299999Y-78739999D03*
D12*
X241299999Y-81279999D03*
X241299999Y-83819999D03*
D13*
X124459999Y-119125999D03*
D10*
X121960000Y-119126000D03*
D13*
X83824999Y-73649999D03*
D14*
X86364999Y-73649999D03*
X88904999Y-73649999D03*
X91444999Y-73649999D03*
X93984999Y-73649999D03*
X96524999Y-73649999D03*
X99064999Y-73649999D03*
X101604999Y-73649999D03*
X104144999Y-73649999D03*
X106684999Y-73649999D03*
X106684999Y-66029999D03*
X104144999Y-66029999D03*
X101604999Y-66029999D03*
X99064999Y-66029999D03*
X96524999Y-66029999D03*
X93984999Y-66029999D03*
X91444999Y-66029999D03*
X88904999Y-66029999D03*
X86364999Y-66029999D03*
X83824999Y-66029999D03*
D11*
X63499999Y-126999999D03*
D12*
X60959999Y-126999999D03*
X63499999Y-129539999D03*
X60959999Y-129539999D03*
X63499999Y-132079999D03*
X60959999Y-132079999D03*
X63499999Y-134619999D03*
X60959999Y-134619999D03*
X63499999Y-137159999D03*
X60959999Y-137159999D03*
X63499999Y-139699999D03*
X60959999Y-139699999D03*
D10*
X129540000Y-68580000D03*
X129540000Y-73580000D03*
D13*
X119379999Y-60919999D03*
D10*
X121880000Y-60920000D03*
D11*
X63499999Y-81279999D03*
D12*
X60959999Y-81279999D03*
X63499999Y-83819999D03*
X60959999Y-83819999D03*
X63499999Y-86359999D03*
X60959999Y-86359999D03*
X63499999Y-88899999D03*
X60959999Y-88899999D03*
X63499999Y-91439999D03*
X60959999Y-91439999D03*
X63499999Y-93979999D03*
X60959999Y-93979999D03*
X63499999Y-96519999D03*
X60959999Y-96519999D03*
X63499999Y-99059999D03*
X60959999Y-99059999D03*
X63499999Y-101599999D03*
X60959999Y-101599999D03*
X63499999Y-104139999D03*
X60959999Y-104139999D03*
X63499999Y-106679999D03*
X60959999Y-106679999D03*
X63499999Y-109219999D03*
X60959999Y-109219999D03*
X63499999Y-111759999D03*
X60959999Y-111759999D03*
X63499999Y-114299999D03*
X60959999Y-114299999D03*
X63499999Y-116839999D03*
X60959999Y-116839999D03*
X63499999Y-119379999D03*
X60959999Y-119379999D03*
X63499999Y-121919999D03*
X60959999Y-121919999D03*
D11*
X99059999Y-60959999D03*
D12*
X96519999Y-60959999D03*
D13*
X53344999Y-73649999D03*
D14*
X55884999Y-73649999D03*
X58424999Y-73649999D03*
X60964999Y-73649999D03*
X63504999Y-73649999D03*
X66044999Y-73649999D03*
X68584999Y-73649999D03*
X71124999Y-73649999D03*
X73664999Y-73649999D03*
X76204999Y-73649999D03*
X76204999Y-66029999D03*
X73664999Y-66029999D03*
X71124999Y-66029999D03*
X68584999Y-66029999D03*
X66044999Y-66029999D03*
X63504999Y-66029999D03*
X60964999Y-66029999D03*
X58424999Y-66029999D03*
X55884999Y-66029999D03*
X53344999Y-66029999D03*
D17*
X137160000Y-72644000D03*
X206756000Y-109220000D03*
X202438000Y-109220000D03*
X55118000Y-86360000D03*
X208026000Y-109219992D03*
X195326000Y-88392000D03*
X201168000Y-109220000D03*
X158750000Y-108204000D03*
X243839988Y-89662000D03*
X167640000Y-76200000D03*
X164084000Y-109220000D03*
X55118000Y-87884000D03*
X243840000Y-87376000D03*
X196596000Y-88392000D03*
X195326000Y-93472000D03*
X55118000Y-137414000D03*
X195326000Y-94742000D03*
X55118000Y-138938000D03*
X210820000Y-120903994D03*
X210820000Y-117602000D03*
X72644000Y-134620000D03*
X73660000Y-141732000D03*
X68580000Y-141732000D03*
X140970000Y-143002000D03*
X194056000Y-99568000D03*
X197104000Y-99568000D03*
X92456000Y-142747986D03*
X221234000Y-115824000D03*
X221488000Y-102616000D03*
X203200002Y-137668000D03*
X200660000Y-98806000D03*
X221234000Y-121920000D03*
X97536000Y-143002000D03*
X200660000Y-95758000D03*
X221488000Y-111252000D03*
X84836000Y-142748000D03*
X85090000Y-67564000D03*
X82550016Y-67564000D03*
X208280000Y-89408000D03*
X116586000Y-90170000D03*
X131572000Y-97028000D03*
X164084000Y-119126000D03*
X160274000Y-119126000D03*
X153924000Y-105156000D03*
X58928000Y-92710000D03*
X153924000Y-97790000D03*
X66548000Y-80772000D03*
X86106000Y-78486000D03*
X113030000Y-79502000D03*
X89662000Y-78486000D03*
X114554000Y-83820000D03*
X114554000Y-86360000D03*
X114554000Y-88900000D03*
X114554000Y-91440000D03*
X114554000Y-93980000D03*
X114554000Y-96520000D03*
X114554000Y-99060000D03*
X116840000Y-101600000D03*
X121920000Y-104140000D03*
X127000000Y-106680000D03*
X132080000Y-109220000D03*
X137160000Y-111760000D03*
X142240000Y-114300000D03*
X144780000Y-116840000D03*
X89662000Y-121158000D03*
X87122000Y-122174000D03*
X94996000Y-121158000D03*
X80772000Y-121920000D03*
X75184000Y-121920000D03*
X128270000Y-121158000D03*
X119126000Y-121158000D03*
X209804000Y-111506000D03*
X209550000Y-117602000D03*
X209550000Y-120904000D03*
X194310000Y-117602000D03*
X194310000Y-120650000D03*
X155448008Y-105155996D03*
X159512000Y-118110000D03*
X152400000Y-80264000D03*
X152400000Y-87884000D03*
X152400000Y-76708000D03*
X164846000Y-118110000D03*
X187451994Y-92456000D03*
X118618000Y-93218000D03*
X58928000Y-97790000D03*
X171450000Y-92456000D03*
X193548000Y-92456000D03*
X116586000Y-92710000D03*
X165100000Y-96520000D03*
X58928000Y-95250000D03*
X165100000Y-101600000D03*
X127762000Y-94488000D03*
X164084000Y-117094000D03*
X166370000Y-96520000D03*
X160274000Y-117094000D03*
X166370000Y-104140000D03*
X207010000Y-120904000D03*
X207010000Y-117602000D03*
X201930000Y-115570000D03*
X201930000Y-117602000D03*
X149352000Y-89408000D03*
X151892000Y-124968000D03*
X149352000Y-105156000D03*
X151892000Y-129032010D03*
X189992000Y-95758000D03*
X227076000Y-103378000D03*
X194056000Y-97028000D03*
X58928000Y-100330000D03*
X184657980Y-95758000D03*
X230124000Y-103378000D03*
X120142000Y-95758000D03*
X197104006Y-97028000D03*
X183134000Y-120650000D03*
X183134000Y-129794000D03*
X185674000Y-120650000D03*
X185674000Y-129032018D03*
X154940000Y-123698000D03*
X154432000Y-143764000D03*
X154940000Y-136398000D03*
X154940000Y-117602000D03*
X157480000Y-115062000D03*
X154432000Y-140970000D03*
X86360000Y-132080000D03*
X87376000Y-137160000D03*
X90424000Y-137160000D03*
X208280000Y-139954000D03*
X195834000Y-122174000D03*
X195833990Y-112522000D03*
X179324000Y-112522000D03*
X77470000Y-139192000D03*
X67564000Y-139192000D03*
X76200000Y-129540000D03*
X150876000Y-80264000D03*
X143510000Y-140208000D03*
X150876000Y-89408000D03*
X92710000Y-140208006D03*
X219456000Y-101854000D03*
X218186000Y-118110000D03*
X219456000Y-111252000D03*
X152908000Y-136398000D03*
X218186000Y-121920000D03*
X150875986Y-105156000D03*
X95504000Y-140208000D03*
X86106000Y-140208000D03*
X152908000Y-123698000D03*
X150876000Y-76708000D03*
X155448000Y-89408000D03*
X201930000Y-110236000D03*
X205994000Y-110236000D03*
X218440000Y-110490000D03*
X156972000Y-103886000D03*
X159512000Y-109220000D03*
X218440000Y-100838000D03*
X164592000Y-110744000D03*
X155448000Y-80264000D03*
X155448000Y-78232000D03*
X143764000Y-115570000D03*
X80010000Y-115570000D03*
X208280000Y-72390000D03*
X214630000Y-72390000D03*
X220980000Y-72390000D03*
X227330000Y-72390000D03*
X233680000Y-72390000D03*
X240030000Y-72390000D03*
X220472000Y-110490000D03*
X219710000Y-117602000D03*
X58928000Y-87630000D03*
X220472000Y-100838000D03*
X198120000Y-136906000D03*
X139192000Y-98806000D03*
X116586000Y-85090000D03*
X198120000Y-135382000D03*
X219710000Y-121920000D03*
X116586000Y-87630000D03*
X145796000Y-105156000D03*
X147828000Y-107188000D03*
X58928000Y-90170000D03*
X159512000Y-120142000D03*
X135382000Y-98806000D03*
X164846000Y-120142000D03*
X167132000Y-122428000D03*
X81788000Y-68580000D03*
X216662000Y-107950000D03*
X107696000Y-68580012D03*
X191008000Y-102362000D03*
X147828000Y-89408000D03*
X216662000Y-118110000D03*
X147828000Y-102869996D03*
X216662000Y-121920000D03*
X85598000Y-68580000D03*
X216662000Y-110998000D03*
X196596000Y-102870000D03*
X111252000Y-68580000D03*
X215646000Y-128016000D03*
X170180000Y-128016000D03*
X93980000Y-128016000D03*
X127000000Y-128016000D03*
X223774000Y-128016000D03*
X168910000Y-129032000D03*
X168910000Y-125984020D03*
X166370000Y-133858000D03*
X166370000Y-135890000D03*
X166370000Y-137922000D03*
X197358000Y-103886000D03*
X161290000Y-132841996D03*
X163322000Y-105156000D03*
X192278000Y-103886000D03*
X161290000Y-123444000D03*
X187452000Y-108204000D03*
X187452000Y-111937300D03*
X213359994Y-111506000D03*
X200660000Y-118364000D03*
X186944000Y-118364000D03*
X200660000Y-116078000D03*
X184404000Y-130556000D03*
X223774000Y-129286000D03*
X233680000Y-118110000D03*
X215646000Y-129286000D03*
X223012000Y-114300000D03*
X193040000Y-101600000D03*
X222504000Y-108204000D03*
X228092000Y-116586000D03*
X197612000Y-101600000D03*
X222504000Y-110490000D03*
X187198000Y-129032000D03*
X187198000Y-125984000D03*
X152400000Y-89408000D03*
X153924000Y-80264000D03*
X152400000Y-105156000D03*
X153924000Y-124968000D03*
X153924000Y-135382000D03*
X153924000Y-76708000D03*
X246380000Y-72390000D03*
X208280000Y-120904000D03*
X208280000Y-117602000D03*
X177546000Y-120396000D03*
X175260000Y-120396000D03*
X182118000Y-118872000D03*
X185928000Y-112014000D03*
X185928000Y-115062000D03*
X182626000Y-106680000D03*
X185928000Y-106680000D03*
X215646000Y-126746000D03*
X225298000Y-126746000D03*
X173990000Y-121666000D03*
X177546000Y-121666000D03*
X231140000Y-117856000D03*
D18*
X165862000Y-92202000D02*
X141732000Y-92202000D01*
X140716000Y-93218000D02*
X124206000Y-93218000D01*
X167640000Y-93980000D02*
X165862000Y-92202000D01*
X141732000Y-92202000D02*
X140716000Y-93218000D01*
X141224000Y-96266000D02*
X140716000Y-95758000D01*
X162052000Y-96266000D02*
X141224000Y-96266000D01*
X140716000Y-95758000D02*
X120142000Y-95758000D01*
X163322000Y-97536000D02*
X162052000Y-96266000D01*
X182879980Y-97536000D02*
X163322000Y-97536000D01*
X184657980Y-95758000D02*
X182879980Y-97536000D01*
X139700000Y-97028000D02*
X140462000Y-97790000D01*
X140462000Y-97790000D02*
X153924000Y-97790000D01*
X131572000Y-97028000D02*
X139700000Y-97028000D01*
X214630000Y-90170000D02*
X218440000Y-93980000D01*
X192278000Y-90170000D02*
X214630000Y-90170000D01*
X182880000Y-99568000D02*
X192278000Y-90170000D01*
X139954000Y-99568000D02*
X182880000Y-99568000D01*
X139192000Y-98806000D02*
X139954000Y-99568000D01*
X212852000Y-90932000D02*
X215900000Y-93980000D01*
X162560000Y-101092000D02*
X163068000Y-100584000D01*
X192532000Y-90932000D02*
X212852000Y-90932000D01*
X145796000Y-101092000D02*
X162560000Y-101092000D01*
X163068000Y-100584000D02*
X182880000Y-100584000D01*
X182880000Y-100584000D02*
X192532000Y-90932000D01*
X145796000Y-101092000D02*
X145796000Y-101854000D01*
X135382000Y-98806000D02*
X137668000Y-101092000D01*
X137668000Y-101092000D02*
X145796000Y-101092000D01*
X149352000Y-79502000D02*
X149352000Y-89408000D01*
X173228000Y-79248000D02*
X149606000Y-79248000D01*
X175260000Y-81280000D02*
X173228000Y-79248000D01*
X149606000Y-79248000D02*
X149352000Y-79502000D01*
X138176000Y-71120000D02*
X115570000Y-71120000D01*
X142240000Y-67056000D02*
X138176000Y-71120000D01*
X115570000Y-71120000D02*
X113030000Y-68580000D01*
X113030000Y-68580000D02*
X111252000Y-68580000D01*
X146304000Y-67056000D02*
X142240000Y-67056000D01*
X147828000Y-68580000D02*
X146304000Y-67056000D01*
X147828000Y-77216000D02*
X147828000Y-68580000D01*
X147574000Y-90424000D02*
X169164000Y-90424000D01*
X169164000Y-90424000D02*
X170180000Y-91440000D01*
X142748000Y-85598000D02*
X147574000Y-90424000D01*
X142748000Y-70612000D02*
X142748000Y-85598000D01*
X144780000Y-68580000D02*
X142748000Y-70612000D01*
X170180000Y-91440000D02*
X170180000Y-93980000D01*
X180340000Y-68834000D02*
X180340000Y-71120000D01*
X159004000Y-68580000D02*
X180086000Y-68580000D01*
X150876000Y-76708000D02*
X159004000Y-68580000D01*
X180086000Y-68580000D02*
X180340000Y-68834000D01*
X172720000Y-69596000D02*
X172720000Y-71120000D01*
X159766000Y-69342000D02*
X172466000Y-69342000D01*
X152400000Y-76708000D02*
X159766000Y-69342000D01*
X172466000Y-69342000D02*
X172720000Y-69596000D01*
X159512000Y-71120000D02*
X165100000Y-71120000D01*
X153924000Y-76708000D02*
X159512000Y-71120000D01*
X177800000Y-76962000D02*
X177800000Y-71120000D01*
X176530000Y-78232000D02*
X177800000Y-76962000D01*
X155448000Y-78232000D02*
X176530000Y-78232000D01*
X243839988Y-89662012D02*
X243839988Y-89662000D01*
X228600000Y-96520000D02*
X236982000Y-96520000D01*
X236982000Y-96520000D02*
X243839988Y-89662012D01*
D19*
X88900000Y-140628000D02*
X88900000Y-129540000D01*
X199390000Y-109220000D02*
X201930000Y-109220000D01*
X55118000Y-82550000D02*
X53340000Y-80772000D01*
X228600000Y-101092000D02*
X228600000Y-96520000D01*
X162814000Y-127000000D02*
X162814000Y-124460000D01*
X191770000Y-88392000D02*
X165100000Y-88392000D01*
X206756000Y-109220000D02*
X208025992Y-109220000D01*
D18*
X119380000Y-124460000D02*
X124460000Y-124460000D01*
X177800000Y-61722000D02*
X177800000Y-63500000D01*
D19*
X87181078Y-120650000D02*
X78740000Y-120650000D01*
X228600000Y-101092000D02*
X228600000Y-101600000D01*
X162814000Y-127000000D02*
X150876000Y-127000000D01*
D18*
X76454000Y-128524000D02*
X76454000Y-128270000D01*
D19*
X201930000Y-109220000D02*
X202438000Y-109220000D01*
D18*
X158750000Y-108204000D02*
X157480000Y-106934000D01*
D19*
X228600000Y-101600000D02*
X228600000Y-104140000D01*
X88900000Y-127000000D02*
X91440000Y-127000000D01*
D20*
X53340000Y-70866000D02*
X51816000Y-72390000D01*
D18*
X165100000Y-61722000D02*
X165354000Y-61468000D01*
D19*
X165100000Y-109220000D02*
X195326000Y-109220000D01*
X88900000Y-129540000D02*
X88900000Y-127000000D01*
X109474000Y-63500000D02*
X119380000Y-63500000D01*
X108966000Y-69850000D02*
X53340000Y-69850000D01*
D18*
X243586000Y-78740000D02*
X241300000Y-78740000D01*
D19*
X88900000Y-124460000D02*
X88900000Y-122368922D01*
D18*
X175260000Y-62368630D02*
X175260000Y-61468000D01*
D19*
X124460000Y-119126000D02*
X124460000Y-124460000D01*
X83820000Y-69850000D02*
X83820000Y-66040000D01*
X195326000Y-88392000D02*
X191770000Y-88392000D01*
D18*
X167640000Y-63500000D02*
X167640000Y-61468000D01*
D19*
X86360000Y-143168000D02*
X88900000Y-140628000D01*
X228600000Y-104140000D02*
X231140000Y-106680000D01*
X59690000Y-144780000D02*
X55118000Y-140208000D01*
X162814000Y-127000000D02*
X165100000Y-127000000D01*
D18*
X191770000Y-124460000D02*
X198120000Y-124460000D01*
D19*
X119380000Y-63500000D02*
X119380000Y-60960000D01*
X165100000Y-127000000D02*
X198120000Y-127000000D01*
X137160000Y-63500000D02*
X137160000Y-68580000D01*
X165100000Y-107811370D02*
X165100000Y-109220000D01*
X55118000Y-138938000D02*
X55118000Y-137414000D01*
D18*
X111760000Y-66040000D02*
X109220000Y-66040000D01*
D19*
X99060000Y-60960000D02*
X108966000Y-60960000D01*
D18*
X54610000Y-72136000D02*
X54610000Y-76200000D01*
D19*
X198120000Y-109220000D02*
X199390000Y-109220000D01*
X231140000Y-106680000D02*
X228600008Y-109219992D01*
D18*
X53340000Y-70866000D02*
X54610000Y-72136000D01*
D19*
X91440000Y-127000000D02*
X124714000Y-127000000D01*
D20*
X51816000Y-75946000D02*
X53340000Y-77470000D01*
D18*
X233680000Y-101600000D02*
X228600000Y-101600000D01*
D19*
X162814000Y-124460000D02*
X162814000Y-109220000D01*
X62230000Y-147320000D02*
X59690000Y-144780000D01*
D18*
X175260000Y-61468000D02*
X177546000Y-61468000D01*
X175260000Y-71120000D02*
X175260000Y-72251370D01*
X170180000Y-63500000D02*
X170180000Y-61468000D01*
X165354000Y-61468000D02*
X167640000Y-61468000D01*
D19*
X164084000Y-109220000D02*
X165100000Y-109220000D01*
D18*
X54610000Y-76200000D02*
X53340000Y-77470000D01*
D19*
X109220000Y-63754000D02*
X109220000Y-66040000D01*
X109220000Y-69596000D02*
X108966000Y-69850000D01*
X91440000Y-124460000D02*
X88900000Y-124460000D01*
D18*
X167640000Y-71120000D02*
X167640000Y-76200000D01*
D19*
X195326000Y-106680000D02*
X195326000Y-98044000D01*
D18*
X139192000Y-74676000D02*
X139192000Y-81280000D01*
X167640000Y-61468000D02*
X170180000Y-61468000D01*
D19*
X195326000Y-98044000D02*
X195326000Y-94742000D01*
X195326000Y-88392000D02*
X196596000Y-88392000D01*
D18*
X191770000Y-106680000D02*
X195326000Y-106680000D01*
X160020000Y-86360000D02*
X165100000Y-86360000D01*
X243840000Y-87376000D02*
X243840000Y-78994000D01*
D19*
X55118000Y-87884000D02*
X55118000Y-82550000D01*
D18*
X76454000Y-128270000D02*
X76454000Y-120650000D01*
D19*
X195326000Y-109220000D02*
X198120000Y-109220000D01*
X195326000Y-93980000D02*
X195326000Y-93472000D01*
X53340000Y-69850000D02*
X53340000Y-70866000D01*
X162814000Y-109220000D02*
X164084000Y-109220000D01*
D18*
X137160000Y-72644000D02*
X139192000Y-74676000D01*
D19*
X53340000Y-69850000D02*
X53340000Y-66040000D01*
D18*
X139192000Y-81280000D02*
X127762000Y-81280000D01*
D20*
X51816000Y-72390000D02*
X51816000Y-75946000D01*
D18*
X86360000Y-129540000D02*
X88900000Y-129540000D01*
D19*
X198120000Y-88392000D02*
X196596000Y-88392000D01*
X195326000Y-94742000D02*
X195326000Y-93980000D01*
X88900000Y-122368922D02*
X87181078Y-120650000D01*
D18*
X175260000Y-63500000D02*
X175260000Y-62368630D01*
D19*
X109220000Y-66040000D02*
X109220000Y-66548000D01*
D18*
X71120000Y-128270000D02*
X76454000Y-128270000D01*
D19*
X165100000Y-88392000D02*
X165100000Y-86360000D01*
D18*
X198120000Y-93980000D02*
X195326000Y-93980000D01*
D19*
X86360000Y-147320000D02*
X62230000Y-147320000D01*
X109220000Y-63754000D02*
X109474000Y-63500000D01*
X83820000Y-144780000D02*
X86360000Y-144780000D01*
X198120000Y-86360000D02*
X198120000Y-88392000D01*
X124460000Y-124460000D02*
X124460000Y-126746000D01*
X198120000Y-106680000D02*
X198120000Y-109220000D01*
D18*
X170180000Y-61468000D02*
X175260000Y-61468000D01*
X201930000Y-109220000D02*
X201168000Y-109220000D01*
D19*
X165100000Y-106680000D02*
X165100000Y-107811370D01*
X86360000Y-144780000D02*
X86360000Y-147320000D01*
D18*
X157480000Y-124460000D02*
X162814000Y-124460000D01*
D19*
X124714000Y-127000000D02*
X150876000Y-127000000D01*
D18*
X165100000Y-66040000D02*
X165100000Y-63500000D01*
D19*
X208025992Y-109220000D02*
X208026000Y-109219992D01*
X109220000Y-61214000D02*
X109220000Y-63754000D01*
D18*
X224790000Y-106680000D02*
X231140000Y-106680000D01*
D19*
X165100000Y-124460000D02*
X165100000Y-127000000D01*
X55118000Y-140208000D02*
X55118000Y-138938000D01*
D18*
X157480000Y-106934000D02*
X157480000Y-106680000D01*
D19*
X137160000Y-63500000D02*
X165100000Y-63500000D01*
X53340000Y-80772000D02*
X53340000Y-77470000D01*
X228600008Y-109219992D02*
X208564815Y-109219992D01*
D18*
X243840000Y-78994000D02*
X243586000Y-78740000D01*
D19*
X108966000Y-60960000D02*
X109220000Y-61214000D01*
X124460000Y-126746000D02*
X124714000Y-127000000D01*
D18*
X78740000Y-120650000D02*
X78740000Y-123190000D01*
D19*
X88900000Y-127000000D02*
X88900000Y-124460000D01*
D18*
X165100000Y-81280000D02*
X165100000Y-86360000D01*
X78740000Y-130810000D02*
X76454000Y-128524000D01*
X177546000Y-61468000D02*
X177800000Y-61722000D01*
D19*
X109220000Y-66548000D02*
X109220000Y-69596000D01*
D18*
X129540000Y-68580000D02*
X137160000Y-68580000D01*
X76454000Y-120650000D02*
X78740000Y-120650000D01*
D19*
X198120000Y-124460000D02*
X198120000Y-127000000D01*
D18*
X160020000Y-66040000D02*
X165100000Y-66040000D01*
X165100000Y-63500000D02*
X165100000Y-61722000D01*
D19*
X195326000Y-109220000D02*
X195326000Y-106680000D01*
X208564815Y-109219992D02*
X208026000Y-109219992D01*
X119380000Y-63500000D02*
X137160000Y-63500000D01*
D18*
X175260000Y-72251370D02*
X175260000Y-76200000D01*
X175260000Y-76200000D02*
X167640000Y-76200000D01*
X191770000Y-86360000D02*
X191770000Y-88392000D01*
X76454000Y-120650000D02*
X71120000Y-120650000D01*
D19*
X86360000Y-144780000D02*
X86360000Y-143168000D01*
D18*
X222504000Y-121158000D02*
X222504000Y-125191185D01*
X216154000Y-138684000D02*
X222504000Y-132334000D01*
X222249994Y-120903994D02*
X222504000Y-121158000D01*
X210820000Y-114300000D02*
X210820000Y-117602000D01*
X170180000Y-144780000D02*
X176276000Y-138684000D01*
X210820000Y-120903994D02*
X222249994Y-120903994D01*
X176276000Y-138684000D02*
X216154000Y-138684000D01*
X222504000Y-132334000D02*
X222504000Y-125730000D01*
X222504000Y-125191185D02*
X222504000Y-125730000D01*
X205232000Y-65278000D02*
X207010000Y-63500000D01*
X191770000Y-71120000D02*
X197612000Y-65278000D01*
X197612000Y-65278000D02*
X205232000Y-65278000D01*
X73660000Y-141732000D02*
X72644000Y-140716000D01*
X72644000Y-135158815D02*
X72644000Y-134620000D01*
X69850000Y-125730000D02*
X68580000Y-127000000D01*
X71120000Y-125730000D02*
X69850000Y-125730000D01*
X68580000Y-127000000D02*
X63500000Y-127000000D01*
X72644000Y-140716000D02*
X72644000Y-135158815D01*
X203200000Y-66040000D02*
X210820000Y-66040000D01*
X210820000Y-66040000D02*
X213360000Y-63500000D01*
X198120000Y-71120000D02*
X203200000Y-66040000D01*
X64770000Y-133350000D02*
X71120000Y-133350000D01*
X71120000Y-133350000D02*
X68580000Y-133350000D01*
X68580000Y-133350000D02*
X68580000Y-141193185D01*
X63500000Y-132080000D02*
X64770000Y-133350000D01*
X68580000Y-141193185D02*
X68580000Y-141732000D01*
X208788000Y-66802000D02*
X216408000Y-66802000D01*
X216408000Y-66802000D02*
X219710000Y-63500000D01*
X204470000Y-71120000D02*
X208788000Y-66802000D01*
X92456000Y-142747986D02*
X92456014Y-142748000D01*
X203200002Y-137668000D02*
X172466000Y-137668000D01*
X200406000Y-99568000D02*
X197642815Y-99568000D01*
X203200002Y-137668000D02*
X215392000Y-137668000D01*
X95123000Y-143002000D02*
X97536000Y-143002000D01*
X197642815Y-99568000D02*
X197104000Y-99568000D01*
X94869000Y-142748000D02*
X95123000Y-143002000D01*
X221234000Y-131826000D02*
X221234000Y-129032000D01*
X200660000Y-95504000D02*
X200660000Y-93980000D01*
X65532000Y-142748000D02*
X84836000Y-142748000D01*
X63500000Y-144780000D02*
X65532000Y-142748000D01*
X172466000Y-137668000D02*
X167132000Y-143002000D01*
X194056000Y-104140000D02*
X194056000Y-99568000D01*
X221488000Y-115570000D02*
X221234000Y-115824000D01*
X141508815Y-143002000D02*
X140970000Y-143002000D01*
X213614000Y-102616000D02*
X206756000Y-95758000D01*
X167132000Y-143002000D02*
X141508815Y-143002000D01*
X221234000Y-121920000D02*
X221234000Y-129032000D01*
X182372000Y-104648000D02*
X193548000Y-104648000D01*
X221488000Y-102616000D02*
X213614000Y-102616000D01*
X193548000Y-104648000D02*
X194056000Y-104140000D01*
X200914000Y-95758000D02*
X200660000Y-95504000D01*
X221488000Y-111252000D02*
X221488000Y-115570000D01*
X180340000Y-106680000D02*
X182372000Y-104648000D01*
X200660000Y-99314000D02*
X200406000Y-99568000D01*
X200660000Y-98806000D02*
X200660000Y-99314000D01*
X215392000Y-137668000D02*
X221234000Y-131826000D01*
X92456014Y-142748000D02*
X94869000Y-142748000D01*
X206756000Y-95758000D02*
X200914000Y-95758000D01*
X137160000Y-144780000D02*
X144780000Y-137160000D01*
X144780000Y-137160000D02*
X144780000Y-132080000D01*
X142240000Y-132080000D02*
X142240000Y-137160000D01*
X134620000Y-144780000D02*
X135469999Y-143930001D01*
X135469999Y-143930001D02*
X142240000Y-137160000D01*
X132929999Y-143930001D02*
X139700000Y-137160000D01*
X132080000Y-144780000D02*
X132929999Y-143930001D01*
X139700000Y-132080000D02*
X139700000Y-137160000D01*
X137160000Y-132080000D02*
X137160000Y-137160000D01*
X137160000Y-137160000D02*
X136360001Y-137959999D01*
X136360001Y-137959999D02*
X129540000Y-144780000D01*
X127849999Y-143930001D02*
X134620000Y-137160000D01*
X127000000Y-144780000D02*
X127849999Y-143930001D01*
X134620000Y-132080000D02*
X134620000Y-137160000D01*
X131280001Y-137959999D02*
X124460000Y-144780000D01*
X132080000Y-132080000D02*
X132080000Y-137160000D01*
X132080000Y-137160000D02*
X131280001Y-137959999D01*
X121920000Y-144780000D02*
X122769999Y-143930001D01*
X129540000Y-132080000D02*
X129540000Y-137160000D01*
X122769999Y-143930001D02*
X129540000Y-137160000D01*
X119380000Y-144780000D02*
X127000000Y-137160000D01*
X127000000Y-136028630D02*
X127000000Y-132080000D01*
X127000000Y-137160000D02*
X127000000Y-136028630D01*
X111760000Y-137160000D02*
X111760000Y-132080000D01*
X111760000Y-137160000D02*
X116840000Y-142240000D01*
X116840000Y-142240000D02*
X116840000Y-144780000D01*
X109220000Y-132080000D02*
X109220000Y-137160000D01*
X109220000Y-137160000D02*
X114300000Y-142240000D01*
X114300000Y-142240000D02*
X114300000Y-144780000D01*
X106680000Y-137160000D02*
X111760000Y-142240000D01*
X111760000Y-142240000D02*
X111760000Y-144780000D01*
X106680000Y-137160000D02*
X106680000Y-136028630D01*
X106680000Y-136028630D02*
X106680000Y-132080000D01*
X109220000Y-142240000D02*
X109220000Y-144780000D01*
X104140000Y-137160000D02*
X109220000Y-142240000D01*
X104140000Y-133211370D02*
X104140000Y-137160000D01*
X104140000Y-132080000D02*
X104140000Y-133211370D01*
X101600000Y-136028630D02*
X101600000Y-132080000D01*
X101600000Y-137160000D02*
X106680000Y-142240000D01*
X101600000Y-137160000D02*
X101600000Y-136028630D01*
X106680000Y-142240000D02*
X106680000Y-144780000D01*
X99060000Y-132080000D02*
X99060000Y-137160000D01*
X104140000Y-142240000D02*
X104140000Y-144780000D01*
X99060000Y-137160000D02*
X104140000Y-142240000D01*
X96520000Y-137160000D02*
X96520000Y-132080000D01*
X96520000Y-137160000D02*
X101600000Y-142240000D01*
X101600000Y-142240000D02*
X101600000Y-143577919D01*
X101600000Y-143577919D02*
X101600000Y-144780000D01*
X99060000Y-142240000D02*
X99060000Y-144780000D01*
X93980000Y-137160000D02*
X99060000Y-142240000D01*
X93980000Y-132080000D02*
X93980000Y-137160000D01*
X53340000Y-60960000D02*
X54189999Y-61809999D01*
X54189999Y-61809999D02*
X58420000Y-66040000D01*
X55880000Y-60960000D02*
X60960000Y-66040000D01*
X58420000Y-60960000D02*
X63500000Y-66040000D01*
X60960000Y-60960000D02*
X66040000Y-66040000D01*
X64349999Y-61809999D02*
X68580000Y-66040000D01*
X63500000Y-60960000D02*
X64349999Y-61809999D01*
X66040000Y-60960000D02*
X71120000Y-66040000D01*
X69429999Y-61809999D02*
X73660000Y-66040000D01*
X68580000Y-60960000D02*
X69429999Y-61809999D01*
X71969999Y-61809999D02*
X76200000Y-66040000D01*
X71120000Y-60960000D02*
X71969999Y-61809999D01*
X73660000Y-60960000D02*
X80264000Y-67564000D01*
X80264000Y-67564000D02*
X82550016Y-67564000D01*
X88900000Y-66040000D02*
X87376000Y-67564000D01*
X87376000Y-67564000D02*
X85090000Y-67564000D01*
X80010000Y-64770000D02*
X90170000Y-64770000D01*
X90640001Y-65240001D02*
X91440000Y-66040000D01*
X90170000Y-64770000D02*
X90640001Y-65240001D01*
X76200000Y-60960000D02*
X80010000Y-64770000D01*
X93180001Y-65240001D02*
X93980000Y-66040000D01*
X78740000Y-60960000D02*
X82042000Y-64262000D01*
X82042000Y-64262000D02*
X92202000Y-64262000D01*
X92202000Y-64262000D02*
X93180001Y-65240001D01*
X81280000Y-60960000D02*
X84074000Y-63754000D01*
X95107001Y-64770000D02*
X96377001Y-66040000D01*
X84074000Y-63754000D02*
X92456000Y-63754000D01*
X93472000Y-64770000D02*
X95107001Y-64770000D01*
X92456000Y-63754000D02*
X93472000Y-64770000D01*
X96377001Y-66040000D02*
X96520000Y-66040000D01*
X83820000Y-60960000D02*
X86106000Y-63246000D01*
X97282000Y-64262000D02*
X99060000Y-66040000D01*
X92710000Y-63246000D02*
X93726000Y-64262000D01*
X86106000Y-63246000D02*
X92710000Y-63246000D01*
X93726000Y-64262000D02*
X97282000Y-64262000D01*
X86360000Y-60960000D02*
X88138000Y-62738000D01*
X93980000Y-63754000D02*
X99314000Y-63754000D01*
X92964000Y-62738000D02*
X93980000Y-63754000D01*
X88138000Y-62738000D02*
X92964000Y-62738000D01*
X99314000Y-63754000D02*
X101600000Y-66040000D01*
X88900000Y-60960000D02*
X90170000Y-62230000D01*
X103340001Y-65240001D02*
X104140000Y-66040000D01*
X90170000Y-62230000D02*
X93218000Y-62230000D01*
X93218000Y-62230000D02*
X94234000Y-63246000D01*
X94234000Y-63246000D02*
X101346000Y-63246000D01*
X101346000Y-63246000D02*
X103340001Y-65240001D01*
X91440000Y-60960000D02*
X92710000Y-60960000D01*
X92710000Y-60960000D02*
X94488000Y-62738000D01*
X103378000Y-62738000D02*
X106680000Y-66040000D01*
X94488000Y-62738000D02*
X103378000Y-62738000D01*
X67056000Y-79756000D02*
X68580000Y-81280000D01*
X60960000Y-83820000D02*
X59182000Y-82042000D01*
X55880000Y-73660000D02*
X59182000Y-76962000D01*
X61976000Y-79756000D02*
X67056000Y-79756000D01*
X59182000Y-76962000D02*
X61976000Y-79756000D01*
X59182000Y-82042000D02*
X59182000Y-76962000D01*
X65786000Y-83820000D02*
X64516000Y-85090000D01*
X71120000Y-81280000D02*
X68580000Y-83820000D01*
X62230000Y-85090000D02*
X60960000Y-86360000D01*
X68580000Y-83820000D02*
X65786000Y-83820000D01*
X68834000Y-78994000D02*
X71120000Y-81280000D01*
X58420000Y-73660000D02*
X63754000Y-78994000D01*
X63754000Y-78994000D02*
X68834000Y-78994000D01*
X64516000Y-85090000D02*
X62230000Y-85090000D01*
X65786000Y-86360000D02*
X68580000Y-86360000D01*
X64516000Y-87630000D02*
X65786000Y-86360000D01*
X60960000Y-88900000D02*
X62230000Y-87630000D01*
X68580000Y-86360000D02*
X73660000Y-81280000D01*
X65532000Y-78232000D02*
X70612000Y-78232000D01*
X70612000Y-78232000D02*
X73660000Y-81280000D01*
X62230000Y-87630000D02*
X64516000Y-87630000D01*
X60960000Y-73660000D02*
X65532000Y-78232000D01*
X67310000Y-77470000D02*
X72390000Y-77470000D01*
X65786000Y-88900000D02*
X64516000Y-90170000D01*
X63500000Y-73660000D02*
X67310000Y-77470000D01*
X68580000Y-88900000D02*
X65786000Y-88900000D01*
X76200000Y-81280000D02*
X68580000Y-88900000D01*
X72390000Y-77470000D02*
X76200000Y-81280000D01*
X62230000Y-90170000D02*
X60960000Y-91440000D01*
X64516000Y-90170000D02*
X62230000Y-90170000D01*
X78740000Y-81280000D02*
X68580000Y-91440000D01*
X64516000Y-92710000D02*
X62230000Y-92710000D01*
X74168000Y-76708000D02*
X78740000Y-81280000D01*
X69088000Y-76708000D02*
X74168000Y-76708000D01*
X68580000Y-91440000D02*
X65786000Y-91440000D01*
X62230000Y-92710000D02*
X60960000Y-93980000D01*
X66040000Y-73660000D02*
X69088000Y-76708000D01*
X65786000Y-91440000D02*
X64516000Y-92710000D01*
X81280000Y-81280000D02*
X68580000Y-93980000D01*
X75946000Y-75946000D02*
X81280000Y-81280000D01*
X68580000Y-73660000D02*
X70866000Y-75946000D01*
X70866000Y-75946000D02*
X75946000Y-75946000D01*
X68580000Y-93980000D02*
X66040000Y-93980000D01*
X66040000Y-93980000D02*
X64770000Y-95250000D01*
X62230000Y-95250000D02*
X60960000Y-96520000D01*
X64770000Y-95250000D02*
X62230000Y-95250000D01*
X83820000Y-81280000D02*
X68580000Y-96520000D01*
X71120000Y-73660000D02*
X72644000Y-75184000D01*
X62230000Y-97790000D02*
X60960000Y-99060000D01*
X77724000Y-75184000D02*
X83820000Y-81280000D01*
X65786000Y-96520000D02*
X64516000Y-97790000D01*
X72644000Y-75184000D02*
X77724000Y-75184000D01*
X68580000Y-96520000D02*
X65786000Y-96520000D01*
X64516000Y-97790000D02*
X62230000Y-97790000D01*
X76962000Y-71882000D02*
X86360000Y-81280000D01*
X62230000Y-100330000D02*
X60960000Y-101600000D01*
X75438000Y-71882000D02*
X76962000Y-71882000D01*
X86360000Y-81280000D02*
X68580000Y-99060000D01*
X68580000Y-99060000D02*
X65786000Y-99060000D01*
X73660000Y-73660000D02*
X75438000Y-71882000D01*
X65786000Y-99060000D02*
X64516000Y-100330000D01*
X64516000Y-100330000D02*
X62230000Y-100330000D01*
X86360000Y-73660000D02*
X93980000Y-81280000D01*
X73660000Y-101600000D02*
X93980000Y-81280000D01*
X65786000Y-101600000D02*
X73660000Y-101600000D01*
X62230000Y-102870000D02*
X64516000Y-102870000D01*
X60960000Y-104140000D02*
X62230000Y-102870000D01*
X64516000Y-102870000D02*
X65786000Y-101600000D01*
X88900000Y-73660000D02*
X96520000Y-81280000D01*
X73660000Y-104140000D02*
X96520000Y-81280000D01*
X65786000Y-104140000D02*
X73660000Y-104140000D01*
X64516000Y-105410000D02*
X65786000Y-104140000D01*
X60960000Y-106680000D02*
X62230000Y-105410000D01*
X62230000Y-105410000D02*
X64516000Y-105410000D01*
X60960000Y-109220000D02*
X62230000Y-107950000D01*
X99060000Y-81280000D02*
X91440000Y-73660000D01*
X62230000Y-107950000D02*
X64516000Y-107950000D01*
X73660000Y-106680000D02*
X99060000Y-81280000D01*
X65786000Y-106680000D02*
X73660000Y-106680000D01*
X64516000Y-107950000D02*
X65786000Y-106680000D01*
X73660000Y-109220000D02*
X101600000Y-81280000D01*
X64516000Y-110490000D02*
X65786000Y-109220000D01*
X62230000Y-110490000D02*
X64516000Y-110490000D01*
X65786000Y-109220000D02*
X73660000Y-109220000D01*
X60960000Y-111760000D02*
X62230000Y-110490000D01*
X101600000Y-81280000D02*
X93980000Y-73660000D01*
X60960000Y-114300000D02*
X62230000Y-113030000D01*
X73660000Y-111760000D02*
X104140000Y-81280000D01*
X65786000Y-111760000D02*
X73660000Y-111760000D01*
X62230000Y-113030000D02*
X64516000Y-113030000D01*
X104140000Y-81280000D02*
X96520000Y-73660000D01*
X64516000Y-113030000D02*
X65786000Y-111760000D01*
X64516000Y-115570000D02*
X65786000Y-114300000D01*
X73660000Y-114300000D02*
X106680000Y-81280000D01*
X65786000Y-114300000D02*
X73660000Y-114300000D01*
X60960000Y-116840000D02*
X62230000Y-115570000D01*
X62230000Y-115570000D02*
X64516000Y-115570000D01*
X106680000Y-81280000D02*
X99060000Y-73660000D01*
X60960000Y-119380000D02*
X62230000Y-118110000D01*
X109220000Y-81280000D02*
X101600000Y-73660000D01*
X65786000Y-116840000D02*
X73660000Y-116840000D01*
X73660000Y-116840000D02*
X109220000Y-81280000D01*
X62230000Y-118110000D02*
X64516000Y-118110000D01*
X64516000Y-118110000D02*
X65786000Y-116840000D01*
X75438000Y-117602000D02*
X111760000Y-81280000D01*
X64262000Y-120650000D02*
X67310000Y-117602000D01*
X111760000Y-81280000D02*
X104140000Y-73660000D01*
X67310000Y-117602000D02*
X75438000Y-117602000D01*
X62230000Y-120650000D02*
X64262000Y-120650000D01*
X60960000Y-121920000D02*
X62230000Y-120650000D01*
X55118000Y-96520000D02*
X58928000Y-92710000D01*
X161290000Y-97790000D02*
X153924000Y-97790000D01*
X160274000Y-119126000D02*
X158496000Y-119126000D01*
X153924000Y-114554000D02*
X153924000Y-105156000D01*
X162052000Y-98552000D02*
X161290000Y-97790000D01*
X175260000Y-118872000D02*
X175260000Y-114300000D01*
X182880000Y-98552000D02*
X162052000Y-98552000D01*
X55118000Y-128778000D02*
X55118000Y-96520000D01*
X164084000Y-119126000D02*
X175006000Y-119126000D01*
X60960000Y-134620000D02*
X55118000Y-128778000D01*
X208280000Y-89408000D02*
X192024000Y-89408000D01*
X158496000Y-119126000D02*
X153924000Y-114554000D01*
X175006000Y-119126000D02*
X175260000Y-118872000D01*
X116586000Y-90170000D02*
X130302000Y-90170000D01*
X192024000Y-89408000D02*
X182880000Y-98552000D01*
X130302000Y-90170000D02*
X131572000Y-91440000D01*
X96520000Y-119380000D02*
X96520000Y-99314000D01*
X96520000Y-124460000D02*
X96520000Y-119380000D01*
X66548000Y-80772000D02*
X63500000Y-83820000D01*
X96520000Y-99314000D02*
X113030000Y-82804000D01*
X113030000Y-82804000D02*
X113030000Y-79502000D01*
X89662000Y-78486000D02*
X86106000Y-78486000D01*
X114554000Y-83820000D02*
X99060000Y-99314000D01*
X99060000Y-99314000D02*
X99060000Y-119380000D01*
X99060000Y-124460000D02*
X99060000Y-119380000D01*
X101600000Y-99314000D02*
X114554000Y-86360000D01*
X101600000Y-119380000D02*
X101600000Y-99314000D01*
X101600000Y-119380000D02*
X101600000Y-124460000D01*
X104140000Y-99314000D02*
X114554000Y-88900000D01*
X104140000Y-124460000D02*
X104140000Y-119380000D01*
X104140000Y-119380000D02*
X104140000Y-99314000D01*
X106680000Y-119380000D02*
X106680000Y-99314000D01*
X106680000Y-119380000D02*
X106680000Y-124460000D01*
X106680000Y-99314000D02*
X114554000Y-91440000D01*
X109220000Y-99314000D02*
X109220000Y-119380000D01*
X109220000Y-124460000D02*
X109220000Y-119380000D01*
X114554000Y-93980000D02*
X109220000Y-99314000D01*
X111760000Y-119380000D02*
X111760000Y-99314000D01*
X111760000Y-119380000D02*
X111760000Y-124460000D01*
X111760000Y-99314000D02*
X114554000Y-96520000D01*
X114300000Y-121158000D02*
X114300000Y-119380000D01*
X114300000Y-99314000D02*
X114554000Y-99060000D01*
X114300000Y-124460000D02*
X114300000Y-121158000D01*
X114300000Y-119380000D02*
X114300000Y-99314000D01*
X129540000Y-119380000D02*
X129540000Y-124460000D01*
X129540000Y-114300000D02*
X116840000Y-101600000D01*
X129540000Y-119380000D02*
X129540000Y-114300000D01*
X132080000Y-114300000D02*
X132080000Y-119380000D01*
X121920000Y-104140000D02*
X132080000Y-114300000D01*
X132080000Y-119380000D02*
X132080000Y-124460000D01*
X127000000Y-106680000D02*
X134620000Y-114300000D01*
X134620000Y-114300000D02*
X134620000Y-119380000D01*
X134620000Y-124460000D02*
X134620000Y-119380000D01*
X132080000Y-109220000D02*
X137160000Y-114300000D01*
X137160000Y-119380000D02*
X137160000Y-124460000D01*
X137160000Y-114300000D02*
X137160000Y-119380000D01*
X139700000Y-114300000D02*
X137160000Y-111760000D01*
X139700000Y-119380000D02*
X139700000Y-114300000D01*
X139700000Y-124460000D02*
X139700000Y-119380000D01*
X142240000Y-119380000D02*
X142240000Y-124460000D01*
X142240000Y-119380000D02*
X142240000Y-114300000D01*
X144780000Y-124460000D02*
X144780000Y-119380000D01*
X144780000Y-119380000D02*
X144780000Y-116840000D01*
X147320000Y-119380000D02*
X147320000Y-124460000D01*
X67310000Y-121920000D02*
X69850000Y-124460000D01*
X121158000Y-117094000D02*
X119126000Y-119126000D01*
X87122000Y-122174000D02*
X81026000Y-122174000D01*
X69850000Y-124460000D02*
X72644000Y-124460000D01*
X119126000Y-119126000D02*
X119126000Y-121158000D01*
X126238000Y-119126000D02*
X126238000Y-118364000D01*
X72644000Y-124460000D02*
X75184000Y-121920000D01*
X126238000Y-118364000D02*
X124968000Y-117094000D01*
X124968000Y-117094000D02*
X121158000Y-117094000D01*
X81026000Y-122174000D02*
X80772000Y-121920000D01*
X63500000Y-121920000D02*
X67310000Y-121920000D01*
X128270000Y-121158000D02*
X126238000Y-119126000D01*
X94996000Y-121158000D02*
X89662000Y-121158000D01*
X210820000Y-122174000D02*
X209550000Y-120904000D01*
X209804000Y-113030000D02*
X209804000Y-111506000D01*
X210820000Y-124460000D02*
X210820000Y-122174000D01*
X209550000Y-117602000D02*
X209550000Y-113284000D01*
X209550000Y-113284000D02*
X209804000Y-113030000D01*
X178054000Y-117602000D02*
X193771185Y-117602000D01*
X193771185Y-117602000D02*
X194310000Y-117602000D01*
X194848815Y-120650000D02*
X194310000Y-120650000D01*
X177800000Y-114300000D02*
X177800000Y-117348000D01*
X205740000Y-120904000D02*
X205486000Y-120650000D01*
X177800000Y-117348000D02*
X178054000Y-117602000D01*
X205740000Y-124460000D02*
X205740000Y-120904000D01*
X205486000Y-120650000D02*
X194848815Y-120650000D01*
X155448000Y-114554000D02*
X155448000Y-105156004D01*
X152400000Y-85090000D02*
X152400000Y-80264000D01*
X169418000Y-118110000D02*
X170180000Y-117348000D01*
X155448000Y-105156004D02*
X155448008Y-105155996D01*
X170180000Y-117348000D02*
X170180000Y-114300000D01*
X159512000Y-118110000D02*
X159004000Y-118110000D01*
X152400000Y-85090000D02*
X152400000Y-87884000D01*
X164846000Y-118110000D02*
X169418000Y-118110000D01*
X159004000Y-118110000D02*
X155448000Y-114554000D01*
X60960000Y-129540000D02*
X57658000Y-126238000D01*
X124206000Y-93218000D02*
X123952000Y-93218000D01*
X201676000Y-92456000D02*
X193548000Y-92456000D01*
X118618000Y-93218000D02*
X124206000Y-93218000D01*
X57658000Y-126238000D02*
X57658000Y-99060000D01*
X57658000Y-99060000D02*
X58928000Y-97790000D01*
X171450000Y-92456000D02*
X187451994Y-92456000D01*
X203200000Y-93980000D02*
X201676000Y-92456000D01*
X123952000Y-93218000D02*
X123952000Y-91440000D01*
X182880000Y-101600000D02*
X165638815Y-101600000D01*
X119380000Y-94488000D02*
X127762000Y-94488000D01*
X165638815Y-101600000D02*
X165100000Y-101600000D01*
X56388000Y-97790000D02*
X58928000Y-95250000D01*
X56388000Y-127508000D02*
X56388000Y-97790000D01*
X165100000Y-93980000D02*
X165100000Y-96520000D01*
X118364000Y-94488000D02*
X119380000Y-94488000D01*
X163068000Y-94488000D02*
X127762000Y-94488000D01*
X192786000Y-91694000D02*
X182880000Y-101600000D01*
X116586000Y-92710000D02*
X118364000Y-94488000D01*
X203454000Y-91694000D02*
X192786000Y-91694000D01*
X205740000Y-93980000D02*
X203454000Y-91694000D01*
X165100000Y-96520000D02*
X163068000Y-94488000D01*
X60960000Y-132080000D02*
X56388000Y-127508000D01*
X207010000Y-107442000D02*
X204978000Y-109474000D01*
X201930000Y-105410000D02*
X206502000Y-105410000D01*
X206502000Y-105410000D02*
X207010000Y-105918000D01*
X207010000Y-105918000D02*
X207010000Y-107442000D01*
X204978000Y-109474000D02*
X204978000Y-112522000D01*
X204978000Y-112522000D02*
X203200000Y-114300000D01*
X200660000Y-106680000D02*
X201930000Y-105410000D01*
X188214000Y-111252000D02*
X191262000Y-114300000D01*
X198374000Y-111760000D02*
X203708000Y-111760000D01*
X204216000Y-108204000D02*
X205740000Y-106680000D01*
X198120000Y-114300000D02*
X191262000Y-114300000D01*
X198120000Y-114300000D02*
X198120000Y-112014000D01*
X165100000Y-114300000D02*
X165100000Y-113246000D01*
X167094000Y-111252000D02*
X188214000Y-111252000D01*
X165100000Y-113246000D02*
X167094000Y-111252000D01*
X203708000Y-111760000D02*
X204216000Y-111252000D01*
X198120000Y-112014000D02*
X198374000Y-111760000D01*
X204216000Y-111252000D02*
X204216000Y-108204000D01*
X167640000Y-116078000D02*
X167640000Y-114300000D01*
X200660000Y-123444000D02*
X200660000Y-124460000D01*
X167386000Y-116332000D02*
X167640000Y-116078000D01*
X161036000Y-105156000D02*
X162052000Y-104140000D01*
X176530000Y-113030000D02*
X176530000Y-122428000D01*
X169418000Y-112522000D02*
X176022000Y-112522000D01*
X176022000Y-112522000D02*
X176530000Y-113030000D01*
X170180000Y-96520000D02*
X166908815Y-96520000D01*
X166908815Y-96520000D02*
X166370000Y-96520000D01*
X161036000Y-116332000D02*
X161036000Y-105156000D01*
X200406000Y-123190000D02*
X200660000Y-123444000D01*
X172720000Y-93980000D02*
X170180000Y-96520000D01*
X164846000Y-116332000D02*
X167386000Y-116332000D01*
X167640000Y-114300000D02*
X169418000Y-112522000D01*
X193802000Y-122682000D02*
X194310000Y-123190000D01*
X160274000Y-117094000D02*
X161036000Y-116332000D01*
X176530000Y-122428000D02*
X176784000Y-122682000D01*
X176784000Y-122682000D02*
X193802000Y-122682000D01*
X194310000Y-123190000D02*
X200406000Y-123190000D01*
X162052000Y-104140000D02*
X166370000Y-104140000D01*
X164084000Y-117094000D02*
X164846000Y-116332000D01*
X210820000Y-71120000D02*
X214376000Y-67564000D01*
X214376000Y-67564000D02*
X221996000Y-67564000D01*
X221996000Y-67564000D02*
X226060000Y-63500000D01*
X201930000Y-115570000D02*
X200660000Y-114300000D01*
X208280000Y-122174000D02*
X207010000Y-120904000D01*
X207010000Y-117602000D02*
X201930000Y-117602000D01*
X208280000Y-124460000D02*
X208280000Y-122174000D01*
X227584000Y-68326000D02*
X232410000Y-63500000D01*
X217170000Y-71120000D02*
X219964000Y-68326000D01*
X219964000Y-68326000D02*
X227584000Y-68326000D01*
X225552000Y-69088000D02*
X233172000Y-69088000D01*
X233172000Y-69088000D02*
X238760000Y-63500000D01*
X223520000Y-71120000D02*
X225552000Y-69088000D01*
X238760000Y-69850000D02*
X245110000Y-63500000D01*
X231140000Y-69850000D02*
X238760000Y-69850000D01*
X229870000Y-71120000D02*
X231140000Y-69850000D01*
X163576000Y-132080000D02*
X165100000Y-132080000D01*
X175260000Y-81280000D02*
X177800000Y-81280000D01*
X151892000Y-124968000D02*
X151892000Y-117094000D01*
X151892000Y-117094000D02*
X149352000Y-114554000D01*
X151892000Y-131572000D02*
X152146000Y-131826000D01*
X163322000Y-131826000D02*
X163576000Y-132080000D01*
X151892000Y-129032010D02*
X151892000Y-131572000D01*
X152146000Y-131826000D02*
X163322000Y-131826000D01*
X149352000Y-114554000D02*
X149352000Y-105156000D01*
X177800000Y-81280000D02*
X180340000Y-81280000D01*
X227076000Y-103378000D02*
X212852000Y-103378000D01*
X230124000Y-103378000D02*
X232918000Y-103378000D01*
X189992000Y-95758000D02*
X193802000Y-95758000D01*
X206502000Y-97028000D02*
X197104006Y-97028000D01*
X194056000Y-96012000D02*
X194056000Y-97028000D01*
X193802000Y-95758000D02*
X194056000Y-96012000D01*
X60960000Y-127000000D02*
X58928000Y-124968000D01*
X212852000Y-103378000D02*
X206502000Y-97028000D01*
X232918000Y-103378000D02*
X236220000Y-106680000D01*
X58928000Y-124968000D02*
X58928000Y-100330000D01*
X183134000Y-119380000D02*
X183388000Y-119126000D01*
X219710000Y-119126000D02*
X228346000Y-110490000D01*
X228346000Y-110490000D02*
X229870000Y-110490000D01*
X172466000Y-129794000D02*
X182595185Y-129794000D01*
X170180000Y-132080000D02*
X172466000Y-129794000D01*
X229870000Y-110490000D02*
X233680000Y-106680000D01*
X183134000Y-120650000D02*
X183134000Y-119380000D01*
X183388000Y-119126000D02*
X219710000Y-119126000D01*
X182595185Y-129794000D02*
X183134000Y-129794000D01*
X220980000Y-119888000D02*
X229362000Y-111506000D01*
X185928000Y-119888000D02*
X220980000Y-119888000D01*
X185674000Y-120142000D02*
X185928000Y-119888000D01*
X233934000Y-111506000D02*
X238760000Y-106680000D01*
X185135185Y-129032018D02*
X185674000Y-129032018D01*
X229362000Y-111506000D02*
X233934000Y-111506000D01*
X167640000Y-132080000D02*
X170687982Y-129032018D01*
X185674000Y-120650000D02*
X185674000Y-120142000D01*
X170687982Y-129032018D02*
X185135185Y-129032018D01*
X243840000Y-71120000D02*
X251460000Y-63500000D01*
X236220000Y-71120000D02*
X243840000Y-71120000D01*
X190500000Y-144780000D02*
X190500000Y-146558000D01*
X80010000Y-125730000D02*
X78740000Y-125730000D01*
X124460000Y-132080000D02*
X124460000Y-134620000D01*
X118110000Y-143764000D02*
X118110000Y-146558000D01*
X157480000Y-115062000D02*
X158496000Y-115062000D01*
X190500000Y-146558000D02*
X154432000Y-146558000D01*
X169164000Y-103378000D02*
X170180000Y-104394000D01*
X86360000Y-132080000D02*
X80010000Y-125730000D01*
X154432000Y-146558000D02*
X118110000Y-146558000D01*
X124460000Y-134620000D02*
X124460000Y-137414000D01*
X154432000Y-143764000D02*
X154432000Y-146558000D01*
X160274000Y-103886000D02*
X160782000Y-103378000D01*
X160274000Y-113284000D02*
X160274000Y-103886000D01*
X160782000Y-103378000D02*
X169164000Y-103378000D01*
X118110000Y-146558000D02*
X91440000Y-146558000D01*
X170180000Y-106680000D02*
X170180000Y-104394000D01*
X154940000Y-123698000D02*
X154940000Y-117602000D01*
X91440000Y-146558000D02*
X91440000Y-132080000D01*
X158496000Y-115062000D02*
X160274000Y-113284000D01*
X154940000Y-136398000D02*
X154432000Y-136906000D01*
X154432000Y-136906000D02*
X154432000Y-140970000D01*
X124460000Y-137414000D02*
X118110000Y-143764000D01*
X208280000Y-139954000D02*
X197866000Y-139954000D01*
X84582000Y-137160000D02*
X80772000Y-133350000D01*
X90678000Y-147320000D02*
X90424000Y-147066000D01*
X90424000Y-147066000D02*
X90424000Y-137160000D01*
X80772000Y-133350000D02*
X78740000Y-133350000D01*
X193040000Y-144780000D02*
X193040000Y-147320000D01*
X193040000Y-147320000D02*
X90678000Y-147320000D01*
X87376000Y-137160000D02*
X84582000Y-137160000D01*
X197866000Y-139954000D02*
X193040000Y-144780000D01*
X247904000Y-88784630D02*
X247904000Y-89916000D01*
X239014000Y-83566000D02*
X241300000Y-81280000D01*
X235712000Y-88646000D02*
X235712000Y-85090000D01*
X247765370Y-88646000D02*
X247904000Y-88784630D01*
X231140000Y-88646000D02*
X247650000Y-88646000D01*
X200660000Y-86360000D02*
X200660000Y-88646000D01*
X235712000Y-85090000D02*
X237236000Y-83566000D01*
X237236000Y-83566000D02*
X239014000Y-83566000D01*
X247650000Y-88646000D02*
X247765370Y-88646000D01*
X200660000Y-88646000D02*
X231140000Y-88646000D01*
X203200000Y-124460000D02*
X203200000Y-122428000D01*
X203200000Y-122428000D02*
X202946000Y-122174000D01*
X196372815Y-122174000D02*
X195834000Y-122174000D01*
X196088000Y-110998000D02*
X195833990Y-111252010D01*
X195833990Y-111252010D02*
X195833990Y-112522000D01*
X203454000Y-106934000D02*
X203454000Y-110998000D01*
X203454000Y-110998000D02*
X196088000Y-110998000D01*
X203200000Y-106680000D02*
X203454000Y-106934000D01*
X202946000Y-122174000D02*
X196372815Y-122174000D01*
X203200000Y-116840000D02*
X185166000Y-116840000D01*
X184658000Y-112522000D02*
X179862815Y-112522000D01*
X184912000Y-116586000D02*
X184912000Y-112776000D01*
X184912000Y-112776000D02*
X184658000Y-112522000D01*
X185166000Y-116840000D02*
X184912000Y-116586000D01*
X179862815Y-112522000D02*
X179324000Y-112522000D01*
X205740000Y-114300000D02*
X203200000Y-116840000D01*
X78740000Y-137922000D02*
X78740000Y-135890000D01*
X63500000Y-137160000D02*
X65532000Y-139192000D01*
X77470000Y-139192000D02*
X78740000Y-137922000D01*
X65532000Y-139192000D02*
X67564000Y-139192000D01*
X62230000Y-138430000D02*
X62230000Y-131064000D01*
X63500000Y-139700000D02*
X62230000Y-138430000D01*
X68580000Y-130810000D02*
X69850000Y-129540000D01*
X62230000Y-131064000D02*
X62484000Y-130810000D01*
X62484000Y-130810000D02*
X68580000Y-130810000D01*
X69850000Y-129540000D02*
X76200000Y-129540000D01*
X218186000Y-129032010D02*
X218186000Y-131318000D01*
X71120000Y-130810000D02*
X76200000Y-130810000D01*
X219456000Y-111252000D02*
X218186000Y-112522000D01*
X152146000Y-140208000D02*
X144048815Y-140208000D01*
X213360000Y-136144000D02*
X170688000Y-136144000D01*
X218186000Y-121920000D02*
X218186000Y-129032010D01*
X76454000Y-139954000D02*
X76708000Y-140208000D01*
X165100000Y-141732000D02*
X153670000Y-141732000D01*
X218186000Y-131318000D02*
X213360000Y-136144000D01*
X150876000Y-105156014D02*
X150875986Y-105156000D01*
X76708000Y-140208000D02*
X85567185Y-140208000D01*
X144048815Y-140208000D02*
X143510000Y-140208000D01*
X92710000Y-140208006D02*
X95503994Y-140208006D01*
X95503994Y-140208006D02*
X95504000Y-140208000D01*
X219456000Y-101854000D02*
X214884000Y-101854000D01*
X170688000Y-136144000D02*
X165100000Y-141732000D01*
X218186000Y-112522000D02*
X218186000Y-118110000D01*
X153670000Y-141732000D02*
X153162000Y-141224000D01*
X152908000Y-116586000D02*
X150876000Y-114554000D01*
X210820000Y-97790000D02*
X210820000Y-93980000D01*
X76200000Y-130810000D02*
X76454000Y-131064000D01*
X150876000Y-114554000D02*
X150876000Y-105156014D01*
X152908000Y-136398000D02*
X152146000Y-137160000D01*
X153162000Y-141224000D02*
X152146000Y-140208000D01*
X152146000Y-137160000D02*
X152146000Y-140208000D01*
X214884000Y-101854000D02*
X210820000Y-97790000D01*
X85567185Y-140208000D02*
X86106000Y-140208000D01*
X76454000Y-131064000D02*
X76454000Y-139954000D01*
X150876000Y-89408000D02*
X150876000Y-80264000D01*
X152908000Y-123698000D02*
X152908000Y-116586000D01*
X69342000Y-121412000D02*
X71120000Y-123190000D01*
X80010000Y-115570000D02*
X77216000Y-118364000D01*
X146304000Y-106172000D02*
X143764000Y-108712000D01*
X143764000Y-108712000D02*
X143764000Y-115570000D01*
X213360000Y-98044000D02*
X213360000Y-93980000D01*
X216154000Y-100838000D02*
X213360000Y-98044000D01*
X148590000Y-103886000D02*
X146304000Y-106172000D01*
X158496000Y-103886000D02*
X156972000Y-103886000D01*
X218440000Y-100838000D02*
X216154000Y-100838000D01*
X69342000Y-119126000D02*
X69342000Y-121412000D01*
X155448000Y-89408000D02*
X155448000Y-80264000D01*
X172720000Y-110236000D02*
X165100000Y-110236000D01*
X70104000Y-118364000D02*
X69342000Y-119126000D01*
X201930000Y-110236000D02*
X172720000Y-110236000D01*
X159512000Y-104902000D02*
X158496000Y-103886000D01*
X217424000Y-110236000D02*
X205994000Y-110236000D01*
X165100000Y-110236000D02*
X164592000Y-110744000D01*
X159512000Y-109220000D02*
X159512000Y-104902000D01*
X218440000Y-110490000D02*
X217678000Y-110490000D01*
X156972000Y-103886000D02*
X148590000Y-103886000D01*
X217678000Y-110490000D02*
X217424000Y-110236000D01*
X77216000Y-118364000D02*
X70104000Y-118364000D01*
X203200000Y-86360000D02*
X201422000Y-84582000D01*
X196342000Y-63500000D02*
X204470000Y-63500000D01*
X189992000Y-72390000D02*
X189992000Y-69850000D01*
X201422000Y-84582000D02*
X201422000Y-81026000D01*
X194310000Y-76708000D02*
X189992000Y-72390000D01*
X197104000Y-76708000D02*
X194310000Y-76708000D01*
X189992000Y-69850000D02*
X196342000Y-63500000D01*
X201422000Y-81026000D02*
X197104000Y-76708000D01*
X202692000Y-83312000D02*
X205740000Y-86360000D01*
X208280000Y-73914000D02*
X202692000Y-79502000D01*
X208280000Y-72390000D02*
X208280000Y-73914000D01*
X202692000Y-79502000D02*
X202692000Y-83312000D01*
X214630000Y-72390000D02*
X213030002Y-72390000D01*
X206756000Y-83058000D02*
X208280000Y-84582000D01*
X208280000Y-84582000D02*
X208280000Y-86360000D01*
X213030002Y-72390000D02*
X206756000Y-78664002D01*
X206756000Y-78664002D02*
X206756000Y-83058000D01*
X208788000Y-80010000D02*
X208788000Y-82296000D01*
X220980000Y-72390000D02*
X218694000Y-74676000D01*
X208788000Y-82296000D02*
X210820000Y-84328000D01*
X210820000Y-84328000D02*
X210820000Y-86360000D01*
X214122000Y-74676000D02*
X208788000Y-80010000D01*
X218694000Y-74676000D02*
X214122000Y-74676000D01*
X227330000Y-72390000D02*
X224028000Y-75692000D01*
X224028000Y-75692000D02*
X219964000Y-75692000D01*
X213360000Y-82296000D02*
X213360000Y-86360000D01*
X219964000Y-75692000D02*
X213360000Y-82296000D01*
X218948000Y-83312000D02*
X215900000Y-86360000D01*
X218948000Y-80264000D02*
X218948000Y-83312000D01*
X229362000Y-76708000D02*
X222504000Y-76708000D01*
X222504000Y-76708000D02*
X218948000Y-80264000D01*
X233680000Y-72390000D02*
X229362000Y-76708000D01*
X234696000Y-77724000D02*
X224282000Y-77724000D01*
X220618019Y-81387981D02*
X220618019Y-84181981D01*
X220618019Y-84181981D02*
X218440000Y-86360000D01*
X240030000Y-72390000D02*
X234696000Y-77724000D01*
X224282000Y-77724000D02*
X220618019Y-81387981D01*
X52578000Y-93980000D02*
X58928000Y-87630000D01*
X218440000Y-98298000D02*
X218440000Y-93980000D01*
X52578000Y-131318000D02*
X52578000Y-93980000D01*
X132842000Y-85090000D02*
X139192000Y-91440000D01*
X220472000Y-110490000D02*
X220472000Y-115316000D01*
X219710000Y-121920000D02*
X219710000Y-125729996D01*
X214376000Y-136906000D02*
X219710004Y-131571996D01*
X220472000Y-100330000D02*
X218440000Y-98298000D01*
X219710004Y-131571996D02*
X219710004Y-125730000D01*
X219710000Y-125729996D02*
X219710004Y-125730000D01*
X220472000Y-100838000D02*
X220472000Y-100330000D01*
X198120000Y-135382000D02*
X198120000Y-132080000D01*
X219710000Y-116078000D02*
X219710000Y-117602000D01*
X220472000Y-115316000D02*
X219710000Y-116078000D01*
X198120000Y-136906000D02*
X214376000Y-136906000D01*
X60960000Y-139700000D02*
X52578000Y-131318000D01*
X116586000Y-85090000D02*
X132842000Y-85090000D01*
X131572000Y-87630000D02*
X135382000Y-91440000D01*
X158496000Y-120142000D02*
X155702000Y-122936000D01*
X167132000Y-122428000D02*
X164846000Y-120142000D01*
X150876000Y-122174000D02*
X151130000Y-121920000D01*
X151384000Y-125984000D02*
X150876000Y-125476000D01*
X151130000Y-117602000D02*
X147828000Y-114300000D01*
X116586000Y-87630000D02*
X131572000Y-87630000D01*
X60960000Y-137160000D02*
X53848000Y-130048000D01*
X150876000Y-125476000D02*
X150876000Y-122174000D01*
X147828000Y-114300000D02*
X147828000Y-107188000D01*
X155194000Y-125984000D02*
X151384000Y-125984000D01*
X155702000Y-125476000D02*
X155194000Y-125984000D01*
X155702000Y-122936000D02*
X155702000Y-125476000D01*
X159512000Y-120142000D02*
X158496000Y-120142000D01*
X53848000Y-130048000D02*
X53848000Y-95250000D01*
X53848000Y-95250000D02*
X58928000Y-90170000D01*
X145796000Y-101854000D02*
X145796000Y-105156000D01*
X151130000Y-121920000D02*
X151130000Y-117602000D01*
X85598000Y-68580000D02*
X107695988Y-68580000D01*
X58420000Y-68580000D02*
X81249185Y-68580000D01*
X154432000Y-77978000D02*
X147828000Y-77978000D01*
X200660000Y-132080000D02*
X203454000Y-134874000D01*
X107695988Y-68580000D02*
X107696000Y-68580012D01*
X165100000Y-76200000D02*
X156210000Y-76200000D01*
X209296000Y-102870000D02*
X196596000Y-102870000D01*
X216662000Y-110998000D02*
X216662000Y-118110000D01*
X216662000Y-121920000D02*
X216662000Y-122458815D01*
X203454000Y-134874000D02*
X212852000Y-134874000D01*
X191008000Y-102362000D02*
X159766000Y-102362000D01*
X216662000Y-122458815D02*
X216662000Y-125730000D01*
X55880000Y-66040000D02*
X58420000Y-68580000D01*
X211328000Y-104902000D02*
X209296000Y-102870000D01*
X216662000Y-107950000D02*
X213614000Y-104902000D01*
X159258004Y-102869996D02*
X147828000Y-102869996D01*
X212852000Y-134874000D02*
X216662000Y-131064000D01*
X147828000Y-77216000D02*
X147828000Y-88869185D01*
X81249185Y-68580000D02*
X81788000Y-68580000D01*
X156210000Y-76200000D02*
X154432000Y-77978000D01*
X216662000Y-131064000D02*
X216662000Y-125730000D01*
X159766000Y-102362000D02*
X159258004Y-102869996D01*
X213614000Y-104902000D02*
X211328000Y-104902000D01*
X147828000Y-77978000D02*
X147828000Y-77216000D01*
X147828000Y-88869185D02*
X147828000Y-89408000D01*
X127000000Y-128016000D02*
X215646000Y-128016000D01*
X242570000Y-104394000D02*
X243840000Y-103124000D01*
X242570000Y-108204000D02*
X242570000Y-104394000D01*
X127000000Y-128016000D02*
X93980000Y-128016000D01*
X238252000Y-112522000D02*
X242570000Y-108204000D01*
X230124000Y-112522000D02*
X238252000Y-112522000D01*
X223774000Y-118872000D02*
X230124000Y-112522000D01*
X243840000Y-103124000D02*
X243840000Y-101600000D01*
X223774000Y-128016000D02*
X223774000Y-118872000D01*
X169448815Y-125984020D02*
X168910000Y-125984020D01*
X168910000Y-129032000D02*
X168148000Y-129032000D01*
X166370000Y-135890000D02*
X162560000Y-135890000D01*
X168148000Y-129032000D02*
X166370000Y-130810000D01*
X166370000Y-137922000D02*
X164592000Y-139700000D01*
X164592000Y-139700000D02*
X157480000Y-139700000D01*
X162560000Y-135890000D02*
X161290000Y-134620000D01*
X166370000Y-130810000D02*
X166370000Y-133858000D01*
X177800000Y-124460000D02*
X176275980Y-125984020D01*
X176275980Y-125984020D02*
X169448815Y-125984020D01*
X170942000Y-133858000D02*
X172720000Y-132080000D01*
X161798000Y-122397185D02*
X161290000Y-122905185D01*
X161290000Y-132841996D02*
X162051996Y-132841996D01*
X178054000Y-103886000D02*
X192278000Y-103886000D01*
X208026000Y-103886000D02*
X197358000Y-103886000D01*
X164084000Y-134874000D02*
X167894000Y-134874000D01*
X210820000Y-106680000D02*
X208026000Y-103886000D01*
X157480000Y-134620000D02*
X151130000Y-134620000D01*
X163322000Y-105156000D02*
X161798000Y-106680000D01*
X168910000Y-133858000D02*
X170942000Y-133858000D01*
X162051996Y-132841996D02*
X164084000Y-134874000D01*
X160781996Y-132842000D02*
X159258000Y-132842000D01*
X175260000Y-106680000D02*
X178054000Y-103886000D01*
X167894000Y-134874000D02*
X168910000Y-133858000D01*
X161290000Y-132841996D02*
X160781996Y-132842000D01*
X161798000Y-106680000D02*
X161798000Y-122397185D01*
X161290000Y-122905185D02*
X161290000Y-123444000D01*
X159258000Y-132842000D02*
X157480000Y-134620000D01*
X187452000Y-111937300D02*
X187452000Y-115824000D01*
X187452000Y-108204000D02*
X179324000Y-108204000D01*
X212090000Y-112775994D02*
X212978995Y-111886999D01*
X212090000Y-117856000D02*
X212090000Y-112775994D01*
X179324000Y-130556000D02*
X184404000Y-130556000D01*
X186944000Y-118364000D02*
X200660000Y-118364000D01*
X211582000Y-118364000D02*
X212090000Y-117856000D01*
X212978995Y-111886999D02*
X213359994Y-111506000D01*
X177800000Y-132080000D02*
X179324000Y-130556000D01*
X187452000Y-115824000D02*
X187706000Y-116078000D01*
X179324000Y-108204000D02*
X177800000Y-106680000D01*
X200660000Y-118364000D02*
X211582000Y-118364000D01*
X187706000Y-116078000D02*
X200660000Y-116078000D01*
X213614000Y-129286000D02*
X210820000Y-132080000D01*
X215646000Y-129286000D02*
X213614000Y-129286000D01*
X223774000Y-129286000D02*
X224790000Y-129286000D01*
X233680000Y-120396000D02*
X233680000Y-118110000D01*
X224790000Y-129286000D02*
X233680000Y-120396000D01*
X212090000Y-104140000D02*
X209550000Y-101600000D01*
X191262000Y-103124000D02*
X192786000Y-101600000D01*
X192786000Y-101600000D02*
X193040000Y-101600000D01*
X223012000Y-110998000D02*
X223012000Y-114300000D01*
X228092000Y-116586000D02*
X233934000Y-116586000D01*
X222504000Y-110490000D02*
X223012000Y-110998000D01*
X218694000Y-108204000D02*
X214630000Y-104140000D01*
X222504000Y-108204000D02*
X218694000Y-108204000D01*
X209550000Y-101600000D02*
X197612000Y-101600000D01*
X176276000Y-103124000D02*
X191262000Y-103124000D01*
X172720000Y-106680000D02*
X176276000Y-103124000D01*
X233934000Y-116586000D02*
X236220000Y-114300000D01*
X214630000Y-104140000D02*
X212090000Y-104140000D01*
X187198000Y-133350000D02*
X186944000Y-133604000D01*
X180340000Y-124460000D02*
X186944000Y-124460000D01*
X175260000Y-133350000D02*
X175260000Y-132080000D01*
X175514000Y-133604000D02*
X175260000Y-133350000D01*
X187198000Y-129032000D02*
X187198000Y-133350000D01*
X187198000Y-124714000D02*
X187198000Y-125984000D01*
X186944000Y-133604000D02*
X175514000Y-133604000D01*
X186944000Y-124460000D02*
X187198000Y-124714000D01*
X169926000Y-134874000D02*
X191770000Y-134874000D01*
X191770000Y-134874000D02*
X196342000Y-130302000D01*
X203962000Y-130302000D02*
X205740000Y-132080000D01*
X153924000Y-124968000D02*
X153924000Y-116078000D01*
X152400000Y-89408000D02*
X153924000Y-87884000D01*
X153924000Y-85344000D02*
X153924000Y-80264000D01*
X196342000Y-130302000D02*
X203962000Y-130302000D01*
X157480000Y-135382000D02*
X159004000Y-136906000D01*
X153924000Y-116078000D02*
X152400000Y-114554000D01*
X153924000Y-87884000D02*
X153924000Y-85344000D01*
X153924000Y-135382000D02*
X157480000Y-135382000D01*
X167894000Y-136906000D02*
X169926000Y-134874000D01*
X152400000Y-114554000D02*
X152400000Y-105156000D01*
X159004000Y-136906000D02*
X167894000Y-136906000D01*
X237490000Y-78740000D02*
X228600000Y-78740000D01*
X239522000Y-76708000D02*
X237490000Y-78740000D01*
X228600000Y-78740000D02*
X220980000Y-86360000D01*
X242062000Y-76708000D02*
X239522000Y-76708000D01*
X246380000Y-72390000D02*
X242062000Y-76708000D01*
X209550000Y-125476000D02*
X209550000Y-122174000D01*
X209550000Y-122174000D02*
X208280000Y-120904000D01*
X213360000Y-124460000D02*
X211836000Y-125984000D01*
X210058000Y-125984000D02*
X209550000Y-125476000D01*
X211836000Y-125984000D02*
X210058000Y-125984000D01*
X208280000Y-114300000D02*
X208280000Y-117602000D01*
X182118000Y-118872000D02*
X180594000Y-120396000D01*
X180594000Y-120396000D02*
X177546000Y-120396000D01*
X182626000Y-106680000D02*
X185928000Y-106680000D01*
X175260000Y-120396000D02*
X175260000Y-124460000D01*
X185928000Y-112014000D02*
X185928000Y-115062000D01*
X204470000Y-126492000D02*
X204470000Y-121412000D01*
X173990000Y-121666000D02*
X170434000Y-121666000D01*
X231140000Y-120904000D02*
X231140000Y-117856000D01*
X215646000Y-126746000D02*
X204724000Y-126746000D01*
X170434000Y-121666000D02*
X167640000Y-124460000D01*
X204470000Y-121412000D02*
X195072000Y-121412000D01*
X225298000Y-126746000D02*
X231140000Y-120904000D01*
X195072000Y-121412000D02*
X194818000Y-121666000D01*
X194818000Y-121666000D02*
X177546000Y-121666000D01*
X204724000Y-126746000D02*
X204470000Y-126492000D01*
M02*
