M48
; DRILL file {KiCad (7.0.0)} date Sun Sep 24 18:00:59 2023
; FORMAT={-:-/ absolute / metric / decimal}
; #@! TF.CreationDate,2023-09-24T18:00:59-07:00
; #@! TF.GenerationSoftware,Kicad,Pcbnew,(7.0.0)
; #@! TF.FileFunction,Plated,1,2,PTH
FMAT,2
METRIC
; #@! TA.AperFunction,Plated,PTH,ViaDrill
T1C0.381
; #@! TA.AperFunction,Plated,PTH,ComponentDrill
T2C0.800
; #@! TA.AperFunction,Plated,PTH,ComponentDrill
T3C0.900
; #@! TA.AperFunction,Plated,PTH,ComponentDrill
T4C1.000
%
G90
G05
T1
X55.118Y-86.36
X55.118Y-87.884
X55.118Y-137.414
X55.118Y-138.938
X58.928Y-87.63
X58.928Y-90.17
X58.928Y-92.71
X58.928Y-95.25
X58.928Y-97.79
X58.928Y-100.33
X66.548Y-80.772
X67.564Y-139.192
X68.58Y-141.732
X72.644Y-134.62
X73.66Y-141.732
X75.184Y-121.92
X76.2Y-129.54
X77.47Y-139.192
X80.01Y-115.57
X80.772Y-121.92
X81.788Y-68.58
X82.55Y-67.564
X84.836Y-142.748
X85.09Y-67.564
X85.598Y-68.58
X86.106Y-78.486
X86.106Y-140.208
X86.36Y-132.08
X87.122Y-122.174
X87.376Y-137.16
X89.662Y-78.486
X89.662Y-121.158
X90.424Y-137.16
X92.456Y-142.748
X92.71Y-140.208
X93.98Y-128.016
X94.996Y-121.158
X95.504Y-140.208
X97.536Y-143.002
X107.696Y-68.58
X111.252Y-68.58
X113.03Y-79.502
X114.554Y-83.82
X114.554Y-86.36
X114.554Y-88.9
X114.554Y-91.44
X114.554Y-93.98
X114.554Y-96.52
X114.554Y-99.06
X116.586Y-85.09
X116.586Y-87.63
X116.586Y-90.17
X116.586Y-92.71
X116.84Y-101.6
X118.618Y-93.218
X119.126Y-121.158
X120.142Y-95.758
X121.92Y-104.14
X127.0Y-106.68
X127.0Y-128.016
X127.762Y-94.488
X128.27Y-121.158
X131.572Y-97.028
X132.08Y-109.22
X135.382Y-98.806
X137.16Y-72.644
X137.16Y-111.76
X139.192Y-98.806
X140.97Y-143.002
X142.24Y-114.3
X143.51Y-140.208
X143.764Y-115.57
X144.78Y-116.84
X145.796Y-105.156
X147.828Y-89.408
X147.828Y-102.87
X147.828Y-107.188
X149.352Y-89.408
X149.352Y-105.156
X150.876Y-105.156
X150.876Y-76.708
X150.876Y-80.264
X150.876Y-89.408
X151.892Y-124.968
X151.892Y-129.032
X152.4Y-76.708
X152.4Y-80.264
X152.4Y-87.884
X152.4Y-89.408
X152.4Y-105.156
X152.908Y-123.698
X152.908Y-136.398
X153.924Y-76.708
X153.924Y-80.264
X153.924Y-97.79
X153.924Y-105.156
X153.924Y-124.968
X153.924Y-135.382
X154.432Y-140.97
X154.432Y-143.764
X154.94Y-117.602
X154.94Y-123.698
X154.94Y-136.398
X155.448Y-78.232
X155.448Y-80.264
X155.448Y-89.408
X155.448Y-105.156
X156.972Y-103.886
X157.48Y-115.062
X158.75Y-108.204
X159.512Y-109.22
X159.512Y-118.11
X159.512Y-120.142
X160.274Y-117.094
X160.274Y-119.126
X161.29Y-123.444
X161.29Y-132.842
X163.322Y-105.156
X164.084Y-109.22
X164.084Y-117.094
X164.084Y-119.126
X164.592Y-110.744
X164.846Y-118.11
X164.846Y-120.142
X165.1Y-96.52
X165.1Y-101.6
X166.37Y-96.52
X166.37Y-104.14
X166.37Y-133.858
X166.37Y-135.89
X166.37Y-137.922
X167.132Y-122.428
X167.64Y-76.2
X168.91Y-125.984
X168.91Y-129.032
X170.18Y-128.016
X171.45Y-92.456
X173.99Y-121.666
X175.26Y-120.396
X177.546Y-120.396
X177.546Y-121.666
X179.324Y-112.522
X182.118Y-118.872
X182.626Y-106.68
X183.134Y-120.65
X183.134Y-129.794
X184.404Y-130.556
X184.658Y-95.758
X185.674Y-120.65
X185.674Y-129.032
X185.928Y-106.68
X185.928Y-112.014
X185.928Y-115.062
X186.944Y-118.364
X187.198Y-125.984
X187.198Y-129.032
X187.452Y-92.456
X187.452Y-108.204
X187.452Y-111.937
X189.992Y-95.758
X191.008Y-102.362
X192.278Y-103.886
X193.04Y-101.6
X193.548Y-92.456
X194.056Y-97.028
X194.056Y-99.568
X194.31Y-117.602
X194.31Y-120.65
X195.326Y-88.392
X195.326Y-93.472
X195.326Y-94.742
X195.834Y-112.522
X195.834Y-122.174
X196.596Y-88.392
X196.596Y-102.87
X197.104Y-99.568
X197.104Y-97.028
X197.358Y-103.886
X197.612Y-101.6
X198.12Y-135.382
X198.12Y-136.906
X200.66Y-95.758
X200.66Y-98.806
X200.66Y-116.078
X200.66Y-118.364
X201.168Y-109.22
X201.93Y-110.236
X201.93Y-115.57
X201.93Y-117.602
X202.438Y-109.22
X203.2Y-137.668
X205.994Y-110.236
X206.756Y-109.22
X207.01Y-117.602
X207.01Y-120.904
X208.026Y-109.22
X208.28Y-72.39
X208.28Y-89.408
X208.28Y-117.602
X208.28Y-120.904
X208.28Y-139.954
X209.55Y-117.602
X209.55Y-120.904
X209.804Y-111.506
X210.82Y-117.602
X210.82Y-120.904
X213.36Y-111.506
X214.63Y-72.39
X215.646Y-126.746
X215.646Y-128.016
X215.646Y-129.286
X216.662Y-107.95
X216.662Y-110.998
X216.662Y-118.11
X216.662Y-121.92
X218.186Y-118.11
X218.186Y-121.92
X218.44Y-100.838
X218.44Y-110.49
X219.456Y-101.854
X219.456Y-111.252
X219.71Y-117.602
X219.71Y-121.92
X220.472Y-100.838
X220.472Y-110.49
X220.98Y-72.39
X221.234Y-115.824
X221.234Y-121.92
X221.488Y-102.616
X221.488Y-111.252
X222.504Y-108.204
X222.504Y-110.49
X223.012Y-114.3
X223.774Y-128.016
X223.774Y-129.286
X225.298Y-126.746
X227.076Y-103.378
X227.33Y-72.39
X228.092Y-116.586
X230.124Y-103.378
X231.14Y-117.856
X233.68Y-72.39
X233.68Y-118.11
X240.03Y-72.39
X243.84Y-89.662
X243.84Y-87.376
X246.38Y-72.39
T2
X53.345Y-66.03
X53.345Y-73.65
X55.885Y-66.03
X55.885Y-73.65
X58.425Y-66.03
X58.425Y-73.65
X60.965Y-66.03
X60.965Y-73.65
X63.505Y-66.03
X63.505Y-73.65
X66.045Y-66.03
X66.045Y-73.65
X68.58Y-81.28
X68.585Y-66.03
X68.585Y-73.65
X71.12Y-81.28
X71.12Y-120.65
X71.12Y-123.19
X71.12Y-125.73
X71.12Y-128.27
X71.12Y-130.81
X71.12Y-133.35
X71.12Y-135.89
X71.125Y-66.03
X71.125Y-73.65
X73.66Y-81.28
X73.665Y-66.03
X73.665Y-73.65
X76.2Y-81.28
X76.205Y-66.03
X76.205Y-73.65
X78.74Y-81.28
X78.74Y-120.65
X78.74Y-123.19
X78.74Y-125.73
X78.74Y-128.27
X78.74Y-130.81
X78.74Y-133.35
X78.74Y-135.89
X81.28Y-81.28
X82.55Y-120.65
X82.55Y-125.65
X83.82Y-81.28
X83.825Y-66.03
X83.825Y-73.65
X86.36Y-81.28
X86.36Y-129.54
X86.36Y-134.54
X86.365Y-66.03
X86.365Y-73.65
X88.9Y-81.28
X88.905Y-66.03
X88.905Y-73.65
X91.44Y-124.46
X91.44Y-132.08
X91.445Y-66.03
X91.445Y-73.65
X93.98Y-81.28
X93.98Y-124.46
X93.98Y-132.08
X93.98Y-137.16
X93.985Y-66.03
X93.985Y-73.65
X96.52Y-81.28
X96.52Y-119.38
X96.52Y-124.46
X96.52Y-132.08
X96.52Y-137.16
X96.525Y-66.03
X96.525Y-73.65
X99.06Y-81.28
X99.06Y-119.38
X99.06Y-124.46
X99.06Y-132.08
X99.06Y-137.16
X99.065Y-66.03
X99.065Y-73.65
X101.6Y-81.28
X101.6Y-119.38
X101.6Y-124.46
X101.6Y-132.08
X101.6Y-137.16
X101.605Y-66.03
X101.605Y-73.65
X104.14Y-81.28
X104.14Y-119.38
X104.14Y-124.46
X104.14Y-132.08
X104.14Y-137.16
X104.145Y-66.03
X104.145Y-73.65
X106.68Y-81.28
X106.68Y-119.38
X106.68Y-124.46
X106.68Y-132.08
X106.68Y-137.16
X106.685Y-66.03
X106.685Y-73.65
X109.22Y-81.28
X109.22Y-119.38
X109.22Y-124.46
X109.22Y-132.08
X109.22Y-137.16
X111.76Y-66.04
X111.76Y-71.04
X111.76Y-81.28
X111.76Y-119.38
X111.76Y-124.46
X111.76Y-132.08
X111.76Y-137.16
X114.3Y-81.28
X114.3Y-119.38
X114.3Y-124.46
X114.3Y-132.08
X114.3Y-137.16
X116.84Y-119.38
X119.38Y-60.92
X119.38Y-124.46
X119.38Y-129.46
X120.142Y-81.28
X120.142Y-91.44
X121.88Y-60.92
X121.96Y-119.126
X123.952Y-81.28
X123.952Y-91.44
X124.46Y-119.126
X124.46Y-124.46
X124.46Y-132.08
X127.0Y-124.46
X127.0Y-132.08
X127.0Y-137.16
X127.762Y-81.28
X127.762Y-91.44
X129.54Y-68.58
X129.54Y-73.58
X129.54Y-119.38
X129.54Y-124.46
X129.54Y-132.08
X129.54Y-137.16
X131.572Y-81.28
X131.572Y-91.44
X132.08Y-119.38
X132.08Y-124.46
X132.08Y-132.08
X132.08Y-137.16
X134.62Y-119.38
X134.62Y-124.46
X134.62Y-132.08
X134.62Y-137.16
X135.382Y-81.28
X135.382Y-91.44
X137.16Y-68.58
X137.16Y-76.2
X137.16Y-119.38
X137.16Y-124.46
X137.16Y-132.08
X137.16Y-137.16
X139.192Y-81.28
X139.192Y-91.44
X139.7Y-119.38
X139.7Y-124.46
X139.7Y-132.08
X139.7Y-137.16
X142.24Y-119.38
X142.24Y-124.46
X142.24Y-132.08
X142.24Y-137.16
X144.78Y-68.58
X144.78Y-76.2
X144.78Y-119.38
X144.78Y-124.46
X144.78Y-132.08
X144.78Y-137.16
X147.32Y-119.38
X147.32Y-124.46
X147.32Y-132.08
X147.32Y-137.16
X149.86Y-119.38
X151.13Y-134.62
X155.02Y-66.04
X157.48Y-106.68
X157.48Y-111.68
X157.48Y-124.46
X157.48Y-129.46
X157.48Y-139.7
X157.48Y-144.7
X160.02Y-66.04
X160.02Y-81.36
X160.02Y-86.36
X161.29Y-134.62
X165.1Y-63.5
X165.1Y-71.12
X165.1Y-76.2
X165.1Y-81.28
X165.1Y-86.36
X165.1Y-93.98
X165.1Y-106.68
X165.1Y-114.3
X165.1Y-124.46
X165.1Y-132.08
X167.64Y-63.5
X167.64Y-71.12
X167.64Y-86.36
X167.64Y-93.98
X167.64Y-106.68
X167.64Y-114.3
X167.64Y-124.46
X167.64Y-132.08
X170.18Y-63.5
X170.18Y-71.12
X170.18Y-86.36
X170.18Y-93.98
X170.18Y-106.68
X170.18Y-114.3
X170.18Y-124.46
X170.18Y-132.08
X172.72Y-63.5
X172.72Y-71.12
X172.72Y-86.36
X172.72Y-93.98
X172.72Y-106.68
X172.72Y-114.3
X172.72Y-124.46
X172.72Y-132.08
X175.26Y-63.5
X175.26Y-71.12
X175.26Y-76.2
X175.26Y-81.28
X175.26Y-86.36
X175.26Y-93.98
X175.26Y-106.68
X175.26Y-114.3
X175.26Y-124.46
X175.26Y-132.08
X177.8Y-63.5
X177.8Y-71.12
X177.8Y-86.36
X177.8Y-93.98
X177.8Y-106.68
X177.8Y-114.3
X177.8Y-124.46
X177.8Y-132.08
X180.34Y-63.5
X180.34Y-71.12
X180.34Y-81.28
X180.34Y-86.36
X180.34Y-93.98
X180.34Y-106.68
X180.34Y-114.3
X180.34Y-124.46
X180.34Y-132.08
X182.88Y-63.5
X182.88Y-71.12
X182.88Y-86.36
X182.88Y-93.98
X185.34Y-81.28
X186.77Y-86.36
X191.77Y-71.12
X191.77Y-81.28
X191.77Y-86.36
X191.77Y-106.68
X191.77Y-111.68
X191.77Y-124.46
X191.77Y-129.46
X198.12Y-71.12
X198.12Y-81.28
X198.12Y-86.36
X198.12Y-93.98
X198.12Y-106.68
X198.12Y-114.3
X198.12Y-124.46
X198.12Y-132.08
X200.66Y-86.36
X200.66Y-93.98
X200.66Y-106.68
X200.66Y-114.3
X200.66Y-124.46
X200.66Y-132.08
X203.2Y-86.36
X203.2Y-93.98
X203.2Y-106.68
X203.2Y-114.3
X203.2Y-124.46
X203.2Y-132.08
X204.47Y-71.12
X204.47Y-81.28
X205.74Y-86.36
X205.74Y-93.98
X205.74Y-106.68
X205.74Y-114.3
X205.74Y-124.46
X205.74Y-132.08
X208.28Y-86.36
X208.28Y-93.98
X208.28Y-106.68
X208.28Y-114.3
X208.28Y-124.46
X208.28Y-132.08
X210.82Y-71.12
X210.82Y-81.28
X210.82Y-86.36
X210.82Y-93.98
X210.82Y-106.68
X210.82Y-114.3
X210.82Y-124.46
X210.82Y-132.08
X213.36Y-86.36
X213.36Y-93.98
X213.36Y-106.68
X213.36Y-114.3
X213.36Y-124.46
X213.36Y-132.08
X215.9Y-86.36
X215.9Y-93.98
X217.17Y-71.12
X217.17Y-81.28
X218.44Y-86.36
X218.44Y-93.98
X220.98Y-86.36
X220.98Y-93.98
X223.52Y-71.12
X223.52Y-81.28
X224.79Y-106.68
X224.79Y-111.68
X228.6Y-94.02
X228.6Y-96.52
X229.87Y-71.12
X229.87Y-81.28
X231.14Y-106.68
X231.14Y-114.3
X233.68Y-101.6
X233.68Y-106.68
X233.68Y-114.3
X236.22Y-71.12
X236.22Y-81.28
X236.22Y-106.68
X236.22Y-114.3
X238.76Y-106.68
X238.76Y-114.3
X241.3Y-106.68
X241.3Y-114.3
X243.84Y-101.6
X243.84Y-106.68
X243.84Y-114.3
X246.38Y-106.68
X246.38Y-114.3
X247.904Y-89.916
X247.904Y-100.076
T3
X204.47Y-63.5
X207.01Y-63.5
X210.82Y-63.5
X213.36Y-63.5
X217.17Y-63.5
X219.71Y-63.5
X223.52Y-63.5
X226.06Y-63.5
X229.87Y-63.5
X232.41Y-63.5
X236.22Y-63.5
X238.76Y-63.5
X242.57Y-63.5
X245.11Y-63.5
X248.92Y-63.5
X251.46Y-63.5
T4
X53.34Y-60.96
X55.88Y-60.96
X58.42Y-60.96
X60.96Y-60.96
X60.96Y-81.28
X60.96Y-83.82
X60.96Y-86.36
X60.96Y-88.9
X60.96Y-91.44
X60.96Y-93.98
X60.96Y-96.52
X60.96Y-99.06
X60.96Y-101.6
X60.96Y-104.14
X60.96Y-106.68
X60.96Y-109.22
X60.96Y-111.76
X60.96Y-114.3
X60.96Y-116.84
X60.96Y-119.38
X60.96Y-121.92
X60.96Y-127.0
X60.96Y-129.54
X60.96Y-132.08
X60.96Y-134.62
X60.96Y-137.16
X60.96Y-139.7
X63.5Y-60.96
X63.5Y-81.28
X63.5Y-83.82
X63.5Y-86.36
X63.5Y-88.9
X63.5Y-91.44
X63.5Y-93.98
X63.5Y-96.52
X63.5Y-99.06
X63.5Y-101.6
X63.5Y-104.14
X63.5Y-106.68
X63.5Y-109.22
X63.5Y-111.76
X63.5Y-114.3
X63.5Y-116.84
X63.5Y-119.38
X63.5Y-121.92
X63.5Y-127.0
X63.5Y-129.54
X63.5Y-132.08
X63.5Y-134.62
X63.5Y-137.16
X63.5Y-139.7
X63.5Y-144.78
X66.04Y-60.96
X66.04Y-144.78
X68.58Y-60.96
X68.58Y-144.78
X71.12Y-60.96
X71.12Y-144.78
X73.66Y-60.96
X73.66Y-144.78
X76.2Y-60.96
X76.2Y-144.78
X78.74Y-60.96
X78.74Y-144.78
X81.28Y-60.96
X81.28Y-144.78
X83.82Y-60.96
X83.82Y-144.78
X86.36Y-60.96
X86.36Y-144.78
X88.9Y-60.96
X91.44Y-60.96
X96.52Y-60.96
X99.06Y-60.96
X99.06Y-144.78
X101.6Y-144.78
X104.14Y-144.78
X106.68Y-144.78
X109.22Y-144.78
X111.76Y-144.78
X114.3Y-144.78
X116.84Y-144.78
X119.38Y-144.78
X121.92Y-144.78
X124.46Y-144.78
X127.0Y-144.78
X129.54Y-144.78
X132.08Y-144.78
X134.62Y-144.78
X137.16Y-144.78
X162.56Y-144.78
X165.1Y-144.78
X167.64Y-144.78
X170.18Y-144.78
X172.72Y-144.78
X175.26Y-144.78
X177.8Y-144.78
X180.34Y-144.78
X182.88Y-144.78
X185.42Y-144.78
X187.96Y-144.78
X190.5Y-144.78
X193.04Y-144.78
X195.58Y-144.78
X198.12Y-144.78
X200.66Y-144.78
X203.2Y-144.78
X205.74Y-144.78
X208.28Y-144.78
X210.82Y-144.78
X213.36Y-144.78
X215.9Y-144.78
X218.44Y-144.78
X220.98Y-144.78
X223.52Y-144.78
X226.06Y-144.78
X228.6Y-144.78
X231.14Y-144.78
X233.68Y-144.78
X236.22Y-144.78
X238.76Y-144.78
X241.3Y-78.74
X241.3Y-81.28
X241.3Y-83.82
X241.3Y-144.78
T0
M30
