G04 #@! TF.GenerationSoftware,KiCad,Pcbnew,(7.0.0)*
G04 #@! TF.CreationDate,2024-03-28T20:38:38-07:00*
G04 #@! TF.ProjectId,video_shift_status_delay,76696465-6f5f-4736-9869-66745f737461,rev?*
G04 #@! TF.SameCoordinates,Original*
G04 #@! TF.FileFunction,Copper,L1,Top*
G04 #@! TF.FilePolarity,Positive*
%FSLAX46Y46*%
G04 Gerber Fmt 4.6, Leading zero omitted, Abs format (unit mm)*
G04 Created by KiCad (PCBNEW (7.0.0)) date 2024-03-28 20:38:38*
%MOMM*%
%LPD*%
G01*
G04 APERTURE LIST*
G04 #@! TA.AperFunction,ComponentPad*
%ADD10C,1.600000*%
G04 #@! TD*
G04 #@! TA.AperFunction,ComponentPad*
%ADD11R,1.600000X1.600000*%
G04 #@! TD*
G04 #@! TA.AperFunction,ComponentPad*
%ADD12O,1.600000X1.600000*%
G04 #@! TD*
G04 #@! TA.AperFunction,ComponentPad*
%ADD13R,1.700000X1.700000*%
G04 #@! TD*
G04 #@! TA.AperFunction,ComponentPad*
%ADD14O,1.700000X1.700000*%
G04 #@! TD*
G04 #@! TA.AperFunction,ComponentPad*
%ADD15R,1.800000X1.800000*%
G04 #@! TD*
G04 #@! TA.AperFunction,ComponentPad*
%ADD16C,1.800000*%
G04 #@! TD*
G04 #@! TA.AperFunction,ViaPad*
%ADD17C,0.762000*%
G04 #@! TD*
G04 #@! TA.AperFunction,Conductor*
%ADD18C,0.762000*%
G04 #@! TD*
G04 #@! TA.AperFunction,Conductor*
%ADD19C,0.254000*%
G04 #@! TD*
G04 APERTURE END LIST*
D10*
X218440000Y-78660000D03*
X218440000Y-73660000D03*
X218440000Y-91360000D03*
X218440000Y-86360000D03*
D11*
X223519999Y-81279999D03*
D12*
X226059999Y-81279999D03*
X228599999Y-81279999D03*
X231139999Y-81279999D03*
X233679999Y-81279999D03*
X236219999Y-81279999D03*
X238759999Y-81279999D03*
X241299999Y-81279999D03*
X243839999Y-81279999D03*
X246379999Y-81279999D03*
X246379999Y-73659999D03*
X243839999Y-73659999D03*
X241299999Y-73659999D03*
X238759999Y-73659999D03*
X236219999Y-73659999D03*
X233679999Y-73659999D03*
X231139999Y-73659999D03*
X228599999Y-73659999D03*
X226059999Y-73659999D03*
X223519999Y-73659999D03*
D13*
X139699999Y-144779999D03*
D14*
X137159999Y-144779999D03*
X134619999Y-144779999D03*
X132079999Y-144779999D03*
X129539999Y-144779999D03*
X126999999Y-144779999D03*
X124459999Y-144779999D03*
X121919999Y-144779999D03*
X119379999Y-144779999D03*
X116839999Y-144779999D03*
X114299999Y-144779999D03*
X111759999Y-144779999D03*
X109219999Y-144779999D03*
X106679999Y-144779999D03*
X104139999Y-144779999D03*
X101599999Y-144779999D03*
D11*
X113791999Y-81279999D03*
D10*
X113792000Y-78780000D03*
D11*
X66039999Y-132079999D03*
D12*
X68579999Y-132079999D03*
X71119999Y-132079999D03*
X73659999Y-132079999D03*
X76199999Y-132079999D03*
X78739999Y-132079999D03*
X81279999Y-132079999D03*
X83819999Y-132079999D03*
X83819999Y-124459999D03*
X81279999Y-124459999D03*
X78739999Y-124459999D03*
X76199999Y-124459999D03*
X73659999Y-124459999D03*
X71119999Y-124459999D03*
X68579999Y-124459999D03*
X66039999Y-124459999D03*
D11*
X223519999Y-93979999D03*
D12*
X226059999Y-93979999D03*
X228599999Y-93979999D03*
X231139999Y-93979999D03*
X233679999Y-93979999D03*
X236219999Y-93979999D03*
X238759999Y-93979999D03*
X241299999Y-93979999D03*
X243839999Y-93979999D03*
X246379999Y-93979999D03*
X246379999Y-86359999D03*
X243839999Y-86359999D03*
X241299999Y-86359999D03*
X238759999Y-86359999D03*
X236219999Y-86359999D03*
X233679999Y-86359999D03*
X231139999Y-86359999D03*
X228599999Y-86359999D03*
X226059999Y-86359999D03*
X223519999Y-86359999D03*
D13*
X114299999Y-104139999D03*
D14*
X114299999Y-101599999D03*
X116839999Y-104139999D03*
X116839999Y-101599999D03*
X119379999Y-104139999D03*
X119379999Y-101599999D03*
X121919999Y-104139999D03*
X121919999Y-101599999D03*
X124459999Y-104139999D03*
X124459999Y-101599999D03*
X126999999Y-104139999D03*
X126999999Y-101599999D03*
D11*
X104139999Y-93979999D03*
D12*
X106679999Y-93979999D03*
X109219999Y-93979999D03*
X111759999Y-93979999D03*
X114299999Y-93979999D03*
X116839999Y-93979999D03*
X119379999Y-93979999D03*
X119379999Y-86359999D03*
X116839999Y-86359999D03*
X114299999Y-86359999D03*
X111759999Y-86359999D03*
X109219999Y-86359999D03*
X106679999Y-86359999D03*
X104139999Y-86359999D03*
D11*
X134619999Y-119379999D03*
D12*
X137159999Y-119379999D03*
X139699999Y-119379999D03*
X142239999Y-119379999D03*
X144779999Y-119379999D03*
X147319999Y-119379999D03*
X149859999Y-119379999D03*
X152399999Y-119379999D03*
X152399999Y-111759999D03*
X149859999Y-111759999D03*
X147319999Y-111759999D03*
X144779999Y-111759999D03*
X142239999Y-111759999D03*
X139699999Y-111759999D03*
X137159999Y-111759999D03*
X134619999Y-111759999D03*
D15*
X181863999Y-63499999D03*
D16*
X179324000Y-63500000D03*
D11*
X152399999Y-54604999D03*
D12*
X152399999Y-57144999D03*
X152399999Y-59684999D03*
X152399999Y-62224999D03*
X152399999Y-64764999D03*
X152399999Y-67304999D03*
X152399999Y-69844999D03*
X160019999Y-69844999D03*
X160019999Y-67304999D03*
X160019999Y-64764999D03*
X160019999Y-62224999D03*
X160019999Y-59684999D03*
X160019999Y-57144999D03*
X160019999Y-54604999D03*
D10*
X73660000Y-81280000D03*
D12*
X83819999Y-81279999D03*
D13*
X93979999Y-144779999D03*
D14*
X91439999Y-144779999D03*
X88899999Y-144779999D03*
X86359999Y-144779999D03*
X83819999Y-144779999D03*
X81279999Y-144779999D03*
X78739999Y-144779999D03*
X76199999Y-144779999D03*
X73659999Y-144779999D03*
X71119999Y-144779999D03*
X68579999Y-144779999D03*
X66039999Y-144779999D03*
X63499999Y-144779999D03*
X60959999Y-144779999D03*
D10*
X60960000Y-91360000D03*
X60960000Y-86360000D03*
X180260000Y-91360000D03*
X180260000Y-86360000D03*
D15*
X175513999Y-63499999D03*
D16*
X172974000Y-63500000D03*
D10*
X60960000Y-124460000D03*
X60960000Y-129460000D03*
X180260000Y-78660000D03*
X180260000Y-73660000D03*
X60960000Y-111760000D03*
X60960000Y-116760000D03*
D13*
X246379999Y-60959999D03*
D14*
X243839999Y-60959999D03*
X241299999Y-60959999D03*
X238759999Y-60959999D03*
X236219999Y-60959999D03*
X233679999Y-60959999D03*
X231139999Y-60959999D03*
X228599999Y-60959999D03*
X226059999Y-60959999D03*
X223519999Y-60959999D03*
X220979999Y-60959999D03*
X218439999Y-60959999D03*
X215899999Y-60959999D03*
X213359999Y-60959999D03*
X210819999Y-60959999D03*
X208279999Y-60959999D03*
D13*
X60959999Y-71119999D03*
D14*
X60959999Y-73659999D03*
X60959999Y-76199999D03*
X60959999Y-78739999D03*
D10*
X148590000Y-54690000D03*
X148590000Y-59690000D03*
D13*
X144779999Y-60959999D03*
D14*
X142239999Y-60959999D03*
X139699999Y-60959999D03*
X137159999Y-60959999D03*
X134619999Y-60959999D03*
X132079999Y-60959999D03*
X129539999Y-60959999D03*
X126999999Y-60959999D03*
X124459999Y-60959999D03*
X121919999Y-60959999D03*
X119379999Y-60959999D03*
X116839999Y-60959999D03*
X114299999Y-60959999D03*
X111759999Y-60959999D03*
X109219999Y-60959999D03*
X106679999Y-60959999D03*
D11*
X66039999Y-93979999D03*
D12*
X68579999Y-93979999D03*
X71119999Y-93979999D03*
X73659999Y-93979999D03*
X76199999Y-93979999D03*
X78739999Y-93979999D03*
X81279999Y-93979999D03*
X81279999Y-86359999D03*
X78739999Y-86359999D03*
X76199999Y-86359999D03*
X73659999Y-86359999D03*
X71119999Y-86359999D03*
X68579999Y-86359999D03*
X66039999Y-86359999D03*
D11*
X223519999Y-119379999D03*
D12*
X226059999Y-119379999D03*
X228599999Y-119379999D03*
X231139999Y-119379999D03*
X233679999Y-119379999D03*
X236219999Y-119379999D03*
X238759999Y-119379999D03*
X241299999Y-119379999D03*
X243839999Y-119379999D03*
X246379999Y-119379999D03*
X246379999Y-111759999D03*
X243839999Y-111759999D03*
X241299999Y-111759999D03*
X238759999Y-111759999D03*
X236219999Y-111759999D03*
X233679999Y-111759999D03*
X231139999Y-111759999D03*
X228599999Y-111759999D03*
X226059999Y-111759999D03*
X223519999Y-111759999D03*
D10*
X129540000Y-116760000D03*
X129540000Y-111760000D03*
X196850000Y-63500000D03*
D12*
X196849999Y-53339999D03*
D11*
X185419999Y-119379999D03*
D12*
X187959999Y-119379999D03*
X190499999Y-119379999D03*
X193039999Y-119379999D03*
X195579999Y-119379999D03*
X198119999Y-119379999D03*
X200659999Y-119379999D03*
X203199999Y-119379999D03*
X205739999Y-119379999D03*
X208279999Y-119379999D03*
X208279999Y-111759999D03*
X205739999Y-111759999D03*
X203199999Y-111759999D03*
X200659999Y-111759999D03*
X198119999Y-111759999D03*
X195579999Y-111759999D03*
X193039999Y-111759999D03*
X190499999Y-111759999D03*
X187959999Y-111759999D03*
X185419999Y-111759999D03*
D11*
X66039999Y-106679999D03*
D12*
X68579999Y-106679999D03*
X71119999Y-106679999D03*
X73659999Y-106679999D03*
X76199999Y-106679999D03*
X78739999Y-106679999D03*
X81279999Y-106679999D03*
X83819999Y-106679999D03*
X86359999Y-106679999D03*
X88899999Y-106679999D03*
X88899999Y-99059999D03*
X86359999Y-99059999D03*
X83819999Y-99059999D03*
X81279999Y-99059999D03*
X78739999Y-99059999D03*
X76199999Y-99059999D03*
X73659999Y-99059999D03*
X71119999Y-99059999D03*
X68579999Y-99059999D03*
X66039999Y-99059999D03*
D11*
X215859999Y-121919999D03*
D10*
X213360000Y-121920000D03*
X180340000Y-116760000D03*
X180340000Y-111760000D03*
D11*
X134619999Y-93979999D03*
D12*
X137159999Y-93979999D03*
X139699999Y-93979999D03*
X142239999Y-93979999D03*
X144779999Y-93979999D03*
X147319999Y-93979999D03*
X149859999Y-93979999D03*
X149859999Y-86359999D03*
X147319999Y-86359999D03*
X144779999Y-86359999D03*
X142239999Y-86359999D03*
X139699999Y-86359999D03*
X137159999Y-86359999D03*
X134619999Y-86359999D03*
D11*
X223519999Y-106679999D03*
D12*
X226059999Y-106679999D03*
X228599999Y-106679999D03*
X231139999Y-106679999D03*
X233679999Y-106679999D03*
X236219999Y-106679999D03*
X238759999Y-106679999D03*
X241299999Y-106679999D03*
X243839999Y-106679999D03*
X246379999Y-106679999D03*
X246379999Y-99059999D03*
X243839999Y-99059999D03*
X241299999Y-99059999D03*
X238759999Y-99059999D03*
X236219999Y-99059999D03*
X233679999Y-99059999D03*
X231139999Y-99059999D03*
X228599999Y-99059999D03*
X226059999Y-99059999D03*
X223519999Y-99059999D03*
D10*
X186690000Y-63500000D03*
D12*
X186689999Y-53339999D03*
D10*
X191770000Y-63500000D03*
D12*
X191769999Y-53339999D03*
D11*
X185419999Y-106679999D03*
D12*
X187959999Y-106679999D03*
X190499999Y-106679999D03*
X193039999Y-106679999D03*
X195579999Y-106679999D03*
X198119999Y-106679999D03*
X200659999Y-106679999D03*
X203199999Y-106679999D03*
X205739999Y-106679999D03*
X208279999Y-106679999D03*
X208279999Y-99059999D03*
X205739999Y-99059999D03*
X203199999Y-99059999D03*
X200659999Y-99059999D03*
X198119999Y-99059999D03*
X195579999Y-99059999D03*
X193039999Y-99059999D03*
X190499999Y-99059999D03*
X187959999Y-99059999D03*
X185419999Y-99059999D03*
D11*
X185419999Y-81279999D03*
D12*
X187959999Y-81279999D03*
X190499999Y-81279999D03*
X193039999Y-81279999D03*
X195579999Y-81279999D03*
X198119999Y-81279999D03*
X200659999Y-81279999D03*
X203199999Y-81279999D03*
X205739999Y-81279999D03*
X208279999Y-81279999D03*
X208279999Y-73659999D03*
X205739999Y-73659999D03*
X203199999Y-73659999D03*
X200659999Y-73659999D03*
X198119999Y-73659999D03*
X195579999Y-73659999D03*
X193039999Y-73659999D03*
X190499999Y-73659999D03*
X187959999Y-73659999D03*
X185419999Y-73659999D03*
D13*
X73659999Y-60959999D03*
D14*
X71119999Y-60959999D03*
X68579999Y-60959999D03*
X66039999Y-60959999D03*
X63499999Y-60959999D03*
X60959999Y-60959999D03*
X58419999Y-60959999D03*
D10*
X218360000Y-104060000D03*
X218360000Y-99060000D03*
X60960000Y-104060000D03*
X60960000Y-99060000D03*
D11*
X185419999Y-93979999D03*
D12*
X187959999Y-93979999D03*
X190499999Y-93979999D03*
X193039999Y-93979999D03*
X195579999Y-93979999D03*
X198119999Y-93979999D03*
X200659999Y-93979999D03*
X203199999Y-93979999D03*
X205739999Y-93979999D03*
X208279999Y-93979999D03*
X208279999Y-86359999D03*
X205739999Y-86359999D03*
X203199999Y-86359999D03*
X200659999Y-86359999D03*
X198119999Y-86359999D03*
X195579999Y-86359999D03*
X193039999Y-86359999D03*
X190499999Y-86359999D03*
X187959999Y-86359999D03*
X185419999Y-86359999D03*
D15*
X169163999Y-63499999D03*
D16*
X166624000Y-63500000D03*
D11*
X56133999Y-139104379D03*
D10*
X56134000Y-136604380D03*
D13*
X109219999Y-104139999D03*
D14*
X109219999Y-101599999D03*
D10*
X218360000Y-116760000D03*
X218360000Y-111760000D03*
X99060000Y-86360000D03*
X99060000Y-91360000D03*
D11*
X66039999Y-119379999D03*
D12*
X68579999Y-119379999D03*
X71119999Y-119379999D03*
X73659999Y-119379999D03*
X76199999Y-119379999D03*
X78739999Y-119379999D03*
X81279999Y-119379999D03*
X83819999Y-119379999D03*
X86359999Y-119379999D03*
X88899999Y-119379999D03*
X88899999Y-111759999D03*
X86359999Y-111759999D03*
X83819999Y-111759999D03*
X81279999Y-111759999D03*
X78739999Y-111759999D03*
X76199999Y-111759999D03*
X73659999Y-111759999D03*
X71119999Y-111759999D03*
X68579999Y-111759999D03*
X66039999Y-111759999D03*
D10*
X54102000Y-57404000D03*
D12*
X54101999Y-67563999D03*
D13*
X243839999Y-144779999D03*
D14*
X241299999Y-144779999D03*
X238759999Y-144779999D03*
X236219999Y-144779999D03*
X233679999Y-144779999D03*
X231139999Y-144779999D03*
X228599999Y-144779999D03*
X226059999Y-144779999D03*
X223519999Y-144779999D03*
X220979999Y-144779999D03*
X218439999Y-144779999D03*
X215899999Y-144779999D03*
X213359999Y-144779999D03*
X210819999Y-144779999D03*
X208279999Y-144779999D03*
X205739999Y-144779999D03*
X203199999Y-144779999D03*
X200659999Y-144779999D03*
X198119999Y-144779999D03*
X195579999Y-144779999D03*
X193039999Y-144779999D03*
X190499999Y-144779999D03*
X187959999Y-144779999D03*
X185419999Y-144779999D03*
X182879999Y-144779999D03*
X180339999Y-144779999D03*
X177799999Y-144779999D03*
X175259999Y-144779999D03*
X172719999Y-144779999D03*
X170179999Y-144779999D03*
X167639999Y-144779999D03*
X165099999Y-144779999D03*
D10*
X180340000Y-104060000D03*
X180340000Y-99060000D03*
X129540000Y-86360000D03*
X129540000Y-91360000D03*
D13*
X104139999Y-99059999D03*
D14*
X104139999Y-101599999D03*
X104139999Y-104139999D03*
D11*
X134619999Y-106679999D03*
D12*
X137159999Y-106679999D03*
X139699999Y-106679999D03*
X142239999Y-106679999D03*
X144779999Y-106679999D03*
D10*
X106680000Y-110236000D03*
D12*
X106679999Y-120395999D03*
D17*
X164338000Y-68834000D03*
X87122000Y-88392000D03*
X171958000Y-88392000D03*
X148590000Y-52578000D03*
X69850000Y-140970000D03*
X187706000Y-71374000D03*
X166116000Y-68834000D03*
X68834000Y-139954000D03*
X173736000Y-88392000D03*
X96266000Y-88392000D03*
X88646000Y-88392000D03*
X214884000Y-71374000D03*
X155194000Y-88392000D03*
X94742000Y-88392000D03*
X212852000Y-71374000D03*
X156972000Y-88392000D03*
X189484000Y-71374000D03*
X81280000Y-103886000D03*
X93218000Y-114808000D03*
X82550000Y-116586000D03*
X90424000Y-114808000D03*
X94234000Y-115570000D03*
X83566000Y-117348000D03*
X89662000Y-115570000D03*
X90424000Y-116332000D03*
X82550000Y-118110000D03*
X93218000Y-116332000D03*
X92202000Y-105410000D03*
X77470000Y-105410000D03*
X91186000Y-100330000D03*
X81280000Y-100838000D03*
X85344000Y-122174000D03*
X88900000Y-122174000D03*
X85344000Y-120904000D03*
X87630000Y-120904000D03*
X88138000Y-133096000D03*
X81280000Y-140462000D03*
X96266000Y-124968000D03*
X62230000Y-94234000D03*
X65532000Y-90932000D03*
X72390000Y-89408000D03*
X58166000Y-96520000D03*
X64770000Y-96520000D03*
X124460000Y-71628000D03*
X124460000Y-77724000D03*
X121920000Y-76962000D03*
X121920000Y-71628000D03*
X119380000Y-71628000D03*
X119380000Y-76200000D03*
X116840000Y-71628000D03*
X116840000Y-75438000D03*
X114300000Y-71628000D03*
X114300000Y-74676000D03*
X111760000Y-73914000D03*
X111760000Y-71628000D03*
X109220000Y-71628000D03*
X109220000Y-73152000D03*
X144780000Y-71628000D03*
X144780000Y-83820000D03*
X142240000Y-71628000D03*
X142240000Y-83058000D03*
X139700000Y-82296000D03*
X139700000Y-71628000D03*
X137160000Y-71628000D03*
X137160000Y-81534000D03*
X134620000Y-80772000D03*
X134620000Y-71628000D03*
X132080000Y-80010000D03*
X132080000Y-71628000D03*
X129540000Y-71628000D03*
X129540000Y-79248000D03*
X127000000Y-71628000D03*
X127000000Y-78486000D03*
X203454000Y-84328000D03*
X200914000Y-84328000D03*
X203454000Y-97028000D03*
X198374000Y-84328000D03*
X200914000Y-97028000D03*
X203454000Y-109728000D03*
X198374000Y-97028000D03*
X195834000Y-84328000D03*
X200914000Y-109728000D03*
X193294000Y-84328000D03*
X195834000Y-97028000D03*
X198374000Y-109728000D03*
X195834000Y-109728000D03*
X190754000Y-84328000D03*
X193294000Y-97028000D03*
X245110000Y-88646000D03*
X242570000Y-88646000D03*
X245110000Y-101346000D03*
X240030000Y-88646000D03*
X242570000Y-101346000D03*
X240030000Y-101346000D03*
X237490000Y-88646000D03*
X234950000Y-88646000D03*
X237490000Y-101346000D03*
X234950000Y-101346000D03*
X232410000Y-88646000D03*
X86360000Y-104394000D03*
X95504000Y-104394000D03*
X86360000Y-109474000D03*
X93218000Y-104394000D03*
X98298000Y-104394000D03*
X87630000Y-110236000D03*
X92964000Y-110236000D03*
X97282000Y-110236000D03*
X89662000Y-110236000D03*
X95504000Y-110236000D03*
X55118000Y-113284000D03*
X105410000Y-90170000D03*
X99060000Y-66802000D03*
X95504000Y-63246000D03*
X57404000Y-114046000D03*
X105410000Y-84328000D03*
X67310000Y-59436000D03*
X71120000Y-83820000D03*
X65024000Y-109474000D03*
X56134000Y-109474000D03*
X56896000Y-106680000D03*
X78740000Y-89408000D03*
X78740000Y-83820000D03*
X80010000Y-92456000D03*
X73660000Y-89408000D03*
X89916000Y-82296000D03*
X93726000Y-84074000D03*
X92710000Y-85598000D03*
X107950000Y-106680000D03*
X105410000Y-106680000D03*
X89662000Y-84582000D03*
X111760000Y-90678000D03*
X118110000Y-89662000D03*
X125984000Y-98044000D03*
X125984000Y-89662000D03*
X125984000Y-87122000D03*
X125984000Y-94996000D03*
X152400000Y-89408000D03*
X219456000Y-75438000D03*
X210312000Y-75438000D03*
X170942000Y-102870000D03*
X157480000Y-102870000D03*
X179324000Y-75438000D03*
X185674000Y-88646000D03*
X170942000Y-105156000D03*
X219456000Y-88138000D03*
X210312000Y-88138000D03*
X181737000Y-92329000D03*
X157480000Y-105156000D03*
X184150000Y-91440000D03*
X157480000Y-107442000D03*
X170942000Y-107442000D03*
X181356000Y-100584000D03*
X219456000Y-100838000D03*
X210312000Y-100838000D03*
X170942000Y-109728000D03*
X185674000Y-114046000D03*
X222504000Y-114046000D03*
X157480000Y-109728000D03*
X210312000Y-114046000D03*
X219456000Y-114046000D03*
X157480000Y-62230000D03*
X155448000Y-64262000D03*
X106680000Y-89662000D03*
X137160000Y-89662000D03*
X111760000Y-100584000D03*
X111760000Y-102616000D03*
X99314000Y-121666000D03*
X110490000Y-95250000D03*
X99314000Y-115570000D03*
X99314000Y-97790000D03*
X90297000Y-132969000D03*
X97282000Y-125984000D03*
D18*
X187706000Y-71374000D02*
X189484000Y-71374000D01*
X88900000Y-142240000D02*
X78740000Y-142240000D01*
X220980000Y-119126000D02*
X218186000Y-121920000D01*
D19*
X81280000Y-124460000D02*
X81280000Y-125984000D01*
X157993000Y-52578000D02*
X160020000Y-54605000D01*
D18*
X182880000Y-71374000D02*
X182880000Y-73660000D01*
X134620000Y-88392000D02*
X153670000Y-88392000D01*
X182880000Y-111760000D02*
X185420000Y-111760000D01*
X96266000Y-88392000D02*
X99060000Y-88392000D01*
X218186000Y-121920000D02*
X215860000Y-121920000D01*
D19*
X218360000Y-99060000D02*
X220980000Y-99060000D01*
D18*
X166116000Y-68834000D02*
X164338000Y-68834000D01*
X63500000Y-111760000D02*
X66040000Y-111760000D01*
D19*
X138176000Y-115316000D02*
X143256000Y-115316000D01*
X218440000Y-86360000D02*
X220980000Y-86360000D01*
D18*
X84328000Y-88392000D02*
X87122000Y-88392000D01*
X220980000Y-111760000D02*
X223520000Y-111760000D01*
X186436000Y-71374000D02*
X183388000Y-71374000D01*
X63500000Y-134620000D02*
X63500000Y-132080000D01*
D19*
X60960000Y-124460000D02*
X63500000Y-124460000D01*
X83820000Y-88392000D02*
X84328000Y-88392000D01*
D18*
X71120000Y-142240000D02*
X69850000Y-140970000D01*
D19*
X83820000Y-124460000D02*
X81280000Y-124460000D01*
D18*
X94742000Y-88392000D02*
X96266000Y-88392000D01*
D19*
X180340000Y-111760000D02*
X182880000Y-111760000D01*
D18*
X134620000Y-86360000D02*
X134620000Y-88392000D01*
X183388000Y-71374000D02*
X182880000Y-71374000D01*
X183388000Y-99060000D02*
X182880000Y-99060000D01*
X153670000Y-88392000D02*
X154432000Y-88392000D01*
X171958000Y-88392000D02*
X173736000Y-88392000D01*
X122936000Y-88392000D02*
X122936000Y-84328000D01*
X223520000Y-73660000D02*
X220980000Y-73660000D01*
X154432000Y-97282000D02*
X150368000Y-101346000D01*
X182880000Y-88392000D02*
X182880000Y-86360000D01*
X119888000Y-81280000D02*
X113792000Y-81280000D01*
D19*
X83820000Y-81280000D02*
X83820000Y-88392000D01*
D18*
X223520000Y-86360000D02*
X220980000Y-86360000D01*
X220980000Y-111252000D02*
X220980000Y-111760000D01*
X187706000Y-71374000D02*
X186436000Y-71374000D01*
X68834000Y-139954000D02*
X63500000Y-134620000D01*
X182880000Y-73660000D02*
X185420000Y-73660000D01*
D19*
X73660000Y-93980000D02*
X70612000Y-97028000D01*
D18*
X134620000Y-103759000D02*
X134620000Y-111760000D01*
D19*
X99060000Y-86360000D02*
X104140000Y-86360000D01*
D18*
X218694000Y-71374000D02*
X220980000Y-73660000D01*
D19*
X218440000Y-73660000D02*
X220980000Y-73660000D01*
D18*
X220980000Y-73660000D02*
X220980000Y-86360000D01*
D19*
X60960000Y-86360000D02*
X66040000Y-86360000D01*
X218360000Y-111760000D02*
X220980000Y-111760000D01*
D18*
X214884000Y-71374000D02*
X212852000Y-71374000D01*
X154432000Y-88392000D02*
X154432000Y-97282000D01*
X150368000Y-101346000D02*
X137033000Y-101346000D01*
X122936000Y-88392000D02*
X134620000Y-88392000D01*
X66040000Y-88392000D02*
X66040000Y-86360000D01*
X104140000Y-88392000D02*
X104140000Y-86360000D01*
D19*
X60960000Y-99060000D02*
X64008000Y-99060000D01*
D18*
X185420000Y-86360000D02*
X182880000Y-86360000D01*
X155194000Y-88392000D02*
X156972000Y-88392000D01*
X182880000Y-71374000D02*
X180340000Y-68834000D01*
D19*
X81280000Y-125984000D02*
X67564000Y-125984000D01*
X129540000Y-86360000D02*
X134620000Y-86360000D01*
D18*
X182880000Y-86360000D02*
X182880000Y-73660000D01*
X223520000Y-99060000D02*
X220980000Y-99060000D01*
D19*
X70612000Y-97028000D02*
X68072000Y-97028000D01*
D18*
X63500000Y-124460000D02*
X66040000Y-124460000D01*
X63500000Y-99060000D02*
X64008000Y-99060000D01*
D19*
X180260000Y-86360000D02*
X182880000Y-86360000D01*
D18*
X173736000Y-88392000D02*
X182880000Y-88392000D01*
X182880000Y-88392000D02*
X182880000Y-99060000D01*
D19*
X129540000Y-111760000D02*
X134620000Y-111760000D01*
D18*
X185420000Y-99060000D02*
X183388000Y-99060000D01*
D19*
X148590000Y-52578000D02*
X157993000Y-52578000D01*
D18*
X87122000Y-88392000D02*
X88646000Y-88392000D01*
X63500000Y-124460000D02*
X63500000Y-90932000D01*
D19*
X134620000Y-111760000D02*
X138176000Y-115316000D01*
X143256000Y-115316000D02*
X147320000Y-119380000D01*
X73660000Y-93980000D02*
X76200000Y-93980000D01*
D18*
X91440000Y-144780000D02*
X88900000Y-142240000D01*
D19*
X66040000Y-132080000D02*
X63500000Y-132080000D01*
D18*
X93980000Y-144780000D02*
X91440000Y-144780000D01*
D19*
X180340000Y-99060000D02*
X183388000Y-99060000D01*
D18*
X220980000Y-111252000D02*
X220980000Y-119126000D01*
X63500000Y-90932000D02*
X66040000Y-88392000D01*
X220980000Y-99060000D02*
X220980000Y-111252000D01*
D19*
X67564000Y-125984000D02*
X66040000Y-124460000D01*
D18*
X182880000Y-99060000D02*
X182880000Y-111760000D01*
X63500000Y-132080000D02*
X63500000Y-124460000D01*
X153670000Y-88392000D02*
X155194000Y-88392000D01*
X66040000Y-88392000D02*
X84328000Y-88392000D01*
X180340000Y-68834000D02*
X166116000Y-68834000D01*
D19*
X68072000Y-97028000D02*
X66040000Y-99060000D01*
X180260000Y-73660000D02*
X182880000Y-73660000D01*
D18*
X104140000Y-88392000D02*
X122936000Y-88392000D01*
X64008000Y-99060000D02*
X66040000Y-99060000D01*
X122936000Y-84328000D02*
X119888000Y-81280000D01*
D19*
X81280000Y-125984000D02*
X81280000Y-132080000D01*
D18*
X78740000Y-142240000D02*
X71120000Y-142240000D01*
X99060000Y-88392000D02*
X104140000Y-88392000D01*
D19*
X60960000Y-111760000D02*
X63500000Y-111760000D01*
D18*
X214884000Y-71374000D02*
X218694000Y-71374000D01*
X137033000Y-101346000D02*
X134620000Y-103759000D01*
X220980000Y-86360000D02*
X220980000Y-99060000D01*
D19*
X81280000Y-103886000D02*
X81280000Y-106680000D01*
X90424000Y-114808000D02*
X84328000Y-114808000D01*
X94742000Y-114808000D02*
X93218000Y-114808000D01*
X106680000Y-137160000D02*
X95250000Y-125730000D01*
X243840000Y-144780000D02*
X236220000Y-137160000D01*
X236220000Y-137160000D02*
X106680000Y-137160000D01*
X95250000Y-115316000D02*
X94742000Y-114808000D01*
X84328000Y-114808000D02*
X82550000Y-116586000D01*
X95250000Y-125730000D02*
X95250000Y-115316000D01*
X234442000Y-137922000D02*
X241300000Y-144780000D01*
X105918000Y-137922000D02*
X234442000Y-137922000D01*
X94234000Y-126238000D02*
X105918000Y-137922000D01*
X94234000Y-115570000D02*
X94234000Y-126238000D01*
X85344000Y-115570000D02*
X83566000Y-117348000D01*
X89662000Y-115570000D02*
X85344000Y-115570000D01*
X105156000Y-138684000D02*
X232664000Y-138684000D01*
X232664000Y-138684000D02*
X238760000Y-144780000D01*
X84582000Y-118110000D02*
X82550000Y-118110000D01*
X90424000Y-116332000D02*
X86360000Y-116332000D01*
X86360000Y-116332000D02*
X84582000Y-118110000D01*
X93218000Y-116332000D02*
X93218000Y-126746000D01*
X93218000Y-126746000D02*
X105156000Y-138684000D01*
X92202000Y-127254000D02*
X104394000Y-139446000D01*
X76200000Y-116586000D02*
X77470000Y-115316000D01*
X76200000Y-119380000D02*
X76200000Y-116586000D01*
X77470000Y-115316000D02*
X77470000Y-105410000D01*
X230886000Y-139446000D02*
X236220000Y-144780000D01*
X104394000Y-139446000D02*
X230886000Y-139446000D01*
X92202000Y-105410000D02*
X92202000Y-127254000D01*
X81280000Y-100838000D02*
X80010000Y-102108000D01*
X103632000Y-140208000D02*
X229108000Y-140208000D01*
X78740000Y-116586000D02*
X78740000Y-119380000D01*
X80010000Y-115316000D02*
X78740000Y-116586000D01*
X91186000Y-100330000D02*
X91186000Y-127762000D01*
X80010000Y-102108000D02*
X80010000Y-115316000D01*
X91186000Y-127762000D02*
X103632000Y-140208000D01*
X229108000Y-140208000D02*
X233680000Y-144780000D01*
X102870000Y-140970000D02*
X227330000Y-140970000D01*
X88900000Y-127000000D02*
X102870000Y-140970000D01*
X81280000Y-119380000D02*
X81280000Y-116586000D01*
X88900000Y-122174000D02*
X88900000Y-127000000D01*
X84074000Y-122174000D02*
X81280000Y-119380000D01*
X82550000Y-100330000D02*
X81280000Y-99060000D01*
X81280000Y-116586000D02*
X82550000Y-115316000D01*
X85344000Y-122174000D02*
X84074000Y-122174000D01*
X82550000Y-115316000D02*
X82550000Y-100330000D01*
X227330000Y-140970000D02*
X231140000Y-144780000D01*
X102108000Y-141732000D02*
X225552000Y-141732000D01*
X87630000Y-120904000D02*
X87630000Y-127254000D01*
X225552000Y-141732000D02*
X228600000Y-144780000D01*
X85344000Y-120904000D02*
X83820000Y-119380000D01*
X87630000Y-127254000D02*
X102108000Y-141732000D01*
X101346000Y-142494000D02*
X86360000Y-127508000D01*
X226060000Y-144780000D02*
X223774000Y-142494000D01*
X86360000Y-127508000D02*
X86360000Y-119380000D01*
X223774000Y-142494000D02*
X101346000Y-142494000D01*
X88138000Y-133096000D02*
X81280000Y-139954000D01*
X81280000Y-139954000D02*
X81280000Y-140462000D01*
X96266000Y-100838000D02*
X94488000Y-99060000D01*
X96266000Y-124968000D02*
X96266000Y-100838000D01*
X94488000Y-99060000D02*
X88900000Y-99060000D01*
X72390000Y-90170000D02*
X68580000Y-93980000D01*
X65532000Y-90932000D02*
X68580000Y-93980000D01*
X59436000Y-133096000D02*
X71120000Y-144780000D01*
X59436000Y-97028000D02*
X59436000Y-133096000D01*
X72390000Y-89408000D02*
X72390000Y-90170000D01*
X62230000Y-94234000D02*
X59436000Y-97028000D01*
X58166000Y-96520000D02*
X58166000Y-136906000D01*
X58166000Y-136906000D02*
X66040000Y-144780000D01*
X59944000Y-84836000D02*
X67056000Y-84836000D01*
X65024000Y-96266000D02*
X68834000Y-96266000D01*
X64770000Y-96520000D02*
X65024000Y-96266000D01*
X67056000Y-84836000D02*
X68580000Y-86360000D01*
X68834000Y-96266000D02*
X71120000Y-93980000D01*
X58166000Y-96520000D02*
X58166000Y-86614000D01*
X58166000Y-86614000D02*
X59944000Y-84836000D01*
X204470000Y-97282000D02*
X205740000Y-96012000D01*
X194818000Y-130302000D02*
X205740000Y-119380000D01*
X204470000Y-89662000D02*
X204470000Y-84582000D01*
X205740000Y-108712000D02*
X205740000Y-106680000D01*
X205740000Y-83312000D02*
X205740000Y-81280000D01*
X205740000Y-96012000D02*
X205740000Y-93980000D01*
X205740000Y-106680000D02*
X205740000Y-103632000D01*
X204470000Y-102362000D02*
X204470000Y-97282000D01*
X124460000Y-77724000D02*
X158242000Y-77724000D01*
X205740000Y-103632000D02*
X204470000Y-102362000D01*
X205740000Y-90932000D02*
X204470000Y-89662000D01*
X158242000Y-77724000D02*
X164592000Y-84074000D01*
X164592000Y-84074000D02*
X164592000Y-126238000D01*
X205740000Y-119380000D02*
X205740000Y-116586000D01*
X205740000Y-93980000D02*
X205740000Y-90932000D01*
X164592000Y-126238000D02*
X168656000Y-130302000D01*
X205740000Y-116586000D02*
X204470000Y-115316000D01*
X204470000Y-115316000D02*
X204470000Y-109982000D01*
X204470000Y-109982000D02*
X205740000Y-108712000D01*
X124460000Y-60960000D02*
X124460000Y-71628000D01*
X204470000Y-84582000D02*
X205740000Y-83312000D01*
X168656000Y-130302000D02*
X194818000Y-130302000D01*
X201930000Y-115316000D02*
X201930000Y-109982000D01*
X169164000Y-129540000D02*
X193040000Y-129540000D01*
X165354000Y-125730000D02*
X169164000Y-129540000D01*
X201930000Y-102362000D02*
X201930000Y-97282000D01*
X158750000Y-76962000D02*
X165354000Y-83566000D01*
X203200000Y-93980000D02*
X203200000Y-90932000D01*
X193040000Y-129540000D02*
X203200000Y-119380000D01*
X165354000Y-83566000D02*
X165354000Y-125730000D01*
X121920000Y-76962000D02*
X158750000Y-76962000D01*
X201930000Y-109982000D02*
X203200000Y-108712000D01*
X203200000Y-83312000D02*
X203200000Y-81280000D01*
X201930000Y-84582000D02*
X203200000Y-83312000D01*
X203200000Y-96012000D02*
X203200000Y-93980000D01*
X203200000Y-116586000D02*
X201930000Y-115316000D01*
X201930000Y-89662000D02*
X201930000Y-84582000D01*
X203200000Y-108712000D02*
X203200000Y-106680000D01*
X203200000Y-103632000D02*
X201930000Y-102362000D01*
X203200000Y-106680000D02*
X203200000Y-103632000D01*
X203200000Y-119380000D02*
X203200000Y-116586000D01*
X121920000Y-71628000D02*
X121920000Y-60960000D01*
X203200000Y-90932000D02*
X201930000Y-89662000D01*
X201930000Y-97282000D02*
X203200000Y-96012000D01*
X169672000Y-128778000D02*
X191262000Y-128778000D01*
X200660000Y-108712000D02*
X199390000Y-109982000D01*
X119380000Y-76200000D02*
X159258000Y-76200000D01*
X200660000Y-90932000D02*
X199390000Y-89662000D01*
X200660000Y-103632000D02*
X199390000Y-102362000D01*
X200660000Y-116586000D02*
X200660000Y-119380000D01*
X199390000Y-97282000D02*
X200660000Y-96012000D01*
X199390000Y-109982000D02*
X199390000Y-115316000D01*
X199390000Y-84582000D02*
X200660000Y-83312000D01*
X199390000Y-115316000D02*
X200660000Y-116586000D01*
X166116000Y-125222000D02*
X169672000Y-128778000D01*
X200660000Y-106680000D02*
X200660000Y-108712000D01*
X191262000Y-128778000D02*
X200660000Y-119380000D01*
X159258000Y-76200000D02*
X166116000Y-83058000D01*
X119380000Y-60960000D02*
X119380000Y-71628000D01*
X199390000Y-89662000D02*
X199390000Y-84582000D01*
X200660000Y-83312000D02*
X200660000Y-81280000D01*
X166116000Y-83058000D02*
X166116000Y-125222000D01*
X200660000Y-106680000D02*
X200660000Y-103632000D01*
X200660000Y-96012000D02*
X200660000Y-93980000D01*
X199390000Y-102362000D02*
X199390000Y-97282000D01*
X200660000Y-93980000D02*
X200660000Y-90932000D01*
X189484000Y-128016000D02*
X198120000Y-119380000D01*
X198120000Y-108712000D02*
X196850000Y-109982000D01*
X196850000Y-84582000D02*
X198120000Y-83312000D01*
X196850000Y-97282000D02*
X196850000Y-102362000D01*
X166878000Y-124714000D02*
X170180000Y-128016000D01*
X198120000Y-83312000D02*
X198120000Y-81280000D01*
X196850000Y-89662000D02*
X196850000Y-84582000D01*
X198120000Y-106680000D02*
X198120000Y-108712000D01*
X198120000Y-93980000D02*
X198120000Y-96012000D01*
X198120000Y-93980000D02*
X198120000Y-90932000D01*
X170180000Y-128016000D02*
X189484000Y-128016000D01*
X159766000Y-75438000D02*
X166878000Y-82550000D01*
X198120000Y-103632000D02*
X198120000Y-106680000D01*
X198120000Y-96012000D02*
X196850000Y-97282000D01*
X198120000Y-116586000D02*
X198120000Y-119380000D01*
X166878000Y-82550000D02*
X166878000Y-124714000D01*
X116840000Y-71628000D02*
X116840000Y-60960000D01*
X198120000Y-90932000D02*
X196850000Y-89662000D01*
X196850000Y-109982000D02*
X196850000Y-115316000D01*
X196850000Y-115316000D02*
X198120000Y-116586000D01*
X116840000Y-75438000D02*
X159766000Y-75438000D01*
X196850000Y-102362000D02*
X198120000Y-103632000D01*
X195580000Y-90932000D02*
X194310000Y-89662000D01*
X194310000Y-89662000D02*
X194310000Y-84582000D01*
X194310000Y-97282000D02*
X195580000Y-96012000D01*
X194310000Y-109982000D02*
X194310000Y-115316000D01*
X195580000Y-103632000D02*
X194310000Y-102362000D01*
X167640000Y-124206000D02*
X170688000Y-127254000D01*
X187706000Y-127254000D02*
X195580000Y-119380000D01*
X195580000Y-116586000D02*
X195580000Y-119380000D01*
X195580000Y-108712000D02*
X194310000Y-109982000D01*
X170688000Y-127254000D02*
X187706000Y-127254000D01*
X195580000Y-83312000D02*
X195580000Y-81280000D01*
X195580000Y-106680000D02*
X195580000Y-103632000D01*
X114300000Y-60960000D02*
X114300000Y-71628000D01*
X114300000Y-74676000D02*
X160274000Y-74676000D01*
X160274000Y-74676000D02*
X167640000Y-82042000D01*
X195580000Y-96012000D02*
X195580000Y-90932000D01*
X195580000Y-106680000D02*
X195580000Y-108712000D01*
X194310000Y-102362000D02*
X194310000Y-97282000D01*
X167640000Y-82042000D02*
X167640000Y-124206000D01*
X194310000Y-115316000D02*
X195580000Y-116586000D01*
X194310000Y-84582000D02*
X195580000Y-83312000D01*
X193040000Y-106680000D02*
X193040000Y-108712000D01*
X193040000Y-103632000D02*
X193040000Y-106680000D01*
X171196000Y-126492000D02*
X185928000Y-126492000D01*
X111760000Y-73914000D02*
X160782000Y-73914000D01*
X191770000Y-109982000D02*
X191770000Y-115316000D01*
X193040000Y-83312000D02*
X193040000Y-81280000D01*
X191770000Y-97282000D02*
X191770000Y-102362000D01*
X185928000Y-126492000D02*
X193040000Y-119380000D01*
X160782000Y-73914000D02*
X168402000Y-81534000D01*
X193040000Y-108712000D02*
X191770000Y-109982000D01*
X111760000Y-60960000D02*
X111760000Y-71628000D01*
X168402000Y-123698000D02*
X171196000Y-126492000D01*
X193040000Y-93980000D02*
X193040000Y-96012000D01*
X168402000Y-81534000D02*
X168402000Y-123698000D01*
X191770000Y-89662000D02*
X191770000Y-84582000D01*
X193040000Y-96012000D02*
X191770000Y-97282000D01*
X193040000Y-93980000D02*
X193040000Y-90932000D01*
X191770000Y-84582000D02*
X193040000Y-83312000D01*
X193040000Y-116586000D02*
X193040000Y-119380000D01*
X191770000Y-115316000D02*
X193040000Y-116586000D01*
X191770000Y-102362000D02*
X193040000Y-103632000D01*
X193040000Y-90932000D02*
X191770000Y-89662000D01*
X190500000Y-108712000D02*
X189230000Y-109982000D01*
X169164000Y-81026000D02*
X169164000Y-123190000D01*
X190500000Y-83312000D02*
X190500000Y-81280000D01*
X189230000Y-97282000D02*
X189230000Y-102362000D01*
X109220000Y-60960000D02*
X109220000Y-71628000D01*
X189230000Y-109982000D02*
X189230000Y-115316000D01*
X190500000Y-96012000D02*
X189230000Y-97282000D01*
X189230000Y-115316000D02*
X190500000Y-116586000D01*
X169164000Y-123190000D02*
X171704000Y-125730000D01*
X190500000Y-90932000D02*
X189230000Y-89662000D01*
X190500000Y-103632000D02*
X190500000Y-106680000D01*
X189230000Y-84582000D02*
X190500000Y-83312000D01*
X189230000Y-89662000D02*
X189230000Y-84582000D01*
X171704000Y-125730000D02*
X184150000Y-125730000D01*
X190500000Y-93980000D02*
X190500000Y-90932000D01*
X190500000Y-93980000D02*
X190500000Y-96012000D01*
X190500000Y-116586000D02*
X190500000Y-119380000D01*
X190500000Y-106680000D02*
X190500000Y-108712000D01*
X184150000Y-125730000D02*
X190500000Y-119380000D01*
X109220000Y-73152000D02*
X161290000Y-73152000D01*
X189230000Y-102362000D02*
X190500000Y-103632000D01*
X161290000Y-73152000D02*
X169164000Y-81026000D01*
X169926000Y-80518000D02*
X161798000Y-72390000D01*
X172212000Y-124968000D02*
X169926000Y-122682000D01*
X186690000Y-115316000D02*
X187960000Y-116586000D01*
X106680000Y-70358000D02*
X106680000Y-60960000D01*
X187960000Y-93980000D02*
X187960000Y-90932000D01*
X187960000Y-108712000D02*
X186690000Y-109982000D01*
X186690000Y-109982000D02*
X186690000Y-115316000D01*
X186690000Y-97282000D02*
X186690000Y-102362000D01*
X186690000Y-82550000D02*
X187960000Y-81280000D01*
X187960000Y-96012000D02*
X186690000Y-97282000D01*
X187960000Y-90932000D02*
X186690000Y-89662000D01*
X186690000Y-102362000D02*
X187960000Y-103632000D01*
X187960000Y-116586000D02*
X187960000Y-119380000D01*
X187960000Y-119380000D02*
X182372000Y-124968000D01*
X169926000Y-122682000D02*
X169926000Y-80518000D01*
X187960000Y-103632000D02*
X187960000Y-106680000D01*
X182372000Y-124968000D02*
X172212000Y-124968000D01*
X108712000Y-72390000D02*
X106680000Y-70358000D01*
X187960000Y-93980000D02*
X187960000Y-96012000D01*
X187960000Y-106680000D02*
X187960000Y-108712000D01*
X186690000Y-89662000D02*
X186690000Y-82550000D01*
X161798000Y-72390000D02*
X108712000Y-72390000D01*
X243840000Y-81280000D02*
X243840000Y-83312000D01*
X245110000Y-84582000D02*
X245110000Y-87376000D01*
X144780000Y-71628000D02*
X144780000Y-60960000D01*
X243840000Y-116332000D02*
X243840000Y-119380000D01*
X245110000Y-115062000D02*
X243840000Y-116332000D01*
X243840000Y-95758000D02*
X245110000Y-97028000D01*
X226822000Y-136398000D02*
X243840000Y-119380000D01*
X164592000Y-136398000D02*
X226822000Y-136398000D01*
X158496000Y-130302000D02*
X164592000Y-136398000D01*
X243840000Y-83312000D02*
X245110000Y-84582000D01*
X245110000Y-109728000D02*
X245110000Y-115062000D01*
X245110000Y-97028000D02*
X245110000Y-100076000D01*
X243840000Y-108458000D02*
X245110000Y-109728000D01*
X243840000Y-93980000D02*
X243840000Y-95758000D01*
X158496000Y-88138000D02*
X158496000Y-130302000D01*
X245110000Y-100076000D02*
X243840000Y-101346000D01*
X243840000Y-101346000D02*
X243840000Y-106680000D01*
X144780000Y-83820000D02*
X154178000Y-83820000D01*
X243840000Y-88646000D02*
X243840000Y-93980000D01*
X245110000Y-87376000D02*
X243840000Y-88646000D01*
X243840000Y-106680000D02*
X243840000Y-108458000D01*
X154178000Y-83820000D02*
X158496000Y-88138000D01*
X242570000Y-97028000D02*
X242570000Y-100076000D01*
X241300000Y-119380000D02*
X241300000Y-116332000D01*
X242570000Y-115062000D02*
X242570000Y-109728000D01*
X142240000Y-60960000D02*
X142240000Y-71628000D01*
X159258000Y-87630000D02*
X159258000Y-129794000D01*
X225044000Y-135636000D02*
X241300000Y-119380000D01*
X241300000Y-93980000D02*
X241300000Y-95758000D01*
X142240000Y-83058000D02*
X154686000Y-83058000D01*
X241300000Y-116332000D02*
X242570000Y-115062000D01*
X242570000Y-100076000D02*
X241300000Y-101346000D01*
X241300000Y-101346000D02*
X241300000Y-106680000D01*
X241300000Y-81280000D02*
X241300000Y-83312000D01*
X165100000Y-135636000D02*
X225044000Y-135636000D01*
X241300000Y-83312000D02*
X242570000Y-84582000D01*
X242570000Y-87376000D02*
X241300000Y-88646000D01*
X242570000Y-84582000D02*
X242570000Y-87376000D01*
X154686000Y-83058000D02*
X159258000Y-87630000D01*
X159258000Y-129794000D02*
X165100000Y-135636000D01*
X241300000Y-88646000D02*
X241300000Y-93980000D01*
X242570000Y-109728000D02*
X241300000Y-108458000D01*
X241300000Y-95758000D02*
X242570000Y-97028000D01*
X241300000Y-108458000D02*
X241300000Y-106680000D01*
X238760000Y-93980000D02*
X238760000Y-95758000D01*
X238760000Y-119380000D02*
X238760000Y-116332000D01*
X139700000Y-82296000D02*
X155194000Y-82296000D01*
X240030000Y-115062000D02*
X240030000Y-109728000D01*
X238760000Y-101346000D02*
X238760000Y-106680000D01*
X160020000Y-129286000D02*
X165608000Y-134874000D01*
X238760000Y-108458000D02*
X238760000Y-106680000D01*
X160020000Y-87122000D02*
X160020000Y-129286000D01*
X238760000Y-83312000D02*
X238760000Y-81280000D01*
X240030000Y-100076000D02*
X238760000Y-101346000D01*
X223266000Y-134874000D02*
X238760000Y-119380000D01*
X240030000Y-97028000D02*
X240030000Y-100076000D01*
X139700000Y-71628000D02*
X139700000Y-60960000D01*
X240030000Y-109728000D02*
X238760000Y-108458000D01*
X240030000Y-84582000D02*
X238760000Y-83312000D01*
X155194000Y-82296000D02*
X160020000Y-87122000D01*
X238760000Y-93980000D02*
X238760000Y-88646000D01*
X238760000Y-88646000D02*
X240030000Y-87376000D01*
X238760000Y-116332000D02*
X240030000Y-115062000D01*
X240030000Y-87376000D02*
X240030000Y-84582000D01*
X165608000Y-134874000D02*
X223266000Y-134874000D01*
X238760000Y-95758000D02*
X240030000Y-97028000D01*
X155702000Y-81534000D02*
X160782000Y-86614000D01*
X237490000Y-109728000D02*
X236220000Y-108458000D01*
X236220000Y-81280000D02*
X236220000Y-83312000D01*
X160782000Y-86614000D02*
X160782000Y-128778000D01*
X237490000Y-97028000D02*
X237490000Y-100076000D01*
X236220000Y-93980000D02*
X236220000Y-95758000D01*
X137160000Y-81534000D02*
X155702000Y-81534000D01*
X221488000Y-134112000D02*
X236220000Y-119380000D01*
X236220000Y-108458000D02*
X236220000Y-106680000D01*
X237490000Y-84582000D02*
X237490000Y-87376000D01*
X236220000Y-101346000D02*
X236220000Y-106680000D01*
X237490000Y-87376000D02*
X236220000Y-88646000D01*
X236220000Y-83312000D02*
X237490000Y-84582000D01*
X137160000Y-60960000D02*
X137160000Y-71628000D01*
X237490000Y-100076000D02*
X236220000Y-101346000D01*
X236220000Y-116332000D02*
X237490000Y-115062000D01*
X237490000Y-115062000D02*
X237490000Y-109728000D01*
X236220000Y-95758000D02*
X237490000Y-97028000D01*
X166116000Y-134112000D02*
X221488000Y-134112000D01*
X160782000Y-128778000D02*
X166116000Y-134112000D01*
X236220000Y-119380000D02*
X236220000Y-116332000D01*
X236220000Y-88646000D02*
X236220000Y-93980000D01*
X233680000Y-95758000D02*
X234950000Y-97028000D01*
X233680000Y-101346000D02*
X233680000Y-106680000D01*
X166624000Y-133350000D02*
X219710000Y-133350000D01*
X233680000Y-93980000D02*
X233680000Y-95758000D01*
X156210000Y-80772000D02*
X161544000Y-86106000D01*
X233680000Y-88646000D02*
X233680000Y-93980000D01*
X161544000Y-128270000D02*
X166624000Y-133350000D01*
X233680000Y-81280000D02*
X233680000Y-83312000D01*
X234950000Y-109728000D02*
X233680000Y-108458000D01*
X234950000Y-97028000D02*
X234950000Y-100076000D01*
X219710000Y-133350000D02*
X233680000Y-119380000D01*
X161544000Y-86106000D02*
X161544000Y-128270000D01*
X233680000Y-83312000D02*
X234950000Y-84582000D01*
X234950000Y-100076000D02*
X233680000Y-101346000D01*
X234950000Y-84582000D02*
X234950000Y-87376000D01*
X233680000Y-108458000D02*
X233680000Y-106680000D01*
X233680000Y-119380000D02*
X233680000Y-116332000D01*
X233680000Y-116332000D02*
X234950000Y-115062000D01*
X134620000Y-80772000D02*
X156210000Y-80772000D01*
X234950000Y-115062000D02*
X234950000Y-109728000D01*
X134620000Y-71628000D02*
X134620000Y-60960000D01*
X234950000Y-87376000D02*
X233680000Y-88646000D01*
X231140000Y-93980000D02*
X231140000Y-95758000D01*
X231140000Y-119380000D02*
X231140000Y-116332000D01*
X132080000Y-60960000D02*
X132080000Y-71628000D01*
X231140000Y-95758000D02*
X232410000Y-97028000D01*
X232410000Y-84562788D02*
X232410000Y-87376000D01*
X232410000Y-87376000D02*
X231140000Y-88646000D01*
X162306000Y-85598000D02*
X162306000Y-127762000D01*
X231140000Y-116332000D02*
X232410000Y-115062000D01*
X231140000Y-83292788D02*
X232410000Y-84562788D01*
X217932000Y-132588000D02*
X231140000Y-119380000D01*
X167132000Y-132588000D02*
X217932000Y-132588000D01*
X231140000Y-88646000D02*
X231140000Y-93980000D01*
X232410000Y-100076000D02*
X231140000Y-101346000D01*
X132080000Y-80010000D02*
X156718000Y-80010000D01*
X162306000Y-127762000D02*
X167132000Y-132588000D01*
X156718000Y-80010000D02*
X162306000Y-85598000D01*
X231140000Y-108458000D02*
X231140000Y-106680000D01*
X232410000Y-115062000D02*
X232410000Y-109728000D01*
X232410000Y-97028000D02*
X232410000Y-100076000D01*
X232410000Y-109728000D02*
X231140000Y-108458000D01*
X231140000Y-101346000D02*
X231140000Y-106680000D01*
X231140000Y-81280000D02*
X231140000Y-83292788D01*
X229870000Y-87630000D02*
X228600000Y-88900000D01*
X157226000Y-79248000D02*
X163068000Y-85090000D01*
X129540000Y-79248000D02*
X157226000Y-79248000D01*
X228600000Y-116332000D02*
X229870000Y-115062000D01*
X129540000Y-71628000D02*
X129540000Y-60960000D01*
X228600000Y-88900000D02*
X228600000Y-93980000D01*
X167640000Y-131826000D02*
X216154000Y-131826000D01*
X228600000Y-83419788D02*
X229870000Y-84689788D01*
X229870000Y-109728000D02*
X228600000Y-108458000D01*
X228600000Y-101346000D02*
X228600000Y-106680000D01*
X229870000Y-100076000D02*
X228600000Y-101346000D01*
X163068000Y-127254000D02*
X167640000Y-131826000D01*
X216154000Y-131826000D02*
X228600000Y-119380000D01*
X228600000Y-81280000D02*
X228600000Y-83419788D01*
X228600000Y-95758000D02*
X229870000Y-97028000D01*
X229870000Y-115062000D02*
X229870000Y-109728000D01*
X229870000Y-84689788D02*
X229870000Y-87630000D01*
X163068000Y-85090000D02*
X163068000Y-127254000D01*
X228600000Y-119380000D02*
X228600000Y-116332000D01*
X228600000Y-93980000D02*
X228600000Y-95758000D01*
X229870000Y-97028000D02*
X229870000Y-100076000D01*
X228600000Y-108458000D02*
X228600000Y-106680000D01*
X227330000Y-109728000D02*
X226060000Y-108458000D01*
X227330000Y-115062000D02*
X227330000Y-109728000D01*
X227330000Y-97028000D02*
X227330000Y-100076000D01*
X226060000Y-88646000D02*
X226060000Y-93980000D01*
X214376000Y-131064000D02*
X226060000Y-119380000D01*
X168148000Y-131064000D02*
X214376000Y-131064000D01*
X163830000Y-84582000D02*
X163830000Y-126746000D01*
X227330000Y-100076000D02*
X226060000Y-101346000D01*
X226060000Y-116332000D02*
X227330000Y-115062000D01*
X163830000Y-126746000D02*
X168148000Y-131064000D01*
X226060000Y-119380000D02*
X226060000Y-116332000D01*
X226060000Y-93980000D02*
X226060000Y-95758000D01*
X227330000Y-84836000D02*
X227330000Y-87376000D01*
X226060000Y-101346000D02*
X226060000Y-106680000D01*
X226060000Y-95758000D02*
X227330000Y-97028000D01*
X226060000Y-108458000D02*
X226060000Y-106680000D01*
X226060000Y-83566000D02*
X227330000Y-84836000D01*
X127000000Y-60960000D02*
X127000000Y-71628000D01*
X127000000Y-78486000D02*
X157734000Y-78486000D01*
X226060000Y-81280000D02*
X226060000Y-83566000D01*
X157734000Y-78486000D02*
X163830000Y-84582000D01*
X227330000Y-87376000D02*
X226060000Y-88646000D01*
X211836000Y-70104000D02*
X216916000Y-70104000D01*
X216916000Y-70104000D02*
X226060000Y-60960000D01*
X208280000Y-73660000D02*
X211836000Y-70104000D01*
X205740000Y-73660000D02*
X210566000Y-68834000D01*
X207010000Y-85090000D02*
X208280000Y-86360000D01*
X215646000Y-68834000D02*
X223520000Y-60960000D01*
X207010000Y-77978000D02*
X207010000Y-85090000D01*
X205740000Y-73660000D02*
X205740000Y-76708000D01*
X210566000Y-68834000D02*
X215646000Y-68834000D01*
X205740000Y-76708000D02*
X207010000Y-77978000D01*
X205740000Y-89662000D02*
X207175200Y-91097200D01*
X203454000Y-84328000D02*
X203454000Y-84302335D01*
X205740000Y-86360000D02*
X205740000Y-89662000D01*
X203454000Y-84302335D02*
X204470000Y-83286335D01*
X203200000Y-76708000D02*
X203200000Y-73660000D01*
X209296000Y-67564000D02*
X214376000Y-67564000D01*
X207175200Y-97955200D02*
X208280000Y-99060000D01*
X214376000Y-67564000D02*
X220980000Y-60960000D01*
X207175200Y-91097200D02*
X207175200Y-97955200D01*
X203200000Y-73660000D02*
X209296000Y-67564000D01*
X204470000Y-77978000D02*
X203200000Y-76708000D01*
X204470000Y-83286335D02*
X204470000Y-77978000D01*
X203200000Y-89662000D02*
X203200000Y-86360000D01*
X207010000Y-110490000D02*
X207010000Y-103632000D01*
X207010000Y-103632000D02*
X205740000Y-102362000D01*
X200660000Y-76708000D02*
X200660000Y-73660000D01*
X201930000Y-77978000D02*
X200660000Y-76708000D01*
X200914000Y-84328000D02*
X201930000Y-83312000D01*
X200660000Y-73660000D02*
X208026000Y-66294000D01*
X203454000Y-97028000D02*
X204470000Y-96012000D01*
X208280000Y-111760000D02*
X207010000Y-110490000D01*
X204470000Y-96012000D02*
X204470000Y-90932000D01*
X208026000Y-66294000D02*
X213106000Y-66294000D01*
X204470000Y-90932000D02*
X203200000Y-89662000D01*
X205740000Y-102362000D02*
X205740000Y-99060000D01*
X201930000Y-83312000D02*
X201930000Y-77978000D01*
X213106000Y-66294000D02*
X218440000Y-60960000D01*
X201930000Y-90932000D02*
X200660000Y-89662000D01*
X199390000Y-83312000D02*
X198374000Y-84328000D01*
X211836000Y-65024000D02*
X215900000Y-60960000D01*
X198120000Y-76708000D02*
X199390000Y-77978000D01*
X204470000Y-108712000D02*
X203454000Y-109728000D01*
X201930000Y-95960671D02*
X201930000Y-90932000D01*
X203200000Y-99060000D02*
X203200000Y-102362000D01*
X198120000Y-73660000D02*
X206756000Y-65024000D01*
X203200000Y-102362000D02*
X204470000Y-103632000D01*
X206756000Y-65024000D02*
X211836000Y-65024000D01*
X200660000Y-89662000D02*
X200660000Y-86360000D01*
X199390000Y-77978000D02*
X199390000Y-83312000D01*
X200914000Y-97028000D02*
X200914000Y-96976671D01*
X204470000Y-103632000D02*
X204470000Y-108712000D01*
X198120000Y-73660000D02*
X198120000Y-76708000D01*
X200914000Y-96976671D02*
X201930000Y-95960671D01*
X201930000Y-103632000D02*
X201930000Y-108712000D01*
X199338671Y-90880671D02*
X198120000Y-89662000D01*
X198120000Y-89662000D02*
X198120000Y-86360000D01*
X195897500Y-84328000D02*
X195834000Y-84328000D01*
X199338671Y-96063329D02*
X199338671Y-90880671D01*
X200660000Y-99060000D02*
X200660000Y-102362000D01*
X200660000Y-102362000D02*
X201930000Y-103632000D01*
X195580000Y-76708000D02*
X196850000Y-77978000D01*
X195580000Y-73660000D02*
X195580000Y-76708000D01*
X201930000Y-108712000D02*
X200914000Y-109728000D01*
X213360000Y-60960000D02*
X210566000Y-63754000D01*
X205486000Y-63754000D02*
X195580000Y-73660000D01*
X196850000Y-77978000D02*
X196850000Y-83375500D01*
X210566000Y-63754000D02*
X205486000Y-63754000D01*
X196850000Y-83375500D02*
X195897500Y-84328000D01*
X198374000Y-97028000D02*
X199338671Y-96063329D01*
X195580000Y-89662000D02*
X196850000Y-90932000D01*
X204216000Y-62484000D02*
X209296000Y-62484000D01*
X198120000Y-99060000D02*
X198120000Y-102362000D01*
X196850000Y-90932000D02*
X196850000Y-96012000D01*
X199390000Y-103632000D02*
X199390000Y-108712000D01*
X194310000Y-83312000D02*
X193294000Y-84328000D01*
X195580000Y-86360000D02*
X195580000Y-89662000D01*
X193040000Y-73660000D02*
X193040000Y-76708000D01*
X193040000Y-76708000D02*
X194310000Y-77978000D01*
X193040000Y-73660000D02*
X204216000Y-62484000D01*
X199390000Y-108712000D02*
X198374000Y-109728000D01*
X196850000Y-96012000D02*
X195834000Y-97028000D01*
X198120000Y-102362000D02*
X199390000Y-103632000D01*
X209296000Y-62484000D02*
X210820000Y-60960000D01*
X194310000Y-77978000D02*
X194310000Y-83312000D01*
X191770000Y-77978000D02*
X191770000Y-83312000D01*
X195580000Y-102362000D02*
X196850000Y-103632000D01*
X193040000Y-89662000D02*
X194310000Y-90932000D01*
X191770000Y-83312000D02*
X190754000Y-84328000D01*
X208026000Y-61214000D02*
X208280000Y-60960000D01*
X196850000Y-103632000D02*
X196850000Y-108712000D01*
X196850000Y-108712000D02*
X195834000Y-109728000D01*
X194310000Y-96012000D02*
X193294000Y-97028000D01*
X195580000Y-99060000D02*
X195580000Y-102362000D01*
X194310000Y-90932000D02*
X194310000Y-96012000D01*
X202946000Y-61214000D02*
X208026000Y-61214000D01*
X190500000Y-73660000D02*
X190500000Y-76708000D01*
X193040000Y-86360000D02*
X193040000Y-89662000D01*
X190500000Y-73660000D02*
X202946000Y-61214000D01*
X190500000Y-76708000D02*
X191770000Y-77978000D01*
X246380000Y-73660000D02*
X246380000Y-60960000D01*
X245110000Y-78232000D02*
X245110000Y-83312000D01*
X243840000Y-60960000D02*
X243840000Y-73660000D01*
X245110000Y-83312000D02*
X246380000Y-84582000D01*
X243840000Y-73660000D02*
X243840000Y-76962000D01*
X246380000Y-84582000D02*
X246380000Y-86360000D01*
X243840000Y-76962000D02*
X245110000Y-78232000D01*
X241300000Y-73660000D02*
X241300000Y-60960000D01*
X245110000Y-95758000D02*
X246380000Y-97028000D01*
X243840000Y-84582000D02*
X243840000Y-86360000D01*
X246380000Y-97028000D02*
X246380000Y-99060000D01*
X242570000Y-83312000D02*
X243840000Y-84582000D01*
X241300000Y-76962000D02*
X242570000Y-78232000D01*
X245110000Y-88646000D02*
X245110000Y-95758000D01*
X241300000Y-73660000D02*
X241300000Y-76962000D01*
X242570000Y-78232000D02*
X242570000Y-83312000D01*
X242570000Y-88646000D02*
X242570000Y-95758000D01*
X240030000Y-83312000D02*
X241300000Y-84582000D01*
X246380000Y-109728000D02*
X246380000Y-111760000D01*
X243840000Y-97028000D02*
X243840000Y-99060000D01*
X238760000Y-76962000D02*
X240030000Y-78232000D01*
X245110000Y-108458000D02*
X246380000Y-109728000D01*
X241300000Y-84582000D02*
X241300000Y-86360000D01*
X242570000Y-95758000D02*
X243840000Y-97028000D01*
X245110000Y-101346000D02*
X245110000Y-108458000D01*
X240030000Y-78232000D02*
X240030000Y-83312000D01*
X238760000Y-60960000D02*
X238760000Y-73660000D01*
X238760000Y-73660000D02*
X238760000Y-76962000D01*
X243840000Y-109728000D02*
X242570000Y-108458000D01*
X242570000Y-108458000D02*
X242570000Y-101346000D01*
X236220000Y-76962000D02*
X237490000Y-78232000D01*
X241300000Y-97028000D02*
X241300000Y-99060000D01*
X243840000Y-111760000D02*
X243840000Y-109728000D01*
X236220000Y-73660000D02*
X236220000Y-60960000D01*
X240030000Y-88646000D02*
X240030000Y-95758000D01*
X236220000Y-73660000D02*
X236220000Y-76962000D01*
X237490000Y-78232000D02*
X237490000Y-83312000D01*
X238760000Y-84582000D02*
X238760000Y-86360000D01*
X237490000Y-83312000D02*
X238760000Y-84582000D01*
X240030000Y-95758000D02*
X241300000Y-97028000D01*
X234950000Y-78232000D02*
X234950000Y-83312000D01*
X233680000Y-76962000D02*
X234950000Y-78232000D01*
X233680000Y-60960000D02*
X233680000Y-73660000D01*
X240030000Y-108458000D02*
X240030000Y-108204000D01*
X234950000Y-83312000D02*
X236220000Y-84582000D01*
X237490000Y-88646000D02*
X237490000Y-95758000D01*
X233680000Y-73660000D02*
X233680000Y-76962000D01*
X241300000Y-109728000D02*
X240030000Y-108458000D01*
X240030000Y-108204000D02*
X240030000Y-101346000D01*
X236220000Y-84582000D02*
X236220000Y-86360000D01*
X241300000Y-111760000D02*
X241300000Y-109728000D01*
X238760000Y-97028000D02*
X238760000Y-99060000D01*
X237490000Y-95758000D02*
X238760000Y-97028000D01*
X237490000Y-108458000D02*
X237490000Y-101346000D01*
X233680000Y-84582000D02*
X233680000Y-86360000D01*
X231140000Y-73660000D02*
X231140000Y-76962000D01*
X238760000Y-109728000D02*
X237490000Y-108458000D01*
X236220000Y-97028000D02*
X236220000Y-99060000D01*
X234950000Y-95758000D02*
X236220000Y-97028000D01*
X232410000Y-83312000D02*
X233680000Y-84582000D01*
X232410000Y-78232000D02*
X232410000Y-83312000D01*
X231140000Y-76962000D02*
X232410000Y-78232000D01*
X234950000Y-88646000D02*
X234950000Y-95758000D01*
X238760000Y-111760000D02*
X238760000Y-109728000D01*
X231140000Y-73660000D02*
X231140000Y-60960000D01*
X229870000Y-78232000D02*
X229870000Y-83312000D01*
X236220000Y-109728000D02*
X234950000Y-108458000D01*
X234950000Y-108458000D02*
X234950000Y-101346000D01*
X228600000Y-60960000D02*
X228600000Y-73660000D01*
X233680000Y-97028000D02*
X233680000Y-99060000D01*
X232410000Y-95758000D02*
X233680000Y-97028000D01*
X228600000Y-73660000D02*
X228600000Y-76962000D01*
X236220000Y-111760000D02*
X236220000Y-109728000D01*
X231140000Y-84582000D02*
X231140000Y-86360000D01*
X229870000Y-83312000D02*
X231140000Y-84582000D01*
X228600000Y-76962000D02*
X229870000Y-78232000D01*
X232410000Y-88646000D02*
X232410000Y-95758000D01*
X98298000Y-97028000D02*
X91694000Y-90424000D01*
X93472000Y-70358000D02*
X106934000Y-56896000D01*
X91694000Y-84582000D02*
X93472000Y-82804000D01*
X106934000Y-56896000D02*
X143510000Y-56896000D01*
X93472000Y-82804000D02*
X93472000Y-70358000D01*
X151379000Y-64765000D02*
X152400000Y-64765000D01*
X152400000Y-62225000D02*
X152400000Y-64765000D01*
X143510000Y-56896000D02*
X151379000Y-64765000D01*
X98298000Y-104394000D02*
X98298000Y-97028000D01*
X86360000Y-109474000D02*
X86360000Y-106680000D01*
X98298000Y-104394000D02*
X98298000Y-116332000D01*
X93218000Y-104394000D02*
X95504000Y-104394000D01*
X129286000Y-124714000D02*
X134620000Y-119380000D01*
X86360000Y-106680000D02*
X86360000Y-104394000D01*
X91694000Y-90424000D02*
X91694000Y-84582000D01*
X98298000Y-116332000D02*
X106680000Y-124714000D01*
X106680000Y-124714000D02*
X129286000Y-124714000D01*
X92964000Y-110236000D02*
X95504000Y-110236000D01*
X97282000Y-118110000D02*
X105664000Y-126492000D01*
X91694000Y-82296000D02*
X91694000Y-69596000D01*
X130048000Y-126492000D02*
X137160000Y-119380000D01*
X90678000Y-91186000D02*
X90678000Y-83312000D01*
X97282000Y-110236000D02*
X97282000Y-118110000D01*
X91694000Y-69596000D02*
X106172000Y-55118000D01*
X157729000Y-64765000D02*
X160020000Y-64765000D01*
X153924000Y-60960000D02*
X157729000Y-64765000D01*
X97282000Y-110236000D02*
X97282000Y-97790000D01*
X87630000Y-110236000D02*
X89662000Y-110236000D01*
X151638000Y-60960000D02*
X153924000Y-60960000D01*
X90678000Y-83312000D02*
X91694000Y-82296000D01*
X106172000Y-55118000D02*
X145796000Y-55118000D01*
X87630000Y-110236000D02*
X87630000Y-100330000D01*
X105664000Y-126492000D02*
X130048000Y-126492000D01*
X160020000Y-64765000D02*
X160020000Y-67305000D01*
X145796000Y-55118000D02*
X151638000Y-60960000D01*
X87630000Y-100330000D02*
X86360000Y-99060000D01*
X97282000Y-97790000D02*
X90678000Y-91186000D01*
X86360000Y-75895200D02*
X86360000Y-83820000D01*
X83820000Y-111760000D02*
X85090000Y-110490000D01*
X80518000Y-97282000D02*
X78740000Y-99060000D01*
X152400000Y-54605000D02*
X152400000Y-57145000D01*
X89662000Y-93472000D02*
X85852000Y-97282000D01*
X151135000Y-53340000D02*
X152400000Y-54605000D01*
X85090000Y-110490000D02*
X85090000Y-97282000D01*
X63500000Y-60960000D02*
X70358000Y-67818000D01*
X70358000Y-67818000D02*
X78282800Y-67818000D01*
X85852000Y-97282000D02*
X85090000Y-97282000D01*
X78282800Y-67818000D02*
X86360000Y-75895200D01*
X85090000Y-97282000D02*
X80518000Y-97282000D01*
X63500000Y-60960000D02*
X71120000Y-53340000D01*
X71120000Y-53340000D02*
X151135000Y-53340000D01*
X86360000Y-83820000D02*
X89662000Y-87122000D01*
X89662000Y-87122000D02*
X89662000Y-93472000D01*
X52324000Y-64770000D02*
X57658000Y-59436000D01*
X59436000Y-59436000D02*
X60960000Y-60960000D01*
X52324000Y-110490000D02*
X52324000Y-64770000D01*
X57658000Y-59436000D02*
X59436000Y-59436000D01*
X55118000Y-113284000D02*
X52324000Y-110490000D01*
X58420000Y-62992000D02*
X58420000Y-60960000D01*
X53848000Y-110490000D02*
X53848000Y-71628000D01*
X105410000Y-73152000D02*
X99060000Y-66802000D01*
X67310000Y-59436000D02*
X91694000Y-59436000D01*
X57404000Y-114046000D02*
X53848000Y-110490000D01*
X91694000Y-59436000D02*
X95504000Y-63246000D01*
X105410000Y-90170000D02*
X109220000Y-93980000D01*
X105410000Y-84328000D02*
X105410000Y-73152000D01*
X53848000Y-71628000D02*
X58420000Y-67056000D01*
X58420000Y-67056000D02*
X58420000Y-62992000D01*
X68326000Y-81026000D02*
X58674000Y-81026000D01*
X66294000Y-109474000D02*
X65024000Y-109474000D01*
X79756000Y-84836000D02*
X81280000Y-86360000D01*
X72136000Y-84836000D02*
X79756000Y-84836000D01*
X58674000Y-81026000D02*
X55372000Y-84328000D01*
X55372000Y-108712000D02*
X56134000Y-109474000D01*
X71120000Y-83820000D02*
X72136000Y-84836000D01*
X68580000Y-111760000D02*
X66294000Y-109474000D01*
X71120000Y-83820000D02*
X68326000Y-81026000D01*
X55372000Y-84328000D02*
X55372000Y-108712000D01*
X56896000Y-106680000D02*
X56896000Y-84836000D01*
X67310000Y-82550000D02*
X71120000Y-86360000D01*
X56896000Y-84836000D02*
X59182000Y-82550000D01*
X59182000Y-82550000D02*
X67310000Y-82550000D01*
X74930000Y-123190000D02*
X74930000Y-116586000D01*
X76200000Y-115316000D02*
X76200000Y-111760000D01*
X74930000Y-116586000D02*
X76200000Y-115316000D01*
X76200000Y-124460000D02*
X74930000Y-123190000D01*
X72390000Y-123190000D02*
X73660000Y-124460000D01*
X73660000Y-115316000D02*
X72390000Y-116586000D01*
X72390000Y-116586000D02*
X72390000Y-123190000D01*
X73660000Y-111760000D02*
X73660000Y-115316000D01*
X78740000Y-83820000D02*
X73660000Y-83820000D01*
X66000000Y-78740000D02*
X60960000Y-78740000D01*
X73660000Y-83820000D02*
X68580000Y-78740000D01*
X60960000Y-78780000D02*
X60960000Y-71120000D01*
X80010000Y-91694000D02*
X78740000Y-90424000D01*
X80010000Y-92456000D02*
X80010000Y-91694000D01*
X68580000Y-78740000D02*
X66040000Y-78740000D01*
X78740000Y-90424000D02*
X78740000Y-89408000D01*
X74168000Y-89408000D02*
X78740000Y-93980000D01*
X73660000Y-89408000D02*
X74168000Y-89408000D01*
X104140000Y-93980000D02*
X102108000Y-93980000D01*
X102108000Y-93980000D02*
X102108000Y-102108000D01*
X98806000Y-93980000D02*
X104140000Y-93980000D01*
X93726000Y-88900000D02*
X98806000Y-93980000D01*
X89916000Y-82296000D02*
X89916000Y-71882000D01*
X93726000Y-84074000D02*
X93726000Y-88900000D01*
X71323200Y-63703200D02*
X68580000Y-60960000D01*
X102108000Y-102108000D02*
X104140000Y-104140000D01*
X81737200Y-63703200D02*
X71323200Y-63703200D01*
X89916000Y-71882000D02*
X81737200Y-63703200D01*
X92710000Y-89662000D02*
X100330000Y-97282000D01*
X114300000Y-104140000D02*
X127000000Y-104140000D01*
X89662000Y-84582000D02*
X88112600Y-83032600D01*
X92710000Y-85598000D02*
X92710000Y-89662000D01*
X114300000Y-104140000D02*
X111760000Y-106680000D01*
X70777100Y-65697100D02*
X66040000Y-60960000D01*
X100330000Y-102616000D02*
X104394000Y-106680000D01*
X88112600Y-74295000D02*
X79514700Y-65697100D01*
X104394000Y-106680000D02*
X105410000Y-106680000D01*
X111760000Y-106680000D02*
X107950000Y-106680000D01*
X79514700Y-65697100D02*
X70777100Y-65697100D01*
X100330000Y-97282000D02*
X100330000Y-102616000D01*
X88112600Y-83032600D02*
X88112600Y-74295000D01*
X106680000Y-101600000D02*
X114300000Y-101600000D01*
X104140000Y-101600000D02*
X106680000Y-101600000D01*
X109220000Y-86360000D02*
X111760000Y-86360000D01*
X114808000Y-90678000D02*
X115570000Y-91440000D01*
X111760000Y-90678000D02*
X114808000Y-90678000D01*
X115570000Y-91440000D02*
X115570000Y-100330000D01*
X115570000Y-100330000D02*
X116840000Y-101600000D01*
X132588000Y-96012000D02*
X118364000Y-96012000D01*
X118364000Y-96012000D02*
X118110000Y-96266000D01*
X118110000Y-96266000D02*
X118110000Y-100330000D01*
X118110000Y-100330000D02*
X119380000Y-101600000D01*
X118110000Y-89662000D02*
X118110000Y-95758000D01*
X134620000Y-93980000D02*
X132588000Y-96012000D01*
X118110000Y-95758000D02*
X118110000Y-96266000D01*
X144780000Y-93980000D02*
X142240000Y-93980000D01*
X139192000Y-97028000D02*
X142240000Y-93980000D01*
X124460000Y-97028000D02*
X139192000Y-97028000D01*
X121920000Y-101600000D02*
X121920000Y-99568000D01*
X121920000Y-99568000D02*
X124460000Y-97028000D01*
X139700000Y-86360000D02*
X142240000Y-86360000D01*
X137668000Y-84328000D02*
X139700000Y-86360000D01*
X125984000Y-98044000D02*
X124460000Y-99568000D01*
X125984000Y-89662000D02*
X125984000Y-94996000D01*
X127762000Y-84328000D02*
X137668000Y-84328000D01*
X125984000Y-86106000D02*
X127762000Y-84328000D01*
X125984000Y-87122000D02*
X125984000Y-86106000D01*
X124460000Y-99568000D02*
X124460000Y-101600000D01*
X152400000Y-96520000D02*
X149860000Y-99060000D01*
X149860000Y-99060000D02*
X129540000Y-99060000D01*
X129540000Y-99060000D02*
X127000000Y-101600000D01*
X152400000Y-89408000D02*
X152400000Y-96520000D01*
X106680000Y-96520000D02*
X104140000Y-99060000D01*
X106680000Y-93980000D02*
X106680000Y-96520000D01*
X71120000Y-111760000D02*
X71120000Y-115316000D01*
X69850000Y-123190000D02*
X71120000Y-124460000D01*
X71120000Y-115316000D02*
X69850000Y-116586000D01*
X69850000Y-116586000D02*
X69850000Y-123190000D01*
X137160000Y-111760000D02*
X137160000Y-106680000D01*
X175768000Y-75438000D02*
X179324000Y-75438000D01*
X210312000Y-75438000D02*
X219456000Y-75438000D01*
X170942000Y-80264000D02*
X175768000Y-75438000D01*
X170942000Y-102870000D02*
X170942000Y-80264000D01*
X157480000Y-102870000D02*
X140970000Y-102870000D01*
X140970000Y-102870000D02*
X137160000Y-106680000D01*
X153416000Y-104140000D02*
X142240000Y-104140000D01*
X154432000Y-105156000D02*
X153416000Y-104140000D01*
X184150000Y-90170000D02*
X184150000Y-91440000D01*
X139700000Y-111760000D02*
X139700000Y-106680000D01*
X210312000Y-88138000D02*
X219456000Y-88138000D01*
X172212000Y-101854000D02*
X181737000Y-92329000D01*
X185674000Y-88646000D02*
X184150000Y-90170000D01*
X142240000Y-104140000D02*
X139700000Y-106680000D01*
X172212000Y-103886000D02*
X172212000Y-101854000D01*
X157480000Y-105156000D02*
X154432000Y-105156000D01*
X170942000Y-105156000D02*
X172212000Y-103886000D01*
X142240000Y-111760000D02*
X142240000Y-106680000D01*
X157480000Y-107442000D02*
X153670000Y-107442000D01*
X143510000Y-105410000D02*
X142240000Y-106680000D01*
X151638000Y-105410000D02*
X143510000Y-105410000D01*
X174498000Y-107442000D02*
X181356000Y-100584000D01*
X210312000Y-100838000D02*
X219456000Y-100838000D01*
X153670000Y-107442000D02*
X151638000Y-105410000D01*
X170942000Y-107442000D02*
X174498000Y-107442000D01*
X170942000Y-109728000D02*
X175260000Y-114046000D01*
X210312000Y-114046000D02*
X219456000Y-114046000D01*
X144780000Y-111760000D02*
X144780000Y-106680000D01*
X223774000Y-114046000D02*
X226060000Y-111760000D01*
X222504000Y-114046000D02*
X223774000Y-114046000D01*
X157480000Y-109728000D02*
X152654000Y-109728000D01*
X175260000Y-114046000D02*
X185674000Y-114046000D01*
X152654000Y-109728000D02*
X149606000Y-106680000D01*
X149606000Y-106680000D02*
X144780000Y-106680000D01*
X181864000Y-63500000D02*
X186690000Y-63500000D01*
X179290000Y-63500000D02*
X179324000Y-63500000D01*
X157988000Y-58420000D02*
X174210000Y-58420000D01*
X152400000Y-59685000D02*
X156723000Y-59685000D01*
X174210000Y-58420000D02*
X179290000Y-63500000D01*
X156723000Y-59685000D02*
X157988000Y-58420000D01*
X178308000Y-66294000D02*
X175514000Y-63500000D01*
X191770000Y-63500000D02*
X188976000Y-66294000D01*
X188976000Y-66294000D02*
X178308000Y-66294000D01*
X170434000Y-60960000D02*
X172974000Y-63500000D01*
X155443000Y-64262000D02*
X155448000Y-64262000D01*
X158750000Y-60960000D02*
X170434000Y-60960000D01*
X152400000Y-67305000D02*
X155443000Y-64262000D01*
X157480000Y-62230000D02*
X158750000Y-60960000D01*
X192786000Y-67564000D02*
X196850000Y-63500000D01*
X169164000Y-63500000D02*
X169164000Y-65532000D01*
X169164000Y-65532000D02*
X171196000Y-67564000D01*
X171196000Y-67564000D02*
X192786000Y-67564000D01*
X166370000Y-63500000D02*
X166624000Y-63500000D01*
X160020000Y-69845000D02*
X160025000Y-69845000D01*
X160025000Y-69845000D02*
X166370000Y-63500000D01*
X116840000Y-93980000D02*
X116840000Y-90932000D01*
X115570000Y-89662000D02*
X106680000Y-89662000D01*
X116840000Y-90932000D02*
X115570000Y-89662000D01*
X114300000Y-86360000D02*
X116840000Y-86360000D01*
X137160000Y-93980000D02*
X139700000Y-93980000D01*
X143002000Y-89662000D02*
X137160000Y-89662000D01*
X147320000Y-93980000D02*
X143002000Y-89662000D01*
X147320000Y-86360000D02*
X144780000Y-86360000D01*
X109220000Y-104140000D02*
X107696000Y-104140000D01*
X114300000Y-98044000D02*
X114300000Y-93980000D01*
X110236000Y-104140000D02*
X111760000Y-102616000D01*
X109220000Y-104140000D02*
X110236000Y-104140000D01*
X107696000Y-104140000D02*
X106680000Y-105156000D01*
X111760000Y-100584000D02*
X114300000Y-98044000D01*
X106680000Y-105156000D02*
X106680000Y-110236000D01*
X89408000Y-132080000D02*
X86868000Y-132080000D01*
X90297000Y-132969000D02*
X89408000Y-132080000D01*
X99314000Y-97790000D02*
X99314000Y-115570000D01*
X111760000Y-93980000D02*
X110490000Y-95250000D01*
X86868000Y-132080000D02*
X84836000Y-134112000D01*
X99314000Y-121666000D02*
X99314000Y-123952000D01*
X84836000Y-134112000D02*
X70612000Y-134112000D01*
X70612000Y-134112000D02*
X68580000Y-132080000D01*
X99314000Y-123952000D02*
X97282000Y-125984000D01*
M02*
