%TF.GenerationSoftware,KiCad,Pcbnew,(7.0.0)*%
%TF.CreationDate,2024-03-28T20:38:48-07:00*%
%TF.ProjectId,video_shift_status_delay,76696465-6f5f-4736-9869-66745f737461,rev?*%
%TF.SameCoordinates,Original*%
%TF.FileFunction,Drillmap*%
%TF.FilePolarity,Positive*%
%FSLAX45Y45*%
G04 Gerber Fmt 4.5, Leading zero omitted, Abs format (unit mm)*
G04 Created by KiCad (PCBNEW (7.0.0)) date 2024-03-28 20:38:48*
%MOMM*%
%LPD*%
G01*
G04 APERTURE LIST*
%ADD10C,0.100000*%
%ADD11C,0.200000*%
%ADD12C,0.038100*%
%ADD13C,0.080000*%
%ADD14C,0.090000*%
G04 APERTURE END LIST*
D10*
X25400000Y-5270500D02*
X25400000Y-14668500D01*
X25209500Y-14859000D02*
G75*
G03*
X25400000Y-14668500I0J190500D01*
G01*
X5080000Y-14668500D02*
G75*
G03*
X5270500Y-14859000I190500J0D01*
G01*
X5080000Y-14668500D02*
X5080000Y-5270500D01*
X5270500Y-5080000D02*
G75*
G03*
X5080000Y-5270500I0J-190500D01*
G01*
X25209500Y-14859000D02*
X5270500Y-14859000D01*
X25400000Y-5270500D02*
G75*
G03*
X25209500Y-5080000I-190500J0D01*
G01*
X5270500Y-5080000D02*
X25209500Y-5080000D01*
D11*
D12*
X5492750Y-11309350D02*
X5530850Y-11347450D01*
X5530850Y-11309350D02*
X5492750Y-11347450D01*
X5594350Y-10928350D02*
X5632450Y-10966450D01*
X5632450Y-10928350D02*
X5594350Y-10966450D01*
X5670550Y-10648950D02*
X5708650Y-10687050D01*
X5708650Y-10648950D02*
X5670550Y-10687050D01*
X5721350Y-11385550D02*
X5759450Y-11423650D01*
X5759450Y-11385550D02*
X5721350Y-11423650D01*
X5797550Y-9632950D02*
X5835650Y-9671050D01*
X5835650Y-9632950D02*
X5797550Y-9671050D01*
X6203950Y-9404350D02*
X6242050Y-9442450D01*
X6242050Y-9404350D02*
X6203950Y-9442450D01*
X6457950Y-9632950D02*
X6496050Y-9671050D01*
X6496050Y-9632950D02*
X6457950Y-9671050D01*
X6483350Y-10928350D02*
X6521450Y-10966450D01*
X6521450Y-10928350D02*
X6483350Y-10966450D01*
X6534150Y-9074150D02*
X6572250Y-9112250D01*
X6572250Y-9074150D02*
X6534150Y-9112250D01*
X6711950Y-5924550D02*
X6750050Y-5962650D01*
X6750050Y-5924550D02*
X6711950Y-5962650D01*
X6864350Y-13976350D02*
X6902450Y-14014450D01*
X6902450Y-13976350D02*
X6864350Y-14014450D01*
X6965950Y-14077950D02*
X7004050Y-14116050D01*
X7004050Y-14077950D02*
X6965950Y-14116050D01*
X7092950Y-8362950D02*
X7131050Y-8401050D01*
X7131050Y-8362950D02*
X7092950Y-8401050D01*
X7219950Y-8921750D02*
X7258050Y-8959850D01*
X7258050Y-8921750D02*
X7219950Y-8959850D01*
X7346950Y-8921750D02*
X7385050Y-8959850D01*
X7385050Y-8921750D02*
X7346950Y-8959850D01*
X7727950Y-10521950D02*
X7766050Y-10560050D01*
X7766050Y-10521950D02*
X7727950Y-10560050D01*
X7854950Y-8362950D02*
X7893050Y-8401050D01*
X7893050Y-8362950D02*
X7854950Y-8401050D01*
X7854950Y-8921750D02*
X7893050Y-8959850D01*
X7893050Y-8921750D02*
X7854950Y-8959850D01*
X7981950Y-9226550D02*
X8020050Y-9264650D01*
X8020050Y-9226550D02*
X7981950Y-9264650D01*
X8108950Y-10064750D02*
X8147050Y-10102850D01*
X8147050Y-10064750D02*
X8108950Y-10102850D01*
X8108950Y-10369550D02*
X8147050Y-10407650D01*
X8147050Y-10369550D02*
X8108950Y-10407650D01*
X8108950Y-14027150D02*
X8147050Y-14065250D01*
X8147050Y-14027150D02*
X8108950Y-14065250D01*
X8235950Y-11639550D02*
X8274050Y-11677650D01*
X8274050Y-11639550D02*
X8235950Y-11677650D01*
X8235950Y-11791950D02*
X8274050Y-11830050D01*
X8274050Y-11791950D02*
X8235950Y-11830050D01*
X8337550Y-11715750D02*
X8375650Y-11753850D01*
X8375650Y-11715750D02*
X8337550Y-11753850D01*
X8515350Y-12071350D02*
X8553450Y-12109450D01*
X8553450Y-12071350D02*
X8515350Y-12109450D01*
X8515350Y-12198350D02*
X8553450Y-12236450D01*
X8553450Y-12198350D02*
X8515350Y-12236450D01*
X8616950Y-10420350D02*
X8655050Y-10458450D01*
X8655050Y-10420350D02*
X8616950Y-10458450D01*
X8616950Y-10928350D02*
X8655050Y-10966450D01*
X8655050Y-10928350D02*
X8616950Y-10966450D01*
X8693150Y-8820150D02*
X8731250Y-8858250D01*
X8731250Y-8820150D02*
X8693150Y-8858250D01*
X8743950Y-11004550D02*
X8782050Y-11042650D01*
X8782050Y-11004550D02*
X8743950Y-11042650D01*
X8743950Y-12071350D02*
X8782050Y-12109450D01*
X8782050Y-12071350D02*
X8743950Y-12109450D01*
X8794750Y-13290550D02*
X8832850Y-13328650D01*
X8832850Y-13290550D02*
X8794750Y-13328650D01*
X8845550Y-8820150D02*
X8883650Y-8858250D01*
X8883650Y-8820150D02*
X8845550Y-8858250D01*
X8870950Y-12198350D02*
X8909050Y-12236450D01*
X8909050Y-12198350D02*
X8870950Y-12236450D01*
X8947150Y-8439150D02*
X8985250Y-8477250D01*
X8985250Y-8439150D02*
X8947150Y-8477250D01*
X8947150Y-11004550D02*
X8985250Y-11042650D01*
X8985250Y-11004550D02*
X8947150Y-11042650D01*
X8947150Y-11537950D02*
X8985250Y-11576050D01*
X8985250Y-11537950D02*
X8947150Y-11576050D01*
X8972550Y-8210550D02*
X9010650Y-8248650D01*
X9010650Y-8210550D02*
X8972550Y-8248650D01*
X9010650Y-13277850D02*
X9048750Y-13315950D01*
X9048750Y-13277850D02*
X9010650Y-13315950D01*
X9023350Y-11461750D02*
X9061450Y-11499850D01*
X9061450Y-11461750D02*
X9023350Y-11499850D01*
X9023350Y-11614150D02*
X9061450Y-11652250D01*
X9061450Y-11614150D02*
X9023350Y-11652250D01*
X9099550Y-10013950D02*
X9137650Y-10052050D01*
X9137650Y-10013950D02*
X9099550Y-10052050D01*
X9201150Y-10521950D02*
X9239250Y-10560050D01*
X9239250Y-10521950D02*
X9201150Y-10560050D01*
X9251950Y-8540750D02*
X9290050Y-8578850D01*
X9290050Y-8540750D02*
X9251950Y-8578850D01*
X9277350Y-11004550D02*
X9315450Y-11042650D01*
X9315450Y-11004550D02*
X9277350Y-11042650D01*
X9302750Y-10420350D02*
X9340850Y-10458450D01*
X9340850Y-10420350D02*
X9302750Y-10458450D01*
X9302750Y-11461750D02*
X9340850Y-11499850D01*
X9340850Y-11461750D02*
X9302750Y-11499850D01*
X9302750Y-11614150D02*
X9340850Y-11652250D01*
X9340850Y-11614150D02*
X9302750Y-11652250D01*
X9353550Y-8388350D02*
X9391650Y-8426450D01*
X9391650Y-8388350D02*
X9353550Y-8426450D01*
X9404350Y-11537950D02*
X9442450Y-11576050D01*
X9442450Y-11537950D02*
X9404350Y-11576050D01*
X9455150Y-8820150D02*
X9493250Y-8858250D01*
X9493250Y-8820150D02*
X9455150Y-8858250D01*
X9531350Y-6305550D02*
X9569450Y-6343650D01*
X9569450Y-6305550D02*
X9531350Y-6343650D01*
X9531350Y-10420350D02*
X9569450Y-10458450D01*
X9569450Y-10420350D02*
X9531350Y-10458450D01*
X9531350Y-11004550D02*
X9569450Y-11042650D01*
X9569450Y-11004550D02*
X9531350Y-11042650D01*
X9607550Y-8820150D02*
X9645650Y-8858250D01*
X9645650Y-8820150D02*
X9607550Y-8858250D01*
X9607550Y-12477750D02*
X9645650Y-12515850D01*
X9645650Y-12477750D02*
X9607550Y-12515850D01*
X9709150Y-11004550D02*
X9747250Y-11042650D01*
X9747250Y-11004550D02*
X9709150Y-11042650D01*
X9709150Y-12579350D02*
X9747250Y-12617450D01*
X9747250Y-12579350D02*
X9709150Y-12617450D01*
X9810750Y-10420350D02*
X9848850Y-10458450D01*
X9848850Y-10420350D02*
X9810750Y-10458450D01*
X9886950Y-6661150D02*
X9925050Y-6699250D01*
X9925050Y-6661150D02*
X9886950Y-6699250D01*
X9912350Y-9759950D02*
X9950450Y-9798050D01*
X9950450Y-9759950D02*
X9912350Y-9798050D01*
X9912350Y-11537950D02*
X9950450Y-11576050D01*
X9950450Y-11537950D02*
X9912350Y-11576050D01*
X9912350Y-12147550D02*
X9950450Y-12185650D01*
X9950450Y-12147550D02*
X9912350Y-12185650D01*
X10521950Y-8413750D02*
X10560050Y-8451850D01*
X10560050Y-8413750D02*
X10521950Y-8451850D01*
X10521950Y-8997950D02*
X10560050Y-9036050D01*
X10560050Y-8997950D02*
X10521950Y-9036050D01*
X10521950Y-10648950D02*
X10560050Y-10687050D01*
X10560050Y-10648950D02*
X10521950Y-10687050D01*
X10648950Y-8947150D02*
X10687050Y-8985250D01*
X10687050Y-8947150D02*
X10648950Y-8985250D01*
X10775950Y-10648950D02*
X10814050Y-10687050D01*
X10814050Y-10648950D02*
X10775950Y-10687050D01*
X10902950Y-7143750D02*
X10941050Y-7181850D01*
X10941050Y-7143750D02*
X10902950Y-7181850D01*
X10902950Y-7296150D02*
X10941050Y-7334250D01*
X10941050Y-7296150D02*
X10902950Y-7334250D01*
X11029950Y-9505950D02*
X11068050Y-9544050D01*
X11068050Y-9505950D02*
X11029950Y-9544050D01*
X11156950Y-7143750D02*
X11195050Y-7181850D01*
X11195050Y-7143750D02*
X11156950Y-7181850D01*
X11156950Y-7372350D02*
X11195050Y-7410450D01*
X11195050Y-7372350D02*
X11156950Y-7410450D01*
X11156950Y-9048750D02*
X11195050Y-9086850D01*
X11195050Y-9048750D02*
X11156950Y-9086850D01*
X11156950Y-10039350D02*
X11195050Y-10077450D01*
X11195050Y-10039350D02*
X11156950Y-10077450D01*
X11156950Y-10242550D02*
X11195050Y-10280650D01*
X11195050Y-10242550D02*
X11156950Y-10280650D01*
X11410950Y-7143750D02*
X11449050Y-7181850D01*
X11449050Y-7143750D02*
X11410950Y-7181850D01*
X11410950Y-7448550D02*
X11449050Y-7486650D01*
X11449050Y-7448550D02*
X11410950Y-7486650D01*
X11664950Y-7143750D02*
X11703050Y-7181850D01*
X11703050Y-7143750D02*
X11664950Y-7181850D01*
X11664950Y-7524750D02*
X11703050Y-7562850D01*
X11703050Y-7524750D02*
X11664950Y-7562850D01*
X11791950Y-8947150D02*
X11830050Y-8985250D01*
X11830050Y-8947150D02*
X11791950Y-8985250D01*
X11918950Y-7143750D02*
X11957050Y-7181850D01*
X11957050Y-7143750D02*
X11918950Y-7181850D01*
X11918950Y-7600950D02*
X11957050Y-7639050D01*
X11957050Y-7600950D02*
X11918950Y-7639050D01*
X12172950Y-7143750D02*
X12211050Y-7181850D01*
X12211050Y-7143750D02*
X12172950Y-7181850D01*
X12172950Y-7677150D02*
X12211050Y-7715250D01*
X12211050Y-7677150D02*
X12172950Y-7715250D01*
X12426950Y-7143750D02*
X12465050Y-7181850D01*
X12465050Y-7143750D02*
X12426950Y-7181850D01*
X12426950Y-7753350D02*
X12465050Y-7791450D01*
X12465050Y-7753350D02*
X12426950Y-7791450D01*
X12579350Y-8693150D02*
X12617450Y-8731250D01*
X12617450Y-8693150D02*
X12579350Y-8731250D01*
X12579350Y-8947150D02*
X12617450Y-8985250D01*
X12617450Y-8947150D02*
X12579350Y-8985250D01*
X12579350Y-9480550D02*
X12617450Y-9518650D01*
X12617450Y-9480550D02*
X12579350Y-9518650D01*
X12579350Y-9785350D02*
X12617450Y-9823450D01*
X12617450Y-9785350D02*
X12579350Y-9823450D01*
X12680950Y-7143750D02*
X12719050Y-7181850D01*
X12719050Y-7143750D02*
X12680950Y-7181850D01*
X12680950Y-7829550D02*
X12719050Y-7867650D01*
X12719050Y-7829550D02*
X12680950Y-7867650D01*
X12934950Y-7143750D02*
X12973050Y-7181850D01*
X12973050Y-7143750D02*
X12934950Y-7181850D01*
X12934950Y-7905750D02*
X12973050Y-7943850D01*
X12973050Y-7905750D02*
X12934950Y-7943850D01*
X13188950Y-7143750D02*
X13227050Y-7181850D01*
X13227050Y-7143750D02*
X13188950Y-7181850D01*
X13188950Y-7981950D02*
X13227050Y-8020050D01*
X13227050Y-7981950D02*
X13188950Y-8020050D01*
X13442950Y-7143750D02*
X13481050Y-7181850D01*
X13481050Y-7143750D02*
X13442950Y-7181850D01*
X13442950Y-8058150D02*
X13481050Y-8096250D01*
X13481050Y-8058150D02*
X13442950Y-8096250D01*
X13696950Y-7143750D02*
X13735050Y-7181850D01*
X13735050Y-7143750D02*
X13696950Y-7181850D01*
X13696950Y-8134350D02*
X13735050Y-8172450D01*
X13735050Y-8134350D02*
X13696950Y-8172450D01*
X13696950Y-8947150D02*
X13735050Y-8985250D01*
X13735050Y-8947150D02*
X13696950Y-8985250D01*
X13950950Y-7143750D02*
X13989050Y-7181850D01*
X13989050Y-7143750D02*
X13950950Y-7181850D01*
X13950950Y-8210550D02*
X13989050Y-8248650D01*
X13989050Y-8210550D02*
X13950950Y-8248650D01*
X14204950Y-7143750D02*
X14243050Y-7181850D01*
X14243050Y-7143750D02*
X14204950Y-7181850D01*
X14204950Y-8286750D02*
X14243050Y-8324850D01*
X14243050Y-8286750D02*
X14204950Y-8324850D01*
X14458950Y-7143750D02*
X14497050Y-7181850D01*
X14497050Y-7143750D02*
X14458950Y-7181850D01*
X14458950Y-8362950D02*
X14497050Y-8401050D01*
X14497050Y-8362950D02*
X14458950Y-8401050D01*
X14839950Y-5238750D02*
X14878050Y-5276850D01*
X14878050Y-5238750D02*
X14839950Y-5276850D01*
X15220950Y-8921750D02*
X15259050Y-8959850D01*
X15259050Y-8921750D02*
X15220950Y-8959850D01*
X15500350Y-8820150D02*
X15538450Y-8858250D01*
X15538450Y-8820150D02*
X15500350Y-8858250D01*
X15525750Y-6407150D02*
X15563850Y-6445250D01*
X15563850Y-6407150D02*
X15525750Y-6445250D01*
X15678150Y-8820150D02*
X15716250Y-8858250D01*
X15716250Y-8820150D02*
X15678150Y-8858250D01*
X15728950Y-6203950D02*
X15767050Y-6242050D01*
X15767050Y-6203950D02*
X15728950Y-6242050D01*
X15728950Y-10267950D02*
X15767050Y-10306050D01*
X15767050Y-10267950D02*
X15728950Y-10306050D01*
X15728950Y-10496550D02*
X15767050Y-10534650D01*
X15767050Y-10496550D02*
X15728950Y-10534650D01*
X15728950Y-10725150D02*
X15767050Y-10763250D01*
X15767050Y-10725150D02*
X15728950Y-10763250D01*
X15728950Y-10953750D02*
X15767050Y-10991850D01*
X15767050Y-10953750D02*
X15728950Y-10991850D01*
X16414750Y-6864350D02*
X16452850Y-6902450D01*
X16452850Y-6864350D02*
X16414750Y-6902450D01*
X16592550Y-6864350D02*
X16630650Y-6902450D01*
X16630650Y-6864350D02*
X16592550Y-6902450D01*
X17075150Y-10267950D02*
X17113250Y-10306050D01*
X17113250Y-10267950D02*
X17075150Y-10306050D01*
X17075150Y-10496550D02*
X17113250Y-10534650D01*
X17113250Y-10496550D02*
X17075150Y-10534650D01*
X17075150Y-10725150D02*
X17113250Y-10763250D01*
X17113250Y-10725150D02*
X17075150Y-10763250D01*
X17075150Y-10953750D02*
X17113250Y-10991850D01*
X17113250Y-10953750D02*
X17075150Y-10991850D01*
X17176750Y-8820150D02*
X17214850Y-8858250D01*
X17214850Y-8820150D02*
X17176750Y-8858250D01*
X17354550Y-8820150D02*
X17392650Y-8858250D01*
X17392650Y-8820150D02*
X17354550Y-8858250D01*
X17913350Y-7524750D02*
X17951450Y-7562850D01*
X17951450Y-7524750D02*
X17913350Y-7562850D01*
X18116550Y-10039350D02*
X18154650Y-10077450D01*
X18154650Y-10039350D02*
X18116550Y-10077450D01*
X18154650Y-9213850D02*
X18192750Y-9251950D01*
X18192750Y-9213850D02*
X18154650Y-9251950D01*
X18395950Y-9124950D02*
X18434050Y-9163050D01*
X18434050Y-9124950D02*
X18395950Y-9163050D01*
X18548350Y-8845550D02*
X18586450Y-8883650D01*
X18586450Y-8845550D02*
X18548350Y-8883650D01*
X18548350Y-11385550D02*
X18586450Y-11423650D01*
X18586450Y-11385550D02*
X18548350Y-11423650D01*
X18751550Y-7118350D02*
X18789650Y-7156450D01*
X18789650Y-7118350D02*
X18751550Y-7156450D01*
X18929350Y-7118350D02*
X18967450Y-7156450D01*
X18967450Y-7118350D02*
X18929350Y-7156450D01*
X19056350Y-8413750D02*
X19094450Y-8451850D01*
X19094450Y-8413750D02*
X19056350Y-8451850D01*
X19310350Y-8413750D02*
X19348450Y-8451850D01*
X19348450Y-8413750D02*
X19310350Y-8451850D01*
X19310350Y-9683750D02*
X19348450Y-9721850D01*
X19348450Y-9683750D02*
X19310350Y-9721850D01*
X19564350Y-8413750D02*
X19602450Y-8451850D01*
X19602450Y-8413750D02*
X19564350Y-8451850D01*
X19564350Y-9683750D02*
X19602450Y-9721850D01*
X19602450Y-9683750D02*
X19564350Y-9721850D01*
X19564350Y-10953750D02*
X19602450Y-10991850D01*
X19602450Y-10953750D02*
X19564350Y-10991850D01*
X19818350Y-8413750D02*
X19856450Y-8451850D01*
X19856450Y-8413750D02*
X19818350Y-8451850D01*
X19818350Y-9683750D02*
X19856450Y-9721850D01*
X19856450Y-9683750D02*
X19818350Y-9721850D01*
X19818350Y-10953750D02*
X19856450Y-10991850D01*
X19856450Y-10953750D02*
X19818350Y-10991850D01*
X20072350Y-8413750D02*
X20110450Y-8451850D01*
X20110450Y-8413750D02*
X20072350Y-8451850D01*
X20072350Y-9683750D02*
X20110450Y-9721850D01*
X20110450Y-9683750D02*
X20072350Y-9721850D01*
X20072350Y-10953750D02*
X20110450Y-10991850D01*
X20110450Y-10953750D02*
X20072350Y-10991850D01*
X20326350Y-8413750D02*
X20364450Y-8451850D01*
X20364450Y-8413750D02*
X20326350Y-8451850D01*
X20326350Y-9683750D02*
X20364450Y-9721850D01*
X20364450Y-9683750D02*
X20326350Y-9721850D01*
X20326350Y-10953750D02*
X20364450Y-10991850D01*
X20364450Y-10953750D02*
X20326350Y-10991850D01*
X21012150Y-7524750D02*
X21050250Y-7562850D01*
X21050250Y-7524750D02*
X21012150Y-7562850D01*
X21012150Y-8794750D02*
X21050250Y-8832850D01*
X21050250Y-8794750D02*
X21012150Y-8832850D01*
X21012150Y-10064750D02*
X21050250Y-10102850D01*
X21050250Y-10064750D02*
X21012150Y-10102850D01*
X21012150Y-11385550D02*
X21050250Y-11423650D01*
X21050250Y-11385550D02*
X21012150Y-11423650D01*
X21266150Y-7118350D02*
X21304250Y-7156450D01*
X21304250Y-7118350D02*
X21266150Y-7156450D01*
X21469350Y-7118350D02*
X21507450Y-7156450D01*
X21507450Y-7118350D02*
X21469350Y-7156450D01*
X21926550Y-7524750D02*
X21964650Y-7562850D01*
X21964650Y-7524750D02*
X21926550Y-7562850D01*
X21926550Y-8794750D02*
X21964650Y-8832850D01*
X21964650Y-8794750D02*
X21926550Y-8832850D01*
X21926550Y-10064750D02*
X21964650Y-10102850D01*
X21964650Y-10064750D02*
X21926550Y-10102850D01*
X21926550Y-11385550D02*
X21964650Y-11423650D01*
X21964650Y-11385550D02*
X21926550Y-11423650D01*
X22231350Y-11385550D02*
X22269450Y-11423650D01*
X22269450Y-11385550D02*
X22231350Y-11423650D01*
X23221950Y-8845550D02*
X23260050Y-8883650D01*
X23260050Y-8845550D02*
X23221950Y-8883650D01*
X23475950Y-8845550D02*
X23514050Y-8883650D01*
X23514050Y-8845550D02*
X23475950Y-8883650D01*
X23475950Y-10115550D02*
X23514050Y-10153650D01*
X23514050Y-10115550D02*
X23475950Y-10153650D01*
X23729950Y-8845550D02*
X23768050Y-8883650D01*
X23768050Y-8845550D02*
X23729950Y-8883650D01*
X23729950Y-10115550D02*
X23768050Y-10153650D01*
X23768050Y-10115550D02*
X23729950Y-10153650D01*
X23983950Y-8845550D02*
X24022050Y-8883650D01*
X24022050Y-8845550D02*
X23983950Y-8883650D01*
X23983950Y-10115550D02*
X24022050Y-10153650D01*
X24022050Y-10115550D02*
X23983950Y-10153650D01*
X24237950Y-8845550D02*
X24276050Y-8883650D01*
X24276050Y-8845550D02*
X24237950Y-8883650D01*
X24237950Y-10115550D02*
X24276050Y-10153650D01*
X24276050Y-10115550D02*
X24237950Y-10153650D01*
X24491950Y-8845550D02*
X24530050Y-8883650D01*
X24530050Y-8845550D02*
X24491950Y-8883650D01*
X24491950Y-10115550D02*
X24530050Y-10153650D01*
X24530050Y-10115550D02*
X24491950Y-10153650D01*
D13*
X5450200Y-5740400D02*
G75*
G03*
X5450200Y-5740400I-40000J0D01*
G01*
X5450200Y-6756400D02*
G75*
G03*
X5450200Y-6756400I-40000J0D01*
G01*
X5653400Y-13660438D02*
G75*
G03*
X5653400Y-13660438I-40000J0D01*
G01*
X5653400Y-13910438D02*
G75*
G03*
X5653400Y-13910438I-40000J0D01*
G01*
X6136000Y-8636000D02*
G75*
G03*
X6136000Y-8636000I-40000J0D01*
G01*
X6136000Y-9136000D02*
G75*
G03*
X6136000Y-9136000I-40000J0D01*
G01*
X6136000Y-9906000D02*
G75*
G03*
X6136000Y-9906000I-40000J0D01*
G01*
X6136000Y-10406000D02*
G75*
G03*
X6136000Y-10406000I-40000J0D01*
G01*
X6136000Y-11176000D02*
G75*
G03*
X6136000Y-11176000I-40000J0D01*
G01*
X6136000Y-11676000D02*
G75*
G03*
X6136000Y-11676000I-40000J0D01*
G01*
X6136000Y-12446000D02*
G75*
G03*
X6136000Y-12446000I-40000J0D01*
G01*
X6136000Y-12946000D02*
G75*
G03*
X6136000Y-12946000I-40000J0D01*
G01*
X6644000Y-8636000D02*
G75*
G03*
X6644000Y-8636000I-40000J0D01*
G01*
X6644000Y-9398000D02*
G75*
G03*
X6644000Y-9398000I-40000J0D01*
G01*
X6644000Y-9906000D02*
G75*
G03*
X6644000Y-9906000I-40000J0D01*
G01*
X6644000Y-10668000D02*
G75*
G03*
X6644000Y-10668000I-40000J0D01*
G01*
X6644000Y-11176000D02*
G75*
G03*
X6644000Y-11176000I-40000J0D01*
G01*
X6644000Y-11938000D02*
G75*
G03*
X6644000Y-11938000I-40000J0D01*
G01*
X6644000Y-12446000D02*
G75*
G03*
X6644000Y-12446000I-40000J0D01*
G01*
X6644000Y-13208000D02*
G75*
G03*
X6644000Y-13208000I-40000J0D01*
G01*
X6898000Y-8636000D02*
G75*
G03*
X6898000Y-8636000I-40000J0D01*
G01*
X6898000Y-9398000D02*
G75*
G03*
X6898000Y-9398000I-40000J0D01*
G01*
X6898000Y-9906000D02*
G75*
G03*
X6898000Y-9906000I-40000J0D01*
G01*
X6898000Y-10668000D02*
G75*
G03*
X6898000Y-10668000I-40000J0D01*
G01*
X6898000Y-11176000D02*
G75*
G03*
X6898000Y-11176000I-40000J0D01*
G01*
X6898000Y-11938000D02*
G75*
G03*
X6898000Y-11938000I-40000J0D01*
G01*
X6898000Y-12446000D02*
G75*
G03*
X6898000Y-12446000I-40000J0D01*
G01*
X6898000Y-13208000D02*
G75*
G03*
X6898000Y-13208000I-40000J0D01*
G01*
X7152000Y-8636000D02*
G75*
G03*
X7152000Y-8636000I-40000J0D01*
G01*
X7152000Y-9398000D02*
G75*
G03*
X7152000Y-9398000I-40000J0D01*
G01*
X7152000Y-9906000D02*
G75*
G03*
X7152000Y-9906000I-40000J0D01*
G01*
X7152000Y-10668000D02*
G75*
G03*
X7152000Y-10668000I-40000J0D01*
G01*
X7152000Y-11176000D02*
G75*
G03*
X7152000Y-11176000I-40000J0D01*
G01*
X7152000Y-11938000D02*
G75*
G03*
X7152000Y-11938000I-40000J0D01*
G01*
X7152000Y-12446000D02*
G75*
G03*
X7152000Y-12446000I-40000J0D01*
G01*
X7152000Y-13208000D02*
G75*
G03*
X7152000Y-13208000I-40000J0D01*
G01*
X7406000Y-8128000D02*
G75*
G03*
X7406000Y-8128000I-40000J0D01*
G01*
X7406000Y-8636000D02*
G75*
G03*
X7406000Y-8636000I-40000J0D01*
G01*
X7406000Y-9398000D02*
G75*
G03*
X7406000Y-9398000I-40000J0D01*
G01*
X7406000Y-9906000D02*
G75*
G03*
X7406000Y-9906000I-40000J0D01*
G01*
X7406000Y-10668000D02*
G75*
G03*
X7406000Y-10668000I-40000J0D01*
G01*
X7406000Y-11176000D02*
G75*
G03*
X7406000Y-11176000I-40000J0D01*
G01*
X7406000Y-11938000D02*
G75*
G03*
X7406000Y-11938000I-40000J0D01*
G01*
X7406000Y-12446000D02*
G75*
G03*
X7406000Y-12446000I-40000J0D01*
G01*
X7406000Y-13208000D02*
G75*
G03*
X7406000Y-13208000I-40000J0D01*
G01*
X7660000Y-8636000D02*
G75*
G03*
X7660000Y-8636000I-40000J0D01*
G01*
X7660000Y-9398000D02*
G75*
G03*
X7660000Y-9398000I-40000J0D01*
G01*
X7660000Y-9906000D02*
G75*
G03*
X7660000Y-9906000I-40000J0D01*
G01*
X7660000Y-10668000D02*
G75*
G03*
X7660000Y-10668000I-40000J0D01*
G01*
X7660000Y-11176000D02*
G75*
G03*
X7660000Y-11176000I-40000J0D01*
G01*
X7660000Y-11938000D02*
G75*
G03*
X7660000Y-11938000I-40000J0D01*
G01*
X7660000Y-12446000D02*
G75*
G03*
X7660000Y-12446000I-40000J0D01*
G01*
X7660000Y-13208000D02*
G75*
G03*
X7660000Y-13208000I-40000J0D01*
G01*
X7914000Y-8636000D02*
G75*
G03*
X7914000Y-8636000I-40000J0D01*
G01*
X7914000Y-9398000D02*
G75*
G03*
X7914000Y-9398000I-40000J0D01*
G01*
X7914000Y-9906000D02*
G75*
G03*
X7914000Y-9906000I-40000J0D01*
G01*
X7914000Y-10668000D02*
G75*
G03*
X7914000Y-10668000I-40000J0D01*
G01*
X7914000Y-11176000D02*
G75*
G03*
X7914000Y-11176000I-40000J0D01*
G01*
X7914000Y-11938000D02*
G75*
G03*
X7914000Y-11938000I-40000J0D01*
G01*
X7914000Y-12446000D02*
G75*
G03*
X7914000Y-12446000I-40000J0D01*
G01*
X7914000Y-13208000D02*
G75*
G03*
X7914000Y-13208000I-40000J0D01*
G01*
X8168000Y-8636000D02*
G75*
G03*
X8168000Y-8636000I-40000J0D01*
G01*
X8168000Y-9398000D02*
G75*
G03*
X8168000Y-9398000I-40000J0D01*
G01*
X8168000Y-9906000D02*
G75*
G03*
X8168000Y-9906000I-40000J0D01*
G01*
X8168000Y-10668000D02*
G75*
G03*
X8168000Y-10668000I-40000J0D01*
G01*
X8168000Y-11176000D02*
G75*
G03*
X8168000Y-11176000I-40000J0D01*
G01*
X8168000Y-11938000D02*
G75*
G03*
X8168000Y-11938000I-40000J0D01*
G01*
X8168000Y-12446000D02*
G75*
G03*
X8168000Y-12446000I-40000J0D01*
G01*
X8168000Y-13208000D02*
G75*
G03*
X8168000Y-13208000I-40000J0D01*
G01*
X8422000Y-8128000D02*
G75*
G03*
X8422000Y-8128000I-40000J0D01*
G01*
X8422000Y-9906000D02*
G75*
G03*
X8422000Y-9906000I-40000J0D01*
G01*
X8422000Y-10668000D02*
G75*
G03*
X8422000Y-10668000I-40000J0D01*
G01*
X8422000Y-11176000D02*
G75*
G03*
X8422000Y-11176000I-40000J0D01*
G01*
X8422000Y-11938000D02*
G75*
G03*
X8422000Y-11938000I-40000J0D01*
G01*
X8422000Y-12446000D02*
G75*
G03*
X8422000Y-12446000I-40000J0D01*
G01*
X8422000Y-13208000D02*
G75*
G03*
X8422000Y-13208000I-40000J0D01*
G01*
X8676000Y-9906000D02*
G75*
G03*
X8676000Y-9906000I-40000J0D01*
G01*
X8676000Y-10668000D02*
G75*
G03*
X8676000Y-10668000I-40000J0D01*
G01*
X8676000Y-11176000D02*
G75*
G03*
X8676000Y-11176000I-40000J0D01*
G01*
X8676000Y-11938000D02*
G75*
G03*
X8676000Y-11938000I-40000J0D01*
G01*
X8930000Y-9906000D02*
G75*
G03*
X8930000Y-9906000I-40000J0D01*
G01*
X8930000Y-10668000D02*
G75*
G03*
X8930000Y-10668000I-40000J0D01*
G01*
X8930000Y-11176000D02*
G75*
G03*
X8930000Y-11176000I-40000J0D01*
G01*
X8930000Y-11938000D02*
G75*
G03*
X8930000Y-11938000I-40000J0D01*
G01*
X9946000Y-8636000D02*
G75*
G03*
X9946000Y-8636000I-40000J0D01*
G01*
X9946000Y-9136000D02*
G75*
G03*
X9946000Y-9136000I-40000J0D01*
G01*
X10454000Y-8636000D02*
G75*
G03*
X10454000Y-8636000I-40000J0D01*
G01*
X10454000Y-9398000D02*
G75*
G03*
X10454000Y-9398000I-40000J0D01*
G01*
X10708000Y-8636000D02*
G75*
G03*
X10708000Y-8636000I-40000J0D01*
G01*
X10708000Y-9398000D02*
G75*
G03*
X10708000Y-9398000I-40000J0D01*
G01*
X10708000Y-11023600D02*
G75*
G03*
X10708000Y-11023600I-40000J0D01*
G01*
X10708000Y-12039600D02*
G75*
G03*
X10708000Y-12039600I-40000J0D01*
G01*
X10962000Y-8636000D02*
G75*
G03*
X10962000Y-8636000I-40000J0D01*
G01*
X10962000Y-9398000D02*
G75*
G03*
X10962000Y-9398000I-40000J0D01*
G01*
X11216000Y-8636000D02*
G75*
G03*
X11216000Y-8636000I-40000J0D01*
G01*
X11216000Y-9398000D02*
G75*
G03*
X11216000Y-9398000I-40000J0D01*
G01*
X11419200Y-7878000D02*
G75*
G03*
X11419200Y-7878000I-40000J0D01*
G01*
X11419200Y-8128000D02*
G75*
G03*
X11419200Y-8128000I-40000J0D01*
G01*
X11470000Y-8636000D02*
G75*
G03*
X11470000Y-8636000I-40000J0D01*
G01*
X11470000Y-9398000D02*
G75*
G03*
X11470000Y-9398000I-40000J0D01*
G01*
X11724000Y-8636000D02*
G75*
G03*
X11724000Y-8636000I-40000J0D01*
G01*
X11724000Y-9398000D02*
G75*
G03*
X11724000Y-9398000I-40000J0D01*
G01*
X11978000Y-8636000D02*
G75*
G03*
X11978000Y-8636000I-40000J0D01*
G01*
X11978000Y-9398000D02*
G75*
G03*
X11978000Y-9398000I-40000J0D01*
G01*
X12994000Y-8636000D02*
G75*
G03*
X12994000Y-8636000I-40000J0D01*
G01*
X12994000Y-9136000D02*
G75*
G03*
X12994000Y-9136000I-40000J0D01*
G01*
X12994000Y-11176000D02*
G75*
G03*
X12994000Y-11176000I-40000J0D01*
G01*
X12994000Y-11676000D02*
G75*
G03*
X12994000Y-11676000I-40000J0D01*
G01*
X13502000Y-8636000D02*
G75*
G03*
X13502000Y-8636000I-40000J0D01*
G01*
X13502000Y-9398000D02*
G75*
G03*
X13502000Y-9398000I-40000J0D01*
G01*
X13502000Y-10668000D02*
G75*
G03*
X13502000Y-10668000I-40000J0D01*
G01*
X13502000Y-11176000D02*
G75*
G03*
X13502000Y-11176000I-40000J0D01*
G01*
X13502000Y-11938000D02*
G75*
G03*
X13502000Y-11938000I-40000J0D01*
G01*
X13756000Y-8636000D02*
G75*
G03*
X13756000Y-8636000I-40000J0D01*
G01*
X13756000Y-9398000D02*
G75*
G03*
X13756000Y-9398000I-40000J0D01*
G01*
X13756000Y-10668000D02*
G75*
G03*
X13756000Y-10668000I-40000J0D01*
G01*
X13756000Y-11176000D02*
G75*
G03*
X13756000Y-11176000I-40000J0D01*
G01*
X13756000Y-11938000D02*
G75*
G03*
X13756000Y-11938000I-40000J0D01*
G01*
X14010000Y-8636000D02*
G75*
G03*
X14010000Y-8636000I-40000J0D01*
G01*
X14010000Y-9398000D02*
G75*
G03*
X14010000Y-9398000I-40000J0D01*
G01*
X14010000Y-10668000D02*
G75*
G03*
X14010000Y-10668000I-40000J0D01*
G01*
X14010000Y-11176000D02*
G75*
G03*
X14010000Y-11176000I-40000J0D01*
G01*
X14010000Y-11938000D02*
G75*
G03*
X14010000Y-11938000I-40000J0D01*
G01*
X14264000Y-8636000D02*
G75*
G03*
X14264000Y-8636000I-40000J0D01*
G01*
X14264000Y-9398000D02*
G75*
G03*
X14264000Y-9398000I-40000J0D01*
G01*
X14264000Y-10668000D02*
G75*
G03*
X14264000Y-10668000I-40000J0D01*
G01*
X14264000Y-11176000D02*
G75*
G03*
X14264000Y-11176000I-40000J0D01*
G01*
X14264000Y-11938000D02*
G75*
G03*
X14264000Y-11938000I-40000J0D01*
G01*
X14518000Y-8636000D02*
G75*
G03*
X14518000Y-8636000I-40000J0D01*
G01*
X14518000Y-9398000D02*
G75*
G03*
X14518000Y-9398000I-40000J0D01*
G01*
X14518000Y-10668000D02*
G75*
G03*
X14518000Y-10668000I-40000J0D01*
G01*
X14518000Y-11176000D02*
G75*
G03*
X14518000Y-11176000I-40000J0D01*
G01*
X14518000Y-11938000D02*
G75*
G03*
X14518000Y-11938000I-40000J0D01*
G01*
X14772000Y-8636000D02*
G75*
G03*
X14772000Y-8636000I-40000J0D01*
G01*
X14772000Y-9398000D02*
G75*
G03*
X14772000Y-9398000I-40000J0D01*
G01*
X14772000Y-11176000D02*
G75*
G03*
X14772000Y-11176000I-40000J0D01*
G01*
X14772000Y-11938000D02*
G75*
G03*
X14772000Y-11938000I-40000J0D01*
G01*
X14899000Y-5469000D02*
G75*
G03*
X14899000Y-5469000I-40000J0D01*
G01*
X14899000Y-5969000D02*
G75*
G03*
X14899000Y-5969000I-40000J0D01*
G01*
X15026000Y-8636000D02*
G75*
G03*
X15026000Y-8636000I-40000J0D01*
G01*
X15026000Y-9398000D02*
G75*
G03*
X15026000Y-9398000I-40000J0D01*
G01*
X15026000Y-11176000D02*
G75*
G03*
X15026000Y-11176000I-40000J0D01*
G01*
X15026000Y-11938000D02*
G75*
G03*
X15026000Y-11938000I-40000J0D01*
G01*
X15280000Y-5460500D02*
G75*
G03*
X15280000Y-5460500I-40000J0D01*
G01*
X15280000Y-5714500D02*
G75*
G03*
X15280000Y-5714500I-40000J0D01*
G01*
X15280000Y-5968500D02*
G75*
G03*
X15280000Y-5968500I-40000J0D01*
G01*
X15280000Y-6222500D02*
G75*
G03*
X15280000Y-6222500I-40000J0D01*
G01*
X15280000Y-6476500D02*
G75*
G03*
X15280000Y-6476500I-40000J0D01*
G01*
X15280000Y-6730500D02*
G75*
G03*
X15280000Y-6730500I-40000J0D01*
G01*
X15280000Y-6984500D02*
G75*
G03*
X15280000Y-6984500I-40000J0D01*
G01*
X15280000Y-11176000D02*
G75*
G03*
X15280000Y-11176000I-40000J0D01*
G01*
X15280000Y-11938000D02*
G75*
G03*
X15280000Y-11938000I-40000J0D01*
G01*
X16042000Y-5460500D02*
G75*
G03*
X16042000Y-5460500I-40000J0D01*
G01*
X16042000Y-5714500D02*
G75*
G03*
X16042000Y-5714500I-40000J0D01*
G01*
X16042000Y-5968500D02*
G75*
G03*
X16042000Y-5968500I-40000J0D01*
G01*
X16042000Y-6222500D02*
G75*
G03*
X16042000Y-6222500I-40000J0D01*
G01*
X16042000Y-6476500D02*
G75*
G03*
X16042000Y-6476500I-40000J0D01*
G01*
X16042000Y-6730500D02*
G75*
G03*
X16042000Y-6730500I-40000J0D01*
G01*
X16042000Y-6984500D02*
G75*
G03*
X16042000Y-6984500I-40000J0D01*
G01*
X18066000Y-7366000D02*
G75*
G03*
X18066000Y-7366000I-40000J0D01*
G01*
X18066000Y-7866000D02*
G75*
G03*
X18066000Y-7866000I-40000J0D01*
G01*
X18066000Y-8636000D02*
G75*
G03*
X18066000Y-8636000I-40000J0D01*
G01*
X18066000Y-9136000D02*
G75*
G03*
X18066000Y-9136000I-40000J0D01*
G01*
X18074000Y-9906000D02*
G75*
G03*
X18074000Y-9906000I-40000J0D01*
G01*
X18074000Y-10406000D02*
G75*
G03*
X18074000Y-10406000I-40000J0D01*
G01*
X18074000Y-11176000D02*
G75*
G03*
X18074000Y-11176000I-40000J0D01*
G01*
X18074000Y-11676000D02*
G75*
G03*
X18074000Y-11676000I-40000J0D01*
G01*
X18582000Y-7366000D02*
G75*
G03*
X18582000Y-7366000I-40000J0D01*
G01*
X18582000Y-8128000D02*
G75*
G03*
X18582000Y-8128000I-40000J0D01*
G01*
X18582000Y-8636000D02*
G75*
G03*
X18582000Y-8636000I-40000J0D01*
G01*
X18582000Y-9398000D02*
G75*
G03*
X18582000Y-9398000I-40000J0D01*
G01*
X18582000Y-9906000D02*
G75*
G03*
X18582000Y-9906000I-40000J0D01*
G01*
X18582000Y-10668000D02*
G75*
G03*
X18582000Y-10668000I-40000J0D01*
G01*
X18582000Y-11176000D02*
G75*
G03*
X18582000Y-11176000I-40000J0D01*
G01*
X18582000Y-11938000D02*
G75*
G03*
X18582000Y-11938000I-40000J0D01*
G01*
X18709000Y-5334000D02*
G75*
G03*
X18709000Y-5334000I-40000J0D01*
G01*
X18709000Y-6350000D02*
G75*
G03*
X18709000Y-6350000I-40000J0D01*
G01*
X18836000Y-7366000D02*
G75*
G03*
X18836000Y-7366000I-40000J0D01*
G01*
X18836000Y-8128000D02*
G75*
G03*
X18836000Y-8128000I-40000J0D01*
G01*
X18836000Y-8636000D02*
G75*
G03*
X18836000Y-8636000I-40000J0D01*
G01*
X18836000Y-9398000D02*
G75*
G03*
X18836000Y-9398000I-40000J0D01*
G01*
X18836000Y-9906000D02*
G75*
G03*
X18836000Y-9906000I-40000J0D01*
G01*
X18836000Y-10668000D02*
G75*
G03*
X18836000Y-10668000I-40000J0D01*
G01*
X18836000Y-11176000D02*
G75*
G03*
X18836000Y-11176000I-40000J0D01*
G01*
X18836000Y-11938000D02*
G75*
G03*
X18836000Y-11938000I-40000J0D01*
G01*
X19090000Y-7366000D02*
G75*
G03*
X19090000Y-7366000I-40000J0D01*
G01*
X19090000Y-8128000D02*
G75*
G03*
X19090000Y-8128000I-40000J0D01*
G01*
X19090000Y-8636000D02*
G75*
G03*
X19090000Y-8636000I-40000J0D01*
G01*
X19090000Y-9398000D02*
G75*
G03*
X19090000Y-9398000I-40000J0D01*
G01*
X19090000Y-9906000D02*
G75*
G03*
X19090000Y-9906000I-40000J0D01*
G01*
X19090000Y-10668000D02*
G75*
G03*
X19090000Y-10668000I-40000J0D01*
G01*
X19090000Y-11176000D02*
G75*
G03*
X19090000Y-11176000I-40000J0D01*
G01*
X19090000Y-11938000D02*
G75*
G03*
X19090000Y-11938000I-40000J0D01*
G01*
X19217000Y-5334000D02*
G75*
G03*
X19217000Y-5334000I-40000J0D01*
G01*
X19217000Y-6350000D02*
G75*
G03*
X19217000Y-6350000I-40000J0D01*
G01*
X19344000Y-7366000D02*
G75*
G03*
X19344000Y-7366000I-40000J0D01*
G01*
X19344000Y-8128000D02*
G75*
G03*
X19344000Y-8128000I-40000J0D01*
G01*
X19344000Y-8636000D02*
G75*
G03*
X19344000Y-8636000I-40000J0D01*
G01*
X19344000Y-9398000D02*
G75*
G03*
X19344000Y-9398000I-40000J0D01*
G01*
X19344000Y-9906000D02*
G75*
G03*
X19344000Y-9906000I-40000J0D01*
G01*
X19344000Y-10668000D02*
G75*
G03*
X19344000Y-10668000I-40000J0D01*
G01*
X19344000Y-11176000D02*
G75*
G03*
X19344000Y-11176000I-40000J0D01*
G01*
X19344000Y-11938000D02*
G75*
G03*
X19344000Y-11938000I-40000J0D01*
G01*
X19598000Y-7366000D02*
G75*
G03*
X19598000Y-7366000I-40000J0D01*
G01*
X19598000Y-8128000D02*
G75*
G03*
X19598000Y-8128000I-40000J0D01*
G01*
X19598000Y-8636000D02*
G75*
G03*
X19598000Y-8636000I-40000J0D01*
G01*
X19598000Y-9398000D02*
G75*
G03*
X19598000Y-9398000I-40000J0D01*
G01*
X19598000Y-9906000D02*
G75*
G03*
X19598000Y-9906000I-40000J0D01*
G01*
X19598000Y-10668000D02*
G75*
G03*
X19598000Y-10668000I-40000J0D01*
G01*
X19598000Y-11176000D02*
G75*
G03*
X19598000Y-11176000I-40000J0D01*
G01*
X19598000Y-11938000D02*
G75*
G03*
X19598000Y-11938000I-40000J0D01*
G01*
X19725000Y-5334000D02*
G75*
G03*
X19725000Y-5334000I-40000J0D01*
G01*
X19725000Y-6350000D02*
G75*
G03*
X19725000Y-6350000I-40000J0D01*
G01*
X19852000Y-7366000D02*
G75*
G03*
X19852000Y-7366000I-40000J0D01*
G01*
X19852000Y-8128000D02*
G75*
G03*
X19852000Y-8128000I-40000J0D01*
G01*
X19852000Y-8636000D02*
G75*
G03*
X19852000Y-8636000I-40000J0D01*
G01*
X19852000Y-9398000D02*
G75*
G03*
X19852000Y-9398000I-40000J0D01*
G01*
X19852000Y-9906000D02*
G75*
G03*
X19852000Y-9906000I-40000J0D01*
G01*
X19852000Y-10668000D02*
G75*
G03*
X19852000Y-10668000I-40000J0D01*
G01*
X19852000Y-11176000D02*
G75*
G03*
X19852000Y-11176000I-40000J0D01*
G01*
X19852000Y-11938000D02*
G75*
G03*
X19852000Y-11938000I-40000J0D01*
G01*
X20106000Y-7366000D02*
G75*
G03*
X20106000Y-7366000I-40000J0D01*
G01*
X20106000Y-8128000D02*
G75*
G03*
X20106000Y-8128000I-40000J0D01*
G01*
X20106000Y-8636000D02*
G75*
G03*
X20106000Y-8636000I-40000J0D01*
G01*
X20106000Y-9398000D02*
G75*
G03*
X20106000Y-9398000I-40000J0D01*
G01*
X20106000Y-9906000D02*
G75*
G03*
X20106000Y-9906000I-40000J0D01*
G01*
X20106000Y-10668000D02*
G75*
G03*
X20106000Y-10668000I-40000J0D01*
G01*
X20106000Y-11176000D02*
G75*
G03*
X20106000Y-11176000I-40000J0D01*
G01*
X20106000Y-11938000D02*
G75*
G03*
X20106000Y-11938000I-40000J0D01*
G01*
X20360000Y-7366000D02*
G75*
G03*
X20360000Y-7366000I-40000J0D01*
G01*
X20360000Y-8128000D02*
G75*
G03*
X20360000Y-8128000I-40000J0D01*
G01*
X20360000Y-8636000D02*
G75*
G03*
X20360000Y-8636000I-40000J0D01*
G01*
X20360000Y-9398000D02*
G75*
G03*
X20360000Y-9398000I-40000J0D01*
G01*
X20360000Y-9906000D02*
G75*
G03*
X20360000Y-9906000I-40000J0D01*
G01*
X20360000Y-10668000D02*
G75*
G03*
X20360000Y-10668000I-40000J0D01*
G01*
X20360000Y-11176000D02*
G75*
G03*
X20360000Y-11176000I-40000J0D01*
G01*
X20360000Y-11938000D02*
G75*
G03*
X20360000Y-11938000I-40000J0D01*
G01*
X20614000Y-7366000D02*
G75*
G03*
X20614000Y-7366000I-40000J0D01*
G01*
X20614000Y-8128000D02*
G75*
G03*
X20614000Y-8128000I-40000J0D01*
G01*
X20614000Y-8636000D02*
G75*
G03*
X20614000Y-8636000I-40000J0D01*
G01*
X20614000Y-9398000D02*
G75*
G03*
X20614000Y-9398000I-40000J0D01*
G01*
X20614000Y-9906000D02*
G75*
G03*
X20614000Y-9906000I-40000J0D01*
G01*
X20614000Y-10668000D02*
G75*
G03*
X20614000Y-10668000I-40000J0D01*
G01*
X20614000Y-11176000D02*
G75*
G03*
X20614000Y-11176000I-40000J0D01*
G01*
X20614000Y-11938000D02*
G75*
G03*
X20614000Y-11938000I-40000J0D01*
G01*
X20868000Y-7366000D02*
G75*
G03*
X20868000Y-7366000I-40000J0D01*
G01*
X20868000Y-8128000D02*
G75*
G03*
X20868000Y-8128000I-40000J0D01*
G01*
X20868000Y-8636000D02*
G75*
G03*
X20868000Y-8636000I-40000J0D01*
G01*
X20868000Y-9398000D02*
G75*
G03*
X20868000Y-9398000I-40000J0D01*
G01*
X20868000Y-9906000D02*
G75*
G03*
X20868000Y-9906000I-40000J0D01*
G01*
X20868000Y-10668000D02*
G75*
G03*
X20868000Y-10668000I-40000J0D01*
G01*
X20868000Y-11176000D02*
G75*
G03*
X20868000Y-11176000I-40000J0D01*
G01*
X20868000Y-11938000D02*
G75*
G03*
X20868000Y-11938000I-40000J0D01*
G01*
X21376000Y-12192000D02*
G75*
G03*
X21376000Y-12192000I-40000J0D01*
G01*
X21626000Y-12192000D02*
G75*
G03*
X21626000Y-12192000I-40000J0D01*
G01*
X21876000Y-9906000D02*
G75*
G03*
X21876000Y-9906000I-40000J0D01*
G01*
X21876000Y-10406000D02*
G75*
G03*
X21876000Y-10406000I-40000J0D01*
G01*
X21876000Y-11176000D02*
G75*
G03*
X21876000Y-11176000I-40000J0D01*
G01*
X21876000Y-11676000D02*
G75*
G03*
X21876000Y-11676000I-40000J0D01*
G01*
X21884000Y-7366000D02*
G75*
G03*
X21884000Y-7366000I-40000J0D01*
G01*
X21884000Y-7866000D02*
G75*
G03*
X21884000Y-7866000I-40000J0D01*
G01*
X21884000Y-8636000D02*
G75*
G03*
X21884000Y-8636000I-40000J0D01*
G01*
X21884000Y-9136000D02*
G75*
G03*
X21884000Y-9136000I-40000J0D01*
G01*
X22392000Y-7366000D02*
G75*
G03*
X22392000Y-7366000I-40000J0D01*
G01*
X22392000Y-8128000D02*
G75*
G03*
X22392000Y-8128000I-40000J0D01*
G01*
X22392000Y-8636000D02*
G75*
G03*
X22392000Y-8636000I-40000J0D01*
G01*
X22392000Y-9398000D02*
G75*
G03*
X22392000Y-9398000I-40000J0D01*
G01*
X22392000Y-9906000D02*
G75*
G03*
X22392000Y-9906000I-40000J0D01*
G01*
X22392000Y-10668000D02*
G75*
G03*
X22392000Y-10668000I-40000J0D01*
G01*
X22392000Y-11176000D02*
G75*
G03*
X22392000Y-11176000I-40000J0D01*
G01*
X22392000Y-11938000D02*
G75*
G03*
X22392000Y-11938000I-40000J0D01*
G01*
X22646000Y-7366000D02*
G75*
G03*
X22646000Y-7366000I-40000J0D01*
G01*
X22646000Y-8128000D02*
G75*
G03*
X22646000Y-8128000I-40000J0D01*
G01*
X22646000Y-8636000D02*
G75*
G03*
X22646000Y-8636000I-40000J0D01*
G01*
X22646000Y-9398000D02*
G75*
G03*
X22646000Y-9398000I-40000J0D01*
G01*
X22646000Y-9906000D02*
G75*
G03*
X22646000Y-9906000I-40000J0D01*
G01*
X22646000Y-10668000D02*
G75*
G03*
X22646000Y-10668000I-40000J0D01*
G01*
X22646000Y-11176000D02*
G75*
G03*
X22646000Y-11176000I-40000J0D01*
G01*
X22646000Y-11938000D02*
G75*
G03*
X22646000Y-11938000I-40000J0D01*
G01*
X22900000Y-7366000D02*
G75*
G03*
X22900000Y-7366000I-40000J0D01*
G01*
X22900000Y-8128000D02*
G75*
G03*
X22900000Y-8128000I-40000J0D01*
G01*
X22900000Y-8636000D02*
G75*
G03*
X22900000Y-8636000I-40000J0D01*
G01*
X22900000Y-9398000D02*
G75*
G03*
X22900000Y-9398000I-40000J0D01*
G01*
X22900000Y-9906000D02*
G75*
G03*
X22900000Y-9906000I-40000J0D01*
G01*
X22900000Y-10668000D02*
G75*
G03*
X22900000Y-10668000I-40000J0D01*
G01*
X22900000Y-11176000D02*
G75*
G03*
X22900000Y-11176000I-40000J0D01*
G01*
X22900000Y-11938000D02*
G75*
G03*
X22900000Y-11938000I-40000J0D01*
G01*
X23154000Y-7366000D02*
G75*
G03*
X23154000Y-7366000I-40000J0D01*
G01*
X23154000Y-8128000D02*
G75*
G03*
X23154000Y-8128000I-40000J0D01*
G01*
X23154000Y-8636000D02*
G75*
G03*
X23154000Y-8636000I-40000J0D01*
G01*
X23154000Y-9398000D02*
G75*
G03*
X23154000Y-9398000I-40000J0D01*
G01*
X23154000Y-9906000D02*
G75*
G03*
X23154000Y-9906000I-40000J0D01*
G01*
X23154000Y-10668000D02*
G75*
G03*
X23154000Y-10668000I-40000J0D01*
G01*
X23154000Y-11176000D02*
G75*
G03*
X23154000Y-11176000I-40000J0D01*
G01*
X23154000Y-11938000D02*
G75*
G03*
X23154000Y-11938000I-40000J0D01*
G01*
X23408000Y-7366000D02*
G75*
G03*
X23408000Y-7366000I-40000J0D01*
G01*
X23408000Y-8128000D02*
G75*
G03*
X23408000Y-8128000I-40000J0D01*
G01*
X23408000Y-8636000D02*
G75*
G03*
X23408000Y-8636000I-40000J0D01*
G01*
X23408000Y-9398000D02*
G75*
G03*
X23408000Y-9398000I-40000J0D01*
G01*
X23408000Y-9906000D02*
G75*
G03*
X23408000Y-9906000I-40000J0D01*
G01*
X23408000Y-10668000D02*
G75*
G03*
X23408000Y-10668000I-40000J0D01*
G01*
X23408000Y-11176000D02*
G75*
G03*
X23408000Y-11176000I-40000J0D01*
G01*
X23408000Y-11938000D02*
G75*
G03*
X23408000Y-11938000I-40000J0D01*
G01*
X23662000Y-7366000D02*
G75*
G03*
X23662000Y-7366000I-40000J0D01*
G01*
X23662000Y-8128000D02*
G75*
G03*
X23662000Y-8128000I-40000J0D01*
G01*
X23662000Y-8636000D02*
G75*
G03*
X23662000Y-8636000I-40000J0D01*
G01*
X23662000Y-9398000D02*
G75*
G03*
X23662000Y-9398000I-40000J0D01*
G01*
X23662000Y-9906000D02*
G75*
G03*
X23662000Y-9906000I-40000J0D01*
G01*
X23662000Y-10668000D02*
G75*
G03*
X23662000Y-10668000I-40000J0D01*
G01*
X23662000Y-11176000D02*
G75*
G03*
X23662000Y-11176000I-40000J0D01*
G01*
X23662000Y-11938000D02*
G75*
G03*
X23662000Y-11938000I-40000J0D01*
G01*
X23916000Y-7366000D02*
G75*
G03*
X23916000Y-7366000I-40000J0D01*
G01*
X23916000Y-8128000D02*
G75*
G03*
X23916000Y-8128000I-40000J0D01*
G01*
X23916000Y-8636000D02*
G75*
G03*
X23916000Y-8636000I-40000J0D01*
G01*
X23916000Y-9398000D02*
G75*
G03*
X23916000Y-9398000I-40000J0D01*
G01*
X23916000Y-9906000D02*
G75*
G03*
X23916000Y-9906000I-40000J0D01*
G01*
X23916000Y-10668000D02*
G75*
G03*
X23916000Y-10668000I-40000J0D01*
G01*
X23916000Y-11176000D02*
G75*
G03*
X23916000Y-11176000I-40000J0D01*
G01*
X23916000Y-11938000D02*
G75*
G03*
X23916000Y-11938000I-40000J0D01*
G01*
X24170000Y-7366000D02*
G75*
G03*
X24170000Y-7366000I-40000J0D01*
G01*
X24170000Y-8128000D02*
G75*
G03*
X24170000Y-8128000I-40000J0D01*
G01*
X24170000Y-8636000D02*
G75*
G03*
X24170000Y-8636000I-40000J0D01*
G01*
X24170000Y-9398000D02*
G75*
G03*
X24170000Y-9398000I-40000J0D01*
G01*
X24170000Y-9906000D02*
G75*
G03*
X24170000Y-9906000I-40000J0D01*
G01*
X24170000Y-10668000D02*
G75*
G03*
X24170000Y-10668000I-40000J0D01*
G01*
X24170000Y-11176000D02*
G75*
G03*
X24170000Y-11176000I-40000J0D01*
G01*
X24170000Y-11938000D02*
G75*
G03*
X24170000Y-11938000I-40000J0D01*
G01*
X24424000Y-7366000D02*
G75*
G03*
X24424000Y-7366000I-40000J0D01*
G01*
X24424000Y-8128000D02*
G75*
G03*
X24424000Y-8128000I-40000J0D01*
G01*
X24424000Y-8636000D02*
G75*
G03*
X24424000Y-8636000I-40000J0D01*
G01*
X24424000Y-9398000D02*
G75*
G03*
X24424000Y-9398000I-40000J0D01*
G01*
X24424000Y-9906000D02*
G75*
G03*
X24424000Y-9906000I-40000J0D01*
G01*
X24424000Y-10668000D02*
G75*
G03*
X24424000Y-10668000I-40000J0D01*
G01*
X24424000Y-11176000D02*
G75*
G03*
X24424000Y-11176000I-40000J0D01*
G01*
X24424000Y-11938000D02*
G75*
G03*
X24424000Y-11938000I-40000J0D01*
G01*
X24678000Y-7366000D02*
G75*
G03*
X24678000Y-7366000I-40000J0D01*
G01*
X24678000Y-8128000D02*
G75*
G03*
X24678000Y-8128000I-40000J0D01*
G01*
X24678000Y-8636000D02*
G75*
G03*
X24678000Y-8636000I-40000J0D01*
G01*
X24678000Y-9398000D02*
G75*
G03*
X24678000Y-9398000I-40000J0D01*
G01*
X24678000Y-9906000D02*
G75*
G03*
X24678000Y-9906000I-40000J0D01*
G01*
X24678000Y-10668000D02*
G75*
G03*
X24678000Y-10668000I-40000J0D01*
G01*
X24678000Y-11176000D02*
G75*
G03*
X24678000Y-11176000I-40000J0D01*
G01*
X24678000Y-11938000D02*
G75*
G03*
X24678000Y-11938000I-40000J0D01*
G01*
D14*
X16662400Y-6305000D02*
X16662400Y-6395000D01*
X16617400Y-6350000D02*
X16707400Y-6350000D01*
X16916400Y-6305000D02*
X16916400Y-6395000D01*
X16871400Y-6350000D02*
X16961400Y-6350000D01*
X17297400Y-6305000D02*
X17297400Y-6395000D01*
X17252400Y-6350000D02*
X17342400Y-6350000D01*
X17551400Y-6305000D02*
X17551400Y-6395000D01*
X17506400Y-6350000D02*
X17596400Y-6350000D01*
X17932400Y-6305000D02*
X17932400Y-6395000D01*
X17887400Y-6350000D02*
X17977400Y-6350000D01*
X18186400Y-6305000D02*
X18186400Y-6395000D01*
X18141400Y-6350000D02*
X18231400Y-6350000D01*
D10*
X5877356Y-6131356D02*
X5877356Y-6060644D01*
X5806644Y-6060644D01*
X5806644Y-6131356D01*
X5877356Y-6131356D01*
X6131356Y-6131356D02*
X6131356Y-6060644D01*
X6060644Y-6060644D01*
X6060644Y-6131356D01*
X6131356Y-6131356D01*
X6131356Y-7147356D02*
X6131356Y-7076644D01*
X6060644Y-7076644D01*
X6060644Y-7147356D01*
X6131356Y-7147356D01*
X6131356Y-7401356D02*
X6131356Y-7330644D01*
X6060644Y-7330644D01*
X6060644Y-7401356D01*
X6131356Y-7401356D01*
X6131356Y-7655356D02*
X6131356Y-7584644D01*
X6060644Y-7584644D01*
X6060644Y-7655356D01*
X6131356Y-7655356D01*
X6131356Y-7909356D02*
X6131356Y-7838644D01*
X6060644Y-7838644D01*
X6060644Y-7909356D01*
X6131356Y-7909356D01*
X6131356Y-14513356D02*
X6131356Y-14442644D01*
X6060644Y-14442644D01*
X6060644Y-14513356D01*
X6131356Y-14513356D01*
X6385356Y-6131356D02*
X6385356Y-6060644D01*
X6314644Y-6060644D01*
X6314644Y-6131356D01*
X6385356Y-6131356D01*
X6385356Y-14513356D02*
X6385356Y-14442644D01*
X6314644Y-14442644D01*
X6314644Y-14513356D01*
X6385356Y-14513356D01*
X6639356Y-6131356D02*
X6639356Y-6060644D01*
X6568644Y-6060644D01*
X6568644Y-6131356D01*
X6639356Y-6131356D01*
X6639356Y-14513356D02*
X6639356Y-14442644D01*
X6568644Y-14442644D01*
X6568644Y-14513356D01*
X6639356Y-14513356D01*
X6893356Y-6131356D02*
X6893356Y-6060644D01*
X6822644Y-6060644D01*
X6822644Y-6131356D01*
X6893356Y-6131356D01*
X6893356Y-14513356D02*
X6893356Y-14442644D01*
X6822644Y-14442644D01*
X6822644Y-14513356D01*
X6893356Y-14513356D01*
X7147356Y-6131356D02*
X7147356Y-6060644D01*
X7076644Y-6060644D01*
X7076644Y-6131356D01*
X7147356Y-6131356D01*
X7147356Y-14513356D02*
X7147356Y-14442644D01*
X7076644Y-14442644D01*
X7076644Y-14513356D01*
X7147356Y-14513356D01*
X7401356Y-6131356D02*
X7401356Y-6060644D01*
X7330644Y-6060644D01*
X7330644Y-6131356D01*
X7401356Y-6131356D01*
X7401356Y-14513356D02*
X7401356Y-14442644D01*
X7330644Y-14442644D01*
X7330644Y-14513356D01*
X7401356Y-14513356D01*
X7655356Y-14513356D02*
X7655356Y-14442644D01*
X7584644Y-14442644D01*
X7584644Y-14513356D01*
X7655356Y-14513356D01*
X7909356Y-14513356D02*
X7909356Y-14442644D01*
X7838644Y-14442644D01*
X7838644Y-14513356D01*
X7909356Y-14513356D01*
X8163356Y-14513356D02*
X8163356Y-14442644D01*
X8092644Y-14442644D01*
X8092644Y-14513356D01*
X8163356Y-14513356D01*
X8417356Y-14513356D02*
X8417356Y-14442644D01*
X8346644Y-14442644D01*
X8346644Y-14513356D01*
X8417356Y-14513356D01*
X8671356Y-14513356D02*
X8671356Y-14442644D01*
X8600644Y-14442644D01*
X8600644Y-14513356D01*
X8671356Y-14513356D01*
X8925356Y-14513356D02*
X8925356Y-14442644D01*
X8854644Y-14442644D01*
X8854644Y-14513356D01*
X8925356Y-14513356D01*
X9179356Y-14513356D02*
X9179356Y-14442644D01*
X9108644Y-14442644D01*
X9108644Y-14513356D01*
X9179356Y-14513356D01*
X9433356Y-14513356D02*
X9433356Y-14442644D01*
X9362644Y-14442644D01*
X9362644Y-14513356D01*
X9433356Y-14513356D01*
X10195356Y-14513356D02*
X10195356Y-14442644D01*
X10124644Y-14442644D01*
X10124644Y-14513356D01*
X10195356Y-14513356D01*
X10449356Y-9941356D02*
X10449356Y-9870644D01*
X10378644Y-9870644D01*
X10378644Y-9941356D01*
X10449356Y-9941356D01*
X10449356Y-10195356D02*
X10449356Y-10124644D01*
X10378644Y-10124644D01*
X10378644Y-10195356D01*
X10449356Y-10195356D01*
X10449356Y-10449356D02*
X10449356Y-10378644D01*
X10378644Y-10378644D01*
X10378644Y-10449356D01*
X10449356Y-10449356D01*
X10449356Y-14513356D02*
X10449356Y-14442644D01*
X10378644Y-14442644D01*
X10378644Y-14513356D01*
X10449356Y-14513356D01*
X10703356Y-6131356D02*
X10703356Y-6060644D01*
X10632644Y-6060644D01*
X10632644Y-6131356D01*
X10703356Y-6131356D01*
X10703356Y-14513356D02*
X10703356Y-14442644D01*
X10632644Y-14442644D01*
X10632644Y-14513356D01*
X10703356Y-14513356D01*
X10957356Y-6131356D02*
X10957356Y-6060644D01*
X10886644Y-6060644D01*
X10886644Y-6131356D01*
X10957356Y-6131356D01*
X10957356Y-10195356D02*
X10957356Y-10124644D01*
X10886644Y-10124644D01*
X10886644Y-10195356D01*
X10957356Y-10195356D01*
X10957356Y-10449356D02*
X10957356Y-10378644D01*
X10886644Y-10378644D01*
X10886644Y-10449356D01*
X10957356Y-10449356D01*
X10957356Y-14513356D02*
X10957356Y-14442644D01*
X10886644Y-14442644D01*
X10886644Y-14513356D01*
X10957356Y-14513356D01*
X11211356Y-6131356D02*
X11211356Y-6060644D01*
X11140644Y-6060644D01*
X11140644Y-6131356D01*
X11211356Y-6131356D01*
X11211356Y-14513356D02*
X11211356Y-14442644D01*
X11140644Y-14442644D01*
X11140644Y-14513356D01*
X11211356Y-14513356D01*
X11465356Y-6131356D02*
X11465356Y-6060644D01*
X11394644Y-6060644D01*
X11394644Y-6131356D01*
X11465356Y-6131356D01*
X11465356Y-10195356D02*
X11465356Y-10124644D01*
X11394644Y-10124644D01*
X11394644Y-10195356D01*
X11465356Y-10195356D01*
X11465356Y-10449356D02*
X11465356Y-10378644D01*
X11394644Y-10378644D01*
X11394644Y-10449356D01*
X11465356Y-10449356D01*
X11465356Y-14513356D02*
X11465356Y-14442644D01*
X11394644Y-14442644D01*
X11394644Y-14513356D01*
X11465356Y-14513356D01*
X11719356Y-6131356D02*
X11719356Y-6060644D01*
X11648644Y-6060644D01*
X11648644Y-6131356D01*
X11719356Y-6131356D01*
X11719356Y-10195356D02*
X11719356Y-10124644D01*
X11648644Y-10124644D01*
X11648644Y-10195356D01*
X11719356Y-10195356D01*
X11719356Y-10449356D02*
X11719356Y-10378644D01*
X11648644Y-10378644D01*
X11648644Y-10449356D01*
X11719356Y-10449356D01*
X11719356Y-14513356D02*
X11719356Y-14442644D01*
X11648644Y-14442644D01*
X11648644Y-14513356D01*
X11719356Y-14513356D01*
X11973356Y-6131356D02*
X11973356Y-6060644D01*
X11902644Y-6060644D01*
X11902644Y-6131356D01*
X11973356Y-6131356D01*
X11973356Y-10195356D02*
X11973356Y-10124644D01*
X11902644Y-10124644D01*
X11902644Y-10195356D01*
X11973356Y-10195356D01*
X11973356Y-10449356D02*
X11973356Y-10378644D01*
X11902644Y-10378644D01*
X11902644Y-10449356D01*
X11973356Y-10449356D01*
X11973356Y-14513356D02*
X11973356Y-14442644D01*
X11902644Y-14442644D01*
X11902644Y-14513356D01*
X11973356Y-14513356D01*
X12227356Y-6131356D02*
X12227356Y-6060644D01*
X12156644Y-6060644D01*
X12156644Y-6131356D01*
X12227356Y-6131356D01*
X12227356Y-10195356D02*
X12227356Y-10124644D01*
X12156644Y-10124644D01*
X12156644Y-10195356D01*
X12227356Y-10195356D01*
X12227356Y-10449356D02*
X12227356Y-10378644D01*
X12156644Y-10378644D01*
X12156644Y-10449356D01*
X12227356Y-10449356D01*
X12227356Y-14513356D02*
X12227356Y-14442644D01*
X12156644Y-14442644D01*
X12156644Y-14513356D01*
X12227356Y-14513356D01*
X12481356Y-6131356D02*
X12481356Y-6060644D01*
X12410644Y-6060644D01*
X12410644Y-6131356D01*
X12481356Y-6131356D01*
X12481356Y-10195356D02*
X12481356Y-10124644D01*
X12410644Y-10124644D01*
X12410644Y-10195356D01*
X12481356Y-10195356D01*
X12481356Y-10449356D02*
X12481356Y-10378644D01*
X12410644Y-10378644D01*
X12410644Y-10449356D01*
X12481356Y-10449356D01*
X12481356Y-14513356D02*
X12481356Y-14442644D01*
X12410644Y-14442644D01*
X12410644Y-14513356D01*
X12481356Y-14513356D01*
X12735356Y-6131356D02*
X12735356Y-6060644D01*
X12664644Y-6060644D01*
X12664644Y-6131356D01*
X12735356Y-6131356D01*
X12735356Y-10195356D02*
X12735356Y-10124644D01*
X12664644Y-10124644D01*
X12664644Y-10195356D01*
X12735356Y-10195356D01*
X12735356Y-10449356D02*
X12735356Y-10378644D01*
X12664644Y-10378644D01*
X12664644Y-10449356D01*
X12735356Y-10449356D01*
X12735356Y-14513356D02*
X12735356Y-14442644D01*
X12664644Y-14442644D01*
X12664644Y-14513356D01*
X12735356Y-14513356D01*
X12989356Y-6131356D02*
X12989356Y-6060644D01*
X12918644Y-6060644D01*
X12918644Y-6131356D01*
X12989356Y-6131356D01*
X12989356Y-14513356D02*
X12989356Y-14442644D01*
X12918644Y-14442644D01*
X12918644Y-14513356D01*
X12989356Y-14513356D01*
X13243356Y-6131356D02*
X13243356Y-6060644D01*
X13172644Y-6060644D01*
X13172644Y-6131356D01*
X13243356Y-6131356D01*
X13243356Y-14513356D02*
X13243356Y-14442644D01*
X13172644Y-14442644D01*
X13172644Y-14513356D01*
X13243356Y-14513356D01*
X13497356Y-6131356D02*
X13497356Y-6060644D01*
X13426644Y-6060644D01*
X13426644Y-6131356D01*
X13497356Y-6131356D01*
X13497356Y-14513356D02*
X13497356Y-14442644D01*
X13426644Y-14442644D01*
X13426644Y-14513356D01*
X13497356Y-14513356D01*
X13751356Y-6131356D02*
X13751356Y-6060644D01*
X13680644Y-6060644D01*
X13680644Y-6131356D01*
X13751356Y-6131356D01*
X13751356Y-14513356D02*
X13751356Y-14442644D01*
X13680644Y-14442644D01*
X13680644Y-14513356D01*
X13751356Y-14513356D01*
X14005356Y-6131356D02*
X14005356Y-6060644D01*
X13934644Y-6060644D01*
X13934644Y-6131356D01*
X14005356Y-6131356D01*
X14005356Y-14513356D02*
X14005356Y-14442644D01*
X13934644Y-14442644D01*
X13934644Y-14513356D01*
X14005356Y-14513356D01*
X14259356Y-6131356D02*
X14259356Y-6060644D01*
X14188644Y-6060644D01*
X14188644Y-6131356D01*
X14259356Y-6131356D01*
X14513356Y-6131356D02*
X14513356Y-6060644D01*
X14442644Y-6060644D01*
X14442644Y-6131356D01*
X14513356Y-6131356D01*
X16545356Y-14513356D02*
X16545356Y-14442644D01*
X16474644Y-14442644D01*
X16474644Y-14513356D01*
X16545356Y-14513356D01*
X16799356Y-14513356D02*
X16799356Y-14442644D01*
X16728644Y-14442644D01*
X16728644Y-14513356D01*
X16799356Y-14513356D01*
X17053356Y-14513356D02*
X17053356Y-14442644D01*
X16982644Y-14442644D01*
X16982644Y-14513356D01*
X17053356Y-14513356D01*
X17307356Y-14513356D02*
X17307356Y-14442644D01*
X17236644Y-14442644D01*
X17236644Y-14513356D01*
X17307356Y-14513356D01*
X17561356Y-14513356D02*
X17561356Y-14442644D01*
X17490644Y-14442644D01*
X17490644Y-14513356D01*
X17561356Y-14513356D01*
X17815356Y-14513356D02*
X17815356Y-14442644D01*
X17744644Y-14442644D01*
X17744644Y-14513356D01*
X17815356Y-14513356D01*
X18069356Y-14513356D02*
X18069356Y-14442644D01*
X17998644Y-14442644D01*
X17998644Y-14513356D01*
X18069356Y-14513356D01*
X18323356Y-14513356D02*
X18323356Y-14442644D01*
X18252644Y-14442644D01*
X18252644Y-14513356D01*
X18323356Y-14513356D01*
X18577356Y-14513356D02*
X18577356Y-14442644D01*
X18506644Y-14442644D01*
X18506644Y-14513356D01*
X18577356Y-14513356D01*
X18831356Y-14513356D02*
X18831356Y-14442644D01*
X18760644Y-14442644D01*
X18760644Y-14513356D01*
X18831356Y-14513356D01*
X19085356Y-14513356D02*
X19085356Y-14442644D01*
X19014644Y-14442644D01*
X19014644Y-14513356D01*
X19085356Y-14513356D01*
X19339356Y-14513356D02*
X19339356Y-14442644D01*
X19268644Y-14442644D01*
X19268644Y-14513356D01*
X19339356Y-14513356D01*
X19593356Y-14513356D02*
X19593356Y-14442644D01*
X19522644Y-14442644D01*
X19522644Y-14513356D01*
X19593356Y-14513356D01*
X19847356Y-14513356D02*
X19847356Y-14442644D01*
X19776644Y-14442644D01*
X19776644Y-14513356D01*
X19847356Y-14513356D01*
X20101356Y-14513356D02*
X20101356Y-14442644D01*
X20030644Y-14442644D01*
X20030644Y-14513356D01*
X20101356Y-14513356D01*
X20355356Y-14513356D02*
X20355356Y-14442644D01*
X20284644Y-14442644D01*
X20284644Y-14513356D01*
X20355356Y-14513356D01*
X20609356Y-14513356D02*
X20609356Y-14442644D01*
X20538644Y-14442644D01*
X20538644Y-14513356D01*
X20609356Y-14513356D01*
X20863356Y-6131356D02*
X20863356Y-6060644D01*
X20792644Y-6060644D01*
X20792644Y-6131356D01*
X20863356Y-6131356D01*
X20863356Y-14513356D02*
X20863356Y-14442644D01*
X20792644Y-14442644D01*
X20792644Y-14513356D01*
X20863356Y-14513356D01*
X21117356Y-6131356D02*
X21117356Y-6060644D01*
X21046644Y-6060644D01*
X21046644Y-6131356D01*
X21117356Y-6131356D01*
X21117356Y-14513356D02*
X21117356Y-14442644D01*
X21046644Y-14442644D01*
X21046644Y-14513356D01*
X21117356Y-14513356D01*
X21371356Y-6131356D02*
X21371356Y-6060644D01*
X21300644Y-6060644D01*
X21300644Y-6131356D01*
X21371356Y-6131356D01*
X21371356Y-14513356D02*
X21371356Y-14442644D01*
X21300644Y-14442644D01*
X21300644Y-14513356D01*
X21371356Y-14513356D01*
X21625356Y-6131356D02*
X21625356Y-6060644D01*
X21554644Y-6060644D01*
X21554644Y-6131356D01*
X21625356Y-6131356D01*
X21625356Y-14513356D02*
X21625356Y-14442644D01*
X21554644Y-14442644D01*
X21554644Y-14513356D01*
X21625356Y-14513356D01*
X21879356Y-6131356D02*
X21879356Y-6060644D01*
X21808644Y-6060644D01*
X21808644Y-6131356D01*
X21879356Y-6131356D01*
X21879356Y-14513356D02*
X21879356Y-14442644D01*
X21808644Y-14442644D01*
X21808644Y-14513356D01*
X21879356Y-14513356D01*
X22133356Y-6131356D02*
X22133356Y-6060644D01*
X22062644Y-6060644D01*
X22062644Y-6131356D01*
X22133356Y-6131356D01*
X22133356Y-14513356D02*
X22133356Y-14442644D01*
X22062644Y-14442644D01*
X22062644Y-14513356D01*
X22133356Y-14513356D01*
X22387356Y-6131356D02*
X22387356Y-6060644D01*
X22316644Y-6060644D01*
X22316644Y-6131356D01*
X22387356Y-6131356D01*
X22387356Y-14513356D02*
X22387356Y-14442644D01*
X22316644Y-14442644D01*
X22316644Y-14513356D01*
X22387356Y-14513356D01*
X22641356Y-6131356D02*
X22641356Y-6060644D01*
X22570644Y-6060644D01*
X22570644Y-6131356D01*
X22641356Y-6131356D01*
X22641356Y-14513356D02*
X22641356Y-14442644D01*
X22570644Y-14442644D01*
X22570644Y-14513356D01*
X22641356Y-14513356D01*
X22895356Y-6131356D02*
X22895356Y-6060644D01*
X22824644Y-6060644D01*
X22824644Y-6131356D01*
X22895356Y-6131356D01*
X22895356Y-14513356D02*
X22895356Y-14442644D01*
X22824644Y-14442644D01*
X22824644Y-14513356D01*
X22895356Y-14513356D01*
X23149356Y-6131356D02*
X23149356Y-6060644D01*
X23078644Y-6060644D01*
X23078644Y-6131356D01*
X23149356Y-6131356D01*
X23149356Y-14513356D02*
X23149356Y-14442644D01*
X23078644Y-14442644D01*
X23078644Y-14513356D01*
X23149356Y-14513356D01*
X23403356Y-6131356D02*
X23403356Y-6060644D01*
X23332644Y-6060644D01*
X23332644Y-6131356D01*
X23403356Y-6131356D01*
X23403356Y-14513356D02*
X23403356Y-14442644D01*
X23332644Y-14442644D01*
X23332644Y-14513356D01*
X23403356Y-14513356D01*
X23657356Y-6131356D02*
X23657356Y-6060644D01*
X23586644Y-6060644D01*
X23586644Y-6131356D01*
X23657356Y-6131356D01*
X23657356Y-14513356D02*
X23657356Y-14442644D01*
X23586644Y-14442644D01*
X23586644Y-14513356D01*
X23657356Y-14513356D01*
X23911356Y-6131356D02*
X23911356Y-6060644D01*
X23840644Y-6060644D01*
X23840644Y-6131356D01*
X23911356Y-6131356D01*
X23911356Y-14513356D02*
X23911356Y-14442644D01*
X23840644Y-14442644D01*
X23840644Y-14513356D01*
X23911356Y-14513356D01*
X24165356Y-6131356D02*
X24165356Y-6060644D01*
X24094644Y-6060644D01*
X24094644Y-6131356D01*
X24165356Y-6131356D01*
X24165356Y-14513356D02*
X24165356Y-14442644D01*
X24094644Y-14442644D01*
X24094644Y-14513356D01*
X24165356Y-14513356D01*
X24419356Y-6131356D02*
X24419356Y-6060644D01*
X24348644Y-6060644D01*
X24348644Y-6131356D01*
X24419356Y-6131356D01*
X24419356Y-14513356D02*
X24419356Y-14442644D01*
X24348644Y-14442644D01*
X24348644Y-14513356D01*
X24419356Y-14513356D01*
X24673356Y-6131356D02*
X24673356Y-6060644D01*
X24602644Y-6060644D01*
X24602644Y-6131356D01*
X24673356Y-6131356D01*
D11*
X5322619Y-15157476D02*
X5322619Y-14957476D01*
X5322619Y-14957476D02*
X5370238Y-14957476D01*
X5370238Y-14957476D02*
X5398810Y-14967000D01*
X5398810Y-14967000D02*
X5417857Y-14986048D01*
X5417857Y-14986048D02*
X5427381Y-15005095D01*
X5427381Y-15005095D02*
X5436905Y-15043190D01*
X5436905Y-15043190D02*
X5436905Y-15071762D01*
X5436905Y-15071762D02*
X5427381Y-15109857D01*
X5427381Y-15109857D02*
X5417857Y-15128905D01*
X5417857Y-15128905D02*
X5398810Y-15147952D01*
X5398810Y-15147952D02*
X5370238Y-15157476D01*
X5370238Y-15157476D02*
X5322619Y-15157476D01*
X5522619Y-15157476D02*
X5522619Y-15024143D01*
X5522619Y-15062238D02*
X5532143Y-15043190D01*
X5532143Y-15043190D02*
X5541667Y-15033667D01*
X5541667Y-15033667D02*
X5560714Y-15024143D01*
X5560714Y-15024143D02*
X5579762Y-15024143D01*
X5646428Y-15157476D02*
X5646428Y-15024143D01*
X5646428Y-14957476D02*
X5636905Y-14967000D01*
X5636905Y-14967000D02*
X5646428Y-14976524D01*
X5646428Y-14976524D02*
X5655952Y-14967000D01*
X5655952Y-14967000D02*
X5646428Y-14957476D01*
X5646428Y-14957476D02*
X5646428Y-14976524D01*
X5770238Y-15157476D02*
X5751190Y-15147952D01*
X5751190Y-15147952D02*
X5741667Y-15128905D01*
X5741667Y-15128905D02*
X5741667Y-14957476D01*
X5875000Y-15157476D02*
X5855952Y-15147952D01*
X5855952Y-15147952D02*
X5846428Y-15128905D01*
X5846428Y-15128905D02*
X5846428Y-14957476D01*
X6071190Y-15157476D02*
X6071190Y-14957476D01*
X6071190Y-14957476D02*
X6137857Y-15100333D01*
X6137857Y-15100333D02*
X6204524Y-14957476D01*
X6204524Y-14957476D02*
X6204524Y-15157476D01*
X6385476Y-15157476D02*
X6385476Y-15052714D01*
X6385476Y-15052714D02*
X6375952Y-15033667D01*
X6375952Y-15033667D02*
X6356905Y-15024143D01*
X6356905Y-15024143D02*
X6318809Y-15024143D01*
X6318809Y-15024143D02*
X6299762Y-15033667D01*
X6385476Y-15147952D02*
X6366428Y-15157476D01*
X6366428Y-15157476D02*
X6318809Y-15157476D01*
X6318809Y-15157476D02*
X6299762Y-15147952D01*
X6299762Y-15147952D02*
X6290238Y-15128905D01*
X6290238Y-15128905D02*
X6290238Y-15109857D01*
X6290238Y-15109857D02*
X6299762Y-15090809D01*
X6299762Y-15090809D02*
X6318809Y-15081286D01*
X6318809Y-15081286D02*
X6366428Y-15081286D01*
X6366428Y-15081286D02*
X6385476Y-15071762D01*
X6480714Y-15024143D02*
X6480714Y-15224143D01*
X6480714Y-15033667D02*
X6499762Y-15024143D01*
X6499762Y-15024143D02*
X6537857Y-15024143D01*
X6537857Y-15024143D02*
X6556905Y-15033667D01*
X6556905Y-15033667D02*
X6566428Y-15043190D01*
X6566428Y-15043190D02*
X6575952Y-15062238D01*
X6575952Y-15062238D02*
X6575952Y-15119381D01*
X6575952Y-15119381D02*
X6566428Y-15138428D01*
X6566428Y-15138428D02*
X6556905Y-15147952D01*
X6556905Y-15147952D02*
X6537857Y-15157476D01*
X6537857Y-15157476D02*
X6499762Y-15157476D01*
X6499762Y-15157476D02*
X6480714Y-15147952D01*
X6661667Y-15138428D02*
X6671190Y-15147952D01*
X6671190Y-15147952D02*
X6661667Y-15157476D01*
X6661667Y-15157476D02*
X6652143Y-15147952D01*
X6652143Y-15147952D02*
X6661667Y-15138428D01*
X6661667Y-15138428D02*
X6661667Y-15157476D01*
X6661667Y-15033667D02*
X6671190Y-15043190D01*
X6671190Y-15043190D02*
X6661667Y-15052714D01*
X6661667Y-15052714D02*
X6652143Y-15043190D01*
X6652143Y-15043190D02*
X6661667Y-15033667D01*
X6661667Y-15033667D02*
X6661667Y-15052714D01*
D12*
X5036900Y-15484950D02*
X5075000Y-15523050D01*
X5075000Y-15484950D02*
X5036900Y-15523050D01*
D11*
X5360714Y-15377476D02*
X5379762Y-15377476D01*
X5379762Y-15377476D02*
X5398810Y-15387000D01*
X5398810Y-15387000D02*
X5408333Y-15396524D01*
X5408333Y-15396524D02*
X5417857Y-15415571D01*
X5417857Y-15415571D02*
X5427381Y-15453667D01*
X5427381Y-15453667D02*
X5427381Y-15501286D01*
X5427381Y-15501286D02*
X5417857Y-15539381D01*
X5417857Y-15539381D02*
X5408333Y-15558428D01*
X5408333Y-15558428D02*
X5398810Y-15567952D01*
X5398810Y-15567952D02*
X5379762Y-15577476D01*
X5379762Y-15577476D02*
X5360714Y-15577476D01*
X5360714Y-15577476D02*
X5341667Y-15567952D01*
X5341667Y-15567952D02*
X5332143Y-15558428D01*
X5332143Y-15558428D02*
X5322619Y-15539381D01*
X5322619Y-15539381D02*
X5313095Y-15501286D01*
X5313095Y-15501286D02*
X5313095Y-15453667D01*
X5313095Y-15453667D02*
X5322619Y-15415571D01*
X5322619Y-15415571D02*
X5332143Y-15396524D01*
X5332143Y-15396524D02*
X5341667Y-15387000D01*
X5341667Y-15387000D02*
X5360714Y-15377476D01*
X5513095Y-15558428D02*
X5522619Y-15567952D01*
X5522619Y-15567952D02*
X5513095Y-15577476D01*
X5513095Y-15577476D02*
X5503571Y-15567952D01*
X5503571Y-15567952D02*
X5513095Y-15558428D01*
X5513095Y-15558428D02*
X5513095Y-15577476D01*
X5589286Y-15377476D02*
X5713095Y-15377476D01*
X5713095Y-15377476D02*
X5646428Y-15453667D01*
X5646428Y-15453667D02*
X5675000Y-15453667D01*
X5675000Y-15453667D02*
X5694048Y-15463190D01*
X5694048Y-15463190D02*
X5703571Y-15472714D01*
X5703571Y-15472714D02*
X5713095Y-15491762D01*
X5713095Y-15491762D02*
X5713095Y-15539381D01*
X5713095Y-15539381D02*
X5703571Y-15558428D01*
X5703571Y-15558428D02*
X5694048Y-15567952D01*
X5694048Y-15567952D02*
X5675000Y-15577476D01*
X5675000Y-15577476D02*
X5617857Y-15577476D01*
X5617857Y-15577476D02*
X5598809Y-15567952D01*
X5598809Y-15567952D02*
X5589286Y-15558428D01*
X5827381Y-15463190D02*
X5808333Y-15453667D01*
X5808333Y-15453667D02*
X5798809Y-15444143D01*
X5798809Y-15444143D02*
X5789286Y-15425095D01*
X5789286Y-15425095D02*
X5789286Y-15415571D01*
X5789286Y-15415571D02*
X5798809Y-15396524D01*
X5798809Y-15396524D02*
X5808333Y-15387000D01*
X5808333Y-15387000D02*
X5827381Y-15377476D01*
X5827381Y-15377476D02*
X5865476Y-15377476D01*
X5865476Y-15377476D02*
X5884524Y-15387000D01*
X5884524Y-15387000D02*
X5894048Y-15396524D01*
X5894048Y-15396524D02*
X5903571Y-15415571D01*
X5903571Y-15415571D02*
X5903571Y-15425095D01*
X5903571Y-15425095D02*
X5894048Y-15444143D01*
X5894048Y-15444143D02*
X5884524Y-15453667D01*
X5884524Y-15453667D02*
X5865476Y-15463190D01*
X5865476Y-15463190D02*
X5827381Y-15463190D01*
X5827381Y-15463190D02*
X5808333Y-15472714D01*
X5808333Y-15472714D02*
X5798809Y-15482238D01*
X5798809Y-15482238D02*
X5789286Y-15501286D01*
X5789286Y-15501286D02*
X5789286Y-15539381D01*
X5789286Y-15539381D02*
X5798809Y-15558428D01*
X5798809Y-15558428D02*
X5808333Y-15567952D01*
X5808333Y-15567952D02*
X5827381Y-15577476D01*
X5827381Y-15577476D02*
X5865476Y-15577476D01*
X5865476Y-15577476D02*
X5884524Y-15567952D01*
X5884524Y-15567952D02*
X5894048Y-15558428D01*
X5894048Y-15558428D02*
X5903571Y-15539381D01*
X5903571Y-15539381D02*
X5903571Y-15501286D01*
X5903571Y-15501286D02*
X5894048Y-15482238D01*
X5894048Y-15482238D02*
X5884524Y-15472714D01*
X5884524Y-15472714D02*
X5865476Y-15463190D01*
X6094048Y-15577476D02*
X5979762Y-15577476D01*
X6036905Y-15577476D02*
X6036905Y-15377476D01*
X6036905Y-15377476D02*
X6017857Y-15406048D01*
X6017857Y-15406048D02*
X5998809Y-15425095D01*
X5998809Y-15425095D02*
X5979762Y-15434619D01*
X6179762Y-15577476D02*
X6179762Y-15444143D01*
X6179762Y-15463190D02*
X6189286Y-15453667D01*
X6189286Y-15453667D02*
X6208333Y-15444143D01*
X6208333Y-15444143D02*
X6236905Y-15444143D01*
X6236905Y-15444143D02*
X6255952Y-15453667D01*
X6255952Y-15453667D02*
X6265476Y-15472714D01*
X6265476Y-15472714D02*
X6265476Y-15577476D01*
X6265476Y-15472714D02*
X6275000Y-15453667D01*
X6275000Y-15453667D02*
X6294048Y-15444143D01*
X6294048Y-15444143D02*
X6322619Y-15444143D01*
X6322619Y-15444143D02*
X6341667Y-15453667D01*
X6341667Y-15453667D02*
X6351190Y-15472714D01*
X6351190Y-15472714D02*
X6351190Y-15577476D01*
X6446429Y-15577476D02*
X6446429Y-15444143D01*
X6446429Y-15463190D02*
X6455952Y-15453667D01*
X6455952Y-15453667D02*
X6475000Y-15444143D01*
X6475000Y-15444143D02*
X6503571Y-15444143D01*
X6503571Y-15444143D02*
X6522619Y-15453667D01*
X6522619Y-15453667D02*
X6532143Y-15472714D01*
X6532143Y-15472714D02*
X6532143Y-15577476D01*
X6532143Y-15472714D02*
X6541667Y-15453667D01*
X6541667Y-15453667D02*
X6560714Y-15444143D01*
X6560714Y-15444143D02*
X6589286Y-15444143D01*
X6589286Y-15444143D02*
X6608333Y-15453667D01*
X6608333Y-15453667D02*
X6617857Y-15472714D01*
X6617857Y-15472714D02*
X6617857Y-15577476D01*
X6975952Y-15367952D02*
X6804524Y-15625095D01*
X7200714Y-15377476D02*
X7219762Y-15377476D01*
X7219762Y-15377476D02*
X7238810Y-15387000D01*
X7238810Y-15387000D02*
X7248333Y-15396524D01*
X7248333Y-15396524D02*
X7257857Y-15415571D01*
X7257857Y-15415571D02*
X7267381Y-15453667D01*
X7267381Y-15453667D02*
X7267381Y-15501286D01*
X7267381Y-15501286D02*
X7257857Y-15539381D01*
X7257857Y-15539381D02*
X7248333Y-15558428D01*
X7248333Y-15558428D02*
X7238810Y-15567952D01*
X7238810Y-15567952D02*
X7219762Y-15577476D01*
X7219762Y-15577476D02*
X7200714Y-15577476D01*
X7200714Y-15577476D02*
X7181667Y-15567952D01*
X7181667Y-15567952D02*
X7172143Y-15558428D01*
X7172143Y-15558428D02*
X7162619Y-15539381D01*
X7162619Y-15539381D02*
X7153095Y-15501286D01*
X7153095Y-15501286D02*
X7153095Y-15453667D01*
X7153095Y-15453667D02*
X7162619Y-15415571D01*
X7162619Y-15415571D02*
X7172143Y-15396524D01*
X7172143Y-15396524D02*
X7181667Y-15387000D01*
X7181667Y-15387000D02*
X7200714Y-15377476D01*
X7353095Y-15558428D02*
X7362619Y-15567952D01*
X7362619Y-15567952D02*
X7353095Y-15577476D01*
X7353095Y-15577476D02*
X7343571Y-15567952D01*
X7343571Y-15567952D02*
X7353095Y-15558428D01*
X7353095Y-15558428D02*
X7353095Y-15577476D01*
X7486429Y-15377476D02*
X7505476Y-15377476D01*
X7505476Y-15377476D02*
X7524524Y-15387000D01*
X7524524Y-15387000D02*
X7534048Y-15396524D01*
X7534048Y-15396524D02*
X7543571Y-15415571D01*
X7543571Y-15415571D02*
X7553095Y-15453667D01*
X7553095Y-15453667D02*
X7553095Y-15501286D01*
X7553095Y-15501286D02*
X7543571Y-15539381D01*
X7543571Y-15539381D02*
X7534048Y-15558428D01*
X7534048Y-15558428D02*
X7524524Y-15567952D01*
X7524524Y-15567952D02*
X7505476Y-15577476D01*
X7505476Y-15577476D02*
X7486429Y-15577476D01*
X7486429Y-15577476D02*
X7467381Y-15567952D01*
X7467381Y-15567952D02*
X7457857Y-15558428D01*
X7457857Y-15558428D02*
X7448333Y-15539381D01*
X7448333Y-15539381D02*
X7438810Y-15501286D01*
X7438810Y-15501286D02*
X7438810Y-15453667D01*
X7438810Y-15453667D02*
X7448333Y-15415571D01*
X7448333Y-15415571D02*
X7457857Y-15396524D01*
X7457857Y-15396524D02*
X7467381Y-15387000D01*
X7467381Y-15387000D02*
X7486429Y-15377476D01*
X7743571Y-15577476D02*
X7629286Y-15577476D01*
X7686429Y-15577476D02*
X7686429Y-15377476D01*
X7686429Y-15377476D02*
X7667381Y-15406048D01*
X7667381Y-15406048D02*
X7648333Y-15425095D01*
X7648333Y-15425095D02*
X7629286Y-15434619D01*
X7924524Y-15377476D02*
X7829286Y-15377476D01*
X7829286Y-15377476D02*
X7819762Y-15472714D01*
X7819762Y-15472714D02*
X7829286Y-15463190D01*
X7829286Y-15463190D02*
X7848333Y-15453667D01*
X7848333Y-15453667D02*
X7895952Y-15453667D01*
X7895952Y-15453667D02*
X7915000Y-15463190D01*
X7915000Y-15463190D02*
X7924524Y-15472714D01*
X7924524Y-15472714D02*
X7934048Y-15491762D01*
X7934048Y-15491762D02*
X7934048Y-15539381D01*
X7934048Y-15539381D02*
X7924524Y-15558428D01*
X7924524Y-15558428D02*
X7915000Y-15567952D01*
X7915000Y-15567952D02*
X7895952Y-15577476D01*
X7895952Y-15577476D02*
X7848333Y-15577476D01*
X7848333Y-15577476D02*
X7829286Y-15567952D01*
X7829286Y-15567952D02*
X7819762Y-15558428D01*
X8057857Y-15377476D02*
X8076905Y-15377476D01*
X8076905Y-15377476D02*
X8095952Y-15387000D01*
X8095952Y-15387000D02*
X8105476Y-15396524D01*
X8105476Y-15396524D02*
X8115000Y-15415571D01*
X8115000Y-15415571D02*
X8124524Y-15453667D01*
X8124524Y-15453667D02*
X8124524Y-15501286D01*
X8124524Y-15501286D02*
X8115000Y-15539381D01*
X8115000Y-15539381D02*
X8105476Y-15558428D01*
X8105476Y-15558428D02*
X8095952Y-15567952D01*
X8095952Y-15567952D02*
X8076905Y-15577476D01*
X8076905Y-15577476D02*
X8057857Y-15577476D01*
X8057857Y-15577476D02*
X8038810Y-15567952D01*
X8038810Y-15567952D02*
X8029286Y-15558428D01*
X8029286Y-15558428D02*
X8019762Y-15539381D01*
X8019762Y-15539381D02*
X8010238Y-15501286D01*
X8010238Y-15501286D02*
X8010238Y-15453667D01*
X8010238Y-15453667D02*
X8019762Y-15415571D01*
X8019762Y-15415571D02*
X8029286Y-15396524D01*
X8029286Y-15396524D02*
X8038810Y-15387000D01*
X8038810Y-15387000D02*
X8057857Y-15377476D01*
X8200714Y-15377476D02*
X8200714Y-15415571D01*
X8276905Y-15377476D02*
X8276905Y-15415571D01*
X8539762Y-15653667D02*
X8530238Y-15644143D01*
X8530238Y-15644143D02*
X8511191Y-15615571D01*
X8511191Y-15615571D02*
X8501667Y-15596524D01*
X8501667Y-15596524D02*
X8492143Y-15567952D01*
X8492143Y-15567952D02*
X8482619Y-15520333D01*
X8482619Y-15520333D02*
X8482619Y-15482238D01*
X8482619Y-15482238D02*
X8492143Y-15434619D01*
X8492143Y-15434619D02*
X8501667Y-15406048D01*
X8501667Y-15406048D02*
X8511191Y-15387000D01*
X8511191Y-15387000D02*
X8530238Y-15358428D01*
X8530238Y-15358428D02*
X8539762Y-15348905D01*
X8720714Y-15577476D02*
X8606429Y-15577476D01*
X8663572Y-15577476D02*
X8663572Y-15377476D01*
X8663572Y-15377476D02*
X8644524Y-15406048D01*
X8644524Y-15406048D02*
X8625476Y-15425095D01*
X8625476Y-15425095D02*
X8606429Y-15434619D01*
X8787381Y-15377476D02*
X8920714Y-15377476D01*
X8920714Y-15377476D02*
X8835000Y-15577476D01*
X8987381Y-15396524D02*
X8996905Y-15387000D01*
X8996905Y-15387000D02*
X9015953Y-15377476D01*
X9015953Y-15377476D02*
X9063572Y-15377476D01*
X9063572Y-15377476D02*
X9082619Y-15387000D01*
X9082619Y-15387000D02*
X9092143Y-15396524D01*
X9092143Y-15396524D02*
X9101667Y-15415571D01*
X9101667Y-15415571D02*
X9101667Y-15434619D01*
X9101667Y-15434619D02*
X9092143Y-15463190D01*
X9092143Y-15463190D02*
X8977857Y-15577476D01*
X8977857Y-15577476D02*
X9101667Y-15577476D01*
X9307381Y-15577476D02*
X9307381Y-15377476D01*
X9393095Y-15577476D02*
X9393095Y-15472714D01*
X9393095Y-15472714D02*
X9383572Y-15453667D01*
X9383572Y-15453667D02*
X9364524Y-15444143D01*
X9364524Y-15444143D02*
X9335953Y-15444143D01*
X9335953Y-15444143D02*
X9316905Y-15453667D01*
X9316905Y-15453667D02*
X9307381Y-15463190D01*
X9516905Y-15577476D02*
X9497857Y-15567952D01*
X9497857Y-15567952D02*
X9488334Y-15558428D01*
X9488334Y-15558428D02*
X9478810Y-15539381D01*
X9478810Y-15539381D02*
X9478810Y-15482238D01*
X9478810Y-15482238D02*
X9488334Y-15463190D01*
X9488334Y-15463190D02*
X9497857Y-15453667D01*
X9497857Y-15453667D02*
X9516905Y-15444143D01*
X9516905Y-15444143D02*
X9545476Y-15444143D01*
X9545476Y-15444143D02*
X9564524Y-15453667D01*
X9564524Y-15453667D02*
X9574048Y-15463190D01*
X9574048Y-15463190D02*
X9583572Y-15482238D01*
X9583572Y-15482238D02*
X9583572Y-15539381D01*
X9583572Y-15539381D02*
X9574048Y-15558428D01*
X9574048Y-15558428D02*
X9564524Y-15567952D01*
X9564524Y-15567952D02*
X9545476Y-15577476D01*
X9545476Y-15577476D02*
X9516905Y-15577476D01*
X9697857Y-15577476D02*
X9678810Y-15567952D01*
X9678810Y-15567952D02*
X9669286Y-15548905D01*
X9669286Y-15548905D02*
X9669286Y-15377476D01*
X9850238Y-15567952D02*
X9831191Y-15577476D01*
X9831191Y-15577476D02*
X9793095Y-15577476D01*
X9793095Y-15577476D02*
X9774048Y-15567952D01*
X9774048Y-15567952D02*
X9764524Y-15548905D01*
X9764524Y-15548905D02*
X9764524Y-15472714D01*
X9764524Y-15472714D02*
X9774048Y-15453667D01*
X9774048Y-15453667D02*
X9793095Y-15444143D01*
X9793095Y-15444143D02*
X9831191Y-15444143D01*
X9831191Y-15444143D02*
X9850238Y-15453667D01*
X9850238Y-15453667D02*
X9859762Y-15472714D01*
X9859762Y-15472714D02*
X9859762Y-15491762D01*
X9859762Y-15491762D02*
X9764524Y-15510809D01*
X9935953Y-15567952D02*
X9955000Y-15577476D01*
X9955000Y-15577476D02*
X9993095Y-15577476D01*
X9993095Y-15577476D02*
X10012143Y-15567952D01*
X10012143Y-15567952D02*
X10021667Y-15548905D01*
X10021667Y-15548905D02*
X10021667Y-15539381D01*
X10021667Y-15539381D02*
X10012143Y-15520333D01*
X10012143Y-15520333D02*
X9993095Y-15510809D01*
X9993095Y-15510809D02*
X9964524Y-15510809D01*
X9964524Y-15510809D02*
X9945476Y-15501286D01*
X9945476Y-15501286D02*
X9935953Y-15482238D01*
X9935953Y-15482238D02*
X9935953Y-15472714D01*
X9935953Y-15472714D02*
X9945476Y-15453667D01*
X9945476Y-15453667D02*
X9964524Y-15444143D01*
X9964524Y-15444143D02*
X9993095Y-15444143D01*
X9993095Y-15444143D02*
X10012143Y-15453667D01*
X10088334Y-15653667D02*
X10097857Y-15644143D01*
X10097857Y-15644143D02*
X10116905Y-15615571D01*
X10116905Y-15615571D02*
X10126429Y-15596524D01*
X10126429Y-15596524D02*
X10135953Y-15567952D01*
X10135953Y-15567952D02*
X10145476Y-15520333D01*
X10145476Y-15520333D02*
X10145476Y-15482238D01*
X10145476Y-15482238D02*
X10135953Y-15434619D01*
X10135953Y-15434619D02*
X10126429Y-15406048D01*
X10126429Y-15406048D02*
X10116905Y-15387000D01*
X10116905Y-15387000D02*
X10097857Y-15358428D01*
X10097857Y-15358428D02*
X10088334Y-15348905D01*
D13*
X5075000Y-15768000D02*
G75*
G03*
X5075000Y-15768000I-40000J0D01*
G01*
D11*
X5360714Y-15641476D02*
X5379762Y-15641476D01*
X5379762Y-15641476D02*
X5398810Y-15651000D01*
X5398810Y-15651000D02*
X5408333Y-15660524D01*
X5408333Y-15660524D02*
X5417857Y-15679571D01*
X5417857Y-15679571D02*
X5427381Y-15717667D01*
X5427381Y-15717667D02*
X5427381Y-15765286D01*
X5427381Y-15765286D02*
X5417857Y-15803381D01*
X5417857Y-15803381D02*
X5408333Y-15822428D01*
X5408333Y-15822428D02*
X5398810Y-15831952D01*
X5398810Y-15831952D02*
X5379762Y-15841476D01*
X5379762Y-15841476D02*
X5360714Y-15841476D01*
X5360714Y-15841476D02*
X5341667Y-15831952D01*
X5341667Y-15831952D02*
X5332143Y-15822428D01*
X5332143Y-15822428D02*
X5322619Y-15803381D01*
X5322619Y-15803381D02*
X5313095Y-15765286D01*
X5313095Y-15765286D02*
X5313095Y-15717667D01*
X5313095Y-15717667D02*
X5322619Y-15679571D01*
X5322619Y-15679571D02*
X5332143Y-15660524D01*
X5332143Y-15660524D02*
X5341667Y-15651000D01*
X5341667Y-15651000D02*
X5360714Y-15641476D01*
X5513095Y-15822428D02*
X5522619Y-15831952D01*
X5522619Y-15831952D02*
X5513095Y-15841476D01*
X5513095Y-15841476D02*
X5503571Y-15831952D01*
X5503571Y-15831952D02*
X5513095Y-15822428D01*
X5513095Y-15822428D02*
X5513095Y-15841476D01*
X5636905Y-15727190D02*
X5617857Y-15717667D01*
X5617857Y-15717667D02*
X5608333Y-15708143D01*
X5608333Y-15708143D02*
X5598809Y-15689095D01*
X5598809Y-15689095D02*
X5598809Y-15679571D01*
X5598809Y-15679571D02*
X5608333Y-15660524D01*
X5608333Y-15660524D02*
X5617857Y-15651000D01*
X5617857Y-15651000D02*
X5636905Y-15641476D01*
X5636905Y-15641476D02*
X5675000Y-15641476D01*
X5675000Y-15641476D02*
X5694048Y-15651000D01*
X5694048Y-15651000D02*
X5703571Y-15660524D01*
X5703571Y-15660524D02*
X5713095Y-15679571D01*
X5713095Y-15679571D02*
X5713095Y-15689095D01*
X5713095Y-15689095D02*
X5703571Y-15708143D01*
X5703571Y-15708143D02*
X5694048Y-15717667D01*
X5694048Y-15717667D02*
X5675000Y-15727190D01*
X5675000Y-15727190D02*
X5636905Y-15727190D01*
X5636905Y-15727190D02*
X5617857Y-15736714D01*
X5617857Y-15736714D02*
X5608333Y-15746238D01*
X5608333Y-15746238D02*
X5598809Y-15765286D01*
X5598809Y-15765286D02*
X5598809Y-15803381D01*
X5598809Y-15803381D02*
X5608333Y-15822428D01*
X5608333Y-15822428D02*
X5617857Y-15831952D01*
X5617857Y-15831952D02*
X5636905Y-15841476D01*
X5636905Y-15841476D02*
X5675000Y-15841476D01*
X5675000Y-15841476D02*
X5694048Y-15831952D01*
X5694048Y-15831952D02*
X5703571Y-15822428D01*
X5703571Y-15822428D02*
X5713095Y-15803381D01*
X5713095Y-15803381D02*
X5713095Y-15765286D01*
X5713095Y-15765286D02*
X5703571Y-15746238D01*
X5703571Y-15746238D02*
X5694048Y-15736714D01*
X5694048Y-15736714D02*
X5675000Y-15727190D01*
X5836905Y-15641476D02*
X5855952Y-15641476D01*
X5855952Y-15641476D02*
X5875000Y-15651000D01*
X5875000Y-15651000D02*
X5884524Y-15660524D01*
X5884524Y-15660524D02*
X5894048Y-15679571D01*
X5894048Y-15679571D02*
X5903571Y-15717667D01*
X5903571Y-15717667D02*
X5903571Y-15765286D01*
X5903571Y-15765286D02*
X5894048Y-15803381D01*
X5894048Y-15803381D02*
X5884524Y-15822428D01*
X5884524Y-15822428D02*
X5875000Y-15831952D01*
X5875000Y-15831952D02*
X5855952Y-15841476D01*
X5855952Y-15841476D02*
X5836905Y-15841476D01*
X5836905Y-15841476D02*
X5817857Y-15831952D01*
X5817857Y-15831952D02*
X5808333Y-15822428D01*
X5808333Y-15822428D02*
X5798809Y-15803381D01*
X5798809Y-15803381D02*
X5789286Y-15765286D01*
X5789286Y-15765286D02*
X5789286Y-15717667D01*
X5789286Y-15717667D02*
X5798809Y-15679571D01*
X5798809Y-15679571D02*
X5808333Y-15660524D01*
X5808333Y-15660524D02*
X5817857Y-15651000D01*
X5817857Y-15651000D02*
X5836905Y-15641476D01*
X6027381Y-15641476D02*
X6046429Y-15641476D01*
X6046429Y-15641476D02*
X6065476Y-15651000D01*
X6065476Y-15651000D02*
X6075000Y-15660524D01*
X6075000Y-15660524D02*
X6084524Y-15679571D01*
X6084524Y-15679571D02*
X6094048Y-15717667D01*
X6094048Y-15717667D02*
X6094048Y-15765286D01*
X6094048Y-15765286D02*
X6084524Y-15803381D01*
X6084524Y-15803381D02*
X6075000Y-15822428D01*
X6075000Y-15822428D02*
X6065476Y-15831952D01*
X6065476Y-15831952D02*
X6046429Y-15841476D01*
X6046429Y-15841476D02*
X6027381Y-15841476D01*
X6027381Y-15841476D02*
X6008333Y-15831952D01*
X6008333Y-15831952D02*
X5998809Y-15822428D01*
X5998809Y-15822428D02*
X5989286Y-15803381D01*
X5989286Y-15803381D02*
X5979762Y-15765286D01*
X5979762Y-15765286D02*
X5979762Y-15717667D01*
X5979762Y-15717667D02*
X5989286Y-15679571D01*
X5989286Y-15679571D02*
X5998809Y-15660524D01*
X5998809Y-15660524D02*
X6008333Y-15651000D01*
X6008333Y-15651000D02*
X6027381Y-15641476D01*
X6179762Y-15841476D02*
X6179762Y-15708143D01*
X6179762Y-15727190D02*
X6189286Y-15717667D01*
X6189286Y-15717667D02*
X6208333Y-15708143D01*
X6208333Y-15708143D02*
X6236905Y-15708143D01*
X6236905Y-15708143D02*
X6255952Y-15717667D01*
X6255952Y-15717667D02*
X6265476Y-15736714D01*
X6265476Y-15736714D02*
X6265476Y-15841476D01*
X6265476Y-15736714D02*
X6275000Y-15717667D01*
X6275000Y-15717667D02*
X6294048Y-15708143D01*
X6294048Y-15708143D02*
X6322619Y-15708143D01*
X6322619Y-15708143D02*
X6341667Y-15717667D01*
X6341667Y-15717667D02*
X6351190Y-15736714D01*
X6351190Y-15736714D02*
X6351190Y-15841476D01*
X6446429Y-15841476D02*
X6446429Y-15708143D01*
X6446429Y-15727190D02*
X6455952Y-15717667D01*
X6455952Y-15717667D02*
X6475000Y-15708143D01*
X6475000Y-15708143D02*
X6503571Y-15708143D01*
X6503571Y-15708143D02*
X6522619Y-15717667D01*
X6522619Y-15717667D02*
X6532143Y-15736714D01*
X6532143Y-15736714D02*
X6532143Y-15841476D01*
X6532143Y-15736714D02*
X6541667Y-15717667D01*
X6541667Y-15717667D02*
X6560714Y-15708143D01*
X6560714Y-15708143D02*
X6589286Y-15708143D01*
X6589286Y-15708143D02*
X6608333Y-15717667D01*
X6608333Y-15717667D02*
X6617857Y-15736714D01*
X6617857Y-15736714D02*
X6617857Y-15841476D01*
X6975952Y-15631952D02*
X6804524Y-15889095D01*
X7200714Y-15641476D02*
X7219762Y-15641476D01*
X7219762Y-15641476D02*
X7238810Y-15651000D01*
X7238810Y-15651000D02*
X7248333Y-15660524D01*
X7248333Y-15660524D02*
X7257857Y-15679571D01*
X7257857Y-15679571D02*
X7267381Y-15717667D01*
X7267381Y-15717667D02*
X7267381Y-15765286D01*
X7267381Y-15765286D02*
X7257857Y-15803381D01*
X7257857Y-15803381D02*
X7248333Y-15822428D01*
X7248333Y-15822428D02*
X7238810Y-15831952D01*
X7238810Y-15831952D02*
X7219762Y-15841476D01*
X7219762Y-15841476D02*
X7200714Y-15841476D01*
X7200714Y-15841476D02*
X7181667Y-15831952D01*
X7181667Y-15831952D02*
X7172143Y-15822428D01*
X7172143Y-15822428D02*
X7162619Y-15803381D01*
X7162619Y-15803381D02*
X7153095Y-15765286D01*
X7153095Y-15765286D02*
X7153095Y-15717667D01*
X7153095Y-15717667D02*
X7162619Y-15679571D01*
X7162619Y-15679571D02*
X7172143Y-15660524D01*
X7172143Y-15660524D02*
X7181667Y-15651000D01*
X7181667Y-15651000D02*
X7200714Y-15641476D01*
X7353095Y-15822428D02*
X7362619Y-15831952D01*
X7362619Y-15831952D02*
X7353095Y-15841476D01*
X7353095Y-15841476D02*
X7343571Y-15831952D01*
X7343571Y-15831952D02*
X7353095Y-15822428D01*
X7353095Y-15822428D02*
X7353095Y-15841476D01*
X7486429Y-15641476D02*
X7505476Y-15641476D01*
X7505476Y-15641476D02*
X7524524Y-15651000D01*
X7524524Y-15651000D02*
X7534048Y-15660524D01*
X7534048Y-15660524D02*
X7543571Y-15679571D01*
X7543571Y-15679571D02*
X7553095Y-15717667D01*
X7553095Y-15717667D02*
X7553095Y-15765286D01*
X7553095Y-15765286D02*
X7543571Y-15803381D01*
X7543571Y-15803381D02*
X7534048Y-15822428D01*
X7534048Y-15822428D02*
X7524524Y-15831952D01*
X7524524Y-15831952D02*
X7505476Y-15841476D01*
X7505476Y-15841476D02*
X7486429Y-15841476D01*
X7486429Y-15841476D02*
X7467381Y-15831952D01*
X7467381Y-15831952D02*
X7457857Y-15822428D01*
X7457857Y-15822428D02*
X7448333Y-15803381D01*
X7448333Y-15803381D02*
X7438810Y-15765286D01*
X7438810Y-15765286D02*
X7438810Y-15717667D01*
X7438810Y-15717667D02*
X7448333Y-15679571D01*
X7448333Y-15679571D02*
X7457857Y-15660524D01*
X7457857Y-15660524D02*
X7467381Y-15651000D01*
X7467381Y-15651000D02*
X7486429Y-15641476D01*
X7619762Y-15641476D02*
X7743571Y-15641476D01*
X7743571Y-15641476D02*
X7676905Y-15717667D01*
X7676905Y-15717667D02*
X7705476Y-15717667D01*
X7705476Y-15717667D02*
X7724524Y-15727190D01*
X7724524Y-15727190D02*
X7734048Y-15736714D01*
X7734048Y-15736714D02*
X7743571Y-15755762D01*
X7743571Y-15755762D02*
X7743571Y-15803381D01*
X7743571Y-15803381D02*
X7734048Y-15822428D01*
X7734048Y-15822428D02*
X7724524Y-15831952D01*
X7724524Y-15831952D02*
X7705476Y-15841476D01*
X7705476Y-15841476D02*
X7648333Y-15841476D01*
X7648333Y-15841476D02*
X7629286Y-15831952D01*
X7629286Y-15831952D02*
X7619762Y-15822428D01*
X7934048Y-15841476D02*
X7819762Y-15841476D01*
X7876905Y-15841476D02*
X7876905Y-15641476D01*
X7876905Y-15641476D02*
X7857857Y-15670048D01*
X7857857Y-15670048D02*
X7838810Y-15689095D01*
X7838810Y-15689095D02*
X7819762Y-15698619D01*
X8115000Y-15641476D02*
X8019762Y-15641476D01*
X8019762Y-15641476D02*
X8010238Y-15736714D01*
X8010238Y-15736714D02*
X8019762Y-15727190D01*
X8019762Y-15727190D02*
X8038810Y-15717667D01*
X8038810Y-15717667D02*
X8086429Y-15717667D01*
X8086429Y-15717667D02*
X8105476Y-15727190D01*
X8105476Y-15727190D02*
X8115000Y-15736714D01*
X8115000Y-15736714D02*
X8124524Y-15755762D01*
X8124524Y-15755762D02*
X8124524Y-15803381D01*
X8124524Y-15803381D02*
X8115000Y-15822428D01*
X8115000Y-15822428D02*
X8105476Y-15831952D01*
X8105476Y-15831952D02*
X8086429Y-15841476D01*
X8086429Y-15841476D02*
X8038810Y-15841476D01*
X8038810Y-15841476D02*
X8019762Y-15831952D01*
X8019762Y-15831952D02*
X8010238Y-15822428D01*
X8200714Y-15641476D02*
X8200714Y-15679571D01*
X8276905Y-15641476D02*
X8276905Y-15679571D01*
X8539762Y-15917667D02*
X8530238Y-15908143D01*
X8530238Y-15908143D02*
X8511191Y-15879571D01*
X8511191Y-15879571D02*
X8501667Y-15860524D01*
X8501667Y-15860524D02*
X8492143Y-15831952D01*
X8492143Y-15831952D02*
X8482619Y-15784333D01*
X8482619Y-15784333D02*
X8482619Y-15746238D01*
X8482619Y-15746238D02*
X8492143Y-15698619D01*
X8492143Y-15698619D02*
X8501667Y-15670048D01*
X8501667Y-15670048D02*
X8511191Y-15651000D01*
X8511191Y-15651000D02*
X8530238Y-15622428D01*
X8530238Y-15622428D02*
X8539762Y-15612905D01*
X8596905Y-15641476D02*
X8720714Y-15641476D01*
X8720714Y-15641476D02*
X8654048Y-15717667D01*
X8654048Y-15717667D02*
X8682619Y-15717667D01*
X8682619Y-15717667D02*
X8701667Y-15727190D01*
X8701667Y-15727190D02*
X8711191Y-15736714D01*
X8711191Y-15736714D02*
X8720714Y-15755762D01*
X8720714Y-15755762D02*
X8720714Y-15803381D01*
X8720714Y-15803381D02*
X8711191Y-15822428D01*
X8711191Y-15822428D02*
X8701667Y-15831952D01*
X8701667Y-15831952D02*
X8682619Y-15841476D01*
X8682619Y-15841476D02*
X8625476Y-15841476D01*
X8625476Y-15841476D02*
X8606429Y-15831952D01*
X8606429Y-15831952D02*
X8596905Y-15822428D01*
X8892143Y-15708143D02*
X8892143Y-15841476D01*
X8844524Y-15631952D02*
X8796905Y-15774809D01*
X8796905Y-15774809D02*
X8920714Y-15774809D01*
X8977857Y-15641476D02*
X9101667Y-15641476D01*
X9101667Y-15641476D02*
X9035000Y-15717667D01*
X9035000Y-15717667D02*
X9063572Y-15717667D01*
X9063572Y-15717667D02*
X9082619Y-15727190D01*
X9082619Y-15727190D02*
X9092143Y-15736714D01*
X9092143Y-15736714D02*
X9101667Y-15755762D01*
X9101667Y-15755762D02*
X9101667Y-15803381D01*
X9101667Y-15803381D02*
X9092143Y-15822428D01*
X9092143Y-15822428D02*
X9082619Y-15831952D01*
X9082619Y-15831952D02*
X9063572Y-15841476D01*
X9063572Y-15841476D02*
X9006429Y-15841476D01*
X9006429Y-15841476D02*
X8987381Y-15831952D01*
X8987381Y-15831952D02*
X8977857Y-15822428D01*
X9307381Y-15841476D02*
X9307381Y-15641476D01*
X9393095Y-15841476D02*
X9393095Y-15736714D01*
X9393095Y-15736714D02*
X9383572Y-15717667D01*
X9383572Y-15717667D02*
X9364524Y-15708143D01*
X9364524Y-15708143D02*
X9335953Y-15708143D01*
X9335953Y-15708143D02*
X9316905Y-15717667D01*
X9316905Y-15717667D02*
X9307381Y-15727190D01*
X9516905Y-15841476D02*
X9497857Y-15831952D01*
X9497857Y-15831952D02*
X9488334Y-15822428D01*
X9488334Y-15822428D02*
X9478810Y-15803381D01*
X9478810Y-15803381D02*
X9478810Y-15746238D01*
X9478810Y-15746238D02*
X9488334Y-15727190D01*
X9488334Y-15727190D02*
X9497857Y-15717667D01*
X9497857Y-15717667D02*
X9516905Y-15708143D01*
X9516905Y-15708143D02*
X9545476Y-15708143D01*
X9545476Y-15708143D02*
X9564524Y-15717667D01*
X9564524Y-15717667D02*
X9574048Y-15727190D01*
X9574048Y-15727190D02*
X9583572Y-15746238D01*
X9583572Y-15746238D02*
X9583572Y-15803381D01*
X9583572Y-15803381D02*
X9574048Y-15822428D01*
X9574048Y-15822428D02*
X9564524Y-15831952D01*
X9564524Y-15831952D02*
X9545476Y-15841476D01*
X9545476Y-15841476D02*
X9516905Y-15841476D01*
X9697857Y-15841476D02*
X9678810Y-15831952D01*
X9678810Y-15831952D02*
X9669286Y-15812905D01*
X9669286Y-15812905D02*
X9669286Y-15641476D01*
X9850238Y-15831952D02*
X9831191Y-15841476D01*
X9831191Y-15841476D02*
X9793095Y-15841476D01*
X9793095Y-15841476D02*
X9774048Y-15831952D01*
X9774048Y-15831952D02*
X9764524Y-15812905D01*
X9764524Y-15812905D02*
X9764524Y-15736714D01*
X9764524Y-15736714D02*
X9774048Y-15717667D01*
X9774048Y-15717667D02*
X9793095Y-15708143D01*
X9793095Y-15708143D02*
X9831191Y-15708143D01*
X9831191Y-15708143D02*
X9850238Y-15717667D01*
X9850238Y-15717667D02*
X9859762Y-15736714D01*
X9859762Y-15736714D02*
X9859762Y-15755762D01*
X9859762Y-15755762D02*
X9764524Y-15774809D01*
X9935953Y-15831952D02*
X9955000Y-15841476D01*
X9955000Y-15841476D02*
X9993095Y-15841476D01*
X9993095Y-15841476D02*
X10012143Y-15831952D01*
X10012143Y-15831952D02*
X10021667Y-15812905D01*
X10021667Y-15812905D02*
X10021667Y-15803381D01*
X10021667Y-15803381D02*
X10012143Y-15784333D01*
X10012143Y-15784333D02*
X9993095Y-15774809D01*
X9993095Y-15774809D02*
X9964524Y-15774809D01*
X9964524Y-15774809D02*
X9945476Y-15765286D01*
X9945476Y-15765286D02*
X9935953Y-15746238D01*
X9935953Y-15746238D02*
X9935953Y-15736714D01*
X9935953Y-15736714D02*
X9945476Y-15717667D01*
X9945476Y-15717667D02*
X9964524Y-15708143D01*
X9964524Y-15708143D02*
X9993095Y-15708143D01*
X9993095Y-15708143D02*
X10012143Y-15717667D01*
X10088334Y-15917667D02*
X10097857Y-15908143D01*
X10097857Y-15908143D02*
X10116905Y-15879571D01*
X10116905Y-15879571D02*
X10126429Y-15860524D01*
X10126429Y-15860524D02*
X10135953Y-15831952D01*
X10135953Y-15831952D02*
X10145476Y-15784333D01*
X10145476Y-15784333D02*
X10145476Y-15746238D01*
X10145476Y-15746238D02*
X10135953Y-15698619D01*
X10135953Y-15698619D02*
X10126429Y-15670048D01*
X10126429Y-15670048D02*
X10116905Y-15651000D01*
X10116905Y-15651000D02*
X10097857Y-15622428D01*
X10097857Y-15622428D02*
X10088334Y-15612905D01*
D14*
X5030000Y-15987000D02*
X5030000Y-16077000D01*
X4985000Y-16032000D02*
X5075000Y-16032000D01*
D11*
X5360714Y-15905476D02*
X5379762Y-15905476D01*
X5379762Y-15905476D02*
X5398810Y-15915000D01*
X5398810Y-15915000D02*
X5408333Y-15924524D01*
X5408333Y-15924524D02*
X5417857Y-15943571D01*
X5417857Y-15943571D02*
X5427381Y-15981667D01*
X5427381Y-15981667D02*
X5427381Y-16029286D01*
X5427381Y-16029286D02*
X5417857Y-16067381D01*
X5417857Y-16067381D02*
X5408333Y-16086428D01*
X5408333Y-16086428D02*
X5398810Y-16095952D01*
X5398810Y-16095952D02*
X5379762Y-16105476D01*
X5379762Y-16105476D02*
X5360714Y-16105476D01*
X5360714Y-16105476D02*
X5341667Y-16095952D01*
X5341667Y-16095952D02*
X5332143Y-16086428D01*
X5332143Y-16086428D02*
X5322619Y-16067381D01*
X5322619Y-16067381D02*
X5313095Y-16029286D01*
X5313095Y-16029286D02*
X5313095Y-15981667D01*
X5313095Y-15981667D02*
X5322619Y-15943571D01*
X5322619Y-15943571D02*
X5332143Y-15924524D01*
X5332143Y-15924524D02*
X5341667Y-15915000D01*
X5341667Y-15915000D02*
X5360714Y-15905476D01*
X5513095Y-16086428D02*
X5522619Y-16095952D01*
X5522619Y-16095952D02*
X5513095Y-16105476D01*
X5513095Y-16105476D02*
X5503571Y-16095952D01*
X5503571Y-16095952D02*
X5513095Y-16086428D01*
X5513095Y-16086428D02*
X5513095Y-16105476D01*
X5617857Y-16105476D02*
X5655952Y-16105476D01*
X5655952Y-16105476D02*
X5675000Y-16095952D01*
X5675000Y-16095952D02*
X5684524Y-16086428D01*
X5684524Y-16086428D02*
X5703571Y-16057857D01*
X5703571Y-16057857D02*
X5713095Y-16019762D01*
X5713095Y-16019762D02*
X5713095Y-15943571D01*
X5713095Y-15943571D02*
X5703571Y-15924524D01*
X5703571Y-15924524D02*
X5694048Y-15915000D01*
X5694048Y-15915000D02*
X5675000Y-15905476D01*
X5675000Y-15905476D02*
X5636905Y-15905476D01*
X5636905Y-15905476D02*
X5617857Y-15915000D01*
X5617857Y-15915000D02*
X5608333Y-15924524D01*
X5608333Y-15924524D02*
X5598809Y-15943571D01*
X5598809Y-15943571D02*
X5598809Y-15991190D01*
X5598809Y-15991190D02*
X5608333Y-16010238D01*
X5608333Y-16010238D02*
X5617857Y-16019762D01*
X5617857Y-16019762D02*
X5636905Y-16029286D01*
X5636905Y-16029286D02*
X5675000Y-16029286D01*
X5675000Y-16029286D02*
X5694048Y-16019762D01*
X5694048Y-16019762D02*
X5703571Y-16010238D01*
X5703571Y-16010238D02*
X5713095Y-15991190D01*
X5836905Y-15905476D02*
X5855952Y-15905476D01*
X5855952Y-15905476D02*
X5875000Y-15915000D01*
X5875000Y-15915000D02*
X5884524Y-15924524D01*
X5884524Y-15924524D02*
X5894048Y-15943571D01*
X5894048Y-15943571D02*
X5903571Y-15981667D01*
X5903571Y-15981667D02*
X5903571Y-16029286D01*
X5903571Y-16029286D02*
X5894048Y-16067381D01*
X5894048Y-16067381D02*
X5884524Y-16086428D01*
X5884524Y-16086428D02*
X5875000Y-16095952D01*
X5875000Y-16095952D02*
X5855952Y-16105476D01*
X5855952Y-16105476D02*
X5836905Y-16105476D01*
X5836905Y-16105476D02*
X5817857Y-16095952D01*
X5817857Y-16095952D02*
X5808333Y-16086428D01*
X5808333Y-16086428D02*
X5798809Y-16067381D01*
X5798809Y-16067381D02*
X5789286Y-16029286D01*
X5789286Y-16029286D02*
X5789286Y-15981667D01*
X5789286Y-15981667D02*
X5798809Y-15943571D01*
X5798809Y-15943571D02*
X5808333Y-15924524D01*
X5808333Y-15924524D02*
X5817857Y-15915000D01*
X5817857Y-15915000D02*
X5836905Y-15905476D01*
X6027381Y-15905476D02*
X6046429Y-15905476D01*
X6046429Y-15905476D02*
X6065476Y-15915000D01*
X6065476Y-15915000D02*
X6075000Y-15924524D01*
X6075000Y-15924524D02*
X6084524Y-15943571D01*
X6084524Y-15943571D02*
X6094048Y-15981667D01*
X6094048Y-15981667D02*
X6094048Y-16029286D01*
X6094048Y-16029286D02*
X6084524Y-16067381D01*
X6084524Y-16067381D02*
X6075000Y-16086428D01*
X6075000Y-16086428D02*
X6065476Y-16095952D01*
X6065476Y-16095952D02*
X6046429Y-16105476D01*
X6046429Y-16105476D02*
X6027381Y-16105476D01*
X6027381Y-16105476D02*
X6008333Y-16095952D01*
X6008333Y-16095952D02*
X5998809Y-16086428D01*
X5998809Y-16086428D02*
X5989286Y-16067381D01*
X5989286Y-16067381D02*
X5979762Y-16029286D01*
X5979762Y-16029286D02*
X5979762Y-15981667D01*
X5979762Y-15981667D02*
X5989286Y-15943571D01*
X5989286Y-15943571D02*
X5998809Y-15924524D01*
X5998809Y-15924524D02*
X6008333Y-15915000D01*
X6008333Y-15915000D02*
X6027381Y-15905476D01*
X6179762Y-16105476D02*
X6179762Y-15972143D01*
X6179762Y-15991190D02*
X6189286Y-15981667D01*
X6189286Y-15981667D02*
X6208333Y-15972143D01*
X6208333Y-15972143D02*
X6236905Y-15972143D01*
X6236905Y-15972143D02*
X6255952Y-15981667D01*
X6255952Y-15981667D02*
X6265476Y-16000714D01*
X6265476Y-16000714D02*
X6265476Y-16105476D01*
X6265476Y-16000714D02*
X6275000Y-15981667D01*
X6275000Y-15981667D02*
X6294048Y-15972143D01*
X6294048Y-15972143D02*
X6322619Y-15972143D01*
X6322619Y-15972143D02*
X6341667Y-15981667D01*
X6341667Y-15981667D02*
X6351190Y-16000714D01*
X6351190Y-16000714D02*
X6351190Y-16105476D01*
X6446429Y-16105476D02*
X6446429Y-15972143D01*
X6446429Y-15991190D02*
X6455952Y-15981667D01*
X6455952Y-15981667D02*
X6475000Y-15972143D01*
X6475000Y-15972143D02*
X6503571Y-15972143D01*
X6503571Y-15972143D02*
X6522619Y-15981667D01*
X6522619Y-15981667D02*
X6532143Y-16000714D01*
X6532143Y-16000714D02*
X6532143Y-16105476D01*
X6532143Y-16000714D02*
X6541667Y-15981667D01*
X6541667Y-15981667D02*
X6560714Y-15972143D01*
X6560714Y-15972143D02*
X6589286Y-15972143D01*
X6589286Y-15972143D02*
X6608333Y-15981667D01*
X6608333Y-15981667D02*
X6617857Y-16000714D01*
X6617857Y-16000714D02*
X6617857Y-16105476D01*
X6975952Y-15895952D02*
X6804524Y-16153095D01*
X7200714Y-15905476D02*
X7219762Y-15905476D01*
X7219762Y-15905476D02*
X7238810Y-15915000D01*
X7238810Y-15915000D02*
X7248333Y-15924524D01*
X7248333Y-15924524D02*
X7257857Y-15943571D01*
X7257857Y-15943571D02*
X7267381Y-15981667D01*
X7267381Y-15981667D02*
X7267381Y-16029286D01*
X7267381Y-16029286D02*
X7257857Y-16067381D01*
X7257857Y-16067381D02*
X7248333Y-16086428D01*
X7248333Y-16086428D02*
X7238810Y-16095952D01*
X7238810Y-16095952D02*
X7219762Y-16105476D01*
X7219762Y-16105476D02*
X7200714Y-16105476D01*
X7200714Y-16105476D02*
X7181667Y-16095952D01*
X7181667Y-16095952D02*
X7172143Y-16086428D01*
X7172143Y-16086428D02*
X7162619Y-16067381D01*
X7162619Y-16067381D02*
X7153095Y-16029286D01*
X7153095Y-16029286D02*
X7153095Y-15981667D01*
X7153095Y-15981667D02*
X7162619Y-15943571D01*
X7162619Y-15943571D02*
X7172143Y-15924524D01*
X7172143Y-15924524D02*
X7181667Y-15915000D01*
X7181667Y-15915000D02*
X7200714Y-15905476D01*
X7353095Y-16086428D02*
X7362619Y-16095952D01*
X7362619Y-16095952D02*
X7353095Y-16105476D01*
X7353095Y-16105476D02*
X7343571Y-16095952D01*
X7343571Y-16095952D02*
X7353095Y-16086428D01*
X7353095Y-16086428D02*
X7353095Y-16105476D01*
X7486429Y-15905476D02*
X7505476Y-15905476D01*
X7505476Y-15905476D02*
X7524524Y-15915000D01*
X7524524Y-15915000D02*
X7534048Y-15924524D01*
X7534048Y-15924524D02*
X7543571Y-15943571D01*
X7543571Y-15943571D02*
X7553095Y-15981667D01*
X7553095Y-15981667D02*
X7553095Y-16029286D01*
X7553095Y-16029286D02*
X7543571Y-16067381D01*
X7543571Y-16067381D02*
X7534048Y-16086428D01*
X7534048Y-16086428D02*
X7524524Y-16095952D01*
X7524524Y-16095952D02*
X7505476Y-16105476D01*
X7505476Y-16105476D02*
X7486429Y-16105476D01*
X7486429Y-16105476D02*
X7467381Y-16095952D01*
X7467381Y-16095952D02*
X7457857Y-16086428D01*
X7457857Y-16086428D02*
X7448333Y-16067381D01*
X7448333Y-16067381D02*
X7438810Y-16029286D01*
X7438810Y-16029286D02*
X7438810Y-15981667D01*
X7438810Y-15981667D02*
X7448333Y-15943571D01*
X7448333Y-15943571D02*
X7457857Y-15924524D01*
X7457857Y-15924524D02*
X7467381Y-15915000D01*
X7467381Y-15915000D02*
X7486429Y-15905476D01*
X7619762Y-15905476D02*
X7743571Y-15905476D01*
X7743571Y-15905476D02*
X7676905Y-15981667D01*
X7676905Y-15981667D02*
X7705476Y-15981667D01*
X7705476Y-15981667D02*
X7724524Y-15991190D01*
X7724524Y-15991190D02*
X7734048Y-16000714D01*
X7734048Y-16000714D02*
X7743571Y-16019762D01*
X7743571Y-16019762D02*
X7743571Y-16067381D01*
X7743571Y-16067381D02*
X7734048Y-16086428D01*
X7734048Y-16086428D02*
X7724524Y-16095952D01*
X7724524Y-16095952D02*
X7705476Y-16105476D01*
X7705476Y-16105476D02*
X7648333Y-16105476D01*
X7648333Y-16105476D02*
X7629286Y-16095952D01*
X7629286Y-16095952D02*
X7619762Y-16086428D01*
X7924524Y-15905476D02*
X7829286Y-15905476D01*
X7829286Y-15905476D02*
X7819762Y-16000714D01*
X7819762Y-16000714D02*
X7829286Y-15991190D01*
X7829286Y-15991190D02*
X7848333Y-15981667D01*
X7848333Y-15981667D02*
X7895952Y-15981667D01*
X7895952Y-15981667D02*
X7915000Y-15991190D01*
X7915000Y-15991190D02*
X7924524Y-16000714D01*
X7924524Y-16000714D02*
X7934048Y-16019762D01*
X7934048Y-16019762D02*
X7934048Y-16067381D01*
X7934048Y-16067381D02*
X7924524Y-16086428D01*
X7924524Y-16086428D02*
X7915000Y-16095952D01*
X7915000Y-16095952D02*
X7895952Y-16105476D01*
X7895952Y-16105476D02*
X7848333Y-16105476D01*
X7848333Y-16105476D02*
X7829286Y-16095952D01*
X7829286Y-16095952D02*
X7819762Y-16086428D01*
X8105476Y-15972143D02*
X8105476Y-16105476D01*
X8057857Y-15895952D02*
X8010238Y-16038809D01*
X8010238Y-16038809D02*
X8134048Y-16038809D01*
X8200714Y-15905476D02*
X8200714Y-15943571D01*
X8276905Y-15905476D02*
X8276905Y-15943571D01*
X8539762Y-16181667D02*
X8530238Y-16172143D01*
X8530238Y-16172143D02*
X8511191Y-16143571D01*
X8511191Y-16143571D02*
X8501667Y-16124524D01*
X8501667Y-16124524D02*
X8492143Y-16095952D01*
X8492143Y-16095952D02*
X8482619Y-16048333D01*
X8482619Y-16048333D02*
X8482619Y-16010238D01*
X8482619Y-16010238D02*
X8492143Y-15962619D01*
X8492143Y-15962619D02*
X8501667Y-15934048D01*
X8501667Y-15934048D02*
X8511191Y-15915000D01*
X8511191Y-15915000D02*
X8530238Y-15886428D01*
X8530238Y-15886428D02*
X8539762Y-15876905D01*
X8701667Y-15905476D02*
X8663572Y-15905476D01*
X8663572Y-15905476D02*
X8644524Y-15915000D01*
X8644524Y-15915000D02*
X8635000Y-15924524D01*
X8635000Y-15924524D02*
X8615953Y-15953095D01*
X8615953Y-15953095D02*
X8606429Y-15991190D01*
X8606429Y-15991190D02*
X8606429Y-16067381D01*
X8606429Y-16067381D02*
X8615953Y-16086428D01*
X8615953Y-16086428D02*
X8625476Y-16095952D01*
X8625476Y-16095952D02*
X8644524Y-16105476D01*
X8644524Y-16105476D02*
X8682619Y-16105476D01*
X8682619Y-16105476D02*
X8701667Y-16095952D01*
X8701667Y-16095952D02*
X8711191Y-16086428D01*
X8711191Y-16086428D02*
X8720714Y-16067381D01*
X8720714Y-16067381D02*
X8720714Y-16019762D01*
X8720714Y-16019762D02*
X8711191Y-16000714D01*
X8711191Y-16000714D02*
X8701667Y-15991190D01*
X8701667Y-15991190D02*
X8682619Y-15981667D01*
X8682619Y-15981667D02*
X8644524Y-15981667D01*
X8644524Y-15981667D02*
X8625476Y-15991190D01*
X8625476Y-15991190D02*
X8615953Y-16000714D01*
X8615953Y-16000714D02*
X8606429Y-16019762D01*
X8926429Y-16105476D02*
X8926429Y-15905476D01*
X9012143Y-16105476D02*
X9012143Y-16000714D01*
X9012143Y-16000714D02*
X9002619Y-15981667D01*
X9002619Y-15981667D02*
X8983572Y-15972143D01*
X8983572Y-15972143D02*
X8955000Y-15972143D01*
X8955000Y-15972143D02*
X8935953Y-15981667D01*
X8935953Y-15981667D02*
X8926429Y-15991190D01*
X9135953Y-16105476D02*
X9116905Y-16095952D01*
X9116905Y-16095952D02*
X9107381Y-16086428D01*
X9107381Y-16086428D02*
X9097857Y-16067381D01*
X9097857Y-16067381D02*
X9097857Y-16010238D01*
X9097857Y-16010238D02*
X9107381Y-15991190D01*
X9107381Y-15991190D02*
X9116905Y-15981667D01*
X9116905Y-15981667D02*
X9135953Y-15972143D01*
X9135953Y-15972143D02*
X9164524Y-15972143D01*
X9164524Y-15972143D02*
X9183572Y-15981667D01*
X9183572Y-15981667D02*
X9193095Y-15991190D01*
X9193095Y-15991190D02*
X9202619Y-16010238D01*
X9202619Y-16010238D02*
X9202619Y-16067381D01*
X9202619Y-16067381D02*
X9193095Y-16086428D01*
X9193095Y-16086428D02*
X9183572Y-16095952D01*
X9183572Y-16095952D02*
X9164524Y-16105476D01*
X9164524Y-16105476D02*
X9135953Y-16105476D01*
X9316905Y-16105476D02*
X9297857Y-16095952D01*
X9297857Y-16095952D02*
X9288334Y-16076905D01*
X9288334Y-16076905D02*
X9288334Y-15905476D01*
X9469286Y-16095952D02*
X9450238Y-16105476D01*
X9450238Y-16105476D02*
X9412143Y-16105476D01*
X9412143Y-16105476D02*
X9393095Y-16095952D01*
X9393095Y-16095952D02*
X9383572Y-16076905D01*
X9383572Y-16076905D02*
X9383572Y-16000714D01*
X9383572Y-16000714D02*
X9393095Y-15981667D01*
X9393095Y-15981667D02*
X9412143Y-15972143D01*
X9412143Y-15972143D02*
X9450238Y-15972143D01*
X9450238Y-15972143D02*
X9469286Y-15981667D01*
X9469286Y-15981667D02*
X9478810Y-16000714D01*
X9478810Y-16000714D02*
X9478810Y-16019762D01*
X9478810Y-16019762D02*
X9383572Y-16038809D01*
X9555000Y-16095952D02*
X9574048Y-16105476D01*
X9574048Y-16105476D02*
X9612143Y-16105476D01*
X9612143Y-16105476D02*
X9631191Y-16095952D01*
X9631191Y-16095952D02*
X9640715Y-16076905D01*
X9640715Y-16076905D02*
X9640715Y-16067381D01*
X9640715Y-16067381D02*
X9631191Y-16048333D01*
X9631191Y-16048333D02*
X9612143Y-16038809D01*
X9612143Y-16038809D02*
X9583572Y-16038809D01*
X9583572Y-16038809D02*
X9564524Y-16029286D01*
X9564524Y-16029286D02*
X9555000Y-16010238D01*
X9555000Y-16010238D02*
X9555000Y-16000714D01*
X9555000Y-16000714D02*
X9564524Y-15981667D01*
X9564524Y-15981667D02*
X9583572Y-15972143D01*
X9583572Y-15972143D02*
X9612143Y-15972143D01*
X9612143Y-15972143D02*
X9631191Y-15981667D01*
X9707381Y-16181667D02*
X9716905Y-16172143D01*
X9716905Y-16172143D02*
X9735953Y-16143571D01*
X9735953Y-16143571D02*
X9745476Y-16124524D01*
X9745476Y-16124524D02*
X9755000Y-16095952D01*
X9755000Y-16095952D02*
X9764524Y-16048333D01*
X9764524Y-16048333D02*
X9764524Y-16010238D01*
X9764524Y-16010238D02*
X9755000Y-15962619D01*
X9755000Y-15962619D02*
X9745476Y-15934048D01*
X9745476Y-15934048D02*
X9735953Y-15915000D01*
X9735953Y-15915000D02*
X9716905Y-15886428D01*
X9716905Y-15886428D02*
X9707381Y-15876905D01*
D10*
X5060356Y-16331356D02*
X5060356Y-16260644D01*
X4989644Y-16260644D01*
X4989644Y-16331356D01*
X5060356Y-16331356D01*
D11*
X5427381Y-16369476D02*
X5313095Y-16369476D01*
X5370238Y-16369476D02*
X5370238Y-16169476D01*
X5370238Y-16169476D02*
X5351190Y-16198048D01*
X5351190Y-16198048D02*
X5332143Y-16217095D01*
X5332143Y-16217095D02*
X5313095Y-16226619D01*
X5513095Y-16350428D02*
X5522619Y-16359952D01*
X5522619Y-16359952D02*
X5513095Y-16369476D01*
X5513095Y-16369476D02*
X5503571Y-16359952D01*
X5503571Y-16359952D02*
X5513095Y-16350428D01*
X5513095Y-16350428D02*
X5513095Y-16369476D01*
X5646428Y-16169476D02*
X5665476Y-16169476D01*
X5665476Y-16169476D02*
X5684524Y-16179000D01*
X5684524Y-16179000D02*
X5694048Y-16188524D01*
X5694048Y-16188524D02*
X5703571Y-16207571D01*
X5703571Y-16207571D02*
X5713095Y-16245667D01*
X5713095Y-16245667D02*
X5713095Y-16293286D01*
X5713095Y-16293286D02*
X5703571Y-16331381D01*
X5703571Y-16331381D02*
X5694048Y-16350428D01*
X5694048Y-16350428D02*
X5684524Y-16359952D01*
X5684524Y-16359952D02*
X5665476Y-16369476D01*
X5665476Y-16369476D02*
X5646428Y-16369476D01*
X5646428Y-16369476D02*
X5627381Y-16359952D01*
X5627381Y-16359952D02*
X5617857Y-16350428D01*
X5617857Y-16350428D02*
X5608333Y-16331381D01*
X5608333Y-16331381D02*
X5598809Y-16293286D01*
X5598809Y-16293286D02*
X5598809Y-16245667D01*
X5598809Y-16245667D02*
X5608333Y-16207571D01*
X5608333Y-16207571D02*
X5617857Y-16188524D01*
X5617857Y-16188524D02*
X5627381Y-16179000D01*
X5627381Y-16179000D02*
X5646428Y-16169476D01*
X5836905Y-16169476D02*
X5855952Y-16169476D01*
X5855952Y-16169476D02*
X5875000Y-16179000D01*
X5875000Y-16179000D02*
X5884524Y-16188524D01*
X5884524Y-16188524D02*
X5894048Y-16207571D01*
X5894048Y-16207571D02*
X5903571Y-16245667D01*
X5903571Y-16245667D02*
X5903571Y-16293286D01*
X5903571Y-16293286D02*
X5894048Y-16331381D01*
X5894048Y-16331381D02*
X5884524Y-16350428D01*
X5884524Y-16350428D02*
X5875000Y-16359952D01*
X5875000Y-16359952D02*
X5855952Y-16369476D01*
X5855952Y-16369476D02*
X5836905Y-16369476D01*
X5836905Y-16369476D02*
X5817857Y-16359952D01*
X5817857Y-16359952D02*
X5808333Y-16350428D01*
X5808333Y-16350428D02*
X5798809Y-16331381D01*
X5798809Y-16331381D02*
X5789286Y-16293286D01*
X5789286Y-16293286D02*
X5789286Y-16245667D01*
X5789286Y-16245667D02*
X5798809Y-16207571D01*
X5798809Y-16207571D02*
X5808333Y-16188524D01*
X5808333Y-16188524D02*
X5817857Y-16179000D01*
X5817857Y-16179000D02*
X5836905Y-16169476D01*
X6027381Y-16169476D02*
X6046429Y-16169476D01*
X6046429Y-16169476D02*
X6065476Y-16179000D01*
X6065476Y-16179000D02*
X6075000Y-16188524D01*
X6075000Y-16188524D02*
X6084524Y-16207571D01*
X6084524Y-16207571D02*
X6094048Y-16245667D01*
X6094048Y-16245667D02*
X6094048Y-16293286D01*
X6094048Y-16293286D02*
X6084524Y-16331381D01*
X6084524Y-16331381D02*
X6075000Y-16350428D01*
X6075000Y-16350428D02*
X6065476Y-16359952D01*
X6065476Y-16359952D02*
X6046429Y-16369476D01*
X6046429Y-16369476D02*
X6027381Y-16369476D01*
X6027381Y-16369476D02*
X6008333Y-16359952D01*
X6008333Y-16359952D02*
X5998809Y-16350428D01*
X5998809Y-16350428D02*
X5989286Y-16331381D01*
X5989286Y-16331381D02*
X5979762Y-16293286D01*
X5979762Y-16293286D02*
X5979762Y-16245667D01*
X5979762Y-16245667D02*
X5989286Y-16207571D01*
X5989286Y-16207571D02*
X5998809Y-16188524D01*
X5998809Y-16188524D02*
X6008333Y-16179000D01*
X6008333Y-16179000D02*
X6027381Y-16169476D01*
X6179762Y-16369476D02*
X6179762Y-16236143D01*
X6179762Y-16255190D02*
X6189286Y-16245667D01*
X6189286Y-16245667D02*
X6208333Y-16236143D01*
X6208333Y-16236143D02*
X6236905Y-16236143D01*
X6236905Y-16236143D02*
X6255952Y-16245667D01*
X6255952Y-16245667D02*
X6265476Y-16264714D01*
X6265476Y-16264714D02*
X6265476Y-16369476D01*
X6265476Y-16264714D02*
X6275000Y-16245667D01*
X6275000Y-16245667D02*
X6294048Y-16236143D01*
X6294048Y-16236143D02*
X6322619Y-16236143D01*
X6322619Y-16236143D02*
X6341667Y-16245667D01*
X6341667Y-16245667D02*
X6351190Y-16264714D01*
X6351190Y-16264714D02*
X6351190Y-16369476D01*
X6446429Y-16369476D02*
X6446429Y-16236143D01*
X6446429Y-16255190D02*
X6455952Y-16245667D01*
X6455952Y-16245667D02*
X6475000Y-16236143D01*
X6475000Y-16236143D02*
X6503571Y-16236143D01*
X6503571Y-16236143D02*
X6522619Y-16245667D01*
X6522619Y-16245667D02*
X6532143Y-16264714D01*
X6532143Y-16264714D02*
X6532143Y-16369476D01*
X6532143Y-16264714D02*
X6541667Y-16245667D01*
X6541667Y-16245667D02*
X6560714Y-16236143D01*
X6560714Y-16236143D02*
X6589286Y-16236143D01*
X6589286Y-16236143D02*
X6608333Y-16245667D01*
X6608333Y-16245667D02*
X6617857Y-16264714D01*
X6617857Y-16264714D02*
X6617857Y-16369476D01*
X6975952Y-16159952D02*
X6804524Y-16417095D01*
X7200714Y-16169476D02*
X7219762Y-16169476D01*
X7219762Y-16169476D02*
X7238810Y-16179000D01*
X7238810Y-16179000D02*
X7248333Y-16188524D01*
X7248333Y-16188524D02*
X7257857Y-16207571D01*
X7257857Y-16207571D02*
X7267381Y-16245667D01*
X7267381Y-16245667D02*
X7267381Y-16293286D01*
X7267381Y-16293286D02*
X7257857Y-16331381D01*
X7257857Y-16331381D02*
X7248333Y-16350428D01*
X7248333Y-16350428D02*
X7238810Y-16359952D01*
X7238810Y-16359952D02*
X7219762Y-16369476D01*
X7219762Y-16369476D02*
X7200714Y-16369476D01*
X7200714Y-16369476D02*
X7181667Y-16359952D01*
X7181667Y-16359952D02*
X7172143Y-16350428D01*
X7172143Y-16350428D02*
X7162619Y-16331381D01*
X7162619Y-16331381D02*
X7153095Y-16293286D01*
X7153095Y-16293286D02*
X7153095Y-16245667D01*
X7153095Y-16245667D02*
X7162619Y-16207571D01*
X7162619Y-16207571D02*
X7172143Y-16188524D01*
X7172143Y-16188524D02*
X7181667Y-16179000D01*
X7181667Y-16179000D02*
X7200714Y-16169476D01*
X7353095Y-16350428D02*
X7362619Y-16359952D01*
X7362619Y-16359952D02*
X7353095Y-16369476D01*
X7353095Y-16369476D02*
X7343571Y-16359952D01*
X7343571Y-16359952D02*
X7353095Y-16350428D01*
X7353095Y-16350428D02*
X7353095Y-16369476D01*
X7486429Y-16169476D02*
X7505476Y-16169476D01*
X7505476Y-16169476D02*
X7524524Y-16179000D01*
X7524524Y-16179000D02*
X7534048Y-16188524D01*
X7534048Y-16188524D02*
X7543571Y-16207571D01*
X7543571Y-16207571D02*
X7553095Y-16245667D01*
X7553095Y-16245667D02*
X7553095Y-16293286D01*
X7553095Y-16293286D02*
X7543571Y-16331381D01*
X7543571Y-16331381D02*
X7534048Y-16350428D01*
X7534048Y-16350428D02*
X7524524Y-16359952D01*
X7524524Y-16359952D02*
X7505476Y-16369476D01*
X7505476Y-16369476D02*
X7486429Y-16369476D01*
X7486429Y-16369476D02*
X7467381Y-16359952D01*
X7467381Y-16359952D02*
X7457857Y-16350428D01*
X7457857Y-16350428D02*
X7448333Y-16331381D01*
X7448333Y-16331381D02*
X7438810Y-16293286D01*
X7438810Y-16293286D02*
X7438810Y-16245667D01*
X7438810Y-16245667D02*
X7448333Y-16207571D01*
X7448333Y-16207571D02*
X7457857Y-16188524D01*
X7457857Y-16188524D02*
X7467381Y-16179000D01*
X7467381Y-16179000D02*
X7486429Y-16169476D01*
X7619762Y-16169476D02*
X7743571Y-16169476D01*
X7743571Y-16169476D02*
X7676905Y-16245667D01*
X7676905Y-16245667D02*
X7705476Y-16245667D01*
X7705476Y-16245667D02*
X7724524Y-16255190D01*
X7724524Y-16255190D02*
X7734048Y-16264714D01*
X7734048Y-16264714D02*
X7743571Y-16283762D01*
X7743571Y-16283762D02*
X7743571Y-16331381D01*
X7743571Y-16331381D02*
X7734048Y-16350428D01*
X7734048Y-16350428D02*
X7724524Y-16359952D01*
X7724524Y-16359952D02*
X7705476Y-16369476D01*
X7705476Y-16369476D02*
X7648333Y-16369476D01*
X7648333Y-16369476D02*
X7629286Y-16359952D01*
X7629286Y-16359952D02*
X7619762Y-16350428D01*
X7838810Y-16369476D02*
X7876905Y-16369476D01*
X7876905Y-16369476D02*
X7895952Y-16359952D01*
X7895952Y-16359952D02*
X7905476Y-16350428D01*
X7905476Y-16350428D02*
X7924524Y-16321857D01*
X7924524Y-16321857D02*
X7934048Y-16283762D01*
X7934048Y-16283762D02*
X7934048Y-16207571D01*
X7934048Y-16207571D02*
X7924524Y-16188524D01*
X7924524Y-16188524D02*
X7915000Y-16179000D01*
X7915000Y-16179000D02*
X7895952Y-16169476D01*
X7895952Y-16169476D02*
X7857857Y-16169476D01*
X7857857Y-16169476D02*
X7838810Y-16179000D01*
X7838810Y-16179000D02*
X7829286Y-16188524D01*
X7829286Y-16188524D02*
X7819762Y-16207571D01*
X7819762Y-16207571D02*
X7819762Y-16255190D01*
X7819762Y-16255190D02*
X7829286Y-16274238D01*
X7829286Y-16274238D02*
X7838810Y-16283762D01*
X7838810Y-16283762D02*
X7857857Y-16293286D01*
X7857857Y-16293286D02*
X7895952Y-16293286D01*
X7895952Y-16293286D02*
X7915000Y-16283762D01*
X7915000Y-16283762D02*
X7924524Y-16274238D01*
X7924524Y-16274238D02*
X7934048Y-16255190D01*
X8105476Y-16236143D02*
X8105476Y-16369476D01*
X8057857Y-16159952D02*
X8010238Y-16302809D01*
X8010238Y-16302809D02*
X8134048Y-16302809D01*
X8200714Y-16169476D02*
X8200714Y-16207571D01*
X8276905Y-16169476D02*
X8276905Y-16207571D01*
X8539762Y-16445667D02*
X8530238Y-16436143D01*
X8530238Y-16436143D02*
X8511191Y-16407571D01*
X8511191Y-16407571D02*
X8501667Y-16388524D01*
X8501667Y-16388524D02*
X8492143Y-16359952D01*
X8492143Y-16359952D02*
X8482619Y-16312333D01*
X8482619Y-16312333D02*
X8482619Y-16274238D01*
X8482619Y-16274238D02*
X8492143Y-16226619D01*
X8492143Y-16226619D02*
X8501667Y-16198048D01*
X8501667Y-16198048D02*
X8511191Y-16179000D01*
X8511191Y-16179000D02*
X8530238Y-16150428D01*
X8530238Y-16150428D02*
X8539762Y-16140905D01*
X8720714Y-16369476D02*
X8606429Y-16369476D01*
X8663572Y-16369476D02*
X8663572Y-16169476D01*
X8663572Y-16169476D02*
X8644524Y-16198048D01*
X8644524Y-16198048D02*
X8625476Y-16217095D01*
X8625476Y-16217095D02*
X8606429Y-16226619D01*
X8796905Y-16188524D02*
X8806429Y-16179000D01*
X8806429Y-16179000D02*
X8825476Y-16169476D01*
X8825476Y-16169476D02*
X8873095Y-16169476D01*
X8873095Y-16169476D02*
X8892143Y-16179000D01*
X8892143Y-16179000D02*
X8901667Y-16188524D01*
X8901667Y-16188524D02*
X8911191Y-16207571D01*
X8911191Y-16207571D02*
X8911191Y-16226619D01*
X8911191Y-16226619D02*
X8901667Y-16255190D01*
X8901667Y-16255190D02*
X8787381Y-16369476D01*
X8787381Y-16369476D02*
X8911191Y-16369476D01*
X8987381Y-16188524D02*
X8996905Y-16179000D01*
X8996905Y-16179000D02*
X9015953Y-16169476D01*
X9015953Y-16169476D02*
X9063572Y-16169476D01*
X9063572Y-16169476D02*
X9082619Y-16179000D01*
X9082619Y-16179000D02*
X9092143Y-16188524D01*
X9092143Y-16188524D02*
X9101667Y-16207571D01*
X9101667Y-16207571D02*
X9101667Y-16226619D01*
X9101667Y-16226619D02*
X9092143Y-16255190D01*
X9092143Y-16255190D02*
X8977857Y-16369476D01*
X8977857Y-16369476D02*
X9101667Y-16369476D01*
X9307381Y-16369476D02*
X9307381Y-16169476D01*
X9393095Y-16369476D02*
X9393095Y-16264714D01*
X9393095Y-16264714D02*
X9383572Y-16245667D01*
X9383572Y-16245667D02*
X9364524Y-16236143D01*
X9364524Y-16236143D02*
X9335953Y-16236143D01*
X9335953Y-16236143D02*
X9316905Y-16245667D01*
X9316905Y-16245667D02*
X9307381Y-16255190D01*
X9516905Y-16369476D02*
X9497857Y-16359952D01*
X9497857Y-16359952D02*
X9488334Y-16350428D01*
X9488334Y-16350428D02*
X9478810Y-16331381D01*
X9478810Y-16331381D02*
X9478810Y-16274238D01*
X9478810Y-16274238D02*
X9488334Y-16255190D01*
X9488334Y-16255190D02*
X9497857Y-16245667D01*
X9497857Y-16245667D02*
X9516905Y-16236143D01*
X9516905Y-16236143D02*
X9545476Y-16236143D01*
X9545476Y-16236143D02*
X9564524Y-16245667D01*
X9564524Y-16245667D02*
X9574048Y-16255190D01*
X9574048Y-16255190D02*
X9583572Y-16274238D01*
X9583572Y-16274238D02*
X9583572Y-16331381D01*
X9583572Y-16331381D02*
X9574048Y-16350428D01*
X9574048Y-16350428D02*
X9564524Y-16359952D01*
X9564524Y-16359952D02*
X9545476Y-16369476D01*
X9545476Y-16369476D02*
X9516905Y-16369476D01*
X9697857Y-16369476D02*
X9678810Y-16359952D01*
X9678810Y-16359952D02*
X9669286Y-16340905D01*
X9669286Y-16340905D02*
X9669286Y-16169476D01*
X9850238Y-16359952D02*
X9831191Y-16369476D01*
X9831191Y-16369476D02*
X9793095Y-16369476D01*
X9793095Y-16369476D02*
X9774048Y-16359952D01*
X9774048Y-16359952D02*
X9764524Y-16340905D01*
X9764524Y-16340905D02*
X9764524Y-16264714D01*
X9764524Y-16264714D02*
X9774048Y-16245667D01*
X9774048Y-16245667D02*
X9793095Y-16236143D01*
X9793095Y-16236143D02*
X9831191Y-16236143D01*
X9831191Y-16236143D02*
X9850238Y-16245667D01*
X9850238Y-16245667D02*
X9859762Y-16264714D01*
X9859762Y-16264714D02*
X9859762Y-16283762D01*
X9859762Y-16283762D02*
X9764524Y-16302809D01*
X9935953Y-16359952D02*
X9955000Y-16369476D01*
X9955000Y-16369476D02*
X9993095Y-16369476D01*
X9993095Y-16369476D02*
X10012143Y-16359952D01*
X10012143Y-16359952D02*
X10021667Y-16340905D01*
X10021667Y-16340905D02*
X10021667Y-16331381D01*
X10021667Y-16331381D02*
X10012143Y-16312333D01*
X10012143Y-16312333D02*
X9993095Y-16302809D01*
X9993095Y-16302809D02*
X9964524Y-16302809D01*
X9964524Y-16302809D02*
X9945476Y-16293286D01*
X9945476Y-16293286D02*
X9935953Y-16274238D01*
X9935953Y-16274238D02*
X9935953Y-16264714D01*
X9935953Y-16264714D02*
X9945476Y-16245667D01*
X9945476Y-16245667D02*
X9964524Y-16236143D01*
X9964524Y-16236143D02*
X9993095Y-16236143D01*
X9993095Y-16236143D02*
X10012143Y-16245667D01*
X10088334Y-16445667D02*
X10097857Y-16436143D01*
X10097857Y-16436143D02*
X10116905Y-16407571D01*
X10116905Y-16407571D02*
X10126429Y-16388524D01*
X10126429Y-16388524D02*
X10135953Y-16359952D01*
X10135953Y-16359952D02*
X10145476Y-16312333D01*
X10145476Y-16312333D02*
X10145476Y-16274238D01*
X10145476Y-16274238D02*
X10135953Y-16226619D01*
X10135953Y-16226619D02*
X10126429Y-16198048D01*
X10126429Y-16198048D02*
X10116905Y-16179000D01*
X10116905Y-16179000D02*
X10097857Y-16150428D01*
X10097857Y-16150428D02*
X10088334Y-16140905D01*
M02*
