M48
; DRILL file {KiCad (7.0.0)} date Thu Mar 28 20:38:47 2024
; FORMAT={-:-/ absolute / metric / decimal}
; #@! TF.CreationDate,2024-03-28T20:38:47-07:00
; #@! TF.GenerationSoftware,Kicad,Pcbnew,(7.0.0)
; #@! TF.FileFunction,Plated,1,2,PTH
FMAT,2
METRIC
; #@! TA.AperFunction,Plated,PTH,ViaDrill
T1C0.381
; #@! TA.AperFunction,Plated,PTH,ComponentDrill
T2C0.800
; #@! TA.AperFunction,Plated,PTH,ComponentDrill
T3C0.900
; #@! TA.AperFunction,Plated,PTH,ComponentDrill
T4C1.000
%
G90
G05
T1
X55.118Y-113.284
X56.134Y-109.474
X56.896Y-106.68
X57.404Y-114.046
X58.166Y-96.52
X62.23Y-94.234
X64.77Y-96.52
X65.024Y-109.474
X65.532Y-90.932
X67.31Y-59.436
X68.834Y-139.954
X69.85Y-140.97
X71.12Y-83.82
X72.39Y-89.408
X73.66Y-89.408
X77.47Y-105.41
X78.74Y-83.82
X78.74Y-89.408
X80.01Y-92.456
X81.28Y-100.838
X81.28Y-103.886
X81.28Y-140.462
X82.55Y-116.586
X82.55Y-118.11
X83.566Y-117.348
X85.344Y-120.904
X85.344Y-122.174
X86.36Y-104.394
X86.36Y-109.474
X87.122Y-88.392
X87.63Y-110.236
X87.63Y-120.904
X88.138Y-133.096
X88.646Y-88.392
X88.9Y-122.174
X89.662Y-84.582
X89.662Y-110.236
X89.662Y-115.57
X89.916Y-82.296
X90.297Y-132.969
X90.424Y-114.808
X90.424Y-116.332
X91.186Y-100.33
X92.202Y-105.41
X92.71Y-85.598
X92.964Y-110.236
X93.218Y-104.394
X93.218Y-114.808
X93.218Y-116.332
X93.726Y-84.074
X94.234Y-115.57
X94.742Y-88.392
X95.504Y-63.246
X95.504Y-104.394
X95.504Y-110.236
X96.266Y-88.392
X96.266Y-124.968
X97.282Y-110.236
X97.282Y-125.984
X98.298Y-104.394
X99.06Y-66.802
X99.314Y-97.79
X99.314Y-115.57
X99.314Y-121.666
X105.41Y-84.328
X105.41Y-90.17
X105.41Y-106.68
X106.68Y-89.662
X107.95Y-106.68
X109.22Y-71.628
X109.22Y-73.152
X110.49Y-95.25
X111.76Y-71.628
X111.76Y-73.914
X111.76Y-90.678
X111.76Y-100.584
X111.76Y-102.616
X114.3Y-71.628
X114.3Y-74.676
X116.84Y-71.628
X116.84Y-75.438
X118.11Y-89.662
X119.38Y-71.628
X119.38Y-76.2
X121.92Y-71.628
X121.92Y-76.962
X124.46Y-71.628
X124.46Y-77.724
X125.984Y-87.122
X125.984Y-89.662
X125.984Y-94.996
X125.984Y-98.044
X127.0Y-71.628
X127.0Y-78.486
X129.54Y-71.628
X129.54Y-79.248
X132.08Y-71.628
X132.08Y-80.01
X134.62Y-71.628
X134.62Y-80.772
X137.16Y-71.628
X137.16Y-81.534
X137.16Y-89.662
X139.7Y-71.628
X139.7Y-82.296
X142.24Y-71.628
X142.24Y-83.058
X144.78Y-71.628
X144.78Y-83.82
X148.59Y-52.578
X152.4Y-89.408
X155.194Y-88.392
X155.448Y-64.262
X156.972Y-88.392
X157.48Y-62.23
X157.48Y-102.87
X157.48Y-105.156
X157.48Y-107.442
X157.48Y-109.728
X164.338Y-68.834
X166.116Y-68.834
X170.942Y-102.87
X170.942Y-105.156
X170.942Y-107.442
X170.942Y-109.728
X171.958Y-88.392
X173.736Y-88.392
X179.324Y-75.438
X181.356Y-100.584
X181.737Y-92.329
X184.15Y-91.44
X185.674Y-88.646
X185.674Y-114.046
X187.706Y-71.374
X189.484Y-71.374
X190.754Y-84.328
X193.294Y-84.328
X193.294Y-97.028
X195.834Y-84.328
X195.834Y-97.028
X195.834Y-109.728
X198.374Y-84.328
X198.374Y-97.028
X198.374Y-109.728
X200.914Y-84.328
X200.914Y-97.028
X200.914Y-109.728
X203.454Y-84.328
X203.454Y-97.028
X203.454Y-109.728
X210.312Y-75.438
X210.312Y-88.138
X210.312Y-100.838
X210.312Y-114.046
X212.852Y-71.374
X214.884Y-71.374
X219.456Y-75.438
X219.456Y-88.138
X219.456Y-100.838
X219.456Y-114.046
X222.504Y-114.046
X232.41Y-88.646
X234.95Y-88.646
X234.95Y-101.346
X237.49Y-88.646
X237.49Y-101.346
X240.03Y-88.646
X240.03Y-101.346
X242.57Y-88.646
X242.57Y-101.346
X245.11Y-88.646
X245.11Y-101.346
T2
X54.102Y-57.404
X54.102Y-67.564
X56.134Y-136.604
X56.134Y-139.104
X60.96Y-86.36
X60.96Y-91.36
X60.96Y-99.06
X60.96Y-104.06
X60.96Y-111.76
X60.96Y-116.76
X60.96Y-124.46
X60.96Y-129.46
X66.04Y-86.36
X66.04Y-93.98
X66.04Y-99.06
X66.04Y-106.68
X66.04Y-111.76
X66.04Y-119.38
X66.04Y-124.46
X66.04Y-132.08
X68.58Y-86.36
X68.58Y-93.98
X68.58Y-99.06
X68.58Y-106.68
X68.58Y-111.76
X68.58Y-119.38
X68.58Y-124.46
X68.58Y-132.08
X71.12Y-86.36
X71.12Y-93.98
X71.12Y-99.06
X71.12Y-106.68
X71.12Y-111.76
X71.12Y-119.38
X71.12Y-124.46
X71.12Y-132.08
X73.66Y-81.28
X73.66Y-86.36
X73.66Y-93.98
X73.66Y-99.06
X73.66Y-106.68
X73.66Y-111.76
X73.66Y-119.38
X73.66Y-124.46
X73.66Y-132.08
X76.2Y-86.36
X76.2Y-93.98
X76.2Y-99.06
X76.2Y-106.68
X76.2Y-111.76
X76.2Y-119.38
X76.2Y-124.46
X76.2Y-132.08
X78.74Y-86.36
X78.74Y-93.98
X78.74Y-99.06
X78.74Y-106.68
X78.74Y-111.76
X78.74Y-119.38
X78.74Y-124.46
X78.74Y-132.08
X81.28Y-86.36
X81.28Y-93.98
X81.28Y-99.06
X81.28Y-106.68
X81.28Y-111.76
X81.28Y-119.38
X81.28Y-124.46
X81.28Y-132.08
X83.82Y-81.28
X83.82Y-99.06
X83.82Y-106.68
X83.82Y-111.76
X83.82Y-119.38
X83.82Y-124.46
X83.82Y-132.08
X86.36Y-99.06
X86.36Y-106.68
X86.36Y-111.76
X86.36Y-119.38
X88.9Y-99.06
X88.9Y-106.68
X88.9Y-111.76
X88.9Y-119.38
X99.06Y-86.36
X99.06Y-91.36
X104.14Y-86.36
X104.14Y-93.98
X106.68Y-86.36
X106.68Y-93.98
X106.68Y-110.236
X106.68Y-120.396
X109.22Y-86.36
X109.22Y-93.98
X111.76Y-86.36
X111.76Y-93.98
X113.792Y-78.78
X113.792Y-81.28
X114.3Y-86.36
X114.3Y-93.98
X116.84Y-86.36
X116.84Y-93.98
X119.38Y-86.36
X119.38Y-93.98
X129.54Y-86.36
X129.54Y-91.36
X129.54Y-111.76
X129.54Y-116.76
X134.62Y-86.36
X134.62Y-93.98
X134.62Y-106.68
X134.62Y-111.76
X134.62Y-119.38
X137.16Y-86.36
X137.16Y-93.98
X137.16Y-106.68
X137.16Y-111.76
X137.16Y-119.38
X139.7Y-86.36
X139.7Y-93.98
X139.7Y-106.68
X139.7Y-111.76
X139.7Y-119.38
X142.24Y-86.36
X142.24Y-93.98
X142.24Y-106.68
X142.24Y-111.76
X142.24Y-119.38
X144.78Y-86.36
X144.78Y-93.98
X144.78Y-106.68
X144.78Y-111.76
X144.78Y-119.38
X147.32Y-86.36
X147.32Y-93.98
X147.32Y-111.76
X147.32Y-119.38
X148.59Y-54.69
X148.59Y-59.69
X149.86Y-86.36
X149.86Y-93.98
X149.86Y-111.76
X149.86Y-119.38
X152.4Y-54.605
X152.4Y-57.145
X152.4Y-59.685
X152.4Y-62.225
X152.4Y-64.765
X152.4Y-67.305
X152.4Y-69.845
X152.4Y-111.76
X152.4Y-119.38
X160.02Y-54.605
X160.02Y-57.145
X160.02Y-59.685
X160.02Y-62.225
X160.02Y-64.765
X160.02Y-67.305
X160.02Y-69.845
X180.26Y-73.66
X180.26Y-78.66
X180.26Y-86.36
X180.26Y-91.36
X180.34Y-99.06
X180.34Y-104.06
X180.34Y-111.76
X180.34Y-116.76
X185.42Y-73.66
X185.42Y-81.28
X185.42Y-86.36
X185.42Y-93.98
X185.42Y-99.06
X185.42Y-106.68
X185.42Y-111.76
X185.42Y-119.38
X186.69Y-53.34
X186.69Y-63.5
X187.96Y-73.66
X187.96Y-81.28
X187.96Y-86.36
X187.96Y-93.98
X187.96Y-99.06
X187.96Y-106.68
X187.96Y-111.76
X187.96Y-119.38
X190.5Y-73.66
X190.5Y-81.28
X190.5Y-86.36
X190.5Y-93.98
X190.5Y-99.06
X190.5Y-106.68
X190.5Y-111.76
X190.5Y-119.38
X191.77Y-53.34
X191.77Y-63.5
X193.04Y-73.66
X193.04Y-81.28
X193.04Y-86.36
X193.04Y-93.98
X193.04Y-99.06
X193.04Y-106.68
X193.04Y-111.76
X193.04Y-119.38
X195.58Y-73.66
X195.58Y-81.28
X195.58Y-86.36
X195.58Y-93.98
X195.58Y-99.06
X195.58Y-106.68
X195.58Y-111.76
X195.58Y-119.38
X196.85Y-53.34
X196.85Y-63.5
X198.12Y-73.66
X198.12Y-81.28
X198.12Y-86.36
X198.12Y-93.98
X198.12Y-99.06
X198.12Y-106.68
X198.12Y-111.76
X198.12Y-119.38
X200.66Y-73.66
X200.66Y-81.28
X200.66Y-86.36
X200.66Y-93.98
X200.66Y-99.06
X200.66Y-106.68
X200.66Y-111.76
X200.66Y-119.38
X203.2Y-73.66
X203.2Y-81.28
X203.2Y-86.36
X203.2Y-93.98
X203.2Y-99.06
X203.2Y-106.68
X203.2Y-111.76
X203.2Y-119.38
X205.74Y-73.66
X205.74Y-81.28
X205.74Y-86.36
X205.74Y-93.98
X205.74Y-99.06
X205.74Y-106.68
X205.74Y-111.76
X205.74Y-119.38
X208.28Y-73.66
X208.28Y-81.28
X208.28Y-86.36
X208.28Y-93.98
X208.28Y-99.06
X208.28Y-106.68
X208.28Y-111.76
X208.28Y-119.38
X213.36Y-121.92
X215.86Y-121.92
X218.36Y-99.06
X218.36Y-104.06
X218.36Y-111.76
X218.36Y-116.76
X218.44Y-73.66
X218.44Y-78.66
X218.44Y-86.36
X218.44Y-91.36
X223.52Y-73.66
X223.52Y-81.28
X223.52Y-86.36
X223.52Y-93.98
X223.52Y-99.06
X223.52Y-106.68
X223.52Y-111.76
X223.52Y-119.38
X226.06Y-73.66
X226.06Y-81.28
X226.06Y-86.36
X226.06Y-93.98
X226.06Y-99.06
X226.06Y-106.68
X226.06Y-111.76
X226.06Y-119.38
X228.6Y-73.66
X228.6Y-81.28
X228.6Y-86.36
X228.6Y-93.98
X228.6Y-99.06
X228.6Y-106.68
X228.6Y-111.76
X228.6Y-119.38
X231.14Y-73.66
X231.14Y-81.28
X231.14Y-86.36
X231.14Y-93.98
X231.14Y-99.06
X231.14Y-106.68
X231.14Y-111.76
X231.14Y-119.38
X233.68Y-73.66
X233.68Y-81.28
X233.68Y-86.36
X233.68Y-93.98
X233.68Y-99.06
X233.68Y-106.68
X233.68Y-111.76
X233.68Y-119.38
X236.22Y-73.66
X236.22Y-81.28
X236.22Y-86.36
X236.22Y-93.98
X236.22Y-99.06
X236.22Y-106.68
X236.22Y-111.76
X236.22Y-119.38
X238.76Y-73.66
X238.76Y-81.28
X238.76Y-86.36
X238.76Y-93.98
X238.76Y-99.06
X238.76Y-106.68
X238.76Y-111.76
X238.76Y-119.38
X241.3Y-73.66
X241.3Y-81.28
X241.3Y-86.36
X241.3Y-93.98
X241.3Y-99.06
X241.3Y-106.68
X241.3Y-111.76
X241.3Y-119.38
X243.84Y-73.66
X243.84Y-81.28
X243.84Y-86.36
X243.84Y-93.98
X243.84Y-99.06
X243.84Y-106.68
X243.84Y-111.76
X243.84Y-119.38
X246.38Y-73.66
X246.38Y-81.28
X246.38Y-86.36
X246.38Y-93.98
X246.38Y-99.06
X246.38Y-106.68
X246.38Y-111.76
X246.38Y-119.38
T3
X166.624Y-63.5
X169.164Y-63.5
X172.974Y-63.5
X175.514Y-63.5
X179.324Y-63.5
X181.864Y-63.5
T4
X58.42Y-60.96
X60.96Y-60.96
X60.96Y-71.12
X60.96Y-73.66
X60.96Y-76.2
X60.96Y-78.74
X60.96Y-144.78
X63.5Y-60.96
X63.5Y-144.78
X66.04Y-60.96
X66.04Y-144.78
X68.58Y-60.96
X68.58Y-144.78
X71.12Y-60.96
X71.12Y-144.78
X73.66Y-60.96
X73.66Y-144.78
X76.2Y-144.78
X78.74Y-144.78
X81.28Y-144.78
X83.82Y-144.78
X86.36Y-144.78
X88.9Y-144.78
X91.44Y-144.78
X93.98Y-144.78
X101.6Y-144.78
X104.14Y-99.06
X104.14Y-101.6
X104.14Y-104.14
X104.14Y-144.78
X106.68Y-60.96
X106.68Y-144.78
X109.22Y-60.96
X109.22Y-101.6
X109.22Y-104.14
X109.22Y-144.78
X111.76Y-60.96
X111.76Y-144.78
X114.3Y-60.96
X114.3Y-101.6
X114.3Y-104.14
X114.3Y-144.78
X116.84Y-60.96
X116.84Y-101.6
X116.84Y-104.14
X116.84Y-144.78
X119.38Y-60.96
X119.38Y-101.6
X119.38Y-104.14
X119.38Y-144.78
X121.92Y-60.96
X121.92Y-101.6
X121.92Y-104.14
X121.92Y-144.78
X124.46Y-60.96
X124.46Y-101.6
X124.46Y-104.14
X124.46Y-144.78
X127.0Y-60.96
X127.0Y-101.6
X127.0Y-104.14
X127.0Y-144.78
X129.54Y-60.96
X129.54Y-144.78
X132.08Y-60.96
X132.08Y-144.78
X134.62Y-60.96
X134.62Y-144.78
X137.16Y-60.96
X137.16Y-144.78
X139.7Y-60.96
X139.7Y-144.78
X142.24Y-60.96
X144.78Y-60.96
X165.1Y-144.78
X167.64Y-144.78
X170.18Y-144.78
X172.72Y-144.78
X175.26Y-144.78
X177.8Y-144.78
X180.34Y-144.78
X182.88Y-144.78
X185.42Y-144.78
X187.96Y-144.78
X190.5Y-144.78
X193.04Y-144.78
X195.58Y-144.78
X198.12Y-144.78
X200.66Y-144.78
X203.2Y-144.78
X205.74Y-144.78
X208.28Y-60.96
X208.28Y-144.78
X210.82Y-60.96
X210.82Y-144.78
X213.36Y-60.96
X213.36Y-144.78
X215.9Y-60.96
X215.9Y-144.78
X218.44Y-60.96
X218.44Y-144.78
X220.98Y-60.96
X220.98Y-144.78
X223.52Y-60.96
X223.52Y-144.78
X226.06Y-60.96
X226.06Y-144.78
X228.6Y-60.96
X228.6Y-144.78
X231.14Y-60.96
X231.14Y-144.78
X233.68Y-60.96
X233.68Y-144.78
X236.22Y-60.96
X236.22Y-144.78
X238.76Y-60.96
X238.76Y-144.78
X241.3Y-60.96
X241.3Y-144.78
X243.84Y-60.96
X243.84Y-144.78
X246.38Y-60.96
T0
M30
