M48
; DRILL file {KiCad (7.0.0)} date Thu Mar 28 20:59:38 2024
; FORMAT={-:-/ absolute / metric / decimal}
; #@! TF.CreationDate,2024-03-28T20:59:38-07:00
; #@! TF.GenerationSoftware,Kicad,Pcbnew,(7.0.0)
; #@! TF.FileFunction,Plated,1,2,PTH
FMAT,2
METRIC
; #@! TA.AperFunction,Plated,PTH,ViaDrill
T1C0.381
; #@! TA.AperFunction,Plated,PTH,ComponentDrill
T2C0.800
; #@! TA.AperFunction,Plated,PTH,ComponentDrill
T3C1.000
%
G90
G05
T1
X60.96Y-71.628
X60.96Y-74.168
X66.04Y-130.556
X68.58Y-71.628
X68.58Y-75.692
X68.58Y-102.362
X68.58Y-104.902
X71.12Y-71.628
X71.12Y-75.692
X72.39Y-108.966
X73.66Y-71.628
X73.66Y-75.692
X73.66Y-108.966
X77.216Y-130.556
X77.724Y-82.296
X77.724Y-85.09
X77.724Y-95.504
X77.724Y-102.616
X79.248Y-79.248
X79.248Y-85.852
X79.248Y-93.726
X79.248Y-103.632
X79.756Y-130.556
X80.264Y-108.966
X81.534Y-108.966
X88.9Y-130.302
X92.71Y-132.588
X93.98Y-102.87
X93.98Y-104.394
X93.98Y-123.952
X93.992Y-122.385
X94.742Y-74.676
X94.742Y-82.296
X95.758Y-99.822
X96.52Y-102.108
X96.52Y-104.394
X96.52Y-121.666
X96.52Y-123.952
X99.06Y-101.346
X99.06Y-104.394
X99.06Y-120.904
X99.06Y-123.952
X101.6Y-91.44
X101.6Y-111.76
X101.6Y-131.572
X107.696Y-84.074
X108.966Y-84.074
X119.38Y-97.536
X119.38Y-104.394
X119.38Y-120.142
X119.38Y-123.952
X120.65Y-96.774
X120.65Y-99.822
X121.412Y-62.23
X121.92Y-96.774
X121.92Y-104.394
X121.92Y-119.38
X121.92Y-123.952
X122.682Y-62.23
X124.46Y-96.012
X124.46Y-99.06
X124.46Y-118.618
X124.46Y-123.952
X127.0Y-96.012
X127.0Y-98.298
X127.0Y-117.856
X127.0Y-123.952
X129.54Y-110.236
X129.54Y-131.826
X134.112Y-82.042
X135.89Y-74.93
X136.906Y-95.25
X136.906Y-100.584
X138.176Y-95.25
X138.176Y-101.346
X139.446Y-95.25
X139.446Y-102.108
X140.462Y-72.136
X142.24Y-97.536
X142.24Y-117.094
X142.24Y-118.618
X143.51Y-122.428
X143.51Y-123.952
X144.78Y-119.38
X144.78Y-123.952
X145.288Y-64.008
X147.32Y-103.632
X147.32Y-117.094
X147.32Y-123.19
X149.352Y-76.2
X149.86Y-120.142
X149.86Y-123.952
X149.86Y-129.54
X150.622Y-89.662
X151.13Y-121.666
X151.13Y-123.952
X152.4Y-102.87
X152.4Y-129.54
X152.4Y-132.842
X154.94Y-88.9
X154.94Y-120.904
X154.94Y-123.952
X155.702Y-81.026
X157.48Y-81.788
X158.75Y-82.55
X159.766Y-84.074
X160.274Y-80.264
X160.528Y-117.094
X160.528Y-124.714
X160.782Y-88.9
X160.782Y-90.424
X160.782Y-91.948
X160.782Y-106.172
X160.782Y-107.696
X161.036Y-84.074
X161.544Y-88.138
X161.544Y-89.662
X161.544Y-91.186
X161.544Y-92.71
X161.544Y-106.934
X161.544Y-116.332
X161.544Y-123.952
X162.306Y-95.25
X162.306Y-102.87
X163.068Y-96.012
X163.068Y-103.632
X163.068Y-117.094
X163.068Y-118.618
X163.83Y-95.25
X163.83Y-102.87
X163.83Y-116.332
X163.83Y-119.38
X164.592Y-96.012
X164.592Y-103.632
X164.592Y-117.094
X164.592Y-120.142
X165.354Y-95.25
X165.354Y-102.87
X165.354Y-116.332
X165.354Y-120.904
X166.116Y-96.012
X166.116Y-103.632
X166.116Y-117.094
X166.116Y-121.666
X166.878Y-95.25
X166.878Y-102.87
X166.878Y-116.332
X166.878Y-122.428
X167.64Y-96.012
X167.64Y-103.632
X167.64Y-117.094
X167.64Y-123.19
X168.402Y-96.774
X168.402Y-106.934
X169.164Y-97.536
X169.164Y-106.172
X169.164Y-107.696
X172.974Y-101.346
X174.498Y-88.9
X174.498Y-90.424
X174.498Y-91.948
X174.498Y-97.536
X174.498Y-101.346
X175.26Y-88.138
X175.26Y-89.662
X175.26Y-91.186
X175.26Y-92.71
X175.26Y-96.774
X183.134Y-82.55
X183.134Y-89.916
X183.134Y-110.744
X183.896Y-81.788
X183.896Y-90.678
X183.896Y-109.982
X184.658Y-81.026
X184.658Y-91.44
X184.658Y-109.22
X185.42Y-80.264
X185.42Y-92.202
X185.42Y-108.458
X186.69Y-85.598
X186.69Y-86.868
X186.69Y-92.456
X186.69Y-93.726
X188.468Y-111.76
X189.738Y-111.76
X189.738Y-132.334
X189.738Y-139.954
X189.992Y-97.028
X189.992Y-99.314
X190.754Y-96.266
X190.754Y-103.886
X191.262Y-132.334
X191.262Y-134.62
X194.818Y-97.028
X194.818Y-98.552
X195.326Y-132.334
X195.326Y-139.192
X196.342Y-131.318
X196.342Y-142.24
X196.85Y-97.028
X196.85Y-101.6
X197.358Y-132.334
X197.358Y-141.478
X197.866Y-96.266
X197.866Y-100.838
X198.374Y-131.318
X198.374Y-138.43
X198.882Y-97.028
X198.882Y-107.696
X199.136Y-110.744
X199.898Y-60.706
X199.898Y-75.438
X200.66Y-59.69
X200.66Y-74.676
X201.422Y-57.15
X201.422Y-73.914
X202.184Y-59.69
X202.438Y-97.028
X202.438Y-102.362
X202.438Y-132.334
X202.438Y-137.668
X204.47Y-97.028
X204.47Y-104.648
X204.978Y-132.334
X204.978Y-139.954
X205.486Y-96.266
X205.486Y-99.314
X206.248Y-131.318
X206.248Y-134.62
X206.502Y-97.028
X206.502Y-103.886
X208.28Y-67.818
X210.566Y-132.334
X210.566Y-139.192
X210.82Y-68.58
X211.074Y-97.79
X211.074Y-106.172
X211.582Y-131.318
X211.582Y-136.906
X212.09Y-98.552
X212.09Y-100.838
X212.598Y-132.334
X212.598Y-141.478
X213.106Y-97.79
X213.106Y-102.362
X213.36Y-69.342
X213.614Y-131.318
X213.614Y-138.43
X214.122Y-98.552
X214.122Y-107.696
X214.376Y-110.744
X214.63Y-75.438
X215.9Y-70.104
X217.678Y-132.334
X217.678Y-137.668
X218.44Y-70.866
X219.456Y-98.552
X219.456Y-104.648
X220.472Y-132.334
X220.472Y-135.382
X220.98Y-71.628
X221.488Y-98.552
X221.488Y-103.886
X221.488Y-131.318
X221.488Y-134.62
X223.52Y-72.39
X225.044Y-132.334
X225.044Y-136.144
X225.298Y-98.552
X225.298Y-105.41
X226.06Y-73.152
X226.06Y-131.318
X226.06Y-136.906
X226.314Y-97.79
X226.314Y-101.6
X227.33Y-98.552
X227.33Y-100.838
X227.33Y-132.334
X227.33Y-141.478
X228.346Y-97.79
X228.346Y-102.362
X228.6Y-131.318
X228.6Y-138.43
X229.362Y-98.552
X229.362Y-107.696
X229.616Y-110.744
X229.616Y-132.334
X229.616Y-137.668
X229.87Y-74.676
X234.696Y-132.334
X234.696Y-136.144
X235.966Y-132.334
X235.966Y-139.954
X237.236Y-132.334
X237.236Y-140.716
X240.284Y-132.334
X240.284Y-142.24
X240.538Y-100.838
X240.538Y-104.648
X241.3Y-131.318
X241.3Y-141.478
X241.554Y-100.076
X241.554Y-105.41
X242.57Y-132.334
X242.57Y-138.43
X243.586Y-102.108
X243.586Y-104.14
T2
X58.42Y-100.33
X58.42Y-106.68
X58.42Y-114.3
X58.42Y-121.92
X58.42Y-127.0
X58.42Y-134.62
X60.96Y-127.0
X60.96Y-134.62
X63.42Y-100.33
X63.42Y-121.92
X63.5Y-127.0
X63.5Y-134.62
X66.04Y-106.68
X66.04Y-114.3
X66.04Y-127.0
X66.04Y-134.62
X68.58Y-127.0
X68.58Y-134.62
X71.12Y-127.0
X71.12Y-134.62
X73.66Y-127.0
X73.66Y-134.62
X76.2Y-127.0
X76.2Y-134.62
X81.28Y-86.36
X81.28Y-91.36
X81.28Y-106.68
X81.28Y-111.68
X81.28Y-119.38
X81.28Y-121.88
X81.28Y-127.0
X81.28Y-132.0
X86.36Y-86.36
X86.36Y-93.98
X86.36Y-106.68
X86.36Y-114.3
X86.36Y-127.0
X86.36Y-134.62
X88.9Y-86.36
X88.9Y-93.98
X88.9Y-106.68
X88.9Y-114.3
X88.9Y-127.0
X88.9Y-134.62
X91.44Y-86.36
X91.44Y-93.98
X91.44Y-106.68
X91.44Y-114.3
X91.44Y-127.0
X91.44Y-134.62
X93.98Y-86.36
X93.98Y-93.98
X93.98Y-106.68
X93.98Y-114.3
X93.98Y-127.0
X93.98Y-134.62
X96.52Y-86.36
X96.52Y-93.98
X96.52Y-106.68
X96.52Y-114.3
X96.52Y-127.0
X96.52Y-134.62
X99.06Y-86.36
X99.06Y-93.98
X99.06Y-106.68
X99.06Y-114.3
X99.06Y-127.0
X99.06Y-134.62
X99.1Y-66.04
X101.6Y-66.04
X101.6Y-86.36
X101.6Y-93.98
X101.6Y-106.68
X101.6Y-114.3
X101.6Y-127.0
X101.6Y-134.62
X104.14Y-86.36
X104.14Y-93.98
X104.14Y-106.68
X104.14Y-114.3
X104.14Y-127.0
X104.14Y-134.62
X109.22Y-106.68
X109.22Y-111.68
X109.22Y-127.0
X109.22Y-132.0
X111.76Y-66.04
X111.76Y-71.04
X111.76Y-86.36
X111.76Y-91.36
X114.3Y-106.68
X114.3Y-114.3
X114.3Y-127.0
X114.3Y-134.62
X116.84Y-66.04
X116.84Y-73.66
X116.84Y-86.36
X116.84Y-93.98
X116.84Y-106.68
X116.84Y-114.3
X116.84Y-127.0
X116.84Y-134.62
X119.38Y-66.04
X119.38Y-73.66
X119.38Y-86.36
X119.38Y-93.98
X119.38Y-106.68
X119.38Y-114.3
X119.38Y-127.0
X119.38Y-134.62
X121.92Y-66.04
X121.92Y-73.66
X121.92Y-86.36
X121.92Y-93.98
X121.92Y-106.68
X121.92Y-114.3
X121.92Y-127.0
X121.92Y-134.62
X124.46Y-66.04
X124.46Y-73.66
X124.46Y-86.36
X124.46Y-93.98
X124.46Y-106.68
X124.46Y-114.3
X124.46Y-127.0
X124.46Y-134.62
X127.0Y-66.04
X127.0Y-73.66
X127.0Y-86.36
X127.0Y-93.98
X127.0Y-106.68
X127.0Y-114.3
X127.0Y-127.0
X127.0Y-134.62
X129.54Y-66.04
X129.54Y-73.66
X129.54Y-86.36
X129.54Y-93.98
X129.54Y-106.68
X129.54Y-114.3
X129.54Y-127.0
X129.54Y-134.62
X132.08Y-66.04
X132.08Y-73.66
X132.08Y-86.36
X132.08Y-93.98
X132.08Y-106.68
X132.08Y-114.3
X132.08Y-127.0
X132.08Y-134.62
X137.16Y-66.04
X137.16Y-71.04
X137.16Y-86.36
X137.16Y-91.36
X137.16Y-106.68
X137.16Y-111.68
X137.16Y-127.0
X137.16Y-132.0
X142.235Y-106.68
X142.235Y-114.3
X142.24Y-66.04
X142.24Y-73.66
X142.24Y-86.36
X142.24Y-93.98
X142.24Y-127.0
X142.24Y-134.62
X144.775Y-106.68
X144.775Y-114.3
X144.78Y-66.04
X144.78Y-73.66
X144.78Y-86.36
X144.78Y-93.98
X144.78Y-127.0
X144.78Y-134.62
X147.315Y-106.68
X147.315Y-114.3
X147.32Y-66.04
X147.32Y-73.66
X147.32Y-86.36
X147.32Y-93.98
X147.32Y-127.0
X147.32Y-134.62
X149.855Y-106.68
X149.855Y-114.3
X149.86Y-66.04
X149.86Y-73.66
X149.86Y-86.36
X149.86Y-93.98
X149.86Y-127.0
X149.86Y-134.62
X152.395Y-106.68
X152.395Y-114.3
X152.4Y-66.04
X152.4Y-73.66
X152.4Y-86.36
X152.4Y-93.98
X152.4Y-127.0
X152.4Y-134.62
X154.935Y-106.68
X154.935Y-114.3
X154.94Y-66.04
X154.94Y-73.66
X154.94Y-86.36
X154.94Y-93.98
X154.94Y-127.0
X154.94Y-134.62
X157.475Y-106.68
X157.475Y-114.3
X157.48Y-66.04
X157.48Y-73.66
X157.48Y-86.36
X157.48Y-93.98
X157.48Y-127.0
X157.48Y-134.62
X182.92Y-119.38
X185.42Y-119.38
X193.04Y-78.74
X193.04Y-81.28
X193.04Y-83.82
X193.04Y-86.36
X193.04Y-88.9
X193.04Y-91.44
X193.04Y-93.98
X193.04Y-114.3
X193.04Y-116.84
X193.04Y-119.38
X193.04Y-121.92
X193.04Y-124.46
X193.04Y-127.0
X193.04Y-129.54
X200.66Y-78.74
X200.66Y-81.28
X200.66Y-83.82
X200.66Y-86.36
X200.66Y-88.9
X200.66Y-91.44
X200.66Y-93.98
X200.66Y-114.3
X200.66Y-116.84
X200.66Y-119.38
X200.66Y-121.92
X200.66Y-124.46
X200.66Y-127.0
X200.66Y-129.54
X204.47Y-78.74
X204.47Y-83.74
X204.47Y-114.3
X204.47Y-119.3
X208.28Y-78.74
X208.28Y-81.28
X208.28Y-83.82
X208.28Y-86.36
X208.28Y-88.9
X208.28Y-91.44
X208.28Y-93.98
X208.28Y-114.3
X208.28Y-116.84
X208.28Y-119.38
X208.28Y-121.92
X208.28Y-124.46
X208.28Y-127.0
X208.28Y-129.54
X215.9Y-78.74
X215.9Y-81.28
X215.9Y-83.82
X215.9Y-86.36
X215.9Y-88.9
X215.9Y-91.44
X215.9Y-93.98
X215.9Y-114.3
X215.9Y-116.84
X215.9Y-119.38
X215.9Y-121.92
X215.9Y-124.46
X215.9Y-127.0
X215.9Y-129.54
X219.71Y-78.74
X219.71Y-83.74
X219.71Y-114.3
X219.71Y-119.3
X223.52Y-78.74
X223.52Y-81.28
X223.52Y-83.82
X223.52Y-86.36
X223.52Y-88.9
X223.52Y-91.44
X223.52Y-93.98
X223.52Y-114.3
X223.52Y-116.84
X223.52Y-119.38
X223.52Y-121.92
X223.52Y-124.46
X223.52Y-127.0
X223.52Y-129.54
X231.14Y-78.74
X231.14Y-81.28
X231.14Y-83.82
X231.14Y-86.36
X231.14Y-88.9
X231.14Y-91.44
X231.14Y-93.98
X231.14Y-114.3
X231.14Y-116.84
X231.14Y-119.38
X231.14Y-121.92
X231.14Y-124.46
X231.14Y-127.0
X231.14Y-129.54
X234.95Y-78.74
X234.95Y-83.74
X234.95Y-114.3
X234.95Y-119.3
X238.76Y-78.74
X238.76Y-81.28
X238.76Y-83.82
X238.76Y-86.36
X238.76Y-88.9
X238.76Y-91.44
X238.76Y-93.98
X238.76Y-114.3
X238.76Y-116.84
X238.76Y-119.38
X238.76Y-121.92
X238.76Y-124.46
X238.76Y-127.0
X238.76Y-129.54
X241.38Y-73.66
X241.38Y-109.22
X246.38Y-73.66
X246.38Y-78.74
X246.38Y-81.28
X246.38Y-83.82
X246.38Y-86.36
X246.38Y-88.9
X246.38Y-91.44
X246.38Y-93.98
X246.38Y-109.22
X246.38Y-114.3
X246.38Y-116.84
X246.38Y-119.38
X246.38Y-121.92
X246.38Y-124.46
X246.38Y-127.0
X246.38Y-129.54
T3
X58.42Y-60.96
X58.42Y-78.74
X58.42Y-88.9
X60.96Y-60.96
X60.96Y-78.74
X60.96Y-88.9
X60.96Y-144.78
X63.5Y-60.96
X63.5Y-144.78
X66.04Y-60.96
X66.04Y-144.78
X68.58Y-60.96
X68.58Y-144.78
X71.12Y-60.96
X71.12Y-144.78
X73.66Y-60.96
X73.66Y-144.78
X76.2Y-144.78
X78.74Y-144.78
X81.28Y-144.78
X83.82Y-144.78
X86.36Y-144.78
X88.9Y-144.78
X91.44Y-144.78
X93.98Y-144.78
X101.6Y-144.78
X104.14Y-144.78
X106.68Y-144.78
X109.22Y-144.78
X111.506Y-79.248
X111.76Y-144.78
X114.046Y-79.248
X114.3Y-144.78
X116.84Y-144.78
X119.38Y-144.78
X120.65Y-79.248
X121.92Y-144.78
X123.19Y-79.248
X124.46Y-144.78
X127.0Y-144.78
X129.54Y-144.78
X132.08Y-144.78
X134.62Y-144.78
X137.16Y-144.78
X137.922Y-79.248
X139.7Y-144.78
X140.462Y-79.248
X146.812Y-79.248
X149.352Y-79.248
X165.1Y-144.78
X167.132Y-69.342
X167.64Y-144.78
X169.672Y-69.342
X170.18Y-144.78
X171.704Y-54.102
X171.704Y-58.928
X172.72Y-144.78
X174.244Y-54.102
X174.244Y-58.928
X175.26Y-144.78
X177.8Y-144.78
X180.34Y-144.78
X182.88Y-144.78
X185.42Y-144.78
X187.96Y-144.78
X188.976Y-54.102
X188.976Y-58.928
X190.5Y-144.78
X191.516Y-54.102
X191.516Y-58.928
X193.04Y-144.78
X195.58Y-144.78
X198.12Y-144.78
X200.66Y-144.78
X203.2Y-144.78
X205.74Y-144.78
X208.28Y-60.96
X208.28Y-144.78
X210.82Y-60.96
X210.82Y-144.78
X213.36Y-60.96
X213.36Y-144.78
X215.9Y-60.96
X215.9Y-144.78
X218.44Y-60.96
X218.44Y-144.78
X220.98Y-60.96
X220.98Y-144.78
X223.52Y-60.96
X223.52Y-144.78
X226.06Y-60.96
X226.06Y-144.78
X228.6Y-60.96
X228.6Y-144.78
X231.14Y-60.96
X231.14Y-144.78
X233.68Y-60.96
X233.68Y-144.78
X236.22Y-60.96
X236.22Y-144.78
X238.76Y-60.96
X238.76Y-144.78
X241.3Y-60.96
X241.3Y-144.78
X243.84Y-60.96
X243.84Y-144.78
X246.38Y-60.96
T0
M30
