%TF.GenerationSoftware,KiCad,Pcbnew,(7.0.0)*%
%TF.CreationDate,2024-03-28T20:59:39-07:00*%
%TF.ProjectId,video_timing,76696465-6f5f-4746-996d-696e672e6b69,rev?*%
%TF.SameCoordinates,Original*%
%TF.FileFunction,Drillmap*%
%TF.FilePolarity,Positive*%
%FSLAX45Y45*%
G04 Gerber Fmt 4.5, Leading zero omitted, Abs format (unit mm)*
G04 Created by KiCad (PCBNEW (7.0.0)) date 2024-03-28 20:59:39*
%MOMM*%
%LPD*%
G01*
G04 APERTURE LIST*
%ADD10C,0.100000*%
%ADD11C,0.200000*%
%ADD12C,0.038100*%
%ADD13C,0.080000*%
G04 APERTURE END LIST*
D10*
X25400000Y-5270500D02*
X25400000Y-14668500D01*
X25209500Y-14859000D02*
G75*
G03*
X25400000Y-14668500I0J190500D01*
G01*
X5080000Y-14668500D02*
G75*
G03*
X5270500Y-14859000I190500J0D01*
G01*
X5080000Y-14668500D02*
X5080000Y-5270500D01*
X5270500Y-5080000D02*
G75*
G03*
X5080000Y-5270500I0J-190500D01*
G01*
X25209500Y-14859000D02*
X5270500Y-14859000D01*
X25400000Y-5270500D02*
G75*
G03*
X25209500Y-5080000I-190500J0D01*
G01*
X5270500Y-5080000D02*
X25209500Y-5080000D01*
D11*
D12*
X6076950Y-7143750D02*
X6115050Y-7181850D01*
X6115050Y-7143750D02*
X6076950Y-7181850D01*
X6076950Y-7397750D02*
X6115050Y-7435850D01*
X6115050Y-7397750D02*
X6076950Y-7435850D01*
X6584950Y-13036550D02*
X6623050Y-13074650D01*
X6623050Y-13036550D02*
X6584950Y-13074650D01*
X6838950Y-7143750D02*
X6877050Y-7181850D01*
X6877050Y-7143750D02*
X6838950Y-7181850D01*
X6838950Y-7550150D02*
X6877050Y-7588250D01*
X6877050Y-7550150D02*
X6838950Y-7588250D01*
X6838950Y-10217150D02*
X6877050Y-10255250D01*
X6877050Y-10217150D02*
X6838950Y-10255250D01*
X6838950Y-10471150D02*
X6877050Y-10509250D01*
X6877050Y-10471150D02*
X6838950Y-10509250D01*
X7092950Y-7143750D02*
X7131050Y-7181850D01*
X7131050Y-7143750D02*
X7092950Y-7181850D01*
X7092950Y-7550150D02*
X7131050Y-7588250D01*
X7131050Y-7550150D02*
X7092950Y-7588250D01*
X7219950Y-10877550D02*
X7258050Y-10915650D01*
X7258050Y-10877550D02*
X7219950Y-10915650D01*
X7346950Y-7143750D02*
X7385050Y-7181850D01*
X7385050Y-7143750D02*
X7346950Y-7181850D01*
X7346950Y-7550150D02*
X7385050Y-7588250D01*
X7385050Y-7550150D02*
X7346950Y-7588250D01*
X7346950Y-10877550D02*
X7385050Y-10915650D01*
X7385050Y-10877550D02*
X7346950Y-10915650D01*
X7702550Y-13036550D02*
X7740650Y-13074650D01*
X7740650Y-13036550D02*
X7702550Y-13074650D01*
X7753350Y-8210550D02*
X7791450Y-8248650D01*
X7791450Y-8210550D02*
X7753350Y-8248650D01*
X7753350Y-8489950D02*
X7791450Y-8528050D01*
X7791450Y-8489950D02*
X7753350Y-8528050D01*
X7753350Y-9531350D02*
X7791450Y-9569450D01*
X7791450Y-9531350D02*
X7753350Y-9569450D01*
X7753350Y-10242550D02*
X7791450Y-10280650D01*
X7791450Y-10242550D02*
X7753350Y-10280650D01*
X7905750Y-7905750D02*
X7943850Y-7943850D01*
X7943850Y-7905750D02*
X7905750Y-7943850D01*
X7905750Y-8566150D02*
X7943850Y-8604250D01*
X7943850Y-8566150D02*
X7905750Y-8604250D01*
X7905750Y-9353550D02*
X7943850Y-9391650D01*
X7943850Y-9353550D02*
X7905750Y-9391650D01*
X7905750Y-10344150D02*
X7943850Y-10382250D01*
X7943850Y-10344150D02*
X7905750Y-10382250D01*
X7956550Y-13036550D02*
X7994650Y-13074650D01*
X7994650Y-13036550D02*
X7956550Y-13074650D01*
X8007350Y-10877550D02*
X8045450Y-10915650D01*
X8045450Y-10877550D02*
X8007350Y-10915650D01*
X8134350Y-10877550D02*
X8172450Y-10915650D01*
X8172450Y-10877550D02*
X8134350Y-10915650D01*
X8870950Y-13011150D02*
X8909050Y-13049250D01*
X8909050Y-13011150D02*
X8870950Y-13049250D01*
X9251950Y-13239750D02*
X9290050Y-13277850D01*
X9290050Y-13239750D02*
X9251950Y-13277850D01*
X9378950Y-10267950D02*
X9417050Y-10306050D01*
X9417050Y-10267950D02*
X9378950Y-10306050D01*
X9378950Y-10420350D02*
X9417050Y-10458450D01*
X9417050Y-10420350D02*
X9378950Y-10458450D01*
X9378950Y-12376150D02*
X9417050Y-12414250D01*
X9417050Y-12376150D02*
X9378950Y-12414250D01*
X9380123Y-12219417D02*
X9418223Y-12257517D01*
X9418223Y-12219417D02*
X9380123Y-12257517D01*
X9455150Y-7448550D02*
X9493250Y-7486650D01*
X9493250Y-7448550D02*
X9455150Y-7486650D01*
X9455150Y-8210550D02*
X9493250Y-8248650D01*
X9493250Y-8210550D02*
X9455150Y-8248650D01*
X9556750Y-9963150D02*
X9594850Y-10001250D01*
X9594850Y-9963150D02*
X9556750Y-10001250D01*
X9632950Y-10191750D02*
X9671050Y-10229850D01*
X9671050Y-10191750D02*
X9632950Y-10229850D01*
X9632950Y-10420350D02*
X9671050Y-10458450D01*
X9671050Y-10420350D02*
X9632950Y-10458450D01*
X9632950Y-12147550D02*
X9671050Y-12185650D01*
X9671050Y-12147550D02*
X9632950Y-12185650D01*
X9632950Y-12376150D02*
X9671050Y-12414250D01*
X9671050Y-12376150D02*
X9632950Y-12414250D01*
X9886950Y-10115550D02*
X9925050Y-10153650D01*
X9925050Y-10115550D02*
X9886950Y-10153650D01*
X9886950Y-10420350D02*
X9925050Y-10458450D01*
X9925050Y-10420350D02*
X9886950Y-10458450D01*
X9886950Y-12071350D02*
X9925050Y-12109450D01*
X9925050Y-12071350D02*
X9886950Y-12109450D01*
X9886950Y-12376150D02*
X9925050Y-12414250D01*
X9925050Y-12376150D02*
X9886950Y-12414250D01*
X10140950Y-9124950D02*
X10179050Y-9163050D01*
X10179050Y-9124950D02*
X10140950Y-9163050D01*
X10140950Y-11156950D02*
X10179050Y-11195050D01*
X10179050Y-11156950D02*
X10140950Y-11195050D01*
X10140950Y-13138150D02*
X10179050Y-13176250D01*
X10179050Y-13138150D02*
X10140950Y-13176250D01*
X10750550Y-8388350D02*
X10788650Y-8426450D01*
X10788650Y-8388350D02*
X10750550Y-8426450D01*
X10877550Y-8388350D02*
X10915650Y-8426450D01*
X10915650Y-8388350D02*
X10877550Y-8426450D01*
X11918950Y-9734550D02*
X11957050Y-9772650D01*
X11957050Y-9734550D02*
X11918950Y-9772650D01*
X11918950Y-10420350D02*
X11957050Y-10458450D01*
X11957050Y-10420350D02*
X11918950Y-10458450D01*
X11918950Y-11995150D02*
X11957050Y-12033250D01*
X11957050Y-11995150D02*
X11918950Y-12033250D01*
X11918950Y-12376150D02*
X11957050Y-12414250D01*
X11957050Y-12376150D02*
X11918950Y-12414250D01*
X12045950Y-9658350D02*
X12084050Y-9696450D01*
X12084050Y-9658350D02*
X12045950Y-9696450D01*
X12045950Y-9963150D02*
X12084050Y-10001250D01*
X12084050Y-9963150D02*
X12045950Y-10001250D01*
X12122150Y-6203950D02*
X12160250Y-6242050D01*
X12160250Y-6203950D02*
X12122150Y-6242050D01*
X12172950Y-9658350D02*
X12211050Y-9696450D01*
X12211050Y-9658350D02*
X12172950Y-9696450D01*
X12172950Y-10420350D02*
X12211050Y-10458450D01*
X12211050Y-10420350D02*
X12172950Y-10458450D01*
X12172950Y-11918950D02*
X12211050Y-11957050D01*
X12211050Y-11918950D02*
X12172950Y-11957050D01*
X12172950Y-12376150D02*
X12211050Y-12414250D01*
X12211050Y-12376150D02*
X12172950Y-12414250D01*
X12249150Y-6203950D02*
X12287250Y-6242050D01*
X12287250Y-6203950D02*
X12249150Y-6242050D01*
X12426950Y-9582150D02*
X12465050Y-9620250D01*
X12465050Y-9582150D02*
X12426950Y-9620250D01*
X12426950Y-9886950D02*
X12465050Y-9925050D01*
X12465050Y-9886950D02*
X12426950Y-9925050D01*
X12426950Y-11842750D02*
X12465050Y-11880850D01*
X12465050Y-11842750D02*
X12426950Y-11880850D01*
X12426950Y-12376150D02*
X12465050Y-12414250D01*
X12465050Y-12376150D02*
X12426950Y-12414250D01*
X12680950Y-9582150D02*
X12719050Y-9620250D01*
X12719050Y-9582150D02*
X12680950Y-9620250D01*
X12680950Y-9810750D02*
X12719050Y-9848850D01*
X12719050Y-9810750D02*
X12680950Y-9848850D01*
X12680950Y-11766550D02*
X12719050Y-11804650D01*
X12719050Y-11766550D02*
X12680950Y-11804650D01*
X12680950Y-12376150D02*
X12719050Y-12414250D01*
X12719050Y-12376150D02*
X12680950Y-12414250D01*
X12934950Y-11004550D02*
X12973050Y-11042650D01*
X12973050Y-11004550D02*
X12934950Y-11042650D01*
X12934950Y-13163550D02*
X12973050Y-13201650D01*
X12973050Y-13163550D02*
X12934950Y-13201650D01*
X13392150Y-8185150D02*
X13430250Y-8223250D01*
X13430250Y-8185150D02*
X13392150Y-8223250D01*
X13569950Y-7473950D02*
X13608050Y-7512050D01*
X13608050Y-7473950D02*
X13569950Y-7512050D01*
X13671550Y-9505950D02*
X13709650Y-9544050D01*
X13709650Y-9505950D02*
X13671550Y-9544050D01*
X13671550Y-10039350D02*
X13709650Y-10077450D01*
X13709650Y-10039350D02*
X13671550Y-10077450D01*
X13798550Y-9505950D02*
X13836650Y-9544050D01*
X13836650Y-9505950D02*
X13798550Y-9544050D01*
X13798550Y-10115550D02*
X13836650Y-10153650D01*
X13836650Y-10115550D02*
X13798550Y-10153650D01*
X13925550Y-9505950D02*
X13963650Y-9544050D01*
X13963650Y-9505950D02*
X13925550Y-9544050D01*
X13925550Y-10191750D02*
X13963650Y-10229850D01*
X13963650Y-10191750D02*
X13925550Y-10229850D01*
X14027150Y-7194550D02*
X14065250Y-7232650D01*
X14065250Y-7194550D02*
X14027150Y-7232650D01*
X14204950Y-9734550D02*
X14243050Y-9772650D01*
X14243050Y-9734550D02*
X14204950Y-9772650D01*
X14204950Y-11690350D02*
X14243050Y-11728450D01*
X14243050Y-11690350D02*
X14204950Y-11728450D01*
X14204950Y-11842750D02*
X14243050Y-11880850D01*
X14243050Y-11842750D02*
X14204950Y-11880850D01*
X14331950Y-12223750D02*
X14370050Y-12261850D01*
X14370050Y-12223750D02*
X14331950Y-12261850D01*
X14331950Y-12376150D02*
X14370050Y-12414250D01*
X14370050Y-12376150D02*
X14331950Y-12414250D01*
X14458950Y-11918950D02*
X14497050Y-11957050D01*
X14497050Y-11918950D02*
X14458950Y-11957050D01*
X14458950Y-12376150D02*
X14497050Y-12414250D01*
X14497050Y-12376150D02*
X14458950Y-12414250D01*
X14509750Y-6381750D02*
X14547850Y-6419850D01*
X14547850Y-6381750D02*
X14509750Y-6419850D01*
X14712950Y-10344150D02*
X14751050Y-10382250D01*
X14751050Y-10344150D02*
X14712950Y-10382250D01*
X14712950Y-11690350D02*
X14751050Y-11728450D01*
X14751050Y-11690350D02*
X14712950Y-11728450D01*
X14712950Y-12299950D02*
X14751050Y-12338050D01*
X14751050Y-12299950D02*
X14712950Y-12338050D01*
X14916150Y-7600950D02*
X14954250Y-7639050D01*
X14954250Y-7600950D02*
X14916150Y-7639050D01*
X14966950Y-11995150D02*
X15005050Y-12033250D01*
X15005050Y-11995150D02*
X14966950Y-12033250D01*
X14966950Y-12376150D02*
X15005050Y-12414250D01*
X15005050Y-12376150D02*
X14966950Y-12414250D01*
X14966950Y-12934950D02*
X15005050Y-12973050D01*
X15005050Y-12934950D02*
X14966950Y-12973050D01*
X15043150Y-8947150D02*
X15081250Y-8985250D01*
X15081250Y-8947150D02*
X15043150Y-8985250D01*
X15093950Y-12147550D02*
X15132050Y-12185650D01*
X15132050Y-12147550D02*
X15093950Y-12185650D01*
X15093950Y-12376150D02*
X15132050Y-12414250D01*
X15132050Y-12376150D02*
X15093950Y-12414250D01*
X15220950Y-10267950D02*
X15259050Y-10306050D01*
X15259050Y-10267950D02*
X15220950Y-10306050D01*
X15220950Y-12934950D02*
X15259050Y-12973050D01*
X15259050Y-12934950D02*
X15220950Y-12973050D01*
X15220950Y-13265150D02*
X15259050Y-13303250D01*
X15259050Y-13265150D02*
X15220950Y-13303250D01*
X15474950Y-8870950D02*
X15513050Y-8909050D01*
X15513050Y-8870950D02*
X15474950Y-8909050D01*
X15474950Y-12071350D02*
X15513050Y-12109450D01*
X15513050Y-12071350D02*
X15474950Y-12109450D01*
X15474950Y-12376150D02*
X15513050Y-12414250D01*
X15513050Y-12376150D02*
X15474950Y-12414250D01*
X15551150Y-8083550D02*
X15589250Y-8121650D01*
X15589250Y-8083550D02*
X15551150Y-8121650D01*
X15728950Y-8159750D02*
X15767050Y-8197850D01*
X15767050Y-8159750D02*
X15728950Y-8197850D01*
X15855950Y-8235950D02*
X15894050Y-8274050D01*
X15894050Y-8235950D02*
X15855950Y-8274050D01*
X15957550Y-8388350D02*
X15995650Y-8426450D01*
X15995650Y-8388350D02*
X15957550Y-8426450D01*
X16008350Y-8007350D02*
X16046450Y-8045450D01*
X16046450Y-8007350D02*
X16008350Y-8045450D01*
X16033750Y-11690350D02*
X16071850Y-11728450D01*
X16071850Y-11690350D02*
X16033750Y-11728450D01*
X16033750Y-12452350D02*
X16071850Y-12490450D01*
X16071850Y-12452350D02*
X16033750Y-12490450D01*
X16059150Y-8870950D02*
X16097250Y-8909050D01*
X16097250Y-8870950D02*
X16059150Y-8909050D01*
X16059150Y-9023350D02*
X16097250Y-9061450D01*
X16097250Y-9023350D02*
X16059150Y-9061450D01*
X16059150Y-9175750D02*
X16097250Y-9213850D01*
X16097250Y-9175750D02*
X16059150Y-9213850D01*
X16059150Y-10598150D02*
X16097250Y-10636250D01*
X16097250Y-10598150D02*
X16059150Y-10636250D01*
X16059150Y-10750550D02*
X16097250Y-10788650D01*
X16097250Y-10750550D02*
X16059150Y-10788650D01*
X16084550Y-8388350D02*
X16122650Y-8426450D01*
X16122650Y-8388350D02*
X16084550Y-8426450D01*
X16135350Y-8794750D02*
X16173450Y-8832850D01*
X16173450Y-8794750D02*
X16135350Y-8832850D01*
X16135350Y-8947150D02*
X16173450Y-8985250D01*
X16173450Y-8947150D02*
X16135350Y-8985250D01*
X16135350Y-9099550D02*
X16173450Y-9137650D01*
X16173450Y-9099550D02*
X16135350Y-9137650D01*
X16135350Y-9251950D02*
X16173450Y-9290050D01*
X16173450Y-9251950D02*
X16135350Y-9290050D01*
X16135350Y-10674350D02*
X16173450Y-10712450D01*
X16173450Y-10674350D02*
X16135350Y-10712450D01*
X16135350Y-11614150D02*
X16173450Y-11652250D01*
X16173450Y-11614150D02*
X16135350Y-11652250D01*
X16135350Y-12376150D02*
X16173450Y-12414250D01*
X16173450Y-12376150D02*
X16135350Y-12414250D01*
X16211550Y-9505950D02*
X16249650Y-9544050D01*
X16249650Y-9505950D02*
X16211550Y-9544050D01*
X16211550Y-10267950D02*
X16249650Y-10306050D01*
X16249650Y-10267950D02*
X16211550Y-10306050D01*
X16287750Y-9582150D02*
X16325850Y-9620250D01*
X16325850Y-9582150D02*
X16287750Y-9620250D01*
X16287750Y-10344150D02*
X16325850Y-10382250D01*
X16325850Y-10344150D02*
X16287750Y-10382250D01*
X16287750Y-11690350D02*
X16325850Y-11728450D01*
X16325850Y-11690350D02*
X16287750Y-11728450D01*
X16287750Y-11842750D02*
X16325850Y-11880850D01*
X16325850Y-11842750D02*
X16287750Y-11880850D01*
X16363950Y-9505950D02*
X16402050Y-9544050D01*
X16402050Y-9505950D02*
X16363950Y-9544050D01*
X16363950Y-10267950D02*
X16402050Y-10306050D01*
X16402050Y-10267950D02*
X16363950Y-10306050D01*
X16363950Y-11614150D02*
X16402050Y-11652250D01*
X16402050Y-11614150D02*
X16363950Y-11652250D01*
X16363950Y-11918950D02*
X16402050Y-11957050D01*
X16402050Y-11918950D02*
X16363950Y-11957050D01*
X16440150Y-9582150D02*
X16478250Y-9620250D01*
X16478250Y-9582150D02*
X16440150Y-9620250D01*
X16440150Y-10344150D02*
X16478250Y-10382250D01*
X16478250Y-10344150D02*
X16440150Y-10382250D01*
X16440150Y-11690350D02*
X16478250Y-11728450D01*
X16478250Y-11690350D02*
X16440150Y-11728450D01*
X16440150Y-11995150D02*
X16478250Y-12033250D01*
X16478250Y-11995150D02*
X16440150Y-12033250D01*
X16516350Y-9505950D02*
X16554450Y-9544050D01*
X16554450Y-9505950D02*
X16516350Y-9544050D01*
X16516350Y-10267950D02*
X16554450Y-10306050D01*
X16554450Y-10267950D02*
X16516350Y-10306050D01*
X16516350Y-11614150D02*
X16554450Y-11652250D01*
X16554450Y-11614150D02*
X16516350Y-11652250D01*
X16516350Y-12071350D02*
X16554450Y-12109450D01*
X16554450Y-12071350D02*
X16516350Y-12109450D01*
X16592550Y-9582150D02*
X16630650Y-9620250D01*
X16630650Y-9582150D02*
X16592550Y-9620250D01*
X16592550Y-10344150D02*
X16630650Y-10382250D01*
X16630650Y-10344150D02*
X16592550Y-10382250D01*
X16592550Y-11690350D02*
X16630650Y-11728450D01*
X16630650Y-11690350D02*
X16592550Y-11728450D01*
X16592550Y-12147550D02*
X16630650Y-12185650D01*
X16630650Y-12147550D02*
X16592550Y-12185650D01*
X16668750Y-9505950D02*
X16706850Y-9544050D01*
X16706850Y-9505950D02*
X16668750Y-9544050D01*
X16668750Y-10267950D02*
X16706850Y-10306050D01*
X16706850Y-10267950D02*
X16668750Y-10306050D01*
X16668750Y-11614150D02*
X16706850Y-11652250D01*
X16706850Y-11614150D02*
X16668750Y-11652250D01*
X16668750Y-12223750D02*
X16706850Y-12261850D01*
X16706850Y-12223750D02*
X16668750Y-12261850D01*
X16744950Y-9582150D02*
X16783050Y-9620250D01*
X16783050Y-9582150D02*
X16744950Y-9620250D01*
X16744950Y-10344150D02*
X16783050Y-10382250D01*
X16783050Y-10344150D02*
X16744950Y-10382250D01*
X16744950Y-11690350D02*
X16783050Y-11728450D01*
X16783050Y-11690350D02*
X16744950Y-11728450D01*
X16744950Y-12299950D02*
X16783050Y-12338050D01*
X16783050Y-12299950D02*
X16744950Y-12338050D01*
X16821150Y-9658350D02*
X16859250Y-9696450D01*
X16859250Y-9658350D02*
X16821150Y-9696450D01*
X16821150Y-10674350D02*
X16859250Y-10712450D01*
X16859250Y-10674350D02*
X16821150Y-10712450D01*
X16897350Y-9734550D02*
X16935450Y-9772650D01*
X16935450Y-9734550D02*
X16897350Y-9772650D01*
X16897350Y-10598150D02*
X16935450Y-10636250D01*
X16935450Y-10598150D02*
X16897350Y-10636250D01*
X16897350Y-10750550D02*
X16935450Y-10788650D01*
X16935450Y-10750550D02*
X16897350Y-10788650D01*
X17278350Y-10115550D02*
X17316450Y-10153650D01*
X17316450Y-10115550D02*
X17278350Y-10153650D01*
X17430750Y-8870950D02*
X17468850Y-8909050D01*
X17468850Y-8870950D02*
X17430750Y-8909050D01*
X17430750Y-9023350D02*
X17468850Y-9061450D01*
X17468850Y-9023350D02*
X17430750Y-9061450D01*
X17430750Y-9175750D02*
X17468850Y-9213850D01*
X17468850Y-9175750D02*
X17430750Y-9213850D01*
X17430750Y-9734550D02*
X17468850Y-9772650D01*
X17468850Y-9734550D02*
X17430750Y-9772650D01*
X17430750Y-10115550D02*
X17468850Y-10153650D01*
X17468850Y-10115550D02*
X17430750Y-10153650D01*
X17506950Y-8794750D02*
X17545050Y-8832850D01*
X17545050Y-8794750D02*
X17506950Y-8832850D01*
X17506950Y-8947150D02*
X17545050Y-8985250D01*
X17545050Y-8947150D02*
X17506950Y-8985250D01*
X17506950Y-9099550D02*
X17545050Y-9137650D01*
X17545050Y-9099550D02*
X17506950Y-9137650D01*
X17506950Y-9251950D02*
X17545050Y-9290050D01*
X17545050Y-9251950D02*
X17506950Y-9290050D01*
X17506950Y-9658350D02*
X17545050Y-9696450D01*
X17545050Y-9658350D02*
X17506950Y-9696450D01*
X18294350Y-8235950D02*
X18332450Y-8274050D01*
X18332450Y-8235950D02*
X18294350Y-8274050D01*
X18294350Y-8972550D02*
X18332450Y-9010650D01*
X18332450Y-8972550D02*
X18294350Y-9010650D01*
X18294350Y-11055350D02*
X18332450Y-11093450D01*
X18332450Y-11055350D02*
X18294350Y-11093450D01*
X18370550Y-8159750D02*
X18408650Y-8197850D01*
X18408650Y-8159750D02*
X18370550Y-8197850D01*
X18370550Y-9048750D02*
X18408650Y-9086850D01*
X18408650Y-9048750D02*
X18370550Y-9086850D01*
X18370550Y-10979150D02*
X18408650Y-11017250D01*
X18408650Y-10979150D02*
X18370550Y-11017250D01*
X18446750Y-8083550D02*
X18484850Y-8121650D01*
X18484850Y-8083550D02*
X18446750Y-8121650D01*
X18446750Y-9124950D02*
X18484850Y-9163050D01*
X18484850Y-9124950D02*
X18446750Y-9163050D01*
X18446750Y-10902950D02*
X18484850Y-10941050D01*
X18484850Y-10902950D02*
X18446750Y-10941050D01*
X18522950Y-8007350D02*
X18561050Y-8045450D01*
X18561050Y-8007350D02*
X18522950Y-8045450D01*
X18522950Y-9201150D02*
X18561050Y-9239250D01*
X18561050Y-9201150D02*
X18522950Y-9239250D01*
X18522950Y-10826750D02*
X18561050Y-10864850D01*
X18561050Y-10826750D02*
X18522950Y-10864850D01*
X18649950Y-8540750D02*
X18688050Y-8578850D01*
X18688050Y-8540750D02*
X18649950Y-8578850D01*
X18649950Y-8667750D02*
X18688050Y-8705850D01*
X18688050Y-8667750D02*
X18649950Y-8705850D01*
X18649950Y-9226550D02*
X18688050Y-9264650D01*
X18688050Y-9226550D02*
X18649950Y-9264650D01*
X18649950Y-9353550D02*
X18688050Y-9391650D01*
X18688050Y-9353550D02*
X18649950Y-9391650D01*
X18827750Y-11156950D02*
X18865850Y-11195050D01*
X18865850Y-11156950D02*
X18827750Y-11195050D01*
X18954750Y-11156950D02*
X18992850Y-11195050D01*
X18992850Y-11156950D02*
X18954750Y-11195050D01*
X18954750Y-13214350D02*
X18992850Y-13252450D01*
X18992850Y-13214350D02*
X18954750Y-13252450D01*
X18954750Y-13976350D02*
X18992850Y-14014450D01*
X18992850Y-13976350D02*
X18954750Y-14014450D01*
X18980150Y-9683750D02*
X19018250Y-9721850D01*
X19018250Y-9683750D02*
X18980150Y-9721850D01*
X18980150Y-9912350D02*
X19018250Y-9950450D01*
X19018250Y-9912350D02*
X18980150Y-9950450D01*
X19056350Y-9607550D02*
X19094450Y-9645650D01*
X19094450Y-9607550D02*
X19056350Y-9645650D01*
X19056350Y-10369550D02*
X19094450Y-10407650D01*
X19094450Y-10369550D02*
X19056350Y-10407650D01*
X19107150Y-13214350D02*
X19145250Y-13252450D01*
X19145250Y-13214350D02*
X19107150Y-13252450D01*
X19107150Y-13442950D02*
X19145250Y-13481050D01*
X19145250Y-13442950D02*
X19107150Y-13481050D01*
X19462750Y-9683750D02*
X19500850Y-9721850D01*
X19500850Y-9683750D02*
X19462750Y-9721850D01*
X19462750Y-9836150D02*
X19500850Y-9874250D01*
X19500850Y-9836150D02*
X19462750Y-9874250D01*
X19513550Y-13214350D02*
X19551650Y-13252450D01*
X19551650Y-13214350D02*
X19513550Y-13252450D01*
X19513550Y-13900150D02*
X19551650Y-13938250D01*
X19551650Y-13900150D02*
X19513550Y-13938250D01*
X19615150Y-13112750D02*
X19653250Y-13150850D01*
X19653250Y-13112750D02*
X19615150Y-13150850D01*
X19615150Y-14204950D02*
X19653250Y-14243050D01*
X19653250Y-14204950D02*
X19615150Y-14243050D01*
X19665950Y-9683750D02*
X19704050Y-9721850D01*
X19704050Y-9683750D02*
X19665950Y-9721850D01*
X19665950Y-10140950D02*
X19704050Y-10179050D01*
X19704050Y-10140950D02*
X19665950Y-10179050D01*
X19716750Y-13214350D02*
X19754850Y-13252450D01*
X19754850Y-13214350D02*
X19716750Y-13252450D01*
X19716750Y-14128750D02*
X19754850Y-14166850D01*
X19754850Y-14128750D02*
X19716750Y-14166850D01*
X19767550Y-9607550D02*
X19805650Y-9645650D01*
X19805650Y-9607550D02*
X19767550Y-9645650D01*
X19767550Y-10064750D02*
X19805650Y-10102850D01*
X19805650Y-10064750D02*
X19767550Y-10102850D01*
X19818350Y-13112750D02*
X19856450Y-13150850D01*
X19856450Y-13112750D02*
X19818350Y-13150850D01*
X19818350Y-13823950D02*
X19856450Y-13862050D01*
X19856450Y-13823950D02*
X19818350Y-13862050D01*
X19869150Y-9683750D02*
X19907250Y-9721850D01*
X19907250Y-9683750D02*
X19869150Y-9721850D01*
X19869150Y-10750550D02*
X19907250Y-10788650D01*
X19907250Y-10750550D02*
X19869150Y-10788650D01*
X19894550Y-11055350D02*
X19932650Y-11093450D01*
X19932650Y-11055350D02*
X19894550Y-11093450D01*
X19970750Y-6051550D02*
X20008850Y-6089650D01*
X20008850Y-6051550D02*
X19970750Y-6089650D01*
X19970750Y-7524750D02*
X20008850Y-7562850D01*
X20008850Y-7524750D02*
X19970750Y-7562850D01*
X20046950Y-5949950D02*
X20085050Y-5988050D01*
X20085050Y-5949950D02*
X20046950Y-5988050D01*
X20046950Y-7448550D02*
X20085050Y-7486650D01*
X20085050Y-7448550D02*
X20046950Y-7486650D01*
X20123150Y-5695950D02*
X20161250Y-5734050D01*
X20161250Y-5695950D02*
X20123150Y-5734050D01*
X20123150Y-7372350D02*
X20161250Y-7410450D01*
X20161250Y-7372350D02*
X20123150Y-7410450D01*
X20199350Y-5949950D02*
X20237450Y-5988050D01*
X20237450Y-5949950D02*
X20199350Y-5988050D01*
X20224750Y-9683750D02*
X20262850Y-9721850D01*
X20262850Y-9683750D02*
X20224750Y-9721850D01*
X20224750Y-10217150D02*
X20262850Y-10255250D01*
X20262850Y-10217150D02*
X20224750Y-10255250D01*
X20224750Y-13214350D02*
X20262850Y-13252450D01*
X20262850Y-13214350D02*
X20224750Y-13252450D01*
X20224750Y-13747750D02*
X20262850Y-13785850D01*
X20262850Y-13747750D02*
X20224750Y-13785850D01*
X20427950Y-9683750D02*
X20466050Y-9721850D01*
X20466050Y-9683750D02*
X20427950Y-9721850D01*
X20427950Y-10445750D02*
X20466050Y-10483850D01*
X20466050Y-10445750D02*
X20427950Y-10483850D01*
X20478750Y-13214350D02*
X20516850Y-13252450D01*
X20516850Y-13214350D02*
X20478750Y-13252450D01*
X20478750Y-13976350D02*
X20516850Y-14014450D01*
X20516850Y-13976350D02*
X20478750Y-14014450D01*
X20529550Y-9607550D02*
X20567650Y-9645650D01*
X20567650Y-9607550D02*
X20529550Y-9645650D01*
X20529550Y-9912350D02*
X20567650Y-9950450D01*
X20567650Y-9912350D02*
X20529550Y-9950450D01*
X20605750Y-13112750D02*
X20643850Y-13150850D01*
X20643850Y-13112750D02*
X20605750Y-13150850D01*
X20605750Y-13442950D02*
X20643850Y-13481050D01*
X20643850Y-13442950D02*
X20605750Y-13481050D01*
X20631150Y-9683750D02*
X20669250Y-9721850D01*
X20669250Y-9683750D02*
X20631150Y-9721850D01*
X20631150Y-10369550D02*
X20669250Y-10407650D01*
X20669250Y-10369550D02*
X20631150Y-10407650D01*
X20808950Y-6762750D02*
X20847050Y-6800850D01*
X20847050Y-6762750D02*
X20808950Y-6800850D01*
X21037550Y-13214350D02*
X21075650Y-13252450D01*
X21075650Y-13214350D02*
X21037550Y-13252450D01*
X21037550Y-13900150D02*
X21075650Y-13938250D01*
X21075650Y-13900150D02*
X21037550Y-13938250D01*
X21062950Y-6838950D02*
X21101050Y-6877050D01*
X21101050Y-6838950D02*
X21062950Y-6877050D01*
X21088350Y-9759950D02*
X21126450Y-9798050D01*
X21126450Y-9759950D02*
X21088350Y-9798050D01*
X21088350Y-10598150D02*
X21126450Y-10636250D01*
X21126450Y-10598150D02*
X21088350Y-10636250D01*
X21139150Y-13112750D02*
X21177250Y-13150850D01*
X21177250Y-13112750D02*
X21139150Y-13150850D01*
X21139150Y-13671550D02*
X21177250Y-13709650D01*
X21177250Y-13671550D02*
X21139150Y-13709650D01*
X21189950Y-9836150D02*
X21228050Y-9874250D01*
X21228050Y-9836150D02*
X21189950Y-9874250D01*
X21189950Y-10064750D02*
X21228050Y-10102850D01*
X21228050Y-10064750D02*
X21189950Y-10102850D01*
X21240750Y-13214350D02*
X21278850Y-13252450D01*
X21278850Y-13214350D02*
X21240750Y-13252450D01*
X21240750Y-14128750D02*
X21278850Y-14166850D01*
X21278850Y-14128750D02*
X21240750Y-14166850D01*
X21291550Y-9759950D02*
X21329650Y-9798050D01*
X21329650Y-9759950D02*
X21291550Y-9798050D01*
X21291550Y-10217150D02*
X21329650Y-10255250D01*
X21329650Y-10217150D02*
X21291550Y-10255250D01*
X21316950Y-6915150D02*
X21355050Y-6953250D01*
X21355050Y-6915150D02*
X21316950Y-6953250D01*
X21342350Y-13112750D02*
X21380450Y-13150850D01*
X21380450Y-13112750D02*
X21342350Y-13150850D01*
X21342350Y-13823950D02*
X21380450Y-13862050D01*
X21380450Y-13823950D02*
X21342350Y-13862050D01*
X21393150Y-9836150D02*
X21431250Y-9874250D01*
X21431250Y-9836150D02*
X21393150Y-9874250D01*
X21393150Y-10750550D02*
X21431250Y-10788650D01*
X21431250Y-10750550D02*
X21393150Y-10788650D01*
X21418550Y-11055350D02*
X21456650Y-11093450D01*
X21456650Y-11055350D02*
X21418550Y-11093450D01*
X21443950Y-7524750D02*
X21482050Y-7562850D01*
X21482050Y-7524750D02*
X21443950Y-7562850D01*
X21570950Y-6991350D02*
X21609050Y-7029450D01*
X21609050Y-6991350D02*
X21570950Y-7029450D01*
X21748750Y-13214350D02*
X21786850Y-13252450D01*
X21786850Y-13214350D02*
X21748750Y-13252450D01*
X21748750Y-13747750D02*
X21786850Y-13785850D01*
X21786850Y-13747750D02*
X21748750Y-13785850D01*
X21824950Y-7067550D02*
X21863050Y-7105650D01*
X21863050Y-7067550D02*
X21824950Y-7105650D01*
X21926550Y-9836150D02*
X21964650Y-9874250D01*
X21964650Y-9836150D02*
X21926550Y-9874250D01*
X21926550Y-10445750D02*
X21964650Y-10483850D01*
X21964650Y-10445750D02*
X21926550Y-10483850D01*
X22028150Y-13214350D02*
X22066250Y-13252450D01*
X22066250Y-13214350D02*
X22028150Y-13252450D01*
X22028150Y-13519150D02*
X22066250Y-13557250D01*
X22066250Y-13519150D02*
X22028150Y-13557250D01*
X22078950Y-7143750D02*
X22117050Y-7181850D01*
X22117050Y-7143750D02*
X22078950Y-7181850D01*
X22129750Y-9836150D02*
X22167850Y-9874250D01*
X22167850Y-9836150D02*
X22129750Y-9874250D01*
X22129750Y-10369550D02*
X22167850Y-10407650D01*
X22167850Y-10369550D02*
X22129750Y-10407650D01*
X22129750Y-13112750D02*
X22167850Y-13150850D01*
X22167850Y-13112750D02*
X22129750Y-13150850D01*
X22129750Y-13442950D02*
X22167850Y-13481050D01*
X22167850Y-13442950D02*
X22129750Y-13481050D01*
X22332950Y-7219950D02*
X22371050Y-7258050D01*
X22371050Y-7219950D02*
X22332950Y-7258050D01*
X22485350Y-13214350D02*
X22523450Y-13252450D01*
X22523450Y-13214350D02*
X22485350Y-13252450D01*
X22485350Y-13595350D02*
X22523450Y-13633450D01*
X22523450Y-13595350D02*
X22485350Y-13633450D01*
X22510750Y-9836150D02*
X22548850Y-9874250D01*
X22548850Y-9836150D02*
X22510750Y-9874250D01*
X22510750Y-10521950D02*
X22548850Y-10560050D01*
X22548850Y-10521950D02*
X22510750Y-10560050D01*
X22586950Y-7296150D02*
X22625050Y-7334250D01*
X22625050Y-7296150D02*
X22586950Y-7334250D01*
X22586950Y-13112750D02*
X22625050Y-13150850D01*
X22625050Y-13112750D02*
X22586950Y-13150850D01*
X22586950Y-13671550D02*
X22625050Y-13709650D01*
X22625050Y-13671550D02*
X22586950Y-13709650D01*
X22612350Y-9759950D02*
X22650450Y-9798050D01*
X22650450Y-9759950D02*
X22612350Y-9798050D01*
X22612350Y-10140950D02*
X22650450Y-10179050D01*
X22650450Y-10140950D02*
X22612350Y-10179050D01*
X22713950Y-9836150D02*
X22752050Y-9874250D01*
X22752050Y-9836150D02*
X22713950Y-9874250D01*
X22713950Y-10064750D02*
X22752050Y-10102850D01*
X22752050Y-10064750D02*
X22713950Y-10102850D01*
X22713950Y-13214350D02*
X22752050Y-13252450D01*
X22752050Y-13214350D02*
X22713950Y-13252450D01*
X22713950Y-14128750D02*
X22752050Y-14166850D01*
X22752050Y-14128750D02*
X22713950Y-14166850D01*
X22815550Y-9759950D02*
X22853650Y-9798050D01*
X22853650Y-9759950D02*
X22815550Y-9798050D01*
X22815550Y-10217150D02*
X22853650Y-10255250D01*
X22853650Y-10217150D02*
X22815550Y-10255250D01*
X22840950Y-13112750D02*
X22879050Y-13150850D01*
X22879050Y-13112750D02*
X22840950Y-13150850D01*
X22840950Y-13823950D02*
X22879050Y-13862050D01*
X22879050Y-13823950D02*
X22840950Y-13862050D01*
X22917150Y-9836150D02*
X22955250Y-9874250D01*
X22955250Y-9836150D02*
X22917150Y-9874250D01*
X22917150Y-10750550D02*
X22955250Y-10788650D01*
X22955250Y-10750550D02*
X22917150Y-10788650D01*
X22942550Y-11055350D02*
X22980650Y-11093450D01*
X22980650Y-11055350D02*
X22942550Y-11093450D01*
X22942550Y-13214350D02*
X22980650Y-13252450D01*
X22980650Y-13214350D02*
X22942550Y-13252450D01*
X22942550Y-13747750D02*
X22980650Y-13785850D01*
X22980650Y-13747750D02*
X22942550Y-13785850D01*
X22967950Y-7448550D02*
X23006050Y-7486650D01*
X23006050Y-7448550D02*
X22967950Y-7486650D01*
X23450550Y-13214350D02*
X23488650Y-13252450D01*
X23488650Y-13214350D02*
X23450550Y-13252450D01*
X23450550Y-13595350D02*
X23488650Y-13633450D01*
X23488650Y-13595350D02*
X23450550Y-13633450D01*
X23577550Y-13214350D02*
X23615650Y-13252450D01*
X23615650Y-13214350D02*
X23577550Y-13252450D01*
X23577550Y-13976350D02*
X23615650Y-14014450D01*
X23615650Y-13976350D02*
X23577550Y-14014450D01*
X23704550Y-13214350D02*
X23742650Y-13252450D01*
X23742650Y-13214350D02*
X23704550Y-13252450D01*
X23704550Y-14052550D02*
X23742650Y-14090650D01*
X23742650Y-14052550D02*
X23704550Y-14090650D01*
X24009350Y-13214350D02*
X24047450Y-13252450D01*
X24047450Y-13214350D02*
X24009350Y-13252450D01*
X24009350Y-14204950D02*
X24047450Y-14243050D01*
X24047450Y-14204950D02*
X24009350Y-14243050D01*
X24034750Y-10064750D02*
X24072850Y-10102850D01*
X24072850Y-10064750D02*
X24034750Y-10102850D01*
X24034750Y-10445750D02*
X24072850Y-10483850D01*
X24072850Y-10445750D02*
X24034750Y-10483850D01*
X24110950Y-13112750D02*
X24149050Y-13150850D01*
X24149050Y-13112750D02*
X24110950Y-13150850D01*
X24110950Y-14128750D02*
X24149050Y-14166850D01*
X24149050Y-14128750D02*
X24110950Y-14166850D01*
X24136350Y-9988550D02*
X24174450Y-10026650D01*
X24174450Y-9988550D02*
X24136350Y-10026650D01*
X24136350Y-10521950D02*
X24174450Y-10560050D01*
X24174450Y-10521950D02*
X24136350Y-10560050D01*
X24237950Y-13214350D02*
X24276050Y-13252450D01*
X24276050Y-13214350D02*
X24237950Y-13252450D01*
X24237950Y-13823950D02*
X24276050Y-13862050D01*
X24276050Y-13823950D02*
X24237950Y-13862050D01*
X24339550Y-10191750D02*
X24377650Y-10229850D01*
X24377650Y-10191750D02*
X24339550Y-10229850D01*
X24339550Y-10394950D02*
X24377650Y-10433050D01*
X24377650Y-10394950D02*
X24339550Y-10433050D01*
D13*
X5882000Y-10033000D02*
G75*
G03*
X5882000Y-10033000I-40000J0D01*
G01*
X5882000Y-10668000D02*
G75*
G03*
X5882000Y-10668000I-40000J0D01*
G01*
X5882000Y-11430000D02*
G75*
G03*
X5882000Y-11430000I-40000J0D01*
G01*
X5882000Y-12192000D02*
G75*
G03*
X5882000Y-12192000I-40000J0D01*
G01*
X5882000Y-12700000D02*
G75*
G03*
X5882000Y-12700000I-40000J0D01*
G01*
X5882000Y-13462000D02*
G75*
G03*
X5882000Y-13462000I-40000J0D01*
G01*
X6136000Y-12700000D02*
G75*
G03*
X6136000Y-12700000I-40000J0D01*
G01*
X6136000Y-13462000D02*
G75*
G03*
X6136000Y-13462000I-40000J0D01*
G01*
X6382000Y-10033000D02*
G75*
G03*
X6382000Y-10033000I-40000J0D01*
G01*
X6382000Y-12192000D02*
G75*
G03*
X6382000Y-12192000I-40000J0D01*
G01*
X6390000Y-12700000D02*
G75*
G03*
X6390000Y-12700000I-40000J0D01*
G01*
X6390000Y-13462000D02*
G75*
G03*
X6390000Y-13462000I-40000J0D01*
G01*
X6644000Y-10668000D02*
G75*
G03*
X6644000Y-10668000I-40000J0D01*
G01*
X6644000Y-11430000D02*
G75*
G03*
X6644000Y-11430000I-40000J0D01*
G01*
X6644000Y-12700000D02*
G75*
G03*
X6644000Y-12700000I-40000J0D01*
G01*
X6644000Y-13462000D02*
G75*
G03*
X6644000Y-13462000I-40000J0D01*
G01*
X6898000Y-12700000D02*
G75*
G03*
X6898000Y-12700000I-40000J0D01*
G01*
X6898000Y-13462000D02*
G75*
G03*
X6898000Y-13462000I-40000J0D01*
G01*
X7152000Y-12700000D02*
G75*
G03*
X7152000Y-12700000I-40000J0D01*
G01*
X7152000Y-13462000D02*
G75*
G03*
X7152000Y-13462000I-40000J0D01*
G01*
X7406000Y-12700000D02*
G75*
G03*
X7406000Y-12700000I-40000J0D01*
G01*
X7406000Y-13462000D02*
G75*
G03*
X7406000Y-13462000I-40000J0D01*
G01*
X7660000Y-12700000D02*
G75*
G03*
X7660000Y-12700000I-40000J0D01*
G01*
X7660000Y-13462000D02*
G75*
G03*
X7660000Y-13462000I-40000J0D01*
G01*
X8168000Y-8636000D02*
G75*
G03*
X8168000Y-8636000I-40000J0D01*
G01*
X8168000Y-9136000D02*
G75*
G03*
X8168000Y-9136000I-40000J0D01*
G01*
X8168000Y-10668000D02*
G75*
G03*
X8168000Y-10668000I-40000J0D01*
G01*
X8168000Y-11168000D02*
G75*
G03*
X8168000Y-11168000I-40000J0D01*
G01*
X8168000Y-11938000D02*
G75*
G03*
X8168000Y-11938000I-40000J0D01*
G01*
X8168000Y-12188000D02*
G75*
G03*
X8168000Y-12188000I-40000J0D01*
G01*
X8168000Y-12700000D02*
G75*
G03*
X8168000Y-12700000I-40000J0D01*
G01*
X8168000Y-13200000D02*
G75*
G03*
X8168000Y-13200000I-40000J0D01*
G01*
X8676000Y-8636000D02*
G75*
G03*
X8676000Y-8636000I-40000J0D01*
G01*
X8676000Y-9398000D02*
G75*
G03*
X8676000Y-9398000I-40000J0D01*
G01*
X8676000Y-10668000D02*
G75*
G03*
X8676000Y-10668000I-40000J0D01*
G01*
X8676000Y-11430000D02*
G75*
G03*
X8676000Y-11430000I-40000J0D01*
G01*
X8676000Y-12700000D02*
G75*
G03*
X8676000Y-12700000I-40000J0D01*
G01*
X8676000Y-13462000D02*
G75*
G03*
X8676000Y-13462000I-40000J0D01*
G01*
X8930000Y-8636000D02*
G75*
G03*
X8930000Y-8636000I-40000J0D01*
G01*
X8930000Y-9398000D02*
G75*
G03*
X8930000Y-9398000I-40000J0D01*
G01*
X8930000Y-10668000D02*
G75*
G03*
X8930000Y-10668000I-40000J0D01*
G01*
X8930000Y-11430000D02*
G75*
G03*
X8930000Y-11430000I-40000J0D01*
G01*
X8930000Y-12700000D02*
G75*
G03*
X8930000Y-12700000I-40000J0D01*
G01*
X8930000Y-13462000D02*
G75*
G03*
X8930000Y-13462000I-40000J0D01*
G01*
X9184000Y-8636000D02*
G75*
G03*
X9184000Y-8636000I-40000J0D01*
G01*
X9184000Y-9398000D02*
G75*
G03*
X9184000Y-9398000I-40000J0D01*
G01*
X9184000Y-10668000D02*
G75*
G03*
X9184000Y-10668000I-40000J0D01*
G01*
X9184000Y-11430000D02*
G75*
G03*
X9184000Y-11430000I-40000J0D01*
G01*
X9184000Y-12700000D02*
G75*
G03*
X9184000Y-12700000I-40000J0D01*
G01*
X9184000Y-13462000D02*
G75*
G03*
X9184000Y-13462000I-40000J0D01*
G01*
X9438000Y-8636000D02*
G75*
G03*
X9438000Y-8636000I-40000J0D01*
G01*
X9438000Y-9398000D02*
G75*
G03*
X9438000Y-9398000I-40000J0D01*
G01*
X9438000Y-10668000D02*
G75*
G03*
X9438000Y-10668000I-40000J0D01*
G01*
X9438000Y-11430000D02*
G75*
G03*
X9438000Y-11430000I-40000J0D01*
G01*
X9438000Y-12700000D02*
G75*
G03*
X9438000Y-12700000I-40000J0D01*
G01*
X9438000Y-13462000D02*
G75*
G03*
X9438000Y-13462000I-40000J0D01*
G01*
X9692000Y-8636000D02*
G75*
G03*
X9692000Y-8636000I-40000J0D01*
G01*
X9692000Y-9398000D02*
G75*
G03*
X9692000Y-9398000I-40000J0D01*
G01*
X9692000Y-10668000D02*
G75*
G03*
X9692000Y-10668000I-40000J0D01*
G01*
X9692000Y-11430000D02*
G75*
G03*
X9692000Y-11430000I-40000J0D01*
G01*
X9692000Y-12700000D02*
G75*
G03*
X9692000Y-12700000I-40000J0D01*
G01*
X9692000Y-13462000D02*
G75*
G03*
X9692000Y-13462000I-40000J0D01*
G01*
X9946000Y-8636000D02*
G75*
G03*
X9946000Y-8636000I-40000J0D01*
G01*
X9946000Y-9398000D02*
G75*
G03*
X9946000Y-9398000I-40000J0D01*
G01*
X9946000Y-10668000D02*
G75*
G03*
X9946000Y-10668000I-40000J0D01*
G01*
X9946000Y-11430000D02*
G75*
G03*
X9946000Y-11430000I-40000J0D01*
G01*
X9946000Y-12700000D02*
G75*
G03*
X9946000Y-12700000I-40000J0D01*
G01*
X9946000Y-13462000D02*
G75*
G03*
X9946000Y-13462000I-40000J0D01*
G01*
X9950000Y-6604000D02*
G75*
G03*
X9950000Y-6604000I-40000J0D01*
G01*
X10200000Y-6604000D02*
G75*
G03*
X10200000Y-6604000I-40000J0D01*
G01*
X10200000Y-8636000D02*
G75*
G03*
X10200000Y-8636000I-40000J0D01*
G01*
X10200000Y-9398000D02*
G75*
G03*
X10200000Y-9398000I-40000J0D01*
G01*
X10200000Y-10668000D02*
G75*
G03*
X10200000Y-10668000I-40000J0D01*
G01*
X10200000Y-11430000D02*
G75*
G03*
X10200000Y-11430000I-40000J0D01*
G01*
X10200000Y-12700000D02*
G75*
G03*
X10200000Y-12700000I-40000J0D01*
G01*
X10200000Y-13462000D02*
G75*
G03*
X10200000Y-13462000I-40000J0D01*
G01*
X10454000Y-8636000D02*
G75*
G03*
X10454000Y-8636000I-40000J0D01*
G01*
X10454000Y-9398000D02*
G75*
G03*
X10454000Y-9398000I-40000J0D01*
G01*
X10454000Y-10668000D02*
G75*
G03*
X10454000Y-10668000I-40000J0D01*
G01*
X10454000Y-11430000D02*
G75*
G03*
X10454000Y-11430000I-40000J0D01*
G01*
X10454000Y-12700000D02*
G75*
G03*
X10454000Y-12700000I-40000J0D01*
G01*
X10454000Y-13462000D02*
G75*
G03*
X10454000Y-13462000I-40000J0D01*
G01*
X10962000Y-10668000D02*
G75*
G03*
X10962000Y-10668000I-40000J0D01*
G01*
X10962000Y-11168000D02*
G75*
G03*
X10962000Y-11168000I-40000J0D01*
G01*
X10962000Y-12700000D02*
G75*
G03*
X10962000Y-12700000I-40000J0D01*
G01*
X10962000Y-13200000D02*
G75*
G03*
X10962000Y-13200000I-40000J0D01*
G01*
X11216000Y-6604000D02*
G75*
G03*
X11216000Y-6604000I-40000J0D01*
G01*
X11216000Y-7104000D02*
G75*
G03*
X11216000Y-7104000I-40000J0D01*
G01*
X11216000Y-8636000D02*
G75*
G03*
X11216000Y-8636000I-40000J0D01*
G01*
X11216000Y-9136000D02*
G75*
G03*
X11216000Y-9136000I-40000J0D01*
G01*
X11470000Y-10668000D02*
G75*
G03*
X11470000Y-10668000I-40000J0D01*
G01*
X11470000Y-11430000D02*
G75*
G03*
X11470000Y-11430000I-40000J0D01*
G01*
X11470000Y-12700000D02*
G75*
G03*
X11470000Y-12700000I-40000J0D01*
G01*
X11470000Y-13462000D02*
G75*
G03*
X11470000Y-13462000I-40000J0D01*
G01*
X11724000Y-6604000D02*
G75*
G03*
X11724000Y-6604000I-40000J0D01*
G01*
X11724000Y-7366000D02*
G75*
G03*
X11724000Y-7366000I-40000J0D01*
G01*
X11724000Y-8636000D02*
G75*
G03*
X11724000Y-8636000I-40000J0D01*
G01*
X11724000Y-9398000D02*
G75*
G03*
X11724000Y-9398000I-40000J0D01*
G01*
X11724000Y-10668000D02*
G75*
G03*
X11724000Y-10668000I-40000J0D01*
G01*
X11724000Y-11430000D02*
G75*
G03*
X11724000Y-11430000I-40000J0D01*
G01*
X11724000Y-12700000D02*
G75*
G03*
X11724000Y-12700000I-40000J0D01*
G01*
X11724000Y-13462000D02*
G75*
G03*
X11724000Y-13462000I-40000J0D01*
G01*
X11978000Y-6604000D02*
G75*
G03*
X11978000Y-6604000I-40000J0D01*
G01*
X11978000Y-7366000D02*
G75*
G03*
X11978000Y-7366000I-40000J0D01*
G01*
X11978000Y-8636000D02*
G75*
G03*
X11978000Y-8636000I-40000J0D01*
G01*
X11978000Y-9398000D02*
G75*
G03*
X11978000Y-9398000I-40000J0D01*
G01*
X11978000Y-10668000D02*
G75*
G03*
X11978000Y-10668000I-40000J0D01*
G01*
X11978000Y-11430000D02*
G75*
G03*
X11978000Y-11430000I-40000J0D01*
G01*
X11978000Y-12700000D02*
G75*
G03*
X11978000Y-12700000I-40000J0D01*
G01*
X11978000Y-13462000D02*
G75*
G03*
X11978000Y-13462000I-40000J0D01*
G01*
X12232000Y-6604000D02*
G75*
G03*
X12232000Y-6604000I-40000J0D01*
G01*
X12232000Y-7366000D02*
G75*
G03*
X12232000Y-7366000I-40000J0D01*
G01*
X12232000Y-8636000D02*
G75*
G03*
X12232000Y-8636000I-40000J0D01*
G01*
X12232000Y-9398000D02*
G75*
G03*
X12232000Y-9398000I-40000J0D01*
G01*
X12232000Y-10668000D02*
G75*
G03*
X12232000Y-10668000I-40000J0D01*
G01*
X12232000Y-11430000D02*
G75*
G03*
X12232000Y-11430000I-40000J0D01*
G01*
X12232000Y-12700000D02*
G75*
G03*
X12232000Y-12700000I-40000J0D01*
G01*
X12232000Y-13462000D02*
G75*
G03*
X12232000Y-13462000I-40000J0D01*
G01*
X12486000Y-6604000D02*
G75*
G03*
X12486000Y-6604000I-40000J0D01*
G01*
X12486000Y-7366000D02*
G75*
G03*
X12486000Y-7366000I-40000J0D01*
G01*
X12486000Y-8636000D02*
G75*
G03*
X12486000Y-8636000I-40000J0D01*
G01*
X12486000Y-9398000D02*
G75*
G03*
X12486000Y-9398000I-40000J0D01*
G01*
X12486000Y-10668000D02*
G75*
G03*
X12486000Y-10668000I-40000J0D01*
G01*
X12486000Y-11430000D02*
G75*
G03*
X12486000Y-11430000I-40000J0D01*
G01*
X12486000Y-12700000D02*
G75*
G03*
X12486000Y-12700000I-40000J0D01*
G01*
X12486000Y-13462000D02*
G75*
G03*
X12486000Y-13462000I-40000J0D01*
G01*
X12740000Y-6604000D02*
G75*
G03*
X12740000Y-6604000I-40000J0D01*
G01*
X12740000Y-7366000D02*
G75*
G03*
X12740000Y-7366000I-40000J0D01*
G01*
X12740000Y-8636000D02*
G75*
G03*
X12740000Y-8636000I-40000J0D01*
G01*
X12740000Y-9398000D02*
G75*
G03*
X12740000Y-9398000I-40000J0D01*
G01*
X12740000Y-10668000D02*
G75*
G03*
X12740000Y-10668000I-40000J0D01*
G01*
X12740000Y-11430000D02*
G75*
G03*
X12740000Y-11430000I-40000J0D01*
G01*
X12740000Y-12700000D02*
G75*
G03*
X12740000Y-12700000I-40000J0D01*
G01*
X12740000Y-13462000D02*
G75*
G03*
X12740000Y-13462000I-40000J0D01*
G01*
X12994000Y-6604000D02*
G75*
G03*
X12994000Y-6604000I-40000J0D01*
G01*
X12994000Y-7366000D02*
G75*
G03*
X12994000Y-7366000I-40000J0D01*
G01*
X12994000Y-8636000D02*
G75*
G03*
X12994000Y-8636000I-40000J0D01*
G01*
X12994000Y-9398000D02*
G75*
G03*
X12994000Y-9398000I-40000J0D01*
G01*
X12994000Y-10668000D02*
G75*
G03*
X12994000Y-10668000I-40000J0D01*
G01*
X12994000Y-11430000D02*
G75*
G03*
X12994000Y-11430000I-40000J0D01*
G01*
X12994000Y-12700000D02*
G75*
G03*
X12994000Y-12700000I-40000J0D01*
G01*
X12994000Y-13462000D02*
G75*
G03*
X12994000Y-13462000I-40000J0D01*
G01*
X13248000Y-6604000D02*
G75*
G03*
X13248000Y-6604000I-40000J0D01*
G01*
X13248000Y-7366000D02*
G75*
G03*
X13248000Y-7366000I-40000J0D01*
G01*
X13248000Y-8636000D02*
G75*
G03*
X13248000Y-8636000I-40000J0D01*
G01*
X13248000Y-9398000D02*
G75*
G03*
X13248000Y-9398000I-40000J0D01*
G01*
X13248000Y-10668000D02*
G75*
G03*
X13248000Y-10668000I-40000J0D01*
G01*
X13248000Y-11430000D02*
G75*
G03*
X13248000Y-11430000I-40000J0D01*
G01*
X13248000Y-12700000D02*
G75*
G03*
X13248000Y-12700000I-40000J0D01*
G01*
X13248000Y-13462000D02*
G75*
G03*
X13248000Y-13462000I-40000J0D01*
G01*
X13756000Y-6604000D02*
G75*
G03*
X13756000Y-6604000I-40000J0D01*
G01*
X13756000Y-7104000D02*
G75*
G03*
X13756000Y-7104000I-40000J0D01*
G01*
X13756000Y-8636000D02*
G75*
G03*
X13756000Y-8636000I-40000J0D01*
G01*
X13756000Y-9136000D02*
G75*
G03*
X13756000Y-9136000I-40000J0D01*
G01*
X13756000Y-10668000D02*
G75*
G03*
X13756000Y-10668000I-40000J0D01*
G01*
X13756000Y-11168000D02*
G75*
G03*
X13756000Y-11168000I-40000J0D01*
G01*
X13756000Y-12700000D02*
G75*
G03*
X13756000Y-12700000I-40000J0D01*
G01*
X13756000Y-13200000D02*
G75*
G03*
X13756000Y-13200000I-40000J0D01*
G01*
X14263500Y-10668000D02*
G75*
G03*
X14263500Y-10668000I-40000J0D01*
G01*
X14263500Y-11430000D02*
G75*
G03*
X14263500Y-11430000I-40000J0D01*
G01*
X14264000Y-6604000D02*
G75*
G03*
X14264000Y-6604000I-40000J0D01*
G01*
X14264000Y-7366000D02*
G75*
G03*
X14264000Y-7366000I-40000J0D01*
G01*
X14264000Y-8636000D02*
G75*
G03*
X14264000Y-8636000I-40000J0D01*
G01*
X14264000Y-9398000D02*
G75*
G03*
X14264000Y-9398000I-40000J0D01*
G01*
X14264000Y-12700000D02*
G75*
G03*
X14264000Y-12700000I-40000J0D01*
G01*
X14264000Y-13462000D02*
G75*
G03*
X14264000Y-13462000I-40000J0D01*
G01*
X14517500Y-10668000D02*
G75*
G03*
X14517500Y-10668000I-40000J0D01*
G01*
X14517500Y-11430000D02*
G75*
G03*
X14517500Y-11430000I-40000J0D01*
G01*
X14518000Y-6604000D02*
G75*
G03*
X14518000Y-6604000I-40000J0D01*
G01*
X14518000Y-7366000D02*
G75*
G03*
X14518000Y-7366000I-40000J0D01*
G01*
X14518000Y-8636000D02*
G75*
G03*
X14518000Y-8636000I-40000J0D01*
G01*
X14518000Y-9398000D02*
G75*
G03*
X14518000Y-9398000I-40000J0D01*
G01*
X14518000Y-12700000D02*
G75*
G03*
X14518000Y-12700000I-40000J0D01*
G01*
X14518000Y-13462000D02*
G75*
G03*
X14518000Y-13462000I-40000J0D01*
G01*
X14771500Y-10668000D02*
G75*
G03*
X14771500Y-10668000I-40000J0D01*
G01*
X14771500Y-11430000D02*
G75*
G03*
X14771500Y-11430000I-40000J0D01*
G01*
X14772000Y-6604000D02*
G75*
G03*
X14772000Y-6604000I-40000J0D01*
G01*
X14772000Y-7366000D02*
G75*
G03*
X14772000Y-7366000I-40000J0D01*
G01*
X14772000Y-8636000D02*
G75*
G03*
X14772000Y-8636000I-40000J0D01*
G01*
X14772000Y-9398000D02*
G75*
G03*
X14772000Y-9398000I-40000J0D01*
G01*
X14772000Y-12700000D02*
G75*
G03*
X14772000Y-12700000I-40000J0D01*
G01*
X14772000Y-13462000D02*
G75*
G03*
X14772000Y-13462000I-40000J0D01*
G01*
X15025500Y-10668000D02*
G75*
G03*
X15025500Y-10668000I-40000J0D01*
G01*
X15025500Y-11430000D02*
G75*
G03*
X15025500Y-11430000I-40000J0D01*
G01*
X15026000Y-6604000D02*
G75*
G03*
X15026000Y-6604000I-40000J0D01*
G01*
X15026000Y-7366000D02*
G75*
G03*
X15026000Y-7366000I-40000J0D01*
G01*
X15026000Y-8636000D02*
G75*
G03*
X15026000Y-8636000I-40000J0D01*
G01*
X15026000Y-9398000D02*
G75*
G03*
X15026000Y-9398000I-40000J0D01*
G01*
X15026000Y-12700000D02*
G75*
G03*
X15026000Y-12700000I-40000J0D01*
G01*
X15026000Y-13462000D02*
G75*
G03*
X15026000Y-13462000I-40000J0D01*
G01*
X15279500Y-10668000D02*
G75*
G03*
X15279500Y-10668000I-40000J0D01*
G01*
X15279500Y-11430000D02*
G75*
G03*
X15279500Y-11430000I-40000J0D01*
G01*
X15280000Y-6604000D02*
G75*
G03*
X15280000Y-6604000I-40000J0D01*
G01*
X15280000Y-7366000D02*
G75*
G03*
X15280000Y-7366000I-40000J0D01*
G01*
X15280000Y-8636000D02*
G75*
G03*
X15280000Y-8636000I-40000J0D01*
G01*
X15280000Y-9398000D02*
G75*
G03*
X15280000Y-9398000I-40000J0D01*
G01*
X15280000Y-12700000D02*
G75*
G03*
X15280000Y-12700000I-40000J0D01*
G01*
X15280000Y-13462000D02*
G75*
G03*
X15280000Y-13462000I-40000J0D01*
G01*
X15533500Y-10668000D02*
G75*
G03*
X15533500Y-10668000I-40000J0D01*
G01*
X15533500Y-11430000D02*
G75*
G03*
X15533500Y-11430000I-40000J0D01*
G01*
X15534000Y-6604000D02*
G75*
G03*
X15534000Y-6604000I-40000J0D01*
G01*
X15534000Y-7366000D02*
G75*
G03*
X15534000Y-7366000I-40000J0D01*
G01*
X15534000Y-8636000D02*
G75*
G03*
X15534000Y-8636000I-40000J0D01*
G01*
X15534000Y-9398000D02*
G75*
G03*
X15534000Y-9398000I-40000J0D01*
G01*
X15534000Y-12700000D02*
G75*
G03*
X15534000Y-12700000I-40000J0D01*
G01*
X15534000Y-13462000D02*
G75*
G03*
X15534000Y-13462000I-40000J0D01*
G01*
X15787500Y-10668000D02*
G75*
G03*
X15787500Y-10668000I-40000J0D01*
G01*
X15787500Y-11430000D02*
G75*
G03*
X15787500Y-11430000I-40000J0D01*
G01*
X15788000Y-6604000D02*
G75*
G03*
X15788000Y-6604000I-40000J0D01*
G01*
X15788000Y-7366000D02*
G75*
G03*
X15788000Y-7366000I-40000J0D01*
G01*
X15788000Y-8636000D02*
G75*
G03*
X15788000Y-8636000I-40000J0D01*
G01*
X15788000Y-9398000D02*
G75*
G03*
X15788000Y-9398000I-40000J0D01*
G01*
X15788000Y-12700000D02*
G75*
G03*
X15788000Y-12700000I-40000J0D01*
G01*
X15788000Y-13462000D02*
G75*
G03*
X15788000Y-13462000I-40000J0D01*
G01*
X18332000Y-11938000D02*
G75*
G03*
X18332000Y-11938000I-40000J0D01*
G01*
X18582000Y-11938000D02*
G75*
G03*
X18582000Y-11938000I-40000J0D01*
G01*
X19344000Y-7874000D02*
G75*
G03*
X19344000Y-7874000I-40000J0D01*
G01*
X19344000Y-8128000D02*
G75*
G03*
X19344000Y-8128000I-40000J0D01*
G01*
X19344000Y-8382000D02*
G75*
G03*
X19344000Y-8382000I-40000J0D01*
G01*
X19344000Y-8636000D02*
G75*
G03*
X19344000Y-8636000I-40000J0D01*
G01*
X19344000Y-8890000D02*
G75*
G03*
X19344000Y-8890000I-40000J0D01*
G01*
X19344000Y-9144000D02*
G75*
G03*
X19344000Y-9144000I-40000J0D01*
G01*
X19344000Y-9398000D02*
G75*
G03*
X19344000Y-9398000I-40000J0D01*
G01*
X19344000Y-11430000D02*
G75*
G03*
X19344000Y-11430000I-40000J0D01*
G01*
X19344000Y-11684000D02*
G75*
G03*
X19344000Y-11684000I-40000J0D01*
G01*
X19344000Y-11938000D02*
G75*
G03*
X19344000Y-11938000I-40000J0D01*
G01*
X19344000Y-12192000D02*
G75*
G03*
X19344000Y-12192000I-40000J0D01*
G01*
X19344000Y-12446000D02*
G75*
G03*
X19344000Y-12446000I-40000J0D01*
G01*
X19344000Y-12700000D02*
G75*
G03*
X19344000Y-12700000I-40000J0D01*
G01*
X19344000Y-12954000D02*
G75*
G03*
X19344000Y-12954000I-40000J0D01*
G01*
X20106000Y-7874000D02*
G75*
G03*
X20106000Y-7874000I-40000J0D01*
G01*
X20106000Y-8128000D02*
G75*
G03*
X20106000Y-8128000I-40000J0D01*
G01*
X20106000Y-8382000D02*
G75*
G03*
X20106000Y-8382000I-40000J0D01*
G01*
X20106000Y-8636000D02*
G75*
G03*
X20106000Y-8636000I-40000J0D01*
G01*
X20106000Y-8890000D02*
G75*
G03*
X20106000Y-8890000I-40000J0D01*
G01*
X20106000Y-9144000D02*
G75*
G03*
X20106000Y-9144000I-40000J0D01*
G01*
X20106000Y-9398000D02*
G75*
G03*
X20106000Y-9398000I-40000J0D01*
G01*
X20106000Y-11430000D02*
G75*
G03*
X20106000Y-11430000I-40000J0D01*
G01*
X20106000Y-11684000D02*
G75*
G03*
X20106000Y-11684000I-40000J0D01*
G01*
X20106000Y-11938000D02*
G75*
G03*
X20106000Y-11938000I-40000J0D01*
G01*
X20106000Y-12192000D02*
G75*
G03*
X20106000Y-12192000I-40000J0D01*
G01*
X20106000Y-12446000D02*
G75*
G03*
X20106000Y-12446000I-40000J0D01*
G01*
X20106000Y-12700000D02*
G75*
G03*
X20106000Y-12700000I-40000J0D01*
G01*
X20106000Y-12954000D02*
G75*
G03*
X20106000Y-12954000I-40000J0D01*
G01*
X20487000Y-7874000D02*
G75*
G03*
X20487000Y-7874000I-40000J0D01*
G01*
X20487000Y-8374000D02*
G75*
G03*
X20487000Y-8374000I-40000J0D01*
G01*
X20487000Y-11430000D02*
G75*
G03*
X20487000Y-11430000I-40000J0D01*
G01*
X20487000Y-11930000D02*
G75*
G03*
X20487000Y-11930000I-40000J0D01*
G01*
X20868000Y-7874000D02*
G75*
G03*
X20868000Y-7874000I-40000J0D01*
G01*
X20868000Y-8128000D02*
G75*
G03*
X20868000Y-8128000I-40000J0D01*
G01*
X20868000Y-8382000D02*
G75*
G03*
X20868000Y-8382000I-40000J0D01*
G01*
X20868000Y-8636000D02*
G75*
G03*
X20868000Y-8636000I-40000J0D01*
G01*
X20868000Y-8890000D02*
G75*
G03*
X20868000Y-8890000I-40000J0D01*
G01*
X20868000Y-9144000D02*
G75*
G03*
X20868000Y-9144000I-40000J0D01*
G01*
X20868000Y-9398000D02*
G75*
G03*
X20868000Y-9398000I-40000J0D01*
G01*
X20868000Y-11430000D02*
G75*
G03*
X20868000Y-11430000I-40000J0D01*
G01*
X20868000Y-11684000D02*
G75*
G03*
X20868000Y-11684000I-40000J0D01*
G01*
X20868000Y-11938000D02*
G75*
G03*
X20868000Y-11938000I-40000J0D01*
G01*
X20868000Y-12192000D02*
G75*
G03*
X20868000Y-12192000I-40000J0D01*
G01*
X20868000Y-12446000D02*
G75*
G03*
X20868000Y-12446000I-40000J0D01*
G01*
X20868000Y-12700000D02*
G75*
G03*
X20868000Y-12700000I-40000J0D01*
G01*
X20868000Y-12954000D02*
G75*
G03*
X20868000Y-12954000I-40000J0D01*
G01*
X21630000Y-7874000D02*
G75*
G03*
X21630000Y-7874000I-40000J0D01*
G01*
X21630000Y-8128000D02*
G75*
G03*
X21630000Y-8128000I-40000J0D01*
G01*
X21630000Y-8382000D02*
G75*
G03*
X21630000Y-8382000I-40000J0D01*
G01*
X21630000Y-8636000D02*
G75*
G03*
X21630000Y-8636000I-40000J0D01*
G01*
X21630000Y-8890000D02*
G75*
G03*
X21630000Y-8890000I-40000J0D01*
G01*
X21630000Y-9144000D02*
G75*
G03*
X21630000Y-9144000I-40000J0D01*
G01*
X21630000Y-9398000D02*
G75*
G03*
X21630000Y-9398000I-40000J0D01*
G01*
X21630000Y-11430000D02*
G75*
G03*
X21630000Y-11430000I-40000J0D01*
G01*
X21630000Y-11684000D02*
G75*
G03*
X21630000Y-11684000I-40000J0D01*
G01*
X21630000Y-11938000D02*
G75*
G03*
X21630000Y-11938000I-40000J0D01*
G01*
X21630000Y-12192000D02*
G75*
G03*
X21630000Y-12192000I-40000J0D01*
G01*
X21630000Y-12446000D02*
G75*
G03*
X21630000Y-12446000I-40000J0D01*
G01*
X21630000Y-12700000D02*
G75*
G03*
X21630000Y-12700000I-40000J0D01*
G01*
X21630000Y-12954000D02*
G75*
G03*
X21630000Y-12954000I-40000J0D01*
G01*
X22011000Y-7874000D02*
G75*
G03*
X22011000Y-7874000I-40000J0D01*
G01*
X22011000Y-8374000D02*
G75*
G03*
X22011000Y-8374000I-40000J0D01*
G01*
X22011000Y-11430000D02*
G75*
G03*
X22011000Y-11430000I-40000J0D01*
G01*
X22011000Y-11930000D02*
G75*
G03*
X22011000Y-11930000I-40000J0D01*
G01*
X22392000Y-7874000D02*
G75*
G03*
X22392000Y-7874000I-40000J0D01*
G01*
X22392000Y-8128000D02*
G75*
G03*
X22392000Y-8128000I-40000J0D01*
G01*
X22392000Y-8382000D02*
G75*
G03*
X22392000Y-8382000I-40000J0D01*
G01*
X22392000Y-8636000D02*
G75*
G03*
X22392000Y-8636000I-40000J0D01*
G01*
X22392000Y-8890000D02*
G75*
G03*
X22392000Y-8890000I-40000J0D01*
G01*
X22392000Y-9144000D02*
G75*
G03*
X22392000Y-9144000I-40000J0D01*
G01*
X22392000Y-9398000D02*
G75*
G03*
X22392000Y-9398000I-40000J0D01*
G01*
X22392000Y-11430000D02*
G75*
G03*
X22392000Y-11430000I-40000J0D01*
G01*
X22392000Y-11684000D02*
G75*
G03*
X22392000Y-11684000I-40000J0D01*
G01*
X22392000Y-11938000D02*
G75*
G03*
X22392000Y-11938000I-40000J0D01*
G01*
X22392000Y-12192000D02*
G75*
G03*
X22392000Y-12192000I-40000J0D01*
G01*
X22392000Y-12446000D02*
G75*
G03*
X22392000Y-12446000I-40000J0D01*
G01*
X22392000Y-12700000D02*
G75*
G03*
X22392000Y-12700000I-40000J0D01*
G01*
X22392000Y-12954000D02*
G75*
G03*
X22392000Y-12954000I-40000J0D01*
G01*
X23154000Y-7874000D02*
G75*
G03*
X23154000Y-7874000I-40000J0D01*
G01*
X23154000Y-8128000D02*
G75*
G03*
X23154000Y-8128000I-40000J0D01*
G01*
X23154000Y-8382000D02*
G75*
G03*
X23154000Y-8382000I-40000J0D01*
G01*
X23154000Y-8636000D02*
G75*
G03*
X23154000Y-8636000I-40000J0D01*
G01*
X23154000Y-8890000D02*
G75*
G03*
X23154000Y-8890000I-40000J0D01*
G01*
X23154000Y-9144000D02*
G75*
G03*
X23154000Y-9144000I-40000J0D01*
G01*
X23154000Y-9398000D02*
G75*
G03*
X23154000Y-9398000I-40000J0D01*
G01*
X23154000Y-11430000D02*
G75*
G03*
X23154000Y-11430000I-40000J0D01*
G01*
X23154000Y-11684000D02*
G75*
G03*
X23154000Y-11684000I-40000J0D01*
G01*
X23154000Y-11938000D02*
G75*
G03*
X23154000Y-11938000I-40000J0D01*
G01*
X23154000Y-12192000D02*
G75*
G03*
X23154000Y-12192000I-40000J0D01*
G01*
X23154000Y-12446000D02*
G75*
G03*
X23154000Y-12446000I-40000J0D01*
G01*
X23154000Y-12700000D02*
G75*
G03*
X23154000Y-12700000I-40000J0D01*
G01*
X23154000Y-12954000D02*
G75*
G03*
X23154000Y-12954000I-40000J0D01*
G01*
X23535000Y-7874000D02*
G75*
G03*
X23535000Y-7874000I-40000J0D01*
G01*
X23535000Y-8374000D02*
G75*
G03*
X23535000Y-8374000I-40000J0D01*
G01*
X23535000Y-11430000D02*
G75*
G03*
X23535000Y-11430000I-40000J0D01*
G01*
X23535000Y-11930000D02*
G75*
G03*
X23535000Y-11930000I-40000J0D01*
G01*
X23916000Y-7874000D02*
G75*
G03*
X23916000Y-7874000I-40000J0D01*
G01*
X23916000Y-8128000D02*
G75*
G03*
X23916000Y-8128000I-40000J0D01*
G01*
X23916000Y-8382000D02*
G75*
G03*
X23916000Y-8382000I-40000J0D01*
G01*
X23916000Y-8636000D02*
G75*
G03*
X23916000Y-8636000I-40000J0D01*
G01*
X23916000Y-8890000D02*
G75*
G03*
X23916000Y-8890000I-40000J0D01*
G01*
X23916000Y-9144000D02*
G75*
G03*
X23916000Y-9144000I-40000J0D01*
G01*
X23916000Y-9398000D02*
G75*
G03*
X23916000Y-9398000I-40000J0D01*
G01*
X23916000Y-11430000D02*
G75*
G03*
X23916000Y-11430000I-40000J0D01*
G01*
X23916000Y-11684000D02*
G75*
G03*
X23916000Y-11684000I-40000J0D01*
G01*
X23916000Y-11938000D02*
G75*
G03*
X23916000Y-11938000I-40000J0D01*
G01*
X23916000Y-12192000D02*
G75*
G03*
X23916000Y-12192000I-40000J0D01*
G01*
X23916000Y-12446000D02*
G75*
G03*
X23916000Y-12446000I-40000J0D01*
G01*
X23916000Y-12700000D02*
G75*
G03*
X23916000Y-12700000I-40000J0D01*
G01*
X23916000Y-12954000D02*
G75*
G03*
X23916000Y-12954000I-40000J0D01*
G01*
X24178000Y-7366000D02*
G75*
G03*
X24178000Y-7366000I-40000J0D01*
G01*
X24178000Y-10922000D02*
G75*
G03*
X24178000Y-10922000I-40000J0D01*
G01*
X24678000Y-7366000D02*
G75*
G03*
X24678000Y-7366000I-40000J0D01*
G01*
X24678000Y-7874000D02*
G75*
G03*
X24678000Y-7874000I-40000J0D01*
G01*
X24678000Y-8128000D02*
G75*
G03*
X24678000Y-8128000I-40000J0D01*
G01*
X24678000Y-8382000D02*
G75*
G03*
X24678000Y-8382000I-40000J0D01*
G01*
X24678000Y-8636000D02*
G75*
G03*
X24678000Y-8636000I-40000J0D01*
G01*
X24678000Y-8890000D02*
G75*
G03*
X24678000Y-8890000I-40000J0D01*
G01*
X24678000Y-9144000D02*
G75*
G03*
X24678000Y-9144000I-40000J0D01*
G01*
X24678000Y-9398000D02*
G75*
G03*
X24678000Y-9398000I-40000J0D01*
G01*
X24678000Y-10922000D02*
G75*
G03*
X24678000Y-10922000I-40000J0D01*
G01*
X24678000Y-11430000D02*
G75*
G03*
X24678000Y-11430000I-40000J0D01*
G01*
X24678000Y-11684000D02*
G75*
G03*
X24678000Y-11684000I-40000J0D01*
G01*
X24678000Y-11938000D02*
G75*
G03*
X24678000Y-11938000I-40000J0D01*
G01*
X24678000Y-12192000D02*
G75*
G03*
X24678000Y-12192000I-40000J0D01*
G01*
X24678000Y-12446000D02*
G75*
G03*
X24678000Y-12446000I-40000J0D01*
G01*
X24678000Y-12700000D02*
G75*
G03*
X24678000Y-12700000I-40000J0D01*
G01*
X24678000Y-12954000D02*
G75*
G03*
X24678000Y-12954000I-40000J0D01*
G01*
D10*
X5842000Y-6046000D02*
X5842000Y-6146000D01*
X5792000Y-6096000D02*
X5892000Y-6096000D01*
X5842000Y-7824000D02*
X5842000Y-7924000D01*
X5792000Y-7874000D02*
X5892000Y-7874000D01*
X5842000Y-8840000D02*
X5842000Y-8940000D01*
X5792000Y-8890000D02*
X5892000Y-8890000D01*
X6096000Y-6046000D02*
X6096000Y-6146000D01*
X6046000Y-6096000D02*
X6146000Y-6096000D01*
X6096000Y-7824000D02*
X6096000Y-7924000D01*
X6046000Y-7874000D02*
X6146000Y-7874000D01*
X6096000Y-8840000D02*
X6096000Y-8940000D01*
X6046000Y-8890000D02*
X6146000Y-8890000D01*
X6096000Y-14428000D02*
X6096000Y-14528000D01*
X6046000Y-14478000D02*
X6146000Y-14478000D01*
X6350000Y-6046000D02*
X6350000Y-6146000D01*
X6300000Y-6096000D02*
X6400000Y-6096000D01*
X6350000Y-14428000D02*
X6350000Y-14528000D01*
X6300000Y-14478000D02*
X6400000Y-14478000D01*
X6604000Y-6046000D02*
X6604000Y-6146000D01*
X6554000Y-6096000D02*
X6654000Y-6096000D01*
X6604000Y-14428000D02*
X6604000Y-14528000D01*
X6554000Y-14478000D02*
X6654000Y-14478000D01*
X6858000Y-6046000D02*
X6858000Y-6146000D01*
X6808000Y-6096000D02*
X6908000Y-6096000D01*
X6858000Y-14428000D02*
X6858000Y-14528000D01*
X6808000Y-14478000D02*
X6908000Y-14478000D01*
X7112000Y-6046000D02*
X7112000Y-6146000D01*
X7062000Y-6096000D02*
X7162000Y-6096000D01*
X7112000Y-14428000D02*
X7112000Y-14528000D01*
X7062000Y-14478000D02*
X7162000Y-14478000D01*
X7366000Y-6046000D02*
X7366000Y-6146000D01*
X7316000Y-6096000D02*
X7416000Y-6096000D01*
X7366000Y-14428000D02*
X7366000Y-14528000D01*
X7316000Y-14478000D02*
X7416000Y-14478000D01*
X7620000Y-14428000D02*
X7620000Y-14528000D01*
X7570000Y-14478000D02*
X7670000Y-14478000D01*
X7874000Y-14428000D02*
X7874000Y-14528000D01*
X7824000Y-14478000D02*
X7924000Y-14478000D01*
X8128000Y-14428000D02*
X8128000Y-14528000D01*
X8078000Y-14478000D02*
X8178000Y-14478000D01*
X8382000Y-14428000D02*
X8382000Y-14528000D01*
X8332000Y-14478000D02*
X8432000Y-14478000D01*
X8636000Y-14428000D02*
X8636000Y-14528000D01*
X8586000Y-14478000D02*
X8686000Y-14478000D01*
X8890000Y-14428000D02*
X8890000Y-14528000D01*
X8840000Y-14478000D02*
X8940000Y-14478000D01*
X9144000Y-14428000D02*
X9144000Y-14528000D01*
X9094000Y-14478000D02*
X9194000Y-14478000D01*
X9398000Y-14428000D02*
X9398000Y-14528000D01*
X9348000Y-14478000D02*
X9448000Y-14478000D01*
X10160000Y-14428000D02*
X10160000Y-14528000D01*
X10110000Y-14478000D02*
X10210000Y-14478000D01*
X10414000Y-14428000D02*
X10414000Y-14528000D01*
X10364000Y-14478000D02*
X10464000Y-14478000D01*
X10668000Y-14428000D02*
X10668000Y-14528000D01*
X10618000Y-14478000D02*
X10718000Y-14478000D01*
X10922000Y-14428000D02*
X10922000Y-14528000D01*
X10872000Y-14478000D02*
X10972000Y-14478000D01*
X11150600Y-7874800D02*
X11150600Y-7974800D01*
X11100600Y-7924800D02*
X11200600Y-7924800D01*
X11176000Y-14428000D02*
X11176000Y-14528000D01*
X11126000Y-14478000D02*
X11226000Y-14478000D01*
X11404600Y-7874800D02*
X11404600Y-7974800D01*
X11354600Y-7924800D02*
X11454600Y-7924800D01*
X11430000Y-14428000D02*
X11430000Y-14528000D01*
X11380000Y-14478000D02*
X11480000Y-14478000D01*
X11684000Y-14428000D02*
X11684000Y-14528000D01*
X11634000Y-14478000D02*
X11734000Y-14478000D01*
X11938000Y-14428000D02*
X11938000Y-14528000D01*
X11888000Y-14478000D02*
X11988000Y-14478000D01*
X12065000Y-7874800D02*
X12065000Y-7974800D01*
X12015000Y-7924800D02*
X12115000Y-7924800D01*
X12192000Y-14428000D02*
X12192000Y-14528000D01*
X12142000Y-14478000D02*
X12242000Y-14478000D01*
X12319000Y-7874800D02*
X12319000Y-7974800D01*
X12269000Y-7924800D02*
X12369000Y-7924800D01*
X12446000Y-14428000D02*
X12446000Y-14528000D01*
X12396000Y-14478000D02*
X12496000Y-14478000D01*
X12700000Y-14428000D02*
X12700000Y-14528000D01*
X12650000Y-14478000D02*
X12750000Y-14478000D01*
X12954000Y-14428000D02*
X12954000Y-14528000D01*
X12904000Y-14478000D02*
X13004000Y-14478000D01*
X13208000Y-14428000D02*
X13208000Y-14528000D01*
X13158000Y-14478000D02*
X13258000Y-14478000D01*
X13462000Y-14428000D02*
X13462000Y-14528000D01*
X13412000Y-14478000D02*
X13512000Y-14478000D01*
X13716000Y-14428000D02*
X13716000Y-14528000D01*
X13666000Y-14478000D02*
X13766000Y-14478000D01*
X13792200Y-7874800D02*
X13792200Y-7974800D01*
X13742200Y-7924800D02*
X13842200Y-7924800D01*
X13970000Y-14428000D02*
X13970000Y-14528000D01*
X13920000Y-14478000D02*
X14020000Y-14478000D01*
X14046200Y-7874800D02*
X14046200Y-7974800D01*
X13996200Y-7924800D02*
X14096200Y-7924800D01*
X14681200Y-7874800D02*
X14681200Y-7974800D01*
X14631200Y-7924800D02*
X14731200Y-7924800D01*
X14935200Y-7874800D02*
X14935200Y-7974800D01*
X14885200Y-7924800D02*
X14985200Y-7924800D01*
X16510000Y-14428000D02*
X16510000Y-14528000D01*
X16460000Y-14478000D02*
X16560000Y-14478000D01*
X16713200Y-6884200D02*
X16713200Y-6984200D01*
X16663200Y-6934200D02*
X16763200Y-6934200D01*
X16764000Y-14428000D02*
X16764000Y-14528000D01*
X16714000Y-14478000D02*
X16814000Y-14478000D01*
X16967200Y-6884200D02*
X16967200Y-6984200D01*
X16917200Y-6934200D02*
X17017200Y-6934200D01*
X17018000Y-14428000D02*
X17018000Y-14528000D01*
X16968000Y-14478000D02*
X17068000Y-14478000D01*
X17170400Y-5360200D02*
X17170400Y-5460200D01*
X17120400Y-5410200D02*
X17220400Y-5410200D01*
X17170400Y-5842800D02*
X17170400Y-5942800D01*
X17120400Y-5892800D02*
X17220400Y-5892800D01*
X17272000Y-14428000D02*
X17272000Y-14528000D01*
X17222000Y-14478000D02*
X17322000Y-14478000D01*
X17424400Y-5360200D02*
X17424400Y-5460200D01*
X17374400Y-5410200D02*
X17474400Y-5410200D01*
X17424400Y-5842800D02*
X17424400Y-5942800D01*
X17374400Y-5892800D02*
X17474400Y-5892800D01*
X17526000Y-14428000D02*
X17526000Y-14528000D01*
X17476000Y-14478000D02*
X17576000Y-14478000D01*
X17780000Y-14428000D02*
X17780000Y-14528000D01*
X17730000Y-14478000D02*
X17830000Y-14478000D01*
X18034000Y-14428000D02*
X18034000Y-14528000D01*
X17984000Y-14478000D02*
X18084000Y-14478000D01*
X18288000Y-14428000D02*
X18288000Y-14528000D01*
X18238000Y-14478000D02*
X18338000Y-14478000D01*
X18542000Y-14428000D02*
X18542000Y-14528000D01*
X18492000Y-14478000D02*
X18592000Y-14478000D01*
X18796000Y-14428000D02*
X18796000Y-14528000D01*
X18746000Y-14478000D02*
X18846000Y-14478000D01*
X18897600Y-5360200D02*
X18897600Y-5460200D01*
X18847600Y-5410200D02*
X18947600Y-5410200D01*
X18897600Y-5842800D02*
X18897600Y-5942800D01*
X18847600Y-5892800D02*
X18947600Y-5892800D01*
X19050000Y-14428000D02*
X19050000Y-14528000D01*
X19000000Y-14478000D02*
X19100000Y-14478000D01*
X19151600Y-5360200D02*
X19151600Y-5460200D01*
X19101600Y-5410200D02*
X19201600Y-5410200D01*
X19151600Y-5842800D02*
X19151600Y-5942800D01*
X19101600Y-5892800D02*
X19201600Y-5892800D01*
X19304000Y-14428000D02*
X19304000Y-14528000D01*
X19254000Y-14478000D02*
X19354000Y-14478000D01*
X19558000Y-14428000D02*
X19558000Y-14528000D01*
X19508000Y-14478000D02*
X19608000Y-14478000D01*
X19812000Y-14428000D02*
X19812000Y-14528000D01*
X19762000Y-14478000D02*
X19862000Y-14478000D01*
X20066000Y-14428000D02*
X20066000Y-14528000D01*
X20016000Y-14478000D02*
X20116000Y-14478000D01*
X20320000Y-14428000D02*
X20320000Y-14528000D01*
X20270000Y-14478000D02*
X20370000Y-14478000D01*
X20574000Y-14428000D02*
X20574000Y-14528000D01*
X20524000Y-14478000D02*
X20624000Y-14478000D01*
X20828000Y-6046000D02*
X20828000Y-6146000D01*
X20778000Y-6096000D02*
X20878000Y-6096000D01*
X20828000Y-14428000D02*
X20828000Y-14528000D01*
X20778000Y-14478000D02*
X20878000Y-14478000D01*
X21082000Y-6046000D02*
X21082000Y-6146000D01*
X21032000Y-6096000D02*
X21132000Y-6096000D01*
X21082000Y-14428000D02*
X21082000Y-14528000D01*
X21032000Y-14478000D02*
X21132000Y-14478000D01*
X21336000Y-6046000D02*
X21336000Y-6146000D01*
X21286000Y-6096000D02*
X21386000Y-6096000D01*
X21336000Y-14428000D02*
X21336000Y-14528000D01*
X21286000Y-14478000D02*
X21386000Y-14478000D01*
X21590000Y-6046000D02*
X21590000Y-6146000D01*
X21540000Y-6096000D02*
X21640000Y-6096000D01*
X21590000Y-14428000D02*
X21590000Y-14528000D01*
X21540000Y-14478000D02*
X21640000Y-14478000D01*
X21844000Y-6046000D02*
X21844000Y-6146000D01*
X21794000Y-6096000D02*
X21894000Y-6096000D01*
X21844000Y-14428000D02*
X21844000Y-14528000D01*
X21794000Y-14478000D02*
X21894000Y-14478000D01*
X22098000Y-6046000D02*
X22098000Y-6146000D01*
X22048000Y-6096000D02*
X22148000Y-6096000D01*
X22098000Y-14428000D02*
X22098000Y-14528000D01*
X22048000Y-14478000D02*
X22148000Y-14478000D01*
X22352000Y-6046000D02*
X22352000Y-6146000D01*
X22302000Y-6096000D02*
X22402000Y-6096000D01*
X22352000Y-14428000D02*
X22352000Y-14528000D01*
X22302000Y-14478000D02*
X22402000Y-14478000D01*
X22606000Y-6046000D02*
X22606000Y-6146000D01*
X22556000Y-6096000D02*
X22656000Y-6096000D01*
X22606000Y-14428000D02*
X22606000Y-14528000D01*
X22556000Y-14478000D02*
X22656000Y-14478000D01*
X22860000Y-6046000D02*
X22860000Y-6146000D01*
X22810000Y-6096000D02*
X22910000Y-6096000D01*
X22860000Y-14428000D02*
X22860000Y-14528000D01*
X22810000Y-14478000D02*
X22910000Y-14478000D01*
X23114000Y-6046000D02*
X23114000Y-6146000D01*
X23064000Y-6096000D02*
X23164000Y-6096000D01*
X23114000Y-14428000D02*
X23114000Y-14528000D01*
X23064000Y-14478000D02*
X23164000Y-14478000D01*
X23368000Y-6046000D02*
X23368000Y-6146000D01*
X23318000Y-6096000D02*
X23418000Y-6096000D01*
X23368000Y-14428000D02*
X23368000Y-14528000D01*
X23318000Y-14478000D02*
X23418000Y-14478000D01*
X23622000Y-6046000D02*
X23622000Y-6146000D01*
X23572000Y-6096000D02*
X23672000Y-6096000D01*
X23622000Y-14428000D02*
X23622000Y-14528000D01*
X23572000Y-14478000D02*
X23672000Y-14478000D01*
X23876000Y-6046000D02*
X23876000Y-6146000D01*
X23826000Y-6096000D02*
X23926000Y-6096000D01*
X23876000Y-14428000D02*
X23876000Y-14528000D01*
X23826000Y-14478000D02*
X23926000Y-14478000D01*
X24130000Y-6046000D02*
X24130000Y-6146000D01*
X24080000Y-6096000D02*
X24180000Y-6096000D01*
X24130000Y-14428000D02*
X24130000Y-14528000D01*
X24080000Y-14478000D02*
X24180000Y-14478000D01*
X24384000Y-6046000D02*
X24384000Y-6146000D01*
X24334000Y-6096000D02*
X24434000Y-6096000D01*
X24384000Y-14428000D02*
X24384000Y-14528000D01*
X24334000Y-14478000D02*
X24434000Y-14478000D01*
X24638000Y-6046000D02*
X24638000Y-6146000D01*
X24588000Y-6096000D02*
X24688000Y-6096000D01*
D11*
X5322619Y-15157476D02*
X5322619Y-14957476D01*
X5322619Y-14957476D02*
X5370238Y-14957476D01*
X5370238Y-14957476D02*
X5398810Y-14967000D01*
X5398810Y-14967000D02*
X5417857Y-14986048D01*
X5417857Y-14986048D02*
X5427381Y-15005095D01*
X5427381Y-15005095D02*
X5436905Y-15043190D01*
X5436905Y-15043190D02*
X5436905Y-15071762D01*
X5436905Y-15071762D02*
X5427381Y-15109857D01*
X5427381Y-15109857D02*
X5417857Y-15128905D01*
X5417857Y-15128905D02*
X5398810Y-15147952D01*
X5398810Y-15147952D02*
X5370238Y-15157476D01*
X5370238Y-15157476D02*
X5322619Y-15157476D01*
X5522619Y-15157476D02*
X5522619Y-15024143D01*
X5522619Y-15062238D02*
X5532143Y-15043190D01*
X5532143Y-15043190D02*
X5541667Y-15033667D01*
X5541667Y-15033667D02*
X5560714Y-15024143D01*
X5560714Y-15024143D02*
X5579762Y-15024143D01*
X5646428Y-15157476D02*
X5646428Y-15024143D01*
X5646428Y-14957476D02*
X5636905Y-14967000D01*
X5636905Y-14967000D02*
X5646428Y-14976524D01*
X5646428Y-14976524D02*
X5655952Y-14967000D01*
X5655952Y-14967000D02*
X5646428Y-14957476D01*
X5646428Y-14957476D02*
X5646428Y-14976524D01*
X5770238Y-15157476D02*
X5751190Y-15147952D01*
X5751190Y-15147952D02*
X5741667Y-15128905D01*
X5741667Y-15128905D02*
X5741667Y-14957476D01*
X5875000Y-15157476D02*
X5855952Y-15147952D01*
X5855952Y-15147952D02*
X5846428Y-15128905D01*
X5846428Y-15128905D02*
X5846428Y-14957476D01*
X6071190Y-15157476D02*
X6071190Y-14957476D01*
X6071190Y-14957476D02*
X6137857Y-15100333D01*
X6137857Y-15100333D02*
X6204524Y-14957476D01*
X6204524Y-14957476D02*
X6204524Y-15157476D01*
X6385476Y-15157476D02*
X6385476Y-15052714D01*
X6385476Y-15052714D02*
X6375952Y-15033667D01*
X6375952Y-15033667D02*
X6356905Y-15024143D01*
X6356905Y-15024143D02*
X6318809Y-15024143D01*
X6318809Y-15024143D02*
X6299762Y-15033667D01*
X6385476Y-15147952D02*
X6366428Y-15157476D01*
X6366428Y-15157476D02*
X6318809Y-15157476D01*
X6318809Y-15157476D02*
X6299762Y-15147952D01*
X6299762Y-15147952D02*
X6290238Y-15128905D01*
X6290238Y-15128905D02*
X6290238Y-15109857D01*
X6290238Y-15109857D02*
X6299762Y-15090809D01*
X6299762Y-15090809D02*
X6318809Y-15081286D01*
X6318809Y-15081286D02*
X6366428Y-15081286D01*
X6366428Y-15081286D02*
X6385476Y-15071762D01*
X6480714Y-15024143D02*
X6480714Y-15224143D01*
X6480714Y-15033667D02*
X6499762Y-15024143D01*
X6499762Y-15024143D02*
X6537857Y-15024143D01*
X6537857Y-15024143D02*
X6556905Y-15033667D01*
X6556905Y-15033667D02*
X6566428Y-15043190D01*
X6566428Y-15043190D02*
X6575952Y-15062238D01*
X6575952Y-15062238D02*
X6575952Y-15119381D01*
X6575952Y-15119381D02*
X6566428Y-15138428D01*
X6566428Y-15138428D02*
X6556905Y-15147952D01*
X6556905Y-15147952D02*
X6537857Y-15157476D01*
X6537857Y-15157476D02*
X6499762Y-15157476D01*
X6499762Y-15157476D02*
X6480714Y-15147952D01*
X6661667Y-15138428D02*
X6671190Y-15147952D01*
X6671190Y-15147952D02*
X6661667Y-15157476D01*
X6661667Y-15157476D02*
X6652143Y-15147952D01*
X6652143Y-15147952D02*
X6661667Y-15138428D01*
X6661667Y-15138428D02*
X6661667Y-15157476D01*
X6661667Y-15033667D02*
X6671190Y-15043190D01*
X6671190Y-15043190D02*
X6661667Y-15052714D01*
X6661667Y-15052714D02*
X6652143Y-15043190D01*
X6652143Y-15043190D02*
X6661667Y-15033667D01*
X6661667Y-15033667D02*
X6661667Y-15052714D01*
D12*
X5036900Y-15484950D02*
X5075000Y-15523050D01*
X5075000Y-15484950D02*
X5036900Y-15523050D01*
D11*
X5360714Y-15377476D02*
X5379762Y-15377476D01*
X5379762Y-15377476D02*
X5398810Y-15387000D01*
X5398810Y-15387000D02*
X5408333Y-15396524D01*
X5408333Y-15396524D02*
X5417857Y-15415571D01*
X5417857Y-15415571D02*
X5427381Y-15453667D01*
X5427381Y-15453667D02*
X5427381Y-15501286D01*
X5427381Y-15501286D02*
X5417857Y-15539381D01*
X5417857Y-15539381D02*
X5408333Y-15558428D01*
X5408333Y-15558428D02*
X5398810Y-15567952D01*
X5398810Y-15567952D02*
X5379762Y-15577476D01*
X5379762Y-15577476D02*
X5360714Y-15577476D01*
X5360714Y-15577476D02*
X5341667Y-15567952D01*
X5341667Y-15567952D02*
X5332143Y-15558428D01*
X5332143Y-15558428D02*
X5322619Y-15539381D01*
X5322619Y-15539381D02*
X5313095Y-15501286D01*
X5313095Y-15501286D02*
X5313095Y-15453667D01*
X5313095Y-15453667D02*
X5322619Y-15415571D01*
X5322619Y-15415571D02*
X5332143Y-15396524D01*
X5332143Y-15396524D02*
X5341667Y-15387000D01*
X5341667Y-15387000D02*
X5360714Y-15377476D01*
X5513095Y-15558428D02*
X5522619Y-15567952D01*
X5522619Y-15567952D02*
X5513095Y-15577476D01*
X5513095Y-15577476D02*
X5503571Y-15567952D01*
X5503571Y-15567952D02*
X5513095Y-15558428D01*
X5513095Y-15558428D02*
X5513095Y-15577476D01*
X5589286Y-15377476D02*
X5713095Y-15377476D01*
X5713095Y-15377476D02*
X5646428Y-15453667D01*
X5646428Y-15453667D02*
X5675000Y-15453667D01*
X5675000Y-15453667D02*
X5694048Y-15463190D01*
X5694048Y-15463190D02*
X5703571Y-15472714D01*
X5703571Y-15472714D02*
X5713095Y-15491762D01*
X5713095Y-15491762D02*
X5713095Y-15539381D01*
X5713095Y-15539381D02*
X5703571Y-15558428D01*
X5703571Y-15558428D02*
X5694048Y-15567952D01*
X5694048Y-15567952D02*
X5675000Y-15577476D01*
X5675000Y-15577476D02*
X5617857Y-15577476D01*
X5617857Y-15577476D02*
X5598809Y-15567952D01*
X5598809Y-15567952D02*
X5589286Y-15558428D01*
X5827381Y-15463190D02*
X5808333Y-15453667D01*
X5808333Y-15453667D02*
X5798809Y-15444143D01*
X5798809Y-15444143D02*
X5789286Y-15425095D01*
X5789286Y-15425095D02*
X5789286Y-15415571D01*
X5789286Y-15415571D02*
X5798809Y-15396524D01*
X5798809Y-15396524D02*
X5808333Y-15387000D01*
X5808333Y-15387000D02*
X5827381Y-15377476D01*
X5827381Y-15377476D02*
X5865476Y-15377476D01*
X5865476Y-15377476D02*
X5884524Y-15387000D01*
X5884524Y-15387000D02*
X5894048Y-15396524D01*
X5894048Y-15396524D02*
X5903571Y-15415571D01*
X5903571Y-15415571D02*
X5903571Y-15425095D01*
X5903571Y-15425095D02*
X5894048Y-15444143D01*
X5894048Y-15444143D02*
X5884524Y-15453667D01*
X5884524Y-15453667D02*
X5865476Y-15463190D01*
X5865476Y-15463190D02*
X5827381Y-15463190D01*
X5827381Y-15463190D02*
X5808333Y-15472714D01*
X5808333Y-15472714D02*
X5798809Y-15482238D01*
X5798809Y-15482238D02*
X5789286Y-15501286D01*
X5789286Y-15501286D02*
X5789286Y-15539381D01*
X5789286Y-15539381D02*
X5798809Y-15558428D01*
X5798809Y-15558428D02*
X5808333Y-15567952D01*
X5808333Y-15567952D02*
X5827381Y-15577476D01*
X5827381Y-15577476D02*
X5865476Y-15577476D01*
X5865476Y-15577476D02*
X5884524Y-15567952D01*
X5884524Y-15567952D02*
X5894048Y-15558428D01*
X5894048Y-15558428D02*
X5903571Y-15539381D01*
X5903571Y-15539381D02*
X5903571Y-15501286D01*
X5903571Y-15501286D02*
X5894048Y-15482238D01*
X5894048Y-15482238D02*
X5884524Y-15472714D01*
X5884524Y-15472714D02*
X5865476Y-15463190D01*
X6094048Y-15577476D02*
X5979762Y-15577476D01*
X6036905Y-15577476D02*
X6036905Y-15377476D01*
X6036905Y-15377476D02*
X6017857Y-15406048D01*
X6017857Y-15406048D02*
X5998809Y-15425095D01*
X5998809Y-15425095D02*
X5979762Y-15434619D01*
X6179762Y-15577476D02*
X6179762Y-15444143D01*
X6179762Y-15463190D02*
X6189286Y-15453667D01*
X6189286Y-15453667D02*
X6208333Y-15444143D01*
X6208333Y-15444143D02*
X6236905Y-15444143D01*
X6236905Y-15444143D02*
X6255952Y-15453667D01*
X6255952Y-15453667D02*
X6265476Y-15472714D01*
X6265476Y-15472714D02*
X6265476Y-15577476D01*
X6265476Y-15472714D02*
X6275000Y-15453667D01*
X6275000Y-15453667D02*
X6294048Y-15444143D01*
X6294048Y-15444143D02*
X6322619Y-15444143D01*
X6322619Y-15444143D02*
X6341667Y-15453667D01*
X6341667Y-15453667D02*
X6351190Y-15472714D01*
X6351190Y-15472714D02*
X6351190Y-15577476D01*
X6446429Y-15577476D02*
X6446429Y-15444143D01*
X6446429Y-15463190D02*
X6455952Y-15453667D01*
X6455952Y-15453667D02*
X6475000Y-15444143D01*
X6475000Y-15444143D02*
X6503571Y-15444143D01*
X6503571Y-15444143D02*
X6522619Y-15453667D01*
X6522619Y-15453667D02*
X6532143Y-15472714D01*
X6532143Y-15472714D02*
X6532143Y-15577476D01*
X6532143Y-15472714D02*
X6541667Y-15453667D01*
X6541667Y-15453667D02*
X6560714Y-15444143D01*
X6560714Y-15444143D02*
X6589286Y-15444143D01*
X6589286Y-15444143D02*
X6608333Y-15453667D01*
X6608333Y-15453667D02*
X6617857Y-15472714D01*
X6617857Y-15472714D02*
X6617857Y-15577476D01*
X6975952Y-15367952D02*
X6804524Y-15625095D01*
X7200714Y-15377476D02*
X7219762Y-15377476D01*
X7219762Y-15377476D02*
X7238810Y-15387000D01*
X7238810Y-15387000D02*
X7248333Y-15396524D01*
X7248333Y-15396524D02*
X7257857Y-15415571D01*
X7257857Y-15415571D02*
X7267381Y-15453667D01*
X7267381Y-15453667D02*
X7267381Y-15501286D01*
X7267381Y-15501286D02*
X7257857Y-15539381D01*
X7257857Y-15539381D02*
X7248333Y-15558428D01*
X7248333Y-15558428D02*
X7238810Y-15567952D01*
X7238810Y-15567952D02*
X7219762Y-15577476D01*
X7219762Y-15577476D02*
X7200714Y-15577476D01*
X7200714Y-15577476D02*
X7181667Y-15567952D01*
X7181667Y-15567952D02*
X7172143Y-15558428D01*
X7172143Y-15558428D02*
X7162619Y-15539381D01*
X7162619Y-15539381D02*
X7153095Y-15501286D01*
X7153095Y-15501286D02*
X7153095Y-15453667D01*
X7153095Y-15453667D02*
X7162619Y-15415571D01*
X7162619Y-15415571D02*
X7172143Y-15396524D01*
X7172143Y-15396524D02*
X7181667Y-15387000D01*
X7181667Y-15387000D02*
X7200714Y-15377476D01*
X7353095Y-15558428D02*
X7362619Y-15567952D01*
X7362619Y-15567952D02*
X7353095Y-15577476D01*
X7353095Y-15577476D02*
X7343571Y-15567952D01*
X7343571Y-15567952D02*
X7353095Y-15558428D01*
X7353095Y-15558428D02*
X7353095Y-15577476D01*
X7486429Y-15377476D02*
X7505476Y-15377476D01*
X7505476Y-15377476D02*
X7524524Y-15387000D01*
X7524524Y-15387000D02*
X7534048Y-15396524D01*
X7534048Y-15396524D02*
X7543571Y-15415571D01*
X7543571Y-15415571D02*
X7553095Y-15453667D01*
X7553095Y-15453667D02*
X7553095Y-15501286D01*
X7553095Y-15501286D02*
X7543571Y-15539381D01*
X7543571Y-15539381D02*
X7534048Y-15558428D01*
X7534048Y-15558428D02*
X7524524Y-15567952D01*
X7524524Y-15567952D02*
X7505476Y-15577476D01*
X7505476Y-15577476D02*
X7486429Y-15577476D01*
X7486429Y-15577476D02*
X7467381Y-15567952D01*
X7467381Y-15567952D02*
X7457857Y-15558428D01*
X7457857Y-15558428D02*
X7448333Y-15539381D01*
X7448333Y-15539381D02*
X7438810Y-15501286D01*
X7438810Y-15501286D02*
X7438810Y-15453667D01*
X7438810Y-15453667D02*
X7448333Y-15415571D01*
X7448333Y-15415571D02*
X7457857Y-15396524D01*
X7457857Y-15396524D02*
X7467381Y-15387000D01*
X7467381Y-15387000D02*
X7486429Y-15377476D01*
X7743571Y-15577476D02*
X7629286Y-15577476D01*
X7686429Y-15577476D02*
X7686429Y-15377476D01*
X7686429Y-15377476D02*
X7667381Y-15406048D01*
X7667381Y-15406048D02*
X7648333Y-15425095D01*
X7648333Y-15425095D02*
X7629286Y-15434619D01*
X7924524Y-15377476D02*
X7829286Y-15377476D01*
X7829286Y-15377476D02*
X7819762Y-15472714D01*
X7819762Y-15472714D02*
X7829286Y-15463190D01*
X7829286Y-15463190D02*
X7848333Y-15453667D01*
X7848333Y-15453667D02*
X7895952Y-15453667D01*
X7895952Y-15453667D02*
X7915000Y-15463190D01*
X7915000Y-15463190D02*
X7924524Y-15472714D01*
X7924524Y-15472714D02*
X7934048Y-15491762D01*
X7934048Y-15491762D02*
X7934048Y-15539381D01*
X7934048Y-15539381D02*
X7924524Y-15558428D01*
X7924524Y-15558428D02*
X7915000Y-15567952D01*
X7915000Y-15567952D02*
X7895952Y-15577476D01*
X7895952Y-15577476D02*
X7848333Y-15577476D01*
X7848333Y-15577476D02*
X7829286Y-15567952D01*
X7829286Y-15567952D02*
X7819762Y-15558428D01*
X8057857Y-15377476D02*
X8076905Y-15377476D01*
X8076905Y-15377476D02*
X8095952Y-15387000D01*
X8095952Y-15387000D02*
X8105476Y-15396524D01*
X8105476Y-15396524D02*
X8115000Y-15415571D01*
X8115000Y-15415571D02*
X8124524Y-15453667D01*
X8124524Y-15453667D02*
X8124524Y-15501286D01*
X8124524Y-15501286D02*
X8115000Y-15539381D01*
X8115000Y-15539381D02*
X8105476Y-15558428D01*
X8105476Y-15558428D02*
X8095952Y-15567952D01*
X8095952Y-15567952D02*
X8076905Y-15577476D01*
X8076905Y-15577476D02*
X8057857Y-15577476D01*
X8057857Y-15577476D02*
X8038810Y-15567952D01*
X8038810Y-15567952D02*
X8029286Y-15558428D01*
X8029286Y-15558428D02*
X8019762Y-15539381D01*
X8019762Y-15539381D02*
X8010238Y-15501286D01*
X8010238Y-15501286D02*
X8010238Y-15453667D01*
X8010238Y-15453667D02*
X8019762Y-15415571D01*
X8019762Y-15415571D02*
X8029286Y-15396524D01*
X8029286Y-15396524D02*
X8038810Y-15387000D01*
X8038810Y-15387000D02*
X8057857Y-15377476D01*
X8200714Y-15377476D02*
X8200714Y-15415571D01*
X8276905Y-15377476D02*
X8276905Y-15415571D01*
X8539762Y-15653667D02*
X8530238Y-15644143D01*
X8530238Y-15644143D02*
X8511191Y-15615571D01*
X8511191Y-15615571D02*
X8501667Y-15596524D01*
X8501667Y-15596524D02*
X8492143Y-15567952D01*
X8492143Y-15567952D02*
X8482619Y-15520333D01*
X8482619Y-15520333D02*
X8482619Y-15482238D01*
X8482619Y-15482238D02*
X8492143Y-15434619D01*
X8492143Y-15434619D02*
X8501667Y-15406048D01*
X8501667Y-15406048D02*
X8511191Y-15387000D01*
X8511191Y-15387000D02*
X8530238Y-15358428D01*
X8530238Y-15358428D02*
X8539762Y-15348905D01*
X8596905Y-15377476D02*
X8720714Y-15377476D01*
X8720714Y-15377476D02*
X8654048Y-15453667D01*
X8654048Y-15453667D02*
X8682619Y-15453667D01*
X8682619Y-15453667D02*
X8701667Y-15463190D01*
X8701667Y-15463190D02*
X8711191Y-15472714D01*
X8711191Y-15472714D02*
X8720714Y-15491762D01*
X8720714Y-15491762D02*
X8720714Y-15539381D01*
X8720714Y-15539381D02*
X8711191Y-15558428D01*
X8711191Y-15558428D02*
X8701667Y-15567952D01*
X8701667Y-15567952D02*
X8682619Y-15577476D01*
X8682619Y-15577476D02*
X8625476Y-15577476D01*
X8625476Y-15577476D02*
X8606429Y-15567952D01*
X8606429Y-15567952D02*
X8596905Y-15558428D01*
X8844524Y-15377476D02*
X8863572Y-15377476D01*
X8863572Y-15377476D02*
X8882619Y-15387000D01*
X8882619Y-15387000D02*
X8892143Y-15396524D01*
X8892143Y-15396524D02*
X8901667Y-15415571D01*
X8901667Y-15415571D02*
X8911191Y-15453667D01*
X8911191Y-15453667D02*
X8911191Y-15501286D01*
X8911191Y-15501286D02*
X8901667Y-15539381D01*
X8901667Y-15539381D02*
X8892143Y-15558428D01*
X8892143Y-15558428D02*
X8882619Y-15567952D01*
X8882619Y-15567952D02*
X8863572Y-15577476D01*
X8863572Y-15577476D02*
X8844524Y-15577476D01*
X8844524Y-15577476D02*
X8825476Y-15567952D01*
X8825476Y-15567952D02*
X8815953Y-15558428D01*
X8815953Y-15558428D02*
X8806429Y-15539381D01*
X8806429Y-15539381D02*
X8796905Y-15501286D01*
X8796905Y-15501286D02*
X8796905Y-15453667D01*
X8796905Y-15453667D02*
X8806429Y-15415571D01*
X8806429Y-15415571D02*
X8815953Y-15396524D01*
X8815953Y-15396524D02*
X8825476Y-15387000D01*
X8825476Y-15387000D02*
X8844524Y-15377476D01*
X9025476Y-15463190D02*
X9006429Y-15453667D01*
X9006429Y-15453667D02*
X8996905Y-15444143D01*
X8996905Y-15444143D02*
X8987381Y-15425095D01*
X8987381Y-15425095D02*
X8987381Y-15415571D01*
X8987381Y-15415571D02*
X8996905Y-15396524D01*
X8996905Y-15396524D02*
X9006429Y-15387000D01*
X9006429Y-15387000D02*
X9025476Y-15377476D01*
X9025476Y-15377476D02*
X9063572Y-15377476D01*
X9063572Y-15377476D02*
X9082619Y-15387000D01*
X9082619Y-15387000D02*
X9092143Y-15396524D01*
X9092143Y-15396524D02*
X9101667Y-15415571D01*
X9101667Y-15415571D02*
X9101667Y-15425095D01*
X9101667Y-15425095D02*
X9092143Y-15444143D01*
X9092143Y-15444143D02*
X9082619Y-15453667D01*
X9082619Y-15453667D02*
X9063572Y-15463190D01*
X9063572Y-15463190D02*
X9025476Y-15463190D01*
X9025476Y-15463190D02*
X9006429Y-15472714D01*
X9006429Y-15472714D02*
X8996905Y-15482238D01*
X8996905Y-15482238D02*
X8987381Y-15501286D01*
X8987381Y-15501286D02*
X8987381Y-15539381D01*
X8987381Y-15539381D02*
X8996905Y-15558428D01*
X8996905Y-15558428D02*
X9006429Y-15567952D01*
X9006429Y-15567952D02*
X9025476Y-15577476D01*
X9025476Y-15577476D02*
X9063572Y-15577476D01*
X9063572Y-15577476D02*
X9082619Y-15567952D01*
X9082619Y-15567952D02*
X9092143Y-15558428D01*
X9092143Y-15558428D02*
X9101667Y-15539381D01*
X9101667Y-15539381D02*
X9101667Y-15501286D01*
X9101667Y-15501286D02*
X9092143Y-15482238D01*
X9092143Y-15482238D02*
X9082619Y-15472714D01*
X9082619Y-15472714D02*
X9063572Y-15463190D01*
X9307381Y-15577476D02*
X9307381Y-15377476D01*
X9393095Y-15577476D02*
X9393095Y-15472714D01*
X9393095Y-15472714D02*
X9383572Y-15453667D01*
X9383572Y-15453667D02*
X9364524Y-15444143D01*
X9364524Y-15444143D02*
X9335953Y-15444143D01*
X9335953Y-15444143D02*
X9316905Y-15453667D01*
X9316905Y-15453667D02*
X9307381Y-15463190D01*
X9516905Y-15577476D02*
X9497857Y-15567952D01*
X9497857Y-15567952D02*
X9488334Y-15558428D01*
X9488334Y-15558428D02*
X9478810Y-15539381D01*
X9478810Y-15539381D02*
X9478810Y-15482238D01*
X9478810Y-15482238D02*
X9488334Y-15463190D01*
X9488334Y-15463190D02*
X9497857Y-15453667D01*
X9497857Y-15453667D02*
X9516905Y-15444143D01*
X9516905Y-15444143D02*
X9545476Y-15444143D01*
X9545476Y-15444143D02*
X9564524Y-15453667D01*
X9564524Y-15453667D02*
X9574048Y-15463190D01*
X9574048Y-15463190D02*
X9583572Y-15482238D01*
X9583572Y-15482238D02*
X9583572Y-15539381D01*
X9583572Y-15539381D02*
X9574048Y-15558428D01*
X9574048Y-15558428D02*
X9564524Y-15567952D01*
X9564524Y-15567952D02*
X9545476Y-15577476D01*
X9545476Y-15577476D02*
X9516905Y-15577476D01*
X9697857Y-15577476D02*
X9678810Y-15567952D01*
X9678810Y-15567952D02*
X9669286Y-15548905D01*
X9669286Y-15548905D02*
X9669286Y-15377476D01*
X9850238Y-15567952D02*
X9831191Y-15577476D01*
X9831191Y-15577476D02*
X9793095Y-15577476D01*
X9793095Y-15577476D02*
X9774048Y-15567952D01*
X9774048Y-15567952D02*
X9764524Y-15548905D01*
X9764524Y-15548905D02*
X9764524Y-15472714D01*
X9764524Y-15472714D02*
X9774048Y-15453667D01*
X9774048Y-15453667D02*
X9793095Y-15444143D01*
X9793095Y-15444143D02*
X9831191Y-15444143D01*
X9831191Y-15444143D02*
X9850238Y-15453667D01*
X9850238Y-15453667D02*
X9859762Y-15472714D01*
X9859762Y-15472714D02*
X9859762Y-15491762D01*
X9859762Y-15491762D02*
X9764524Y-15510809D01*
X9935953Y-15567952D02*
X9955000Y-15577476D01*
X9955000Y-15577476D02*
X9993095Y-15577476D01*
X9993095Y-15577476D02*
X10012143Y-15567952D01*
X10012143Y-15567952D02*
X10021667Y-15548905D01*
X10021667Y-15548905D02*
X10021667Y-15539381D01*
X10021667Y-15539381D02*
X10012143Y-15520333D01*
X10012143Y-15520333D02*
X9993095Y-15510809D01*
X9993095Y-15510809D02*
X9964524Y-15510809D01*
X9964524Y-15510809D02*
X9945476Y-15501286D01*
X9945476Y-15501286D02*
X9935953Y-15482238D01*
X9935953Y-15482238D02*
X9935953Y-15472714D01*
X9935953Y-15472714D02*
X9945476Y-15453667D01*
X9945476Y-15453667D02*
X9964524Y-15444143D01*
X9964524Y-15444143D02*
X9993095Y-15444143D01*
X9993095Y-15444143D02*
X10012143Y-15453667D01*
X10088334Y-15653667D02*
X10097857Y-15644143D01*
X10097857Y-15644143D02*
X10116905Y-15615571D01*
X10116905Y-15615571D02*
X10126429Y-15596524D01*
X10126429Y-15596524D02*
X10135953Y-15567952D01*
X10135953Y-15567952D02*
X10145476Y-15520333D01*
X10145476Y-15520333D02*
X10145476Y-15482238D01*
X10145476Y-15482238D02*
X10135953Y-15434619D01*
X10135953Y-15434619D02*
X10126429Y-15406048D01*
X10126429Y-15406048D02*
X10116905Y-15387000D01*
X10116905Y-15387000D02*
X10097857Y-15358428D01*
X10097857Y-15358428D02*
X10088334Y-15348905D01*
D13*
X5075000Y-15768000D02*
G75*
G03*
X5075000Y-15768000I-40000J0D01*
G01*
D11*
X5360714Y-15641476D02*
X5379762Y-15641476D01*
X5379762Y-15641476D02*
X5398810Y-15651000D01*
X5398810Y-15651000D02*
X5408333Y-15660524D01*
X5408333Y-15660524D02*
X5417857Y-15679571D01*
X5417857Y-15679571D02*
X5427381Y-15717667D01*
X5427381Y-15717667D02*
X5427381Y-15765286D01*
X5427381Y-15765286D02*
X5417857Y-15803381D01*
X5417857Y-15803381D02*
X5408333Y-15822428D01*
X5408333Y-15822428D02*
X5398810Y-15831952D01*
X5398810Y-15831952D02*
X5379762Y-15841476D01*
X5379762Y-15841476D02*
X5360714Y-15841476D01*
X5360714Y-15841476D02*
X5341667Y-15831952D01*
X5341667Y-15831952D02*
X5332143Y-15822428D01*
X5332143Y-15822428D02*
X5322619Y-15803381D01*
X5322619Y-15803381D02*
X5313095Y-15765286D01*
X5313095Y-15765286D02*
X5313095Y-15717667D01*
X5313095Y-15717667D02*
X5322619Y-15679571D01*
X5322619Y-15679571D02*
X5332143Y-15660524D01*
X5332143Y-15660524D02*
X5341667Y-15651000D01*
X5341667Y-15651000D02*
X5360714Y-15641476D01*
X5513095Y-15822428D02*
X5522619Y-15831952D01*
X5522619Y-15831952D02*
X5513095Y-15841476D01*
X5513095Y-15841476D02*
X5503571Y-15831952D01*
X5503571Y-15831952D02*
X5513095Y-15822428D01*
X5513095Y-15822428D02*
X5513095Y-15841476D01*
X5636905Y-15727190D02*
X5617857Y-15717667D01*
X5617857Y-15717667D02*
X5608333Y-15708143D01*
X5608333Y-15708143D02*
X5598809Y-15689095D01*
X5598809Y-15689095D02*
X5598809Y-15679571D01*
X5598809Y-15679571D02*
X5608333Y-15660524D01*
X5608333Y-15660524D02*
X5617857Y-15651000D01*
X5617857Y-15651000D02*
X5636905Y-15641476D01*
X5636905Y-15641476D02*
X5675000Y-15641476D01*
X5675000Y-15641476D02*
X5694048Y-15651000D01*
X5694048Y-15651000D02*
X5703571Y-15660524D01*
X5703571Y-15660524D02*
X5713095Y-15679571D01*
X5713095Y-15679571D02*
X5713095Y-15689095D01*
X5713095Y-15689095D02*
X5703571Y-15708143D01*
X5703571Y-15708143D02*
X5694048Y-15717667D01*
X5694048Y-15717667D02*
X5675000Y-15727190D01*
X5675000Y-15727190D02*
X5636905Y-15727190D01*
X5636905Y-15727190D02*
X5617857Y-15736714D01*
X5617857Y-15736714D02*
X5608333Y-15746238D01*
X5608333Y-15746238D02*
X5598809Y-15765286D01*
X5598809Y-15765286D02*
X5598809Y-15803381D01*
X5598809Y-15803381D02*
X5608333Y-15822428D01*
X5608333Y-15822428D02*
X5617857Y-15831952D01*
X5617857Y-15831952D02*
X5636905Y-15841476D01*
X5636905Y-15841476D02*
X5675000Y-15841476D01*
X5675000Y-15841476D02*
X5694048Y-15831952D01*
X5694048Y-15831952D02*
X5703571Y-15822428D01*
X5703571Y-15822428D02*
X5713095Y-15803381D01*
X5713095Y-15803381D02*
X5713095Y-15765286D01*
X5713095Y-15765286D02*
X5703571Y-15746238D01*
X5703571Y-15746238D02*
X5694048Y-15736714D01*
X5694048Y-15736714D02*
X5675000Y-15727190D01*
X5836905Y-15641476D02*
X5855952Y-15641476D01*
X5855952Y-15641476D02*
X5875000Y-15651000D01*
X5875000Y-15651000D02*
X5884524Y-15660524D01*
X5884524Y-15660524D02*
X5894048Y-15679571D01*
X5894048Y-15679571D02*
X5903571Y-15717667D01*
X5903571Y-15717667D02*
X5903571Y-15765286D01*
X5903571Y-15765286D02*
X5894048Y-15803381D01*
X5894048Y-15803381D02*
X5884524Y-15822428D01*
X5884524Y-15822428D02*
X5875000Y-15831952D01*
X5875000Y-15831952D02*
X5855952Y-15841476D01*
X5855952Y-15841476D02*
X5836905Y-15841476D01*
X5836905Y-15841476D02*
X5817857Y-15831952D01*
X5817857Y-15831952D02*
X5808333Y-15822428D01*
X5808333Y-15822428D02*
X5798809Y-15803381D01*
X5798809Y-15803381D02*
X5789286Y-15765286D01*
X5789286Y-15765286D02*
X5789286Y-15717667D01*
X5789286Y-15717667D02*
X5798809Y-15679571D01*
X5798809Y-15679571D02*
X5808333Y-15660524D01*
X5808333Y-15660524D02*
X5817857Y-15651000D01*
X5817857Y-15651000D02*
X5836905Y-15641476D01*
X6027381Y-15641476D02*
X6046429Y-15641476D01*
X6046429Y-15641476D02*
X6065476Y-15651000D01*
X6065476Y-15651000D02*
X6075000Y-15660524D01*
X6075000Y-15660524D02*
X6084524Y-15679571D01*
X6084524Y-15679571D02*
X6094048Y-15717667D01*
X6094048Y-15717667D02*
X6094048Y-15765286D01*
X6094048Y-15765286D02*
X6084524Y-15803381D01*
X6084524Y-15803381D02*
X6075000Y-15822428D01*
X6075000Y-15822428D02*
X6065476Y-15831952D01*
X6065476Y-15831952D02*
X6046429Y-15841476D01*
X6046429Y-15841476D02*
X6027381Y-15841476D01*
X6027381Y-15841476D02*
X6008333Y-15831952D01*
X6008333Y-15831952D02*
X5998809Y-15822428D01*
X5998809Y-15822428D02*
X5989286Y-15803381D01*
X5989286Y-15803381D02*
X5979762Y-15765286D01*
X5979762Y-15765286D02*
X5979762Y-15717667D01*
X5979762Y-15717667D02*
X5989286Y-15679571D01*
X5989286Y-15679571D02*
X5998809Y-15660524D01*
X5998809Y-15660524D02*
X6008333Y-15651000D01*
X6008333Y-15651000D02*
X6027381Y-15641476D01*
X6179762Y-15841476D02*
X6179762Y-15708143D01*
X6179762Y-15727190D02*
X6189286Y-15717667D01*
X6189286Y-15717667D02*
X6208333Y-15708143D01*
X6208333Y-15708143D02*
X6236905Y-15708143D01*
X6236905Y-15708143D02*
X6255952Y-15717667D01*
X6255952Y-15717667D02*
X6265476Y-15736714D01*
X6265476Y-15736714D02*
X6265476Y-15841476D01*
X6265476Y-15736714D02*
X6275000Y-15717667D01*
X6275000Y-15717667D02*
X6294048Y-15708143D01*
X6294048Y-15708143D02*
X6322619Y-15708143D01*
X6322619Y-15708143D02*
X6341667Y-15717667D01*
X6341667Y-15717667D02*
X6351190Y-15736714D01*
X6351190Y-15736714D02*
X6351190Y-15841476D01*
X6446429Y-15841476D02*
X6446429Y-15708143D01*
X6446429Y-15727190D02*
X6455952Y-15717667D01*
X6455952Y-15717667D02*
X6475000Y-15708143D01*
X6475000Y-15708143D02*
X6503571Y-15708143D01*
X6503571Y-15708143D02*
X6522619Y-15717667D01*
X6522619Y-15717667D02*
X6532143Y-15736714D01*
X6532143Y-15736714D02*
X6532143Y-15841476D01*
X6532143Y-15736714D02*
X6541667Y-15717667D01*
X6541667Y-15717667D02*
X6560714Y-15708143D01*
X6560714Y-15708143D02*
X6589286Y-15708143D01*
X6589286Y-15708143D02*
X6608333Y-15717667D01*
X6608333Y-15717667D02*
X6617857Y-15736714D01*
X6617857Y-15736714D02*
X6617857Y-15841476D01*
X6975952Y-15631952D02*
X6804524Y-15889095D01*
X7200714Y-15641476D02*
X7219762Y-15641476D01*
X7219762Y-15641476D02*
X7238810Y-15651000D01*
X7238810Y-15651000D02*
X7248333Y-15660524D01*
X7248333Y-15660524D02*
X7257857Y-15679571D01*
X7257857Y-15679571D02*
X7267381Y-15717667D01*
X7267381Y-15717667D02*
X7267381Y-15765286D01*
X7267381Y-15765286D02*
X7257857Y-15803381D01*
X7257857Y-15803381D02*
X7248333Y-15822428D01*
X7248333Y-15822428D02*
X7238810Y-15831952D01*
X7238810Y-15831952D02*
X7219762Y-15841476D01*
X7219762Y-15841476D02*
X7200714Y-15841476D01*
X7200714Y-15841476D02*
X7181667Y-15831952D01*
X7181667Y-15831952D02*
X7172143Y-15822428D01*
X7172143Y-15822428D02*
X7162619Y-15803381D01*
X7162619Y-15803381D02*
X7153095Y-15765286D01*
X7153095Y-15765286D02*
X7153095Y-15717667D01*
X7153095Y-15717667D02*
X7162619Y-15679571D01*
X7162619Y-15679571D02*
X7172143Y-15660524D01*
X7172143Y-15660524D02*
X7181667Y-15651000D01*
X7181667Y-15651000D02*
X7200714Y-15641476D01*
X7353095Y-15822428D02*
X7362619Y-15831952D01*
X7362619Y-15831952D02*
X7353095Y-15841476D01*
X7353095Y-15841476D02*
X7343571Y-15831952D01*
X7343571Y-15831952D02*
X7353095Y-15822428D01*
X7353095Y-15822428D02*
X7353095Y-15841476D01*
X7486429Y-15641476D02*
X7505476Y-15641476D01*
X7505476Y-15641476D02*
X7524524Y-15651000D01*
X7524524Y-15651000D02*
X7534048Y-15660524D01*
X7534048Y-15660524D02*
X7543571Y-15679571D01*
X7543571Y-15679571D02*
X7553095Y-15717667D01*
X7553095Y-15717667D02*
X7553095Y-15765286D01*
X7553095Y-15765286D02*
X7543571Y-15803381D01*
X7543571Y-15803381D02*
X7534048Y-15822428D01*
X7534048Y-15822428D02*
X7524524Y-15831952D01*
X7524524Y-15831952D02*
X7505476Y-15841476D01*
X7505476Y-15841476D02*
X7486429Y-15841476D01*
X7486429Y-15841476D02*
X7467381Y-15831952D01*
X7467381Y-15831952D02*
X7457857Y-15822428D01*
X7457857Y-15822428D02*
X7448333Y-15803381D01*
X7448333Y-15803381D02*
X7438810Y-15765286D01*
X7438810Y-15765286D02*
X7438810Y-15717667D01*
X7438810Y-15717667D02*
X7448333Y-15679571D01*
X7448333Y-15679571D02*
X7457857Y-15660524D01*
X7457857Y-15660524D02*
X7467381Y-15651000D01*
X7467381Y-15651000D02*
X7486429Y-15641476D01*
X7619762Y-15641476D02*
X7743571Y-15641476D01*
X7743571Y-15641476D02*
X7676905Y-15717667D01*
X7676905Y-15717667D02*
X7705476Y-15717667D01*
X7705476Y-15717667D02*
X7724524Y-15727190D01*
X7724524Y-15727190D02*
X7734048Y-15736714D01*
X7734048Y-15736714D02*
X7743571Y-15755762D01*
X7743571Y-15755762D02*
X7743571Y-15803381D01*
X7743571Y-15803381D02*
X7734048Y-15822428D01*
X7734048Y-15822428D02*
X7724524Y-15831952D01*
X7724524Y-15831952D02*
X7705476Y-15841476D01*
X7705476Y-15841476D02*
X7648333Y-15841476D01*
X7648333Y-15841476D02*
X7629286Y-15831952D01*
X7629286Y-15831952D02*
X7619762Y-15822428D01*
X7934048Y-15841476D02*
X7819762Y-15841476D01*
X7876905Y-15841476D02*
X7876905Y-15641476D01*
X7876905Y-15641476D02*
X7857857Y-15670048D01*
X7857857Y-15670048D02*
X7838810Y-15689095D01*
X7838810Y-15689095D02*
X7819762Y-15698619D01*
X8115000Y-15641476D02*
X8019762Y-15641476D01*
X8019762Y-15641476D02*
X8010238Y-15736714D01*
X8010238Y-15736714D02*
X8019762Y-15727190D01*
X8019762Y-15727190D02*
X8038810Y-15717667D01*
X8038810Y-15717667D02*
X8086429Y-15717667D01*
X8086429Y-15717667D02*
X8105476Y-15727190D01*
X8105476Y-15727190D02*
X8115000Y-15736714D01*
X8115000Y-15736714D02*
X8124524Y-15755762D01*
X8124524Y-15755762D02*
X8124524Y-15803381D01*
X8124524Y-15803381D02*
X8115000Y-15822428D01*
X8115000Y-15822428D02*
X8105476Y-15831952D01*
X8105476Y-15831952D02*
X8086429Y-15841476D01*
X8086429Y-15841476D02*
X8038810Y-15841476D01*
X8038810Y-15841476D02*
X8019762Y-15831952D01*
X8019762Y-15831952D02*
X8010238Y-15822428D01*
X8200714Y-15641476D02*
X8200714Y-15679571D01*
X8276905Y-15641476D02*
X8276905Y-15679571D01*
X8539762Y-15917667D02*
X8530238Y-15908143D01*
X8530238Y-15908143D02*
X8511191Y-15879571D01*
X8511191Y-15879571D02*
X8501667Y-15860524D01*
X8501667Y-15860524D02*
X8492143Y-15831952D01*
X8492143Y-15831952D02*
X8482619Y-15784333D01*
X8482619Y-15784333D02*
X8482619Y-15746238D01*
X8482619Y-15746238D02*
X8492143Y-15698619D01*
X8492143Y-15698619D02*
X8501667Y-15670048D01*
X8501667Y-15670048D02*
X8511191Y-15651000D01*
X8511191Y-15651000D02*
X8530238Y-15622428D01*
X8530238Y-15622428D02*
X8539762Y-15612905D01*
X8596905Y-15641476D02*
X8720714Y-15641476D01*
X8720714Y-15641476D02*
X8654048Y-15717667D01*
X8654048Y-15717667D02*
X8682619Y-15717667D01*
X8682619Y-15717667D02*
X8701667Y-15727190D01*
X8701667Y-15727190D02*
X8711191Y-15736714D01*
X8711191Y-15736714D02*
X8720714Y-15755762D01*
X8720714Y-15755762D02*
X8720714Y-15803381D01*
X8720714Y-15803381D02*
X8711191Y-15822428D01*
X8711191Y-15822428D02*
X8701667Y-15831952D01*
X8701667Y-15831952D02*
X8682619Y-15841476D01*
X8682619Y-15841476D02*
X8625476Y-15841476D01*
X8625476Y-15841476D02*
X8606429Y-15831952D01*
X8606429Y-15831952D02*
X8596905Y-15822428D01*
X8892143Y-15708143D02*
X8892143Y-15841476D01*
X8844524Y-15631952D02*
X8796905Y-15774809D01*
X8796905Y-15774809D02*
X8920714Y-15774809D01*
X9082619Y-15708143D02*
X9082619Y-15841476D01*
X9035000Y-15631952D02*
X8987381Y-15774809D01*
X8987381Y-15774809D02*
X9111191Y-15774809D01*
X9307381Y-15841476D02*
X9307381Y-15641476D01*
X9393095Y-15841476D02*
X9393095Y-15736714D01*
X9393095Y-15736714D02*
X9383572Y-15717667D01*
X9383572Y-15717667D02*
X9364524Y-15708143D01*
X9364524Y-15708143D02*
X9335953Y-15708143D01*
X9335953Y-15708143D02*
X9316905Y-15717667D01*
X9316905Y-15717667D02*
X9307381Y-15727190D01*
X9516905Y-15841476D02*
X9497857Y-15831952D01*
X9497857Y-15831952D02*
X9488334Y-15822428D01*
X9488334Y-15822428D02*
X9478810Y-15803381D01*
X9478810Y-15803381D02*
X9478810Y-15746238D01*
X9478810Y-15746238D02*
X9488334Y-15727190D01*
X9488334Y-15727190D02*
X9497857Y-15717667D01*
X9497857Y-15717667D02*
X9516905Y-15708143D01*
X9516905Y-15708143D02*
X9545476Y-15708143D01*
X9545476Y-15708143D02*
X9564524Y-15717667D01*
X9564524Y-15717667D02*
X9574048Y-15727190D01*
X9574048Y-15727190D02*
X9583572Y-15746238D01*
X9583572Y-15746238D02*
X9583572Y-15803381D01*
X9583572Y-15803381D02*
X9574048Y-15822428D01*
X9574048Y-15822428D02*
X9564524Y-15831952D01*
X9564524Y-15831952D02*
X9545476Y-15841476D01*
X9545476Y-15841476D02*
X9516905Y-15841476D01*
X9697857Y-15841476D02*
X9678810Y-15831952D01*
X9678810Y-15831952D02*
X9669286Y-15812905D01*
X9669286Y-15812905D02*
X9669286Y-15641476D01*
X9850238Y-15831952D02*
X9831191Y-15841476D01*
X9831191Y-15841476D02*
X9793095Y-15841476D01*
X9793095Y-15841476D02*
X9774048Y-15831952D01*
X9774048Y-15831952D02*
X9764524Y-15812905D01*
X9764524Y-15812905D02*
X9764524Y-15736714D01*
X9764524Y-15736714D02*
X9774048Y-15717667D01*
X9774048Y-15717667D02*
X9793095Y-15708143D01*
X9793095Y-15708143D02*
X9831191Y-15708143D01*
X9831191Y-15708143D02*
X9850238Y-15717667D01*
X9850238Y-15717667D02*
X9859762Y-15736714D01*
X9859762Y-15736714D02*
X9859762Y-15755762D01*
X9859762Y-15755762D02*
X9764524Y-15774809D01*
X9935953Y-15831952D02*
X9955000Y-15841476D01*
X9955000Y-15841476D02*
X9993095Y-15841476D01*
X9993095Y-15841476D02*
X10012143Y-15831952D01*
X10012143Y-15831952D02*
X10021667Y-15812905D01*
X10021667Y-15812905D02*
X10021667Y-15803381D01*
X10021667Y-15803381D02*
X10012143Y-15784333D01*
X10012143Y-15784333D02*
X9993095Y-15774809D01*
X9993095Y-15774809D02*
X9964524Y-15774809D01*
X9964524Y-15774809D02*
X9945476Y-15765286D01*
X9945476Y-15765286D02*
X9935953Y-15746238D01*
X9935953Y-15746238D02*
X9935953Y-15736714D01*
X9935953Y-15736714D02*
X9945476Y-15717667D01*
X9945476Y-15717667D02*
X9964524Y-15708143D01*
X9964524Y-15708143D02*
X9993095Y-15708143D01*
X9993095Y-15708143D02*
X10012143Y-15717667D01*
X10088334Y-15917667D02*
X10097857Y-15908143D01*
X10097857Y-15908143D02*
X10116905Y-15879571D01*
X10116905Y-15879571D02*
X10126429Y-15860524D01*
X10126429Y-15860524D02*
X10135953Y-15831952D01*
X10135953Y-15831952D02*
X10145476Y-15784333D01*
X10145476Y-15784333D02*
X10145476Y-15746238D01*
X10145476Y-15746238D02*
X10135953Y-15698619D01*
X10135953Y-15698619D02*
X10126429Y-15670048D01*
X10126429Y-15670048D02*
X10116905Y-15651000D01*
X10116905Y-15651000D02*
X10097857Y-15622428D01*
X10097857Y-15622428D02*
X10088334Y-15612905D01*
D10*
X5025000Y-15982000D02*
X5025000Y-16082000D01*
X4975000Y-16032000D02*
X5075000Y-16032000D01*
D11*
X5427381Y-16105476D02*
X5313095Y-16105476D01*
X5370238Y-16105476D02*
X5370238Y-15905476D01*
X5370238Y-15905476D02*
X5351190Y-15934048D01*
X5351190Y-15934048D02*
X5332143Y-15953095D01*
X5332143Y-15953095D02*
X5313095Y-15962619D01*
X5513095Y-16086428D02*
X5522619Y-16095952D01*
X5522619Y-16095952D02*
X5513095Y-16105476D01*
X5513095Y-16105476D02*
X5503571Y-16095952D01*
X5503571Y-16095952D02*
X5513095Y-16086428D01*
X5513095Y-16086428D02*
X5513095Y-16105476D01*
X5646428Y-15905476D02*
X5665476Y-15905476D01*
X5665476Y-15905476D02*
X5684524Y-15915000D01*
X5684524Y-15915000D02*
X5694048Y-15924524D01*
X5694048Y-15924524D02*
X5703571Y-15943571D01*
X5703571Y-15943571D02*
X5713095Y-15981667D01*
X5713095Y-15981667D02*
X5713095Y-16029286D01*
X5713095Y-16029286D02*
X5703571Y-16067381D01*
X5703571Y-16067381D02*
X5694048Y-16086428D01*
X5694048Y-16086428D02*
X5684524Y-16095952D01*
X5684524Y-16095952D02*
X5665476Y-16105476D01*
X5665476Y-16105476D02*
X5646428Y-16105476D01*
X5646428Y-16105476D02*
X5627381Y-16095952D01*
X5627381Y-16095952D02*
X5617857Y-16086428D01*
X5617857Y-16086428D02*
X5608333Y-16067381D01*
X5608333Y-16067381D02*
X5598809Y-16029286D01*
X5598809Y-16029286D02*
X5598809Y-15981667D01*
X5598809Y-15981667D02*
X5608333Y-15943571D01*
X5608333Y-15943571D02*
X5617857Y-15924524D01*
X5617857Y-15924524D02*
X5627381Y-15915000D01*
X5627381Y-15915000D02*
X5646428Y-15905476D01*
X5836905Y-15905476D02*
X5855952Y-15905476D01*
X5855952Y-15905476D02*
X5875000Y-15915000D01*
X5875000Y-15915000D02*
X5884524Y-15924524D01*
X5884524Y-15924524D02*
X5894048Y-15943571D01*
X5894048Y-15943571D02*
X5903571Y-15981667D01*
X5903571Y-15981667D02*
X5903571Y-16029286D01*
X5903571Y-16029286D02*
X5894048Y-16067381D01*
X5894048Y-16067381D02*
X5884524Y-16086428D01*
X5884524Y-16086428D02*
X5875000Y-16095952D01*
X5875000Y-16095952D02*
X5855952Y-16105476D01*
X5855952Y-16105476D02*
X5836905Y-16105476D01*
X5836905Y-16105476D02*
X5817857Y-16095952D01*
X5817857Y-16095952D02*
X5808333Y-16086428D01*
X5808333Y-16086428D02*
X5798809Y-16067381D01*
X5798809Y-16067381D02*
X5789286Y-16029286D01*
X5789286Y-16029286D02*
X5789286Y-15981667D01*
X5789286Y-15981667D02*
X5798809Y-15943571D01*
X5798809Y-15943571D02*
X5808333Y-15924524D01*
X5808333Y-15924524D02*
X5817857Y-15915000D01*
X5817857Y-15915000D02*
X5836905Y-15905476D01*
X6027381Y-15905476D02*
X6046429Y-15905476D01*
X6046429Y-15905476D02*
X6065476Y-15915000D01*
X6065476Y-15915000D02*
X6075000Y-15924524D01*
X6075000Y-15924524D02*
X6084524Y-15943571D01*
X6084524Y-15943571D02*
X6094048Y-15981667D01*
X6094048Y-15981667D02*
X6094048Y-16029286D01*
X6094048Y-16029286D02*
X6084524Y-16067381D01*
X6084524Y-16067381D02*
X6075000Y-16086428D01*
X6075000Y-16086428D02*
X6065476Y-16095952D01*
X6065476Y-16095952D02*
X6046429Y-16105476D01*
X6046429Y-16105476D02*
X6027381Y-16105476D01*
X6027381Y-16105476D02*
X6008333Y-16095952D01*
X6008333Y-16095952D02*
X5998809Y-16086428D01*
X5998809Y-16086428D02*
X5989286Y-16067381D01*
X5989286Y-16067381D02*
X5979762Y-16029286D01*
X5979762Y-16029286D02*
X5979762Y-15981667D01*
X5979762Y-15981667D02*
X5989286Y-15943571D01*
X5989286Y-15943571D02*
X5998809Y-15924524D01*
X5998809Y-15924524D02*
X6008333Y-15915000D01*
X6008333Y-15915000D02*
X6027381Y-15905476D01*
X6179762Y-16105476D02*
X6179762Y-15972143D01*
X6179762Y-15991190D02*
X6189286Y-15981667D01*
X6189286Y-15981667D02*
X6208333Y-15972143D01*
X6208333Y-15972143D02*
X6236905Y-15972143D01*
X6236905Y-15972143D02*
X6255952Y-15981667D01*
X6255952Y-15981667D02*
X6265476Y-16000714D01*
X6265476Y-16000714D02*
X6265476Y-16105476D01*
X6265476Y-16000714D02*
X6275000Y-15981667D01*
X6275000Y-15981667D02*
X6294048Y-15972143D01*
X6294048Y-15972143D02*
X6322619Y-15972143D01*
X6322619Y-15972143D02*
X6341667Y-15981667D01*
X6341667Y-15981667D02*
X6351190Y-16000714D01*
X6351190Y-16000714D02*
X6351190Y-16105476D01*
X6446429Y-16105476D02*
X6446429Y-15972143D01*
X6446429Y-15991190D02*
X6455952Y-15981667D01*
X6455952Y-15981667D02*
X6475000Y-15972143D01*
X6475000Y-15972143D02*
X6503571Y-15972143D01*
X6503571Y-15972143D02*
X6522619Y-15981667D01*
X6522619Y-15981667D02*
X6532143Y-16000714D01*
X6532143Y-16000714D02*
X6532143Y-16105476D01*
X6532143Y-16000714D02*
X6541667Y-15981667D01*
X6541667Y-15981667D02*
X6560714Y-15972143D01*
X6560714Y-15972143D02*
X6589286Y-15972143D01*
X6589286Y-15972143D02*
X6608333Y-15981667D01*
X6608333Y-15981667D02*
X6617857Y-16000714D01*
X6617857Y-16000714D02*
X6617857Y-16105476D01*
X6975952Y-15895952D02*
X6804524Y-16153095D01*
X7200714Y-15905476D02*
X7219762Y-15905476D01*
X7219762Y-15905476D02*
X7238810Y-15915000D01*
X7238810Y-15915000D02*
X7248333Y-15924524D01*
X7248333Y-15924524D02*
X7257857Y-15943571D01*
X7257857Y-15943571D02*
X7267381Y-15981667D01*
X7267381Y-15981667D02*
X7267381Y-16029286D01*
X7267381Y-16029286D02*
X7257857Y-16067381D01*
X7257857Y-16067381D02*
X7248333Y-16086428D01*
X7248333Y-16086428D02*
X7238810Y-16095952D01*
X7238810Y-16095952D02*
X7219762Y-16105476D01*
X7219762Y-16105476D02*
X7200714Y-16105476D01*
X7200714Y-16105476D02*
X7181667Y-16095952D01*
X7181667Y-16095952D02*
X7172143Y-16086428D01*
X7172143Y-16086428D02*
X7162619Y-16067381D01*
X7162619Y-16067381D02*
X7153095Y-16029286D01*
X7153095Y-16029286D02*
X7153095Y-15981667D01*
X7153095Y-15981667D02*
X7162619Y-15943571D01*
X7162619Y-15943571D02*
X7172143Y-15924524D01*
X7172143Y-15924524D02*
X7181667Y-15915000D01*
X7181667Y-15915000D02*
X7200714Y-15905476D01*
X7353095Y-16086428D02*
X7362619Y-16095952D01*
X7362619Y-16095952D02*
X7353095Y-16105476D01*
X7353095Y-16105476D02*
X7343571Y-16095952D01*
X7343571Y-16095952D02*
X7353095Y-16086428D01*
X7353095Y-16086428D02*
X7353095Y-16105476D01*
X7486429Y-15905476D02*
X7505476Y-15905476D01*
X7505476Y-15905476D02*
X7524524Y-15915000D01*
X7524524Y-15915000D02*
X7534048Y-15924524D01*
X7534048Y-15924524D02*
X7543571Y-15943571D01*
X7543571Y-15943571D02*
X7553095Y-15981667D01*
X7553095Y-15981667D02*
X7553095Y-16029286D01*
X7553095Y-16029286D02*
X7543571Y-16067381D01*
X7543571Y-16067381D02*
X7534048Y-16086428D01*
X7534048Y-16086428D02*
X7524524Y-16095952D01*
X7524524Y-16095952D02*
X7505476Y-16105476D01*
X7505476Y-16105476D02*
X7486429Y-16105476D01*
X7486429Y-16105476D02*
X7467381Y-16095952D01*
X7467381Y-16095952D02*
X7457857Y-16086428D01*
X7457857Y-16086428D02*
X7448333Y-16067381D01*
X7448333Y-16067381D02*
X7438810Y-16029286D01*
X7438810Y-16029286D02*
X7438810Y-15981667D01*
X7438810Y-15981667D02*
X7448333Y-15943571D01*
X7448333Y-15943571D02*
X7457857Y-15924524D01*
X7457857Y-15924524D02*
X7467381Y-15915000D01*
X7467381Y-15915000D02*
X7486429Y-15905476D01*
X7619762Y-15905476D02*
X7743571Y-15905476D01*
X7743571Y-15905476D02*
X7676905Y-15981667D01*
X7676905Y-15981667D02*
X7705476Y-15981667D01*
X7705476Y-15981667D02*
X7724524Y-15991190D01*
X7724524Y-15991190D02*
X7734048Y-16000714D01*
X7734048Y-16000714D02*
X7743571Y-16019762D01*
X7743571Y-16019762D02*
X7743571Y-16067381D01*
X7743571Y-16067381D02*
X7734048Y-16086428D01*
X7734048Y-16086428D02*
X7724524Y-16095952D01*
X7724524Y-16095952D02*
X7705476Y-16105476D01*
X7705476Y-16105476D02*
X7648333Y-16105476D01*
X7648333Y-16105476D02*
X7629286Y-16095952D01*
X7629286Y-16095952D02*
X7619762Y-16086428D01*
X7838810Y-16105476D02*
X7876905Y-16105476D01*
X7876905Y-16105476D02*
X7895952Y-16095952D01*
X7895952Y-16095952D02*
X7905476Y-16086428D01*
X7905476Y-16086428D02*
X7924524Y-16057857D01*
X7924524Y-16057857D02*
X7934048Y-16019762D01*
X7934048Y-16019762D02*
X7934048Y-15943571D01*
X7934048Y-15943571D02*
X7924524Y-15924524D01*
X7924524Y-15924524D02*
X7915000Y-15915000D01*
X7915000Y-15915000D02*
X7895952Y-15905476D01*
X7895952Y-15905476D02*
X7857857Y-15905476D01*
X7857857Y-15905476D02*
X7838810Y-15915000D01*
X7838810Y-15915000D02*
X7829286Y-15924524D01*
X7829286Y-15924524D02*
X7819762Y-15943571D01*
X7819762Y-15943571D02*
X7819762Y-15991190D01*
X7819762Y-15991190D02*
X7829286Y-16010238D01*
X7829286Y-16010238D02*
X7838810Y-16019762D01*
X7838810Y-16019762D02*
X7857857Y-16029286D01*
X7857857Y-16029286D02*
X7895952Y-16029286D01*
X7895952Y-16029286D02*
X7915000Y-16019762D01*
X7915000Y-16019762D02*
X7924524Y-16010238D01*
X7924524Y-16010238D02*
X7934048Y-15991190D01*
X8105476Y-15972143D02*
X8105476Y-16105476D01*
X8057857Y-15895952D02*
X8010238Y-16038809D01*
X8010238Y-16038809D02*
X8134048Y-16038809D01*
X8200714Y-15905476D02*
X8200714Y-15943571D01*
X8276905Y-15905476D02*
X8276905Y-15943571D01*
X8539762Y-16181667D02*
X8530238Y-16172143D01*
X8530238Y-16172143D02*
X8511191Y-16143571D01*
X8511191Y-16143571D02*
X8501667Y-16124524D01*
X8501667Y-16124524D02*
X8492143Y-16095952D01*
X8492143Y-16095952D02*
X8482619Y-16048333D01*
X8482619Y-16048333D02*
X8482619Y-16010238D01*
X8482619Y-16010238D02*
X8492143Y-15962619D01*
X8492143Y-15962619D02*
X8501667Y-15934048D01*
X8501667Y-15934048D02*
X8511191Y-15915000D01*
X8511191Y-15915000D02*
X8530238Y-15886428D01*
X8530238Y-15886428D02*
X8539762Y-15876905D01*
X8720714Y-16105476D02*
X8606429Y-16105476D01*
X8663572Y-16105476D02*
X8663572Y-15905476D01*
X8663572Y-15905476D02*
X8644524Y-15934048D01*
X8644524Y-15934048D02*
X8625476Y-15953095D01*
X8625476Y-15953095D02*
X8606429Y-15962619D01*
X8844524Y-15905476D02*
X8863572Y-15905476D01*
X8863572Y-15905476D02*
X8882619Y-15915000D01*
X8882619Y-15915000D02*
X8892143Y-15924524D01*
X8892143Y-15924524D02*
X8901667Y-15943571D01*
X8901667Y-15943571D02*
X8911191Y-15981667D01*
X8911191Y-15981667D02*
X8911191Y-16029286D01*
X8911191Y-16029286D02*
X8901667Y-16067381D01*
X8901667Y-16067381D02*
X8892143Y-16086428D01*
X8892143Y-16086428D02*
X8882619Y-16095952D01*
X8882619Y-16095952D02*
X8863572Y-16105476D01*
X8863572Y-16105476D02*
X8844524Y-16105476D01*
X8844524Y-16105476D02*
X8825476Y-16095952D01*
X8825476Y-16095952D02*
X8815953Y-16086428D01*
X8815953Y-16086428D02*
X8806429Y-16067381D01*
X8806429Y-16067381D02*
X8796905Y-16029286D01*
X8796905Y-16029286D02*
X8796905Y-15981667D01*
X8796905Y-15981667D02*
X8806429Y-15943571D01*
X8806429Y-15943571D02*
X8815953Y-15924524D01*
X8815953Y-15924524D02*
X8825476Y-15915000D01*
X8825476Y-15915000D02*
X8844524Y-15905476D01*
X8977857Y-15905476D02*
X9111191Y-15905476D01*
X9111191Y-15905476D02*
X9025476Y-16105476D01*
X9307381Y-16105476D02*
X9307381Y-15905476D01*
X9393095Y-16105476D02*
X9393095Y-16000714D01*
X9393095Y-16000714D02*
X9383572Y-15981667D01*
X9383572Y-15981667D02*
X9364524Y-15972143D01*
X9364524Y-15972143D02*
X9335953Y-15972143D01*
X9335953Y-15972143D02*
X9316905Y-15981667D01*
X9316905Y-15981667D02*
X9307381Y-15991190D01*
X9516905Y-16105476D02*
X9497857Y-16095952D01*
X9497857Y-16095952D02*
X9488334Y-16086428D01*
X9488334Y-16086428D02*
X9478810Y-16067381D01*
X9478810Y-16067381D02*
X9478810Y-16010238D01*
X9478810Y-16010238D02*
X9488334Y-15991190D01*
X9488334Y-15991190D02*
X9497857Y-15981667D01*
X9497857Y-15981667D02*
X9516905Y-15972143D01*
X9516905Y-15972143D02*
X9545476Y-15972143D01*
X9545476Y-15972143D02*
X9564524Y-15981667D01*
X9564524Y-15981667D02*
X9574048Y-15991190D01*
X9574048Y-15991190D02*
X9583572Y-16010238D01*
X9583572Y-16010238D02*
X9583572Y-16067381D01*
X9583572Y-16067381D02*
X9574048Y-16086428D01*
X9574048Y-16086428D02*
X9564524Y-16095952D01*
X9564524Y-16095952D02*
X9545476Y-16105476D01*
X9545476Y-16105476D02*
X9516905Y-16105476D01*
X9697857Y-16105476D02*
X9678810Y-16095952D01*
X9678810Y-16095952D02*
X9669286Y-16076905D01*
X9669286Y-16076905D02*
X9669286Y-15905476D01*
X9850238Y-16095952D02*
X9831191Y-16105476D01*
X9831191Y-16105476D02*
X9793095Y-16105476D01*
X9793095Y-16105476D02*
X9774048Y-16095952D01*
X9774048Y-16095952D02*
X9764524Y-16076905D01*
X9764524Y-16076905D02*
X9764524Y-16000714D01*
X9764524Y-16000714D02*
X9774048Y-15981667D01*
X9774048Y-15981667D02*
X9793095Y-15972143D01*
X9793095Y-15972143D02*
X9831191Y-15972143D01*
X9831191Y-15972143D02*
X9850238Y-15981667D01*
X9850238Y-15981667D02*
X9859762Y-16000714D01*
X9859762Y-16000714D02*
X9859762Y-16019762D01*
X9859762Y-16019762D02*
X9764524Y-16038809D01*
X9935953Y-16095952D02*
X9955000Y-16105476D01*
X9955000Y-16105476D02*
X9993095Y-16105476D01*
X9993095Y-16105476D02*
X10012143Y-16095952D01*
X10012143Y-16095952D02*
X10021667Y-16076905D01*
X10021667Y-16076905D02*
X10021667Y-16067381D01*
X10021667Y-16067381D02*
X10012143Y-16048333D01*
X10012143Y-16048333D02*
X9993095Y-16038809D01*
X9993095Y-16038809D02*
X9964524Y-16038809D01*
X9964524Y-16038809D02*
X9945476Y-16029286D01*
X9945476Y-16029286D02*
X9935953Y-16010238D01*
X9935953Y-16010238D02*
X9935953Y-16000714D01*
X9935953Y-16000714D02*
X9945476Y-15981667D01*
X9945476Y-15981667D02*
X9964524Y-15972143D01*
X9964524Y-15972143D02*
X9993095Y-15972143D01*
X9993095Y-15972143D02*
X10012143Y-15981667D01*
X10088334Y-16181667D02*
X10097857Y-16172143D01*
X10097857Y-16172143D02*
X10116905Y-16143571D01*
X10116905Y-16143571D02*
X10126429Y-16124524D01*
X10126429Y-16124524D02*
X10135953Y-16095952D01*
X10135953Y-16095952D02*
X10145476Y-16048333D01*
X10145476Y-16048333D02*
X10145476Y-16010238D01*
X10145476Y-16010238D02*
X10135953Y-15962619D01*
X10135953Y-15962619D02*
X10126429Y-15934048D01*
X10126429Y-15934048D02*
X10116905Y-15915000D01*
X10116905Y-15915000D02*
X10097857Y-15886428D01*
X10097857Y-15886428D02*
X10088334Y-15876905D01*
M02*
