G04 #@! TF.GenerationSoftware,KiCad,Pcbnew,(7.0.0)*
G04 #@! TF.CreationDate,2024-03-28T20:59:28-07:00*
G04 #@! TF.ProjectId,video_timing,76696465-6f5f-4746-996d-696e672e6b69,rev?*
G04 #@! TF.SameCoordinates,Original*
G04 #@! TF.FileFunction,Soldermask,Bot*
G04 #@! TF.FilePolarity,Negative*
%FSLAX46Y46*%
G04 Gerber Fmt 4.6, Leading zero omitted, Abs format (unit mm)*
G04 Created by KiCad (PCBNEW (7.0.0)) date 2024-03-28 20:59:28*
%MOMM*%
%LPD*%
G01*
G04 APERTURE LIST*
%ADD10R,1.700000X1.700000*%
%ADD11O,1.700000X1.700000*%
%ADD12C,1.600000*%
%ADD13R,1.600000X1.600000*%
%ADD14O,1.600000X1.600000*%
G04 APERTURE END LIST*
D10*
X167131999Y-69341999D03*
D11*
X169671999Y-69341999D03*
D10*
X146811999Y-79247999D03*
D11*
X149351999Y-79247999D03*
D10*
X111505999Y-79247999D03*
D11*
X114045999Y-79247999D03*
D10*
X120649999Y-79247999D03*
D11*
X123189999Y-79247999D03*
D10*
X137921999Y-79247999D03*
D11*
X140461999Y-79247999D03*
D10*
X188975999Y-54101999D03*
D11*
X191515999Y-54101999D03*
D10*
X171703999Y-58927999D03*
D11*
X174243999Y-58927999D03*
D10*
X188975999Y-58927999D03*
D11*
X191515999Y-58927999D03*
D10*
X171703999Y-54101999D03*
D11*
X174243999Y-54101999D03*
D12*
X137160000Y-66040000D03*
X137160000Y-71040000D03*
X81280000Y-86360000D03*
X81280000Y-91360000D03*
D13*
X193039999Y-114299999D03*
D14*
X193039999Y-116839999D03*
X193039999Y-119379999D03*
X193039999Y-121919999D03*
X193039999Y-124459999D03*
X193039999Y-126999999D03*
X193039999Y-129539999D03*
X200659999Y-129539999D03*
X200659999Y-126999999D03*
X200659999Y-124459999D03*
X200659999Y-121919999D03*
X200659999Y-119379999D03*
X200659999Y-116839999D03*
X200659999Y-114299999D03*
D10*
X139699999Y-144779999D03*
D11*
X137159999Y-144779999D03*
X134619999Y-144779999D03*
X132079999Y-144779999D03*
X129539999Y-144779999D03*
X126999999Y-144779999D03*
X124459999Y-144779999D03*
X121919999Y-144779999D03*
X119379999Y-144779999D03*
X116839999Y-144779999D03*
X114299999Y-144779999D03*
X111759999Y-144779999D03*
X109219999Y-144779999D03*
X106679999Y-144779999D03*
X104139999Y-144779999D03*
X101599999Y-144779999D03*
D13*
X81279999Y-121879999D03*
D12*
X81280000Y-119380000D03*
X111760000Y-66040000D03*
X111760000Y-71040000D03*
D13*
X208279999Y-78739999D03*
D14*
X208279999Y-81279999D03*
X208279999Y-83819999D03*
X208279999Y-86359999D03*
X208279999Y-88899999D03*
X208279999Y-91439999D03*
X208279999Y-93979999D03*
X215899999Y-93979999D03*
X215899999Y-91439999D03*
X215899999Y-88899999D03*
X215899999Y-86359999D03*
X215899999Y-83819999D03*
X215899999Y-81279999D03*
X215899999Y-78739999D03*
D13*
X238759999Y-78739999D03*
D14*
X238759999Y-81279999D03*
X238759999Y-83819999D03*
X238759999Y-86359999D03*
X238759999Y-88899999D03*
X238759999Y-91439999D03*
X238759999Y-93979999D03*
X246379999Y-93979999D03*
X246379999Y-91439999D03*
X246379999Y-88899999D03*
X246379999Y-86359999D03*
X246379999Y-83819999D03*
X246379999Y-81279999D03*
X246379999Y-78739999D03*
D13*
X223519999Y-78739999D03*
D14*
X223519999Y-81279999D03*
X223519999Y-83819999D03*
X223519999Y-86359999D03*
X223519999Y-88899999D03*
X223519999Y-91439999D03*
X223519999Y-93979999D03*
X231139999Y-93979999D03*
X231139999Y-91439999D03*
X231139999Y-88899999D03*
X231139999Y-86359999D03*
X231139999Y-83819999D03*
X231139999Y-81279999D03*
X231139999Y-78739999D03*
D10*
X58419999Y-88899999D03*
D11*
X60959999Y-88899999D03*
D12*
X137160000Y-111680000D03*
X137160000Y-106680000D03*
X246380000Y-73660000D03*
X241380000Y-73660000D03*
X137160000Y-127000000D03*
X137160000Y-132000000D03*
X81280000Y-132000000D03*
X81280000Y-127000000D03*
X81280000Y-111680000D03*
X81280000Y-106680000D03*
D10*
X93979999Y-144779999D03*
D11*
X91439999Y-144779999D03*
X88899999Y-144779999D03*
X86359999Y-144779999D03*
X83819999Y-144779999D03*
X81279999Y-144779999D03*
X78739999Y-144779999D03*
X76199999Y-144779999D03*
X73659999Y-144779999D03*
X71119999Y-144779999D03*
X68579999Y-144779999D03*
X66039999Y-144779999D03*
X63499999Y-144779999D03*
X60959999Y-144779999D03*
D10*
X58419999Y-78739999D03*
D11*
X60959999Y-78739999D03*
D13*
X114299999Y-134619999D03*
D14*
X116839999Y-134619999D03*
X119379999Y-134619999D03*
X121919999Y-134619999D03*
X124459999Y-134619999D03*
X126999999Y-134619999D03*
X129539999Y-134619999D03*
X132079999Y-134619999D03*
X132079999Y-126999999D03*
X129539999Y-126999999D03*
X126999999Y-126999999D03*
X124459999Y-126999999D03*
X121919999Y-126999999D03*
X119379999Y-126999999D03*
X116839999Y-126999999D03*
X114299999Y-126999999D03*
D13*
X208279999Y-114299999D03*
D14*
X208279999Y-116839999D03*
X208279999Y-119379999D03*
X208279999Y-121919999D03*
X208279999Y-124459999D03*
X208279999Y-126999999D03*
X208279999Y-129539999D03*
X215899999Y-129539999D03*
X215899999Y-126999999D03*
X215899999Y-124459999D03*
X215899999Y-121919999D03*
X215899999Y-119379999D03*
X215899999Y-116839999D03*
X215899999Y-114299999D03*
D13*
X142234999Y-114299999D03*
D14*
X144774999Y-114299999D03*
X147314999Y-114299999D03*
X149854999Y-114299999D03*
X152394999Y-114299999D03*
X154934999Y-114299999D03*
X157474999Y-114299999D03*
X157474999Y-106679999D03*
X154934999Y-106679999D03*
X152394999Y-106679999D03*
X149854999Y-106679999D03*
X147314999Y-106679999D03*
X144774999Y-106679999D03*
X142234999Y-106679999D03*
D12*
X246380000Y-109220000D03*
X241380000Y-109220000D03*
X219710000Y-78740000D03*
X219710000Y-83740000D03*
X111760000Y-91360000D03*
X111760000Y-86360000D03*
D13*
X116839999Y-93979999D03*
D14*
X119379999Y-93979999D03*
X121919999Y-93979999D03*
X124459999Y-93979999D03*
X126999999Y-93979999D03*
X129539999Y-93979999D03*
X132079999Y-93979999D03*
X132079999Y-86359999D03*
X129539999Y-86359999D03*
X126999999Y-86359999D03*
X124459999Y-86359999D03*
X121919999Y-86359999D03*
X119379999Y-86359999D03*
X116839999Y-86359999D03*
D12*
X219710000Y-114300000D03*
X219710000Y-119300000D03*
X58420000Y-100330000D03*
X63420000Y-100330000D03*
X109220000Y-111680000D03*
X109220000Y-106680000D03*
D13*
X142239999Y-93979999D03*
D14*
X144779999Y-93979999D03*
X147319999Y-93979999D03*
X149859999Y-93979999D03*
X152399999Y-93979999D03*
X154939999Y-93979999D03*
X157479999Y-93979999D03*
X157479999Y-86359999D03*
X154939999Y-86359999D03*
X152399999Y-86359999D03*
X149859999Y-86359999D03*
X147319999Y-86359999D03*
X144779999Y-86359999D03*
X142239999Y-86359999D03*
D13*
X101599999Y-66039999D03*
D12*
X99100000Y-66040000D03*
D10*
X73659999Y-60959999D03*
D11*
X71119999Y-60959999D03*
X68579999Y-60959999D03*
X66039999Y-60959999D03*
X63499999Y-60959999D03*
X60959999Y-60959999D03*
X58419999Y-60959999D03*
D13*
X58419999Y-114299999D03*
D12*
X66040000Y-114300000D03*
X66040000Y-106680000D03*
X58420000Y-106680000D03*
X234950000Y-78740000D03*
X234950000Y-83740000D03*
D13*
X193039999Y-78739999D03*
D14*
X193039999Y-81279999D03*
X193039999Y-83819999D03*
X193039999Y-86359999D03*
X193039999Y-88899999D03*
X193039999Y-91439999D03*
X193039999Y-93979999D03*
X200659999Y-93979999D03*
X200659999Y-91439999D03*
X200659999Y-88899999D03*
X200659999Y-86359999D03*
X200659999Y-83819999D03*
X200659999Y-81279999D03*
X200659999Y-78739999D03*
D13*
X116839999Y-73659999D03*
D14*
X119379999Y-73659999D03*
X121919999Y-73659999D03*
X124459999Y-73659999D03*
X126999999Y-73659999D03*
X129539999Y-73659999D03*
X132079999Y-73659999D03*
X132079999Y-66039999D03*
X129539999Y-66039999D03*
X126999999Y-66039999D03*
X124459999Y-66039999D03*
X121919999Y-66039999D03*
X119379999Y-66039999D03*
X116839999Y-66039999D03*
D12*
X204470000Y-78740000D03*
X204470000Y-83740000D03*
X58420000Y-121920000D03*
X63420000Y-121920000D03*
D13*
X114299999Y-114299999D03*
D14*
X116839999Y-114299999D03*
X119379999Y-114299999D03*
X121919999Y-114299999D03*
X124459999Y-114299999D03*
X126999999Y-114299999D03*
X129539999Y-114299999D03*
X132079999Y-114299999D03*
X132079999Y-106679999D03*
X129539999Y-106679999D03*
X126999999Y-106679999D03*
X124459999Y-106679999D03*
X121919999Y-106679999D03*
X119379999Y-106679999D03*
X116839999Y-106679999D03*
X114299999Y-106679999D03*
D12*
X137160000Y-91360000D03*
X137160000Y-86360000D03*
D13*
X142239999Y-73659999D03*
D14*
X144779999Y-73659999D03*
X147319999Y-73659999D03*
X149859999Y-73659999D03*
X152399999Y-73659999D03*
X154939999Y-73659999D03*
X157479999Y-73659999D03*
X157479999Y-66039999D03*
X154939999Y-66039999D03*
X152399999Y-66039999D03*
X149859999Y-66039999D03*
X147319999Y-66039999D03*
X144779999Y-66039999D03*
X142239999Y-66039999D03*
D10*
X246379999Y-60959999D03*
D11*
X243839999Y-60959999D03*
X241299999Y-60959999D03*
X238759999Y-60959999D03*
X236219999Y-60959999D03*
X233679999Y-60959999D03*
X231139999Y-60959999D03*
X228599999Y-60959999D03*
X226059999Y-60959999D03*
X223519999Y-60959999D03*
X220979999Y-60959999D03*
X218439999Y-60959999D03*
X215899999Y-60959999D03*
X213359999Y-60959999D03*
X210819999Y-60959999D03*
X208279999Y-60959999D03*
D12*
X234950000Y-114300000D03*
X234950000Y-119300000D03*
D13*
X185419999Y-119379999D03*
D12*
X182920000Y-119380000D03*
X204470000Y-114300000D03*
X204470000Y-119300000D03*
D13*
X58419999Y-134619999D03*
D14*
X60959999Y-134619999D03*
X63499999Y-134619999D03*
X66039999Y-134619999D03*
X68579999Y-134619999D03*
X71119999Y-134619999D03*
X73659999Y-134619999D03*
X76199999Y-134619999D03*
X76199999Y-126999999D03*
X73659999Y-126999999D03*
X71119999Y-126999999D03*
X68579999Y-126999999D03*
X66039999Y-126999999D03*
X63499999Y-126999999D03*
X60959999Y-126999999D03*
X58419999Y-126999999D03*
D13*
X86359999Y-93979999D03*
D14*
X88899999Y-93979999D03*
X91439999Y-93979999D03*
X93979999Y-93979999D03*
X96519999Y-93979999D03*
X99059999Y-93979999D03*
X101599999Y-93979999D03*
X104139999Y-93979999D03*
X104139999Y-86359999D03*
X101599999Y-86359999D03*
X99059999Y-86359999D03*
X96519999Y-86359999D03*
X93979999Y-86359999D03*
X91439999Y-86359999D03*
X88899999Y-86359999D03*
X86359999Y-86359999D03*
D10*
X243839999Y-144779999D03*
D11*
X241299999Y-144779999D03*
X238759999Y-144779999D03*
X236219999Y-144779999D03*
X233679999Y-144779999D03*
X231139999Y-144779999D03*
X228599999Y-144779999D03*
X226059999Y-144779999D03*
X223519999Y-144779999D03*
X220979999Y-144779999D03*
X218439999Y-144779999D03*
X215899999Y-144779999D03*
X213359999Y-144779999D03*
X210819999Y-144779999D03*
X208279999Y-144779999D03*
X205739999Y-144779999D03*
X203199999Y-144779999D03*
X200659999Y-144779999D03*
X198119999Y-144779999D03*
X195579999Y-144779999D03*
X193039999Y-144779999D03*
X190499999Y-144779999D03*
X187959999Y-144779999D03*
X185419999Y-144779999D03*
X182879999Y-144779999D03*
X180339999Y-144779999D03*
X177799999Y-144779999D03*
X175259999Y-144779999D03*
X172719999Y-144779999D03*
X170179999Y-144779999D03*
X167639999Y-144779999D03*
X165099999Y-144779999D03*
D13*
X238759999Y-114299999D03*
D14*
X238759999Y-116839999D03*
X238759999Y-119379999D03*
X238759999Y-121919999D03*
X238759999Y-124459999D03*
X238759999Y-126999999D03*
X238759999Y-129539999D03*
X246379999Y-129539999D03*
X246379999Y-126999999D03*
X246379999Y-124459999D03*
X246379999Y-121919999D03*
X246379999Y-119379999D03*
X246379999Y-116839999D03*
X246379999Y-114299999D03*
D13*
X86359999Y-134619999D03*
D14*
X88899999Y-134619999D03*
X91439999Y-134619999D03*
X93979999Y-134619999D03*
X96519999Y-134619999D03*
X99059999Y-134619999D03*
X101599999Y-134619999D03*
X104139999Y-134619999D03*
X104139999Y-126999999D03*
X101599999Y-126999999D03*
X99059999Y-126999999D03*
X96519999Y-126999999D03*
X93979999Y-126999999D03*
X91439999Y-126999999D03*
X88899999Y-126999999D03*
X86359999Y-126999999D03*
D12*
X109220000Y-127000000D03*
X109220000Y-132000000D03*
D13*
X142239999Y-134619999D03*
D14*
X144779999Y-134619999D03*
X147319999Y-134619999D03*
X149859999Y-134619999D03*
X152399999Y-134619999D03*
X154939999Y-134619999D03*
X157479999Y-134619999D03*
X157479999Y-126999999D03*
X154939999Y-126999999D03*
X152399999Y-126999999D03*
X149859999Y-126999999D03*
X147319999Y-126999999D03*
X144779999Y-126999999D03*
X142239999Y-126999999D03*
D13*
X223519999Y-114299999D03*
D14*
X223519999Y-116839999D03*
X223519999Y-119379999D03*
X223519999Y-121919999D03*
X223519999Y-124459999D03*
X223519999Y-126999999D03*
X223519999Y-129539999D03*
X231139999Y-129539999D03*
X231139999Y-126999999D03*
X231139999Y-124459999D03*
X231139999Y-121919999D03*
X231139999Y-119379999D03*
X231139999Y-116839999D03*
X231139999Y-114299999D03*
D13*
X86359999Y-114299999D03*
D14*
X88899999Y-114299999D03*
X91439999Y-114299999D03*
X93979999Y-114299999D03*
X96519999Y-114299999D03*
X99059999Y-114299999D03*
X101599999Y-114299999D03*
X104139999Y-114299999D03*
X104139999Y-106679999D03*
X101599999Y-106679999D03*
X99059999Y-106679999D03*
X96519999Y-106679999D03*
X93979999Y-106679999D03*
X91439999Y-106679999D03*
X88899999Y-106679999D03*
X86359999Y-106679999D03*
M02*
