M48
; DRILL file {KiCad (7.0.0)} date Thu Mar 28 20:34:27 2024
; FORMAT={-:-/ absolute / metric / decimal}
; #@! TF.CreationDate,2024-03-28T20:34:27-07:00
; #@! TF.GenerationSoftware,Kicad,Pcbnew,(7.0.0)
; #@! TF.FileFunction,Plated,1,2,PTH
FMAT,2
METRIC
; #@! TA.AperFunction,Plated,PTH,ViaDrill
T1C0.381
; #@! TA.AperFunction,Plated,PTH,ComponentDrill
T2C0.800
; #@! TA.AperFunction,Plated,PTH,ComponentDrill
T3C1.000
%
G90
G05
T1
X55.88Y-73.66
X57.404Y-71.12
X58.928Y-71.12
X58.928Y-73.66
X63.5Y-111.506
X64.516Y-88.9
X65.278Y-106.172
X67.31Y-108.204
X68.58Y-111.506
X70.358Y-104.394
X74.422Y-106.68
X75.438Y-88.9
X77.47Y-85.344
X77.47Y-86.614
X77.47Y-87.884
X80.01Y-86.614
X80.01Y-87.884
X81.026Y-85.598
X81.28Y-110.236
X81.28Y-117.856
X83.312Y-105.156
X83.312Y-107.95
X83.312Y-110.236
X83.312Y-117.856
X83.312Y-126.492
X85.598Y-105.156
X85.598Y-107.95
X85.598Y-110.236
X85.598Y-117.856
X85.598Y-128.778
X87.376Y-131.826
X88.392Y-108.966
X88.392Y-110.236
X88.392Y-118.11
X88.392Y-119.634
X90.17Y-92.964
X91.44Y-87.884
X93.98Y-131.826
X93.98Y-133.35
X96.52Y-87.884
X98.806Y-76.2
X98.806Y-78.232
X98.806Y-82.804
X98.806Y-90.424
X103.886Y-70.104
X103.886Y-72.644
X104.14Y-111.76
X104.394Y-87.122
X104.394Y-92.71
X106.68Y-52.578
X106.68Y-105.156
X106.68Y-111.76
X108.712Y-94.488
X109.22Y-69.85
X109.22Y-105.156
X110.236Y-92.964
X110.744Y-59.69
X111.506Y-97.282
X111.76Y-69.088
X112.014Y-57.658
X113.03Y-84.582
X113.03Y-86.614
X114.046Y-59.69
X114.554Y-78.232
X115.316Y-61.722
X121.92Y-97.282
X124.206Y-96.774
X125.984Y-101.346
X128.778Y-76.962
X129.032Y-101.346
X129.794Y-70.104
X129.794Y-72.644
X130.81Y-76.962
X132.08Y-111.506
X132.334Y-120.396
X132.334Y-123.444
X133.35Y-69.85
X133.35Y-75.184
X133.35Y-79.756
X133.604Y-86.614
X133.604Y-87.884
X134.62Y-93.726
X135.636Y-83.566
X135.636Y-86.614
X135.636Y-87.884
X137.16Y-93.726
X138.43Y-79.756
X139.7Y-60.96
X143.256Y-70.104
X146.05Y-76.2
X146.304Y-70.104
X148.336Y-94.234
X148.59Y-123.444
X149.352Y-96.52
X151.13Y-110.744
X151.13Y-120.396
X151.384Y-101.6
X152.4Y-78.486
X153.162Y-69.85
X153.162Y-73.406
X154.178Y-101.6
X154.432Y-69.85
X154.432Y-73.406
X155.702Y-94.234
X155.702Y-96.52
X156.972Y-101.6
X157.988Y-108.204
X158.496Y-75.438
X159.512Y-101.6
X160.02Y-67.564
X160.782Y-108.204
X161.036Y-75.438
X163.322Y-90.678
X163.576Y-108.204
X164.084Y-74.168
X165.1Y-88.9
X166.116Y-108.204
X166.37Y-64.77
X166.878Y-70.866
X167.64Y-56.896
X168.402Y-72.136
X168.656Y-70.866
X171.196Y-96.266
X172.72Y-102.616
X172.72Y-103.886
X172.72Y-109.728
X172.72Y-110.998
X174.244Y-96.266
X176.53Y-124.206
X176.53Y-126.238
X177.038Y-105.664
X177.038Y-107.188
X177.038Y-108.712
X177.8Y-104.902
X177.8Y-106.426
X177.8Y-107.95
X179.07Y-59.182
X179.07Y-63.5
X180.34Y-105.664
X181.61Y-57.912
X181.61Y-63.5
X182.88Y-106.426
X183.642Y-88.9
X184.15Y-55.372
X184.15Y-63.5
X185.42Y-107.188
X187.96Y-74.93
X187.96Y-77.47
X187.96Y-107.95
X189.23Y-56.642
X189.23Y-63.5
X189.23Y-73.406
X190.5Y-77.978
X190.5Y-108.712
X191.77Y-124.206
X191.77Y-126.238
X192.786Y-104.902
X192.786Y-106.426
X192.786Y-107.95
X193.548Y-105.664
X193.548Y-107.188
X193.548Y-108.712
X200.406Y-88.9
X201.168Y-70.866
X201.168Y-72.136
X202.692Y-70.866
X207.01Y-72.136
X209.55Y-72.136
X210.312Y-88.9
X213.36Y-66.04
X214.122Y-88.9
X214.63Y-71.12
X214.63Y-73.152
X215.646Y-101.346
X215.646Y-102.87
X215.646Y-108.458
X215.646Y-109.982
X219.71Y-65.786
X219.71Y-70.358
X220.98Y-130.302
X220.98Y-140.208
X223.52Y-130.302
X223.52Y-138.43
X224.028Y-103.632
X224.028Y-105.664
X224.028Y-107.696
X224.028Y-109.728
X226.06Y-103.632
X226.06Y-130.302
X226.06Y-136.652
X227.33Y-63.5
X228.6Y-105.664
X228.6Y-130.302
X228.6Y-134.874
X229.87Y-58.674
X229.87Y-63.5
X231.14Y-80.01
X231.14Y-107.696
X231.14Y-130.302
X231.14Y-133.096
X232.41Y-56.388
X232.41Y-63.5
X233.68Y-77.47
X233.68Y-109.728
X236.22Y-74.93
X237.49Y-57.912
X237.49Y-63.5
X238.506Y-103.886
X239.522Y-80.01
X240.03Y-71.12
X244.094Y-66.04
X244.221Y-75.311
T2
X55.88Y-101.6
X55.88Y-111.76
X57.15Y-116.84
X57.15Y-127.0
X60.96Y-116.84
X60.96Y-127.0
X64.77Y-116.84
X64.77Y-127.0
X68.58Y-116.84
X68.58Y-127.0
X72.39Y-116.84
X72.39Y-127.0
X76.2Y-73.66
X76.2Y-78.66
X76.2Y-91.44
X76.2Y-96.44
X76.2Y-116.84
X76.2Y-127.0
X81.28Y-73.66
X81.28Y-81.28
X81.28Y-91.44
X81.28Y-99.06
X83.82Y-73.66
X83.82Y-81.28
X83.82Y-91.44
X83.82Y-99.06
X86.36Y-73.66
X86.36Y-81.28
X86.36Y-91.44
X86.36Y-99.06
X88.9Y-53.34
X88.9Y-58.34
X88.9Y-73.66
X88.9Y-81.28
X88.9Y-91.44
X88.9Y-99.06
X91.44Y-73.66
X91.44Y-81.28
X91.44Y-91.44
X91.44Y-99.06
X93.98Y-53.34
X93.98Y-63.5
X93.98Y-73.66
X93.98Y-81.28
X93.98Y-91.44
X93.98Y-99.06
X93.98Y-109.22
X93.98Y-114.22
X96.52Y-73.66
X96.52Y-81.28
X96.52Y-91.44
X96.52Y-99.06
X96.52Y-124.5
X96.52Y-127.0
X99.06Y-55.88
X99.06Y-60.88
X99.06Y-109.22
X99.06Y-116.84
X101.6Y-73.66
X101.6Y-78.66
X101.6Y-91.44
X101.6Y-96.44
X101.6Y-109.22
X101.6Y-116.84
X104.14Y-55.88
X104.14Y-63.5
X104.14Y-109.22
X104.14Y-116.84
X106.68Y-55.88
X106.68Y-63.5
X106.68Y-68.58
X106.68Y-73.66
X106.68Y-81.28
X106.68Y-91.44
X106.68Y-99.06
X106.68Y-109.22
X106.68Y-116.84
X109.22Y-55.88
X109.22Y-63.5
X109.22Y-73.66
X109.22Y-81.28
X109.22Y-91.44
X109.22Y-99.06
X109.22Y-109.22
X109.22Y-116.84
X111.76Y-55.88
X111.76Y-63.5
X111.76Y-73.66
X111.76Y-81.28
X111.76Y-91.44
X111.76Y-99.06
X111.76Y-109.22
X111.76Y-116.84
X114.3Y-55.88
X114.3Y-63.5
X114.3Y-73.66
X114.3Y-81.28
X114.3Y-91.44
X114.3Y-99.06
X114.3Y-109.22
X114.3Y-116.84
X116.84Y-55.88
X116.84Y-63.5
X116.84Y-68.58
X116.84Y-73.66
X116.84Y-81.28
X116.84Y-91.44
X116.84Y-99.06
X116.84Y-109.22
X116.84Y-116.84
X119.38Y-55.88
X119.38Y-63.5
X119.38Y-73.66
X119.38Y-81.28
X119.38Y-91.44
X119.38Y-99.06
X119.38Y-109.22
X119.38Y-116.84
X119.46Y-68.58
X121.92Y-55.88
X121.92Y-63.5
X121.92Y-73.66
X121.92Y-81.28
X121.92Y-91.44
X121.92Y-99.06
X121.92Y-109.22
X121.92Y-116.84
X124.46Y-68.58
X127.0Y-55.88
X127.0Y-60.88
X127.0Y-73.66
X127.0Y-78.66
X127.0Y-91.44
X127.0Y-96.44
X127.0Y-109.22
X127.0Y-114.22
X127.0Y-127.0
X127.0Y-132.0
X132.08Y-55.88
X132.08Y-63.5
X132.08Y-73.66
X132.08Y-81.28
X132.08Y-91.44
X132.08Y-99.06
X132.08Y-109.22
X132.08Y-116.84
X132.08Y-127.0
X132.08Y-134.62
X134.62Y-55.88
X134.62Y-63.5
X134.62Y-67.818
X134.62Y-73.66
X134.62Y-81.28
X134.62Y-91.44
X134.62Y-99.06
X134.62Y-109.22
X134.62Y-116.84
X134.62Y-121.92
X134.62Y-127.0
X134.62Y-134.62
X137.16Y-55.88
X137.16Y-63.5
X137.16Y-73.66
X137.16Y-81.28
X137.16Y-91.44
X137.16Y-99.06
X137.16Y-109.22
X137.16Y-116.84
X137.16Y-121.92
X137.16Y-127.0
X137.16Y-134.62
X139.7Y-55.88
X139.7Y-63.5
X139.7Y-73.66
X139.7Y-81.28
X139.7Y-91.44
X139.7Y-99.06
X139.7Y-109.22
X139.7Y-116.84
X139.7Y-121.92
X139.7Y-127.0
X139.7Y-134.62
X142.24Y-55.88
X142.24Y-63.5
X142.24Y-73.66
X142.24Y-81.28
X142.24Y-91.44
X142.24Y-99.06
X142.24Y-109.22
X142.24Y-116.84
X142.24Y-121.92
X142.24Y-127.0
X142.24Y-134.62
X144.78Y-55.88
X144.78Y-63.5
X144.78Y-67.818
X144.78Y-73.66
X144.78Y-81.28
X144.78Y-91.44
X144.78Y-99.06
X144.78Y-109.22
X144.78Y-116.84
X144.78Y-121.92
X144.78Y-127.0
X144.78Y-134.62
X147.32Y-55.88
X147.32Y-63.5
X147.32Y-73.66
X147.32Y-81.28
X147.32Y-91.44
X147.32Y-99.06
X147.32Y-109.22
X147.32Y-116.84
X147.32Y-121.92
X147.32Y-127.0
X147.32Y-134.62
X149.86Y-55.88
X149.86Y-63.5
X149.86Y-73.66
X149.86Y-81.28
X149.86Y-109.22
X149.86Y-116.84
X149.86Y-121.92
X149.86Y-127.0
X149.86Y-134.62
X152.4Y-109.22
X152.4Y-116.84
X152.4Y-121.92
X152.4Y-127.0
X152.4Y-134.62
X153.67Y-53.34
X153.67Y-63.5
X154.94Y-109.22
X154.94Y-116.84
X154.94Y-121.92
X154.94Y-127.0
X154.94Y-134.62
X157.48Y-68.58
X157.48Y-73.58
X157.48Y-88.9
X157.48Y-91.4
X160.02Y-116.84
X160.02Y-127.0
X162.56Y-68.58
X162.56Y-83.82
X165.1Y-68.58
X165.1Y-83.82
X167.64Y-68.58
X167.64Y-83.82
X170.18Y-68.58
X170.18Y-83.82
X170.18Y-93.98
X170.18Y-98.98
X170.18Y-111.76
X170.18Y-116.76
X172.72Y-68.58
X172.72Y-83.82
X175.26Y-68.58
X175.26Y-83.82
X175.26Y-93.98
X175.26Y-101.6
X175.26Y-111.76
X175.26Y-119.38
X177.8Y-68.58
X177.8Y-83.82
X177.8Y-93.98
X177.8Y-101.6
X177.8Y-111.76
X177.8Y-119.38
X180.34Y-68.58
X180.34Y-83.82
X180.34Y-93.98
X180.34Y-101.6
X180.34Y-111.76
X180.34Y-119.38
X182.88Y-68.58
X182.88Y-83.82
X182.88Y-93.98
X182.88Y-101.6
X182.88Y-111.76
X182.88Y-119.38
X185.42Y-68.58
X185.42Y-83.82
X185.42Y-93.98
X185.42Y-101.6
X185.42Y-111.76
X185.42Y-119.38
X187.96Y-68.58
X187.96Y-83.82
X187.96Y-93.98
X187.96Y-101.6
X187.96Y-111.76
X187.96Y-119.38
X190.5Y-68.58
X190.5Y-83.82
X190.5Y-93.98
X190.5Y-101.6
X190.5Y-111.76
X190.5Y-119.38
X193.04Y-68.58
X193.04Y-83.82
X193.04Y-93.98
X193.04Y-101.6
X193.04Y-111.76
X193.04Y-119.38
X195.58Y-68.58
X195.58Y-83.82
X195.58Y-93.98
X195.58Y-101.6
X195.58Y-111.76
X195.58Y-119.38
X198.12Y-68.58
X198.12Y-83.82
X198.12Y-93.98
X198.12Y-101.6
X198.12Y-111.76
X198.12Y-119.38
X199.39Y-53.34
X199.39Y-63.5
X200.66Y-68.58
X200.66Y-83.82
X204.47Y-53.34
X204.47Y-63.5
X205.74Y-68.58
X205.74Y-73.58
X205.74Y-91.44
X205.74Y-93.98
X205.74Y-96.52
X205.74Y-99.06
X205.74Y-101.6
X205.74Y-111.76
X205.74Y-114.3
X205.74Y-116.84
X205.74Y-119.38
X205.74Y-121.92
X210.82Y-68.58
X210.82Y-83.82
X210.82Y-121.666
X213.32Y-121.666
X213.36Y-68.58
X213.36Y-83.82
X213.36Y-93.98
X213.36Y-98.98
X213.36Y-111.76
X213.36Y-116.76
X215.9Y-68.58
X215.9Y-83.82
X218.44Y-68.58
X218.44Y-83.82
X218.44Y-93.98
X218.44Y-101.6
X218.44Y-111.76
X218.44Y-119.38
X220.98Y-68.58
X220.98Y-83.82
X220.98Y-93.98
X220.98Y-101.6
X220.98Y-111.76
X220.98Y-119.38
X223.52Y-68.58
X223.52Y-83.82
X223.52Y-93.98
X223.52Y-101.6
X223.52Y-111.76
X223.52Y-119.38
X226.06Y-68.58
X226.06Y-83.82
X226.06Y-93.98
X226.06Y-101.6
X226.06Y-111.76
X226.06Y-119.38
X228.6Y-68.58
X228.6Y-83.82
X228.6Y-93.98
X228.6Y-101.6
X228.6Y-111.76
X228.6Y-119.38
X231.14Y-68.58
X231.14Y-83.82
X231.14Y-93.98
X231.14Y-101.6
X231.14Y-111.76
X231.14Y-119.38
X233.68Y-68.58
X233.68Y-83.82
X233.68Y-93.98
X233.68Y-101.6
X233.68Y-111.76
X233.68Y-119.38
X236.22Y-68.58
X236.22Y-83.82
X236.22Y-93.98
X236.22Y-101.6
X236.22Y-111.76
X236.22Y-119.38
X238.76Y-68.58
X238.76Y-83.82
X238.76Y-88.9
X238.76Y-93.98
X238.76Y-101.6
X238.76Y-111.76
X238.76Y-119.38
X241.3Y-68.58
X241.3Y-83.82
X241.3Y-93.98
X241.3Y-101.6
X241.3Y-111.76
X241.3Y-119.38
X243.84Y-68.58
X243.84Y-83.82
X246.38Y-68.58
X246.38Y-83.82
X248.92Y-68.58
X248.92Y-83.82
X248.92Y-88.9
X248.92Y-93.98
X248.92Y-96.52
X248.92Y-99.06
X248.92Y-101.6
X248.92Y-104.14
X248.92Y-111.76
X248.92Y-114.3
X248.92Y-116.84
X248.92Y-119.38
X248.92Y-121.92
X251.46Y-53.34
X251.46Y-63.5
T3
X58.42Y-60.96
X60.96Y-60.96
X60.96Y-68.58
X60.96Y-71.12
X60.96Y-73.66
X60.96Y-76.2
X60.96Y-78.74
X60.96Y-81.28
X60.96Y-88.9
X60.96Y-91.44
X60.96Y-93.98
X60.96Y-96.52
X60.96Y-144.78
X63.5Y-60.96
X63.5Y-68.58
X63.5Y-71.12
X63.5Y-73.66
X63.5Y-76.2
X63.5Y-78.74
X63.5Y-81.28
X63.5Y-144.78
X66.04Y-60.96
X66.04Y-144.78
X68.58Y-60.96
X68.58Y-144.78
X71.12Y-60.96
X71.12Y-144.78
X73.66Y-60.96
X73.66Y-144.78
X76.2Y-144.78
X78.74Y-144.78
X79.502Y-53.34
X81.28Y-144.78
X82.042Y-53.34
X83.82Y-144.78
X86.36Y-144.78
X88.9Y-144.78
X91.44Y-144.78
X93.98Y-144.78
X95.758Y-68.58
X98.298Y-68.58
X101.6Y-144.78
X104.14Y-144.78
X106.68Y-144.78
X109.22Y-144.78
X111.76Y-144.78
X114.3Y-144.78
X116.84Y-144.78
X119.38Y-144.78
X121.92Y-144.78
X124.46Y-144.78
X125.73Y-63.754
X125.73Y-83.058
X127.0Y-144.78
X128.27Y-63.754
X128.27Y-83.058
X129.54Y-144.78
X132.08Y-144.78
X133.35Y-103.378
X134.62Y-144.78
X135.89Y-103.378
X137.16Y-144.78
X139.7Y-144.78
X148.59Y-67.818
X151.13Y-67.818
X156.718Y-78.486
X156.718Y-81.026
X157.48Y-60.96
X160.02Y-60.96
X162.56Y-60.96
X165.1Y-60.96
X165.1Y-144.78
X167.64Y-60.96
X167.64Y-144.78
X170.18Y-60.96
X170.18Y-144.78
X172.72Y-60.96
X172.72Y-144.78
X175.26Y-60.96
X175.26Y-144.78
X177.8Y-60.96
X177.8Y-144.78
X180.34Y-60.96
X180.34Y-144.78
X182.88Y-60.96
X182.88Y-144.78
X185.42Y-60.96
X185.42Y-144.78
X187.96Y-60.96
X187.96Y-144.78
X190.5Y-60.96
X190.5Y-144.78
X193.04Y-60.96
X193.04Y-144.78
X195.58Y-60.96
X195.58Y-144.78
X198.12Y-144.78
X200.66Y-144.78
X203.2Y-144.78
X205.74Y-144.78
X208.28Y-60.96
X208.28Y-144.78
X210.82Y-60.96
X210.82Y-144.78
X213.36Y-60.96
X213.36Y-144.78
X215.9Y-60.96
X215.9Y-144.78
X218.44Y-60.96
X218.44Y-144.78
X220.98Y-60.96
X220.98Y-144.78
X223.52Y-60.96
X223.52Y-144.78
X226.06Y-60.96
X226.06Y-144.78
X228.6Y-60.96
X228.6Y-144.78
X231.14Y-60.96
X231.14Y-144.78
X233.68Y-60.96
X233.68Y-144.78
X236.22Y-60.96
X236.22Y-144.78
X238.76Y-60.96
X238.76Y-144.78
X241.3Y-60.96
X241.3Y-144.78
X243.84Y-60.96
X243.84Y-144.78
X246.38Y-60.96
T0
M30
