%TF.GenerationSoftware,KiCad,Pcbnew,(7.0.0)*%
%TF.CreationDate,2024-11-17T17:32:06-08:00*%
%TF.ProjectId,offset_preset_counter,6f666673-6574-45f7-9072-657365745f63,rev?*%
%TF.SameCoordinates,Original*%
%TF.FileFunction,Drillmap*%
%TF.FilePolarity,Positive*%
%FSLAX45Y45*%
G04 Gerber Fmt 4.5, Leading zero omitted, Abs format (unit mm)*
G04 Created by KiCad (PCBNEW (7.0.0)) date 2024-11-17 17:32:06*
%MOMM*%
%LPD*%
G01*
G04 APERTURE LIST*
%ADD10C,0.050000*%
%ADD11C,0.200000*%
%ADD12C,0.038100*%
%ADD13C,0.080000*%
%ADD14C,0.090000*%
%ADD15C,0.100000*%
%ADD16C,0.110000*%
G04 APERTURE END LIST*
D10*
X5080000Y-14668500D02*
X5080000Y-5270500D01*
X5270500Y-5080000D02*
G75*
G03*
X5080000Y-5270500I0J-190500D01*
G01*
X25209500Y-14859000D02*
G75*
G03*
X25400000Y-14668500I0J190500D01*
G01*
X25400000Y-5270500D02*
X25400000Y-14668500D01*
X25209500Y-14859000D02*
X5270500Y-14859000D01*
X25400000Y-5270500D02*
G75*
G03*
X25209500Y-5080000I-190500J0D01*
G01*
X5080000Y-14668500D02*
G75*
G03*
X5270500Y-14859000I190500J0D01*
G01*
X5270500Y-5080000D02*
X25209500Y-5080000D01*
D11*
D12*
X5340350Y-9378950D02*
X5378450Y-9417050D01*
X5378450Y-9378950D02*
X5340350Y-9417050D01*
X5568950Y-7651750D02*
X5607050Y-7689850D01*
X5607050Y-7651750D02*
X5568950Y-7689850D01*
X5568950Y-7804150D02*
X5607050Y-7842250D01*
X5607050Y-7804150D02*
X5568950Y-7842250D01*
X5695950Y-9378950D02*
X5734050Y-9417050D01*
X5734050Y-9378950D02*
X5695950Y-9417050D01*
X5822950Y-7651750D02*
X5861050Y-7689850D01*
X5861050Y-7651750D02*
X5822950Y-7689850D01*
X5822950Y-7880350D02*
X5861050Y-7918450D01*
X5861050Y-7880350D02*
X5822950Y-7918450D01*
X6076950Y-7651750D02*
X6115050Y-7689850D01*
X6115050Y-7651750D02*
X6076950Y-7689850D01*
X6076950Y-7956550D02*
X6115050Y-7994650D01*
X6115050Y-7956550D02*
X6076950Y-7994650D01*
X6330950Y-7651750D02*
X6369050Y-7689850D01*
X6369050Y-7651750D02*
X6330950Y-7689850D01*
X6330950Y-8032750D02*
X6369050Y-8070850D01*
X6369050Y-8032750D02*
X6330950Y-8070850D01*
X6330950Y-8794750D02*
X6369050Y-8832850D01*
X6369050Y-8794750D02*
X6330950Y-8832850D01*
X6457950Y-11207750D02*
X6496050Y-11245850D01*
X6496050Y-11207750D02*
X6457950Y-11245850D01*
X6584950Y-7651750D02*
X6623050Y-7689850D01*
X6623050Y-7651750D02*
X6584950Y-7689850D01*
X6584950Y-8108950D02*
X6623050Y-8147050D01*
X6623050Y-8108950D02*
X6584950Y-8147050D01*
X6584950Y-8718550D02*
X6623050Y-8756650D01*
X6623050Y-8718550D02*
X6584950Y-8756650D01*
X6584950Y-10242550D02*
X6623050Y-10280650D01*
X6623050Y-10242550D02*
X6584950Y-10280650D01*
X6584950Y-10394950D02*
X6623050Y-10433050D01*
X6623050Y-10394950D02*
X6584950Y-10433050D01*
X6711950Y-10242550D02*
X6750050Y-10280650D01*
X6750050Y-10242550D02*
X6711950Y-10280650D01*
X6711950Y-10394950D02*
X6750050Y-10433050D01*
X6750050Y-10394950D02*
X6711950Y-10433050D01*
X6711950Y-11131550D02*
X6750050Y-11169650D01*
X6750050Y-11131550D02*
X6711950Y-11169650D01*
X6838950Y-7651750D02*
X6877050Y-7689850D01*
X6877050Y-7651750D02*
X6838950Y-7689850D01*
X6838950Y-8185150D02*
X6877050Y-8223250D01*
X6877050Y-8185150D02*
X6838950Y-8223250D01*
X6838950Y-8642350D02*
X6877050Y-8680450D01*
X6877050Y-8642350D02*
X6838950Y-8680450D01*
X6838950Y-10166350D02*
X6877050Y-10204450D01*
X6877050Y-10166350D02*
X6838950Y-10204450D01*
X6838950Y-10394950D02*
X6877050Y-10433050D01*
X6877050Y-10394950D02*
X6838950Y-10433050D01*
X6965950Y-10166350D02*
X7004050Y-10204450D01*
X7004050Y-10166350D02*
X6965950Y-10204450D01*
X6965950Y-10394950D02*
X7004050Y-10433050D01*
X7004050Y-10394950D02*
X6965950Y-10433050D01*
X6965950Y-11055350D02*
X7004050Y-11093450D01*
X7004050Y-11055350D02*
X6965950Y-11093450D01*
X7092950Y-7651750D02*
X7131050Y-7689850D01*
X7131050Y-7651750D02*
X7092950Y-7689850D01*
X7092950Y-8261350D02*
X7131050Y-8299450D01*
X7131050Y-8261350D02*
X7092950Y-8299450D01*
X7092950Y-8566150D02*
X7131050Y-8604250D01*
X7131050Y-8566150D02*
X7092950Y-8604250D01*
X7092950Y-10090150D02*
X7131050Y-10128250D01*
X7131050Y-10090150D02*
X7092950Y-10128250D01*
X7092950Y-10394950D02*
X7131050Y-10433050D01*
X7131050Y-10394950D02*
X7092950Y-10433050D01*
X7219950Y-10090150D02*
X7258050Y-10128250D01*
X7258050Y-10090150D02*
X7219950Y-10128250D01*
X7219950Y-10394950D02*
X7258050Y-10433050D01*
X7258050Y-10394950D02*
X7219950Y-10433050D01*
X7219950Y-10979150D02*
X7258050Y-11017250D01*
X7258050Y-10979150D02*
X7219950Y-11017250D01*
X7346950Y-7651750D02*
X7385050Y-7689850D01*
X7385050Y-7651750D02*
X7346950Y-7689850D01*
X7346950Y-8337550D02*
X7385050Y-8375650D01*
X7385050Y-8337550D02*
X7346950Y-8375650D01*
X7346950Y-8489950D02*
X7385050Y-8528050D01*
X7385050Y-8489950D02*
X7346950Y-8528050D01*
X7346950Y-10394950D02*
X7385050Y-10433050D01*
X7385050Y-10394950D02*
X7346950Y-10433050D01*
X7346950Y-13823950D02*
X7385050Y-13862050D01*
X7385050Y-13823950D02*
X7346950Y-13862050D01*
X7346950Y-14077950D02*
X7385050Y-14116050D01*
X7385050Y-14077950D02*
X7346950Y-14116050D01*
X7600950Y-7651750D02*
X7639050Y-7689850D01*
X7639050Y-7651750D02*
X7600950Y-7689850D01*
X7600950Y-8413750D02*
X7639050Y-8451850D01*
X7639050Y-8413750D02*
X7600950Y-8451850D01*
X7600950Y-10394950D02*
X7639050Y-10433050D01*
X7639050Y-10394950D02*
X7600950Y-10433050D01*
X7600950Y-12020550D02*
X7639050Y-12058650D01*
X7639050Y-12020550D02*
X7600950Y-12058650D01*
X7727950Y-8489950D02*
X7766050Y-8528050D01*
X7766050Y-8489950D02*
X7727950Y-8528050D01*
X7854950Y-7651750D02*
X7893050Y-7689850D01*
X7893050Y-7651750D02*
X7854950Y-7689850D01*
X7854950Y-8337550D02*
X7893050Y-8375650D01*
X7893050Y-8337550D02*
X7854950Y-8375650D01*
X7854950Y-10394950D02*
X7893050Y-10433050D01*
X7893050Y-10394950D02*
X7854950Y-10433050D01*
X8108950Y-7651750D02*
X8147050Y-7689850D01*
X8147050Y-7651750D02*
X8108950Y-7689850D01*
X8108950Y-8566150D02*
X8147050Y-8604250D01*
X8147050Y-8566150D02*
X8108950Y-8604250D01*
X8108950Y-9480550D02*
X8147050Y-9518650D01*
X8147050Y-9480550D02*
X8108950Y-9518650D01*
X8362950Y-7651750D02*
X8401050Y-7689850D01*
X8401050Y-7651750D02*
X8362950Y-7689850D01*
X8362950Y-8642350D02*
X8401050Y-8680450D01*
X8401050Y-8642350D02*
X8362950Y-8680450D01*
X8616950Y-7651750D02*
X8655050Y-7689850D01*
X8655050Y-7651750D02*
X8616950Y-7689850D01*
X8616950Y-8718550D02*
X8655050Y-8756650D01*
X8655050Y-8718550D02*
X8616950Y-8756650D01*
X8616950Y-12096750D02*
X8655050Y-12134850D01*
X8655050Y-12096750D02*
X8616950Y-12134850D01*
X8870950Y-7651750D02*
X8909050Y-7689850D01*
X8909050Y-7651750D02*
X8870950Y-7689850D01*
X8870950Y-8794750D02*
X8909050Y-8832850D01*
X8909050Y-8794750D02*
X8870950Y-8832850D01*
X8870950Y-12172950D02*
X8909050Y-12211050D01*
X8909050Y-12172950D02*
X8870950Y-12211050D01*
X9124950Y-7651750D02*
X9163050Y-7689850D01*
X9163050Y-7651750D02*
X9124950Y-7689850D01*
X9124950Y-8870950D02*
X9163050Y-8909050D01*
X9163050Y-8870950D02*
X9124950Y-8909050D01*
X9124950Y-10902950D02*
X9163050Y-10941050D01*
X9163050Y-10902950D02*
X9124950Y-10941050D01*
X9124950Y-13112750D02*
X9163050Y-13150850D01*
X9163050Y-13112750D02*
X9124950Y-13150850D01*
X9378950Y-8261350D02*
X9417050Y-8299450D01*
X9417050Y-8261350D02*
X9378950Y-8299450D01*
X9378950Y-10547350D02*
X9417050Y-10585450D01*
X9417050Y-10547350D02*
X9378950Y-10585450D01*
X9378950Y-10902950D02*
X9417050Y-10941050D01*
X9417050Y-10902950D02*
X9378950Y-10941050D01*
X9378950Y-13112750D02*
X9417050Y-13150850D01*
X9417050Y-13112750D02*
X9378950Y-13150850D01*
X9531350Y-7575550D02*
X9569450Y-7613650D01*
X9569450Y-7575550D02*
X9531350Y-7613650D01*
X9632950Y-7473950D02*
X9671050Y-7512050D01*
X9671050Y-7473950D02*
X9632950Y-7512050D01*
X9632950Y-8185150D02*
X9671050Y-8223250D01*
X9671050Y-8185150D02*
X9632950Y-8223250D01*
X9632950Y-10547350D02*
X9671050Y-10585450D01*
X9671050Y-10547350D02*
X9632950Y-10585450D01*
X9632950Y-10902950D02*
X9671050Y-10941050D01*
X9671050Y-10902950D02*
X9632950Y-10941050D01*
X9632950Y-13112750D02*
X9671050Y-13150850D01*
X9671050Y-13112750D02*
X9632950Y-13150850D01*
X9886950Y-8108950D02*
X9925050Y-8147050D01*
X9925050Y-8108950D02*
X9886950Y-8147050D01*
X9886950Y-10547350D02*
X9925050Y-10585450D01*
X9925050Y-10547350D02*
X9886950Y-10585450D01*
X9886950Y-10902950D02*
X9925050Y-10941050D01*
X9925050Y-10902950D02*
X9886950Y-10941050D01*
X9886950Y-13112750D02*
X9925050Y-13150850D01*
X9925050Y-13112750D02*
X9886950Y-13150850D01*
X10013950Y-12807950D02*
X10052050Y-12846050D01*
X10052050Y-12807950D02*
X10013950Y-12846050D01*
X10013950Y-13417550D02*
X10052050Y-13455650D01*
X10052050Y-13417550D02*
X10013950Y-13455650D01*
X10064750Y-5721350D02*
X10102850Y-5759450D01*
X10102850Y-5721350D02*
X10064750Y-5759450D01*
X10140950Y-8032750D02*
X10179050Y-8070850D01*
X10179050Y-8032750D02*
X10140950Y-8070850D01*
X10140950Y-10547350D02*
X10179050Y-10585450D01*
X10179050Y-10547350D02*
X10140950Y-10585450D01*
X10267950Y-5924550D02*
X10306050Y-5962650D01*
X10306050Y-5924550D02*
X10267950Y-5962650D01*
X10267950Y-12884150D02*
X10306050Y-12922250D01*
X10306050Y-12884150D02*
X10267950Y-12922250D01*
X10267950Y-13417550D02*
X10306050Y-13455650D01*
X10306050Y-13417550D02*
X10267950Y-13455650D01*
X10394950Y-7956550D02*
X10433050Y-7994650D01*
X10433050Y-7956550D02*
X10394950Y-7994650D01*
X10394950Y-10318750D02*
X10433050Y-10356850D01*
X10433050Y-10318750D02*
X10394950Y-10356850D01*
X10394950Y-12020550D02*
X10433050Y-12058650D01*
X10433050Y-12020550D02*
X10394950Y-12058650D01*
X10547350Y-12960350D02*
X10585450Y-12998450D01*
X10585450Y-12960350D02*
X10547350Y-12998450D01*
X10547350Y-13417550D02*
X10585450Y-13455650D01*
X10585450Y-13417550D02*
X10547350Y-13455650D01*
X10648950Y-7880350D02*
X10687050Y-7918450D01*
X10687050Y-7880350D02*
X10648950Y-7918450D01*
X10648950Y-10242550D02*
X10687050Y-10280650D01*
X10687050Y-10242550D02*
X10648950Y-10280650D01*
X10775950Y-13036550D02*
X10814050Y-13074650D01*
X10814050Y-13036550D02*
X10775950Y-13074650D01*
X10775950Y-13417550D02*
X10814050Y-13455650D01*
X10814050Y-13417550D02*
X10775950Y-13455650D01*
X10902950Y-7804150D02*
X10941050Y-7842250D01*
X10941050Y-7804150D02*
X10902950Y-7842250D01*
X10902950Y-10166350D02*
X10941050Y-10204450D01*
X10941050Y-10166350D02*
X10902950Y-10204450D01*
X11029950Y-13112750D02*
X11068050Y-13150850D01*
X11068050Y-13112750D02*
X11029950Y-13150850D01*
X11029950Y-13417550D02*
X11068050Y-13455650D01*
X11068050Y-13417550D02*
X11029950Y-13455650D01*
X11080750Y-7194550D02*
X11118850Y-7232650D01*
X11118850Y-7194550D02*
X11080750Y-7232650D01*
X11156950Y-7727950D02*
X11195050Y-7766050D01*
X11195050Y-7727950D02*
X11156950Y-7766050D01*
X11283950Y-13188950D02*
X11322050Y-13227050D01*
X11322050Y-13188950D02*
X11283950Y-13227050D01*
X11283950Y-13412100D02*
X11322050Y-13450200D01*
X11322050Y-13412100D02*
X11283950Y-13450200D01*
X11410950Y-12096750D02*
X11449050Y-12134850D01*
X11449050Y-12096750D02*
X11410950Y-12134850D01*
X11537950Y-13265150D02*
X11576050Y-13303250D01*
X11576050Y-13265150D02*
X11537950Y-13303250D01*
X11537950Y-13417550D02*
X11576050Y-13455650D01*
X11576050Y-13417550D02*
X11537950Y-13455650D01*
X11563350Y-7194550D02*
X11601450Y-7232650D01*
X11601450Y-7194550D02*
X11563350Y-7232650D01*
X11664950Y-12172950D02*
X11703050Y-12211050D01*
X11703050Y-12172950D02*
X11664950Y-12211050D01*
X11918950Y-11055350D02*
X11957050Y-11093450D01*
X11957050Y-11055350D02*
X11918950Y-11093450D01*
X11918950Y-13417550D02*
X11957050Y-13455650D01*
X11957050Y-13417550D02*
X11918950Y-13455650D01*
X12045950Y-13417550D02*
X12084050Y-13455650D01*
X12084050Y-13417550D02*
X12045950Y-13455650D01*
X12045950Y-13722350D02*
X12084050Y-13760450D01*
X12084050Y-13722350D02*
X12045950Y-13760450D01*
X12172950Y-11055350D02*
X12211050Y-11093450D01*
X12211050Y-11055350D02*
X12172950Y-11093450D01*
X12172950Y-13569950D02*
X12211050Y-13608050D01*
X12211050Y-13569950D02*
X12172950Y-13608050D01*
X12299950Y-13493750D02*
X12338050Y-13531850D01*
X12338050Y-13493750D02*
X12299950Y-13531850D01*
X12299950Y-13722350D02*
X12338050Y-13760450D01*
X12338050Y-13722350D02*
X12299950Y-13760450D01*
X12426950Y-11055350D02*
X12465050Y-11093450D01*
X12465050Y-11055350D02*
X12426950Y-11093450D01*
X12426950Y-13493750D02*
X12465050Y-13531850D01*
X12465050Y-13493750D02*
X12426950Y-13531850D01*
X12553950Y-13569950D02*
X12592050Y-13608050D01*
X12592050Y-13569950D02*
X12553950Y-13608050D01*
X12553950Y-13722350D02*
X12592050Y-13760450D01*
X12592050Y-13722350D02*
X12553950Y-13760450D01*
X12680950Y-11055350D02*
X12719050Y-11093450D01*
X12719050Y-11055350D02*
X12680950Y-11093450D01*
X12680950Y-13417550D02*
X12719050Y-13455650D01*
X12719050Y-13417550D02*
X12680950Y-13455650D01*
X13188950Y-12020550D02*
X13227050Y-12058650D01*
X13227050Y-12020550D02*
X13188950Y-12058650D01*
X13442950Y-7042150D02*
X13481050Y-7080250D01*
X13481050Y-7042150D02*
X13442950Y-7080250D01*
X14052550Y-12401550D02*
X14090650Y-12439650D01*
X14090650Y-12401550D02*
X14052550Y-12439650D01*
X14204950Y-11563350D02*
X14243050Y-11601450D01*
X14243050Y-11563350D02*
X14204950Y-11601450D01*
X14357350Y-11563350D02*
X14395450Y-11601450D01*
X14395450Y-11563350D02*
X14357350Y-11601450D01*
X14509750Y-6965950D02*
X14547850Y-7004050D01*
X14547850Y-6965950D02*
X14509750Y-7004050D01*
X14662150Y-6965950D02*
X14700250Y-7004050D01*
X14700250Y-6965950D02*
X14662150Y-7004050D01*
X14712950Y-13950950D02*
X14751050Y-13989050D01*
X14751050Y-13950950D02*
X14712950Y-13989050D01*
X14916150Y-6889750D02*
X14954250Y-6927850D01*
X14954250Y-6889750D02*
X14916150Y-6927850D01*
X14916150Y-7042150D02*
X14954250Y-7080250D01*
X14954250Y-7042150D02*
X14916150Y-7080250D01*
X14966950Y-13874750D02*
X15005050Y-13912850D01*
X15005050Y-13874750D02*
X14966950Y-13912850D01*
X15220950Y-13798550D02*
X15259050Y-13836650D01*
X15259050Y-13798550D02*
X15220950Y-13836650D01*
X15474950Y-13722350D02*
X15513050Y-13760450D01*
X15513050Y-13722350D02*
X15474950Y-13760450D01*
X15601950Y-9302750D02*
X15640050Y-9340850D01*
X15640050Y-9302750D02*
X15601950Y-9340850D01*
X15601950Y-11131550D02*
X15640050Y-11169650D01*
X15640050Y-11131550D02*
X15601950Y-11169650D01*
X15601950Y-11944350D02*
X15640050Y-11982450D01*
X15640050Y-11944350D02*
X15601950Y-11982450D01*
X15601950Y-12096750D02*
X15640050Y-12134850D01*
X15640050Y-12096750D02*
X15601950Y-12134850D01*
X15855950Y-9302750D02*
X15894050Y-9340850D01*
X15894050Y-9302750D02*
X15855950Y-9340850D01*
X15855950Y-11131550D02*
X15894050Y-11169650D01*
X15894050Y-11131550D02*
X15855950Y-11169650D01*
X15855950Y-11944350D02*
X15894050Y-11982450D01*
X15894050Y-11944350D02*
X15855950Y-11982450D01*
X15855950Y-12096750D02*
X15894050Y-12134850D01*
X15894050Y-12096750D02*
X15855950Y-12134850D01*
X16109950Y-9378950D02*
X16148050Y-9417050D01*
X16148050Y-9378950D02*
X16109950Y-9417050D01*
X16109950Y-11131550D02*
X16148050Y-11169650D01*
X16148050Y-11131550D02*
X16109950Y-11169650D01*
X16109950Y-11563350D02*
X16148050Y-11601450D01*
X16148050Y-11563350D02*
X16109950Y-11601450D01*
X16262350Y-11563350D02*
X16300450Y-11601450D01*
X16300450Y-11563350D02*
X16262350Y-11601450D01*
X16617950Y-9378950D02*
X16656050Y-9417050D01*
X16656050Y-9378950D02*
X16617950Y-9417050D01*
X16617950Y-9759950D02*
X16656050Y-9798050D01*
X16656050Y-9759950D02*
X16617950Y-9798050D01*
X16846550Y-11563350D02*
X16884650Y-11601450D01*
X16884650Y-11563350D02*
X16846550Y-11601450D01*
X16871950Y-9378950D02*
X16910050Y-9417050D01*
X16910050Y-9378950D02*
X16871950Y-9417050D01*
X16871950Y-9988550D02*
X16910050Y-10026650D01*
X16910050Y-9988550D02*
X16871950Y-10026650D01*
X16998950Y-11563350D02*
X17037050Y-11601450D01*
X17037050Y-11563350D02*
X16998950Y-11601450D01*
X17125950Y-9378950D02*
X17164050Y-9417050D01*
X17164050Y-9378950D02*
X17125950Y-9417050D01*
X17125950Y-10064750D02*
X17164050Y-10102850D01*
X17164050Y-10064750D02*
X17125950Y-10102850D01*
X17252950Y-9836150D02*
X17291050Y-9874250D01*
X17291050Y-9836150D02*
X17252950Y-9874250D01*
X17252950Y-11131550D02*
X17291050Y-11169650D01*
X17291050Y-11131550D02*
X17252950Y-11169650D01*
X17379950Y-9378950D02*
X17418050Y-9417050D01*
X17418050Y-9378950D02*
X17379950Y-9417050D01*
X17379950Y-10140950D02*
X17418050Y-10179050D01*
X17418050Y-10140950D02*
X17379950Y-10179050D01*
X17506950Y-9912350D02*
X17545050Y-9950450D01*
X17545050Y-9912350D02*
X17506950Y-9950450D01*
X17506950Y-11131550D02*
X17545050Y-11169650D01*
X17545050Y-11131550D02*
X17506950Y-11169650D01*
X17633950Y-9378950D02*
X17672050Y-9417050D01*
X17672050Y-9378950D02*
X17633950Y-9417050D01*
X17633950Y-10217150D02*
X17672050Y-10255250D01*
X17672050Y-10217150D02*
X17633950Y-10255250D01*
X17760950Y-9988550D02*
X17799050Y-10026650D01*
X17799050Y-9988550D02*
X17760950Y-10026650D01*
X17760950Y-11131550D02*
X17799050Y-11169650D01*
X17799050Y-11131550D02*
X17760950Y-11169650D01*
X17887950Y-9378950D02*
X17926050Y-9417050D01*
X17926050Y-9378950D02*
X17887950Y-9417050D01*
X17887950Y-10293350D02*
X17926050Y-10331450D01*
X17926050Y-10293350D02*
X17887950Y-10331450D01*
X18014950Y-10064750D02*
X18053050Y-10102850D01*
X18053050Y-10064750D02*
X18014950Y-10102850D01*
X18014950Y-11131550D02*
X18053050Y-11169650D01*
X18053050Y-11131550D02*
X18014950Y-11169650D01*
X18141950Y-9378950D02*
X18180050Y-9417050D01*
X18180050Y-9378950D02*
X18141950Y-9417050D01*
X18141950Y-10369550D02*
X18180050Y-10407650D01*
X18180050Y-10369550D02*
X18141950Y-10407650D01*
X18268950Y-10140950D02*
X18307050Y-10179050D01*
X18307050Y-10140950D02*
X18268950Y-10179050D01*
X18268950Y-11131550D02*
X18307050Y-11169650D01*
X18307050Y-11131550D02*
X18268950Y-11169650D01*
X18395950Y-9378950D02*
X18434050Y-9417050D01*
X18434050Y-9378950D02*
X18395950Y-9417050D01*
X18395950Y-10445750D02*
X18434050Y-10483850D01*
X18434050Y-10445750D02*
X18395950Y-10483850D01*
X18522950Y-10217150D02*
X18561050Y-10255250D01*
X18561050Y-10217150D02*
X18522950Y-10255250D01*
X18522950Y-11131550D02*
X18561050Y-11169650D01*
X18561050Y-11131550D02*
X18522950Y-11169650D01*
X18776950Y-10293350D02*
X18815050Y-10331450D01*
X18815050Y-10293350D02*
X18776950Y-10331450D01*
X18776950Y-11131550D02*
X18815050Y-11169650D01*
X18815050Y-11131550D02*
X18776950Y-11169650D01*
X19030950Y-10369550D02*
X19069050Y-10407650D01*
X19069050Y-10369550D02*
X19030950Y-10407650D01*
X19030950Y-11131550D02*
X19069050Y-11169650D01*
X19069050Y-11131550D02*
X19030950Y-11169650D01*
X19284950Y-10445750D02*
X19323050Y-10483850D01*
X19323050Y-10445750D02*
X19284950Y-10483850D01*
X19284950Y-11131550D02*
X19323050Y-11169650D01*
X19323050Y-11131550D02*
X19284950Y-11169650D01*
X19386550Y-11563350D02*
X19424650Y-11601450D01*
X19424650Y-11563350D02*
X19386550Y-11601450D01*
X19538950Y-11563350D02*
X19577050Y-11601450D01*
X19577050Y-11563350D02*
X19538950Y-11601450D01*
X20300950Y-12071350D02*
X20339050Y-12109450D01*
X20339050Y-12071350D02*
X20300950Y-12109450D01*
X20808950Y-10521950D02*
X20847050Y-10560050D01*
X20847050Y-10521950D02*
X20808950Y-10560050D01*
X20808950Y-11131550D02*
X20847050Y-11169650D01*
X20847050Y-11131550D02*
X20808950Y-11169650D01*
X21062950Y-10598150D02*
X21101050Y-10636250D01*
X21101050Y-10598150D02*
X21062950Y-10636250D01*
X21062950Y-11131550D02*
X21101050Y-11169650D01*
X21101050Y-11131550D02*
X21062950Y-11169650D01*
X21316950Y-10674350D02*
X21355050Y-10712450D01*
X21355050Y-10674350D02*
X21316950Y-10712450D01*
X21316950Y-11131550D02*
X21355050Y-11169650D01*
X21355050Y-11131550D02*
X21316950Y-11169650D01*
X21443950Y-9378950D02*
X21482050Y-9417050D01*
X21482050Y-9378950D02*
X21443950Y-9417050D01*
X21443950Y-9683750D02*
X21482050Y-9721850D01*
X21482050Y-9683750D02*
X21443950Y-9721850D01*
X21570950Y-10750550D02*
X21609050Y-10788650D01*
X21609050Y-10750550D02*
X21570950Y-10788650D01*
X21570950Y-11131550D02*
X21609050Y-11169650D01*
X21609050Y-11131550D02*
X21570950Y-11169650D01*
X21697950Y-9378950D02*
X21736050Y-9417050D01*
X21736050Y-9378950D02*
X21697950Y-9417050D01*
X21697950Y-9683750D02*
X21736050Y-9721850D01*
X21736050Y-9683750D02*
X21697950Y-9721850D01*
X21824950Y-10826750D02*
X21863050Y-10864850D01*
X21863050Y-10826750D02*
X21824950Y-10864850D01*
X21824950Y-11131550D02*
X21863050Y-11169650D01*
X21863050Y-11131550D02*
X21824950Y-11169650D01*
X21951950Y-9378950D02*
X21990050Y-9417050D01*
X21990050Y-9378950D02*
X21951950Y-9417050D01*
X21951950Y-9683750D02*
X21990050Y-9721850D01*
X21990050Y-9683750D02*
X21951950Y-9721850D01*
X22078950Y-10902950D02*
X22117050Y-10941050D01*
X22117050Y-10902950D02*
X22078950Y-10941050D01*
X22078950Y-11131550D02*
X22117050Y-11169650D01*
X22117050Y-11131550D02*
X22078950Y-11169650D01*
X22205950Y-9378950D02*
X22244050Y-9417050D01*
X22244050Y-9378950D02*
X22205950Y-9417050D01*
X22205950Y-9683750D02*
X22244050Y-9721850D01*
X22244050Y-9683750D02*
X22205950Y-9721850D01*
X22332950Y-10979150D02*
X22371050Y-11017250D01*
X22371050Y-10979150D02*
X22332950Y-11017250D01*
X22332950Y-11131550D02*
X22371050Y-11169650D01*
X22371050Y-11131550D02*
X22332950Y-11169650D01*
X22459950Y-9378950D02*
X22498050Y-9417050D01*
X22498050Y-9378950D02*
X22459950Y-9417050D01*
X22459950Y-9683750D02*
X22498050Y-9721850D01*
X22498050Y-9683750D02*
X22459950Y-9721850D01*
X22713950Y-9378950D02*
X22752050Y-9417050D01*
X22752050Y-9378950D02*
X22713950Y-9417050D01*
X22713950Y-9683750D02*
X22752050Y-9721850D01*
X22752050Y-9683750D02*
X22713950Y-9721850D01*
X22967950Y-9378950D02*
X23006050Y-9417050D01*
X23006050Y-9378950D02*
X22967950Y-9417050D01*
X22967950Y-9683750D02*
X23006050Y-9721850D01*
X23006050Y-9683750D02*
X22967950Y-9721850D01*
X23221950Y-9378950D02*
X23260050Y-9417050D01*
X23260050Y-9378950D02*
X23221950Y-9417050D01*
X23221950Y-9683750D02*
X23260050Y-9721850D01*
X23260050Y-9683750D02*
X23221950Y-9721850D01*
X24390350Y-11360150D02*
X24428450Y-11398250D01*
X24428450Y-11360150D02*
X24390350Y-11398250D01*
X24568150Y-11588750D02*
X24606250Y-11626850D01*
X24606250Y-11588750D02*
X24568150Y-11626850D01*
X24568150Y-11741150D02*
X24606250Y-11779250D01*
X24606250Y-11741150D02*
X24568150Y-11779250D01*
X24745950Y-11360150D02*
X24784050Y-11398250D01*
X24784050Y-11360150D02*
X24745950Y-11398250D01*
D13*
X5374000Y-9144000D02*
G75*
G03*
X5374000Y-9144000I-40000J0D01*
G01*
X5374000Y-9644000D02*
G75*
G03*
X5374000Y-9644000I-40000J0D01*
G01*
X5374000Y-11811000D02*
G75*
G03*
X5374000Y-11811000I-40000J0D01*
G01*
X5374000Y-12311000D02*
G75*
G03*
X5374000Y-12311000I-40000J0D01*
G01*
X5882000Y-9144000D02*
G75*
G03*
X5882000Y-9144000I-40000J0D01*
G01*
X5882000Y-9906000D02*
G75*
G03*
X5882000Y-9906000I-40000J0D01*
G01*
X5882000Y-11811000D02*
G75*
G03*
X5882000Y-11811000I-40000J0D01*
G01*
X5882000Y-12573000D02*
G75*
G03*
X5882000Y-12573000I-40000J0D01*
G01*
X6136000Y-9144000D02*
G75*
G03*
X6136000Y-9144000I-40000J0D01*
G01*
X6136000Y-9906000D02*
G75*
G03*
X6136000Y-9906000I-40000J0D01*
G01*
X6136000Y-11811000D02*
G75*
G03*
X6136000Y-11811000I-40000J0D01*
G01*
X6136000Y-12573000D02*
G75*
G03*
X6136000Y-12573000I-40000J0D01*
G01*
X6390000Y-9144000D02*
G75*
G03*
X6390000Y-9144000I-40000J0D01*
G01*
X6390000Y-9906000D02*
G75*
G03*
X6390000Y-9906000I-40000J0D01*
G01*
X6390000Y-11811000D02*
G75*
G03*
X6390000Y-11811000I-40000J0D01*
G01*
X6390000Y-12573000D02*
G75*
G03*
X6390000Y-12573000I-40000J0D01*
G01*
X6644000Y-9144000D02*
G75*
G03*
X6644000Y-9144000I-40000J0D01*
G01*
X6644000Y-9906000D02*
G75*
G03*
X6644000Y-9906000I-40000J0D01*
G01*
X6644000Y-11811000D02*
G75*
G03*
X6644000Y-11811000I-40000J0D01*
G01*
X6644000Y-12573000D02*
G75*
G03*
X6644000Y-12573000I-40000J0D01*
G01*
X6898000Y-9144000D02*
G75*
G03*
X6898000Y-9144000I-40000J0D01*
G01*
X6898000Y-9906000D02*
G75*
G03*
X6898000Y-9906000I-40000J0D01*
G01*
X6898000Y-11811000D02*
G75*
G03*
X6898000Y-11811000I-40000J0D01*
G01*
X6898000Y-12573000D02*
G75*
G03*
X6898000Y-12573000I-40000J0D01*
G01*
X7152000Y-9144000D02*
G75*
G03*
X7152000Y-9144000I-40000J0D01*
G01*
X7152000Y-9906000D02*
G75*
G03*
X7152000Y-9906000I-40000J0D01*
G01*
X7152000Y-11811000D02*
G75*
G03*
X7152000Y-11811000I-40000J0D01*
G01*
X7152000Y-12573000D02*
G75*
G03*
X7152000Y-12573000I-40000J0D01*
G01*
X7406000Y-9144000D02*
G75*
G03*
X7406000Y-9144000I-40000J0D01*
G01*
X7406000Y-9906000D02*
G75*
G03*
X7406000Y-9906000I-40000J0D01*
G01*
X7406000Y-11811000D02*
G75*
G03*
X7406000Y-11811000I-40000J0D01*
G01*
X7406000Y-12573000D02*
G75*
G03*
X7406000Y-12573000I-40000J0D01*
G01*
X7660000Y-9144000D02*
G75*
G03*
X7660000Y-9144000I-40000J0D01*
G01*
X7660000Y-9906000D02*
G75*
G03*
X7660000Y-9906000I-40000J0D01*
G01*
X7660000Y-11811000D02*
G75*
G03*
X7660000Y-11811000I-40000J0D01*
G01*
X7660000Y-12573000D02*
G75*
G03*
X7660000Y-12573000I-40000J0D01*
G01*
X7660000Y-13212000D02*
G75*
G03*
X7660000Y-13212000I-40000J0D01*
G01*
X7660000Y-13462000D02*
G75*
G03*
X7660000Y-13462000I-40000J0D01*
G01*
X7914000Y-9144000D02*
G75*
G03*
X7914000Y-9144000I-40000J0D01*
G01*
X7914000Y-9906000D02*
G75*
G03*
X7914000Y-9906000I-40000J0D01*
G01*
X8168000Y-9144000D02*
G75*
G03*
X8168000Y-9144000I-40000J0D01*
G01*
X8168000Y-9906000D02*
G75*
G03*
X8168000Y-9906000I-40000J0D01*
G01*
X8168000Y-11811000D02*
G75*
G03*
X8168000Y-11811000I-40000J0D01*
G01*
X8168000Y-12311000D02*
G75*
G03*
X8168000Y-12311000I-40000J0D01*
G01*
X8676000Y-9144000D02*
G75*
G03*
X8676000Y-9144000I-40000J0D01*
G01*
X8676000Y-9644000D02*
G75*
G03*
X8676000Y-9644000I-40000J0D01*
G01*
X8676000Y-11811000D02*
G75*
G03*
X8676000Y-11811000I-40000J0D01*
G01*
X8676000Y-12573000D02*
G75*
G03*
X8676000Y-12573000I-40000J0D01*
G01*
X8930000Y-11811000D02*
G75*
G03*
X8930000Y-11811000I-40000J0D01*
G01*
X8930000Y-12573000D02*
G75*
G03*
X8930000Y-12573000I-40000J0D01*
G01*
X9184000Y-9144000D02*
G75*
G03*
X9184000Y-9144000I-40000J0D01*
G01*
X9184000Y-9906000D02*
G75*
G03*
X9184000Y-9906000I-40000J0D01*
G01*
X9184000Y-11811000D02*
G75*
G03*
X9184000Y-11811000I-40000J0D01*
G01*
X9184000Y-12573000D02*
G75*
G03*
X9184000Y-12573000I-40000J0D01*
G01*
X9438000Y-6858000D02*
G75*
G03*
X9438000Y-6858000I-40000J0D01*
G01*
X9438000Y-7108000D02*
G75*
G03*
X9438000Y-7108000I-40000J0D01*
G01*
X9438000Y-9144000D02*
G75*
G03*
X9438000Y-9144000I-40000J0D01*
G01*
X9438000Y-9906000D02*
G75*
G03*
X9438000Y-9906000I-40000J0D01*
G01*
X9438000Y-11811000D02*
G75*
G03*
X9438000Y-11811000I-40000J0D01*
G01*
X9438000Y-12573000D02*
G75*
G03*
X9438000Y-12573000I-40000J0D01*
G01*
X9692000Y-9144000D02*
G75*
G03*
X9692000Y-9144000I-40000J0D01*
G01*
X9692000Y-9906000D02*
G75*
G03*
X9692000Y-9906000I-40000J0D01*
G01*
X9692000Y-11811000D02*
G75*
G03*
X9692000Y-11811000I-40000J0D01*
G01*
X9692000Y-12573000D02*
G75*
G03*
X9692000Y-12573000I-40000J0D01*
G01*
X9946000Y-6604000D02*
G75*
G03*
X9946000Y-6604000I-40000J0D01*
G01*
X9946000Y-7104000D02*
G75*
G03*
X9946000Y-7104000I-40000J0D01*
G01*
X9946000Y-9144000D02*
G75*
G03*
X9946000Y-9144000I-40000J0D01*
G01*
X9946000Y-9906000D02*
G75*
G03*
X9946000Y-9906000I-40000J0D01*
G01*
X9946000Y-11811000D02*
G75*
G03*
X9946000Y-11811000I-40000J0D01*
G01*
X9946000Y-12573000D02*
G75*
G03*
X9946000Y-12573000I-40000J0D01*
G01*
X10200000Y-9144000D02*
G75*
G03*
X10200000Y-9144000I-40000J0D01*
G01*
X10200000Y-9906000D02*
G75*
G03*
X10200000Y-9906000I-40000J0D01*
G01*
X10200000Y-11811000D02*
G75*
G03*
X10200000Y-11811000I-40000J0D01*
G01*
X10200000Y-12573000D02*
G75*
G03*
X10200000Y-12573000I-40000J0D01*
G01*
X10454000Y-6604000D02*
G75*
G03*
X10454000Y-6604000I-40000J0D01*
G01*
X10454000Y-7366000D02*
G75*
G03*
X10454000Y-7366000I-40000J0D01*
G01*
X10454000Y-9144000D02*
G75*
G03*
X10454000Y-9144000I-40000J0D01*
G01*
X10454000Y-9906000D02*
G75*
G03*
X10454000Y-9906000I-40000J0D01*
G01*
X10454000Y-11811000D02*
G75*
G03*
X10454000Y-11811000I-40000J0D01*
G01*
X10454000Y-12573000D02*
G75*
G03*
X10454000Y-12573000I-40000J0D01*
G01*
X10708000Y-6604000D02*
G75*
G03*
X10708000Y-6604000I-40000J0D01*
G01*
X10708000Y-7366000D02*
G75*
G03*
X10708000Y-7366000I-40000J0D01*
G01*
X10708000Y-9144000D02*
G75*
G03*
X10708000Y-9144000I-40000J0D01*
G01*
X10708000Y-9906000D02*
G75*
G03*
X10708000Y-9906000I-40000J0D01*
G01*
X10962000Y-6604000D02*
G75*
G03*
X10962000Y-6604000I-40000J0D01*
G01*
X10962000Y-7366000D02*
G75*
G03*
X10962000Y-7366000I-40000J0D01*
G01*
X10962000Y-9144000D02*
G75*
G03*
X10962000Y-9144000I-40000J0D01*
G01*
X10962000Y-9906000D02*
G75*
G03*
X10962000Y-9906000I-40000J0D01*
G01*
X10962000Y-11811000D02*
G75*
G03*
X10962000Y-11811000I-40000J0D01*
G01*
X10962000Y-12311000D02*
G75*
G03*
X10962000Y-12311000I-40000J0D01*
G01*
X11216000Y-6604000D02*
G75*
G03*
X11216000Y-6604000I-40000J0D01*
G01*
X11216000Y-7366000D02*
G75*
G03*
X11216000Y-7366000I-40000J0D01*
G01*
X11216000Y-9144000D02*
G75*
G03*
X11216000Y-9144000I-40000J0D01*
G01*
X11216000Y-9906000D02*
G75*
G03*
X11216000Y-9906000I-40000J0D01*
G01*
X11470000Y-6604000D02*
G75*
G03*
X11470000Y-6604000I-40000J0D01*
G01*
X11470000Y-7366000D02*
G75*
G03*
X11470000Y-7366000I-40000J0D01*
G01*
X11470000Y-9144000D02*
G75*
G03*
X11470000Y-9144000I-40000J0D01*
G01*
X11470000Y-9906000D02*
G75*
G03*
X11470000Y-9906000I-40000J0D01*
G01*
X11470000Y-11811000D02*
G75*
G03*
X11470000Y-11811000I-40000J0D01*
G01*
X11470000Y-12573000D02*
G75*
G03*
X11470000Y-12573000I-40000J0D01*
G01*
X11724000Y-6604000D02*
G75*
G03*
X11724000Y-6604000I-40000J0D01*
G01*
X11724000Y-7366000D02*
G75*
G03*
X11724000Y-7366000I-40000J0D01*
G01*
X11724000Y-11811000D02*
G75*
G03*
X11724000Y-11811000I-40000J0D01*
G01*
X11724000Y-12573000D02*
G75*
G03*
X11724000Y-12573000I-40000J0D01*
G01*
X11978000Y-6604000D02*
G75*
G03*
X11978000Y-6604000I-40000J0D01*
G01*
X11978000Y-7366000D02*
G75*
G03*
X11978000Y-7366000I-40000J0D01*
G01*
X11978000Y-11811000D02*
G75*
G03*
X11978000Y-11811000I-40000J0D01*
G01*
X11978000Y-12573000D02*
G75*
G03*
X11978000Y-12573000I-40000J0D01*
G01*
X12232000Y-11811000D02*
G75*
G03*
X12232000Y-11811000I-40000J0D01*
G01*
X12232000Y-12573000D02*
G75*
G03*
X12232000Y-12573000I-40000J0D01*
G01*
X12486000Y-6612000D02*
G75*
G03*
X12486000Y-6612000I-40000J0D01*
G01*
X12486000Y-7112000D02*
G75*
G03*
X12486000Y-7112000I-40000J0D01*
G01*
X12486000Y-11811000D02*
G75*
G03*
X12486000Y-11811000I-40000J0D01*
G01*
X12486000Y-12573000D02*
G75*
G03*
X12486000Y-12573000I-40000J0D01*
G01*
X12740000Y-5334000D02*
G75*
G03*
X12740000Y-5334000I-40000J0D01*
G01*
X12740000Y-5834000D02*
G75*
G03*
X12740000Y-5834000I-40000J0D01*
G01*
X12740000Y-11811000D02*
G75*
G03*
X12740000Y-11811000I-40000J0D01*
G01*
X12740000Y-12573000D02*
G75*
G03*
X12740000Y-12573000I-40000J0D01*
G01*
X12994000Y-6604000D02*
G75*
G03*
X12994000Y-6604000I-40000J0D01*
G01*
X12994000Y-7366000D02*
G75*
G03*
X12994000Y-7366000I-40000J0D01*
G01*
X12994000Y-11811000D02*
G75*
G03*
X12994000Y-11811000I-40000J0D01*
G01*
X12994000Y-12573000D02*
G75*
G03*
X12994000Y-12573000I-40000J0D01*
G01*
X13248000Y-5334000D02*
G75*
G03*
X13248000Y-5334000I-40000J0D01*
G01*
X13248000Y-6096000D02*
G75*
G03*
X13248000Y-6096000I-40000J0D01*
G01*
X13248000Y-6604000D02*
G75*
G03*
X13248000Y-6604000I-40000J0D01*
G01*
X13248000Y-7366000D02*
G75*
G03*
X13248000Y-7366000I-40000J0D01*
G01*
X13248000Y-11811000D02*
G75*
G03*
X13248000Y-11811000I-40000J0D01*
G01*
X13248000Y-12573000D02*
G75*
G03*
X13248000Y-12573000I-40000J0D01*
G01*
X13502000Y-5334000D02*
G75*
G03*
X13502000Y-5334000I-40000J0D01*
G01*
X13502000Y-6096000D02*
G75*
G03*
X13502000Y-6096000I-40000J0D01*
G01*
X13502000Y-6604000D02*
G75*
G03*
X13502000Y-6604000I-40000J0D01*
G01*
X13502000Y-7366000D02*
G75*
G03*
X13502000Y-7366000I-40000J0D01*
G01*
X13756000Y-5334000D02*
G75*
G03*
X13756000Y-5334000I-40000J0D01*
G01*
X13756000Y-6096000D02*
G75*
G03*
X13756000Y-6096000I-40000J0D01*
G01*
X13756000Y-6604000D02*
G75*
G03*
X13756000Y-6604000I-40000J0D01*
G01*
X13756000Y-7366000D02*
G75*
G03*
X13756000Y-7366000I-40000J0D01*
G01*
X13756000Y-11811000D02*
G75*
G03*
X13756000Y-11811000I-40000J0D01*
G01*
X13756000Y-12311000D02*
G75*
G03*
X13756000Y-12311000I-40000J0D01*
G01*
X14010000Y-5334000D02*
G75*
G03*
X14010000Y-5334000I-40000J0D01*
G01*
X14010000Y-6096000D02*
G75*
G03*
X14010000Y-6096000I-40000J0D01*
G01*
X14010000Y-6604000D02*
G75*
G03*
X14010000Y-6604000I-40000J0D01*
G01*
X14010000Y-7366000D02*
G75*
G03*
X14010000Y-7366000I-40000J0D01*
G01*
X14264000Y-5334000D02*
G75*
G03*
X14264000Y-5334000I-40000J0D01*
G01*
X14264000Y-6096000D02*
G75*
G03*
X14264000Y-6096000I-40000J0D01*
G01*
X14264000Y-6604000D02*
G75*
G03*
X14264000Y-6604000I-40000J0D01*
G01*
X14264000Y-7366000D02*
G75*
G03*
X14264000Y-7366000I-40000J0D01*
G01*
X14264000Y-11811000D02*
G75*
G03*
X14264000Y-11811000I-40000J0D01*
G01*
X14264000Y-12573000D02*
G75*
G03*
X14264000Y-12573000I-40000J0D01*
G01*
X14518000Y-5334000D02*
G75*
G03*
X14518000Y-5334000I-40000J0D01*
G01*
X14518000Y-6096000D02*
G75*
G03*
X14518000Y-6096000I-40000J0D01*
G01*
X14518000Y-6604000D02*
G75*
G03*
X14518000Y-6604000I-40000J0D01*
G01*
X14518000Y-7366000D02*
G75*
G03*
X14518000Y-7366000I-40000J0D01*
G01*
X14518000Y-11811000D02*
G75*
G03*
X14518000Y-11811000I-40000J0D01*
G01*
X14518000Y-12573000D02*
G75*
G03*
X14518000Y-12573000I-40000J0D01*
G01*
X14772000Y-5334000D02*
G75*
G03*
X14772000Y-5334000I-40000J0D01*
G01*
X14772000Y-6096000D02*
G75*
G03*
X14772000Y-6096000I-40000J0D01*
G01*
X14772000Y-6604000D02*
G75*
G03*
X14772000Y-6604000I-40000J0D01*
G01*
X14772000Y-7366000D02*
G75*
G03*
X14772000Y-7366000I-40000J0D01*
G01*
X14772000Y-11811000D02*
G75*
G03*
X14772000Y-11811000I-40000J0D01*
G01*
X14772000Y-12573000D02*
G75*
G03*
X14772000Y-12573000I-40000J0D01*
G01*
X15026000Y-11811000D02*
G75*
G03*
X15026000Y-11811000I-40000J0D01*
G01*
X15026000Y-12573000D02*
G75*
G03*
X15026000Y-12573000I-40000J0D01*
G01*
X15280000Y-11811000D02*
G75*
G03*
X15280000Y-11811000I-40000J0D01*
G01*
X15280000Y-12573000D02*
G75*
G03*
X15280000Y-12573000I-40000J0D01*
G01*
X15534000Y-11811000D02*
G75*
G03*
X15534000Y-11811000I-40000J0D01*
G01*
X15534000Y-12573000D02*
G75*
G03*
X15534000Y-12573000I-40000J0D01*
G01*
X15788000Y-11811000D02*
G75*
G03*
X15788000Y-11811000I-40000J0D01*
G01*
X15788000Y-12573000D02*
G75*
G03*
X15788000Y-12573000I-40000J0D01*
G01*
X15915000Y-7874000D02*
G75*
G03*
X15915000Y-7874000I-40000J0D01*
G01*
X15915000Y-8374000D02*
G75*
G03*
X15915000Y-8374000I-40000J0D01*
G01*
X16042000Y-11811000D02*
G75*
G03*
X16042000Y-11811000I-40000J0D01*
G01*
X16042000Y-12573000D02*
G75*
G03*
X16042000Y-12573000I-40000J0D01*
G01*
X16423000Y-7874000D02*
G75*
G03*
X16423000Y-7874000I-40000J0D01*
G01*
X16423000Y-8636000D02*
G75*
G03*
X16423000Y-8636000I-40000J0D01*
G01*
X16550000Y-11803000D02*
G75*
G03*
X16550000Y-11803000I-40000J0D01*
G01*
X16550000Y-12303000D02*
G75*
G03*
X16550000Y-12303000I-40000J0D01*
G01*
X16677000Y-7874000D02*
G75*
G03*
X16677000Y-7874000I-40000J0D01*
G01*
X16677000Y-8636000D02*
G75*
G03*
X16677000Y-8636000I-40000J0D01*
G01*
X16804000Y-7366000D02*
G75*
G03*
X16804000Y-7366000I-40000J0D01*
G01*
X16931000Y-7874000D02*
G75*
G03*
X16931000Y-7874000I-40000J0D01*
G01*
X16931000Y-8636000D02*
G75*
G03*
X16931000Y-8636000I-40000J0D01*
G01*
X17058000Y-7366000D02*
G75*
G03*
X17058000Y-7366000I-40000J0D01*
G01*
X17058000Y-11811000D02*
G75*
G03*
X17058000Y-11811000I-40000J0D01*
G01*
X17058000Y-12573000D02*
G75*
G03*
X17058000Y-12573000I-40000J0D01*
G01*
X17185000Y-7874000D02*
G75*
G03*
X17185000Y-7874000I-40000J0D01*
G01*
X17185000Y-8636000D02*
G75*
G03*
X17185000Y-8636000I-40000J0D01*
G01*
X17312000Y-7366000D02*
G75*
G03*
X17312000Y-7366000I-40000J0D01*
G01*
X17312000Y-11811000D02*
G75*
G03*
X17312000Y-11811000I-40000J0D01*
G01*
X17312000Y-12573000D02*
G75*
G03*
X17312000Y-12573000I-40000J0D01*
G01*
X17439000Y-7874000D02*
G75*
G03*
X17439000Y-7874000I-40000J0D01*
G01*
X17439000Y-8636000D02*
G75*
G03*
X17439000Y-8636000I-40000J0D01*
G01*
X17566000Y-7366000D02*
G75*
G03*
X17566000Y-7366000I-40000J0D01*
G01*
X17566000Y-11811000D02*
G75*
G03*
X17566000Y-11811000I-40000J0D01*
G01*
X17566000Y-12573000D02*
G75*
G03*
X17566000Y-12573000I-40000J0D01*
G01*
X17693000Y-7874000D02*
G75*
G03*
X17693000Y-7874000I-40000J0D01*
G01*
X17693000Y-8636000D02*
G75*
G03*
X17693000Y-8636000I-40000J0D01*
G01*
X17820000Y-7366000D02*
G75*
G03*
X17820000Y-7366000I-40000J0D01*
G01*
X17820000Y-11811000D02*
G75*
G03*
X17820000Y-11811000I-40000J0D01*
G01*
X17820000Y-12573000D02*
G75*
G03*
X17820000Y-12573000I-40000J0D01*
G01*
X17947000Y-7874000D02*
G75*
G03*
X17947000Y-7874000I-40000J0D01*
G01*
X17947000Y-8636000D02*
G75*
G03*
X17947000Y-8636000I-40000J0D01*
G01*
X18074000Y-7366000D02*
G75*
G03*
X18074000Y-7366000I-40000J0D01*
G01*
X18074000Y-11811000D02*
G75*
G03*
X18074000Y-11811000I-40000J0D01*
G01*
X18074000Y-12573000D02*
G75*
G03*
X18074000Y-12573000I-40000J0D01*
G01*
X18201000Y-7874000D02*
G75*
G03*
X18201000Y-7874000I-40000J0D01*
G01*
X18201000Y-8636000D02*
G75*
G03*
X18201000Y-8636000I-40000J0D01*
G01*
X18328000Y-7366000D02*
G75*
G03*
X18328000Y-7366000I-40000J0D01*
G01*
X18328000Y-11811000D02*
G75*
G03*
X18328000Y-11811000I-40000J0D01*
G01*
X18328000Y-12573000D02*
G75*
G03*
X18328000Y-12573000I-40000J0D01*
G01*
X18455000Y-7874000D02*
G75*
G03*
X18455000Y-7874000I-40000J0D01*
G01*
X18455000Y-8636000D02*
G75*
G03*
X18455000Y-8636000I-40000J0D01*
G01*
X18582000Y-7366000D02*
G75*
G03*
X18582000Y-7366000I-40000J0D01*
G01*
X18582000Y-11811000D02*
G75*
G03*
X18582000Y-11811000I-40000J0D01*
G01*
X18582000Y-12573000D02*
G75*
G03*
X18582000Y-12573000I-40000J0D01*
G01*
X18709000Y-7874000D02*
G75*
G03*
X18709000Y-7874000I-40000J0D01*
G01*
X18709000Y-8636000D02*
G75*
G03*
X18709000Y-8636000I-40000J0D01*
G01*
X18836000Y-7366000D02*
G75*
G03*
X18836000Y-7366000I-40000J0D01*
G01*
X18836000Y-11811000D02*
G75*
G03*
X18836000Y-11811000I-40000J0D01*
G01*
X18836000Y-12573000D02*
G75*
G03*
X18836000Y-12573000I-40000J0D01*
G01*
X19090000Y-11811000D02*
G75*
G03*
X19090000Y-11811000I-40000J0D01*
G01*
X19090000Y-12573000D02*
G75*
G03*
X19090000Y-12573000I-40000J0D01*
G01*
X19293200Y-8636000D02*
G75*
G03*
X19293200Y-8636000I-40000J0D01*
G01*
X19293200Y-8886000D02*
G75*
G03*
X19293200Y-8886000I-40000J0D01*
G01*
X19344000Y-11811000D02*
G75*
G03*
X19344000Y-11811000I-40000J0D01*
G01*
X19344000Y-12573000D02*
G75*
G03*
X19344000Y-12573000I-40000J0D01*
G01*
X19852000Y-11811000D02*
G75*
G03*
X19852000Y-11811000I-40000J0D01*
G01*
X19852000Y-12311000D02*
G75*
G03*
X19852000Y-12311000I-40000J0D01*
G01*
X20360000Y-11811000D02*
G75*
G03*
X20360000Y-11811000I-40000J0D01*
G01*
X20360000Y-12573000D02*
G75*
G03*
X20360000Y-12573000I-40000J0D01*
G01*
X20487000Y-7874000D02*
G75*
G03*
X20487000Y-7874000I-40000J0D01*
G01*
X20487000Y-8374000D02*
G75*
G03*
X20487000Y-8374000I-40000J0D01*
G01*
X20614000Y-11811000D02*
G75*
G03*
X20614000Y-11811000I-40000J0D01*
G01*
X20614000Y-12573000D02*
G75*
G03*
X20614000Y-12573000I-40000J0D01*
G01*
X20868000Y-11811000D02*
G75*
G03*
X20868000Y-11811000I-40000J0D01*
G01*
X20868000Y-12573000D02*
G75*
G03*
X20868000Y-12573000I-40000J0D01*
G01*
X21122000Y-11811000D02*
G75*
G03*
X21122000Y-11811000I-40000J0D01*
G01*
X21122000Y-12573000D02*
G75*
G03*
X21122000Y-12573000I-40000J0D01*
G01*
X21249000Y-7874000D02*
G75*
G03*
X21249000Y-7874000I-40000J0D01*
G01*
X21249000Y-8636000D02*
G75*
G03*
X21249000Y-8636000I-40000J0D01*
G01*
X21376000Y-11811000D02*
G75*
G03*
X21376000Y-11811000I-40000J0D01*
G01*
X21376000Y-12573000D02*
G75*
G03*
X21376000Y-12573000I-40000J0D01*
G01*
X21503000Y-7874000D02*
G75*
G03*
X21503000Y-7874000I-40000J0D01*
G01*
X21503000Y-8636000D02*
G75*
G03*
X21503000Y-8636000I-40000J0D01*
G01*
X21630000Y-7366000D02*
G75*
G03*
X21630000Y-7366000I-40000J0D01*
G01*
X21630000Y-11811000D02*
G75*
G03*
X21630000Y-11811000I-40000J0D01*
G01*
X21630000Y-12573000D02*
G75*
G03*
X21630000Y-12573000I-40000J0D01*
G01*
X21757000Y-7874000D02*
G75*
G03*
X21757000Y-7874000I-40000J0D01*
G01*
X21757000Y-8636000D02*
G75*
G03*
X21757000Y-8636000I-40000J0D01*
G01*
X21884000Y-7366000D02*
G75*
G03*
X21884000Y-7366000I-40000J0D01*
G01*
X21884000Y-11811000D02*
G75*
G03*
X21884000Y-11811000I-40000J0D01*
G01*
X21884000Y-12573000D02*
G75*
G03*
X21884000Y-12573000I-40000J0D01*
G01*
X22011000Y-7874000D02*
G75*
G03*
X22011000Y-7874000I-40000J0D01*
G01*
X22011000Y-8636000D02*
G75*
G03*
X22011000Y-8636000I-40000J0D01*
G01*
X22138000Y-7366000D02*
G75*
G03*
X22138000Y-7366000I-40000J0D01*
G01*
X22138000Y-11811000D02*
G75*
G03*
X22138000Y-11811000I-40000J0D01*
G01*
X22138000Y-12573000D02*
G75*
G03*
X22138000Y-12573000I-40000J0D01*
G01*
X22265000Y-7874000D02*
G75*
G03*
X22265000Y-7874000I-40000J0D01*
G01*
X22265000Y-8636000D02*
G75*
G03*
X22265000Y-8636000I-40000J0D01*
G01*
X22392000Y-7366000D02*
G75*
G03*
X22392000Y-7366000I-40000J0D01*
G01*
X22392000Y-11811000D02*
G75*
G03*
X22392000Y-11811000I-40000J0D01*
G01*
X22392000Y-12573000D02*
G75*
G03*
X22392000Y-12573000I-40000J0D01*
G01*
X22519000Y-7874000D02*
G75*
G03*
X22519000Y-7874000I-40000J0D01*
G01*
X22519000Y-8636000D02*
G75*
G03*
X22519000Y-8636000I-40000J0D01*
G01*
X22646000Y-7366000D02*
G75*
G03*
X22646000Y-7366000I-40000J0D01*
G01*
X22646000Y-11811000D02*
G75*
G03*
X22646000Y-11811000I-40000J0D01*
G01*
X22646000Y-12573000D02*
G75*
G03*
X22646000Y-12573000I-40000J0D01*
G01*
X22773000Y-7874000D02*
G75*
G03*
X22773000Y-7874000I-40000J0D01*
G01*
X22773000Y-8636000D02*
G75*
G03*
X22773000Y-8636000I-40000J0D01*
G01*
X22900000Y-7366000D02*
G75*
G03*
X22900000Y-7366000I-40000J0D01*
G01*
X23027000Y-7874000D02*
G75*
G03*
X23027000Y-7874000I-40000J0D01*
G01*
X23027000Y-8636000D02*
G75*
G03*
X23027000Y-8636000I-40000J0D01*
G01*
X23154000Y-7366000D02*
G75*
G03*
X23154000Y-7366000I-40000J0D01*
G01*
X23281000Y-7874000D02*
G75*
G03*
X23281000Y-7874000I-40000J0D01*
G01*
X23281000Y-8636000D02*
G75*
G03*
X23281000Y-8636000I-40000J0D01*
G01*
X23408000Y-7366000D02*
G75*
G03*
X23408000Y-7366000I-40000J0D01*
G01*
X23535000Y-7874000D02*
G75*
G03*
X23535000Y-7874000I-40000J0D01*
G01*
X23535000Y-8636000D02*
G75*
G03*
X23535000Y-8636000I-40000J0D01*
G01*
X23662000Y-7366000D02*
G75*
G03*
X23662000Y-7366000I-40000J0D01*
G01*
X23916000Y-10134600D02*
G75*
G03*
X23916000Y-10134600I-40000J0D01*
G01*
X23916000Y-11150600D02*
G75*
G03*
X23916000Y-11150600I-40000J0D01*
G01*
X24170000Y-7366000D02*
G75*
G03*
X24170000Y-7366000I-40000J0D01*
G01*
X25186000Y-7366000D02*
G75*
G03*
X25186000Y-7366000I-40000J0D01*
G01*
D14*
X15367000Y-6305000D02*
X15367000Y-6395000D01*
X15322000Y-6350000D02*
X15412000Y-6350000D01*
X15621000Y-6305000D02*
X15621000Y-6395000D01*
X15576000Y-6350000D02*
X15666000Y-6350000D01*
X16002000Y-6305000D02*
X16002000Y-6395000D01*
X15957000Y-6350000D02*
X16047000Y-6350000D01*
X16256000Y-6305000D02*
X16256000Y-6395000D01*
X16211000Y-6350000D02*
X16301000Y-6350000D01*
X16637000Y-6305000D02*
X16637000Y-6395000D01*
X16592000Y-6350000D02*
X16682000Y-6350000D01*
X16891000Y-6305000D02*
X16891000Y-6395000D01*
X16846000Y-6350000D02*
X16936000Y-6350000D01*
X17272000Y-6305000D02*
X17272000Y-6395000D01*
X17227000Y-6350000D02*
X17317000Y-6350000D01*
X17526000Y-6305000D02*
X17526000Y-6395000D01*
X17481000Y-6350000D02*
X17571000Y-6350000D01*
X17907000Y-6305000D02*
X17907000Y-6395000D01*
X17862000Y-6350000D02*
X17952000Y-6350000D01*
X18161000Y-6305000D02*
X18161000Y-6395000D01*
X18116000Y-6350000D02*
X18206000Y-6350000D01*
X18542000Y-6305000D02*
X18542000Y-6395000D01*
X18497000Y-6350000D02*
X18587000Y-6350000D01*
X18796000Y-6305000D02*
X18796000Y-6395000D01*
X18751000Y-6350000D02*
X18841000Y-6350000D01*
X19177000Y-6305000D02*
X19177000Y-6395000D01*
X19132000Y-6350000D02*
X19222000Y-6350000D01*
X19431000Y-6305000D02*
X19431000Y-6395000D01*
X19386000Y-6350000D02*
X19476000Y-6350000D01*
X19812000Y-6305000D02*
X19812000Y-6395000D01*
X19767000Y-6350000D02*
X19857000Y-6350000D01*
X20066000Y-6305000D02*
X20066000Y-6395000D01*
X20021000Y-6350000D02*
X20111000Y-6350000D01*
X20447000Y-6305000D02*
X20447000Y-6395000D01*
X20402000Y-6350000D02*
X20492000Y-6350000D01*
X20701000Y-6305000D02*
X20701000Y-6395000D01*
X20656000Y-6350000D02*
X20746000Y-6350000D01*
X21082000Y-6305000D02*
X21082000Y-6395000D01*
X21037000Y-6350000D02*
X21127000Y-6350000D01*
X21336000Y-6305000D02*
X21336000Y-6395000D01*
X21291000Y-6350000D02*
X21381000Y-6350000D01*
X21717000Y-6305000D02*
X21717000Y-6395000D01*
X21672000Y-6350000D02*
X21762000Y-6350000D01*
X21971000Y-6305000D02*
X21971000Y-6395000D01*
X21926000Y-6350000D02*
X22016000Y-6350000D01*
X22352000Y-6305000D02*
X22352000Y-6395000D01*
X22307000Y-6350000D02*
X22397000Y-6350000D01*
X22606000Y-6305000D02*
X22606000Y-6395000D01*
X22561000Y-6350000D02*
X22651000Y-6350000D01*
X22987000Y-6305000D02*
X22987000Y-6395000D01*
X22942000Y-6350000D02*
X23032000Y-6350000D01*
X23241000Y-6305000D02*
X23241000Y-6395000D01*
X23196000Y-6350000D02*
X23286000Y-6350000D01*
X23622000Y-6305000D02*
X23622000Y-6395000D01*
X23577000Y-6350000D02*
X23667000Y-6350000D01*
X23876000Y-6305000D02*
X23876000Y-6395000D01*
X23831000Y-6350000D02*
X23921000Y-6350000D01*
X24257000Y-6305000D02*
X24257000Y-6395000D01*
X24212000Y-6350000D02*
X24302000Y-6350000D01*
X24511000Y-6305000D02*
X24511000Y-6395000D01*
X24466000Y-6350000D02*
X24556000Y-6350000D01*
X24892000Y-6305000D02*
X24892000Y-6395000D01*
X24847000Y-6350000D02*
X24937000Y-6350000D01*
X25146000Y-6305000D02*
X25146000Y-6395000D01*
X25101000Y-6350000D02*
X25191000Y-6350000D01*
D15*
X5369356Y-6131356D02*
X5369356Y-6060644D01*
X5298644Y-6060644D01*
X5298644Y-6131356D01*
X5369356Y-6131356D01*
X5623356Y-6131356D02*
X5623356Y-6060644D01*
X5552644Y-6060644D01*
X5552644Y-6131356D01*
X5623356Y-6131356D01*
X5877356Y-6131356D02*
X5877356Y-6060644D01*
X5806644Y-6060644D01*
X5806644Y-6131356D01*
X5877356Y-6131356D01*
X6131356Y-6131356D02*
X6131356Y-6060644D01*
X6060644Y-6060644D01*
X6060644Y-6131356D01*
X6131356Y-6131356D01*
X6385356Y-6131356D02*
X6385356Y-6060644D01*
X6314644Y-6060644D01*
X6314644Y-6131356D01*
X6385356Y-6131356D01*
X6385356Y-14513356D02*
X6385356Y-14442644D01*
X6314644Y-14442644D01*
X6314644Y-14513356D01*
X6385356Y-14513356D01*
X6639356Y-6131356D02*
X6639356Y-6060644D01*
X6568644Y-6060644D01*
X6568644Y-6131356D01*
X6639356Y-6131356D01*
X6639356Y-14513356D02*
X6639356Y-14442644D01*
X6568644Y-14442644D01*
X6568644Y-14513356D01*
X6639356Y-14513356D01*
X6893356Y-6131356D02*
X6893356Y-6060644D01*
X6822644Y-6060644D01*
X6822644Y-6131356D01*
X6893356Y-6131356D01*
X6893356Y-14513356D02*
X6893356Y-14442644D01*
X6822644Y-14442644D01*
X6822644Y-14513356D01*
X6893356Y-14513356D01*
X7147356Y-6131356D02*
X7147356Y-6060644D01*
X7076644Y-6060644D01*
X7076644Y-6131356D01*
X7147356Y-6131356D01*
X7147356Y-14513356D02*
X7147356Y-14442644D01*
X7076644Y-14442644D01*
X7076644Y-14513356D01*
X7147356Y-14513356D01*
X7401356Y-6131356D02*
X7401356Y-6060644D01*
X7330644Y-6060644D01*
X7330644Y-6131356D01*
X7401356Y-6131356D01*
X7401356Y-14513356D02*
X7401356Y-14442644D01*
X7330644Y-14442644D01*
X7330644Y-14513356D01*
X7401356Y-14513356D01*
X7655356Y-6131356D02*
X7655356Y-6060644D01*
X7584644Y-6060644D01*
X7584644Y-6131356D01*
X7655356Y-6131356D01*
X7655356Y-14513356D02*
X7655356Y-14442644D01*
X7584644Y-14442644D01*
X7584644Y-14513356D01*
X7655356Y-14513356D01*
X7909356Y-6131356D02*
X7909356Y-6060644D01*
X7838644Y-6060644D01*
X7838644Y-6131356D01*
X7909356Y-6131356D01*
X7909356Y-14513356D02*
X7909356Y-14442644D01*
X7838644Y-14442644D01*
X7838644Y-14513356D01*
X7909356Y-14513356D01*
X8163356Y-6131356D02*
X8163356Y-6060644D01*
X8092644Y-6060644D01*
X8092644Y-6131356D01*
X8163356Y-6131356D01*
X8163356Y-14513356D02*
X8163356Y-14442644D01*
X8092644Y-14442644D01*
X8092644Y-14513356D01*
X8163356Y-14513356D01*
X8417356Y-6131356D02*
X8417356Y-6060644D01*
X8346644Y-6060644D01*
X8346644Y-6131356D01*
X8417356Y-6131356D01*
X8417356Y-14513356D02*
X8417356Y-14442644D01*
X8346644Y-14442644D01*
X8346644Y-14513356D01*
X8417356Y-14513356D01*
X8671356Y-6131356D02*
X8671356Y-6060644D01*
X8600644Y-6060644D01*
X8600644Y-6131356D01*
X8671356Y-6131356D01*
X8671356Y-14513356D02*
X8671356Y-14442644D01*
X8600644Y-14442644D01*
X8600644Y-14513356D01*
X8671356Y-14513356D01*
X8925356Y-6131356D02*
X8925356Y-6060644D01*
X8854644Y-6060644D01*
X8854644Y-6131356D01*
X8925356Y-6131356D01*
X9179356Y-6131356D02*
X9179356Y-6060644D01*
X9108644Y-6060644D01*
X9108644Y-6131356D01*
X9179356Y-6131356D01*
X9687356Y-6131356D02*
X9687356Y-6060644D01*
X9616644Y-6060644D01*
X9616644Y-6131356D01*
X9687356Y-6131356D01*
X9941356Y-6131356D02*
X9941356Y-6060644D01*
X9870644Y-6060644D01*
X9870644Y-6131356D01*
X9941356Y-6131356D01*
X9941356Y-14513356D02*
X9941356Y-14442644D01*
X9870644Y-14442644D01*
X9870644Y-14513356D01*
X9941356Y-14513356D01*
X10195356Y-14513356D02*
X10195356Y-14442644D01*
X10124644Y-14442644D01*
X10124644Y-14513356D01*
X10195356Y-14513356D01*
X10449356Y-14513356D02*
X10449356Y-14442644D01*
X10378644Y-14442644D01*
X10378644Y-14513356D01*
X10449356Y-14513356D01*
X10703356Y-14513356D02*
X10703356Y-14442644D01*
X10632644Y-14442644D01*
X10632644Y-14513356D01*
X10703356Y-14513356D01*
X10957356Y-14513356D02*
X10957356Y-14442644D01*
X10886644Y-14442644D01*
X10886644Y-14513356D01*
X10957356Y-14513356D01*
X11211356Y-14513356D02*
X11211356Y-14442644D01*
X11140644Y-14442644D01*
X11140644Y-14513356D01*
X11211356Y-14513356D01*
X11465356Y-14513356D02*
X11465356Y-14442644D01*
X11394644Y-14442644D01*
X11394644Y-14513356D01*
X11465356Y-14513356D01*
X11719356Y-14513356D02*
X11719356Y-14442644D01*
X11648644Y-14442644D01*
X11648644Y-14513356D01*
X11719356Y-14513356D01*
X11973356Y-14513356D02*
X11973356Y-14442644D01*
X11902644Y-14442644D01*
X11902644Y-14513356D01*
X11973356Y-14513356D01*
X12227356Y-14513356D02*
X12227356Y-14442644D01*
X12156644Y-14442644D01*
X12156644Y-14513356D01*
X12227356Y-14513356D01*
X12481356Y-14513356D02*
X12481356Y-14442644D01*
X12410644Y-14442644D01*
X12410644Y-14513356D01*
X12481356Y-14513356D01*
X12735356Y-14513356D02*
X12735356Y-14442644D01*
X12664644Y-14442644D01*
X12664644Y-14513356D01*
X12735356Y-14513356D01*
X12989356Y-14513356D02*
X12989356Y-14442644D01*
X12918644Y-14442644D01*
X12918644Y-14513356D01*
X12989356Y-14513356D01*
X13243356Y-14513356D02*
X13243356Y-14442644D01*
X13172644Y-14442644D01*
X13172644Y-14513356D01*
X13243356Y-14513356D01*
X13497356Y-14513356D02*
X13497356Y-14442644D01*
X13426644Y-14442644D01*
X13426644Y-14513356D01*
X13497356Y-14513356D01*
X13751356Y-14513356D02*
X13751356Y-14442644D01*
X13680644Y-14442644D01*
X13680644Y-14513356D01*
X13751356Y-14513356D01*
X16291356Y-14259356D02*
X16291356Y-14188644D01*
X16220644Y-14188644D01*
X16220644Y-14259356D01*
X16291356Y-14259356D01*
X16291356Y-14513356D02*
X16291356Y-14442644D01*
X16220644Y-14442644D01*
X16220644Y-14513356D01*
X16291356Y-14513356D01*
X16545356Y-14259356D02*
X16545356Y-14188644D01*
X16474644Y-14188644D01*
X16474644Y-14259356D01*
X16545356Y-14259356D01*
X16545356Y-14513356D02*
X16545356Y-14442644D01*
X16474644Y-14442644D01*
X16474644Y-14513356D01*
X16545356Y-14513356D01*
X16799356Y-14259356D02*
X16799356Y-14188644D01*
X16728644Y-14188644D01*
X16728644Y-14259356D01*
X16799356Y-14259356D01*
X16799356Y-14513356D02*
X16799356Y-14442644D01*
X16728644Y-14442644D01*
X16728644Y-14513356D01*
X16799356Y-14513356D01*
X17053356Y-14259356D02*
X17053356Y-14188644D01*
X16982644Y-14188644D01*
X16982644Y-14259356D01*
X17053356Y-14259356D01*
X17053356Y-14513356D02*
X17053356Y-14442644D01*
X16982644Y-14442644D01*
X16982644Y-14513356D01*
X17053356Y-14513356D01*
X17307356Y-14259356D02*
X17307356Y-14188644D01*
X17236644Y-14188644D01*
X17236644Y-14259356D01*
X17307356Y-14259356D01*
X17307356Y-14513356D02*
X17307356Y-14442644D01*
X17236644Y-14442644D01*
X17236644Y-14513356D01*
X17307356Y-14513356D01*
X17561356Y-14259356D02*
X17561356Y-14188644D01*
X17490644Y-14188644D01*
X17490644Y-14259356D01*
X17561356Y-14259356D01*
X17561356Y-14513356D02*
X17561356Y-14442644D01*
X17490644Y-14442644D01*
X17490644Y-14513356D01*
X17561356Y-14513356D01*
X17815356Y-14259356D02*
X17815356Y-14188644D01*
X17744644Y-14188644D01*
X17744644Y-14259356D01*
X17815356Y-14259356D01*
X17815356Y-14513356D02*
X17815356Y-14442644D01*
X17744644Y-14442644D01*
X17744644Y-14513356D01*
X17815356Y-14513356D01*
X18069356Y-14259356D02*
X18069356Y-14188644D01*
X17998644Y-14188644D01*
X17998644Y-14259356D01*
X18069356Y-14259356D01*
X18069356Y-14513356D02*
X18069356Y-14442644D01*
X17998644Y-14442644D01*
X17998644Y-14513356D01*
X18069356Y-14513356D01*
X18323356Y-14259356D02*
X18323356Y-14188644D01*
X18252644Y-14188644D01*
X18252644Y-14259356D01*
X18323356Y-14259356D01*
X18323356Y-14513356D02*
X18323356Y-14442644D01*
X18252644Y-14442644D01*
X18252644Y-14513356D01*
X18323356Y-14513356D01*
X18577356Y-14259356D02*
X18577356Y-14188644D01*
X18506644Y-14188644D01*
X18506644Y-14259356D01*
X18577356Y-14259356D01*
X18577356Y-14513356D02*
X18577356Y-14442644D01*
X18506644Y-14442644D01*
X18506644Y-14513356D01*
X18577356Y-14513356D01*
X18831356Y-14259356D02*
X18831356Y-14188644D01*
X18760644Y-14188644D01*
X18760644Y-14259356D01*
X18831356Y-14259356D01*
X18831356Y-14513356D02*
X18831356Y-14442644D01*
X18760644Y-14442644D01*
X18760644Y-14513356D01*
X18831356Y-14513356D01*
X19085356Y-14259356D02*
X19085356Y-14188644D01*
X19014644Y-14188644D01*
X19014644Y-14259356D01*
X19085356Y-14259356D01*
X19085356Y-14513356D02*
X19085356Y-14442644D01*
X19014644Y-14442644D01*
X19014644Y-14513356D01*
X19085356Y-14513356D01*
X19339356Y-14259356D02*
X19339356Y-14188644D01*
X19268644Y-14188644D01*
X19268644Y-14259356D01*
X19339356Y-14259356D01*
X19339356Y-14513356D02*
X19339356Y-14442644D01*
X19268644Y-14442644D01*
X19268644Y-14513356D01*
X19339356Y-14513356D01*
X19593356Y-14259356D02*
X19593356Y-14188644D01*
X19522644Y-14188644D01*
X19522644Y-14259356D01*
X19593356Y-14259356D01*
X19593356Y-14513356D02*
X19593356Y-14442644D01*
X19522644Y-14442644D01*
X19522644Y-14513356D01*
X19593356Y-14513356D01*
X19847356Y-14259356D02*
X19847356Y-14188644D01*
X19776644Y-14188644D01*
X19776644Y-14259356D01*
X19847356Y-14259356D01*
X19847356Y-14513356D02*
X19847356Y-14442644D01*
X19776644Y-14442644D01*
X19776644Y-14513356D01*
X19847356Y-14513356D01*
X20101356Y-14259356D02*
X20101356Y-14188644D01*
X20030644Y-14188644D01*
X20030644Y-14259356D01*
X20101356Y-14259356D01*
X20101356Y-14513356D02*
X20101356Y-14442644D01*
X20030644Y-14442644D01*
X20030644Y-14513356D01*
X20101356Y-14513356D01*
X20355356Y-14259356D02*
X20355356Y-14188644D01*
X20284644Y-14188644D01*
X20284644Y-14259356D01*
X20355356Y-14259356D01*
X20355356Y-14513356D02*
X20355356Y-14442644D01*
X20284644Y-14442644D01*
X20284644Y-14513356D01*
X20355356Y-14513356D01*
X20609356Y-14259356D02*
X20609356Y-14188644D01*
X20538644Y-14188644D01*
X20538644Y-14259356D01*
X20609356Y-14259356D01*
X20609356Y-14513356D02*
X20609356Y-14442644D01*
X20538644Y-14442644D01*
X20538644Y-14513356D01*
X20609356Y-14513356D01*
X20863356Y-14259356D02*
X20863356Y-14188644D01*
X20792644Y-14188644D01*
X20792644Y-14259356D01*
X20863356Y-14259356D01*
X20863356Y-14513356D02*
X20863356Y-14442644D01*
X20792644Y-14442644D01*
X20792644Y-14513356D01*
X20863356Y-14513356D01*
X21117356Y-14259356D02*
X21117356Y-14188644D01*
X21046644Y-14188644D01*
X21046644Y-14259356D01*
X21117356Y-14259356D01*
X21117356Y-14513356D02*
X21117356Y-14442644D01*
X21046644Y-14442644D01*
X21046644Y-14513356D01*
X21117356Y-14513356D01*
X21371356Y-14259356D02*
X21371356Y-14188644D01*
X21300644Y-14188644D01*
X21300644Y-14259356D01*
X21371356Y-14259356D01*
X21371356Y-14513356D02*
X21371356Y-14442644D01*
X21300644Y-14442644D01*
X21300644Y-14513356D01*
X21371356Y-14513356D01*
X21625356Y-14259356D02*
X21625356Y-14188644D01*
X21554644Y-14188644D01*
X21554644Y-14259356D01*
X21625356Y-14259356D01*
X21625356Y-14513356D02*
X21625356Y-14442644D01*
X21554644Y-14442644D01*
X21554644Y-14513356D01*
X21625356Y-14513356D01*
X21879356Y-14259356D02*
X21879356Y-14188644D01*
X21808644Y-14188644D01*
X21808644Y-14259356D01*
X21879356Y-14259356D01*
X21879356Y-14513356D02*
X21879356Y-14442644D01*
X21808644Y-14442644D01*
X21808644Y-14513356D01*
X21879356Y-14513356D01*
X22133356Y-14259356D02*
X22133356Y-14188644D01*
X22062644Y-14188644D01*
X22062644Y-14259356D01*
X22133356Y-14259356D01*
X22133356Y-14513356D02*
X22133356Y-14442644D01*
X22062644Y-14442644D01*
X22062644Y-14513356D01*
X22133356Y-14513356D01*
X22387356Y-14259356D02*
X22387356Y-14188644D01*
X22316644Y-14188644D01*
X22316644Y-14259356D01*
X22387356Y-14259356D01*
X22387356Y-14513356D02*
X22387356Y-14442644D01*
X22316644Y-14442644D01*
X22316644Y-14513356D01*
X22387356Y-14513356D01*
X22641356Y-14259356D02*
X22641356Y-14188644D01*
X22570644Y-14188644D01*
X22570644Y-14259356D01*
X22641356Y-14259356D01*
X22641356Y-14513356D02*
X22641356Y-14442644D01*
X22570644Y-14442644D01*
X22570644Y-14513356D01*
X22641356Y-14513356D01*
X22895356Y-14259356D02*
X22895356Y-14188644D01*
X22824644Y-14188644D01*
X22824644Y-14259356D01*
X22895356Y-14259356D01*
X22895356Y-14513356D02*
X22895356Y-14442644D01*
X22824644Y-14442644D01*
X22824644Y-14513356D01*
X22895356Y-14513356D01*
X23149356Y-14259356D02*
X23149356Y-14188644D01*
X23078644Y-14188644D01*
X23078644Y-14259356D01*
X23149356Y-14259356D01*
X23149356Y-14513356D02*
X23149356Y-14442644D01*
X23078644Y-14442644D01*
X23078644Y-14513356D01*
X23149356Y-14513356D01*
X23403356Y-14259356D02*
X23403356Y-14188644D01*
X23332644Y-14188644D01*
X23332644Y-14259356D01*
X23403356Y-14259356D01*
X23403356Y-14513356D02*
X23403356Y-14442644D01*
X23332644Y-14442644D01*
X23332644Y-14513356D01*
X23403356Y-14513356D01*
X23657356Y-14259356D02*
X23657356Y-14188644D01*
X23586644Y-14188644D01*
X23586644Y-14259356D01*
X23657356Y-14259356D01*
X23657356Y-14513356D02*
X23657356Y-14442644D01*
X23586644Y-14442644D01*
X23586644Y-14513356D01*
X23657356Y-14513356D01*
X23911356Y-14259356D02*
X23911356Y-14188644D01*
X23840644Y-14188644D01*
X23840644Y-14259356D01*
X23911356Y-14259356D01*
X23911356Y-14513356D02*
X23911356Y-14442644D01*
X23840644Y-14442644D01*
X23840644Y-14513356D01*
X23911356Y-14513356D01*
X24165356Y-7909356D02*
X24165356Y-7838644D01*
X24094644Y-7838644D01*
X24094644Y-7909356D01*
X24165356Y-7909356D01*
X24165356Y-8163356D02*
X24165356Y-8092644D01*
X24094644Y-8092644D01*
X24094644Y-8163356D01*
X24165356Y-8163356D01*
X24165356Y-8417356D02*
X24165356Y-8346644D01*
X24094644Y-8346644D01*
X24094644Y-8417356D01*
X24165356Y-8417356D01*
X24165356Y-14259356D02*
X24165356Y-14188644D01*
X24094644Y-14188644D01*
X24094644Y-14259356D01*
X24165356Y-14259356D01*
X24165356Y-14513356D02*
X24165356Y-14442644D01*
X24094644Y-14442644D01*
X24094644Y-14513356D01*
X24165356Y-14513356D01*
D16*
X23876000Y-11739000D02*
X23931000Y-11684000D01*
X23876000Y-11629000D01*
X23821000Y-11684000D01*
X23876000Y-11739000D01*
X23876000Y-12247000D02*
X23931000Y-12192000D01*
X23876000Y-12137000D01*
X23821000Y-12192000D01*
X23876000Y-12247000D01*
X23876000Y-12755000D02*
X23931000Y-12700000D01*
X23876000Y-12645000D01*
X23821000Y-12700000D01*
X23876000Y-12755000D01*
X24384000Y-11739000D02*
X24439000Y-11684000D01*
X24384000Y-11629000D01*
X24329000Y-11684000D01*
X24384000Y-11739000D01*
X24384000Y-12247000D02*
X24439000Y-12192000D01*
X24384000Y-12137000D01*
X24329000Y-12192000D01*
X24384000Y-12247000D01*
X24384000Y-12755000D02*
X24439000Y-12700000D01*
X24384000Y-12645000D01*
X24329000Y-12700000D01*
X24384000Y-12755000D01*
X24892000Y-11739000D02*
X24947000Y-11684000D01*
X24892000Y-11629000D01*
X24837000Y-11684000D01*
X24892000Y-11739000D01*
X24892000Y-12247000D02*
X24947000Y-12192000D01*
X24892000Y-12137000D01*
X24837000Y-12192000D01*
X24892000Y-12247000D01*
X24892000Y-12755000D02*
X24947000Y-12700000D01*
X24892000Y-12645000D01*
X24837000Y-12700000D01*
X24892000Y-12755000D01*
D11*
X5325119Y-15154976D02*
X5325119Y-14954976D01*
X5325119Y-14954976D02*
X5372738Y-14954976D01*
X5372738Y-14954976D02*
X5401310Y-14964500D01*
X5401310Y-14964500D02*
X5420357Y-14983548D01*
X5420357Y-14983548D02*
X5429881Y-15002595D01*
X5429881Y-15002595D02*
X5439405Y-15040690D01*
X5439405Y-15040690D02*
X5439405Y-15069262D01*
X5439405Y-15069262D02*
X5429881Y-15107357D01*
X5429881Y-15107357D02*
X5420357Y-15126405D01*
X5420357Y-15126405D02*
X5401310Y-15145452D01*
X5401310Y-15145452D02*
X5372738Y-15154976D01*
X5372738Y-15154976D02*
X5325119Y-15154976D01*
X5525119Y-15154976D02*
X5525119Y-15021643D01*
X5525119Y-15059738D02*
X5534643Y-15040690D01*
X5534643Y-15040690D02*
X5544167Y-15031167D01*
X5544167Y-15031167D02*
X5563214Y-15021643D01*
X5563214Y-15021643D02*
X5582262Y-15021643D01*
X5648928Y-15154976D02*
X5648928Y-15021643D01*
X5648928Y-14954976D02*
X5639405Y-14964500D01*
X5639405Y-14964500D02*
X5648928Y-14974024D01*
X5648928Y-14974024D02*
X5658452Y-14964500D01*
X5658452Y-14964500D02*
X5648928Y-14954976D01*
X5648928Y-14954976D02*
X5648928Y-14974024D01*
X5772738Y-15154976D02*
X5753690Y-15145452D01*
X5753690Y-15145452D02*
X5744167Y-15126405D01*
X5744167Y-15126405D02*
X5744167Y-14954976D01*
X5877500Y-15154976D02*
X5858452Y-15145452D01*
X5858452Y-15145452D02*
X5848928Y-15126405D01*
X5848928Y-15126405D02*
X5848928Y-14954976D01*
X6073690Y-15154976D02*
X6073690Y-14954976D01*
X6073690Y-14954976D02*
X6140357Y-15097833D01*
X6140357Y-15097833D02*
X6207024Y-14954976D01*
X6207024Y-14954976D02*
X6207024Y-15154976D01*
X6387976Y-15154976D02*
X6387976Y-15050214D01*
X6387976Y-15050214D02*
X6378452Y-15031167D01*
X6378452Y-15031167D02*
X6359405Y-15021643D01*
X6359405Y-15021643D02*
X6321309Y-15021643D01*
X6321309Y-15021643D02*
X6302262Y-15031167D01*
X6387976Y-15145452D02*
X6368928Y-15154976D01*
X6368928Y-15154976D02*
X6321309Y-15154976D01*
X6321309Y-15154976D02*
X6302262Y-15145452D01*
X6302262Y-15145452D02*
X6292738Y-15126405D01*
X6292738Y-15126405D02*
X6292738Y-15107357D01*
X6292738Y-15107357D02*
X6302262Y-15088309D01*
X6302262Y-15088309D02*
X6321309Y-15078786D01*
X6321309Y-15078786D02*
X6368928Y-15078786D01*
X6368928Y-15078786D02*
X6387976Y-15069262D01*
X6483214Y-15021643D02*
X6483214Y-15221643D01*
X6483214Y-15031167D02*
X6502262Y-15021643D01*
X6502262Y-15021643D02*
X6540357Y-15021643D01*
X6540357Y-15021643D02*
X6559405Y-15031167D01*
X6559405Y-15031167D02*
X6568928Y-15040690D01*
X6568928Y-15040690D02*
X6578452Y-15059738D01*
X6578452Y-15059738D02*
X6578452Y-15116881D01*
X6578452Y-15116881D02*
X6568928Y-15135928D01*
X6568928Y-15135928D02*
X6559405Y-15145452D01*
X6559405Y-15145452D02*
X6540357Y-15154976D01*
X6540357Y-15154976D02*
X6502262Y-15154976D01*
X6502262Y-15154976D02*
X6483214Y-15145452D01*
X6664167Y-15135928D02*
X6673690Y-15145452D01*
X6673690Y-15145452D02*
X6664167Y-15154976D01*
X6664167Y-15154976D02*
X6654643Y-15145452D01*
X6654643Y-15145452D02*
X6664167Y-15135928D01*
X6664167Y-15135928D02*
X6664167Y-15154976D01*
X6664167Y-15031167D02*
X6673690Y-15040690D01*
X6673690Y-15040690D02*
X6664167Y-15050214D01*
X6664167Y-15050214D02*
X6654643Y-15040690D01*
X6654643Y-15040690D02*
X6664167Y-15031167D01*
X6664167Y-15031167D02*
X6664167Y-15050214D01*
D12*
X5039400Y-15482450D02*
X5077500Y-15520550D01*
X5077500Y-15482450D02*
X5039400Y-15520550D01*
D11*
X5363214Y-15374976D02*
X5382262Y-15374976D01*
X5382262Y-15374976D02*
X5401310Y-15384500D01*
X5401310Y-15384500D02*
X5410833Y-15394024D01*
X5410833Y-15394024D02*
X5420357Y-15413071D01*
X5420357Y-15413071D02*
X5429881Y-15451167D01*
X5429881Y-15451167D02*
X5429881Y-15498786D01*
X5429881Y-15498786D02*
X5420357Y-15536881D01*
X5420357Y-15536881D02*
X5410833Y-15555928D01*
X5410833Y-15555928D02*
X5401310Y-15565452D01*
X5401310Y-15565452D02*
X5382262Y-15574976D01*
X5382262Y-15574976D02*
X5363214Y-15574976D01*
X5363214Y-15574976D02*
X5344167Y-15565452D01*
X5344167Y-15565452D02*
X5334643Y-15555928D01*
X5334643Y-15555928D02*
X5325119Y-15536881D01*
X5325119Y-15536881D02*
X5315595Y-15498786D01*
X5315595Y-15498786D02*
X5315595Y-15451167D01*
X5315595Y-15451167D02*
X5325119Y-15413071D01*
X5325119Y-15413071D02*
X5334643Y-15394024D01*
X5334643Y-15394024D02*
X5344167Y-15384500D01*
X5344167Y-15384500D02*
X5363214Y-15374976D01*
X5515595Y-15555928D02*
X5525119Y-15565452D01*
X5525119Y-15565452D02*
X5515595Y-15574976D01*
X5515595Y-15574976D02*
X5506071Y-15565452D01*
X5506071Y-15565452D02*
X5515595Y-15555928D01*
X5515595Y-15555928D02*
X5515595Y-15574976D01*
X5591786Y-15374976D02*
X5715595Y-15374976D01*
X5715595Y-15374976D02*
X5648928Y-15451167D01*
X5648928Y-15451167D02*
X5677500Y-15451167D01*
X5677500Y-15451167D02*
X5696548Y-15460690D01*
X5696548Y-15460690D02*
X5706071Y-15470214D01*
X5706071Y-15470214D02*
X5715595Y-15489262D01*
X5715595Y-15489262D02*
X5715595Y-15536881D01*
X5715595Y-15536881D02*
X5706071Y-15555928D01*
X5706071Y-15555928D02*
X5696548Y-15565452D01*
X5696548Y-15565452D02*
X5677500Y-15574976D01*
X5677500Y-15574976D02*
X5620357Y-15574976D01*
X5620357Y-15574976D02*
X5601309Y-15565452D01*
X5601309Y-15565452D02*
X5591786Y-15555928D01*
X5829881Y-15460690D02*
X5810833Y-15451167D01*
X5810833Y-15451167D02*
X5801309Y-15441643D01*
X5801309Y-15441643D02*
X5791786Y-15422595D01*
X5791786Y-15422595D02*
X5791786Y-15413071D01*
X5791786Y-15413071D02*
X5801309Y-15394024D01*
X5801309Y-15394024D02*
X5810833Y-15384500D01*
X5810833Y-15384500D02*
X5829881Y-15374976D01*
X5829881Y-15374976D02*
X5867976Y-15374976D01*
X5867976Y-15374976D02*
X5887024Y-15384500D01*
X5887024Y-15384500D02*
X5896548Y-15394024D01*
X5896548Y-15394024D02*
X5906071Y-15413071D01*
X5906071Y-15413071D02*
X5906071Y-15422595D01*
X5906071Y-15422595D02*
X5896548Y-15441643D01*
X5896548Y-15441643D02*
X5887024Y-15451167D01*
X5887024Y-15451167D02*
X5867976Y-15460690D01*
X5867976Y-15460690D02*
X5829881Y-15460690D01*
X5829881Y-15460690D02*
X5810833Y-15470214D01*
X5810833Y-15470214D02*
X5801309Y-15479738D01*
X5801309Y-15479738D02*
X5791786Y-15498786D01*
X5791786Y-15498786D02*
X5791786Y-15536881D01*
X5791786Y-15536881D02*
X5801309Y-15555928D01*
X5801309Y-15555928D02*
X5810833Y-15565452D01*
X5810833Y-15565452D02*
X5829881Y-15574976D01*
X5829881Y-15574976D02*
X5867976Y-15574976D01*
X5867976Y-15574976D02*
X5887024Y-15565452D01*
X5887024Y-15565452D02*
X5896548Y-15555928D01*
X5896548Y-15555928D02*
X5906071Y-15536881D01*
X5906071Y-15536881D02*
X5906071Y-15498786D01*
X5906071Y-15498786D02*
X5896548Y-15479738D01*
X5896548Y-15479738D02*
X5887024Y-15470214D01*
X5887024Y-15470214D02*
X5867976Y-15460690D01*
X6096548Y-15574976D02*
X5982262Y-15574976D01*
X6039405Y-15574976D02*
X6039405Y-15374976D01*
X6039405Y-15374976D02*
X6020357Y-15403548D01*
X6020357Y-15403548D02*
X6001309Y-15422595D01*
X6001309Y-15422595D02*
X5982262Y-15432119D01*
X6182262Y-15574976D02*
X6182262Y-15441643D01*
X6182262Y-15460690D02*
X6191786Y-15451167D01*
X6191786Y-15451167D02*
X6210833Y-15441643D01*
X6210833Y-15441643D02*
X6239405Y-15441643D01*
X6239405Y-15441643D02*
X6258452Y-15451167D01*
X6258452Y-15451167D02*
X6267976Y-15470214D01*
X6267976Y-15470214D02*
X6267976Y-15574976D01*
X6267976Y-15470214D02*
X6277500Y-15451167D01*
X6277500Y-15451167D02*
X6296548Y-15441643D01*
X6296548Y-15441643D02*
X6325119Y-15441643D01*
X6325119Y-15441643D02*
X6344167Y-15451167D01*
X6344167Y-15451167D02*
X6353690Y-15470214D01*
X6353690Y-15470214D02*
X6353690Y-15574976D01*
X6448929Y-15574976D02*
X6448929Y-15441643D01*
X6448929Y-15460690D02*
X6458452Y-15451167D01*
X6458452Y-15451167D02*
X6477500Y-15441643D01*
X6477500Y-15441643D02*
X6506071Y-15441643D01*
X6506071Y-15441643D02*
X6525119Y-15451167D01*
X6525119Y-15451167D02*
X6534643Y-15470214D01*
X6534643Y-15470214D02*
X6534643Y-15574976D01*
X6534643Y-15470214D02*
X6544167Y-15451167D01*
X6544167Y-15451167D02*
X6563214Y-15441643D01*
X6563214Y-15441643D02*
X6591786Y-15441643D01*
X6591786Y-15441643D02*
X6610833Y-15451167D01*
X6610833Y-15451167D02*
X6620357Y-15470214D01*
X6620357Y-15470214D02*
X6620357Y-15574976D01*
X6978452Y-15365452D02*
X6807024Y-15622595D01*
X7203214Y-15374976D02*
X7222262Y-15374976D01*
X7222262Y-15374976D02*
X7241310Y-15384500D01*
X7241310Y-15384500D02*
X7250833Y-15394024D01*
X7250833Y-15394024D02*
X7260357Y-15413071D01*
X7260357Y-15413071D02*
X7269881Y-15451167D01*
X7269881Y-15451167D02*
X7269881Y-15498786D01*
X7269881Y-15498786D02*
X7260357Y-15536881D01*
X7260357Y-15536881D02*
X7250833Y-15555928D01*
X7250833Y-15555928D02*
X7241310Y-15565452D01*
X7241310Y-15565452D02*
X7222262Y-15574976D01*
X7222262Y-15574976D02*
X7203214Y-15574976D01*
X7203214Y-15574976D02*
X7184167Y-15565452D01*
X7184167Y-15565452D02*
X7174643Y-15555928D01*
X7174643Y-15555928D02*
X7165119Y-15536881D01*
X7165119Y-15536881D02*
X7155595Y-15498786D01*
X7155595Y-15498786D02*
X7155595Y-15451167D01*
X7155595Y-15451167D02*
X7165119Y-15413071D01*
X7165119Y-15413071D02*
X7174643Y-15394024D01*
X7174643Y-15394024D02*
X7184167Y-15384500D01*
X7184167Y-15384500D02*
X7203214Y-15374976D01*
X7355595Y-15555928D02*
X7365119Y-15565452D01*
X7365119Y-15565452D02*
X7355595Y-15574976D01*
X7355595Y-15574976D02*
X7346071Y-15565452D01*
X7346071Y-15565452D02*
X7355595Y-15555928D01*
X7355595Y-15555928D02*
X7355595Y-15574976D01*
X7488929Y-15374976D02*
X7507976Y-15374976D01*
X7507976Y-15374976D02*
X7527024Y-15384500D01*
X7527024Y-15384500D02*
X7536548Y-15394024D01*
X7536548Y-15394024D02*
X7546071Y-15413071D01*
X7546071Y-15413071D02*
X7555595Y-15451167D01*
X7555595Y-15451167D02*
X7555595Y-15498786D01*
X7555595Y-15498786D02*
X7546071Y-15536881D01*
X7546071Y-15536881D02*
X7536548Y-15555928D01*
X7536548Y-15555928D02*
X7527024Y-15565452D01*
X7527024Y-15565452D02*
X7507976Y-15574976D01*
X7507976Y-15574976D02*
X7488929Y-15574976D01*
X7488929Y-15574976D02*
X7469881Y-15565452D01*
X7469881Y-15565452D02*
X7460357Y-15555928D01*
X7460357Y-15555928D02*
X7450833Y-15536881D01*
X7450833Y-15536881D02*
X7441310Y-15498786D01*
X7441310Y-15498786D02*
X7441310Y-15451167D01*
X7441310Y-15451167D02*
X7450833Y-15413071D01*
X7450833Y-15413071D02*
X7460357Y-15394024D01*
X7460357Y-15394024D02*
X7469881Y-15384500D01*
X7469881Y-15384500D02*
X7488929Y-15374976D01*
X7746071Y-15574976D02*
X7631786Y-15574976D01*
X7688929Y-15574976D02*
X7688929Y-15374976D01*
X7688929Y-15374976D02*
X7669881Y-15403548D01*
X7669881Y-15403548D02*
X7650833Y-15422595D01*
X7650833Y-15422595D02*
X7631786Y-15432119D01*
X7927024Y-15374976D02*
X7831786Y-15374976D01*
X7831786Y-15374976D02*
X7822262Y-15470214D01*
X7822262Y-15470214D02*
X7831786Y-15460690D01*
X7831786Y-15460690D02*
X7850833Y-15451167D01*
X7850833Y-15451167D02*
X7898452Y-15451167D01*
X7898452Y-15451167D02*
X7917500Y-15460690D01*
X7917500Y-15460690D02*
X7927024Y-15470214D01*
X7927024Y-15470214D02*
X7936548Y-15489262D01*
X7936548Y-15489262D02*
X7936548Y-15536881D01*
X7936548Y-15536881D02*
X7927024Y-15555928D01*
X7927024Y-15555928D02*
X7917500Y-15565452D01*
X7917500Y-15565452D02*
X7898452Y-15574976D01*
X7898452Y-15574976D02*
X7850833Y-15574976D01*
X7850833Y-15574976D02*
X7831786Y-15565452D01*
X7831786Y-15565452D02*
X7822262Y-15555928D01*
X8060357Y-15374976D02*
X8079405Y-15374976D01*
X8079405Y-15374976D02*
X8098452Y-15384500D01*
X8098452Y-15384500D02*
X8107976Y-15394024D01*
X8107976Y-15394024D02*
X8117500Y-15413071D01*
X8117500Y-15413071D02*
X8127024Y-15451167D01*
X8127024Y-15451167D02*
X8127024Y-15498786D01*
X8127024Y-15498786D02*
X8117500Y-15536881D01*
X8117500Y-15536881D02*
X8107976Y-15555928D01*
X8107976Y-15555928D02*
X8098452Y-15565452D01*
X8098452Y-15565452D02*
X8079405Y-15574976D01*
X8079405Y-15574976D02*
X8060357Y-15574976D01*
X8060357Y-15574976D02*
X8041310Y-15565452D01*
X8041310Y-15565452D02*
X8031786Y-15555928D01*
X8031786Y-15555928D02*
X8022262Y-15536881D01*
X8022262Y-15536881D02*
X8012738Y-15498786D01*
X8012738Y-15498786D02*
X8012738Y-15451167D01*
X8012738Y-15451167D02*
X8022262Y-15413071D01*
X8022262Y-15413071D02*
X8031786Y-15394024D01*
X8031786Y-15394024D02*
X8041310Y-15384500D01*
X8041310Y-15384500D02*
X8060357Y-15374976D01*
X8203214Y-15374976D02*
X8203214Y-15413071D01*
X8279405Y-15374976D02*
X8279405Y-15413071D01*
X8542262Y-15651167D02*
X8532738Y-15641643D01*
X8532738Y-15641643D02*
X8513691Y-15613071D01*
X8513691Y-15613071D02*
X8504167Y-15594024D01*
X8504167Y-15594024D02*
X8494643Y-15565452D01*
X8494643Y-15565452D02*
X8485119Y-15517833D01*
X8485119Y-15517833D02*
X8485119Y-15479738D01*
X8485119Y-15479738D02*
X8494643Y-15432119D01*
X8494643Y-15432119D02*
X8504167Y-15403548D01*
X8504167Y-15403548D02*
X8513691Y-15384500D01*
X8513691Y-15384500D02*
X8532738Y-15355928D01*
X8532738Y-15355928D02*
X8542262Y-15346405D01*
X8608929Y-15394024D02*
X8618453Y-15384500D01*
X8618453Y-15384500D02*
X8637500Y-15374976D01*
X8637500Y-15374976D02*
X8685119Y-15374976D01*
X8685119Y-15374976D02*
X8704167Y-15384500D01*
X8704167Y-15384500D02*
X8713691Y-15394024D01*
X8713691Y-15394024D02*
X8723214Y-15413071D01*
X8723214Y-15413071D02*
X8723214Y-15432119D01*
X8723214Y-15432119D02*
X8713691Y-15460690D01*
X8713691Y-15460690D02*
X8599405Y-15574976D01*
X8599405Y-15574976D02*
X8723214Y-15574976D01*
X8799405Y-15394024D02*
X8808929Y-15384500D01*
X8808929Y-15384500D02*
X8827976Y-15374976D01*
X8827976Y-15374976D02*
X8875595Y-15374976D01*
X8875595Y-15374976D02*
X8894643Y-15384500D01*
X8894643Y-15384500D02*
X8904167Y-15394024D01*
X8904167Y-15394024D02*
X8913691Y-15413071D01*
X8913691Y-15413071D02*
X8913691Y-15432119D01*
X8913691Y-15432119D02*
X8904167Y-15460690D01*
X8904167Y-15460690D02*
X8789881Y-15574976D01*
X8789881Y-15574976D02*
X8913691Y-15574976D01*
X9104167Y-15574976D02*
X8989881Y-15574976D01*
X9047024Y-15574976D02*
X9047024Y-15374976D01*
X9047024Y-15374976D02*
X9027976Y-15403548D01*
X9027976Y-15403548D02*
X9008929Y-15422595D01*
X9008929Y-15422595D02*
X8989881Y-15432119D01*
X9309881Y-15574976D02*
X9309881Y-15374976D01*
X9395595Y-15574976D02*
X9395595Y-15470214D01*
X9395595Y-15470214D02*
X9386072Y-15451167D01*
X9386072Y-15451167D02*
X9367024Y-15441643D01*
X9367024Y-15441643D02*
X9338453Y-15441643D01*
X9338453Y-15441643D02*
X9319405Y-15451167D01*
X9319405Y-15451167D02*
X9309881Y-15460690D01*
X9519405Y-15574976D02*
X9500357Y-15565452D01*
X9500357Y-15565452D02*
X9490834Y-15555928D01*
X9490834Y-15555928D02*
X9481310Y-15536881D01*
X9481310Y-15536881D02*
X9481310Y-15479738D01*
X9481310Y-15479738D02*
X9490834Y-15460690D01*
X9490834Y-15460690D02*
X9500357Y-15451167D01*
X9500357Y-15451167D02*
X9519405Y-15441643D01*
X9519405Y-15441643D02*
X9547976Y-15441643D01*
X9547976Y-15441643D02*
X9567024Y-15451167D01*
X9567024Y-15451167D02*
X9576548Y-15460690D01*
X9576548Y-15460690D02*
X9586072Y-15479738D01*
X9586072Y-15479738D02*
X9586072Y-15536881D01*
X9586072Y-15536881D02*
X9576548Y-15555928D01*
X9576548Y-15555928D02*
X9567024Y-15565452D01*
X9567024Y-15565452D02*
X9547976Y-15574976D01*
X9547976Y-15574976D02*
X9519405Y-15574976D01*
X9700357Y-15574976D02*
X9681310Y-15565452D01*
X9681310Y-15565452D02*
X9671786Y-15546405D01*
X9671786Y-15546405D02*
X9671786Y-15374976D01*
X9852738Y-15565452D02*
X9833691Y-15574976D01*
X9833691Y-15574976D02*
X9795595Y-15574976D01*
X9795595Y-15574976D02*
X9776548Y-15565452D01*
X9776548Y-15565452D02*
X9767024Y-15546405D01*
X9767024Y-15546405D02*
X9767024Y-15470214D01*
X9767024Y-15470214D02*
X9776548Y-15451167D01*
X9776548Y-15451167D02*
X9795595Y-15441643D01*
X9795595Y-15441643D02*
X9833691Y-15441643D01*
X9833691Y-15441643D02*
X9852738Y-15451167D01*
X9852738Y-15451167D02*
X9862262Y-15470214D01*
X9862262Y-15470214D02*
X9862262Y-15489262D01*
X9862262Y-15489262D02*
X9767024Y-15508309D01*
X9938453Y-15565452D02*
X9957500Y-15574976D01*
X9957500Y-15574976D02*
X9995595Y-15574976D01*
X9995595Y-15574976D02*
X10014643Y-15565452D01*
X10014643Y-15565452D02*
X10024167Y-15546405D01*
X10024167Y-15546405D02*
X10024167Y-15536881D01*
X10024167Y-15536881D02*
X10014643Y-15517833D01*
X10014643Y-15517833D02*
X9995595Y-15508309D01*
X9995595Y-15508309D02*
X9967024Y-15508309D01*
X9967024Y-15508309D02*
X9947976Y-15498786D01*
X9947976Y-15498786D02*
X9938453Y-15479738D01*
X9938453Y-15479738D02*
X9938453Y-15470214D01*
X9938453Y-15470214D02*
X9947976Y-15451167D01*
X9947976Y-15451167D02*
X9967024Y-15441643D01*
X9967024Y-15441643D02*
X9995595Y-15441643D01*
X9995595Y-15441643D02*
X10014643Y-15451167D01*
X10090834Y-15651167D02*
X10100357Y-15641643D01*
X10100357Y-15641643D02*
X10119405Y-15613071D01*
X10119405Y-15613071D02*
X10128929Y-15594024D01*
X10128929Y-15594024D02*
X10138453Y-15565452D01*
X10138453Y-15565452D02*
X10147976Y-15517833D01*
X10147976Y-15517833D02*
X10147976Y-15479738D01*
X10147976Y-15479738D02*
X10138453Y-15432119D01*
X10138453Y-15432119D02*
X10128929Y-15403548D01*
X10128929Y-15403548D02*
X10119405Y-15384500D01*
X10119405Y-15384500D02*
X10100357Y-15355928D01*
X10100357Y-15355928D02*
X10090834Y-15346405D01*
D13*
X5077500Y-15765500D02*
G75*
G03*
X5077500Y-15765500I-40000J0D01*
G01*
D11*
X5363214Y-15638976D02*
X5382262Y-15638976D01*
X5382262Y-15638976D02*
X5401310Y-15648500D01*
X5401310Y-15648500D02*
X5410833Y-15658024D01*
X5410833Y-15658024D02*
X5420357Y-15677071D01*
X5420357Y-15677071D02*
X5429881Y-15715167D01*
X5429881Y-15715167D02*
X5429881Y-15762786D01*
X5429881Y-15762786D02*
X5420357Y-15800881D01*
X5420357Y-15800881D02*
X5410833Y-15819928D01*
X5410833Y-15819928D02*
X5401310Y-15829452D01*
X5401310Y-15829452D02*
X5382262Y-15838976D01*
X5382262Y-15838976D02*
X5363214Y-15838976D01*
X5363214Y-15838976D02*
X5344167Y-15829452D01*
X5344167Y-15829452D02*
X5334643Y-15819928D01*
X5334643Y-15819928D02*
X5325119Y-15800881D01*
X5325119Y-15800881D02*
X5315595Y-15762786D01*
X5315595Y-15762786D02*
X5315595Y-15715167D01*
X5315595Y-15715167D02*
X5325119Y-15677071D01*
X5325119Y-15677071D02*
X5334643Y-15658024D01*
X5334643Y-15658024D02*
X5344167Y-15648500D01*
X5344167Y-15648500D02*
X5363214Y-15638976D01*
X5515595Y-15819928D02*
X5525119Y-15829452D01*
X5525119Y-15829452D02*
X5515595Y-15838976D01*
X5515595Y-15838976D02*
X5506071Y-15829452D01*
X5506071Y-15829452D02*
X5515595Y-15819928D01*
X5515595Y-15819928D02*
X5515595Y-15838976D01*
X5639405Y-15724690D02*
X5620357Y-15715167D01*
X5620357Y-15715167D02*
X5610833Y-15705643D01*
X5610833Y-15705643D02*
X5601309Y-15686595D01*
X5601309Y-15686595D02*
X5601309Y-15677071D01*
X5601309Y-15677071D02*
X5610833Y-15658024D01*
X5610833Y-15658024D02*
X5620357Y-15648500D01*
X5620357Y-15648500D02*
X5639405Y-15638976D01*
X5639405Y-15638976D02*
X5677500Y-15638976D01*
X5677500Y-15638976D02*
X5696548Y-15648500D01*
X5696548Y-15648500D02*
X5706071Y-15658024D01*
X5706071Y-15658024D02*
X5715595Y-15677071D01*
X5715595Y-15677071D02*
X5715595Y-15686595D01*
X5715595Y-15686595D02*
X5706071Y-15705643D01*
X5706071Y-15705643D02*
X5696548Y-15715167D01*
X5696548Y-15715167D02*
X5677500Y-15724690D01*
X5677500Y-15724690D02*
X5639405Y-15724690D01*
X5639405Y-15724690D02*
X5620357Y-15734214D01*
X5620357Y-15734214D02*
X5610833Y-15743738D01*
X5610833Y-15743738D02*
X5601309Y-15762786D01*
X5601309Y-15762786D02*
X5601309Y-15800881D01*
X5601309Y-15800881D02*
X5610833Y-15819928D01*
X5610833Y-15819928D02*
X5620357Y-15829452D01*
X5620357Y-15829452D02*
X5639405Y-15838976D01*
X5639405Y-15838976D02*
X5677500Y-15838976D01*
X5677500Y-15838976D02*
X5696548Y-15829452D01*
X5696548Y-15829452D02*
X5706071Y-15819928D01*
X5706071Y-15819928D02*
X5715595Y-15800881D01*
X5715595Y-15800881D02*
X5715595Y-15762786D01*
X5715595Y-15762786D02*
X5706071Y-15743738D01*
X5706071Y-15743738D02*
X5696548Y-15734214D01*
X5696548Y-15734214D02*
X5677500Y-15724690D01*
X5839405Y-15638976D02*
X5858452Y-15638976D01*
X5858452Y-15638976D02*
X5877500Y-15648500D01*
X5877500Y-15648500D02*
X5887024Y-15658024D01*
X5887024Y-15658024D02*
X5896548Y-15677071D01*
X5896548Y-15677071D02*
X5906071Y-15715167D01*
X5906071Y-15715167D02*
X5906071Y-15762786D01*
X5906071Y-15762786D02*
X5896548Y-15800881D01*
X5896548Y-15800881D02*
X5887024Y-15819928D01*
X5887024Y-15819928D02*
X5877500Y-15829452D01*
X5877500Y-15829452D02*
X5858452Y-15838976D01*
X5858452Y-15838976D02*
X5839405Y-15838976D01*
X5839405Y-15838976D02*
X5820357Y-15829452D01*
X5820357Y-15829452D02*
X5810833Y-15819928D01*
X5810833Y-15819928D02*
X5801309Y-15800881D01*
X5801309Y-15800881D02*
X5791786Y-15762786D01*
X5791786Y-15762786D02*
X5791786Y-15715167D01*
X5791786Y-15715167D02*
X5801309Y-15677071D01*
X5801309Y-15677071D02*
X5810833Y-15658024D01*
X5810833Y-15658024D02*
X5820357Y-15648500D01*
X5820357Y-15648500D02*
X5839405Y-15638976D01*
X6029881Y-15638976D02*
X6048929Y-15638976D01*
X6048929Y-15638976D02*
X6067976Y-15648500D01*
X6067976Y-15648500D02*
X6077500Y-15658024D01*
X6077500Y-15658024D02*
X6087024Y-15677071D01*
X6087024Y-15677071D02*
X6096548Y-15715167D01*
X6096548Y-15715167D02*
X6096548Y-15762786D01*
X6096548Y-15762786D02*
X6087024Y-15800881D01*
X6087024Y-15800881D02*
X6077500Y-15819928D01*
X6077500Y-15819928D02*
X6067976Y-15829452D01*
X6067976Y-15829452D02*
X6048929Y-15838976D01*
X6048929Y-15838976D02*
X6029881Y-15838976D01*
X6029881Y-15838976D02*
X6010833Y-15829452D01*
X6010833Y-15829452D02*
X6001309Y-15819928D01*
X6001309Y-15819928D02*
X5991786Y-15800881D01*
X5991786Y-15800881D02*
X5982262Y-15762786D01*
X5982262Y-15762786D02*
X5982262Y-15715167D01*
X5982262Y-15715167D02*
X5991786Y-15677071D01*
X5991786Y-15677071D02*
X6001309Y-15658024D01*
X6001309Y-15658024D02*
X6010833Y-15648500D01*
X6010833Y-15648500D02*
X6029881Y-15638976D01*
X6182262Y-15838976D02*
X6182262Y-15705643D01*
X6182262Y-15724690D02*
X6191786Y-15715167D01*
X6191786Y-15715167D02*
X6210833Y-15705643D01*
X6210833Y-15705643D02*
X6239405Y-15705643D01*
X6239405Y-15705643D02*
X6258452Y-15715167D01*
X6258452Y-15715167D02*
X6267976Y-15734214D01*
X6267976Y-15734214D02*
X6267976Y-15838976D01*
X6267976Y-15734214D02*
X6277500Y-15715167D01*
X6277500Y-15715167D02*
X6296548Y-15705643D01*
X6296548Y-15705643D02*
X6325119Y-15705643D01*
X6325119Y-15705643D02*
X6344167Y-15715167D01*
X6344167Y-15715167D02*
X6353690Y-15734214D01*
X6353690Y-15734214D02*
X6353690Y-15838976D01*
X6448929Y-15838976D02*
X6448929Y-15705643D01*
X6448929Y-15724690D02*
X6458452Y-15715167D01*
X6458452Y-15715167D02*
X6477500Y-15705643D01*
X6477500Y-15705643D02*
X6506071Y-15705643D01*
X6506071Y-15705643D02*
X6525119Y-15715167D01*
X6525119Y-15715167D02*
X6534643Y-15734214D01*
X6534643Y-15734214D02*
X6534643Y-15838976D01*
X6534643Y-15734214D02*
X6544167Y-15715167D01*
X6544167Y-15715167D02*
X6563214Y-15705643D01*
X6563214Y-15705643D02*
X6591786Y-15705643D01*
X6591786Y-15705643D02*
X6610833Y-15715167D01*
X6610833Y-15715167D02*
X6620357Y-15734214D01*
X6620357Y-15734214D02*
X6620357Y-15838976D01*
X6978452Y-15629452D02*
X6807024Y-15886595D01*
X7203214Y-15638976D02*
X7222262Y-15638976D01*
X7222262Y-15638976D02*
X7241310Y-15648500D01*
X7241310Y-15648500D02*
X7250833Y-15658024D01*
X7250833Y-15658024D02*
X7260357Y-15677071D01*
X7260357Y-15677071D02*
X7269881Y-15715167D01*
X7269881Y-15715167D02*
X7269881Y-15762786D01*
X7269881Y-15762786D02*
X7260357Y-15800881D01*
X7260357Y-15800881D02*
X7250833Y-15819928D01*
X7250833Y-15819928D02*
X7241310Y-15829452D01*
X7241310Y-15829452D02*
X7222262Y-15838976D01*
X7222262Y-15838976D02*
X7203214Y-15838976D01*
X7203214Y-15838976D02*
X7184167Y-15829452D01*
X7184167Y-15829452D02*
X7174643Y-15819928D01*
X7174643Y-15819928D02*
X7165119Y-15800881D01*
X7165119Y-15800881D02*
X7155595Y-15762786D01*
X7155595Y-15762786D02*
X7155595Y-15715167D01*
X7155595Y-15715167D02*
X7165119Y-15677071D01*
X7165119Y-15677071D02*
X7174643Y-15658024D01*
X7174643Y-15658024D02*
X7184167Y-15648500D01*
X7184167Y-15648500D02*
X7203214Y-15638976D01*
X7355595Y-15819928D02*
X7365119Y-15829452D01*
X7365119Y-15829452D02*
X7355595Y-15838976D01*
X7355595Y-15838976D02*
X7346071Y-15829452D01*
X7346071Y-15829452D02*
X7355595Y-15819928D01*
X7355595Y-15819928D02*
X7355595Y-15838976D01*
X7488929Y-15638976D02*
X7507976Y-15638976D01*
X7507976Y-15638976D02*
X7527024Y-15648500D01*
X7527024Y-15648500D02*
X7536548Y-15658024D01*
X7536548Y-15658024D02*
X7546071Y-15677071D01*
X7546071Y-15677071D02*
X7555595Y-15715167D01*
X7555595Y-15715167D02*
X7555595Y-15762786D01*
X7555595Y-15762786D02*
X7546071Y-15800881D01*
X7546071Y-15800881D02*
X7536548Y-15819928D01*
X7536548Y-15819928D02*
X7527024Y-15829452D01*
X7527024Y-15829452D02*
X7507976Y-15838976D01*
X7507976Y-15838976D02*
X7488929Y-15838976D01*
X7488929Y-15838976D02*
X7469881Y-15829452D01*
X7469881Y-15829452D02*
X7460357Y-15819928D01*
X7460357Y-15819928D02*
X7450833Y-15800881D01*
X7450833Y-15800881D02*
X7441310Y-15762786D01*
X7441310Y-15762786D02*
X7441310Y-15715167D01*
X7441310Y-15715167D02*
X7450833Y-15677071D01*
X7450833Y-15677071D02*
X7460357Y-15658024D01*
X7460357Y-15658024D02*
X7469881Y-15648500D01*
X7469881Y-15648500D02*
X7488929Y-15638976D01*
X7622262Y-15638976D02*
X7746071Y-15638976D01*
X7746071Y-15638976D02*
X7679405Y-15715167D01*
X7679405Y-15715167D02*
X7707976Y-15715167D01*
X7707976Y-15715167D02*
X7727024Y-15724690D01*
X7727024Y-15724690D02*
X7736548Y-15734214D01*
X7736548Y-15734214D02*
X7746071Y-15753262D01*
X7746071Y-15753262D02*
X7746071Y-15800881D01*
X7746071Y-15800881D02*
X7736548Y-15819928D01*
X7736548Y-15819928D02*
X7727024Y-15829452D01*
X7727024Y-15829452D02*
X7707976Y-15838976D01*
X7707976Y-15838976D02*
X7650833Y-15838976D01*
X7650833Y-15838976D02*
X7631786Y-15829452D01*
X7631786Y-15829452D02*
X7622262Y-15819928D01*
X7936548Y-15838976D02*
X7822262Y-15838976D01*
X7879405Y-15838976D02*
X7879405Y-15638976D01*
X7879405Y-15638976D02*
X7860357Y-15667548D01*
X7860357Y-15667548D02*
X7841310Y-15686595D01*
X7841310Y-15686595D02*
X7822262Y-15696119D01*
X8117500Y-15638976D02*
X8022262Y-15638976D01*
X8022262Y-15638976D02*
X8012738Y-15734214D01*
X8012738Y-15734214D02*
X8022262Y-15724690D01*
X8022262Y-15724690D02*
X8041310Y-15715167D01*
X8041310Y-15715167D02*
X8088929Y-15715167D01*
X8088929Y-15715167D02*
X8107976Y-15724690D01*
X8107976Y-15724690D02*
X8117500Y-15734214D01*
X8117500Y-15734214D02*
X8127024Y-15753262D01*
X8127024Y-15753262D02*
X8127024Y-15800881D01*
X8127024Y-15800881D02*
X8117500Y-15819928D01*
X8117500Y-15819928D02*
X8107976Y-15829452D01*
X8107976Y-15829452D02*
X8088929Y-15838976D01*
X8088929Y-15838976D02*
X8041310Y-15838976D01*
X8041310Y-15838976D02*
X8022262Y-15829452D01*
X8022262Y-15829452D02*
X8012738Y-15819928D01*
X8203214Y-15638976D02*
X8203214Y-15677071D01*
X8279405Y-15638976D02*
X8279405Y-15677071D01*
X8542262Y-15915167D02*
X8532738Y-15905643D01*
X8532738Y-15905643D02*
X8513691Y-15877071D01*
X8513691Y-15877071D02*
X8504167Y-15858024D01*
X8504167Y-15858024D02*
X8494643Y-15829452D01*
X8494643Y-15829452D02*
X8485119Y-15781833D01*
X8485119Y-15781833D02*
X8485119Y-15743738D01*
X8485119Y-15743738D02*
X8494643Y-15696119D01*
X8494643Y-15696119D02*
X8504167Y-15667548D01*
X8504167Y-15667548D02*
X8513691Y-15648500D01*
X8513691Y-15648500D02*
X8532738Y-15619928D01*
X8532738Y-15619928D02*
X8542262Y-15610405D01*
X8608929Y-15658024D02*
X8618453Y-15648500D01*
X8618453Y-15648500D02*
X8637500Y-15638976D01*
X8637500Y-15638976D02*
X8685119Y-15638976D01*
X8685119Y-15638976D02*
X8704167Y-15648500D01*
X8704167Y-15648500D02*
X8713691Y-15658024D01*
X8713691Y-15658024D02*
X8723214Y-15677071D01*
X8723214Y-15677071D02*
X8723214Y-15696119D01*
X8723214Y-15696119D02*
X8713691Y-15724690D01*
X8713691Y-15724690D02*
X8599405Y-15838976D01*
X8599405Y-15838976D02*
X8723214Y-15838976D01*
X8837500Y-15724690D02*
X8818453Y-15715167D01*
X8818453Y-15715167D02*
X8808929Y-15705643D01*
X8808929Y-15705643D02*
X8799405Y-15686595D01*
X8799405Y-15686595D02*
X8799405Y-15677071D01*
X8799405Y-15677071D02*
X8808929Y-15658024D01*
X8808929Y-15658024D02*
X8818453Y-15648500D01*
X8818453Y-15648500D02*
X8837500Y-15638976D01*
X8837500Y-15638976D02*
X8875595Y-15638976D01*
X8875595Y-15638976D02*
X8894643Y-15648500D01*
X8894643Y-15648500D02*
X8904167Y-15658024D01*
X8904167Y-15658024D02*
X8913691Y-15677071D01*
X8913691Y-15677071D02*
X8913691Y-15686595D01*
X8913691Y-15686595D02*
X8904167Y-15705643D01*
X8904167Y-15705643D02*
X8894643Y-15715167D01*
X8894643Y-15715167D02*
X8875595Y-15724690D01*
X8875595Y-15724690D02*
X8837500Y-15724690D01*
X8837500Y-15724690D02*
X8818453Y-15734214D01*
X8818453Y-15734214D02*
X8808929Y-15743738D01*
X8808929Y-15743738D02*
X8799405Y-15762786D01*
X8799405Y-15762786D02*
X8799405Y-15800881D01*
X8799405Y-15800881D02*
X8808929Y-15819928D01*
X8808929Y-15819928D02*
X8818453Y-15829452D01*
X8818453Y-15829452D02*
X8837500Y-15838976D01*
X8837500Y-15838976D02*
X8875595Y-15838976D01*
X8875595Y-15838976D02*
X8894643Y-15829452D01*
X8894643Y-15829452D02*
X8904167Y-15819928D01*
X8904167Y-15819928D02*
X8913691Y-15800881D01*
X8913691Y-15800881D02*
X8913691Y-15762786D01*
X8913691Y-15762786D02*
X8904167Y-15743738D01*
X8904167Y-15743738D02*
X8894643Y-15734214D01*
X8894643Y-15734214D02*
X8875595Y-15724690D01*
X8989881Y-15658024D02*
X8999405Y-15648500D01*
X8999405Y-15648500D02*
X9018453Y-15638976D01*
X9018453Y-15638976D02*
X9066072Y-15638976D01*
X9066072Y-15638976D02*
X9085119Y-15648500D01*
X9085119Y-15648500D02*
X9094643Y-15658024D01*
X9094643Y-15658024D02*
X9104167Y-15677071D01*
X9104167Y-15677071D02*
X9104167Y-15696119D01*
X9104167Y-15696119D02*
X9094643Y-15724690D01*
X9094643Y-15724690D02*
X8980357Y-15838976D01*
X8980357Y-15838976D02*
X9104167Y-15838976D01*
X9309881Y-15838976D02*
X9309881Y-15638976D01*
X9395595Y-15838976D02*
X9395595Y-15734214D01*
X9395595Y-15734214D02*
X9386072Y-15715167D01*
X9386072Y-15715167D02*
X9367024Y-15705643D01*
X9367024Y-15705643D02*
X9338453Y-15705643D01*
X9338453Y-15705643D02*
X9319405Y-15715167D01*
X9319405Y-15715167D02*
X9309881Y-15724690D01*
X9519405Y-15838976D02*
X9500357Y-15829452D01*
X9500357Y-15829452D02*
X9490834Y-15819928D01*
X9490834Y-15819928D02*
X9481310Y-15800881D01*
X9481310Y-15800881D02*
X9481310Y-15743738D01*
X9481310Y-15743738D02*
X9490834Y-15724690D01*
X9490834Y-15724690D02*
X9500357Y-15715167D01*
X9500357Y-15715167D02*
X9519405Y-15705643D01*
X9519405Y-15705643D02*
X9547976Y-15705643D01*
X9547976Y-15705643D02*
X9567024Y-15715167D01*
X9567024Y-15715167D02*
X9576548Y-15724690D01*
X9576548Y-15724690D02*
X9586072Y-15743738D01*
X9586072Y-15743738D02*
X9586072Y-15800881D01*
X9586072Y-15800881D02*
X9576548Y-15819928D01*
X9576548Y-15819928D02*
X9567024Y-15829452D01*
X9567024Y-15829452D02*
X9547976Y-15838976D01*
X9547976Y-15838976D02*
X9519405Y-15838976D01*
X9700357Y-15838976D02*
X9681310Y-15829452D01*
X9681310Y-15829452D02*
X9671786Y-15810405D01*
X9671786Y-15810405D02*
X9671786Y-15638976D01*
X9852738Y-15829452D02*
X9833691Y-15838976D01*
X9833691Y-15838976D02*
X9795595Y-15838976D01*
X9795595Y-15838976D02*
X9776548Y-15829452D01*
X9776548Y-15829452D02*
X9767024Y-15810405D01*
X9767024Y-15810405D02*
X9767024Y-15734214D01*
X9767024Y-15734214D02*
X9776548Y-15715167D01*
X9776548Y-15715167D02*
X9795595Y-15705643D01*
X9795595Y-15705643D02*
X9833691Y-15705643D01*
X9833691Y-15705643D02*
X9852738Y-15715167D01*
X9852738Y-15715167D02*
X9862262Y-15734214D01*
X9862262Y-15734214D02*
X9862262Y-15753262D01*
X9862262Y-15753262D02*
X9767024Y-15772309D01*
X9938453Y-15829452D02*
X9957500Y-15838976D01*
X9957500Y-15838976D02*
X9995595Y-15838976D01*
X9995595Y-15838976D02*
X10014643Y-15829452D01*
X10014643Y-15829452D02*
X10024167Y-15810405D01*
X10024167Y-15810405D02*
X10024167Y-15800881D01*
X10024167Y-15800881D02*
X10014643Y-15781833D01*
X10014643Y-15781833D02*
X9995595Y-15772309D01*
X9995595Y-15772309D02*
X9967024Y-15772309D01*
X9967024Y-15772309D02*
X9947976Y-15762786D01*
X9947976Y-15762786D02*
X9938453Y-15743738D01*
X9938453Y-15743738D02*
X9938453Y-15734214D01*
X9938453Y-15734214D02*
X9947976Y-15715167D01*
X9947976Y-15715167D02*
X9967024Y-15705643D01*
X9967024Y-15705643D02*
X9995595Y-15705643D01*
X9995595Y-15705643D02*
X10014643Y-15715167D01*
X10090834Y-15915167D02*
X10100357Y-15905643D01*
X10100357Y-15905643D02*
X10119405Y-15877071D01*
X10119405Y-15877071D02*
X10128929Y-15858024D01*
X10128929Y-15858024D02*
X10138453Y-15829452D01*
X10138453Y-15829452D02*
X10147976Y-15781833D01*
X10147976Y-15781833D02*
X10147976Y-15743738D01*
X10147976Y-15743738D02*
X10138453Y-15696119D01*
X10138453Y-15696119D02*
X10128929Y-15667548D01*
X10128929Y-15667548D02*
X10119405Y-15648500D01*
X10119405Y-15648500D02*
X10100357Y-15619928D01*
X10100357Y-15619928D02*
X10090834Y-15610405D01*
D14*
X5032500Y-15984500D02*
X5032500Y-16074500D01*
X4987500Y-16029500D02*
X5077500Y-16029500D01*
D11*
X5363214Y-15902976D02*
X5382262Y-15902976D01*
X5382262Y-15902976D02*
X5401310Y-15912500D01*
X5401310Y-15912500D02*
X5410833Y-15922024D01*
X5410833Y-15922024D02*
X5420357Y-15941071D01*
X5420357Y-15941071D02*
X5429881Y-15979167D01*
X5429881Y-15979167D02*
X5429881Y-16026786D01*
X5429881Y-16026786D02*
X5420357Y-16064881D01*
X5420357Y-16064881D02*
X5410833Y-16083928D01*
X5410833Y-16083928D02*
X5401310Y-16093452D01*
X5401310Y-16093452D02*
X5382262Y-16102976D01*
X5382262Y-16102976D02*
X5363214Y-16102976D01*
X5363214Y-16102976D02*
X5344167Y-16093452D01*
X5344167Y-16093452D02*
X5334643Y-16083928D01*
X5334643Y-16083928D02*
X5325119Y-16064881D01*
X5325119Y-16064881D02*
X5315595Y-16026786D01*
X5315595Y-16026786D02*
X5315595Y-15979167D01*
X5315595Y-15979167D02*
X5325119Y-15941071D01*
X5325119Y-15941071D02*
X5334643Y-15922024D01*
X5334643Y-15922024D02*
X5344167Y-15912500D01*
X5344167Y-15912500D02*
X5363214Y-15902976D01*
X5515595Y-16083928D02*
X5525119Y-16093452D01*
X5525119Y-16093452D02*
X5515595Y-16102976D01*
X5515595Y-16102976D02*
X5506071Y-16093452D01*
X5506071Y-16093452D02*
X5515595Y-16083928D01*
X5515595Y-16083928D02*
X5515595Y-16102976D01*
X5620357Y-16102976D02*
X5658452Y-16102976D01*
X5658452Y-16102976D02*
X5677500Y-16093452D01*
X5677500Y-16093452D02*
X5687024Y-16083928D01*
X5687024Y-16083928D02*
X5706071Y-16055357D01*
X5706071Y-16055357D02*
X5715595Y-16017262D01*
X5715595Y-16017262D02*
X5715595Y-15941071D01*
X5715595Y-15941071D02*
X5706071Y-15922024D01*
X5706071Y-15922024D02*
X5696548Y-15912500D01*
X5696548Y-15912500D02*
X5677500Y-15902976D01*
X5677500Y-15902976D02*
X5639405Y-15902976D01*
X5639405Y-15902976D02*
X5620357Y-15912500D01*
X5620357Y-15912500D02*
X5610833Y-15922024D01*
X5610833Y-15922024D02*
X5601309Y-15941071D01*
X5601309Y-15941071D02*
X5601309Y-15988690D01*
X5601309Y-15988690D02*
X5610833Y-16007738D01*
X5610833Y-16007738D02*
X5620357Y-16017262D01*
X5620357Y-16017262D02*
X5639405Y-16026786D01*
X5639405Y-16026786D02*
X5677500Y-16026786D01*
X5677500Y-16026786D02*
X5696548Y-16017262D01*
X5696548Y-16017262D02*
X5706071Y-16007738D01*
X5706071Y-16007738D02*
X5715595Y-15988690D01*
X5839405Y-15902976D02*
X5858452Y-15902976D01*
X5858452Y-15902976D02*
X5877500Y-15912500D01*
X5877500Y-15912500D02*
X5887024Y-15922024D01*
X5887024Y-15922024D02*
X5896548Y-15941071D01*
X5896548Y-15941071D02*
X5906071Y-15979167D01*
X5906071Y-15979167D02*
X5906071Y-16026786D01*
X5906071Y-16026786D02*
X5896548Y-16064881D01*
X5896548Y-16064881D02*
X5887024Y-16083928D01*
X5887024Y-16083928D02*
X5877500Y-16093452D01*
X5877500Y-16093452D02*
X5858452Y-16102976D01*
X5858452Y-16102976D02*
X5839405Y-16102976D01*
X5839405Y-16102976D02*
X5820357Y-16093452D01*
X5820357Y-16093452D02*
X5810833Y-16083928D01*
X5810833Y-16083928D02*
X5801309Y-16064881D01*
X5801309Y-16064881D02*
X5791786Y-16026786D01*
X5791786Y-16026786D02*
X5791786Y-15979167D01*
X5791786Y-15979167D02*
X5801309Y-15941071D01*
X5801309Y-15941071D02*
X5810833Y-15922024D01*
X5810833Y-15922024D02*
X5820357Y-15912500D01*
X5820357Y-15912500D02*
X5839405Y-15902976D01*
X6029881Y-15902976D02*
X6048929Y-15902976D01*
X6048929Y-15902976D02*
X6067976Y-15912500D01*
X6067976Y-15912500D02*
X6077500Y-15922024D01*
X6077500Y-15922024D02*
X6087024Y-15941071D01*
X6087024Y-15941071D02*
X6096548Y-15979167D01*
X6096548Y-15979167D02*
X6096548Y-16026786D01*
X6096548Y-16026786D02*
X6087024Y-16064881D01*
X6087024Y-16064881D02*
X6077500Y-16083928D01*
X6077500Y-16083928D02*
X6067976Y-16093452D01*
X6067976Y-16093452D02*
X6048929Y-16102976D01*
X6048929Y-16102976D02*
X6029881Y-16102976D01*
X6029881Y-16102976D02*
X6010833Y-16093452D01*
X6010833Y-16093452D02*
X6001309Y-16083928D01*
X6001309Y-16083928D02*
X5991786Y-16064881D01*
X5991786Y-16064881D02*
X5982262Y-16026786D01*
X5982262Y-16026786D02*
X5982262Y-15979167D01*
X5982262Y-15979167D02*
X5991786Y-15941071D01*
X5991786Y-15941071D02*
X6001309Y-15922024D01*
X6001309Y-15922024D02*
X6010833Y-15912500D01*
X6010833Y-15912500D02*
X6029881Y-15902976D01*
X6182262Y-16102976D02*
X6182262Y-15969643D01*
X6182262Y-15988690D02*
X6191786Y-15979167D01*
X6191786Y-15979167D02*
X6210833Y-15969643D01*
X6210833Y-15969643D02*
X6239405Y-15969643D01*
X6239405Y-15969643D02*
X6258452Y-15979167D01*
X6258452Y-15979167D02*
X6267976Y-15998214D01*
X6267976Y-15998214D02*
X6267976Y-16102976D01*
X6267976Y-15998214D02*
X6277500Y-15979167D01*
X6277500Y-15979167D02*
X6296548Y-15969643D01*
X6296548Y-15969643D02*
X6325119Y-15969643D01*
X6325119Y-15969643D02*
X6344167Y-15979167D01*
X6344167Y-15979167D02*
X6353690Y-15998214D01*
X6353690Y-15998214D02*
X6353690Y-16102976D01*
X6448929Y-16102976D02*
X6448929Y-15969643D01*
X6448929Y-15988690D02*
X6458452Y-15979167D01*
X6458452Y-15979167D02*
X6477500Y-15969643D01*
X6477500Y-15969643D02*
X6506071Y-15969643D01*
X6506071Y-15969643D02*
X6525119Y-15979167D01*
X6525119Y-15979167D02*
X6534643Y-15998214D01*
X6534643Y-15998214D02*
X6534643Y-16102976D01*
X6534643Y-15998214D02*
X6544167Y-15979167D01*
X6544167Y-15979167D02*
X6563214Y-15969643D01*
X6563214Y-15969643D02*
X6591786Y-15969643D01*
X6591786Y-15969643D02*
X6610833Y-15979167D01*
X6610833Y-15979167D02*
X6620357Y-15998214D01*
X6620357Y-15998214D02*
X6620357Y-16102976D01*
X6978452Y-15893452D02*
X6807024Y-16150595D01*
X7203214Y-15902976D02*
X7222262Y-15902976D01*
X7222262Y-15902976D02*
X7241310Y-15912500D01*
X7241310Y-15912500D02*
X7250833Y-15922024D01*
X7250833Y-15922024D02*
X7260357Y-15941071D01*
X7260357Y-15941071D02*
X7269881Y-15979167D01*
X7269881Y-15979167D02*
X7269881Y-16026786D01*
X7269881Y-16026786D02*
X7260357Y-16064881D01*
X7260357Y-16064881D02*
X7250833Y-16083928D01*
X7250833Y-16083928D02*
X7241310Y-16093452D01*
X7241310Y-16093452D02*
X7222262Y-16102976D01*
X7222262Y-16102976D02*
X7203214Y-16102976D01*
X7203214Y-16102976D02*
X7184167Y-16093452D01*
X7184167Y-16093452D02*
X7174643Y-16083928D01*
X7174643Y-16083928D02*
X7165119Y-16064881D01*
X7165119Y-16064881D02*
X7155595Y-16026786D01*
X7155595Y-16026786D02*
X7155595Y-15979167D01*
X7155595Y-15979167D02*
X7165119Y-15941071D01*
X7165119Y-15941071D02*
X7174643Y-15922024D01*
X7174643Y-15922024D02*
X7184167Y-15912500D01*
X7184167Y-15912500D02*
X7203214Y-15902976D01*
X7355595Y-16083928D02*
X7365119Y-16093452D01*
X7365119Y-16093452D02*
X7355595Y-16102976D01*
X7355595Y-16102976D02*
X7346071Y-16093452D01*
X7346071Y-16093452D02*
X7355595Y-16083928D01*
X7355595Y-16083928D02*
X7355595Y-16102976D01*
X7488929Y-15902976D02*
X7507976Y-15902976D01*
X7507976Y-15902976D02*
X7527024Y-15912500D01*
X7527024Y-15912500D02*
X7536548Y-15922024D01*
X7536548Y-15922024D02*
X7546071Y-15941071D01*
X7546071Y-15941071D02*
X7555595Y-15979167D01*
X7555595Y-15979167D02*
X7555595Y-16026786D01*
X7555595Y-16026786D02*
X7546071Y-16064881D01*
X7546071Y-16064881D02*
X7536548Y-16083928D01*
X7536548Y-16083928D02*
X7527024Y-16093452D01*
X7527024Y-16093452D02*
X7507976Y-16102976D01*
X7507976Y-16102976D02*
X7488929Y-16102976D01*
X7488929Y-16102976D02*
X7469881Y-16093452D01*
X7469881Y-16093452D02*
X7460357Y-16083928D01*
X7460357Y-16083928D02*
X7450833Y-16064881D01*
X7450833Y-16064881D02*
X7441310Y-16026786D01*
X7441310Y-16026786D02*
X7441310Y-15979167D01*
X7441310Y-15979167D02*
X7450833Y-15941071D01*
X7450833Y-15941071D02*
X7460357Y-15922024D01*
X7460357Y-15922024D02*
X7469881Y-15912500D01*
X7469881Y-15912500D02*
X7488929Y-15902976D01*
X7622262Y-15902976D02*
X7746071Y-15902976D01*
X7746071Y-15902976D02*
X7679405Y-15979167D01*
X7679405Y-15979167D02*
X7707976Y-15979167D01*
X7707976Y-15979167D02*
X7727024Y-15988690D01*
X7727024Y-15988690D02*
X7736548Y-15998214D01*
X7736548Y-15998214D02*
X7746071Y-16017262D01*
X7746071Y-16017262D02*
X7746071Y-16064881D01*
X7746071Y-16064881D02*
X7736548Y-16083928D01*
X7736548Y-16083928D02*
X7727024Y-16093452D01*
X7727024Y-16093452D02*
X7707976Y-16102976D01*
X7707976Y-16102976D02*
X7650833Y-16102976D01*
X7650833Y-16102976D02*
X7631786Y-16093452D01*
X7631786Y-16093452D02*
X7622262Y-16083928D01*
X7927024Y-15902976D02*
X7831786Y-15902976D01*
X7831786Y-15902976D02*
X7822262Y-15998214D01*
X7822262Y-15998214D02*
X7831786Y-15988690D01*
X7831786Y-15988690D02*
X7850833Y-15979167D01*
X7850833Y-15979167D02*
X7898452Y-15979167D01*
X7898452Y-15979167D02*
X7917500Y-15988690D01*
X7917500Y-15988690D02*
X7927024Y-15998214D01*
X7927024Y-15998214D02*
X7936548Y-16017262D01*
X7936548Y-16017262D02*
X7936548Y-16064881D01*
X7936548Y-16064881D02*
X7927024Y-16083928D01*
X7927024Y-16083928D02*
X7917500Y-16093452D01*
X7917500Y-16093452D02*
X7898452Y-16102976D01*
X7898452Y-16102976D02*
X7850833Y-16102976D01*
X7850833Y-16102976D02*
X7831786Y-16093452D01*
X7831786Y-16093452D02*
X7822262Y-16083928D01*
X8107976Y-15969643D02*
X8107976Y-16102976D01*
X8060357Y-15893452D02*
X8012738Y-16036309D01*
X8012738Y-16036309D02*
X8136548Y-16036309D01*
X8203214Y-15902976D02*
X8203214Y-15941071D01*
X8279405Y-15902976D02*
X8279405Y-15941071D01*
X8542262Y-16179167D02*
X8532738Y-16169643D01*
X8532738Y-16169643D02*
X8513691Y-16141071D01*
X8513691Y-16141071D02*
X8504167Y-16122024D01*
X8504167Y-16122024D02*
X8494643Y-16093452D01*
X8494643Y-16093452D02*
X8485119Y-16045833D01*
X8485119Y-16045833D02*
X8485119Y-16007738D01*
X8485119Y-16007738D02*
X8494643Y-15960119D01*
X8494643Y-15960119D02*
X8504167Y-15931548D01*
X8504167Y-15931548D02*
X8513691Y-15912500D01*
X8513691Y-15912500D02*
X8532738Y-15883928D01*
X8532738Y-15883928D02*
X8542262Y-15874405D01*
X8599405Y-15902976D02*
X8723214Y-15902976D01*
X8723214Y-15902976D02*
X8656548Y-15979167D01*
X8656548Y-15979167D02*
X8685119Y-15979167D01*
X8685119Y-15979167D02*
X8704167Y-15988690D01*
X8704167Y-15988690D02*
X8713691Y-15998214D01*
X8713691Y-15998214D02*
X8723214Y-16017262D01*
X8723214Y-16017262D02*
X8723214Y-16064881D01*
X8723214Y-16064881D02*
X8713691Y-16083928D01*
X8713691Y-16083928D02*
X8704167Y-16093452D01*
X8704167Y-16093452D02*
X8685119Y-16102976D01*
X8685119Y-16102976D02*
X8627976Y-16102976D01*
X8627976Y-16102976D02*
X8608929Y-16093452D01*
X8608929Y-16093452D02*
X8599405Y-16083928D01*
X8799405Y-15922024D02*
X8808929Y-15912500D01*
X8808929Y-15912500D02*
X8827976Y-15902976D01*
X8827976Y-15902976D02*
X8875595Y-15902976D01*
X8875595Y-15902976D02*
X8894643Y-15912500D01*
X8894643Y-15912500D02*
X8904167Y-15922024D01*
X8904167Y-15922024D02*
X8913691Y-15941071D01*
X8913691Y-15941071D02*
X8913691Y-15960119D01*
X8913691Y-15960119D02*
X8904167Y-15988690D01*
X8904167Y-15988690D02*
X8789881Y-16102976D01*
X8789881Y-16102976D02*
X8913691Y-16102976D01*
X9119405Y-16102976D02*
X9119405Y-15902976D01*
X9205119Y-16102976D02*
X9205119Y-15998214D01*
X9205119Y-15998214D02*
X9195595Y-15979167D01*
X9195595Y-15979167D02*
X9176548Y-15969643D01*
X9176548Y-15969643D02*
X9147976Y-15969643D01*
X9147976Y-15969643D02*
X9128929Y-15979167D01*
X9128929Y-15979167D02*
X9119405Y-15988690D01*
X9328929Y-16102976D02*
X9309881Y-16093452D01*
X9309881Y-16093452D02*
X9300357Y-16083928D01*
X9300357Y-16083928D02*
X9290834Y-16064881D01*
X9290834Y-16064881D02*
X9290834Y-16007738D01*
X9290834Y-16007738D02*
X9300357Y-15988690D01*
X9300357Y-15988690D02*
X9309881Y-15979167D01*
X9309881Y-15979167D02*
X9328929Y-15969643D01*
X9328929Y-15969643D02*
X9357500Y-15969643D01*
X9357500Y-15969643D02*
X9376548Y-15979167D01*
X9376548Y-15979167D02*
X9386072Y-15988690D01*
X9386072Y-15988690D02*
X9395595Y-16007738D01*
X9395595Y-16007738D02*
X9395595Y-16064881D01*
X9395595Y-16064881D02*
X9386072Y-16083928D01*
X9386072Y-16083928D02*
X9376548Y-16093452D01*
X9376548Y-16093452D02*
X9357500Y-16102976D01*
X9357500Y-16102976D02*
X9328929Y-16102976D01*
X9509881Y-16102976D02*
X9490834Y-16093452D01*
X9490834Y-16093452D02*
X9481310Y-16074405D01*
X9481310Y-16074405D02*
X9481310Y-15902976D01*
X9662262Y-16093452D02*
X9643215Y-16102976D01*
X9643215Y-16102976D02*
X9605119Y-16102976D01*
X9605119Y-16102976D02*
X9586072Y-16093452D01*
X9586072Y-16093452D02*
X9576548Y-16074405D01*
X9576548Y-16074405D02*
X9576548Y-15998214D01*
X9576548Y-15998214D02*
X9586072Y-15979167D01*
X9586072Y-15979167D02*
X9605119Y-15969643D01*
X9605119Y-15969643D02*
X9643215Y-15969643D01*
X9643215Y-15969643D02*
X9662262Y-15979167D01*
X9662262Y-15979167D02*
X9671786Y-15998214D01*
X9671786Y-15998214D02*
X9671786Y-16017262D01*
X9671786Y-16017262D02*
X9576548Y-16036309D01*
X9747976Y-16093452D02*
X9767024Y-16102976D01*
X9767024Y-16102976D02*
X9805119Y-16102976D01*
X9805119Y-16102976D02*
X9824167Y-16093452D01*
X9824167Y-16093452D02*
X9833691Y-16074405D01*
X9833691Y-16074405D02*
X9833691Y-16064881D01*
X9833691Y-16064881D02*
X9824167Y-16045833D01*
X9824167Y-16045833D02*
X9805119Y-16036309D01*
X9805119Y-16036309D02*
X9776548Y-16036309D01*
X9776548Y-16036309D02*
X9757500Y-16026786D01*
X9757500Y-16026786D02*
X9747976Y-16007738D01*
X9747976Y-16007738D02*
X9747976Y-15998214D01*
X9747976Y-15998214D02*
X9757500Y-15979167D01*
X9757500Y-15979167D02*
X9776548Y-15969643D01*
X9776548Y-15969643D02*
X9805119Y-15969643D01*
X9805119Y-15969643D02*
X9824167Y-15979167D01*
X9900357Y-16179167D02*
X9909881Y-16169643D01*
X9909881Y-16169643D02*
X9928929Y-16141071D01*
X9928929Y-16141071D02*
X9938453Y-16122024D01*
X9938453Y-16122024D02*
X9947976Y-16093452D01*
X9947976Y-16093452D02*
X9957500Y-16045833D01*
X9957500Y-16045833D02*
X9957500Y-16007738D01*
X9957500Y-16007738D02*
X9947976Y-15960119D01*
X9947976Y-15960119D02*
X9938453Y-15931548D01*
X9938453Y-15931548D02*
X9928929Y-15912500D01*
X9928929Y-15912500D02*
X9909881Y-15883928D01*
X9909881Y-15883928D02*
X9900357Y-15874405D01*
D15*
X5062856Y-16328856D02*
X5062856Y-16258144D01*
X4992144Y-16258144D01*
X4992144Y-16328856D01*
X5062856Y-16328856D01*
D11*
X5429881Y-16366976D02*
X5315595Y-16366976D01*
X5372738Y-16366976D02*
X5372738Y-16166976D01*
X5372738Y-16166976D02*
X5353690Y-16195548D01*
X5353690Y-16195548D02*
X5334643Y-16214595D01*
X5334643Y-16214595D02*
X5315595Y-16224119D01*
X5515595Y-16347928D02*
X5525119Y-16357452D01*
X5525119Y-16357452D02*
X5515595Y-16366976D01*
X5515595Y-16366976D02*
X5506071Y-16357452D01*
X5506071Y-16357452D02*
X5515595Y-16347928D01*
X5515595Y-16347928D02*
X5515595Y-16366976D01*
X5648928Y-16166976D02*
X5667976Y-16166976D01*
X5667976Y-16166976D02*
X5687024Y-16176500D01*
X5687024Y-16176500D02*
X5696548Y-16186024D01*
X5696548Y-16186024D02*
X5706071Y-16205071D01*
X5706071Y-16205071D02*
X5715595Y-16243167D01*
X5715595Y-16243167D02*
X5715595Y-16290786D01*
X5715595Y-16290786D02*
X5706071Y-16328881D01*
X5706071Y-16328881D02*
X5696548Y-16347928D01*
X5696548Y-16347928D02*
X5687024Y-16357452D01*
X5687024Y-16357452D02*
X5667976Y-16366976D01*
X5667976Y-16366976D02*
X5648928Y-16366976D01*
X5648928Y-16366976D02*
X5629881Y-16357452D01*
X5629881Y-16357452D02*
X5620357Y-16347928D01*
X5620357Y-16347928D02*
X5610833Y-16328881D01*
X5610833Y-16328881D02*
X5601309Y-16290786D01*
X5601309Y-16290786D02*
X5601309Y-16243167D01*
X5601309Y-16243167D02*
X5610833Y-16205071D01*
X5610833Y-16205071D02*
X5620357Y-16186024D01*
X5620357Y-16186024D02*
X5629881Y-16176500D01*
X5629881Y-16176500D02*
X5648928Y-16166976D01*
X5839405Y-16166976D02*
X5858452Y-16166976D01*
X5858452Y-16166976D02*
X5877500Y-16176500D01*
X5877500Y-16176500D02*
X5887024Y-16186024D01*
X5887024Y-16186024D02*
X5896548Y-16205071D01*
X5896548Y-16205071D02*
X5906071Y-16243167D01*
X5906071Y-16243167D02*
X5906071Y-16290786D01*
X5906071Y-16290786D02*
X5896548Y-16328881D01*
X5896548Y-16328881D02*
X5887024Y-16347928D01*
X5887024Y-16347928D02*
X5877500Y-16357452D01*
X5877500Y-16357452D02*
X5858452Y-16366976D01*
X5858452Y-16366976D02*
X5839405Y-16366976D01*
X5839405Y-16366976D02*
X5820357Y-16357452D01*
X5820357Y-16357452D02*
X5810833Y-16347928D01*
X5810833Y-16347928D02*
X5801309Y-16328881D01*
X5801309Y-16328881D02*
X5791786Y-16290786D01*
X5791786Y-16290786D02*
X5791786Y-16243167D01*
X5791786Y-16243167D02*
X5801309Y-16205071D01*
X5801309Y-16205071D02*
X5810833Y-16186024D01*
X5810833Y-16186024D02*
X5820357Y-16176500D01*
X5820357Y-16176500D02*
X5839405Y-16166976D01*
X6029881Y-16166976D02*
X6048929Y-16166976D01*
X6048929Y-16166976D02*
X6067976Y-16176500D01*
X6067976Y-16176500D02*
X6077500Y-16186024D01*
X6077500Y-16186024D02*
X6087024Y-16205071D01*
X6087024Y-16205071D02*
X6096548Y-16243167D01*
X6096548Y-16243167D02*
X6096548Y-16290786D01*
X6096548Y-16290786D02*
X6087024Y-16328881D01*
X6087024Y-16328881D02*
X6077500Y-16347928D01*
X6077500Y-16347928D02*
X6067976Y-16357452D01*
X6067976Y-16357452D02*
X6048929Y-16366976D01*
X6048929Y-16366976D02*
X6029881Y-16366976D01*
X6029881Y-16366976D02*
X6010833Y-16357452D01*
X6010833Y-16357452D02*
X6001309Y-16347928D01*
X6001309Y-16347928D02*
X5991786Y-16328881D01*
X5991786Y-16328881D02*
X5982262Y-16290786D01*
X5982262Y-16290786D02*
X5982262Y-16243167D01*
X5982262Y-16243167D02*
X5991786Y-16205071D01*
X5991786Y-16205071D02*
X6001309Y-16186024D01*
X6001309Y-16186024D02*
X6010833Y-16176500D01*
X6010833Y-16176500D02*
X6029881Y-16166976D01*
X6182262Y-16366976D02*
X6182262Y-16233643D01*
X6182262Y-16252690D02*
X6191786Y-16243167D01*
X6191786Y-16243167D02*
X6210833Y-16233643D01*
X6210833Y-16233643D02*
X6239405Y-16233643D01*
X6239405Y-16233643D02*
X6258452Y-16243167D01*
X6258452Y-16243167D02*
X6267976Y-16262214D01*
X6267976Y-16262214D02*
X6267976Y-16366976D01*
X6267976Y-16262214D02*
X6277500Y-16243167D01*
X6277500Y-16243167D02*
X6296548Y-16233643D01*
X6296548Y-16233643D02*
X6325119Y-16233643D01*
X6325119Y-16233643D02*
X6344167Y-16243167D01*
X6344167Y-16243167D02*
X6353690Y-16262214D01*
X6353690Y-16262214D02*
X6353690Y-16366976D01*
X6448929Y-16366976D02*
X6448929Y-16233643D01*
X6448929Y-16252690D02*
X6458452Y-16243167D01*
X6458452Y-16243167D02*
X6477500Y-16233643D01*
X6477500Y-16233643D02*
X6506071Y-16233643D01*
X6506071Y-16233643D02*
X6525119Y-16243167D01*
X6525119Y-16243167D02*
X6534643Y-16262214D01*
X6534643Y-16262214D02*
X6534643Y-16366976D01*
X6534643Y-16262214D02*
X6544167Y-16243167D01*
X6544167Y-16243167D02*
X6563214Y-16233643D01*
X6563214Y-16233643D02*
X6591786Y-16233643D01*
X6591786Y-16233643D02*
X6610833Y-16243167D01*
X6610833Y-16243167D02*
X6620357Y-16262214D01*
X6620357Y-16262214D02*
X6620357Y-16366976D01*
X6978452Y-16157452D02*
X6807024Y-16414595D01*
X7203214Y-16166976D02*
X7222262Y-16166976D01*
X7222262Y-16166976D02*
X7241310Y-16176500D01*
X7241310Y-16176500D02*
X7250833Y-16186024D01*
X7250833Y-16186024D02*
X7260357Y-16205071D01*
X7260357Y-16205071D02*
X7269881Y-16243167D01*
X7269881Y-16243167D02*
X7269881Y-16290786D01*
X7269881Y-16290786D02*
X7260357Y-16328881D01*
X7260357Y-16328881D02*
X7250833Y-16347928D01*
X7250833Y-16347928D02*
X7241310Y-16357452D01*
X7241310Y-16357452D02*
X7222262Y-16366976D01*
X7222262Y-16366976D02*
X7203214Y-16366976D01*
X7203214Y-16366976D02*
X7184167Y-16357452D01*
X7184167Y-16357452D02*
X7174643Y-16347928D01*
X7174643Y-16347928D02*
X7165119Y-16328881D01*
X7165119Y-16328881D02*
X7155595Y-16290786D01*
X7155595Y-16290786D02*
X7155595Y-16243167D01*
X7155595Y-16243167D02*
X7165119Y-16205071D01*
X7165119Y-16205071D02*
X7174643Y-16186024D01*
X7174643Y-16186024D02*
X7184167Y-16176500D01*
X7184167Y-16176500D02*
X7203214Y-16166976D01*
X7355595Y-16347928D02*
X7365119Y-16357452D01*
X7365119Y-16357452D02*
X7355595Y-16366976D01*
X7355595Y-16366976D02*
X7346071Y-16357452D01*
X7346071Y-16357452D02*
X7355595Y-16347928D01*
X7355595Y-16347928D02*
X7355595Y-16366976D01*
X7488929Y-16166976D02*
X7507976Y-16166976D01*
X7507976Y-16166976D02*
X7527024Y-16176500D01*
X7527024Y-16176500D02*
X7536548Y-16186024D01*
X7536548Y-16186024D02*
X7546071Y-16205071D01*
X7546071Y-16205071D02*
X7555595Y-16243167D01*
X7555595Y-16243167D02*
X7555595Y-16290786D01*
X7555595Y-16290786D02*
X7546071Y-16328881D01*
X7546071Y-16328881D02*
X7536548Y-16347928D01*
X7536548Y-16347928D02*
X7527024Y-16357452D01*
X7527024Y-16357452D02*
X7507976Y-16366976D01*
X7507976Y-16366976D02*
X7488929Y-16366976D01*
X7488929Y-16366976D02*
X7469881Y-16357452D01*
X7469881Y-16357452D02*
X7460357Y-16347928D01*
X7460357Y-16347928D02*
X7450833Y-16328881D01*
X7450833Y-16328881D02*
X7441310Y-16290786D01*
X7441310Y-16290786D02*
X7441310Y-16243167D01*
X7441310Y-16243167D02*
X7450833Y-16205071D01*
X7450833Y-16205071D02*
X7460357Y-16186024D01*
X7460357Y-16186024D02*
X7469881Y-16176500D01*
X7469881Y-16176500D02*
X7488929Y-16166976D01*
X7622262Y-16166976D02*
X7746071Y-16166976D01*
X7746071Y-16166976D02*
X7679405Y-16243167D01*
X7679405Y-16243167D02*
X7707976Y-16243167D01*
X7707976Y-16243167D02*
X7727024Y-16252690D01*
X7727024Y-16252690D02*
X7736548Y-16262214D01*
X7736548Y-16262214D02*
X7746071Y-16281262D01*
X7746071Y-16281262D02*
X7746071Y-16328881D01*
X7746071Y-16328881D02*
X7736548Y-16347928D01*
X7736548Y-16347928D02*
X7727024Y-16357452D01*
X7727024Y-16357452D02*
X7707976Y-16366976D01*
X7707976Y-16366976D02*
X7650833Y-16366976D01*
X7650833Y-16366976D02*
X7631786Y-16357452D01*
X7631786Y-16357452D02*
X7622262Y-16347928D01*
X7841310Y-16366976D02*
X7879405Y-16366976D01*
X7879405Y-16366976D02*
X7898452Y-16357452D01*
X7898452Y-16357452D02*
X7907976Y-16347928D01*
X7907976Y-16347928D02*
X7927024Y-16319357D01*
X7927024Y-16319357D02*
X7936548Y-16281262D01*
X7936548Y-16281262D02*
X7936548Y-16205071D01*
X7936548Y-16205071D02*
X7927024Y-16186024D01*
X7927024Y-16186024D02*
X7917500Y-16176500D01*
X7917500Y-16176500D02*
X7898452Y-16166976D01*
X7898452Y-16166976D02*
X7860357Y-16166976D01*
X7860357Y-16166976D02*
X7841310Y-16176500D01*
X7841310Y-16176500D02*
X7831786Y-16186024D01*
X7831786Y-16186024D02*
X7822262Y-16205071D01*
X7822262Y-16205071D02*
X7822262Y-16252690D01*
X7822262Y-16252690D02*
X7831786Y-16271738D01*
X7831786Y-16271738D02*
X7841310Y-16281262D01*
X7841310Y-16281262D02*
X7860357Y-16290786D01*
X7860357Y-16290786D02*
X7898452Y-16290786D01*
X7898452Y-16290786D02*
X7917500Y-16281262D01*
X7917500Y-16281262D02*
X7927024Y-16271738D01*
X7927024Y-16271738D02*
X7936548Y-16252690D01*
X8107976Y-16233643D02*
X8107976Y-16366976D01*
X8060357Y-16157452D02*
X8012738Y-16300309D01*
X8012738Y-16300309D02*
X8136548Y-16300309D01*
X8203214Y-16166976D02*
X8203214Y-16205071D01*
X8279405Y-16166976D02*
X8279405Y-16205071D01*
X8542262Y-16443167D02*
X8532738Y-16433643D01*
X8532738Y-16433643D02*
X8513691Y-16405071D01*
X8513691Y-16405071D02*
X8504167Y-16386024D01*
X8504167Y-16386024D02*
X8494643Y-16357452D01*
X8494643Y-16357452D02*
X8485119Y-16309833D01*
X8485119Y-16309833D02*
X8485119Y-16271738D01*
X8485119Y-16271738D02*
X8494643Y-16224119D01*
X8494643Y-16224119D02*
X8504167Y-16195548D01*
X8504167Y-16195548D02*
X8513691Y-16176500D01*
X8513691Y-16176500D02*
X8532738Y-16147928D01*
X8532738Y-16147928D02*
X8542262Y-16138405D01*
X8723214Y-16366976D02*
X8608929Y-16366976D01*
X8666072Y-16366976D02*
X8666072Y-16166976D01*
X8666072Y-16166976D02*
X8647024Y-16195548D01*
X8647024Y-16195548D02*
X8627976Y-16214595D01*
X8627976Y-16214595D02*
X8608929Y-16224119D01*
X8913691Y-16366976D02*
X8799405Y-16366976D01*
X8856548Y-16366976D02*
X8856548Y-16166976D01*
X8856548Y-16166976D02*
X8837500Y-16195548D01*
X8837500Y-16195548D02*
X8818453Y-16214595D01*
X8818453Y-16214595D02*
X8799405Y-16224119D01*
X9104167Y-16366976D02*
X8989881Y-16366976D01*
X9047024Y-16366976D02*
X9047024Y-16166976D01*
X9047024Y-16166976D02*
X9027976Y-16195548D01*
X9027976Y-16195548D02*
X9008929Y-16214595D01*
X9008929Y-16214595D02*
X8989881Y-16224119D01*
X9309881Y-16366976D02*
X9309881Y-16166976D01*
X9395595Y-16366976D02*
X9395595Y-16262214D01*
X9395595Y-16262214D02*
X9386072Y-16243167D01*
X9386072Y-16243167D02*
X9367024Y-16233643D01*
X9367024Y-16233643D02*
X9338453Y-16233643D01*
X9338453Y-16233643D02*
X9319405Y-16243167D01*
X9319405Y-16243167D02*
X9309881Y-16252690D01*
X9519405Y-16366976D02*
X9500357Y-16357452D01*
X9500357Y-16357452D02*
X9490834Y-16347928D01*
X9490834Y-16347928D02*
X9481310Y-16328881D01*
X9481310Y-16328881D02*
X9481310Y-16271738D01*
X9481310Y-16271738D02*
X9490834Y-16252690D01*
X9490834Y-16252690D02*
X9500357Y-16243167D01*
X9500357Y-16243167D02*
X9519405Y-16233643D01*
X9519405Y-16233643D02*
X9547976Y-16233643D01*
X9547976Y-16233643D02*
X9567024Y-16243167D01*
X9567024Y-16243167D02*
X9576548Y-16252690D01*
X9576548Y-16252690D02*
X9586072Y-16271738D01*
X9586072Y-16271738D02*
X9586072Y-16328881D01*
X9586072Y-16328881D02*
X9576548Y-16347928D01*
X9576548Y-16347928D02*
X9567024Y-16357452D01*
X9567024Y-16357452D02*
X9547976Y-16366976D01*
X9547976Y-16366976D02*
X9519405Y-16366976D01*
X9700357Y-16366976D02*
X9681310Y-16357452D01*
X9681310Y-16357452D02*
X9671786Y-16338405D01*
X9671786Y-16338405D02*
X9671786Y-16166976D01*
X9852738Y-16357452D02*
X9833691Y-16366976D01*
X9833691Y-16366976D02*
X9795595Y-16366976D01*
X9795595Y-16366976D02*
X9776548Y-16357452D01*
X9776548Y-16357452D02*
X9767024Y-16338405D01*
X9767024Y-16338405D02*
X9767024Y-16262214D01*
X9767024Y-16262214D02*
X9776548Y-16243167D01*
X9776548Y-16243167D02*
X9795595Y-16233643D01*
X9795595Y-16233643D02*
X9833691Y-16233643D01*
X9833691Y-16233643D02*
X9852738Y-16243167D01*
X9852738Y-16243167D02*
X9862262Y-16262214D01*
X9862262Y-16262214D02*
X9862262Y-16281262D01*
X9862262Y-16281262D02*
X9767024Y-16300309D01*
X9938453Y-16357452D02*
X9957500Y-16366976D01*
X9957500Y-16366976D02*
X9995595Y-16366976D01*
X9995595Y-16366976D02*
X10014643Y-16357452D01*
X10014643Y-16357452D02*
X10024167Y-16338405D01*
X10024167Y-16338405D02*
X10024167Y-16328881D01*
X10024167Y-16328881D02*
X10014643Y-16309833D01*
X10014643Y-16309833D02*
X9995595Y-16300309D01*
X9995595Y-16300309D02*
X9967024Y-16300309D01*
X9967024Y-16300309D02*
X9947976Y-16290786D01*
X9947976Y-16290786D02*
X9938453Y-16271738D01*
X9938453Y-16271738D02*
X9938453Y-16262214D01*
X9938453Y-16262214D02*
X9947976Y-16243167D01*
X9947976Y-16243167D02*
X9967024Y-16233643D01*
X9967024Y-16233643D02*
X9995595Y-16233643D01*
X9995595Y-16233643D02*
X10014643Y-16243167D01*
X10090834Y-16443167D02*
X10100357Y-16433643D01*
X10100357Y-16433643D02*
X10119405Y-16405071D01*
X10119405Y-16405071D02*
X10128929Y-16386024D01*
X10128929Y-16386024D02*
X10138453Y-16357452D01*
X10138453Y-16357452D02*
X10147976Y-16309833D01*
X10147976Y-16309833D02*
X10147976Y-16271738D01*
X10147976Y-16271738D02*
X10138453Y-16224119D01*
X10138453Y-16224119D02*
X10128929Y-16195548D01*
X10128929Y-16195548D02*
X10119405Y-16176500D01*
X10119405Y-16176500D02*
X10100357Y-16147928D01*
X10100357Y-16147928D02*
X10090834Y-16138405D01*
D16*
X5022500Y-16612500D02*
X5077500Y-16557500D01*
X5022500Y-16502500D01*
X4967500Y-16557500D01*
X5022500Y-16612500D01*
D11*
X5429881Y-16630976D02*
X5315595Y-16630976D01*
X5372738Y-16630976D02*
X5372738Y-16430976D01*
X5372738Y-16430976D02*
X5353690Y-16459548D01*
X5353690Y-16459548D02*
X5334643Y-16478595D01*
X5334643Y-16478595D02*
X5315595Y-16488119D01*
X5515595Y-16611928D02*
X5525119Y-16621452D01*
X5525119Y-16621452D02*
X5515595Y-16630976D01*
X5515595Y-16630976D02*
X5506071Y-16621452D01*
X5506071Y-16621452D02*
X5515595Y-16611928D01*
X5515595Y-16611928D02*
X5515595Y-16630976D01*
X5715595Y-16630976D02*
X5601309Y-16630976D01*
X5658452Y-16630976D02*
X5658452Y-16430976D01*
X5658452Y-16430976D02*
X5639405Y-16459548D01*
X5639405Y-16459548D02*
X5620357Y-16478595D01*
X5620357Y-16478595D02*
X5601309Y-16488119D01*
X5839405Y-16430976D02*
X5858452Y-16430976D01*
X5858452Y-16430976D02*
X5877500Y-16440500D01*
X5877500Y-16440500D02*
X5887024Y-16450024D01*
X5887024Y-16450024D02*
X5896548Y-16469071D01*
X5896548Y-16469071D02*
X5906071Y-16507167D01*
X5906071Y-16507167D02*
X5906071Y-16554786D01*
X5906071Y-16554786D02*
X5896548Y-16592881D01*
X5896548Y-16592881D02*
X5887024Y-16611928D01*
X5887024Y-16611928D02*
X5877500Y-16621452D01*
X5877500Y-16621452D02*
X5858452Y-16630976D01*
X5858452Y-16630976D02*
X5839405Y-16630976D01*
X5839405Y-16630976D02*
X5820357Y-16621452D01*
X5820357Y-16621452D02*
X5810833Y-16611928D01*
X5810833Y-16611928D02*
X5801309Y-16592881D01*
X5801309Y-16592881D02*
X5791786Y-16554786D01*
X5791786Y-16554786D02*
X5791786Y-16507167D01*
X5791786Y-16507167D02*
X5801309Y-16469071D01*
X5801309Y-16469071D02*
X5810833Y-16450024D01*
X5810833Y-16450024D02*
X5820357Y-16440500D01*
X5820357Y-16440500D02*
X5839405Y-16430976D01*
X6029881Y-16430976D02*
X6048929Y-16430976D01*
X6048929Y-16430976D02*
X6067976Y-16440500D01*
X6067976Y-16440500D02*
X6077500Y-16450024D01*
X6077500Y-16450024D02*
X6087024Y-16469071D01*
X6087024Y-16469071D02*
X6096548Y-16507167D01*
X6096548Y-16507167D02*
X6096548Y-16554786D01*
X6096548Y-16554786D02*
X6087024Y-16592881D01*
X6087024Y-16592881D02*
X6077500Y-16611928D01*
X6077500Y-16611928D02*
X6067976Y-16621452D01*
X6067976Y-16621452D02*
X6048929Y-16630976D01*
X6048929Y-16630976D02*
X6029881Y-16630976D01*
X6029881Y-16630976D02*
X6010833Y-16621452D01*
X6010833Y-16621452D02*
X6001309Y-16611928D01*
X6001309Y-16611928D02*
X5991786Y-16592881D01*
X5991786Y-16592881D02*
X5982262Y-16554786D01*
X5982262Y-16554786D02*
X5982262Y-16507167D01*
X5982262Y-16507167D02*
X5991786Y-16469071D01*
X5991786Y-16469071D02*
X6001309Y-16450024D01*
X6001309Y-16450024D02*
X6010833Y-16440500D01*
X6010833Y-16440500D02*
X6029881Y-16430976D01*
X6182262Y-16630976D02*
X6182262Y-16497643D01*
X6182262Y-16516690D02*
X6191786Y-16507167D01*
X6191786Y-16507167D02*
X6210833Y-16497643D01*
X6210833Y-16497643D02*
X6239405Y-16497643D01*
X6239405Y-16497643D02*
X6258452Y-16507167D01*
X6258452Y-16507167D02*
X6267976Y-16526214D01*
X6267976Y-16526214D02*
X6267976Y-16630976D01*
X6267976Y-16526214D02*
X6277500Y-16507167D01*
X6277500Y-16507167D02*
X6296548Y-16497643D01*
X6296548Y-16497643D02*
X6325119Y-16497643D01*
X6325119Y-16497643D02*
X6344167Y-16507167D01*
X6344167Y-16507167D02*
X6353690Y-16526214D01*
X6353690Y-16526214D02*
X6353690Y-16630976D01*
X6448929Y-16630976D02*
X6448929Y-16497643D01*
X6448929Y-16516690D02*
X6458452Y-16507167D01*
X6458452Y-16507167D02*
X6477500Y-16497643D01*
X6477500Y-16497643D02*
X6506071Y-16497643D01*
X6506071Y-16497643D02*
X6525119Y-16507167D01*
X6525119Y-16507167D02*
X6534643Y-16526214D01*
X6534643Y-16526214D02*
X6534643Y-16630976D01*
X6534643Y-16526214D02*
X6544167Y-16507167D01*
X6544167Y-16507167D02*
X6563214Y-16497643D01*
X6563214Y-16497643D02*
X6591786Y-16497643D01*
X6591786Y-16497643D02*
X6610833Y-16507167D01*
X6610833Y-16507167D02*
X6620357Y-16526214D01*
X6620357Y-16526214D02*
X6620357Y-16630976D01*
X6978452Y-16421452D02*
X6807024Y-16678595D01*
X7203214Y-16430976D02*
X7222262Y-16430976D01*
X7222262Y-16430976D02*
X7241310Y-16440500D01*
X7241310Y-16440500D02*
X7250833Y-16450024D01*
X7250833Y-16450024D02*
X7260357Y-16469071D01*
X7260357Y-16469071D02*
X7269881Y-16507167D01*
X7269881Y-16507167D02*
X7269881Y-16554786D01*
X7269881Y-16554786D02*
X7260357Y-16592881D01*
X7260357Y-16592881D02*
X7250833Y-16611928D01*
X7250833Y-16611928D02*
X7241310Y-16621452D01*
X7241310Y-16621452D02*
X7222262Y-16630976D01*
X7222262Y-16630976D02*
X7203214Y-16630976D01*
X7203214Y-16630976D02*
X7184167Y-16621452D01*
X7184167Y-16621452D02*
X7174643Y-16611928D01*
X7174643Y-16611928D02*
X7165119Y-16592881D01*
X7165119Y-16592881D02*
X7155595Y-16554786D01*
X7155595Y-16554786D02*
X7155595Y-16507167D01*
X7155595Y-16507167D02*
X7165119Y-16469071D01*
X7165119Y-16469071D02*
X7174643Y-16450024D01*
X7174643Y-16450024D02*
X7184167Y-16440500D01*
X7184167Y-16440500D02*
X7203214Y-16430976D01*
X7355595Y-16611928D02*
X7365119Y-16621452D01*
X7365119Y-16621452D02*
X7355595Y-16630976D01*
X7355595Y-16630976D02*
X7346071Y-16621452D01*
X7346071Y-16621452D02*
X7355595Y-16611928D01*
X7355595Y-16611928D02*
X7355595Y-16630976D01*
X7488929Y-16430976D02*
X7507976Y-16430976D01*
X7507976Y-16430976D02*
X7527024Y-16440500D01*
X7527024Y-16440500D02*
X7536548Y-16450024D01*
X7536548Y-16450024D02*
X7546071Y-16469071D01*
X7546071Y-16469071D02*
X7555595Y-16507167D01*
X7555595Y-16507167D02*
X7555595Y-16554786D01*
X7555595Y-16554786D02*
X7546071Y-16592881D01*
X7546071Y-16592881D02*
X7536548Y-16611928D01*
X7536548Y-16611928D02*
X7527024Y-16621452D01*
X7527024Y-16621452D02*
X7507976Y-16630976D01*
X7507976Y-16630976D02*
X7488929Y-16630976D01*
X7488929Y-16630976D02*
X7469881Y-16621452D01*
X7469881Y-16621452D02*
X7460357Y-16611928D01*
X7460357Y-16611928D02*
X7450833Y-16592881D01*
X7450833Y-16592881D02*
X7441310Y-16554786D01*
X7441310Y-16554786D02*
X7441310Y-16507167D01*
X7441310Y-16507167D02*
X7450833Y-16469071D01*
X7450833Y-16469071D02*
X7460357Y-16450024D01*
X7460357Y-16450024D02*
X7469881Y-16440500D01*
X7469881Y-16440500D02*
X7488929Y-16430976D01*
X7727024Y-16497643D02*
X7727024Y-16630976D01*
X7679405Y-16421452D02*
X7631786Y-16564309D01*
X7631786Y-16564309D02*
X7755595Y-16564309D01*
X7812738Y-16430976D02*
X7936548Y-16430976D01*
X7936548Y-16430976D02*
X7869881Y-16507167D01*
X7869881Y-16507167D02*
X7898452Y-16507167D01*
X7898452Y-16507167D02*
X7917500Y-16516690D01*
X7917500Y-16516690D02*
X7927024Y-16526214D01*
X7927024Y-16526214D02*
X7936548Y-16545262D01*
X7936548Y-16545262D02*
X7936548Y-16592881D01*
X7936548Y-16592881D02*
X7927024Y-16611928D01*
X7927024Y-16611928D02*
X7917500Y-16621452D01*
X7917500Y-16621452D02*
X7898452Y-16630976D01*
X7898452Y-16630976D02*
X7841310Y-16630976D01*
X7841310Y-16630976D02*
X7822262Y-16621452D01*
X7822262Y-16621452D02*
X7812738Y-16611928D01*
X8003214Y-16430976D02*
X8127024Y-16430976D01*
X8127024Y-16430976D02*
X8060357Y-16507167D01*
X8060357Y-16507167D02*
X8088929Y-16507167D01*
X8088929Y-16507167D02*
X8107976Y-16516690D01*
X8107976Y-16516690D02*
X8117500Y-16526214D01*
X8117500Y-16526214D02*
X8127024Y-16545262D01*
X8127024Y-16545262D02*
X8127024Y-16592881D01*
X8127024Y-16592881D02*
X8117500Y-16611928D01*
X8117500Y-16611928D02*
X8107976Y-16621452D01*
X8107976Y-16621452D02*
X8088929Y-16630976D01*
X8088929Y-16630976D02*
X8031786Y-16630976D01*
X8031786Y-16630976D02*
X8012738Y-16621452D01*
X8012738Y-16621452D02*
X8003214Y-16611928D01*
X8203214Y-16430976D02*
X8203214Y-16469071D01*
X8279405Y-16430976D02*
X8279405Y-16469071D01*
X8542262Y-16707167D02*
X8532738Y-16697643D01*
X8532738Y-16697643D02*
X8513691Y-16669071D01*
X8513691Y-16669071D02*
X8504167Y-16650024D01*
X8504167Y-16650024D02*
X8494643Y-16621452D01*
X8494643Y-16621452D02*
X8485119Y-16573833D01*
X8485119Y-16573833D02*
X8485119Y-16535738D01*
X8485119Y-16535738D02*
X8494643Y-16488119D01*
X8494643Y-16488119D02*
X8504167Y-16459548D01*
X8504167Y-16459548D02*
X8513691Y-16440500D01*
X8513691Y-16440500D02*
X8532738Y-16411928D01*
X8532738Y-16411928D02*
X8542262Y-16402405D01*
X8627976Y-16630976D02*
X8666072Y-16630976D01*
X8666072Y-16630976D02*
X8685119Y-16621452D01*
X8685119Y-16621452D02*
X8694643Y-16611928D01*
X8694643Y-16611928D02*
X8713691Y-16583357D01*
X8713691Y-16583357D02*
X8723214Y-16545262D01*
X8723214Y-16545262D02*
X8723214Y-16469071D01*
X8723214Y-16469071D02*
X8713691Y-16450024D01*
X8713691Y-16450024D02*
X8704167Y-16440500D01*
X8704167Y-16440500D02*
X8685119Y-16430976D01*
X8685119Y-16430976D02*
X8647024Y-16430976D01*
X8647024Y-16430976D02*
X8627976Y-16440500D01*
X8627976Y-16440500D02*
X8618453Y-16450024D01*
X8618453Y-16450024D02*
X8608929Y-16469071D01*
X8608929Y-16469071D02*
X8608929Y-16516690D01*
X8608929Y-16516690D02*
X8618453Y-16535738D01*
X8618453Y-16535738D02*
X8627976Y-16545262D01*
X8627976Y-16545262D02*
X8647024Y-16554786D01*
X8647024Y-16554786D02*
X8685119Y-16554786D01*
X8685119Y-16554786D02*
X8704167Y-16545262D01*
X8704167Y-16545262D02*
X8713691Y-16535738D01*
X8713691Y-16535738D02*
X8723214Y-16516690D01*
X8928929Y-16630976D02*
X8928929Y-16430976D01*
X9014643Y-16630976D02*
X9014643Y-16526214D01*
X9014643Y-16526214D02*
X9005119Y-16507167D01*
X9005119Y-16507167D02*
X8986072Y-16497643D01*
X8986072Y-16497643D02*
X8957500Y-16497643D01*
X8957500Y-16497643D02*
X8938453Y-16507167D01*
X8938453Y-16507167D02*
X8928929Y-16516690D01*
X9138453Y-16630976D02*
X9119405Y-16621452D01*
X9119405Y-16621452D02*
X9109881Y-16611928D01*
X9109881Y-16611928D02*
X9100357Y-16592881D01*
X9100357Y-16592881D02*
X9100357Y-16535738D01*
X9100357Y-16535738D02*
X9109881Y-16516690D01*
X9109881Y-16516690D02*
X9119405Y-16507167D01*
X9119405Y-16507167D02*
X9138453Y-16497643D01*
X9138453Y-16497643D02*
X9167024Y-16497643D01*
X9167024Y-16497643D02*
X9186072Y-16507167D01*
X9186072Y-16507167D02*
X9195595Y-16516690D01*
X9195595Y-16516690D02*
X9205119Y-16535738D01*
X9205119Y-16535738D02*
X9205119Y-16592881D01*
X9205119Y-16592881D02*
X9195595Y-16611928D01*
X9195595Y-16611928D02*
X9186072Y-16621452D01*
X9186072Y-16621452D02*
X9167024Y-16630976D01*
X9167024Y-16630976D02*
X9138453Y-16630976D01*
X9319405Y-16630976D02*
X9300357Y-16621452D01*
X9300357Y-16621452D02*
X9290834Y-16602405D01*
X9290834Y-16602405D02*
X9290834Y-16430976D01*
X9471786Y-16621452D02*
X9452738Y-16630976D01*
X9452738Y-16630976D02*
X9414643Y-16630976D01*
X9414643Y-16630976D02*
X9395595Y-16621452D01*
X9395595Y-16621452D02*
X9386072Y-16602405D01*
X9386072Y-16602405D02*
X9386072Y-16526214D01*
X9386072Y-16526214D02*
X9395595Y-16507167D01*
X9395595Y-16507167D02*
X9414643Y-16497643D01*
X9414643Y-16497643D02*
X9452738Y-16497643D01*
X9452738Y-16497643D02*
X9471786Y-16507167D01*
X9471786Y-16507167D02*
X9481310Y-16526214D01*
X9481310Y-16526214D02*
X9481310Y-16545262D01*
X9481310Y-16545262D02*
X9386072Y-16564309D01*
X9557500Y-16621452D02*
X9576548Y-16630976D01*
X9576548Y-16630976D02*
X9614643Y-16630976D01*
X9614643Y-16630976D02*
X9633691Y-16621452D01*
X9633691Y-16621452D02*
X9643215Y-16602405D01*
X9643215Y-16602405D02*
X9643215Y-16592881D01*
X9643215Y-16592881D02*
X9633691Y-16573833D01*
X9633691Y-16573833D02*
X9614643Y-16564309D01*
X9614643Y-16564309D02*
X9586072Y-16564309D01*
X9586072Y-16564309D02*
X9567024Y-16554786D01*
X9567024Y-16554786D02*
X9557500Y-16535738D01*
X9557500Y-16535738D02*
X9557500Y-16526214D01*
X9557500Y-16526214D02*
X9567024Y-16507167D01*
X9567024Y-16507167D02*
X9586072Y-16497643D01*
X9586072Y-16497643D02*
X9614643Y-16497643D01*
X9614643Y-16497643D02*
X9633691Y-16507167D01*
X9709881Y-16707167D02*
X9719405Y-16697643D01*
X9719405Y-16697643D02*
X9738453Y-16669071D01*
X9738453Y-16669071D02*
X9747976Y-16650024D01*
X9747976Y-16650024D02*
X9757500Y-16621452D01*
X9757500Y-16621452D02*
X9767024Y-16573833D01*
X9767024Y-16573833D02*
X9767024Y-16535738D01*
X9767024Y-16535738D02*
X9757500Y-16488119D01*
X9757500Y-16488119D02*
X9747976Y-16459548D01*
X9747976Y-16459548D02*
X9738453Y-16440500D01*
X9738453Y-16440500D02*
X9719405Y-16411928D01*
X9719405Y-16411928D02*
X9709881Y-16402405D01*
M02*
