G04 #@! TF.GenerationSoftware,KiCad,Pcbnew,(7.0.0)*
G04 #@! TF.CreationDate,2024-11-17T17:31:49-08:00*
G04 #@! TF.ProjectId,offset_preset_counter,6f666673-6574-45f7-9072-657365745f63,rev?*
G04 #@! TF.SameCoordinates,Original*
G04 #@! TF.FileFunction,Soldermask,Bot*
G04 #@! TF.FilePolarity,Negative*
%FSLAX46Y46*%
G04 Gerber Fmt 4.6, Leading zero omitted, Abs format (unit mm)*
G04 Created by KiCad (PCBNEW (7.0.0)) date 2024-11-17 17:31:49*
%MOMM*%
%LPD*%
G01*
G04 APERTURE LIST*
G04 Aperture macros list*
%AMRoundRect*
0 Rectangle with rounded corners*
0 $1 Rounding radius*
0 $2 $3 $4 $5 $6 $7 $8 $9 X,Y pos of 4 corners*
0 Add a 4 corners polygon primitive as box body*
4,1,4,$2,$3,$4,$5,$6,$7,$8,$9,$2,$3,0*
0 Add four circle primitives for the rounded corners*
1,1,$1+$1,$2,$3*
1,1,$1+$1,$4,$5*
1,1,$1+$1,$6,$7*
1,1,$1+$1,$8,$9*
0 Add four rect primitives between the rounded corners*
20,1,$1+$1,$2,$3,$4,$5,0*
20,1,$1+$1,$4,$5,$6,$7,0*
20,1,$1+$1,$6,$7,$8,$9,0*
20,1,$1+$1,$8,$9,$2,$3,0*%
%AMFreePoly0*
4,1,13,0.850000,-0.850000,-0.850000,-0.850000,-0.850000,-0.558000,-1.778000,-0.558000,-1.813355,-0.543355,-1.828000,-0.508000,-1.828000,0.508000,-1.813355,0.543355,-1.778000,0.558000,-0.850000,0.558000,-0.850000,0.850000,0.850000,0.850000,0.850000,-0.850000,0.850000,-0.850000,$1*%
%AMFreePoly1*
4,1,32,0.262664,0.808398,0.425000,0.736122,0.568761,0.631673,0.687664,0.499617,0.776514,0.345726,0.831425,0.176725,0.850000,0.000000,0.831425,-0.176725,0.776514,-0.345726,0.687664,-0.499617,0.568761,-0.631673,0.425000,-0.736122,0.262664,-0.808398,0.088849,-0.845344,-0.088849,-0.845344,-0.262664,-0.808398,-0.425000,-0.736122,-0.568761,-0.631673,-0.635096,-0.558000,-2.032000,-0.558000,
-2.067355,-0.543355,-2.082000,-0.508000,-2.082000,0.508000,-2.067355,0.543355,-2.032000,0.558000,-0.635096,0.558000,-0.568761,0.631673,-0.425000,0.736122,-0.262664,0.808398,-0.088849,0.845344,0.088849,0.845344,0.262664,0.808398,0.262664,0.808398,$1*%
G04 Aperture macros list end*
%ADD10C,1.600000*%
%ADD11R,1.800000X1.800000*%
%ADD12C,1.800000*%
%ADD13R,1.600000X1.600000*%
%ADD14O,1.600000X1.600000*%
%ADD15RoundRect,0.250001X-0.899999X-0.899999X0.899999X-0.899999X0.899999X0.899999X-0.899999X0.899999X0*%
%ADD16R,1.700000X1.700000*%
%ADD17O,1.700000X1.700000*%
%ADD18FreePoly0,270.000000*%
%ADD19FreePoly1,270.000000*%
G04 APERTURE END LIST*
D10*
X165100000Y-118030000D03*
X165100000Y-123030000D03*
X137160000Y-123110000D03*
X137160000Y-118110000D03*
X109220000Y-123110000D03*
X109220000Y-118110000D03*
X81280000Y-123110000D03*
X81280000Y-118110000D03*
X53340000Y-123110000D03*
X53340000Y-118110000D03*
X127000000Y-58340000D03*
X127000000Y-53340000D03*
D11*
X251459999Y-63499999D03*
D12*
X248920000Y-63500000D03*
D11*
X245109999Y-63499999D03*
D12*
X242570000Y-63500000D03*
D11*
X238759999Y-63499999D03*
D12*
X236220000Y-63500000D03*
D11*
X232409999Y-63499999D03*
D12*
X229870000Y-63500000D03*
D11*
X226059999Y-63499999D03*
D12*
X223520000Y-63500000D03*
D11*
X219709999Y-63499999D03*
D12*
X217170000Y-63500000D03*
D11*
X213359999Y-63499999D03*
D12*
X210820000Y-63500000D03*
D11*
X207009999Y-63499999D03*
D12*
X204470000Y-63500000D03*
D11*
X200659999Y-63499999D03*
D12*
X198120000Y-63500000D03*
D11*
X194309999Y-63499999D03*
D12*
X191770000Y-63500000D03*
D11*
X187959999Y-63499999D03*
D12*
X185420000Y-63500000D03*
D11*
X181609999Y-63499999D03*
D12*
X179070000Y-63500000D03*
D11*
X175259999Y-63499999D03*
D12*
X172720000Y-63500000D03*
D11*
X168909999Y-63499999D03*
D12*
X166370000Y-63500000D03*
D11*
X162559999Y-63499999D03*
D12*
X160020000Y-63500000D03*
D11*
X156209999Y-63499999D03*
D12*
X153670000Y-63500000D03*
D13*
X132079999Y-60959999D03*
D14*
X134619999Y-60959999D03*
X137159999Y-60959999D03*
X139699999Y-60959999D03*
X142239999Y-60959999D03*
X144779999Y-60959999D03*
X147319999Y-60959999D03*
X147319999Y-53339999D03*
X144779999Y-53339999D03*
X142239999Y-53339999D03*
X139699999Y-53339999D03*
X137159999Y-53339999D03*
X134619999Y-53339999D03*
X132079999Y-53339999D03*
D10*
X198120000Y-118110000D03*
X198120000Y-123110000D03*
X204470000Y-78740000D03*
X204470000Y-83740000D03*
X158750000Y-78740000D03*
X158750000Y-83740000D03*
D13*
X167639999Y-73659999D03*
D14*
X170179999Y-73659999D03*
X172719999Y-73659999D03*
X175259999Y-73659999D03*
X177799999Y-73659999D03*
X180339999Y-73659999D03*
X182879999Y-73659999D03*
X185419999Y-73659999D03*
X187959999Y-73659999D03*
D13*
X215899999Y-73659999D03*
D14*
X218439999Y-73659999D03*
X220979999Y-73659999D03*
X223519999Y-73659999D03*
X226059999Y-73659999D03*
X228599999Y-73659999D03*
X231139999Y-73659999D03*
X233679999Y-73659999D03*
X236219999Y-73659999D03*
D10*
X241300000Y-73660000D03*
D14*
X251459999Y-73659999D03*
D10*
X238760000Y-111506000D03*
D14*
X238759999Y-101345999D03*
D13*
X142239999Y-125729999D03*
D14*
X144779999Y-125729999D03*
X147319999Y-125729999D03*
X149859999Y-125729999D03*
X152399999Y-125729999D03*
X154939999Y-125729999D03*
X157479999Y-125729999D03*
X160019999Y-125729999D03*
X160019999Y-118109999D03*
X157479999Y-118109999D03*
X154939999Y-118109999D03*
X152399999Y-118109999D03*
X149859999Y-118109999D03*
X147319999Y-118109999D03*
X144779999Y-118109999D03*
X142239999Y-118109999D03*
D13*
X170179999Y-125729999D03*
D14*
X172719999Y-125729999D03*
X175259999Y-125729999D03*
X177799999Y-125729999D03*
X180339999Y-125729999D03*
X182879999Y-125729999D03*
X185419999Y-125729999D03*
X187959999Y-125729999D03*
X190499999Y-125729999D03*
X193039999Y-125729999D03*
X193039999Y-118109999D03*
X190499999Y-118109999D03*
X187959999Y-118109999D03*
X185419999Y-118109999D03*
X182879999Y-118109999D03*
X180339999Y-118109999D03*
X177799999Y-118109999D03*
X175259999Y-118109999D03*
X172719999Y-118109999D03*
X170179999Y-118109999D03*
D15*
X238760000Y-116840000D03*
D13*
X76199999Y-134619999D03*
D10*
X76200000Y-132120000D03*
D13*
X91439999Y-99059999D03*
D14*
X93979999Y-99059999D03*
X96519999Y-99059999D03*
X99059999Y-99059999D03*
X101599999Y-99059999D03*
X104139999Y-99059999D03*
X106679999Y-99059999D03*
X109219999Y-99059999D03*
X111759999Y-99059999D03*
X114299999Y-99059999D03*
X114299999Y-91439999D03*
X111759999Y-91439999D03*
X109219999Y-91439999D03*
X106679999Y-91439999D03*
X104139999Y-91439999D03*
X101599999Y-91439999D03*
X99059999Y-91439999D03*
X96519999Y-91439999D03*
X93979999Y-91439999D03*
X91439999Y-91439999D03*
D16*
X137159999Y-144779999D03*
D17*
X134619999Y-144779999D03*
X132079999Y-144779999D03*
X129539999Y-144779999D03*
X126999999Y-144779999D03*
X124459999Y-144779999D03*
X121919999Y-144779999D03*
X119379999Y-144779999D03*
X116839999Y-144779999D03*
X114299999Y-144779999D03*
X111759999Y-144779999D03*
X109219999Y-144779999D03*
X106679999Y-144779999D03*
X104139999Y-144779999D03*
X101599999Y-144779999D03*
X99059999Y-144779999D03*
D15*
X248920000Y-121920000D03*
X248920000Y-116840000D03*
D13*
X129539999Y-73659999D03*
D14*
X132079999Y-73659999D03*
X134619999Y-73659999D03*
X137159999Y-73659999D03*
X139699999Y-73659999D03*
X142239999Y-73659999D03*
X144779999Y-73659999D03*
X147319999Y-73659999D03*
X147319999Y-66039999D03*
X144779999Y-66039999D03*
X142239999Y-66039999D03*
X139699999Y-66039999D03*
X137159999Y-66039999D03*
X134619999Y-66039999D03*
X132079999Y-66039999D03*
X129539999Y-66039999D03*
D10*
X53340000Y-96440000D03*
X53340000Y-91440000D03*
X99060000Y-71040000D03*
X99060000Y-66040000D03*
D15*
X238760000Y-121920000D03*
D13*
X203199999Y-125729999D03*
D14*
X205739999Y-125729999D03*
X208279999Y-125729999D03*
X210819999Y-125729999D03*
X213359999Y-125729999D03*
X215899999Y-125729999D03*
X218439999Y-125729999D03*
X220979999Y-125729999D03*
X223519999Y-125729999D03*
X226059999Y-125729999D03*
X226059999Y-118109999D03*
X223519999Y-118109999D03*
X220979999Y-118109999D03*
X218439999Y-118109999D03*
X215899999Y-118109999D03*
X213359999Y-118109999D03*
X210819999Y-118109999D03*
X208279999Y-118109999D03*
X205739999Y-118109999D03*
X203199999Y-118109999D03*
D16*
X86359999Y-144779999D03*
D17*
X83819999Y-144779999D03*
X81279999Y-144779999D03*
X78739999Y-144779999D03*
X76199999Y-144779999D03*
X73659999Y-144779999D03*
X71119999Y-144779999D03*
X68579999Y-144779999D03*
X66039999Y-144779999D03*
X63499999Y-144779999D03*
D13*
X58419999Y-99059999D03*
D14*
X60959999Y-99059999D03*
X63499999Y-99059999D03*
X66039999Y-99059999D03*
X68579999Y-99059999D03*
X71119999Y-99059999D03*
X73659999Y-99059999D03*
X76199999Y-99059999D03*
X78739999Y-99059999D03*
X81279999Y-99059999D03*
X81279999Y-91439999D03*
X78739999Y-91439999D03*
X76199999Y-91439999D03*
X73659999Y-91439999D03*
X71119999Y-91439999D03*
X68579999Y-91439999D03*
X66039999Y-91439999D03*
X63499999Y-91439999D03*
X60959999Y-91439999D03*
X58419999Y-91439999D03*
D15*
X238760000Y-127000000D03*
D16*
X241299999Y-142239999D03*
D18*
X241300000Y-144780000D03*
D17*
X238759999Y-142239999D03*
D19*
X238760000Y-144780000D03*
D17*
X236219999Y-142239999D03*
D19*
X236220000Y-144780000D03*
D17*
X233679999Y-142239999D03*
D19*
X233680000Y-144780000D03*
D17*
X231139999Y-142239999D03*
D19*
X231140000Y-144780000D03*
D17*
X228599999Y-142239999D03*
D19*
X228600000Y-144780000D03*
D17*
X226059999Y-142239999D03*
D19*
X226060000Y-144780000D03*
D17*
X223519999Y-142239999D03*
D19*
X223520000Y-144780000D03*
D17*
X220979999Y-142239999D03*
D19*
X220980000Y-144780000D03*
D17*
X218439999Y-142239999D03*
D19*
X218440000Y-144780000D03*
D17*
X215899999Y-142239999D03*
D19*
X215900000Y-144780000D03*
D17*
X213359999Y-142239999D03*
D19*
X213360000Y-144780000D03*
D17*
X210819999Y-142239999D03*
D19*
X210820000Y-144780000D03*
D17*
X208279999Y-142239999D03*
D19*
X208280000Y-144780000D03*
D17*
X205739999Y-142239999D03*
D19*
X205740000Y-144780000D03*
D17*
X203199999Y-142239999D03*
D19*
X203200000Y-144780000D03*
D17*
X200659999Y-142239999D03*
D19*
X200660000Y-144780000D03*
D17*
X198119999Y-142239999D03*
D19*
X198120000Y-144780000D03*
D17*
X195579999Y-142239999D03*
D19*
X195580000Y-144780000D03*
D17*
X193039999Y-142239999D03*
D19*
X193040000Y-144780000D03*
D17*
X190499999Y-142239999D03*
D19*
X190500000Y-144780000D03*
D17*
X187959999Y-142239999D03*
D19*
X187960000Y-144780000D03*
D17*
X185419999Y-142239999D03*
D19*
X185420000Y-144780000D03*
D17*
X182879999Y-142239999D03*
D19*
X182880000Y-144780000D03*
D17*
X180339999Y-142239999D03*
D19*
X180340000Y-144780000D03*
D17*
X177799999Y-142239999D03*
D19*
X177800000Y-144780000D03*
D17*
X175259999Y-142239999D03*
D19*
X175260000Y-144780000D03*
D17*
X172719999Y-142239999D03*
D19*
X172720000Y-144780000D03*
D17*
X170179999Y-142239999D03*
D19*
X170180000Y-144780000D03*
D17*
X167639999Y-142239999D03*
D19*
X167640000Y-144780000D03*
D17*
X165099999Y-142239999D03*
D19*
X165100000Y-144780000D03*
D17*
X162559999Y-142239999D03*
D19*
X162560000Y-144780000D03*
D13*
X104139999Y-73659999D03*
D14*
X106679999Y-73659999D03*
X109219999Y-73659999D03*
X111759999Y-73659999D03*
X114299999Y-73659999D03*
X116839999Y-73659999D03*
X119379999Y-73659999D03*
X119379999Y-66039999D03*
X116839999Y-66039999D03*
X114299999Y-66039999D03*
X111759999Y-66039999D03*
X109219999Y-66039999D03*
X106679999Y-66039999D03*
X104139999Y-66039999D03*
D16*
X99059999Y-60959999D03*
D17*
X96519999Y-60959999D03*
D10*
X86360000Y-96440000D03*
X86360000Y-91440000D03*
D15*
X243840000Y-116840000D03*
D13*
X86359999Y-125729999D03*
D14*
X88899999Y-125729999D03*
X91439999Y-125729999D03*
X93979999Y-125729999D03*
X96519999Y-125729999D03*
X99059999Y-125729999D03*
X101599999Y-125729999D03*
X104139999Y-125729999D03*
X104139999Y-118109999D03*
X101599999Y-118109999D03*
X99059999Y-118109999D03*
X96519999Y-118109999D03*
X93979999Y-118109999D03*
X91439999Y-118109999D03*
X88899999Y-118109999D03*
X86359999Y-118109999D03*
D13*
X114299999Y-125729999D03*
D14*
X116839999Y-125729999D03*
X119379999Y-125729999D03*
X121919999Y-125729999D03*
X124459999Y-125729999D03*
X126999999Y-125729999D03*
X129539999Y-125729999D03*
X132079999Y-125729999D03*
X132079999Y-118109999D03*
X129539999Y-118109999D03*
X126999999Y-118109999D03*
X124459999Y-118109999D03*
X121919999Y-118109999D03*
X119379999Y-118109999D03*
X116839999Y-118109999D03*
X114299999Y-118109999D03*
D16*
X91439999Y-60959999D03*
D17*
X88899999Y-60959999D03*
X86359999Y-60959999D03*
X83819999Y-60959999D03*
X81279999Y-60959999D03*
X78739999Y-60959999D03*
X76199999Y-60959999D03*
X73659999Y-60959999D03*
X71119999Y-60959999D03*
X68579999Y-60959999D03*
X66039999Y-60959999D03*
X63499999Y-60959999D03*
X60959999Y-60959999D03*
X58419999Y-60959999D03*
X55879999Y-60959999D03*
X53339999Y-60959999D03*
D13*
X58419999Y-125729999D03*
D14*
X60959999Y-125729999D03*
X63499999Y-125729999D03*
X66039999Y-125729999D03*
X68579999Y-125729999D03*
X71119999Y-125729999D03*
X73659999Y-125729999D03*
X76199999Y-125729999D03*
X76199999Y-118109999D03*
X73659999Y-118109999D03*
X71119999Y-118109999D03*
X68579999Y-118109999D03*
X66039999Y-118109999D03*
X63499999Y-118109999D03*
X60959999Y-118109999D03*
X58419999Y-118109999D03*
D13*
X93979999Y-68579999D03*
D10*
X93980000Y-71080000D03*
X124460000Y-71120000D03*
X124460000Y-66120000D03*
D13*
X212089999Y-86359999D03*
D14*
X214629999Y-86359999D03*
X217169999Y-86359999D03*
X219709999Y-86359999D03*
X222249999Y-86359999D03*
X224789999Y-86359999D03*
X227329999Y-86359999D03*
X229869999Y-86359999D03*
X232409999Y-86359999D03*
X234949999Y-86359999D03*
X234949999Y-78739999D03*
X232409999Y-78739999D03*
X229869999Y-78739999D03*
X227329999Y-78739999D03*
X224789999Y-78739999D03*
X222249999Y-78739999D03*
X219709999Y-78739999D03*
X217169999Y-78739999D03*
X214629999Y-78739999D03*
X212089999Y-78739999D03*
D15*
X248920000Y-127000000D03*
D13*
X163829999Y-86359999D03*
D14*
X166369999Y-86359999D03*
X168909999Y-86359999D03*
X171449999Y-86359999D03*
X173989999Y-86359999D03*
X176529999Y-86359999D03*
X179069999Y-86359999D03*
X181609999Y-86359999D03*
X184149999Y-86359999D03*
X186689999Y-86359999D03*
X186689999Y-78739999D03*
X184149999Y-78739999D03*
X181609999Y-78739999D03*
X179069999Y-78739999D03*
X176529999Y-78739999D03*
X173989999Y-78739999D03*
X171449999Y-78739999D03*
X168909999Y-78739999D03*
X166369999Y-78739999D03*
X163829999Y-78739999D03*
D15*
X243840000Y-121920000D03*
X243840000Y-127000000D03*
D16*
X241299999Y-78739999D03*
D17*
X241299999Y-81279999D03*
X241299999Y-83819999D03*
D13*
X192531999Y-86359999D03*
D10*
X192532000Y-88860000D03*
M02*
