M48
; DRILL file {KiCad (7.0.0)} date Sun Nov 17 17:32:04 2024
; FORMAT={-:-/ absolute / metric / decimal}
; #@! TF.CreationDate,2024-11-17T17:32:04-08:00
; #@! TF.GenerationSoftware,Kicad,Pcbnew,(7.0.0)
; #@! TF.FileFunction,Plated,1,2,PTH
FMAT,2
METRIC
; #@! TA.AperFunction,Plated,PTH,ViaDrill
T1C0.381
; #@! TA.AperFunction,Plated,PTH,ComponentDrill
T2C0.800
; #@! TA.AperFunction,Plated,PTH,ComponentDrill
T3C0.900
; #@! TA.AperFunction,Plated,PTH,ComponentDrill
T4C1.000
; #@! TA.AperFunction,Plated,PTH,ComponentDrill
T5C1.100
%
G90
G05
T1
X53.594Y-93.98
X55.88Y-76.708
X55.88Y-78.232
X57.15Y-93.98
X58.42Y-76.708
X58.42Y-78.994
X60.96Y-76.708
X60.96Y-79.756
X63.5Y-76.708
X63.5Y-80.518
X63.5Y-88.138
X64.77Y-112.268
X66.04Y-76.708
X66.04Y-81.28
X66.04Y-87.376
X66.04Y-102.616
X66.04Y-104.14
X67.31Y-102.616
X67.31Y-104.14
X67.31Y-111.506
X68.58Y-76.708
X68.58Y-82.042
X68.58Y-86.614
X68.58Y-101.854
X68.58Y-104.14
X69.85Y-101.854
X69.85Y-104.14
X69.85Y-110.744
X71.12Y-76.708
X71.12Y-82.804
X71.12Y-85.852
X71.12Y-101.092
X71.12Y-104.14
X72.39Y-101.092
X72.39Y-104.14
X72.39Y-109.982
X73.66Y-76.708
X73.66Y-83.566
X73.66Y-85.09
X73.66Y-104.14
X73.66Y-138.43
X73.66Y-140.97
X76.2Y-76.708
X76.2Y-84.328
X76.2Y-104.14
X76.2Y-120.396
X77.47Y-85.09
X78.74Y-76.708
X78.74Y-83.566
X78.74Y-104.14
X81.28Y-76.708
X81.28Y-85.852
X81.28Y-94.996
X83.82Y-76.708
X83.82Y-86.614
X86.36Y-76.708
X86.36Y-87.376
X86.36Y-121.158
X88.9Y-76.708
X88.9Y-88.138
X88.9Y-121.92
X91.44Y-76.708
X91.44Y-88.9
X91.44Y-109.22
X91.44Y-131.318
X93.98Y-82.804
X93.98Y-105.664
X93.98Y-109.22
X93.98Y-131.318
X95.504Y-75.946
X96.52Y-74.93
X96.52Y-82.042
X96.52Y-105.664
X96.52Y-109.22
X96.52Y-131.318
X99.06Y-81.28
X99.06Y-105.664
X99.06Y-109.22
X99.06Y-131.318
X100.33Y-128.27
X100.33Y-134.366
X100.838Y-57.404
X101.6Y-80.518
X101.6Y-105.664
X102.87Y-59.436
X102.87Y-129.032
X102.87Y-134.366
X104.14Y-79.756
X104.14Y-103.378
X104.14Y-120.396
X105.664Y-129.794
X105.664Y-134.366
X106.68Y-78.994
X106.68Y-102.616
X107.95Y-130.556
X107.95Y-134.366
X109.22Y-78.232
X109.22Y-101.854
X110.49Y-131.318
X110.49Y-134.366
X110.998Y-72.136
X111.76Y-77.47
X113.03Y-132.08
X113.03Y-134.311
X114.3Y-121.158
X115.57Y-132.842
X115.57Y-134.366
X115.824Y-72.136
X116.84Y-121.92
X119.38Y-110.744
X119.38Y-134.366
X120.65Y-134.366
X120.65Y-137.414
X121.92Y-110.744
X121.92Y-135.89
X123.19Y-135.128
X123.19Y-137.414
X124.46Y-110.744
X124.46Y-135.128
X125.73Y-135.89
X125.73Y-137.414
X127.0Y-110.744
X127.0Y-134.366
X132.08Y-120.396
X134.62Y-70.612
X140.716Y-124.206
X142.24Y-115.824
X143.764Y-115.824
X145.288Y-69.85
X146.812Y-69.85
X147.32Y-139.7
X149.352Y-69.088
X149.352Y-70.612
X149.86Y-138.938
X152.4Y-138.176
X154.94Y-137.414
X156.21Y-93.218
X156.21Y-111.506
X156.21Y-119.634
X156.21Y-121.158
X158.75Y-93.218
X158.75Y-111.506
X158.75Y-119.634
X158.75Y-121.158
X161.29Y-93.98
X161.29Y-111.506
X161.29Y-115.824
X162.814Y-115.824
X166.37Y-93.98
X166.37Y-97.79
X168.656Y-115.824
X168.91Y-93.98
X168.91Y-100.076
X170.18Y-115.824
X171.45Y-93.98
X171.45Y-100.838
X172.72Y-98.552
X172.72Y-111.506
X173.99Y-93.98
X173.99Y-101.6
X175.26Y-99.314
X175.26Y-111.506
X176.53Y-93.98
X176.53Y-102.362
X177.8Y-100.076
X177.8Y-111.506
X179.07Y-93.98
X179.07Y-103.124
X180.34Y-100.838
X180.34Y-111.506
X181.61Y-93.98
X181.61Y-103.886
X182.88Y-101.6
X182.88Y-111.506
X184.15Y-93.98
X184.15Y-104.648
X185.42Y-102.362
X185.42Y-111.506
X187.96Y-103.124
X187.96Y-111.506
X190.5Y-103.886
X190.5Y-111.506
X193.04Y-104.648
X193.04Y-111.506
X194.056Y-115.824
X195.58Y-115.824
X203.2Y-120.904
X208.28Y-105.41
X208.28Y-111.506
X210.82Y-106.172
X210.82Y-111.506
X213.36Y-106.934
X213.36Y-111.506
X214.63Y-93.98
X214.63Y-97.028
X215.9Y-107.696
X215.9Y-111.506
X217.17Y-93.98
X217.17Y-97.028
X218.44Y-108.458
X218.44Y-111.506
X219.71Y-93.98
X219.71Y-97.028
X220.98Y-109.22
X220.98Y-111.506
X222.25Y-93.98
X222.25Y-97.028
X223.52Y-109.982
X223.52Y-111.506
X224.79Y-93.98
X224.79Y-97.028
X227.33Y-93.98
X227.33Y-97.028
X229.87Y-93.98
X229.87Y-97.028
X232.41Y-93.98
X232.41Y-97.028
X244.094Y-113.792
X245.872Y-116.078
X245.872Y-117.602
X247.65Y-113.792
T2
X53.34Y-91.44
X53.34Y-96.44
X53.34Y-118.11
X53.34Y-123.11
X58.42Y-91.44
X58.42Y-99.06
X58.42Y-118.11
X58.42Y-125.73
X60.96Y-91.44
X60.96Y-99.06
X60.96Y-118.11
X60.96Y-125.73
X63.5Y-91.44
X63.5Y-99.06
X63.5Y-118.11
X63.5Y-125.73
X66.04Y-91.44
X66.04Y-99.06
X66.04Y-118.11
X66.04Y-125.73
X68.58Y-91.44
X68.58Y-99.06
X68.58Y-118.11
X68.58Y-125.73
X71.12Y-91.44
X71.12Y-99.06
X71.12Y-118.11
X71.12Y-125.73
X73.66Y-91.44
X73.66Y-99.06
X73.66Y-118.11
X73.66Y-125.73
X76.2Y-91.44
X76.2Y-99.06
X76.2Y-118.11
X76.2Y-125.73
X76.2Y-132.12
X76.2Y-134.62
X78.74Y-91.44
X78.74Y-99.06
X81.28Y-91.44
X81.28Y-99.06
X81.28Y-118.11
X81.28Y-123.11
X86.36Y-91.44
X86.36Y-96.44
X86.36Y-118.11
X86.36Y-125.73
X88.9Y-118.11
X88.9Y-125.73
X91.44Y-91.44
X91.44Y-99.06
X91.44Y-118.11
X91.44Y-125.73
X93.98Y-68.58
X93.98Y-71.08
X93.98Y-91.44
X93.98Y-99.06
X93.98Y-118.11
X93.98Y-125.73
X96.52Y-91.44
X96.52Y-99.06
X96.52Y-118.11
X96.52Y-125.73
X99.06Y-66.04
X99.06Y-71.04
X99.06Y-91.44
X99.06Y-99.06
X99.06Y-118.11
X99.06Y-125.73
X101.6Y-91.44
X101.6Y-99.06
X101.6Y-118.11
X101.6Y-125.73
X104.14Y-66.04
X104.14Y-73.66
X104.14Y-91.44
X104.14Y-99.06
X104.14Y-118.11
X104.14Y-125.73
X106.68Y-66.04
X106.68Y-73.66
X106.68Y-91.44
X106.68Y-99.06
X109.22Y-66.04
X109.22Y-73.66
X109.22Y-91.44
X109.22Y-99.06
X109.22Y-118.11
X109.22Y-123.11
X111.76Y-66.04
X111.76Y-73.66
X111.76Y-91.44
X111.76Y-99.06
X114.3Y-66.04
X114.3Y-73.66
X114.3Y-91.44
X114.3Y-99.06
X114.3Y-118.11
X114.3Y-125.73
X116.84Y-66.04
X116.84Y-73.66
X116.84Y-118.11
X116.84Y-125.73
X119.38Y-66.04
X119.38Y-73.66
X119.38Y-118.11
X119.38Y-125.73
X121.92Y-118.11
X121.92Y-125.73
X124.46Y-66.12
X124.46Y-71.12
X124.46Y-118.11
X124.46Y-125.73
X127.0Y-53.34
X127.0Y-58.34
X127.0Y-118.11
X127.0Y-125.73
X129.54Y-66.04
X129.54Y-73.66
X129.54Y-118.11
X129.54Y-125.73
X132.08Y-53.34
X132.08Y-60.96
X132.08Y-66.04
X132.08Y-73.66
X132.08Y-118.11
X132.08Y-125.73
X134.62Y-53.34
X134.62Y-60.96
X134.62Y-66.04
X134.62Y-73.66
X137.16Y-53.34
X137.16Y-60.96
X137.16Y-66.04
X137.16Y-73.66
X137.16Y-118.11
X137.16Y-123.11
X139.7Y-53.34
X139.7Y-60.96
X139.7Y-66.04
X139.7Y-73.66
X142.24Y-53.34
X142.24Y-60.96
X142.24Y-66.04
X142.24Y-73.66
X142.24Y-118.11
X142.24Y-125.73
X144.78Y-53.34
X144.78Y-60.96
X144.78Y-66.04
X144.78Y-73.66
X144.78Y-118.11
X144.78Y-125.73
X147.32Y-53.34
X147.32Y-60.96
X147.32Y-66.04
X147.32Y-73.66
X147.32Y-118.11
X147.32Y-125.73
X149.86Y-118.11
X149.86Y-125.73
X152.4Y-118.11
X152.4Y-125.73
X154.94Y-118.11
X154.94Y-125.73
X157.48Y-118.11
X157.48Y-125.73
X158.75Y-78.74
X158.75Y-83.74
X160.02Y-118.11
X160.02Y-125.73
X163.83Y-78.74
X163.83Y-86.36
X165.1Y-118.03
X165.1Y-123.03
X166.37Y-78.74
X166.37Y-86.36
X167.64Y-73.66
X168.91Y-78.74
X168.91Y-86.36
X170.18Y-73.66
X170.18Y-118.11
X170.18Y-125.73
X171.45Y-78.74
X171.45Y-86.36
X172.72Y-73.66
X172.72Y-118.11
X172.72Y-125.73
X173.99Y-78.74
X173.99Y-86.36
X175.26Y-73.66
X175.26Y-118.11
X175.26Y-125.73
X176.53Y-78.74
X176.53Y-86.36
X177.8Y-73.66
X177.8Y-118.11
X177.8Y-125.73
X179.07Y-78.74
X179.07Y-86.36
X180.34Y-73.66
X180.34Y-118.11
X180.34Y-125.73
X181.61Y-78.74
X181.61Y-86.36
X182.88Y-73.66
X182.88Y-118.11
X182.88Y-125.73
X184.15Y-78.74
X184.15Y-86.36
X185.42Y-73.66
X185.42Y-118.11
X185.42Y-125.73
X186.69Y-78.74
X186.69Y-86.36
X187.96Y-73.66
X187.96Y-118.11
X187.96Y-125.73
X190.5Y-118.11
X190.5Y-125.73
X192.532Y-86.36
X192.532Y-88.86
X193.04Y-118.11
X193.04Y-125.73
X198.12Y-118.11
X198.12Y-123.11
X203.2Y-118.11
X203.2Y-125.73
X204.47Y-78.74
X204.47Y-83.74
X205.74Y-118.11
X205.74Y-125.73
X208.28Y-118.11
X208.28Y-125.73
X210.82Y-118.11
X210.82Y-125.73
X212.09Y-78.74
X212.09Y-86.36
X213.36Y-118.11
X213.36Y-125.73
X214.63Y-78.74
X214.63Y-86.36
X215.9Y-73.66
X215.9Y-118.11
X215.9Y-125.73
X217.17Y-78.74
X217.17Y-86.36
X218.44Y-73.66
X218.44Y-118.11
X218.44Y-125.73
X219.71Y-78.74
X219.71Y-86.36
X220.98Y-73.66
X220.98Y-118.11
X220.98Y-125.73
X222.25Y-78.74
X222.25Y-86.36
X223.52Y-73.66
X223.52Y-118.11
X223.52Y-125.73
X224.79Y-78.74
X224.79Y-86.36
X226.06Y-73.66
X226.06Y-118.11
X226.06Y-125.73
X227.33Y-78.74
X227.33Y-86.36
X228.6Y-73.66
X229.87Y-78.74
X229.87Y-86.36
X231.14Y-73.66
X232.41Y-78.74
X232.41Y-86.36
X233.68Y-73.66
X234.95Y-78.74
X234.95Y-86.36
X236.22Y-73.66
X238.76Y-101.346
X238.76Y-111.506
X241.3Y-73.66
X251.46Y-73.66
T3
X153.67Y-63.5
X156.21Y-63.5
X160.02Y-63.5
X162.56Y-63.5
X166.37Y-63.5
X168.91Y-63.5
X172.72Y-63.5
X175.26Y-63.5
X179.07Y-63.5
X181.61Y-63.5
X185.42Y-63.5
X187.96Y-63.5
X191.77Y-63.5
X194.31Y-63.5
X198.12Y-63.5
X200.66Y-63.5
X204.47Y-63.5
X207.01Y-63.5
X210.82Y-63.5
X213.36Y-63.5
X217.17Y-63.5
X219.71Y-63.5
X223.52Y-63.5
X226.06Y-63.5
X229.87Y-63.5
X232.41Y-63.5
X236.22Y-63.5
X238.76Y-63.5
X242.57Y-63.5
X245.11Y-63.5
X248.92Y-63.5
X251.46Y-63.5
T4
X53.34Y-60.96
X55.88Y-60.96
X58.42Y-60.96
X60.96Y-60.96
X63.5Y-60.96
X63.5Y-144.78
X66.04Y-60.96
X66.04Y-144.78
X68.58Y-60.96
X68.58Y-144.78
X71.12Y-60.96
X71.12Y-144.78
X73.66Y-60.96
X73.66Y-144.78
X76.2Y-60.96
X76.2Y-144.78
X78.74Y-60.96
X78.74Y-144.78
X81.28Y-60.96
X81.28Y-144.78
X83.82Y-60.96
X83.82Y-144.78
X86.36Y-60.96
X86.36Y-144.78
X88.9Y-60.96
X91.44Y-60.96
X96.52Y-60.96
X99.06Y-60.96
X99.06Y-144.78
X101.6Y-144.78
X104.14Y-144.78
X106.68Y-144.78
X109.22Y-144.78
X111.76Y-144.78
X114.3Y-144.78
X116.84Y-144.78
X119.38Y-144.78
X121.92Y-144.78
X124.46Y-144.78
X127.0Y-144.78
X129.54Y-144.78
X132.08Y-144.78
X134.62Y-144.78
X137.16Y-144.78
X162.56Y-142.24
X162.56Y-144.78
X165.1Y-142.24
X165.1Y-144.78
X167.64Y-142.24
X167.64Y-144.78
X170.18Y-142.24
X170.18Y-144.78
X172.72Y-142.24
X172.72Y-144.78
X175.26Y-142.24
X175.26Y-144.78
X177.8Y-142.24
X177.8Y-144.78
X180.34Y-142.24
X180.34Y-144.78
X182.88Y-142.24
X182.88Y-144.78
X185.42Y-142.24
X185.42Y-144.78
X187.96Y-142.24
X187.96Y-144.78
X190.5Y-142.24
X190.5Y-144.78
X193.04Y-142.24
X193.04Y-144.78
X195.58Y-142.24
X195.58Y-144.78
X198.12Y-142.24
X198.12Y-144.78
X200.66Y-142.24
X200.66Y-144.78
X203.2Y-142.24
X203.2Y-144.78
X205.74Y-142.24
X205.74Y-144.78
X208.28Y-142.24
X208.28Y-144.78
X210.82Y-142.24
X210.82Y-144.78
X213.36Y-142.24
X213.36Y-144.78
X215.9Y-142.24
X215.9Y-144.78
X218.44Y-142.24
X218.44Y-144.78
X220.98Y-142.24
X220.98Y-144.78
X223.52Y-142.24
X223.52Y-144.78
X226.06Y-142.24
X226.06Y-144.78
X228.6Y-142.24
X228.6Y-144.78
X231.14Y-142.24
X231.14Y-144.78
X233.68Y-142.24
X233.68Y-144.78
X236.22Y-142.24
X236.22Y-144.78
X238.76Y-142.24
X238.76Y-144.78
X241.3Y-78.74
X241.3Y-81.28
X241.3Y-83.82
X241.3Y-142.24
X241.3Y-144.78
T5
X238.76Y-116.84
X238.76Y-121.92
X238.76Y-127.0
X243.84Y-116.84
X243.84Y-121.92
X243.84Y-127.0
X248.92Y-116.84
X248.92Y-121.92
X248.92Y-127.0
T0
M30
