G04 #@! TF.GenerationSoftware,KiCad,Pcbnew,(7.0.0)*
G04 #@! TF.CreationDate,2024-11-17T17:31:48-08:00*
G04 #@! TF.ProjectId,offset_preset_counter,6f666673-6574-45f7-9072-657365745f63,rev?*
G04 #@! TF.SameCoordinates,Original*
G04 #@! TF.FileFunction,Copper,L1,Top*
G04 #@! TF.FilePolarity,Positive*
%FSLAX46Y46*%
G04 Gerber Fmt 4.6, Leading zero omitted, Abs format (unit mm)*
G04 Created by KiCad (PCBNEW (7.0.0)) date 2024-11-17 17:31:48*
%MOMM*%
%LPD*%
G01*
G04 APERTURE LIST*
G04 Aperture macros list*
%AMRoundRect*
0 Rectangle with rounded corners*
0 $1 Rounding radius*
0 $2 $3 $4 $5 $6 $7 $8 $9 X,Y pos of 4 corners*
0 Add a 4 corners polygon primitive as box body*
4,1,4,$2,$3,$4,$5,$6,$7,$8,$9,$2,$3,0*
0 Add four circle primitives for the rounded corners*
1,1,$1+$1,$2,$3*
1,1,$1+$1,$4,$5*
1,1,$1+$1,$6,$7*
1,1,$1+$1,$8,$9*
0 Add four rect primitives between the rounded corners*
20,1,$1+$1,$2,$3,$4,$5,0*
20,1,$1+$1,$4,$5,$6,$7,0*
20,1,$1+$1,$6,$7,$8,$9,0*
20,1,$1+$1,$8,$9,$2,$3,0*%
%AMFreePoly0*
4,1,13,0.850000,-0.850000,-0.850000,-0.850000,-0.850000,-0.558000,-1.778000,-0.558000,-1.813355,-0.543355,-1.828000,-0.508000,-1.828000,0.508000,-1.813355,0.543355,-1.778000,0.558000,-0.850000,0.558000,-0.850000,0.850000,0.850000,0.850000,0.850000,-0.850000,0.850000,-0.850000,$1*%
%AMFreePoly1*
4,1,32,0.262664,0.808398,0.425000,0.736122,0.568761,0.631673,0.687664,0.499617,0.776514,0.345726,0.831425,0.176725,0.850000,0.000000,0.831425,-0.176725,0.776514,-0.345726,0.687664,-0.499617,0.568761,-0.631673,0.425000,-0.736122,0.262664,-0.808398,0.088849,-0.845344,-0.088849,-0.845344,-0.262664,-0.808398,-0.425000,-0.736122,-0.568761,-0.631673,-0.635096,-0.558000,-2.032000,-0.558000,
-2.067355,-0.543355,-2.082000,-0.508000,-2.082000,0.508000,-2.067355,0.543355,-2.032000,0.558000,-0.635096,0.558000,-0.568761,0.631673,-0.425000,0.736122,-0.262664,0.808398,-0.088849,0.845344,0.088849,0.845344,0.262664,0.808398,0.262664,0.808398,$1*%
G04 Aperture macros list end*
G04 #@! TA.AperFunction,ComponentPad*
%ADD10C,1.600000*%
G04 #@! TD*
G04 #@! TA.AperFunction,ComponentPad*
%ADD11R,1.800000X1.800000*%
G04 #@! TD*
G04 #@! TA.AperFunction,ComponentPad*
%ADD12C,1.800000*%
G04 #@! TD*
G04 #@! TA.AperFunction,ComponentPad*
%ADD13R,1.600000X1.600000*%
G04 #@! TD*
G04 #@! TA.AperFunction,ComponentPad*
%ADD14O,1.600000X1.600000*%
G04 #@! TD*
G04 #@! TA.AperFunction,ComponentPad*
%ADD15RoundRect,0.250001X-0.899999X-0.899999X0.899999X-0.899999X0.899999X0.899999X-0.899999X0.899999X0*%
G04 #@! TD*
G04 #@! TA.AperFunction,ComponentPad*
%ADD16R,1.700000X1.700000*%
G04 #@! TD*
G04 #@! TA.AperFunction,ComponentPad*
%ADD17O,1.700000X1.700000*%
G04 #@! TD*
G04 #@! TA.AperFunction,ComponentPad*
%ADD18FreePoly0,270.000000*%
G04 #@! TD*
G04 #@! TA.AperFunction,ComponentPad*
%ADD19FreePoly1,270.000000*%
G04 #@! TD*
G04 #@! TA.AperFunction,ViaPad*
%ADD20C,0.762000*%
G04 #@! TD*
G04 #@! TA.AperFunction,Conductor*
%ADD21C,0.254000*%
G04 #@! TD*
G04 #@! TA.AperFunction,Conductor*
%ADD22C,0.762000*%
G04 #@! TD*
G04 APERTURE END LIST*
D10*
X165100000Y-118030000D03*
X165100000Y-123030000D03*
X137160000Y-123110000D03*
X137160000Y-118110000D03*
X109220000Y-123110000D03*
X109220000Y-118110000D03*
X81280000Y-123110000D03*
X81280000Y-118110000D03*
X53340000Y-123110000D03*
X53340000Y-118110000D03*
X127000000Y-58340000D03*
X127000000Y-53340000D03*
D11*
X251459999Y-63499999D03*
D12*
X248920000Y-63500000D03*
D11*
X245109999Y-63499999D03*
D12*
X242570000Y-63500000D03*
D11*
X238759999Y-63499999D03*
D12*
X236220000Y-63500000D03*
D11*
X232409999Y-63499999D03*
D12*
X229870000Y-63500000D03*
D11*
X226059999Y-63499999D03*
D12*
X223520000Y-63500000D03*
D11*
X219709999Y-63499999D03*
D12*
X217170000Y-63500000D03*
D11*
X213359999Y-63499999D03*
D12*
X210820000Y-63500000D03*
D11*
X207009999Y-63499999D03*
D12*
X204470000Y-63500000D03*
D11*
X200659999Y-63499999D03*
D12*
X198120000Y-63500000D03*
D11*
X194309999Y-63499999D03*
D12*
X191770000Y-63500000D03*
D11*
X187959999Y-63499999D03*
D12*
X185420000Y-63500000D03*
D11*
X181609999Y-63499999D03*
D12*
X179070000Y-63500000D03*
D11*
X175259999Y-63499999D03*
D12*
X172720000Y-63500000D03*
D11*
X168909999Y-63499999D03*
D12*
X166370000Y-63500000D03*
D11*
X162559999Y-63499999D03*
D12*
X160020000Y-63500000D03*
D11*
X156209999Y-63499999D03*
D12*
X153670000Y-63500000D03*
D13*
X132079999Y-60959999D03*
D14*
X134619999Y-60959999D03*
X137159999Y-60959999D03*
X139699999Y-60959999D03*
X142239999Y-60959999D03*
X144779999Y-60959999D03*
X147319999Y-60959999D03*
X147319999Y-53339999D03*
X144779999Y-53339999D03*
X142239999Y-53339999D03*
X139699999Y-53339999D03*
X137159999Y-53339999D03*
X134619999Y-53339999D03*
X132079999Y-53339999D03*
D10*
X198120000Y-118110000D03*
X198120000Y-123110000D03*
X204470000Y-78740000D03*
X204470000Y-83740000D03*
X158750000Y-78740000D03*
X158750000Y-83740000D03*
D13*
X167639999Y-73659999D03*
D14*
X170179999Y-73659999D03*
X172719999Y-73659999D03*
X175259999Y-73659999D03*
X177799999Y-73659999D03*
X180339999Y-73659999D03*
X182879999Y-73659999D03*
X185419999Y-73659999D03*
X187959999Y-73659999D03*
D13*
X215899999Y-73659999D03*
D14*
X218439999Y-73659999D03*
X220979999Y-73659999D03*
X223519999Y-73659999D03*
X226059999Y-73659999D03*
X228599999Y-73659999D03*
X231139999Y-73659999D03*
X233679999Y-73659999D03*
X236219999Y-73659999D03*
D10*
X241300000Y-73660000D03*
D14*
X251459999Y-73659999D03*
D10*
X238760000Y-111506000D03*
D14*
X238759999Y-101345999D03*
D13*
X142239999Y-125729999D03*
D14*
X144779999Y-125729999D03*
X147319999Y-125729999D03*
X149859999Y-125729999D03*
X152399999Y-125729999D03*
X154939999Y-125729999D03*
X157479999Y-125729999D03*
X160019999Y-125729999D03*
X160019999Y-118109999D03*
X157479999Y-118109999D03*
X154939999Y-118109999D03*
X152399999Y-118109999D03*
X149859999Y-118109999D03*
X147319999Y-118109999D03*
X144779999Y-118109999D03*
X142239999Y-118109999D03*
D13*
X170179999Y-125729999D03*
D14*
X172719999Y-125729999D03*
X175259999Y-125729999D03*
X177799999Y-125729999D03*
X180339999Y-125729999D03*
X182879999Y-125729999D03*
X185419999Y-125729999D03*
X187959999Y-125729999D03*
X190499999Y-125729999D03*
X193039999Y-125729999D03*
X193039999Y-118109999D03*
X190499999Y-118109999D03*
X187959999Y-118109999D03*
X185419999Y-118109999D03*
X182879999Y-118109999D03*
X180339999Y-118109999D03*
X177799999Y-118109999D03*
X175259999Y-118109999D03*
X172719999Y-118109999D03*
X170179999Y-118109999D03*
D15*
X238760000Y-116840000D03*
D13*
X76199999Y-134619999D03*
D10*
X76200000Y-132120000D03*
D13*
X91439999Y-99059999D03*
D14*
X93979999Y-99059999D03*
X96519999Y-99059999D03*
X99059999Y-99059999D03*
X101599999Y-99059999D03*
X104139999Y-99059999D03*
X106679999Y-99059999D03*
X109219999Y-99059999D03*
X111759999Y-99059999D03*
X114299999Y-99059999D03*
X114299999Y-91439999D03*
X111759999Y-91439999D03*
X109219999Y-91439999D03*
X106679999Y-91439999D03*
X104139999Y-91439999D03*
X101599999Y-91439999D03*
X99059999Y-91439999D03*
X96519999Y-91439999D03*
X93979999Y-91439999D03*
X91439999Y-91439999D03*
D16*
X137159999Y-144779999D03*
D17*
X134619999Y-144779999D03*
X132079999Y-144779999D03*
X129539999Y-144779999D03*
X126999999Y-144779999D03*
X124459999Y-144779999D03*
X121919999Y-144779999D03*
X119379999Y-144779999D03*
X116839999Y-144779999D03*
X114299999Y-144779999D03*
X111759999Y-144779999D03*
X109219999Y-144779999D03*
X106679999Y-144779999D03*
X104139999Y-144779999D03*
X101599999Y-144779999D03*
X99059999Y-144779999D03*
D15*
X248920000Y-121920000D03*
X248920000Y-116840000D03*
D13*
X129539999Y-73659999D03*
D14*
X132079999Y-73659999D03*
X134619999Y-73659999D03*
X137159999Y-73659999D03*
X139699999Y-73659999D03*
X142239999Y-73659999D03*
X144779999Y-73659999D03*
X147319999Y-73659999D03*
X147319999Y-66039999D03*
X144779999Y-66039999D03*
X142239999Y-66039999D03*
X139699999Y-66039999D03*
X137159999Y-66039999D03*
X134619999Y-66039999D03*
X132079999Y-66039999D03*
X129539999Y-66039999D03*
D10*
X53340000Y-96440000D03*
X53340000Y-91440000D03*
X99060000Y-71040000D03*
X99060000Y-66040000D03*
D15*
X238760000Y-121920000D03*
D13*
X203199999Y-125729999D03*
D14*
X205739999Y-125729999D03*
X208279999Y-125729999D03*
X210819999Y-125729999D03*
X213359999Y-125729999D03*
X215899999Y-125729999D03*
X218439999Y-125729999D03*
X220979999Y-125729999D03*
X223519999Y-125729999D03*
X226059999Y-125729999D03*
X226059999Y-118109999D03*
X223519999Y-118109999D03*
X220979999Y-118109999D03*
X218439999Y-118109999D03*
X215899999Y-118109999D03*
X213359999Y-118109999D03*
X210819999Y-118109999D03*
X208279999Y-118109999D03*
X205739999Y-118109999D03*
X203199999Y-118109999D03*
D16*
X86359999Y-144779999D03*
D17*
X83819999Y-144779999D03*
X81279999Y-144779999D03*
X78739999Y-144779999D03*
X76199999Y-144779999D03*
X73659999Y-144779999D03*
X71119999Y-144779999D03*
X68579999Y-144779999D03*
X66039999Y-144779999D03*
X63499999Y-144779999D03*
D13*
X58419999Y-99059999D03*
D14*
X60959999Y-99059999D03*
X63499999Y-99059999D03*
X66039999Y-99059999D03*
X68579999Y-99059999D03*
X71119999Y-99059999D03*
X73659999Y-99059999D03*
X76199999Y-99059999D03*
X78739999Y-99059999D03*
X81279999Y-99059999D03*
X81279999Y-91439999D03*
X78739999Y-91439999D03*
X76199999Y-91439999D03*
X73659999Y-91439999D03*
X71119999Y-91439999D03*
X68579999Y-91439999D03*
X66039999Y-91439999D03*
X63499999Y-91439999D03*
X60959999Y-91439999D03*
X58419999Y-91439999D03*
D15*
X238760000Y-127000000D03*
D16*
X241299999Y-142239999D03*
D18*
X241300000Y-144780000D03*
D17*
X238759999Y-142239999D03*
D19*
X238760000Y-144780000D03*
D17*
X236219999Y-142239999D03*
D19*
X236220000Y-144780000D03*
D17*
X233679999Y-142239999D03*
D19*
X233680000Y-144780000D03*
D17*
X231139999Y-142239999D03*
D19*
X231140000Y-144780000D03*
D17*
X228599999Y-142239999D03*
D19*
X228600000Y-144780000D03*
D17*
X226059999Y-142239999D03*
D19*
X226060000Y-144780000D03*
D17*
X223519999Y-142239999D03*
D19*
X223520000Y-144780000D03*
D17*
X220979999Y-142239999D03*
D19*
X220980000Y-144780000D03*
D17*
X218439999Y-142239999D03*
D19*
X218440000Y-144780000D03*
D17*
X215899999Y-142239999D03*
D19*
X215900000Y-144780000D03*
D17*
X213359999Y-142239999D03*
D19*
X213360000Y-144780000D03*
D17*
X210819999Y-142239999D03*
D19*
X210820000Y-144780000D03*
D17*
X208279999Y-142239999D03*
D19*
X208280000Y-144780000D03*
D17*
X205739999Y-142239999D03*
D19*
X205740000Y-144780000D03*
D17*
X203199999Y-142239999D03*
D19*
X203200000Y-144780000D03*
D17*
X200659999Y-142239999D03*
D19*
X200660000Y-144780000D03*
D17*
X198119999Y-142239999D03*
D19*
X198120000Y-144780000D03*
D17*
X195579999Y-142239999D03*
D19*
X195580000Y-144780000D03*
D17*
X193039999Y-142239999D03*
D19*
X193040000Y-144780000D03*
D17*
X190499999Y-142239999D03*
D19*
X190500000Y-144780000D03*
D17*
X187959999Y-142239999D03*
D19*
X187960000Y-144780000D03*
D17*
X185419999Y-142239999D03*
D19*
X185420000Y-144780000D03*
D17*
X182879999Y-142239999D03*
D19*
X182880000Y-144780000D03*
D17*
X180339999Y-142239999D03*
D19*
X180340000Y-144780000D03*
D17*
X177799999Y-142239999D03*
D19*
X177800000Y-144780000D03*
D17*
X175259999Y-142239999D03*
D19*
X175260000Y-144780000D03*
D17*
X172719999Y-142239999D03*
D19*
X172720000Y-144780000D03*
D17*
X170179999Y-142239999D03*
D19*
X170180000Y-144780000D03*
D17*
X167639999Y-142239999D03*
D19*
X167640000Y-144780000D03*
D17*
X165099999Y-142239999D03*
D19*
X165100000Y-144780000D03*
D17*
X162559999Y-142239999D03*
D19*
X162560000Y-144780000D03*
D13*
X104139999Y-73659999D03*
D14*
X106679999Y-73659999D03*
X109219999Y-73659999D03*
X111759999Y-73659999D03*
X114299999Y-73659999D03*
X116839999Y-73659999D03*
X119379999Y-73659999D03*
X119379999Y-66039999D03*
X116839999Y-66039999D03*
X114299999Y-66039999D03*
X111759999Y-66039999D03*
X109219999Y-66039999D03*
X106679999Y-66039999D03*
X104139999Y-66039999D03*
D16*
X99059999Y-60959999D03*
D17*
X96519999Y-60959999D03*
D10*
X86360000Y-96440000D03*
X86360000Y-91440000D03*
D15*
X243840000Y-116840000D03*
D13*
X86359999Y-125729999D03*
D14*
X88899999Y-125729999D03*
X91439999Y-125729999D03*
X93979999Y-125729999D03*
X96519999Y-125729999D03*
X99059999Y-125729999D03*
X101599999Y-125729999D03*
X104139999Y-125729999D03*
X104139999Y-118109999D03*
X101599999Y-118109999D03*
X99059999Y-118109999D03*
X96519999Y-118109999D03*
X93979999Y-118109999D03*
X91439999Y-118109999D03*
X88899999Y-118109999D03*
X86359999Y-118109999D03*
D13*
X114299999Y-125729999D03*
D14*
X116839999Y-125729999D03*
X119379999Y-125729999D03*
X121919999Y-125729999D03*
X124459999Y-125729999D03*
X126999999Y-125729999D03*
X129539999Y-125729999D03*
X132079999Y-125729999D03*
X132079999Y-118109999D03*
X129539999Y-118109999D03*
X126999999Y-118109999D03*
X124459999Y-118109999D03*
X121919999Y-118109999D03*
X119379999Y-118109999D03*
X116839999Y-118109999D03*
X114299999Y-118109999D03*
D16*
X91439999Y-60959999D03*
D17*
X88899999Y-60959999D03*
X86359999Y-60959999D03*
X83819999Y-60959999D03*
X81279999Y-60959999D03*
X78739999Y-60959999D03*
X76199999Y-60959999D03*
X73659999Y-60959999D03*
X71119999Y-60959999D03*
X68579999Y-60959999D03*
X66039999Y-60959999D03*
X63499999Y-60959999D03*
X60959999Y-60959999D03*
X58419999Y-60959999D03*
X55879999Y-60959999D03*
X53339999Y-60959999D03*
D13*
X58419999Y-125729999D03*
D14*
X60959999Y-125729999D03*
X63499999Y-125729999D03*
X66039999Y-125729999D03*
X68579999Y-125729999D03*
X71119999Y-125729999D03*
X73659999Y-125729999D03*
X76199999Y-125729999D03*
X76199999Y-118109999D03*
X73659999Y-118109999D03*
X71119999Y-118109999D03*
X68579999Y-118109999D03*
X66039999Y-118109999D03*
X63499999Y-118109999D03*
X60959999Y-118109999D03*
X58419999Y-118109999D03*
D13*
X93979999Y-68579999D03*
D10*
X93980000Y-71080000D03*
X124460000Y-71120000D03*
X124460000Y-66120000D03*
D13*
X212089999Y-86359999D03*
D14*
X214629999Y-86359999D03*
X217169999Y-86359999D03*
X219709999Y-86359999D03*
X222249999Y-86359999D03*
X224789999Y-86359999D03*
X227329999Y-86359999D03*
X229869999Y-86359999D03*
X232409999Y-86359999D03*
X234949999Y-86359999D03*
X234949999Y-78739999D03*
X232409999Y-78739999D03*
X229869999Y-78739999D03*
X227329999Y-78739999D03*
X224789999Y-78739999D03*
X222249999Y-78739999D03*
X219709999Y-78739999D03*
X217169999Y-78739999D03*
X214629999Y-78739999D03*
X212089999Y-78739999D03*
D15*
X248920000Y-127000000D03*
D13*
X163829999Y-86359999D03*
D14*
X166369999Y-86359999D03*
X168909999Y-86359999D03*
X171449999Y-86359999D03*
X173989999Y-86359999D03*
X176529999Y-86359999D03*
X179069999Y-86359999D03*
X181609999Y-86359999D03*
X184149999Y-86359999D03*
X186689999Y-86359999D03*
X186689999Y-78739999D03*
X184149999Y-78739999D03*
X181609999Y-78739999D03*
X179069999Y-78739999D03*
X176529999Y-78739999D03*
X173989999Y-78739999D03*
X171449999Y-78739999D03*
X168909999Y-78739999D03*
X166369999Y-78739999D03*
X163829999Y-78739999D03*
D15*
X243840000Y-121920000D03*
X243840000Y-127000000D03*
D16*
X241299999Y-78739999D03*
D17*
X241299999Y-81279999D03*
X241299999Y-83819999D03*
D13*
X192531999Y-86359999D03*
D10*
X192532000Y-88860000D03*
D20*
X162814000Y-115824000D03*
X95504000Y-75946000D03*
X247650000Y-113792000D03*
X96520000Y-74930000D03*
X145288000Y-69850000D03*
X194056000Y-115824000D03*
X161290000Y-115824000D03*
X203200000Y-120904000D03*
X170180000Y-115824000D03*
X143764000Y-115824000D03*
X142240000Y-115824000D03*
X195580000Y-115824000D03*
X168656000Y-115824000D03*
X244094000Y-113792000D03*
X146812000Y-69850000D03*
X72390000Y-109982000D03*
X72390000Y-101092000D03*
X72390000Y-104140000D03*
X109220000Y-101854000D03*
X69850000Y-104140000D03*
X69850000Y-101854000D03*
X69850000Y-110744000D03*
X106680000Y-102616000D03*
X67310000Y-104140000D03*
X67310000Y-111506000D03*
X67310000Y-102616000D03*
X64770000Y-112268000D03*
X104140000Y-103378000D03*
X101600000Y-105664000D03*
X99060000Y-109220000D03*
X96520000Y-109220000D03*
X99060000Y-105664000D03*
X93980000Y-109220000D03*
X96520000Y-105664000D03*
X91440000Y-109220000D03*
X93980000Y-105664000D03*
X78740000Y-104140000D03*
X127000000Y-110744000D03*
X124460000Y-110744000D03*
X76200000Y-104140000D03*
X73660000Y-104140000D03*
X121920000Y-110744000D03*
X119380000Y-110744000D03*
X71120000Y-104140000D03*
X71120000Y-101092000D03*
X68580000Y-101854000D03*
X68580000Y-104140000D03*
X66040000Y-104140000D03*
X66040000Y-102616000D03*
X147320000Y-139700000D03*
X149860000Y-138938000D03*
X152400000Y-138176000D03*
X154940000Y-137414000D03*
X119380000Y-134366000D03*
X125730000Y-137414000D03*
X125730000Y-135890000D03*
X121920000Y-135890000D03*
X124460000Y-135128000D03*
X123190000Y-135128000D03*
X123190000Y-137414000D03*
X120650000Y-137414000D03*
X127000000Y-134366000D03*
X120650000Y-134366000D03*
X91440000Y-131318000D03*
X115570000Y-134366000D03*
X115570000Y-132842000D03*
X93980000Y-131318000D03*
X113030000Y-132080000D03*
X113030000Y-134311500D03*
X96520000Y-131318000D03*
X110490000Y-131318000D03*
X110490000Y-134366000D03*
X99060000Y-131318000D03*
X107950000Y-130556000D03*
X107950000Y-134366000D03*
X105664000Y-129794000D03*
X105664000Y-134366000D03*
X102870000Y-134366000D03*
X102870000Y-129032000D03*
X100330000Y-134366000D03*
X100330000Y-128270000D03*
X88900000Y-121920000D03*
X73660000Y-140970000D03*
X73660000Y-138430000D03*
X116840000Y-121920000D03*
X140716000Y-124206000D03*
X100838000Y-57404000D03*
X102870000Y-59436000D03*
X156210000Y-111506000D03*
X86360000Y-121158000D03*
X156210000Y-119634000D03*
X156210000Y-121158000D03*
X156210000Y-93218000D03*
X114300000Y-121158000D03*
X81280000Y-94996000D03*
X57150000Y-93980000D03*
X53594000Y-93980000D03*
X166370000Y-97790000D03*
X166370000Y-93980000D03*
X111760000Y-77470000D03*
X175260000Y-111506000D03*
X175260000Y-99314000D03*
X168910000Y-100076000D03*
X177800000Y-100076000D03*
X109220000Y-78232000D03*
X55880000Y-76708000D03*
X168910000Y-93980000D03*
X55880000Y-78232000D03*
X177800000Y-111506000D03*
X180340000Y-111506000D03*
X58420000Y-78994000D03*
X180340000Y-100838000D03*
X106680000Y-78994000D03*
X58420000Y-76708000D03*
X171450000Y-93980000D03*
X171450000Y-100838000D03*
X173990000Y-93980000D03*
X182880000Y-101600000D03*
X173990000Y-101600000D03*
X60960000Y-79756000D03*
X60960000Y-76708000D03*
X182880000Y-111506000D03*
X104140000Y-79756000D03*
X185420000Y-102362000D03*
X63500000Y-76708000D03*
X185420000Y-111506000D03*
X63500000Y-80518000D03*
X176530000Y-93980000D03*
X176530000Y-102362000D03*
X101600000Y-80518000D03*
X187960000Y-111506000D03*
X179070000Y-103124000D03*
X66040000Y-76708000D03*
X179070000Y-93980000D03*
X99060000Y-81280000D03*
X66040000Y-81280000D03*
X187960000Y-103124000D03*
X181610000Y-93980000D03*
X190500000Y-103886000D03*
X190500000Y-111506000D03*
X68580000Y-82042000D03*
X68580000Y-76708000D03*
X96520000Y-82042000D03*
X181610000Y-103886000D03*
X193040000Y-104648000D03*
X93980000Y-82804000D03*
X71120000Y-76708000D03*
X71120000Y-82804000D03*
X184150000Y-93980000D03*
X184150000Y-104648000D03*
X193040000Y-111506000D03*
X214630000Y-97028000D03*
X73660000Y-83566000D03*
X208280000Y-111506000D03*
X208280000Y-105410000D03*
X78740000Y-83566000D03*
X214630000Y-93980000D03*
X73660000Y-76708000D03*
X210820000Y-111506000D03*
X217170000Y-93980000D03*
X76200000Y-76708000D03*
X217170000Y-97028000D03*
X210820000Y-106172000D03*
X76200000Y-84328000D03*
X77470000Y-85090000D03*
X219710000Y-97028000D03*
X78740000Y-76708000D03*
X219710000Y-93980000D03*
X213360000Y-111506000D03*
X73660000Y-85090000D03*
X213360000Y-106934000D03*
X222250000Y-97028000D03*
X81280000Y-85852000D03*
X71120000Y-85852000D03*
X222250000Y-93980000D03*
X215900000Y-107696000D03*
X81280000Y-76708000D03*
X215900000Y-111506000D03*
X83820000Y-76708000D03*
X218440000Y-108458000D03*
X224790000Y-93980000D03*
X68580000Y-86614000D03*
X224790000Y-97028000D03*
X218440000Y-111506000D03*
X83820000Y-86614000D03*
X227330000Y-97028000D03*
X66040000Y-87376000D03*
X227330000Y-93980000D03*
X86360000Y-87376000D03*
X220980000Y-111506000D03*
X220980000Y-109220000D03*
X86360000Y-76708000D03*
X229870000Y-93980000D03*
X223520000Y-111506000D03*
X88900000Y-76708000D03*
X223520000Y-109982000D03*
X88900000Y-88138000D03*
X63500000Y-88138000D03*
X229870000Y-97028000D03*
X232410000Y-97028000D03*
X91440000Y-88900000D03*
X232410000Y-93980000D03*
X91440000Y-76708000D03*
X245872000Y-117602000D03*
X245872000Y-116078000D03*
X172720000Y-98552000D03*
X172720000Y-111506000D03*
X158750000Y-111506000D03*
X149352000Y-69088000D03*
X158750000Y-121158000D03*
X158750000Y-119634000D03*
X149352000Y-70612000D03*
X158750000Y-93218000D03*
X134620000Y-70612000D03*
X161290000Y-111506000D03*
X76200000Y-120396000D03*
X104140000Y-120396000D03*
X161290000Y-93980000D03*
X132080000Y-120396000D03*
X115824000Y-72136000D03*
X110998000Y-72136000D03*
D21*
X132080000Y-60960000D02*
X132080000Y-56134000D01*
X116840000Y-69088000D02*
X116840000Y-66040000D01*
X145288000Y-69850000D02*
X144399000Y-69850000D01*
D22*
X101600000Y-63500000D02*
X99060000Y-60960000D01*
X76200000Y-139700000D02*
X76200000Y-134620000D01*
X153161995Y-82041995D02*
X153162020Y-82041970D01*
X104140000Y-63500000D02*
X101600000Y-63500000D01*
X106680000Y-53340000D02*
X132080000Y-53340000D01*
X170180000Y-115824000D02*
X170180000Y-118110000D01*
X83820000Y-140208000D02*
X83820000Y-144780000D01*
X114300000Y-115824000D02*
X115824000Y-115824000D01*
X200914000Y-115824000D02*
X203200000Y-118110000D01*
X66040000Y-139700000D02*
X55880000Y-129540000D01*
X147828000Y-56134000D02*
X150622000Y-58928000D01*
X161290000Y-115824000D02*
X162814000Y-115824000D01*
D21*
X144399000Y-69850000D02*
X142240000Y-72009000D01*
D22*
X212090000Y-78740000D02*
X212090000Y-82041970D01*
D21*
X228092000Y-120904000D02*
X235204000Y-113792000D01*
D22*
X55880000Y-91440000D02*
X58166000Y-91440000D01*
D21*
X204470000Y-78740000D02*
X212090000Y-78740000D01*
X248920000Y-115062000D02*
X248920000Y-116840000D01*
D22*
X60198000Y-93472000D02*
X86360000Y-93472000D01*
X102616000Y-115824000D02*
X114300000Y-115824000D01*
X195580000Y-115824000D02*
X200914000Y-115824000D01*
X75184000Y-115824000D02*
X86360000Y-115824000D01*
D21*
X158750000Y-78740000D02*
X163830000Y-78740000D01*
D22*
X83312000Y-139700000D02*
X83820000Y-140208000D01*
X163830000Y-82041970D02*
X195580000Y-82041970D01*
X101092000Y-115824000D02*
X102616000Y-115824000D01*
X73406000Y-115824000D02*
X75184000Y-115824000D01*
D21*
X248920000Y-116840000D02*
X248920000Y-127000000D01*
D22*
X142240000Y-115824000D02*
X143764000Y-115824000D01*
D21*
X198120000Y-118110000D02*
X203200000Y-118110000D01*
X142240000Y-72009000D02*
X142240000Y-73660000D01*
D22*
X168656000Y-115824000D02*
X170180000Y-115824000D01*
D21*
X137160000Y-118110000D02*
X142160000Y-118110000D01*
D22*
X95504000Y-75946000D02*
X96520000Y-74930000D01*
X114300000Y-115824000D02*
X114300000Y-118110000D01*
D21*
X106680000Y-66040000D02*
X106680000Y-68580000D01*
D22*
X195580000Y-82041970D02*
X208534000Y-82041970D01*
X121840000Y-63500000D02*
X104140000Y-63500000D01*
D21*
X99060000Y-66040000D02*
X104140000Y-66040000D01*
D22*
X96520000Y-68580000D02*
X96520000Y-63500000D01*
X163830000Y-82041970D02*
X163830000Y-78740000D01*
X129540000Y-66040000D02*
X124380000Y-66040000D01*
X86360000Y-93472000D02*
X89662000Y-93472000D01*
D21*
X81280000Y-118110000D02*
X86360000Y-118110000D01*
D22*
X115824000Y-115824000D02*
X117856000Y-115824000D01*
D21*
X236982000Y-82041970D02*
X212090000Y-82041970D01*
D22*
X153162020Y-82041970D02*
X163830000Y-82041970D01*
X132080000Y-56134000D02*
X147828000Y-56134000D01*
X124380000Y-66040000D02*
X121840000Y-63500000D01*
X99060000Y-60960000D02*
X101600000Y-58420000D01*
D21*
X104140000Y-69088000D02*
X106680000Y-69088000D01*
X212090000Y-86360000D02*
X212090000Y-82041970D01*
X139700000Y-53340000D02*
X139700000Y-56134000D01*
D22*
X192532000Y-82041970D02*
X192532000Y-86360000D01*
D21*
X104140000Y-66040000D02*
X104140000Y-69088000D01*
X109220000Y-66040000D02*
X109220000Y-68580000D01*
X170100000Y-118030000D02*
X170180000Y-118110000D01*
X114300000Y-69088000D02*
X116840000Y-69088000D01*
X134620000Y-53340000D02*
X134620000Y-56134000D01*
D22*
X55880000Y-118364000D02*
X55880000Y-91440000D01*
X150622000Y-69723000D02*
X150622000Y-79502000D01*
X86360000Y-115824000D02*
X86360000Y-118110000D01*
X83820000Y-144780000D02*
X86360000Y-144780000D01*
D21*
X247650000Y-113792000D02*
X248920000Y-115062000D01*
D22*
X58420000Y-115824000D02*
X73406000Y-115824000D01*
D21*
X203200000Y-120904000D02*
X228092000Y-120904000D01*
X146812000Y-69850000D02*
X150495000Y-69850000D01*
X106680000Y-69088000D02*
X106680000Y-68580000D01*
D22*
X58166000Y-91440000D02*
X60198000Y-93472000D01*
D21*
X165100000Y-118030000D02*
X170100000Y-118030000D01*
X238760000Y-101346000D02*
X241046000Y-101346000D01*
D22*
X58420000Y-118110000D02*
X58420000Y-115824000D01*
D21*
X242062000Y-113792000D02*
X244094000Y-113792000D01*
D22*
X91440000Y-93472000D02*
X91440000Y-91440000D01*
D21*
X144780000Y-56134000D02*
X144780000Y-53340000D01*
D22*
X150622000Y-58928000D02*
X150622000Y-69723000D01*
X194056000Y-115824000D02*
X195580000Y-115824000D01*
X150622000Y-79502000D02*
X153161995Y-82041995D01*
X96520000Y-63500000D02*
X99060000Y-60960000D01*
X96520000Y-74930000D02*
X96520000Y-68580000D01*
X117856000Y-115824000D02*
X142240000Y-115824000D01*
X104140000Y-63500000D02*
X104140000Y-66040000D01*
X101600000Y-58420000D02*
X106680000Y-53340000D01*
X212090000Y-82041970D02*
X208534000Y-82041970D01*
X66040000Y-139700000D02*
X76200000Y-139700000D01*
X96520000Y-68580000D02*
X93980000Y-68580000D01*
X86360000Y-115824000D02*
X101092000Y-115824000D01*
D21*
X86360000Y-91440000D02*
X86360000Y-93472000D01*
X109220000Y-69088000D02*
X114300000Y-69088000D01*
X114300000Y-69088000D02*
X114300000Y-68580000D01*
X114300000Y-66040000D02*
X114300000Y-68580000D01*
X235204000Y-113792000D02*
X242062000Y-113792000D01*
X106680000Y-69088000D02*
X109220000Y-69088000D01*
X109220000Y-68580000D02*
X109220000Y-69088000D01*
D22*
X55880000Y-118110000D02*
X58420000Y-118110000D01*
X162814000Y-115824000D02*
X168656000Y-115824000D01*
X76200000Y-139700000D02*
X83312000Y-139700000D01*
X89662000Y-93472000D02*
X91440000Y-93472000D01*
X55880000Y-129540000D02*
X55880000Y-118364000D01*
X132080000Y-53340000D02*
X132080000Y-56134000D01*
D21*
X163830000Y-86360000D02*
X163830000Y-82041970D01*
X236982000Y-82041970D02*
X240268970Y-78755000D01*
X109220000Y-118110000D02*
X114300000Y-118110000D01*
X241046000Y-101346000D02*
X242062000Y-102362000D01*
X242062000Y-102362000D02*
X242062000Y-113792000D01*
D22*
X142240000Y-115824000D02*
X142240000Y-118110000D01*
D21*
X240268970Y-78755000D02*
X241300000Y-78755000D01*
X248920000Y-66802000D02*
X248920000Y-63500000D01*
X245110000Y-70612000D02*
X248920000Y-66802000D01*
X236982000Y-70612000D02*
X245110000Y-70612000D01*
X234950000Y-78740000D02*
X234950000Y-72644000D01*
X234950000Y-72644000D02*
X236982000Y-70612000D01*
X246888000Y-71628000D02*
X251460000Y-67056000D01*
X236220000Y-73406000D02*
X237998000Y-71628000D01*
X251460000Y-67056000D02*
X251460000Y-63500000D01*
X237998000Y-71628000D02*
X246888000Y-71628000D01*
X236220000Y-73660000D02*
X236220000Y-73406000D01*
X242570000Y-63500000D02*
X242570000Y-66294000D01*
X235712000Y-68580000D02*
X232410000Y-71882000D01*
X240284000Y-68580000D02*
X235712000Y-68580000D01*
X242570000Y-66294000D02*
X240284000Y-68580000D01*
X232410000Y-71882000D02*
X232410000Y-78740000D01*
X245110000Y-66548000D02*
X245110000Y-63500000D01*
X233680000Y-72136000D02*
X236220000Y-69596000D01*
X236220000Y-69596000D02*
X242062000Y-69596000D01*
X242062000Y-69596000D02*
X245110000Y-66548000D01*
X233680000Y-73660000D02*
X233680000Y-72136000D01*
X229870000Y-70358000D02*
X229870000Y-78740000D01*
X236220000Y-63500000D02*
X236220000Y-65532000D01*
X235458000Y-66294000D02*
X233934000Y-66294000D01*
X236220000Y-65532000D02*
X235458000Y-66294000D01*
X233934000Y-66294000D02*
X229870000Y-70358000D01*
X231140000Y-71120000D02*
X234696000Y-67564000D01*
X238760000Y-66548000D02*
X238760000Y-63500000D01*
X237744000Y-67564000D02*
X238760000Y-66548000D01*
X231140000Y-73660000D02*
X231140000Y-71120000D01*
X234696000Y-67564000D02*
X237744000Y-67564000D01*
X227330000Y-69342000D02*
X227330000Y-78740000D01*
X229870000Y-63500000D02*
X229870000Y-66802000D01*
X229870000Y-66802000D02*
X227330000Y-69342000D01*
X228600000Y-73660000D02*
X228600000Y-69596000D01*
X232410000Y-65786000D02*
X232410000Y-63754000D01*
X228600000Y-69596000D02*
X232410000Y-65786000D01*
X224790000Y-68580000D02*
X223520000Y-67310000D01*
X223520000Y-67310000D02*
X223520000Y-63500000D01*
X224790000Y-78740000D02*
X224790000Y-68580000D01*
X226060000Y-63500000D02*
X226060000Y-64654000D01*
X226060000Y-64654000D02*
X226060000Y-73406000D01*
X222250000Y-78740000D02*
X222250000Y-70358000D01*
X217170000Y-67564000D02*
X217170000Y-63500000D01*
X220472000Y-68580000D02*
X218186000Y-68580000D01*
X218186000Y-68580000D02*
X217170000Y-67564000D01*
X222250000Y-70358000D02*
X220472000Y-68580000D01*
X223520000Y-73660000D02*
X223520000Y-69596000D01*
X219710000Y-66548000D02*
X219710000Y-63500000D01*
X220726000Y-67564000D02*
X219710000Y-66548000D01*
X223520000Y-69596000D02*
X221488000Y-67564000D01*
X221488000Y-67564000D02*
X220726000Y-67564000D01*
X219710000Y-78740000D02*
X219710000Y-71882000D01*
X218440000Y-70612000D02*
X214884000Y-70612000D01*
X219710000Y-71882000D02*
X218440000Y-70612000D01*
X210820000Y-66548000D02*
X210820000Y-63500000D01*
X214884000Y-70612000D02*
X210820000Y-66548000D01*
X213360000Y-66040000D02*
X216916000Y-69596000D01*
X216916000Y-69596000D02*
X219710000Y-69596000D01*
X213360000Y-63500000D02*
X213360000Y-66040000D01*
X220980000Y-70866000D02*
X220980000Y-73660000D01*
X219710000Y-69596000D02*
X220980000Y-70866000D01*
X204470000Y-66040000D02*
X204470000Y-63500000D01*
X217170000Y-78740000D02*
X204470000Y-66040000D01*
X218440000Y-72898000D02*
X218440000Y-73660000D01*
X212598000Y-71628000D02*
X217170000Y-71628000D01*
X207010000Y-66040000D02*
X212598000Y-71628000D01*
X207010000Y-63500000D02*
X207010000Y-66040000D01*
X217170000Y-71628000D02*
X218440000Y-72898000D01*
X111760000Y-101092000D02*
X111760000Y-99060000D01*
X72390000Y-109982000D02*
X72390000Y-104140000D01*
X72390000Y-101092000D02*
X111760000Y-101092000D01*
X109220000Y-101854000D02*
X69850000Y-101854000D01*
X69850000Y-110744000D02*
X69850000Y-104140000D01*
X67310000Y-111506000D02*
X67310000Y-104140000D01*
X67310000Y-102616000D02*
X106680000Y-102616000D01*
X64770000Y-112268000D02*
X64770000Y-103378000D01*
X104140000Y-103378000D02*
X64770000Y-103378000D01*
X99060000Y-108204000D02*
X99060000Y-109220000D01*
X101600000Y-105664000D02*
X99060000Y-108204000D01*
X99060000Y-105664000D02*
X96520000Y-108204000D01*
X96520000Y-108204000D02*
X96520000Y-109220000D01*
X96520000Y-105664000D02*
X93980000Y-108204000D01*
X93980000Y-108204000D02*
X93980000Y-109220000D01*
X93980000Y-105664000D02*
X91440000Y-108204000D01*
X91440000Y-108204000D02*
X91440000Y-109220000D01*
X127000000Y-110744000D02*
X120396000Y-104140000D01*
X120396000Y-104140000D02*
X78740000Y-104140000D01*
X76962000Y-104902000D02*
X76200000Y-104140000D01*
X124460000Y-110744000D02*
X118618000Y-104902000D01*
X118618000Y-104902000D02*
X76962000Y-104902000D01*
X73660000Y-104140000D02*
X73660000Y-109982000D01*
X73660000Y-109982000D02*
X121158000Y-109982000D01*
X121158000Y-109982000D02*
X121920000Y-110744000D01*
X71120000Y-110744000D02*
X71120000Y-104140000D01*
X119380000Y-110744000D02*
X71120000Y-110744000D01*
X71120000Y-101092000D02*
X71120000Y-99060000D01*
X68580000Y-99060000D02*
X68580000Y-101854000D01*
X68580000Y-111506000D02*
X148336000Y-111506000D01*
X148336000Y-111506000D02*
X154940000Y-118110000D01*
X68580000Y-104140000D02*
X68580000Y-111506000D01*
X152400000Y-118110000D02*
X146558000Y-112268000D01*
X146558000Y-112268000D02*
X66040000Y-112268000D01*
X66040000Y-112268000D02*
X66040000Y-104140000D01*
X66040000Y-102616000D02*
X66040000Y-99060000D01*
X63500000Y-99060000D02*
X63500000Y-113030000D01*
X144780000Y-113030000D02*
X149860000Y-118110000D01*
X63500000Y-113030000D02*
X144780000Y-113030000D01*
X143002000Y-113792000D02*
X60960000Y-113792000D01*
X147320000Y-118110000D02*
X143002000Y-113792000D01*
X60960000Y-113792000D02*
X60960000Y-99060000D01*
X142240000Y-139700000D02*
X147320000Y-139700000D01*
X137160000Y-144780000D02*
X142240000Y-139700000D01*
X147320000Y-139700000D02*
X209550000Y-139700000D01*
X209550000Y-139700000D02*
X223520000Y-125730000D01*
X134620000Y-144780000D02*
X140462000Y-138938000D01*
X149860000Y-138938000D02*
X207772000Y-138938000D01*
X207772000Y-138938000D02*
X220980000Y-125730000D01*
X140462000Y-138938000D02*
X149860000Y-138938000D01*
X152400000Y-138176000D02*
X205994000Y-138176000D01*
X205994000Y-138176000D02*
X218440000Y-125730000D01*
X138684000Y-138176000D02*
X152400000Y-138176000D01*
X132080000Y-144780000D02*
X138684000Y-138176000D01*
X215900000Y-125730000D02*
X204216000Y-137414000D01*
X154940000Y-137414000D02*
X136906000Y-137414000D01*
X204216000Y-137414000D02*
X154940000Y-137414000D01*
X136906000Y-137414000D02*
X129540000Y-144780000D01*
X128270000Y-136652000D02*
X127000000Y-136652000D01*
X128270000Y-143510000D02*
X128270000Y-136652000D01*
X119380000Y-134366000D02*
X119380000Y-136652000D01*
X119380000Y-136652000D02*
X127000000Y-136652000D01*
X127000000Y-136652000D02*
X202438000Y-136652000D01*
X202438000Y-136652000D02*
X213360000Y-125730000D01*
X127000000Y-144780000D02*
X128270000Y-143510000D01*
X125730000Y-135890000D02*
X200660000Y-135890000D01*
X121920000Y-135890000D02*
X125730000Y-135890000D01*
X124460000Y-144780000D02*
X125730000Y-143510000D01*
X125730000Y-143510000D02*
X125730000Y-137414000D01*
X200660000Y-135890000D02*
X210820000Y-125730000D01*
X124460000Y-135128000D02*
X198882000Y-135128000D01*
X123190000Y-143510000D02*
X121920000Y-144780000D01*
X198882000Y-135128000D02*
X208280000Y-125730000D01*
X123190000Y-137414000D02*
X123190000Y-143510000D01*
X123190000Y-135128000D02*
X124460000Y-135128000D01*
X127000000Y-134366000D02*
X197104000Y-134366000D01*
X127000000Y-134366000D02*
X120650000Y-134366000D01*
X119380000Y-144780000D02*
X120650000Y-143510000D01*
X197104000Y-134366000D02*
X205740000Y-125730000D01*
X120650000Y-143510000D02*
X120650000Y-137414000D01*
X190500000Y-125730000D02*
X182626000Y-133604000D01*
X118110000Y-143510000D02*
X116840000Y-144780000D01*
X93726000Y-133604000D02*
X91440000Y-131318000D01*
X118110000Y-133604000D02*
X118110000Y-143510000D01*
X118055500Y-133604000D02*
X93726000Y-133604000D01*
X182626000Y-133604000D02*
X118055500Y-133604000D01*
X115570000Y-132842000D02*
X180848000Y-132842000D01*
X95504000Y-132842000D02*
X93980000Y-131318000D01*
X115570000Y-143510000D02*
X114300000Y-144780000D01*
X115570000Y-132842000D02*
X95504000Y-132842000D01*
X180848000Y-132842000D02*
X187960000Y-125730000D01*
X115570000Y-134366000D02*
X115570000Y-143510000D01*
X179070000Y-132080000D02*
X113030000Y-132080000D01*
X113030000Y-134311500D02*
X113030000Y-143510000D01*
X97282000Y-132080000D02*
X96520000Y-131318000D01*
X113030000Y-143510000D02*
X111760000Y-144780000D01*
X113030000Y-132080000D02*
X97282000Y-132080000D01*
X185420000Y-125730000D02*
X179070000Y-132080000D01*
X110490000Y-131318000D02*
X177292000Y-131318000D01*
X99060000Y-131318000D02*
X110490000Y-131318000D01*
X177292000Y-131318000D02*
X182880000Y-125730000D01*
X109220000Y-144780000D02*
X110490000Y-143510000D01*
X110490000Y-143510000D02*
X110490000Y-134366000D01*
X107950000Y-143510000D02*
X107950000Y-134366000D01*
X175514000Y-130556000D02*
X107950000Y-130556000D01*
X68326000Y-130556000D02*
X63500000Y-125730000D01*
X180340000Y-125730000D02*
X175514000Y-130556000D01*
X106680000Y-144780000D02*
X107950000Y-143510000D01*
X107950000Y-130556000D02*
X68326000Y-130556000D01*
X70104000Y-129794000D02*
X66040000Y-125730000D01*
X177800000Y-125730000D02*
X173736000Y-129794000D01*
X173736000Y-129794000D02*
X105664000Y-129794000D01*
X105664000Y-134366000D02*
X105664000Y-143256000D01*
X105664000Y-143256000D02*
X104140000Y-144780000D01*
X105664000Y-129794000D02*
X70104000Y-129794000D01*
X102870000Y-143510000D02*
X102870000Y-134366000D01*
X171958000Y-129032000D02*
X175260000Y-125730000D01*
X101600000Y-144780000D02*
X102870000Y-143510000D01*
X68580000Y-125730000D02*
X71882000Y-129032000D01*
X71882000Y-129032000D02*
X102870000Y-129032000D01*
X102870000Y-129032000D02*
X171958000Y-129032000D01*
X172720000Y-125730000D02*
X170180000Y-128270000D01*
X100330000Y-128270000D02*
X73660000Y-128270000D01*
X99060000Y-144780000D02*
X100330000Y-143510000D01*
X73660000Y-128270000D02*
X71120000Y-125730000D01*
X100330000Y-143510000D02*
X100330000Y-134366000D01*
X170180000Y-128270000D02*
X100330000Y-128270000D01*
X138430000Y-121920000D02*
X116840000Y-121920000D01*
X64770000Y-121920000D02*
X60960000Y-125730000D01*
X88900000Y-121920000D02*
X64770000Y-121920000D01*
X88900000Y-121920000D02*
X116840000Y-121920000D01*
X73660000Y-138430000D02*
X60960000Y-125730000D01*
X140716000Y-124206000D02*
X138430000Y-121920000D01*
X73660000Y-144780000D02*
X73660000Y-140970000D01*
X51816000Y-57150000D02*
X51816000Y-87630000D01*
X53848000Y-55118000D02*
X51816000Y-57150000D01*
X98552000Y-55118000D02*
X53848000Y-55118000D01*
X54864000Y-90678000D02*
X54864000Y-136144000D01*
X123190000Y-59436000D02*
X126746000Y-62992000D01*
X126746000Y-62992000D02*
X135128000Y-62992000D01*
X54864000Y-136144000D02*
X63500000Y-144780000D01*
X100838000Y-57404000D02*
X98552000Y-55118000D01*
X135128000Y-62992000D02*
X137160000Y-60960000D01*
X102870000Y-59436000D02*
X123190000Y-59436000D01*
X51816000Y-87630000D02*
X54864000Y-90678000D01*
X195580000Y-68580000D02*
X189230000Y-68580000D01*
X189230000Y-68580000D02*
X186690000Y-71120000D01*
X186690000Y-71120000D02*
X186690000Y-78740000D01*
X198120000Y-66040000D02*
X195580000Y-68580000D01*
X198120000Y-63500000D02*
X198120000Y-66040000D01*
X146050000Y-64770000D02*
X143510000Y-62230000D01*
X114300000Y-121158000D02*
X86360000Y-121158000D01*
X156210000Y-111506000D02*
X156210000Y-118618000D01*
X62992000Y-121158000D02*
X58420000Y-125730000D01*
X142240000Y-121158000D02*
X139526000Y-121158000D01*
X142240000Y-125650000D02*
X142240000Y-121158000D01*
X156210000Y-118618000D02*
X156210000Y-119634000D01*
X140970000Y-59690000D02*
X139700000Y-60960000D01*
X134620000Y-121158000D02*
X114300000Y-121158000D01*
X139526000Y-121158000D02*
X134620000Y-121158000D01*
X156210000Y-121158000D02*
X139526000Y-121158000D01*
X156210000Y-93218000D02*
X146050000Y-83058000D01*
X146050000Y-83058000D02*
X146050000Y-64770000D01*
X143510000Y-60198000D02*
X143002000Y-59690000D01*
X86360000Y-121158000D02*
X62992000Y-121158000D01*
X143002000Y-59690000D02*
X140970000Y-59690000D01*
X143510000Y-62230000D02*
X143510000Y-60198000D01*
X200660000Y-66548000D02*
X200660000Y-63500000D01*
X190500000Y-69850000D02*
X197358000Y-69850000D01*
X187960000Y-73660000D02*
X187960000Y-72390000D01*
X187960000Y-72390000D02*
X190500000Y-69850000D01*
X197358000Y-69850000D02*
X200660000Y-66548000D01*
X187452000Y-66548000D02*
X184150000Y-69850000D01*
X191770000Y-65532000D02*
X190754000Y-66548000D01*
X191770000Y-63500000D02*
X191770000Y-65532000D01*
X190754000Y-66548000D02*
X187452000Y-66548000D01*
X184150000Y-69850000D02*
X184150000Y-78740000D01*
X167894000Y-80264000D02*
X166370000Y-78740000D01*
X242555000Y-81295000D02*
X243078000Y-80772000D01*
X241300000Y-75184000D02*
X241300000Y-73660000D01*
X243078000Y-80772000D02*
X243078000Y-76962000D01*
X198882000Y-80264000D02*
X167894000Y-80264000D01*
X235966000Y-80518000D02*
X241300000Y-75184000D01*
X216408000Y-80518000D02*
X235966000Y-80518000D01*
X214630000Y-78740000D02*
X212852000Y-76962000D01*
X212852000Y-76962000D02*
X202184000Y-76962000D01*
X214630000Y-78740000D02*
X216408000Y-80518000D01*
X241300000Y-81295000D02*
X242555000Y-81295000D01*
X243078000Y-76962000D02*
X241300000Y-75184000D01*
X202184000Y-76962000D02*
X198882000Y-80264000D01*
X192278000Y-67818000D02*
X187960000Y-67818000D01*
X185420000Y-70358000D02*
X185420000Y-73660000D01*
X194310000Y-63500000D02*
X194310000Y-65786000D01*
X187960000Y-67818000D02*
X185420000Y-70358000D01*
X194310000Y-65786000D02*
X192278000Y-67818000D01*
X185420000Y-63500000D02*
X185420000Y-64770000D01*
X181610000Y-68580000D02*
X181610000Y-78740000D01*
X185420000Y-64770000D02*
X181610000Y-68580000D01*
X182880000Y-69088000D02*
X182880000Y-73660000D01*
X187960000Y-65024000D02*
X187198000Y-65786000D01*
X186182000Y-65786000D02*
X182880000Y-69088000D01*
X187960000Y-63500000D02*
X187960000Y-65024000D01*
X187198000Y-65786000D02*
X186182000Y-65786000D01*
X179070000Y-63500000D02*
X179070000Y-78740000D01*
X181610000Y-66294000D02*
X180340000Y-67564000D01*
X180340000Y-67564000D02*
X180340000Y-73660000D01*
X181610000Y-63500000D02*
X181610000Y-66294000D01*
X172720000Y-63500000D02*
X172720000Y-66040000D01*
X172720000Y-66040000D02*
X176530000Y-69850000D01*
X176530000Y-69850000D02*
X176530000Y-78740000D01*
X175260000Y-66294000D02*
X177800000Y-68834000D01*
X175260000Y-63500000D02*
X175260000Y-66294000D01*
X177800000Y-68834000D02*
X177800000Y-73660000D01*
X167386000Y-67818000D02*
X170942000Y-67818000D01*
X166370000Y-66802000D02*
X167386000Y-67818000D01*
X166370000Y-63500000D02*
X166370000Y-66802000D01*
X173990000Y-70866000D02*
X173990000Y-78740000D01*
X170942000Y-67818000D02*
X173990000Y-70866000D01*
X175260000Y-70104000D02*
X175260000Y-73660000D01*
X168910000Y-63500000D02*
X168910000Y-65278000D01*
X171958000Y-66802000D02*
X175260000Y-70104000D01*
X168910000Y-65278000D02*
X170434000Y-66802000D01*
X170434000Y-66802000D02*
X171958000Y-66802000D01*
X171450000Y-71882000D02*
X169926000Y-70358000D01*
X169926000Y-70358000D02*
X163068000Y-70358000D01*
X171450000Y-78740000D02*
X171450000Y-71882000D01*
X163068000Y-70358000D02*
X160020000Y-67310000D01*
X160020000Y-67310000D02*
X160020000Y-63500000D01*
X162560000Y-66294000D02*
X165354000Y-69088000D01*
X165354000Y-69088000D02*
X170434000Y-69088000D01*
X162560000Y-63500000D02*
X162560000Y-66294000D01*
X170434000Y-69088000D02*
X172720000Y-71374000D01*
X172720000Y-71374000D02*
X172720000Y-73660000D01*
X166116000Y-75946000D02*
X168910000Y-78740000D01*
X163068000Y-75946000D02*
X166116000Y-75946000D01*
X153670000Y-66548000D02*
X163068000Y-75946000D01*
X153670000Y-63500000D02*
X153670000Y-66548000D01*
X156210000Y-66294000D02*
X161290000Y-71374000D01*
X169164000Y-71374000D02*
X170180000Y-72390000D01*
X161290000Y-71374000D02*
X169164000Y-71374000D01*
X156210000Y-63500000D02*
X156210000Y-66294000D01*
X170180000Y-72390000D02*
X170180000Y-73660000D01*
X53594000Y-93980000D02*
X52070000Y-95504000D01*
X58166000Y-94996000D02*
X81280000Y-94996000D01*
X68580000Y-146304000D02*
X68580000Y-144780000D01*
X52070000Y-97282000D02*
X53086000Y-98298000D01*
X110744000Y-94996000D02*
X114300000Y-91440000D01*
X53340000Y-137160000D02*
X62992000Y-146812000D01*
X53086000Y-98298000D02*
X53086000Y-115824000D01*
X57150000Y-93980000D02*
X58166000Y-94996000D01*
X51562000Y-123952000D02*
X53340000Y-125730000D01*
X51562000Y-117348000D02*
X51562000Y-123952000D01*
X53086000Y-115824000D02*
X51562000Y-117348000D01*
X68072000Y-146812000D02*
X68580000Y-146304000D01*
X52070000Y-95504000D02*
X52070000Y-97282000D01*
X62992000Y-146812000D02*
X68072000Y-146812000D01*
X53340000Y-125730000D02*
X53340000Y-137160000D01*
X81280000Y-94996000D02*
X110744000Y-94996000D01*
X53340000Y-60960000D02*
X53340000Y-77470000D01*
X166370000Y-99314000D02*
X166370000Y-97790000D01*
X175006000Y-99314000D02*
X166370000Y-99314000D01*
X53340000Y-77470000D02*
X120142000Y-77470000D01*
X133350000Y-99314000D02*
X166370000Y-99314000D01*
X128778000Y-94742000D02*
X133350000Y-99314000D01*
X128778000Y-86106000D02*
X128778000Y-94742000D01*
X175260000Y-118110000D02*
X175260000Y-111506000D01*
X120142000Y-77470000D02*
X128778000Y-86106000D01*
X166370000Y-86360000D02*
X166370000Y-93980000D01*
X168910000Y-86360000D02*
X168910000Y-93980000D01*
X55880000Y-78232000D02*
X119888000Y-78232000D01*
X133096000Y-100076000D02*
X168910000Y-100076000D01*
X128016000Y-86360000D02*
X128016000Y-94996000D01*
X128016000Y-94996000D02*
X133096000Y-100076000D01*
X168910000Y-100076000D02*
X177800000Y-100076000D01*
X119888000Y-78232000D02*
X128016000Y-86360000D01*
X55880000Y-60960000D02*
X55880000Y-76708000D01*
X177800000Y-118110000D02*
X177800000Y-111506000D01*
X132842000Y-100838000D02*
X127254000Y-95250000D01*
X171450000Y-86360000D02*
X171450000Y-93980000D01*
X127254000Y-86614000D02*
X119634000Y-78994000D01*
X58420000Y-60960000D02*
X58420000Y-76708000D01*
X171450000Y-100838000D02*
X132842000Y-100838000D01*
X180340000Y-118110000D02*
X180340000Y-111506000D01*
X180340000Y-100838000D02*
X171450000Y-100838000D01*
X119634000Y-78994000D02*
X58420000Y-78994000D01*
X127254000Y-95250000D02*
X127254000Y-86614000D01*
X173990000Y-101600000D02*
X132588000Y-101600000D01*
X126492000Y-95504000D02*
X126492000Y-86868000D01*
X182880000Y-101600000D02*
X173990000Y-101600000D01*
X60960000Y-60960000D02*
X60960000Y-76708000D01*
X182880000Y-118110000D02*
X182880000Y-111506000D01*
X173990000Y-86360000D02*
X173990000Y-93980000D01*
X119380000Y-79756000D02*
X60960000Y-79756000D01*
X132588000Y-101600000D02*
X126492000Y-95504000D01*
X126492000Y-86868000D02*
X119380000Y-79756000D01*
X132334000Y-102362000D02*
X125730000Y-95758000D01*
X125730000Y-87122000D02*
X119126000Y-80518000D01*
X185420000Y-102362000D02*
X176530000Y-102362000D01*
X176530000Y-102362000D02*
X132334000Y-102362000D01*
X176530000Y-86360000D02*
X176530000Y-93980000D01*
X119126000Y-80518000D02*
X63500000Y-80518000D01*
X125730000Y-95758000D02*
X125730000Y-87122000D01*
X63500000Y-60960000D02*
X63500000Y-76708000D01*
X185420000Y-118110000D02*
X185420000Y-111506000D01*
X66040000Y-60960000D02*
X66040000Y-76708000D01*
X187960000Y-118110000D02*
X187960000Y-111506000D01*
X124968000Y-87376000D02*
X124968000Y-96012000D01*
X66040000Y-81280000D02*
X118872000Y-81280000D01*
X179070000Y-103124000D02*
X187960000Y-103124000D01*
X179070000Y-86360000D02*
X179070000Y-93980000D01*
X124968000Y-96012000D02*
X132080000Y-103124000D01*
X132080000Y-103124000D02*
X179070000Y-103124000D01*
X118872000Y-81280000D02*
X124968000Y-87376000D01*
X118618000Y-82042000D02*
X68580000Y-82042000D01*
X124206000Y-87630000D02*
X118618000Y-82042000D01*
X181610000Y-86360000D02*
X181610000Y-93980000D01*
X124206000Y-96266000D02*
X124206000Y-87630000D01*
X68580000Y-60960000D02*
X68580000Y-76708000D01*
X131826000Y-103886000D02*
X124206000Y-96266000D01*
X190500000Y-103886000D02*
X181610000Y-103886000D01*
X190500000Y-111506000D02*
X190500000Y-118110000D01*
X181610000Y-103886000D02*
X131826000Y-103886000D01*
X123444000Y-87884000D02*
X118364000Y-82804000D01*
X193040000Y-118110000D02*
X193040000Y-111506000D01*
X71120000Y-82804000D02*
X93980000Y-82804000D01*
X193040000Y-104648000D02*
X131572000Y-104648000D01*
X131572000Y-104648000D02*
X123444000Y-96520000D01*
X71120000Y-60960000D02*
X71120000Y-76708000D01*
X118364000Y-82804000D02*
X93980000Y-82804000D01*
X184150000Y-86360000D02*
X184150000Y-93980000D01*
X123444000Y-96520000D02*
X123444000Y-87884000D01*
X214630000Y-99060000D02*
X214630000Y-97028000D01*
X118177026Y-83566000D02*
X78740000Y-83566000D01*
X73660000Y-60960000D02*
X73660000Y-76708000D01*
X208280000Y-105410000D02*
X214630000Y-99060000D01*
X208280000Y-118110000D02*
X208280000Y-111506000D01*
X73660000Y-83566000D02*
X78740000Y-83566000D01*
X122682000Y-88070974D02*
X118177026Y-83566000D01*
X122682000Y-96774000D02*
X122682000Y-88070974D01*
X214630000Y-86360000D02*
X214630000Y-93980000D01*
X208280000Y-105410000D02*
X131318000Y-105410000D01*
X131318000Y-105410000D02*
X122682000Y-96774000D01*
X210820000Y-118110000D02*
X210820000Y-111506000D01*
X76200000Y-60960000D02*
X76200000Y-76708000D01*
X121920000Y-88392000D02*
X121920000Y-97028000D01*
X217170000Y-86360000D02*
X217170000Y-93980000D01*
X217170000Y-97028000D02*
X217170000Y-99822000D01*
X121920000Y-97028000D02*
X131064000Y-106172000D01*
X131064000Y-106172000D02*
X210820000Y-106172000D01*
X76200000Y-84328000D02*
X117856000Y-84328000D01*
X117856000Y-84328000D02*
X121920000Y-88392000D01*
X217170000Y-99822000D02*
X210820000Y-106172000D01*
X78740000Y-60960000D02*
X78740000Y-76708000D01*
X213360000Y-118110000D02*
X213360000Y-111506000D01*
X213360000Y-106934000D02*
X146050000Y-106934000D01*
X219710000Y-86360000D02*
X219710000Y-93980000D01*
X121158000Y-97282000D02*
X121158000Y-88578974D01*
X146050000Y-106934000D02*
X130810000Y-106934000D01*
X219710000Y-100584000D02*
X213360000Y-106934000D01*
X77470000Y-85090000D02*
X73660000Y-85090000D01*
X219710000Y-97028000D02*
X219710000Y-100584000D01*
X121158000Y-88578974D02*
X117669026Y-85090000D01*
X117669026Y-85090000D02*
X77470000Y-85090000D01*
X130810000Y-106934000D02*
X121158000Y-97282000D01*
X81280000Y-60960000D02*
X81280000Y-76708000D01*
X120396000Y-88900000D02*
X117348000Y-85852000D01*
X117348000Y-85852000D02*
X81280000Y-85852000D01*
X222250000Y-101346000D02*
X215900000Y-107696000D01*
X169926000Y-107696000D02*
X130556000Y-107696000D01*
X215900000Y-118110000D02*
X215900000Y-111506000D01*
X130556000Y-107696000D02*
X120396000Y-97536000D01*
X222250000Y-97028000D02*
X222250000Y-101346000D01*
X222250000Y-86360000D02*
X222250000Y-93980000D01*
X120396000Y-97536000D02*
X120396000Y-88900000D01*
X175006000Y-107696000D02*
X169926000Y-107696000D01*
X215900000Y-107696000D02*
X175006000Y-107696000D01*
X81280000Y-85852000D02*
X71120000Y-85852000D01*
X224790000Y-102108000D02*
X218440000Y-108458000D01*
X119634000Y-97790000D02*
X119634000Y-89154000D01*
X83820000Y-86614000D02*
X68580000Y-86614000D01*
X83820000Y-60960000D02*
X83820000Y-76708000D01*
X117094000Y-86614000D02*
X83820000Y-86614000D01*
X224790000Y-97028000D02*
X224790000Y-102108000D01*
X224790000Y-86360000D02*
X224790000Y-93980000D01*
X119634000Y-89154000D02*
X117094000Y-86614000D01*
X130302000Y-108458000D02*
X119634000Y-97790000D01*
X218440000Y-108458000D02*
X130302000Y-108458000D01*
X218440000Y-118110000D02*
X218440000Y-111506000D01*
X220980000Y-118110000D02*
X220980000Y-111506000D01*
X116840000Y-87376000D02*
X86360000Y-87376000D01*
X227330000Y-97028000D02*
X227330000Y-102870000D01*
X118872000Y-89408000D02*
X116840000Y-87376000D01*
X86360000Y-87376000D02*
X66040000Y-87376000D01*
X227330000Y-102870000D02*
X220980000Y-109220000D01*
X130048000Y-109220000D02*
X118872000Y-98044000D01*
X86360000Y-60960000D02*
X86360000Y-76708000D01*
X220980000Y-109220000D02*
X130048000Y-109220000D01*
X118872000Y-98044000D02*
X118872000Y-89408000D01*
X227330000Y-86360000D02*
X227330000Y-93980000D01*
X223520000Y-109982000D02*
X229870000Y-103632000D01*
X118110000Y-89662000D02*
X118110000Y-98298000D01*
X88900000Y-88138000D02*
X116586000Y-88138000D01*
X118110000Y-98298000D02*
X129794000Y-109982000D01*
X64770000Y-88138000D02*
X64516000Y-88138000D01*
X229870000Y-86360000D02*
X229870000Y-93980000D01*
X116586000Y-88138000D02*
X118110000Y-89662000D01*
X64770000Y-88138000D02*
X88900000Y-88138000D01*
X88900000Y-60960000D02*
X88900000Y-76708000D01*
X129794000Y-109982000D02*
X223520000Y-109982000D01*
X64516000Y-88138000D02*
X63500000Y-88138000D01*
X229870000Y-103632000D02*
X229870000Y-97028000D01*
X223520000Y-118110000D02*
X223520000Y-111506000D01*
X226060000Y-118110000D02*
X226060000Y-110744000D01*
X226060000Y-110744000D02*
X129540000Y-110744000D01*
X91440000Y-60960000D02*
X91440000Y-73406000D01*
X91440000Y-88900000D02*
X60960000Y-88900000D01*
X232410000Y-97028000D02*
X232410000Y-104394000D01*
X232410000Y-104394000D02*
X226060000Y-110744000D01*
X91440000Y-73406000D02*
X91440000Y-76708000D01*
X129540000Y-110744000D02*
X117348000Y-98552000D01*
X117348000Y-98552000D02*
X117348000Y-89916000D01*
X117348000Y-89916000D02*
X116332000Y-88900000D01*
X60960000Y-91440000D02*
X60960000Y-88900000D01*
X116332000Y-88900000D02*
X91440000Y-88900000D01*
X232410000Y-86360000D02*
X232410000Y-93980000D01*
X244856000Y-98298000D02*
X242824000Y-96266000D01*
X244602000Y-114554000D02*
X242570000Y-114554000D01*
X244602000Y-114554000D02*
X244856000Y-114300000D01*
X242570000Y-114554000D02*
X241808000Y-115316000D01*
X241808000Y-115316000D02*
X241808000Y-124968000D01*
X129540000Y-80010000D02*
X129540000Y-73660000D01*
X244856000Y-114300000D02*
X244856000Y-98298000D01*
X145796000Y-96266000D02*
X129540000Y-80010000D01*
X241808000Y-124968000D02*
X243518974Y-126678974D01*
X242824000Y-96266000D02*
X145796000Y-96266000D01*
X245872000Y-119888000D02*
X243840000Y-121920000D01*
X245872000Y-117602000D02*
X245872000Y-119888000D01*
X245872000Y-116078000D02*
X245872000Y-98044000D01*
X132080000Y-81280000D02*
X132080000Y-73660000D01*
X245872000Y-98044000D02*
X243332000Y-95504000D01*
X243332000Y-95504000D02*
X146304000Y-95504000D01*
X146304000Y-95504000D02*
X132080000Y-81280000D01*
X146866000Y-94796000D02*
X243894000Y-94796000D01*
X243894000Y-94796000D02*
X246888000Y-97790000D01*
X246380000Y-116840000D02*
X243840000Y-116840000D01*
X246888000Y-116332000D02*
X246380000Y-116840000D01*
X134620000Y-73660000D02*
X134620000Y-82550000D01*
X134620000Y-82550000D02*
X146866000Y-94796000D01*
X246888000Y-97790000D02*
X246888000Y-116332000D01*
X235966000Y-111506000D02*
X238760000Y-111506000D01*
X123444000Y-75184000D02*
X110744000Y-75184000D01*
X172212000Y-97028000D02*
X145288000Y-97028000D01*
X227584000Y-119888000D02*
X235966000Y-111506000D01*
X172720000Y-97536000D02*
X172212000Y-97028000D01*
X174578000Y-119888000D02*
X205740000Y-119888000D01*
X172720000Y-118030000D02*
X174578000Y-119888000D01*
X145288000Y-97028000D02*
X123444000Y-75184000D01*
X172720000Y-118110000D02*
X172720000Y-111506000D01*
X110744000Y-75184000D02*
X109220000Y-73660000D01*
X205740000Y-119888000D02*
X227584000Y-119888000D01*
X172720000Y-98552000D02*
X172720000Y-97536000D01*
X205740000Y-119888000D02*
X205740000Y-118110000D01*
X74930000Y-124460000D02*
X101600000Y-124460000D01*
X158750000Y-111506000D02*
X158750000Y-119634000D01*
X157480000Y-124380000D02*
X157480000Y-125650000D01*
X101600000Y-125730000D02*
X101600000Y-124460000D01*
X156210000Y-124380000D02*
X157480000Y-124380000D01*
X146050000Y-124888000D02*
X146558000Y-124380000D01*
X149352000Y-83820000D02*
X158750000Y-93218000D01*
X129540000Y-124460000D02*
X129540000Y-125730000D01*
X140970000Y-127174000D02*
X145542000Y-127174000D01*
X149352000Y-65532000D02*
X144780000Y-60960000D01*
X149352000Y-70612000D02*
X149352000Y-83820000D01*
X73660000Y-125730000D02*
X74930000Y-124460000D01*
X145542000Y-127174000D02*
X146050000Y-126666000D01*
X158750000Y-123110000D02*
X157480000Y-124380000D01*
X101600000Y-124460000D02*
X129540000Y-124460000D01*
X146050000Y-126666000D02*
X146050000Y-124888000D01*
X146558000Y-124380000D02*
X156210000Y-124380000D01*
X149352000Y-69088000D02*
X149352000Y-65532000D01*
X129540000Y-124460000D02*
X138256000Y-124460000D01*
X138256000Y-124460000D02*
X140970000Y-127174000D01*
X158750000Y-121158000D02*
X158750000Y-123110000D01*
X121412000Y-72136000D02*
X123698000Y-69850000D01*
X143510000Y-64770000D02*
X142240000Y-63500000D01*
X116840000Y-73660000D02*
X118364000Y-72136000D01*
X140970000Y-69850000D02*
X143510000Y-67310000D01*
X142240000Y-63500000D02*
X142240000Y-60960000D01*
X143510000Y-67310000D02*
X143510000Y-64770000D01*
X123698000Y-69850000D02*
X140970000Y-69850000D01*
X118364000Y-72136000D02*
X121412000Y-72136000D01*
X161290000Y-111506000D02*
X160020000Y-112776000D01*
X76200000Y-120396000D02*
X104140000Y-120396000D01*
X160020000Y-112776000D02*
X160020000Y-118110000D01*
X135890000Y-82296000D02*
X135890000Y-71882000D01*
X161290000Y-93980000D02*
X147574000Y-93980000D01*
X147574000Y-93980000D02*
X135890000Y-82296000D01*
X160020000Y-120142000D02*
X160020000Y-118110000D01*
X104140000Y-120396000D02*
X132080000Y-120396000D01*
X159766000Y-120396000D02*
X160020000Y-120142000D01*
X135890000Y-71882000D02*
X134620000Y-70612000D01*
X132080000Y-120396000D02*
X159766000Y-120396000D01*
X131064000Y-119634000D02*
X143256000Y-119634000D01*
X143256000Y-119634000D02*
X144780000Y-118110000D01*
X129540000Y-118110000D02*
X131064000Y-119634000D01*
X115262000Y-119608000D02*
X116840000Y-118030000D01*
X101600000Y-118110000D02*
X103098000Y-119608000D01*
X103098000Y-119608000D02*
X115262000Y-119608000D01*
X73660000Y-118110000D02*
X75184000Y-119634000D01*
X87376000Y-119634000D02*
X88900000Y-118110000D01*
X75184000Y-119634000D02*
X87376000Y-119634000D01*
X115824000Y-72136000D02*
X116586000Y-71374000D01*
X110998000Y-72136000D02*
X108204000Y-72136000D01*
X120904000Y-71374000D02*
X123190000Y-69088000D01*
X139192000Y-69088000D02*
X142240000Y-66040000D01*
X114300000Y-73660000D02*
X115824000Y-72136000D01*
X108204000Y-72136000D02*
X106680000Y-73660000D01*
X123190000Y-69088000D02*
X139192000Y-69088000D01*
X116586000Y-71374000D02*
X120904000Y-71374000D01*
X120396000Y-70612000D02*
X114808000Y-70612000D01*
X139700000Y-66040000D02*
X137414000Y-68326000D01*
X122682000Y-68326000D02*
X120396000Y-70612000D01*
X114808000Y-70612000D02*
X111760000Y-73660000D01*
X137414000Y-68326000D02*
X122682000Y-68326000D01*
X106426000Y-71374000D02*
X104140000Y-73660000D01*
X122174000Y-67564000D02*
X119888000Y-69850000D01*
X111506000Y-71374000D02*
X106426000Y-71374000D01*
X119888000Y-69850000D02*
X113030000Y-69850000D01*
X135636000Y-67564000D02*
X122174000Y-67564000D01*
X137160000Y-66040000D02*
X135636000Y-67564000D01*
X113030000Y-69850000D02*
X111506000Y-71374000D01*
M02*
