G04 #@! TF.GenerationSoftware,KiCad,Pcbnew,(5.1.5)-3*
G04 #@! TF.CreationDate,2022-12-08T21:20:14-08:00*
G04 #@! TF.ProjectId,alu,616c752e-6b69-4636-9164-5f7063625858,rev?*
G04 #@! TF.SameCoordinates,Original*
G04 #@! TF.FileFunction,Legend,Bot*
G04 #@! TF.FilePolarity,Positive*
%FSLAX46Y46*%
G04 Gerber Fmt 4.6, Leading zero omitted, Abs format (unit mm)*
G04 Created by KiCad (PCBNEW (5.1.5)-3) date 2022-12-08 21:20:14*
%MOMM*%
%LPD*%
G04 APERTURE LIST*
%ADD10O,1.702000X1.702000*%
%ADD11R,1.702000X1.702000*%
%ADD12O,1.802000X1.802000*%
%ADD13R,1.802000X1.802000*%
%ADD14C,1.702000*%
%ADD15C,1.902000*%
%ADD16R,1.902000X1.902000*%
G04 APERTURE END LIST*
%LPC*%
D10*
X236220000Y-91440000D03*
X251460000Y-99060000D03*
X238760000Y-91440000D03*
X248920000Y-99060000D03*
X241300000Y-91440000D03*
X246380000Y-99060000D03*
X243840000Y-91440000D03*
X243840000Y-99060000D03*
X246380000Y-91440000D03*
X241300000Y-99060000D03*
X248920000Y-91440000D03*
X238760000Y-99060000D03*
X251460000Y-91440000D03*
D11*
X236220000Y-99060000D03*
D12*
X243840000Y-81280000D03*
X243840000Y-78740000D03*
D13*
X243840000Y-76200000D03*
D10*
X104140000Y-71120000D03*
X127000000Y-78740000D03*
X106680000Y-71120000D03*
X124460000Y-78740000D03*
X109220000Y-71120000D03*
X121920000Y-78740000D03*
X111760000Y-71120000D03*
X119380000Y-78740000D03*
X114300000Y-71120000D03*
X116840000Y-78740000D03*
X116840000Y-71120000D03*
X114300000Y-78740000D03*
X119380000Y-71120000D03*
X111760000Y-78740000D03*
X121920000Y-71120000D03*
X109220000Y-78740000D03*
X124460000Y-71120000D03*
X106680000Y-78740000D03*
X127000000Y-71120000D03*
D11*
X104140000Y-78740000D03*
D10*
X134620000Y-71120000D03*
X157480000Y-78740000D03*
X137160000Y-71120000D03*
X154940000Y-78740000D03*
X139700000Y-71120000D03*
X152400000Y-78740000D03*
X142240000Y-71120000D03*
X149860000Y-78740000D03*
X144780000Y-71120000D03*
X147320000Y-78740000D03*
X147320000Y-71120000D03*
X144780000Y-78740000D03*
X149860000Y-71120000D03*
X142240000Y-78740000D03*
X152400000Y-71120000D03*
X139700000Y-78740000D03*
X154940000Y-71120000D03*
X137160000Y-78740000D03*
X157480000Y-71120000D03*
D11*
X134620000Y-78740000D03*
D14*
X99060000Y-76120000D03*
X99060000Y-71120000D03*
X139620000Y-66040000D03*
X134620000Y-66040000D03*
D12*
X99060000Y-58420000D03*
D13*
X101600000Y-58420000D03*
D10*
X199390000Y-68834000D03*
D14*
X209550000Y-68834000D03*
D10*
X124460000Y-130810000D03*
X147320000Y-138430000D03*
X127000000Y-130810000D03*
X144780000Y-138430000D03*
X129540000Y-130810000D03*
X142240000Y-138430000D03*
X132080000Y-130810000D03*
X139700000Y-138430000D03*
X134620000Y-130810000D03*
X137160000Y-138430000D03*
X137160000Y-130810000D03*
X134620000Y-138430000D03*
X139700000Y-130810000D03*
X132080000Y-138430000D03*
X142240000Y-130810000D03*
X129540000Y-138430000D03*
X144780000Y-130810000D03*
X127000000Y-138430000D03*
X147320000Y-130810000D03*
D11*
X124460000Y-138430000D03*
D10*
X93980000Y-130810000D03*
X116840000Y-138430000D03*
X96520000Y-130810000D03*
X114300000Y-138430000D03*
X99060000Y-130810000D03*
X111760000Y-138430000D03*
X101600000Y-130810000D03*
X109220000Y-138430000D03*
X104140000Y-130810000D03*
X106680000Y-138430000D03*
X106680000Y-130810000D03*
X104140000Y-138430000D03*
X109220000Y-130810000D03*
X101600000Y-138430000D03*
X111760000Y-130810000D03*
X99060000Y-138430000D03*
X114300000Y-130810000D03*
X96520000Y-138430000D03*
X116840000Y-130810000D03*
D11*
X93980000Y-138430000D03*
D14*
X120650000Y-125810000D03*
X120650000Y-130810000D03*
X97964000Y-142240000D03*
X92964000Y-142240000D03*
D13*
X88900000Y-142240000D03*
D12*
X86360000Y-142240000D03*
X83820000Y-142240000D03*
X81280000Y-142240000D03*
X78740000Y-142240000D03*
X76200000Y-142240000D03*
X73660000Y-142240000D03*
X71120000Y-142240000D03*
X68580000Y-142240000D03*
X66040000Y-142240000D03*
D13*
X139700000Y-142240000D03*
D12*
X137160000Y-142240000D03*
X134620000Y-142240000D03*
X132080000Y-142240000D03*
X129540000Y-142240000D03*
X127000000Y-142240000D03*
X124460000Y-142240000D03*
X121920000Y-142240000D03*
X119380000Y-142240000D03*
X116840000Y-142240000D03*
X114300000Y-142240000D03*
X111760000Y-142240000D03*
X109220000Y-142240000D03*
X106680000Y-142240000D03*
X104140000Y-142240000D03*
X101600000Y-142240000D03*
X165100000Y-142240000D03*
X167640000Y-142240000D03*
X170180000Y-142240000D03*
X172720000Y-142240000D03*
X175260000Y-142240000D03*
X177800000Y-142240000D03*
X180340000Y-142240000D03*
X182880000Y-142240000D03*
X185420000Y-142240000D03*
X187960000Y-142240000D03*
X190500000Y-142240000D03*
X193040000Y-142240000D03*
X195580000Y-142240000D03*
X198120000Y-142240000D03*
X200660000Y-142240000D03*
X203200000Y-142240000D03*
X205740000Y-142240000D03*
X208280000Y-142240000D03*
X210820000Y-142240000D03*
X213360000Y-142240000D03*
X215900000Y-142240000D03*
X218440000Y-142240000D03*
X220980000Y-142240000D03*
X223520000Y-142240000D03*
X226060000Y-142240000D03*
X228600000Y-142240000D03*
X231140000Y-142240000D03*
X233680000Y-142240000D03*
X236220000Y-142240000D03*
X238760000Y-142240000D03*
X241300000Y-142240000D03*
D13*
X243840000Y-142240000D03*
D15*
X156210000Y-60960000D03*
D16*
X158750000Y-60960000D03*
D15*
X162560000Y-60960000D03*
D16*
X165100000Y-60960000D03*
D15*
X168910000Y-60960000D03*
D16*
X171450000Y-60960000D03*
D15*
X175260000Y-60960000D03*
D16*
X177800000Y-60960000D03*
D15*
X181610000Y-60960000D03*
D16*
X184150000Y-60960000D03*
D15*
X187960000Y-60960000D03*
D16*
X190500000Y-60960000D03*
D15*
X194310000Y-60960000D03*
D16*
X196850000Y-60960000D03*
D15*
X200660000Y-60960000D03*
D16*
X203200000Y-60960000D03*
D15*
X207010000Y-60960000D03*
D16*
X209550000Y-60960000D03*
D15*
X213360000Y-60960000D03*
D16*
X215900000Y-60960000D03*
D15*
X219710000Y-60960000D03*
D16*
X222250000Y-60960000D03*
D15*
X226060000Y-60960000D03*
D16*
X228600000Y-60960000D03*
D15*
X232410000Y-60960000D03*
D16*
X234950000Y-60960000D03*
D15*
X238760000Y-60960000D03*
D16*
X241300000Y-60960000D03*
D15*
X245110000Y-60960000D03*
D16*
X247650000Y-60960000D03*
D15*
X251460000Y-60960000D03*
D16*
X254000000Y-60960000D03*
D14*
X174284000Y-123190000D03*
D11*
X176784000Y-123190000D03*
D14*
X198120000Y-86320000D03*
D11*
X198120000Y-83820000D03*
D14*
X60920000Y-142240000D03*
D11*
X58420000Y-142240000D03*
D10*
X96520000Y-106680000D03*
X124460000Y-121920000D03*
X99060000Y-106680000D03*
X121920000Y-121920000D03*
X101600000Y-106680000D03*
X119380000Y-121920000D03*
X104140000Y-106680000D03*
X116840000Y-121920000D03*
X106680000Y-106680000D03*
X114300000Y-121920000D03*
X109220000Y-106680000D03*
X111760000Y-121920000D03*
X111760000Y-106680000D03*
X109220000Y-121920000D03*
X114300000Y-106680000D03*
X106680000Y-121920000D03*
X116840000Y-106680000D03*
X104140000Y-121920000D03*
X119380000Y-106680000D03*
X101600000Y-121920000D03*
X121920000Y-106680000D03*
X99060000Y-121920000D03*
X124460000Y-106680000D03*
D11*
X96520000Y-121920000D03*
D10*
X60960000Y-66040000D03*
X78740000Y-73660000D03*
X63500000Y-66040000D03*
X76200000Y-73660000D03*
X66040000Y-66040000D03*
X73660000Y-73660000D03*
X68580000Y-66040000D03*
X71120000Y-73660000D03*
X71120000Y-66040000D03*
X68580000Y-73660000D03*
X73660000Y-66040000D03*
X66040000Y-73660000D03*
X76200000Y-66040000D03*
X63500000Y-73660000D03*
X78740000Y-66040000D03*
D11*
X60960000Y-73660000D03*
D10*
X60960000Y-101600000D03*
X78740000Y-109220000D03*
X63500000Y-101600000D03*
X76200000Y-109220000D03*
X66040000Y-101600000D03*
X73660000Y-109220000D03*
X68580000Y-101600000D03*
X71120000Y-109220000D03*
X71120000Y-101600000D03*
X68580000Y-109220000D03*
X73660000Y-101600000D03*
X66040000Y-109220000D03*
X76200000Y-101600000D03*
X63500000Y-109220000D03*
X78740000Y-101600000D03*
D11*
X60960000Y-109220000D03*
D10*
X60960000Y-83820000D03*
X78740000Y-91440000D03*
X63500000Y-83820000D03*
X76200000Y-91440000D03*
X66040000Y-83820000D03*
X73660000Y-91440000D03*
X68580000Y-83820000D03*
X71120000Y-91440000D03*
X71120000Y-83820000D03*
X68580000Y-91440000D03*
X73660000Y-83820000D03*
X66040000Y-91440000D03*
X76200000Y-83820000D03*
X63500000Y-91440000D03*
X78740000Y-83820000D03*
D11*
X60960000Y-91440000D03*
D10*
X60960000Y-119380000D03*
X78740000Y-127000000D03*
X63500000Y-119380000D03*
X76200000Y-127000000D03*
X66040000Y-119380000D03*
X73660000Y-127000000D03*
X68580000Y-119380000D03*
X71120000Y-127000000D03*
X71120000Y-119380000D03*
X68580000Y-127000000D03*
X73660000Y-119380000D03*
X66040000Y-127000000D03*
X76200000Y-119380000D03*
X63500000Y-127000000D03*
X78740000Y-119380000D03*
D11*
X60960000Y-127000000D03*
D10*
X139700000Y-106680000D03*
X167640000Y-121920000D03*
X142240000Y-106680000D03*
X165100000Y-121920000D03*
X144780000Y-106680000D03*
X162560000Y-121920000D03*
X147320000Y-106680000D03*
X160020000Y-121920000D03*
X149860000Y-106680000D03*
X157480000Y-121920000D03*
X152400000Y-106680000D03*
X154940000Y-121920000D03*
X154940000Y-106680000D03*
X152400000Y-121920000D03*
X157480000Y-106680000D03*
X149860000Y-121920000D03*
X160020000Y-106680000D03*
X147320000Y-121920000D03*
X162560000Y-106680000D03*
X144780000Y-121920000D03*
X165100000Y-106680000D03*
X142240000Y-121920000D03*
X167640000Y-106680000D03*
D11*
X139700000Y-121920000D03*
D10*
X182880000Y-106680000D03*
X210820000Y-121920000D03*
X185420000Y-106680000D03*
X208280000Y-121920000D03*
X187960000Y-106680000D03*
X205740000Y-121920000D03*
X190500000Y-106680000D03*
X203200000Y-121920000D03*
X193040000Y-106680000D03*
X200660000Y-121920000D03*
X195580000Y-106680000D03*
X198120000Y-121920000D03*
X198120000Y-106680000D03*
X195580000Y-121920000D03*
X200660000Y-106680000D03*
X193040000Y-121920000D03*
X203200000Y-106680000D03*
X190500000Y-121920000D03*
X205740000Y-106680000D03*
X187960000Y-121920000D03*
X208280000Y-106680000D03*
X185420000Y-121920000D03*
X210820000Y-106680000D03*
D11*
X182880000Y-121920000D03*
D10*
X226060000Y-106680000D03*
X254000000Y-121920000D03*
X228600000Y-106680000D03*
X251460000Y-121920000D03*
X231140000Y-106680000D03*
X248920000Y-121920000D03*
X233680000Y-106680000D03*
X246380000Y-121920000D03*
X236220000Y-106680000D03*
X243840000Y-121920000D03*
X238760000Y-106680000D03*
X241300000Y-121920000D03*
X241300000Y-106680000D03*
X238760000Y-121920000D03*
X243840000Y-106680000D03*
X236220000Y-121920000D03*
X246380000Y-106680000D03*
X233680000Y-121920000D03*
X248920000Y-106680000D03*
X231140000Y-121920000D03*
X251460000Y-106680000D03*
X228600000Y-121920000D03*
X254000000Y-106680000D03*
D11*
X226060000Y-121920000D03*
D10*
X241300000Y-68580000D03*
X238760000Y-68580000D03*
X236220000Y-68580000D03*
X233680000Y-68580000D03*
X231140000Y-68580000D03*
X228600000Y-68580000D03*
X226060000Y-68580000D03*
X223520000Y-68580000D03*
D11*
X220980000Y-68580000D03*
D10*
X190500000Y-68580000D03*
X187960000Y-68580000D03*
X185420000Y-68580000D03*
X182880000Y-68580000D03*
X180340000Y-68580000D03*
X177800000Y-68580000D03*
X175260000Y-68580000D03*
X172720000Y-68580000D03*
D11*
X170180000Y-68580000D03*
D10*
X93980000Y-66040000D03*
D14*
X104140000Y-66040000D03*
D12*
X107950000Y-58420000D03*
X110490000Y-58420000D03*
X113030000Y-58420000D03*
X115570000Y-58420000D03*
X118110000Y-58420000D03*
X120650000Y-58420000D03*
X123190000Y-58420000D03*
X125730000Y-58420000D03*
X128270000Y-58420000D03*
X130810000Y-58420000D03*
X133350000Y-58420000D03*
X135890000Y-58420000D03*
X138430000Y-58420000D03*
X140970000Y-58420000D03*
X143510000Y-58420000D03*
X146050000Y-58420000D03*
X148590000Y-58420000D03*
D13*
X151130000Y-58420000D03*
D14*
X75866000Y-62484000D03*
X70866000Y-62484000D03*
X65960000Y-96520000D03*
X60960000Y-96520000D03*
X129620000Y-121920000D03*
X134620000Y-121920000D03*
X68500000Y-114300000D03*
X63500000Y-114300000D03*
X65960000Y-78740000D03*
X60960000Y-78740000D03*
X205740000Y-73660000D03*
X210740000Y-73660000D03*
X129620000Y-106680000D03*
X134620000Y-106680000D03*
X162560000Y-78660000D03*
X162560000Y-73660000D03*
X172720000Y-106680000D03*
X177720000Y-106680000D03*
X215980000Y-106680000D03*
X220980000Y-106680000D03*
X233760000Y-86360000D03*
X238760000Y-86360000D03*
D11*
X215900000Y-81280000D03*
D10*
X238760000Y-73660000D03*
X218440000Y-81280000D03*
X236220000Y-73660000D03*
X220980000Y-81280000D03*
X233680000Y-73660000D03*
X223520000Y-81280000D03*
X231140000Y-73660000D03*
X226060000Y-81280000D03*
X228600000Y-73660000D03*
X228600000Y-81280000D03*
X226060000Y-73660000D03*
X231140000Y-81280000D03*
X223520000Y-73660000D03*
X233680000Y-81280000D03*
X220980000Y-73660000D03*
X236220000Y-81280000D03*
X218440000Y-73660000D03*
X238760000Y-81280000D03*
X215900000Y-73660000D03*
D11*
X167640000Y-81280000D03*
D10*
X190500000Y-73660000D03*
X170180000Y-81280000D03*
X187960000Y-73660000D03*
X172720000Y-81280000D03*
X185420000Y-73660000D03*
X175260000Y-81280000D03*
X182880000Y-73660000D03*
X177800000Y-81280000D03*
X180340000Y-73660000D03*
X180340000Y-81280000D03*
X177800000Y-73660000D03*
X182880000Y-81280000D03*
X175260000Y-73660000D03*
X185420000Y-81280000D03*
X172720000Y-73660000D03*
X187960000Y-81280000D03*
X170180000Y-73660000D03*
X190500000Y-81280000D03*
X167640000Y-73660000D03*
D12*
X55880000Y-58420000D03*
X58420000Y-58420000D03*
X60960000Y-58420000D03*
X63500000Y-58420000D03*
X66040000Y-58420000D03*
X68580000Y-58420000D03*
X71120000Y-58420000D03*
X73660000Y-58420000D03*
X76200000Y-58420000D03*
X78740000Y-58420000D03*
X81280000Y-58420000D03*
X83820000Y-58420000D03*
X86360000Y-58420000D03*
X88900000Y-58420000D03*
X91440000Y-58420000D03*
D13*
X93980000Y-58420000D03*
M02*
