M48
; DRILL file {KiCad (5.1.5)-3} date 2022-12-08 9:21:29 PM
; FORMAT={-:-/ absolute / metric / decimal}
; #@! TF.CreationDate,2022-12-08T21:21:29-08:00
; #@! TF.GenerationSoftware,Kicad,Pcbnew,(5.1.5)-3
; #@! TF.FileFunction,Plated,1,2,PTH
FMAT,2
METRIC
T1C0.400
T2C0.800
T3C0.900
T4C1.000
%
G90
G05
T1
X55.372Y-68.58
X55.372Y-119.38
X55.372Y-120.65
X55.88Y-72.898
X55.88Y-84.074
X55.88Y-85.598
X55.88Y-71.628
X56.134Y-69.342
X56.134Y-76.2
X56.896Y-101.6
X56.896Y-102.87
X57.15Y-111.454
X57.658Y-81.534
X57.912Y-109.22
X57.912Y-112.268
X58.42Y-86.106
X58.674Y-103.632
X59.182Y-89.408
X60.198Y-103.632
X60.452Y-69.342
X60.706Y-81.534
X60.96Y-86.106
X60.96Y-112.268
X60.96Y-130.556
X60.96Y-134.366
X61.214Y-68.58
X61.468Y-89.408
X61.976Y-111.506
X63.754Y-70.358
X65.278Y-70.358
X66.04Y-129.794
X66.04Y-134.366
X66.548Y-112.268
X67.31Y-129.794
X67.31Y-134.366
X68.326Y-64.008
X68.58Y-77.216
X68.58Y-111.506
X68.58Y-94.488
X71.12Y-86.106
X72.39Y-115.824
X73.406Y-62.484
X73.66Y-129.032
X73.66Y-135.128
X73.914Y-124.968
X74.422Y-99.568
X74.93Y-129.032
X74.93Y-135.128
X75.946Y-124.968
X76.2Y-77.216
X76.2Y-94.488
X76.454Y-87.376
X76.708Y-124.206
X76.962Y-99.568
X78.74Y-69.342
X80.264Y-71.374
X80.992Y-89.356
X81.026Y-67.818
X81.026Y-69.342
X81.026Y-75.692
X81.026Y-81.026
X81.026Y-86.614
X81.026Y-92.964
X81.026Y-96.266
X81.534Y-71.374
X81.534Y-90.424
X81.788Y-67.056
X81.788Y-68.58
X81.788Y-76.454
X81.788Y-81.788
X81.788Y-85.852
X81.788Y-93.726
X81.788Y-97.028
X83.312Y-100.584
X83.312Y-101.6
X84.074Y-109.728
X84.074Y-110.998
X84.074Y-115.824
X84.836Y-118.872
X85.598Y-118.11
X86.36Y-138.43
X86.36Y-118.872
X86.36Y-129.032
X86.36Y-130.302
X86.36Y-139.7
X86.741Y-124.841
X87.63Y-123.952
X88.646Y-67.818
X88.646Y-74.93
X88.646Y-76.454
X88.646Y-86.36
X88.646Y-92.202
X88.646Y-93.726
X88.646Y-126.238
X88.646Y-129.032
X89.408Y-67.056
X89.408Y-68.58
X89.408Y-87.376
X90.17Y-69.342
X91.694Y-81.28
X91.694Y-82.55
X91.948Y-70.612
X93.218Y-70.612
X94.488Y-124.46
X95.25Y-95.758
X95.25Y-97.282
X95.25Y-98.806
X95.25Y-100.33
X95.25Y-101.854
X95.25Y-103.378
X95.504Y-116.078
X96.012Y-94.996
X96.012Y-96.52
X96.012Y-98.044
X96.012Y-99.568
X96.012Y-101.092
X96.012Y-102.616
X96.52Y-115.062
X96.52Y-123.698
X96.52Y-126.746
X97.028Y-94.234
X97.028Y-104.14
X97.79Y-114.046
X97.79Y-116.078
X98.292Y-93.98
X99.06Y-104.14
X100.33Y-114.046
X100.33Y-116.078
X100.33Y-123.698
X100.33Y-125.984
X102.362Y-123.698
X102.362Y-125.222
X103.886Y-94.234
X104.14Y-104.14
X104.648Y-125.984
X105.41Y-114.046
X105.41Y-119.888
X105.664Y-74.93
X106.68Y-126.746
X106.934Y-74.93
X107.95Y-77.216
X107.95Y-83.566
X107.95Y-126.746
X109.22Y-66.04
X109.22Y-94.234
X109.22Y-104.14
X109.22Y-127.508
X110.49Y-77.216
X110.49Y-83.566
X110.49Y-113.538
X110.49Y-119.888
X111.506Y-74.93
X111.76Y-115.316
X111.76Y-119.888
X111.76Y-128.27
X112.776Y-74.93
X113.03Y-62.23
X114.3Y-129.032
X115.57Y-83.566
X115.57Y-85.09
X115.57Y-91.948
X115.57Y-104.14
X115.57Y-113.284
X116.84Y-93.472
X116.84Y-119.888
X118.11Y-85.852
X118.11Y-83.566
X118.11Y-87.376
X118.11Y-91.948
X118.11Y-104.14
X118.11Y-113.284
X119.38Y-119.888
X120.65Y-83.566
X120.65Y-86.614
X120.65Y-91.948
X120.65Y-104.14
X120.65Y-113.03
X120.65Y-138.43
X121.92Y-85.09
X121.92Y-88.138
X121.92Y-94.234
X121.92Y-104.14
X121.92Y-119.888
X122.174Y-114.554
X122.174Y-112.522
X123.19Y-83.566
X123.19Y-87.376
X124.46Y-84.328
X124.46Y-88.9
X124.46Y-92.71
X124.46Y-104.14
X124.46Y-124.968
X125.73Y-83.566
X125.73Y-88.138
X125.73Y-124.968
X127.254Y-113.538
X127.254Y-120.142
X127.254Y-121.412
X128.27Y-83.566
X128.27Y-88.9
X128.524Y-113.538
X130.81Y-83.566
X130.81Y-89.662
X132.08Y-133.096
X133.35Y-83.566
X133.35Y-90.424
X134.62Y-113.538
X134.62Y-133.604
X135.89Y-83.566
X135.89Y-91.186
X137.16Y-134.112
X138.43Y-83.566
X138.43Y-91.948
X139.7Y-125.476
X139.7Y-128.524
X139.7Y-134.62
X140.716Y-97.282
X140.97Y-83.566
X140.97Y-92.71
X140.97Y-104.14
X140.97Y-112.522
X140.97Y-119.888
X141.986Y-97.282
X142.24Y-104.14
X142.24Y-135.128
X143.51Y-83.566
X143.51Y-93.472
X143.51Y-112.522
X143.51Y-125.476
X143.51Y-127.762
X143.51Y-119.888
X144.78Y-116.078
X144.78Y-119.888
X144.78Y-135.636
X146.05Y-94.234
X146.05Y-83.566
X147.066Y-97.282
X147.32Y-104.14
X147.32Y-116.84
X147.32Y-119.888
X148.59Y-83.566
X148.59Y-112.522
X148.59Y-119.888
X148.59Y-125.476
X148.59Y-127.0
X149.606Y-136.652
X149.86Y-94.996
X149.86Y-117.602
X149.86Y-119.888
X151.13Y-83.566
X152.4Y-97.282
X152.4Y-104.14
X152.4Y-112.522
X152.4Y-115.316
X152.4Y-118.364
X152.4Y-119.888
X153.67Y-119.888
X153.67Y-111.76
X154.686Y-95.758
X154.94Y-115.316
X154.94Y-119.888
X158.75Y-89.662
X158.75Y-104.14
X158.75Y-111.506
X160.02Y-119.888
X161.29Y-88.9
X161.29Y-104.14
X162.56Y-112.522
X162.56Y-119.888
X163.83Y-88.138
X163.83Y-104.14
X165.1Y-112.522
X165.1Y-119.888
X166.37Y-112.522
X166.37Y-114.554
X167.64Y-87.376
X167.64Y-104.14
X175.514Y-113.538
X176.784Y-113.538
X182.88Y-128.27
X182.88Y-133.604
X183.896Y-100.33
X184.15Y-104.14
X184.15Y-119.888
X184.15Y-112.522
X185.166Y-100.336
X185.42Y-104.14
X186.69Y-112.522
X186.69Y-119.888
X186.69Y-128.27
X186.69Y-132.334
X187.96Y-116.078
X187.96Y-119.888
X190.246Y-100.33
X190.5Y-104.14
X190.5Y-116.84
X190.5Y-119.888
X191.77Y-112.522
X191.77Y-119.888
X191.77Y-128.27
X191.77Y-131.064
X193.04Y-117.602
X193.04Y-119.888
X195.58Y-100.33
X195.58Y-104.14
X195.58Y-112.522
X195.58Y-115.316
X195.58Y-118.364
X195.58Y-119.888
X196.85Y-111.76
X196.85Y-119.888
X198.12Y-115.316
X198.12Y-119.888
X201.93Y-92.71
X201.93Y-104.14
X201.93Y-111.76
X203.2Y-119.888
X204.47Y-91.948
X204.47Y-104.14
X205.74Y-112.522
X205.74Y-119.888
X207.01Y-91.186
X207.01Y-104.14
X208.28Y-112.522
X208.28Y-119.888
X209.804Y-112.522
X209.804Y-114.554
X210.82Y-90.424
X210.82Y-104.14
X223.52Y-97.282
X223.52Y-98.552
X223.52Y-104.394
X223.52Y-105.664
X226.06Y-127.508
X226.06Y-124.206
X227.33Y-113.792
X227.33Y-119.888
X228.092Y-125.222
X228.092Y-128.27
X228.6Y-93.472
X228.854Y-95.758
X228.854Y-100.076
X228.854Y-125.984
X229.616Y-94.996
X229.616Y-99.314
X229.87Y-113.792
X229.87Y-119.888
X230.378Y-94.234
X230.378Y-100.076
X230.378Y-129.032
X231.14Y-99.314
X231.14Y-116.078
X231.14Y-119.888
X232.41Y-108.712
X233.68Y-116.84
X233.68Y-119.888
X234.188Y-100.584
X234.442Y-112.522
X234.442Y-113.792
X234.95Y-119.888
X234.95Y-125.984
X235.458Y-116.078
X236.22Y-117.602
X236.22Y-119.888
X238.76Y-118.364
X238.76Y-119.888
X239.522Y-129.032
X239.776Y-77.47
X240.03Y-113.792
X240.03Y-119.888
X240.03Y-125.222
X243.078Y-119.888
X244.602Y-128.27
X244.856Y-114.554
X245.618Y-115.316
X247.142Y-115.316
X251.206Y-119.888
X251.46Y-114.554
X252.73Y-103.886
X252.73Y-108.458
T2
X233.76Y-86.36
X238.76Y-86.36
X93.98Y-66.04
X104.14Y-66.04
X60.96Y-101.6
X60.96Y-109.22
X63.5Y-101.6
X63.5Y-109.22
X66.04Y-101.6
X66.04Y-109.22
X68.58Y-101.6
X68.58Y-109.22
X71.12Y-101.6
X71.12Y-109.22
X73.66Y-101.6
X73.66Y-109.22
X76.2Y-101.6
X76.2Y-109.22
X78.74Y-101.6
X78.74Y-109.22
X199.39Y-68.834
X209.55Y-68.834
X93.98Y-130.81
X93.98Y-138.43
X96.52Y-130.81
X96.52Y-138.43
X99.06Y-130.81
X99.06Y-138.43
X101.6Y-130.81
X101.6Y-138.43
X104.14Y-130.81
X104.14Y-138.43
X106.68Y-130.81
X106.68Y-138.43
X109.22Y-130.81
X109.22Y-138.43
X111.76Y-130.81
X111.76Y-138.43
X114.3Y-130.81
X114.3Y-138.43
X116.84Y-130.81
X116.84Y-138.43
X167.64Y-73.66
X167.64Y-81.28
X170.18Y-73.66
X170.18Y-81.28
X172.72Y-73.66
X172.72Y-81.28
X175.26Y-73.66
X175.26Y-81.28
X177.8Y-73.66
X177.8Y-81.28
X180.34Y-73.66
X180.34Y-81.28
X182.88Y-73.66
X182.88Y-81.28
X185.42Y-73.66
X185.42Y-81.28
X187.96Y-73.66
X187.96Y-81.28
X190.5Y-73.66
X190.5Y-81.28
X172.72Y-106.68
X177.72Y-106.68
X170.18Y-68.58
X172.72Y-68.58
X175.26Y-68.58
X177.8Y-68.58
X180.34Y-68.58
X182.88Y-68.58
X185.42Y-68.58
X187.96Y-68.58
X190.5Y-68.58
X60.96Y-66.04
X60.96Y-73.66
X63.5Y-66.04
X63.5Y-73.66
X66.04Y-66.04
X66.04Y-73.66
X68.58Y-66.04
X68.58Y-73.66
X71.12Y-66.04
X71.12Y-73.66
X73.66Y-66.04
X73.66Y-73.66
X76.2Y-66.04
X76.2Y-73.66
X78.74Y-66.04
X78.74Y-73.66
X92.964Y-142.24
X97.964Y-142.24
X124.46Y-130.81
X124.46Y-138.43
X127.0Y-130.81
X127.0Y-138.43
X129.54Y-130.81
X129.54Y-138.43
X132.08Y-130.81
X132.08Y-138.43
X134.62Y-130.81
X134.62Y-138.43
X137.16Y-130.81
X137.16Y-138.43
X139.7Y-130.81
X139.7Y-138.43
X142.24Y-130.81
X142.24Y-138.43
X144.78Y-130.81
X144.78Y-138.43
X147.32Y-130.81
X147.32Y-138.43
X99.06Y-71.12
X99.06Y-76.12
X162.56Y-73.66
X162.56Y-78.66
X205.74Y-73.66
X210.74Y-73.66
X220.98Y-68.58
X223.52Y-68.58
X226.06Y-68.58
X228.6Y-68.58
X231.14Y-68.58
X233.68Y-68.58
X236.22Y-68.58
X238.76Y-68.58
X241.3Y-68.58
X96.52Y-106.68
X96.52Y-121.92
X99.06Y-106.68
X99.06Y-121.92
X101.6Y-106.68
X101.6Y-121.92
X104.14Y-106.68
X104.14Y-121.92
X106.68Y-106.68
X106.68Y-121.92
X109.22Y-106.68
X109.22Y-121.92
X111.76Y-106.68
X111.76Y-121.92
X114.3Y-106.68
X114.3Y-121.92
X116.84Y-106.68
X116.84Y-121.92
X119.38Y-106.68
X119.38Y-121.92
X121.92Y-106.68
X121.92Y-121.92
X124.46Y-106.68
X124.46Y-121.92
X174.284Y-123.19
X176.784Y-123.19
X129.62Y-106.68
X134.62Y-106.68
X60.96Y-78.74
X65.96Y-78.74
X226.06Y-106.68
X226.06Y-121.92
X228.6Y-106.68
X228.6Y-121.92
X231.14Y-106.68
X231.14Y-121.92
X233.68Y-106.68
X233.68Y-121.92
X236.22Y-106.68
X236.22Y-121.92
X238.76Y-106.68
X238.76Y-121.92
X241.3Y-106.68
X241.3Y-121.92
X243.84Y-106.68
X243.84Y-121.92
X246.38Y-106.68
X246.38Y-121.92
X248.92Y-106.68
X248.92Y-121.92
X251.46Y-106.68
X251.46Y-121.92
X254.0Y-106.68
X254.0Y-121.92
X58.42Y-142.24
X60.92Y-142.24
X134.62Y-71.12
X134.62Y-78.74
X137.16Y-71.12
X137.16Y-78.74
X139.7Y-71.12
X139.7Y-78.74
X142.24Y-71.12
X142.24Y-78.74
X144.78Y-71.12
X144.78Y-78.74
X147.32Y-71.12
X147.32Y-78.74
X149.86Y-71.12
X149.86Y-78.74
X152.4Y-71.12
X152.4Y-78.74
X154.94Y-71.12
X154.94Y-78.74
X157.48Y-71.12
X157.48Y-78.74
X129.62Y-121.92
X134.62Y-121.92
X60.96Y-83.82
X60.96Y-91.44
X63.5Y-83.82
X63.5Y-91.44
X66.04Y-83.82
X66.04Y-91.44
X68.58Y-83.82
X68.58Y-91.44
X71.12Y-83.82
X71.12Y-91.44
X73.66Y-83.82
X73.66Y-91.44
X76.2Y-83.82
X76.2Y-91.44
X78.74Y-83.82
X78.74Y-91.44
X198.12Y-83.82
X198.12Y-86.32
X120.65Y-125.81
X120.65Y-130.81
X63.5Y-114.3
X68.5Y-114.3
X104.14Y-71.12
X104.14Y-78.74
X106.68Y-71.12
X106.68Y-78.74
X109.22Y-71.12
X109.22Y-78.74
X111.76Y-71.12
X111.76Y-78.74
X114.3Y-71.12
X114.3Y-78.74
X116.84Y-71.12
X116.84Y-78.74
X119.38Y-71.12
X119.38Y-78.74
X121.92Y-71.12
X121.92Y-78.74
X124.46Y-71.12
X124.46Y-78.74
X127.0Y-71.12
X127.0Y-78.74
X215.9Y-73.66
X215.9Y-81.28
X218.44Y-73.66
X218.44Y-81.28
X220.98Y-73.66
X220.98Y-81.28
X223.52Y-73.66
X223.52Y-81.28
X226.06Y-73.66
X226.06Y-81.28
X228.6Y-73.66
X228.6Y-81.28
X231.14Y-73.66
X231.14Y-81.28
X233.68Y-73.66
X233.68Y-81.28
X236.22Y-73.66
X236.22Y-81.28
X238.76Y-73.66
X238.76Y-81.28
X70.866Y-62.484
X75.866Y-62.484
X182.88Y-106.68
X182.88Y-121.92
X185.42Y-106.68
X185.42Y-121.92
X187.96Y-106.68
X187.96Y-121.92
X190.5Y-106.68
X190.5Y-121.92
X193.04Y-106.68
X193.04Y-121.92
X195.58Y-106.68
X195.58Y-121.92
X198.12Y-106.68
X198.12Y-121.92
X200.66Y-106.68
X200.66Y-121.92
X203.2Y-106.68
X203.2Y-121.92
X205.74Y-106.68
X205.74Y-121.92
X208.28Y-106.68
X208.28Y-121.92
X210.82Y-106.68
X210.82Y-121.92
X134.62Y-66.04
X139.62Y-66.04
X60.96Y-96.52
X65.96Y-96.52
X215.98Y-106.68
X220.98Y-106.68
X139.7Y-106.68
X139.7Y-121.92
X142.24Y-106.68
X142.24Y-121.92
X144.78Y-106.68
X144.78Y-121.92
X147.32Y-106.68
X147.32Y-121.92
X149.86Y-106.68
X149.86Y-121.92
X152.4Y-106.68
X152.4Y-121.92
X154.94Y-106.68
X154.94Y-121.92
X157.48Y-106.68
X157.48Y-121.92
X160.02Y-106.68
X160.02Y-121.92
X162.56Y-106.68
X162.56Y-121.92
X165.1Y-106.68
X165.1Y-121.92
X167.64Y-106.68
X167.64Y-121.92
X236.22Y-91.44
X236.22Y-99.06
X238.76Y-91.44
X238.76Y-99.06
X241.3Y-91.44
X241.3Y-99.06
X243.84Y-91.44
X243.84Y-99.06
X246.38Y-91.44
X246.38Y-99.06
X248.92Y-91.44
X248.92Y-99.06
X251.46Y-91.44
X251.46Y-99.06
X60.96Y-119.38
X60.96Y-127.0
X63.5Y-119.38
X63.5Y-127.0
X66.04Y-119.38
X66.04Y-127.0
X68.58Y-119.38
X68.58Y-127.0
X71.12Y-119.38
X71.12Y-127.0
X73.66Y-119.38
X73.66Y-127.0
X76.2Y-119.38
X76.2Y-127.0
X78.74Y-119.38
X78.74Y-127.0
T3
X245.11Y-60.96
X247.65Y-60.96
X207.01Y-60.96
X209.55Y-60.96
X238.76Y-60.96
X241.3Y-60.96
X213.36Y-60.96
X215.9Y-60.96
X175.26Y-60.96
X177.8Y-60.96
X226.06Y-60.96
X228.6Y-60.96
X187.96Y-60.96
X190.5Y-60.96
X200.66Y-60.96
X203.2Y-60.96
X232.41Y-60.96
X234.95Y-60.96
X162.56Y-60.96
X165.1Y-60.96
X156.21Y-60.96
X158.75Y-60.96
X168.91Y-60.96
X171.45Y-60.96
X251.46Y-60.96
X254.0Y-60.96
X194.31Y-60.96
X196.85Y-60.96
X181.61Y-60.96
X184.15Y-60.96
X219.71Y-60.96
X222.25Y-60.96
T4
X243.84Y-76.2
X243.84Y-78.74
X243.84Y-81.28
X99.06Y-58.42
X101.6Y-58.42
X165.1Y-142.24
X167.64Y-142.24
X170.18Y-142.24
X172.72Y-142.24
X175.26Y-142.24
X177.8Y-142.24
X180.34Y-142.24
X182.88Y-142.24
X185.42Y-142.24
X187.96Y-142.24
X190.5Y-142.24
X193.04Y-142.24
X195.58Y-142.24
X198.12Y-142.24
X200.66Y-142.24
X203.2Y-142.24
X205.74Y-142.24
X208.28Y-142.24
X210.82Y-142.24
X213.36Y-142.24
X215.9Y-142.24
X218.44Y-142.24
X220.98Y-142.24
X223.52Y-142.24
X226.06Y-142.24
X228.6Y-142.24
X231.14Y-142.24
X233.68Y-142.24
X236.22Y-142.24
X238.76Y-142.24
X241.3Y-142.24
X243.84Y-142.24
X55.88Y-58.42
X58.42Y-58.42
X60.96Y-58.42
X63.5Y-58.42
X66.04Y-58.42
X68.58Y-58.42
X71.12Y-58.42
X73.66Y-58.42
X76.2Y-58.42
X78.74Y-58.42
X81.28Y-58.42
X83.82Y-58.42
X86.36Y-58.42
X88.9Y-58.42
X91.44Y-58.42
X93.98Y-58.42
X101.6Y-142.24
X104.14Y-142.24
X106.68Y-142.24
X109.22Y-142.24
X111.76Y-142.24
X114.3Y-142.24
X116.84Y-142.24
X119.38Y-142.24
X121.92Y-142.24
X124.46Y-142.24
X127.0Y-142.24
X129.54Y-142.24
X132.08Y-142.24
X134.62Y-142.24
X137.16Y-142.24
X139.7Y-142.24
X66.04Y-142.24
X68.58Y-142.24
X71.12Y-142.24
X73.66Y-142.24
X76.2Y-142.24
X78.74Y-142.24
X81.28Y-142.24
X83.82Y-142.24
X86.36Y-142.24
X88.9Y-142.24
X107.95Y-58.42
X110.49Y-58.42
X113.03Y-58.42
X115.57Y-58.42
X118.11Y-58.42
X120.65Y-58.42
X123.19Y-58.42
X125.73Y-58.42
X128.27Y-58.42
X130.81Y-58.42
X133.35Y-58.42
X135.89Y-58.42
X138.43Y-58.42
X140.97Y-58.42
X143.51Y-58.42
X146.05Y-58.42
X148.59Y-58.42
X151.13Y-58.42
T0
M30
