G04 #@! TF.GenerationSoftware,KiCad,Pcbnew,(5.1.5)-3*
G04 #@! TF.CreationDate,2022-12-08T21:20:14-08:00*
G04 #@! TF.ProjectId,alu,616c752e-6b69-4636-9164-5f7063625858,rev?*
G04 #@! TF.SameCoordinates,Original*
G04 #@! TF.FileFunction,Copper,L1,Top*
G04 #@! TF.FilePolarity,Positive*
%FSLAX46Y46*%
G04 Gerber Fmt 4.6, Leading zero omitted, Abs format (unit mm)*
G04 Created by KiCad (PCBNEW (5.1.5)-3) date 2022-12-08 21:20:14*
%MOMM*%
%LPD*%
G04 APERTURE LIST*
%ADD10O,1.600000X1.600000*%
%ADD11R,1.600000X1.600000*%
%ADD12O,1.700000X1.700000*%
%ADD13R,1.700000X1.700000*%
%ADD14C,1.600000*%
%ADD15C,1.800000*%
%ADD16R,1.800000X1.800000*%
%ADD17C,0.762000*%
%ADD18C,0.254000*%
%ADD19C,0.762000*%
G04 APERTURE END LIST*
D10*
X236220000Y-91440000D03*
X251460000Y-99060000D03*
X238760000Y-91440000D03*
X248920000Y-99060000D03*
X241300000Y-91440000D03*
X246380000Y-99060000D03*
X243840000Y-91440000D03*
X243840000Y-99060000D03*
X246380000Y-91440000D03*
X241300000Y-99060000D03*
X248920000Y-91440000D03*
X238760000Y-99060000D03*
X251460000Y-91440000D03*
D11*
X236220000Y-99060000D03*
D12*
X243840000Y-81280000D03*
X243840000Y-78740000D03*
D13*
X243840000Y-76200000D03*
D10*
X104140000Y-71120000D03*
X127000000Y-78740000D03*
X106680000Y-71120000D03*
X124460000Y-78740000D03*
X109220000Y-71120000D03*
X121920000Y-78740000D03*
X111760000Y-71120000D03*
X119380000Y-78740000D03*
X114300000Y-71120000D03*
X116840000Y-78740000D03*
X116840000Y-71120000D03*
X114300000Y-78740000D03*
X119380000Y-71120000D03*
X111760000Y-78740000D03*
X121920000Y-71120000D03*
X109220000Y-78740000D03*
X124460000Y-71120000D03*
X106680000Y-78740000D03*
X127000000Y-71120000D03*
D11*
X104140000Y-78740000D03*
D10*
X134620000Y-71120000D03*
X157480000Y-78740000D03*
X137160000Y-71120000D03*
X154940000Y-78740000D03*
X139700000Y-71120000D03*
X152400000Y-78740000D03*
X142240000Y-71120000D03*
X149860000Y-78740000D03*
X144780000Y-71120000D03*
X147320000Y-78740000D03*
X147320000Y-71120000D03*
X144780000Y-78740000D03*
X149860000Y-71120000D03*
X142240000Y-78740000D03*
X152400000Y-71120000D03*
X139700000Y-78740000D03*
X154940000Y-71120000D03*
X137160000Y-78740000D03*
X157480000Y-71120000D03*
D11*
X134620000Y-78740000D03*
D14*
X99060000Y-76120000D03*
X99060000Y-71120000D03*
X139620000Y-66040000D03*
X134620000Y-66040000D03*
D12*
X99060000Y-58420000D03*
D13*
X101600000Y-58420000D03*
D10*
X199390000Y-68834000D03*
D14*
X209550000Y-68834000D03*
D10*
X124460000Y-130810000D03*
X147320000Y-138430000D03*
X127000000Y-130810000D03*
X144780000Y-138430000D03*
X129540000Y-130810000D03*
X142240000Y-138430000D03*
X132080000Y-130810000D03*
X139700000Y-138430000D03*
X134620000Y-130810000D03*
X137160000Y-138430000D03*
X137160000Y-130810000D03*
X134620000Y-138430000D03*
X139700000Y-130810000D03*
X132080000Y-138430000D03*
X142240000Y-130810000D03*
X129540000Y-138430000D03*
X144780000Y-130810000D03*
X127000000Y-138430000D03*
X147320000Y-130810000D03*
D11*
X124460000Y-138430000D03*
D10*
X93980000Y-130810000D03*
X116840000Y-138430000D03*
X96520000Y-130810000D03*
X114300000Y-138430000D03*
X99060000Y-130810000D03*
X111760000Y-138430000D03*
X101600000Y-130810000D03*
X109220000Y-138430000D03*
X104140000Y-130810000D03*
X106680000Y-138430000D03*
X106680000Y-130810000D03*
X104140000Y-138430000D03*
X109220000Y-130810000D03*
X101600000Y-138430000D03*
X111760000Y-130810000D03*
X99060000Y-138430000D03*
X114300000Y-130810000D03*
X96520000Y-138430000D03*
X116840000Y-130810000D03*
D11*
X93980000Y-138430000D03*
D14*
X120650000Y-125810000D03*
X120650000Y-130810000D03*
X97964000Y-142240000D03*
X92964000Y-142240000D03*
D13*
X88900000Y-142240000D03*
D12*
X86360000Y-142240000D03*
X83820000Y-142240000D03*
X81280000Y-142240000D03*
X78740000Y-142240000D03*
X76200000Y-142240000D03*
X73660000Y-142240000D03*
X71120000Y-142240000D03*
X68580000Y-142240000D03*
X66040000Y-142240000D03*
D13*
X139700000Y-142240000D03*
D12*
X137160000Y-142240000D03*
X134620000Y-142240000D03*
X132080000Y-142240000D03*
X129540000Y-142240000D03*
X127000000Y-142240000D03*
X124460000Y-142240000D03*
X121920000Y-142240000D03*
X119380000Y-142240000D03*
X116840000Y-142240000D03*
X114300000Y-142240000D03*
X111760000Y-142240000D03*
X109220000Y-142240000D03*
X106680000Y-142240000D03*
X104140000Y-142240000D03*
X101600000Y-142240000D03*
X165100000Y-142240000D03*
X167640000Y-142240000D03*
X170180000Y-142240000D03*
X172720000Y-142240000D03*
X175260000Y-142240000D03*
X177800000Y-142240000D03*
X180340000Y-142240000D03*
X182880000Y-142240000D03*
X185420000Y-142240000D03*
X187960000Y-142240000D03*
X190500000Y-142240000D03*
X193040000Y-142240000D03*
X195580000Y-142240000D03*
X198120000Y-142240000D03*
X200660000Y-142240000D03*
X203200000Y-142240000D03*
X205740000Y-142240000D03*
X208280000Y-142240000D03*
X210820000Y-142240000D03*
X213360000Y-142240000D03*
X215900000Y-142240000D03*
X218440000Y-142240000D03*
X220980000Y-142240000D03*
X223520000Y-142240000D03*
X226060000Y-142240000D03*
X228600000Y-142240000D03*
X231140000Y-142240000D03*
X233680000Y-142240000D03*
X236220000Y-142240000D03*
X238760000Y-142240000D03*
X241300000Y-142240000D03*
D13*
X243840000Y-142240000D03*
D15*
X156210000Y-60960000D03*
D16*
X158750000Y-60960000D03*
D15*
X162560000Y-60960000D03*
D16*
X165100000Y-60960000D03*
D15*
X168910000Y-60960000D03*
D16*
X171450000Y-60960000D03*
D15*
X175260000Y-60960000D03*
D16*
X177800000Y-60960000D03*
D15*
X181610000Y-60960000D03*
D16*
X184150000Y-60960000D03*
D15*
X187960000Y-60960000D03*
D16*
X190500000Y-60960000D03*
D15*
X194310000Y-60960000D03*
D16*
X196850000Y-60960000D03*
D15*
X200660000Y-60960000D03*
D16*
X203200000Y-60960000D03*
D15*
X207010000Y-60960000D03*
D16*
X209550000Y-60960000D03*
D15*
X213360000Y-60960000D03*
D16*
X215900000Y-60960000D03*
D15*
X219710000Y-60960000D03*
D16*
X222250000Y-60960000D03*
D15*
X226060000Y-60960000D03*
D16*
X228600000Y-60960000D03*
D15*
X232410000Y-60960000D03*
D16*
X234950000Y-60960000D03*
D15*
X238760000Y-60960000D03*
D16*
X241300000Y-60960000D03*
D15*
X245110000Y-60960000D03*
D16*
X247650000Y-60960000D03*
D15*
X251460000Y-60960000D03*
D16*
X254000000Y-60960000D03*
D14*
X174284000Y-123190000D03*
D11*
X176784000Y-123190000D03*
D14*
X198120000Y-86320000D03*
D11*
X198120000Y-83820000D03*
D14*
X60920000Y-142240000D03*
D11*
X58420000Y-142240000D03*
D10*
X96520000Y-106680000D03*
X124460000Y-121920000D03*
X99060000Y-106680000D03*
X121920000Y-121920000D03*
X101600000Y-106680000D03*
X119380000Y-121920000D03*
X104140000Y-106680000D03*
X116840000Y-121920000D03*
X106680000Y-106680000D03*
X114300000Y-121920000D03*
X109220000Y-106680000D03*
X111760000Y-121920000D03*
X111760000Y-106680000D03*
X109220000Y-121920000D03*
X114300000Y-106680000D03*
X106680000Y-121920000D03*
X116840000Y-106680000D03*
X104140000Y-121920000D03*
X119380000Y-106680000D03*
X101600000Y-121920000D03*
X121920000Y-106680000D03*
X99060000Y-121920000D03*
X124460000Y-106680000D03*
D11*
X96520000Y-121920000D03*
D10*
X60960000Y-66040000D03*
X78740000Y-73660000D03*
X63500000Y-66040000D03*
X76200000Y-73660000D03*
X66040000Y-66040000D03*
X73660000Y-73660000D03*
X68580000Y-66040000D03*
X71120000Y-73660000D03*
X71120000Y-66040000D03*
X68580000Y-73660000D03*
X73660000Y-66040000D03*
X66040000Y-73660000D03*
X76200000Y-66040000D03*
X63500000Y-73660000D03*
X78740000Y-66040000D03*
D11*
X60960000Y-73660000D03*
D10*
X60960000Y-101600000D03*
X78740000Y-109220000D03*
X63500000Y-101600000D03*
X76200000Y-109220000D03*
X66040000Y-101600000D03*
X73660000Y-109220000D03*
X68580000Y-101600000D03*
X71120000Y-109220000D03*
X71120000Y-101600000D03*
X68580000Y-109220000D03*
X73660000Y-101600000D03*
X66040000Y-109220000D03*
X76200000Y-101600000D03*
X63500000Y-109220000D03*
X78740000Y-101600000D03*
D11*
X60960000Y-109220000D03*
D10*
X60960000Y-83820000D03*
X78740000Y-91440000D03*
X63500000Y-83820000D03*
X76200000Y-91440000D03*
X66040000Y-83820000D03*
X73660000Y-91440000D03*
X68580000Y-83820000D03*
X71120000Y-91440000D03*
X71120000Y-83820000D03*
X68580000Y-91440000D03*
X73660000Y-83820000D03*
X66040000Y-91440000D03*
X76200000Y-83820000D03*
X63500000Y-91440000D03*
X78740000Y-83820000D03*
D11*
X60960000Y-91440000D03*
D10*
X60960000Y-119380000D03*
X78740000Y-127000000D03*
X63500000Y-119380000D03*
X76200000Y-127000000D03*
X66040000Y-119380000D03*
X73660000Y-127000000D03*
X68580000Y-119380000D03*
X71120000Y-127000000D03*
X71120000Y-119380000D03*
X68580000Y-127000000D03*
X73660000Y-119380000D03*
X66040000Y-127000000D03*
X76200000Y-119380000D03*
X63500000Y-127000000D03*
X78740000Y-119380000D03*
D11*
X60960000Y-127000000D03*
D10*
X139700000Y-106680000D03*
X167640000Y-121920000D03*
X142240000Y-106680000D03*
X165100000Y-121920000D03*
X144780000Y-106680000D03*
X162560000Y-121920000D03*
X147320000Y-106680000D03*
X160020000Y-121920000D03*
X149860000Y-106680000D03*
X157480000Y-121920000D03*
X152400000Y-106680000D03*
X154940000Y-121920000D03*
X154940000Y-106680000D03*
X152400000Y-121920000D03*
X157480000Y-106680000D03*
X149860000Y-121920000D03*
X160020000Y-106680000D03*
X147320000Y-121920000D03*
X162560000Y-106680000D03*
X144780000Y-121920000D03*
X165100000Y-106680000D03*
X142240000Y-121920000D03*
X167640000Y-106680000D03*
D11*
X139700000Y-121920000D03*
D10*
X182880000Y-106680000D03*
X210820000Y-121920000D03*
X185420000Y-106680000D03*
X208280000Y-121920000D03*
X187960000Y-106680000D03*
X205740000Y-121920000D03*
X190500000Y-106680000D03*
X203200000Y-121920000D03*
X193040000Y-106680000D03*
X200660000Y-121920000D03*
X195580000Y-106680000D03*
X198120000Y-121920000D03*
X198120000Y-106680000D03*
X195580000Y-121920000D03*
X200660000Y-106680000D03*
X193040000Y-121920000D03*
X203200000Y-106680000D03*
X190500000Y-121920000D03*
X205740000Y-106680000D03*
X187960000Y-121920000D03*
X208280000Y-106680000D03*
X185420000Y-121920000D03*
X210820000Y-106680000D03*
D11*
X182880000Y-121920000D03*
D10*
X226060000Y-106680000D03*
X254000000Y-121920000D03*
X228600000Y-106680000D03*
X251460000Y-121920000D03*
X231140000Y-106680000D03*
X248920000Y-121920000D03*
X233680000Y-106680000D03*
X246380000Y-121920000D03*
X236220000Y-106680000D03*
X243840000Y-121920000D03*
X238760000Y-106680000D03*
X241300000Y-121920000D03*
X241300000Y-106680000D03*
X238760000Y-121920000D03*
X243840000Y-106680000D03*
X236220000Y-121920000D03*
X246380000Y-106680000D03*
X233680000Y-121920000D03*
X248920000Y-106680000D03*
X231140000Y-121920000D03*
X251460000Y-106680000D03*
X228600000Y-121920000D03*
X254000000Y-106680000D03*
D11*
X226060000Y-121920000D03*
D10*
X241300000Y-68580000D03*
X238760000Y-68580000D03*
X236220000Y-68580000D03*
X233680000Y-68580000D03*
X231140000Y-68580000D03*
X228600000Y-68580000D03*
X226060000Y-68580000D03*
X223520000Y-68580000D03*
D11*
X220980000Y-68580000D03*
D10*
X190500000Y-68580000D03*
X187960000Y-68580000D03*
X185420000Y-68580000D03*
X182880000Y-68580000D03*
X180340000Y-68580000D03*
X177800000Y-68580000D03*
X175260000Y-68580000D03*
X172720000Y-68580000D03*
D11*
X170180000Y-68580000D03*
D10*
X93980000Y-66040000D03*
D14*
X104140000Y-66040000D03*
D12*
X107950000Y-58420000D03*
X110490000Y-58420000D03*
X113030000Y-58420000D03*
X115570000Y-58420000D03*
X118110000Y-58420000D03*
X120650000Y-58420000D03*
X123190000Y-58420000D03*
X125730000Y-58420000D03*
X128270000Y-58420000D03*
X130810000Y-58420000D03*
X133350000Y-58420000D03*
X135890000Y-58420000D03*
X138430000Y-58420000D03*
X140970000Y-58420000D03*
X143510000Y-58420000D03*
X146050000Y-58420000D03*
X148590000Y-58420000D03*
D13*
X151130000Y-58420000D03*
D14*
X75866000Y-62484000D03*
X70866000Y-62484000D03*
X65960000Y-96520000D03*
X60960000Y-96520000D03*
X129620000Y-121920000D03*
X134620000Y-121920000D03*
X68500000Y-114300000D03*
X63500000Y-114300000D03*
X65960000Y-78740000D03*
X60960000Y-78740000D03*
X205740000Y-73660000D03*
X210740000Y-73660000D03*
X129620000Y-106680000D03*
X134620000Y-106680000D03*
X162560000Y-78660000D03*
X162560000Y-73660000D03*
X172720000Y-106680000D03*
X177720000Y-106680000D03*
X215980000Y-106680000D03*
X220980000Y-106680000D03*
X233760000Y-86360000D03*
X238760000Y-86360000D03*
D11*
X215900000Y-81280000D03*
D10*
X238760000Y-73660000D03*
X218440000Y-81280000D03*
X236220000Y-73660000D03*
X220980000Y-81280000D03*
X233680000Y-73660000D03*
X223520000Y-81280000D03*
X231140000Y-73660000D03*
X226060000Y-81280000D03*
X228600000Y-73660000D03*
X228600000Y-81280000D03*
X226060000Y-73660000D03*
X231140000Y-81280000D03*
X223520000Y-73660000D03*
X233680000Y-81280000D03*
X220980000Y-73660000D03*
X236220000Y-81280000D03*
X218440000Y-73660000D03*
X238760000Y-81280000D03*
X215900000Y-73660000D03*
D11*
X167640000Y-81280000D03*
D10*
X190500000Y-73660000D03*
X170180000Y-81280000D03*
X187960000Y-73660000D03*
X172720000Y-81280000D03*
X185420000Y-73660000D03*
X175260000Y-81280000D03*
X182880000Y-73660000D03*
X177800000Y-81280000D03*
X180340000Y-73660000D03*
X180340000Y-81280000D03*
X177800000Y-73660000D03*
X182880000Y-81280000D03*
X175260000Y-73660000D03*
X185420000Y-81280000D03*
X172720000Y-73660000D03*
X187960000Y-81280000D03*
X170180000Y-73660000D03*
X190500000Y-81280000D03*
X167640000Y-73660000D03*
D12*
X55880000Y-58420000D03*
X58420000Y-58420000D03*
X60960000Y-58420000D03*
X63500000Y-58420000D03*
X66040000Y-58420000D03*
X68580000Y-58420000D03*
X71120000Y-58420000D03*
X73660000Y-58420000D03*
X76200000Y-58420000D03*
X78740000Y-58420000D03*
X81280000Y-58420000D03*
X83820000Y-58420000D03*
X86360000Y-58420000D03*
X88900000Y-58420000D03*
X91440000Y-58420000D03*
D13*
X93980000Y-58420000D03*
D17*
X198120000Y-119888000D03*
X198120000Y-115316000D03*
X245618000Y-115316000D03*
X247142000Y-115316000D03*
X154940000Y-119888000D03*
X154940000Y-115316000D03*
X195580000Y-115316000D03*
X195580000Y-112522000D03*
X111760000Y-119888000D03*
X111760000Y-115316000D03*
X152400000Y-115316000D03*
X152400000Y-112522000D03*
X96520000Y-115062000D03*
X223520000Y-104394000D03*
X87630000Y-123951990D03*
X134620000Y-113538000D03*
X55372000Y-119380000D03*
X55880000Y-84073982D03*
X56896012Y-101600000D03*
X55880028Y-71628000D03*
X55372000Y-120650000D03*
X56896012Y-102870014D03*
X55880000Y-85598000D03*
X55880000Y-72898000D03*
X223520000Y-105664000D03*
X95504000Y-116077996D03*
X176784000Y-113538000D03*
X175514000Y-113538000D03*
X86359996Y-138430000D03*
X86360000Y-139700000D03*
X86741000Y-124841000D03*
X86360000Y-130302000D03*
X86360000Y-129032000D03*
X127254000Y-121412000D03*
X127254000Y-120142000D03*
X124460000Y-124968000D03*
X125730000Y-124968000D03*
X128524006Y-113538000D03*
X127254000Y-113538000D03*
X120650000Y-138430000D03*
X223520000Y-97282006D03*
X223520000Y-98552000D03*
X91948000Y-70612000D03*
X93218000Y-70612000D03*
X63753988Y-70358000D03*
X65278042Y-70358000D03*
X80264000Y-71374000D03*
X81534000Y-71374000D03*
X239776000Y-77470000D03*
X111506000Y-74930000D03*
X112776000Y-74930000D03*
X105664000Y-74930000D03*
X106934000Y-74930000D03*
X68326000Y-64008001D03*
X55372000Y-68580000D03*
X61214000Y-68580000D03*
X60452000Y-69342000D03*
X56134000Y-69342000D03*
X58420000Y-86106000D03*
X60959994Y-86106000D03*
X57658000Y-81534000D03*
X60706000Y-81534000D03*
X61468000Y-89408000D03*
X59182000Y-89408012D03*
X66548000Y-112268000D03*
X122173964Y-114554000D03*
X244856000Y-114554000D03*
X209804000Y-112522000D03*
X209804000Y-114554000D03*
X166370000Y-112522000D03*
X166370000Y-114554000D03*
X122174000Y-112522000D03*
X121920000Y-104140000D03*
X121920000Y-94234000D03*
X251459990Y-114554000D03*
X107950000Y-83566000D03*
X107950000Y-77215988D03*
X110490000Y-83566000D03*
X110490000Y-77216000D03*
X124460000Y-104140000D03*
X124460000Y-84328000D03*
X124460000Y-88899990D03*
X124460000Y-92710000D03*
X120650000Y-104140000D03*
X121920000Y-119888000D03*
X120650000Y-113030000D03*
X115570000Y-83566000D03*
X115570000Y-85090000D03*
X121920000Y-85090000D03*
X121920000Y-88138000D03*
X120650000Y-91948000D03*
X118110000Y-104140000D03*
X119380000Y-119888000D03*
X118110000Y-113284012D03*
X118109992Y-85852000D03*
X118110000Y-83565980D03*
X118110000Y-87376000D03*
X118110000Y-91948000D03*
X115570000Y-104140000D03*
X116840000Y-119888000D03*
X115570000Y-113284000D03*
X120650000Y-86614000D03*
X120650000Y-83566000D03*
X115570000Y-91948000D03*
X167640000Y-104140000D03*
X167640000Y-87376000D03*
X123190000Y-83566000D03*
X123190000Y-87376000D03*
X163830000Y-104140000D03*
X163830000Y-88138000D03*
X165100000Y-119888000D03*
X165100000Y-112522000D03*
X125730000Y-83566000D03*
X125730000Y-88138000D03*
X161290000Y-104140000D03*
X161290000Y-88900000D03*
X162560000Y-119888000D03*
X162559986Y-112522000D03*
X128270000Y-83566000D03*
X128270000Y-88900012D03*
X158750000Y-104140000D03*
X158750000Y-89662000D03*
X160020000Y-119888000D03*
X158750000Y-111506000D03*
X130810000Y-83566000D03*
X130810000Y-89662000D03*
X210820000Y-104140000D03*
X210820000Y-90424000D03*
X133350000Y-83566000D03*
X133350000Y-90424000D03*
X207010000Y-104140000D03*
X207010000Y-91186000D03*
X208280000Y-119888000D03*
X208280000Y-112522000D03*
X135889988Y-83566000D03*
X135890000Y-91186000D03*
X204470000Y-104140000D03*
X204470000Y-91948000D03*
X205740000Y-119888000D03*
X205740000Y-112522000D03*
X138430000Y-83566000D03*
X138430000Y-91948000D03*
X201930000Y-104140000D03*
X201930000Y-92710000D03*
X203200000Y-119888000D03*
X201930000Y-111760000D03*
X140970000Y-83566000D03*
X140970000Y-92710000D03*
X228600000Y-93472000D03*
X143510000Y-83566000D03*
X143510000Y-93472006D03*
X231140000Y-99314000D03*
X230378000Y-94234000D03*
X146050000Y-83566004D03*
X146049992Y-94234000D03*
X230378000Y-100076000D03*
X229616000Y-94996000D03*
X148590000Y-83566000D03*
X149860000Y-94996000D03*
X229616000Y-99314000D03*
X228854000Y-95758000D03*
X151130000Y-83566000D03*
X228854000Y-100076000D03*
X154686000Y-95758000D03*
X144780000Y-119888000D03*
X144780000Y-116078000D03*
X187960000Y-119888000D03*
X187960000Y-116078000D03*
X231140000Y-119888000D03*
X231140000Y-116078000D03*
X60960000Y-134366000D03*
X60960000Y-130556000D03*
X57912000Y-109220000D03*
X56134000Y-76200000D03*
X152400000Y-119888000D03*
X152400000Y-118364000D03*
X195580000Y-119888000D03*
X195580000Y-118364000D03*
X238760000Y-119888000D03*
X238760000Y-118364000D03*
X230378000Y-129032000D03*
X239522000Y-129032000D03*
X244602000Y-128270000D03*
X235458000Y-116078000D03*
X234442000Y-112522000D03*
X232410000Y-108712000D03*
X234188000Y-100584000D03*
X228092016Y-128270000D03*
X149860000Y-119888000D03*
X149860000Y-117602000D03*
X193040000Y-119888000D03*
X193040000Y-117602000D03*
X236220000Y-119888000D03*
X236220000Y-117602000D03*
X147320000Y-119888000D03*
X147320000Y-116840000D03*
X190500000Y-119888000D03*
X190500000Y-116840000D03*
X233680000Y-119888000D03*
X233680000Y-116840000D03*
X252730000Y-103886000D03*
X252730000Y-108458000D03*
X251206000Y-119888000D03*
X243078000Y-119888000D03*
X76708000Y-124206000D03*
X96012000Y-102616000D03*
X85598000Y-118110000D03*
X84836000Y-118872000D03*
X95250000Y-101854000D03*
X96012000Y-101092000D03*
X72390000Y-115824000D03*
X84074000Y-115824000D03*
X73914000Y-124968000D03*
X75946000Y-124968000D03*
X95250000Y-103378000D03*
X227330000Y-119888000D03*
X86360000Y-118872000D03*
X227330000Y-113792004D03*
X84074000Y-109728000D03*
X96012000Y-99568000D03*
X185420000Y-104140000D03*
X185166000Y-100336074D03*
X83312000Y-101600000D03*
X95250000Y-98806000D03*
X190500000Y-104140000D03*
X190246000Y-100330000D03*
X74422000Y-99568000D03*
X76962008Y-99568000D03*
X83312000Y-100584000D03*
X96012000Y-98044000D03*
X195580000Y-100330000D03*
X195580000Y-104140000D03*
X68580000Y-111506000D03*
X84074000Y-110998000D03*
X95250000Y-100330000D03*
X184150000Y-104140000D03*
X184150000Y-119888000D03*
X184150006Y-112522000D03*
X183895978Y-100330000D03*
X76200000Y-94488000D03*
X81026000Y-96266000D03*
X96012000Y-96520000D03*
X142240000Y-104140000D03*
X141986000Y-97282000D03*
X95250000Y-95758000D03*
X147320000Y-104140000D03*
X147066000Y-97282000D03*
X81534000Y-90424000D03*
X76454000Y-87376000D03*
X71120000Y-86106000D03*
X80991614Y-89356420D03*
X96012000Y-94996000D03*
X152400000Y-97282000D03*
X152400000Y-104140000D03*
X81788000Y-97028000D03*
X68580004Y-94488000D03*
X95250000Y-97282000D03*
X140970000Y-104140000D03*
X140970000Y-119888000D03*
X140970000Y-112521996D03*
X140716000Y-97282000D03*
X76200000Y-77216000D03*
X81026000Y-81026000D03*
X99060000Y-104140000D03*
X91694000Y-81280000D03*
X98291926Y-93980000D03*
X78740000Y-69342000D03*
X81026000Y-69342000D03*
X90170000Y-69342000D03*
X104140000Y-104140000D03*
X103886000Y-94234000D03*
X73406000Y-62484000D03*
X81788000Y-67056000D03*
X89408000Y-67056000D03*
X109220000Y-104140000D03*
X109220000Y-94234000D03*
X68580000Y-77216000D03*
X81788000Y-81788000D03*
X97028000Y-94234000D03*
X97028000Y-104140000D03*
X97790000Y-116078000D03*
X97790000Y-114046000D03*
X91694000Y-82550000D03*
X116840000Y-93472000D03*
X73660000Y-135128000D03*
X73660000Y-129032000D03*
X229870000Y-119888000D03*
X229870000Y-113791994D03*
X144780000Y-135636000D03*
X74930000Y-135128000D03*
X74930000Y-129032000D03*
X234950000Y-119888000D03*
X234950000Y-125984000D03*
X234442000Y-113792000D03*
X228854010Y-125983990D03*
X142240000Y-135128000D03*
X67310000Y-134366000D03*
X67310000Y-129794000D03*
X240030000Y-119888000D03*
X228092000Y-125222000D03*
X240030000Y-125222000D03*
X240030000Y-113792000D03*
X139700000Y-134620000D03*
X66040000Y-134366000D03*
X66040000Y-129794000D03*
X226060002Y-124206000D03*
X226060000Y-127508000D03*
X149606000Y-136651994D03*
X186690000Y-119888000D03*
X186690000Y-112522000D03*
X60960000Y-112268000D03*
X57912000Y-112268000D03*
X134620000Y-133604000D03*
X186690000Y-132334000D03*
X186690000Y-128270000D03*
X191770000Y-119888000D03*
X191770000Y-112522000D03*
X58673992Y-103632000D03*
X60198000Y-103632000D03*
X132080000Y-133096000D03*
X191770000Y-128270000D03*
X191770000Y-131063998D03*
X196850000Y-119888000D03*
X196850000Y-111760000D03*
X61976006Y-111506000D03*
X57150000Y-111454412D03*
X137160000Y-134112000D03*
X182880000Y-133604000D03*
X182880000Y-128270000D03*
X81026000Y-92964000D03*
X88646000Y-92201992D03*
X143510010Y-119887990D03*
X143510000Y-112522000D03*
X114300000Y-129032000D03*
X143510000Y-127762000D03*
X143510000Y-125476000D03*
X81788000Y-85852000D03*
X148590000Y-119888000D03*
X148590000Y-112522000D03*
X88646000Y-86360000D03*
X111760000Y-128270000D03*
X148590000Y-127000000D03*
X148590000Y-125476000D03*
X81026000Y-86614000D03*
X153670000Y-119888000D03*
X153670010Y-111760000D03*
X89408000Y-87376000D03*
X109220000Y-127508000D03*
X88646000Y-93726000D03*
X81788000Y-93726000D03*
X139700000Y-128524000D03*
X139700000Y-125476000D03*
X88646000Y-129032000D03*
X88646000Y-126237982D03*
X81026000Y-75692000D03*
X88646000Y-74930028D03*
X100330000Y-116078000D03*
X100330000Y-114046000D03*
X100330000Y-123698000D03*
X100330000Y-125984000D03*
X104648000Y-125984000D03*
X88646000Y-67818000D03*
X81026000Y-67818000D03*
X105410000Y-119888000D03*
X105410000Y-114046000D03*
X102362000Y-123698000D03*
X102362000Y-125222000D03*
X107950000Y-126746000D03*
X81788000Y-68580000D03*
X89408000Y-68580000D03*
X110490000Y-119888000D03*
X110490000Y-113537978D03*
X94488000Y-124460000D03*
X88646000Y-76454000D03*
X81788000Y-76454000D03*
X96520000Y-123698000D03*
X96520000Y-126746000D03*
X106680000Y-126746000D03*
X113030000Y-62230004D03*
X109220000Y-66040020D03*
D18*
X248333999Y-67780001D02*
X254000000Y-62114000D01*
X241300000Y-68580000D02*
X242099999Y-67780001D01*
X242099999Y-67780001D02*
X248333999Y-67780001D01*
X254000000Y-62114000D02*
X254000000Y-60960000D01*
X247142000Y-61722000D02*
X247904000Y-60960000D01*
X238760000Y-68072000D02*
X242824000Y-64008000D01*
X238760000Y-68580000D02*
X238760000Y-68072000D01*
X247142000Y-62738000D02*
X247142000Y-61722000D01*
X242824000Y-64008000D02*
X245872000Y-64008000D01*
X245872000Y-64008000D02*
X247142000Y-62738000D01*
X241046000Y-62738000D02*
X241046000Y-60960000D01*
X236220000Y-68580000D02*
X236220000Y-67564000D01*
X236220000Y-67564000D02*
X241046000Y-62738000D01*
X234950000Y-64770000D02*
X234950000Y-60706000D01*
X233680000Y-68580000D02*
X233680000Y-66040000D01*
X233680000Y-66040000D02*
X234950000Y-64770000D01*
X231140000Y-68326000D02*
X231394000Y-68580000D01*
X228600000Y-60960000D02*
X228600000Y-62114000D01*
X231140000Y-64654000D02*
X231140000Y-68326000D01*
X228600000Y-62114000D02*
X231140000Y-64654000D01*
X223404000Y-60960000D02*
X228600000Y-66156000D01*
X222250000Y-60960000D02*
X223404000Y-60960000D01*
X228600000Y-66156000D02*
X228600000Y-68834000D01*
X226060000Y-67818000D02*
X226060000Y-68580000D01*
X222504000Y-64262000D02*
X226060000Y-67818000D01*
X215900000Y-60960000D02*
X219202000Y-64262000D01*
X219202000Y-64262000D02*
X222504000Y-64262000D01*
X215392000Y-66548000D02*
X210058000Y-61214000D01*
X221742000Y-66548000D02*
X215392000Y-66548000D01*
X223520000Y-68580000D02*
X223520000Y-68326000D01*
X223520000Y-68326000D02*
X221742000Y-66548000D01*
X190500000Y-68580000D02*
X195326000Y-68580000D01*
X195326000Y-68580000D02*
X202946000Y-60960000D01*
X202946000Y-60960000D02*
X203200000Y-61214000D01*
X195834000Y-61722000D02*
X196596000Y-60960000D01*
X192278000Y-65278000D02*
X195834000Y-61722000D01*
X190754000Y-65278000D02*
X192278000Y-65278000D01*
X187960000Y-68580000D02*
X187960000Y-68072000D01*
X187960000Y-68072000D02*
X190754000Y-65278000D01*
X190500000Y-61214000D02*
X190500000Y-60706000D01*
X190500000Y-62230000D02*
X190500000Y-61214000D01*
X185420000Y-68580000D02*
X185420000Y-67310000D01*
X185420000Y-67310000D02*
X190500000Y-62230000D01*
X182880000Y-64770000D02*
X182880000Y-68326000D01*
X184150000Y-60960000D02*
X184150000Y-63500000D01*
X184150000Y-63500000D02*
X182880000Y-64770000D01*
X180340000Y-64654000D02*
X180340000Y-67448630D01*
X177800000Y-60960000D02*
X177800000Y-62114000D01*
X177800000Y-62114000D02*
X180340000Y-64654000D01*
X180340000Y-67448630D02*
X180340000Y-68580000D01*
X177546000Y-68326000D02*
X177800000Y-68580000D01*
X177546000Y-67564000D02*
X177546000Y-68326000D01*
X171450000Y-60960000D02*
X171450000Y-61468000D01*
X171450000Y-61468000D02*
X177546000Y-67564000D01*
X169418000Y-65278000D02*
X165100000Y-60960000D01*
X173228000Y-65278000D02*
X169418000Y-65278000D01*
X175260000Y-68580000D02*
X175260000Y-67310000D01*
X175260000Y-67310000D02*
X173228000Y-65278000D01*
X170942000Y-66802000D02*
X171920001Y-67780001D01*
X171920001Y-67780001D02*
X172720000Y-68580000D01*
X158750000Y-60960000D02*
X164592000Y-66802000D01*
X164592000Y-66802000D02*
X170942000Y-66802000D01*
X198120000Y-121920000D02*
X198120000Y-119888000D01*
X198120000Y-115316000D02*
X245618000Y-115316000D01*
X246380000Y-107696000D02*
X246380000Y-106680000D01*
X247142000Y-115316000D02*
X247142000Y-108458000D01*
X247142000Y-108458000D02*
X246380000Y-107696000D01*
X154940000Y-121920000D02*
X154940000Y-119888000D01*
X154940000Y-115316000D02*
X195580000Y-115316000D01*
X202946000Y-112522000D02*
X195580000Y-112522000D01*
X203200000Y-106680000D02*
X203200000Y-112268000D01*
X203200000Y-112268000D02*
X202946000Y-112522000D01*
X111760000Y-121920000D02*
X111760000Y-119888000D01*
X111760000Y-115316000D02*
X152400000Y-115316000D01*
X152400000Y-115316000D02*
X152400000Y-115316000D01*
X159766000Y-112522000D02*
X152908000Y-112522000D01*
X152908000Y-112522000D02*
X152400000Y-112522000D01*
X160020000Y-106680000D02*
X160020000Y-112268000D01*
X160020000Y-112268000D02*
X159766000Y-112522000D01*
D19*
X223520000Y-104394000D02*
X223520000Y-104394000D01*
X223012000Y-113538000D02*
X223520000Y-113030000D01*
X167640000Y-77470000D02*
X167640000Y-73660000D01*
X226060000Y-106680000D02*
X223520000Y-106680000D01*
X223520000Y-113030000D02*
X223520000Y-106680000D01*
X182880000Y-106680000D02*
X182880000Y-113538000D01*
X182880000Y-113538000D02*
X223012000Y-113538000D01*
X139700000Y-106680000D02*
X139700000Y-113538000D01*
X139700000Y-113538000D02*
X175514000Y-113538000D01*
X96520000Y-106680000D02*
X96520000Y-115062000D01*
D18*
X220980000Y-106680000D02*
X223520000Y-106680000D01*
X182880000Y-106680000D02*
X177546000Y-106680000D01*
D19*
X134620000Y-113538000D02*
X139700000Y-113538000D01*
D18*
X134620000Y-106680000D02*
X139700000Y-106680000D01*
X162560000Y-73660000D02*
X167386000Y-73660000D01*
X167640000Y-77470000D02*
X167640000Y-81280000D01*
X60960000Y-101600000D02*
X60960000Y-96520000D01*
X61948894Y-114300000D02*
X60960000Y-115288894D01*
X63500000Y-114300000D02*
X61948894Y-114300000D01*
X60960000Y-115288894D02*
X60960000Y-119126000D01*
X60960000Y-119126000D02*
X60960000Y-119634000D01*
X60960000Y-78740000D02*
X60160001Y-79539999D01*
X60160001Y-79539999D02*
X59944000Y-79756000D01*
X59944000Y-79756000D02*
X59944000Y-82804000D01*
X59944000Y-82804000D02*
X60960000Y-83820000D01*
X62230000Y-64770000D02*
X60960000Y-66040000D01*
X66040000Y-64770000D02*
X62230000Y-64770000D01*
X70866000Y-62484000D02*
X68326000Y-62484000D01*
X68326000Y-62484000D02*
X66040000Y-64770000D01*
D19*
X56896012Y-108711988D02*
X56896012Y-101600000D01*
X55372000Y-119380000D02*
X55372000Y-110236000D01*
X55372000Y-110236000D02*
X56896012Y-108711988D01*
X55372000Y-119380000D02*
X55372000Y-132588000D01*
X56896012Y-101600000D02*
X55880000Y-100583988D01*
X55880000Y-100583988D02*
X55880000Y-85598000D01*
X55880000Y-84073982D02*
X55880000Y-85598000D01*
X55118000Y-73660000D02*
X55480001Y-73297999D01*
X55880028Y-71628000D02*
X55880028Y-72897972D01*
X55118000Y-83311982D02*
X55118000Y-73660000D01*
X55880000Y-84073982D02*
X55118000Y-83311982D01*
X55880028Y-72897972D02*
X55880000Y-72898000D01*
X55480001Y-73297999D02*
X55880000Y-72898000D01*
X223520000Y-104394000D02*
X223520000Y-105664000D01*
X223520000Y-106680000D02*
X223520000Y-105664000D01*
X95504004Y-116077996D02*
X95504000Y-116077996D01*
X96520000Y-115062000D02*
X95504004Y-116077996D01*
X176784000Y-113538000D02*
X182880000Y-113538000D01*
X60198000Y-138430000D02*
X60198000Y-137414000D01*
X60198000Y-137414000D02*
X61214000Y-138430000D01*
X55372000Y-132588000D02*
X60198000Y-137414000D01*
X60198000Y-138430000D02*
X61214000Y-138430000D01*
X59436000Y-138430000D02*
X60198000Y-138430000D01*
X213360000Y-77470000D02*
X200660000Y-77470000D01*
X200660000Y-77470000D02*
X167640000Y-77470000D01*
X86359996Y-139699996D02*
X86360000Y-139700000D01*
X61214000Y-138430000D02*
X62484000Y-139700000D01*
X86359996Y-138430000D02*
X86359996Y-139699996D01*
X62484000Y-139700000D02*
X85821185Y-139700000D01*
X85821185Y-139700000D02*
X86360000Y-139700000D01*
X87630000Y-123951990D02*
X87630000Y-123952000D01*
X87630000Y-123952000D02*
X86741000Y-124841000D01*
X86360000Y-129763185D02*
X86360000Y-130302000D01*
X87630000Y-123952000D02*
X86360000Y-125222000D01*
X86360000Y-139700000D02*
X86360000Y-142240000D01*
X86360000Y-142240000D02*
X88900000Y-142240000D01*
X127254000Y-120142000D02*
X127254000Y-124460000D01*
X127254000Y-124460000D02*
X126746000Y-124968000D01*
X126746000Y-124968000D02*
X124460000Y-124968000D01*
X134620000Y-113538000D02*
X128524006Y-113538000D01*
X120904000Y-114300000D02*
X121666000Y-113538000D01*
X110490000Y-115062000D02*
X111252000Y-114300000D01*
X111252000Y-114300000D02*
X120904000Y-114300000D01*
X96520000Y-115062000D02*
X110490000Y-115062000D01*
X126715185Y-113538000D02*
X127254000Y-113538000D01*
X121666000Y-113538000D02*
X126715185Y-113538000D01*
D18*
X120650000Y-138430000D02*
X124460000Y-138430000D01*
X92964000Y-142240000D02*
X93980000Y-141224000D01*
X93980000Y-141224000D02*
X93980000Y-138430000D01*
D19*
X58420000Y-140678000D02*
X58420000Y-138430000D01*
X58420000Y-142240000D02*
X58420000Y-140678000D01*
X58420000Y-138430000D02*
X59436000Y-138430000D01*
X86360000Y-125222000D02*
X86360000Y-127508000D01*
X86360000Y-127508000D02*
X86360000Y-129763185D01*
X88900000Y-127508000D02*
X86360000Y-127508000D01*
X93980000Y-130810000D02*
X92202000Y-130810000D01*
X92202000Y-130810000D02*
X88900000Y-127508000D01*
X213360000Y-77470000D02*
X215900000Y-77470000D01*
X215900000Y-77470000D02*
X215900000Y-73660000D01*
D18*
X215900000Y-81280000D02*
X215900000Y-77470000D01*
X213360000Y-73660000D02*
X210820000Y-73660000D01*
X213360000Y-73660000D02*
X215900000Y-73660000D01*
D19*
X97282000Y-66040000D02*
X98552000Y-66040000D01*
X93980000Y-66040000D02*
X97282000Y-66040000D01*
X101600000Y-65532000D02*
X101600000Y-66040000D01*
X101600000Y-58420000D02*
X101600000Y-65532000D01*
X101092000Y-66040000D02*
X97282000Y-66040000D01*
X101092000Y-66040000D02*
X101600000Y-65532000D01*
X101600000Y-66040000D02*
X101092000Y-66040000D01*
X101092000Y-66040000D02*
X101600000Y-66548000D01*
X101600000Y-66040000D02*
X101600000Y-66548000D01*
X91948000Y-70612000D02*
X93218000Y-70612000D01*
X93726000Y-70612000D02*
X93980000Y-70358000D01*
X93980000Y-70358000D02*
X93980000Y-66040000D01*
X93218000Y-70612000D02*
X93726000Y-70612000D01*
X63753988Y-70358000D02*
X65278042Y-70358000D01*
X80264000Y-71374000D02*
X81534000Y-71374000D01*
X79756000Y-70866000D02*
X79883001Y-70993001D01*
X79883001Y-70993001D02*
X80264000Y-71374000D01*
X65278042Y-70358000D02*
X65786042Y-70866000D01*
X65786042Y-70866000D02*
X79756000Y-70866000D01*
D18*
X215900000Y-77470000D02*
X239776000Y-77470000D01*
D19*
X167640000Y-77470000D02*
X166370000Y-76200000D01*
X159512000Y-74930000D02*
X160782000Y-76200000D01*
X166370000Y-76200000D02*
X160782000Y-76200000D01*
X101600000Y-66548000D02*
X101600000Y-74168000D01*
X101600000Y-74168000D02*
X102362000Y-74930000D01*
X104140000Y-74676000D02*
X104394000Y-74930000D01*
X104140000Y-71120000D02*
X104140000Y-74676000D01*
X134620000Y-71120000D02*
X134620000Y-74930000D01*
X134620000Y-74930000D02*
X159512000Y-74930000D01*
X198120000Y-83820000D02*
X198120000Y-77470000D01*
D18*
X104140000Y-75184000D02*
X103886000Y-74930000D01*
X104140000Y-78740000D02*
X104140000Y-75184000D01*
D19*
X102362000Y-74930000D02*
X103886000Y-74930000D01*
X103886000Y-74930000D02*
X104394000Y-74930000D01*
D18*
X99060000Y-71120000D02*
X104140000Y-71120000D01*
X134620000Y-77686000D02*
X134620000Y-74930000D01*
X134620000Y-78740000D02*
X134620000Y-77686000D01*
X134620000Y-71120000D02*
X134620000Y-66040000D01*
D19*
X231902000Y-96774000D02*
X235458000Y-93218000D01*
X224028000Y-96774000D02*
X231902000Y-96774000D01*
X223520000Y-98552000D02*
X223520000Y-97282000D01*
X223520000Y-97282000D02*
X224028000Y-96774000D01*
X235458000Y-93218000D02*
X236220000Y-92456000D01*
X236220000Y-92456000D02*
X236220000Y-91440000D01*
D18*
X238760000Y-86360000D02*
X236220000Y-88900000D01*
X236220000Y-88900000D02*
X236220000Y-91440000D01*
D19*
X111506000Y-74930000D02*
X112776000Y-74930000D01*
X112776000Y-74930000D02*
X134620000Y-74930000D01*
X104394000Y-74930000D02*
X105664000Y-74930000D01*
X105664000Y-74930000D02*
X106934000Y-74930000D01*
D18*
X250560001Y-61859999D02*
X251460000Y-60960000D01*
X240030000Y-72390000D02*
X240030000Y-68072000D01*
X238760000Y-73660000D02*
X240030000Y-72390000D01*
X240030000Y-68072000D02*
X242570000Y-65532000D01*
X242570000Y-65532000D02*
X246888000Y-65532000D01*
X246888000Y-65532000D02*
X250560001Y-61859999D01*
X242316000Y-62992000D02*
X242824000Y-62992000D01*
X242824000Y-62992000D02*
X244856000Y-60960000D01*
X237490000Y-67818000D02*
X242316000Y-62992000D01*
X236220000Y-73660000D02*
X237490000Y-72390000D01*
X237490000Y-72390000D02*
X237490000Y-67818000D01*
X238506000Y-63233300D02*
X238506000Y-61214000D01*
X233680000Y-73660000D02*
X234950000Y-72390000D01*
X234950000Y-66789300D02*
X238506000Y-63233300D01*
X234950000Y-72390000D02*
X234950000Y-66789300D01*
X232410000Y-72390000D02*
X232410000Y-60960000D01*
X231140000Y-73660000D02*
X232410000Y-72390000D01*
X229870000Y-65024000D02*
X226060000Y-61214000D01*
X228600000Y-73660000D02*
X229870000Y-72390000D01*
X229870000Y-72390000D02*
X229870000Y-65024000D01*
X221742000Y-63246000D02*
X219456000Y-60960000D01*
X223520000Y-63246000D02*
X221742000Y-63246000D01*
X227330000Y-67056000D02*
X223520000Y-63246000D01*
X226060000Y-73660000D02*
X227330000Y-72390000D01*
X227330000Y-72390000D02*
X227330000Y-67056000D01*
X217424000Y-65278000D02*
X213360000Y-61214000D01*
X224790000Y-67818000D02*
X222250000Y-65278000D01*
X223520000Y-73660000D02*
X224790000Y-72390000D01*
X222250000Y-65278000D02*
X217424000Y-65278000D01*
X224790000Y-72390000D02*
X224790000Y-67818000D01*
X217170000Y-71374000D02*
X206756000Y-60960000D01*
X220180001Y-72860001D02*
X218694000Y-71374000D01*
X220980000Y-73660000D02*
X220180001Y-72860001D01*
X218694000Y-71374000D02*
X217170000Y-71374000D01*
X194818000Y-66802000D02*
X200660000Y-60960000D01*
X190246000Y-66802000D02*
X194818000Y-66802000D01*
X189230000Y-67818000D02*
X190246000Y-66802000D01*
X190500000Y-73660000D02*
X189230000Y-72390000D01*
X189230000Y-72390000D02*
X189230000Y-67818000D01*
X193802000Y-60706000D02*
X194564000Y-60706000D01*
X187960000Y-73660000D02*
X186690000Y-72390000D01*
X186690000Y-67818000D02*
X193802000Y-60706000D01*
X186690000Y-72390000D02*
X186690000Y-67818000D01*
X187960000Y-62738000D02*
X187960000Y-60706000D01*
X184150000Y-66548000D02*
X187960000Y-62738000D01*
X185420000Y-73660000D02*
X184150000Y-72390000D01*
X184150000Y-72390000D02*
X184150000Y-66548000D01*
X181610000Y-72390000D02*
X182880000Y-73660000D01*
X181610000Y-60960000D02*
X181610000Y-72390000D01*
X179070000Y-72390000D02*
X180340000Y-73660000D01*
X179070000Y-66548000D02*
X179070000Y-72390000D01*
X175260000Y-60960000D02*
X175260000Y-62738000D01*
X175260000Y-62738000D02*
X179070000Y-66548000D01*
X176530000Y-72390000D02*
X177800000Y-73660000D01*
X168910000Y-61976000D02*
X170688000Y-63754000D01*
X170688000Y-63754000D02*
X172720000Y-63754000D01*
X168910000Y-60960000D02*
X168910000Y-61976000D01*
X176530000Y-67564000D02*
X176530000Y-72390000D01*
X172720000Y-63754000D02*
X176530000Y-67564000D01*
X173990000Y-72390000D02*
X173990000Y-67564000D01*
X172466000Y-66040000D02*
X166116000Y-66040000D01*
X175260000Y-73660000D02*
X173990000Y-72390000D01*
X162560000Y-62484000D02*
X162560000Y-60960000D01*
X173990000Y-67564000D02*
X172466000Y-66040000D01*
X166116000Y-66040000D02*
X162560000Y-62484000D01*
X170688000Y-71628000D02*
X172720000Y-73660000D01*
X156210000Y-60960000D02*
X166878000Y-71628000D01*
X166878000Y-71628000D02*
X170688000Y-71628000D01*
X71628001Y-64008001D02*
X68891685Y-64008001D01*
X68891685Y-64008001D02*
X68326000Y-64008001D01*
X73660000Y-66040000D02*
X71628001Y-64008001D01*
X55372000Y-62992000D02*
X55372000Y-68014315D01*
X60960000Y-58420000D02*
X59182000Y-60198000D01*
X58166000Y-60198000D02*
X55372000Y-62992000D01*
X59182000Y-60198000D02*
X58166000Y-60198000D01*
X55372000Y-68014315D02*
X55372000Y-68580000D01*
X61214000Y-69596000D02*
X61214000Y-68580000D01*
X63754000Y-72136000D02*
X61214000Y-69596000D01*
X71120000Y-73660000D02*
X69596000Y-72136000D01*
X69596000Y-72136000D02*
X63754000Y-72136000D01*
X63500000Y-73660000D02*
X60452000Y-70612000D01*
X60452000Y-70612000D02*
X60452000Y-69342000D01*
X56134000Y-63246000D02*
X56134000Y-68776315D01*
X56134000Y-68776315D02*
X56134000Y-69342000D01*
X60960000Y-60960000D02*
X58420000Y-60960000D01*
X63500000Y-58420000D02*
X60960000Y-60960000D01*
X58420000Y-60960000D02*
X56134000Y-63246000D01*
X66040000Y-83820000D02*
X63754000Y-86106000D01*
X63754000Y-86106000D02*
X60959994Y-86106000D01*
X58020001Y-85706001D02*
X58420000Y-86106000D01*
X57658000Y-85344000D02*
X58020001Y-85706001D01*
X57658000Y-82804000D02*
X57658000Y-85344000D01*
X58674000Y-61722000D02*
X56896000Y-63500000D01*
X66040000Y-58420000D02*
X62738000Y-61722000D01*
X56896000Y-63500000D02*
X56896000Y-82042000D01*
X62738000Y-61722000D02*
X58674000Y-61722000D01*
X56896000Y-82042000D02*
X57658000Y-82804000D01*
X57658000Y-63754000D02*
X57658000Y-81534000D01*
X67818000Y-59182000D02*
X67818000Y-59944000D01*
X68580000Y-58420000D02*
X67818000Y-59182000D01*
X67818000Y-59944000D02*
X65278000Y-62484000D01*
X65278000Y-62484000D02*
X58928000Y-62484000D01*
X58928000Y-62484000D02*
X57658000Y-63754000D01*
X71374000Y-81534000D02*
X60706000Y-81534000D01*
X73660000Y-83820000D02*
X71374000Y-81534000D01*
X71120000Y-91440000D02*
X69088000Y-89408000D01*
X69088000Y-89408000D02*
X61468000Y-89408000D01*
X59182000Y-88842327D02*
X59182000Y-89408012D01*
X58420000Y-64008000D02*
X58420000Y-84711981D01*
X59182000Y-85473981D02*
X59182000Y-88842327D01*
X71120000Y-58420000D02*
X69342000Y-60198000D01*
X69342000Y-60198000D02*
X68580000Y-60198000D01*
X68580000Y-60198000D02*
X65532000Y-63246000D01*
X65532000Y-63246000D02*
X59182000Y-63246000D01*
X58420000Y-84711981D02*
X59182000Y-85473981D01*
X59182000Y-63246000D02*
X58420000Y-64008000D01*
X62230000Y-90170000D02*
X63500000Y-91440000D01*
X68834000Y-60960000D02*
X65786000Y-64008000D01*
X59182000Y-84582000D02*
X60198000Y-85598000D01*
X71628000Y-60960000D02*
X68834000Y-60960000D01*
X60198000Y-89662000D02*
X60706000Y-90170000D01*
X73660000Y-58420000D02*
X73660000Y-58928000D01*
X73660000Y-58928000D02*
X71628000Y-60960000D01*
X59182000Y-64262000D02*
X59182000Y-84582000D01*
X65786000Y-64008000D02*
X59436000Y-64008000D01*
X59436000Y-64008000D02*
X59182000Y-64262000D01*
X60198000Y-85598000D02*
X60198000Y-89662000D01*
X60706000Y-90170000D02*
X62230000Y-90170000D01*
X68834000Y-98806000D02*
X66040000Y-101600000D01*
X75438000Y-98806000D02*
X68834000Y-98806000D01*
X76454000Y-97790000D02*
X75438000Y-98806000D01*
X76200000Y-58420000D02*
X76200000Y-59182000D01*
X76200000Y-59182000D02*
X82550000Y-65532000D01*
X82550000Y-65532000D02*
X82550000Y-97536000D01*
X82550000Y-97536000D02*
X82296000Y-97790000D01*
X82296000Y-97790000D02*
X76454000Y-97790000D01*
X76708000Y-98552000D02*
X73660000Y-101600000D01*
X78740000Y-59182000D02*
X83312000Y-63754000D01*
X83312000Y-97790000D02*
X82550000Y-98552000D01*
X78740000Y-58420000D02*
X78740000Y-59182000D01*
X83312000Y-63754000D02*
X83312000Y-97790000D01*
X82550000Y-98552000D02*
X76708000Y-98552000D01*
X81280000Y-59436000D02*
X84074000Y-62230000D01*
X81280000Y-58420000D02*
X81280000Y-59436000D01*
X83820000Y-107696000D02*
X72644000Y-107696000D01*
X72644000Y-107696000D02*
X71120000Y-109220000D01*
X84074000Y-62230000D02*
X84074000Y-107442000D01*
X84074000Y-107442000D02*
X83820000Y-107696000D01*
X84836000Y-112014000D02*
X84582000Y-112268000D01*
X84836000Y-60452000D02*
X84836000Y-112014000D01*
X84582000Y-112268000D02*
X66548000Y-112268000D01*
X83820000Y-58420000D02*
X83820000Y-59436000D01*
X83820000Y-59436000D02*
X84836000Y-60452000D01*
X86360000Y-59690000D02*
X86360000Y-58420000D01*
X68834000Y-116586000D02*
X85344000Y-116586000D01*
X66040000Y-119380000D02*
X68834000Y-116586000D01*
X85344000Y-116586000D02*
X85598000Y-116332000D01*
X85598000Y-116332000D02*
X85598000Y-60452000D01*
X85598000Y-60452000D02*
X86360000Y-59690000D01*
X74930000Y-118110000D02*
X73660000Y-119380000D01*
X75692000Y-117348000D02*
X74930000Y-118110000D01*
X85598000Y-117348000D02*
X75692000Y-117348000D01*
X88900000Y-59690000D02*
X86360000Y-62230000D01*
X86360000Y-62230000D02*
X86360000Y-116586000D01*
X88900000Y-58420000D02*
X88900000Y-59690000D01*
X86360000Y-116586000D02*
X85598000Y-117348000D01*
X71120000Y-129540000D02*
X71120000Y-127000000D01*
X71374000Y-129794000D02*
X71120000Y-129540000D01*
X80010000Y-129794000D02*
X71374000Y-129794000D01*
X81534000Y-128270000D02*
X80010000Y-129794000D01*
X91440000Y-59436000D02*
X87122000Y-63754000D01*
X91440000Y-58420000D02*
X91440000Y-59436000D01*
X87122000Y-63754000D02*
X87122000Y-120650000D01*
X87122000Y-120650000D02*
X81534000Y-126238000D01*
X81534000Y-126238000D02*
X81534000Y-128270000D01*
X80264000Y-130556000D02*
X63754000Y-130556000D01*
X82296000Y-128524000D02*
X80264000Y-130556000D01*
X63754000Y-130556000D02*
X63500000Y-130302000D01*
X93980000Y-59524000D02*
X87884000Y-65620000D01*
X93980000Y-58420000D02*
X93980000Y-59524000D01*
X87884000Y-120904000D02*
X82296000Y-126492000D01*
X63500000Y-127254000D02*
X63500000Y-126746000D01*
X63500000Y-130302000D02*
X63500000Y-127254000D01*
X87884000Y-65620000D02*
X87884000Y-120904000D01*
X82296000Y-126492000D02*
X82296000Y-128524000D01*
X208280000Y-107811370D02*
X209804000Y-109335370D01*
X208280000Y-106680000D02*
X208280000Y-107811370D01*
X209804000Y-109335370D02*
X209804000Y-112522000D01*
X244856000Y-114554000D02*
X209804000Y-114554000D01*
X165100000Y-106680000D02*
X165100000Y-111252000D01*
X165100000Y-111252000D02*
X166370000Y-112522000D01*
X209804000Y-114554000D02*
X166370000Y-114554000D01*
X166370000Y-114554000D02*
X122173964Y-114554000D01*
X122174000Y-106934000D02*
X122174000Y-112522000D01*
X121920000Y-106680000D02*
X122174000Y-106934000D01*
X121920000Y-106680000D02*
X121920000Y-104140000D01*
X251460000Y-114553990D02*
X251459990Y-114554000D01*
X251460000Y-106680000D02*
X251460000Y-114553990D01*
X107950000Y-66294000D02*
X107696000Y-66040000D01*
X107696000Y-66040000D02*
X104140000Y-66040000D01*
X107950000Y-65786000D02*
X107950000Y-58420000D01*
X107696000Y-66040000D02*
X107950000Y-65786000D01*
X107950000Y-65786000D02*
X107950000Y-66294000D01*
X107950000Y-91694000D02*
X107950000Y-84104815D01*
X121920000Y-94234000D02*
X110490000Y-94234000D01*
X107950000Y-84104815D02*
X107950000Y-83566000D01*
X110490000Y-94234000D02*
X107950000Y-91694000D01*
X107950000Y-66294000D02*
X107950000Y-77215988D01*
X234696000Y-96774000D02*
X241554000Y-96774000D01*
X227330000Y-97790000D02*
X233680000Y-97790000D01*
X225552000Y-99568000D02*
X227330000Y-97790000D01*
X197358000Y-99568000D02*
X225552000Y-99568000D01*
X191389000Y-98044000D02*
X192151000Y-98806000D01*
X187198000Y-98044000D02*
X191389000Y-98044000D01*
X185674000Y-96520000D02*
X187198000Y-98044000D01*
X192151000Y-98806000D02*
X196596000Y-98806000D01*
X113792000Y-92710000D02*
X123190000Y-92710000D01*
X241554000Y-96774000D02*
X243840000Y-99060000D01*
X110490000Y-83566000D02*
X110490000Y-89408000D01*
X123190000Y-92710000D02*
X123952000Y-93472000D01*
X143831033Y-94996000D02*
X148082000Y-94996000D01*
X196596000Y-98806000D02*
X197358000Y-99568000D01*
X123952000Y-93472000D02*
X142307033Y-93472000D01*
X153162000Y-95758000D02*
X153924000Y-96520000D01*
X110490000Y-89408000D02*
X113792000Y-92710000D01*
X142307033Y-93472000D02*
X143831033Y-94996000D01*
X148082000Y-94996000D02*
X148844000Y-95758000D01*
X233680000Y-97790000D02*
X234696000Y-96774000D01*
X148844000Y-95758000D02*
X153162000Y-95758000D01*
X153924000Y-96520000D02*
X185674000Y-96520000D01*
X110490000Y-58420000D02*
X110490000Y-77216000D01*
X124460000Y-106680000D02*
X124460000Y-104140000D01*
X170180000Y-84074000D02*
X170180000Y-81280000D01*
X169926000Y-84328000D02*
X170180000Y-84074000D01*
X124460000Y-84328000D02*
X169926000Y-84328000D01*
X124460000Y-88899990D02*
X124460000Y-92710000D01*
X123921185Y-84328000D02*
X124460000Y-84328000D01*
X113792000Y-84328000D02*
X123921185Y-84328000D01*
X111506000Y-82042000D02*
X113792000Y-84328000D01*
X106680000Y-78740000D02*
X109982000Y-82042000D01*
X109982000Y-82042000D02*
X111506000Y-82042000D01*
X121920000Y-121920000D02*
X121920000Y-120788630D01*
X121920000Y-120788630D02*
X121920000Y-119888000D01*
X120650000Y-108458000D02*
X120650000Y-113030000D01*
X120650000Y-104140000D02*
X120650000Y-108458000D01*
X172720000Y-84836000D02*
X172466000Y-85090000D01*
X172720000Y-81280000D02*
X172720000Y-84836000D01*
X116135685Y-85090000D02*
X115570000Y-85090000D01*
X172466000Y-85090000D02*
X121920000Y-85090000D01*
X121920000Y-85090000D02*
X116135685Y-85090000D01*
X121920000Y-90678000D02*
X120650000Y-91948000D01*
X121920000Y-88138000D02*
X121920000Y-90678000D01*
X114046000Y-82042000D02*
X115570000Y-83566000D01*
X109220000Y-78740000D02*
X112522000Y-82042000D01*
X112522000Y-82042000D02*
X114046000Y-82042000D01*
X119380000Y-121920000D02*
X119380000Y-120788630D01*
X119380000Y-120788630D02*
X119380000Y-119888000D01*
X118110000Y-104140000D02*
X118110000Y-113284012D01*
X118675677Y-85852000D02*
X118109992Y-85852000D01*
X175260000Y-85598000D02*
X175006000Y-85852000D01*
X175260000Y-81280000D02*
X175260000Y-85598000D01*
X175006000Y-85852000D02*
X118675677Y-85852000D01*
X118110000Y-87376000D02*
X118110000Y-91948000D01*
X116586020Y-82042000D02*
X118110000Y-83565980D01*
X111760000Y-78740000D02*
X115062000Y-82042000D01*
X115062000Y-82042000D02*
X116586020Y-82042000D01*
X116840000Y-121920000D02*
X116840000Y-119888000D01*
X115570000Y-104140000D02*
X115570000Y-113284000D01*
X121215685Y-86614000D02*
X120650000Y-86614000D01*
X177546000Y-86614000D02*
X121215685Y-86614000D01*
X177800000Y-86360000D02*
X177546000Y-86614000D01*
X177800000Y-81280000D02*
X177800000Y-86360000D01*
X115570000Y-86868000D02*
X115570000Y-91409185D01*
X120650000Y-86614000D02*
X115824000Y-86614000D01*
X115824000Y-86614000D02*
X115570000Y-86868000D01*
X115570000Y-91409185D02*
X115570000Y-91948000D01*
X119126000Y-82042000D02*
X120650000Y-83566000D01*
X114300000Y-78740000D02*
X117602000Y-82042000D01*
X117602000Y-82042000D02*
X119126000Y-82042000D01*
X167640000Y-106680000D02*
X167640000Y-104140000D01*
X127000000Y-87376000D02*
X127000000Y-87376000D01*
X180086000Y-87376000D02*
X180340000Y-87122000D01*
X167640000Y-87376000D02*
X180086000Y-87376000D01*
X180340000Y-87122000D02*
X180340000Y-81280000D01*
X167640000Y-87376000D02*
X123190000Y-87376000D01*
X121666000Y-82042000D02*
X123190000Y-83566000D01*
X116840000Y-78740000D02*
X120142000Y-82042000D01*
X120142000Y-82042000D02*
X121666000Y-82042000D01*
X165100000Y-121920000D02*
X165100000Y-119888000D01*
X182626000Y-88138000D02*
X182880000Y-87884000D01*
X163830000Y-88138000D02*
X182626000Y-88138000D01*
X163830000Y-104140000D02*
X163830000Y-111252000D01*
X163830000Y-111252000D02*
X165100000Y-112522000D01*
X182880000Y-87884000D02*
X182880000Y-81280000D01*
X163830000Y-88138000D02*
X125730000Y-88138000D01*
X124206000Y-82042000D02*
X125730000Y-83566000D01*
X119380000Y-78740000D02*
X122682000Y-82042000D01*
X122682000Y-82042000D02*
X124206000Y-82042000D01*
X162560000Y-121920000D02*
X162560000Y-119888000D01*
X185166000Y-88900000D02*
X185420000Y-88646000D01*
X161290000Y-88900000D02*
X185166000Y-88900000D01*
X162159987Y-112122001D02*
X162559986Y-112522000D01*
X161290000Y-111252014D02*
X162159987Y-112122001D01*
X161290000Y-104140000D02*
X161290000Y-111252014D01*
X185420000Y-88646000D02*
X185420000Y-81026000D01*
X161290000Y-88900000D02*
X128270012Y-88900000D01*
X128270012Y-88900000D02*
X128270000Y-88900012D01*
X125222000Y-82042000D02*
X126746000Y-82042000D01*
X121920000Y-78740000D02*
X125222000Y-82042000D01*
X126746000Y-82042000D02*
X128270000Y-83566000D01*
X160020000Y-121920000D02*
X160020000Y-120788630D01*
X160020000Y-120788630D02*
X160020000Y-119888000D01*
X187706000Y-89662000D02*
X187960000Y-89408000D01*
X158750000Y-89662000D02*
X187706000Y-89662000D01*
X158750000Y-104140000D02*
X158750000Y-111506000D01*
X187960000Y-89408000D02*
X187960000Y-81280000D01*
X158750000Y-89662000D02*
X130810000Y-89662000D01*
X124460000Y-78740000D02*
X127762000Y-82042000D01*
X129286000Y-82042000D02*
X130810000Y-83566000D01*
X127762000Y-82042000D02*
X129286000Y-82042000D01*
X210820000Y-106680000D02*
X210820000Y-104140000D01*
X210820000Y-90424000D02*
X210820000Y-90424000D01*
X210820000Y-90424000D02*
X133350000Y-90424000D01*
X218186000Y-90424000D02*
X218440000Y-90170000D01*
X210820000Y-90424000D02*
X218186000Y-90424000D01*
X218440000Y-90170000D02*
X218440000Y-81280000D01*
X133350000Y-83566000D02*
X133350000Y-82550000D01*
X133350000Y-82550000D02*
X137160000Y-78740000D01*
X137160000Y-78740000D02*
X137160000Y-78994000D01*
X208280000Y-121920000D02*
X208280000Y-120788630D01*
X208280000Y-120788630D02*
X208280000Y-119888000D01*
X207880001Y-112122001D02*
X208280000Y-112522000D01*
X207010000Y-111252000D02*
X207880001Y-112122001D01*
X207010000Y-104140000D02*
X207010000Y-111252000D01*
X135890000Y-83565988D02*
X135889988Y-83566000D01*
X207010000Y-91186000D02*
X135890000Y-91186000D01*
X220726000Y-91186000D02*
X220980000Y-90932000D01*
X207010000Y-91186000D02*
X220726000Y-91186000D01*
X220980000Y-90932000D02*
X220980000Y-81280000D01*
X135889988Y-83566000D02*
X135889988Y-82550012D01*
X135889988Y-82550012D02*
X139700000Y-78740000D01*
X205740000Y-121920000D02*
X205740000Y-120788630D01*
X205740000Y-120788630D02*
X205740000Y-119888000D01*
X204470000Y-104140000D02*
X204470000Y-111252000D01*
X205340001Y-112122001D02*
X205740000Y-112522000D01*
X204470000Y-111252000D02*
X205340001Y-112122001D01*
X204470000Y-91948000D02*
X138430000Y-91948000D01*
X223266000Y-91948000D02*
X223520000Y-91694000D01*
X204470000Y-91948000D02*
X223266000Y-91948000D01*
X223520000Y-91694000D02*
X223520000Y-81280000D01*
X138430000Y-83566000D02*
X138430000Y-82550000D01*
X138430000Y-82550000D02*
X142240000Y-78740000D01*
X203200000Y-121920000D02*
X203200000Y-120788630D01*
X203200000Y-120788630D02*
X203200000Y-119888000D01*
X201930000Y-92710000D02*
X201930000Y-92710000D01*
X201930000Y-104140000D02*
X201930000Y-111760000D01*
X201930000Y-92710000D02*
X140970000Y-92710000D01*
X226060000Y-92456000D02*
X226060000Y-81280000D01*
X201930000Y-92710000D02*
X225806000Y-92710000D01*
X225806000Y-92710000D02*
X226060000Y-92456000D01*
X140970000Y-83566000D02*
X140970000Y-82550000D01*
X140970000Y-82550000D02*
X144780000Y-78740000D01*
X231140000Y-100330000D02*
X231140000Y-99314000D01*
X231902000Y-101092000D02*
X231140000Y-100330000D01*
X232918000Y-101092000D02*
X231902000Y-101092000D01*
X251968000Y-104648000D02*
X248412000Y-104648000D01*
X245872000Y-102108000D02*
X233934000Y-102108000D01*
X254000000Y-106680000D02*
X251968000Y-104648000D01*
X248412000Y-104648000D02*
X245872000Y-102108000D01*
X233934000Y-102108000D02*
X232918000Y-101092000D01*
X143510000Y-93472006D02*
X143510006Y-93472000D01*
X228600000Y-93472000D02*
X228600000Y-81280000D01*
X143510006Y-93472000D02*
X228600000Y-93472000D01*
X143510000Y-83566000D02*
X143510000Y-82550000D01*
X143510000Y-82550000D02*
X147320000Y-78740000D01*
X230378000Y-94234000D02*
X146049992Y-94234000D01*
X247904000Y-105156000D02*
X245618000Y-102870000D01*
X230378000Y-100614815D02*
X230378000Y-100076000D01*
X232918000Y-101854000D02*
X231617185Y-101854000D01*
X233934000Y-102870000D02*
X232918000Y-101854000D01*
X231617185Y-101854000D02*
X230378000Y-100614815D01*
X250190000Y-105918000D02*
X249428000Y-105156000D01*
X251460000Y-121920000D02*
X250190000Y-120650000D01*
X249428000Y-105156000D02*
X247904000Y-105156000D01*
X250190000Y-120650000D02*
X250190000Y-105918000D01*
X245618000Y-102870000D02*
X233934000Y-102870000D01*
X231140000Y-90932000D02*
X231140000Y-81280000D01*
X231140000Y-93980000D02*
X231140000Y-90932000D01*
X230378000Y-94234000D02*
X230886000Y-94234000D01*
X230886000Y-94234000D02*
X231140000Y-93980000D01*
X146050000Y-82550000D02*
X149860000Y-78740000D01*
X146050000Y-83566004D02*
X146050000Y-82550000D01*
X229616000Y-94996000D02*
X149860000Y-94996000D01*
X231394000Y-102616000D02*
X229616000Y-100838000D01*
X248920000Y-108966000D02*
X247650000Y-107696000D01*
X245364000Y-103632000D02*
X233680000Y-103632000D01*
X247650000Y-105918000D02*
X245364000Y-103632000D01*
X229616000Y-99852815D02*
X229616000Y-99314000D01*
X229616000Y-100838000D02*
X229616000Y-99852815D01*
X247650000Y-107696000D02*
X247650000Y-105918000D01*
X233680000Y-103632000D02*
X232664000Y-102616000D01*
X232664000Y-102616000D02*
X231394000Y-102616000D01*
X248920000Y-121920000D02*
X248920000Y-108966000D01*
X148590000Y-83566000D02*
X148590000Y-82550000D01*
X148590000Y-82550000D02*
X152400000Y-78740000D01*
X232156000Y-93980000D02*
X232156000Y-82804000D01*
X229616000Y-94996000D02*
X231140000Y-94996000D01*
X232156000Y-82804000D02*
X233680000Y-81280000D01*
X231140000Y-94996000D02*
X232156000Y-93980000D01*
X228854000Y-96012000D02*
X228600000Y-95758000D01*
X228854000Y-95758000D02*
X228854000Y-95758000D01*
X228854000Y-96012000D02*
X228854000Y-95758000D01*
X228854000Y-96012000D02*
X229108000Y-95758000D01*
X229108000Y-95758000D02*
X228854000Y-95758000D01*
X228854000Y-95758000D02*
X228600000Y-95758000D01*
X231140000Y-103378000D02*
X228854000Y-101092000D01*
X245110000Y-105918000D02*
X243586000Y-104394000D01*
X246380000Y-121920000D02*
X246380000Y-108712000D01*
X228854000Y-101092000D02*
X228854000Y-100614815D01*
X228854000Y-100614815D02*
X228854000Y-100076000D01*
X233426000Y-104394000D02*
X232410000Y-103378000D01*
X232410000Y-103378000D02*
X231140000Y-103378000D01*
X245110000Y-107442000D02*
X245110000Y-105918000D01*
X246380000Y-108712000D02*
X245110000Y-107442000D01*
X243586000Y-104394000D02*
X233426000Y-104394000D01*
X228600000Y-95758000D02*
X154686000Y-95758000D01*
X151130000Y-83566000D02*
X151130000Y-82550000D01*
X151130000Y-82550000D02*
X154940000Y-78740000D01*
X236220000Y-81280000D02*
X236220000Y-86614000D01*
X236220000Y-86614000D02*
X233172000Y-89662000D01*
X233172000Y-89662000D02*
X233172000Y-93980000D01*
X228854000Y-95758000D02*
X231394000Y-95758000D01*
X231394000Y-95758000D02*
X233172000Y-93980000D01*
X144780000Y-121920000D02*
X144780000Y-119888000D01*
X187960000Y-121920000D02*
X187960000Y-119888000D01*
X144780000Y-116078000D02*
X187960000Y-116078000D01*
X187960000Y-116078000D02*
X231140000Y-116078000D01*
X231140000Y-121920000D02*
X231140000Y-119888000D01*
X144214315Y-116078000D02*
X144780000Y-116078000D01*
X106934000Y-116078000D02*
X144214315Y-116078000D01*
X101600000Y-121920000D02*
X101600000Y-121412000D01*
X101600000Y-121412000D02*
X106934000Y-116078000D01*
X231140000Y-124206000D02*
X231140000Y-121920000D01*
X225552000Y-135128000D02*
X231140000Y-129540000D01*
X231140000Y-129540000D02*
X231140000Y-124206000D01*
X205740000Y-142240000D02*
X212852000Y-135128000D01*
X212852000Y-135128000D02*
X225552000Y-135128000D01*
X60960000Y-130556000D02*
X60960000Y-127000000D01*
X57658000Y-91440000D02*
X60960000Y-91440000D01*
X57912000Y-108654315D02*
X57912000Y-109220000D01*
X57658000Y-91440000D02*
X57912000Y-91694000D01*
X57912000Y-91694000D02*
X57912000Y-108654315D01*
X57512001Y-109619999D02*
X57912000Y-109220000D01*
X56388000Y-110744000D02*
X57512001Y-109619999D01*
X60960000Y-134366000D02*
X58674000Y-134366000D01*
X56388000Y-132080000D02*
X56388000Y-110744000D01*
X58674000Y-134366000D02*
X56388000Y-132080000D01*
X56134000Y-82296000D02*
X56134000Y-76765685D01*
X56896000Y-83058000D02*
X56134000Y-82296000D01*
X56134000Y-76765685D02*
X56134000Y-76200000D01*
X56896000Y-85713242D02*
X56896000Y-83058000D01*
X57658000Y-91440000D02*
X57658000Y-86475242D01*
X57658000Y-86475242D02*
X56896000Y-85713242D01*
X91186000Y-144526000D02*
X91186000Y-137668000D01*
X215646000Y-144780000D02*
X91440000Y-144780000D01*
X91440000Y-144780000D02*
X91186000Y-144526000D01*
X215900000Y-142240000D02*
X215900000Y-144526000D01*
X215900000Y-144526000D02*
X215646000Y-144780000D01*
X90932000Y-137414000D02*
X66294000Y-137414000D01*
X91186000Y-137668000D02*
X90932000Y-137414000D01*
X66294000Y-137414000D02*
X63246000Y-134366000D01*
X63246000Y-134366000D02*
X60960000Y-134366000D01*
X109220000Y-121920000D02*
X109220000Y-119380000D01*
X109220000Y-119380000D02*
X110236000Y-118364000D01*
X152400000Y-121920000D02*
X152400000Y-119888000D01*
X110236000Y-118364000D02*
X152400000Y-118364000D01*
X195580000Y-121920000D02*
X195580000Y-119888000D01*
X152400000Y-118364000D02*
X195580000Y-118364000D01*
X195580000Y-118364000D02*
X238760000Y-118364000D01*
X238760000Y-121920000D02*
X238760000Y-119888000D01*
X238760000Y-124206000D02*
X238760000Y-121920000D01*
X213360000Y-142240000D02*
X215392000Y-140208000D01*
X238760000Y-131318000D02*
X238760000Y-124206000D01*
X229870000Y-140208000D02*
X238760000Y-131318000D01*
X215392000Y-140208000D02*
X229870000Y-140208000D01*
X114300000Y-121920000D02*
X114300000Y-120788630D01*
X114300000Y-120788630D02*
X115962630Y-119126000D01*
X157480000Y-119380000D02*
X157226000Y-119126000D01*
X157226000Y-119126000D02*
X157480000Y-119126000D01*
X157480000Y-119380000D02*
X157480000Y-119126000D01*
X115962630Y-119126000D02*
X157226000Y-119126000D01*
X157480000Y-121920000D02*
X157480000Y-119380000D01*
X157480000Y-119380000D02*
X157734000Y-119126000D01*
X157480000Y-119126000D02*
X157734000Y-119126000D01*
X200406000Y-119126000D02*
X200660000Y-119126000D01*
X157734000Y-119126000D02*
X200406000Y-119126000D01*
X200660000Y-119380000D02*
X200406000Y-119126000D01*
X200660000Y-119380000D02*
X200660000Y-119126000D01*
X200660000Y-121920000D02*
X200660000Y-119380000D01*
X200660000Y-119380000D02*
X200914000Y-119126000D01*
X200660000Y-119126000D02*
X200914000Y-119126000D01*
X200914000Y-119126000D02*
X243586000Y-119126000D01*
X243586000Y-119126000D02*
X243840000Y-119380000D01*
X243840000Y-119380000D02*
X243840000Y-121920000D01*
X243586000Y-129032000D02*
X243840000Y-128778000D01*
X239522000Y-129032000D02*
X243586000Y-129032000D01*
X243840000Y-128778000D02*
X243840000Y-121920000D01*
X225044000Y-133096000D02*
X229108000Y-129032000D01*
X203200000Y-142240000D02*
X212344000Y-133096000D01*
X229108000Y-129032000D02*
X230378000Y-129032000D01*
X212344000Y-133096000D02*
X225044000Y-133096000D01*
X245001999Y-118509999D02*
X242570000Y-116078000D01*
X244602000Y-128270000D02*
X245001999Y-127870001D01*
X245001999Y-127870001D02*
X245001999Y-118509999D01*
X242570000Y-116078000D02*
X242570000Y-116078000D01*
X242570000Y-116078000D02*
X235458000Y-116078000D01*
X234442000Y-112522000D02*
X232410000Y-110490000D01*
X232410000Y-110490000D02*
X232410000Y-108712000D01*
X234188000Y-100584000D02*
X235712000Y-99060000D01*
X235712000Y-99060000D02*
X236220000Y-99060000D01*
X211836000Y-131064000D02*
X225298016Y-131064000D01*
X227711017Y-128650999D02*
X228092016Y-128270000D01*
X200660000Y-142240000D02*
X211836000Y-131064000D01*
X225298016Y-131064000D02*
X227711017Y-128650999D01*
X106680000Y-121920000D02*
X106680000Y-121412000D01*
X106680000Y-121920000D02*
X106680000Y-120788630D01*
X106680000Y-120788630D02*
X109866630Y-117602000D01*
X149860000Y-121920000D02*
X149860000Y-119888000D01*
X109866630Y-117602000D02*
X149860000Y-117602000D01*
X193040000Y-121920000D02*
X193040000Y-119888000D01*
X149860000Y-117602000D02*
X193040000Y-117602000D01*
X193040000Y-117602000D02*
X236220000Y-117602000D01*
X236220000Y-121920000D02*
X236220000Y-119888000D01*
X236220000Y-131064000D02*
X236220000Y-124206000D01*
X228600000Y-138684000D02*
X236220000Y-131064000D01*
X210820000Y-142240000D02*
X214376000Y-138684000D01*
X236220000Y-124206000D02*
X236220000Y-121920000D01*
X214376000Y-138684000D02*
X228600000Y-138684000D01*
X147320000Y-121920000D02*
X147320000Y-119888000D01*
X190500000Y-121920000D02*
X190500000Y-119888000D01*
X147320000Y-116840000D02*
X190500000Y-116840000D01*
X190500000Y-116840000D02*
X233680000Y-116840000D01*
X233680000Y-121920000D02*
X233680000Y-119888000D01*
X107188000Y-116840000D02*
X147320000Y-116840000D01*
X104140000Y-121920000D02*
X104140000Y-119888000D01*
X104140000Y-119888000D02*
X107188000Y-116840000D01*
X233680000Y-124206000D02*
X233680000Y-121666000D01*
X227076000Y-136906000D02*
X233680000Y-130302000D01*
X208280000Y-142240000D02*
X213614000Y-136906000D01*
X233680000Y-130302000D02*
X233680000Y-124206000D01*
X213614000Y-136906000D02*
X227076000Y-136906000D01*
X100330000Y-140970000D02*
X101600000Y-142240000D01*
X96520000Y-138430000D02*
X99060000Y-140970000D01*
X99060000Y-140970000D02*
X100330000Y-140970000D01*
X99060000Y-138430000D02*
X101092000Y-140462000D01*
X103290001Y-141390001D02*
X104140000Y-142240000D01*
X102362000Y-140462000D02*
X103290001Y-141390001D01*
X101092000Y-140462000D02*
X102362000Y-140462000D01*
X106680000Y-142240000D02*
X106426000Y-141986000D01*
X105830001Y-141390001D02*
X106680000Y-142240000D01*
X104902000Y-140462000D02*
X105830001Y-141390001D01*
X101600000Y-138430000D02*
X103632000Y-140462000D01*
X103632000Y-140462000D02*
X104902000Y-140462000D01*
X108370001Y-141390001D02*
X109220000Y-142240000D01*
X107442000Y-140462000D02*
X108370001Y-141390001D01*
X104140000Y-138430000D02*
X106172000Y-140462000D01*
X106172000Y-140462000D02*
X107442000Y-140462000D01*
X110910001Y-141390001D02*
X111760000Y-142240000D01*
X106680000Y-138430000D02*
X108712000Y-140462000D01*
X109982000Y-140462000D02*
X110910001Y-141390001D01*
X108712000Y-140462000D02*
X109982000Y-140462000D01*
X113450001Y-141390001D02*
X114300000Y-142240000D01*
X112522000Y-140462000D02*
X113450001Y-141390001D01*
X109220000Y-138430000D02*
X111252000Y-140462000D01*
X111252000Y-140462000D02*
X112522000Y-140462000D01*
X115990001Y-141390001D02*
X116840000Y-142240000D01*
X115062000Y-140462000D02*
X115990001Y-141390001D01*
X111760000Y-138430000D02*
X113792000Y-140462000D01*
X113792000Y-140462000D02*
X115062000Y-140462000D01*
X118530001Y-141390001D02*
X119380000Y-142240000D01*
X117602000Y-140462000D02*
X118530001Y-141390001D01*
X114300000Y-138430000D02*
X116332000Y-140462000D01*
X116332000Y-140462000D02*
X117602000Y-140462000D01*
X126200001Y-139229999D02*
X127000000Y-138430000D01*
X124968000Y-140462000D02*
X126200001Y-139229999D01*
X121920000Y-142240000D02*
X123698000Y-140462000D01*
X123698000Y-140462000D02*
X124968000Y-140462000D01*
X128740001Y-139229999D02*
X129540000Y-138430000D01*
X124460000Y-142240000D02*
X126238000Y-140462000D01*
X127508000Y-140462000D02*
X128740001Y-139229999D01*
X126238000Y-140462000D02*
X127508000Y-140462000D01*
X131280001Y-139229999D02*
X132080000Y-138430000D01*
X130048000Y-140462000D02*
X131280001Y-139229999D01*
X127000000Y-142240000D02*
X128778000Y-140462000D01*
X128778000Y-140462000D02*
X130048000Y-140462000D01*
X132588000Y-140462000D02*
X133820001Y-139229999D01*
X133820001Y-139229999D02*
X134620000Y-138430000D01*
X129540000Y-142240000D02*
X131318000Y-140462000D01*
X131318000Y-140462000D02*
X132588000Y-140462000D01*
X136360001Y-139229999D02*
X137160000Y-138430000D01*
X135128000Y-140462000D02*
X136360001Y-139229999D01*
X132080000Y-142240000D02*
X133858000Y-140462000D01*
X133858000Y-140462000D02*
X135128000Y-140462000D01*
X137668000Y-140462000D02*
X138900001Y-139229999D01*
X138900001Y-139229999D02*
X139700000Y-138430000D01*
X134620000Y-142240000D02*
X136398000Y-140462000D01*
X136398000Y-140462000D02*
X137668000Y-140462000D01*
X141440001Y-139229999D02*
X142240000Y-138430000D01*
X140208000Y-140462000D02*
X141440001Y-139229999D01*
X137160000Y-142240000D02*
X138938000Y-140462000D01*
X138938000Y-140462000D02*
X140208000Y-140462000D01*
X139700000Y-142240000D02*
X140970000Y-142240000D01*
X140970000Y-142240000D02*
X144780000Y-138430000D01*
X238760000Y-99060000D02*
X238506000Y-99314000D01*
X252730000Y-108458000D02*
X252730000Y-118364000D01*
X252730000Y-118364000D02*
X251206000Y-119888000D01*
X243078000Y-119888000D02*
X241300000Y-121666000D01*
X248666000Y-103886000D02*
X252730000Y-103886000D01*
X246126000Y-101346000D02*
X248666000Y-103886000D01*
X238760000Y-99060000D02*
X241046000Y-101346000D01*
X241046000Y-101346000D02*
X246126000Y-101346000D01*
X228600000Y-103886000D02*
X228600000Y-106680000D01*
X96012000Y-102616000D02*
X227330000Y-102616000D01*
X227330000Y-102616000D02*
X228600000Y-103886000D01*
X81534000Y-124206000D02*
X76708000Y-124206000D01*
X85598000Y-118110000D02*
X85598000Y-120142000D01*
X85598000Y-120142000D02*
X81534000Y-124206000D01*
X78740000Y-119380000D02*
X83820000Y-119380000D01*
X83820000Y-119380000D02*
X84328000Y-119380000D01*
X84328000Y-119380000D02*
X84836000Y-118872000D01*
X231902000Y-104902000D02*
X232918000Y-105918000D01*
X230632000Y-104902000D02*
X231902000Y-104902000D01*
X232918000Y-105918000D02*
X233680000Y-106680000D01*
X95250000Y-101854000D02*
X227584000Y-101854000D01*
X227584000Y-101854000D02*
X230632000Y-104902000D01*
X237236000Y-105156000D02*
X238760000Y-106680000D01*
X227838000Y-101092000D02*
X230886000Y-104140000D01*
X230886000Y-104140000D02*
X232156000Y-104140000D01*
X232156000Y-104140000D02*
X233172000Y-105156000D01*
X96012000Y-101092000D02*
X227838000Y-101092000D01*
X233172000Y-105156000D02*
X237236000Y-105156000D01*
X72390000Y-115824000D02*
X84074000Y-115824000D01*
X68580000Y-127000000D02*
X70612000Y-124968000D01*
X70612000Y-124968000D02*
X73914000Y-124968000D01*
X227330000Y-120650000D02*
X228600000Y-121920000D01*
X227330000Y-119888000D02*
X227330000Y-120650000D01*
X75946000Y-124968000D02*
X81788000Y-124968000D01*
X86360000Y-120396000D02*
X86360000Y-118872000D01*
X81788000Y-124968000D02*
X86360000Y-120396000D01*
X95250000Y-103378000D02*
X224562274Y-103378000D01*
X227330000Y-106145726D02*
X227330000Y-113226319D01*
X227330000Y-113226319D02*
X227330000Y-113792004D01*
X224562274Y-103378000D02*
X227330000Y-106145726D01*
X76200000Y-109220000D02*
X77724000Y-110744000D01*
X77724000Y-110744000D02*
X83058000Y-110744000D01*
X83058000Y-110744000D02*
X84074000Y-109728000D01*
X185420000Y-104140000D02*
X185420000Y-106680000D01*
X184397926Y-99568000D02*
X185166000Y-100336074D01*
X96012000Y-99568000D02*
X184397926Y-99568000D01*
X78740000Y-101600000D02*
X83312000Y-101600000D01*
X190500000Y-104140000D02*
X190500000Y-106680000D01*
X189680315Y-100330000D02*
X190246000Y-100330000D01*
X95250000Y-98806000D02*
X184912000Y-98806000D01*
X186436000Y-100330000D02*
X189680315Y-100330000D01*
X184912000Y-98806000D02*
X186436000Y-100330000D01*
X71120000Y-101600000D02*
X73152000Y-99568000D01*
X73152000Y-99568000D02*
X74422000Y-99568000D01*
X82296000Y-99568000D02*
X83312000Y-100584000D01*
X76962008Y-99568000D02*
X82296000Y-99568000D01*
X191516000Y-100330000D02*
X195580000Y-100330000D01*
X190754000Y-99568000D02*
X191516000Y-100330000D01*
X186690000Y-99568000D02*
X190754000Y-99568000D01*
X96012000Y-98044000D02*
X185166000Y-98044000D01*
X185166000Y-98044000D02*
X186690000Y-99568000D01*
X195580000Y-104140000D02*
X195580000Y-106680000D01*
X83566000Y-111506000D02*
X84074000Y-110998000D01*
X68580000Y-111506000D02*
X83566000Y-111506000D01*
X184150000Y-120650000D02*
X185420000Y-121920000D01*
X184150000Y-119888000D02*
X184150000Y-120650000D01*
X184150000Y-104140000D02*
X184150000Y-112521994D01*
X184150000Y-112521994D02*
X184150006Y-112522000D01*
X95250000Y-100330000D02*
X183895978Y-100330000D01*
X76200000Y-94488000D02*
X76200000Y-96012000D01*
X76200000Y-96012000D02*
X76454000Y-96266000D01*
X76454000Y-96266000D02*
X81026000Y-96266000D01*
X142240000Y-104140000D02*
X142240000Y-106680000D01*
X141224000Y-96520000D02*
X141986000Y-97282000D01*
X96012000Y-96520000D02*
X141224000Y-96520000D01*
X147320000Y-104140000D02*
X147320000Y-106934000D01*
X141791964Y-95758000D02*
X143315964Y-97282000D01*
X146500315Y-97282000D02*
X147066000Y-97282000D01*
X95250000Y-95758000D02*
X141791964Y-95758000D01*
X143315964Y-97282000D02*
X146500315Y-97282000D01*
X76853999Y-87775999D02*
X76454000Y-87376000D01*
X77107999Y-87775999D02*
X76853999Y-87775999D01*
X79502000Y-90170000D02*
X77107999Y-87775999D01*
X81534000Y-90424000D02*
X81280000Y-90170000D01*
X81280000Y-90170000D02*
X79502000Y-90170000D01*
X79011194Y-87376000D02*
X80991614Y-89356420D01*
X77724000Y-87376000D02*
X79011194Y-87376000D01*
X71120000Y-86106000D02*
X76454000Y-86106000D01*
X76454000Y-86106000D02*
X77724000Y-87376000D01*
X147574000Y-96520000D02*
X148336000Y-97282000D01*
X148336000Y-97282000D02*
X152400000Y-97282000D01*
X143510000Y-96520000D02*
X147574000Y-96520000D01*
X96012000Y-94996000D02*
X141986000Y-94996000D01*
X141986000Y-94996000D02*
X143510000Y-96520000D01*
X152400000Y-104140000D02*
X152400000Y-106680000D01*
X68580000Y-96774000D02*
X68580000Y-94488004D01*
X81788000Y-97028000D02*
X68834000Y-97028000D01*
X68580000Y-94488004D02*
X68580004Y-94488000D01*
X68834000Y-97028000D02*
X68580000Y-96774000D01*
X140970000Y-120650000D02*
X142240000Y-121920000D01*
X140970000Y-119888000D02*
X140970000Y-120650000D01*
X140970000Y-104140000D02*
X140970000Y-112521996D01*
X95250000Y-97282000D02*
X140716000Y-97282000D01*
X80010000Y-81026000D02*
X81026000Y-81026000D01*
X76200000Y-77216000D02*
X80010000Y-81026000D01*
X99060000Y-104140000D02*
X99060000Y-106680000D01*
X95612001Y-93326001D02*
X97637927Y-93326001D01*
X93980000Y-85090000D02*
X93980000Y-88900000D01*
X97891927Y-93580001D02*
X98291926Y-93980000D01*
X92456000Y-82042000D02*
X92456000Y-83566000D01*
X91694000Y-81280000D02*
X92456000Y-82042000D01*
X93980000Y-88900000D02*
X95504000Y-90424000D01*
X95504000Y-93218000D02*
X95612001Y-93326001D01*
X97637927Y-93326001D02*
X97891927Y-93580001D01*
X92456000Y-83566000D02*
X93980000Y-85090000D01*
X95504000Y-90424000D02*
X95504000Y-93218000D01*
X78740000Y-69342000D02*
X81026000Y-69342000D01*
X104140000Y-104140000D02*
X104140000Y-106680000D01*
X93218000Y-81280000D02*
X93218000Y-83312000D01*
X94742000Y-88646000D02*
X96266000Y-90170000D01*
X93218000Y-83312000D02*
X94742000Y-84836000D01*
X96266000Y-90170000D02*
X96266000Y-92456000D01*
X96520000Y-92710000D02*
X98298000Y-92710000D01*
X91694000Y-79756000D02*
X93218000Y-81280000D01*
X91694000Y-74676000D02*
X91694000Y-79756000D01*
X94742000Y-84836000D02*
X94742000Y-88646000D01*
X90170000Y-69342000D02*
X90170000Y-73152000D01*
X90170000Y-73152000D02*
X91694000Y-74676000D01*
X103320315Y-94234000D02*
X103886000Y-94234000D01*
X96266000Y-92456000D02*
X96520000Y-92710000D01*
X99822000Y-94234000D02*
X103320315Y-94234000D01*
X98298000Y-92710000D02*
X99822000Y-94234000D01*
X73406000Y-62484000D02*
X73805999Y-62883999D01*
X73805999Y-62883999D02*
X75184000Y-64262000D01*
X75184000Y-64262000D02*
X79756000Y-64262000D01*
X79756000Y-64262000D02*
X81788000Y-66294000D01*
X81788000Y-66294000D02*
X81788000Y-67056000D01*
X109220000Y-104140000D02*
X109220000Y-106680000D01*
X93980000Y-81026000D02*
X92456000Y-79502000D01*
X97028000Y-91694000D02*
X97028000Y-89916000D01*
X98425000Y-91948000D02*
X97282000Y-91948000D01*
X99949000Y-93472000D02*
X98425000Y-91948000D01*
X90932000Y-68580000D02*
X89408000Y-67056000D01*
X105156000Y-94234000D02*
X104394000Y-93472000D01*
X109220000Y-94234000D02*
X105156000Y-94234000D01*
X95504000Y-88392000D02*
X95504000Y-84582000D01*
X90932000Y-72898000D02*
X90932000Y-68580000D01*
X93980000Y-83058000D02*
X93980000Y-81026000D01*
X104394000Y-93472000D02*
X99949000Y-93472000D01*
X97028000Y-89916000D02*
X95504000Y-88392000D01*
X92456000Y-74422000D02*
X90932000Y-72898000D01*
X95504000Y-84582000D02*
X93980000Y-83058000D01*
X92456000Y-79502000D02*
X92456000Y-74422000D01*
X97282000Y-91948000D02*
X97028000Y-91694000D01*
X73152000Y-81788000D02*
X81788000Y-81788000D01*
X68580000Y-77216000D02*
X73152000Y-81788000D01*
X99060000Y-121920000D02*
X97790000Y-120650000D01*
X97790000Y-120650000D02*
X97790000Y-116078000D01*
X97790000Y-104902000D02*
X97790000Y-114046000D01*
X97028000Y-104140000D02*
X97790000Y-104902000D01*
X94996000Y-94234000D02*
X94742000Y-93980000D01*
X94742000Y-90678000D02*
X93218000Y-89154000D01*
X91694000Y-83820000D02*
X91694000Y-83115685D01*
X93218000Y-85344000D02*
X91694000Y-83820000D01*
X93218000Y-89154000D02*
X93218000Y-85344000D01*
X91694000Y-83115685D02*
X91694000Y-82550000D01*
X94742000Y-93980000D02*
X94742000Y-90678000D01*
X97028000Y-94234000D02*
X94996000Y-94234000D01*
X234188000Y-98552000D02*
X235204000Y-97536000D01*
X239776000Y-97536000D02*
X241300000Y-99060000D01*
X197104000Y-100330000D02*
X225806000Y-100330000D01*
X191008000Y-98806000D02*
X191770000Y-99568000D01*
X123444000Y-94234000D02*
X142240000Y-94234000D01*
X147828000Y-95758000D02*
X148643999Y-96573999D01*
X235204000Y-97536000D02*
X239776000Y-97536000D01*
X185420000Y-97282000D02*
X186944000Y-98806000D01*
X227584000Y-98552000D02*
X234188000Y-98552000D01*
X191770000Y-99568000D02*
X196342000Y-99568000D01*
X186944000Y-98806000D02*
X191008000Y-98806000D01*
X142240000Y-94234000D02*
X143764000Y-95758000D01*
X143764000Y-95758000D02*
X147828000Y-95758000D01*
X225806000Y-100330000D02*
X227584000Y-98552000D01*
X116840000Y-93472000D02*
X122682000Y-93472000D01*
X148643999Y-96573999D02*
X152854001Y-96573999D01*
X153562002Y-97282000D02*
X185420000Y-97282000D01*
X196342000Y-99568000D02*
X197104000Y-100330000D01*
X122682000Y-93472000D02*
X123444000Y-94234000D01*
X152854001Y-96573999D02*
X153562002Y-97282000D01*
X73660000Y-127000000D02*
X73660000Y-129032000D01*
X231140000Y-112521994D02*
X229870000Y-113791994D01*
X231140000Y-106680000D02*
X231140000Y-112521994D01*
X229870000Y-120426815D02*
X229870000Y-119888000D01*
X224663000Y-126746000D02*
X229616000Y-126746000D01*
X223647000Y-127762000D02*
X224663000Y-126746000D01*
X208280000Y-127762000D02*
X223647000Y-127762000D01*
X135890000Y-135890000D02*
X143256000Y-135890000D01*
X74676000Y-136144000D02*
X135636000Y-136144000D01*
X146050000Y-135890000D02*
X150368000Y-135890000D01*
X143256000Y-135890000D02*
X143510000Y-135636000D01*
X229870000Y-126492000D02*
X229870000Y-120426815D01*
X229616000Y-126746000D02*
X229870000Y-126492000D01*
X150368000Y-135890000D02*
X152654000Y-138176000D01*
X135636000Y-136144000D02*
X135890000Y-135890000D01*
X73660000Y-135128000D02*
X74676000Y-136144000D01*
X197866000Y-138176000D02*
X208280000Y-127762000D01*
X143510000Y-135636000D02*
X145796000Y-135636000D01*
X145796000Y-135636000D02*
X146050000Y-135890000D01*
X152654000Y-138176000D02*
X197866000Y-138176000D01*
X74930000Y-120650000D02*
X74930000Y-129032000D01*
X76200000Y-119380000D02*
X74930000Y-120650000D01*
X234950000Y-119888000D02*
X234950000Y-124206000D01*
X234950000Y-125984000D02*
X234950000Y-124206000D01*
X236220000Y-112014000D02*
X234442000Y-113792000D01*
X236220000Y-106680000D02*
X236220000Y-112014000D01*
X228315195Y-125983990D02*
X228854010Y-125983990D01*
X223266010Y-125983990D02*
X228315195Y-125983990D01*
X222758000Y-126492000D02*
X223266010Y-125983990D01*
X204978000Y-126492000D02*
X222758000Y-126492000D01*
X134620000Y-135382000D02*
X140843000Y-135382000D01*
X143637000Y-134874000D02*
X150279912Y-134874000D01*
X152057912Y-136652000D02*
X194818000Y-136652000D01*
X134366000Y-135636000D02*
X134620000Y-135382000D01*
X74930000Y-135128000D02*
X75438000Y-135636000D01*
X75438000Y-135636000D02*
X134366000Y-135636000D01*
X140843000Y-135382000D02*
X141097000Y-135128000D01*
X143383000Y-135128000D02*
X143637000Y-134874000D01*
X141097000Y-135128000D02*
X143383000Y-135128000D01*
X194818000Y-136652000D02*
X204978000Y-126492000D01*
X150279912Y-134874000D02*
X152057912Y-136652000D01*
X139700000Y-130556000D02*
X139700000Y-130556000D01*
X67310000Y-120650000D02*
X68580000Y-119380000D01*
X67310000Y-129794000D02*
X67310000Y-120650000D01*
X240030000Y-120453685D02*
X240030000Y-119888000D01*
X240030000Y-124968000D02*
X240030000Y-120453685D01*
X239903000Y-125095000D02*
X240030000Y-125222000D01*
X239903000Y-125095000D02*
X240030000Y-124968000D01*
X239776000Y-125222000D02*
X239903000Y-125095000D01*
X240030000Y-125222000D02*
X240030000Y-125222000D01*
X241300000Y-106680000D02*
X241300000Y-112522000D01*
X241300000Y-112522000D02*
X240030000Y-113792000D01*
X225298000Y-125222000D02*
X228092000Y-125222000D01*
X202692000Y-124460000D02*
X224536000Y-124460000D01*
X192024000Y-135128000D02*
X202692000Y-124460000D01*
X133477000Y-134874000D02*
X138303000Y-134874000D01*
X151892000Y-135128000D02*
X192024000Y-135128000D01*
X224536000Y-124460000D02*
X225298000Y-125222000D01*
X133223000Y-135128000D02*
X133477000Y-134874000D01*
X67310000Y-134366000D02*
X90170000Y-134366000D01*
X90932000Y-135128000D02*
X133223000Y-135128000D01*
X141097000Y-134366000D02*
X151130000Y-134366000D01*
X90170000Y-134366000D02*
X90932000Y-135128000D01*
X138303000Y-134874000D02*
X138557000Y-134620000D01*
X151130000Y-134366000D02*
X151892000Y-135128000D01*
X138557000Y-134620000D02*
X140843000Y-134620000D01*
X140843000Y-134620000D02*
X141097000Y-134366000D01*
X66040000Y-129794000D02*
X66040000Y-127000000D01*
X226060000Y-121920000D02*
X226060000Y-124205998D01*
X226060000Y-124205998D02*
X226060002Y-124206000D01*
X68325994Y-136651994D02*
X149067185Y-136651994D01*
X149067185Y-136651994D02*
X149606000Y-136651994D01*
X66040000Y-134366000D02*
X68325994Y-136651994D01*
X150144815Y-136651994D02*
X149606000Y-136651994D01*
X224028000Y-129540000D02*
X210312000Y-129540000D01*
X226060000Y-127508000D02*
X224028000Y-129540000D01*
X210312000Y-129540000D02*
X199898000Y-139954000D01*
X199898000Y-139954000D02*
X153446821Y-139954000D01*
X153446821Y-139954000D02*
X150144815Y-136651994D01*
X187960000Y-111252000D02*
X186690000Y-112522000D01*
X187960000Y-106680000D02*
X187960000Y-111252000D01*
X61525685Y-112268000D02*
X60960000Y-112268000D01*
X62484000Y-112268000D02*
X61525685Y-112268000D01*
X72136000Y-110744000D02*
X65532000Y-110744000D01*
X73660000Y-109220000D02*
X72136000Y-110744000D01*
X63246000Y-111506000D02*
X62484000Y-112268000D01*
X65532000Y-110744000D02*
X64770000Y-111506000D01*
X64770000Y-111506000D02*
X63246000Y-111506000D01*
X91440000Y-134112000D02*
X130810000Y-134112000D01*
X59182000Y-132842000D02*
X90170000Y-132842000D01*
X90170000Y-132842000D02*
X91440000Y-134112000D01*
X57912000Y-112268000D02*
X57912000Y-131572000D01*
X57912000Y-131572000D02*
X59182000Y-132842000D01*
X130810000Y-134112000D02*
X131064000Y-133858000D01*
X131064000Y-133858000D02*
X133223000Y-133858000D01*
X133477000Y-133604000D02*
X134620000Y-133604000D01*
X133223000Y-133858000D02*
X133477000Y-133604000D01*
X135158815Y-133604000D02*
X135435990Y-133326825D01*
X134620000Y-133604000D02*
X135158815Y-133604000D01*
X135435990Y-133326825D02*
X150137175Y-133326825D01*
X186151185Y-132334000D02*
X186690000Y-132334000D01*
X150137175Y-133326825D02*
X151130000Y-132334000D01*
X151130000Y-132334000D02*
X186151185Y-132334000D01*
X186690000Y-119888000D02*
X186690000Y-128270000D01*
X193040000Y-106680000D02*
X193040000Y-111252000D01*
X193040000Y-111252000D02*
X191770000Y-112522000D01*
X76200000Y-101600000D02*
X74168000Y-103632000D01*
X74168000Y-103632000D02*
X60198000Y-103632000D01*
X130302000Y-133604000D02*
X130810000Y-133096000D01*
X58674000Y-103632008D02*
X58674000Y-131318000D01*
X58674000Y-131318000D02*
X59436000Y-132080000D01*
X58673992Y-103632000D02*
X58674000Y-103632008D01*
X59436000Y-132080000D02*
X90170000Y-132080000D01*
X91694000Y-133604000D02*
X130302000Y-133604000D01*
X90170000Y-132080000D02*
X91694000Y-133604000D01*
X130810000Y-133096000D02*
X132080000Y-133096000D01*
X191770000Y-119888000D02*
X191770000Y-128270000D01*
X132080000Y-133096000D02*
X132618815Y-133096000D01*
X151638002Y-131063998D02*
X191231185Y-131063998D01*
X191231185Y-131063998D02*
X191770000Y-131063998D01*
X132618815Y-133096000D02*
X132842000Y-132872815D01*
X149829185Y-132872815D02*
X151638002Y-131063998D01*
X132842000Y-132872815D02*
X149829185Y-132872815D01*
X198120000Y-110490000D02*
X196850000Y-111760000D01*
X198120000Y-106680000D02*
X198120000Y-110490000D01*
X59690000Y-102870000D02*
X67310000Y-102870000D01*
X59436000Y-103124000D02*
X59690000Y-102870000D01*
X59436000Y-131064000D02*
X59436000Y-103124000D01*
X93980000Y-133096000D02*
X91948000Y-133096000D01*
X67310000Y-102870000D02*
X68580000Y-101600000D01*
X90170000Y-131318000D02*
X59690000Y-131318000D01*
X91948000Y-133096000D02*
X90170000Y-131318000D01*
X59690000Y-131318000D02*
X59436000Y-131064000D01*
X93980000Y-133096000D02*
X120142000Y-133096000D01*
X129540000Y-130810000D02*
X129540000Y-133096000D01*
X120142000Y-133096000D02*
X129540000Y-133096000D01*
X196850000Y-120453685D02*
X196850000Y-119888000D01*
X194310000Y-129540000D02*
X196850000Y-127000000D01*
X129794000Y-133096000D02*
X130556000Y-132334000D01*
X149606000Y-132334000D02*
X152400000Y-129540000D01*
X196850000Y-127000000D02*
X196850000Y-120453685D01*
X152400000Y-129540000D02*
X194310000Y-129540000D01*
X129540000Y-133096000D02*
X129794000Y-133096000D01*
X130556000Y-132334000D02*
X149606000Y-132334000D01*
X64516000Y-110744000D02*
X62738006Y-110744000D01*
X62738006Y-110744000D02*
X62376005Y-111106001D01*
X62376005Y-111106001D02*
X61976006Y-111506000D01*
X66040000Y-109220000D02*
X64516000Y-110744000D01*
X90170000Y-133604000D02*
X91186000Y-134620000D01*
X57150000Y-131826000D02*
X58928000Y-133604000D01*
X58928000Y-133604000D02*
X90170000Y-133604000D01*
X91186000Y-134620000D02*
X131953000Y-134620000D01*
X57150000Y-111454412D02*
X57150000Y-131826000D01*
X135763000Y-134366000D02*
X136017000Y-134112000D01*
X131953000Y-134620000D02*
X132207000Y-134366000D01*
X132207000Y-134366000D02*
X135763000Y-134366000D01*
X136017000Y-134112000D02*
X137160000Y-134112000D01*
X138303000Y-134112000D02*
X137160000Y-134112000D01*
X150368000Y-133858000D02*
X138557000Y-133858000D01*
X138557000Y-133858000D02*
X138303000Y-134112000D01*
X182880000Y-133604000D02*
X150622000Y-133604000D01*
X150622000Y-133604000D02*
X150368000Y-133858000D01*
X182880000Y-121920000D02*
X182880000Y-128270000D01*
X81026000Y-92964000D02*
X75184000Y-92964000D01*
X75184000Y-92964000D02*
X73660000Y-91440000D01*
X144780000Y-106680000D02*
X144780000Y-111252000D01*
X144780000Y-111252000D02*
X143510000Y-112522000D01*
X121920000Y-129032000D02*
X114300000Y-129032000D01*
X123190000Y-127762000D02*
X121920000Y-129032000D01*
X123190000Y-127762000D02*
X126238000Y-127762000D01*
X89408000Y-125730000D02*
X89408000Y-92963992D01*
X89045999Y-92601991D02*
X88646000Y-92201992D01*
X114300000Y-129032000D02*
X92710000Y-129032000D01*
X89408000Y-92963992D02*
X89045999Y-92601991D01*
X92710000Y-129032000D02*
X89408000Y-125730000D01*
X126238000Y-127762000D02*
X143510000Y-127762000D01*
X143510000Y-119888000D02*
X143510010Y-119887990D01*
X143510000Y-125476000D02*
X143510000Y-119888000D01*
X81788000Y-85852000D02*
X78232000Y-85852000D01*
X78232000Y-85852000D02*
X76200000Y-83820000D01*
X149860000Y-111252000D02*
X148590000Y-112522000D01*
X149860000Y-106680000D02*
X149860000Y-111252000D01*
X92964000Y-128270000D02*
X90170000Y-125476000D01*
X111760000Y-128270000D02*
X92964000Y-128270000D01*
X90170000Y-125476000D02*
X90170000Y-92456000D01*
X88646000Y-86898815D02*
X88646000Y-86360000D01*
X88646000Y-90932000D02*
X88646000Y-86898815D01*
X90170000Y-92456000D02*
X88646000Y-90932000D01*
X121666000Y-128270000D02*
X111760000Y-128270000D01*
X148590000Y-127000000D02*
X122936000Y-127000000D01*
X122936000Y-127000000D02*
X121666000Y-128270000D01*
X148590000Y-125476000D02*
X148590000Y-119888000D01*
X90932000Y-123952000D02*
X90932000Y-123698000D01*
X81026000Y-86614000D02*
X77978000Y-86614000D01*
X77978000Y-86614000D02*
X76708000Y-85344000D01*
X76708000Y-85344000D02*
X70104000Y-85344000D01*
X70104000Y-85344000D02*
X68580000Y-83820000D01*
X154940000Y-110490010D02*
X153670010Y-111760000D01*
X154940000Y-106680000D02*
X154940000Y-110490010D01*
X90932000Y-123952000D02*
X90932000Y-92202000D01*
X89408000Y-90678000D02*
X89408000Y-87941685D01*
X90932000Y-92202000D02*
X89408000Y-90678000D01*
X89408000Y-87941685D02*
X89408000Y-87376000D01*
X90932000Y-125222000D02*
X90932000Y-123952000D01*
X109220000Y-127508000D02*
X93218000Y-127508000D01*
X93218000Y-127508000D02*
X90932000Y-125222000D01*
X122682000Y-126238000D02*
X121412000Y-127508000D01*
X153416000Y-126238000D02*
X122682000Y-126238000D01*
X121412000Y-127508000D02*
X109220000Y-127508000D01*
X153670000Y-119888000D02*
X153670000Y-125984000D01*
X153670000Y-125984000D02*
X153416000Y-126238000D01*
X81788000Y-93726000D02*
X68326000Y-93726000D01*
X68326000Y-93726000D02*
X66040000Y-91440000D01*
X93980000Y-132588000D02*
X92202000Y-132588000D01*
X93980000Y-132588000D02*
X116840000Y-132588000D01*
X116840000Y-132588000D02*
X116840000Y-130810000D01*
X116840000Y-132588000D02*
X120539962Y-132588000D01*
X120539962Y-132588000D02*
X120904000Y-132588000D01*
X120904000Y-132588000D02*
X122428000Y-131064000D01*
X122428000Y-131064000D02*
X122428000Y-129540000D01*
X122428000Y-129540000D02*
X123444000Y-128524000D01*
X123444000Y-128524000D02*
X126492000Y-128524000D01*
X126492000Y-128524000D02*
X139700000Y-128524000D01*
X139700000Y-125476000D02*
X139700000Y-121920000D01*
X88646000Y-129032000D02*
X92202000Y-132588000D01*
X88646000Y-93726000D02*
X88646000Y-126237982D01*
X81026000Y-75692000D02*
X75692000Y-75692000D01*
X75692000Y-75692000D02*
X73660000Y-73660000D01*
X100330000Y-108712000D02*
X100330000Y-114046000D01*
X101600000Y-106680000D02*
X101600000Y-107442000D01*
X101600000Y-107442000D02*
X100330000Y-108712000D01*
X100330000Y-123698000D02*
X100330000Y-116078000D01*
X100330000Y-125984000D02*
X104648000Y-125984000D01*
X92456000Y-124714000D02*
X93726000Y-125984000D01*
X92456000Y-91694000D02*
X92456000Y-124714000D01*
X99791185Y-125984000D02*
X100330000Y-125984000D01*
X89553999Y-75838027D02*
X89553999Y-84727999D01*
X88646000Y-74930028D02*
X89553999Y-75838027D01*
X93726000Y-125984000D02*
X99791185Y-125984000D01*
X89553999Y-84727999D02*
X90932000Y-86106000D01*
X90932000Y-86106000D02*
X90932000Y-90170000D01*
X90932000Y-90170000D02*
X92456000Y-91694000D01*
X77978000Y-67818000D02*
X80460315Y-67818000D01*
X76200000Y-66040000D02*
X77978000Y-67818000D01*
X80460315Y-67818000D02*
X81026000Y-67818000D01*
X106680000Y-106680000D02*
X106680000Y-108458000D01*
X106680000Y-112776000D02*
X105410000Y-114046000D01*
X106680000Y-108458000D02*
X106680000Y-112776000D01*
X105410000Y-123444000D02*
X105156000Y-123698000D01*
X102900815Y-123698000D02*
X102362000Y-123698000D01*
X105410000Y-119888000D02*
X105410000Y-123444000D01*
X105156000Y-123698000D02*
X102900815Y-123698000D01*
X107569001Y-126365001D02*
X107950000Y-126746000D01*
X106426000Y-125222000D02*
X107569001Y-126365001D01*
X91694000Y-89662000D02*
X93218000Y-91186000D01*
X88646000Y-73660000D02*
X90170000Y-75184000D01*
X93218000Y-91186000D02*
X93218000Y-124460000D01*
X88646000Y-67818000D02*
X88646000Y-73660000D01*
X93980000Y-125222000D02*
X106426000Y-125222000D01*
X93218000Y-124460000D02*
X93980000Y-125222000D01*
X90170000Y-84328000D02*
X91694000Y-85852000D01*
X90170000Y-75184000D02*
X90170000Y-84328000D01*
X91694000Y-85852000D02*
X91694000Y-89662000D01*
X77724000Y-68580000D02*
X81788000Y-68580000D01*
X76708000Y-67564000D02*
X77724000Y-68580000D01*
X68580000Y-66040000D02*
X70104000Y-67564000D01*
X70104000Y-67564000D02*
X76708000Y-67564000D01*
X110490000Y-107950000D02*
X110490000Y-112972293D01*
X110490000Y-112972293D02*
X110490000Y-113537978D01*
X111506000Y-106934000D02*
X110490000Y-107950000D01*
X99060000Y-124460000D02*
X94488000Y-124460000D01*
X110490000Y-122682000D02*
X110490000Y-119888000D01*
X99060000Y-124460000D02*
X108712000Y-124460000D01*
X108712000Y-124460000D02*
X110490000Y-122682000D01*
X89408000Y-73406000D02*
X89408000Y-68580000D01*
X90932000Y-74930000D02*
X89408000Y-73406000D01*
X92456000Y-85598000D02*
X90932000Y-84074000D01*
X94234000Y-124460000D02*
X93980000Y-124206000D01*
X92456000Y-89408000D02*
X92456000Y-85598000D01*
X94488000Y-124460000D02*
X94234000Y-124460000D01*
X90932000Y-84074000D02*
X90932000Y-74930000D01*
X93980000Y-90932000D02*
X92456000Y-89408000D01*
X93980000Y-124206000D02*
X93980000Y-90932000D01*
X81788000Y-76454000D02*
X68834000Y-76454000D01*
X68834000Y-76454000D02*
X66040000Y-73660000D01*
X96520000Y-123698000D02*
X96520000Y-121920000D01*
X96520000Y-126746000D02*
X106680000Y-126746000D01*
X95981185Y-126746000D02*
X96520000Y-126746000D01*
X93472000Y-126746000D02*
X95981185Y-126746000D01*
X88646000Y-85060023D02*
X90170000Y-86584023D01*
X88646000Y-76454000D02*
X88646000Y-85060023D01*
X90170000Y-86584023D02*
X90170000Y-90424000D01*
X91694000Y-124968000D02*
X93472000Y-126746000D01*
X90170000Y-90424000D02*
X91694000Y-91948000D01*
X91694000Y-91948000D02*
X91694000Y-124968000D01*
X170180000Y-73660000D02*
X172212000Y-75692000D01*
X216662000Y-71882000D02*
X218440000Y-73660000D01*
X206248000Y-75692000D02*
X210058000Y-71882000D01*
X172212000Y-75692000D02*
X206248000Y-75692000D01*
X220980000Y-76200000D02*
X218440000Y-73660000D01*
X241300000Y-76200000D02*
X220980000Y-76200000D01*
X243840000Y-78740000D02*
X241300000Y-76200000D01*
X210820000Y-68972630D02*
X210820000Y-71882000D01*
X209550000Y-68834000D02*
X210681370Y-68834000D01*
X210681370Y-68834000D02*
X210820000Y-68972630D01*
X210058000Y-71882000D02*
X210820000Y-71882000D01*
X210820000Y-71882000D02*
X216662000Y-71882000D01*
X113030000Y-58420000D02*
X113030000Y-62230004D01*
X109220000Y-71120000D02*
X109220000Y-66040020D01*
X115570000Y-62357000D02*
X115570000Y-58420000D01*
X111760000Y-71120000D02*
X111760000Y-66167000D01*
X111760000Y-66167000D02*
X115570000Y-62357000D01*
X118110000Y-59622081D02*
X118110000Y-58420000D01*
X118110000Y-62230000D02*
X118110000Y-59622081D01*
X114300000Y-71120000D02*
X114300000Y-66040000D01*
X114300000Y-66040000D02*
X118110000Y-62230000D01*
X120650000Y-62230000D02*
X120650000Y-58420000D01*
X116840000Y-71120000D02*
X116840000Y-66040000D01*
X116840000Y-66040000D02*
X120650000Y-62230000D01*
X123190000Y-62230000D02*
X123190000Y-58420000D01*
X119380000Y-71120000D02*
X119380000Y-66040000D01*
X119380000Y-66040000D02*
X123190000Y-62230000D01*
X125730000Y-62230000D02*
X125730000Y-58420000D01*
X121920000Y-71120000D02*
X121920000Y-66040000D01*
X121920000Y-66040000D02*
X125730000Y-62230000D01*
X128270000Y-62230000D02*
X128270000Y-58420000D01*
X124460000Y-71120000D02*
X124460000Y-66040000D01*
X124460000Y-66040000D02*
X128270000Y-62230000D01*
X127000000Y-71120000D02*
X127000000Y-66040000D01*
X130810000Y-62230000D02*
X130810000Y-58420000D01*
X127000000Y-66040000D02*
X130810000Y-62230000D01*
X134199999Y-59269999D02*
X133350000Y-58420000D01*
X139700000Y-71120000D02*
X136906000Y-68326000D01*
X136906000Y-61976000D02*
X134199999Y-59269999D01*
X136906000Y-68326000D02*
X136906000Y-61976000D01*
X142240000Y-64770000D02*
X142240000Y-71120000D01*
X135890000Y-58420000D02*
X142240000Y-64770000D01*
X144780000Y-69988630D02*
X144780000Y-71120000D01*
X138430000Y-58420000D02*
X144780000Y-64770000D01*
X144780000Y-64770000D02*
X144780000Y-69988630D01*
X140970000Y-58420000D02*
X147320000Y-64770000D01*
X147320000Y-64770000D02*
X147320000Y-70866000D01*
X147320000Y-70866000D02*
X147320000Y-71120000D01*
X143510000Y-58420000D02*
X149860000Y-64770000D01*
X149860000Y-64770000D02*
X149860000Y-71120000D01*
X146050000Y-58420000D02*
X152400000Y-64770000D01*
X152400000Y-64770000D02*
X152400000Y-71120000D01*
X148590000Y-58420000D02*
X154940000Y-64770000D01*
X154940000Y-64770000D02*
X154940000Y-71120000D01*
X157480000Y-69988630D02*
X157480000Y-71120000D01*
X157480000Y-65532000D02*
X157480000Y-69988630D01*
X151130000Y-58420000D02*
X151130000Y-59182000D01*
X151130000Y-59182000D02*
X157480000Y-65532000D01*
M02*
